<svg height="227.77pt" viewBox="0 0 172.83 227.77" width="172.83pt" xmlns="http://www.w3.org/2000/svg" xmlns:xlink="http://www.w3.org/1999/xlink"><symbol id="a" overflow="visible"><path d="m2.796875-8.625-.140625-.140625c-.625.3125-1.046875.421875-1.921875.5l-.046875.25h.578125c.28125 0 .40625.09375.40625.296875 0 .09375-.015625.203125-.015625.28125l-.578125 3.203125c-.171875.90625-.359375 1.71875-.984375 4.21875l.109375.125.796875-.203125.28125-1.484375c.109375-.578125.390625-1.109375.796875-1.515625.828125 2.390625 1.203125 3.203125 1.5 3.203125.15625 0 .453125-.15625.96875-.53125l.5625-.375-.09375-.234375-.515625.296875c-.171875.09375-.25.109375-.359375.109375s-.203125-.0625-.296875-.265625c-.421875-.765625-.6875-1.421875-1.15625-2.890625l.171875-.15625c.71875-.734375 1.28125-1.03125 1.875-1.03125.09375 0 .21875.015625.421875.0625l.203125-.75c-.203125-.0625-.421875-.109375-.5625-.109375-.796875 0-1.78125.921875-3.28125 3.015625zm0 0"/></symbol><symbol id="b" overflow="visible"><path d="m2.71875.03125h1.015625c.203125-.53125.3125-.828125.46875-1.15625l1.515625-3.4375c.109375-.265625.234375-.375.4375-.40625l.359375-.0625v-.453125l-1.15625.03125c-.609375-.015625-.703125-.015625-1.15625-.03125v.453125l.453125.015625c.171875.015625.28125.109375.28125.203125 0 .15625-.03125.3125-.109375.5l-.734375 1.796875c-.09375.265625-.203125.515625-.40625.96875l-1.0625-2.65625c-.109375-.296875-.15625-.46875-.15625-.609375 0-.109375.09375-.1875.265625-.203125l.5-.015625v-.453125l-1.546875.03125c-.15625 0-.34375 0-1.5625-.03125v.453125l.3125.015625c.203125.03125.34375.234375.5625.75zm0 0"/></symbol><symbol id="c" overflow="visible"><path d="m4.6875-.953125-.0625.984375c1-.03125 1-.03125 1.125-.03125s.328125 0 .65625.03125h.5625v-.4375l-.390625-.03125c-.375-.015625-.4375-.109375-.4375-.75v-4.375l-.109375-.0625-.84375.265625c-.390625.109375-.609375.140625-1.34375.25v.421875l.53125.03125c.28125.03125.3125.140625.3125.84375v1.859375c0 .59375-.515625 1.078125-1.15625 1.078125-.671875 0-.921875-.421875-.921875-1.5625v-3.125l-.125-.0625-.828125.265625c-.40625.109375-.609375.140625-1.359375.25v.421875l.546875.03125c.265625.03125.296875.140625.296875.84375v2.140625c0 1.203125.65625 1.875 1.796875 1.875.34375 0 .65625-.09375.84375-.28125zm0 0"/></symbol><symbol id="d" overflow="visible"><path d="m4.28125 2.140625-.65625.734375c.8125.59375.8125.59375.90625.671875.09375.0625.265625.1875.5.421875.0625.046875.25.203125.4375.359375l.265625-.34375-.28125-.28125c-.28125-.25-.265625-.359375.125-.859375l2.6875-3.453125-.046875-.109375-.828125-.3125c-.375-.15625-.5625-.265625-1.21875-.640625l-.25.34375.390625.34375c.203125.203125.15625.3125-.28125.875l-1.140625 1.453125c-.359375.46875-1.078125.53125-1.578125.140625-.53125-.40625-.453125-.890625.25-1.796875l1.921875-2.46875-.0625-.125-.8125-.296875c-.390625-.171875-.5625-.265625-1.234375-.640625l-.25.34375.40625.34375c.1875.203125.15625.296875-.28125.859375l-1.3125 1.6875c-.75.9375-.640625 1.875.25 2.578125.265625.203125.578125.34375.84375.296875zm0 0"/></symbol><symbol id="e" overflow="visible"><path d="m2.125 1.703125.796875.625c.5-.296875.75-.46875 1.078125-.625l3.3125-1.78125c.25-.125.421875-.140625.59375-.046875l.328125.171875.28125-.359375-.9375-.6875c-.46875-.390625-.546875-.453125-.890625-.734375l-.28125.359375.359375.28125c.109375.125.140625.28125.09375.34375-.109375.125-.234375.21875-.40625.328125l-1.6875.953125c-.21875.171875-.46875.28125-.90625.515625l.796875-2.75c.09375-.296875.171875-.46875.265625-.578125.0625-.078125.171875-.078125.328125.015625l.390625.28125.28125-.359375-1.234375-.921875c-.125-.09375-.265625-.203125-1.21875-.984375l-.28125.359375.25.203125c.125.15625.109375.40625-.03125.9375zm0 0"/></symbol><symbol id="f" overflow="visible"><path d="m8.234375 2.796875c.171875.140625.34375.265625.5.0625.140625-.1875-.03125-.3125-.203125-.453125l-5.3125-4.140625c-.171875-.140625-.34375-.265625-.484375-.078125-.15625.203125.015625.328125.1875.46875zm0 0"/></symbol><symbol id="g" overflow="visible"><path d="m7.515625-5.078125-.03125-.1875c-.6875-.140625-1.078125-.328125-1.8125-.796875l-.1875.171875.453125.359375c.21875.171875.25.3125.125.484375-.0625.0625-.125.140625-.171875.203125l-2.4375 2.15625c-.6875.625-1.34375 1.140625-3.359375 2.734375v.171875l.75.3125 1.140625-1c.4375-.375.984375-.625 1.5625-.6875-.8125 2.40625-1.03125 3.265625-.796875 3.453125.125.09375.453125.15625 1.09375.171875l.671875.046875.078125-.234375-.59375-.09375c-.203125-.015625-.265625-.078125-.34375-.140625-.09375-.0625-.125-.171875-.078125-.390625.140625-.859375.328125-1.546875.875-2.984375l.21875-.015625c1.015625-.140625 1.65625-.03125 2.125.34375.0625.046875.15625.140625.28125.3125l.625-.46875c-.125-.171875-.265625-.34375-.375-.4375-.625-.484375-1.96875-.359375-4.453125.359375zm0 0"/></symbol><g stroke-linecap="round" stroke-linejoin="round" stroke-miterlimit="10" transform="matrix(.1 0 0 -.1 0 227.77)"><g stroke-width="14.9975"><path d="m1117.1875 1475.395312-1074.6875-1432.890625" fill="none" stroke="#006400"/><path d="m1141.171875 1507.3875-32.578125-25.546875 17.148438-12.851563zm0 0" fill="#006400" stroke="#006400"/><path d="m684.84375 1849.614062 456.328125-342.226562" fill="none" stroke="#8b0000"/><path d="m652.851562 1873.6375 25.585938-32.578125 12.851562 17.148437zm0 0" fill="#8b0000" stroke="#8b0000"/></g><path d="m1645.507812 2179.848437-1603.007812-2137.34375" fill="none" stroke="#000" stroke-width="4.99917"/><path d="m1690.507812 2239.848437-61.054687-47.929687 32.148437-24.101563zm0 0" stroke="#000" stroke-width="4.99917"/><path d="m629.140625 1802.465625-586.640625-1759.960938" fill="none" stroke="#000" stroke-width="4.99917"/><path d="m652.851562 1873.6375-42.773437-64.804688 38.125-12.695312zm0 0" stroke="#000" stroke-width="4.99917"/></g><use fill="#006400" x="61.9199" xlink:href="#a" y="161.5298"/><use fill="#006400" x="67.43982" xlink:href="#b" y="161.5298"/><g fill="#8b0000"><use x="81.0301" xlink:href="#d" y="46.01"/><use x="88.784" xlink:href="#f" y="52.068"/><use x="98.5238" xlink:href="#g" y="59.678"/><use x="102.873723" xlink:href="#e" y="63.076529"/></g><use x="138.84" xlink:href="#b" y="55.69"/><use x="23.76" xlink:href="#c" y="134.6502"/></svg>