<svg height="172.97pt" viewBox="0 0 227.77 172.97" width="227.77pt" xmlns="http://www.w3.org/2000/svg" xmlns:xlink="http://www.w3.org/1999/xlink"><clipPath id="a"><path d="m147.058594 45h67.808594v29.113281h-67.808594zm0 0"/></clipPath><clipPath id="b"><path d="m147.058594 7h22.941406v67.113281h-22.941406zm0 0"/></clipPath><clipPath id="c"><path d="m147.058594 32h67.808594v42.113281h-67.808594zm0 0"/></clipPath><clipPath id="d"><path d="m168 6.304688h26v67.808593h-26zm0 0"/></clipPath><clipPath id="e"><path d="m147.058594 18h67.808594v44h-67.808594zm0 0"/></clipPath><clipPath id="f"><path d="m192 6.304688h22.867188v66.695312h-22.867188zm0 0"/></clipPath><clipPath id="g"><path d="m147.058594 6.304688h67.808594v42.695312h-67.808594zm0 0"/></clipPath><clipPath id="h"><path d="m147.058594 6.304688h67.808594v29.695312h-67.808594zm0 0"/></clipPath><clipPath id="i"><path d="m147.058594 163h67.808594v1h-67.808594zm0 0"/></clipPath><clipPath id="j"><path d="m156 101.664062h1v67.808594h-1zm0 0"/></clipPath><clipPath id="k"><path d="m147.058594 149h67.808594v1h-67.808594zm0 0"/></clipPath><clipPath id="l"><path d="m180 101.664062h2v67.808594h-2zm0 0"/></clipPath><clipPath id="m"><path d="m147.058594 135h67.808594v1h-67.808594zm0 0"/></clipPath><clipPath id="n"><path d="m205 101.664062h1v67.808594h-1zm0 0"/></clipPath><clipPath id="o"><path d="m147.058594 121h67.808594v1h-67.808594zm0 0"/></clipPath><clipPath id="p"><path d="m147.058594 107h67.808594v2h-67.808594zm0 0"/></clipPath><symbol id="q" overflow="visible"><path d="m2.484375-.765625-.578125-4.21875v-.0625c-.015625-.15625.109375-.234375.34375-.25l.328125-.015625v-.21875h-.328125c-.296875.015625-.515625.015625-.65625.015625s-.375 0-.671875-.015625h-.328125v.21875l.203125.015625c.359375.03125.421875.09375.46875.390625l.703125 4.96875h.40625l3.015625-4.953125c.203125-.3125.265625-.375.5-.40625l.140625-.015625v-.21875h-.234375c-.21875.015625-.40625.015625-.53125.015625-.078125 0-.296875 0-.625-.015625h-.375v.21875l.21875.015625c.296875.03125.453125.109375.453125.25 0 .09375-.03125.1875-.125.34375zm0 0"/></symbol><symbol id="r" overflow="visible"><path d="m6.359375-5.3125.03125-.21875h-.140625l-.71875.015625c-.125 0-.296875 0-.640625 0l-.5-.015625-.03125.21875.390625.015625c.1875.015625.28125.078125.28125.21875 0 .046875 0 .0625-.015625.109375l-.5625 3.546875c-.390625.46875-.625.671875-1.03125.875-.3125.15625-.609375.234375-.90625.234375-.6875 0-1.109375-.359375-1.109375-.921875 0-.140625.015625-.265625.046875-.484375l.703125-3.8125h-.25c-.203125.015625-.375.015625-.453125.015625s-.25 0-.46875-.015625h-.25l-.03125.21875.421875.015625c.203125.015625.265625.046875.265625.1875 0 .0625-.015625.296875-.046875.46875l-.515625 3c-.03125.15625-.046875.359375-.046875.484375 0 .8125.53125 1.3125 1.421875 1.3125.359375 0 .6875-.078125 1.0625-.28125.484375-.234375.734375-.421875 1.15625-.90625-.0625.375-.125.578125-.21875 1.015625l.03125.046875h.1875l.484375-.03125c.03125 0 .21875.015625.46875.015625l.25.015625.046875-.234375-.484375-.03125c-.171875-.015625-.25-.0625-.25-.171875s0-.15625.046875-.4375l.671875-4.0625c.0625-.296875.109375-.34375.421875-.375zm0 0"/></symbol><symbol id="s" overflow="visible"><path d="m3.703125-5.640625-2.984375 4.75c-.296875.4375-.4375.578125-.703125.640625l-.171875.03125v.25c.734375-.03125.734375-.03125.90625-.03125.140625 0 .15625 0 .84375.03125v-.234375l-.40625-.015625c-.125-.015625-.25-.078125-.25-.15625 0-.0625.046875-.171875.203125-.4375l.8125-1.40625h1.96875l.203125 1.5v.03125s.015625.03125.015625.078125c.015625.0625.015625.140625.015625.171875 0 .125-.109375.203125-.34375.21875l-.34375.015625v.234375c.8125-.03125.8125-.03125.96875-.03125s.15625 0 .984375.03125v-.234375l-.21875-.015625c-.375-.0625-.375-.0625-.4375-.421875l-.703125-5zm-.109375.828125.296875 2.3125h-1.734375zm0 0"/></symbol><symbol id="t" overflow="visible"><path d="m1.59375-3c.03125-.078125.0625-.140625.0625-.203125 0-.1875-.15625-.328125-.359375-.328125-.171875 0-.296875.109375-.328125.28125l-.765625 2.765625c0 .015625-.015625.078125-.015625.078125 0 .078125.15625.125.21875.125.03125 0 .03125-.015625.078125-.109375zm0 0"/></symbol><symbol id="u" overflow="visible"><path d="m4.171875-1.453125c.109375 0 .21875 0 .21875-.125s-.109375-.125-.21875-.125h-3.421875c-.109375 0-.21875 0-.21875.125s.109375.125.21875.125zm0 0"/></symbol><symbol id="v" overflow="visible"><path d="m4.28125-2.03125c.09375 0 .21875 0 .21875-.125s-.125-.125-.203125-.125h-3.734375c-.09375 0-.21875 0-.21875.125s.125.125.21875.125zm.015625 1.203125c.078125 0 .203125 0 .203125-.125s-.125-.125-.21875-.125h-3.71875c-.09375 0-.21875 0-.21875.125s.125.125.21875.125zm0 0"/></symbol><symbol id="w" overflow="visible"><path d="m4.109375-1.4375c.109375 0 .21875 0 .21875-.125s-.109375-.125-.21875-.125h-3.375c-.109375 0-.21875 0-.21875.125s.109375.125.21875.125zm0 0"/></symbol><symbol id="x" overflow="visible"><path d="m.328125-.0625.0625.078125c.234375-.015625.234375-.015625.28125-.015625.03125 0 .03125 0 .265625.015625.25-.65625.546875-1.265625.9375-1.984375l1.09375-1.96875v-.1875c-.640625.03125-.84375.03125-1.328125.03125-.4375 0-.734375 0-1.3125-.03125l-.0625.03125c.015625.5625.015625.5625.015625.625s0 .0625-.015625.609375h.171875l.046875-.328125c.046875-.375.09375-.421875.359375-.421875h1.609375c-.25.484375-.4375.84375-.65625 1.203125zm0 0"/></symbol><symbol id="y" overflow="visible"><path d="m.25-2.984375h.1875l.109375-.328125c.0625-.203125.453125-.40625.75-.40625.390625 0 .71875.3125.71875.6875 0 .453125-.359375.828125-.78125.828125-.046875 0-.109375 0-.1875-.015625h-.09375l-.078125.3125.046875.046875c.234375-.109375.34375-.140625.5-.140625.5 0 .78125.3125.78125.859375 0 .609375-.359375 1.015625-.921875 1.015625-.265625 0-.515625-.09375-.6875-.265625-.15625-.125-.234375-.265625-.34375-.578125l-.15625.046875c.125.375.171875.59375.203125.890625.3125.109375.578125.15625.796875.15625.484375 0 1.03125-.28125 1.359375-.671875.203125-.25.3125-.515625.3125-.796875s-.125-.53125-.34375-.6875c-.140625-.109375-.28125-.15625-.578125-.203125.484375-.375.65625-.65625.65625-1 0-.53125-.4375-.890625-1.109375-.890625-.40625 0-.671875.109375-.953125.40625zm0 0"/></symbol><symbol id="z" overflow="visible"><path d="m.734375-.671875c-.171875 0-.328125.171875-.328125.359375 0 .171875.15625.34375.328125.34375.1875 0 .359375-.15625.359375-.34375s-.171875-.359375-.359375-.359375zm0 0"/></symbol><symbol id="A" overflow="visible"><path d="m.09375-.140625v.15625c1.125-.015625 1.125-.015625 1.34375-.015625.203125 0 .203125 0 1.359375.015625-.015625-.125-.015625-.1875-.015625-.265625s0-.140625.015625-.265625c-.6875.03125-.953125.03125-2.0625.0625l1.078125-1.15625c.59375-.625.765625-.953125.765625-1.40625 0-.6875-.46875-1.109375-1.21875-1.109375-.4375 0-.734375.125-1.03125.421875l-.09375.8125h.171875l.078125-.28125c.09375-.34375.3125-.484375.71875-.484375.515625 0 .84375.3125.84375.828125 0 .453125-.25.890625-.9375 1.609375zm0 0"/></symbol><symbol id="B" overflow="visible"><path d="m.59375-2.28125v1.71875c0 .4375.1875.640625.65625.640625.125 0 .28125-.03125.3125-.078125l.28125-.3125-.078125-.109375c-.140625.09375-.234375.109375-.34375.109375-.234375 0-.328125-.109375-.328125-.40625v-1.5625h.765625l.046875-.328125-.8125.03125v-.21875c0-.25.015625-.46875.0625-.859375l-.078125-.0625c-.140625.09375-.3125.171875-.5.234375.015625.171875.015625.28125.015625.46875v.421875l-.46875.203125v.125zm0 0"/></symbol><symbol id="C" overflow="visible"><path d="m3.015625-2.78125-.0625-.03125c-.296875.125-.609375.21875-.9375.25v.171875h.234375c.234375 0 .25.03125.25.4375v.96875c0 .140625-.078125.296875-.21875.4375-.15625.171875-.359375.25-.59375.25-.203125 0-.375-.0625-.46875-.171875-.078125-.09375-.125-.28125-.125-.546875v-1.765625l-.046875-.03125c-.3125.125-.625.21875-.9375.25v.171875h.21875c.234375 0 .265625.03125.265625.4375v1c0 .421875.03125.609375.140625.75.140625.1875.359375.28125.703125.28125.265625 0 .5-.09375.671875-.234375l.390625-.375c0 .171875 0 .265625-.015625.546875.40625-.015625.40625-.015625.5-.015625.078125 0 .078125 0 .5.015625v-.171875l-.25-.015625c-.203125-.015625-.21875-.0625-.21875-.4375zm0 0"/></symbol><symbol id="D" overflow="visible"><path d="m.140625-2.390625h.21875c.234375 0 .265625.03125.265625.4375v1.34375c0 .375-.015625.421875-.21875.4375l-.28125.015625v.171875c.4375-.015625.59375-.015625.734375-.015625.125 0 .125 0 .859375.015625v-.171875l-.3125-.015625c-.265625-.03125-.28125-.046875-.28125-.4375v-1.03125c0-.359375.234375-.65625.53125-.65625.1875 0 .3125.078125.40625.28125h.125l.046875-.71875c-.0625-.046875-.171875-.078125-.28125-.078125-.171875 0-.375.109375-.5.25l-.328125.390625v-.609375l-.046875-.03125c-.3125.125-.625.21875-.9375.25zm0 0"/></symbol><symbol id="E" overflow="visible"><path d="m2.453125.015625c.359375-.015625.375-.015625.46875-.015625s.09375 0 .5.015625v-.171875l-.25-.015625c-.203125-.015625-.21875-.0625-.21875-.4375v-1.15625c0-.703125-.328125-1.046875-1-1.046875-.21875 0-.34375.046875-.46875.15625l-.453125.390625v-.515625l-.0625-.03125c-.296875.125-.609375.21875-.921875.25v.171875h.21875c.234375 0 .265625.03125.265625.4375v1.34375c0 .375-.015625.421875-.21875.4375l-.28125.015625v.171875c.40625-.015625.578125-.015625.75-.015625s.328125 0 .734375.015625v-.171875l-.265625-.015625c-.203125-.015625-.21875-.0625-.21875-.4375v-1.265625c0-.265625.390625-.5625.765625-.5625.390625 0 .65625.296875.65625.75zm0 0"/></symbol><symbol id="F" overflow="visible"><path d="m.40625-3.328125h.046875l.78125-.34375h.015625c.03125 0 .046875.046875.046875.1875v2.90625c0 .3125-.0625.375-.390625.40625l-.328125.015625v.171875c.921875-.015625.921875-.015625.984375-.015625h.40625c.078125.015625.28125.015625.53125.015625v-.171875l-.3125-.015625c-.328125-.03125-.390625-.09375-.390625-.40625v-3.546875l-.078125-.03125c-.390625.203125-.8125.390625-1.359375.578125zm0 0"/></symbol><symbol id="G" overflow="visible"><path d="m2.484375-4.015625-.21875-.109375c-.578125.1875-.8125.3125-1.125.578125-.609375.515625-.953125 1.25-.953125 2.0625 0 1 .484375 1.609375 1.25 1.609375.78125 0 1.359375-.625 1.359375-1.4375 0-.6875-.40625-1.140625-1.046875-1.140625-.296875 0-.46875.078125-.828125.359375-.0625.0625-.078125.0625-.140625.109375.125-1.078125.625-1.671875 1.703125-1.984375zm-.953125 1.921875c.453125 0 .75.40625.75 1 0 .609375-.296875 1.015625-.765625 1.015625-.5 0-.78125-.4375-.78125-1.234375 0-.21875.03125-.328125.09375-.421875.125-.203125.40625-.359375.703125-.359375zm0 0"/></symbol><symbol id="H" overflow="visible"><path d="m1-2.0625c-.234375.109375-.34375.171875-.46875.296875-.234375.234375-.359375.5-.359375.8125 0 .625.5 1.078125 1.1875 1.078125.765625 0 1.421875-.609375 1.421875-1.359375 0-.484375-.21875-.734375-.90625-1.046875.546875-.375.734375-.625.734375-.984375 0-.515625-.421875-.859375-1.0625-.859375-.703125 0-1.234375.453125-1.234375 1.078125 0 .40625.171875.640625.6875.984375zm.703125.296875c.375.171875.59375.46875.59375.78125 0 .5-.375.90625-.859375.90625-.5 0-.828125-.359375-.828125-.921875 0-.4375.171875-.71875.609375-.984375zm-.375-.765625c-.375-.1875-.5625-.421875-.5625-.71875 0-.40625.28125-.671875.71875-.671875s.71875.296875.71875.71875c0 .34375-.15625.578125-.546875.828125zm0 0"/></symbol><symbol id="I" overflow="visible"><path d="m2.296875-1.296875c0-.5625-.453125-1-1-1-.5625 0-1.015625.453125-1.015625 1s.453125 1 1.015625 1c.546875 0 1-.4375 1-1zm-1 .796875c-.453125 0-.796875-.359375-.796875-.796875s.34375-.796875.796875-.796875c.4375 0 .796875.34375.796875.796875s-.359375.796875-.796875.796875zm0 0"/></symbol><symbol id="J" overflow="visible"><path d="m4.328125 0 .28125-1.203125h-.21875c-.234375.4375-.375.5-.734375.5h-2.390625l1.890625-2.21875-1.625-1.84375h1.734375c.46875 0 .671875.109375.90625.671875h.203125l-.203125-1h-3.671875v.21875l1.96875 2.28125-2.125 2.375v.21875zm0 0"/></symbol><symbol id="K" overflow="visible"><path d="m5.734375-2.734375c.125 0 .28125 0 .28125-.15625 0-.171875-.15625-.171875-.28125-.171875h-4.984375c-.125 0-.28125 0-.28125.171875 0 .15625.15625.15625.28125.15625zm0 1.625c.125 0 .28125 0 .28125-.171875 0-.15625-.15625-.15625-.28125-.15625h-4.984375c-.125 0-.28125 0-.28125.15625 0 .171875.15625.171875.28125.171875zm0 0"/></symbol><symbol id="L" overflow="visible"><path d="m1.609375 9.265625h1.546875v-.3125h-1.21875v-8.953125h1.21875v-.3125h-1.546875zm0 0"/></symbol><symbol id="M" overflow="visible"><path d="m1.71875 9.265625v-9.578125h-1.546875v.3125h1.21875v8.953125h-1.21875v.3125zm0 0"/></symbol><symbol id="N" overflow="visible"><path d="m.09375-.140625v.15625c1.140625-.015625 1.140625-.015625 1.359375-.015625s.21875 0 1.390625.015625c-.015625-.125-.015625-.1875-.015625-.265625s0-.140625.015625-.28125c-.703125.03125-.984375.03125-2.109375.0625l1.109375-1.171875c.59375-.625.78125-.953125.78125-1.421875 0-.6875-.484375-1.125-1.25-1.125-.4375 0-.734375.125-1.03125.421875l-.109375.828125h.171875l.09375-.28125c.09375-.34375.3125-.5.71875-.5.515625 0 .859375.328125.859375.84375 0 .453125-.265625.90625-.953125 1.640625zm0 0"/></symbol><symbol id="O" overflow="visible"><path d="m.75-.671875c-.171875 0-.34375.171875-.34375.34375 0 .1875.171875.359375.34375.359375.1875 0 .359375-.171875.359375-.359375 0-.171875-.171875-.34375-.359375-.34375zm0 0"/></symbol><symbol id="P" overflow="visible"><path d="m.265625-3.03125h.1875l.109375-.34375c.0625-.203125.453125-.40625.765625-.40625.390625 0 .71875.328125.71875.703125 0 .453125-.359375.84375-.796875.84375-.046875 0-.109375-.015625-.1875-.015625h-.09375l-.078125.3125.046875.046875c.234375-.109375.34375-.140625.515625-.140625.5 0 .796875.328125.796875.875 0 .625-.375 1.03125-.9375 1.03125-.28125 0-.53125-.09375-.71875-.265625-.140625-.125-.21875-.265625-.34375-.59375l-.15625.046875c.125.375.171875.59375.203125.90625.328125.109375.59375.15625.828125.15625.484375 0 1.03125-.28125 1.375-.6875.203125-.25.3125-.515625.3125-.796875 0-.296875-.125-.546875-.34375-.703125-.15625-.109375-.296875-.15625-.59375-.203125.484375-.390625.671875-.671875.671875-1.015625 0-.546875-.453125-.90625-1.125-.90625-.421875 0-.6875.109375-.984375.40625zm0 0"/></symbol><symbol id="Q" overflow="visible"><path d="m1.59375-4.1875c-.9375 0-1.421875.75-1.421875 2.21875 0 .703125.125 1.328125.34375 1.625s.546875.46875.9375.46875c.90625 0 1.375-.796875 1.375-2.34375 0-1.34375-.390625-1.96875-1.234375-1.96875zm-.109375.21875c.59375 0 .828125.59375.828125 2.046875 0 1.296875-.234375 1.828125-.78125 1.828125-.59375 0-.84375-.609375-.84375-2.09375 0-1.28125.21875-1.78125.796875-1.78125zm0 0"/></symbol><symbol id="R" overflow="visible"><path d="m.40625-3.375h.0625l.78125-.34375c.015625-.015625.015625-.015625.015625-.015625.046875 0 .046875.0625.046875.203125v2.953125c0 .3125-.0625.375-.390625.390625l-.34375.015625v.1875c.9375-.015625.9375-.015625 1.015625-.015625h.40625c.078125.015625.296875.015625.546875.015625v-.1875l-.328125-.015625c-.328125-.015625-.390625-.078125-.390625-.390625v-3.609375l-.078125-.03125c-.40625.203125-.828125.390625-1.390625.578125zm0 0"/></symbol><path d="m240.3125 1327.590625h595.742188" style="fill:none;stroke-width:4.99843;stroke-linecap:round;stroke-linejoin:round;stroke:#bfbfbf;stroke-miterlimit:10" transform="matrix(.1 0 0 -.1 0 172.97)"/><path d="m220.351562 1327.590625 19.960938-5.351562v10.703125zm0 0" style="fill:#bfbfbf;stroke-width:4.99843;stroke-linecap:round;stroke-linejoin:round;stroke:#bfbfbf;stroke-miterlimit:10" transform="matrix(.1 0 0 -.1 0 172.97)"/><path d="m856.054688 1327.590625-20 5.351563v-10.703125zm0 0" style="fill:#bfbfbf;stroke-width:4.99843;stroke-linecap:round;stroke-linejoin:round;stroke:#bfbfbf;stroke-miterlimit:10" transform="matrix(.1 0 0 -.1 0 172.97)"/><path d="m538.203125 1029.739063v595.703125" style="fill:none;stroke-width:4.99843;stroke-linecap:round;stroke-linejoin:round;stroke:#bfbfbf;stroke-miterlimit:10" transform="matrix(.1 0 0 -.1 0 172.97)"/><path d="m538.203125 1009.739063 5.351563 20h-10.742188zm0 0" style="fill:#bfbfbf;stroke-width:4.99843;stroke-linecap:round;stroke-linejoin:round;stroke:#bfbfbf;stroke-miterlimit:10" transform="matrix(.1 0 0 -.1 0 172.97)"/><path d="m538.203125 1645.442188-5.390625-20h10.742188zm0 0" style="fill:#bfbfbf;stroke-width:4.99843;stroke-linecap:round;stroke-linejoin:round;stroke:#bfbfbf;stroke-miterlimit:10" transform="matrix(.1 0 0 -.1 0 172.97)"/><path d="m326.289062 1332.903125v-10.585937" style="fill:none;stroke-width:4.99843;stroke-linecap:round;stroke-linejoin:round;stroke:#bfbfbf;stroke-miterlimit:10" transform="matrix(.1 0 0 -.1 0 172.97)"/><path d="m532.890625 1115.715625h10.585937" style="fill:none;stroke-width:4.99843;stroke-linecap:round;stroke-linejoin:round;stroke:#bfbfbf;stroke-miterlimit:10" transform="matrix(.1 0 0 -.1 0 172.97)"/><path d="m432.226562 1332.903125v-10.585937" style="fill:none;stroke-width:4.99843;stroke-linecap:round;stroke-linejoin:round;stroke:#bfbfbf;stroke-miterlimit:10" transform="matrix(.1 0 0 -.1 0 172.97)"/><path d="m532.890625 1221.653125h10.585937" style="fill:none;stroke-width:4.99843;stroke-linecap:round;stroke-linejoin:round;stroke:#bfbfbf;stroke-miterlimit:10" transform="matrix(.1 0 0 -.1 0 172.97)"/><path d="m644.140625 1332.903125v-10.585937" style="fill:none;stroke-width:4.99843;stroke-linecap:round;stroke-linejoin:round;stroke:#bfbfbf;stroke-miterlimit:10" transform="matrix(.1 0 0 -.1 0 172.97)"/><path d="m532.890625 1433.567188h10.585937" style="fill:none;stroke-width:4.99843;stroke-linecap:round;stroke-linejoin:round;stroke:#bfbfbf;stroke-miterlimit:10" transform="matrix(.1 0 0 -.1 0 172.97)"/><path d="m750.078125 1332.903125v-10.585937" style="fill:none;stroke-width:4.99843;stroke-linecap:round;stroke-linejoin:round;stroke:#bfbfbf;stroke-miterlimit:10" transform="matrix(.1 0 0 -.1 0 172.97)"/><path d="m532.890625 1539.504688h10.585937" style="fill:none;stroke-width:4.99843;stroke-linecap:round;stroke-linejoin:round;stroke:#bfbfbf;stroke-miterlimit:10" transform="matrix(.1 0 0 -.1 0 172.97)"/><path d="m64.414062 40.210938c0-5.851563-4.742187-10.597657-10.59375-10.597657-5.851562 0-10.597656 4.746094-10.597656 10.597657 0 5.851562 4.746094 10.59375 10.597656 10.59375 5.851563 0 10.59375-4.742188 10.59375-10.59375" fill="#c00" fill-opacity=".1"/><g stroke-linecap="round" stroke-linejoin="round" stroke-miterlimit="10" transform="matrix(.1 0 0 -.1 0 172.97)"><path d="m644.140625 1327.590625c0 58.515625-47.421875 105.976563-105.9375 105.976563s-105.976563-47.460938-105.976563-105.976563 47.460938-105.9375 105.976563-105.9375 105.9375 47.421875 105.9375 105.9375zm0 0" fill="none" stroke="#8b0000" stroke-width="4.99843"/><path d="m624.140625 1327.590625h-85.9375" fill="none" stroke="#191970" stroke-width="4.99843"/><path d="m644.140625 1327.590625-20 5.351563v-10.703125zm0 0" fill="#191970" stroke="#191970" stroke-width="4.99843"/><path d="m538.203125 1413.567188v-85.976563" fill="none" stroke="#2e8b57" stroke-width="4.99843"/><path d="m538.203125 1433.567188-5.390625-20h10.742188zm0 0" fill="#2e8b57" stroke="#2e8b57" stroke-width="4.99843"/><path d="m172.65625 1216.614063 608.59375-183.75" fill="none" stroke="#7f7f7f" stroke-width="1.99937"/><path d="m832.929688 1570.6375-183.75-608.59375" fill="none" stroke="#7f7f7f" stroke-width="1.99937"/><path d="m203.28125 1318.059375 608.554688-183.75" fill="none" stroke="#7f7f7f" stroke-width="1.99937"/><path d="m731.484375 1601.2625-183.75-608.59375" fill="none" stroke="#7f7f7f" stroke-width="1.99937"/><path d="m233.90625 1419.465625 608.554688-183.75" fill="none" stroke="#7f7f7f" stroke-width="1.99937"/><path d="m630.078125 1631.8875-183.75-608.59375" fill="none" stroke="#7f7f7f" stroke-width="1.99937"/><path d="m264.53125 1520.910938 608.554688-183.75" fill="none" stroke="#7f7f7f" stroke-width="1.99937"/><path d="m528.632812 1662.5125-183.75-608.59375" fill="none" stroke="#7f7f7f" stroke-width="1.99937"/><path d="m295.15625 1622.317188 608.554688-183.710938" fill="none" stroke="#7f7f7f" stroke-width="1.99937"/><path d="m427.1875 1693.1375-183.710938-608.59375" fill="none" stroke="#7f7f7f" stroke-width="1.99937"/><g stroke-width="4.99843"><path d="m240.3125 374.035938h595.742188" fill="none" stroke="#bfbfbf"/><path d="m220.351562 374.035938 19.960938-5.351563v10.703125zm0 0" fill="#bfbfbf" stroke="#bfbfbf"/><path d="m856.054688 374.035938-20 5.351562v-10.703125zm0 0" fill="#bfbfbf" stroke="#bfbfbf"/><path d="m538.203125 76.184375v595.703125" fill="none" stroke="#bfbfbf"/><path d="m538.203125 56.184375 5.351563 20h-10.742188zm0 0" fill="#bfbfbf" stroke="#bfbfbf"/><path d="m538.203125 691.8875-5.390625-20h10.742188zm0 0" fill="#bfbfbf" stroke="#bfbfbf"/><path d="m326.289062 379.348438v-10.625" fill="none" stroke="#bfbfbf"/><path d="m532.890625 162.121875h10.585937" fill="none" stroke="#bfbfbf"/><path d="m432.226562 379.348438v-10.625" fill="none" stroke="#bfbfbf"/><path d="m532.890625 268.098438h10.585937" fill="none" stroke="#bfbfbf"/><path d="m644.140625 379.348438v-10.625" fill="none" stroke="#bfbfbf"/><path d="m532.890625 479.973438h10.585937" fill="none" stroke="#bfbfbf"/><path d="m750.078125 379.348438v-10.625" fill="none" stroke="#bfbfbf"/><path d="m532.890625 585.95h10.585937" fill="none" stroke="#bfbfbf"/></g></g><path d="m56.890625 145.707031c5.597656-1.695312 8.765625-7.609375 7.070313-13.210937-1.695313-5.601563-7.613282-8.765625-13.210938-7.070313-5.601562 1.695313-8.765625 7.609375-7.070312 13.210938 1.695312 5.601562 7.609374 8.765625 13.210937 7.070312" fill="#c00" fill-opacity=".1"/><g stroke-linecap="round" stroke-linejoin="round" stroke-miterlimit="10" transform="matrix(.1 0 0 -.1 0 172.97)"><path d="m568.90625 272.629688c55.976562 16.953125 87.65625 76.09375 70.703125 132.109375s-76.132813 87.65625-132.109375 70.703125c-56.015625-16.953125-87.65625-76.09375-70.703125-132.109375s76.09375-87.65625 132.109375-70.703125zm0 0" fill="none" stroke="#8b0000" stroke-width="4.99843"/><path d="m563.085938 291.770313-24.882813 82.265625" fill="none" stroke="#191970" stroke-width="4.99843"/><path d="m568.90625 272.629688-.664062 20.703125-10.273438-3.125zm0 0" fill="#191970" stroke="#191970" stroke-width="4.99843"/><path d="m620.46875 398.957813-82.265625-24.921875" fill="none" stroke="#2e8b57" stroke-width="4.99843"/><path d="m639.609375 404.739063-20.703125-.664063 3.125-10.273437zm0 0" fill="#2e8b57" stroke="#2e8b57" stroke-width="4.99843"/><path d="m326.054688 691.73125.46875-635.703125" fill="none" stroke="#7f7f7f" stroke-width="1.99937"/><path d="m856.210938 162.395313-635.703126-.507813" fill="none" stroke="#7f7f7f" stroke-width="1.99937"/><path d="m431.992188 691.809375.507812-635.703125" fill="none" stroke="#7f7f7f" stroke-width="1.99937"/><path d="m856.132812 268.332813-635.703124-.507813" fill="none" stroke="#7f7f7f" stroke-width="1.99937"/><path d="m537.929688 691.8875.507812-635.703125" fill="none" stroke="#7f7f7f" stroke-width="1.99937"/><path d="m856.054688 374.270313-635.703126-.46875" fill="none" stroke="#7f7f7f" stroke-width="1.99937"/><path d="m643.90625 691.965625.46875-635.703125" fill="none" stroke="#7f7f7f" stroke-width="1.99937"/><path d="m855.976562 480.246875-635.703124-.507812" fill="none" stroke="#7f7f7f" stroke-width="1.99937"/><path d="m749.84375 692.04375.507812-635.703125" fill="none" stroke="#7f7f7f" stroke-width="1.99937"/><path d="m855.898438 586.184375-635.742188-.507812" fill="none" stroke="#7f7f7f" stroke-width="1.99937"/><path d="m1511.757812 1327.590625h595.703126" fill="none" stroke="#bfbfbf" stroke-width="4.99843"/><path d="m1491.757812 1327.590625 20-5.351562v10.703125zm0 0" fill="#bfbfbf" stroke="#bfbfbf" stroke-width="4.99843"/><path d="m2127.460938 1327.590625-20 5.351563v-10.703125zm0 0" fill="#bfbfbf" stroke="#bfbfbf" stroke-width="4.99843"/><path d="m1809.609375 1029.739063v595.703125" fill="none" stroke="#bfbfbf" stroke-width="4.99843"/><path d="m1809.609375 1009.739063 5.351563 20h-10.703126zm0 0" fill="#bfbfbf" stroke="#bfbfbf" stroke-width="4.99843"/><path d="m1809.609375 1645.442188-5.351563-20h10.703126zm0 0" fill="#bfbfbf" stroke="#bfbfbf" stroke-width="4.99843"/><path d="m1597.695312 1332.903125v-10.585937" fill="none" stroke="#bfbfbf" stroke-width="4.99843"/><path d="m1804.296875 1115.715625h10.625" fill="none" stroke="#bfbfbf" stroke-width="4.99843"/><path d="m1703.671875 1332.903125v-10.585937" fill="none" stroke="#bfbfbf" stroke-width="4.99843"/><path d="m1804.296875 1221.653125h10.625" fill="none" stroke="#bfbfbf" stroke-width="4.99843"/><path d="m1915.546875 1332.903125v-10.585937" fill="none" stroke="#bfbfbf" stroke-width="4.99843"/><path d="m1804.296875 1433.567188h10.625" fill="none" stroke="#bfbfbf" stroke-width="4.99843"/><path d="m2021.523438 1332.903125v-10.585937" fill="none" stroke="#bfbfbf" stroke-width="4.99843"/><path d="m1804.296875 1539.504688h10.625" fill="none" stroke="#bfbfbf" stroke-width="4.99843"/></g><g clip-path="url(#a)"><path d="m2590.429688 1275.910938-1400.898438-424.84375" style="fill:none;stroke-width:1.99937;stroke-linecap:round;stroke-linejoin:round;stroke:#7f7f7f;stroke-miterlimit:10" transform="matrix(.1 0 0 -.1 0 172.97)"/></g><g clip-path="url(#b)"><path d="m1455.585938 1652.942188 241.09375-792.304688" style="fill:none;stroke-width:1.99937;stroke-linecap:round;stroke-linejoin:round;stroke:#7f7f7f;stroke-miterlimit:10" transform="matrix(.1 0 0 -.1 0 172.97)"/></g><g clip-path="url(#c)"><path d="m2550.234375 1407.942188-1400.898437-424.804688" style="fill:none;stroke-width:1.99937;stroke-linecap:round;stroke-linejoin:round;stroke:#7f7f7f;stroke-miterlimit:10" transform="matrix(.1 0 0 -.1 0 172.97)"/></g><g clip-path="url(#d)"><path d="m1689.0625 1723.7625 241.09375-792.304687" style="fill:none;stroke-width:1.99937;stroke-linecap:round;stroke-linejoin:round;stroke:#7f7f7f;stroke-miterlimit:10" transform="matrix(.1 0 0 -.1 0 172.97)"/></g><g clip-path="url(#e)"><path d="m2510.078125 1540.0125-1400.9375-424.84375" style="fill:none;stroke-width:1.99937;stroke-linecap:round;stroke-linejoin:round;stroke:#7f7f7f;stroke-miterlimit:10" transform="matrix(.1 0 0 -.1 0 172.97)"/></g><g clip-path="url(#f)"><path d="m1922.539062 1794.54375 241.09375-792.304687" style="fill:none;stroke-width:1.99937;stroke-linecap:round;stroke-linejoin:round;stroke:#7f7f7f;stroke-miterlimit:10" transform="matrix(.1 0 0 -.1 0 172.97)"/></g><g clip-path="url(#g)"><path d="m2469.882812 1672.082813-1400.898437-424.84375" style="fill:none;stroke-width:1.99937;stroke-linecap:round;stroke-linejoin:round;stroke:#7f7f7f;stroke-miterlimit:10" transform="matrix(.1 0 0 -.1 0 172.97)"/></g><g clip-path="url(#h)"><path d="m2429.6875 1804.114063-1400.898438-424.804688" style="fill:none;stroke-width:1.99937;stroke-linecap:round;stroke-linejoin:round;stroke:#7f7f7f;stroke-miterlimit:10" transform="matrix(.1 0 0 -.1 0 172.97)"/></g><path d="m191.554688 50.804688c11.703124-5.851563 16.449218-15.339844 10.597656-21.191407-5.851563-5.851562-20.082032-5.851562-31.785156 0-11.703126 5.851563-16.449219 15.339844-10.597657 21.191407 5.851563 5.851562 20.082031 5.851562 31.785157 0" fill="#c00" fill-opacity=".1"/><path d="m1915.546875 1221.653125c117.03125 58.515625 164.492187 153.398438 105.976563 211.914063-58.515626 58.515625-200.820313 58.515625-317.851563 0s-164.492187-153.398438-105.976563-211.914063c58.515626-58.515625 200.820313-58.515625 317.851563 0zm0 0" style="fill:none;stroke-width:4.99843;stroke-linecap:round;stroke-linejoin:round;stroke:#8b0000;stroke-miterlimit:10" transform="matrix(.1 0 0 -.1 0 172.97)"/><path d="m1901.40625 1235.79375-91.796875 91.796875" style="fill:none;stroke-width:4.99843;stroke-linecap:round;stroke-linejoin:round;stroke:#191970;stroke-miterlimit:10" transform="matrix(.1 0 0 -.1 0 172.97)"/><path d="m1915.546875 1221.653125-10.351563 17.929688-7.539062-7.578125zm0 0" style="fill:#191970;stroke-width:4.99843;stroke-linecap:round;stroke-linejoin:round;stroke:#191970;stroke-miterlimit:10" transform="matrix(.1 0 0 -.1 0 172.97)"/><path d="m2003.632812 1424.621875-194.023437-97.03125" style="fill:none;stroke-width:4.99843;stroke-linecap:round;stroke-linejoin:round;stroke:#2e8b57;stroke-miterlimit:10" transform="matrix(.1 0 0 -.1 0 172.97)"/><path d="m2021.523438 1433.567188-20.3125-4.179688 4.804687-9.570312zm0 0" style="fill:#2e8b57;stroke-width:4.99843;stroke-linecap:round;stroke-linejoin:round;stroke:#2e8b57;stroke-miterlimit:10" transform="matrix(.1 0 0 -.1 0 172.97)"/><path d="m1511.757812 374.035938h595.703126" style="fill:none;stroke-width:4.99843;stroke-linecap:round;stroke-linejoin:round;stroke:#bfbfbf;stroke-miterlimit:10" transform="matrix(.1 0 0 -.1 0 172.97)"/><path d="m1491.757812 374.035938 20-5.351563v10.703125zm0 0" style="fill:#bfbfbf;stroke-width:4.99843;stroke-linecap:round;stroke-linejoin:round;stroke:#bfbfbf;stroke-miterlimit:10" transform="matrix(.1 0 0 -.1 0 172.97)"/><path d="m2127.460938 374.035938-20 5.351562v-10.703125zm0 0" style="fill:#bfbfbf;stroke-width:4.99843;stroke-linecap:round;stroke-linejoin:round;stroke:#bfbfbf;stroke-miterlimit:10" transform="matrix(.1 0 0 -.1 0 172.97)"/><path d="m1809.609375 76.184375v595.703125" style="fill:none;stroke-width:4.99843;stroke-linecap:round;stroke-linejoin:round;stroke:#bfbfbf;stroke-miterlimit:10" transform="matrix(.1 0 0 -.1 0 172.97)"/><path d="m1809.609375 56.184375 5.351563 20h-10.703126zm0 0" style="fill:#bfbfbf;stroke-width:4.99843;stroke-linecap:round;stroke-linejoin:round;stroke:#bfbfbf;stroke-miterlimit:10" transform="matrix(.1 0 0 -.1 0 172.97)"/><path d="m1809.609375 691.8875-5.351563-20h10.703126zm0 0" style="fill:#bfbfbf;stroke-width:4.99843;stroke-linecap:round;stroke-linejoin:round;stroke:#bfbfbf;stroke-miterlimit:10" transform="matrix(.1 0 0 -.1 0 172.97)"/><path d="m1597.695312 379.348438v-10.625" style="fill:none;stroke-width:4.99843;stroke-linecap:round;stroke-linejoin:round;stroke:#bfbfbf;stroke-miterlimit:10" transform="matrix(.1 0 0 -.1 0 172.97)"/><path d="m1804.296875 162.121875h10.625" style="fill:none;stroke-width:4.99843;stroke-linecap:round;stroke-linejoin:round;stroke:#bfbfbf;stroke-miterlimit:10" transform="matrix(.1 0 0 -.1 0 172.97)"/><path d="m1703.671875 379.348438v-10.625" style="fill:none;stroke-width:4.99843;stroke-linecap:round;stroke-linejoin:round;stroke:#bfbfbf;stroke-miterlimit:10" transform="matrix(.1 0 0 -.1 0 172.97)"/><path d="m1804.296875 268.098438h10.625" style="fill:none;stroke-width:4.99843;stroke-linecap:round;stroke-linejoin:round;stroke:#bfbfbf;stroke-miterlimit:10" transform="matrix(.1 0 0 -.1 0 172.97)"/><path d="m1915.546875 379.348438v-10.625" style="fill:none;stroke-width:4.99843;stroke-linecap:round;stroke-linejoin:round;stroke:#bfbfbf;stroke-miterlimit:10" transform="matrix(.1 0 0 -.1 0 172.97)"/><path d="m1804.296875 479.973438h10.625" style="fill:none;stroke-width:4.99843;stroke-linecap:round;stroke-linejoin:round;stroke:#bfbfbf;stroke-miterlimit:10" transform="matrix(.1 0 0 -.1 0 172.97)"/><path d="m2021.523438 379.348438v-10.625" style="fill:none;stroke-width:4.99843;stroke-linecap:round;stroke-linejoin:round;stroke:#bfbfbf;stroke-miterlimit:10" transform="matrix(.1 0 0 -.1 0 172.97)"/><path d="m1804.296875 585.95h10.625" style="fill:none;stroke-width:4.99843;stroke-linecap:round;stroke-linejoin:round;stroke:#bfbfbf;stroke-miterlimit:10" transform="matrix(.1 0 0 -.1 0 172.97)"/><path d="m188.03125 148.777344c12.898438-2.207032 20.1875-9.914063 16.28125-17.210938s-17.523438-11.421875-30.421875-9.210937c-12.898437 2.207031-20.1875 9.914062-16.28125 17.210937s17.523437 11.421875 30.421875 9.210938" fill="#c00" fill-opacity=".1"/><path d="m1880.3125 241.926563c128.984375 22.070312 201.875 99.140625 162.8125 172.109375s-175.234375 114.21875-304.21875 92.109375c-128.984375-22.070313-201.875-99.140625-162.8125-172.109375s175.234375-114.21875 304.21875-92.109375zm0 0" style="fill:none;stroke-width:4.99843;stroke-linecap:round;stroke-linejoin:round;stroke:#8b0000;stroke-miterlimit:10" transform="matrix(.1 0 0 -.1 0 172.97)"/><path d="m1870.898438 259.54375-61.289063 114.492188" style="fill:none;stroke-width:4.99843;stroke-linecap:round;stroke-linejoin:round;stroke:#191970;stroke-miterlimit:10" transform="matrix(.1 0 0 -.1 0 172.97)"/><path d="m1880.3125 241.926563-4.726562 20.15625-9.414063-5.078125zm0 0" style="fill:#191970;stroke-width:4.99843;stroke-linecap:round;stroke-linejoin:round;stroke:#191970;stroke-miterlimit:10" transform="matrix(.1 0 0 -.1 0 172.97)"/><path d="m2023.4375 410.676563-213.828125-36.640625" style="fill:none;stroke-width:4.99843;stroke-linecap:round;stroke-linejoin:round;stroke:#2e8b57;stroke-miterlimit:10" transform="matrix(.1 0 0 -.1 0 172.97)"/><path d="m2043.125 414.035938-20.625 1.914062 1.835938-10.585937zm0 0" style="fill:#2e8b57;stroke-width:4.99843;stroke-linecap:round;stroke-linejoin:round;stroke:#2e8b57;stroke-miterlimit:10" transform="matrix(.1 0 0 -.1 0 172.97)"/><g clip-path="url(#i)"><path d="m2541.953125 98.29375-1463.90625-.664062" style="fill:none;stroke-width:1.99937;stroke-linecap:round;stroke-linejoin:round;stroke:#7f7f7f;stroke-miterlimit:10" transform="matrix(.1 0 0 -.1 0 172.97)"/></g><g clip-path="url(#j)"><path d="m1565.039062 788.059375 1.171876-828.242187" style="fill:none;stroke-width:1.99937;stroke-linecap:round;stroke-linejoin:round;stroke:#7f7f7f;stroke-miterlimit:10" transform="matrix(.1 0 0 -.1 0 172.97)"/></g><g clip-path="url(#k)"><path d="m2541.757812 236.301563-1463.90625-.625" style="fill:none;stroke-width:1.99937;stroke-linecap:round;stroke-linejoin:round;stroke:#7f7f7f;stroke-miterlimit:10" transform="matrix(.1 0 0 -.1 0 172.97)"/></g><g clip-path="url(#l)"><path d="m1809.023438 788.1375 1.171874-828.242187" style="fill:none;stroke-width:1.99937;stroke-linecap:round;stroke-linejoin:round;stroke:#7f7f7f;stroke-miterlimit:10" transform="matrix(.1 0 0 -.1 0 172.97)"/></g><g clip-path="url(#m)"><path d="m2541.5625 374.348438-1463.90625-.625" style="fill:none;stroke-width:1.99937;stroke-linecap:round;stroke-linejoin:round;stroke:#7f7f7f;stroke-miterlimit:10" transform="matrix(.1 0 0 -.1 0 172.97)"/></g><g clip-path="url(#n)"><path d="m2053.007812 788.254688 1.171876-828.242188" style="fill:none;stroke-width:1.99937;stroke-linecap:round;stroke-linejoin:round;stroke:#7f7f7f;stroke-miterlimit:10" transform="matrix(.1 0 0 -.1 0 172.97)"/></g><g clip-path="url(#o)"><path d="m2541.367188 512.395313-1463.90625-.664063" style="fill:none;stroke-width:1.99937;stroke-linecap:round;stroke-linejoin:round;stroke:#7f7f7f;stroke-miterlimit:10" transform="matrix(.1 0 0 -.1 0 172.97)"/></g><g clip-path="url(#p)"><path d="m2541.171875 650.442188-1463.90625-.664063" style="fill:none;stroke-width:1.99937;stroke-linecap:round;stroke-linejoin:round;stroke:#7f7f7f;stroke-miterlimit:10" transform="matrix(.1 0 0 -.1 0 172.97)"/></g><path d="m538.203125 807.239063v107.148437" style="fill:none;stroke-width:4.99843;stroke-linecap:round;stroke-linejoin:round;stroke:#000;stroke-miterlimit:10" transform="matrix(.1 0 0 -.1 0 172.97)"/><path d="m538.203125 787.239063 5.351563 20h-10.742188zm0 0" stroke="#000" stroke-linecap="round" stroke-linejoin="round" stroke-miterlimit="10" stroke-width="4.99843" transform="matrix(.1 0 0 -.1 0 172.97)"/><path d="m1281.054688 374.035938h-234.296876" style="fill:none;stroke-width:4.99843;stroke-linecap:round;stroke-linejoin:round;stroke:#000;stroke-miterlimit:10" transform="matrix(.1 0 0 -.1 0 172.97)"/><path d="m1301.054688 374.035938-20 5.351562v-10.703125zm0 0" stroke="#000" stroke-linecap="round" stroke-linejoin="round" stroke-miterlimit="10" stroke-width="4.99843" transform="matrix(.1 0 0 -.1 0 172.97)"/><path d="m1809.609375 894.3875v-107.148437" style="fill:none;stroke-width:4.99843;stroke-linecap:round;stroke-linejoin:round;stroke:#000;stroke-miterlimit:10" transform="matrix(.1 0 0 -.1 0 172.97)"/><path d="m1809.609375 914.3875-5.351563-20h10.703126zm0 0" stroke="#000" stroke-linecap="round" stroke-linejoin="round" stroke-miterlimit="10" stroke-width="4.99843" transform="matrix(.1 0 0 -.1 0 172.97)"/><path d="m1281.054688 1327.590625h-234.296876" style="fill:none;stroke-width:4.99843;stroke-linecap:round;stroke-linejoin:round;stroke:#000;stroke-miterlimit:10" transform="matrix(.1 0 0 -.1 0 172.97)"/><path d="m1301.054688 1327.590625-20 5.351563v-10.703125zm0 0" stroke="#000" stroke-linecap="round" stroke-linejoin="round" stroke-miterlimit="10" stroke-width="4.99843" transform="matrix(.1 0 0 -.1 0 172.97)"/><use x="4.56016" xlink:href="#q" y="88.4899"/><use x="10.8" xlink:href="#t" y="85.60982"/><use x="13.31992" xlink:href="#v" y="88.4899"/><use x="20.03984" xlink:href="#w" y="88.4899"/><use x="24.95976" xlink:href="#x" y="88.4899"/><use x="27.959759" xlink:href="#y" y="88.4899"/><use x="30.959758" xlink:href="#z" y="88.4899"/><use x="32.399756" xlink:href="#A" y="88.4899"/><use x="35.51996" xlink:href="#I" y="86.32974"/><use x="40.08012" xlink:href="#B" y="88.4899"/><use x="42.000118" xlink:href="#C" y="88.4899"/><use x="45.600113" xlink:href="#D" y="88.4899"/><use x="48.000112" xlink:href="#E" y="88.4899"/><use x="89.76022" xlink:href="#J" y="149.6899"/><use x="97.08014" xlink:href="#K" y="149.6899"/><use x="105.96022" xlink:href="#L" y="143.20982"/><use x="110.63991" xlink:href="#N" y="146.92974"/><use x="113.639912" xlink:href="#O" y="146.92974"/><use x="115.199917" xlink:href="#P" y="146.92974"/><use x="118.199919" xlink:href="#Q" y="146.92974"/><use x="121.199921" xlink:href="#P" y="146.92974"/><use x="131.879796" xlink:href="#Q" y="146.92974"/><use x="116.03991" xlink:href="#Q" y="152.56997"/><use x="126.600071" xlink:href="#R" y="152.56997"/><use x="129.600073" xlink:href="#O" y="152.56997"/><use x="131.160078" xlink:href="#P" y="152.56997"/><use x="134.16008" xlink:href="#Q" y="152.56997"/><use x="137.160081" xlink:href="#P" y="152.56997"/><use x="141.72001" xlink:href="#M" y="143.20981"/><use x="183.48021" xlink:href="#r" y="90.52971"/><use x="190.20013" xlink:href="#v" y="90.52971"/><use x="196.56029" xlink:href="#F" y="90.52971"/><use x="199.560286" xlink:href="#G" y="90.52971"/><use x="202.560282" xlink:href="#z" y="90.52971"/><use x="204.000283" xlink:href="#H" y="90.52971"/><use x="207.12009" xlink:href="#I" y="88.36994"/><use x="211.80017" xlink:href="#B" y="90.52971"/><use x="213.720175" xlink:href="#C" y="90.52971"/><use x="217.320163" xlink:href="#D" y="90.52971"/><use x="219.72015" xlink:href="#E" y="90.52971"/><use x="95.04017" xlink:href="#s" y="32.20981"/><use x="103.32025" xlink:href="#K" y="32.20981"/><use x="112.20033" xlink:href="#L" y="25.72973"/><use x="122.04017" xlink:href="#R" y="29.20981"/><use x="132.360112" xlink:href="#N" y="29.20981"/><use x="117.12025" xlink:href="#u" y="34.85004"/><use x="122.16009" xlink:href="#R" y="34.85004"/><use x="132.360074" xlink:href="#R" y="34.85004"/><use x="136.92029" xlink:href="#M" y="25.72973"/></svg>