<svg height="113.39pt" viewBox="0 0 113.39 113.39" width="113.39pt" xmlns="http://www.w3.org/2000/svg" xmlns:xlink="http://www.w3.org/1999/xlink"><clipPath id="a"><path d="m105 109h8.390625v4.390625h-8.390625zm0 0"/></clipPath><clipPath id="b"><path d="m105 108h8.390625v5.390625h-8.390625zm0 0"/></clipPath><g fill="none" stroke-linecap="round" stroke-linejoin="round" stroke-miterlimit="10" stroke-width="5" transform="matrix(.1 0 0 -.1 0 113.39)"><g stroke="#7f7f7f"><path d="m274.570312 22.610938v1007.929687"/><path d="m22.617188 274.603125h1007.929687"/><path d="m526.5625 22.610938v1007.929687"/><path d="m22.617188 526.595313h1007.929687"/><path d="m778.554688 22.610938v1007.929687"/><path d="m22.617188 778.5875h1007.929687"/><path d="m1030.546875 22.610938v1007.929687"/><path d="m22.617188 1030.540625h1007.929687"/></g><path d="m1056.367188 22.610938h-1033.75v1033.75" stroke="#000"/></g><g clip-path="url(#a)"><path d="m113.136719 111.128906-7.5-2.007812v4.019531zm0 0"/></g><g clip-path="url(#b)"><path d="m1131.367188 22.610938-75 20.078125v-40.195313zm0 0" style="fill:none;stroke-width:5;stroke-linecap:round;stroke-linejoin:round;stroke:#000;stroke-miterlimit:10" transform="matrix(.1 0 0 -.1 0 113.39)"/></g><g stroke-linecap="round" stroke-linejoin="round" stroke-miterlimit="10" transform="matrix(.1 0 0 -.1 0 113.39)"><path d="m22.617188 1131.360938-20.117188-75h40.195312zm0 0" stroke="#000" stroke-width="5"/><path d="m22.617188 22.610938 957.539062 478.75" fill="none" stroke="#191970" stroke-width="25"/><path d="m963.476562 493.040625-940.859374-470.429687" fill="none" stroke="#191970" stroke-width="5"/><path d="m1030.546875 526.595313-76.054687-15.585938 17.96875-35.9375zm0 0" fill="#191970" stroke="#191970" stroke-width="5"/><path d="m459.492188 241.048438-436.875-218.4375" fill="none" stroke="#ff8c00" stroke-width="5"/><path d="m526.5625 274.603125-76.054688-15.585937 17.96875-35.9375zm0 0" fill="#ff8c00" stroke="#ff8c00" stroke-width="5"/><path d="m22.617188 22.610938 468.671874 234.335937" fill="none" stroke="#ff8c00" stroke-width="12.5"/></g></svg>