<?xml version="1.0" encoding="utf-8"?>
<svg xmlns="http://www.w3.org/2000/svg" xmlns:xlink="http://www.w3.org/1999/xlink" width="600" height="400" viewBox="0 0 2400 1600">
<defs>
  <clipPath id="clip6000">
    <rect x="0" y="0" width="2400" height="1600"/>
  </clipPath>
</defs>
<path clip-path="url(#clip6000)" d="
M0 1600 L2400 1600 L2400 0 L0 0  Z
  " fill="#f7ece2" fill-rule="evenodd" fill-opacity="1"/>
<defs>
  <clipPath id="clip6001">
    <rect x="480" y="0" width="1681" height="1600"/>
  </clipPath>
</defs>
<path clip-path="url(#clip6000)" d="
M141.758 1372.86 L1121.61 1372.86 L1121.61 47.2441 L141.758 47.2441  Z
  " fill="#f7ece2" fill-rule="evenodd" fill-opacity="1"/>
<defs>
  <clipPath id="clip6002">
    <rect x="141" y="47" width="981" height="1327"/>
  </clipPath>
</defs>
<polyline clip-path="url(#clip6002)" style="stroke:#000000; stroke-width:2; stroke-opacity:0.1; fill:none" points="
  168.565,1372.86 168.565,47.2441 
  "/>
<polyline clip-path="url(#clip6002)" style="stroke:#000000; stroke-width:2; stroke-opacity:0.1; fill:none" points="
  399.893,1372.86 399.893,47.2441 
  "/>
<polyline clip-path="url(#clip6002)" style="stroke:#000000; stroke-width:2; stroke-opacity:0.1; fill:none" points="
  631.222,1372.86 631.222,47.2441 
  "/>
<polyline clip-path="url(#clip6002)" style="stroke:#000000; stroke-width:2; stroke-opacity:0.1; fill:none" points="
  862.551,1372.86 862.551,47.2441 
  "/>
<polyline clip-path="url(#clip6002)" style="stroke:#000000; stroke-width:2; stroke-opacity:0.1; fill:none" points="
  1093.88,1372.86 1093.88,47.2441 
  "/>
<polyline clip-path="url(#clip6002)" style="stroke:#000000; stroke-width:2; stroke-opacity:0.1; fill:none" points="
  141.758,1363.19 1121.61,1363.19 
  "/>
<polyline clip-path="url(#clip6002)" style="stroke:#000000; stroke-width:2; stroke-opacity:0.1; fill:none" points="
  141.758,1071.67 1121.61,1071.67 
  "/>
<polyline clip-path="url(#clip6002)" style="stroke:#000000; stroke-width:2; stroke-opacity:0.1; fill:none" points="
  141.758,780.143 1121.61,780.143 
  "/>
<polyline clip-path="url(#clip6002)" style="stroke:#000000; stroke-width:2; stroke-opacity:0.1; fill:none" points="
  141.758,488.62 1121.61,488.62 
  "/>
<polyline clip-path="url(#clip6002)" style="stroke:#000000; stroke-width:2; stroke-opacity:0.1; fill:none" points="
  141.758,197.097 1121.61,197.097 
  "/>
<polyline clip-path="url(#clip6000)" style="stroke:#000000; stroke-width:4; stroke-opacity:1; fill:none" points="
  141.758,1372.86 1121.61,1372.86 
  "/>
<polyline clip-path="url(#clip6000)" style="stroke:#000000; stroke-width:4; stroke-opacity:1; fill:none" points="
  141.758,1372.86 141.758,47.2441 
  "/>
<polyline clip-path="url(#clip6000)" style="stroke:#000000; stroke-width:4; stroke-opacity:1; fill:none" points="
  168.565,1372.86 168.565,1352.97 
  "/>
<polyline clip-path="url(#clip6000)" style="stroke:#000000; stroke-width:4; stroke-opacity:1; fill:none" points="
  399.893,1372.86 399.893,1352.97 
  "/>
<polyline clip-path="url(#clip6000)" style="stroke:#000000; stroke-width:4; stroke-opacity:1; fill:none" points="
  631.222,1372.86 631.222,1352.97 
  "/>
<polyline clip-path="url(#clip6000)" style="stroke:#000000; stroke-width:4; stroke-opacity:1; fill:none" points="
  862.551,1372.86 862.551,1352.97 
  "/>
<polyline clip-path="url(#clip6000)" style="stroke:#000000; stroke-width:4; stroke-opacity:1; fill:none" points="
  1093.88,1372.86 1093.88,1352.97 
  "/>
<polyline clip-path="url(#clip6000)" style="stroke:#000000; stroke-width:4; stroke-opacity:1; fill:none" points="
  141.758,1363.19 156.456,1363.19 
  "/>
<polyline clip-path="url(#clip6000)" style="stroke:#000000; stroke-width:4; stroke-opacity:1; fill:none" points="
  141.758,1071.67 156.456,1071.67 
  "/>
<polyline clip-path="url(#clip6000)" style="stroke:#000000; stroke-width:4; stroke-opacity:1; fill:none" points="
  141.758,780.143 156.456,780.143 
  "/>
<polyline clip-path="url(#clip6000)" style="stroke:#000000; stroke-width:4; stroke-opacity:1; fill:none" points="
  141.758,488.62 156.456,488.62 
  "/>
<polyline clip-path="url(#clip6000)" style="stroke:#000000; stroke-width:4; stroke-opacity:1; fill:none" points="
  141.758,197.097 156.456,197.097 
  "/>
<g clip-path="url(#clip6000)">
<text style="fill:#000000; fill-opacity:1; font-family:Arial,Helvetica Neue,Helvetica,sans-serif; font-size:48px; text-anchor:middle;" transform="rotate(0, 168.565, 1426.86)" x="168.565" y="1426.86">0</text>
</g>
<g clip-path="url(#clip6000)">
<text style="fill:#000000; fill-opacity:1; font-family:Arial,Helvetica Neue,Helvetica,sans-serif; font-size:48px; text-anchor:middle;" transform="rotate(0, 399.893, 1426.86)" x="399.893" y="1426.86">250</text>
</g>
<g clip-path="url(#clip6000)">
<text style="fill:#000000; fill-opacity:1; font-family:Arial,Helvetica Neue,Helvetica,sans-serif; font-size:48px; text-anchor:middle;" transform="rotate(0, 631.222, 1426.86)" x="631.222" y="1426.86">500</text>
</g>
<g clip-path="url(#clip6000)">
<text style="fill:#000000; fill-opacity:1; font-family:Arial,Helvetica Neue,Helvetica,sans-serif; font-size:48px; text-anchor:middle;" transform="rotate(0, 862.551, 1426.86)" x="862.551" y="1426.86">750</text>
</g>
<g clip-path="url(#clip6000)">
<text style="fill:#000000; fill-opacity:1; font-family:Arial,Helvetica Neue,Helvetica,sans-serif; font-size:48px; text-anchor:middle;" transform="rotate(0, 1093.88, 1426.86)" x="1093.88" y="1426.86">1000</text>
</g>
<g clip-path="url(#clip6000)">
<text style="fill:#000000; fill-opacity:1; font-family:Arial,Helvetica Neue,Helvetica,sans-serif; font-size:48px; text-anchor:end;" transform="rotate(0, 117.758, 1380.69)" x="117.758" y="1380.69">0</text>
</g>
<g clip-path="url(#clip6000)">
<text style="fill:#000000; fill-opacity:1; font-family:Arial,Helvetica Neue,Helvetica,sans-serif; font-size:48px; text-anchor:end;" transform="rotate(0, 117.758, 1089.17)" x="117.758" y="1089.17">1</text>
</g>
<g clip-path="url(#clip6000)">
<text style="fill:#000000; fill-opacity:1; font-family:Arial,Helvetica Neue,Helvetica,sans-serif; font-size:48px; text-anchor:end;" transform="rotate(0, 117.758, 797.643)" x="117.758" y="797.643">2</text>
</g>
<g clip-path="url(#clip6000)">
<text style="fill:#000000; fill-opacity:1; font-family:Arial,Helvetica Neue,Helvetica,sans-serif; font-size:48px; text-anchor:end;" transform="rotate(0, 117.758, 506.12)" x="117.758" y="506.12">3</text>
</g>
<g clip-path="url(#clip6000)">
<text style="fill:#000000; fill-opacity:1; font-family:Arial,Helvetica Neue,Helvetica,sans-serif; font-size:48px; text-anchor:end;" transform="rotate(0, 117.758, 214.597)" x="117.758" y="214.597">4</text>
</g>
<g clip-path="url(#clip6000)">
<text style="fill:#000000; fill-opacity:1; font-family:Arial,Helvetica Neue,Helvetica,sans-serif; font-size:66px; text-anchor:middle;" transform="rotate(0, 631.685, 1506.72)" x="631.685" y="1506.72">k</text>
</g>
<polyline clip-path="url(#clip6002)" style="stroke:#000014; stroke-width:4; stroke-opacity:1; fill:none" points="
  169.49,1152.9 170.415,1124.9 171.341,1074.63 172.266,996.577 173.191,1004.71 174.117,975.598 175.042,1019.72 175.967,977.487 176.893,969.824 177.818,928.01 
  178.743,914.276 179.669,914.276 180.594,916.026 181.519,854.303 182.444,907.925 183.37,901.934 184.295,909.412 185.22,941.378 186.146,947.679 187.071,944.176 
  187.996,867.743 188.922,852.236 189.847,815.759 190.772,797.129 191.698,766.393 192.623,728.455 193.548,717.633 194.474,710.008 195.399,681.54 196.324,704.283 
  197.249,713.666 198.175,742.598 199.1,733.955 200.025,682.458 200.951,690.926 201.876,690.926 202.801,704.183 203.727,681.809 204.652,652.122 205.577,669.836 
  206.503,704.384 207.428,710.742 208.353,703.086 209.279,703.086 210.204,699.23 211.129,729.223 212.055,758.884 212.98,769.769 213.905,769.025 214.83,771.217 
  215.756,771.901 216.681,815.913 217.606,821.928 218.532,836.382 219.457,822.676 220.382,825.411 221.308,793.482 222.233,806.208 223.158,834.611 224.084,853.887 
  225.009,852.54 225.934,821.661 226.86,859.187 227.785,836.755 228.71,837.841 229.636,816.039 230.561,863.83 231.486,854.592 232.411,887.266 233.337,889.22 
  234.262,934.357 235.187,944.611 236.113,945.688 237.038,946.469 237.963,957.438 238.889,944.286 239.814,983.527 240.739,958.141 241.665,926.23 242.59,895.622 
  243.515,885.293 244.441,906.443 245.366,964.378 246.291,1015.84 247.216,1016.37 248.142,1041.79 249.067,1059.92 249.992,1067.24 250.918,1075.55 251.843,1087.09 
  252.768,1048.27 253.694,1011.84 254.619,1007.59 255.544,1015.44 256.47,1003.13 257.395,1040.44 258.32,996.859 259.246,969.689 260.171,981.135 261.096,982.797 
  262.022,1031.32 262.947,1050.27 263.872,1041.68 264.797,1027.64 265.723,1006.58 266.648,1078.67 267.573,1089.98 268.499,1113.72 269.424,1091.95 270.349,1091.95 
  271.275,1091.95 272.2,1096.99 273.125,1103.41 274.051,1127.58 274.976,1045.72 275.901,1070.5 276.827,1063.43 277.752,1049.32 278.677,1076.59 279.603,1037.89 
  280.528,1016.97 281.453,1034.04 282.378,1035.64 283.304,1032.69 284.229,975.62 285.154,972.501 286.08,961.165 287.005,989.926 287.93,995.152 288.856,952.077 
  289.781,921.407 290.706,886.289 291.632,845.316 292.557,813.362 293.482,816.356 294.408,822.911 295.333,817.16 296.258,805.379 297.183,843.663 298.109,800.937 
  299.034,793.862 299.959,780.788 300.885,746.959 301.81,739.34 302.735,760.278 303.661,757.252 304.586,802.362 305.511,808.298 306.437,830.103 307.362,837.774 
  308.287,898.071 309.213,900.626 310.138,941.409 311.063,976.723 311.989,969.481 312.914,976.273 313.839,953.968 314.764,1000.56 315.69,1018.16 316.615,1035.25 
  317.54,1040.35 318.466,1057.45 319.391,1044.39 320.316,1059.57 321.242,1083.4 322.167,1095.98 323.092,1110.34 324.018,1074.89 324.943,1038.35 325.868,1035.71 
  326.794,1044.17 327.719,1086.98 328.644,1067.46 329.57,1047.04 330.495,974.771 331.42,974.771 332.345,996.93 333.271,993.701 334.196,986.811 335.121,991.816 
  336.047,982.685 336.972,981.799 337.897,981.799 338.823,1026.67 339.748,1023.51 340.673,982.075 341.599,964.274 342.524,949.118 343.449,904.256 344.375,950.045 
  345.3,956.893 346.225,960.119 347.15,952.291 348.076,916.499 349.001,879.171 349.926,889.087 350.852,889.695 351.777,925.813 352.702,914.627 353.628,902.281 
  354.553,893.428 355.478,908.9 356.404,914.391 357.329,955.353 358.254,1004.22 359.18,1024.08 360.105,1016.09 361.03,979.094 361.956,950.781 362.881,950.781 
  363.806,961.696 364.731,928.03 365.657,919.645 366.582,883.659 367.507,875.711 368.433,852.564 369.358,869.915 370.283,894.182 371.209,931.927 372.134,926.219 
  373.059,905.741 373.985,918.788 374.91,910.335 375.835,882.664 376.761,940.868 377.686,935.026 378.611,918.259 379.537,919.338 380.462,965.66 381.387,928.035 
  382.312,900.518 383.238,853.709 384.163,853.709 385.088,863.71 386.014,829.29 386.939,821.992 387.864,814.975 388.79,834.846 389.715,858.003 390.64,828.95 
  391.566,781.88 392.491,758.085 393.416,717.196 394.342,725.932 395.267,689.235 396.192,732.009 397.117,702.398 398.043,713.01 398.968,738.906 399.893,773.431 
  400.819,773.905 401.744,733.021 402.669,780.967 403.595,745.034 404.52,750.648 405.445,737.942 406.371,715.079 407.296,729.557 408.221,773.959 409.147,727.21 
  410.072,772.922 410.997,755.088 411.923,747.517 412.848,836.016 413.773,836.848 414.698,852.066 415.624,815.454 416.549,809.329 417.474,794.583 418.4,791.274 
  419.325,783.49 420.25,803.505 421.176,865.196 422.101,873.987 423.026,879.417 423.952,856.854 424.877,796.045 425.802,788.947 426.728,777.127 427.653,743.256 
  428.578,833.192 429.504,833.192 430.429,817.872 431.354,844.849 432.279,820.024 433.205,844.694 434.13,847.886 435.055,821.211 435.981,858.802 436.906,875.173 
  437.831,872.295 438.757,864.879 439.682,917.607 440.607,915.034 441.533,876.486 442.458,856.241 443.383,860.271 444.309,891.959 445.234,887.225 446.159,866.753 
  447.084,892.387 448.01,890.13 448.935,898.957 449.86,906.6 450.786,951.422 451.711,966.339 452.636,985.202 453.562,977.559 454.487,996.887 455.412,989.967 
  456.338,1004.29 457.263,1006.46 458.188,964.917 459.114,981.763 460.039,998.985 460.964,1046.42 461.89,1018.41 462.815,1039.61 463.74,1039.94 464.665,1041 
  465.591,1067.49 466.516,1104.29 467.441,1042.44 468.367,998.366 469.292,1001.8 470.217,1001.8 471.143,1020.63 472.068,1042.12 472.993,1042.12 473.919,1066.13 
  474.844,1088.83 475.769,1103.21 476.695,1099.16 477.62,1113.08 478.545,1095.19 479.471,1117.28 480.396,1098.25 481.321,1119.59 482.246,1119.59 483.172,1153.08 
  484.097,1137.85 485.022,1186.88 485.948,1177.18 486.873,1150.97 487.798,1114.97 488.724,1153.36 489.649,1153.36 490.574,1164.25 491.5,1161.49 492.425,1111.61 
  493.35,1133.69 494.276,1140.56 495.201,1148.84 496.126,1125.55 497.051,1125.23 497.977,1133.96 498.902,1123.15 499.827,1142.39 500.753,1166.32 501.678,1156.25 
  502.603,1116.86 503.529,1105.52 504.454,1105.52 505.379,1162.53 506.305,1200.42 507.23,1239.27 508.155,1224.64 509.081,1224.64 510.006,1248.62 510.931,1255.89 
  511.857,1255.89 512.782,1242.11 513.707,1223.66 514.632,1234.64 515.558,1245.91 516.483,1214.16 517.408,1200.68 518.334,1195.89 519.259,1223.61 520.184,1275.75 
  521.11,1289.64 522.035,1249.69 522.96,1261.87 523.886,1238.23 524.811,1238.23 525.736,1238.23 526.662,1237.61 527.587,1235.13 528.512,1265.14 529.438,1297.7 
  530.363,1302.86 531.288,1302.86 532.213,1335.34 533.139,1335.34 534.064,1289.08 534.989,1278.41 535.915,1278.41 536.84,1213.07 537.765,1200.84 538.691,1200.84 
  539.616,1152.49 540.541,1138.23 541.467,1142.71 542.392,1150 543.317,1135.49 544.243,1095.12 545.168,1078.88 546.093,1060.83 547.018,1048.94 547.944,1033.99 
  548.869,1014.62 549.794,980.807 550.72,924.877 551.645,959.235 552.57,924.824 553.496,917.884 554.421,928.358 555.346,929.398 556.272,955.427 557.197,965.77 
  558.122,904.914 559.048,922.03 559.973,922.92 560.898,933.986 561.824,928.671 562.749,900.506 563.674,837.333 564.599,847.839 565.525,857.458 566.45,844.372 
  567.375,820.585 568.301,782.423 569.226,786.852 570.151,780.363 571.077,801.72 572.002,874.865 572.927,896.701 573.853,896.701 574.778,905.085 575.703,890.921 
  576.629,906.449 577.554,879.951 578.479,890.716 579.405,914.54 580.33,890.29 581.255,870.926 582.18,909.752 583.106,929.489 584.031,958.13 584.956,981.334 
  585.882,1013.9 586.807,1051.63 587.732,1033.53 588.658,1030.81 589.583,977.454 590.508,992.777 591.434,1021.79 592.359,1027.54 593.284,1047.16 594.21,1020.7 
  595.135,1040.35 596.06,1074.09 596.985,1094.26 597.911,1055.81 598.836,985.854 599.761,994.502 600.687,996.722 601.612,988.569 602.537,994.374 603.463,997.625 
  604.388,981.921 605.313,969.542 606.239,963.498 607.164,968.043 608.089,995.574 609.015,975.665 609.94,975.665 610.865,984.464 611.791,1030.8 612.716,1045.3 
  613.641,1035.99 614.566,1078.09 615.492,1115.58 616.417,1100.44 617.342,1103.77 618.268,1098.22 619.193,1110.31 620.118,1112.06 621.044,1104.76 621.969,1103.48 
  622.894,1114.54 623.82,1099.88 624.745,1074.28 625.67,1080.12 626.596,1080.59 627.521,1059.67 628.446,1050.68 629.372,1030 630.297,1088.48 631.222,1084.62 
  632.147,1109.77 633.073,1076.31 633.998,1101.76 634.923,1073.53 635.849,1078.04 636.774,1045.19 637.699,1122.61 638.625,1112.34 639.55,1087.39 640.475,1115.3 
  641.401,1090.55 642.326,1109.25 643.251,1095.66 644.177,1083.64 645.102,1046.09 646.027,1095.16 646.952,1081.79 647.878,1081.3 648.803,1089.78 649.728,1112.11 
  650.654,1110.46 651.579,1080.42 652.504,1062.05 653.43,1052.04 654.355,1050.62 655.28,1080.5 656.206,1066 657.131,1074.84 658.056,1073.09 658.982,1115.96 
  659.907,1115.96 660.832,1136.55 661.758,1172.08 662.683,1105.69 663.608,1042.3 664.533,1035.62 665.459,1065.69 666.384,1060.45 667.309,1043.97 668.235,1043.97 
  669.16,1004.94 670.085,1024.51 671.011,1028.71 671.936,1023.31 672.861,1028.27 673.787,1031.53 674.712,998.38 675.637,1005.94 676.563,1005.94 677.488,1015.19 
  678.413,1040.43 679.339,1030.03 680.264,993.522 681.189,970.109 682.114,1025.62 683.04,957.778 683.965,910.489 684.89,943.33 685.816,901.789 686.741,896.021 
  687.666,873.84 688.592,878.513 689.517,874.185 690.442,896.281 691.368,870.146 692.293,897.577 693.218,885.142 694.144,901.249 695.069,929.744 695.994,938.8 
  696.919,894.94 697.845,887.137 698.77,910.69 699.695,948.97 700.621,971.097 701.546,975.583 702.471,940.063 703.397,948.221 704.322,917.037 705.247,936.227 
  706.173,932.473 707.098,909.315 708.023,895.139 708.949,886.49 709.874,937.208 710.799,934.017 711.725,915.308 712.65,938.614 713.575,914.75 714.5,886.773 
  715.426,890.73 716.351,915.387 717.276,943.643 718.202,933.69 719.127,859.888 720.052,808.885 720.978,793.707 721.903,781.146 722.828,811.149 723.754,842.019 
  724.679,831.238 725.604,854.585 726.53,876.695 727.455,875.619 728.38,797.5 729.306,796.186 730.231,727.381 731.156,735.908 732.081,733.787 733.007,709.296 
  733.932,737.233 734.857,697.397 735.783,710.995 736.708,682.585 737.633,699.673 738.559,698.291 739.484,673.748 740.409,672.643 741.335,656.72 742.26,686.343 
  743.185,656.729 744.111,676.522 745.036,653.154 745.961,632.607 746.886,675.353 747.812,693.821 748.737,691.439 749.662,665.914 750.588,683.584 751.513,683.584 
  752.438,703.532 753.364,657.061 754.289,697.538 755.214,702.969 756.14,669.876 757.065,623.639 757.99,619.206 758.916,591.913 759.841,581.554 760.766,523.751 
  761.692,510.128 762.617,567.116 763.542,576.185 764.467,592.021 765.393,565.179 766.318,467.998 767.243,477.741 768.169,442.799 769.094,404.538 770.019,411.429 
  770.945,377.497 771.87,352.848 772.795,391.056 773.721,456.957 774.646,451.715 775.571,421.453 776.497,396.445 777.422,373.442 778.347,299.521 779.273,313.408 
  780.198,306.311 781.123,269.007 782.048,297.235 782.974,320.442 783.899,313.791 784.824,314.022 785.75,339.337 786.675,277.041 787.6,286.431 788.526,297.582 
  789.451,303.643 790.376,311.325 791.302,350.242 792.227,381.566 793.152,391.062 794.078,414.293 795.003,460.963 795.928,500.398 796.853,488.64 797.779,523.109 
  798.704,507.247 799.629,475.054 800.555,528.21 801.48,512.894 802.405,494.239 803.331,477.508 804.256,471.675 805.181,474.157 806.107,466.423 807.032,452.331 
  807.957,398.565 808.883,370.508 809.808,349.244 810.733,337.853 811.659,398.56 812.584,358.764 813.509,330.636 814.434,316.538 815.36,323.913 816.285,334.621 
  817.21,345.335 818.136,340.267 819.061,341.655 819.986,344.097 820.912,328.254 821.837,314.978 822.762,344.366 823.688,370.602 824.613,326.427 825.538,327.875 
  826.464,334.756 827.389,316.34 828.314,290.063 829.24,304.354 830.165,313.652 831.09,321.505 832.015,335.937 832.941,376.254 833.866,389.499 834.791,320.444 
  835.717,331.687 836.642,341.955 837.567,324.062 838.493,315.881 839.418,304.8 840.343,298.62 841.269,319.796 842.194,320.684 843.119,355.465 844.045,357.045 
  844.97,331.818 845.895,348.472 846.82,305.962 847.746,309.795 848.671,320.872 849.596,302.33 850.522,243.371 851.447,224.291 852.372,172.542 853.298,112.993 
  854.223,106.693 855.148,100.685 856.074,125.475 856.999,134.851 857.924,137.874 858.85,134.723 859.775,161.539 860.7,113.114 861.626,131.772 862.551,96.268 
  863.476,116.114 864.401,153.42 865.327,132.319 866.252,189.955 867.177,185.815 868.103,135.837 869.028,183.793 869.953,166.226 870.879,167.905 871.804,163.112 
  872.729,156.534 873.655,151.676 874.58,225.08 875.505,226.38 876.431,284.107 877.356,307.295 878.281,360.539 879.207,326.705 880.132,352.367 881.057,366.582 
  881.982,369.635 882.908,313.134 883.833,327.889 884.758,333.513 885.684,385.324 886.609,368.071 887.534,360.306 888.46,381.668 889.385,341.663 890.31,304.549 
  891.236,306.122 892.161,328.874 893.086,312.426 894.012,274.084 894.937,306.816 895.862,295.263 896.787,295.771 897.713,327.499 898.638,309.138 899.563,204.865 
  900.489,157.326 901.414,186.148 902.339,148.397 903.265,142.901 904.19,111.946 905.115,84.7614 906.041,135.747 906.966,149.379 907.891,132.796 908.817,127.74 
  909.742,132.453 910.667,208.177 911.593,210.857 912.518,234.89 913.443,209.684 914.368,192.891 915.294,170.667 916.219,240.705 917.144,238.034 918.07,186.988 
  918.995,163.969 919.92,181.5 920.846,186.012 921.771,152.188 922.696,151.898 923.622,158.552 924.547,174.202 925.472,238.916 926.398,280 927.323,337.686 
  928.248,355.374 929.174,358.449 930.099,312.405 931.024,295.074 931.949,299.995 932.875,264.061 933.8,265.016 934.725,288.022 935.651,241.662 936.576,210.127 
  937.501,206.548 938.427,195.769 939.352,212.268 940.277,182.487 941.203,166.665 942.128,176.369 943.053,137.406 943.979,167.46 944.904,176.969 945.829,156.394 
  946.754,180.781 947.68,218.202 948.605,278.405 949.53,314.541 950.456,340.615 951.381,369.015 952.306,360.945 953.232,368.683 954.157,334.694 955.082,372.391 
  956.008,331.811 956.933,366.715 957.858,305.393 958.784,358.954 959.709,404.742 960.634,440.004 961.56,465.666 962.485,485.906 963.41,501.24 964.335,504.162 
  965.261,424.823 966.186,422.022 967.111,418.906 968.037,418.984 968.962,510.794 969.887,567.841 970.813,530.801 971.738,535.409 972.663,568.585 973.589,612.19 
  974.514,597.898 975.439,624.383 976.365,685.734 977.29,697.34 978.215,710.565 979.141,720.785 980.066,799.201 980.991,840.961 981.916,847.608 982.842,870.205 
  983.767,838.636 984.692,835.559 985.618,851.503 986.543,823.105 987.468,809.059 988.394,813.117 989.319,806.247 990.244,809.505 991.17,786.531 992.095,790.646 
  993.02,788.248 993.946,812.655 994.871,781.17 995.796,819.486 996.721,780.613 997.647,785.374 998.572,761.661 999.497,765.036 1000.42,799.548 1001.35,829.931 
  1002.27,878.506 1003.2,969.607 1004.12,967.334 1005.05,962.569 1005.97,948.914 1006.9,922.594 1007.83,917.081 1008.75,902.259 1009.68,815.76 1010.6,740.192 
  1011.53,727.588 1012.45,717.966 1013.38,721.418 1014.3,715.105 1015.23,766.463 1016.15,783.007 1017.08,808.173 1018,784.585 1018.93,719.683 1019.85,719.683 
  1020.78,724.171 1021.7,733.346 1022.63,760.053 1023.56,762.077 1024.48,730.762 1025.41,721.81 1026.33,762.835 1027.26,799.963 1028.18,810.14 1029.11,801.447 
  1030.03,794.624 1030.96,845.971 1031.88,902.212 1032.81,851.358 1033.73,881.616 1034.66,888.277 1035.58,859.583 1036.51,853.719 1037.44,847.196 1038.36,862.854 
  1039.29,815.993 1040.21,839.406 1041.14,842.596 1042.06,873.538 1042.99,883.594 1043.91,891.927 1044.84,896.648 1045.76,937.762 1046.69,960.015 1047.61,911.404 
  1048.54,893.358 1049.46,861.384 1050.39,860.979 1051.32,877.111 1052.24,898.557 1053.17,934.677 1054.09,962.529 1055.02,936.597 1055.94,936.597 1056.87,943.518 
  1057.79,983.254 1058.72,1021.75 1059.64,1063.63 1060.57,1083.95 1061.49,1093.51 1062.42,1032.88 1063.34,1007.45 1064.27,1025.68 1065.19,1047.44 1066.12,1057.02 
  1067.05,1085.13 1067.97,1096.26 1068.9,1087.21 1069.82,1046.68 1070.75,1027.77 1071.67,1023.51 1072.6,1020.05 1073.52,1007.68 1074.45,998.218 1075.37,993.606 
  1076.3,973.738 1077.22,968.123 1078.15,945.259 1079.07,952.609 1080,946.659 1080.93,947.965 1081.85,964.932 1082.78,1002.06 1083.7,977.025 1084.63,977.025 
  1085.55,976.526 1086.48,958.712 1087.4,950.636 1088.33,923.699 1089.25,903.592 1090.18,947.665 1091.1,915.429 1092.03,897.058 1092.95,889.039 1093.88,868.022 
  
  "/>
<path clip-path="url(#clip6000)" d="
M1372.9 1372.86 L2352.76 1372.86 L2352.76 47.2441 L1372.9 47.2441  Z
  " fill="#f7ece2" fill-rule="evenodd" fill-opacity="1"/>
<defs>
  <clipPath id="clip6003">
    <rect x="1372" y="47" width="981" height="1327"/>
  </clipPath>
</defs>
<polyline clip-path="url(#clip6003)" style="stroke:#000000; stroke-width:2; stroke-opacity:0.1; fill:none" points="
  1404.68,1372.86 1404.68,47.2441 
  "/>
<polyline clip-path="url(#clip6003)" style="stroke:#000000; stroke-width:2; stroke-opacity:0.1; fill:none" points="
  1711.46,1372.86 1711.46,47.2441 
  "/>
<polyline clip-path="url(#clip6003)" style="stroke:#000000; stroke-width:2; stroke-opacity:0.1; fill:none" points="
  2018.24,1372.86 2018.24,47.2441 
  "/>
<polyline clip-path="url(#clip6003)" style="stroke:#000000; stroke-width:2; stroke-opacity:0.1; fill:none" points="
  2325.02,1372.86 2325.02,47.2441 
  "/>
<polyline clip-path="url(#clip6003)" style="stroke:#000000; stroke-width:2; stroke-opacity:0.1; fill:none" points="
  1372.9,1335.34 2352.76,1335.34 
  "/>
<polyline clip-path="url(#clip6003)" style="stroke:#000000; stroke-width:2; stroke-opacity:0.1; fill:none" points="
  1372.9,1115.94 2352.76,1115.94 
  "/>
<polyline clip-path="url(#clip6003)" style="stroke:#000000; stroke-width:2; stroke-opacity:0.1; fill:none" points="
  1372.9,896.54 2352.76,896.54 
  "/>
<polyline clip-path="url(#clip6003)" style="stroke:#000000; stroke-width:2; stroke-opacity:0.1; fill:none" points="
  1372.9,677.14 2352.76,677.14 
  "/>
<polyline clip-path="url(#clip6003)" style="stroke:#000000; stroke-width:2; stroke-opacity:0.1; fill:none" points="
  1372.9,457.741 2352.76,457.741 
  "/>
<polyline clip-path="url(#clip6003)" style="stroke:#000000; stroke-width:2; stroke-opacity:0.1; fill:none" points="
  1372.9,238.341 2352.76,238.341 
  "/>
<polyline clip-path="url(#clip6000)" style="stroke:#000000; stroke-width:4; stroke-opacity:1; fill:none" points="
  1372.9,1372.86 2352.76,1372.86 
  "/>
<polyline clip-path="url(#clip6000)" style="stroke:#000000; stroke-width:4; stroke-opacity:1; fill:none" points="
  1372.9,1372.86 1372.9,47.2441 
  "/>
<polyline clip-path="url(#clip6000)" style="stroke:#000000; stroke-width:4; stroke-opacity:1; fill:none" points="
  1404.68,1372.86 1404.68,1352.97 
  "/>
<polyline clip-path="url(#clip6000)" style="stroke:#000000; stroke-width:4; stroke-opacity:1; fill:none" points="
  1711.46,1372.86 1711.46,1352.97 
  "/>
<polyline clip-path="url(#clip6000)" style="stroke:#000000; stroke-width:4; stroke-opacity:1; fill:none" points="
  2018.24,1372.86 2018.24,1352.97 
  "/>
<polyline clip-path="url(#clip6000)" style="stroke:#000000; stroke-width:4; stroke-opacity:1; fill:none" points="
  2325.02,1372.86 2325.02,1352.97 
  "/>
<polyline clip-path="url(#clip6000)" style="stroke:#000000; stroke-width:4; stroke-opacity:1; fill:none" points="
  1372.9,1335.34 1387.6,1335.34 
  "/>
<polyline clip-path="url(#clip6000)" style="stroke:#000000; stroke-width:4; stroke-opacity:1; fill:none" points="
  1372.9,1115.94 1387.6,1115.94 
  "/>
<polyline clip-path="url(#clip6000)" style="stroke:#000000; stroke-width:4; stroke-opacity:1; fill:none" points="
  1372.9,896.54 1387.6,896.54 
  "/>
<polyline clip-path="url(#clip6000)" style="stroke:#000000; stroke-width:4; stroke-opacity:1; fill:none" points="
  1372.9,677.14 1387.6,677.14 
  "/>
<polyline clip-path="url(#clip6000)" style="stroke:#000000; stroke-width:4; stroke-opacity:1; fill:none" points="
  1372.9,457.741 1387.6,457.741 
  "/>
<polyline clip-path="url(#clip6000)" style="stroke:#000000; stroke-width:4; stroke-opacity:1; fill:none" points="
  1372.9,238.341 1387.6,238.341 
  "/>
<g clip-path="url(#clip6000)">
<text style="fill:#000000; fill-opacity:1; font-family:Arial,Helvetica Neue,Helvetica,sans-serif; font-size:48px; text-anchor:middle;" transform="rotate(0, 1404.68, 1426.86)" x="1404.68" y="1426.86">0</text>
</g>
<g clip-path="url(#clip6000)">
<text style="fill:#000000; fill-opacity:1; font-family:Arial,Helvetica Neue,Helvetica,sans-serif; font-size:48px; text-anchor:middle;" transform="rotate(0, 1711.46, 1426.86)" x="1711.46" y="1426.86">10</text>
</g>
<g clip-path="url(#clip6000)">
<text style="fill:#000000; fill-opacity:1; font-family:Arial,Helvetica Neue,Helvetica,sans-serif; font-size:48px; text-anchor:middle;" transform="rotate(0, 2018.24, 1426.86)" x="2018.24" y="1426.86">20</text>
</g>
<g clip-path="url(#clip6000)">
<text style="fill:#000000; fill-opacity:1; font-family:Arial,Helvetica Neue,Helvetica,sans-serif; font-size:48px; text-anchor:middle;" transform="rotate(0, 2325.02, 1426.86)" x="2325.02" y="1426.86">30</text>
</g>
<g clip-path="url(#clip6000)">
<text style="fill:#000000; fill-opacity:1; font-family:Arial,Helvetica Neue,Helvetica,sans-serif; font-size:48px; text-anchor:end;" transform="rotate(0, 1348.9, 1352.84)" x="1348.9" y="1352.84">0.0</text>
</g>
<g clip-path="url(#clip6000)">
<text style="fill:#000000; fill-opacity:1; font-family:Arial,Helvetica Neue,Helvetica,sans-serif; font-size:48px; text-anchor:end;" transform="rotate(0, 1348.9, 1133.44)" x="1348.9" y="1133.44">0.1</text>
</g>
<g clip-path="url(#clip6000)">
<text style="fill:#000000; fill-opacity:1; font-family:Arial,Helvetica Neue,Helvetica,sans-serif; font-size:48px; text-anchor:end;" transform="rotate(0, 1348.9, 914.04)" x="1348.9" y="914.04">0.2</text>
</g>
<g clip-path="url(#clip6000)">
<text style="fill:#000000; fill-opacity:1; font-family:Arial,Helvetica Neue,Helvetica,sans-serif; font-size:48px; text-anchor:end;" transform="rotate(0, 1348.9, 694.64)" x="1348.9" y="694.64">0.3</text>
</g>
<g clip-path="url(#clip6000)">
<text style="fill:#000000; fill-opacity:1; font-family:Arial,Helvetica Neue,Helvetica,sans-serif; font-size:48px; text-anchor:end;" transform="rotate(0, 1348.9, 475.241)" x="1348.9" y="475.241">0.4</text>
</g>
<g clip-path="url(#clip6000)">
<text style="fill:#000000; fill-opacity:1; font-family:Arial,Helvetica Neue,Helvetica,sans-serif; font-size:48px; text-anchor:end;" transform="rotate(0, 1348.9, 255.841)" x="1348.9" y="255.841">0.5</text>
</g>
<path clip-path="url(#clip6003)" d="
M1404.68 1313.4 L1404.68 1335.34 L1410.82 1335.34 L1410.82 1313.4 L1404.68 1313.4 L1404.68 1313.4  Z
  " fill="#000014" fill-rule="evenodd" fill-opacity="1"/>
<polyline clip-path="url(#clip6003)" style="stroke:#000000; stroke-width:4; stroke-opacity:1; fill:none" points="
  1404.68,1313.4 1404.68,1335.34 1410.82,1335.34 1410.82,1313.4 1404.68,1313.4 
  "/>
<path clip-path="url(#clip6003)" d="
M1410.82 1181.76 L1410.82 1335.34 L1416.96 1335.34 L1416.96 1181.76 L1410.82 1181.76 L1410.82 1181.76  Z
  " fill="#000014" fill-rule="evenodd" fill-opacity="1"/>
<polyline clip-path="url(#clip6003)" style="stroke:#000000; stroke-width:4; stroke-opacity:1; fill:none" points="
  1410.82,1181.76 1410.82,1335.34 1416.96,1335.34 1416.96,1181.76 1410.82,1181.76 
  "/>
<path clip-path="url(#clip6003)" d="
M1416.96 1115.94 L1416.96 1335.34 L1423.09 1335.34 L1423.09 1115.94 L1416.96 1115.94 L1416.96 1115.94  Z
  " fill="#000014" fill-rule="evenodd" fill-opacity="1"/>
<polyline clip-path="url(#clip6003)" style="stroke:#000000; stroke-width:4; stroke-opacity:1; fill:none" points="
  1416.96,1115.94 1416.96,1335.34 1423.09,1335.34 1423.09,1115.94 1416.96,1115.94 
  "/>
<path clip-path="url(#clip6003)" d="
M1423.09 1061.09 L1423.09 1335.34 L1429.23 1335.34 L1429.23 1061.09 L1423.09 1061.09 L1423.09 1061.09  Z
  " fill="#000014" fill-rule="evenodd" fill-opacity="1"/>
<polyline clip-path="url(#clip6003)" style="stroke:#000000; stroke-width:4; stroke-opacity:1; fill:none" points="
  1423.09,1061.09 1423.09,1335.34 1429.23,1335.34 1429.23,1061.09 1423.09,1061.09 
  "/>
<path clip-path="url(#clip6003)" d="
M1429.23 369.981 L1429.23 1335.34 L1435.36 1335.34 L1435.36 369.981 L1429.23 369.981 L1429.23 369.981  Z
  " fill="#000014" fill-rule="evenodd" fill-opacity="1"/>
<polyline clip-path="url(#clip6003)" style="stroke:#000000; stroke-width:4; stroke-opacity:1; fill:none" points="
  1429.23,369.981 1429.23,1335.34 1435.36,1335.34 1435.36,369.981 1429.23,369.981 
  "/>
<path clip-path="url(#clip6003)" d="
M1435.36 249.311 L1435.36 1335.34 L1441.5 1335.34 L1441.5 249.311 L1435.36 249.311 L1435.36 249.311  Z
  " fill="#000014" fill-rule="evenodd" fill-opacity="1"/>
<polyline clip-path="url(#clip6003)" style="stroke:#000000; stroke-width:4; stroke-opacity:1; fill:none" points="
  1435.36,249.311 1435.36,1335.34 1441.5,1335.34 1441.5,249.311 1435.36,249.311 
  "/>
<path clip-path="url(#clip6003)" d="
M1441.5 172.521 L1441.5 1335.34 L1447.63 1335.34 L1447.63 172.521 L1441.5 172.521 L1441.5 172.521  Z
  " fill="#000014" fill-rule="evenodd" fill-opacity="1"/>
<polyline clip-path="url(#clip6003)" style="stroke:#000000; stroke-width:4; stroke-opacity:1; fill:none" points="
  1441.5,172.521 1441.5,1335.34 1447.63,1335.34 1447.63,172.521 1441.5,172.521 
  "/>
<path clip-path="url(#clip6003)" d="
M1447.63 84.7614 L1447.63 1335.34 L1453.77 1335.34 L1453.77 84.7614 L1447.63 84.7614 L1447.63 84.7614  Z
  " fill="#000014" fill-rule="evenodd" fill-opacity="1"/>
<polyline clip-path="url(#clip6003)" style="stroke:#000000; stroke-width:4; stroke-opacity:1; fill:none" points="
  1447.63,84.7614 1447.63,1335.34 1453.77,1335.34 1453.77,84.7614 1447.63,84.7614 
  "/>
<path clip-path="url(#clip6003)" d="
M1453.77 194.461 L1453.77 1335.34 L1459.9 1335.34 L1459.9 194.461 L1453.77 194.461 L1453.77 194.461  Z
  " fill="#000014" fill-rule="evenodd" fill-opacity="1"/>
<polyline clip-path="url(#clip6003)" style="stroke:#000000; stroke-width:4; stroke-opacity:1; fill:none" points="
  1453.77,194.461 1453.77,1335.34 1459.9,1335.34 1459.9,194.461 1453.77,194.461 
  "/>
<path clip-path="url(#clip6003)" d="
M1459.9 380.951 L1459.9 1335.34 L1466.04 1335.34 L1466.04 380.951 L1459.9 380.951 L1459.9 380.951  Z
  " fill="#000014" fill-rule="evenodd" fill-opacity="1"/>
<polyline clip-path="url(#clip6003)" style="stroke:#000000; stroke-width:4; stroke-opacity:1; fill:none" points="
  1459.9,380.951 1459.9,1335.34 1466.04,1335.34 1466.04,380.951 1459.9,380.951 
  "/>
<path clip-path="url(#clip6003)" d="
M1466.04 819.75 L1466.04 1335.34 L1472.18 1335.34 L1472.18 819.75 L1466.04 819.75 L1466.04 819.75  Z
  " fill="#000014" fill-rule="evenodd" fill-opacity="1"/>
<polyline clip-path="url(#clip6003)" style="stroke:#000000; stroke-width:4; stroke-opacity:1; fill:none" points="
  1466.04,819.75 1466.04,1335.34 1472.18,1335.34 1472.18,819.75 1466.04,819.75 
  "/>
<path clip-path="url(#clip6003)" d="
M1472.18 775.87 L1472.18 1335.34 L1478.31 1335.34 L1478.31 775.87 L1472.18 775.87 L1472.18 775.87  Z
  " fill="#000014" fill-rule="evenodd" fill-opacity="1"/>
<polyline clip-path="url(#clip6003)" style="stroke:#000000; stroke-width:4; stroke-opacity:1; fill:none" points="
  1472.18,775.87 1472.18,1335.34 1478.31,1335.34 1478.31,775.87 1472.18,775.87 
  "/>
<path clip-path="url(#clip6003)" d="
M1478.31 1225.64 L1478.31 1335.34 L1484.45 1335.34 L1484.45 1225.64 L1478.31 1225.64 L1478.31 1225.64  Z
  " fill="#000014" fill-rule="evenodd" fill-opacity="1"/>
<polyline clip-path="url(#clip6003)" style="stroke:#000000; stroke-width:4; stroke-opacity:1; fill:none" points="
  1478.31,1225.64 1478.31,1335.34 1484.45,1335.34 1484.45,1225.64 1478.31,1225.64 
  "/>
<path clip-path="url(#clip6003)" d="
M1484.45 1236.61 L1484.45 1335.34 L1490.58 1335.34 L1490.58 1236.61 L1484.45 1236.61 L1484.45 1236.61  Z
  " fill="#000014" fill-rule="evenodd" fill-opacity="1"/>
<polyline clip-path="url(#clip6003)" style="stroke:#000000; stroke-width:4; stroke-opacity:1; fill:none" points="
  1484.45,1236.61 1484.45,1335.34 1490.58,1335.34 1490.58,1236.61 1484.45,1236.61 
  "/>
<path clip-path="url(#clip6003)" d="
M1490.58 1181.76 L1490.58 1335.34 L1496.72 1335.34 L1496.72 1181.76 L1490.58 1181.76 L1490.58 1181.76  Z
  " fill="#000014" fill-rule="evenodd" fill-opacity="1"/>
<polyline clip-path="url(#clip6003)" style="stroke:#000000; stroke-width:4; stroke-opacity:1; fill:none" points="
  1490.58,1181.76 1490.58,1335.34 1496.72,1335.34 1496.72,1181.76 1490.58,1181.76 
  "/>
<path clip-path="url(#clip6003)" d="
M1496.72 1170.79 L1496.72 1335.34 L1502.85 1335.34 L1502.85 1170.79 L1496.72 1170.79 L1496.72 1170.79  Z
  " fill="#000014" fill-rule="evenodd" fill-opacity="1"/>
<polyline clip-path="url(#clip6003)" style="stroke:#000000; stroke-width:4; stroke-opacity:1; fill:none" points="
  1496.72,1170.79 1496.72,1335.34 1502.85,1335.34 1502.85,1170.79 1496.72,1170.79 
  "/>
<path clip-path="url(#clip6003)" d="
M1502.85 1094 L1502.85 1335.34 L1508.99 1335.34 L1508.99 1094 L1502.85 1094 L1502.85 1094  Z
  " fill="#000014" fill-rule="evenodd" fill-opacity="1"/>
<polyline clip-path="url(#clip6003)" style="stroke:#000000; stroke-width:4; stroke-opacity:1; fill:none" points="
  1502.85,1094 1502.85,1335.34 1508.99,1335.34 1508.99,1094 1502.85,1094 
  "/>
<path clip-path="url(#clip6003)" d="
M1508.99 633.26 L1508.99 1335.34 L1515.13 1335.34 L1515.13 633.26 L1508.99 633.26 L1508.99 633.26  Z
  " fill="#000014" fill-rule="evenodd" fill-opacity="1"/>
<polyline clip-path="url(#clip6003)" style="stroke:#000000; stroke-width:4; stroke-opacity:1; fill:none" points="
  1508.99,633.26 1508.99,1335.34 1515.13,1335.34 1515.13,633.26 1508.99,633.26 
  "/>
<path clip-path="url(#clip6003)" d="
M1515.13 918.48 L1515.13 1335.34 L1521.26 1335.34 L1521.26 918.48 L1515.13 918.48 L1515.13 918.48  Z
  " fill="#000014" fill-rule="evenodd" fill-opacity="1"/>
<polyline clip-path="url(#clip6003)" style="stroke:#000000; stroke-width:4; stroke-opacity:1; fill:none" points="
  1515.13,918.48 1515.13,1335.34 1521.26,1335.34 1521.26,918.48 1515.13,918.48 
  "/>
<path clip-path="url(#clip6003)" d="
M1521.26 1148.85 L1521.26 1335.34 L1527.4 1335.34 L1527.4 1148.85 L1521.26 1148.85 L1521.26 1148.85  Z
  " fill="#000014" fill-rule="evenodd" fill-opacity="1"/>
<polyline clip-path="url(#clip6003)" style="stroke:#000000; stroke-width:4; stroke-opacity:1; fill:none" points="
  1521.26,1148.85 1521.26,1335.34 1527.4,1335.34 1527.4,1148.85 1521.26,1148.85 
  "/>
<path clip-path="url(#clip6003)" d="
M1527.4 962.36 L1527.4 1335.34 L1533.53 1335.34 L1533.53 962.36 L1527.4 962.36 L1527.4 962.36  Z
  " fill="#000014" fill-rule="evenodd" fill-opacity="1"/>
<polyline clip-path="url(#clip6003)" style="stroke:#000000; stroke-width:4; stroke-opacity:1; fill:none" points="
  1527.4,962.36 1527.4,1335.34 1533.53,1335.34 1533.53,962.36 1527.4,962.36 
  "/>
<path clip-path="url(#clip6003)" d="
M1533.53 1115.94 L1533.53 1335.34 L1539.67 1335.34 L1539.67 1115.94 L1533.53 1115.94 L1533.53 1115.94  Z
  " fill="#000014" fill-rule="evenodd" fill-opacity="1"/>
<polyline clip-path="url(#clip6003)" style="stroke:#000000; stroke-width:4; stroke-opacity:1; fill:none" points="
  1533.53,1115.94 1533.53,1335.34 1539.67,1335.34 1539.67,1115.94 1533.53,1115.94 
  "/>
<polyline clip-path="url(#clip6003)" style="stroke:#90ee90; stroke-width:4; stroke-opacity:1; fill:none" points="
  1404.68,1335.34 1404.99,1335.33 1405.3,1335.28 1405.6,1335.22 1405.91,1335.12 1406.22,1335 1406.52,1334.86 1406.83,1334.69 1407.14,1334.5 1407.45,1334.28 
  1407.75,1334.03 1408.06,1333.77 1408.37,1333.48 1408.67,1333.17 1408.98,1332.83 1409.29,1332.48 1409.59,1332.1 1409.9,1331.7 1410.21,1331.28 1410.51,1330.84 
  1410.82,1330.38 1411.13,1329.89 1411.43,1329.39 1411.74,1328.87 1412.05,1328.33 1412.35,1327.78 1412.66,1327.2 1412.97,1326.61 1413.27,1325.99 1413.58,1325.36 
  1413.89,1324.72 1414.19,1324.05 1414.5,1323.37 1414.81,1322.68 1415.11,1321.97 1415.42,1321.24 1415.73,1320.5 1416.04,1319.74 1416.34,1318.96 1416.65,1318.18 
  1416.96,1317.38 1417.26,1316.56 1417.57,1315.73 1417.88,1314.89 1418.18,1314.03 1418.49,1313.17 1418.8,1312.29 1419.1,1311.39 1419.41,1310.49 1419.72,1309.57 
  1420.02,1308.64 1420.33,1307.7 1420.64,1306.75 1420.94,1305.79 1421.25,1304.82 1421.56,1303.83 1421.86,1302.84 1422.17,1301.84 1422.48,1300.82 1422.78,1299.8 
  1423.09,1298.77 1423.4,1297.73 1423.7,1296.68 1424.01,1295.62 1424.32,1294.55 1424.62,1293.48 1424.93,1292.4 1425.24,1291.31 1425.55,1290.21 1425.85,1289.1 
  1426.16,1287.99 1426.47,1286.87 1426.77,1285.74 1427.08,1284.61 1427.39,1283.47 1427.69,1282.33 1428,1281.18 1428.31,1280.02 1428.61,1278.85 1428.92,1277.69 
  1429.23,1276.51 1429.53,1275.33 1429.84,1274.15 1430.15,1272.96 1430.45,1271.77 1430.76,1270.57 1431.07,1269.37 1431.37,1268.16 1431.68,1266.95 1431.99,1265.74 
  1432.29,1264.52 1432.6,1263.3 1432.91,1262.07 1433.21,1260.84 1433.52,1259.61 1433.83,1258.38 1434.14,1257.14 1434.44,1255.9 1434.75,1254.66 1435.06,1253.42 
  1435.36,1252.17 1435.67,1250.92 1435.98,1249.67 1436.28,1248.42 1436.59,1247.16 1436.9,1245.91 1437.2,1244.65 1437.51,1243.39 1437.82,1242.13 1438.12,1240.87 
  1438.43,1239.61 1438.74,1238.35 1439.04,1237.09 1439.35,1235.82 1439.66,1234.56 1439.96,1233.29 1440.27,1232.03 1440.58,1230.76 1440.88,1229.5 1441.19,1228.24 
  1441.5,1226.97 1441.8,1225.71 1442.11,1224.44 1442.42,1223.18 1442.72,1221.92 1443.03,1220.66 1443.34,1219.39 1443.65,1218.13 1443.95,1216.87 1444.26,1215.62 
  1444.57,1214.36 1444.87,1213.1 1445.18,1211.85 1445.49,1210.6 1445.79,1209.35 1446.1,1208.1 1446.41,1206.85 1446.71,1205.6 1447.02,1204.36 1447.33,1203.12 
  1447.63,1201.87 1447.94,1200.64 1448.25,1199.4 1448.55,1198.17 1448.86,1196.94 1449.17,1195.71 1449.47,1194.48 1449.78,1193.26 1450.09,1192.03 1450.39,1190.82 
  1450.7,1189.6 1451.01,1188.39 1451.31,1187.18 1451.62,1185.97 1451.93,1184.77 1452.24,1183.56 1452.54,1182.37 1452.85,1181.17 1453.16,1179.98 1453.46,1178.79 
  1453.77,1177.61 1454.08,1176.43 1454.38,1175.25 1454.69,1174.07 1455,1172.9 1455.3,1171.74 1455.61,1170.57 1455.92,1169.41 1456.22,1168.26 1456.53,1167.11 
  1456.84,1165.96 1457.14,1164.81 1457.45,1163.68 1457.76,1162.54 1458.06,1161.41 1458.37,1160.28 1458.68,1159.16 1458.98,1158.04 1459.29,1156.92 1459.6,1155.81 
  1459.9,1154.71 1460.21,1153.61 1460.52,1152.51 1460.82,1151.42 1461.13,1150.33 1461.44,1149.24 1461.75,1148.16 1462.05,1147.09 1462.36,1146.02 1462.67,1144.95 
  1462.97,1143.89 1463.28,1142.84 1463.59,1141.79 1463.89,1140.74 1464.2,1139.7 1464.51,1138.66 1464.81,1137.63 1465.12,1136.61 1465.43,1135.59 1465.73,1134.57 
  1466.04,1133.56 1466.35,1132.55 1466.65,1131.55 1466.96,1130.55 1467.27,1129.56 1467.57,1128.58 1467.88,1127.6 1468.19,1126.62 1468.49,1125.65 1468.8,1124.68 
  1469.11,1123.72 1469.41,1122.77 1469.72,1121.82 1470.03,1120.88 1470.34,1119.94 1470.64,1119 1470.95,1118.08 1471.26,1117.15 1471.56,1116.24 1471.87,1115.32 
  1472.18,1114.42 1472.48,1113.52 1472.79,1112.62 1473.1,1111.73 1473.4,1110.85 1473.71,1109.97 1474.02,1109.09 1474.32,1108.23 1474.63,1107.36 1474.94,1106.51 
  1475.24,1105.65 1475.55,1104.81 1475.86,1103.97 1476.16,1103.13 1476.47,1102.3 1476.78,1101.48 1477.08,1100.66 1477.39,1099.85 1477.7,1099.04 1478,1098.24 
  1478.31,1097.44 1478.62,1096.65 1478.92,1095.87 1479.23,1095.09 1479.54,1094.32 1479.85,1093.55 1480.15,1092.79 1480.46,1092.03 1480.77,1091.28 1481.07,1090.54 
  1481.38,1089.8 1481.69,1089.06 1481.99,1088.33 1482.3,1087.61 1482.61,1086.89 1482.91,1086.18 1483.22,1085.48 1483.53,1084.78 1483.83,1084.08 1484.14,1083.4 
  1484.45,1082.71 1484.75,1082.03 1485.06,1081.36 1485.37,1080.7 1485.67,1080.04 1485.98,1079.38 1486.29,1078.73 1486.59,1078.09 1486.9,1077.45 1487.21,1076.82 
  1487.51,1076.19 1487.82,1075.57 1488.13,1074.96 1488.44,1074.35 1488.74,1073.74 1489.05,1073.14 1489.36,1072.55 1489.66,1071.96 1489.97,1071.38 1490.28,1070.8 
  1490.58,1070.23 1490.89,1069.67 1491.2,1069.11 1491.5,1068.55 1491.81,1068.01 1492.12,1067.46 1492.42,1066.92 1492.73,1066.39 1493.04,1065.87 1493.34,1065.34 
  1493.65,1064.83 1493.96,1064.32 1494.26,1063.81 1494.57,1063.31 1494.88,1062.82 1495.18,1062.33 1495.49,1061.85 1495.8,1061.37 1496.1,1060.9 1496.41,1060.43 
  1496.72,1059.97 1497.02,1059.51 1497.33,1059.06 1497.64,1058.62 1497.95,1058.18 1498.25,1057.74 1498.56,1057.31 1498.87,1056.89 1499.17,1056.47 1499.48,1056.05 
  1499.79,1055.65 1500.09,1055.24 1500.4,1054.84 1500.71,1054.45 1501.01,1054.06 1501.32,1053.68 1501.63,1053.3 1501.93,1052.93 1502.24,1052.56 1502.55,1052.2 
  1502.85,1051.84 1503.16,1051.49 1503.47,1051.15 1503.77,1050.8 1504.08,1050.47 1504.39,1050.14 1504.69,1049.81 1505,1049.49 1505.31,1049.17 1505.61,1048.86 
  1505.92,1048.55 1506.23,1048.25 1506.54,1047.95 1506.84,1047.66 1507.15,1047.38 1507.46,1047.09 1507.76,1046.82 1508.07,1046.54 1508.38,1046.28 1508.68,1046.01 
  1508.99,1045.76 1509.3,1045.5 1509.6,1045.25 1509.91,1045.01 1510.22,1044.77 1510.52,1044.54 1510.83,1044.31 1511.14,1044.08 1511.44,1043.86 1511.75,1043.65 
  1512.06,1043.44 1512.36,1043.23 1512.67,1043.03 1512.98,1042.83 1513.28,1042.64 1513.59,1042.45 1513.9,1042.27 1514.2,1042.09 1514.51,1041.92 1514.82,1041.75 
  1515.13,1041.58 1515.43,1041.42 1515.74,1041.26 1516.05,1041.11 1516.35,1040.96 1516.66,1040.82 1516.97,1040.68 1517.27,1040.55 1517.58,1040.42 1517.89,1040.29 
  1518.19,1040.17 1518.5,1040.05 1518.81,1039.94 1519.11,1039.83 1519.42,1039.72 1519.73,1039.62 1520.03,1039.53 1520.34,1039.43 1520.65,1039.35 1520.95,1039.26 
  1521.26,1039.18 1521.57,1039.11 1521.87,1039.03 1522.18,1038.97 1522.49,1038.9 1522.79,1038.84 1523.1,1038.79 1523.41,1038.73 1523.71,1038.69 1524.02,1038.64 
  1524.33,1038.6 1524.64,1038.57 1524.94,1038.53 1525.25,1038.51 1525.56,1038.48 1525.86,1038.46 1526.17,1038.44 1526.48,1038.43 1526.78,1038.42 1527.09,1038.42 
  1527.4,1038.41 1527.7,1038.42 1528.01,1038.42 1528.32,1038.43 1528.62,1038.44 1528.93,1038.46 1529.24,1038.48 1529.54,1038.5 1529.85,1038.53 1530.16,1038.56 
  1530.46,1038.6 1530.77,1038.63 1531.08,1038.68 1531.38,1038.72 1531.69,1038.77 1532,1038.82 1532.3,1038.88 1532.61,1038.94 1532.92,1039 1533.23,1039.06 
  1533.53,1039.13 1533.84,1039.2 1534.15,1039.28 1534.45,1039.36 1534.76,1039.44 1535.07,1039.53 1535.37,1039.61 1535.68,1039.71 1535.99,1039.8 1536.29,1039.9 
  1536.6,1040 1536.91,1040.11 1537.21,1040.21 1537.52,1040.32 1537.83,1040.44 1538.13,1040.56 1538.44,1040.68 1538.75,1040.8 1539.05,1040.92 1539.36,1041.05 
  1539.67,1041.19 1539.97,1041.32 1540.28,1041.46 1540.59,1041.6 1540.89,1041.74 1541.2,1041.89 1541.51,1042.04 1541.81,1042.19 1542.12,1042.35 1542.43,1042.51 
  1542.74,1042.67 1543.04,1042.83 1543.35,1043 1543.66,1043.17 1543.96,1043.34 1544.27,1043.52 1544.58,1043.69 1544.88,1043.87 1545.19,1044.06 1545.5,1044.24 
  1545.8,1044.43 1546.11,1044.62 1546.42,1044.82 1546.72,1045.01 1547.03,1045.21 1547.34,1045.41 1547.64,1045.62 1547.95,1045.82 1548.26,1046.03 1548.56,1046.24 
  1548.87,1046.46 1549.18,1046.67 1549.48,1046.89 1549.79,1047.11 1550.1,1047.34 1550.4,1047.56 1550.71,1047.79 1551.02,1048.02 1551.33,1048.26 1551.63,1048.49 
  1551.94,1048.73 1552.25,1048.97 1552.55,1049.21 1552.86,1049.46 1553.17,1049.7 1553.47,1049.95 1553.78,1050.2 1554.09,1050.46 1554.39,1050.71 1554.7,1050.97 
  1555.01,1051.23 1555.31,1051.49 1555.62,1051.76 1555.93,1052.02 1556.23,1052.29 1556.54,1052.56 1556.85,1052.83 1557.15,1053.11 1557.46,1053.38 1557.77,1053.66 
  1558.07,1053.94 1558.38,1054.22 1558.69,1054.51 1558.99,1054.8 1559.3,1055.08 1559.61,1055.37 1559.91,1055.67 1560.22,1055.96 1560.53,1056.25 1560.84,1056.55 
  1561.14,1056.85 1561.45,1057.15 1561.76,1057.46 1562.06,1057.76 1562.37,1058.07 1562.68,1058.38 1562.98,1058.69 1563.29,1059 1563.6,1059.31 1563.9,1059.63 
  1564.21,1059.94 1564.52,1060.26 1564.82,1060.58 1565.13,1060.9 1565.44,1061.23 1565.74,1061.55 1566.05,1061.88 1566.36,1062.21 1566.66,1062.54 1566.97,1062.87 
  1567.28,1063.2 1567.58,1063.54 1567.89,1063.87 1568.2,1064.21 1568.5,1064.55 1568.81,1064.89 1569.12,1065.23 1569.43,1065.58 1569.73,1065.92 1570.04,1066.27 
  1570.35,1066.61 1570.65,1066.96 1570.96,1067.31 1571.27,1067.67 1571.57,1068.02 1571.88,1068.37 1572.19,1068.73 1572.49,1069.09 1572.8,1069.44 1573.11,1069.8 
  1573.41,1070.16 1573.72,1070.53 1574.03,1070.89 1574.33,1071.26 1574.64,1071.62 1574.95,1071.99 1575.25,1072.36 1575.56,1072.73 1575.87,1073.1 1576.17,1073.47 
  1576.48,1073.84 1576.79,1074.22 1577.09,1074.59 1577.4,1074.97 1577.71,1075.35 1578.01,1075.72 1578.32,1076.1 1578.63,1076.48 1578.94,1076.87 1579.24,1077.25 
  1579.55,1077.63 1579.86,1078.02 1580.16,1078.4 1580.47,1078.79 1580.78,1079.18 1581.08,1079.57 1581.39,1079.96 1581.7,1080.35 1582,1080.74 1582.31,1081.13 
  1582.62,1081.52 1582.92,1081.92 1583.23,1082.31 1583.54,1082.71 1583.84,1083.11 1584.15,1083.5 1584.46,1083.9 1584.76,1084.3 1585.07,1084.7 1585.38,1085.1 
  1585.68,1085.51 1585.99,1085.91 1586.3,1086.31 1586.6,1086.72 1586.91,1087.12 1587.22,1087.53 1587.53,1087.93 1587.83,1088.34 1588.14,1088.75 1588.45,1089.16 
  1588.75,1089.57 1589.06,1089.98 1589.37,1090.39 1589.67,1090.8 1589.98,1091.21 1590.29,1091.62 1590.59,1092.04 1590.9,1092.45 1591.21,1092.86 1591.51,1093.28 
  1591.82,1093.69 1592.13,1094.11 1592.43,1094.53 1592.74,1094.94 1593.05,1095.36 1593.35,1095.78 1593.66,1096.2 1593.97,1096.62 1594.27,1097.04 1594.58,1097.46 
  1594.89,1097.88 1595.19,1098.3 1595.5,1098.73 1595.81,1099.15 1596.11,1099.57 1596.42,1099.99 1596.73,1100.42 1597.04,1100.84 1597.34,1101.27 1597.65,1101.69 
  1597.96,1102.12 1598.26,1102.54 1598.57,1102.97 1598.88,1103.4 1599.18,1103.82 1599.49,1104.25 1599.8,1104.68 1600.1,1105.11 1600.41,1105.54 1600.72,1105.96 
  1601.02,1106.39 1601.33,1106.82 1601.64,1107.25 1601.94,1107.68 1602.25,1108.11 1602.56,1108.54 1602.86,1108.97 1603.17,1109.41 1603.48,1109.84 1603.78,1110.27 
  1604.09,1110.7 1604.4,1111.13 1604.7,1111.56 1605.01,1112 1605.32,1112.43 1605.63,1112.86 1605.93,1113.3 1606.24,1113.73 1606.55,1114.16 1606.85,1114.6 
  1607.16,1115.03 1607.47,1115.46 1607.77,1115.9 1608.08,1116.33 1608.39,1116.77 1608.69,1117.2 1609,1117.64 1609.31,1118.07 1609.61,1118.51 1609.92,1118.94 
  1610.23,1119.38 1610.53,1119.81 1610.84,1120.25 1611.15,1120.68 1611.45,1121.12 1611.76,1121.55 1612.07,1121.99 1612.37,1122.42 1612.68,1122.86 1612.99,1123.3 
  1613.29,1123.73 1613.6,1124.17 1613.91,1124.6 1614.21,1125.04 1614.52,1125.47 1614.83,1125.91 1615.14,1126.35 1615.44,1126.78 1615.75,1127.22 1616.06,1127.65 
  1616.36,1128.09 1616.67,1128.52 1616.98,1128.96 1617.28,1129.39 1617.59,1129.83 1617.9,1130.26 1618.2,1130.7 1618.51,1131.13 1618.82,1131.57 1619.12,1132 
  1619.43,1132.44 1619.74,1132.87 1620.04,1133.31 1620.35,1133.74 1620.66,1134.18 1620.96,1134.61 1621.27,1135.05 1621.58,1135.48 1621.88,1135.91 1622.19,1136.35 
  1622.5,1136.78 1622.8,1137.21 1623.11,1137.65 1623.42,1138.08 1623.73,1138.51 1624.03,1138.95 1624.34,1139.38 1624.65,1139.81 1624.95,1140.24 1625.26,1140.68 
  1625.57,1141.11 1625.87,1141.54 1626.18,1141.97 1626.49,1142.4 1626.79,1142.83 1627.1,1143.26 1627.41,1143.69 1627.71,1144.12 1628.02,1144.55 1628.33,1144.98 
  1628.63,1145.41 1628.94,1145.84 1629.25,1146.27 1629.55,1146.7 1629.86,1147.13 1630.17,1147.56 1630.47,1147.98 1630.78,1148.41 1631.09,1148.84 1631.39,1149.26 
  1631.7,1149.69 1632.01,1150.12 1632.31,1150.54 1632.62,1150.97 1632.93,1151.39 1633.24,1151.82 1633.54,1152.24 1633.85,1152.67 1634.16,1153.09 1634.46,1153.52 
  1634.77,1153.94 1635.08,1154.36 1635.38,1154.79 1635.69,1155.21 1636,1155.63 1636.3,1156.05 1636.61,1156.47 1636.92,1156.89 1637.22,1157.32 1637.53,1157.74 
  1637.84,1158.16 1638.14,1158.57 1638.45,1158.99 1638.76,1159.41 1639.06,1159.83 1639.37,1160.25 1639.68,1160.67 1639.98,1161.08 1640.29,1161.5 1640.6,1161.92 
  1640.9,1162.33 1641.21,1162.75 1641.52,1163.16 1641.83,1163.58 1642.13,1163.99 1642.44,1164.41 1642.75,1164.82 1643.05,1165.23 1643.36,1165.64 1643.67,1166.06 
  1643.97,1166.47 1644.28,1166.88 1644.59,1167.29 1644.89,1167.7 1645.2,1168.11 1645.51,1168.52 1645.81,1168.93 1646.12,1169.34 1646.43,1169.74 1646.73,1170.15 
  1647.04,1170.56 1647.35,1170.96 1647.65,1171.37 1647.96,1171.78 1648.27,1172.18 1648.57,1172.59 1648.88,1172.99 1649.19,1173.39 1649.49,1173.8 1649.8,1174.2 
  1650.11,1174.6 1650.41,1175 1650.72,1175.4 1651.03,1175.8 1651.34,1176.2 1651.64,1176.6 1651.95,1177 1652.26,1177.4 1652.56,1177.8 1652.87,1178.2 
  1653.18,1178.59 1653.48,1178.99 1653.79,1179.39 1654.1,1179.78 1654.4,1180.18 1654.71,1180.57 1655.02,1180.97 1655.32,1181.36 1655.63,1181.75 1655.94,1182.14 
  1656.24,1182.53 1656.55,1182.93 1656.86,1183.32 1657.16,1183.71 1657.47,1184.1 1657.78,1184.48 1658.08,1184.87 1658.39,1185.26 1658.7,1185.65 1659,1186.03 
  1659.31,1186.42 1659.62,1186.81 1659.93,1187.19 1660.23,1187.57 1660.54,1187.96 1660.85,1188.34 1661.15,1188.72 1661.46,1189.11 1661.77,1189.49 1662.07,1189.87 
  1662.38,1190.25 1662.69,1190.63 1662.99,1191.01 1663.3,1191.39 1663.61,1191.76 1663.91,1192.14 1664.22,1192.52 1664.53,1192.89 1664.83,1193.27 1665.14,1193.65 
  1665.45,1194.02 1665.75,1194.39 1666.06,1194.77 1666.37,1195.14 1666.67,1195.51 1666.98,1195.88 1667.29,1196.25 1667.59,1196.62 1667.9,1196.99 1668.21,1197.36 
  1668.52,1197.73 1668.82,1198.1 1669.13,1198.47 1669.44,1198.83 1669.74,1199.2 1670.05,1199.56 1670.36,1199.93 1670.66,1200.29 1670.97,1200.65 1671.28,1201.02 
  1671.58,1201.38 1671.89,1201.74 1672.2,1202.1 1672.5,1202.46 1672.81,1202.82 1673.12,1203.18 1673.42,1203.54 1673.73,1203.9 1674.04,1204.25 1674.34,1204.61 
  1674.65,1204.97 1674.96,1205.32 1675.26,1205.68 1675.57,1206.03 1675.88,1206.38 1676.18,1206.74 1676.49,1207.09 1676.8,1207.44 1677.1,1207.79 1677.41,1208.14 
  1677.72,1208.49 1678.03,1208.84 1678.33,1209.19 1678.64,1209.54 1678.95,1209.88 1679.25,1210.23 1679.56,1210.57 1679.87,1210.92 1680.17,1211.26 1680.48,1211.61 
  1680.79,1211.95 1681.09,1212.29 1681.4,1212.63 1681.71,1212.98 1682.01,1213.32 1682.32,1213.66 1682.63,1214 1682.93,1214.33 1683.24,1214.67 1683.55,1215.01 
  1683.85,1215.35 1684.16,1215.68 1684.47,1216.02 1684.77,1216.35 1685.08,1216.69 1685.39,1217.02 1685.69,1217.35 1686,1217.68 1686.31,1218.01 1686.62,1218.35 
  1686.92,1218.68 1687.23,1219 1687.54,1219.33 1687.84,1219.66 1688.15,1219.99 1688.46,1220.32 1688.76,1220.64 1689.07,1220.97 1689.38,1221.29 1689.68,1221.62 
  1689.99,1221.94 1690.3,1222.26 1690.6,1222.58 1690.91,1222.91 1691.22,1223.23 1691.52,1223.55 1691.83,1223.87 1692.14,1224.19 1692.44,1224.5 1692.75,1224.82 
  1693.06,1225.14 1693.36,1225.45 1693.67,1225.77 1693.98,1226.08 1694.28,1226.4 1694.59,1226.71 1694.9,1227.03 1695.2,1227.34 1695.51,1227.65 1695.82,1227.96 
  1696.13,1228.27 1696.43,1228.58 1696.74,1228.89 1697.05,1229.2 1697.35,1229.5 1697.66,1229.81 1697.97,1230.12 1698.27,1230.42 1698.58,1230.73 1698.89,1231.03 
  1699.19,1231.34 1699.5,1231.64 1699.81,1231.94 1700.11,1232.24 1700.42,1232.54 1700.73,1232.84 1701.03,1233.14 1701.34,1233.44 1701.65,1233.74 1701.95,1234.04 
  1702.26,1234.34 1702.57,1234.63 1702.87,1234.93 1703.18,1235.22 1703.49,1235.52 1703.79,1235.81 1704.1,1236.11 1704.41,1236.4 1704.72,1236.69 1705.02,1236.98 
  1705.33,1237.27 1705.64,1237.56 1705.94,1237.85 1706.25,1238.14 1706.56,1238.43 1706.86,1238.71 1707.17,1239 1707.48,1239.29 1707.78,1239.57 1708.09,1239.86 
  1708.4,1240.14 1708.7,1240.42 1709.01,1240.71 1709.32,1240.99 1709.62,1241.27 1709.93,1241.55 1710.24,1241.83 1710.54,1242.11 1710.85,1242.39 1711.16,1242.67 
  1711.46,1242.95 1711.77,1243.22 1712.08,1243.5 1712.38,1243.77 1712.69,1244.05 1713,1244.32 1713.3,1244.6 1713.61,1244.87 1713.92,1245.14 1714.23,1245.41 
  1714.53,1245.68 1714.84,1245.96 1715.15,1246.23 1715.45,1246.49 1715.76,1246.76 1716.07,1247.03 1716.37,1247.3 1716.68,1247.56 1716.99,1247.83 1717.29,1248.1 
  1717.6,1248.36 1717.91,1248.62 1718.21,1248.89 1718.52,1249.15 1718.83,1249.41 1719.13,1249.67 1719.44,1249.93 1719.75,1250.2 1720.05,1250.45 1720.36,1250.71 
  1720.67,1250.97 1720.97,1251.23 1721.28,1251.49 1721.59,1251.74 1721.89,1252 1722.2,1252.25 1722.51,1252.51 1722.82,1252.76 1723.12,1253.02 1723.43,1253.27 
  1723.74,1253.52 1724.04,1253.77 1724.35,1254.02 1724.66,1254.27 1724.96,1254.52 1725.27,1254.77 1725.58,1255.02 1725.88,1255.27 1726.19,1255.51 1726.5,1255.76 
  1726.8,1256.01 1727.11,1256.25 1727.42,1256.5 1727.72,1256.74 1728.03,1256.98 1728.34,1257.23 1728.64,1257.47 1728.95,1257.71 1729.26,1257.95 1729.56,1258.19 
  1729.87,1258.43 1730.18,1258.67 1730.48,1258.91 1730.79,1259.15 1731.1,1259.38 1731.4,1259.62 1731.71,1259.86 1732.02,1260.09 1732.33,1260.33 1732.63,1260.56 
  1732.94,1260.8 1733.25,1261.03 1733.55,1261.26 1733.86,1261.49 1734.17,1261.72 1734.47,1261.96 1734.78,1262.19 1735.09,1262.42 1735.39,1262.64 1735.7,1262.87 
  1736.01,1263.1 1736.31,1263.33 1736.62,1263.55 1736.93,1263.78 1737.23,1264 1737.54,1264.23 1737.85,1264.45 1738.15,1264.68 1738.46,1264.9 1738.77,1265.12 
  1739.07,1265.34 1739.38,1265.57 1739.69,1265.79 1739.99,1266.01 1740.3,1266.23 1740.61,1266.45 1740.92,1266.66 1741.22,1266.88 1741.53,1267.1 1741.84,1267.32 
  1742.14,1267.53 1742.45,1267.75 1742.76,1267.96 1743.06,1268.18 1743.37,1268.39 1743.68,1268.6 1743.98,1268.82 1744.29,1269.03 1744.6,1269.24 1744.9,1269.45 
  1745.21,1269.66 1745.52,1269.87 1745.82,1270.08 1746.13,1270.29 1746.44,1270.5 1746.74,1270.7 1747.05,1270.91 1747.36,1271.12 1747.66,1271.32 1747.97,1271.53 
  1748.28,1271.73 1748.58,1271.94 1748.89,1272.14 1749.2,1272.34 1749.5,1272.55 1749.81,1272.75 1750.12,1272.95 1750.43,1273.15 1750.73,1273.35 1751.04,1273.55 
  1751.35,1273.75 1751.65,1273.95 1751.96,1274.15 1752.27,1274.34 1752.57,1274.54 1752.88,1274.74 1753.19,1274.93 1753.49,1275.13 1753.8,1275.32 1754.11,1275.52 
  1754.41,1275.71 1754.72,1275.9 1755.03,1276.1 1755.33,1276.29 1755.64,1276.48 1755.95,1276.67 1756.25,1276.86 1756.56,1277.05 1756.87,1277.24 1757.17,1277.43 
  1757.48,1277.62 1757.79,1277.81 1758.09,1278 1758.4,1278.18 1758.71,1278.37 1759.02,1278.55 1759.32,1278.74 1759.63,1278.92 1759.94,1279.11 1760.24,1279.29 
  1760.55,1279.48 1760.86,1279.66 1761.16,1279.84 1761.47,1280.02 1761.78,1280.2 1762.08,1280.38 1762.39,1280.56 1762.7,1280.74 1763,1280.92 1763.31,1281.1 
  1763.62,1281.28 1763.92,1281.46 1764.23,1281.64 1764.54,1281.81 1764.84,1281.99 1765.15,1282.16 1765.46,1282.34 1765.76,1282.51 1766.07,1282.69 1766.38,1282.86 
  1766.68,1283.03 1766.99,1283.21 1767.3,1283.38 1767.6,1283.55 1767.91,1283.72 1768.22,1283.89 1768.53,1284.06 1768.83,1284.23 1769.14,1284.4 1769.45,1284.57 
  1769.75,1284.74 1770.06,1284.91 1770.37,1285.07 1770.67,1285.24 1770.98,1285.41 1771.29,1285.57 1771.59,1285.74 1771.9,1285.9 1772.21,1286.07 1772.51,1286.23 
  1772.82,1286.39 1773.13,1286.56 1773.43,1286.72 1773.74,1286.88 1774.05,1287.04 1774.35,1287.2 1774.66,1287.36 1774.97,1287.52 1775.27,1287.68 1775.58,1287.84 
  1775.89,1288 1776.19,1288.16 1776.5,1288.32 1776.81,1288.47 1777.12,1288.63 1777.42,1288.79 1777.73,1288.94 1778.04,1289.1 1778.34,1289.25 1778.65,1289.41 
  1778.96,1289.56 1779.26,1289.72 1779.57,1289.87 1779.88,1290.02 1780.18,1290.17 1780.49,1290.33 1780.8,1290.48 1781.1,1290.63 1781.41,1290.78 1781.72,1290.93 
  1782.02,1291.08 1782.33,1291.23 1782.64,1291.38 1782.94,1291.52 1783.25,1291.67 1783.56,1291.82 1783.86,1291.97 1784.17,1292.11 1784.48,1292.26 1784.78,1292.4 
  1785.09,1292.55 1785.4,1292.69 1785.7,1292.84 1786.01,1292.98 1786.32,1293.13 1786.63,1293.27 1786.93,1293.41 1787.24,1293.55 1787.55,1293.7 1787.85,1293.84 
  1788.16,1293.98 1788.47,1294.12 1788.77,1294.26 1789.08,1294.4 1789.39,1294.54 1789.69,1294.68 1790,1294.81 1790.31,1294.95 1790.61,1295.09 1790.92,1295.23 
  1791.23,1295.36 1791.53,1295.5 1791.84,1295.64 1792.15,1295.77 1792.45,1295.91 1792.76,1296.04 1793.07,1296.17 1793.37,1296.31 1793.68,1296.44 1793.99,1296.57 
  1794.29,1296.71 1794.6,1296.84 1794.91,1296.97 1795.22,1297.1 1795.52,1297.23 1795.83,1297.36 1796.14,1297.49 1796.44,1297.62 1796.75,1297.75 1797.06,1297.88 
  1797.36,1298.01 1797.67,1298.14 1797.98,1298.27 1798.28,1298.39 1798.59,1298.52 1798.9,1298.65 1799.2,1298.77 1799.51,1298.9 1799.82,1299.02 1800.12,1299.15 
  1800.43,1299.27 1800.74,1299.4 1801.04,1299.52 1801.35,1299.64 1801.66,1299.77 1801.96,1299.89 1802.27,1300.01 1802.58,1300.13 1802.88,1300.26 1803.19,1300.38 
  1803.5,1300.5 1803.8,1300.62 1804.11,1300.74 1804.42,1300.86 1804.73,1300.98 1805.03,1301.1 1805.34,1301.22 1805.65,1301.33 1805.95,1301.45 1806.26,1301.57 
  1806.57,1301.69 1806.87,1301.8 1807.18,1301.92 1807.49,1302.03 1807.79,1302.15 1808.1,1302.27 1808.41,1302.38 1808.71,1302.5 1809.02,1302.61 1809.33,1302.72 
  1809.63,1302.84 1809.94,1302.95 1810.25,1303.06 1810.55,1303.17 1810.86,1303.29 1811.17,1303.4 1811.47,1303.51 1811.78,1303.62 1812.09,1303.73 1812.39,1303.84 
  1812.7,1303.95 1813.01,1304.06 1813.32,1304.17 1813.62,1304.28 1813.93,1304.39 1814.24,1304.5 1814.54,1304.6 1814.85,1304.71 1815.16,1304.82 1815.46,1304.93 
  1815.77,1305.03 1816.08,1305.14 1816.38,1305.24 1816.69,1305.35 1817,1305.45 1817.3,1305.56 1817.61,1305.66 1817.92,1305.77 1818.22,1305.87 1818.53,1305.97 
  1818.84,1306.08 1819.14,1306.18 1819.45,1306.28 1819.76,1306.39 1820.06,1306.49 1820.37,1306.59 1820.68,1306.69 1820.98,1306.79 1821.29,1306.89 1821.6,1306.99 
  1821.91,1307.09 1822.21,1307.19 1822.52,1307.29 1822.83,1307.39 1823.13,1307.49 1823.44,1307.59 1823.75,1307.68 1824.05,1307.78 1824.36,1307.88 1824.67,1307.98 
  1824.97,1308.07 1825.28,1308.17 1825.59,1308.26 1825.89,1308.36 1826.2,1308.46 1826.51,1308.55 1826.81,1308.65 1827.12,1308.74 1827.43,1308.83 1827.73,1308.93 
  1828.04,1309.02 1828.35,1309.12 1828.65,1309.21 1828.96,1309.3 1829.27,1309.39 1829.57,1309.49 1829.88,1309.58 1830.19,1309.67 1830.49,1309.76 1830.8,1309.85 
  1831.11,1309.94 1831.42,1310.03 1831.72,1310.12 1832.03,1310.21 1832.34,1310.3 1832.64,1310.39 1832.95,1310.48 1833.26,1310.57 1833.56,1310.66 1833.87,1310.74 
  1834.18,1310.83 1834.48,1310.92 1834.79,1311.01 1835.1,1311.09 1835.4,1311.18 1835.71,1311.27 1836.02,1311.35 1836.32,1311.44 1836.63,1311.52 1836.94,1311.61 
  1837.24,1311.69 1837.55,1311.78 1837.86,1311.86 1838.16,1311.94 1838.47,1312.03 1838.78,1312.11 1839.08,1312.2 1839.39,1312.28 1839.7,1312.36 1840.01,1312.44 
  1840.31,1312.53 1840.62,1312.61 1840.93,1312.69 1841.23,1312.77 1841.54,1312.85 1841.85,1312.93 1842.15,1313.01 1842.46,1313.09 1842.77,1313.17 1843.07,1313.25 
  1843.38,1313.33 1843.69,1313.41 1843.99,1313.49 1844.3,1313.57 1844.61,1313.65 1844.91,1313.72 1845.22,1313.8 1845.53,1313.88 1845.83,1313.96 1846.14,1314.03 
  1846.45,1314.11 1846.75,1314.19 1847.06,1314.26 1847.37,1314.34 1847.67,1314.42 1847.98,1314.49 1848.29,1314.57 1848.59,1314.64 1848.9,1314.72 1849.21,1314.79 
  1849.52,1314.86 1849.82,1314.94 1850.13,1315.01 1850.44,1315.09 1850.74,1315.16 1851.05,1315.23 1851.36,1315.3 1851.66,1315.38 1851.97,1315.45 1852.28,1315.52 
  1852.58,1315.59 1852.89,1315.67 1853.2,1315.74 1853.5,1315.81 1853.81,1315.88 1854.12,1315.95 1854.42,1316.02 1854.73,1316.09 1855.04,1316.16 1855.34,1316.23 
  1855.65,1316.3 1855.96,1316.37 1856.26,1316.44 1856.57,1316.51 1856.88,1316.57 1857.18,1316.64 1857.49,1316.71 1857.8,1316.78 1858.11,1316.85 1858.41,1316.91 
  1858.72,1316.98 1859.03,1317.05 1859.33,1317.11 1859.64,1317.18 1859.95,1317.25 1860.25,1317.31 1860.56,1317.38 1860.87,1317.44 1861.17,1317.51 1861.48,1317.57 
  1861.79,1317.64 1862.09,1317.7 1862.4,1317.77 1862.71,1317.83 1863.01,1317.9 1863.32,1317.96 1863.63,1318.02 1863.93,1318.09 1864.24,1318.15 1864.55,1318.21 
  1864.85,1318.27 1865.16,1318.34 1865.47,1318.4 1865.77,1318.46 1866.08,1318.52 1866.39,1318.59 1866.69,1318.65 1867,1318.71 1867.31,1318.77 1867.62,1318.83 
  1867.92,1318.89 1868.23,1318.95 1868.54,1319.01 1868.84,1319.07 1869.15,1319.13 1869.46,1319.19 1869.76,1319.25 1870.07,1319.31 1870.38,1319.37 1870.68,1319.43 
  1870.99,1319.48 1871.3,1319.54 1871.6,1319.6 1871.91,1319.66 1872.22,1319.72 1872.52,1319.77 1872.83,1319.83 1873.14,1319.89 1873.44,1319.95 1873.75,1320 
  1874.06,1320.06 1874.36,1320.11 1874.67,1320.17 1874.98,1320.23 1875.28,1320.28 1875.59,1320.34 1875.9,1320.39 1876.21,1320.45 1876.51,1320.5 1876.82,1320.56 
  1877.13,1320.61 1877.43,1320.67 1877.74,1320.72 1878.05,1320.78 1878.35,1320.83 1878.66,1320.88 1878.97,1320.94 1879.27,1320.99 1879.58,1321.04 1879.89,1321.1 
  1880.19,1321.15 1880.5,1321.2 1880.81,1321.25 1881.11,1321.31 1881.42,1321.36 1881.73,1321.41 1882.03,1321.46 1882.34,1321.51 1882.65,1321.56 1882.95,1321.62 
  1883.26,1321.67 1883.57,1321.72 1883.87,1321.77 1884.18,1321.82 1884.49,1321.87 1884.79,1321.92 1885.1,1321.97 1885.41,1322.02 1885.72,1322.07 1886.02,1322.12 
  1886.33,1322.17 1886.64,1322.21 1886.94,1322.26 1887.25,1322.31 1887.56,1322.36 1887.86,1322.41 1888.17,1322.46 1888.48,1322.51 1888.78,1322.55 1889.09,1322.6 
  1889.4,1322.65 1889.7,1322.7 1890.01,1322.74 1890.32,1322.79 1890.62,1322.84 1890.93,1322.88 1891.24,1322.93 1891.54,1322.98 1891.85,1323.02 1892.16,1323.07 
  1892.46,1323.11 1892.77,1323.16 1893.08,1323.2 1893.38,1323.25 1893.69,1323.3 1894,1323.34 1894.31,1323.39 1894.61,1323.43 1894.92,1323.47 1895.23,1323.52 
  1895.53,1323.56 1895.84,1323.61 1896.15,1323.65 1896.45,1323.69 1896.76,1323.74 1897.07,1323.78 1897.37,1323.83 1897.68,1323.87 1897.99,1323.91 1898.29,1323.95 
  1898.6,1324 1898.91,1324.04 1899.21,1324.08 1899.52,1324.12 1899.83,1324.17 1900.13,1324.21 1900.44,1324.25 1900.75,1324.29 1901.05,1324.33 1901.36,1324.37 
  1901.67,1324.42 1901.97,1324.46 1902.28,1324.5 1902.59,1324.54 1902.89,1324.58 1903.2,1324.62 1903.51,1324.66 1903.82,1324.7 1904.12,1324.74 1904.43,1324.78 
  1904.74,1324.82 1905.04,1324.86 1905.35,1324.9 1905.66,1324.94 1905.96,1324.98 1906.27,1325.02 1906.58,1325.06 1906.88,1325.09 1907.19,1325.13 1907.5,1325.17 
  1907.8,1325.21 1908.11,1325.25 1908.42,1325.29 1908.72,1325.32 1909.03,1325.36 1909.34,1325.4 1909.64,1325.44 1909.95,1325.47 1910.26,1325.51 1910.56,1325.55 
  1910.87,1325.59 1911.18,1325.62 1911.48,1325.66 1911.79,1325.7 1912.1,1325.73 1912.41,1325.77 1912.71,1325.81 1913.02,1325.84 1913.33,1325.88 1913.63,1325.91 
  1913.94,1325.95 1914.25,1325.98 1914.55,1326.02 1914.86,1326.06 1915.17,1326.09 1915.47,1326.13 1915.78,1326.16 1916.09,1326.2 1916.39,1326.23 1916.7,1326.26 
  1917.01,1326.3 1917.31,1326.33 1917.62,1326.37 1917.93,1326.4 1918.23,1326.44 1918.54,1326.47 1918.85,1326.5 1919.15,1326.54 1919.46,1326.57 1919.77,1326.6 
  1920.07,1326.64 1920.38,1326.67 1920.69,1326.7 1920.99,1326.74 1921.3,1326.77 1921.61,1326.8 1921.92,1326.83 1922.22,1326.87 1922.53,1326.9 1922.84,1326.93 
  1923.14,1326.96 1923.45,1326.99 1923.76,1327.03 1924.06,1327.06 1924.37,1327.09 1924.68,1327.12 1924.98,1327.15 1925.29,1327.18 1925.6,1327.21 1925.9,1327.25 
  1926.21,1327.28 1926.52,1327.31 1926.82,1327.34 1927.13,1327.37 1927.44,1327.4 1927.74,1327.43 1928.05,1327.46 1928.36,1327.49 1928.66,1327.52 1928.97,1327.55 
  1929.28,1327.58 1929.58,1327.61 1929.89,1327.64 1930.2,1327.67 1930.51,1327.7 1930.81,1327.73 1931.12,1327.76 1931.43,1327.78 1931.73,1327.81 1932.04,1327.84 
  1932.35,1327.87 1932.65,1327.9 1932.96,1327.93 1933.27,1327.96 1933.57,1327.98 1933.88,1328.01 1934.19,1328.04 1934.49,1328.07 1934.8,1328.1 1935.11,1328.12 
  1935.41,1328.15 1935.72,1328.18 1936.03,1328.21 1936.33,1328.23 1936.64,1328.26 1936.95,1328.29 1937.25,1328.32 1937.56,1328.34 1937.87,1328.37 1938.17,1328.4 
  1938.48,1328.42 1938.79,1328.45 1939.09,1328.48 1939.4,1328.5 1939.71,1328.53 1940.02,1328.56 1940.32,1328.58 1940.63,1328.61 1940.94,1328.63 1941.24,1328.66 
  1941.55,1328.68 1941.86,1328.71 1942.16,1328.74 1942.47,1328.76 1942.78,1328.79 1943.08,1328.81 1943.39,1328.84 1943.7,1328.86 1944,1328.89 1944.31,1328.91 
  1944.62,1328.94 1944.92,1328.96 1945.23,1328.99 1945.54,1329.01 1945.84,1329.03 1946.15,1329.06 1946.46,1329.08 1946.76,1329.11 1947.07,1329.13 1947.38,1329.16 
  1947.68,1329.18 1947.99,1329.2 1948.3,1329.23 1948.61,1329.25 1948.91,1329.27 1949.22,1329.3 1949.53,1329.32 1949.83,1329.34 1950.14,1329.37 1950.45,1329.39 
  1950.75,1329.41 1951.06,1329.44 1951.37,1329.46 1951.67,1329.48 1951.98,1329.5 1952.29,1329.53 1952.59,1329.55 1952.9,1329.57 1953.21,1329.59 1953.51,1329.62 
  1953.82,1329.64 1954.13,1329.66 1954.43,1329.68 1954.74,1329.71 1955.05,1329.73 1955.35,1329.75 1955.66,1329.77 1955.97,1329.79 1956.27,1329.81 1956.58,1329.83 
  1956.89,1329.86 1957.19,1329.88 1957.5,1329.9 1957.81,1329.92 1958.12,1329.94 1958.42,1329.96 1958.73,1329.98 1959.04,1330 1959.34,1330.02 1959.65,1330.05 
  1959.96,1330.07 1960.26,1330.09 1960.57,1330.11 1960.88,1330.13 1961.18,1330.15 1961.49,1330.17 1961.8,1330.19 1962.1,1330.21 1962.41,1330.23 1962.72,1330.25 
  1963.02,1330.27 1963.33,1330.29 1963.64,1330.31 1963.94,1330.33 1964.25,1330.35 1964.56,1330.37 1964.86,1330.38 1965.17,1330.4 1965.48,1330.42 1965.78,1330.44 
  1966.09,1330.46 1966.4,1330.48 1966.71,1330.5 1967.01,1330.52 1967.32,1330.54 1967.63,1330.56 1967.93,1330.57 1968.24,1330.59 1968.55,1330.61 1968.85,1330.63 
  1969.16,1330.65 1969.47,1330.67 1969.77,1330.69 1970.08,1330.7 1970.39,1330.72 1970.69,1330.74 1971,1330.76 1971.31,1330.78 1971.61,1330.79 1971.92,1330.81 
  1972.23,1330.83 1972.53,1330.85 1972.84,1330.86 1973.15,1330.88 1973.45,1330.9 1973.76,1330.92 1974.07,1330.93 1974.37,1330.95 1974.68,1330.97 1974.99,1330.99 
  1975.3,1331 1975.6,1331.02 1975.91,1331.04 1976.22,1331.05 1976.52,1331.07 1976.83,1331.09 1977.14,1331.1 1977.44,1331.12 1977.75,1331.14 1978.06,1331.15 
  1978.36,1331.17 1978.67,1331.19 1978.98,1331.2 1979.28,1331.22 1979.59,1331.23 1979.9,1331.25 1980.2,1331.27 1980.51,1331.28 1980.82,1331.3 1981.12,1331.31 
  1981.43,1331.33 1981.74,1331.35 1982.04,1331.36 1982.35,1331.38 1982.66,1331.39 1982.96,1331.41 1983.27,1331.42 1983.58,1331.44 1983.88,1331.45 1984.19,1331.47 
  1984.5,1331.48 1984.81,1331.5 1985.11,1331.52 1985.42,1331.53 1985.73,1331.55 1986.03,1331.56 1986.34,1331.57 1986.65,1331.59 1986.95,1331.6 1987.26,1331.62 
  1987.57,1331.63 1987.87,1331.65 1988.18,1331.66 1988.49,1331.68 1988.79,1331.69 1989.1,1331.71 1989.41,1331.72 1989.71,1331.73 1990.02,1331.75 1990.33,1331.76 
  1990.63,1331.78 1990.94,1331.79 1991.25,1331.81 1991.55,1331.82 1991.86,1331.83 1992.17,1331.85 1992.47,1331.86 1992.78,1331.87 1993.09,1331.89 1993.4,1331.9 
  1993.7,1331.92 1994.01,1331.93 1994.32,1331.94 1994.62,1331.96 1994.93,1331.97 1995.24,1331.98 1995.54,1332 1995.85,1332.01 1996.16,1332.02 1996.46,1332.04 
  1996.77,1332.05 1997.08,1332.06 1997.38,1332.07 1997.69,1332.09 1998,1332.1 1998.3,1332.11 1998.61,1332.13 1998.92,1332.14 1999.22,1332.15 1999.53,1332.16 
  1999.84,1332.18 2000.14,1332.19 2000.45,1332.2 2000.76,1332.21 2001.06,1332.23 2001.37,1332.24 2001.68,1332.25 2001.98,1332.26 2002.29,1332.28 2002.6,1332.29 
  2002.91,1332.3 2003.21,1332.31 2003.52,1332.32 2003.83,1332.34 2004.13,1332.35 2004.44,1332.36 2004.75,1332.37 2005.05,1332.38 2005.36,1332.39 2005.67,1332.41 
  2005.97,1332.42 2006.28,1332.43 2006.59,1332.44 2006.89,1332.45 2007.2,1332.46 2007.51,1332.48 2007.81,1332.49 2008.12,1332.5 2008.43,1332.51 2008.73,1332.52 
  2009.04,1332.53 2009.35,1332.54 2009.65,1332.55 2009.96,1332.57 2010.27,1332.58 2010.57,1332.59 2010.88,1332.6 2011.19,1332.61 2011.5,1332.62 2011.8,1332.63 
  2012.11,1332.64 2012.42,1332.65 2012.72,1332.66 2013.03,1332.67 2013.34,1332.68 2013.64,1332.7 2013.95,1332.71 2014.26,1332.72 2014.56,1332.73 2014.87,1332.74 
  2015.18,1332.75 2015.48,1332.76 2015.79,1332.77 2016.1,1332.78 2016.4,1332.79 2016.71,1332.8 2017.02,1332.81 2017.32,1332.82 2017.63,1332.83 2017.94,1332.84 
  2018.24,1332.85 2018.55,1332.86 2018.86,1332.87 2019.16,1332.88 2019.47,1332.89 2019.78,1332.9 2020.08,1332.91 2020.39,1332.92 2020.7,1332.93 2021.01,1332.94 
  2021.31,1332.95 2021.62,1332.96 2021.93,1332.97 2022.23,1332.98 2022.54,1332.98 2022.85,1332.99 2023.15,1333 2023.46,1333.01 2023.77,1333.02 2024.07,1333.03 
  2024.38,1333.04 2024.69,1333.05 2024.99,1333.06 2025.3,1333.07 2025.61,1333.08 2025.91,1333.09 2026.22,1333.1 2026.53,1333.1 2026.83,1333.11 2027.14,1333.12 
  2027.45,1333.13 2027.75,1333.14 2028.06,1333.15 2028.37,1333.16 2028.67,1333.17 2028.98,1333.18 2029.29,1333.18 2029.6,1333.19 2029.9,1333.2 2030.21,1333.21 
  2030.52,1333.22 2030.82,1333.23 2031.13,1333.24 2031.44,1333.24 2031.74,1333.25 2032.05,1333.26 2032.36,1333.27 2032.66,1333.28 2032.97,1333.29 2033.28,1333.29 
  2033.58,1333.3 2033.89,1333.31 2034.2,1333.32 2034.5,1333.33 2034.81,1333.33 2035.12,1333.34 2035.42,1333.35 2035.73,1333.36 2036.04,1333.37 2036.34,1333.37 
  2036.65,1333.38 2036.96,1333.39 2037.26,1333.4 2037.57,1333.41 2037.88,1333.41 2038.18,1333.42 2038.49,1333.43 2038.8,1333.44 2039.11,1333.44 2039.41,1333.45 
  2039.72,1333.46 2040.03,1333.47 2040.33,1333.47 2040.64,1333.48 2040.95,1333.49 2041.25,1333.5 2041.56,1333.5 2041.87,1333.51 2042.17,1333.52 2042.48,1333.53 
  2042.79,1333.53 2043.09,1333.54 2043.4,1333.55 2043.71,1333.56 2044.01,1333.56 2044.32,1333.57 2044.63,1333.58 2044.93,1333.58 2045.24,1333.59 2045.55,1333.6 
  2045.85,1333.61 2046.16,1333.61 2046.47,1333.62 2046.77,1333.63 2047.08,1333.63 2047.39,1333.64 2047.7,1333.65 2048,1333.65 2048.31,1333.66 2048.62,1333.67 
  2048.92,1333.67 2049.23,1333.68 2049.54,1333.69 2049.84,1333.69 2050.15,1333.7 2050.46,1333.71 2050.76,1333.71 2051.07,1333.72 2051.38,1333.73 2051.68,1333.73 
  2051.99,1333.74 2052.3,1333.75 2052.6,1333.75 2052.91,1333.76 2053.22,1333.77 2053.52,1333.77 2053.83,1333.78 2054.14,1333.78 2054.44,1333.79 2054.75,1333.8 
  2055.06,1333.8 2055.36,1333.81 2055.67,1333.82 2055.98,1333.82 2056.28,1333.83 2056.59,1333.83 2056.9,1333.84 2057.21,1333.85 2057.51,1333.85 2057.82,1333.86 
  2058.13,1333.86 2058.43,1333.87 2058.74,1333.88 2059.05,1333.88 2059.35,1333.89 2059.66,1333.89 2059.97,1333.9 2060.27,1333.91 2060.58,1333.91 2060.89,1333.92 
  2061.19,1333.92 2061.5,1333.93 2061.81,1333.93 2062.11,1333.94 2062.42,1333.95 2062.73,1333.95 2063.03,1333.96 2063.34,1333.96 2063.65,1333.97 2063.95,1333.97 
  2064.26,1333.98 2064.57,1333.99 2064.87,1333.99 2065.18,1334 2065.49,1334 2065.8,1334.01 2066.1,1334.01 2066.41,1334.02 2066.72,1334.02 2067.02,1334.03 
  2067.33,1334.03 2067.64,1334.04 2067.94,1334.04 2068.25,1334.05 2068.56,1334.06 2068.86,1334.06 2069.17,1334.07 2069.48,1334.07 2069.78,1334.08 2070.09,1334.08 
  2070.4,1334.09 2070.7,1334.09 2071.01,1334.1 2071.32,1334.1 2071.62,1334.11 2071.93,1334.11 2072.24,1334.12 2072.54,1334.12 2072.85,1334.13 2073.16,1334.13 
  2073.46,1334.14 2073.77,1334.14 2074.08,1334.15 2074.38,1334.15 2074.69,1334.16 2075,1334.16 2075.31,1334.17 2075.61,1334.17 2075.92,1334.18 2076.23,1334.18 
  2076.53,1334.18 2076.84,1334.19 2077.15,1334.19 2077.45,1334.2 2077.76,1334.2 2078.07,1334.21 2078.37,1334.21 2078.68,1334.22 2078.99,1334.22 2079.29,1334.23 
  2079.6,1334.23 2079.91,1334.24 2080.21,1334.24 2080.52,1334.24 2080.83,1334.25 2081.13,1334.25 2081.44,1334.26 2081.75,1334.26 2082.05,1334.27 2082.36,1334.27 
  2082.67,1334.28 2082.97,1334.28 2083.28,1334.28 2083.59,1334.29 2083.9,1334.29 2084.2,1334.3 2084.51,1334.3 2084.82,1334.31 2085.12,1334.31 2085.43,1334.31 
  2085.74,1334.32 2086.04,1334.32 2086.35,1334.33 2086.66,1334.33 2086.96,1334.33 2087.27,1334.34 2087.58,1334.34 2087.88,1334.35 2088.19,1334.35 2088.5,1334.35 
  2088.8,1334.36 2089.11,1334.36 2089.42,1334.37 2089.72,1334.37 2090.03,1334.37 2090.34,1334.38 2090.64,1334.38 2090.95,1334.39 2091.26,1334.39 2091.56,1334.39 
  2091.87,1334.4 2092.18,1334.4 2092.48,1334.41 2092.79,1334.41 2093.1,1334.41 2093.41,1334.42 2093.71,1334.42 2094.02,1334.43 2094.33,1334.43 2094.63,1334.43 
  2094.94,1334.44 2095.25,1334.44 2095.55,1334.44 2095.86,1334.45 2096.17,1334.45 2096.47,1334.45 2096.78,1334.46 2097.09,1334.46 2097.39,1334.47 2097.7,1334.47 
  2098.01,1334.47 2098.31,1334.48 2098.62,1334.48 2098.93,1334.48 2099.23,1334.49 2099.54,1334.49 2099.85,1334.49 2100.15,1334.5 2100.46,1334.5 2100.77,1334.5 
  2101.07,1334.51 2101.38,1334.51 2101.69,1334.51 2102,1334.52 2102.3,1334.52 2102.61,1334.52 2102.92,1334.53 2103.22,1334.53 2103.53,1334.53 2103.84,1334.54 
  2104.14,1334.54 2104.45,1334.54 2104.76,1334.55 2105.06,1334.55 2105.37,1334.55 2105.68,1334.56 2105.98,1334.56 2106.29,1334.56 2106.6,1334.57 2106.9,1334.57 
  2107.21,1334.57 2107.52,1334.58 2107.82,1334.58 2108.13,1334.58 2108.44,1334.59 2108.74,1334.59 2109.05,1334.59 2109.36,1334.6 2109.66,1334.6 2109.97,1334.6 
  2110.28,1334.6 2110.58,1334.61 2110.89,1334.61 2111.2,1334.61 2111.51,1334.62 2111.81,1334.62 2112.12,1334.62 2112.43,1334.63 2112.73,1334.63 2113.04,1334.63 
  2113.35,1334.63 2113.65,1334.64 2113.96,1334.64 2114.27,1334.64 2114.57,1334.65 2114.88,1334.65 2115.19,1334.65 2115.49,1334.65 2115.8,1334.66 2116.11,1334.66 
  2116.41,1334.66 2116.72,1334.67 2117.03,1334.67 2117.33,1334.67 2117.64,1334.67 2117.95,1334.68 2118.25,1334.68 2118.56,1334.68 2118.87,1334.68 2119.17,1334.69 
  2119.48,1334.69 2119.79,1334.69 2120.1,1334.7 2120.4,1334.7 2120.71,1334.7 2121.02,1334.7 2121.32,1334.71 2121.63,1334.71 2121.94,1334.71 2122.24,1334.71 
  2122.55,1334.72 2122.86,1334.72 2123.16,1334.72 2123.47,1334.72 2123.78,1334.73 2124.08,1334.73 2124.39,1334.73 2124.7,1334.73 2125,1334.74 2125.31,1334.74 
  2125.62,1334.74 2125.92,1334.74 2126.23,1334.75 2126.54,1334.75 2126.84,1334.75 2127.15,1334.75 2127.46,1334.76 2127.76,1334.76 2128.07,1334.76 2128.38,1334.76 
  2128.69,1334.77 2128.99,1334.77 2129.3,1334.77 2129.61,1334.77 2129.91,1334.78 2130.22,1334.78 2130.53,1334.78 2130.83,1334.78 2131.14,1334.78 2131.45,1334.79 
  2131.75,1334.79 2132.06,1334.79 2132.37,1334.79 2132.67,1334.8 2132.98,1334.8 2133.29,1334.8 2133.59,1334.8 2133.9,1334.81 2134.21,1334.81 2134.51,1334.81 
  2134.82,1334.81 2135.13,1334.81 2135.43,1334.82 2135.74,1334.82 2136.05,1334.82 2136.35,1334.82 2136.66,1334.82 2136.97,1334.83 2137.27,1334.83 2137.58,1334.83 
  2137.89,1334.83 2138.2,1334.84 2138.5,1334.84 2138.81,1334.84 2139.12,1334.84 2139.42,1334.84 2139.73,1334.85 2140.04,1334.85 2140.34,1334.85 2140.65,1334.85 
  2140.96,1334.85 2141.26,1334.86 2141.57,1334.86 2141.88,1334.86 2142.18,1334.86 2142.49,1334.86 2142.8,1334.87 2143.1,1334.87 2143.41,1334.87 2143.72,1334.87 
  2144.02,1334.87 2144.33,1334.88 2144.64,1334.88 2144.94,1334.88 2145.25,1334.88 2145.56,1334.88 2145.86,1334.89 2146.17,1334.89 2146.48,1334.89 2146.79,1334.89 
  2147.09,1334.89 2147.4,1334.89 2147.71,1334.9 2148.01,1334.9 2148.32,1334.9 2148.63,1334.9 2148.93,1334.9 2149.24,1334.91 2149.55,1334.91 2149.85,1334.91 
  2150.16,1334.91 2150.47,1334.91 2150.77,1334.91 2151.08,1334.92 2151.39,1334.92 2151.69,1334.92 2152,1334.92 2152.31,1334.92 2152.61,1334.93 2152.92,1334.93 
  2153.23,1334.93 2153.53,1334.93 2153.84,1334.93 2154.15,1334.93 2154.45,1334.94 2154.76,1334.94 2155.07,1334.94 2155.37,1334.94 2155.68,1334.94 2155.99,1334.94 
  2156.3,1334.95 2156.6,1334.95 2156.91,1334.95 2157.22,1334.95 2157.52,1334.95 2157.83,1334.95 2158.14,1334.96 2158.44,1334.96 2158.75,1334.96 2159.06,1334.96 
  2159.36,1334.96 2159.67,1334.96 2159.98,1334.96 2160.28,1334.97 2160.59,1334.97 2160.9,1334.97 2161.2,1334.97 2161.51,1334.97 2161.82,1334.97 2162.12,1334.98 
  2162.43,1334.98 2162.74,1334.98 2163.04,1334.98 2163.35,1334.98 2163.66,1334.98 2163.96,1334.98 2164.27,1334.99 2164.58,1334.99 2164.89,1334.99 2165.19,1334.99 
  2165.5,1334.99 2165.81,1334.99 2166.11,1334.99 2166.42,1335 2166.73,1335 2167.03,1335 2167.34,1335 2167.65,1335 2167.95,1335 2168.26,1335 
  2168.57,1335.01 2168.87,1335.01 2169.18,1335.01 2169.49,1335.01 2169.79,1335.01 2170.1,1335.01 2170.41,1335.01 2170.71,1335.02 2171.02,1335.02 2171.33,1335.02 
  2171.63,1335.02 2171.94,1335.02 2172.25,1335.02 2172.55,1335.02 2172.86,1335.03 2173.17,1335.03 2173.47,1335.03 2173.78,1335.03 2174.09,1335.03 2174.4,1335.03 
  2174.7,1335.03 2175.01,1335.03 2175.32,1335.04 2175.62,1335.04 2175.93,1335.04 2176.24,1335.04 2176.54,1335.04 2176.85,1335.04 2177.16,1335.04 2177.46,1335.04 
  2177.77,1335.05 2178.08,1335.05 2178.38,1335.05 2178.69,1335.05 2179,1335.05 2179.3,1335.05 2179.61,1335.05 2179.92,1335.05 2180.22,1335.06 2180.53,1335.06 
  2180.84,1335.06 2181.14,1335.06 2181.45,1335.06 2181.76,1335.06 2182.06,1335.06 2182.37,1335.06 2182.68,1335.06 2182.99,1335.07 2183.29,1335.07 2183.6,1335.07 
  2183.91,1335.07 2184.21,1335.07 2184.52,1335.07 2184.83,1335.07 2185.13,1335.07 2185.44,1335.07 2185.75,1335.08 2186.05,1335.08 2186.36,1335.08 2186.67,1335.08 
  2186.97,1335.08 2187.28,1335.08 2187.59,1335.08 2187.89,1335.08 2188.2,1335.08 2188.51,1335.09 2188.81,1335.09 2189.12,1335.09 2189.43,1335.09 2189.73,1335.09 
  2190.04,1335.09 2190.35,1335.09 2190.65,1335.09 2190.96,1335.09 2191.27,1335.1 2191.57,1335.1 2191.88,1335.1 2192.19,1335.1 2192.5,1335.1 2192.8,1335.1 
  2193.11,1335.1 2193.42,1335.1 2193.72,1335.1 2194.03,1335.1 2194.34,1335.11 2194.64,1335.11 2194.95,1335.11 2195.26,1335.11 2195.56,1335.11 2195.87,1335.11 
  2196.18,1335.11 2196.48,1335.11 2196.79,1335.11 2197.1,1335.11 2197.4,1335.12 2197.71,1335.12 2198.02,1335.12 2198.32,1335.12 2198.63,1335.12 2198.94,1335.12 
  2199.24,1335.12 2199.55,1335.12 2199.86,1335.12 2200.16,1335.12 2200.47,1335.12 2200.78,1335.13 2201.09,1335.13 2201.39,1335.13 2201.7,1335.13 2202.01,1335.13 
  2202.31,1335.13 2202.62,1335.13 2202.93,1335.13 2203.23,1335.13 2203.54,1335.13 2203.85,1335.13 2204.15,1335.13 2204.46,1335.14 2204.77,1335.14 2205.07,1335.14 
  2205.38,1335.14 2205.69,1335.14 2205.99,1335.14 2206.3,1335.14 2206.61,1335.14 2206.91,1335.14 2207.22,1335.14 2207.53,1335.14 2207.83,1335.15 2208.14,1335.15 
  2208.45,1335.15 2208.75,1335.15 2209.06,1335.15 2209.37,1335.15 2209.67,1335.15 2209.98,1335.15 2210.29,1335.15 2210.6,1335.15 2210.9,1335.15 2211.21,1335.15 
  2211.52,1335.15 2211.82,1335.16 2212.13,1335.16 2212.44,1335.16 2212.74,1335.16 2213.05,1335.16 2213.36,1335.16 2213.66,1335.16 2213.97,1335.16 2214.28,1335.16 
  2214.58,1335.16 2214.89,1335.16 2215.2,1335.16 2215.5,1335.16 2215.81,1335.17 2216.12,1335.17 2216.42,1335.17 2216.73,1335.17 2217.04,1335.17 2217.34,1335.17 
  2217.65,1335.17 2217.96,1335.17 2218.26,1335.17 2218.57,1335.17 2218.88,1335.17 2219.19,1335.17 2219.49,1335.17 2219.8,1335.17 2220.11,1335.18 2220.41,1335.18 
  2220.72,1335.18 2221.03,1335.18 2221.33,1335.18 2221.64,1335.18 2221.95,1335.18 2222.25,1335.18 2222.56,1335.18 2222.87,1335.18 2223.17,1335.18 2223.48,1335.18 
  2223.79,1335.18 2224.09,1335.18 2224.4,1335.18 2224.71,1335.19 2225.01,1335.19 2225.32,1335.19 2225.63,1335.19 2225.93,1335.19 2226.24,1335.19 2226.55,1335.19 
  2226.85,1335.19 2227.16,1335.19 2227.47,1335.19 2227.77,1335.19 2228.08,1335.19 2228.39,1335.19 2228.7,1335.19 2229,1335.19 2229.31,1335.19 2229.62,1335.2 
  2229.92,1335.2 2230.23,1335.2 2230.54,1335.2 2230.84,1335.2 2231.15,1335.2 2231.46,1335.2 2231.76,1335.2 2232.07,1335.2 2232.38,1335.2 2232.68,1335.2 
  2232.99,1335.2 2233.3,1335.2 2233.6,1335.2 2233.91,1335.2 2234.22,1335.2 2234.52,1335.21 2234.83,1335.21 2235.14,1335.21 2235.44,1335.21 2235.75,1335.21 
  2236.06,1335.21 2236.36,1335.21 2236.67,1335.21 2236.98,1335.21 2237.29,1335.21 2237.59,1335.21 2237.9,1335.21 2238.21,1335.21 2238.51,1335.21 2238.82,1335.21 
  2239.13,1335.21 2239.43,1335.21 2239.74,1335.21 2240.05,1335.21 2240.35,1335.22 2240.66,1335.22 2240.97,1335.22 2241.27,1335.22 2241.58,1335.22 2241.89,1335.22 
  2242.19,1335.22 2242.5,1335.22 2242.81,1335.22 2243.11,1335.22 2243.42,1335.22 2243.73,1335.22 2244.03,1335.22 2244.34,1335.22 2244.65,1335.22 2244.95,1335.22 
  2245.26,1335.22 2245.57,1335.22 2245.87,1335.22 2246.18,1335.23 2246.49,1335.23 2246.8,1335.23 2247.1,1335.23 2247.41,1335.23 2247.72,1335.23 2248.02,1335.23 
  2248.33,1335.23 2248.64,1335.23 2248.94,1335.23 2249.25,1335.23 2249.56,1335.23 2249.86,1335.23 2250.17,1335.23 2250.48,1335.23 2250.78,1335.23 2251.09,1335.23 
  2251.4,1335.23 2251.7,1335.23 2252.01,1335.23 2252.32,1335.23 2252.62,1335.23 2252.93,1335.24 2253.24,1335.24 2253.54,1335.24 2253.85,1335.24 2254.16,1335.24 
  2254.46,1335.24 2254.77,1335.24 2255.08,1335.24 2255.39,1335.24 2255.69,1335.24 2256,1335.24 2256.31,1335.24 2256.61,1335.24 2256.92,1335.24 2257.23,1335.24 
  2257.53,1335.24 2257.84,1335.24 2258.15,1335.24 2258.45,1335.24 2258.76,1335.24 2259.07,1335.24 2259.37,1335.24 2259.68,1335.24 2259.99,1335.25 2260.29,1335.25 
  2260.6,1335.25 2260.91,1335.25 2261.21,1335.25 2261.52,1335.25 2261.83,1335.25 2262.13,1335.25 2262.44,1335.25 2262.75,1335.25 2263.05,1335.25 2263.36,1335.25 
  2263.67,1335.25 2263.97,1335.25 2264.28,1335.25 2264.59,1335.25 2264.9,1335.25 2265.2,1335.25 2265.51,1335.25 2265.82,1335.25 2266.12,1335.25 2266.43,1335.25 
  2266.74,1335.25 2267.04,1335.25 2267.35,1335.25 2267.66,1335.25 2267.96,1335.26 2268.27,1335.26 2268.58,1335.26 2268.88,1335.26 2269.19,1335.26 2269.5,1335.26 
  2269.8,1335.26 2270.11,1335.26 2270.42,1335.26 2270.72,1335.26 2271.03,1335.26 2271.34,1335.26 2271.64,1335.26 2271.95,1335.26 2272.26,1335.26 2272.56,1335.26 
  2272.87,1335.26 2273.18,1335.26 2273.49,1335.26 2273.79,1335.26 2274.1,1335.26 2274.41,1335.26 2274.71,1335.26 2275.02,1335.26 2275.33,1335.26 2275.63,1335.26 
  2275.94,1335.26 2276.25,1335.26 2276.55,1335.26 2276.86,1335.26 2277.17,1335.27 2277.47,1335.27 2277.78,1335.27 2278.09,1335.27 2278.39,1335.27 2278.7,1335.27 
  2279.01,1335.27 2279.31,1335.27 2279.62,1335.27 2279.93,1335.27 2280.23,1335.27 2280.54,1335.27 2280.85,1335.27 2281.15,1335.27 2281.46,1335.27 2281.77,1335.27 
  2282.08,1335.27 2282.38,1335.27 2282.69,1335.27 2283,1335.27 2283.3,1335.27 2283.61,1335.27 2283.92,1335.27 2284.22,1335.27 2284.53,1335.27 2284.84,1335.27 
  2285.14,1335.27 2285.45,1335.27 2285.76,1335.27 2286.06,1335.27 2286.37,1335.27 2286.68,1335.27 2286.98,1335.27 2287.29,1335.27 2287.6,1335.28 2287.9,1335.28 
  2288.21,1335.28 2288.52,1335.28 2288.82,1335.28 2289.13,1335.28 2289.44,1335.28 2289.74,1335.28 2290.05,1335.28 2290.36,1335.28 2290.66,1335.28 2290.97,1335.28 
  2291.28,1335.28 2291.59,1335.28 2291.89,1335.28 2292.2,1335.28 2292.51,1335.28 2292.81,1335.28 2293.12,1335.28 2293.43,1335.28 2293.73,1335.28 2294.04,1335.28 
  2294.35,1335.28 2294.65,1335.28 2294.96,1335.28 2295.27,1335.28 2295.57,1335.28 2295.88,1335.28 2296.19,1335.28 2296.49,1335.28 2296.8,1335.28 2297.11,1335.28 
  2297.41,1335.28 2297.72,1335.28 2298.03,1335.28 2298.33,1335.28 2298.64,1335.28 2298.95,1335.28 2299.25,1335.28 2299.56,1335.29 2299.87,1335.29 2300.18,1335.29 
  2300.48,1335.29 2300.79,1335.29 2301.1,1335.29 2301.4,1335.29 2301.71,1335.29 2302.02,1335.29 2302.32,1335.29 2302.63,1335.29 2302.94,1335.29 2303.24,1335.29 
  2303.55,1335.29 2303.86,1335.29 2304.16,1335.29 2304.47,1335.29 2304.78,1335.29 2305.08,1335.29 2305.39,1335.29 2305.7,1335.29 2306,1335.29 2306.31,1335.29 
  2306.62,1335.29 2306.92,1335.29 2307.23,1335.29 2307.54,1335.29 2307.84,1335.29 2308.15,1335.29 2308.46,1335.29 2308.76,1335.29 2309.07,1335.29 2309.38,1335.29 
  2309.69,1335.29 2309.99,1335.29 2310.3,1335.29 2310.61,1335.29 2310.91,1335.29 2311.22,1335.29 2311.53,1335.29 2311.83,1335.29 2312.14,1335.29 2312.45,1335.29 
  2312.75,1335.29 2313.06,1335.29 2313.37,1335.29 2313.67,1335.29 2313.98,1335.3 2314.29,1335.3 2314.59,1335.3 2314.9,1335.3 2315.21,1335.3 2315.51,1335.3 
  2315.82,1335.3 2316.13,1335.3 2316.43,1335.3 2316.74,1335.3 2317.05,1335.3 2317.35,1335.3 2317.66,1335.3 2317.97,1335.3 2318.28,1335.3 2318.58,1335.3 
  2318.89,1335.3 2319.2,1335.3 2319.5,1335.3 2319.81,1335.3 2320.12,1335.3 2320.42,1335.3 2320.73,1335.3 2321.04,1335.3 2321.34,1335.3 2321.65,1335.3 
  2321.96,1335.3 2322.26,1335.3 2322.57,1335.3 2322.88,1335.3 2323.18,1335.3 2323.49,1335.3 2323.8,1335.3 2324.1,1335.3 2324.41,1335.3 2324.72,1335.3 
  2325.02,1335.3 
  "/>
</svg>
