<?xml version="1.0" encoding="utf-8"?>
<svg xmlns="http://www.w3.org/2000/svg" xmlns:xlink="http://www.w3.org/1999/xlink" width="600" height="400" viewBox="0 0 2400 1600">
<defs>
  <clipPath id="clip7900">
    <rect x="0" y="0" width="2400" height="1600"/>
  </clipPath>
</defs>
<path clip-path="url(#clip7900)" d="
M0 1600 L2400 1600 L2400 0 L0 0  Z
  " fill="#ffffff" fill-rule="evenodd" fill-opacity="1"/>
<defs>
  <clipPath id="clip7901">
    <rect x="480" y="0" width="1681" height="1600"/>
  </clipPath>
</defs>
<path clip-path="url(#clip7900)" d="
M252.662 1418.83 L2352.76 1418.83 L2352.76 47.2441 L252.662 47.2441  Z
  " fill="#ffffff" fill-rule="evenodd" fill-opacity="1"/>
<defs>
  <clipPath id="clip7902">
    <rect x="252" y="47" width="2101" height="1373"/>
  </clipPath>
</defs>
<polyline clip-path="url(#clip7902)" style="stroke:#000000; stroke-width:2; stroke-opacity:0.1; fill:none" points="
  252.662,1418.83 252.662,47.2441 
  "/>
<polyline clip-path="url(#clip7902)" style="stroke:#000000; stroke-width:2; stroke-opacity:0.1; fill:none" points="
  777.686,1418.83 777.686,47.2441 
  "/>
<polyline clip-path="url(#clip7902)" style="stroke:#000000; stroke-width:2; stroke-opacity:0.1; fill:none" points="
  1302.71,1418.83 1302.71,47.2441 
  "/>
<polyline clip-path="url(#clip7902)" style="stroke:#000000; stroke-width:2; stroke-opacity:0.1; fill:none" points="
  1827.73,1418.83 1827.73,47.2441 
  "/>
<polyline clip-path="url(#clip7902)" style="stroke:#000000; stroke-width:2; stroke-opacity:0.1; fill:none" points="
  2352.76,1418.83 2352.76,47.2441 
  "/>
<polyline clip-path="url(#clip7902)" style="stroke:#000000; stroke-width:2; stroke-opacity:0.1; fill:none" points="
  252.662,1380.01 2352.76,1380.01 
  "/>
<polyline clip-path="url(#clip7902)" style="stroke:#000000; stroke-width:2; stroke-opacity:0.1; fill:none" points="
  252.662,1056.2 2352.76,1056.2 
  "/>
<polyline clip-path="url(#clip7902)" style="stroke:#000000; stroke-width:2; stroke-opacity:0.1; fill:none" points="
  252.662,732.39 2352.76,732.39 
  "/>
<polyline clip-path="url(#clip7902)" style="stroke:#000000; stroke-width:2; stroke-opacity:0.1; fill:none" points="
  252.662,408.579 2352.76,408.579 
  "/>
<polyline clip-path="url(#clip7902)" style="stroke:#000000; stroke-width:2; stroke-opacity:0.1; fill:none" points="
  252.662,84.7673 2352.76,84.7673 
  "/>
<polyline clip-path="url(#clip7900)" style="stroke:#000000; stroke-width:4; stroke-opacity:1; fill:none" points="
  252.662,1418.83 2352.76,1418.83 
  "/>
<polyline clip-path="url(#clip7900)" style="stroke:#000000; stroke-width:4; stroke-opacity:1; fill:none" points="
  252.662,1418.83 252.662,47.2441 
  "/>
<polyline clip-path="url(#clip7900)" style="stroke:#000000; stroke-width:4; stroke-opacity:1; fill:none" points="
  252.662,1418.83 252.662,1402.37 
  "/>
<polyline clip-path="url(#clip7900)" style="stroke:#000000; stroke-width:4; stroke-opacity:1; fill:none" points="
  777.686,1418.83 777.686,1402.37 
  "/>
<polyline clip-path="url(#clip7900)" style="stroke:#000000; stroke-width:4; stroke-opacity:1; fill:none" points="
  1302.71,1418.83 1302.71,1402.37 
  "/>
<polyline clip-path="url(#clip7900)" style="stroke:#000000; stroke-width:4; stroke-opacity:1; fill:none" points="
  1827.73,1418.83 1827.73,1402.37 
  "/>
<polyline clip-path="url(#clip7900)" style="stroke:#000000; stroke-width:4; stroke-opacity:1; fill:none" points="
  2352.76,1418.83 2352.76,1402.37 
  "/>
<polyline clip-path="url(#clip7900)" style="stroke:#000000; stroke-width:4; stroke-opacity:1; fill:none" points="
  252.662,1380.01 277.864,1380.01 
  "/>
<polyline clip-path="url(#clip7900)" style="stroke:#000000; stroke-width:4; stroke-opacity:1; fill:none" points="
  252.662,1056.2 277.864,1056.2 
  "/>
<polyline clip-path="url(#clip7900)" style="stroke:#000000; stroke-width:4; stroke-opacity:1; fill:none" points="
  252.662,732.39 277.864,732.39 
  "/>
<polyline clip-path="url(#clip7900)" style="stroke:#000000; stroke-width:4; stroke-opacity:1; fill:none" points="
  252.662,408.579 277.864,408.579 
  "/>
<polyline clip-path="url(#clip7900)" style="stroke:#000000; stroke-width:4; stroke-opacity:1; fill:none" points="
  252.662,84.7673 277.864,84.7673 
  "/>
<g clip-path="url(#clip7900)">
<text style="fill:#000000; fill-opacity:1; font-family:Book Antiqua,Palatino,Palatino Linotype,Palatino LT STD,Georgia,serif; font-size:50px; text-anchor:middle;" transform="rotate(0, 252.662, 1472.83)" x="252.662" y="1472.83">0</text>
</g>
<g clip-path="url(#clip7900)">
<text style="fill:#000000; fill-opacity:1; font-family:Book Antiqua,Palatino,Palatino Linotype,Palatino LT STD,Georgia,serif; font-size:50px; text-anchor:middle;" transform="rotate(0, 777.686, 1472.83)" x="777.686" y="1472.83">10</text>
</g>
<g clip-path="url(#clip7900)">
<text style="fill:#000000; fill-opacity:1; font-family:Book Antiqua,Palatino,Palatino Linotype,Palatino LT STD,Georgia,serif; font-size:50px; text-anchor:middle;" transform="rotate(0, 1302.71, 1472.83)" x="1302.71" y="1472.83">20</text>
</g>
<g clip-path="url(#clip7900)">
<text style="fill:#000000; fill-opacity:1; font-family:Book Antiqua,Palatino,Palatino Linotype,Palatino LT STD,Georgia,serif; font-size:50px; text-anchor:middle;" transform="rotate(0, 1827.73, 1472.83)" x="1827.73" y="1472.83">30</text>
</g>
<g clip-path="url(#clip7900)">
<text style="fill:#000000; fill-opacity:1; font-family:Book Antiqua,Palatino,Palatino Linotype,Palatino LT STD,Georgia,serif; font-size:50px; text-anchor:middle;" transform="rotate(0, 2352.76, 1472.83)" x="2352.76" y="1472.83">40</text>
</g>
<g clip-path="url(#clip7900)">
<text style="fill:#000000; fill-opacity:1; font-family:Book Antiqua,Palatino,Palatino Linotype,Palatino LT STD,Georgia,serif; font-size:50px; text-anchor:end;" transform="rotate(0, 228.662, 1397.51)" x="228.662" y="1397.51">0</text>
</g>
<g clip-path="url(#clip7900)">
<text style="fill:#000000; fill-opacity:1; font-family:Book Antiqua,Palatino,Palatino Linotype,Palatino LT STD,Georgia,serif; font-size:50px; text-anchor:end;" transform="rotate(0, 228.662, 1073.7)" x="228.662" y="1073.7">250</text>
</g>
<g clip-path="url(#clip7900)">
<text style="fill:#000000; fill-opacity:1; font-family:Book Antiqua,Palatino,Palatino Linotype,Palatino LT STD,Georgia,serif; font-size:50px; text-anchor:end;" transform="rotate(0, 228.662, 749.89)" x="228.662" y="749.89">500</text>
</g>
<g clip-path="url(#clip7900)">
<text style="fill:#000000; fill-opacity:1; font-family:Book Antiqua,Palatino,Palatino Linotype,Palatino LT STD,Georgia,serif; font-size:50px; text-anchor:end;" transform="rotate(0, 228.662, 426.079)" x="228.662" y="426.079">750</text>
</g>
<g clip-path="url(#clip7900)">
<text style="fill:#000000; fill-opacity:1; font-family:Book Antiqua,Palatino,Palatino Linotype,Palatino LT STD,Georgia,serif; font-size:50px; text-anchor:end;" transform="rotate(0, 228.662, 102.267)" x="228.662" y="102.267">1000</text>
</g>
<g clip-path="url(#clip7900)">
<text style="fill:#000000; fill-opacity:1; font-family:Book Antiqua,Palatino,Palatino Linotype,Palatino LT STD,Georgia,serif; font-size:69px; text-anchor:middle;" transform="rotate(0, 1302.71, 1562.87)" x="1302.71" y="1562.87">t</text>
</g>
<g clip-path="url(#clip7900)">
<text style="fill:#000000; fill-opacity:1; font-family:Book Antiqua,Palatino,Palatino Linotype,Palatino LT STD,Georgia,serif; font-size:69px; text-anchor:middle;" transform="rotate(-90, 87.3212, 733.037)" x="87.3212" y="733.037">Count</text>
</g>
<polyline clip-path="url(#clip7902)" style="stroke:#009af9; stroke-width:4; stroke-opacity:1; fill:none" points="
  252.662,86.0626 254.765,86.1411 256.867,86.2211 258.969,86.3028 261.071,86.3861 263.173,86.4711 265.276,86.5578 267.378,86.6463 269.48,86.7365 271.582,86.8285 
  273.684,86.9224 275.787,87.0181 277.889,87.1158 279.991,87.2154 282.093,87.317 284.195,87.4207 286.298,87.5264 288.4,87.6343 290.502,87.7443 292.604,87.8565 
  294.706,87.9709 296.809,88.0876 298.911,88.2067 301.013,88.3281 303.115,88.452 305.217,88.5783 307.32,88.7072 309.422,88.8386 311.524,88.9726 313.626,89.1093 
  315.728,89.2487 317.831,89.391 319.933,89.536 322.035,89.6839 324.137,89.8347 326.239,89.9886 328.342,90.1455 330.444,90.3055 332.546,90.4687 334.648,90.6351 
  336.75,90.8048 338.852,90.9779 340.955,91.1544 343.057,91.3344 345.159,91.518 347.261,91.7052 349.363,91.8961 351.466,92.0907 353.568,92.2892 355.67,92.4916 
  357.772,92.6979 359.874,92.9084 361.977,93.123 364.079,93.3418 366.181,93.5649 368.283,93.7923 370.385,94.0243 372.488,94.2608 374.59,94.5019 376.692,94.7477 
  378.794,94.9984 380.896,95.2539 382.999,95.5144 385.101,95.78 387.203,96.0508 389.305,96.3268 391.407,96.6083 393.51,96.8952 395.612,97.1876 397.714,97.4857 
  399.816,97.7897 401.918,98.0995 404.021,98.4152 406.123,98.7371 408.225,99.0652 410.327,99.3997 412.429,99.7405 414.532,100.088 416.634,100.442 418.736,100.803 
  420.838,101.171 422.94,101.546 425.043,101.928 427.145,102.317 429.247,102.714 431.349,103.118 433.451,103.53 435.553,103.95 437.656,104.378 439.758,104.814 
  441.86,105.258 443.962,105.711 446.064,106.172 448.167,106.641 450.269,107.12 452.371,107.608 454.473,108.104 456.575,108.61 458.678,109.126 460.78,109.651 
  462.882,110.186 464.984,110.731 467.086,111.286 469.189,111.851 471.291,112.427 473.393,113.013 475.495,113.61 477.597,114.218 479.7,114.837 481.802,115.468 
  483.904,116.11 486.006,116.764 488.108,117.429 490.211,118.107 492.313,118.797 494.415,119.499 496.517,120.214 498.619,120.942 500.722,121.683 502.824,122.437 
  504.926,123.205 507.028,123.986 509.13,124.781 511.233,125.59 513.335,126.414 515.437,127.252 517.539,128.104 519.641,128.972 521.744,129.854 523.846,130.752 
  525.948,131.666 528.05,132.595 530.152,133.541 532.254,134.502 534.357,135.48 536.459,136.475 538.561,137.486 540.663,138.515 542.765,139.56 544.868,140.624 
  546.97,141.705 549.072,142.804 551.174,143.921 553.276,145.057 555.379,146.211 557.481,147.385 559.583,148.577 561.685,149.789 563.787,151.02 565.89,152.271 
  567.992,153.542 570.094,154.833 572.196,156.144 574.298,157.476 576.401,158.829 578.503,160.203 580.605,161.599 582.707,163.016 584.809,164.455 586.912,165.915 
  589.014,167.398 591.116,168.904 593.218,170.432 595.32,171.982 597.423,173.556 599.525,175.153 601.627,176.773 603.729,178.417 605.831,180.085 607.934,181.776 
  610.036,183.491 612.138,185.231 614.24,186.994 616.342,188.783 618.445,190.596 620.547,192.433 622.649,194.296 624.751,196.183 626.853,198.096 628.955,200.034 
  631.058,201.997 633.16,203.986 635.262,206 637.364,208.04 639.466,210.105 641.569,212.197 643.671,214.314 645.773,216.458 647.875,218.627 649.977,220.823 
  652.08,223.045 654.182,225.292 656.284,227.566 658.386,229.866 660.488,232.193 662.591,234.545 664.693,236.923 666.795,239.328 668.897,241.758 670.999,244.214 
  673.102,246.696 675.204,249.204 677.306,251.737 679.408,254.296 681.51,256.881 683.613,259.49 685.715,262.125 687.817,264.785 689.919,267.469 692.021,270.178 
  694.124,272.911 696.226,275.669 698.328,278.45 700.43,281.255 702.532,284.084 704.635,286.936 706.737,289.81 708.839,292.708 710.941,295.628 713.043,298.57 
  715.146,301.533 717.248,304.518 719.35,307.525 721.452,310.551 723.554,313.599 725.656,316.666 727.759,319.753 729.861,322.859 731.963,325.984 734.065,329.127 
  736.167,332.289 738.27,335.468 740.372,338.664 742.474,341.876 744.576,345.105 746.678,348.349 748.781,351.61 750.883,354.885 752.985,358.175 755.087,361.479 
  757.189,364.795 759.292,368.124 761.394,371.466 763.496,374.818 765.598,378.181 767.7,381.555 769.803,384.938 771.905,388.329 774.007,391.73 776.109,395.138 
  778.211,398.553 780.314,401.974 782.416,405.402 784.518,408.835 786.62,412.272 788.722,415.714 790.825,419.16 792.927,422.608 795.029,426.059 797.131,429.512 
  799.233,432.966 801.336,436.421 803.438,439.876 805.54,443.331 807.642,446.784 809.744,450.237 811.847,453.686 813.949,457.134 816.051,460.578 818.153,464.018 
  820.255,467.454 822.357,470.885 824.46,474.31 826.562,477.73 828.664,481.142 830.766,484.548 832.868,487.946 834.971,491.336 837.073,494.717 839.175,498.089 
  841.277,501.45 843.379,504.802 845.482,508.142 847.584,511.471 849.686,514.788 851.788,518.093 853.89,521.384 855.993,524.662 858.095,527.926 860.197,531.175 
  862.299,534.41 864.401,537.63 866.504,540.834 868.606,544.023 870.708,547.195 872.81,550.351 874.912,553.489 877.015,556.611 879.117,559.715 881.219,562.801 
  883.321,565.869 885.423,568.919 887.526,571.95 889.628,574.962 891.73,577.954 893.832,580.927 895.934,583.881 898.037,586.814 900.139,589.727 902.241,592.619 
  904.343,595.491 906.445,598.342 908.548,601.172 910.65,603.981 912.752,606.768 914.854,609.534 916.956,612.278 919.058,615 921.161,617.7 923.263,620.378 
  925.365,623.034 927.467,625.668 929.569,628.279 931.672,630.867 933.774,633.433 935.876,635.977 937.978,638.497 940.08,640.995 942.183,643.47 944.285,645.922 
  946.387,648.352 948.489,650.759 950.591,653.142 952.694,655.503 954.796,657.841 956.898,660.157 959,662.45 961.102,664.72 963.205,666.967 965.307,669.192 
  967.409,671.394 969.511,673.574 971.613,675.731 973.716,677.865 975.818,679.977 977.92,682.066 980.022,684.132 982.124,686.177 984.227,688.199 986.329,690.2 
  988.431,692.179 990.533,694.136 992.635,696.071 994.738,697.986 996.84,699.879 998.942,701.75 1001.04,703.601 1003.15,705.431 1005.25,707.24 1007.35,709.029 
  1009.45,710.797 1011.56,712.545 1013.66,714.273 1015.76,715.98 1017.86,717.668 1019.96,719.336 1022.07,720.985 1024.17,722.614 1026.27,724.223 1028.37,725.814 
  1030.47,727.385 1032.58,728.938 1034.68,730.472 1036.78,731.987 1038.88,733.484 1040.99,734.962 1043.09,736.423 1045.19,737.865 1047.29,739.289 1049.39,740.696 
  1051.5,742.085 1053.6,743.457 1055.7,744.812 1057.8,746.149 1059.91,747.47 1062.01,748.774 1064.11,750.061 1066.21,751.332 1068.31,752.586 1070.42,753.824 
  1072.52,755.046 1074.62,756.253 1076.72,757.443 1078.83,758.619 1080.93,759.778 1083.03,760.923 1085.13,762.052 1087.23,763.167 1089.34,764.267 1091.44,765.352 
  1093.54,766.423 1095.64,767.48 1097.75,768.522 1099.85,769.551 1101.95,770.566 1104.05,771.567 1106.15,772.555 1108.26,773.53 1110.36,774.492 1112.46,775.44 
  1114.56,776.376 1116.66,777.3 1118.77,778.211 1120.87,779.109 1122.97,779.996 1125.07,780.87 1127.18,781.732 1129.28,782.583 1131.38,783.422 1133.48,784.25 
  1135.58,785.066 1137.69,785.871 1139.79,786.665 1141.89,787.448 1143.99,788.22 1146.1,788.982 1148.2,789.733 1150.3,790.474 1152.4,791.204 1154.5,791.925 
  1156.61,792.635 1158.71,793.335 1160.81,794.026 1162.91,794.707 1165.02,795.378 1167.12,796.04 1169.22,796.693 1171.32,797.337 1173.42,797.971 1175.53,798.597 
  1177.63,799.214 1179.73,799.822 1181.83,800.422 1183.94,801.013 1186.04,801.596 1188.14,802.17 1190.24,802.737 1192.34,803.295 1194.45,803.845 1196.55,804.388 
  1198.65,804.923 1200.75,805.451 1202.85,805.971 1204.96,806.483 1207.06,806.988 1209.16,807.486 1211.26,807.977 1213.37,808.461 1215.47,808.939 1217.57,809.409 
  1219.67,809.872 1221.77,810.329 1223.88,810.78 1225.98,811.224 1228.08,811.663 1230.18,812.095 1232.29,812.52 1234.39,812.94 1236.49,813.354 1238.59,813.762 
  1240.69,814.164 1242.8,814.561 1244.9,814.952 1247,815.337 1249.1,815.717 1251.21,816.091 1253.31,816.46 1255.41,816.823 1257.51,817.181 1259.61,817.534 
  1261.72,817.882 1263.82,818.225 1265.92,818.563 1268.02,818.895 1270.13,819.223 1272.23,819.546 1274.33,819.865 1276.43,820.178 1278.53,820.487 1280.64,820.792 
  1282.74,821.092 1284.84,821.387 1286.94,821.678 1289.04,821.965 1291.15,822.248 1293.25,822.526 1295.35,822.8 1297.45,823.07 1299.56,823.336 1301.66,823.598 
  1303.76,823.856 1305.86,824.11 1307.96,824.361 1310.07,824.608 1312.17,824.851 1314.27,825.09 1316.37,825.326 1318.48,825.558 1320.58,825.787 1322.68,826.012 
  1324.78,826.234 1326.88,826.453 1328.99,826.668 1331.09,826.88 1333.19,827.089 1335.29,827.295 1337.4,827.498 1339.5,827.698 1341.6,827.895 1343.7,828.089 
  1345.8,828.28 1347.91,828.469 1350.01,828.654 1352.11,828.837 1354.21,829.017 1356.32,829.195 1358.42,829.37 1360.52,829.542 1362.62,829.712 1364.72,829.88 
  1366.83,830.045 1368.93,830.208 1371.03,830.369 1373.13,830.527 1375.23,830.683 1377.34,830.837 1379.44,830.989 1381.54,831.139 1383.64,831.286 1385.75,831.432 
  1387.85,831.575 1389.95,831.716 1392.05,831.855 1394.15,831.993 1396.26,832.128 1398.36,832.261 1400.46,832.392 1402.56,832.521 1404.67,832.648 1406.77,832.774 
  1408.87,832.897 1410.97,833.019 1413.07,833.139 1415.18,833.257 1417.28,833.373 1419.38,833.488 1421.48,833.601 1423.59,833.712 1425.69,833.822 1427.79,833.93 
  1429.89,834.036 1431.99,834.141 1434.1,834.244 1436.2,834.346 1438.3,834.446 1440.4,834.544 1442.51,834.642 1444.61,834.737 1446.71,834.832 1448.81,834.925 
  1450.91,835.016 1453.02,835.106 1455.12,835.195 1457.22,835.283 1459.32,835.369 1461.42,835.454 1463.53,835.538 1465.63,835.62 1467.73,835.701 1469.83,835.781 
  1471.94,835.86 1474.04,835.938 1476.14,836.015 1478.24,836.09 1480.34,836.164 1482.45,836.237 1484.55,836.31 1486.65,836.381 1488.75,836.451 1490.86,836.52 
  1492.96,836.588 1495.06,836.655 1497.16,836.721 1499.26,836.786 1501.37,836.85 1503.47,836.913 1505.57,836.975 1507.67,837.036 1509.78,837.097 1511.88,837.156 
  1513.98,837.215 1516.08,837.272 1518.18,837.329 1520.29,837.385 1522.39,837.44 1524.49,837.495 1526.59,837.548 1528.7,837.601 1530.8,837.653 1532.9,837.704 
  1535,837.755 1537.1,837.804 1539.21,837.853 1541.31,837.901 1543.41,837.949 1545.51,837.995 1547.61,838.041 1549.72,838.087 1551.82,838.131 1553.92,838.175 
  1556.02,838.219 1558.13,838.261 1560.23,838.303 1562.33,838.345 1564.43,838.385 1566.53,838.426 1568.64,838.465 1570.74,838.504 1572.84,838.542 1574.94,838.58 
  1577.05,838.617 1579.15,838.654 1581.25,838.69 1583.35,838.726 1585.45,838.761 1587.56,838.795 1589.66,838.829 1591.76,838.863 1593.86,838.896 1595.97,838.928 
  1598.07,838.96 1600.17,838.992 1602.27,839.023 1604.37,839.053 1606.48,839.084 1608.58,839.113 1610.68,839.143 1612.78,839.172 1614.89,839.2 1616.99,839.228 
  1619.09,839.256 1621.19,839.283 1623.29,839.31 1625.4,839.336 1627.5,839.362 1629.6,839.388 1631.7,839.413 1633.8,839.438 1635.91,839.463 1638.01,839.487 
  1640.11,839.511 1642.21,839.534 1644.32,839.557 1646.42,839.58 1648.52,839.602 1650.62,839.624 1652.72,839.646 1654.83,839.668 1656.93,839.689 1659.03,839.709 
  1661.13,839.73 1663.24,839.75 1665.34,839.77 1667.44,839.79 1669.54,839.809 1671.64,839.828 1673.75,839.847 1675.85,839.865 1677.95,839.883 1680.05,839.901 
  1682.16,839.919 1684.26,839.936 1686.36,839.953 1688.46,839.97 1690.56,839.986 1692.67,840.003 1694.77,840.019 1696.87,840.035 1698.97,840.05 1701.08,840.066 
  1703.18,840.081 1705.28,840.096 1707.38,840.11 1709.48,840.125 1711.59,840.139 1713.69,840.153 1715.79,840.167 1717.89,840.18 1720,840.194 1722.1,840.207 
  1724.2,840.22 1726.3,840.233 1728.4,840.246 1730.51,840.258 1732.61,840.27 1734.71,840.282 1736.81,840.294 1738.91,840.306 1741.02,840.318 1743.12,840.329 
  1745.22,840.34 1747.32,840.351 1749.43,840.362 1751.53,840.373 1753.63,840.384 1755.73,840.394 1757.83,840.404 1759.94,840.414 1762.04,840.424 1764.14,840.434 
  1766.24,840.444 1768.35,840.453 1770.45,840.463 1772.55,840.472 1774.65,840.481 1776.75,840.49 1778.86,840.499 1780.96,840.508 1783.06,840.516 1785.16,840.525 
  1787.27,840.533 1789.37,840.541 1791.47,840.549 1793.57,840.557 1795.67,840.565 1797.78,840.573 1799.88,840.58 1801.98,840.588 1804.08,840.595 1806.19,840.602 
  1808.29,840.609 1810.39,840.616 1812.49,840.623 1814.59,840.63 1816.7,840.637 1818.8,840.643 1820.9,840.65 1823,840.656 1825.1,840.663 1827.21,840.669 
  1829.31,840.675 1831.41,840.681 1833.51,840.687 1835.62,840.693 1837.72,840.699 1839.82,840.704 1841.92,840.71 1844.02,840.716 1846.13,840.721 1848.23,840.726 
  1850.33,840.732 1852.43,840.737 1854.54,840.742 1856.64,840.747 1858.74,840.752 1860.84,840.757 1862.94,840.762 1865.05,840.767 1867.15,840.771 1869.25,840.776 
  1871.35,840.78 1873.46,840.785 1875.56,840.789 1877.66,840.794 1879.76,840.798 1881.86,840.802 1883.97,840.806 1886.07,840.81 1888.17,840.814 1890.27,840.818 
  1892.38,840.822 1894.48,840.826 1896.58,840.83 1898.68,840.834 1900.78,840.837 1902.89,840.841 1904.99,840.845 1907.09,840.848 1909.19,840.852 1911.29,840.855 
  1913.4,840.858 1915.5,840.862 1917.6,840.865 1919.7,840.868 1921.81,840.871 1923.91,840.875 1926.01,840.878 1928.11,840.881 1930.21,840.884 1932.32,840.887 
  1934.42,840.89 1936.52,840.892 1938.62,840.895 1940.73,840.898 1942.83,840.901 1944.93,840.903 1947.03,840.906 1949.13,840.909 1951.24,840.911 1953.34,840.914 
  1955.44,840.916 1957.54,840.919 1959.65,840.921 1961.75,840.923 1963.85,840.926 1965.95,840.928 1968.05,840.93 1970.16,840.933 1972.26,840.935 1974.36,840.937 
  1976.46,840.939 1978.57,840.941 1980.67,840.943 1982.77,840.945 1984.87,840.947 1986.97,840.949 1989.08,840.951 1991.18,840.953 1993.28,840.955 1995.38,840.957 
  1997.48,840.959 1999.59,840.961 2001.69,840.963 2003.79,840.964 2005.89,840.966 2008,840.968 2010.1,840.969 2012.2,840.971 2014.3,840.973 2016.4,840.974 
  2018.51,840.976 2020.61,840.977 2022.71,840.979 2024.81,840.981 2026.92,840.982 2029.02,840.984 2031.12,840.985 2033.22,840.986 2035.32,840.988 2037.43,840.989 
  2039.53,840.991 2041.63,840.992 2043.73,840.993 2045.84,840.995 2047.94,840.996 2050.04,840.997 2052.14,840.998 2054.24,841 2056.35,841.001 2058.45,841.002 
  2060.55,841.003 2062.65,841.004 2064.76,841.005 2066.86,841.007 2068.96,841.008 2071.06,841.009 2073.16,841.01 2075.27,841.011 2077.37,841.012 2079.47,841.013 
  2081.57,841.014 2083.67,841.015 2085.78,841.016 2087.88,841.017 2089.98,841.018 2092.08,841.019 2094.19,841.02 2096.29,841.021 2098.39,841.022 2100.49,841.022 
  2102.59,841.023 2104.7,841.024 2106.8,841.025 2108.9,841.026 2111,841.027 2113.11,841.027 2115.21,841.028 2117.31,841.029 2119.41,841.03 2121.51,841.031 
  2123.62,841.031 2125.72,841.032 2127.82,841.033 2129.92,841.033 2132.03,841.034 2134.13,841.035 2136.23,841.036 2138.33,841.036 2140.43,841.037 2142.54,841.038 
  2144.64,841.038 2146.74,841.039 2148.84,841.039 2150.95,841.04 2153.05,841.041 2155.15,841.041 2157.25,841.042 2159.35,841.042 2161.46,841.043 2163.56,841.044 
  2165.66,841.044 2167.76,841.045 2169.86,841.045 2171.97,841.046 2174.07,841.046 2176.17,841.047 2178.27,841.047 2180.38,841.048 2182.48,841.048 2184.58,841.049 
  2186.68,841.049 2188.78,841.05 2190.89,841.05 2192.99,841.051 2195.09,841.051 2197.19,841.051 2199.3,841.052 2201.4,841.052 2203.5,841.053 2205.6,841.053 
  2207.7,841.054 2209.81,841.054 2211.91,841.054 2214.01,841.055 2216.11,841.055 2218.22,841.056 2220.32,841.056 2222.42,841.056 2224.52,841.057 2226.62,841.057 
  2228.73,841.057 2230.83,841.058 2232.93,841.058 2235.03,841.058 2237.14,841.059 2239.24,841.059 2241.34,841.059 2243.44,841.06 2245.54,841.06 2247.65,841.06 
  2249.75,841.061 2251.85,841.061 2253.95,841.061 2256.05,841.062 2258.16,841.062 2260.26,841.062 2262.36,841.062 2264.46,841.063 2266.57,841.063 2268.67,841.063 
  2270.77,841.063 2272.87,841.064 2274.97,841.064 2277.08,841.064 2279.18,841.064 2281.28,841.065 2283.38,841.065 2285.49,841.065 2287.59,841.065 2289.69,841.066 
  2291.79,841.066 2293.89,841.066 2296,841.066 2298.1,841.066 2300.2,841.067 2302.3,841.067 2304.41,841.067 2306.51,841.067 2308.61,841.068 2310.71,841.068 
  2312.81,841.068 2314.92,841.068 2317.02,841.068 2319.12,841.068 2321.22,841.069 2323.33,841.069 2325.43,841.069 2327.53,841.069 2329.63,841.069 2331.73,841.07 
  2333.84,841.07 2335.94,841.07 2338.04,841.07 2340.14,841.07 2342.24,841.07 2344.35,841.07 2346.45,841.071 2348.55,841.071 2350.65,841.071 2352.76,841.071 
  
  "/>
<polyline clip-path="url(#clip7902)" style="stroke:#e26f46; stroke-width:4; stroke-opacity:1; fill:none" points="
  252.662,1378.72 254.765,1378.69 256.867,1378.66 258.969,1378.64 261.071,1378.61 263.173,1378.58 265.276,1378.55 267.378,1378.52 269.48,1378.49 271.582,1378.46 
  273.684,1378.43 275.787,1378.4 277.889,1378.37 279.991,1378.33 282.093,1378.3 284.195,1378.27 286.298,1378.23 288.4,1378.19 290.502,1378.16 292.604,1378.12 
  294.706,1378.08 296.809,1378.04 298.911,1378 301.013,1377.96 303.115,1377.92 305.217,1377.88 307.32,1377.84 309.422,1377.8 311.524,1377.75 313.626,1377.71 
  315.728,1377.66 317.831,1377.61 319.933,1377.56 322.035,1377.52 324.137,1377.47 326.239,1377.41 328.342,1377.36 330.444,1377.31 332.546,1377.26 334.648,1377.2 
  336.75,1377.15 338.852,1377.09 340.955,1377.03 343.057,1376.97 345.159,1376.91 347.261,1376.85 349.363,1376.79 351.466,1376.72 353.568,1376.66 355.67,1376.59 
  357.772,1376.52 359.874,1376.45 361.977,1376.38 364.079,1376.31 366.181,1376.24 368.283,1376.16 370.385,1376.08 372.488,1376.01 374.59,1375.93 376.692,1375.85 
  378.794,1375.77 380.896,1375.68 382.999,1375.6 385.101,1375.51 387.203,1375.42 389.305,1375.33 391.407,1375.24 393.51,1375.14 395.612,1375.05 397.714,1374.95 
  399.816,1374.85 401.918,1374.75 404.021,1374.65 406.123,1374.54 408.225,1374.44 410.327,1374.33 412.429,1374.22 414.532,1374.1 416.634,1373.99 418.736,1373.87 
  420.838,1373.75 422.94,1373.63 425.043,1373.5 427.145,1373.38 429.247,1373.25 431.349,1373.12 433.451,1372.99 435.553,1372.85 437.656,1372.71 439.758,1372.57 
  441.86,1372.43 443.962,1372.28 446.064,1372.13 448.167,1371.98 450.269,1371.83 452.371,1371.67 454.473,1371.51 456.575,1371.35 458.678,1371.18 460.78,1371.02 
  462.882,1370.84 464.984,1370.67 467.086,1370.49 469.189,1370.31 471.291,1370.13 473.393,1369.94 475.495,1369.75 477.597,1369.56 479.7,1369.36 481.802,1369.16 
  483.904,1368.96 486.006,1368.75 488.108,1368.54 490.211,1368.33 492.313,1368.11 494.415,1367.89 496.517,1367.66 498.619,1367.43 500.722,1367.2 502.824,1366.96 
  504.926,1366.72 507.028,1366.48 509.13,1366.23 511.233,1365.98 513.335,1365.72 515.437,1365.46 517.539,1365.2 519.641,1364.93 521.744,1364.65 523.846,1364.38 
  525.948,1364.1 528.05,1363.81 530.152,1363.52 532.254,1363.22 534.357,1362.92 536.459,1362.62 538.561,1362.31 540.663,1362 542.765,1361.68 544.868,1361.36 
  546.97,1361.03 549.072,1360.7 551.174,1360.36 553.276,1360.02 555.379,1359.67 557.481,1359.32 559.583,1358.96 561.685,1358.6 563.787,1358.23 565.89,1357.86 
  567.992,1357.49 570.094,1357.1 572.196,1356.72 574.298,1356.33 576.401,1355.93 578.503,1355.53 580.605,1355.12 582.707,1354.71 584.809,1354.29 586.912,1353.87 
  589.014,1353.44 591.116,1353.01 593.218,1352.57 595.32,1352.13 597.423,1351.68 599.525,1351.23 601.627,1350.77 603.729,1350.3 605.831,1349.84 607.934,1349.36 
  610.036,1348.88 612.138,1348.4 614.24,1347.91 616.342,1347.42 618.445,1346.92 620.547,1346.42 622.649,1345.91 624.751,1345.4 626.853,1344.88 628.955,1344.36 
  631.058,1343.84 633.16,1343.31 635.262,1342.77 637.364,1342.24 639.466,1341.69 641.569,1341.15 643.671,1340.6 645.773,1340.04 647.875,1339.48 649.977,1338.92 
  652.08,1338.36 654.182,1337.79 656.284,1337.22 658.386,1336.64 660.488,1336.06 662.591,1335.48 664.693,1334.9 666.795,1334.31 668.897,1333.72 670.999,1333.13 
  673.102,1332.54 675.204,1331.94 677.306,1331.35 679.408,1330.75 681.51,1330.15 683.613,1329.55 685.715,1328.95 687.817,1328.34 689.919,1327.74 692.021,1327.14 
  694.124,1326.53 696.226,1325.93 698.328,1325.33 700.43,1324.72 702.532,1324.12 704.635,1323.52 706.737,1322.92 708.839,1322.32 710.941,1321.72 713.043,1321.13 
  715.146,1320.53 717.248,1319.94 719.35,1319.35 721.452,1318.76 723.554,1318.18 725.656,1317.6 727.759,1317.02 729.861,1316.45 731.963,1315.88 734.065,1315.32 
  736.167,1314.76 738.27,1314.2 740.372,1313.65 742.474,1313.11 744.576,1312.57 746.678,1312.04 748.781,1311.51 750.883,1310.99 752.985,1310.47 755.087,1309.96 
  757.189,1309.46 759.292,1308.97 761.394,1308.49 763.496,1308.01 765.598,1307.54 767.7,1307.08 769.803,1306.62 771.905,1306.18 774.007,1305.75 776.109,1305.32 
  778.211,1304.9 780.314,1304.5 782.416,1304.1 784.518,1303.72 786.62,1303.34 788.722,1302.98 790.825,1302.62 792.927,1302.28 795.029,1301.94 797.131,1301.62 
  799.233,1301.31 801.336,1301.01 803.438,1300.73 805.54,1300.45 807.642,1300.19 809.744,1299.93 811.847,1299.69 813.949,1299.47 816.051,1299.25 818.153,1299.05 
  820.255,1298.86 822.357,1298.68 824.46,1298.51 826.562,1298.36 828.664,1298.22 830.766,1298.09 832.868,1297.97 834.971,1297.87 837.073,1297.78 839.175,1297.7 
  841.277,1297.64 843.379,1297.59 845.482,1297.55 847.584,1297.52 849.686,1297.51 851.788,1297.51 853.89,1297.52 855.993,1297.55 858.095,1297.58 860.197,1297.63 
  862.299,1297.7 864.401,1297.77 866.504,1297.86 868.606,1297.96 870.708,1298.07 872.81,1298.19 874.912,1298.33 877.015,1298.47 879.117,1298.63 881.219,1298.8 
  883.321,1298.98 885.423,1299.17 887.526,1299.37 889.628,1299.59 891.73,1299.81 893.832,1300.04 895.934,1300.29 898.037,1300.54 900.139,1300.8 902.241,1301.08 
  904.343,1301.36 906.445,1301.65 908.548,1301.95 910.65,1302.26 912.752,1302.58 914.854,1302.91 916.956,1303.24 919.058,1303.59 921.161,1303.94 923.263,1304.3 
  925.365,1304.67 927.467,1305.05 929.569,1305.43 931.672,1305.82 933.774,1306.22 935.876,1306.62 937.978,1307.03 940.08,1307.45 942.183,1307.87 944.285,1308.3 
  946.387,1308.73 948.489,1309.17 950.591,1309.61 952.694,1310.06 954.796,1310.52 956.898,1310.98 959,1311.44 961.102,1311.9 963.205,1312.38 965.307,1312.85 
  967.409,1313.33 969.511,1313.81 971.613,1314.29 973.716,1314.78 975.818,1315.27 977.92,1315.76 980.022,1316.25 982.124,1316.75 984.227,1317.25 986.329,1317.75 
  988.431,1318.25 990.533,1318.75 992.635,1319.26 994.738,1319.76 996.84,1320.27 998.942,1320.78 1001.04,1321.29 1003.15,1321.8 1005.25,1322.31 1007.35,1322.82 
  1009.45,1323.33 1011.56,1323.84 1013.66,1324.35 1015.76,1324.86 1017.86,1325.37 1019.96,1325.88 1022.07,1326.39 1024.17,1326.9 1026.27,1327.4 1028.37,1327.91 
  1030.47,1328.42 1032.58,1328.92 1034.68,1329.42 1036.78,1329.92 1038.88,1330.42 1040.99,1330.92 1043.09,1331.42 1045.19,1331.91 1047.29,1332.41 1049.39,1332.9 
  1051.5,1333.39 1053.6,1333.87 1055.7,1334.36 1057.8,1334.84 1059.91,1335.32 1062.01,1335.8 1064.11,1336.27 1066.21,1336.75 1068.31,1337.22 1070.42,1337.68 
  1072.52,1338.15 1074.62,1338.61 1076.72,1339.07 1078.83,1339.52 1080.93,1339.98 1083.03,1340.43 1085.13,1340.87 1087.23,1341.32 1089.34,1341.76 1091.44,1342.2 
  1093.54,1342.63 1095.64,1343.06 1097.75,1343.49 1099.85,1343.92 1101.95,1344.34 1104.05,1344.76 1106.15,1345.17 1108.26,1345.58 1110.36,1345.99 1112.46,1346.4 
  1114.56,1346.8 1116.66,1347.2 1118.77,1347.59 1120.87,1347.99 1122.97,1348.37 1125.07,1348.76 1127.18,1349.14 1129.28,1349.52 1131.38,1349.89 1133.48,1350.26 
  1135.58,1350.63 1137.69,1350.99 1139.79,1351.36 1141.89,1351.71 1143.99,1352.07 1146.1,1352.42 1148.2,1352.76 1150.3,1353.11 1152.4,1353.45 1154.5,1353.78 
  1156.61,1354.12 1158.71,1354.45 1160.81,1354.77 1162.91,1355.1 1165.02,1355.42 1167.12,1355.73 1169.22,1356.05 1171.32,1356.36 1173.42,1356.66 1175.53,1356.97 
  1177.63,1357.27 1179.73,1357.56 1181.83,1357.86 1183.94,1358.15 1186.04,1358.43 1188.14,1358.72 1190.24,1359 1192.34,1359.28 1194.45,1359.55 1196.55,1359.82 
  1198.65,1360.09 1200.75,1360.35 1202.85,1360.61 1204.96,1360.87 1207.06,1361.13 1209.16,1361.38 1211.26,1361.63 1213.37,1361.88 1215.47,1362.12 1217.57,1362.36 
  1219.67,1362.6 1221.77,1362.84 1223.88,1363.07 1225.98,1363.3 1228.08,1363.53 1230.18,1363.75 1232.29,1363.97 1234.39,1364.19 1236.49,1364.41 1238.59,1364.62 
  1240.69,1364.83 1242.8,1365.04 1244.9,1365.25 1247,1365.45 1249.1,1365.65 1251.21,1365.85 1253.31,1366.05 1255.41,1366.24 1257.51,1366.43 1259.61,1366.62 
  1261.72,1366.81 1263.82,1366.99 1265.92,1367.18 1268.02,1367.36 1270.13,1367.53 1272.23,1367.71 1274.33,1367.88 1276.43,1368.05 1278.53,1368.22 1280.64,1368.38 
  1282.74,1368.55 1284.84,1368.71 1286.94,1368.87 1289.04,1369.03 1291.15,1369.18 1293.25,1369.33 1295.35,1369.48 1297.45,1369.63 1299.56,1369.78 1301.66,1369.92 
  1303.76,1370.07 1305.86,1370.21 1307.96,1370.35 1310.07,1370.48 1312.17,1370.62 1314.27,1370.75 1316.37,1370.88 1318.48,1371.01 1320.58,1371.14 1322.68,1371.27 
  1324.78,1371.39 1326.88,1371.51 1328.99,1371.64 1331.09,1371.75 1333.19,1371.87 1335.29,1371.99 1337.4,1372.1 1339.5,1372.21 1341.6,1372.33 1343.7,1372.44 
  1345.8,1372.54 1347.91,1372.65 1350.01,1372.75 1352.11,1372.86 1354.21,1372.96 1356.32,1373.06 1358.42,1373.16 1360.52,1373.26 1362.62,1373.36 1364.72,1373.45 
  1366.83,1373.54 1368.93,1373.64 1371.03,1373.73 1373.13,1373.82 1375.23,1373.91 1377.34,1374 1379.44,1374.08 1381.54,1374.17 1383.64,1374.25 1385.75,1374.34 
  1387.85,1374.42 1389.95,1374.5 1392.05,1374.58 1394.15,1374.66 1396.26,1374.74 1398.36,1374.81 1400.46,1374.89 1402.56,1374.96 1404.67,1375.04 1406.77,1375.11 
  1408.87,1375.18 1410.97,1375.25 1413.07,1375.32 1415.18,1375.39 1417.28,1375.46 1419.38,1375.52 1421.48,1375.59 1423.59,1375.65 1425.69,1375.72 1427.79,1375.78 
  1429.89,1375.84 1431.99,1375.9 1434.1,1375.96 1436.2,1376.02 1438.3,1376.08 1440.4,1376.14 1442.51,1376.2 1444.61,1376.25 1446.71,1376.31 1448.81,1376.36 
  1450.91,1376.41 1453.02,1376.47 1455.12,1376.52 1457.22,1376.57 1459.32,1376.62 1461.42,1376.67 1463.53,1376.72 1465.63,1376.77 1467.73,1376.82 1469.83,1376.86 
  1471.94,1376.91 1474.04,1376.95 1476.14,1377 1478.24,1377.04 1480.34,1377.09 1482.45,1377.13 1484.55,1377.17 1486.65,1377.21 1488.75,1377.26 1490.86,1377.3 
  1492.96,1377.34 1495.06,1377.38 1497.16,1377.41 1499.26,1377.45 1501.37,1377.49 1503.47,1377.53 1505.57,1377.56 1507.67,1377.6 1509.78,1377.64 1511.88,1377.67 
  1513.98,1377.71 1516.08,1377.74 1518.18,1377.77 1520.29,1377.81 1522.39,1377.84 1524.49,1377.87 1526.59,1377.9 1528.7,1377.93 1530.8,1377.97 1532.9,1378 
  1535,1378.03 1537.1,1378.05 1539.21,1378.08 1541.31,1378.11 1543.41,1378.14 1545.51,1378.17 1547.61,1378.2 1549.72,1378.22 1551.82,1378.25 1553.92,1378.27 
  1556.02,1378.3 1558.13,1378.33 1560.23,1378.35 1562.33,1378.38 1564.43,1378.4 1566.53,1378.42 1568.64,1378.45 1570.74,1378.47 1572.84,1378.49 1574.94,1378.52 
  1577.05,1378.54 1579.15,1378.56 1581.25,1378.58 1583.35,1378.6 1585.45,1378.62 1587.56,1378.64 1589.66,1378.66 1591.76,1378.68 1593.86,1378.7 1595.97,1378.72 
  1598.07,1378.74 1600.17,1378.76 1602.27,1378.78 1604.37,1378.8 1606.48,1378.82 1608.58,1378.83 1610.68,1378.85 1612.78,1378.87 1614.89,1378.88 1616.99,1378.9 
  1619.09,1378.92 1621.19,1378.93 1623.29,1378.95 1625.4,1378.97 1627.5,1378.98 1629.6,1379 1631.7,1379.01 1633.8,1379.03 1635.91,1379.04 1638.01,1379.06 
  1640.11,1379.07 1642.21,1379.08 1644.32,1379.1 1646.42,1379.11 1648.52,1379.13 1650.62,1379.14 1652.72,1379.15 1654.83,1379.16 1656.93,1379.18 1659.03,1379.19 
  1661.13,1379.2 1663.24,1379.21 1665.34,1379.23 1667.44,1379.24 1669.54,1379.25 1671.64,1379.26 1673.75,1379.27 1675.85,1379.28 1677.95,1379.29 1680.05,1379.3 
  1682.16,1379.31 1684.26,1379.32 1686.36,1379.33 1688.46,1379.35 1690.56,1379.35 1692.67,1379.36 1694.77,1379.37 1696.87,1379.38 1698.97,1379.39 1701.08,1379.4 
  1703.18,1379.41 1705.28,1379.42 1707.38,1379.43 1709.48,1379.44 1711.59,1379.45 1713.69,1379.45 1715.79,1379.46 1717.89,1379.47 1720,1379.48 1722.1,1379.49 
  1724.2,1379.5 1726.3,1379.5 1728.4,1379.51 1730.51,1379.52 1732.61,1379.53 1734.71,1379.53 1736.81,1379.54 1738.91,1379.55 1741.02,1379.55 1743.12,1379.56 
  1745.22,1379.57 1747.32,1379.57 1749.43,1379.58 1751.53,1379.59 1753.63,1379.59 1755.73,1379.6 1757.83,1379.61 1759.94,1379.61 1762.04,1379.62 1764.14,1379.62 
  1766.24,1379.63 1768.35,1379.64 1770.45,1379.64 1772.55,1379.65 1774.65,1379.65 1776.75,1379.66 1778.86,1379.66 1780.96,1379.67 1783.06,1379.67 1785.16,1379.68 
  1787.27,1379.68 1789.37,1379.69 1791.47,1379.69 1793.57,1379.7 1795.67,1379.7 1797.78,1379.71 1799.88,1379.71 1801.98,1379.72 1804.08,1379.72 1806.19,1379.72 
  1808.29,1379.73 1810.39,1379.73 1812.49,1379.74 1814.59,1379.74 1816.7,1379.75 1818.8,1379.75 1820.9,1379.75 1823,1379.76 1825.1,1379.76 1827.21,1379.76 
  1829.31,1379.77 1831.41,1379.77 1833.51,1379.78 1835.62,1379.78 1837.72,1379.78 1839.82,1379.79 1841.92,1379.79 1844.02,1379.79 1846.13,1379.8 1848.23,1379.8 
  1850.33,1379.8 1852.43,1379.81 1854.54,1379.81 1856.64,1379.81 1858.74,1379.81 1860.84,1379.82 1862.94,1379.82 1865.05,1379.82 1867.15,1379.83 1869.25,1379.83 
  1871.35,1379.83 1873.46,1379.83 1875.56,1379.84 1877.66,1379.84 1879.76,1379.84 1881.86,1379.84 1883.97,1379.85 1886.07,1379.85 1888.17,1379.85 1890.27,1379.85 
  1892.38,1379.86 1894.48,1379.86 1896.58,1379.86 1898.68,1379.86 1900.78,1379.87 1902.89,1379.87 1904.99,1379.87 1907.09,1379.87 1909.19,1379.87 1911.29,1379.88 
  1913.4,1379.88 1915.5,1379.88 1917.6,1379.88 1919.7,1379.88 1921.81,1379.89 1923.91,1379.89 1926.01,1379.89 1928.11,1379.89 1930.21,1379.89 1932.32,1379.9 
  1934.42,1379.9 1936.52,1379.9 1938.62,1379.9 1940.73,1379.9 1942.83,1379.9 1944.93,1379.91 1947.03,1379.91 1949.13,1379.91 1951.24,1379.91 1953.34,1379.91 
  1955.44,1379.91 1957.54,1379.91 1959.65,1379.92 1961.75,1379.92 1963.85,1379.92 1965.95,1379.92 1968.05,1379.92 1970.16,1379.92 1972.26,1379.92 1974.36,1379.93 
  1976.46,1379.93 1978.57,1379.93 1980.67,1379.93 1982.77,1379.93 1984.87,1379.93 1986.97,1379.93 1989.08,1379.93 1991.18,1379.94 1993.28,1379.94 1995.38,1379.94 
  1997.48,1379.94 1999.59,1379.94 2001.69,1379.94 2003.79,1379.94 2005.89,1379.94 2008,1379.94 2010.1,1379.95 2012.2,1379.95 2014.3,1379.95 2016.4,1379.95 
  2018.51,1379.95 2020.61,1379.95 2022.71,1379.95 2024.81,1379.95 2026.92,1379.95 2029.02,1379.95 2031.12,1379.95 2033.22,1379.96 2035.32,1379.96 2037.43,1379.96 
  2039.53,1379.96 2041.63,1379.96 2043.73,1379.96 2045.84,1379.96 2047.94,1379.96 2050.04,1379.96 2052.14,1379.96 2054.24,1379.96 2056.35,1379.96 2058.45,1379.96 
  2060.55,1379.97 2062.65,1379.97 2064.76,1379.97 2066.86,1379.97 2068.96,1379.97 2071.06,1379.97 2073.16,1379.97 2075.27,1379.97 2077.37,1379.97 2079.47,1379.97 
  2081.57,1379.97 2083.67,1379.97 2085.78,1379.97 2087.88,1379.97 2089.98,1379.97 2092.08,1379.97 2094.19,1379.98 2096.29,1379.98 2098.39,1379.98 2100.49,1379.98 
  2102.59,1379.98 2104.7,1379.98 2106.8,1379.98 2108.9,1379.98 2111,1379.98 2113.11,1379.98 2115.21,1379.98 2117.31,1379.98 2119.41,1379.98 2121.51,1379.98 
  2123.62,1379.98 2125.72,1379.98 2127.82,1379.98 2129.92,1379.98 2132.03,1379.98 2134.13,1379.98 2136.23,1379.99 2138.33,1379.99 2140.43,1379.99 2142.54,1379.99 
  2144.64,1379.99 2146.74,1379.99 2148.84,1379.99 2150.95,1379.99 2153.05,1379.99 2155.15,1379.99 2157.25,1379.99 2159.35,1379.99 2161.46,1379.99 2163.56,1379.99 
  2165.66,1379.99 2167.76,1379.99 2169.86,1379.99 2171.97,1379.99 2174.07,1379.99 2176.17,1379.99 2178.27,1379.99 2180.38,1379.99 2182.48,1379.99 2184.58,1379.99 
  2186.68,1379.99 2188.78,1379.99 2190.89,1379.99 2192.99,1379.99 2195.09,1379.99 2197.19,1379.99 2199.3,1379.99 2201.4,1380 2203.5,1380 2205.6,1380 
  2207.7,1380 2209.81,1380 2211.91,1380 2214.01,1380 2216.11,1380 2218.22,1380 2220.32,1380 2222.42,1380 2224.52,1380 2226.62,1380 
  2228.73,1380 2230.83,1380 2232.93,1380 2235.03,1380 2237.14,1380 2239.24,1380 2241.34,1380 2243.44,1380 2245.54,1380 2247.65,1380 
  2249.75,1380 2251.85,1380 2253.95,1380 2256.05,1380 2258.16,1380 2260.26,1380 2262.36,1380 2264.46,1380 2266.57,1380 2268.67,1380 
  2270.77,1380 2272.87,1380 2274.97,1380 2277.08,1380 2279.18,1380 2281.28,1380 2283.38,1380 2285.49,1380 2287.59,1380 2289.69,1380 
  2291.79,1380 2293.89,1380 2296,1380 2298.1,1380 2300.2,1380 2302.3,1380 2304.41,1380 2306.51,1380 2308.61,1380 2310.71,1380 
  2312.81,1380 2314.92,1380 2317.02,1380 2319.12,1380 2321.22,1380 2323.33,1380.01 2325.43,1380.01 2327.53,1380.01 2329.63,1380.01 2331.73,1380.01 
  2333.84,1380.01 2335.94,1380.01 2338.04,1380.01 2340.14,1380.01 2342.24,1380.01 2344.35,1380.01 2346.45,1380.01 2348.55,1380.01 2350.65,1380.01 2352.76,1380.01 
  
  "/>
<polyline clip-path="url(#clip7902)" style="stroke:#3da44d; stroke-width:4; stroke-opacity:1; fill:none" points="
  252.662,1380.01 254.765,1379.96 256.867,1379.91 258.969,1379.85 261.071,1379.8 263.173,1379.74 265.276,1379.68 267.378,1379.62 269.48,1379.56 271.582,1379.5 
  273.684,1379.44 275.787,1379.37 277.889,1379.31 279.991,1379.24 282.093,1379.17 284.195,1379.11 286.298,1379.03 288.4,1378.96 290.502,1378.89 292.604,1378.81 
  294.706,1378.74 296.809,1378.66 298.911,1378.58 301.013,1378.5 303.115,1378.42 305.217,1378.33 307.32,1378.25 309.422,1378.16 311.524,1378.07 313.626,1377.98 
  315.728,1377.88 317.831,1377.79 319.933,1377.69 322.035,1377.59 324.137,1377.49 326.239,1377.39 328.342,1377.28 330.444,1377.18 332.546,1377.07 334.648,1376.96 
  336.75,1376.84 338.852,1376.73 340.955,1376.61 343.057,1376.49 345.159,1376.36 347.261,1376.24 349.363,1376.11 351.466,1375.98 353.568,1375.85 355.67,1375.71 
  357.772,1375.57 359.874,1375.43 361.977,1375.29 364.079,1375.14 366.181,1374.99 368.283,1374.84 370.385,1374.68 372.488,1374.52 374.59,1374.36 376.692,1374.2 
  378.794,1374.03 380.896,1373.86 382.999,1373.68 385.101,1373.5 387.203,1373.32 389.305,1373.14 391.407,1372.95 393.51,1372.75 395.612,1372.56 397.714,1372.36 
  399.816,1372.15 401.918,1371.94 404.021,1371.73 406.123,1371.51 408.225,1371.29 410.327,1371.07 412.429,1370.84 414.532,1370.6 416.634,1370.36 418.736,1370.12 
  420.838,1369.87 422.94,1369.62 425.043,1369.36 427.145,1369.1 429.247,1368.83 431.349,1368.55 433.451,1368.28 435.553,1367.99 437.656,1367.7 439.758,1367.41 
  441.86,1367.11 443.962,1366.8 446.064,1366.49 448.167,1366.17 450.269,1365.84 452.371,1365.51 454.473,1365.18 456.575,1364.83 458.678,1364.48 460.78,1364.13 
  462.882,1363.76 464.984,1363.39 467.086,1363.01 469.189,1362.63 471.291,1362.24 473.393,1361.84 475.495,1361.43 477.597,1361.02 479.7,1360.59 481.802,1360.16 
  483.904,1359.72 486.006,1359.28 488.108,1358.82 490.211,1358.36 492.313,1357.89 494.415,1357.41 496.517,1356.92 498.619,1356.42 500.722,1355.91 502.824,1355.39 
  504.926,1354.86 507.028,1354.33 509.13,1353.78 511.233,1353.22 513.335,1352.66 515.437,1352.08 517.539,1351.49 519.641,1350.89 521.744,1350.28 523.846,1349.66 
  525.948,1349.03 528.05,1348.39 530.152,1347.73 532.254,1347.07 534.357,1346.39 536.459,1345.7 538.561,1345 540.663,1344.28 542.765,1343.55 544.868,1342.81 
  546.97,1342.06 549.072,1341.29 551.174,1340.51 553.276,1339.72 555.379,1338.91 557.481,1338.09 559.583,1337.25 561.685,1336.4 563.787,1335.54 565.89,1334.66 
  567.992,1333.76 570.094,1332.86 572.196,1331.93 574.298,1330.99 576.401,1330.03 578.503,1329.06 580.605,1328.07 582.707,1327.07 584.809,1326.05 586.912,1325.01 
  589.014,1323.95 591.116,1322.88 593.218,1321.79 595.32,1320.68 597.423,1319.56 599.525,1318.41 601.627,1317.25 603.729,1316.07 605.831,1314.87 607.934,1313.65 
  610.036,1312.42 612.138,1311.16 614.24,1309.89 616.342,1308.59 618.445,1307.27 620.547,1305.94 622.649,1304.58 624.751,1303.21 626.853,1301.81 628.955,1300.4 
  631.058,1298.96 633.16,1297.5 635.262,1296.02 637.364,1294.52 639.466,1292.99 641.569,1291.45 643.671,1289.88 645.773,1288.29 647.875,1286.68 649.977,1285.05 
  652.08,1283.39 654.182,1281.71 656.284,1280.01 658.386,1278.28 660.488,1276.54 662.591,1274.77 664.693,1272.97 666.795,1271.15 668.897,1269.31 670.999,1267.45 
  673.102,1265.56 675.204,1263.64 677.306,1261.71 679.408,1259.75 681.51,1257.76 683.613,1255.75 685.715,1253.72 687.817,1251.66 689.919,1249.58 692.021,1247.48 
  694.124,1245.35 696.226,1243.19 698.328,1241.02 700.43,1238.81 702.532,1236.59 704.635,1234.34 706.737,1232.06 708.839,1229.76 710.941,1227.44 713.043,1225.1 
  715.146,1222.73 717.248,1220.33 719.35,1217.92 721.452,1215.48 723.554,1213.01 725.656,1210.53 727.759,1208.01 729.861,1205.48 731.963,1202.93 734.065,1200.35 
  736.167,1197.75 738.27,1195.12 740.372,1192.48 742.474,1189.81 744.576,1187.12 746.678,1184.41 748.781,1181.67 750.883,1178.92 752.985,1176.14 755.087,1173.35 
  757.189,1170.53 759.292,1167.7 761.394,1164.84 763.496,1161.97 765.598,1159.07 767.7,1156.16 769.803,1153.23 771.905,1150.28 774.007,1147.32 776.109,1144.33 
  778.211,1141.33 780.314,1138.32 782.416,1135.29 784.518,1132.24 786.62,1129.18 788.722,1126.1 790.825,1123.01 792.927,1119.91 795.029,1116.79 797.131,1113.66 
  799.233,1110.51 801.336,1107.36 803.438,1104.19 805.54,1101.01 807.642,1097.82 809.744,1094.62 811.847,1091.41 813.949,1088.19 816.051,1084.96 818.153,1081.73 
  820.255,1078.48 822.357,1075.23 824.46,1071.97 826.562,1068.7 828.664,1065.43 830.766,1062.15 832.868,1058.87 834.971,1055.58 837.073,1052.29 839.175,1049 
  841.277,1045.7 843.379,1042.4 845.482,1039.1 847.584,1035.8 849.686,1032.49 851.788,1029.19 853.89,1025.89 855.993,1022.58 858.095,1019.28 860.197,1015.98 
  862.299,1012.68 864.401,1009.39 866.504,1006.1 868.606,1002.81 870.708,999.528 872.81,996.249 874.912,992.975 877.015,989.708 879.117,986.446 881.219,983.191 
  883.321,979.943 885.423,976.702 887.526,973.469 889.628,970.245 891.73,967.029 893.832,963.823 895.934,960.626 898.037,957.439 900.139,954.263 902.241,951.097 
  904.343,947.942 906.445,944.799 908.548,941.668 910.65,938.549 912.752,935.443 914.854,932.349 916.956,929.269 919.058,926.202 921.161,923.15 923.263,920.111 
  925.365,917.087 927.467,914.078 929.569,911.084 931.672,908.106 933.774,905.143 935.876,902.196 937.978,899.265 940.08,896.351 942.183,893.454 944.285,890.573 
  946.387,887.71 948.489,884.864 950.591,882.036 952.694,879.226 954.796,876.434 956.898,873.66 959,870.904 961.102,868.168 963.205,865.45 965.307,862.751 
  967.409,860.071 969.511,857.411 971.613,854.77 973.716,852.15 975.818,849.549 977.92,846.968 980.022,844.407 982.124,841.866 984.227,839.345 986.329,836.844 
  988.431,834.363 990.533,831.902 992.635,829.462 994.738,827.041 996.84,824.641 998.942,822.261 1001.04,819.901 1003.15,817.562 1005.25,815.243 1007.35,812.944 
  1009.45,810.665 1011.56,808.407 1013.66,806.168 1015.76,803.951 1017.86,801.753 1019.96,799.575 1022.07,797.418 1024.17,795.281 1026.27,793.164 1028.37,791.067 
  1030.47,788.991 1032.58,786.934 1034.68,784.898 1036.78,782.881 1038.88,780.884 1040.99,778.908 1043.09,776.951 1045.19,775.013 1047.29,773.096 1049.39,771.198 
  1051.5,769.32 1053.6,767.461 1055.7,765.622 1057.8,763.802 1059.91,762.001 1062.01,760.22 1064.11,758.458 1066.21,756.714 1068.31,754.99 1070.42,753.285 
  1072.52,751.598 1074.62,749.93 1076.72,748.28 1078.83,746.649 1080.93,745.036 1083.03,743.441 1085.13,741.865 1087.23,740.306 1089.34,738.765 1091.44,737.242 
  1093.54,735.737 1095.64,734.248 1097.75,732.778 1099.85,731.324 1101.95,729.887 1104.05,728.467 1106.15,727.064 1108.26,725.677 1110.36,724.307 1112.46,722.953 
  1114.56,721.615 1116.66,720.294 1118.77,718.988 1120.87,717.698 1122.97,716.423 1125.07,715.164 1127.18,713.92 1129.28,712.692 1131.38,711.478 1133.48,710.279 
  1135.58,709.096 1137.69,707.926 1139.79,706.772 1141.89,705.631 1143.99,704.505 1146.1,703.393 1148.2,702.295 1150.3,701.21 1152.4,700.14 1154.5,699.083 
  1156.61,698.039 1158.71,697.009 1160.81,695.992 1162.91,694.987 1165.02,693.996 1167.12,693.017 1169.22,692.051 1171.32,691.098 1173.42,690.157 1175.53,689.228 
  1177.63,688.311 1179.73,687.406 1181.83,686.513 1183.94,685.632 1186.04,684.763 1188.14,683.904 1190.24,683.057 1192.34,682.222 1194.45,681.397 1196.55,680.583 
  1198.65,679.78 1200.75,678.988 1202.85,678.206 1204.96,677.435 1207.06,676.674 1209.16,675.923 1211.26,675.182 1213.37,674.452 1215.47,673.73 1217.57,673.019 
  1219.67,672.317 1221.77,671.625 1223.88,670.941 1225.98,670.267 1228.08,669.602 1230.18,668.945 1232.29,668.298 1234.39,667.658 1236.49,667.028 1238.59,666.406 
  1240.69,665.792 1242.8,665.187 1244.9,664.59 1247,664.001 1249.1,663.42 1251.21,662.848 1253.31,662.283 1255.41,661.725 1257.51,661.176 1259.61,660.634 
  1261.72,660.1 1263.82,659.573 1265.92,659.053 1268.02,658.541 1270.13,658.036 1272.23,657.538 1274.33,657.048 1276.43,656.564 1278.53,656.087 1280.64,655.616 
  1282.74,655.153 1284.84,654.696 1286.94,654.246 1289.04,653.802 1291.15,653.364 1293.25,652.933 1295.35,652.508 1297.45,652.089 1299.56,651.676 1301.66,651.269 
  1303.76,650.868 1305.86,650.473 1307.96,650.084 1310.07,649.7 1312.17,649.322 1314.27,648.949 1316.37,648.582 1318.48,648.22 1320.58,647.863 1322.68,647.512 
  1324.78,647.166 1326.88,646.825 1328.99,646.488 1331.09,646.157 1333.19,645.83 1335.29,645.509 1337.4,645.191 1339.5,644.879 1341.6,644.571 1343.7,644.267 
  1345.8,643.968 1347.91,643.673 1350.01,643.383 1352.11,643.096 1354.21,642.814 1356.32,642.536 1358.42,642.261 1360.52,641.991 1362.62,641.724 1364.72,641.461 
  1366.83,641.202 1368.93,640.946 1371.03,640.694 1373.13,640.445 1375.23,640.2 1377.34,639.958 1379.44,639.719 1381.54,639.483 1383.64,639.251 1385.75,639.022 
  1387.85,638.796 1389.95,638.574 1392.05,638.355 1394.15,638.139 1396.26,637.926 1398.36,637.716 1400.46,637.51 1402.56,637.306 1404.67,637.105 1406.77,636.907 
  1408.87,636.713 1410.97,636.52 1413.07,636.331 1415.18,636.145 1417.28,635.961 1419.38,635.78 1421.48,635.601 1423.59,635.426 1425.69,635.252 1427.79,635.082 
  1429.89,634.913 1431.99,634.748 1434.1,634.584 1436.2,634.423 1438.3,634.265 1440.4,634.109 1442.51,633.955 1444.61,633.803 1446.71,633.654 1448.81,633.507 
  1450.91,633.361 1453.02,633.219 1455.12,633.078 1457.22,632.939 1459.32,632.802 1461.42,632.668 1463.53,632.535 1465.63,632.404 1467.73,632.275 1469.83,632.148 
  1471.94,632.023 1474.04,631.9 1476.14,631.778 1478.24,631.659 1480.34,631.541 1482.45,631.424 1484.55,631.31 1486.65,631.197 1488.75,631.086 1490.86,630.976 
  1492.96,630.868 1495.06,630.762 1497.16,630.657 1499.26,630.553 1501.37,630.452 1503.47,630.351 1505.57,630.252 1507.67,630.155 1509.78,630.059 1511.88,629.964 
  1513.98,629.871 1516.08,629.779 1518.18,629.689 1520.29,629.6 1522.39,629.512 1524.49,629.425 1526.59,629.34 1528.7,629.256 1530.8,629.174 1532.9,629.092 
  1535,629.012 1537.1,628.933 1539.21,628.855 1541.31,628.778 1543.41,628.703 1545.51,628.628 1547.61,628.555 1549.72,628.483 1551.82,628.412 1553.92,628.341 
  1556.02,628.272 1558.13,628.204 1560.23,628.138 1562.33,628.072 1564.43,628.007 1566.53,627.943 1568.64,627.88 1570.74,627.817 1572.84,627.756 1574.94,627.696 
  1577.05,627.637 1579.15,627.578 1581.25,627.521 1583.35,627.464 1585.45,627.408 1587.56,627.353 1589.66,627.299 1591.76,627.245 1593.86,627.193 1595.97,627.141 
  1598.07,627.09 1600.17,627.039 1602.27,626.99 1604.37,626.941 1606.48,626.893 1608.58,626.845 1610.68,626.798 1612.78,626.752 1614.89,626.707 1616.99,626.662 
  1619.09,626.618 1621.19,626.575 1623.29,626.532 1625.4,626.489 1627.5,626.448 1629.6,626.407 1631.7,626.366 1633.8,626.327 1635.91,626.288 1638.01,626.249 
  1640.11,626.211 1642.21,626.173 1644.32,626.136 1646.42,626.1 1648.52,626.064 1650.62,626.029 1652.72,625.994 1654.83,625.96 1656.93,625.926 1659.03,625.893 
  1661.13,625.86 1663.24,625.828 1665.34,625.796 1667.44,625.765 1669.54,625.734 1671.64,625.704 1673.75,625.674 1675.85,625.645 1677.95,625.616 1680.05,625.587 
  1682.16,625.559 1684.26,625.531 1686.36,625.504 1688.46,625.477 1690.56,625.45 1692.67,625.424 1694.77,625.399 1696.87,625.373 1698.97,625.348 1701.08,625.324 
  1703.18,625.3 1705.28,625.276 1707.38,625.252 1709.48,625.229 1711.59,625.206 1713.69,625.184 1715.79,625.162 1717.89,625.14 1720,625.119 1722.1,625.097 
  1724.2,625.077 1726.3,625.056 1728.4,625.036 1730.51,625.016 1732.61,624.996 1734.71,624.977 1736.81,624.958 1738.91,624.939 1741.02,624.92 1743.12,624.902 
  1745.22,624.884 1747.32,624.867 1749.43,624.849 1751.53,624.832 1753.63,624.815 1755.73,624.798 1757.83,624.782 1759.94,624.766 1762.04,624.75 1764.14,624.734 
  1766.24,624.719 1768.35,624.703 1770.45,624.688 1772.55,624.674 1774.65,624.659 1776.75,624.645 1778.86,624.631 1780.96,624.617 1783.06,624.603 1785.16,624.589 
  1787.27,624.576 1789.37,624.563 1791.47,624.55 1793.57,624.537 1795.67,624.525 1797.78,624.513 1799.88,624.5 1801.98,624.488 1804.08,624.477 1806.19,624.465 
  1808.29,624.454 1810.39,624.442 1812.49,624.431 1814.59,624.42 1816.7,624.41 1818.8,624.399 1820.9,624.389 1823,624.378 1825.1,624.368 1827.21,624.358 
  1829.31,624.348 1831.41,624.339 1833.51,624.329 1835.62,624.32 1837.72,624.311 1839.82,624.301 1841.92,624.293 1844.02,624.284 1846.13,624.275 1848.23,624.266 
  1850.33,624.258 1852.43,624.25 1854.54,624.241 1856.64,624.233 1858.74,624.225 1860.84,624.217 1862.94,624.21 1865.05,624.202 1867.15,624.195 1869.25,624.187 
  1871.35,624.18 1873.46,624.173 1875.56,624.166 1877.66,624.159 1879.76,624.152 1881.86,624.145 1883.97,624.138 1886.07,624.132 1888.17,624.125 1890.27,624.119 
  1892.38,624.113 1894.48,624.106 1896.58,624.1 1898.68,624.094 1900.78,624.088 1902.89,624.083 1904.99,624.077 1907.09,624.071 1909.19,624.066 1911.29,624.06 
  1913.4,624.055 1915.5,624.049 1917.6,624.044 1919.7,624.039 1921.81,624.034 1923.91,624.029 1926.01,624.024 1928.11,624.019 1930.21,624.014 1932.32,624.01 
  1934.42,624.005 1936.52,624.001 1938.62,623.996 1940.73,623.992 1942.83,623.987 1944.93,623.983 1947.03,623.979 1949.13,623.975 1951.24,623.97 1953.34,623.966 
  1955.44,623.962 1957.54,623.958 1959.65,623.955 1961.75,623.951 1963.85,623.947 1965.95,623.943 1968.05,623.94 1970.16,623.936 1972.26,623.933 1974.36,623.929 
  1976.46,623.926 1978.57,623.922 1980.67,623.919 1982.77,623.916 1984.87,623.912 1986.97,623.909 1989.08,623.906 1991.18,623.903 1993.28,623.9 1995.38,623.897 
  1997.48,623.894 1999.59,623.891 2001.69,623.888 2003.79,623.885 2005.89,623.883 2008,623.88 2010.1,623.877 2012.2,623.874 2014.3,623.872 2016.4,623.869 
  2018.51,623.867 2020.61,623.864 2022.71,623.862 2024.81,623.859 2026.92,623.857 2029.02,623.854 2031.12,623.852 2033.22,623.85 2035.32,623.848 2037.43,623.845 
  2039.53,623.843 2041.63,623.841 2043.73,623.839 2045.84,623.837 2047.94,623.835 2050.04,623.833 2052.14,623.831 2054.24,623.829 2056.35,623.827 2058.45,623.825 
  2060.55,623.823 2062.65,623.821 2064.76,623.819 2066.86,623.818 2068.96,623.816 2071.06,623.814 2073.16,623.812 2075.27,623.811 2077.37,623.809 2079.47,623.807 
  2081.57,623.806 2083.67,623.804 2085.78,623.803 2087.88,623.801 2089.98,623.8 2092.08,623.798 2094.19,623.797 2096.29,623.795 2098.39,623.794 2100.49,623.792 
  2102.59,623.791 2104.7,623.789 2106.8,623.788 2108.9,623.787 2111,623.785 2113.11,623.784 2115.21,623.783 2117.31,623.782 2119.41,623.78 2121.51,623.779 
  2123.62,623.778 2125.72,623.777 2127.82,623.776 2129.92,623.775 2132.03,623.773 2134.13,623.772 2136.23,623.771 2138.33,623.77 2140.43,623.769 2142.54,623.768 
  2144.64,623.767 2146.74,623.766 2148.84,623.765 2150.95,623.764 2153.05,623.763 2155.15,623.762 2157.25,623.761 2159.35,623.76 2161.46,623.759 2163.56,623.758 
  2165.66,623.757 2167.76,623.757 2169.86,623.756 2171.97,623.755 2174.07,623.754 2176.17,623.753 2178.27,623.752 2180.38,623.752 2182.48,623.751 2184.58,623.75 
  2186.68,623.749 2188.78,623.749 2190.89,623.748 2192.99,623.747 2195.09,623.746 2197.19,623.746 2199.3,623.745 2201.4,623.744 2203.5,623.744 2205.6,623.743 
  2207.7,623.742 2209.81,623.742 2211.91,623.741 2214.01,623.74 2216.11,623.74 2218.22,623.739 2220.32,623.739 2222.42,623.738 2224.52,623.737 2226.62,623.737 
  2228.73,623.736 2230.83,623.736 2232.93,623.735 2235.03,623.735 2237.14,623.734 2239.24,623.733 2241.34,623.733 2243.44,623.732 2245.54,623.732 2247.65,623.731 
  2249.75,623.731 2251.85,623.731 2253.95,623.73 2256.05,623.73 2258.16,623.729 2260.26,623.729 2262.36,623.728 2264.46,623.728 2266.57,623.727 2268.67,623.727 
  2270.77,623.726 2272.87,623.726 2274.97,623.726 2277.08,623.725 2279.18,623.725 2281.28,623.724 2283.38,623.724 2285.49,623.724 2287.59,623.723 2289.69,623.723 
  2291.79,623.723 2293.89,623.722 2296,623.722 2298.1,623.722 2300.2,623.721 2302.3,623.721 2304.41,623.721 2306.51,623.72 2308.61,623.72 2310.71,623.72 
  2312.81,623.719 2314.92,623.719 2317.02,623.719 2319.12,623.718 2321.22,623.718 2323.33,623.718 2325.43,623.718 2327.53,623.717 2329.63,623.717 2331.73,623.717 
  2333.84,623.716 2335.94,623.716 2338.04,623.716 2340.14,623.716 2342.24,623.715 2344.35,623.715 2346.45,623.715 2348.55,623.715 2350.65,623.714 2352.76,623.714 
  
  "/>
<path clip-path="url(#clip7900)" d="
M1957.85 372.684 L2280.76 372.684 L2280.76 130.764 L1957.85 130.764  Z
  " fill="#ffffff" fill-rule="evenodd" fill-opacity="1"/>
<polyline clip-path="url(#clip7900)" style="stroke:#000000; stroke-width:4; stroke-opacity:1; fill:none" points="
  1957.85,372.684 2280.76,372.684 2280.76,130.764 1957.85,130.764 1957.85,372.684 
  "/>
<polyline clip-path="url(#clip7900)" style="stroke:#009af9; stroke-width:4; stroke-opacity:1; fill:none" points="
  1981.85,191.244 2125.85,191.244 
  "/>
<g clip-path="url(#clip7900)">
<text style="fill:#000000; fill-opacity:1; font-family:Book Antiqua,Palatino,Palatino Linotype,Palatino LT STD,Georgia,serif; font-size:50px; text-anchor:start;" transform="rotate(0, 2149.85, 208.744)" x="2149.85" y="208.744">s(t)</text>
</g>
<polyline clip-path="url(#clip7900)" style="stroke:#e26f46; stroke-width:4; stroke-opacity:1; fill:none" points="
  1981.85,251.724 2125.85,251.724 
  "/>
<g clip-path="url(#clip7900)">
<text style="fill:#000000; fill-opacity:1; font-family:Book Antiqua,Palatino,Palatino Linotype,Palatino LT STD,Georgia,serif; font-size:50px; text-anchor:start;" transform="rotate(0, 2149.85, 269.224)" x="2149.85" y="269.224">i(t)</text>
</g>
<polyline clip-path="url(#clip7900)" style="stroke:#3da44d; stroke-width:4; stroke-opacity:1; fill:none" points="
  1981.85,312.204 2125.85,312.204 
  "/>
<g clip-path="url(#clip7900)">
<text style="fill:#000000; fill-opacity:1; font-family:Book Antiqua,Palatino,Palatino Linotype,Palatino LT STD,Georgia,serif; font-size:50px; text-anchor:start;" transform="rotate(0, 2149.85, 329.704)" x="2149.85" y="329.704">r(t)</text>
</g>
</svg>
