<?xml version="1.0" encoding="utf-8"?>
<svg xmlns="http://www.w3.org/2000/svg" xmlns:xlink="http://www.w3.org/1999/xlink" width="600" height="400" viewBox="0 0 2400 1600">
<defs>
  <clipPath id="clip6300">
    <rect x="0" y="0" width="2400" height="1600"/>
  </clipPath>
</defs>
<path clip-path="url(#clip6300)" d="
M0 1600 L2400 1600 L2400 0 L0 0  Z
  " fill="#ffffff" fill-rule="evenodd" fill-opacity="1"/>
<defs>
  <clipPath id="clip6301">
    <rect x="480" y="0" width="1681" height="1600"/>
  </clipPath>
</defs>
<path clip-path="url(#clip6300)" d="
M227.691 1418.83 L2352.76 1418.83 L2352.76 47.2441 L227.691 47.2441  Z
  " fill="#ffffff" fill-rule="evenodd" fill-opacity="1"/>
<defs>
  <clipPath id="clip6302">
    <rect x="227" y="47" width="2126" height="1373"/>
  </clipPath>
</defs>
<polyline clip-path="url(#clip6302)" style="stroke:#000000; stroke-width:2; stroke-opacity:0.1; fill:none" points="
  227.691,1418.83 227.691,47.2441 
  "/>
<polyline clip-path="url(#clip6302)" style="stroke:#000000; stroke-width:2; stroke-opacity:0.1; fill:none" points="
  758.958,1418.83 758.958,47.2441 
  "/>
<polyline clip-path="url(#clip6302)" style="stroke:#000000; stroke-width:2; stroke-opacity:0.1; fill:none" points="
  1290.22,1418.83 1290.22,47.2441 
  "/>
<polyline clip-path="url(#clip6302)" style="stroke:#000000; stroke-width:2; stroke-opacity:0.1; fill:none" points="
  1821.49,1418.83 1821.49,47.2441 
  "/>
<polyline clip-path="url(#clip6302)" style="stroke:#000000; stroke-width:2; stroke-opacity:0.1; fill:none" points="
  2352.76,1418.83 2352.76,47.2441 
  "/>
<polyline clip-path="url(#clip6302)" style="stroke:#000000; stroke-width:2; stroke-opacity:0.1; fill:none" points="
  227.691,1380.01 2352.76,1380.01 
  "/>
<polyline clip-path="url(#clip6302)" style="stroke:#000000; stroke-width:2; stroke-opacity:0.1; fill:none" points="
  227.691,959.766 2352.76,959.766 
  "/>
<polyline clip-path="url(#clip6302)" style="stroke:#000000; stroke-width:2; stroke-opacity:0.1; fill:none" points="
  227.691,539.521 2352.76,539.521 
  "/>
<polyline clip-path="url(#clip6302)" style="stroke:#000000; stroke-width:2; stroke-opacity:0.1; fill:none" points="
  227.691,119.275 2352.76,119.275 
  "/>
<polyline clip-path="url(#clip6300)" style="stroke:#000000; stroke-width:4; stroke-opacity:1; fill:none" points="
  227.691,1418.83 2352.76,1418.83 
  "/>
<polyline clip-path="url(#clip6300)" style="stroke:#000000; stroke-width:4; stroke-opacity:1; fill:none" points="
  227.691,1418.83 227.691,47.2441 
  "/>
<polyline clip-path="url(#clip6300)" style="stroke:#000000; stroke-width:4; stroke-opacity:1; fill:none" points="
  227.691,1418.83 227.691,1402.37 
  "/>
<polyline clip-path="url(#clip6300)" style="stroke:#000000; stroke-width:4; stroke-opacity:1; fill:none" points="
  758.958,1418.83 758.958,1402.37 
  "/>
<polyline clip-path="url(#clip6300)" style="stroke:#000000; stroke-width:4; stroke-opacity:1; fill:none" points="
  1290.22,1418.83 1290.22,1402.37 
  "/>
<polyline clip-path="url(#clip6300)" style="stroke:#000000; stroke-width:4; stroke-opacity:1; fill:none" points="
  1821.49,1418.83 1821.49,1402.37 
  "/>
<polyline clip-path="url(#clip6300)" style="stroke:#000000; stroke-width:4; stroke-opacity:1; fill:none" points="
  2352.76,1418.83 2352.76,1402.37 
  "/>
<polyline clip-path="url(#clip6300)" style="stroke:#000000; stroke-width:4; stroke-opacity:1; fill:none" points="
  227.691,1380.01 253.192,1380.01 
  "/>
<polyline clip-path="url(#clip6300)" style="stroke:#000000; stroke-width:4; stroke-opacity:1; fill:none" points="
  227.691,959.766 253.192,959.766 
  "/>
<polyline clip-path="url(#clip6300)" style="stroke:#000000; stroke-width:4; stroke-opacity:1; fill:none" points="
  227.691,539.521 253.192,539.521 
  "/>
<polyline clip-path="url(#clip6300)" style="stroke:#000000; stroke-width:4; stroke-opacity:1; fill:none" points="
  227.691,119.275 253.192,119.275 
  "/>
<g clip-path="url(#clip6300)">
<text style="fill:#000000; fill-opacity:1; font-family:Book Antiqua,Palatino,Palatino Linotype,Palatino LT STD,Georgia,serif; font-size:50px; text-anchor:middle;" transform="rotate(0, 227.691, 1472.83)" x="227.691" y="1472.83">0</text>
</g>
<g clip-path="url(#clip6300)">
<text style="fill:#000000; fill-opacity:1; font-family:Book Antiqua,Palatino,Palatino Linotype,Palatino LT STD,Georgia,serif; font-size:50px; text-anchor:middle;" transform="rotate(0, 758.958, 1472.83)" x="758.958" y="1472.83">10</text>
</g>
<g clip-path="url(#clip6300)">
<text style="fill:#000000; fill-opacity:1; font-family:Book Antiqua,Palatino,Palatino Linotype,Palatino LT STD,Georgia,serif; font-size:50px; text-anchor:middle;" transform="rotate(0, 1290.22, 1472.83)" x="1290.22" y="1472.83">20</text>
</g>
<g clip-path="url(#clip6300)">
<text style="fill:#000000; fill-opacity:1; font-family:Book Antiqua,Palatino,Palatino Linotype,Palatino LT STD,Georgia,serif; font-size:50px; text-anchor:middle;" transform="rotate(0, 1821.49, 1472.83)" x="1821.49" y="1472.83">30</text>
</g>
<g clip-path="url(#clip6300)">
<text style="fill:#000000; fill-opacity:1; font-family:Book Antiqua,Palatino,Palatino Linotype,Palatino LT STD,Georgia,serif; font-size:50px; text-anchor:middle;" transform="rotate(0, 2352.76, 1472.83)" x="2352.76" y="1472.83">40</text>
</g>
<g clip-path="url(#clip6300)">
<text style="fill:#000000; fill-opacity:1; font-family:Book Antiqua,Palatino,Palatino Linotype,Palatino LT STD,Georgia,serif; font-size:50px; text-anchor:end;" transform="rotate(0, 203.691, 1397.51)" x="203.691" y="1397.51">0</text>
</g>
<g clip-path="url(#clip6300)">
<text style="fill:#000000; fill-opacity:1; font-family:Book Antiqua,Palatino,Palatino Linotype,Palatino LT STD,Georgia,serif; font-size:50px; text-anchor:end;" transform="rotate(0, 203.691, 977.266)" x="203.691" y="977.266">50</text>
</g>
<g clip-path="url(#clip6300)">
<text style="fill:#000000; fill-opacity:1; font-family:Book Antiqua,Palatino,Palatino Linotype,Palatino LT STD,Georgia,serif; font-size:50px; text-anchor:end;" transform="rotate(0, 203.691, 557.021)" x="203.691" y="557.021">100</text>
</g>
<g clip-path="url(#clip6300)">
<text style="fill:#000000; fill-opacity:1; font-family:Book Antiqua,Palatino,Palatino Linotype,Palatino LT STD,Georgia,serif; font-size:50px; text-anchor:end;" transform="rotate(0, 203.691, 136.775)" x="203.691" y="136.775">150</text>
</g>
<g clip-path="url(#clip6300)">
<text style="fill:#000000; fill-opacity:1; font-family:Book Antiqua,Palatino,Palatino Linotype,Palatino LT STD,Georgia,serif; font-size:69px; text-anchor:middle;" transform="rotate(0, 1290.22, 1562.87)" x="1290.22" y="1562.87">t</text>
</g>
<g clip-path="url(#clip6300)">
<text style="fill:#000000; fill-opacity:1; font-family:Book Antiqua,Palatino,Palatino Linotype,Palatino LT STD,Georgia,serif; font-size:69px; text-anchor:middle;" transform="rotate(-90, 87.3212, 733.037)" x="87.3212" y="733.037">number infected</text>
</g>
<polyline clip-path="url(#clip6302)" style="stroke:#009af9; stroke-width:4; stroke-opacity:1; fill:none" points="
  227.691,1371.61 229.819,1371.44 231.946,1371.27 234.073,1371.09 236.2,1370.91 238.327,1370.73 240.455,1370.54 242.582,1370.35 244.709,1370.15 246.836,1369.95 
  248.963,1369.75 251.09,1369.55 253.218,1369.34 255.345,1369.12 257.472,1368.9 259.599,1368.68 261.726,1368.45 263.854,1368.22 265.981,1367.98 268.108,1367.74 
  270.235,1367.49 272.362,1367.24 274.49,1366.99 276.617,1366.73 278.744,1366.46 280.871,1366.19 282.998,1365.91 285.126,1365.63 287.253,1365.34 289.38,1365.05 
  291.507,1364.75 293.634,1364.44 295.762,1364.13 297.889,1363.81 300.016,1363.49 302.143,1363.16 304.27,1362.82 306.397,1362.48 308.525,1362.13 310.652,1361.77 
  312.779,1361.41 314.906,1361.04 317.033,1360.66 319.161,1360.27 321.288,1359.88 323.415,1359.48 325.542,1359.07 327.669,1358.66 329.797,1358.23 331.924,1357.8 
  334.051,1357.36 336.178,1356.91 338.305,1356.45 340.433,1355.98 342.56,1355.51 344.687,1355.02 346.814,1354.53 348.941,1354.02 351.068,1353.51 353.196,1352.99 
  355.323,1352.45 357.45,1351.91 359.577,1351.35 361.704,1350.79 363.832,1350.21 365.959,1349.63 368.086,1349.03 370.213,1348.42 372.34,1347.8 374.468,1347.17 
  376.595,1346.52 378.722,1345.87 380.849,1345.2 382.976,1344.52 385.104,1343.82 387.231,1343.12 389.358,1342.4 391.485,1341.66 393.612,1340.91 395.74,1340.15 
  397.867,1339.38 399.994,1338.59 402.121,1337.78 404.248,1336.96 406.375,1336.13 408.503,1335.28 410.63,1334.42 412.757,1333.53 414.884,1332.64 417.011,1331.72 
  419.139,1330.79 421.266,1329.85 423.393,1328.88 425.52,1327.9 427.647,1326.9 429.775,1325.88 431.902,1324.85 434.029,1323.79 436.156,1322.72 438.283,1321.63 
  440.411,1320.52 442.538,1319.39 444.665,1318.24 446.792,1317.07 448.919,1315.87 451.047,1314.66 453.174,1313.43 455.301,1312.17 457.428,1310.9 459.555,1309.6 
  461.682,1308.28 463.81,1306.94 465.937,1305.57 468.064,1304.18 470.191,1302.77 472.318,1301.33 474.446,1299.87 476.573,1298.39 478.7,1296.88 480.827,1295.34 
  482.954,1293.78 485.082,1292.2 487.209,1290.59 489.336,1288.95 491.463,1287.28 493.59,1285.59 495.718,1283.88 497.845,1282.13 499.972,1280.36 502.099,1278.56 
  504.226,1276.73 506.353,1274.87 508.481,1272.98 510.608,1271.07 512.735,1269.12 514.862,1267.15 516.989,1265.14 519.117,1263.11 521.244,1261.05 523.371,1258.95 
  525.498,1256.83 527.625,1254.67 529.753,1252.48 531.88,1250.26 534.007,1248.01 536.134,1245.73 538.261,1243.42 540.389,1241.07 542.516,1238.69 544.643,1236.28 
  546.77,1233.84 548.897,1231.36 551.025,1228.85 553.152,1226.31 555.279,1223.73 557.406,1221.13 559.533,1218.48 561.66,1215.81 563.788,1213.1 565.915,1210.36 
  568.042,1207.59 570.169,1204.78 572.296,1201.94 574.424,1199.06 576.551,1196.15 578.678,1193.21 580.805,1190.24 582.932,1187.23 585.06,1184.19 587.187,1181.12 
  589.314,1178.02 591.441,1174.88 593.568,1171.71 595.696,1168.51 597.823,1165.28 599.95,1162.02 602.077,1158.73 604.204,1155.41 606.331,1152.06 608.459,1148.68 
  610.586,1145.27 612.713,1141.83 614.84,1138.37 616.967,1134.88 619.095,1131.36 621.222,1127.81 623.349,1124.24 625.476,1120.64 627.603,1117.02 629.731,1113.38 
  631.858,1109.71 633.985,1106.02 636.112,1102.31 638.239,1098.57 640.367,1094.82 642.494,1091.05 644.621,1087.26 646.748,1083.46 648.875,1079.64 651.003,1075.8 
  653.13,1071.95 655.257,1068.09 657.384,1064.22 659.511,1060.34 661.638,1056.45 663.766,1052.55 665.893,1048.64 668.02,1044.73 670.147,1040.82 672.274,1036.9 
  674.402,1032.98 676.529,1029.07 678.656,1025.15 680.783,1021.24 682.91,1017.33 685.038,1013.42 687.165,1009.53 689.292,1005.64 691.419,1001.76 693.546,997.892 
  695.674,994.038 697.801,990.199 699.928,986.376 702.055,982.571 704.182,978.785 706.31,975.02 708.437,971.278 710.564,967.561 712.691,963.869 714.818,960.206 
  716.945,956.572 719.073,952.969 721.2,949.4 723.327,945.866 725.454,942.368 727.581,938.908 729.709,935.486 731.836,932.104 733.963,928.765 736.09,925.47 
  738.217,922.221 740.345,919.02 742.472,915.869 744.599,912.768 746.726,909.721 748.853,906.728 750.981,903.791 753.108,900.912 755.235,898.091 757.362,895.331 
  759.489,892.633 761.616,889.998 763.744,887.428 765.871,884.923 767.998,882.485 770.125,880.115 772.252,877.815 774.38,875.584 776.507,873.425 778.634,871.338 
  780.761,869.325 782.888,867.385 785.016,865.521 787.143,863.732 789.27,862.02 791.397,860.385 793.524,858.828 795.652,857.35 797.779,855.951 799.906,854.632 
  802.033,853.393 804.16,852.234 806.288,851.157 808.415,850.162 810.542,849.248 812.669,848.416 814.796,847.667 816.923,847.001 819.051,846.417 821.178,845.916 
  823.305,845.498 825.432,845.163 827.559,844.911 829.687,844.742 831.814,844.655 833.941,844.651 836.068,844.73 838.195,844.891 840.323,845.134 842.45,845.459 
  844.577,845.865 846.704,846.35 848.831,846.916 850.959,847.559 853.086,848.281 855.213,849.079 857.34,849.953 859.467,850.902 861.595,851.925 863.722,853.021 
  865.849,854.189 867.976,855.429 870.103,856.738 872.23,858.117 874.358,859.565 876.485,861.079 878.612,862.66 880.739,864.305 882.866,866.015 884.994,867.788 
  887.121,869.622 889.248,871.518 891.375,873.472 893.502,875.486 895.63,877.556 897.757,879.683 899.884,881.864 902.011,884.099 904.138,886.387 906.266,888.726 
  908.393,891.114 910.52,893.552 912.647,896.036 914.774,898.567 916.901,901.142 919.029,903.761 921.156,906.422 923.283,909.123 925.41,911.864 927.537,914.642 
  929.665,917.457 931.792,920.307 933.919,923.19 936.046,926.105 938.173,929.051 940.301,932.027 942.428,935.029 944.555,938.058 946.682,941.111 948.809,944.187 
  950.937,947.284 953.064,950.403 955.191,953.541 957.318,956.698 959.445,959.874 961.573,963.066 963.7,966.273 965.827,969.495 967.954,972.73 970.081,975.977 
  972.208,979.235 974.336,982.503 976.463,985.78 978.59,989.065 980.717,992.356 982.844,995.654 984.972,998.957 987.099,1002.26 989.226,1005.57 991.353,1008.88 
  993.48,1012.2 995.608,1015.51 997.735,1018.82 999.862,1022.13 1001.99,1025.44 1004.12,1028.75 1006.24,1032.05 1008.37,1035.35 1010.5,1038.64 1012.63,1041.92 
  1014.75,1045.2 1016.88,1048.47 1019.01,1051.73 1021.13,1054.99 1023.26,1058.23 1025.39,1061.46 1027.52,1064.69 1029.64,1067.9 1031.77,1071.1 1033.9,1074.28 
  1036.02,1077.46 1038.15,1080.61 1040.28,1083.76 1042.41,1086.89 1044.53,1090 1046.66,1093.1 1048.79,1096.19 1050.91,1099.25 1053.04,1102.3 1055.17,1105.34 
  1057.3,1108.35 1059.42,1111.35 1061.55,1114.32 1063.68,1117.28 1065.8,1120.22 1067.93,1123.15 1070.06,1126.05 1072.19,1128.93 1074.31,1131.79 1076.44,1134.63 
  1078.57,1137.45 1080.7,1140.25 1082.82,1143.03 1084.95,1145.79 1087.08,1148.53 1089.2,1151.24 1091.33,1153.94 1093.46,1156.61 1095.59,1159.26 1097.71,1161.89 
  1099.84,1164.5 1101.97,1167.08 1104.09,1169.65 1106.22,1172.19 1108.35,1174.7 1110.48,1177.2 1112.6,1179.68 1114.73,1182.13 1116.86,1184.56 1118.98,1186.97 
  1121.11,1189.35 1123.24,1191.71 1125.37,1194.05 1127.49,1196.37 1129.62,1198.67 1131.75,1200.94 1133.88,1203.2 1136,1205.43 1138.13,1207.63 1140.26,1209.82 
  1142.38,1211.98 1144.51,1214.12 1146.64,1216.24 1148.77,1218.34 1150.89,1220.42 1153.02,1222.47 1155.15,1224.5 1157.27,1226.51 1159.4,1228.5 1161.53,1230.47 
  1163.66,1232.42 1165.78,1234.34 1167.91,1236.24 1170.04,1238.13 1172.16,1239.99 1174.29,1241.83 1176.42,1243.65 1178.55,1245.45 1180.67,1247.23 1182.8,1248.99 
  1184.93,1250.73 1187.05,1252.44 1189.18,1254.14 1191.31,1255.82 1193.44,1257.48 1195.56,1259.12 1197.69,1260.74 1199.82,1262.34 1201.95,1263.93 1204.07,1265.49 
  1206.2,1267.04 1208.33,1268.56 1210.45,1270.07 1212.58,1271.57 1214.71,1273.04 1216.84,1274.5 1218.96,1275.94 1221.09,1277.36 1223.22,1278.77 1225.34,1280.15 
  1227.47,1281.53 1229.6,1282.88 1231.73,1284.22 1233.85,1285.54 1235.98,1286.85 1238.11,1288.14 1240.23,1289.41 1242.36,1290.67 1244.49,1291.91 1246.62,1293.13 
  1248.74,1294.34 1250.87,1295.54 1253,1296.72 1255.12,1297.88 1257.25,1299.03 1259.38,1300.16 1261.51,1301.28 1263.63,1302.39 1265.76,1303.48 1267.89,1304.55 
  1270.02,1305.62 1272.14,1306.66 1274.27,1307.7 1276.4,1308.72 1278.52,1309.72 1280.65,1310.71 1282.78,1311.69 1284.91,1312.66 1287.03,1313.61 1289.16,1314.55 
  1291.29,1315.48 1293.41,1316.39 1295.54,1317.3 1297.67,1318.18 1299.8,1319.06 1301.92,1319.93 1304.05,1320.78 1306.18,1321.62 1308.3,1322.45 1310.43,1323.27 
  1312.56,1324.07 1314.69,1324.87 1316.81,1325.65 1318.94,1326.43 1321.07,1327.19 1323.2,1327.94 1325.32,1328.68 1327.45,1329.41 1329.58,1330.13 1331.7,1330.85 
  1333.83,1331.55 1335.96,1332.24 1338.09,1332.92 1340.21,1333.59 1342.34,1334.25 1344.47,1334.91 1346.59,1335.55 1348.72,1336.19 1350.85,1336.82 1352.98,1337.43 
  1355.1,1338.05 1357.23,1338.65 1359.36,1339.24 1361.48,1339.83 1363.61,1340.41 1365.74,1340.98 1367.87,1341.54 1369.99,1342.1 1372.12,1342.65 1374.25,1343.19 
  1376.37,1343.73 1378.5,1344.25 1380.63,1344.77 1382.76,1345.28 1384.88,1345.79 1387.01,1346.28 1389.14,1346.78 1391.27,1347.26 1393.39,1347.74 1395.52,1348.21 
  1397.65,1348.67 1399.77,1349.13 1401.9,1349.58 1404.03,1350.02 1406.16,1350.46 1408.28,1350.89 1410.41,1351.31 1412.54,1351.73 1414.66,1352.15 1416.79,1352.55 
  1418.92,1352.95 1421.05,1353.35 1423.17,1353.74 1425.3,1354.12 1427.43,1354.5 1429.55,1354.88 1431.68,1355.24 1433.81,1355.61 1435.94,1355.96 1438.06,1356.32 
  1440.19,1356.66 1442.32,1357.01 1444.45,1357.34 1446.57,1357.68 1448.7,1358 1450.83,1358.33 1452.95,1358.64 1455.08,1358.96 1457.21,1359.27 1459.34,1359.57 
  1461.46,1359.87 1463.59,1360.17 1465.72,1360.46 1467.84,1360.75 1469.97,1361.03 1472.1,1361.31 1474.23,1361.58 1476.35,1361.86 1478.48,1362.12 1480.61,1362.39 
  1482.73,1362.65 1484.86,1362.9 1486.99,1363.15 1489.12,1363.4 1491.24,1363.65 1493.37,1363.89 1495.5,1364.13 1497.62,1364.36 1499.75,1364.59 1501.88,1364.82 
  1504.01,1365.05 1506.13,1365.27 1508.26,1365.49 1510.39,1365.7 1512.52,1365.91 1514.64,1366.12 1516.77,1366.33 1518.9,1366.53 1521.02,1366.73 1523.15,1366.93 
  1525.28,1367.12 1527.41,1367.31 1529.53,1367.5 1531.66,1367.68 1533.79,1367.87 1535.91,1368.05 1538.04,1368.22 1540.17,1368.4 1542.3,1368.57 1544.42,1368.74 
  1546.55,1368.91 1548.68,1369.07 1550.8,1369.23 1552.93,1369.39 1555.06,1369.55 1557.19,1369.7 1559.31,1369.86 1561.44,1370.01 1563.57,1370.15 1565.69,1370.3 
  1567.82,1370.44 1569.95,1370.59 1572.08,1370.72 1574.2,1370.86 1576.33,1371 1578.46,1371.13 1580.59,1371.26 1582.71,1371.39 1584.84,1371.52 1586.97,1371.65 
  1589.09,1371.77 1591.22,1371.89 1593.35,1372.01 1595.48,1372.13 1597.6,1372.25 1599.73,1372.36 1601.86,1372.47 1603.98,1372.59 1606.11,1372.7 1608.24,1372.81 
  1610.37,1372.91 1612.49,1373.02 1614.62,1373.12 1616.75,1373.22 1618.87,1373.33 1621,1373.42 1623.13,1373.52 1625.26,1373.62 1627.38,1373.71 1629.51,1373.81 
  1631.64,1373.9 1633.77,1373.99 1635.89,1374.08 1638.02,1374.17 1640.15,1374.26 1642.27,1374.34 1644.4,1374.43 1646.53,1374.51 1648.66,1374.59 1650.78,1374.67 
  1652.91,1374.75 1655.04,1374.83 1657.16,1374.91 1659.29,1374.98 1661.42,1375.06 1663.55,1375.13 1665.67,1375.2 1667.8,1375.28 1669.93,1375.35 1672.05,1375.42 
  1674.18,1375.48 1676.31,1375.55 1678.44,1375.62 1680.56,1375.68 1682.69,1375.75 1684.82,1375.81 1686.94,1375.87 1689.07,1375.93 1691.2,1376 1693.33,1376.06 
  1695.45,1376.11 1697.58,1376.17 1699.71,1376.23 1701.84,1376.29 1703.96,1376.34 1706.09,1376.4 1708.22,1376.45 1710.34,1376.5 1712.47,1376.55 1714.6,1376.61 
  1716.73,1376.66 1718.85,1376.71 1720.98,1376.76 1723.11,1376.8 1725.23,1376.85 1727.36,1376.9 1729.49,1376.95 1731.62,1376.99 1733.74,1377.04 1735.87,1377.08 
  1738,1377.12 1740.12,1377.17 1742.25,1377.21 1744.38,1377.25 1746.51,1377.29 1748.63,1377.33 1750.76,1377.37 1752.89,1377.41 1755.02,1377.45 1757.14,1377.49 
  1759.27,1377.53 1761.4,1377.56 1763.52,1377.6 1765.65,1377.64 1767.78,1377.67 1769.91,1377.71 1772.03,1377.74 1774.16,1377.78 1776.29,1377.81 1778.41,1377.84 
  1780.54,1377.87 1782.67,1377.91 1784.8,1377.94 1786.92,1377.97 1789.05,1378 1791.18,1378.03 1793.3,1378.06 1795.43,1378.09 1797.56,1378.12 1799.69,1378.14 
  1801.81,1378.17 1803.94,1378.2 1806.07,1378.23 1808.19,1378.25 1810.32,1378.28 1812.45,1378.31 1814.58,1378.33 1816.7,1378.36 1818.83,1378.38 1820.96,1378.41 
  1823.09,1378.43 1825.21,1378.45 1827.34,1378.48 1829.47,1378.5 1831.59,1378.52 1833.72,1378.54 1835.85,1378.57 1837.98,1378.59 1840.1,1378.61 1842.23,1378.63 
  1844.36,1378.65 1846.48,1378.67 1848.61,1378.69 1850.74,1378.71 1852.87,1378.73 1854.99,1378.75 1857.12,1378.77 1859.25,1378.79 1861.37,1378.8 1863.5,1378.82 
  1865.63,1378.84 1867.76,1378.86 1869.88,1378.87 1872.01,1378.89 1874.14,1378.91 1876.26,1378.92 1878.39,1378.94 1880.52,1378.96 1882.65,1378.97 1884.77,1378.99 
  1886.9,1379 1889.03,1379.02 1891.16,1379.03 1893.28,1379.05 1895.41,1379.06 1897.54,1379.08 1899.66,1379.09 1901.79,1379.1 1903.92,1379.12 1906.05,1379.13 
  1908.17,1379.14 1910.3,1379.16 1912.43,1379.17 1914.55,1379.18 1916.68,1379.2 1918.81,1379.21 1920.94,1379.22 1923.06,1379.23 1925.19,1379.24 1927.32,1379.25 
  1929.44,1379.27 1931.57,1379.28 1933.7,1379.29 1935.83,1379.3 1937.95,1379.31 1940.08,1379.32 1942.21,1379.33 1944.34,1379.34 1946.46,1379.35 1948.59,1379.36 
  1950.72,1379.37 1952.84,1379.38 1954.97,1379.39 1957.1,1379.4 1959.23,1379.41 1961.35,1379.42 1963.48,1379.43 1965.61,1379.43 1967.73,1379.44 1969.86,1379.45 
  1971.99,1379.46 1974.12,1379.47 1976.24,1379.48 1978.37,1379.48 1980.5,1379.49 1982.62,1379.5 1984.75,1379.51 1986.88,1379.51 1989.01,1379.52 1991.13,1379.53 
  1993.26,1379.54 1995.39,1379.54 1997.51,1379.55 1999.64,1379.56 2001.77,1379.56 2003.9,1379.57 2006.02,1379.58 2008.15,1379.58 2010.28,1379.59 2012.41,1379.6 
  2014.53,1379.6 2016.66,1379.61 2018.79,1379.62 2020.91,1379.62 2023.04,1379.63 2025.17,1379.63 2027.3,1379.64 2029.42,1379.64 2031.55,1379.65 2033.68,1379.65 
  2035.8,1379.66 2037.93,1379.67 2040.06,1379.67 2042.19,1379.68 2044.31,1379.68 2046.44,1379.69 2048.57,1379.69 2050.69,1379.7 2052.82,1379.7 2054.95,1379.7 
  2057.08,1379.71 2059.2,1379.71 2061.33,1379.72 2063.46,1379.72 2065.59,1379.73 2067.71,1379.73 2069.84,1379.74 2071.97,1379.74 2074.09,1379.74 2076.22,1379.75 
  2078.35,1379.75 2080.48,1379.76 2082.6,1379.76 2084.73,1379.76 2086.86,1379.77 2088.98,1379.77 2091.11,1379.77 2093.24,1379.78 2095.37,1379.78 2097.49,1379.78 
  2099.62,1379.79 2101.75,1379.79 2103.87,1379.79 2106,1379.8 2108.13,1379.8 2110.26,1379.8 2112.38,1379.81 2114.51,1379.81 2116.64,1379.81 2118.76,1379.82 
  2120.89,1379.82 2123.02,1379.82 2125.15,1379.83 2127.27,1379.83 2129.4,1379.83 2131.53,1379.83 2133.66,1379.84 2135.78,1379.84 2137.91,1379.84 2140.04,1379.84 
  2142.16,1379.85 2144.29,1379.85 2146.42,1379.85 2148.55,1379.85 2150.67,1379.86 2152.8,1379.86 2154.93,1379.86 2157.05,1379.86 2159.18,1379.87 2161.31,1379.87 
  2163.44,1379.87 2165.56,1379.87 2167.69,1379.87 2169.82,1379.88 2171.94,1379.88 2174.07,1379.88 2176.2,1379.88 2178.33,1379.88 2180.45,1379.89 2182.58,1379.89 
  2184.71,1379.89 2186.83,1379.89 2188.96,1379.89 2191.09,1379.89 2193.22,1379.9 2195.34,1379.9 2197.47,1379.9 2199.6,1379.9 2201.73,1379.9 2203.85,1379.9 
  2205.98,1379.91 2208.11,1379.91 2210.23,1379.91 2212.36,1379.91 2214.49,1379.91 2216.62,1379.91 2218.74,1379.92 2220.87,1379.92 2223,1379.92 2225.12,1379.92 
  2227.25,1379.92 2229.38,1379.92 2231.51,1379.92 2233.63,1379.93 2235.76,1379.93 2237.89,1379.93 2240.01,1379.93 2242.14,1379.93 2244.27,1379.93 2246.4,1379.93 
  2248.52,1379.93 2250.65,1379.94 2252.78,1379.94 2254.91,1379.94 2257.03,1379.94 2259.16,1379.94 2261.29,1379.94 2263.41,1379.94 2265.54,1379.94 2267.67,1379.94 
  2269.8,1379.94 2271.92,1379.95 2274.05,1379.95 2276.18,1379.95 2278.3,1379.95 2280.43,1379.95 2282.56,1379.95 2284.69,1379.95 2286.81,1379.95 2288.94,1379.95 
  2291.07,1379.95 2293.19,1379.96 2295.32,1379.96 2297.45,1379.96 2299.58,1379.96 2301.7,1379.96 2303.83,1379.96 2305.96,1379.96 2308.08,1379.96 2310.21,1379.96 
  2312.34,1379.96 2314.47,1379.96 2316.59,1379.96 2318.72,1379.96 2320.85,1379.97 2322.98,1379.97 2325.1,1379.97 2327.23,1379.97 2329.36,1379.97 2331.48,1379.97 
  2333.61,1379.97 2335.74,1379.97 2337.87,1379.97 2339.99,1379.97 2342.12,1379.97 2344.25,1379.97 2346.37,1379.97 2348.5,1379.97 2350.63,1379.97 2352.76,1379.97 
  
  "/>
<polyline clip-path="url(#clip6302)" style="stroke:#e26f46; stroke-width:4; stroke-opacity:1; fill:none" points="
  227.691,1371.61 229.819,1371.26 231.946,1370.91 234.073,1370.54 236.2,1370.15 238.327,1369.75 240.455,1369.33 242.582,1368.9 244.709,1368.44 246.836,1367.97 
  248.963,1367.48 251.09,1366.97 253.218,1366.44 255.345,1365.89 257.472,1365.32 259.599,1364.72 261.726,1364.1 263.854,1363.45 265.981,1362.78 268.108,1362.08 
  270.235,1361.35 272.362,1360.6 274.49,1359.81 276.617,1358.99 278.744,1358.14 280.871,1357.25 282.998,1356.33 285.126,1355.37 287.253,1354.38 289.38,1353.34 
  291.507,1352.26 293.634,1351.14 295.762,1349.98 297.889,1348.77 300.016,1347.51 302.143,1346.2 304.27,1344.84 306.397,1343.42 308.525,1341.95 310.652,1340.43 
  312.779,1338.84 314.906,1337.19 317.033,1335.47 319.161,1333.69 321.288,1331.83 323.415,1329.91 325.542,1327.91 327.669,1325.83 329.797,1323.67 331.924,1321.43 
  334.051,1319.1 336.178,1316.69 338.305,1314.17 340.433,1311.57 342.56,1308.86 344.687,1306.05 346.814,1303.14 348.941,1300.11 351.068,1296.97 353.196,1293.71 
  355.323,1290.33 357.45,1286.82 359.577,1283.18 361.704,1279.41 363.832,1275.5 365.959,1271.45 368.086,1267.24 370.213,1262.89 372.34,1258.37 374.468,1253.7 
  376.595,1248.85 378.722,1243.84 380.849,1238.64 382.976,1233.26 385.104,1227.7 387.231,1221.94 389.358,1215.98 391.485,1209.82 393.612,1203.45 395.74,1196.87 
  397.867,1190.07 399.994,1183.04 402.121,1175.78 404.248,1168.28 406.375,1160.54 408.503,1152.55 410.63,1144.31 412.757,1135.81 414.884,1127.06 417.011,1118.03 
  419.139,1108.73 421.266,1099.16 423.393,1089.31 425.52,1079.18 427.647,1068.76 429.775,1058.05 431.902,1047.04 434.029,1035.74 436.156,1024.15 438.283,1012.25 
  440.411,1000.06 442.538,987.559 444.665,974.759 446.792,961.655 448.919,948.25 451.047,934.546 453.174,920.545 455.301,906.25 457.428,891.666 459.555,876.799 
  461.682,861.653 463.81,846.235 465.937,830.553 468.064,814.616 470.191,798.432 472.318,782.011 474.446,765.365 476.573,748.503 478.7,731.439 480.827,714.185 
  482.954,696.752 485.082,679.158 487.209,661.422 489.336,643.566 491.463,625.609 493.59,607.573 495.718,589.48 497.845,571.351 499.972,553.208 502.099,535.074 
  504.226,516.973 506.353,498.928 508.481,480.963 510.608,463.101 512.735,445.369 514.862,427.791 516.989,410.393 519.117,393.2 521.244,376.24 523.371,359.538 
  525.498,343.123 527.625,327.022 529.753,311.263 531.88,295.875 534.007,280.883 536.134,266.302 538.261,252.157 540.389,238.472 542.516,225.271 544.643,212.575 
  546.77,200.406 548.897,188.782 551.025,177.72 553.152,167.238 555.279,157.35 557.406,148.07 559.533,139.409 561.66,131.378 563.788,123.986 565.915,117.241 
  568.042,111.149 570.169,105.716 572.296,100.944 574.424,96.8364 576.551,93.3927 578.678,90.6126 580.805,88.4939 582.932,87.0329 585.06,86.2246 587.187,86.0626 
  589.314,86.5389 591.441,87.6442 593.568,89.3678 595.696,91.6976 597.823,94.6207 599.95,98.1318 602.077,102.217 604.204,106.86 606.331,112.043 608.459,117.749 
  610.586,123.96 612.713,130.658 614.84,137.827 616.967,145.449 619.095,153.507 621.222,161.984 623.349,170.861 625.476,180.121 627.603,189.748 629.731,199.724 
  631.858,210.03 633.985,220.651 636.112,231.567 638.239,242.763 640.367,254.22 642.494,265.921 644.621,277.848 646.748,289.984 648.875,302.312 651.003,314.813 
  653.13,327.471 655.257,340.268 657.384,353.186 659.511,366.208 661.638,379.322 663.766,392.514 665.893,405.774 668.02,419.088 670.147,432.446 672.274,445.835 
  674.402,459.245 676.529,472.666 678.656,486.087 680.783,499.498 682.91,512.89 685.038,526.254 687.165,539.581 689.292,552.862 691.419,566.089 693.546,579.254 
  695.674,592.351 697.801,605.372 699.928,618.31 702.055,631.159 704.182,643.912 706.31,656.565 708.437,669.112 710.564,681.548 712.691,693.868 714.818,706.068 
  716.945,718.144 719.073,730.092 721.2,741.91 723.327,753.594 725.454,765.142 727.581,776.552 729.709,787.821 731.836,798.949 733.963,809.934 736.09,820.775 
  738.217,831.473 740.345,842.024 742.472,852.426 744.599,862.681 746.726,872.787 748.853,882.744 750.981,892.553 753.108,902.213 755.235,911.725 757.362,921.089 
  759.489,930.305 761.616,939.374 763.744,948.296 765.871,957.072 767.998,965.703 770.125,974.189 772.252,982.53 774.38,990.729 776.507,998.785 778.634,1006.7 
  780.761,1014.48 782.888,1022.11 785.016,1029.61 787.143,1036.97 789.27,1044.2 791.397,1051.3 793.524,1058.26 795.652,1065.09 797.779,1071.8 799.906,1078.38 
  802.033,1084.83 804.16,1091.17 806.288,1097.38 808.415,1103.47 810.542,1109.45 812.669,1115.32 814.796,1121.07 816.923,1126.71 819.051,1132.24 821.178,1137.66 
  823.305,1142.97 825.432,1148.18 827.559,1153.29 829.687,1158.29 831.814,1163.18 833.941,1167.98 836.068,1172.68 838.195,1177.28 840.323,1181.79 842.45,1186.2 
  844.577,1190.52 846.704,1194.75 848.831,1198.88 850.959,1202.93 853.086,1206.89 855.213,1210.77 857.34,1214.56 859.467,1218.27 861.595,1221.9 863.722,1225.45 
  865.849,1228.92 867.976,1232.32 870.103,1235.64 872.23,1238.89 874.358,1242.06 876.485,1245.17 878.612,1248.21 880.739,1251.18 882.866,1254.08 884.994,1256.92 
  887.121,1259.7 889.248,1262.42 891.375,1265.08 893.502,1267.68 895.63,1270.23 897.757,1272.72 899.884,1275.16 902.011,1277.55 904.138,1279.89 906.266,1282.18 
  908.393,1284.42 910.52,1286.61 912.647,1288.75 914.774,1290.84 916.901,1292.89 919.029,1294.89 921.156,1296.85 923.283,1298.76 925.41,1300.63 927.537,1302.45 
  929.665,1304.24 931.792,1305.99 933.919,1307.69 936.046,1309.36 938.173,1310.99 940.301,1312.58 942.428,1314.14 944.555,1315.66 946.682,1317.14 948.809,1318.6 
  950.937,1320.02 953.064,1321.4 955.191,1322.76 957.318,1324.08 959.445,1325.38 961.573,1326.64 963.7,1327.88 965.827,1329.09 967.954,1330.27 970.081,1331.42 
  972.208,1332.55 974.336,1333.65 976.463,1334.73 978.59,1335.78 980.717,1336.81 982.844,1337.81 984.972,1338.8 987.099,1339.76 989.226,1340.69 991.353,1341.61 
  993.48,1342.51 995.608,1343.38 997.735,1344.23 999.862,1345.07 1001.99,1345.88 1004.12,1346.68 1006.24,1347.46 1008.37,1348.22 1010.5,1348.96 1012.63,1349.68 
  1014.75,1350.39 1016.88,1351.08 1019.01,1351.76 1021.13,1352.41 1023.26,1353.06 1025.39,1353.69 1027.52,1354.3 1029.64,1354.9 1031.77,1355.48 1033.9,1356.06 
  1036.02,1356.61 1038.15,1357.16 1040.28,1357.69 1042.41,1358.21 1044.53,1358.72 1046.66,1359.22 1048.79,1359.7 1050.91,1360.18 1053.04,1360.64 1055.17,1361.09 
  1057.3,1361.54 1059.42,1361.97 1061.55,1362.39 1063.68,1362.8 1065.8,1363.21 1067.93,1363.6 1070.06,1363.99 1072.19,1364.36 1074.31,1364.73 1076.44,1365.09 
  1078.57,1365.44 1080.7,1365.78 1082.82,1366.11 1084.95,1366.44 1087.08,1366.76 1089.2,1367.07 1091.33,1367.37 1093.46,1367.67 1095.59,1367.96 1097.71,1368.24 
  1099.84,1368.51 1101.97,1368.78 1104.09,1369.05 1106.22,1369.3 1108.35,1369.55 1110.48,1369.8 1112.6,1370.04 1114.73,1370.27 1116.86,1370.5 1118.98,1370.72 
  1121.11,1370.94 1123.24,1371.15 1125.37,1371.36 1127.49,1371.56 1129.62,1371.76 1131.75,1371.95 1133.88,1372.14 1136,1372.33 1138.13,1372.51 1140.26,1372.69 
  1142.38,1372.86 1144.51,1373.03 1146.64,1373.19 1148.77,1373.35 1150.89,1373.51 1153.02,1373.66 1155.15,1373.81 1157.27,1373.96 1159.4,1374.1 1161.53,1374.24 
  1163.66,1374.37 1165.78,1374.5 1167.91,1374.63 1170.04,1374.76 1172.16,1374.88 1174.29,1375 1176.42,1375.12 1178.55,1375.24 1180.67,1375.35 1182.8,1375.46 
  1184.93,1375.56 1187.05,1375.67 1189.18,1375.77 1191.31,1375.87 1193.44,1375.97 1195.56,1376.06 1197.69,1376.15 1199.82,1376.24 1201.95,1376.33 1204.07,1376.42 
  1206.2,1376.5 1208.33,1376.59 1210.45,1376.67 1212.58,1376.75 1214.71,1376.82 1216.84,1376.9 1218.96,1376.97 1221.09,1377.04 1223.22,1377.11 1225.34,1377.18 
  1227.47,1377.25 1229.6,1377.31 1231.73,1377.38 1233.85,1377.44 1235.98,1377.5 1238.11,1377.56 1240.23,1377.61 1242.36,1377.67 1244.49,1377.73 1246.62,1377.78 
  1248.74,1377.83 1250.87,1377.88 1253,1377.93 1255.12,1377.98 1257.25,1378.03 1259.38,1378.08 1261.51,1378.12 1263.63,1378.17 1265.76,1378.21 1267.89,1378.25 
  1270.02,1378.29 1272.14,1378.33 1274.27,1378.37 1276.4,1378.41 1278.52,1378.45 1280.65,1378.49 1282.78,1378.52 1284.91,1378.56 1287.03,1378.59 1289.16,1378.62 
  1291.29,1378.66 1293.41,1378.69 1295.54,1378.72 1297.67,1378.75 1299.8,1378.78 1301.92,1378.81 1304.05,1378.84 1306.18,1378.87 1308.3,1378.89 1310.43,1378.92 
  1312.56,1378.94 1314.69,1378.97 1316.81,1378.99 1318.94,1379.02 1321.07,1379.04 1323.2,1379.06 1325.32,1379.09 1327.45,1379.11 1329.58,1379.13 1331.7,1379.15 
  1333.83,1379.17 1335.96,1379.19 1338.09,1379.21 1340.21,1379.23 1342.34,1379.25 1344.47,1379.26 1346.59,1379.28 1348.72,1379.3 1350.85,1379.32 1352.98,1379.33 
  1355.1,1379.35 1357.23,1379.36 1359.36,1379.38 1361.48,1379.39 1363.61,1379.41 1365.74,1379.42 1367.87,1379.44 1369.99,1379.45 1372.12,1379.46 1374.25,1379.48 
  1376.37,1379.49 1378.5,1379.5 1380.63,1379.51 1382.76,1379.52 1384.88,1379.54 1387.01,1379.55 1389.14,1379.56 1391.27,1379.57 1393.39,1379.58 1395.52,1379.59 
  1397.65,1379.6 1399.77,1379.61 1401.9,1379.62 1404.03,1379.63 1406.16,1379.64 1408.28,1379.65 1410.41,1379.65 1412.54,1379.66 1414.66,1379.67 1416.79,1379.68 
  1418.92,1379.69 1421.05,1379.69 1423.17,1379.7 1425.3,1379.71 1427.43,1379.72 1429.55,1379.72 1431.68,1379.73 1433.81,1379.74 1435.94,1379.74 1438.06,1379.75 
  1440.19,1379.76 1442.32,1379.76 1444.45,1379.77 1446.57,1379.77 1448.7,1379.78 1450.83,1379.78 1452.95,1379.79 1455.08,1379.8 1457.21,1379.8 1459.34,1379.81 
  1461.46,1379.81 1463.59,1379.81 1465.72,1379.82 1467.84,1379.82 1469.97,1379.83 1472.1,1379.83 1474.23,1379.84 1476.35,1379.84 1478.48,1379.85 1480.61,1379.85 
  1482.73,1379.85 1484.86,1379.86 1486.99,1379.86 1489.12,1379.86 1491.24,1379.87 1493.37,1379.87 1495.5,1379.87 1497.62,1379.88 1499.75,1379.88 1501.88,1379.88 
  1504.01,1379.89 1506.13,1379.89 1508.26,1379.89 1510.39,1379.9 1512.52,1379.9 1514.64,1379.9 1516.77,1379.9 1518.9,1379.91 1521.02,1379.91 1523.15,1379.91 
  1525.28,1379.91 1527.41,1379.92 1529.53,1379.92 1531.66,1379.92 1533.79,1379.92 1535.91,1379.92 1538.04,1379.93 1540.17,1379.93 1542.3,1379.93 1544.42,1379.93 
  1546.55,1379.93 1548.68,1379.94 1550.8,1379.94 1552.93,1379.94 1555.06,1379.94 1557.19,1379.94 1559.31,1379.94 1561.44,1379.95 1563.57,1379.95 1565.69,1379.95 
  1567.82,1379.95 1569.95,1379.95 1572.08,1379.95 1574.2,1379.95 1576.33,1379.96 1578.46,1379.96 1580.59,1379.96 1582.71,1379.96 1584.84,1379.96 1586.97,1379.96 
  1589.09,1379.96 1591.22,1379.96 1593.35,1379.97 1595.48,1379.97 1597.6,1379.97 1599.73,1379.97 1601.86,1379.97 1603.98,1379.97 1606.11,1379.97 1608.24,1379.97 
  1610.37,1379.97 1612.49,1379.97 1614.62,1379.98 1616.75,1379.98 1618.87,1379.98 1621,1379.98 1623.13,1379.98 1625.26,1379.98 1627.38,1379.98 1629.51,1379.98 
  1631.64,1379.98 1633.77,1379.98 1635.89,1379.98 1638.02,1379.98 1640.15,1379.98 1642.27,1379.99 1644.4,1379.99 1646.53,1379.99 1648.66,1379.99 1650.78,1379.99 
  1652.91,1379.99 1655.04,1379.99 1657.16,1379.99 1659.29,1379.99 1661.42,1379.99 1663.55,1379.99 1665.67,1379.99 1667.8,1379.99 1669.93,1379.99 1672.05,1379.99 
  1674.18,1379.99 1676.31,1379.99 1678.44,1379.99 1680.56,1379.99 1682.69,1380 1684.82,1380 1686.94,1380 1689.07,1380 1691.2,1380 1693.33,1380 
  1695.45,1380 1697.58,1380 1699.71,1380 1701.84,1380 1703.96,1380 1706.09,1380 1708.22,1380 1710.34,1380 1712.47,1380 1714.6,1380 
  1716.73,1380 1718.85,1380 1720.98,1380 1723.11,1380 1725.23,1380 1727.36,1380 1729.49,1380 1731.62,1380 1733.74,1380 1735.87,1380 
  1738,1380 1740.12,1380 1742.25,1380 1744.38,1380 1746.51,1380 1748.63,1380 1750.76,1380 1752.89,1380 1755.02,1380 1757.14,1380 
  1759.27,1380.01 1761.4,1380.01 1763.52,1380.01 1765.65,1380.01 1767.78,1380.01 1769.91,1380.01 1772.03,1380.01 1774.16,1380.01 1776.29,1380.01 1778.41,1380.01 
  1780.54,1380.01 1782.67,1380.01 1784.8,1380.01 1786.92,1380.01 1789.05,1380.01 1791.18,1380.01 1793.3,1380.01 1795.43,1380.01 1797.56,1380.01 1799.69,1380.01 
  1801.81,1380.01 1803.94,1380.01 1806.07,1380.01 1808.19,1380.01 1810.32,1380.01 1812.45,1380.01 1814.58,1380.01 1816.7,1380.01 1818.83,1380.01 1820.96,1380.01 
  1823.09,1380.01 1825.21,1380.01 1827.34,1380.01 1829.47,1380.01 1831.59,1380.01 1833.72,1380.01 1835.85,1380.01 1837.98,1380.01 1840.1,1380.01 1842.23,1380.01 
  1844.36,1380.01 1846.48,1380.01 1848.61,1380.01 1850.74,1380.01 1852.87,1380.01 1854.99,1380.01 1857.12,1380.01 1859.25,1380.01 1861.37,1380.01 1863.5,1380.01 
  1865.63,1380.01 1867.76,1380.01 1869.88,1380.01 1872.01,1380.01 1874.14,1380.01 1876.26,1380.01 1878.39,1380.01 1880.52,1380.01 1882.65,1380.01 1884.77,1380.01 
  1886.9,1380.01 1889.03,1380.01 1891.16,1380.01 1893.28,1380.01 1895.41,1380.01 1897.54,1380.01 1899.66,1380.01 1901.79,1380.01 1903.92,1380.01 1906.05,1380.01 
  1908.17,1380.01 1910.3,1380.01 1912.43,1380.01 1914.55,1380.01 1916.68,1380.01 1918.81,1380.01 1920.94,1380.01 1923.06,1380.01 1925.19,1380.01 1927.32,1380.01 
  1929.44,1380.01 1931.57,1380.01 1933.7,1380.01 1935.83,1380.01 1937.95,1380.01 1940.08,1380.01 1942.21,1380.01 1944.34,1380.01 1946.46,1380.01 1948.59,1380.01 
  1950.72,1380.01 1952.84,1380.01 1954.97,1380.01 1957.1,1380.01 1959.23,1380.01 1961.35,1380.01 1963.48,1380.01 1965.61,1380.01 1967.73,1380.01 1969.86,1380.01 
  1971.99,1380.01 1974.12,1380.01 1976.24,1380.01 1978.37,1380.01 1980.5,1380.01 1982.62,1380.01 1984.75,1380.01 1986.88,1380.01 1989.01,1380.01 1991.13,1380.01 
  1993.26,1380.01 1995.39,1380.01 1997.51,1380.01 1999.64,1380.01 2001.77,1380.01 2003.9,1380.01 2006.02,1380.01 2008.15,1380.01 2010.28,1380.01 2012.41,1380.01 
  2014.53,1380.01 2016.66,1380.01 2018.79,1380.01 2020.91,1380.01 2023.04,1380.01 2025.17,1380.01 2027.3,1380.01 2029.42,1380.01 2031.55,1380.01 2033.68,1380.01 
  2035.8,1380.01 2037.93,1380.01 2040.06,1380.01 2042.19,1380.01 2044.31,1380.01 2046.44,1380.01 2048.57,1380.01 2050.69,1380.01 2052.82,1380.01 2054.95,1380.01 
  2057.08,1380.01 2059.2,1380.01 2061.33,1380.01 2063.46,1380.01 2065.59,1380.01 2067.71,1380.01 2069.84,1380.01 2071.97,1380.01 2074.09,1380.01 2076.22,1380.01 
  2078.35,1380.01 2080.48,1380.01 2082.6,1380.01 2084.73,1380.01 2086.86,1380.01 2088.98,1380.01 2091.11,1380.01 2093.24,1380.01 2095.37,1380.01 2097.49,1380.01 
  2099.62,1380.01 2101.75,1380.01 2103.87,1380.01 2106,1380.01 2108.13,1380.01 2110.26,1380.01 2112.38,1380.01 2114.51,1380.01 2116.64,1380.01 2118.76,1380.01 
  2120.89,1380.01 2123.02,1380.01 2125.15,1380.01 2127.27,1380.01 2129.4,1380.01 2131.53,1380.01 2133.66,1380.01 2135.78,1380.01 2137.91,1380.01 2140.04,1380.01 
  2142.16,1380.01 2144.29,1380.01 2146.42,1380.01 2148.55,1380.01 2150.67,1380.01 2152.8,1380.01 2154.93,1380.01 2157.05,1380.01 2159.18,1380.01 2161.31,1380.01 
  2163.44,1380.01 2165.56,1380.01 2167.69,1380.01 2169.82,1380.01 2171.94,1380.01 2174.07,1380.01 2176.2,1380.01 2178.33,1380.01 2180.45,1380.01 2182.58,1380.01 
  2184.71,1380.01 2186.83,1380.01 2188.96,1380.01 2191.09,1380.01 2193.22,1380.01 2195.34,1380.01 2197.47,1380.01 2199.6,1380.01 2201.73,1380.01 2203.85,1380.01 
  2205.98,1380.01 2208.11,1380.01 2210.23,1380.01 2212.36,1380.01 2214.49,1380.01 2216.62,1380.01 2218.74,1380.01 2220.87,1380.01 2223,1380.01 2225.12,1380.01 
  2227.25,1380.01 2229.38,1380.01 2231.51,1380.01 2233.63,1380.01 2235.76,1380.01 2237.89,1380.01 2240.01,1380.01 2242.14,1380.01 2244.27,1380.01 2246.4,1380.01 
  2248.52,1380.01 2250.65,1380.01 2252.78,1380.01 2254.91,1380.01 2257.03,1380.01 2259.16,1380.01 2261.29,1380.01 2263.41,1380.01 2265.54,1380.01 2267.67,1380.01 
  2269.8,1380.01 2271.92,1380.01 2274.05,1380.01 2276.18,1380.01 2278.3,1380.01 2280.43,1380.01 2282.56,1380.01 2284.69,1380.01 2286.81,1380.01 2288.94,1380.01 
  2291.07,1380.01 2293.19,1380.01 2295.32,1380.01 2297.45,1380.01 2299.58,1380.01 2301.7,1380.01 2303.83,1380.01 2305.96,1380.01 2308.08,1380.01 2310.21,1380.01 
  2312.34,1380.01 2314.47,1380.01 2316.59,1380.01 2318.72,1380.01 2320.85,1380.01 2322.98,1380.01 2325.1,1380.01 2327.23,1380.01 2329.36,1380.01 2331.48,1380.01 
  2333.61,1380.01 2335.74,1380.01 2337.87,1380.01 2339.99,1380.01 2342.12,1380.01 2344.25,1380.01 2346.37,1380.01 2348.5,1380.01 2350.63,1380.01 2352.76,1380.01 
  
  "/>
<path clip-path="url(#clip6300)" d="
M1978.33 312.204 L2280.76 312.204 L2280.76 130.764 L1978.33 130.764  Z
  " fill="#ffffff" fill-rule="evenodd" fill-opacity="1"/>
<polyline clip-path="url(#clip6300)" style="stroke:#000000; stroke-width:4; stroke-opacity:1; fill:none" points="
  1978.33,312.204 2280.76,312.204 2280.76,130.764 1978.33,130.764 1978.33,312.204 
  "/>
<polyline clip-path="url(#clip6300)" style="stroke:#009af9; stroke-width:4; stroke-opacity:1; fill:none" points="
  2002.33,191.244 2146.33,191.244 
  "/>
<g clip-path="url(#clip6300)">
<text style="fill:#000000; fill-opacity:1; font-family:Book Antiqua,Palatino,Palatino Linotype,Palatino LT STD,Georgia,serif; font-size:50px; text-anchor:start;" transform="rotate(0, 2170.33, 208.744)" x="2170.33" y="208.744">1.5</text>
</g>
<polyline clip-path="url(#clip6300)" style="stroke:#e26f46; stroke-width:4; stroke-opacity:1; fill:none" points="
  2002.33,251.724 2146.33,251.724 
  "/>
<g clip-path="url(#clip6300)">
<text style="fill:#000000; fill-opacity:1; font-family:Book Antiqua,Palatino,Palatino Linotype,Palatino LT STD,Georgia,serif; font-size:50px; text-anchor:start;" transform="rotate(0, 2170.33, 269.224)" x="2170.33" y="269.224">2.0</text>
</g>
</svg>
