<?xml version="1.0" encoding="utf-8"?>
<svg xmlns="http://www.w3.org/2000/svg" xmlns:xlink="http://www.w3.org/1999/xlink" width="600" height="400" viewBox="0 0 2400 1600">
<defs>
  <clipPath id="clip6000">
    <rect x="0" y="0" width="2400" height="1600"/>
  </clipPath>
</defs>
<path clip-path="url(#clip6000)" d="
M0 1600 L2400 1600 L2400 0 L0 0  Z
  " fill="#ffffff" fill-rule="evenodd" fill-opacity="1"/>
<defs>
  <clipPath id="clip6001">
    <rect x="480" y="0" width="1681" height="1600"/>
  </clipPath>
</defs>
<path clip-path="url(#clip6000)" d="
M229.135 1425.62 L2352.76 1425.62 L2352.76 47.2441 L229.135 47.2441  Z
  " fill="#ffffff" fill-rule="evenodd" fill-opacity="1"/>
<defs>
  <clipPath id="clip6002">
    <rect x="229" y="47" width="2125" height="1379"/>
  </clipPath>
</defs>
<polyline clip-path="url(#clip6002)" style="stroke:#000000; stroke-width:2; stroke-opacity:0.1; fill:none" points="
  229.135,1425.62 229.135,47.2441 
  "/>
<polyline clip-path="url(#clip6002)" style="stroke:#000000; stroke-width:2; stroke-opacity:0.1; fill:none" points="
  653.859,1425.62 653.859,47.2441 
  "/>
<polyline clip-path="url(#clip6002)" style="stroke:#000000; stroke-width:2; stroke-opacity:0.1; fill:none" points="
  1078.58,1425.62 1078.58,47.2441 
  "/>
<polyline clip-path="url(#clip6002)" style="stroke:#000000; stroke-width:2; stroke-opacity:0.1; fill:none" points="
  1503.31,1425.62 1503.31,47.2441 
  "/>
<polyline clip-path="url(#clip6002)" style="stroke:#000000; stroke-width:2; stroke-opacity:0.1; fill:none" points="
  1928.03,1425.62 1928.03,47.2441 
  "/>
<polyline clip-path="url(#clip6002)" style="stroke:#000000; stroke-width:2; stroke-opacity:0.1; fill:none" points="
  2352.76,1425.62 2352.76,47.2441 
  "/>
<polyline clip-path="url(#clip6002)" style="stroke:#000000; stroke-width:2; stroke-opacity:0.1; fill:none" points="
  229.135,1386.61 2352.76,1386.61 
  "/>
<polyline clip-path="url(#clip6002)" style="stroke:#000000; stroke-width:2; stroke-opacity:0.1; fill:none" points="
  229.135,1104.54 2352.76,1104.54 
  "/>
<polyline clip-path="url(#clip6002)" style="stroke:#000000; stroke-width:2; stroke-opacity:0.1; fill:none" points="
  229.135,822.463 2352.76,822.463 
  "/>
<polyline clip-path="url(#clip6002)" style="stroke:#000000; stroke-width:2; stroke-opacity:0.1; fill:none" points="
  229.135,540.391 2352.76,540.391 
  "/>
<polyline clip-path="url(#clip6002)" style="stroke:#000000; stroke-width:2; stroke-opacity:0.1; fill:none" points="
  229.135,258.319 2352.76,258.319 
  "/>
<polyline clip-path="url(#clip6000)" style="stroke:#000000; stroke-width:4; stroke-opacity:1; fill:none" points="
  229.135,1425.62 2352.76,1425.62 
  "/>
<polyline clip-path="url(#clip6000)" style="stroke:#000000; stroke-width:4; stroke-opacity:1; fill:none" points="
  229.135,1425.62 229.135,47.2441 
  "/>
<polyline clip-path="url(#clip6000)" style="stroke:#000000; stroke-width:4; stroke-opacity:1; fill:none" points="
  229.135,1425.62 229.135,1404.94 
  "/>
<polyline clip-path="url(#clip6000)" style="stroke:#000000; stroke-width:4; stroke-opacity:1; fill:none" points="
  653.859,1425.62 653.859,1404.94 
  "/>
<polyline clip-path="url(#clip6000)" style="stroke:#000000; stroke-width:4; stroke-opacity:1; fill:none" points="
  1078.58,1425.62 1078.58,1404.94 
  "/>
<polyline clip-path="url(#clip6000)" style="stroke:#000000; stroke-width:4; stroke-opacity:1; fill:none" points="
  1503.31,1425.62 1503.31,1404.94 
  "/>
<polyline clip-path="url(#clip6000)" style="stroke:#000000; stroke-width:4; stroke-opacity:1; fill:none" points="
  1928.03,1425.62 1928.03,1404.94 
  "/>
<polyline clip-path="url(#clip6000)" style="stroke:#000000; stroke-width:4; stroke-opacity:1; fill:none" points="
  2352.76,1425.62 2352.76,1404.94 
  "/>
<polyline clip-path="url(#clip6000)" style="stroke:#000000; stroke-width:4; stroke-opacity:1; fill:none" points="
  229.135,1386.61 260.99,1386.61 
  "/>
<polyline clip-path="url(#clip6000)" style="stroke:#000000; stroke-width:4; stroke-opacity:1; fill:none" points="
  229.135,1104.54 260.99,1104.54 
  "/>
<polyline clip-path="url(#clip6000)" style="stroke:#000000; stroke-width:4; stroke-opacity:1; fill:none" points="
  229.135,822.463 260.99,822.463 
  "/>
<polyline clip-path="url(#clip6000)" style="stroke:#000000; stroke-width:4; stroke-opacity:1; fill:none" points="
  229.135,540.391 260.99,540.391 
  "/>
<polyline clip-path="url(#clip6000)" style="stroke:#000000; stroke-width:4; stroke-opacity:1; fill:none" points="
  229.135,258.319 260.99,258.319 
  "/>
<g clip-path="url(#clip6000)">
<text style="fill:#000000; fill-opacity:1; font-family:Arial,Helvetica Neue,Helvetica,sans-serif; font-size:48px; text-anchor:middle;" transform="rotate(0, 229.135, 1479.62)" x="229.135" y="1479.62">0</text>
</g>
<g clip-path="url(#clip6000)">
<text style="fill:#000000; fill-opacity:1; font-family:Arial,Helvetica Neue,Helvetica,sans-serif; font-size:48px; text-anchor:middle;" transform="rotate(0, 653.859, 1479.62)" x="653.859" y="1479.62">200</text>
</g>
<g clip-path="url(#clip6000)">
<text style="fill:#000000; fill-opacity:1; font-family:Arial,Helvetica Neue,Helvetica,sans-serif; font-size:48px; text-anchor:middle;" transform="rotate(0, 1078.58, 1479.62)" x="1078.58" y="1479.62">400</text>
</g>
<g clip-path="url(#clip6000)">
<text style="fill:#000000; fill-opacity:1; font-family:Arial,Helvetica Neue,Helvetica,sans-serif; font-size:48px; text-anchor:middle;" transform="rotate(0, 1503.31, 1479.62)" x="1503.31" y="1479.62">600</text>
</g>
<g clip-path="url(#clip6000)">
<text style="fill:#000000; fill-opacity:1; font-family:Arial,Helvetica Neue,Helvetica,sans-serif; font-size:48px; text-anchor:middle;" transform="rotate(0, 1928.03, 1479.62)" x="1928.03" y="1479.62">800</text>
</g>
<g clip-path="url(#clip6000)">
<text style="fill:#000000; fill-opacity:1; font-family:Arial,Helvetica Neue,Helvetica,sans-serif; font-size:48px; text-anchor:middle;" transform="rotate(0, 2352.76, 1479.62)" x="2352.76" y="1479.62">1000</text>
</g>
<g clip-path="url(#clip6000)">
<text style="fill:#000000; fill-opacity:1; font-family:Arial,Helvetica Neue,Helvetica,sans-serif; font-size:48px; text-anchor:end;" transform="rotate(0, 205.135, 1404.11)" x="205.135" y="1404.11">0</text>
</g>
<g clip-path="url(#clip6000)">
<text style="fill:#000000; fill-opacity:1; font-family:Arial,Helvetica Neue,Helvetica,sans-serif; font-size:48px; text-anchor:end;" transform="rotate(0, 205.135, 1122.04)" x="205.135" y="1122.04">200</text>
</g>
<g clip-path="url(#clip6000)">
<text style="fill:#000000; fill-opacity:1; font-family:Arial,Helvetica Neue,Helvetica,sans-serif; font-size:48px; text-anchor:end;" transform="rotate(0, 205.135, 839.963)" x="205.135" y="839.963">400</text>
</g>
<g clip-path="url(#clip6000)">
<text style="fill:#000000; fill-opacity:1; font-family:Arial,Helvetica Neue,Helvetica,sans-serif; font-size:48px; text-anchor:end;" transform="rotate(0, 205.135, 557.891)" x="205.135" y="557.891">600</text>
</g>
<g clip-path="url(#clip6000)">
<text style="fill:#000000; fill-opacity:1; font-family:Arial,Helvetica Neue,Helvetica,sans-serif; font-size:48px; text-anchor:end;" transform="rotate(0, 205.135, 275.819)" x="205.135" y="275.819">800</text>
</g>
<g clip-path="url(#clip6000)">
<text style="fill:#000000; fill-opacity:1; font-family:Arial,Helvetica Neue,Helvetica,sans-serif; font-size:66px; text-anchor:middle;" transform="rotate(0, 1290.95, 1559.48)" x="1290.95" y="1559.48">final number recovered</text>
</g>
<g clip-path="url(#clip6000)">
<text style="fill:#000000; fill-opacity:1; font-family:Arial,Helvetica Neue,Helvetica,sans-serif; font-size:66px; text-anchor:middle;" transform="rotate(-90, 89.2861, 736.431)" x="89.2861" y="736.431">number of runs</text>
</g>
<path clip-path="url(#clip6002)" d="
M1758.14 1378.15 L1758.14 1386.61 L1779.38 1386.61 L1779.38 1378.15 L1758.14 1378.15 L1758.14 1378.15  Z
  " fill="#009af9" fill-rule="evenodd" fill-opacity="1"/>
<polyline clip-path="url(#clip6002)" style="stroke:#000000; stroke-width:4; stroke-opacity:1; fill:none" points="
  1758.14,1378.15 1758.14,1386.61 1779.38,1386.61 1779.38,1378.15 1758.14,1378.15 
  "/>
<path clip-path="url(#clip6002)" d="
M1779.38 1362.63 L1779.38 1386.61 L1800.61 1386.61 L1800.61 1362.63 L1779.38 1362.63 L1779.38 1362.63  Z
  " fill="#009af9" fill-rule="evenodd" fill-opacity="1"/>
<polyline clip-path="url(#clip6002)" style="stroke:#000000; stroke-width:4; stroke-opacity:1; fill:none" points="
  1779.38,1362.63 1779.38,1386.61 1800.61,1386.61 1800.61,1362.63 1779.38,1362.63 
  "/>
<path clip-path="url(#clip6002)" d="
M1800.61 1309.04 L1800.61 1386.61 L1821.85 1386.61 L1821.85 1309.04 L1800.61 1309.04 L1800.61 1309.04  Z
  " fill="#009af9" fill-rule="evenodd" fill-opacity="1"/>
<polyline clip-path="url(#clip6002)" style="stroke:#000000; stroke-width:4; stroke-opacity:1; fill:none" points="
  1800.61,1309.04 1800.61,1386.61 1821.85,1386.61 1821.85,1309.04 1800.61,1309.04 
  "/>
<path clip-path="url(#clip6002)" d="
M1821.85 1241.34 L1821.85 1386.61 L1843.09 1386.61 L1843.09 1241.34 L1821.85 1241.34 L1821.85 1241.34  Z
  " fill="#009af9" fill-rule="evenodd" fill-opacity="1"/>
<polyline clip-path="url(#clip6002)" style="stroke:#000000; stroke-width:4; stroke-opacity:1; fill:none" points="
  1821.85,1241.34 1821.85,1386.61 1843.09,1386.61 1843.09,1241.34 1821.85,1241.34 
  "/>
<path clip-path="url(#clip6002)" d="
M1843.09 1007.22 L1843.09 1386.61 L1864.32 1386.61 L1864.32 1007.22 L1843.09 1007.22 L1843.09 1007.22  Z
  " fill="#009af9" fill-rule="evenodd" fill-opacity="1"/>
<polyline clip-path="url(#clip6002)" style="stroke:#000000; stroke-width:4; stroke-opacity:1; fill:none" points="
  1843.09,1007.22 1843.09,1386.61 1864.32,1386.61 1864.32,1007.22 1843.09,1007.22 
  "/>
<path clip-path="url(#clip6002)" d="
M1864.32 764.639 L1864.32 1386.61 L1885.56 1386.61 L1885.56 764.639 L1864.32 764.639 L1864.32 764.639  Z
  " fill="#009af9" fill-rule="evenodd" fill-opacity="1"/>
<polyline clip-path="url(#clip6002)" style="stroke:#000000; stroke-width:4; stroke-opacity:1; fill:none" points="
  1864.32,764.639 1864.32,1386.61 1885.56,1386.61 1885.56,764.639 1864.32,764.639 
  "/>
<path clip-path="url(#clip6002)" d="
M1885.56 431.793 L1885.56 1386.61 L1906.8 1386.61 L1906.8 431.793 L1885.56 431.793 L1885.56 431.793  Z
  " fill="#009af9" fill-rule="evenodd" fill-opacity="1"/>
<polyline clip-path="url(#clip6002)" style="stroke:#000000; stroke-width:4; stroke-opacity:1; fill:none" points="
  1885.56,431.793 1885.56,1386.61 1906.8,1386.61 1906.8,431.793 1885.56,431.793 
  "/>
<path clip-path="url(#clip6002)" d="
M1906.8 158.183 L1906.8 1386.61 L1928.03 1386.61 L1928.03 158.183 L1906.8 158.183 L1906.8 158.183  Z
  " fill="#009af9" fill-rule="evenodd" fill-opacity="1"/>
<polyline clip-path="url(#clip6002)" style="stroke:#000000; stroke-width:4; stroke-opacity:1; fill:none" points="
  1906.8,158.183 1906.8,1386.61 1928.03,1386.61 1928.03,158.183 1906.8,158.183 
  "/>
<path clip-path="url(#clip6002)" d="
M1928.03 86.2547 L1928.03 1386.61 L1949.27 1386.61 L1949.27 86.2547 L1928.03 86.2547 L1928.03 86.2547  Z
  " fill="#009af9" fill-rule="evenodd" fill-opacity="1"/>
<polyline clip-path="url(#clip6002)" style="stroke:#000000; stroke-width:4; stroke-opacity:1; fill:none" points="
  1928.03,86.2547 1928.03,1386.61 1949.27,1386.61 1949.27,86.2547 1928.03,86.2547 
  "/>
<path clip-path="url(#clip6002)" d="
M1949.27 303.45 L1949.27 1386.61 L1970.5 1386.61 L1970.5 303.45 L1949.27 303.45 L1949.27 303.45  Z
  " fill="#009af9" fill-rule="evenodd" fill-opacity="1"/>
<polyline clip-path="url(#clip6002)" style="stroke:#000000; stroke-width:4; stroke-opacity:1; fill:none" points="
  1949.27,303.45 1949.27,1386.61 1970.5,1386.61 1970.5,303.45 1949.27,303.45 
  "/>
<path clip-path="url(#clip6002)" d="
M1970.5 698.352 L1970.5 1386.61 L1991.74 1386.61 L1991.74 698.352 L1970.5 698.352 L1970.5 698.352  Z
  " fill="#009af9" fill-rule="evenodd" fill-opacity="1"/>
<polyline clip-path="url(#clip6002)" style="stroke:#000000; stroke-width:4; stroke-opacity:1; fill:none" points="
  1970.5,698.352 1970.5,1386.61 1991.74,1386.61 1991.74,698.352 1970.5,698.352 
  "/>
<path clip-path="url(#clip6002)" d="
M1991.74 1005.81 L1991.74 1386.61 L2012.98 1386.61 L2012.98 1005.81 L1991.74 1005.81 L1991.74 1005.81  Z
  " fill="#009af9" fill-rule="evenodd" fill-opacity="1"/>
<polyline clip-path="url(#clip6002)" style="stroke:#000000; stroke-width:4; stroke-opacity:1; fill:none" points="
  1991.74,1005.81 1991.74,1386.61 2012.98,1386.61 2012.98,1005.81 1991.74,1005.81 
  "/>
<path clip-path="url(#clip6002)" d="
M2012.98 1269.55 L2012.98 1386.61 L2034.21 1386.61 L2034.21 1269.55 L2012.98 1269.55 L2012.98 1269.55  Z
  " fill="#009af9" fill-rule="evenodd" fill-opacity="1"/>
<polyline clip-path="url(#clip6002)" style="stroke:#000000; stroke-width:4; stroke-opacity:1; fill:none" points="
  2012.98,1269.55 2012.98,1386.61 2034.21,1386.61 2034.21,1269.55 2012.98,1269.55 
  "/>
<path clip-path="url(#clip6002)" d="
M2034.21 1351.35 L2034.21 1386.61 L2055.45 1386.61 L2055.45 1351.35 L2034.21 1351.35 L2034.21 1351.35  Z
  " fill="#009af9" fill-rule="evenodd" fill-opacity="1"/>
<polyline clip-path="url(#clip6002)" style="stroke:#000000; stroke-width:4; stroke-opacity:1; fill:none" points="
  2034.21,1351.35 2034.21,1386.61 2055.45,1386.61 2055.45,1351.35 2034.21,1351.35 
  "/>
<path clip-path="url(#clip6002)" d="
M2055.45 1379.56 L2055.45 1386.61 L2076.69 1386.61 L2076.69 1379.56 L2055.45 1379.56 L2055.45 1379.56  Z
  " fill="#009af9" fill-rule="evenodd" fill-opacity="1"/>
<polyline clip-path="url(#clip6002)" style="stroke:#000000; stroke-width:4; stroke-opacity:1; fill:none" points="
  2055.45,1379.56 2055.45,1386.61 2076.69,1386.61 2076.69,1379.56 2055.45,1379.56 
  "/>
</svg>
