<svg height="239.971pt" viewBox="0 0 166.813 239.971" width="166.813pt" xmlns="http://www.w3.org/2000/svg" xmlns:xlink="http://www.w3.org/1999/xlink"><clipPath id="a"><path d="m5 230h4v9.972656h-4zm0 0"/></clipPath><clipPath id="b"><path d="m14 230h3v9.972656h-3zm0 0"/></clipPath><symbol id="c" overflow="visible"><path d="m2.03125-3.359375v-1.125l-1.65625.078125v.46875c.609375 0 .6875 0 .6875.390625v3.078125h-.6875v.46875c.34375-.015625.796875-.03125 1.25-.03125.375 0 1.015625 0 1.375.03125v-.46875h-.859375v-1.75c0-.6875.234375-1.90625 1.234375-1.90625 0 .015625-.1875.171875-.1875.453125 0 .40625.328125.609375.609375.609375.296875 0 .609375-.203125.609375-.609375 0-.53125-.53125-.8125-1.0625-.8125-.6875 0-1.09375.5-1.3125 1.125zm0 0"/></symbol><symbol id="d" overflow="visible"><path d="m3.296875 2.390625c0-.03125 0-.046875-.171875-.21875-1.234375-1.25-1.5625-3.140625-1.5625-4.671875 0-1.734375.375-3.46875 1.609375-4.703125.125-.125.125-.140625.125-.171875 0-.078125-.03125-.109375-.09375-.109375-.109375 0-1 .6875-1.59375 1.953125-.5 1.09375-.625 2.203125-.625 3.03125 0 .78125.109375 1.984375.65625 3.125.609375 1.21875 1.453125 1.875 1.5625 1.875.0625 0 .09375-.03125.09375-.109375zm0 0"/></symbol><symbol id="e" overflow="visible"><path d="m2.875-2.5c0-.765625-.109375-1.96875-.65625-3.109375-.59375-1.21875-1.453125-1.875-1.546875-1.875-.0625 0-.109375.046875-.109375.109375 0 .03125 0 .046875.1875.234375.984375.984375 1.546875 2.5625 1.546875 4.640625 0 1.71875-.359375 3.46875-1.59375 4.71875-.140625.125-.140625.140625-.140625.171875 0 .0625.046875.109375.109375.109375.09375 0 1-.6875 1.578125-1.953125.515625-1.09375.625-2.203125.625-3.046875zm0 0"/></symbol><symbol id="f" overflow="visible"><path d="m4.078125-2.296875h2.78125c.140625 0 .328125 0 .328125-.203125 0-.1875-.1875-.1875-.328125-.1875h-2.78125v-2.796875c0-.140625 0-.328125-.203125-.328125s-.203125.1875-.203125.328125v2.796875h-2.78125c-.140625 0-.328125 0-.328125.1875 0 .203125.1875.203125.328125.203125h2.78125v2.796875c0 .140625 0 .328125.203125.328125s.203125-.1875.203125-.328125zm0 0"/></symbol><symbol id="g" overflow="visible"><path d="m4.40625-6.953125c-.0625-.140625-.09375-.1875-.265625-.1875-.15625 0-.1875.046875-.25.1875l-3.375 6.75c-.046875.09375-.046875.109375-.046875.125 0 .078125.0625.078125.21875.078125h6.921875c.15625 0 .21875 0 .21875-.078125 0-.015625 0-.03125-.046875-.125zm-.578125.8125 2.6875 5.390625h-5.375zm0 0"/></symbol><symbol id="h" overflow="visible"><path d="m3.71875-3.765625c-.1875-.375-.46875-.640625-.921875-.640625-1.15625 0-2.390625 1.46875-2.390625 2.921875 0 .9375.546875 1.59375 1.3125 1.59375.203125 0 .703125-.046875 1.296875-.75.078125.421875.4375.75.90625.75.359375 0 .578125-.234375.75-.546875.15625-.359375.296875-.96875.296875-.984375 0-.109375-.09375-.109375-.125-.109375-.09375 0-.109375.046875-.140625.1875-.171875.640625-.34375 1.234375-.75 1.234375-.28125 0-.296875-.265625-.296875-.453125 0-.21875.015625-.3125.125-.75.109375-.40625.125-.515625.21875-.890625l.359375-1.390625c.0625-.28125.0625-.296875.0625-.34375 0-.171875-.109375-.265625-.28125-.265625-.25 0-.390625.21875-.421875.4375zm-.640625 2.578125c-.0625.1875-.0625.203125-.203125.375-.4375.546875-.84375.703125-1.125.703125-.5 0-.640625-.546875-.640625-.9375 0-.5.3125-1.71875.546875-2.1875.3125-.578125.75-.953125 1.15625-.953125.640625 0 .78125.8125.78125.875s-.015625.125-.03125.171875zm0 0"/></symbol><symbol id="i" overflow="visible"><path d="m2.375-6.8125s0-.109375-.125-.109375c-.21875 0-.953125.078125-1.21875.109375-.078125 0-.1875.015625-.1875.1875 0 .125.09375.125.25.125.46875 0 .484375.0625.484375.171875 0 .0625-.078125.40625-.125.609375l-.828125 3.25c-.109375.5-.15625.671875-.15625 1.015625 0 .9375.53125 1.5625 1.265625 1.5625 1.171875 0 2.40625-1.484375 2.40625-2.921875 0-.90625-.53125-1.59375-1.328125-1.59375-.453125 0-.875.296875-1.171875.59375zm-.921875 3.765625c.046875-.21875.046875-.234375.140625-.34375.484375-.640625.9375-.796875 1.203125-.796875.359375 0 .625.296875.625.9375 0 .59375-.328125 1.734375-.515625 2.109375-.328125.671875-.78125 1.03125-1.171875 1.03125-.34375 0-.671875-.265625-.671875-1 0-.203125 0-.390625.15625-1.015625zm0 0"/></symbol><symbol id="j" overflow="visible"><path d="m2.046875-3.984375h.9375c.203125 0 .3125 0 .3125-.203125 0-.109375-.109375-.109375-.28125-.109375h-.875c.359375-1.421875.40625-1.609375.40625-1.671875 0-.171875-.125-.265625-.296875-.265625-.03125 0-.3125 0-.390625.359375l-.390625 1.578125h-.9375c-.203125 0-.296875 0-.296875.1875 0 .125.078125.125.28125.125h.875c-.71875 2.828125-.765625 3-.765625 3.171875 0 .546875.375.921875.921875.921875 1.015625 0 1.578125-1.453125 1.578125-1.53125 0-.109375-.078125-.109375-.109375-.109375-.09375 0-.109375.03125-.15625.140625-.421875 1.046875-.953125 1.28125-1.296875 1.28125-.203125 0-.3125-.125-.3125-.453125 0-.25.03125-.3125.0625-.484375zm0 0"/></symbol><symbol id="k" overflow="visible"><path d="m3.65625-3.984375h.859375c.203125 0 .296875 0 .296875-.203125 0-.109375-.09375-.109375-.265625-.109375h-.828125l.203125-1.140625c.046875-.203125.1875-.90625.25-1.03125.078125-.1875.25-.34375.46875-.34375.03125 0 .296875 0 .484375.1875-.4375.03125-.546875.390625-.546875.53125 0 .234375.1875.359375.375.359375.265625 0 .546875-.234375.546875-.609375 0-.453125-.453125-.6875-.859375-.6875-.34375 0-.96875.1875-1.265625 1.171875-.0625.203125-.09375.3125-.328125 1.5625h-.6875c-.203125 0-.3125 0-.3125.1875 0 .125.09375.125.28125.125h.65625l-.734375 3.9375c-.1875.96875-.359375 1.875-.875 1.875-.046875 0-.28125 0-.484375-.1875.46875-.03125.5625-.390625.5625-.53125 0-.234375-.1875-.359375-.375-.359375-.265625 0-.546875.234375-.546875.609375 0 .4375.4375.6875.84375.6875.546875 0 .953125-.59375 1.125-.96875.328125-.625.546875-1.828125.5625-1.90625zm0 0"/></symbol><symbol id="l" overflow="visible"><path d="m7.78125-6.59375c.015625-.03125.046875-.09375.046875-.140625 0-.0625-.015625-.078125-.234375-.078125h-6.890625c-.21875 0-.234375.015625-.234375.078125 0 .046875.03125.109375.046875.140625l3.359375 6.734375c.078125.125.109375.1875.265625.1875.171875 0 .203125-.0625.28125-.1875zm-6.078125.5h5.46875l-2.71875 5.484375zm0 0"/></symbol><symbol id="m" overflow="visible"><path d="m2.015625-3.296875c.0625-.109375.0625-.171875.0625-.21875 0-.21875-.1875-.375-.40625-.375-.265625 0-.34375.21875-.375.328125l-.921875 3.015625c-.015625.015625-.046875.09375-.046875.109375 0 .078125.21875.15625.28125.15625.046875 0 .046875-.015625.09375-.125zm0 0"/></symbol><path d="m187.176875 453.099031c-26.019531 109.726563 153.839844 129.710938 147.804687 211.910156" fill="none" stroke="#000" stroke-linejoin="round" stroke-miterlimit="10" stroke-width=".4" transform="matrix(1 0 0 -1 -178.88 678.892)"/><path d="m10.09375 225.792969c0-.996094-.804688-1.800781-1.796875-1.800781-.996094 0-1.800781.804687-1.800781 1.800781 0 .992187.804687 1.800781 1.800781 1.800781.992187 0 1.796875-.808594 1.796875-1.800781" fill-rule="evenodd"/><path d="m157.902344 13.882812c0-.992187-.804688-1.800781-1.800782-1.800781-.992187 0-1.796874.808594-1.796874 1.800781 0 .996094.804687 1.800782 1.796874 1.800782.996094 0 1.800782-.804688 1.800782-1.800782" fill-rule="evenodd"/><use xlink:href="#c" y="237.48"/><g clip-path="url(#a)"><use x="4.718" xlink:href="#d" y="237.48"/></g><use x="8.593" xlink:href="#h" y="237.48"/><g clip-path="url(#b)"><use x="13.859" xlink:href="#e" y="237.48"/></g><use x="150.07" xlink:href="#c" y="7.472"/><use x="154.788" xlink:href="#d" y="7.472"/><use x="158.663" xlink:href="#i" y="7.472"/><use x="162.938" xlink:href="#e" y="7.472"/><path d="m65.285156 117.628906c0-.992187-.804687-1.800781-1.800781-1.800781-.992187 0-1.800781.808594-1.800781 1.800781 0 .996094.808594 1.800782 1.800781 1.800782.996094 0 1.800781-.804688 1.800781-1.800782" fill-rule="evenodd"/><path d="m94.519531 96.933594c0-.996094-.804687-1.800782-1.800781-1.800782-.992188 0-1.800781.804688-1.800781 1.800782s.808593 1.800781 1.800781 1.800781c.996094 0 1.800781-.804687 1.800781-1.800781" fill-rule="evenodd"/><use x="59.857" xlink:href="#c" y="129.75"/><use x="64.575" xlink:href="#d" y="129.75"/><use x="68.45" xlink:href="#j" y="129.75"/><use x="72.047" xlink:href="#e" y="129.75"/><use x="98.6" xlink:href="#c" y="100.908"/><use x="103.318" xlink:href="#d" y="100.908"/><use x="107.193" xlink:href="#j" y="100.908"/><use x="113.004" xlink:href="#f" y="100.908"/><use x="122.964607" xlink:href="#g" y="100.908"/><use x="131.269" xlink:href="#j" y="100.908"/><use x="134.867" xlink:href="#e" y="100.908"/><path d="m242.364375 561.263094 60.738281 1.140625" fill="none" stroke="#2e8b57" stroke-linejoin="round" stroke-miterlimit="10" stroke-width=".4" transform="matrix(1 0 0 -1 -178.88 678.892)"/><g fill="#2e8b57"><path d="m303.102656 562.403719-7.042969 2.199218.085938-4.660156zm0 0" fill-rule="evenodd" stroke="#2e8b57" stroke-linejoin="round" stroke-miterlimit="10" stroke-width=".4" transform="matrix(1 0 0 -1 -178.88 678.892)"/><use x="104.023" xlink:href="#l" y="129.815"/><use x="112.325" xlink:href="#k" y="129.815"/></g><path d="m242.364375 561.263094 29.234375 20.695312" fill="none" stroke="#8b0000" stroke-linejoin="round" stroke-miterlimit="10" stroke-width=".4" transform="matrix(1 0 0 -1 -178.88 678.892)"/><path d="m271.59875 581.958406-7.058594-2.140625 2.691406-3.808594zm0 0" style="fill-rule:evenodd;fill:#8b0000;stroke-width:.4;stroke-linejoin:round;stroke:#8b0000;stroke-miterlimit:10" transform="matrix(1 0 0 -1 -178.88 678.892)"/><use x="98.6" xlink:href="#c" y="100.908"/><use x="103.318" xlink:href="#d" y="100.908"/><use x="107.193" xlink:href="#j" y="100.908"/><use x="113.004" xlink:href="#f" y="100.908"/><use x="122.964607" xlink:href="#g" y="100.908"/><use x="131.269" xlink:href="#j" y="100.908"/><use x="134.867" xlink:href="#e" y="100.908"/><g fill="#8b0000"><use x="51.756" xlink:href="#c" y="99.616"/><use x="56.474" xlink:href="#m" y="96.001"/><use x="59.269" xlink:href="#d" y="99.616"/><use x="63.144" xlink:href="#j" y="99.616"/><use x="66.741" xlink:href="#e" y="99.616"/><use x="70.615455" xlink:href="#g" y="99.616"/><use x="78.918" xlink:href="#j" y="99.616"/></g></svg>