<svg height="205.101pt" viewBox="0 0 279.594 205.101" width="279.594pt" xmlns="http://www.w3.org/2000/svg" xmlns:xlink="http://www.w3.org/1999/xlink"><clipPath id="a"><path d="m42 195h3v10.101562h-3zm0 0"/></clipPath><clipPath id="b"><path d="m61 195h3v10.101562h-3zm0 0"/></clipPath><clipPath id="c"><path d="m245 20h34.59375v8h-34.59375zm0 0"/></clipPath><symbol id="d" overflow="visible"><path d="m1.578125-.78125c-.09375.390625-.109375.46875-.90625.46875-.15625 0-.265625 0-.265625.1875 0 .125.078125.125.265625.125h3.3125c2.0625 0 4.03125-2.109375 4.03125-4.28125 0-1.40625-.84375-2.53125-2.34375-2.53125h-3.34375c-.1875 0-.296875 0-.296875.1875 0 .125.078125.125.28125.125.125 0 .3125.015625.421875.015625.171875.03125.21875.046875.21875.171875 0 .03125 0 .0625-.03125.1875zm2.15625-5.34375c.09375-.34375.109375-.375.546875-.375h1.0625c.96875 0 1.796875.53125 1.796875 1.84375 0 .484375-.1875 2.125-1.046875 3.21875-.28125.375-1.0625 1.125-2.296875 1.125h-1.125c-.140625 0-.15625 0-.21875 0-.09375-.015625-.125-.03125-.125-.109375 0-.03125 0-.046875.046875-.21875zm0 0"/></symbol><symbol id="e" overflow="visible"><path d="m3.65625-3.984375h.859375c.203125 0 .296875 0 .296875-.203125 0-.109375-.09375-.109375-.265625-.109375h-.828125l.203125-1.140625c.046875-.203125.1875-.90625.25-1.03125.078125-.1875.25-.34375.46875-.34375.03125 0 .296875 0 .484375.1875-.4375.03125-.546875.390625-.546875.53125 0 .234375.1875.359375.375.359375.265625 0 .546875-.234375.546875-.609375 0-.453125-.453125-.6875-.859375-.6875-.34375 0-.96875.1875-1.265625 1.171875-.0625.203125-.09375.3125-.328125 1.5625h-.6875c-.203125 0-.3125 0-.3125.1875 0 .125.09375.125.28125.125h.65625l-.734375 3.9375c-.1875.96875-.359375 1.875-.875 1.875-.046875 0-.28125 0-.484375-.1875.46875-.03125.5625-.390625.5625-.53125 0-.234375-.1875-.359375-.375-.359375-.265625 0-.546875.234375-.546875.609375 0 .4375.4375.6875.84375.6875.546875 0 .953125-.59375 1.125-.96875.328125-.625.546875-1.828125.5625-1.90625zm0 0"/></symbol><symbol id="f" overflow="visible"><path d="m3.328125-3.015625c.0625-.25.296875-1.171875.984375-1.171875.046875 0 .296875 0 .5.125-.28125.0625-.46875.296875-.46875.546875 0 .15625.109375.34375.375.34375.21875 0 .53125-.171875.53125-.578125 0-.515625-.578125-.65625-.921875-.65625-.578125 0-.921875.53125-1.046875.75-.25-.65625-.78125-.75-1.078125-.75-1.03125 0-1.609375 1.28125-1.609375 1.53125 0 .109375.109375.109375.125.109375.078125 0 .109375-.03125.125-.109375.34375-1.0625 1-1.3125 1.34375-1.3125.1875 0 .53125.09375.53125.671875 0 .3125-.171875.96875-.53125 2.375-.15625.609375-.515625 1.03125-.953125 1.03125-.0625 0-.28125 0-.5-.125.25-.0625.46875-.265625.46875-.546875 0-.265625-.21875-.34375-.359375-.34375-.3125 0-.546875.25-.546875.578125 0 .453125.484375.65625.921875.65625.671875 0 1.03125-.703125 1.046875-.75.125.359375.484375.75 1.078125.75 1.03125 0 1.59375-1.28125 1.59375-1.53125 0-.109375-.078125-.109375-.109375-.109375-.09375 0-.109375.046875-.140625.109375-.328125 1.078125-1 1.3125-1.3125 1.3125-.390625 0-.546875-.3125-.546875-.65625 0-.21875.046875-.4375.15625-.875zm0 0"/></symbol><symbol id="g" overflow="visible"><path d="m2.03125-.015625c0-.65625-.25-1.046875-.640625-1.046875-.328125 0-.53125.25-.53125.53125 0 .265625.203125.53125.53125.53125.109375 0 .25-.046875.34375-.125.03125-.03125.046875-.03125.046875-.03125.015625 0 .015625 0 .015625.140625 0 .75-.34375 1.34375-.671875 1.671875-.109375.109375-.109375.125-.109375.15625 0 .078125.046875.109375.09375.109375.109375 0 .921875-.765625.921875-1.9375zm0 0"/></symbol><symbol id="h" overflow="visible"><path d="m4.84375-3.796875c.046875-.140625.046875-.15625.046875-.234375 0-.171875-.140625-.265625-.296875-.265625-.09375 0-.25.0625-.34375.203125-.015625.0625-.109375.359375-.140625.546875-.078125.25-.140625.53125-.203125.796875l-.453125 1.796875c-.03125.140625-.46875.84375-1.125.84375-.5 0-.609375-.4375-.609375-.8125 0-.453125.171875-1.078125.5-1.953125.15625-.40625.203125-.515625.203125-.71875 0-.4375-.3125-.8125-.8125-.8125-.953125 0-1.3125 1.453125-1.3125 1.53125 0 .109375.09375.109375.109375.109375.109375 0 .109375-.03125.15625-.1875.28125-.9375.671875-1.234375 1.015625-1.234375.078125 0 .25 0 .25.3125 0 .25-.109375.515625-.171875.703125-.40625 1.0625-.578125 1.625-.578125 2.09375 0 .890625.625 1.1875 1.21875 1.1875.390625 0 .71875-.171875 1-.453125-.125.515625-.25 1.015625-.640625 1.546875-.265625.328125-.640625.625-1.09375.625-.140625 0-.59375-.03125-.765625-.421875.15625 0 .296875 0 .421875-.125.109375-.078125.203125-.21875.203125-.40625 0-.3125-.265625-.34375-.359375-.34375-.234375 0-.5625.15625-.5625.640625 0 .5.4375.875 1.0625.875 1.015625 0 2.046875-.90625 2.328125-2.03125zm0 0"/></symbol><symbol id="i" overflow="visible"><path d="m3.78125-.546875v.65625l1.46875-.109375v-.3125c-.6875 0-.78125-.0625-.78125-.5625v-6.046875l-1.421875.109375v.3125c.6875 0 .765625.0625.765625.5625v2.15625c-.28125-.359375-.71875-.625-1.25-.625-1.171875 0-2.21875.984375-2.21875 2.265625 0 1.265625.96875 2.25 2.109375 2.25.640625 0 1.078125-.34375 1.328125-.65625zm0-2.671875v2.046875c0 .171875 0 .1875-.109375.359375-.296875.484375-.734375.703125-1.171875.703125-.453125 0-.8125-.265625-1.046875-.640625-.25-.40625-.28125-.96875-.28125-1.390625 0-.359375.015625-.953125.296875-1.40625.21875-.3125.59375-.640625 1.140625-.640625.34375 0 .765625.15625 1.0625.59375.109375.171875.109375.1875.109375.375zm0 0"/></symbol><symbol id="j" overflow="visible"><path d="m1.765625-4.40625-1.390625.109375v.3125c.640625 0 .734375.0625.734375.546875v2.6875c0 .4375-.109375.4375-.78125.4375v.3125c.3125-.015625.859375-.03125 1.09375-.03125.359375 0 .703125.015625 1.046875.03125v-.3125c-.671875 0-.703125-.046875-.703125-.4375zm.03125-1.734375c0-.3125-.234375-.53125-.515625-.53125-.3125 0-.53125.265625-.53125.53125s.21875.53125.53125.53125c.28125 0 .515625-.21875.515625-.53125zm0 0"/></symbol><symbol id="k" overflow="visible"><path d="m1.671875-3.3125v-1.09375l-1.390625.109375v.3125c.703125 0 .78125.0625.78125.5625v2.671875c0 .4375-.109375.4375-.78125.4375v.3125c.390625-.015625.859375-.03125 1.140625-.03125.390625 0 .859375 0 1.265625.03125v-.3125h-.21875c-.734375 0-.75-.109375-.75-.46875v-1.53125c0-.984375.421875-1.875 1.171875-1.875.0625 0 .09375 0 .109375.015625-.03125 0-.234375.125-.234375.390625s.21875.421875.4375.421875c.171875 0 .421875-.125.421875-.4375s-.3125-.609375-.734375-.609375c-.734375 0-1.09375.671875-1.21875 1.09375zm0 0"/></symbol><symbol id="l" overflow="visible"><path d="m1.109375-2.515625c.0625-1.484375.90625-1.734375 1.25-1.734375 1.015625 0 1.125 1.34375 1.125 1.734375zm0 .21875h2.78125c.21875 0 .25 0 .25-.21875 0-.984375-.546875-1.953125-1.78125-1.953125-1.15625 0-2.078125 1.03125-2.078125 2.28125 0 1.328125 1.046875 2.296875 2.1875 2.296875 1.21875 0 1.671875-1.109375 1.671875-1.296875 0-.09375-.078125-.125-.140625-.125-.078125 0-.109375.0625-.125.140625-.34375 1.03125-1.25 1.03125-1.34375 1.03125-.5 0-.890625-.296875-1.125-.671875-.296875-.46875-.296875-1.125-.296875-1.484375zm0 0"/></symbol><symbol id="m" overflow="visible"><path d="m1.171875-2.171875c0-1.625.8125-2.046875 1.34375-2.046875.09375 0 .71875.015625 1.0625.375-.40625.03125-.46875.328125-.46875.453125 0 .265625.1875.453125.453125.453125s.46875-.15625.46875-.46875c0-.671875-.765625-1.0625-1.53125-1.0625-1.25 0-2.15625 1.078125-2.15625 2.3125 0 1.28125.984375 2.265625 2.140625 2.265625 1.328125 0 1.65625-1.203125 1.65625-1.296875s-.109375-.09375-.140625-.09375c-.078125 0-.109375.03125-.125.09375-.28125.921875-.9375 1.046875-1.296875 1.046875-.53125 0-1.40625-.421875-1.40625-2.03125zm0 0"/></symbol><symbol id="n" overflow="visible"><path d="m1.71875-3.984375h1.4375v-.3125h-1.4375v-1.828125h-.25c0 .8125-.296875 1.875-1.28125 1.921875v.21875h.84375v2.75c0 1.21875.9375 1.34375 1.296875 1.34375.703125 0 .984375-.703125.984375-1.34375v-.5625h-.25v.546875c0 .734375-.296875 1.109375-.671875 1.109375-.671875 0-.671875-.90625-.671875-1.078125zm0 0"/></symbol><symbol id="o" overflow="visible"><path d="m4.6875-2.140625c0-1.265625-.984375-2.328125-2.1875-2.328125-1.25 0-2.21875 1.09375-2.21875 2.328125 0 1.296875 1.03125 2.25 2.203125 2.25 1.203125 0 2.203125-.984375 2.203125-2.25zm-2.1875 2c-.4375 0-.875-.203125-1.140625-.671875-.25-.4375-.25-1.046875-.25-1.40625 0-.390625 0-.921875.234375-1.359375.265625-.453125.734375-.671875 1.140625-.671875.4375 0 .859375.21875 1.125.65625.265625.421875.265625 1 .265625 1.375 0 .359375 0 .90625-.21875 1.34375-.234375.453125-.671875.734375-1.15625.734375zm0 0"/></symbol><symbol id="p" overflow="visible"><path d="m1.09375-3.421875v2.671875c0 .4375-.109375.4375-.78125.4375v.3125c.359375-.015625.859375-.03125 1.140625-.03125.25 0 .765625.015625 1.109375.03125v-.3125c-.671875 0-.78125 0-.78125-.4375v-1.84375c0-1.03125.71875-1.59375 1.34375-1.59375.640625 0 .75.53125.75 1.109375v2.328125c0 .4375-.109375.4375-.78125.4375v.3125c.34375-.015625.859375-.03125 1.125-.03125.25 0 .78125.015625 1.109375.03125v-.3125c-.515625 0-.765625 0-.765625-.296875v-1.90625c0-.859375 0-1.15625-.3125-1.515625-.140625-.171875-.46875-.375-1.046875-.375-.734375 0-1.203125.421875-1.484375 1.046875v-1.046875l-1.40625.109375v.3125c.703125 0 .78125.0625.78125.5625zm0 0"/></symbol><symbol id="q" overflow="visible"><path d="m2.078125-1.9375c.21875.046875 1.03125.203125 1.03125.921875 0 .5-.34375.90625-1.125.90625-.84375 0-1.203125-.5625-1.390625-1.421875-.03125-.125-.03125-.15625-.140625-.15625-.125 0-.125.0625-.125.234375v1.328125c0 .171875 0 .234375.109375.234375.046875 0 .0625-.015625.25-.203125.015625-.015625.015625-.03125.203125-.21875.4375.40625.890625.421875 1.09375.421875 1.140625 0 1.609375-.671875 1.609375-1.390625 0-.515625-.296875-.828125-.421875-.9375-.328125-.328125-.71875-.40625-1.140625-.484375-.5625-.109375-1.21875-.234375-1.21875-.8125 0-.359375.25-.765625 1.109375-.765625 1.09375 0 1.15625.90625 1.171875 1.203125 0 .09375.09375.09375.109375.09375.140625 0 .140625-.046875.140625-.234375v-1.015625c0-.15625 0-.234375-.109375-.234375-.046875 0-.078125 0-.203125.125-.03125.03125-.125.125-.171875.15625-.375-.28125-.78125-.28125-.9375-.28125-1.21875 0-1.59375.671875-1.59375 1.234375 0 .34375.15625.625.421875.84375.328125.25.609375.3125 1.328125.453125zm0 0"/></symbol><symbol id="r" overflow="visible"><path d="m1.75-4.296875v-1.15625c0-.875.46875-1.359375.90625-1.359375.03125 0 .1875 0 .328125.078125-.109375.03125-.296875.171875-.296875.421875 0 .21875.15625.421875.4375.421875s.4375-.203125.4375-.4375c0-.375-.375-.703125-.90625-.703125-.6875 0-1.546875.53125-1.546875 1.59375v1.140625h-.78125v.3125h.78125v3.234375c0 .4375-.109375.4375-.765625.4375v.3125c.390625-.015625.859375-.03125 1.125-.03125.40625 0 .875 0 1.265625.03125v-.3125h-.203125c-.734375 0-.75-.109375-.75-.46875v-3.203125h1.125v-.3125zm0 0"/></symbol><symbol id="s" overflow="visible"><path d="m3.3125-.75c.046875.390625.3125.8125.78125.8125.21875 0 .828125-.140625.828125-.953125v-.5625h-.25v.5625c0 .578125-.25.640625-.359375.640625-.328125 0-.375-.453125-.375-.5v-1.984375c0-.421875 0-.8125-.359375-1.1875-.390625-.390625-.890625-.546875-1.359375-.546875-.828125 0-1.515625.46875-1.515625 1.125 0 .296875.203125.46875.46875.46875.28125 0 .453125-.203125.453125-.453125 0-.125-.046875-.453125-.515625-.453125.28125-.359375.765625-.46875 1.078125-.46875.5 0 1.0625.390625 1.0625 1.28125v.359375c-.515625.03125-1.203125.0625-1.828125.359375-.75.34375-1 .859375-1 1.296875 0 .8125.96875 1.0625 1.59375 1.0625.65625 0 1.109375-.40625 1.296875-.859375zm-.0625-1.640625v1c0 .9375-.71875 1.28125-1.171875 1.28125-.484375 0-.890625-.34375-.890625-.84375 0-.546875.421875-1.375 2.0625-1.4375zm0 0"/></symbol><symbol id="t" overflow="visible"><path d="m3.296875 2.390625c0-.03125 0-.046875-.171875-.21875-1.234375-1.25-1.5625-3.140625-1.5625-4.671875 0-1.734375.375-3.46875 1.609375-4.703125.125-.125.125-.140625.125-.171875 0-.078125-.03125-.109375-.09375-.109375-.109375 0-1 .6875-1.59375 1.953125-.5 1.09375-.625 2.203125-.625 3.03125 0 .78125.109375 1.984375.65625 3.125.609375 1.21875 1.453125 1.875 1.5625 1.875.0625 0 .09375-.03125.09375-.109375zm0 0"/></symbol><symbol id="u" overflow="visible"><path d="m2.875-2.5c0-.765625-.109375-1.96875-.65625-3.109375-.59375-1.21875-1.453125-1.875-1.546875-1.875-.0625 0-.109375.046875-.109375.109375 0 .03125 0 .046875.1875.234375.984375.984375 1.546875 2.5625 1.546875 4.640625 0 1.71875-.359375 3.46875-1.59375 4.71875-.140625.125-.140625.140625-.140625.171875 0 .0625.046875.109375.109375.109375.09375 0 1-.6875 1.578125-1.953125.515625-1.09375.625-2.203125.625-3.046875zm0 0"/></symbol><symbol id="v" overflow="visible"><path d="m7.78125-6.59375c.015625-.03125.046875-.09375.046875-.140625 0-.0625-.015625-.078125-.234375-.078125h-6.890625c-.21875 0-.234375.015625-.234375.078125 0 .046875.03125.109375.046875.140625l3.359375 6.734375c.078125.125.109375.1875.265625.1875.171875 0 .203125-.0625.28125-.1875zm-6.078125.5h5.46875l-2.71875 5.484375zm0 0"/></symbol><path d="m306.666594 568.000188c45.332031 18.667968 93.332031 61.332031 77.332031 90.667968-16 29.332032-96 45.332032-149.332031 42.664063-53.332032-2.664063-80-24-88-45.332031-8-21.332032 2.667968-42.667969 10.667968-58.667969s13.332032-26.664063 37.332032-34.664063 66.667968-13.335937 112 5.332032zm0 0" style="fill-rule:evenodd;fill:#00008b;fill-opacity:.3;stroke-width:1.2;stroke-linejoin:round;stroke:#000;stroke-opacity:.3;stroke-miterlimit:10" transform="matrix(1 0 0 -1 -142.733 726.883)"/><use fill="#00008b" x="33.267" xlink:href="#d" y="102.883"/><path d="m154.279875 560.429875 74.519531 7.363281" fill="none" stroke="#000" stroke-linejoin="round" stroke-miterlimit="10" stroke-width="1.2" transform="matrix(1 0 0 -1 -142.733 726.883)"/><path d="m50.488281 162.785156c0-.996094-.808593-1.800781-1.800781-1.800781-.996094 0-1.800781.804687-1.800781 1.800781 0 .992188.804687 1.800782 1.800781 1.800782.992188 0 1.800781-.808594 1.800781-1.800782" fill="#2e8b57" fill-rule="evenodd"/><path d="m187.041594 561.859563-9.027344-6.023438" fill="none" stroke="#8b0000" stroke-linejoin="round" stroke-miterlimit="10" stroke-width="1.2" transform="matrix(1 0 0 -1 -142.733 726.883)"/><path d="m178.01425 555.836125 5.085937 1.390625-1.851562 2.769531zm0 0" style="fill-rule:evenodd;fill:#8b0000;stroke-width:1.2;stroke-linejoin:round;stroke:#8b0000;stroke-miterlimit:10" transform="matrix(1 0 0 -1 -142.733 726.883)"/><path d="m189.615812 560.484563-3.085937-10.8125" fill="none" stroke="#8b0000" stroke-linejoin="round" stroke-miterlimit="10" stroke-width="1.2" transform="matrix(1 0 0 -1 -142.733 726.883)"/><path d="m186.529875 549.672063 2.972656 4.351562-3.203125.914063zm0 0" style="fill-rule:evenodd;fill:#8b0000;stroke-width:1.2;stroke-linejoin:round;stroke:#8b0000;stroke-miterlimit:10" transform="matrix(1 0 0 -1 -142.733 726.883)"/><path d="m193.221281 560.828313 5.820313-8.886719" fill="none" stroke="#8b0000" stroke-linejoin="round" stroke-miterlimit="10" stroke-width="1.2" transform="matrix(1 0 0 -1 -142.733 726.883)"/><path d="m199.041594 551.941594-1.347657 5.09375-2.785156-1.824219zm0 0" style="fill-rule:evenodd;fill:#8b0000;stroke-width:1.2;stroke-linejoin:round;stroke:#8b0000;stroke-miterlimit:10" transform="matrix(1 0 0 -1 -142.733 726.883)"/><path d="m194.596281 562.031438 11.582031-.722657" fill="none" stroke="#8b0000" stroke-linejoin="round" stroke-miterlimit="10" stroke-width="1.2" transform="matrix(1 0 0 -1 -142.733 726.883)"/><path d="m206.178312 561.308781-4.886718 1.972657-.207032-3.324219zm0 0" style="fill-rule:evenodd;fill:#8b0000;stroke-width:1.2;stroke-linejoin:round;stroke:#8b0000;stroke-miterlimit:10" transform="matrix(1 0 0 -1 -142.733 726.883)"/><g fill="#8b0000"><use x="60.443" xlink:href="#i" y="180.298"/><use x="65.978221" xlink:href="#j" y="180.298"/><use x="68.745831" xlink:href="#k" y="180.298"/><use x="72.648181" xlink:href="#l" y="180.298"/><use x="77.075561" xlink:href="#m" y="180.298"/><use x="81.50294" xlink:href="#n" y="180.298"/><use x="85.377395" xlink:href="#j" y="180.298"/><use x="88.145006" xlink:href="#o" y="180.298"/><use x="93.126306" xlink:href="#p" y="180.298"/><use x="98.661526" xlink:href="#q" y="180.298"/></g><g fill="#8b0000"><use x="105.908321" xlink:href="#o" y="180.298"/><use x="110.889621" xlink:href="#r" y="180.298"/></g><g fill="#8b0000"><use x="117.2617" xlink:href="#j" y="180.298"/><use x="120.029311" xlink:href="#p" y="180.298"/><use x="125.564531" xlink:href="#m" y="180.298"/><use x="129.991911" xlink:href="#k" y="180.298"/><use x="133.894261" xlink:href="#l" y="180.298"/><use x="138.32164" xlink:href="#s" y="180.298"/><use x="143.30294" xlink:href="#q" y="180.298"/><use x="147.23219" xlink:href="#l" y="180.298"/></g><path d="m191.4205 564.097844 3.34375-29.183594" fill="none" stroke="#2e8b57" stroke-linejoin="round" stroke-miterlimit="10" stroke-width="1.2" transform="matrix(1 0 0 -1 -142.733 726.883)"/><path d="m194.76425 534.91425 1.519531 7.21875-4.628906-.53125zm0 0" style="fill-rule:evenodd;fill:#2e8b57;stroke-width:1.2;stroke-linejoin:round;stroke:#2e8b57;stroke-miterlimit:10" transform="matrix(1 0 0 -1 -142.733 726.883)"/><use fill="#2e8b57" x="27.177" xlink:href="#v" y="202.61"/><use fill="#2e8b57" x="35.479" xlink:href="#e" y="202.61"/><g clip-path="url(#a)"><use fill="#2e8b57" x="41.429" xlink:href="#t" y="202.61"/></g><g fill="#2e8b57"><use x="45.304" xlink:href="#f" y="202.61"/><use x="50.997626" xlink:href="#g" y="202.61"/></g><use fill="#2e8b57" x="55.42899" xlink:href="#h" y="202.61"/><g clip-path="url(#b)"><use fill="#2e8b57" x="60.667" xlink:href="#u" y="202.61"/></g><g stroke-linejoin="round" stroke-miterlimit="10" stroke-width="1.2" transform="matrix(1 0 0 -1 -142.733 726.883)"><path d="m309.57675 695.144719 3.621094 18.210937" fill="none" stroke="#2e8b57"/><path d="m313.197844 713.355656-3.652344-6.410156 4.574219-.910156zm0 0" fill="#2e8b57" fill-rule="evenodd" stroke="#2e8b57"/><path d="m280.061125 702.136906 58.882812-12.808593" fill="none" stroke="#000"/><path d="m315.1705 696.558781 12.488281 1.117188" fill="none" stroke="#8b0000"/><path d="m327.658781 697.675969-5.125 1.214844.296875-3.316407zm0 0" fill="#8b0000" fill-rule="evenodd" stroke="#8b0000"/><path d="m313.037687 698.488469 8.632813 8.125" fill="none" stroke="#8b0000"/><path d="m321.6705 706.613469-4.785156-2.214844 2.285156-2.421875zm0 0" fill="#8b0000" fill-rule="evenodd" stroke="#8b0000"/><path d="m307.959562 699.605656-3.554687 11.78125" fill="none" stroke="#8b0000"/><path d="m304.404875 711.386906-.148438-5.269531 3.1875.964844zm0 0" fill="#8b0000" fill-rule="evenodd" stroke="#8b0000"/><path d="m304.608 698.183781-8.835938 8.226563" fill="none" stroke="#8b0000"/><path d="m295.772062 706.410344 2.523438-4.625 2.273437 2.4375zm0 0" fill="#8b0000" fill-rule="evenodd" stroke="#8b0000"/></g><g fill="#8b0000"><use x="188.38" xlink:href="#i" y="26.971"/><use x="193.915221" xlink:href="#j" y="26.971"/><use x="196.682831" xlink:href="#k" y="26.971"/><use x="200.585181" xlink:href="#l" y="26.971"/><use x="205.012561" xlink:href="#m" y="26.971"/><use x="209.43994" xlink:href="#n" y="26.971"/><use x="213.314395" xlink:href="#j" y="26.971"/><use x="216.082006" xlink:href="#o" y="26.971"/><use x="221.063306" xlink:href="#p" y="26.971"/><use x="226.598526" xlink:href="#q" y="26.971"/></g><g fill="#8b0000"><use x="233.845321" xlink:href="#o" y="26.971"/><use x="238.826621" xlink:href="#r" y="26.971"/></g><g clip-path="url(#c)"><g fill="#8b0000"><use x="245.1987" xlink:href="#j" y="26.971"/><use x="247.966311" xlink:href="#p" y="26.971"/><use x="253.501531" xlink:href="#m" y="26.971"/><use x="257.928911" xlink:href="#k" y="26.971"/><use x="261.831261" xlink:href="#l" y="26.971"/><use x="266.25864" xlink:href="#s" y="26.971"/><use x="271.23994" xlink:href="#q" y="26.971"/><use x="275.16919" xlink:href="#l" y="26.971"/></g></g><g fill="#2e8b57"><use x="164.718" xlink:href="#v" y="7.472"/><use x="173.02" xlink:href="#e" y="7.472"/><use x="178.97" xlink:href="#t" y="7.472"/><use x="182.845" xlink:href="#f" y="7.472"/><use x="188.538626" xlink:href="#g" y="7.472"/><use x="192.96999" xlink:href="#h" y="7.472"/><use x="198.208" xlink:href="#u" y="7.472"/><path d="m168.730469 31.421875c0-.992187-.804688-1.800781-1.800781-1.800781-.992188 0-1.800782.808594-1.800782 1.800781 0 .996094.808594 1.800781 1.800782 1.800781.996093 0 1.800781-.804687 1.800781-1.800781" fill-rule="evenodd"/><use x="152.4" xlink:href="#t" y="43.53"/><use x="156.274" xlink:href="#f" y="43.53"/><use x="161.967626" xlink:href="#g" y="43.53"/><use x="166.39899" xlink:href="#h" y="43.53"/><use x="171.638" xlink:href="#u" y="43.53"/><use x="40.645" xlink:href="#t" y="155.552"/><use x="44.519" xlink:href="#f" y="155.552"/><use x="50.212626" xlink:href="#g" y="155.552"/><use x="54.64399" xlink:href="#h" y="155.552"/><use x="59.883" xlink:href="#u" y="155.552"/></g></svg>