<svg height="304.284pt" viewBox="0 0 284.199 304.284" width="284.199pt" xmlns="http://www.w3.org/2000/svg" xmlns:xlink="http://www.w3.org/1999/xlink"><clipPath id="a"><path d="m56 109h2v195.285156h-2zm0 0"/></clipPath><symbol id="b" overflow="visible"><path d="m3.71875-3.765625c-.1875-.375-.46875-.640625-.921875-.640625-1.15625 0-2.390625 1.46875-2.390625 2.921875 0 .9375.546875 1.59375 1.3125 1.59375.203125 0 .703125-.046875 1.296875-.75.078125.421875.4375.75.90625.75.359375 0 .578125-.234375.75-.546875.15625-.359375.296875-.96875.296875-.984375 0-.109375-.09375-.109375-.125-.109375-.09375 0-.109375.046875-.140625.1875-.171875.640625-.34375 1.234375-.75 1.234375-.28125 0-.296875-.265625-.296875-.453125 0-.21875.015625-.3125.125-.75.109375-.40625.125-.515625.21875-.890625l.359375-1.390625c.0625-.28125.0625-.296875.0625-.34375 0-.171875-.109375-.265625-.28125-.265625-.25 0-.390625.21875-.421875.4375zm-.640625 2.578125c-.0625.1875-.0625.203125-.203125.375-.4375.546875-.84375.703125-1.125.703125-.5 0-.640625-.546875-.640625-.9375 0-.5.3125-1.71875.546875-2.1875.3125-.578125.75-.953125 1.15625-.953125.640625 0 .78125.8125.78125.875s-.015625.125-.03125.171875zm0 0"/></symbol><symbol id="c" overflow="visible"><path d="m2.375-6.8125s0-.109375-.125-.109375c-.21875 0-.953125.078125-1.21875.109375-.078125 0-.1875.015625-.1875.1875 0 .125.09375.125.25.125.46875 0 .484375.0625.484375.171875 0 .0625-.078125.40625-.125.609375l-.828125 3.25c-.109375.5-.15625.671875-.15625 1.015625 0 .9375.53125 1.5625 1.265625 1.5625 1.171875 0 2.40625-1.484375 2.40625-2.921875 0-.90625-.53125-1.59375-1.328125-1.59375-.453125 0-.875.296875-1.171875.59375zm-.921875 3.765625c.046875-.21875.046875-.234375.140625-.34375.484375-.640625.9375-.796875 1.203125-.796875.359375 0 .625.296875.625.9375 0 .59375-.328125 1.734375-.515625 2.109375-.328125.671875-.78125 1.03125-1.171875 1.03125-.34375 0-.671875-.265625-.671875-1 0-.203125 0-.390625.15625-1.015625zm0 0"/></symbol><symbol id="d" overflow="visible"><path d="m2.03125-.015625c0-.65625-.25-1.046875-.640625-1.046875-.328125 0-.53125.25-.53125.53125 0 .265625.203125.53125.53125.53125.109375 0 .25-.046875.34375-.125.03125-.03125.046875-.03125.046875-.03125.015625 0 .015625 0 .015625.140625 0 .75-.34375 1.34375-.671875 1.671875-.109375.109375-.109375.125-.109375.15625 0 .078125.046875.109375.09375.109375.109375 0 .921875-.765625.921875-1.9375zm0 0"/></symbol><symbol id="e" overflow="visible"><path d="m3.734375-6.03125c.078125-.359375.109375-.46875 1.046875-.46875.296875 0 .375 0 .375-.1875 0-.125-.109375-.125-.15625-.125-.328125 0-1.140625.03125-1.46875.03125-.296875 0-1.03125-.03125-1.328125-.03125-.0625 0-.1875 0-.1875.203125 0 .109375.09375.109375.28125.109375.015625 0 .203125 0 .375.015625.171875.03125.265625.03125.265625.171875 0 .03125 0 .0625-.03125.1875l-1.34375 5.34375c-.09375.390625-.109375.46875-.90625.46875-.171875 0-.265625 0-.265625.203125 0 .109375.09375.109375.265625.109375h4.625c.234375 0 .234375 0 .296875-.171875l.796875-2.15625c.03125-.109375.03125-.125.03125-.140625 0-.03125-.03125-.109375-.109375-.109375-.09375 0-.109375.0625-.171875.21875-.34375.90625-.78125 2.046875-2.5 2.046875h-.9375c-.140625 0-.171875 0-.21875 0-.109375-.015625-.140625-.03125-.140625-.109375 0-.03125 0-.046875.046875-.21875zm0 0"/></symbol><symbol id="f" overflow="visible"><path d="m3.953125-3.78125c-.171875 0-.296875 0-.4375.125-.171875.15625-.1875.328125-.1875.390625 0 .25.1875.359375.375.359375.28125 0 .546875-.25.546875-.640625 0-.484375-.46875-.859375-1.171875-.859375-1.34375 0-2.671875 1.421875-2.671875 2.828125 0 .90625.578125 1.6875 1.625 1.6875 1.421875 0 2.25-1.0625 2.25-1.171875 0-.0625-.046875-.140625-.109375-.140625s-.078125.03125-.140625.109375c-.78125.984375-1.875.984375-1.984375.984375-.625 0-.90625-.484375-.90625-1.09375 0-.40625.203125-1.375.546875-1.984375.3125-.578125.859375-1 1.40625-1 .328125 0 .71875.125.859375.40625zm0 0"/></symbol><symbol id="g" overflow="visible"><path d="m3.296875 2.390625c0-.03125 0-.046875-.171875-.21875-1.234375-1.25-1.5625-3.140625-1.5625-4.671875 0-1.734375.375-3.46875 1.609375-4.703125.125-.125.125-.140625.125-.171875 0-.078125-.03125-.109375-.09375-.109375-.109375 0-1 .6875-1.59375 1.953125-.5 1.09375-.625 2.203125-.625 3.03125 0 .78125.109375 1.984375.65625 3.125.609375 1.21875 1.453125 1.875 1.5625 1.875.0625 0 .09375-.03125.09375-.109375zm0 0"/></symbol><symbol id="h" overflow="visible"><path d="m2.875-2.5c0-.765625-.109375-1.96875-.65625-3.109375-.59375-1.21875-1.453125-1.875-1.546875-1.875-.0625 0-.109375.046875-.109375.109375 0 .03125 0 .046875.1875.234375.984375.984375 1.546875 2.5625 1.546875 4.640625 0 1.71875-.359375 3.46875-1.59375 4.71875-.140625.125-.140625.140625-.140625.171875 0 .0625.046875.109375.109375.109375.09375 0 1-.6875 1.578125-1.953125.515625-1.09375.625-2.203125.625-3.046875zm0 0"/></symbol><symbol id="i" overflow="visible"><path d="m4.078125-2.296875h2.78125c.140625 0 .328125 0 .328125-.203125 0-.1875-.1875-.1875-.328125-.1875h-2.78125v-2.796875c0-.140625 0-.328125-.203125-.328125s-.203125.1875-.203125.328125v2.796875h-2.78125c-.140625 0-.328125 0-.328125.1875 0 .203125.1875.203125.328125.203125h2.78125v2.796875c0 .140625 0 .328125.203125.328125s.203125-.1875.203125-.328125zm0 0"/></symbol><symbol id="j" overflow="visible"><path d="m6.25 0v-.25c-.453125 0-.515625 0-.515625-.296875v-1.5625c0-.609375-.3125-.96875-1.046875-.96875-.5625 0-.9375.296875-1.125.65625-.140625-.5-.515625-.65625-1.015625-.65625-.578125 0-.9375.3125-1.140625.6875v-.6875l-1.03125.078125v.25c.46875 0 .53125.046875.53125.390625v1.8125c0 .296875-.078125.296875-.53125.296875v.25s.5-.03125.796875-.03125c.25 0 .734375.03125.796875.03125v-.25c-.453125 0-.515625 0-.515625-.296875v-1.265625c0-.71875.578125-1.0625 1.03125-1.0625.484375 0 .546875.375.546875.734375v1.59375c0 .296875-.0625.296875-.515625.296875v.25s.5-.03125.796875-.03125c.25 0 .734375.03125.796875.03125v-.25c-.453125 0-.515625 0-.515625-.296875v-1.265625c0-.71875.578125-1.0625 1.03125-1.0625.484375 0 .546875.375.546875.734375v1.59375c0 .296875-.0625.296875-.515625.296875v.25s.5-.03125.796875-.03125c.25 0 .734375.03125.796875.03125zm0 0"/></symbol><symbol id="k" overflow="visible"><path d="m1.90625 0v-.25c-.40625 0-.46875 0-.46875-.296875v-2.53125l-1.03125.078125v.25c.4375 0 .5.046875.5.390625v1.8125c0 .296875-.0625.296875-.515625.296875v.25s.5-.03125.78125-.03125c.25 0 .5.015625.734375.03125zm-.375-4.1875c0-.234375-.171875-.40625-.40625-.40625s-.390625.1875-.390625.390625c0 .21875.171875.40625.390625.40625.234375 0 .40625-.203125.40625-.390625zm0 0"/></symbol><symbol id="l" overflow="visible"><path d="m4.109375 0v-.25c-.453125 0-.515625 0-.515625-.296875v-1.5625c0-.609375-.296875-.96875-1.046875-.96875-.578125 0-.9375.3125-1.140625.6875v-.6875l-1.03125.078125v.25c.46875 0 .53125.046875.53125.390625v1.8125c0 .296875-.078125.296875-.53125.296875v.25s.5-.03125.796875-.03125c.25 0 .734375.03125.796875.03125v-.25c-.453125 0-.515625 0-.515625-.296875v-1.265625c0-.71875.578125-1.0625 1.03125-1.0625.484375 0 .546875.375.546875.734375v1.59375c0 .296875-.0625.296875-.515625.296875v.25s.5-.03125.796875-.03125c.25 0 .734375.03125.796875.03125zm0 0"/></symbol><symbol id="m" overflow="visible"><path d="m2.546875 0v-.3125c-.671875 0-.78125 0-.78125-.4375v-6.171875l-1.4375.109375v.3125c.703125 0 .78125.0625.78125.5625v5.1875c0 .4375-.109375.4375-.78125.4375v.3125l1.109375-.03125zm0 0"/></symbol><symbol id="n" overflow="visible"><path d="m4.140625-1.1875c0-.09375-.078125-.125-.140625-.125-.078125 0-.109375.0625-.125.140625-.34375 1.03125-1.25 1.03125-1.34375 1.03125-.5 0-.890625-.296875-1.125-.671875-.296875-.46875-.296875-1.125-.296875-1.484375h2.78125c.21875 0 .25 0 .25-.21875 0-.984375-.546875-1.953125-1.78125-1.953125-1.15625 0-2.078125 1.03125-2.078125 2.28125 0 1.328125 1.046875 2.296875 2.1875 2.296875 1.21875 0 1.671875-1.109375 1.671875-1.296875zm-.65625-1.328125h-2.375c.0625-1.484375.90625-1.734375 1.25-1.734375 1.015625 0 1.125 1.34375 1.125 1.734375zm0 0"/></symbol><symbol id="o" overflow="visible"><path d="m5.0625-3.984375v-.3125c-.234375.015625-.515625.03125-.75.03125l-.859375-.03125v.3125c.359375 0 .46875.234375.46875.421875 0 .09375-.015625.140625-.046875.25l-1.03125 2.53125-1.109375-2.78125c-.0625-.125-.0625-.171875-.0625-.171875 0-.25.390625-.25.578125-.25v-.3125l-1.09375.03125c-.265625 0-.671875-.015625-.96875-.03125v.3125c.625 0 .671875.0625.796875.359375l1.4375 3.546875c.0625.140625.078125.1875.203125.1875.140625 0 .171875-.09375.21875-.1875l1.296875-3.234375c.09375-.234375.265625-.671875.921875-.671875zm0 0"/></symbol><symbol id="p" overflow="visible"><path d="m2.46875 0v-.3125c-.671875 0-.703125-.046875-.703125-.4375v-3.65625l-1.390625.109375v.3125c.640625 0 .734375.0625.734375.546875v2.6875c0 .4375-.109375.4375-.78125.4375v.3125l1.09375-.03125c.359375 0 .703125.015625 1.046875.03125zm-.5625-6.015625c0-.28125-.21875-.53125-.515625-.53125-.34375 0-.546875.28125-.546875.53125 0 .265625.234375.515625.53125.515625.34375 0 .53125-.265625.53125-.515625zm0 0"/></symbol><symbol id="q" overflow="visible"><path d="m5.328125 0v-.3125c-.515625 0-.765625 0-.765625-.296875v-1.90625c0-.859375 0-1.15625-.3125-1.515625-.140625-.171875-.46875-.375-1.046875-.375-.734375 0-1.203125.421875-1.484375 1.046875v-1.046875l-1.40625.109375v.3125c.703125 0 .78125.0625.78125.5625v2.671875c0 .4375-.109375.4375-.78125.4375v.3125l1.140625-.03125 1.109375.03125v-.3125c-.671875 0-.78125 0-.78125-.4375v-1.84375c0-1.03125.71875-1.59375 1.34375-1.59375.640625 0 .75.53125.75 1.109375v2.328125c0 .4375-.109375.4375-.78125.4375v.3125l1.125-.03125zm0 0"/></symbol><symbol id="r" overflow="visible"><path d="m3.59375-1.28125c0-.515625-.296875-.828125-.421875-.9375-.328125-.328125-.71875-.40625-1.140625-.484375-.5625-.109375-1.21875-.234375-1.21875-.8125 0-.359375.25-.765625 1.109375-.765625 1.09375 0 1.15625.90625 1.171875 1.203125 0 .09375.109375.09375.109375.09375.140625 0 .140625-.046875.140625-.234375v-1.015625c0-.15625 0-.234375-.109375-.234375-.046875 0-.078125 0-.203125.125-.03125.03125-.125.125-.171875.15625-.375-.28125-.78125-.28125-.9375-.28125-1.21875 0-1.59375.671875-1.59375 1.234375 0 .34375.15625.625.421875.84375.328125.25.609375.3125 1.328125.453125.21875.046875 1.03125.203125 1.03125.921875 0 .5-.34375.90625-1.125.90625-.84375 0-1.203125-.5625-1.390625-1.421875-.03125-.125-.03125-.15625-.140625-.15625-.125 0-.125.0625-.125.234375v1.328125c0 .171875 0 .234375.109375.234375.046875 0 .0625-.015625.25-.203125.015625-.015625.015625-.03125.203125-.21875.4375.40625.890625.421875 1.09375.421875 1.140625 0 1.609375-.671875 1.609375-1.390625zm0 0"/></symbol><symbol id="s" overflow="visible"><path d="m4.6875-2.140625c0-1.265625-.984375-2.328125-2.1875-2.328125-1.25 0-2.21875 1.09375-2.21875 2.328125 0 1.296875 1.03125 2.25 2.203125 2.25 1.203125 0 2.203125-.984375 2.203125-2.25zm-.8125-.078125c0 .359375 0 .90625-.21875 1.34375-.234375.453125-.671875.734375-1.15625.734375-.4375 0-.875-.203125-1.140625-.671875-.25-.4375-.25-1.046875-.25-1.40625 0-.390625 0-.921875.234375-1.359375.265625-.453125.734375-.671875 1.140625-.671875.4375 0 .859375.21875 1.125.65625.265625.421875.265625 1 .265625 1.375zm0 0"/></symbol><symbol id="t" overflow="visible"><path d="m3.5625-6.328125c0-.375-.375-.703125-.90625-.703125-.6875 0-1.546875.53125-1.546875 1.59375v1.140625h-.78125v.3125h.78125v3.234375c0 .4375-.109375.4375-.765625.4375v.3125l1.125-.03125c.40625 0 .875 0 1.265625.03125v-.3125h-.203125c-.734375 0-.75-.109375-.75-.46875v-3.203125h1.125v-.3125h-1.15625v-1.15625c0-.875.46875-1.359375.90625-1.359375.03125 0 .1875 0 .328125.078125-.109375.03125-.296875.171875-.296875.421875 0 .21875.15625.421875.4375.421875s.4375-.203125.4375-.4375zm0 0"/></symbol><symbol id="u" overflow="visible"><path d="m1.578125-7.125c0-.171875 0-.359375-.1875-.359375-.203125 0-.203125.1875-.203125.359375v9.265625c0 .171875 0 .359375.203125.359375.1875 0 .1875-.1875.1875-.359375zm0 0"/></symbol><symbol id="v" overflow="visible"><path d="m6.734375-5.921875c.109375-.046875.1875-.09375.1875-.21875 0-.109375-.078125-.203125-.203125-.203125-.046875 0-.140625.046875-.171875.0625l-5.515625 2.609375c-.171875.078125-.203125.140625-.203125.21875 0 .09375.0625.15625.203125.21875l5.515625 2.59375c.125.078125.140625.078125.171875.078125.109375 0 .203125-.09375.203125-.203125 0-.09375-.046875-.15625-.21875-.234375l-5.203125-2.453125zm-.171875 7.28125c.171875 0 .359375 0 .359375-.1875 0-.203125-.21875-.203125-.359375-.203125h-5.375c-.15625 0-.359375 0-.359375.203125 0 .1875.171875.1875.34375.1875zm0 0"/></symbol><path d="m-56.692781.001375h194.839844" fill="none" stroke="#000" stroke-miterlimit="10" stroke-width=".3985" transform="matrix(1 0 0 -1 56.892 247.392)"/><path d="m198.625 247.390625c-1.0625-.199219-2.789062-.796875-3.984375-1.492187v2.988281c1.195313-.699219 2.921875-1.296875 3.984375-1.496094"/><use x="195.991" xlink:href="#b" y="255.201"/><g clip-path="url(#a)"><path d="m-.001375-56.693938v194.839844" fill="none" stroke="#000" stroke-miterlimit="10" stroke-width=".3985" transform="matrix(1 0 0 -1 56.892 247.392)"/></g><path d="m56.890625 105.65625c-.199219 1.0625-.796875 2.792969-1.492187 3.988281h2.988281c-.699219-1.195312-1.296875-2.925781-1.496094-3.988281"/><use x="49.097" xlink:href="#c" y="109.119"/><path d="m-40.251375.001375 40.25-40.253906 40.253906 40.253906-40.253906 40.25zm0 0" style="fill:#2e8b57;fill-opacity:.2;stroke-width:.3985;stroke:#000;stroke-opacity:.2;stroke-miterlimit:10" transform="matrix(1 0 0 -1 56.892 247.392)"/><use x="132.376" xlink:href="#g" y="116.651"/><use x="136.25" xlink:href="#b" y="116.651"/><use x="141.517" xlink:href="#j" y="118.146"/><use x="148.065445" xlink:href="#k" y="118.146"/><use x="150.317999" xlink:href="#l" y="118.146"/><use x="155.216" xlink:href="#d" y="116.651"/><use x="157.983621" xlink:href="#c" y="116.651"/><use x="162.259" xlink:href="#j" y="118.146"/><use x="168.807445" xlink:href="#k" y="118.146"/><use x="171.059999" xlink:href="#l" y="118.146"/><use x="175.959" xlink:href="#h" y="116.651"/><path d="m157.101562 105.65625c0-.546875-.445312-.996094-.996093-.996094s-.996094.449219-.996094.996094c0 .550781.445313.996094.996094.996094s.996093-.445313.996093-.996094zm0 0"/><g fill="none" stroke="#8b0000" stroke-miterlimit="10" stroke-width=".3985" transform="matrix(1 0 0 -1 56.892 247.392)"><path d="m139.303313 181.821687c-11.070313 11.070313-37.992188 2.097657-60.132813-20.042968s-31.113281-49.0625-20.046875-60.132813c11.070313-11.070312 37.992188-2.097656 60.132813 20.042969s31.117187 49.0625 20.046875 60.132812zm0 0"/><path d="m159.346281 201.868562c-16.605468 16.605469-56.988281 3.144532-90.199218-30.066406-33.210938-33.210937-46.671876-73.59375-30.066407-90.199219 16.605469-16.605468 56.988282-3.144531 90.199219 30.066407 33.210938 33.210937 46.671875 73.59375 30.066406 90.199218zm0 0"/><path d="m199.436125 241.9545c-27.675781 27.675781-94.980469 5.242187-150.332031-50.109375-55.351563-55.351563-77.785157-122.65625-50.109375-150.332031 27.671875-27.675782 94.980469-5.242188 150.328125 50.109375 55.351562 55.351562 77.789062 122.65625 50.113281 150.332031zm0 0"/></g><use x="166.846" xlink:href="#m" y="201.243"/><use x="169.615614" xlink:href="#n" y="201.243"/><use x="174.039026" xlink:href="#o" y="201.243"/><use x="179.020346" xlink:href="#n" y="201.243"/><use x="183.443758" xlink:href="#m" y="201.243"/><use x="189.530931" xlink:href="#m" y="201.243"/><use x="192.300545" xlink:href="#p" y="201.243"/><use x="195.070159" xlink:href="#q" y="201.243"/><use x="200.609387" xlink:href="#n" y="201.243"/><use x="205.032799" xlink:href="#r" y="201.243"/><use x="212.275638" xlink:href="#s" y="201.243"/><use x="217.256958" xlink:href="#t" y="201.243"/><use x="223.623" xlink:href="#e" y="201.243"/><use x="74.22" xlink:href="#u" y="278.232"/><use x="76.988" xlink:href="#b" y="278.232"/><use x="82.254" xlink:href="#u" y="278.232"/><use x="87.235" xlink:href="#i" y="278.232"/><use x="97.198" xlink:href="#u" y="278.232"/><use x="99.965" xlink:href="#c" y="278.232"/><use x="104.241" xlink:href="#u" y="278.232"/><use x="109.768273" xlink:href="#v" y="278.232"/><use x="120.292" xlink:href="#f" y="278.232"/></svg>