<svg height="170.08pt" viewBox="0 0 170.08 170.08" width="170.08pt" xmlns="http://www.w3.org/2000/svg" xmlns:xlink="http://www.w3.org/1999/xlink"><clipPath id="a"><path d="m162 165h8.078125v5.078125h-8.078125zm0 0"/></clipPath><path d="m22.617188 1623.3v-1600.703125h1600.664062" style="fill:none;stroke-width:5;stroke-linecap:round;stroke-linejoin:round;stroke:#000;stroke-miterlimit:10" transform="matrix(.1 0 0 -.1 0 170.08)"/><path d="m22.617188 1698.3-20.117188-75h40.195312zm0 0" stroke="#000" stroke-linecap="round" stroke-linejoin="round" stroke-miterlimit="10" stroke-width="5" transform="matrix(.1 0 0 -.1 0 170.08)"/><path d="m169.828125 167.820312-7.5-2.007812v4.015625zm0 0"/><g clip-path="url(#a)"><path d="m1698.28125 22.596875-75 20.078125v-40.15625zm0 0" style="fill:none;stroke-width:5;stroke-linecap:round;stroke-linejoin:round;stroke:#000;stroke-miterlimit:10" transform="matrix(.1 0 0 -.1 0 170.08)"/></g><path d="m2.261719 167.820312h.835937l.417969-.003906.417969-.007812.421875-.007813.417969-.015625.417968-.023437.417969-.027344.421875-.035156.417969-.046875.417969-.054688.417968-.066406.421875-.078125.417969-.09375.417969-.105469.417969-.121094.421874-.136718.417969-.152344.417969-.171875.417969-.191406.421875-.210938.417968-.234375.417969-.253906.417969-.277344.421875-.300781.417969-.328125.417968-.351562.417969-.382813.417969-.40625.421875-.4375.417969-.46875.417968-.5.421876-.53125.417968-.5625.417969-.597656.417969-.632813.421875-.671875.417969-.707031.417968-.746094.417969-.78125.417969-.828125.421875-.863281.417969-.910156.417968-.949219.417969-.996094.421875-1.042969.417969-1.085937.417969-1.132813.417968-1.183593.421875-1.230469.417969-1.28125.417969-1.335938.417969-1.382812.421874-1.441406.417969-1.492188.417969-1.550781.417969-1.601563.421875-1.664062.417968-1.71875.417969-1.78125.417969-1.839844.421875-1.902344.417969-1.960937.417968-2.027344.417969-2.09375.421875-2.15625.417969-2.222656.417969-2.289063.417968-2.359374.421876-2.429688.417968-2.5.417969-2.566406.417969-2.644532.421875-2.714843.417969-2.789063.417968-2.867187.417969-2.941407.417969-3.019531.421875-3.097656.417969-3.179687.417968-3.257813.417969-3.335937.421875-3.421876.417969-3.507812.417969-3.589844.417968-3.671875.421875-3.761719.417969-3.847656.417969-3.941406.417969-4.027344.421874-4.113281.417969-4.210937.417969-4.300782.417969-4.394531.421875-4.488281.417968-4.585938.417969-4.679687.417969-4.78125.421875-4.878907.417969-4.976562v167.570312z" fill="#f5fefa"/><path d="m22.617188 22.596875h8.359374l4.179688.039063 4.179688.078125 4.21875.078125 4.179687.15625 4.179687.234375 4.179688.273437 4.21875.351563 4.179688.46875 4.179687.546875 4.179687.664062 4.21875.78125 4.179688.9375 4.179688 1.054688 4.179687 1.210937 4.21875 1.367188 4.179687 1.523437 4.179688 1.71875 4.179688 1.914063 4.21875 2.109375 4.179687 2.34375 4.179687 2.539062 4.179688 2.773438 4.21875 3.007812 4.179688 3.28125 4.179687 3.515625 4.179687 3.828125 4.179688 4.0625 4.21875 4.375 4.179688 4.6875 4.179687 5 4.21875 5.3125 4.179687 5.625 4.179688 5.976563 4.179688 6.328125 4.21875 6.71875 4.179687 7.070312 4.179687 7.460938 4.179688 7.8125 4.179688 8.28125 4.21875 8.632812 4.179687 9.101563 4.179687 9.492187 4.179688 9.960938 4.21875 10.429687 4.179688 10.859375 4.179687 11.328125 4.179687 11.835938 4.21875 12.304687 4.179688 12.8125 4.179688 13.359375 4.179687 13.828125 4.21875 14.414063 4.179687 14.921875 4.179688 15.507812 4.179688 16.015625 4.21875 16.640625 4.179687 17.1875 4.179687 17.8125 4.179688 18.398438 4.21875 19.023437 4.179688 19.609375 4.179687 20.273438 4.179687 20.9375 4.21875 21.5625 4.179688 22.226562 4.179688 22.890625 4.179687 23.59375 4.21875 24.296875 4.179687 25 4.179688 25.664063 4.179688 26.445312 4.21875 27.148438 4.179687 27.890625 4.179687 28.671875 4.179688 29.414062 4.179688 30.195313 4.21875 30.976562 4.179687 31.796875 4.179687 32.578125 4.179688 33.359375 4.21875 34.21875 4.179688 35.078125 4.179687 35.898438 4.179687 36.71875 4.21875 37.617187 4.179688 38.476563 4.179688 39.414062 4.179687 40.273438 4.21875 41.132812 4.179687 42.109375 4.179688 43.007813 4.179688 43.945312 4.21875 44.882813 4.179687 45.859375 4.179687 46.796875 4.179688 47.8125 4.21875 48.789062 4.179688 49.765625v-1675.703125zm0 0" style="fill:none;stroke-width:5;stroke-linecap:round;stroke-linejoin:round;stroke:#000;stroke-miterlimit:10" transform="matrix(.1 0 0 -.1 0 170.08)"/></svg>