<svg height="97.87pt" viewBox="0 0 284.46 97.87" width="284.46pt" xmlns="http://www.w3.org/2000/svg" xmlns:xlink="http://www.w3.org/1999/xlink"><symbol id="a" overflow="visible"><path d="m.234375-3.875.078125.1875.3125-.203125c.375-.234375.40625-.25.46875-.25.109375 0 .1875.09375.1875.25 0 .515625-.40625 2.4375-.828125 3.875l.078125.109375c.25-.078125.484375-.140625.703125-.171875.1875-1.265625.390625-1.90625.859375-2.609375.53125-.828125 1.28125-1.453125 1.734375-1.453125.109375 0 .171875.09375.171875.234375 0 .1875-.03125.390625-.109375.71875l-.515625 2.125c-.09375.359375-.140625.59375-.140625.75 0 .25.109375.40625.3125.40625.25 0 .609375-.21875 1.59375-.9375l-.09375-.1875-.265625.171875c-.296875.1875-.515625.296875-.609375.296875-.078125 0-.125-.09375-.125-.203125 0-.046875 0-.15625.015625-.1875l.65625-2.765625c.078125-.296875.109375-.578125.109375-.734375 0-.234375-.109375-.359375-.3125-.359375-.421875 0-1.109375.375-1.703125.921875-.375.34375-.65625.6875-1.171875 1.421875l.375-1.609375c.046875-.1875.0625-.296875.0625-.40625 0-.21875-.078125-.328125-.234375-.328125-.203125 0-.59375.21875-1.328125.734375zm0 0"/></symbol><symbol id="b" overflow="visible"><path d="m4.015625-4.71875-.09375-.09375-.328125.1875c-.40625-.15625-.578125-.1875-.859375-.1875s-.46875.046875-.75.171875c-.609375.3125-.9375.609375-1.1875 1.09375-.453125.890625-.75 2.09375-.75 2.875 0 .4375.140625.78125.328125.78125.21875 0 .609375-.21875.984375-.5625.421875-.375.8125-.828125 1.34375-1.59375l-.28125 1.28125c-.046875.171875-.0625.34375-.0625.5 0 .21875.09375.359375.234375.359375.234375 0 .640625-.265625 1.46875-.9375l-.078125-.21875c-.046875.046875-.078125.078125-.125.109375-.3125.265625-.46875.359375-.625.359375-.078125 0-.140625-.09375-.140625-.21875 0-.0625 0-.09375 0-.125zm-.828125.578125c-.21875 1.09375-.40625 1.609375-.75 2.125-.5625.84375-1.171875 1.421875-1.5 1.421875-.125 0-.171875-.125-.171875-.390625 0-.640625.28125-1.8125.625-2.609375.234375-.5625.46875-.734375.953125-.734375.21875 0 .40625.03125.84375.1875zm0 0"/></symbol><symbol id="c" overflow="visible"><path d="m.1875-2.953125.046875.15625.25-.15625c.28125-.171875.296875-.1875.34375-.1875.09375 0 .140625.078125.140625.1875 0 .390625-.3125 1.859375-.625 2.9375l.0625.078125c.1875-.046875.359375-.09375.53125-.125.140625-.953125.296875-1.453125.65625-1.96875.40625-.640625.96875-1.109375 1.3125-1.109375.078125 0 .125.0625.125.171875 0 .140625-.015625.296875-.078125.546875l-.390625 1.609375c-.078125.28125-.109375.453125-.109375.578125 0 .1875.09375.296875.234375.296875.203125 0 .46875-.15625 1.21875-.703125l-.078125-.140625-.203125.125c-.21875.140625-.375.234375-.453125.234375-.0625 0-.109375-.078125-.109375-.15625 0-.03125.015625-.125.015625-.15625l.5-2.09375c.0625-.21875.09375-.421875.09375-.5625 0-.171875-.09375-.265625-.234375-.265625-.328125 0-.84375.28125-1.296875.703125-.28125.265625-.5.515625-.890625 1.078125l.28125-1.21875c.03125-.140625.046875-.234375.046875-.3125 0-.15625-.0625-.25-.171875-.25-.15625 0-.453125.15625-1.015625.5625zm0 0"/></symbol><symbol id="d" overflow="visible"><path d="m.671875-5.546875h.09375l1.296875-.578125c0-.015625.015625-.015625.03125-.015625.0625 0 .078125.09375.078125.328125v4.859375c0 .515625-.109375.625-.65625.65625l-.5625.03125v.296875c1.546875-.03125 1.546875-.03125 1.65625-.03125.125 0 .34375 0 .6875.015625.125 0 .46875 0 .890625.015625v-.296875l-.53125-.03125c-.546875-.03125-.640625-.140625-.640625-.65625v-5.9375l-.140625-.046875c-.65625.34375-1.359375.640625-2.28125.953125zm0 0"/></symbol><symbol id="e" overflow="visible"><path d="m.15625-.234375v.265625c1.875-.03125 1.875-.03125 2.234375-.03125s.359375 0 2.296875.03125c-.03125-.21875-.03125-.3125-.03125-.453125 0-.125 0-.234375.03125-.453125-1.15625.0625-1.625.0625-3.46875.109375l1.828125-1.9375c.96875-1.03125 1.265625-1.578125 1.265625-2.328125 0-1.15625-.78125-1.859375-2.046875-1.859375-.71875 0-1.21875.203125-1.703125.703125l-.171875 1.359375h.296875l.125-.46875c.15625-.578125.515625-.828125 1.1875-.828125.859375 0 1.40625.546875 1.40625 1.390625 0 .75-.421875 1.5-1.546875 2.6875zm0 0"/></symbol><symbol id="f" overflow="visible"><path d="m.4375-4.984375h.296875l.1875-.5625c.109375-.328125.734375-.671875 1.265625-.671875.640625 0 1.171875.53125 1.171875 1.15625 0 .75-.59375 1.375-1.296875 1.375-.078125 0-.1875 0-.328125-.015625h-.140625l-.125.515625.078125.0625c.375-.171875.5625-.21875.828125-.21875.828125 0 1.3125.53125 1.3125 1.4375 0 1.03125-.609375 1.703125-1.53125 1.703125-.46875 0-.875-.15625-1.171875-.4375-.25-.21875-.375-.453125-.5625-.984375l-.265625.09375c.203125.609375.28125.96875.34375 1.46875.53125.1875.96875.265625 1.34375.265625.796875 0 1.71875-.453125 2.265625-1.125.34375-.40625.515625-.84375.515625-1.3125 0-.484375-.203125-.90625-.5625-1.15625-.25-.171875-.484375-.265625-.984375-.34375.796875-.625 1.109375-1.078125 1.109375-1.671875 0-.890625-.75-1.484375-1.859375-1.484375-.671875 0-1.125.1875-1.609375.671875zm0 0"/></symbol><symbol id="g" overflow="visible"><path d="m2.796875-1.8125v.75c0 .609375-.109375.75-.59375.765625l-.625.03125v.296875c1.328125-.03125 1.328125-.03125 1.578125-.03125.234375 0 .234375 0 1.5625.03125v-.296875l-.484375-.03125c-.484375-.03125-.59375-.15625-.59375-.765625v-.75c.59375 0 .796875.015625 1.078125.046875v-.71875c-.46875.046875-.65625.046875-.8125.03125h-.265625v-1.390625c0-1.78125.015625-2.640625.0625-3.046875l-.109375-.046875-.75.265625-2.828125 4.625.109375.234375zm0-.640625h-2.140625l2.140625-3.515625zm0 0"/></symbol><symbol id="h" overflow="visible"><path d="m1.265625-6.046875c1.296875.03125 1.859375.046875 3.046875.046875l.0625-.046875c-.03125-.1875-.03125-.265625-.03125-.390625 0-.140625 0-.21875.03125-.40625l-.0625-.046875c-.75.046875-1.1875.046875-1.734375.046875s-.984375 0-1.734375-.046875l-.046875.046875c0 .609375.015625 1.046875.015625 1.375 0 .84375-.03125 1.8125-.0625 2.25l.203125.0625c.46875-.46875.734375-.609375 1.234375-.609375.953125 0 1.546875.671875 1.546875 1.75 0 1.109375-.640625 1.765625-1.71875 1.765625-.546875 0-1.046875-.1875-1.1875-.4375l-.453125-.828125-.25.140625c.234375.578125.359375.890625.5 1.328125.28125.15625.671875.25 1.109375.25.671875 0 1.375-.296875 1.921875-.765625.609375-.546875.9375-1.234375.9375-1.96875 0-1.125-.8125-1.921875-1.953125-1.921875-.484375 0-.84375.125-1.453125.5zm0 0"/></symbol><symbol id="i" overflow="visible"><path d="m4.15625-6.71875-.359375-.171875c-.96875.328125-1.375.515625-1.890625.953125-1.03125.875-1.59375 2.09375-1.59375 3.46875 0 1.65625.8125 2.671875 2.09375 2.671875 1.296875 0 2.28125-1.03125 2.28125-2.390625 0-1.15625-.703125-1.90625-1.75-1.90625-.5 0-.8125.140625-1.390625.609375-.109375.078125-.125.09375-.234375.171875.203125-1.8125 1.046875-2.78125 2.84375-3.328125zm-1.609375 3.234375c.765625 0 1.265625.65625 1.265625 1.640625 0 1.046875-.5 1.71875-1.265625 1.71875-.859375 0-1.3125-.734375-1.3125-2.078125 0-.34375.03125-.53125.140625-.703125.21875-.34375.6875-.578125 1.171875-.578125zm0 0"/></symbol><symbol id="j" overflow="visible"><path d="m.5625-.09375.09375.125c.390625-.03125.390625-.03125.453125-.03125.078125 0 .078125 0 .453125.03125.421875-1.09375.921875-2.125 1.578125-3.328125l1.828125-3.296875v-.296875c-1.078125.046875-1.421875.046875-2.234375.046875-.734375 0-1.21875 0-2.1875-.046875l-.109375.046875c.03125.953125.03125.953125.03125 1.046875 0 .109375 0 .109375-.03125 1.03125h.296875l.078125-.5625c.078125-.625.140625-.703125.609375-.703125h2.671875c-.40625.828125-.71875 1.40625-1.09375 2.015625zm0 0"/></symbol><symbol id="k" overflow="visible"><path d="m1.6875-3.453125c-.421875.1875-.59375.296875-.8125.515625-.375.375-.578125.828125-.578125 1.34375 0 1.03125.828125 1.796875 1.96875 1.796875 1.296875 0 2.375-1.015625 2.375-2.265625 0-.796875-.375-1.234375-1.515625-1.75.921875-.625 1.234375-1.03125 1.234375-1.640625 0-.859375-.703125-1.4375-1.765625-1.4375-1.1875 0-2.0625.765625-2.0625 1.8125 0 .671875.265625 1.0625 1.15625 1.625zm1.15625.5c.625.28125 1 .765625 1 1.3125 0 .84375-.625 1.5-1.4375 1.5-.84375 0-1.390625-.59375-1.390625-1.53125 0-.734375.28125-1.1875 1.03125-1.640625zm-.609375-1.28125c-.640625-.3125-.953125-.703125-.953125-1.203125 0-.65625.484375-1.109375 1.1875-1.109375.734375 0 1.21875.484375 1.21875 1.203125 0 .578125-.25.96875-.90625 1.390625zm0 0"/></symbol><symbol id="l" overflow="visible"><path d="m.953125.203125c1.109375-.359375 1.59375-.59375 2.140625-1.046875.96875-.84375 1.46875-1.984375 1.46875-3.328125 0-1.6875-.796875-2.71875-2.125-2.71875-1.28125 0-2.234375 1-2.234375 2.34375 0 1.140625.75 1.984375 1.78125 1.984375.34375 0 .734375-.109375.921875-.25l.6875-.59375c-.078125 1.6875-1.15625 2.921875-2.96875 3.359375v.078125zm1.453125-6.765625c.4375 0 .78125.1875 1 .59375.171875.3125.296875.8125.296875 1.265625 0 .90625-.53125 1.53125-1.296875 1.53125-.8125 0-1.34375-.703125-1.34375-1.75 0-1.015625.515625-1.640625 1.34375-1.640625zm0 0"/></symbol><g stroke="#7f7f7f" stroke-linecap="round" stroke-linejoin="round" stroke-miterlimit="10" stroke-width="4.99886" transform="matrix(.1 0 0 -.1 0 97.87)"><path d="m2641.71875 313.3875h-2584.140625v456.875" fill="none"/><path d="m2716.71875 313.3875-75 20.117187v-40.195312zm0 0" fill="#7f7f7f"/><path d="m57.578125 845.223437-20.078125-74.960937h40.195312zm0 0" fill="#7f7f7f"/><path d="m323.476562 313.3875v-53.164063" fill="none"/><path d="m589.414062 313.3875v-53.164063" fill="none"/><path d="m855.3125 313.3875v-53.164063" fill="none"/><path d="m1121.210938 313.3875v-53.164063" fill="none"/><path d="m1387.148438 313.3875v-53.164063" fill="none"/><path d="m1653.046875 313.3875v-53.164063" fill="none"/><path d="m1918.984375 313.3875v-53.164063" fill="none"/><path d="m2184.882812 313.3875v-53.164063" fill="none"/><path d="m2450.78125 313.3875v-53.164063" fill="none"/></g><use fill="#7f7f7f" x="273.96" xlink:href="#a" y="73.5098"/><use fill="#8b0000" x="8.16016" xlink:href="#b" y="9.67"/><use fill="#8b0000" x="12.83985" xlink:href="#c" y="11.10984"/><use fill="#7f7f7f" x="29.8801" xlink:href="#d" y="85.1501"/><use fill="#7f7f7f" x="56.5199" xlink:href="#e" y="85.029787"/><use fill="#7f7f7f" x="83.0398" xlink:href="#f" y="85.029787"/><use fill="#7f7f7f" x="109.6801" xlink:href="#g" y="85.1501"/><use fill="#7f7f7f" x="136.2" xlink:href="#h" y="85.029787"/><use fill="#7f7f7f" x="162.8398" xlink:href="#i" y="85.029787"/><use fill="#7f7f7f" x="189.4796" xlink:href="#j" y="85.029787"/><use fill="#7f7f7f" x="215.9995" xlink:href="#k" y="85.029787"/><use fill="#7f7f7f" x="242.6393" xlink:href="#l" y="85.029787"/></svg>