<svg height="127.56pt" viewBox="0 0 110.93 127.56" width="110.93pt" xmlns="http://www.w3.org/2000/svg" xmlns:xlink="http://www.w3.org/1999/xlink"><clipPath id="a"><path d="m54 124h2v3.558594h-2zm0 0"/></clipPath><clipPath id="b"><path d="m53 124h3v3.558594h-3zm0 0"/></clipPath><symbol id="c" overflow="visible"><path d="m2.515625-2.484375h1.4375c1.15625 0 2.34375-.796875 2.34375-1.734375 0-.6875-.625-1.21875-1.65625-1.21875h-2.6875c-.140625 0-.25 0-.25.140625 0 .125.109375.125.234375.125.265625 0 .5 0 .5.125 0 .03125-.015625.03125-.03125.140625l-1.078125 4.28125c-.0625.296875-.078125.359375-.65625.359375-.171875 0-.265625 0-.265625.15625 0 .03125.03125.109375.125.109375.15625 0 .34375-.015625.5-.03125h.5c.765625 0 .984375.03125 1.03125.03125s.15625 0 .15625-.15625c0-.109375-.09375-.109375-.234375-.109375-.015625 0-.171875 0-.296875-.015625-.171875-.015625-.1875-.03125-.1875-.109375 0-.046875.015625-.09375.03125-.125zm.578125-2.40625c.0625-.265625.078125-.28125.40625-.28125h.875c.65625 0 1.15625.1875 1.15625.765625 0 .109375-.046875.828125-.484375 1.265625-.125.109375-.5.421875-1.28125.421875h-1.21875zm0 0"/></symbol><symbol id="d" overflow="visible"><path d="m3.296875-1.90625c0-.4375 0-2.078125-1.46875-2.078125s-1.46875 1.640625-1.46875 2.078125c0 .421875 0 2.03125 1.46875 2.03125s1.46875-1.609375 1.46875-2.03125zm-1.46875 1.84375c-.25 0-.65625-.125-.8125-.625-.09375-.34375-.09375-.921875-.09375-1.296875 0-.40625 0-.859375.09375-1.1875.140625-.53125.59375-.609375.8125-.609375.265625 0 .671875.125.796875.578125.09375.3125.09375.75.09375 1.21875 0 .375 0 .984375-.09375 1.3125-.171875.53125-.609375.609375-.796875.609375zm0 0"/></symbol><symbol id="e" overflow="visible"><path d="m2.140625-3.796875c0-.1875-.015625-.1875-.203125-.1875-.390625.390625-1 .390625-1.21875.390625v.234375c.15625 0 .5625 0 .921875-.171875v3.015625c0 .203125 0 .28125-.625.28125h-.25v.234375c.328125-.03125.796875-.03125 1.125-.03125s.796875 0 1.125.03125v-.234375h-.25c-.625 0-.625-.078125-.625-.28125zm0 0"/></symbol><symbol id="f" overflow="visible"><path d="m3.21875-1.125h-.21875c-.015625.09375-.078125.484375-.15625.546875-.046875.046875-.53125.046875-.625.046875h-1.109375l.765625-.625c.203125-.171875.734375-.546875.921875-.734375.171875-.171875.421875-.484375.421875-.90625 0-.75-.671875-1.1875-1.484375-1.1875-.765625 0-1.296875.515625-1.296875 1.078125 0 .296875.25.34375.3125.34375.15625 0 .328125-.109375.328125-.328125 0-.125-.078125-.328125-.34375-.328125.140625-.296875.5-.53125.921875-.53125.625 0 .953125.46875.953125.953125 0 .421875-.28125.859375-.6875 1.25l-1.421875 1.296875c-.0625.0625-.0625.0625-.0625.25h2.59375zm0 0"/></symbol><symbol id="g" overflow="visible"><path d="m3.296875-1.8125c.171875 0 .21875 0 .21875-.1875 0-.703125-.390625-1.546875-1.515625-1.546875-.984375 0-1.765625.8125-1.765625 1.796875 0 1.03125.859375 1.828125 1.875 1.828125 1 0 1.40625-.84375 1.40625-1.03125 0-.03125-.03125-.109375-.125-.109375s-.109375.046875-.125.09375c-.28125.78125-.96875.796875-1.109375.796875-.359375 0-.734375-.15625-.96875-.53125-.234375-.359375-.234375-.875-.234375-1.109375zm-2.34375-.21875c.078125-1.109375.75-1.296875 1.046875-1.296875.9375 0 .96875 1.125.96875 1.296875zm0 0"/></symbol><symbol id="h" overflow="visible"><path d="m2.453125-1.859375c.21875-.28125.453125-.5625.6875-.8125.265625-.28125.546875-.484375 1.046875-.5v-.265625c-.3125.03125-.328125.03125-.6875.03125-.03125 0-.5 0-.75-.03125v.265625c.15625.015625.1875.109375.1875.21875 0 .09375-.046875.203125-.140625.3125l-.5.578125-.625-.75c-.109375-.109375-.109375-.15625-.109375-.171875 0-.0625.0625-.171875.25-.1875v-.265625c-.3125.03125-.765625.03125-.84375.03125-.140625 0-.546875 0-.796875-.03125v.265625c.546875 0 .546875.015625.96875.5l.8125.984375-.71875.859375c-.203125.21875-.5.546875-1.09375.5625v.265625c.296875-.03125.34375-.03125.6875-.03125.015625 0 .5 0 .75.03125v-.265625c-.109375-.015625-.1875-.0625-.1875-.21875 0-.140625.09375-.25.109375-.28125.203125-.25.421875-.484375.625-.71875l.65625.78125c.15625.1875.15625.203125.15625.25 0 .078125-.046875.1875-.25.1875v.265625c.34375-.03125.703125-.03125.859375-.03125.140625 0 .546875 0 .78125.03125v-.265625c-.484375 0-.5625-.03125-.78125-.28125zm0 0"/></symbol><symbol id="i" overflow="visible"><path d="m2.09375 1.28125c-.515625 0-.609375 0-.609375-.359375v-1.3125c.375.40625.78125.46875 1.046875.46875 1 0 1.890625-.78125 1.890625-1.796875 0-1-.8125-1.796875-1.78125-1.796875-.3125 0-.765625.078125-1.171875.5v-.5l-1.1875.09375v.265625c.5625 0 .609375.046875.609375.375v3.703125c0 .359375-.109375.359375-.609375.359375v.265625c.34375-.03125.6875-.03125.90625-.03125.234375 0 .5625 0 .90625.03125zm-.609375-3.9375c.1875-.3125.59375-.609375 1.09375-.609375.609375 0 1.125.671875 1.125 1.546875 0 .90625-.578125 1.578125-1.21875 1.578125-.28125 0-.640625-.125-.90625-.515625-.09375-.140625-.09375-.15625-.09375-.296875zm0 0"/></symbol><g stroke-linecap="round" stroke-linejoin="round" stroke-width="4.99841" transform="matrix(.1 0 0 -.1 0 127.56)"><path d="m1065.15625 548.803125h-1032.65625" fill="none" stroke="#808080" stroke-miterlimit="10"/><path d="m1095.117188 548.803125-29.960938 8.046875v-16.054688zm0 0" fill="#808080" stroke="#808080" stroke-miterlimit="10"/><path d="m2.5 548.803125 30-8.007813v16.054688zm0 0" fill="#808080" stroke="#808080" stroke-miterlimit="10"/><path d="m548.828125 1065.13125v-1032.65625" fill="none" stroke="#808080" stroke-miterlimit="10"/><path d="m548.828125 1095.13125-8.046875-30h16.054688zm0 0" fill="#808080" stroke="#808080" stroke-miterlimit="10"/></g><g clip-path="url(#a)"><path d="m54.882812 127.308594.800782-2.996094h-1.605469zm0 0" fill="#808080"/></g><g clip-path="url(#b)"><path d="m548.828125 2.514062 8.007813 29.960938h-16.054688zm0 0" style="fill:none;stroke-width:4.99841;stroke-linecap:round;stroke-linejoin:round;stroke:#808080;stroke-miterlimit:10" transform="matrix(.1 0 0 -.1 0 127.56)"/></g><g fill="none" stroke-linecap="round" stroke-linejoin="round" stroke-miterlimit="10" stroke-width="4.99841" transform="matrix(.1 0 0 -.1 0 127.56)"><g stroke="#808080"><path d="m658.085938 526.967187v43.710938"/><path d="m439.570312 526.967187v43.710938"/><path d="m526.953125 658.1h43.710937"/><path d="m526.953125 439.545312h43.710937"/><path d="m767.34375 526.967187v43.710938"/><path d="m330.273438 526.967187v43.710938"/><path d="m526.953125 767.357812h43.710937"/><path d="m526.953125 330.2875h43.710937"/><path d="m876.601562 526.967187v43.710938"/><path d="m221.015625 526.967187v43.710938"/><path d="m526.953125 876.615625h43.710937"/><path d="m526.953125 221.029687h43.710937"/><path d="m985.859375 526.967187v43.710938"/><path d="m111.757812 526.967187v43.710938"/><path d="m526.953125 985.873437h43.710937"/><path d="m526.953125 111.771875h43.710937"/></g><path d="m1065.15625 658.1h-1032.65625" stroke="#ffa500"/></g><path d="m109.511719 61.75-2.109375-.5625-.886719-.238281v1.605469l.886719-.238282 1.054687-.28125z" fill="#ffa500"/><path d="m1095.117188 658.1-21.09375 5.625-8.867188 2.382812v-16.054687l8.867188 2.382812 10.546874 2.8125zm0 0" style="fill:none;stroke-width:4.99841;stroke-linecap:round;stroke-linejoin:round;stroke:#ffa500;stroke-miterlimit:10" transform="matrix(.1 0 0 -.1 0 127.56)"/><path d="m.25 61.75 1.054688.285156 1.054687.28125.890625.238282v-1.605469l-.890625.238281z" fill="#ffa500"/><path d="m2.5 658.1 10.546875-2.851563 10.546875-2.8125 8.90625-2.382812v16.054687l-8.90625-2.382812zm0 0" style="fill:none;stroke-width:4.99841;stroke-linecap:round;stroke-linejoin:round;stroke:#ffa500;stroke-miterlimit:10" transform="matrix(.1 0 0 -.1 0 127.56)"/><path d="m1073.945312 1183.178125-.664062-.625-10.9375-10.9375-10.898438-10.9375-10.9375-10.898438-54.648437-54.648437-10.898437-10.9375-10.9375-10.898438-21.875-21.875-10.898438-10.9375-10.9375-10.898437-10.9375-10.9375-10.898438-10.9375-10.9375-10.898438-54.648437-54.648437-10.898437-10.9375-10.9375-10.898438-54.648438-54.648437-10.898438-10.9375-10.9375-10.898438-54.648437-54.648437-10.898437-10.9375-10.9375-10.898438-54.648438-54.648437-10.898438-10.9375-10.9375-10.898438-54.648437-54.648437-10.898437-10.9375-10.9375-10.898438-54.648438-54.648437-10.898438-10.9375-10.9375-10.898438-54.648437-54.648437-10.898437-10.9375-10.9375-10.898438-54.648438-54.648437-10.898438-10.9375-10.9375-10.898438-54.648437-54.648437-10.898437-10.9375-10.9375-10.898438-54.648438-54.648437-10.898438-10.9375-10.9375-10.898438-54.648437-54.648437-10.898437-10.9375-10.9375-10.898438-22.5-22.5" style="fill:none;stroke-width:4.99841;stroke-linecap:round;stroke-linejoin:round;stroke:#191970;stroke-miterlimit:10" transform="matrix(.1 0 0 -.1 0 127.56)"/><path d="m109.511719 7.121094-1.335938.773437-1.339843.769531-.011719.007813 1.136719 1.136719.007812-.011719.773438-1.339844z" fill="#191970"/><path d="m1095.117188 1204.389062-13.359376-7.734375-13.398437-7.695312-.117187-.078125 11.367187-11.367188.078125.117188 7.734375 13.398437zm0 0" style="fill:none;stroke-width:4.99841;stroke-linecap:round;stroke-linejoin:round;stroke:#191970;stroke-miterlimit:10" transform="matrix(.1 0 0 -.1 0 127.56)"/><path d="m.25 116.382812 1.339844-.773437 1.335937-.769531.011719-.007813-1.136719-1.136719-.003906.011719-.773437 1.339844z" fill="#191970"/><path d="m2.5 111.771875 13.398438 7.734375 13.359374 7.695312.117188.078125-11.367188 11.367188-.039062-.117188-7.734375-13.398437zm0 0" style="fill:none;stroke-width:4.99841;stroke-linecap:round;stroke-linejoin:round;stroke:#191970;stroke-miterlimit:10" transform="matrix(.1 0 0 -.1 0 127.56)"/><path d="m813.632812 1243.88125-5.859374-20-7.109376-23.671875-7.109374-23.242188-7.070313-22.8125-7.109375-22.304687-7.109375-21.835938-7.109375-21.40625-7.109375-20.9375-7.109375-20.46875-7.070312-20.039062-7.109376-19.53125-7.109374-19.101563-7.109376-18.59375-7.109374-18.164062-7.070313-17.695313-7.109375-17.265625-7.109375-16.757812-7.109375-16.328125-7.109375-15.859375-7.109375-15.390625-7.070312-14.921875-7.109376-14.492188-7.109374-13.984375-7.109376-13.554687-7.109374-13.085938-7.070313-12.617187-7.109375-12.1875-7.109375-11.679688-7.109375-11.25-7.109375-10.78125-7.109375-10.3125-7.070312-9.84375-7.109376-9.414062-7.109374-8.90625-7.109376-8.476563-7.109374-8.007812-7.070313-7.539063-7.109375-7.109375-7.109375-6.601562-7.109375-6.171875-7.109375-5.703125-7.109375-5.234375-7.070312-4.765625-7.109376-4.335938-7.109374-3.828125-7.109376-3.398437-7.109374-2.929688-7.070313-2.460937-7.109375-2.03125-7.109375-1.523438-7.109375-1.09375-7.109375-.625-7.070313-.15625-7.109374.3125-7.109376.742188-7.109374 1.25-7.109376 1.679687-7.109374 2.148438-7.070313 2.617187-7.109375 3.046875-7.109375 3.554688-7.109375 3.984375-7.109375 4.453125-7.070313 4.921875-7.109374 5.390625-7.109376 5.820312-7.109374 6.328125-7.109376 6.757813-7.070312 7.226562-7.109375 7.695313-7.109375 8.125-7.109375 8.632812-7.109375 9.0625-7.109375 9.53125-7.070313 10-7.109374 10.46875-7.109376 10.898438-7.109374 11.40625-7.109376 11.835937-7.070312 12.304688-7.109375 12.773437-7.109375 13.203125-7.109375 13.710938-7.109375 14.140625-7.109375 14.609375-7.070313 15.078125-7.109374 15.546875-7.109376 15.976562-7.109374 16.484375-7.070313 16.914063-7.109375 17.382812-7.109375 17.851563-7.109375 18.28125-7.109375 18.789062-7.109375 19.21875-7.070312 19.6875-7.109376 20.15625-4.570312 13.28125" style="fill:none;stroke-width:4.99841;stroke-linecap:round;stroke-linejoin:round;stroke:#8b0000;stroke-miterlimit:10" transform="matrix(.1 0 0 -.1 0 127.56)"/><path d="m82.199219.289062-1.324219 2.199219-.28125.457031 1.542969.453126.011719-.542969z" fill="#8b0000"/><path d="m821.992188 1272.709375-13.242188-21.992188-2.8125-4.570312 15.429688-4.53125.117187 5.429687zm0 0" style="fill:none;stroke-width:4.99841;stroke-linecap:round;stroke-linejoin:round;stroke:#8b0000;stroke-miterlimit:10" transform="matrix(.1 0 0 -.1 0 127.56)"/><path d="m11.175781 18.046875.140625 2.21875.0625.882813 1.519532-.523438-.492188-.726562z" fill="#8b0000"/><path d="m111.757812 1095.13125 1.40625-22.1875.625-8.828125 15.195313 5.234375-4.921875 7.265625zm0 0" style="fill:none;stroke-width:4.99841;stroke-linecap:round;stroke-linejoin:round;stroke:#8b0000;stroke-miterlimit:10" transform="matrix(.1 0 0 -.1 0 127.56)"/><path d="m725.195312 1097.865625-.46875-2.421875-6.171874-30.117188-6.210938-28.4375-6.171875-26.914062-6.210937-25.390625-6.171876-24.023438-6.210937-22.65625-6.171875-21.445312-6.210938-20.273438-6.171874-19.140625-6.210938-18.046875-6.210938-17.109375-6.171874-16.132812-6.210938-15.273438-6.171875-14.414062-6.210937-13.632813-6.171876-12.851562-6.171874-12.148438-6.210938-11.523437-6.171875-10.859375-6.210937-10.234375-6.210938-9.6875-6.171875-9.179688-6.210937-8.671875-6.171876-8.164062-6.210937-7.734375-6.171875-7.304688-6.171875-6.914062-6.210937-6.484375-6.171876-6.171875-6.210937-5.820313-6.171875-5.507812-6.210938-5.195313-6.210937-4.921875-6.171875-4.648437-6.210938-4.375-6.171874-4.140625-6.210938-3.90625-6.171875-3.710938-6.210937-3.515625-6.171876-3.28125-6.210937-3.125-6.171875-2.96875-6.210938-2.773437-6.171874-2.617188-6.210938-2.5-6.171875-2.34375-6.210937-2.226562-6.171876-2.109375-6.210937-1.992188-6.171875-1.875-6.210938-1.757812-6.171874-1.679688-6.210938-1.5625-6.171875-1.523437-6.210937-1.40625-6.171876-1.328125-6.210937-1.25-6.171875-1.210938-6.210938-1.09375-6.171874-1.09375-6.210938-.976562-6.171875-.976563-6.210937-.898437-6.171876-.820313-6.210937-.820312-6.171875-.742188-6.210938-.742187-6.171874-.664063-6.210938-.625-6.171875-.625-6.210937-.546875-6.171876-.546875-6.210937-.507812-6.171875-.46875-6.210938-.46875-6.171874-.429688-6.210938-.390625-6.171875-.390625-6.210937-.390625-6.171876-.3125-6.210937-.351562-6.171875-.273438-6.210938-.3125-6.171874-.273437-6.210938-.234375-6.171875-.273438-6.210937-.234375-6.171876-.195312-6.210937-.195313-6.171875-.195312-6.210938-.195313-6.171874-.15625-6.210938-.195312-6.171875-.15625h-.976563" style="fill:none;stroke-width:4.99841;stroke-linecap:round;stroke-linejoin:round;stroke:#2e8b57;stroke-miterlimit:10" transform="matrix(.1 0 0 -.1 0 127.56)"/><path d="m730.9375 1127.31875-13.632812-27.929688 15.78125-3.046875zm0 0" style="fill:#2e8b57;stroke-width:4.99841;stroke-linecap:round;stroke-linejoin:round;stroke:#2e8b57;stroke-miterlimit:10" transform="matrix(.1 0 0 -.1 0 127.56)"/><path d="m11.175781 72.476562.601563.152344.601562.148438.601563.144531.601562.148437.601563.144532.011718.003906-.039062-1.609375-.007812.003906-.59375.175781-1.1875.34375-.597657.171876z" fill="#2e8b57"/><path d="m111.757812 550.834375 6.015626-1.523438 6.015624-1.484375 6.015626-1.445312 6.015624-1.484375 6.015626-1.445313.117187-.039062-.390625 16.09375-.078125-.039063-5.9375-1.757812-11.875-3.4375-5.976563-1.71875zm0 0" style="fill:none;stroke-width:4.99841;stroke-linecap:round;stroke-linejoin:round;stroke:#2e8b57;stroke-miterlimit:10" transform="matrix(.1 0 0 -.1 0 127.56)"/><use fill="#ffa500" x="93.8398" xlink:href="#c" y="58.1998"/><use fill="#ffa500" x="99.2398" xlink:href="#d" y="59.27988"/><use fill="#191970" x="100.32" xlink:href="#c" y="25.2"/><use fill="#191970" x="105.72" xlink:href="#e" y="26.28008"/><use fill="#8b0000" x="80.5199" xlink:href="#c" y="16.08"/><use fill="#8b0000" x="85.9199" xlink:href="#f" y="17.16008"/><use fill="#2e8b57" x="57.6" xlink:href="#g" y="15.72"/><use fill="#2e8b57" x="61.319997" xlink:href="#h" y="15.72"/><use fill="#2e8b57" x="65.759992" xlink:href="#i" y="15.72"/></svg>