<svg height="113.39pt" viewBox="0 0 113.39 113.39" width="113.39pt" xmlns="http://www.w3.org/2000/svg" xmlns:xlink="http://www.w3.org/1999/xlink"><clipPath id="a"><path d="m105 54h8.390625v5h-8.390625zm0 0"/></clipPath><clipPath id="b"><path d="m56 7h1v106.390625h-1zm0 0"/></clipPath><clipPath id="c"><path d="m35 49h44v64.390625h-44zm0 0"/></clipPath><path d="m42.582031 77.863281.140625-.5625.425782-1.648437.421874-1.601563.421876-1.550781.425781-1.496094.421875-1.449218.421875-1.398438.425781-1.34375.421875-1.296875.421875-1.242187.425781-1.195313.421875-1.144531.425782-1.089844.421874-1.042969.421876-.988281.425781-.941406.421875-.890625.421875-.835938.425781-.789062.421875-.734375.425781-.6875.421875-.632813.421875-.585937.425782-.53125.421874-.484375.421876-.433594.425781-.378906.421875-.332031.425781-.277344.421875-.230469.421875-.175781.425781-.128906.421875-.074219.421875-.027344.425782.027344.421874.074219.425782.128906.421875.175781.421875.230469.425781.277344.421875.332031.421875.378906.425781.433594.421875.484375.421875.53125.425782.585937.421874.632813.425782.6875.421875.734375.421875.789062.425781.835938.421875.890625.421875.941406.425781.988281.421875 1.042969.425781 1.089844.421876 1.144531.421874 1.195313.425782 1.242187.421875 1.296875.421875 1.34375.425781 1.398438.421875 1.449218.425781 1.496094.421875 1.550781.421875 1.601563.425781 1.648437.136719.5625-.136719.5625-.425781 1.648438-.421875 1.601562-.421875 1.550781-.425781 1.496094-.421875 1.449219-.425781 1.398437-.421875 1.34375-.421875 1.296876-.425782 1.242187-.421874 1.195313-.421876 1.144531-.425781 1.089843-.421875 1.042969-.425781.988281-.421875.941407-.421875.890625-.425781.835937-.421875.789063-.421875.734375-.425782.6875-.421874.632812-.425782.585938-.421875.53125-.421875.484375-.425781.433594-.421875.378906-.421875.332031-.425781.277344-.421875.230469-.421875.175781-.425782.128906-.421874.074219-.425782.027344-.421875-.027344-.421875-.074219-.425781-.128906-.421875-.175781-.421875-.230469-.425781-.277344-.421875-.332031-.425781-.378906-.421876-.433594-.421874-.484375-.425782-.53125-.421875-.585938-.421875-.632812-.425781-.6875-.421875-.734375-.425781-.789063-.421875-.835937-.421875-.890625-.425781-.941407-.421876-.988281-.421874-1.042969-.425782-1.089843-.421875-1.144531-.425781-1.195313-.421875-1.242187-.421875-1.296876-.425781-1.34375-.421875-1.398437-.421875-1.449219-.425781-1.496094-.421876-1.550781-.421874-1.601562-.425782-1.648438z" fill="#006400" fill-opacity=".6"/><path d="m1056.367188 566.946875h-1053.867188" style="fill:none;stroke-width:5;stroke-linecap:round;stroke-linejoin:round;stroke:#000;stroke-miterlimit:10" transform="matrix(.1 0 0 -.1 0 113.39)"/><g clip-path="url(#a)"><path d="m1131.367188 566.946875-75 20.078125v-40.195312zm0 0" stroke="#000" stroke-linecap="round" stroke-linejoin="round" stroke-miterlimit="10" stroke-width="5" transform="matrix(.1 0 0 -.1 0 113.39)"/></g><g clip-path="url(#b)"><path d="m566.914062 1056.360938v-1053.867188" style="fill:none;stroke-width:5;stroke-linecap:round;stroke-linejoin:round;stroke:#000;stroke-miterlimit:10" transform="matrix(.1 0 0 -.1 0 113.39)"/></g><path d="m566.914062 1131.360938-20.078124-75h40.195312zm0 0" stroke="#000" stroke-linecap="round" stroke-linejoin="round" stroke-miterlimit="10" stroke-width="5" transform="matrix(.1 0 0 -.1 0 113.39)"/><g clip-path="url(#c)"><path d="m355.273438 2.49375 4.21875 25.15625 4.257812 24.648438 4.21875 24.101562 4.21875 23.632813 4.257812 23.125 4.21875 22.578125 4.21875 22.109375 4.257813 21.601562 4.21875 21.054688 4.257813 20.585937 4.21875 20.078125 4.21875 19.53125 4.257812 19.0625 4.21875 18.554688 4.21875 18.007812 4.257812 17.539063 4.21875 17.03125 4.257813 16.484375 4.21875 16.015625 4.21875 15.507812 4.257813 14.960938 4.21875 14.492187 4.21875 13.984375 4.257812 13.4375 4.21875 12.96875 4.21875 12.421875 4.257812 11.953125 4.21875 11.445313 4.257813 10.898437 4.21875 10.429688 4.21875 9.882812 4.257813 9.414063 4.21875 8.90625 4.21875 8.359375 4.257812 7.890625 4.21875 7.34375 4.257812 6.875 4.21875 6.328125 4.21875 5.859375 4.257813 5.3125 4.21875 4.84375 4.21875 4.335937 4.257813 3.789063 4.21875 3.320312 4.257812 2.773438 4.21875 2.304687 4.21875 1.757813 4.257812 1.289062 4.21875.742188 4.21875.273437 4.257813-.273437 4.21875-.742188 4.257813-1.289062 4.21875-1.757813 4.21875-2.304687 4.257812-2.773438 4.21875-3.320312 4.21875-3.789063 4.257812-4.335937 4.21875-4.84375 4.21875-5.3125 4.257813-5.859375 4.21875-6.328125 4.257813-6.875 4.21875-7.34375 4.21875-7.890625 4.257812-8.359375 4.21875-8.90625 4.21875-9.414063 4.257812-9.882812 4.21875-10.429688 4.257813-10.898437 4.21875-11.445313 4.21875-11.953125 4.257813-12.421875 4.21875-12.96875 4.21875-13.4375 4.257812-13.984375 4.21875-14.492187 4.257812-14.960938 4.21875-15.507812 4.21875-16.015625 4.257813-16.484375 4.21875-17.03125 4.21875-17.539063 4.257813-18.007812 4.21875-18.554688 4.257812-19.0625 4.21875-19.53125 4.21875-20.078125 4.257812-20.585937 4.21875-21.054688 4.21875-21.601562 4.257813-22.109375 4.21875-22.578125 4.21875-23.125 4.257813-23.632813 4.21875-24.101562 4.21875-24.648438 4.257812-25.15625" style="fill:none;stroke-width:5;stroke-linecap:round;stroke-linejoin:round;stroke:#000;stroke-miterlimit:10" transform="matrix(.1 0 0 -.1 0 113.39)"/></g><path d="m355.273438 708.040625 4.21875-25.15625 4.257812-24.648437 4.21875-24.101563 4.21875-23.632812 4.257812-23.125 4.21875-22.578125 4.21875-22.109375 4.257813-21.601563 4.21875-21.054687 4.257813-20.585938 4.21875-20.078125 4.21875-19.53125 4.257812-19.0625 4.21875-18.554687 4.21875-18.007813 4.257812-17.539062 4.21875-17.03125 4.257813-16.484375 4.21875-16.015625 4.21875-15.507813 4.257813-14.960937 4.21875-14.492188 4.21875-13.984375 4.257812-13.4375 4.21875-12.96875 4.21875-12.421875 4.257812-11.953125 4.21875-11.445312 4.257813-10.898438 4.21875-10.429687 4.21875-9.882813 4.257813-9.414062 4.21875-8.90625 4.21875-8.359375 4.257812-7.890625 4.21875-7.34375 4.257812-6.875 4.21875-6.328125 4.21875-5.859375 4.257813-5.3125 4.21875-4.84375 4.21875-4.335938 4.257813-3.789062 4.21875-3.320313 4.257812-2.773437 4.21875-2.304688 4.21875-1.757812 4.257812-1.289063 4.21875-.742187 4.21875-.273438 4.257813.273438 4.21875.742187 4.257813 1.289063 4.21875 1.757812 4.21875 2.304688 4.257812 2.773437 4.21875 3.320313 4.21875 3.789062 4.257812 4.335938 4.21875 4.84375 4.21875 5.3125 4.257813 5.859375 4.21875 6.328125 4.257813 6.875 4.21875 7.34375 4.21875 7.890625 4.257812 8.359375 4.21875 8.90625 4.21875 9.414062 4.257812 9.882813 4.21875 10.429687 4.257813 10.898438 4.21875 11.445312 4.21875 11.953125 4.257813 12.421875 4.21875 12.96875 4.21875 13.4375 4.257812 13.984375 4.21875 14.492188 4.257812 14.960937 4.21875 15.507813 4.21875 16.015625 4.257813 16.484375 4.21875 17.03125 4.21875 17.539062 4.257813 18.007813 4.21875 18.554687 4.257812 19.0625 4.21875 19.53125 4.21875 20.078125 4.257812 20.585938 4.21875 21.054687 4.21875 21.601563 4.257813 22.109375 4.21875 22.578125 4.21875 23.125 4.257813 23.632812 4.21875 24.101563 4.21875 24.648437 4.257812 25.15625" style="fill:none;stroke-width:5;stroke-linecap:round;stroke-linejoin:round;stroke:#000;stroke-miterlimit:10" transform="matrix(.1 0 0 -.1 0 113.39)"/></svg>