<svg height="443.968pt" viewBox="0 0 245.661 443.968" width="245.661pt" xmlns="http://www.w3.org/2000/svg" xmlns:xlink="http://www.w3.org/1999/xlink"><clipPath id="a"><path d="m87 385h69v58.96875h-69zm0 0"/></clipPath><symbol id="b" overflow="visible"><path d="m3.59375-1.28125c0-.546875-.375-.875-.390625-.90625-.390625-.359375-.65625-.421875-1.15625-.5-.546875-.109375-1.015625-.21875-1.015625-.703125 0-.609375.71875-.609375.859375-.609375.3125 0 .84375.03125 1.40625.375l.125-.65625c-.515625-.234375-.921875-.3125-1.4375-.3125-.25 0-1.65625 0-1.65625 1.296875 0 .5.296875.8125.546875 1 .296875.21875.515625.265625 1.0625.375.359375.0625.9375.1875.9375.71875 0 .6875-.78125.6875-.9375.6875-.796875 0-1.359375-.375-1.53125-.484375l-.125.671875c.3125.15625.859375.4375 1.671875.4375.1875 0 .734375 0 1.15625-.3125.3125-.25.484375-.640625.484375-1.078125zm0 0"/></symbol><symbol id="c" overflow="visible"><path d="m4.34375 0v-2.96875c0-.65625-.15625-1.5625-1.375-1.5625-.609375 0-1.09375.296875-1.40625.71875v-3.109375h-.75v6.921875h.765625v-2.4375c0-.65625.25-1.484375 1.015625-1.484375.953125 0 .96875.703125.96875 1.015625v2.90625zm0 0"/></symbol><symbol id="d" overflow="visible"><path d="m4.078125 0v-2.875c0-1.015625-.734375-1.71875-1.640625-1.71875-.65625 0-1.109375.15625-1.5625.421875l.046875.65625c.53125-.359375 1.015625-.484375 1.515625-.484375.46875 0 .859375.390625.859375 1.125v.4375c-1.5.015625-2.765625.4375-2.765625 1.3125 0 .421875.28125 1.234375 1.140625 1.234375.140625 0 1.078125-.015625 1.65625-.46875v.359375zm-.78125-1.3125c0 .1875 0 .4375-.34375.625-.28125.171875-.65625.1875-.765625.1875-.484375 0-.9375-.234375-.9375-.640625 0-.703125 1.625-.765625 2.046875-.796875zm0 0"/></symbol><symbol id="e" overflow="visible"><path d="m3.265625-3.875v-.65625c-.890625 0-1.4375.5-1.75.953125v-.90625h-.703125v4.484375h.75v-2.140625c0-.984375.71875-1.703125 1.703125-1.734375zm0 0"/></symbol><symbol id="f" overflow="visible"><path d="m4.125-2.1875c0-.328125-.015625-1.078125-.390625-1.6875-.421875-.609375-1.015625-.71875-1.375-.71875-1.109375 0-2.015625 1.0625-2.015625 2.34375 0 1.3125.96875 2.359375 2.15625 2.359375.625 0 1.203125-.234375 1.59375-.515625l-.0625-.65625c-.625.53125-1.296875.5625-1.515625.5625-.796875 0-1.4375-.703125-1.46875-1.6875zm-.5625-.546875h-2.46875c.15625-.75.6875-1.25 1.265625-1.25.515625 0 1.0625.328125 1.203125 1.25zm0 0"/></symbol><symbol id="g" overflow="visible"><path d="m4.328125 0v-6.921875h-.75v2.9375c-.53125-.4375-1.078125-.546875-1.453125-.546875-.984375 0-1.765625 1.03125-1.765625 2.3125 0 1.3125.765625 2.328125 1.71875 2.328125.328125 0 .90625-.09375 1.46875-.625v.515625zm-.78125-1.390625c0 .140625-.015625.328125-.328125.609375-.234375.203125-.484375.28125-.734375.28125-.625 0-1.34375-.46875-1.34375-1.703125 0-1.3125.859375-1.71875 1.4375-1.71875.453125 0 .75.21875.96875.546875zm0 0"/></symbol><symbol id="h" overflow="visible"><path d="m4.78125-2.21875c0-1.203125-.625-2.3125-1.578125-2.3125-.59375 0-1.171875.203125-1.640625.59375v-.484375h-.75v6.359375h.78125v-2.390625c.3125.28125.75.5625 1.34375.5625.96875 0 1.84375-.984375 1.84375-2.328125zm-.78125 0c0 1.015625-.703125 1.71875-1.453125 1.71875-.390625 0-.65625-.203125-.859375-.46875-.09375-.140625-.09375-.171875-.09375-.34375v-2c.234375-.359375.625-.578125 1.0625-.578125.75 0 1.34375.75 1.34375 1.671875zm0 0"/></symbol><symbol id="i" overflow="visible"><path d="m4.34375 0v-2.96875c0-.65625-.15625-1.5625-1.375-1.5625-.890625 0-1.390625.671875-1.4375.75v-.703125h-.71875v4.484375h.765625v-2.4375c0-.65625.25-1.484375 1.015625-1.484375.953125 0 .96875.703125.96875 1.015625v2.90625zm0 0"/></symbol><symbol id="j" overflow="visible"><path d="m3.3125-.265625-.15625-.59375c-.265625.21875-.578125.328125-.90625.328125-.359375 0-.5-.296875-.5-.828125v-2.484375h1.40625v-.578125h-1.40625v-1.265625h-.6875v1.265625h-.875v.578125h.84375v2.65625c0 .59375.140625 1.296875.828125 1.296875s1.203125-.25 1.453125-.375zm0 0"/></symbol><symbol id="k" overflow="visible"><path d="m7.109375 0v-2.96875c0-.671875-.15625-1.5625-1.375-1.5625-.59375 0-1.109375.28125-1.484375.8125-.25-.75-.953125-.8125-1.265625-.8125-.71875 0-1.1875.40625-1.453125.765625v-.71875h-.71875v4.484375h.765625v-2.4375c0-.6875.28125-1.484375 1.015625-1.484375.921875 0 .96875.640625.96875 1.015625v2.90625h.78125v-2.4375c0-.6875.265625-1.484375 1.015625-1.484375.921875 0 .96875.640625.96875 1.015625v2.90625zm0 0"/></symbol><symbol id="l" overflow="visible"><path d="m4.453125-4.421875h-.75c-1.296875 3.171875-1.328125 3.625-1.328125 3.859375h-.015625c-.0625-.671875-.859375-2.53125-.890625-2.625l-.546875-1.234375h-.78125l1.9375 4.421875-.359375.890625c-.265625.578125-.4375.578125-.578125.578125-.15625 0-.46875-.03125-.765625-.15625l.046875.65625c.21875.046875.5.078125.71875.078125.359375 0 .71875-.125 1.125-1.140625zm0 0"/></symbol><symbol id="m" overflow="visible"><path d="m4.140625-.40625-.0625-.65625c-.515625.390625-1.046875.53125-1.5625.53125-.828125 0-1.375-.71875-1.375-1.6875 0-.78125.359375-1.734375 1.421875-1.734375.515625 0 .859375.078125 1.40625.4375l.125-.65625c-.59375-.328125-.9375-.421875-1.546875-.421875-1.375 0-2.1875 1.203125-2.1875 2.375 0 1.234375.90625 2.328125 2.15625 2.328125.53125 0 1.078125-.140625 1.625-.515625zm0 0"/></symbol><symbol id="n" overflow="visible"><path d="m4.671875-2.1875c0-1.34375-1-2.40625-2.171875-2.40625-1.234375 0-2.203125 1.09375-2.203125 2.40625s1.015625 2.296875 2.1875 2.296875c1.1875 0 2.1875-1 2.1875-2.296875zm-.78125-.109375c0 1.1875-.671875 1.765625-1.40625 1.765625-.6875 0-1.40625-.5625-1.40625-1.765625s.75-1.6875 1.40625-1.6875c.703125 0 1.40625.515625 1.40625 1.6875zm0 0"/></symbol><symbol id="o" overflow="visible"><path d="m1.5625 0v-4.421875h-.75v4.421875zm.078125-5.640625v-.890625h-.890625v.890625zm0 0"/></symbol><symbol id="p" overflow="visible"><path d="m4.453125-4.421875h-.75l-.796875 2.0625c-.203125.5625-.515625 1.359375-.59375 1.828125h-.015625c-.046875-.359375-.3125-1.046875-.40625-1.3125l-.96875-2.578125h-.78125l1.71875 4.421875h.875zm0 0"/></symbol><symbol id="q" overflow="visible"><path d="m4.34375 0v-4.421875h-.78125v2.890625c0 .75-.5625 1.09375-1.203125 1.09375-.703125 0-.78125-.265625-.78125-.6875v-3.296875h-.765625v3.328125c0 .71875.21875 1.203125 1.046875 1.203125.53125 0 1.234375-.15625 1.734375-.59375v.484375zm0 0"/></symbol><symbol id="r" overflow="visible"><path d="m1.5625 0v-6.921875h-.75v6.921875zm0 0"/></symbol><symbol id="s" overflow="visible"><path d="m.375 0h1.078125v-3.203125c0-.421875.03125-.734375.109375-.9375.078125-.21875.21875-.328125.4375-.328125.171875 0 .296875.078125.359375.21875s.09375.34375.09375.59375v3.65625h1.078125v-3.203125c0-.421875.046875-.75.140625-.953125s.234375-.3125.4375-.3125c.171875 0 .296875.078125.34375.21875s.078125.34375.078125.59375v3.65625h1.078125v-3.515625c0-.65625-.078125-1.15625-.21875-1.484375s-.421875-.5-.828125-.5c-.296875 0-.53125.078125-.6875.21875-.171875.140625-.3125.359375-.421875.625h-.046875c-.0625-.28125-.171875-.484375-.328125-.625-.140625-.140625-.359375-.21875-.640625-.21875-.25 0-.4375.0625-.609375.171875-.15625.109375-.296875.296875-.390625.5625h-.078125l-.140625-.640625h-.84375zm0 0"/></symbol><symbol id="t" overflow="visible"><path d="m2.3125.09375c.34375 0 .65625-.046875.953125-.1875.296875-.109375.5625-.328125.796875-.609375h.046875l.171875.703125h.96875v-3.609375c0-.640625-.203125-1.109375-.609375-1.421875-.390625-.3125-.96875-.46875-1.6875-.46875-.40625 0-.765625.046875-1.09375.125-.34375.078125-.65625.203125-.9375.34375l.40625.890625c.53125-.25 1.046875-.359375 1.578125-.359375.375 0 .65625.078125.859375.21875s.3125.390625.3125.71875v.21875l-1.171875.03125c-.765625.015625-1.328125.1875-1.734375.46875-.390625.265625-.59375.703125-.59375 1.3125 0 .515625.15625.921875.453125 1.203125s.71875.421875 1.28125.421875zm.375-.984375c-.28125 0-.5-.046875-.65625-.171875-.1875-.109375-.265625-.296875-.265625-.5625 0-.578125.484375-.875 1.4375-.90625l.875-.015625v.453125c0 .390625-.140625.6875-.421875.890625-.28125.21875-.59375.3125-.96875.3125zm0 0"/></symbol><symbol id="u" overflow="visible"><path d="m2.734375.09375c.78125 0 1.359375-.125 1.765625-.390625.390625-.25.59375-.65625.59375-1.1875 0-.34375-.078125-.609375-.21875-.8125-.15625-.203125-.34375-.359375-.59375-.5-.25-.125-.53125-.25-.859375-.390625-.40625-.15625-.71875-.28125-.921875-.375-.203125-.109375-.3125-.25-.3125-.453125 0-.3125.296875-.46875.890625-.46875.5 0 1.03125.109375 1.59375.328125l.375-.953125c-.3125-.140625-.640625-.234375-.953125-.296875-.328125-.0625-.65625-.09375-.984375-.09375-.65625 0-1.171875.125-1.578125.359375-.390625.25-.578125.640625-.578125 1.15625 0 .3125.046875.5625.1875.75.140625.203125.328125.359375.578125.5.234375.125.515625.25.828125.375.296875.125.546875.234375.75.3125.171875.078125.3125.171875.40625.25.078125.078125.125.1875.125.3125 0 .375-.328125.5625-.96875.5625-.390625 0-.75-.046875-1.078125-.140625s-.640625-.1875-.890625-.3125v1.140625c.28125.125.578125.203125.890625.25.296875.0625.625.078125.953125.078125zm0 0"/></symbol><symbol id="v" overflow="visible"><path d="m3.9375.09375c.4375 0 .875-.046875 1.3125-.1875v-.984375c-.21875.046875-.421875.09375-.59375.109375-.1875.03125-.359375.046875-.515625.046875-.328125 0-.578125-.078125-.765625-.21875s-.28125-.390625-.28125-.796875v-2.4375h2.0625v-1.03125h-2.0625v-1.375h-.9375l-.21875 1.375-1.40625.234375v.796875h1.328125v2.59375c0 .6875.1875 1.171875.546875 1.453125s.875.421875 1.53125.421875zm0 0"/></symbol><symbol id="w" overflow="visible"><path d="m3.453125.09375c.28125 0 .578125-.015625.890625-.078125.296875-.0625.609375-.15625.90625-.3125v-1.015625c-.3125.125-.609375.21875-.890625.296875-.296875.0625-.578125.09375-.84375.09375-.5 0-.90625-.109375-1.25-.328125-.328125-.234375-.5-.609375-.515625-1.125h3.6875v-.609375c0-.78125-.203125-1.390625-.609375-1.84375-.421875-.453125-1-.671875-1.734375-.671875-.546875 0-1 .109375-1.375.34375-.390625.21875-.6875.546875-.875.953125-.203125.421875-.3125.921875-.3125 1.484375 0 .921875.25 1.609375.765625 2.09375.5.484375 1.21875.71875 2.15625.71875zm-1.671875-3.359375c.046875-.390625.1875-.71875.4375-.9375.234375-.21875.53125-.34375.890625-.34375.34375 0 .625.125.84375.34375.21875.234375.328125.546875.34375.9375zm0 0"/></symbol><symbol id="x" overflow="visible"><path d="m.484375 0h4.203125v-.78125l-1.46875-.25v-1.609375c0-.3125.046875-.59375.15625-.859375s.28125-.453125.5-.609375c.203125-.15625.453125-.234375.75-.234375.15625 0 .296875.015625.4375.046875.140625.046875.265625.078125.375.125l.328125-1.140625c-.15625-.078125-.328125-.125-.5-.15625-.1875-.015625-.34375-.03125-.484375-.03125-.40625 0-.71875.09375-.96875.28125s-.46875.4375-.640625.75h-.0625l-.171875-.9375h-2.21875v.875l1.265625.15625v3.34375l-1.5.25zm0 0"/></symbol><symbol id="y" overflow="visible"><path d="m1.328125 2.4375c.578125 0 1.03125-.171875 1.359375-.5.328125-.34375.609375-.84375.84375-1.5l2.15625-5.84375h-1.328125l-.953125 3.140625c-.0625.171875-.109375.359375-.171875.53125-.046875.1875-.109375.390625-.140625.59375h-.03125c-.109375-.421875-.203125-.796875-.328125-1.125l-1.125-3.140625h-1.3125l2.171875 5.390625-.15625.453125c-.125.3125-.265625.5625-.4375.71875-.1875.15625-.421875.234375-.71875.234375-.078125 0-.171875 0-.265625-.015625-.109375-.015625-.203125-.015625-.28125-.046875v1.03125c.234375.0625.484375.078125.71875.078125zm0 0"/></symbol><symbol id="z" overflow="visible"><path d="m3.4375.09375c.453125 0 .828125-.109375 1.140625-.34375s.546875-.5625.703125-.984375.234375-.921875.234375-1.484375c0-.546875-.078125-1.046875-.21875-1.453125-.15625-.421875-.390625-.75-.703125-.984375s-.6875-.34375-1.140625-.34375c-.359375 0-.6875.078125-.953125.21875-.28125.140625-.484375.34375-.640625.578125h-.0625c.03125-.4375.0625-.796875.0625-1.078125v-1.796875h-1.21875v7.578125h.953125l.171875-.625h.078125c.171875.21875.390625.390625.671875.53125.265625.140625.578125.1875.921875.1875zm-.359375-1.015625c-.828125 0-1.21875-.59375-1.21875-1.8125 0-.609375.09375-1.046875.3125-1.328125s.515625-.421875.890625-.421875c.796875 0 1.203125.59375 1.203125 1.765625 0 .59375-.09375 1.046875-.296875 1.34375-.203125.3125-.5.453125-.890625.453125zm0 0"/></symbol><symbol id="A" overflow="visible"><path d="m.640625 0h1.25v-2.625c0-.578125.078125-1.03125.28125-1.359375.1875-.328125.515625-.5.96875-.5.671875 0 1 .40625 1 1.21875v3.265625h1.25v-3.5625c0-.640625-.171875-1.125-.484375-1.453125-.328125-.3125-.78125-.484375-1.359375-.484375-.390625 0-.71875.0625-1.015625.203125-.28125.140625-.5.34375-.671875.625h-.0625l-.203125-.734375h-.953125zm0 0"/></symbol><symbol id="B" overflow="visible"><path d="m3.375.09375c.28125 0 .5625-.015625.828125-.078125.265625-.046875.53125-.140625.796875-.265625v-1.109375c-.25.140625-.5.25-.75.3125-.265625.0625-.5.09375-.734375.09375-.5 0-.875-.140625-1.125-.40625s-.375-.703125-.375-1.328125c0-.578125.125-1.015625.359375-1.3125s.609375-.453125 1.140625-.453125c.15625 0 .359375.03125.5625.0625.203125.046875.421875.125.6875.21875l.359375-.984375c-.265625-.125-.546875-.203125-.828125-.265625-.296875-.046875-.578125-.078125-.859375-.078125-.859375 0-1.53125.234375-1.984375.6875-.46875.46875-.703125 1.1875-.703125 2.171875 0 .9375.234375 1.625.671875 2.078125.4375.4375 1.078125.65625 1.953125.65625zm0 0"/></symbol><symbol id="C" overflow="visible"><path d="m.640625 0h1.25v-2.640625c0-1.234375.40625-1.84375 1.234375-1.84375.328125 0 .578125.09375.75.28125.1875.203125.265625.515625.265625.96875v3.234375h1.25v-3.53125c0-.65625-.171875-1.140625-.5-1.46875-.34375-.328125-.796875-.5-1.375-.5-.390625 0-.6875.078125-.953125.21875s-.484375.359375-.65625.640625h-.0625c0-.1875.015625-.375.015625-.578125.015625-.203125.03125-.40625.03125-.578125v-1.78125h-1.25zm0 0"/></symbol><symbol id="D" overflow="visible"><path d="m3.109375-6.15625c.25 0 .453125-.046875.59375-.1875.140625-.125.203125-.3125.203125-.578125 0-.25-.0625-.4375-.203125-.5625s-.34375-.1875-.578125-.1875c-.25 0-.4375.0625-.578125.1875s-.21875.3125-.21875.5625c0 .265625.0625.453125.203125.578125.140625.140625.328125.1875.578125.1875zm-2.4375 6.15625h4.765625v-.78125l-1.671875-.25v-4.375h-2.875v.875l1.625.15625v3.34375l-1.84375.25zm0 0"/></symbol><path d="m24.243687 24.907094h-48.484375c-2.203125 0-3.988281-1.785157-3.988281-3.984375v-41.84375c0-2.203125 1.785156-3.984375 3.988281-3.984375h48.484375c2.199219 0 3.984375 1.78125 3.984375 3.984375v41.84375c0 2.199218-1.785156 3.984375-3.984375 3.984375zm0 0" fill="#2e8b57" fill-opacity=".5" stroke="#191970" stroke-miterlimit="10" stroke-width=".3985" transform="matrix(1 0 0 -1 121.436 230.411)"/><g fill="#191970"><g><use x="108.205" xlink:href="#b" y="226.924"/><use x="112.020691" xlink:href="#c" y="226.924"/><use x="117.171376" xlink:href="#d" y="226.924"/></g><g><use x="121.684452" xlink:href="#e" y="226.924"/><use x="125.091675" xlink:href="#f" y="226.924"/><use x="129.515087" xlink:href="#g" y="226.924"/></g><g><use x="108.315" xlink:href="#h" y="238.879"/><use x="113.465685" xlink:href="#d" y="238.879"/></g><g><use x="117.978761" xlink:href="#e" y="238.879"/><use x="121.385984" xlink:href="#f" y="238.879"/><use x="125.809396" xlink:href="#i" y="238.879"/><use x="130.960081" xlink:href="#j" y="238.879"/></g></g><g><use x="103.503" xlink:href="#s" y="201.685"/><use x="109.480584" xlink:href="#t" y="201.685"/><use x="115.458168" xlink:href="#u" y="201.685"/><use x="121.435752" xlink:href="#v" y="201.685"/><use x="127.413336" xlink:href="#w" y="201.685"/><use x="133.39092" xlink:href="#x" y="201.685"/></g><path d="m-55.814906 117.637562h-58.449219c-2.199219 0-3.984375-1.78125-3.984375-3.984375v-41.84375c0-2.199218 1.785156-3.984375 3.984375-3.984375h58.449219c2.199218 0 3.984375 1.785157 3.984375 3.984375v41.84375c0 2.203125-1.785157 3.984375-3.984375 3.984375zm0 0" fill="#2e8b57" fill-opacity=".5" stroke="#191970" stroke-miterlimit="10" stroke-width=".3985" transform="matrix(1 0 0 -1 121.436 230.411)"/><g fill="#191970"><use x="12.883" xlink:href="#k" y="139.921"/><use x="20.793336" xlink:href="#l" y="139.921"/></g><g fill="#191970"><use x="28.703672" xlink:href="#m" y="139.921"/><use x="33.127084" xlink:href="#n" y="139.921"/><use x="38.108404" xlink:href="#k" y="139.921"/><use x="46.018741" xlink:href="#k" y="139.921"/><use x="53.929077" xlink:href="#o" y="139.921"/><use x="56.310148" xlink:href="#j" y="139.921"/></g><path d="m-55.814906 210.371937h-58.449219c-2.199219 0-3.984375-1.785156-3.984375-3.984375v-41.84375c0-2.203125 1.785156-3.984375 3.984375-3.984375h58.449219c2.199218 0 3.984375 1.78125 3.984375 3.984375v41.84375c0 2.199219-1.785157 3.984375-3.984375 3.984375zm0 0" fill="#2e8b57" fill-opacity=".5" stroke="#191970" stroke-miterlimit="10" stroke-width=".3985" transform="matrix(1 0 0 -1 121.436 230.411)"/><g fill="#191970"><use x="14.512" xlink:href="#k" y="42.373"/><use x="22.422336" xlink:href="#l" y="42.373"/></g><g fill="#191970"><use x="30.332672" xlink:href="#b" y="42.373"/><use x="34.148363" xlink:href="#f" y="42.373"/><use x="38.571776" xlink:href="#m" y="42.373"/><use x="42.995188" xlink:href="#n" y="42.373"/><use x="47.976508" xlink:href="#i" y="42.373"/><use x="53.127193" xlink:href="#g" y="42.373"/></g><g fill="#191970"><use x="20.795" xlink:href="#m" y="54.328"/><use x="25.218412" xlink:href="#n" y="54.328"/><use x="30.199732" xlink:href="#k" y="54.328"/><use x="38.110068" xlink:href="#k" y="54.328"/><use x="46.020404" xlink:href="#o" y="54.328"/><use x="48.401475" xlink:href="#j" y="54.328"/></g><g><use x="12.486" xlink:href="#s" y="13.881"/><use x="18.463584" xlink:href="#y" y="13.881"/><use x="24.441168" xlink:href="#z" y="13.881"/><use x="30.418752" xlink:href="#x" y="13.881"/><use x="36.396336" xlink:href="#t" y="13.881"/><use x="42.37392" xlink:href="#A" y="13.881"/><use x="48.351504" xlink:href="#B" y="13.881"/><use x="54.329088" xlink:href="#C" y="13.881"/></g><path d="m109.28275 117.637562h-48.484375c-2.203125 0-3.984375-1.78125-3.984375-3.984375v-41.84375c0-2.199218 1.78125-3.984375 3.984375-3.984375h48.484375c2.199219 0 3.984375 1.785157 3.984375 3.984375v41.84375c0 2.203125-1.785156 3.984375-3.984375 3.984375zm0 0" fill="#2e8b57" fill-opacity=".5" stroke="#191970" stroke-miterlimit="10" stroke-width=".3985" transform="matrix(1 0 0 -1 121.436 230.411)"/><g fill="#191970"><use x="196.996" xlink:href="#j" y="135.104"/><use x="200.592513" xlink:href="#c" y="135.104"/><use x="205.743198" xlink:href="#f" y="135.104"/><use x="210.16661" xlink:href="#o" y="135.104"/><use x="212.547681" xlink:href="#e" y="135.104"/></g><g fill="#191970"><use x="190.874" xlink:href="#m" y="147.059"/><use x="195.297412" xlink:href="#n" y="147.059"/><use x="200.278732" xlink:href="#k" y="147.059"/><use x="208.189068" xlink:href="#k" y="147.059"/><use x="216.099404" xlink:href="#o" y="147.059"/><use x="218.480475" xlink:href="#j" y="147.059"/></g><g><use x="173.598" xlink:href="#v" y="108.954"/><use x="179.575584" xlink:href="#C" y="108.954"/><use x="185.553168" xlink:href="#w" y="108.954"/><use x="191.530752" xlink:href="#D" y="108.954"/><use x="197.508336" xlink:href="#x" y="108.954"/><use x="203.48592" xlink:href="#z" y="108.954"/><use x="209.463504" xlink:href="#x" y="108.954"/><use x="215.441088" xlink:href="#t" y="108.954"/><use x="221.418672" xlink:href="#A" y="108.954"/><use x="227.396256" xlink:href="#B" y="108.954"/><use x="233.37384" xlink:href="#C" y="108.954"/></g><path d="m24.243687-67.827281h-48.484375c-2.203125 0-3.988281-1.78125-3.988281-3.984375v-41.84375c0-2.199219 1.785156-3.984375 3.988281-3.984375h48.484375c2.199219 0 3.984375 1.785156 3.984375 3.984375v41.84375c0 2.203125-1.785156 3.984375-3.984375 3.984375zm0 0" fill="#2e8b57" fill-opacity=".5" stroke="#191970" stroke-miterlimit="10" stroke-width=".3985" transform="matrix(1 0 0 -1 121.436 230.411)"/><use fill="#191970" x="104.624" xlink:href="#h" y="320.372"/><g fill="#191970"><use x="109.495731" xlink:href="#e" y="320.372"/><use x="112.902954" xlink:href="#f" y="320.372"/><use x="117.326366" xlink:href="#p" y="320.372"/><use x="121.919143" xlink:href="#o" y="320.372"/><use x="124.300214" xlink:href="#n" y="320.372"/><use x="129.281534" xlink:href="#q" y="320.372"/><use x="134.432219" xlink:href="#b" y="320.372"/></g><g fill="#191970"><use x="105.834" xlink:href="#m" y="332.328"/><use x="110.257412" xlink:href="#n" y="332.328"/><use x="115.238732" xlink:href="#k" y="332.328"/><use x="123.149068" xlink:href="#k" y="332.328"/><use x="131.059404" xlink:href="#o" y="332.328"/><use x="133.440475" xlink:href="#j" y="332.328"/></g><path d="m145.679688 390.96875h-48.484376c-2.203124 0-3.988281 1.785156-3.988281 3.984375v41.84375c0 2.203125 1.785157 3.984375 3.988281 3.984375h48.484376c2.199218 0 3.984374-1.78125 3.984374-3.984375v-41.84375c0-2.199219-1.785156-3.984375-3.984374-3.984375zm0 0" fill="#2e8b57" fill-opacity=".5"/><g clip-path="url(#a)"><path d="m24.243687-160.55775h-48.484375c-2.203125 0-3.988281-1.785156-3.988281-3.984375v-41.84375c0-2.203125 1.785156-3.984375 3.988281-3.984375h48.484375c2.199219 0 3.984375 1.78125 3.984375 3.984375v41.84375c0 2.199219-1.785156 3.984375-3.984375 3.984375zm0 0" fill="none" stroke="#191970" stroke-miterlimit="10" stroke-width=".3985" transform="matrix(1 0 0 -1 121.436 230.411)"/></g><g fill="#191970"><use x="109.904" xlink:href="#o" y="413.298"/><use x="112.285071" xlink:href="#i" y="413.298"/><use x="117.435756" xlink:href="#o" y="413.298"/><use x="119.816827" xlink:href="#j" y="413.298"/><use x="123.41334" xlink:href="#o" y="413.298"/><use x="125.794411" xlink:href="#d" y="413.298"/><use x="130.586441" xlink:href="#r" y="413.298"/></g><g fill="#191970"><use x="105.834" xlink:href="#m" y="425.253"/><use x="110.257412" xlink:href="#n" y="425.253"/><use x="115.238732" xlink:href="#k" y="425.253"/><use x="123.149068" xlink:href="#k" y="425.253"/><use x="131.059404" xlink:href="#o" y="425.253"/><use x="133.440475" xlink:href="#j" y="425.253"/></g><path d="m-62.025844 67.625844 35.742188-38.960938" fill="none" stroke="#191970" stroke-miterlimit="10" stroke-width=".3985" transform="matrix(1 0 0 -1 121.436 230.411)"/><path d="m96.5 203.214844-.980469-3.425782-.367187 1.957032-1.984375.199218" fill="#191970"/><path d="m62.028844 67.625844-35.746094-38.960938" fill="none" stroke="#191970" stroke-miterlimit="10" stroke-width=".3985" transform="matrix(1 0 0 -1 121.436 230.411)"/><path d="m146.371094 203.214844 3.332031-1.269532-1.984375-.199218-.367188-1.957032" fill="#191970"/><path d="m.0015-25.104625v-37.695313" fill="none" stroke="#191970" stroke-miterlimit="10" stroke-width=".3985" transform="matrix(1 0 0 -1 121.436 230.411)"/><path d="m121.4375 295.203125 1.59375-3.1875-1.59375 1.195313-1.59375-1.195313" fill="#191970"/><path d="m.0015-117.839v-37.691406" fill="none" stroke="#191970" stroke-miterlimit="10" stroke-width=".3985" transform="matrix(1 0 0 -1 121.436 230.411)"/><path d="m121.4375 387.933594 1.59375-3.1875-1.59375 1.195312-1.59375-1.195312" fill="#191970"/><path d="m-85.041469 160.360219v-37.695313" fill="none" stroke="#191970" stroke-miterlimit="10" stroke-width=".3985" transform="matrix(1 0 0 -1 121.436 230.411)"/><path d="m36.394531 109.738281 1.59375-3.1875-1.59375 1.195313-1.59375-1.195313" fill="#191970"/></svg>