<svg height="56.189pt" viewBox="0 0 385.083 56.189" width="385.083pt" xmlns="http://www.w3.org/2000/svg" xmlns:xlink="http://www.w3.org/1999/xlink"><clipPath id="a"><path d="m0 0h76v56.1875h-76zm0 0"/></clipPath><clipPath id="b"><path d="m106 0h69v56.1875h-69zm0 0"/></clipPath><clipPath id="c"><path d="m220 0h69v56.1875h-69zm0 0"/></clipPath><clipPath id="d"><path d="m319 0h66.082031v56.1875h-66.082031zm0 0"/></clipPath><symbol id="e" overflow="visible"><path d="m6.65625-4.421875h-.71875l-.640625 2.109375c-.109375.359375-.40625 1.34375-.46875 1.78125-.046875-.3125-.296875-1.203125-.46875-1.765625l-.640625-2.125h-.703125l-.5625 1.875c-.109375.34375-.453125 1.484375-.484375 2h-.015625c-.046875-.484375-.375-1.609375-.53125-2.15625l-.53125-1.71875h-.75l1.359375 4.421875h.796875l.609375-2.046875c.140625-.46875.421875-1.453125.453125-1.828125h.015625c.015625.28125.1875.96875.3125 1.40625l.734375 2.46875h.875zm0 0"/></symbol><symbol id="f" overflow="visible"><path d="m4.671875-2.1875c0-1.34375-1-2.40625-2.171875-2.40625-1.234375 0-2.203125 1.09375-2.203125 2.40625s1.015625 2.296875 2.1875 2.296875c1.1875 0 2.1875-1 2.1875-2.296875zm-.78125-.109375c0 1.1875-.671875 1.765625-1.40625 1.765625-.6875 0-1.40625-.5625-1.40625-1.765625s.75-1.6875 1.40625-1.6875c.703125 0 1.40625.515625 1.40625 1.6875zm0 0"/></symbol><symbol id="g" overflow="visible"><path d="m3.265625-3.875v-.65625c-.890625 0-1.4375.5-1.75.953125v-.90625h-.703125v4.484375h.75v-2.140625c0-.984375.71875-1.703125 1.703125-1.734375zm0 0"/></symbol><symbol id="h" overflow="visible"><path d="m4.6875 0-1.890625-2.71875 1.671875-1.703125h-.890625l-2.015625 2.0625v-4.5625h-.71875v6.921875h.6875v-1.40625l.796875-.828125 1.546875 2.234375zm0 0"/></symbol><symbol id="i" overflow="visible"><path d="m1.5625 0v-4.421875h-.75v4.421875zm.078125-5.640625v-.890625h-.890625v.890625zm0 0"/></symbol><symbol id="j" overflow="visible"><path d="m4.34375 0v-2.96875c0-.65625-.15625-1.5625-1.375-1.5625-.890625 0-1.390625.671875-1.4375.75v-.703125h-.71875v4.484375h.765625v-2.4375c0-.65625.25-1.484375 1.015625-1.484375.953125 0 .96875.703125.96875 1.015625v2.90625zm0 0"/></symbol><symbol id="k" overflow="visible"><path d="m4.828125-3.90625-.109375-.625c-.6875 0-1.265625.1875-1.5625.3125-.21875-.171875-.546875-.3125-.953125-.3125-.859375 0-1.578125.71875-1.578125 1.625 0 .359375.125.71875.328125.984375-.296875.40625-.296875.796875-.296875.84375 0 .265625.09375.546875.265625.765625-.515625.296875-.640625.765625-.640625 1.015625 0 .75.984375 1.34375 2.203125 1.34375s2.203125-.578125 2.203125-1.34375c0-1.390625-1.65625-1.390625-2.046875-1.390625h-.875c-.125 0-.578125 0-.578125-.53125 0-.109375.03125-.265625.109375-.359375.203125.15625.53125.296875.90625.296875.890625 0 1.59375-.75 1.59375-1.625 0-.484375-.21875-.859375-.328125-1l.046875.015625c.21875 0 .484375-.046875.734375-.046875.171875 0 .578125.03125.578125.03125zm-1.734375 1c0 .765625-.46875 1.046875-.890625 1.046875-.375 0-.890625-.21875-.890625-1.046875s.515625-1.0625.890625-1.0625c.421875 0 .890625.28125.890625 1.0625zm.90625 3.625c0 .4375-.6875.765625-1.5.765625s-1.515625-.3125-1.515625-.78125c0-.03125 0-.671875.765625-.671875h.90625c.21875 0 1.34375 0 1.34375.6875zm0 0"/></symbol><symbol id="l" overflow="visible"><path d="m4.328125 0v-6.921875h-.75v2.9375c-.53125-.4375-1.078125-.546875-1.453125-.546875-.984375 0-1.765625 1.03125-1.765625 2.3125 0 1.3125.765625 2.328125 1.71875 2.328125.328125 0 .90625-.09375 1.46875-.625v.515625zm-.78125-1.390625c0 .140625-.015625.328125-.328125.609375-.234375.203125-.484375.28125-.734375.28125-.625 0-1.34375-.46875-1.34375-1.703125 0-1.3125.859375-1.71875 1.4375-1.71875.453125 0 .75.21875.96875.546875zm0 0"/></symbol><symbol id="m" overflow="visible"><path d="m4.125-2.1875c0-.328125-.015625-1.078125-.390625-1.6875-.421875-.609375-1.015625-.71875-1.375-.71875-1.109375 0-2.015625 1.0625-2.015625 2.34375 0 1.3125.96875 2.359375 2.15625 2.359375.625 0 1.203125-.234375 1.59375-.515625l-.0625-.65625c-.625.53125-1.296875.5625-1.515625.5625-.796875 0-1.4375-.703125-1.46875-1.6875zm-.5625-.546875h-2.46875c.15625-.75.6875-1.25 1.265625-1.25.515625 0 1.0625.328125 1.203125 1.25zm0 0"/></symbol><symbol id="n" overflow="visible"><path d="m4.140625-.40625-.0625-.65625c-.515625.390625-1.046875.53125-1.5625.53125-.828125 0-1.375-.71875-1.375-1.6875 0-.78125.359375-1.734375 1.421875-1.734375.515625 0 .859375.078125 1.40625.4375l.125-.65625c-.59375-.328125-.9375-.421875-1.546875-.421875-1.375 0-2.1875 1.203125-2.1875 2.375 0 1.234375.90625 2.328125 2.15625 2.328125.53125 0 1.078125-.140625 1.625-.515625zm0 0"/></symbol><symbol id="o" overflow="visible"><path d="m3.3125-.265625-.15625-.59375c-.265625.21875-.578125.328125-.90625.328125-.359375 0-.5-.296875-.5-.828125v-2.484375h1.40625v-.578125h-1.40625v-1.265625h-.6875v1.265625h-.875v.578125h.84375v2.65625c0 .59375.140625 1.296875.828125 1.296875s1.203125-.25 1.453125-.375zm0 0"/></symbol><symbol id="p" overflow="visible"><path d="m4.453125-4.421875h-.75c-1.296875 3.171875-1.328125 3.625-1.328125 3.859375h-.015625c-.0625-.671875-.859375-2.53125-.890625-2.625l-.546875-1.234375h-.78125l1.9375 4.421875-.359375.890625c-.265625.578125-.4375.578125-.578125.578125-.15625 0-.46875-.03125-.765625-.15625l.046875.65625c.21875.046875.5.078125.71875.078125.359375 0 .71875-.125 1.125-1.140625zm0 0"/></symbol><symbol id="q" overflow="visible"><path d="m3.59375-1.28125c0-.546875-.375-.875-.390625-.90625-.390625-.359375-.65625-.421875-1.15625-.5-.546875-.109375-1.015625-.21875-1.015625-.703125 0-.609375.71875-.609375.859375-.609375.3125 0 .84375.03125 1.40625.375l.125-.65625c-.515625-.234375-.921875-.3125-1.4375-.3125-.25 0-1.65625 0-1.65625 1.296875 0 .5.296875.8125.546875 1 .296875.21875.515625.265625 1.0625.375.359375.0625.9375.1875.9375.71875 0 .6875-.78125.6875-.9375.6875-.796875 0-1.359375-.375-1.53125-.484375l-.125.671875c.3125.15625.859375.4375 1.671875.4375.1875 0 .734375 0 1.15625-.3125.3125-.25.484375-.640625.484375-1.078125zm0 0"/></symbol><symbol id="r" overflow="visible"><path d="m4.078125 0v-2.875c0-1.015625-.734375-1.71875-1.640625-1.71875-.65625 0-1.109375.15625-1.5625.421875l.046875.65625c.53125-.359375 1.015625-.484375 1.515625-.484375.46875 0 .859375.390625.859375 1.125v.4375c-1.5.015625-2.765625.4375-2.765625 1.3125 0 .421875.28125 1.234375 1.140625 1.234375.140625 0 1.078125-.015625 1.65625-.46875v.359375zm-.78125-1.3125c0 .1875 0 .4375-.34375.625-.28125.171875-.65625.1875-.765625.1875-.484375 0-.9375-.234375-.9375-.640625 0-.703125 1.625-.765625 2.046875-.796875zm0 0"/></symbol><symbol id="s" overflow="visible"><path d="m1.5625 0v-6.921875h-.75v6.921875zm0 0"/></symbol><symbol id="t" overflow="visible"><path d="m4.78125-2.21875c0-1.203125-.625-2.3125-1.578125-2.3125-.59375 0-1.171875.203125-1.640625.59375v-.484375h-.75v6.359375h.78125v-2.390625c.3125.28125.75.5625 1.34375.5625.96875 0 1.84375-.984375 1.84375-2.328125zm-.78125 0c0 1.015625-.703125 1.71875-1.453125 1.71875-.390625 0-.65625-.203125-.859375-.46875-.09375-.140625-.09375-.171875-.09375-.34375v-2c.234375-.359375.625-.578125 1.0625-.578125.75 0 1.34375.75 1.34375 1.671875zm0 0"/></symbol><symbol id="u" overflow="visible"><path d="m7.109375 0v-2.96875c0-.671875-.15625-1.5625-1.375-1.5625-.59375 0-1.109375.28125-1.484375.8125-.25-.75-.953125-.8125-1.265625-.8125-.71875 0-1.1875.40625-1.453125.765625v-.71875h-.71875v4.484375h.765625v-2.4375c0-.6875.28125-1.484375 1.015625-1.484375.921875 0 .96875.640625.96875 1.015625v2.90625h.78125v-2.4375c0-.6875.265625-1.484375 1.015625-1.484375.921875 0 .96875.640625.96875 1.015625v2.90625zm0 0"/></symbol><symbol id="v" overflow="visible"><path d="m4.34375 0v-4.421875h-.78125v2.890625c0 .75-.5625 1.09375-1.203125 1.09375-.703125 0-.78125-.265625-.78125-.6875v-3.296875h-.765625v3.328125c0 .71875.21875 1.203125 1.046875 1.203125.53125 0 1.234375-.15625 1.734375-.59375v.484375zm0 0"/></symbol><symbol id="w" overflow="visible"><path d="m4.34375 0v-2.96875c0-.65625-.15625-1.5625-1.375-1.5625-.609375 0-1.09375.296875-1.40625.71875v-3.109375h-.75v6.921875h.765625v-2.4375c0-.65625.25-1.484375 1.015625-1.484375.953125 0 .96875.703125.96875 1.015625v2.90625zm0 0"/></symbol><path d="m65.621094 3.1875h-58.449219c-2.199219 0-3.984375 1.785156-3.984375 3.984375v41.84375c0 2.199219 1.785156 3.984375 3.984375 3.984375h58.449219c2.199218 0 3.984375-1.785156 3.984375-3.984375v-41.84375c0-2.199219-1.785157-3.984375-3.984375-3.984375zm0 0" fill="#2e8b57" fill-opacity=".5"/><g clip-path="url(#a)"><path d="m29.225094 24.9065h-58.449219c-2.199219 0-3.984375-1.785156-3.984375-3.984375v-41.84375c0-2.199219 1.785156-3.984375 3.984375-3.984375h58.449219c2.199218 0 3.984375 1.785156 3.984375 3.984375v41.84375c0 2.199219-1.785157 3.984375-3.984375 3.984375zm0 0" fill="none" stroke="#191970" stroke-miterlimit="10" stroke-width=".3985" transform="matrix(1 0 0 -1 36.396 28.094)"/></g><g fill="#191970"><use x="20.387" xlink:href="#e" y="24.553"/><use x="26.912529" xlink:href="#f" y="24.553"/><g><use x="31.614895" xlink:href="#g" y="24.553"/><use x="35.022118" xlink:href="#h" y="24.553"/><use x="39.893849" xlink:href="#i" y="24.553"/><use x="42.27492" xlink:href="#j" y="24.553"/><use x="47.425605" xlink:href="#k" y="24.553"/></g><g><use x="18.354" xlink:href="#l" y="36.508"/><use x="23.504685" xlink:href="#i" y="36.508"/><use x="25.885756" xlink:href="#g" y="36.508"/><use x="29.292979" xlink:href="#m" y="36.508"/><use x="33.716391" xlink:href="#n" y="36.508"/><use x="38.139803" xlink:href="#o" y="36.508"/><use x="41.736316" xlink:href="#f" y="36.508"/></g><g><use x="46.438682" xlink:href="#g" y="36.508"/><use x="49.845905" xlink:href="#p" y="36.508"/></g></g><path d="m164.992188 3.1875h-48.484376c-2.199218 0-3.984374 1.785156-3.984374 3.984375v41.84375c0 2.199219 1.785156 3.984375 3.984374 3.984375h48.484376c2.203124 0 3.988281-1.785156 3.988281-3.984375v-41.84375c0-2.199219-1.785157-3.984375-3.988281-3.984375zm0 0" fill="#2e8b57" fill-opacity=".5"/><g clip-path="url(#b)"><path d="m128.596187 24.9065h-48.484375c-2.199218 0-3.984375-1.785156-3.984375-3.984375v-41.84375c0-2.199219 1.785157-3.984375 3.984375-3.984375h48.484375c2.203125 0 3.988282 1.785156 3.988282 3.984375v41.84375c0 2.199219-1.785157 3.984375-3.988282 3.984375zm0 0" fill="none" stroke="#191970" stroke-miterlimit="10" stroke-width=".3985" transform="matrix(1 0 0 -1 36.396 28.094)"/></g><g fill="#191970"><use x="125.901" xlink:href="#q" y="25.325"/><use x="129.716691" xlink:href="#o" y="25.325"/><use x="133.313204" xlink:href="#r" y="25.325"/><use x="138.105234" xlink:href="#k" y="25.325"/><use x="143.086554" xlink:href="#i" y="25.325"/><use x="145.467625" xlink:href="#j" y="25.325"/><use x="150.61831" xlink:href="#k" y="25.325"/></g><use fill="#191970" x="132.182" xlink:href="#r" y="37.28"/><g fill="#191970"><use x="136.695076" xlink:href="#g" y="37.28"/><use x="140.102299" xlink:href="#m" y="37.28"/><use x="144.525711" xlink:href="#r" y="37.28"/></g><path d="m278.539062 3.1875h-48.484374c-2.199219 0-3.984376 1.785156-3.984376 3.984375v41.84375c0 2.199219 1.785157 3.984375 3.984376 3.984375h48.484374c2.203126 0 3.988282-1.785156 3.988282-3.984375v-41.84375c0-2.199219-1.785156-3.984375-3.988282-3.984375zm0 0" fill="#2e8b57" fill-opacity=".5"/><g clip-path="url(#c)"><path d="m242.143062 24.9065h-48.484375c-2.199218 0-3.984375-1.785156-3.984375-3.984375v-41.84375c0-2.199219 1.785157-3.984375 3.984375-3.984375h48.484375c2.203125 0 3.988282 1.785156 3.988282 3.984375v41.84375c0 2.199219-1.785157 3.984375-3.988282 3.984375zm0 0" fill="none" stroke="#191970" stroke-miterlimit="10" stroke-width=".3985" transform="matrix(1 0 0 -1 36.396 28.094)"/></g><g fill="#191970"><use x="244.677" xlink:href="#s" y="24.553"/><use x="247.058071" xlink:href="#f" y="24.553"/></g><g fill="#191970"><use x="252.318345" xlink:href="#n" y="24.553"/><use x="256.741757" xlink:href="#r" y="24.553"/><use x="261.533787" xlink:href="#s" y="24.553"/></g><g fill="#191970"><use x="233.927" xlink:href="#g" y="36.508"/><use x="237.334223" xlink:href="#m" y="36.508"/><use x="241.757635" xlink:href="#t" y="36.508"/></g><g fill="#191970"><use x="247.187274" xlink:href="#f" y="36.508"/><use x="252.168594" xlink:href="#q" y="36.508"/><use x="255.984285" xlink:href="#i" y="36.508"/><use x="258.365356" xlink:href="#o" y="36.508"/><use x="261.961869" xlink:href="#f" y="36.508"/></g><g fill="#191970"><use x="266.664235" xlink:href="#g" y="36.508"/><use x="270.071458" xlink:href="#p" y="36.508"/></g><path d="m377.914062 3.1875h-48.484374c-2.199219 0-3.984376 1.785156-3.984376 3.984375v41.84375c0 2.199219 1.785157 3.984375 3.984376 3.984375h48.484374c2.203126 0 3.984376-1.785156 3.984376-3.984375v-41.84375c0-2.199219-1.78125-3.984375-3.984376-3.984375zm0 0" fill="#2e8b57" fill-opacity=".5"/><g clip-path="url(#d)"><path d="m341.518062 24.9065h-48.484375c-2.199218 0-3.984375-1.785156-3.984375-3.984375v-41.84375c0-2.199219 1.785157-3.984375 3.984375-3.984375h48.484375c2.203125 0 3.984375 1.785156 3.984375 3.984375v41.84375c0 2.199219-1.78125 3.984375-3.984375 3.984375zm0 0" fill="none" stroke="#191970" stroke-miterlimit="10" stroke-width=".3985" transform="matrix(1 0 0 -1 36.396 28.094)"/></g><g fill="#191970"><use x="339.297" xlink:href="#g" y="23.94"/><use x="342.704223" xlink:href="#m" y="23.94"/><use x="347.127635" xlink:href="#u" y="23.94"/><use x="355.037971" xlink:href="#f" y="23.94"/><use x="360.019291" xlink:href="#o" y="23.94"/><use x="363.615804" xlink:href="#m" y="23.94"/></g><g fill="#191970"><use x="333.3" xlink:href="#g" y="35.895"/><use x="336.707223" xlink:href="#m" y="35.895"/><use x="341.130635" xlink:href="#t" y="35.895"/></g><g fill="#191970"><use x="346.560274" xlink:href="#f" y="35.895"/><use x="351.541594" xlink:href="#q" y="35.895"/><use x="355.357285" xlink:href="#i" y="35.895"/><use x="357.738356" xlink:href="#o" y="35.895"/><use x="361.334869" xlink:href="#f" y="35.895"/></g><g fill="#191970"><use x="366.037235" xlink:href="#g" y="35.895"/><use x="369.444458" xlink:href="#p" y="35.895"/></g><path d="m33.408687.00025h37.691407" fill="none" stroke="#191970" stroke-miterlimit="10" stroke-width=".3985" transform="matrix(1 0 0 -1 36.396 28.094)"/><path d="m109.488281 28.09375-3.1875-1.59375 1.195313 1.59375-1.195313 1.59375" fill="#191970"/><g fill="#191970"><use x="80.26" xlink:href="#q" y="37.303"/><use x="84.075691" xlink:href="#o" y="37.303"/><use x="87.672204" xlink:href="#r" y="37.303"/><use x="92.464234" xlink:href="#k" y="37.303"/><use x="97.445554" xlink:href="#m" y="37.303"/></g><path d="m132.783687.00025h51.863282" fill="none" stroke="#191970" stroke-miterlimit="10" stroke-width=".3985" transform="matrix(1 0 0 -1 36.396 28.094)"/><path d="m223.035156 28.09375-3.1875-1.59375 1.195313 1.59375-1.195313 1.59375" fill="#191970"/><g fill="#191970"><use x="181.922" xlink:href="#n" y="38.14"/><use x="186.345412" xlink:href="#f" y="38.14"/><use x="191.326732" xlink:href="#u" y="38.14"/><use x="199.237068" xlink:href="#u" y="38.14"/><use x="207.147404" xlink:href="#i" y="38.14"/><use x="209.528475" xlink:href="#o" y="38.14"/></g><path d="m246.330562.00025h37.691407" fill="none" stroke="#191970" stroke-miterlimit="10" stroke-width=".3985" transform="matrix(1 0 0 -1 36.396 28.094)"/><path d="m322.410156 28.09375-3.1875-1.59375 1.195313 1.59375-1.195313 1.59375" fill="#191970"/><g fill="#191970"><use x="294.348" xlink:href="#t" y="38.528"/><use x="299.498685" xlink:href="#v" y="38.528"/><use x="304.64937" xlink:href="#q" y="38.528"/><use x="308.465061" xlink:href="#w" y="38.528"/></g></svg>