<svg height="103.6pt" viewBox="0 0 99.155 103.6" width="99.155pt" xmlns="http://www.w3.org/2000/svg" xmlns:xlink="http://www.w3.org/1999/xlink"><symbol id="a" overflow="visible"><path d="m3.40625-7.140625c-.21875-.09375-.328125-.109375-.46875-.109375-.3125 0-.671875.15625-.890625.40625l-.578125.65625c-.28125.328125-.40625.78125-.40625 1.4375v.421875l-.6875.3125v.21875l.6875-.046875v2.828125c0 .625-.03125.703125-.375.71875l-.453125.03125v.296875c.984375-.03125.984375-.03125 1.234375-.03125s.25 0 1.25.03125v-.296875l-.453125-.03125c-.34375-.015625-.375-.09375-.375-.71875v-2.828125h1.234375l.078125-.515625-1.3125.03125v-.84375c0-1.140625.140625-1.421875.703125-1.421875.265625 0 .453125.0625.6875.28125l.125-.0625zm0 0"/></symbol><symbol id="b" overflow="visible"><path d="m4.359375-.703125-.125-.09375c-.640625.375-.875.46875-1.296875.46875-.65625 0-1.1875-.296875-1.46875-.78125-.1875-.328125-.265625-.609375-.28125-1.1875h1.453125c.6875 0 1.125-.03125 1.8125-.140625 0-.140625.015625-.21875.015625-.34375 0-1.140625-.734375-1.890625-1.859375-1.890625-.359375 0-.796875.125-1.203125.359375-.8125.46875-1.140625 1.09375-1.140625 2.125 0 .625.140625 1.171875.40625 1.546875.40625.53125 1.078125.84375 1.828125.84375.359375 0 .734375-.078125 1.140625-.265625.265625-.109375.46875-.234375.515625-.296875zm-.78125-1.953125c-.515625.015625-.75.03125-1.109375.03125-.46875 0-.71875-.015625-1.265625-.0625 0-.46875.046875-.6875.171875-.953125.203125-.4375.640625-.703125 1.125-.703125.328125 0 .578125.125.765625.390625.21875.328125.28125.625.3125 1.296875zm0 0"/></symbol><symbol id="c" overflow="visible"><path d="m3.234375-.8125-.046875.84375c.640625-.03125.640625-.03125.765625-.03125.046875 0 .296875.015625.734375.03125v-.296875l-.375-.03125c-.25 0-.28125-.078125-.28125-.578125v-1.8125c0-1.453125-.421875-1.984375-1.578125-1.984375-.421875 0-.828125.109375-1.203125.328125l-.53125.328125v.640625l.265625.078125.125-.3125c.203125-.46875.3125-.53125.765625-.53125.9375 0 1.328125.359375 1.359375 1.265625l-.984375.1875c-1.359375.25-1.9375.71875-1.9375 1.578125 0 .78125.46875 1.234375 1.265625 1.234375.171875 0 .34375-.03125.421875-.078125zm0-.421875c-.296875.40625-.921875.78125-1.3125.78125s-.75-.359375-.75-.796875c0-.359375.203125-.71875.5-.90625.25-.140625.796875-.28125 1.5625-.390625zm0 0"/></symbol><symbol id="d" overflow="visible"><path d="m.984375-3.8125v2.875c0 .734375.328125 1.0625 1.09375 1.0625.21875 0 .46875-.0625.53125-.125l.46875-.53125-.125-.171875c-.25.140625-.40625.1875-.59375.1875-.390625 0-.546875-.1875-.546875-.6875v-2.609375h1.28125l.09375-.53125-1.375.0625v-.390625c0-.40625.03125-.765625.109375-1.40625l-.125-.109375c-.234375.140625-.53125.28125-.84375.375.03125.296875.046875.484375.046875.78125v.703125l-.78125.34375v.21875zm0 0"/></symbol><symbol id="e" overflow="visible"><path d="m5.015625-4.640625-.09375-.03125c-.5.203125-1.03125.34375-1.546875.40625v.28125h.359375c.40625 0 .4375.0625.4375.71875v1.625c0 .21875-.140625.5-.359375.734375-.28125.28125-.609375.421875-.984375.421875-.359375 0-.640625-.109375-.796875-.296875-.140625-.171875-.203125-.46875-.203125-.90625v-2.953125l-.09375-.03125c-.515625.203125-1.03125.34375-1.5625.40625v.28125h.375c.40625 0 .4375.0625.4375.71875v1.6875c0 .6875.0625 1 .234375 1.25.234375.296875.609375.453125 1.171875.453125.453125 0 .84375-.140625 1.125-.390625l.65625-.625c0 .296875 0 .453125-.03125.921875.671875-.03125.671875-.03125.828125-.03125.140625 0 .140625 0 .828125.03125v-.296875l-.40625-.03125c-.34375-.015625-.375-.078125-.375-.71875zm0 0"/></symbol><symbol id="f" overflow="visible"><path d="m.234375-3.984375h.359375c.40625 0 .4375.0625.4375.71875v2.25c0 .625-.03125.703125-.359375.71875l-.46875.03125v.296875c.71875-.015625.984375-.03125 1.234375-.03125.203125 0 .203125 0 1.421875.03125v-.296875l-.515625-.03125c-.453125-.03125-.46875-.0625-.46875-.71875v-1.71875c0-.59375.390625-1.09375.890625-1.09375.296875 0 .5.140625.65625.453125h.21875l.09375-1.1875c-.109375-.078125-.296875-.109375-.46875-.109375-.3125 0-.625.15625-.828125.40625l-.5625.65625v-1.03125l-.09375-.03125c-.5.203125-1.03125.34375-1.546875.40625zm0 0"/></symbol><symbol id="g" overflow="visible"><path d="m.40625-1.421875c0 .6875-.03125.984375-.109375 1.375.515625.171875.90625.25 1.375.25 1.296875 0 2.21875-.703125 2.21875-1.671875 0-.3125-.078125-.546875-.265625-.75-.265625-.25-.59375-.359375-1.46875-.53125-.828125-.15625-1.09375-.359375-1.09375-.8125 0-.5.359375-.78125.96875-.78125.65625 0 1.171875.34375 1.171875.8125v.234375h.28125c0-.578125.015625-.8125.046875-1.125-.53125-.1875-.890625-.25-1.296875-.25-1.15625 0-1.859375.546875-1.859375 1.4375 0 .484375.21875.828125.671875 1.03125.265625.125.796875.28125 1.46875.421875.453125.109375.640625.3125.640625.6875 0 .546875-.5.921875-1.203125.921875-.734375 0-1.25-.34375-1.25-.84375v-.40625zm0 0"/></symbol><symbol id="h" overflow="visible"><path d="m1.875-4.640625-.09375-.03125c-.5.203125-1.03125.34375-1.546875.40625v.28125h.359375c.40625 0 .4375.0625.4375.71875v2.25c0 .625-.03125.703125-.359375.71875l-.46875.03125v.296875c1-.03125 1-.03125 1.25-.03125s.25 0 1.25.03125v-.296875l-.453125-.03125c-.34375-.015625-.375-.09375-.375-.71875zm-.453125-2.203125c-.3125 0-.5625.25-.5625.546875s.25.5625.546875.5625c.28125 0 .5625-.265625.5625-.5625 0-.265625-.28125-.546875-.546875-.546875zm0 0"/></symbol><symbol id="i" overflow="visible"><path d="m4.09375.03125c.59375-.03125.609375-.03125.78125-.03125.140625 0 .140625 0 .828125.03125v-.296875l-.40625-.03125c-.34375-.015625-.375-.078125-.375-.71875v-1.921875c0-1.171875-.546875-1.734375-1.65625-1.734375-.375 0-.578125.0625-.796875.25l-.75.65625v-.875l-.09375-.03125c-.515625.203125-1.03125.34375-1.5625.40625v.28125h.375c.40625 0 .4375.0625.4375.71875v2.25c0 .625-.03125.703125-.359375.71875l-.453125.03125v.296875c.671875-.015625.9375-.03125 1.234375-.03125.28125 0 .5625.015625 1.234375.03125v-.296875l-.453125-.03125c-.328125-.015625-.359375-.09375-.359375-.71875v-2.109375c0-.453125.65625-.9375 1.265625-.9375.671875 0 1.109375.5 1.109375 1.265625zm0 0"/></symbol><symbol id="j" overflow="visible"><path d="m.09375-3.984375h.375c.40625 0 .4375.0625.4375.71875v5.015625c0 .625-.03125.703125-.375.71875l-.453125.03125v.296875c1-.03125 1-.03125 1.25-.03125s.25 0 1.25.03125v-.296875l-.46875-.03125c-.328125-.015625-.359375-.09375-.359375-.71875v-1.875c.296875.171875.609375.25 1.0625.25.28125 0 .546875-.0625.703125-.171875l1.140625-.734375c.390625-.25.859375-1.28125.859375-1.921875 0-1.109375-.90625-1.96875-2.0625-1.96875-.375 0-.734375.09375-.890625.25l-.8125.75v-.96875l-.09375-.03125c-.515625.203125-1.03125.34375-1.5625.40625zm1.65625.9375c0-.140625.046875-.25.171875-.421875.296875-.375.703125-.5625 1.203125-.5625.9375 0 1.53125.65625 1.53125 1.703125 0 1.109375-.671875 1.9375-1.5625 1.9375-.546875 0-.953125-.171875-1.34375-.59375zm0 0"/></symbol><symbol id="k" overflow="visible"><path d="m4.109375-4.359375c-.5625-.234375-.84375-.3125-1.1875-.3125-.265625 0-.515625.0625-.765625.1875l-.875.453125c-.5625.296875-.9375 1.03125-.9375 1.875 0 .796875.28125 1.453125.765625 1.859375.34375.28125.796875.421875 1.453125.421875.203125 0 .421875-.046875.484375-.078125l1.09375-.9375-.046875.921875c.484375-.015625.65625-.03125.765625-.03125.078125 0 .21875 0 .4375.015625.0625 0 .265625 0 .46875.015625v-.296875l-.453125-.03125c-.34375-.015625-.375-.09375-.375-.71875v-6.140625l-.078125-.078125c-.4375.171875-.765625.25-1.5625.359375v.28125h.5625c.171875 0 .25.109375.25.40625zm0 2.15625c0 .640625-.015625.75-.15625.984375-.28125.46875-.765625.765625-1.234375.765625-.875 0-1.5-.84375-1.5-2.03125 0-1.078125.53125-1.71875 1.4375-1.71875.375 0 .765625.125 1.125.359375.203125.140625.328125.28125.328125.359375zm0 0"/></symbol><symbol id="l" overflow="visible"><path d="m3.984375-3.09375c0-.46875.046875-.875.125-1.234375-.390625-.234375-.734375-.34375-1.15625-.34375-.46875 0-1.03125.1875-1.625.5625-.703125.4375-1.0625 1.140625-1.0625 2.015625 0 1.34375.9375 2.296875 2.28125 2.296875.515625 0 1.265625-.1875 1.359375-.34375l.203125-.3125-.09375-.15625c-.359375.203125-.6875.296875-1.046875.296875-1.109375 0-1.828125-.859375-1.828125-2.1875 0-1.0625.5-1.65625 1.390625-1.65625.4375 0 .921875.203125 1.09375.453125l.078125.609375zm0 0"/></symbol><symbol id="m" overflow="visible"><path d="m3.40625-7.140625c-.21875-.09375-.328125-.109375-.46875-.109375-.3125 0-.671875.15625-.890625.40625l-.578125.65625c-.28125.328125-.40625.78125-.40625 1.4375v.421875l-.6875.3125v.21875l.6875-.046875v2.828125c0 .625-.03125.703125-.375.71875l-.453125.03125v.296875c.984375-.03125.984375-.03125 1.25-.03125.234375 0 .515625.015625 1.296875.03125v-.296875l-.515625-.03125c-.34375-.015625-.375-.09375-.375-.71875v-2.828125h1.140625l.0625-.515625-1.203125.03125v-.84375c0-1.140625.140625-1.421875.703125-1.421875.265625 0 .453125.0625.6875.28125l.125-.0625zm1.625 2.53125-.09375-.0625c-.4375.21875-.96875.359375-1.5625.421875v.28125h.375c.390625 0 .4375.078125.4375.734375v2.21875c0 .625-.03125.703125-.375.71875l-.453125.03125v.296875c1-.03125 1-.03125 1.25-.03125s.25 0 1.25.03125v-.296875l-.46875-.03125c-.34375-.015625-.359375-.09375-.359375-.71875zm-.375-2.234375c-.296875 0-.5625.25-.5625.546875s.265625.5625.546875.5625c.296875 0 .5625-.265625.5625-.5625 0-.265625-.265625-.546875-.546875-.546875zm0 0"/></symbol><symbol id="n" overflow="visible"><path d="m5.171875-3.765625.25-.40625-.03125-.125-1.421875.046875c-.375-.3125-.734375-.421875-1.21875-.421875-.4375 0-.953125.140625-1.359375.375-.546875.3125-.84375.8125-.84375 1.421875 0 .734375.453125 1.234375 1.203125 1.3125l-.796875.609375c-.09375.15625-.140625.28125-.140625.4375 0 .28125.171875.4375.65625.578125l-.875.46875c-.140625.078125-.28125.453125-.28125.75 0 .90625.890625 1.546875 2.15625 1.546875 1.515625 0 2.6875-.953125 2.6875-2.171875 0-.71875-.46875-1.21875-1.171875-1.21875h-1.59375c-.515625 0-.75-.109375-.75-.390625 0-.125.078125-.234375.328125-.453125.0625-.046875.078125-.0625.125-.109375.09375.015625.15625.015625.234375.015625.4375 0 .96875-.1875 1.375-.46875.4375-.328125.65625-.734375.65625-1.265625 0-.1875-.015625-.328125-.109375-.53125zm-2.78125-.578125c.6875 0 1.140625.5625 1.140625 1.40625 0 .65625-.421875 1.109375-1.03125 1.109375-.671875 0-1.109375-.53125-1.109375-1.296875s.359375-1.21875 1-1.21875zm.46875 4.484375c1.125 0 1.515625.234375 1.515625.875 0 .859375-.78125 1.5-1.828125 1.5-.875 0-1.46875-.515625-1.46875-1.25 0-.453125.25-.859375.65625-1.03125.15625-.078125.4375-.09375 1.125-.09375zm0 0"/></symbol><symbol id="o" overflow="visible"><path d="m2.78125-4.671875c-1.453125 0-2.46875 1.015625-2.46875 2.515625 0 1.40625.890625 2.359375 2.1875 2.359375 1.53125 0 2.625-1.078125 2.625-2.5625 0-1.34375-.984375-2.3125-2.34375-2.3125zm-.171875.328125c.90625 0 1.59375 1 1.59375 2.34375 0 1.15625-.515625 1.875-1.328125 1.875-.96875 0-1.625-.96875-1.625-2.375 0-1.203125.46875-1.84375 1.359375-1.84375zm0 0"/></symbol><g><use x="1" xlink:href="#a" y="8.258"/><use x="4.317546" xlink:href="#b" y="8.258"/><use x="9.089631" xlink:href="#c" y="8.258"/><use x="14.070931" xlink:href="#d" y="8.258"/><use x="17.318739" xlink:href="#e" y="8.258"/><use x="23.326187" xlink:href="#f" y="8.258"/></g><g><use x="27.082087" xlink:href="#b" y="8.258"/><use x="31.854172" xlink:href="#g" y="8.258"/></g><g><use x="8.109" xlink:href="#d" y="39.805"/><use x="11.356808" xlink:href="#f" y="39.805"/><use x="15.292035" xlink:href="#c" y="39.805"/><use x="20.273335" xlink:href="#h" y="39.805"/><use x="23.172451" xlink:href="#i" y="39.805"/></g><g><use x="2.952" xlink:href="#j" y="72.258"/><use x="8.939523" xlink:href="#f" y="72.258"/></g><g><use x="12.695423" xlink:href="#b" y="72.258"/><use x="17.467508" xlink:href="#k" y="72.258"/><use x="23.554657" xlink:href="#h" y="72.258"/><use x="26.453773" xlink:href="#l" y="72.258"/><use x="30.877168" xlink:href="#d" y="72.258"/></g><g><use x="67.829" xlink:href="#m" y="36.751"/><use x="73.856373" xlink:href="#n" y="36.751"/><use x="79.395579" xlink:href="#e" y="36.751"/><use x="85.403026" xlink:href="#f" y="36.751"/></g><g><use x="89.158927" xlink:href="#b" y="36.751"/><use x="93.931012" xlink:href="#g" y="36.751"/></g><use x="33.833" xlink:href="#f" y="99.791"/><g><use x="37.5889" xlink:href="#b" y="99.791"/><use x="42.360986" xlink:href="#j" y="99.791"/><use x="48.348508" xlink:href="#o" y="99.791"/><use x="53.788088" xlink:href="#f" y="99.791"/><use x="57.723315" xlink:href="#d" y="99.791"/><use x="60.971122" xlink:href="#g" y="99.791"/></g><g stroke="#000" stroke-linejoin="round" stroke-miterlimit="10" stroke-width="1.2" transform="matrix(1 0 0 -1 -221.461 785)"><path d="m239.394594 773.667969.132812-17.21875" fill="none"/><path d="m239.527406 756.449219.972657 3.007812-1.996094-.015625zm0 0" fill-rule="evenodd"/><path d="m239.328188 742.972656-.027344-19.691406" fill="none"/><path d="m239.300844 723.28125 1.003906 3-1.996094.003906zm0 0" fill-rule="evenodd"/><path d="m302.207094 744.203125-27.625-50.511719" fill="none"/><path d="m274.582094 693.691406 2.316406 2.152344-1.753906.957031zm0 0" fill-rule="evenodd"/><path d="m239.92975 709.980469 25.558594-15.566407" fill="none"/><path d="m265.488344 694.414062-2.039063 2.414063-1.042968-1.707031zm0 0" fill-rule="evenodd"/></g></svg>