<svg viewBox="0 0 100 100" xmlns="http://www.w3.org/2000/svg"><symbol overflow="visible" viewBox="0 0 24 24" id="account"><path d="M12,12A4,4,0,1,0,8,8,4,4,0,0,0,12,12Zm0,2c-2.7,0-8,1.3-8,4v1a1,1,0,0,0,1,1H19a1.1,1.1,0,0,0,1-1V18C20,15.3,14.7,14,12,14Z"/></symbol><symbol overflow="visible" viewBox="0 0 24 24" id="audio"><path d="M10.3,5.7,7,9H4a1.1,1.1,0,0,0-1,1v4a1.1,1.1,0,0,0,1,1H7l3.3,3.3a1,1,0,0,0,1.7-.7V6.4A1,1,0,0,0,10.3,5.7Z"/><path d="M15.6,7.9a1,1,0,1,0-1.3,1.5,3.4,3.4,0,0,1,0,5.2,1,1,0,0,0-.1,1.4.9.9,0,0,0,.7.4.9.9,0,0,0,.7-.3,5.4,5.4,0,0,0,0-8.2Z"/><path d="M18,5.3a.9.9,0,0,0-1.4.1,1,1,0,0,0,0,1.4,6.8,6.8,0,0,1,0,10.4,1,1,0,0,0,0,1.4.8.8,0,0,0,.7.4,1.1,1.1,0,0,0,.7-.3A9,9,0,0,0,18,5.3Z"/></symbol><symbol overflow="visible" viewBox="0 0 24 24" id="bitcoin"><path d="M11.22,21V18.73h-.78V21H8.89V18.73H5l.39-2.23h.84a1.17,1.17,0,0,0,1.08-1.28V8.55A1,1,0,0,0,6.27,7.5H5V5.25H8.89V3h1.55V5.25h.78V3h1.56V5.29c3.35.11,4.68,1.34,5.06,2.72a2.81,2.81,0,0,1-1.62,3.34,3.25,3.25,0,0,1,2.78,3c0,2.61-2.09,4.36-6.22,4.36V21Zm-.78-8.25V16.5c3.09,0,5.21-.28,5.21-1.89S13.36,12.75,10.44,12.75Zm0-1.5c1.72,0,4.34-.12,4.34-1.87,0-1.5-1.61-1.88-4.34-1.88Z"/></symbol><symbol overflow="visible" viewBox="0 0 24 24" id="book"><path d="M21,4a11.8,11.8,0,0,0-3.5-.5A9.3,9.3,0,0,0,12,5,9.3,9.3,0,0,0,6.5,3.5,11.8,11.8,0,0,0,3,4,6.82,6.82,0,0,0,1,5V19.6a.54.54,0,0,0,.5.5.45.45,0,0,0,.25-.05A10.18,10.18,0,0,1,6.5,19,12,12,0,0,1,12,20.5,12,12,0,0,1,17.5,19a10.18,10.18,0,0,1,4.75,1.05.45.45,0,0,0,.25.05.54.54,0,0,0,.5-.5V5A6.82,6.82,0,0,0,21,4Zm0,13.5a11.62,11.62,0,0,0-3.5-.5A12,12,0,0,0,12,18.5,12,12,0,0,0,6.5,17a11.62,11.62,0,0,0-3.5.5V6a11.62,11.62,0,0,1,3.5-.5A12,12,0,0,1,12,7a12,12,0,0,1,5.5-1.5A11.62,11.62,0,0,1,21,6Z"/><path d="M13,8.83v1.66a9.28,9.28,0,0,1,4.5-1,11.69,11.69,0,0,1,2.5.26V8.24A13.5,13.5,0,0,0,17.5,8,11.51,11.51,0,0,0,13,8.83Z"/><path d="M13,11.49v1.66a9.28,9.28,0,0,1,4.5-1,11.69,11.69,0,0,1,2.5.26V10.9a13.5,13.5,0,0,0-2.5-.24A11.69,11.69,0,0,0,13,11.49Z"/><path d="M13,14.16v1.66a9.28,9.28,0,0,1,4.5-1,11.69,11.69,0,0,1,2.5.26V13.57a12.7,12.7,0,0,0-2.5-.24A11.51,11.51,0,0,0,13,14.16Z"/><path d="M4,8.24V9.76A11.69,11.69,0,0,1,6.5,9.5a9.28,9.28,0,0,1,4.5,1V8.83A11.51,11.51,0,0,0,6.5,8,13.5,13.5,0,0,0,4,8.24Z"/><path d="M4,10.9v1.52a11.69,11.69,0,0,1,2.5-.26,9.28,9.28,0,0,1,4.5,1V11.49a11.69,11.69,0,0,0-4.5-.83A13.5,13.5,0,0,0,4,10.9Z"/><path d="M4,13.57v1.52a11.69,11.69,0,0,1,2.5-.26,9.28,9.28,0,0,1,4.5,1V14.16a11.51,11.51,0,0,0-4.5-.83A12.7,12.7,0,0,0,4,13.57Z"/></symbol><symbol overflow="visible" viewBox="0 0 24 24" id="bookmark"><path d="M16,2H8A2,2,0,0,0,6,4V22l6-6,6,6V4A2,2,0,0,0,16,2Z"/></symbol><symbol overflow="visible" viewBox="0 0 32 32" id="boost"><polygon points="3.9 28.1 13.9 18.1 3.9 18.1 3.9 28.1"/><polygon points="13.9 17.4 8.9 12.4 3.9 17.4 13.9 17.4"/><polygon points="19.6 13.4 12.3 20.8 19.6 28.1 19.6 13.4"/><rect x="12.2" y="11" width="5.2" height="5.19" transform="translate(-5.3 14.4) rotate(-45)"/><polygon points="20.3 12.8 20.3 20.1 23.9 16.4 23.9 9.1 20.3 12.8"/><polygon points="23.9 8.1 20.3 4.4 20.3 11.8 23.9 8.1"/><polygon points="24.4 7.6 28.1 3.9 20.8 3.9 24.4 7.6"/></symbol><symbol overflow="visible" viewBox="0 0 24 24" id="check-white"><path d="M2,12.1l1.7-1.6a33.3,33.3,0,0,1,5.5,3.3A49.6,49.6,0,0,1,21.4,3.4L22,4.6c-4.3,3.8-7.4,7.9-11.9,16A105.8,105.8,0,0,0,2,12.1Z" fill="#fff"/></symbol><symbol overflow="visible" viewBox="0 0 24 24" id="close"><path d="M18.3,5.7h0a1,1,0,0,0-1.4,0L12,10.6,7.1,5.7a1,1,0,0,0-1.4,0h0a1,1,0,0,0,0,1.4L10.6,12,5.7,16.9a1,1,0,0,0,0,1.4h0a1,1,0,0,0,1.4,0L12,13.4l4.9,4.9a1,1,0,0,0,1.4,0h0a1,1,0,0,0,0-1.4L13.4,12l4.9-4.9A1,1,0,0,0,18.3,5.7Z"/></symbol><symbol overflow="visible" viewBox="0 0 32 32" id="core"><polygon points="26.5 13.2 19.2 5.8 11.8 13.2 26.5 13.2"/><rect x="24.2" y="6.2" width="5.2" height="5.19" transform="translate(1.6 21.6) rotate(-45)"/><polygon points="27.2 13.2 30.8 16.8 30.8 9.5 27.2 13.2"/><polygon points="11.8 23.8 21.8 13.8 11.8 13.8 11.8 23.8"/><polygon points="3.8 21.2 11.2 21.2 11.2 13.8 3.8 21.2"/><polygon points="6.2 21.8 1.2 26.8 6.2 26.8 11.2 21.8 6.2 21.8"/><polygon points="13.2 23.2 9.5 26.8 16.8 26.8 13.2 23.2"/></symbol><symbol overflow="visible" viewBox="0 0 24 24" id="creditcard"><path d="M20,4H4A2,2,0,0,0,2,6V18a2,2,0,0,0,2,2H20a2,2,0,0,0,2-2V6A2,2,0,0,0,20,4ZM19,18H5a1,1,0,0,1-1-1V12H20v5A1.1,1.1,0,0,1,19,18ZM20,8H4V6H20Z"/></symbol><symbol overflow="visible" viewBox="0 0 24 24" id="email"><path d="M20,4H4A2,2,0,0,0,2,6V18a2,2,0,0,0,2,2H20a2,2,0,0,0,2-2V6A2,2,0,0,0,20,4Zm-.4,4.2-7.1,4.5a.9.9,0,0,1-1,0L4.4,8.2A.8.8,0,0,1,4,7.5a.9.9,0,0,1,1.3-.7L12,11l6.7-4.2a.9.9,0,0,1,1.3.7A.7.7,0,0,1,19.6,8.2Z"/></symbol><symbol overflow="visible" viewBox="0 0 24 24" id="eye"><path d="M12,4A11.8,11.8,0,0,0,1,11.5a11.8,11.8,0,0,0,22,0A11.8,11.8,0,0,0,12,4Zm0,12.5a5,5,0,1,1,5-5A5,5,0,0,1,12,16.5Zm0-8a3,3,0,1,0,3,3A2.9,2.9,0,0,0,12,8.5Z"/></symbol><symbol overflow="visible" viewBox="0 0 24 24" id="facebook"><path d="M20,3H4A.9.9,0,0,0,3,4V20a.9.9,0,0,0,1,1h8.6V14.1H10.3V11.4h2.3V9.3a3.3,3.3,0,0,1,2.9-3.6h2.7V8.1H16.8c-1.2,0-1.4.6-1.4,1.4v1.7h2.7l-.3,2.7H15.4V21H20a.9.9,0,0,0,1-1h0V4a.9.9,0,0,0-1-1Z"/></symbol><symbol overflow="visible" viewBox="0 0 24 24" id="feedback"><path d="M20,3H4A2,2,0,0,0,2,5V16a2,2,0,0,0,2,2H6v5l5-5h9a2,2,0,0,0,2-2V5A2,2,0,0,0,20,3ZM7,12A1.5,1.5,0,0,1,7,9a1.5,1.5,0,0,1,0,3Zm5,0a1.5,1.5,0,1,1,1.5-1.5A1.5,1.5,0,0,1,12,12Zm5,0a1.5,1.5,0,1,1,1.5-1.5A1.5,1.5,0,0,1,17,12Z"/></symbol><symbol overflow="visible" viewBox="0 0 32 32" id="fermat"><polygon points="30.3 20.7 23 13.3 15.7 20.7 30.3 20.7"/><polygon points="15 5.7 15 20.3 22.3 13 15 5.7"/><polygon points="6.7 21.3 11.7 26.3 16.7 21.3 6.7 21.3"/><polygon points="17.3 26.3 22.3 21.3 17.3 21.3 12.3 26.3 17.3 26.3"/><rect x="7.7" y="15.2" width="5" height="5" transform="translate(-9.1 24.3) rotate(-79)"/><polygon points="13.2 15 14.2 10.1 8.3 14.1 13.2 15"/><polygon points="6.6 19.5 7.5 14.6 1.7 18.6 6.6 19.5"/></symbol><symbol overflow="visible" viewBox="0 0 24 24" id="form-check"><path d="M2,12.1l1.7-1.6a33.3,33.3,0,0,1,5.5,3.3A49.6,49.6,0,0,1,21.4,3.4L22,4.6c-4.3,3.8-7.4,7.9-11.9,16A105.8,105.8,0,0,0,2,12.1Z" fill="#31b304"/></symbol><symbol overflow="visible" viewBox="0 0 24 24" id="form-dropdown"><path d="M18,7l2,2-8,8L4,9,6,7l6,6Z" fill="#4d4d4d"/></symbol><symbol overflow="visible" viewBox="0 0 24 24" id="form-warn"><path d="M13.7,4.2,22.3,19a2,2,0,0,1-1.8,3H3.5a2,2,0,0,1-1.8-3L10.3,4.2A2,2,0,0,1,13.7,4.2Z" fill="#b30469"/><path d="M12,16.6a1.6,1.6,0,0,1,1.6,1.7,1.6,1.6,0,1,1-3.2,0A1.6,1.6,0,0,1,12,16.6Zm-1.3-5.2V9h2.8v2.4l-.4,4.4H11.1Z" fill="#fff"/></symbol><symbol overflow="visible" viewBox="0 0 44 44" id="fox"><path d="M41.7,28.8C40.1,22.2,30.8,23,22,23S3.9,22.2,2.3,28.8c-.5,1.9,2.7,1,8.7,5.6S19,42,22,42s4.5-2.6,11-7.6S42.2,30.7,41.7,28.8Z" fill="#e6e6e6"/><path d="M42,28.8A19.8,19.8,0,0,0,39.6,23c-.5-.9-.4-1.3-.1-2.5,2.4-9.3-.9-17.9-2.7-18.5s-6.2,4.9-9.7,9.7c-.7,1-1,1.1-2,.9L22,12.4l-3.1.2c-1,.2-1.3.1-2-.9C13.4,6.9,8.8,1.6,7.2,2S2.1,11.2,4.5,20.5c.3,1.2.4,1.6-.1,2.5A19.8,19.8,0,0,0,2,28.8c-.4,1.9,4.6-1.1,10.9,3.2,4.7,3.3,6.1,8.9,9.1,8.9s4.4-5.6,9.1-8.9C37.4,27.7,42.4,30.7,42,28.8Z" fill="#ff8d2b"/><path d="M13.7,12.9C12.1,9.8,8.9,5.7,8,6S5.2,12.2,6.9,18.7c.3,1.2,2.4.6,6.3-2.3C14.6,15.3,14.5,14.4,13.7,12.9Z" fill="#c25a00"/><path d="M30.3,12.9C31.9,9.8,35.1,5.7,36,6s2.8,6.2,1.1,12.7c-.3,1.2-2.4.6-6.3-2.3C29.4,15.3,29.5,14.4,30.3,12.9Z" fill="#c25a00"/><path d="M24.2,37.7a2.2,2.2,0,0,1-2.3,2.1,2.3,2.3,0,0,1-2.3-2.1,2.1,2.1,0,0,1,2.3-1.8C23.2,35.9,24.2,36.6,24.2,37.7Z" fill="#242436"/><ellipse cx="28" cy="26" rx="1.9" ry="2" fill="#242436"/><ellipse cx="15.9" cy="26" rx="1.9" ry="2" fill="#242436"/></symbol><symbol overflow="visible" viewBox="0 0 24 24" id="fullscreen"><path d="M15.9,3.8l1.4,1.5L15.1,7.5a1,1,0,0,0,0,1.4h0a1,1,0,0,0,1.4,0l2.2-2.2,1.5,1.4a.4.4,0,0,0,.8-.3V3.5a.5.5,0,0,0-.5-.5H16.2A.4.4,0,0,0,15.9,3.8ZM3.8,8.1,5.3,6.7,7.5,8.9a1,1,0,0,0,1.4,0h0a1,1,0,0,0,0-1.4L6.7,5.3,8.1,3.9A.5.5,0,0,0,7.8,3H3.5a.5.5,0,0,0-.5.5V7.8A.4.4,0,0,0,3.8,8.1Zm4.3,12L6.7,18.7l2.2-2.2a1,1,0,0,0,0-1.4h0a1,1,0,0,0-1.4,0L5.3,17.3,3.9,15.8a.6.6,0,0,0-.9.4v4.3a.5.5,0,0,0,.5.5H7.8A.5.5,0,0,0,8.1,20.1Zm12-4.2-1.4,1.4-2.2-2.2a1,1,0,0,0-1.4,0h0a1,1,0,0,0,0,1.4l2.2,2.2-1.4,1.4a.5.5,0,0,0,.3.9h4.3a.5.5,0,0,0,.5-.5V16.2A.5.5,0,0,0,20.1,15.9Z"/></symbol><symbol overflow="visible" viewBox="0 0 24 24" id="functions"><path d="M19.4,7.4,14.6,2.6A2,2,0,0,0,13.2,2H6A2,2,0,0,0,4,4V20a2,2,0,0,0,2,2H18a2,2,0,0,0,2-2V8.8A2,2,0,0,0,19.4,7.4ZM9.7,19.8h-1V18.6h1Zm1.9.3c0,.8-.4,1.1-1.2,1.1h-.3l-.2-.8h.4a.4.4,0,0,0,.4-.4V15.9h.9Zm-.4-4.8a.6.6,0,0,1,0-1.2.6.6,0,0,1,0,1.2ZM14,19.8a3.1,3.1,0,0,1-1.5-.3v-.8a3.3,3.3,0,0,0,1.4.4c.4,0,.6-.1.6-.4s-.1-.4-.7-.5-1.4-.5-1.4-1.2a1.3,1.3,0,0,1,1.4-1.2,2.9,2.9,0,0,1,1.4.3v.8a3.3,3.3,0,0,0-1.3-.4.5.5,0,0,0-.5.4c0,.2.2.3.7.5s1.4.5,1.4,1.2S15,19.8,14,19.8ZM14,9a1.1,1.1,0,0,1-1-1V3.5L18.5,9Z"/></symbol><symbol overflow="visible" viewBox="0 0 24 24" id="github"><path d="M12,2A10,10,0,0,0,8.8,21.5c.5.1.7-.2.7-.5V19.1C6.7,19.8,6.1,18,6.1,18A2.4,2.4,0,0,0,5,16.5c-.9-.6.1-.6.1-.6a2.1,2.1,0,0,1,1.5,1,2.1,2.1,0,0,0,2.9.9,2.3,2.3,0,0,1,.7-1.4c-2.2-.2-4.6-1.1-4.6-4.9a4.1,4.1,0,0,1,1-2.7,4.1,4.1,0,0,1,.1-2.7s.9-.2,2.8,1.1A10.1,10.1,0,0,1,12,6.8a10.9,10.9,0,0,1,2.5.4c1.9-1.3,2.8-1.1,2.8-1.1a4.1,4.1,0,0,1,.1,2.7,4.1,4.1,0,0,1,1,2.7c0,3.8-2.4,4.7-4.6,4.9a2.3,2.3,0,0,1,.7,1.9V21c0,.3.2.6.7.5A10,10,0,0,0,12,2Z"/></symbol><symbol overflow="visible" viewBox="0 0 24 24" id="glossary"><path d="M19,4H18v8L15.5,9.5,13,12V4H5A.9.9,0,0,1,6,3H19.5a.5.5,0,0,0,.5-.5.5.5,0,0,0-.5-.5H6A2,2,0,0,0,4,4V20a2,2,0,0,0,2,2H19a.9.9,0,0,0,1-1V5A.9.9,0,0,0,19,4Z"/></symbol><symbol overflow="visible" viewBox="0 0 24 24" id="google"><path d="M21.1,12.2a5.8,5.8,0,0,0-.2-1.9H12v3.6h5.1a4.4,4.4,0,0,1-1.9,2.9v2.4h3.1a9.3,9.3,0,0,0,2.8-7Z" fill="#4285f4"/><path d="M12,21.5a9.3,9.3,0,0,0,6.3-2.3l-3.1-2.4a5.3,5.3,0,0,1-3.2.9,5.5,5.5,0,0,1-5.3-3.9H3.5v2.5A9.5,9.5,0,0,0,12,21.5Z" fill="#34a853"/><path d="M6.7,13.8a5.6,5.6,0,0,1,0-3.6V7.7H3.5a10.4,10.4,0,0,0-1,4.3,10.4,10.4,0,0,0,1,4.3l3.2-2.5Z" fill="#fbbc05"/><path d="M12,6.3a5.2,5.2,0,0,1,3.6,1.4L18.4,5A9,9,0,0,0,12,2.5,9.5,9.5,0,0,0,3.5,7.7l3.2,2.5A5.5,5.5,0,0,1,12,6.3Z" fill="#ea4335"/><path d="M2.5,2.5h19v19H2.5Z" fill="none"/></symbol><symbol overflow="visible" viewBox="0 0 24 24" id="gplus"><polygon points="23 11 23 13 20.9 13 20.9 15.1 19 15.1 19 13 16.8 13 16.8 11 19 11 19 8.9 20.9 8.9 20.9 11 23 11"/><path d="M14.6,10.7a5.7,5.7,0,0,1,.1,1.3,6.1,6.1,0,0,1-.1,1.4,6.9,6.9,0,0,1-6.7,5.5,7.1,7.1,0,0,1-6.1-3.6A7.3,7.3,0,0,1,1,12,6.9,6.9,0,0,1,7.9,5.1a7,7,0,0,1,4.4,1.6L10,8.5a3.7,3.7,0,0,0-2.1-.6A4.2,4.2,0,0,0,4,10.7,5.1,5.1,0,0,0,3.8,12,5.9,5.9,0,0,0,4,13.4a4.1,4.1,0,0,0,3.9,2.7,3.6,3.6,0,0,0,2-.6,3.7,3.7,0,0,0,1.8-2.1H8V10.7h6.6Z"/></symbol><symbol overflow="visible" viewBox="0 0 24 24" id="instagram"><path d="M12,4.2h3.8c2.6.1,3.8,1.3,3.9,3.9a31.6,31.6,0,0,1,.1,3.8,31.6,31.6,0,0,1-.1,3.8c-.1,2.6-1.3,3.8-3.9,3.9H8.2c-2.6-.1-3.8-1.3-3.9-3.9A31.6,31.6,0,0,1,4.2,12a31.6,31.6,0,0,1,.1-3.8c.1-2.6,1.3-3.8,3.9-3.9Zm0-1.7H8.1c-3.5.1-5.4,2-5.5,5.5A32.6,32.6,0,0,0,2.5,12a32.6,32.6,0,0,0,.1,3.9c.1,3.5,2,5.4,5.5,5.5h7.8c3.5-.1,5.4-2,5.5-5.5a32.6,32.6,0,0,0,.1-3.9,32.6,32.6,0,0,0-.1-3.9c-.1-3.5-2-5.4-5.5-5.5Zm0,4.6A4.9,4.9,0,1,0,16.9,12,4.9,4.9,0,0,0,12,7.1Zm0,8.1A3.3,3.3,0,0,1,8.8,12,3.3,3.3,0,0,1,12,8.8,3.3,3.3,0,0,1,15.2,12,3.3,3.3,0,0,1,12,15.2Zm5.1-9.4a1.1,1.1,0,0,0-1.2,1.1,1.2,1.2,0,0,0,1.2,1.2,1.1,1.1,0,0,0,1.1-1.2A1.1,1.1,0,0,0,17.1,5.8Z"/></symbol><symbol overflow="visible" viewBox="0 0 24 24" id="javascript"><path d="M6.8,3H20V2H6.4A2.6,2.6,0,0,0,4,4.5v15A2.6,2.6,0,0,0,6.4,22H20V4H18V9L16.5,7.5,15,9V4H6.8C5.7,4,5.7,3,6.8,3ZM16,17.9c-1.2-.5-1.8-.9-1.8-1.9a1.9,1.9,0,0,1,2.1-1.9,3.3,3.3,0,0,1,1.9.5L18,15.9a2.9,2.9,0,0,0-1.6-.5c-.5,0-.7.1-.7.4s.1.5.9.8,1.9,1,1.9,2-1,1.9-2.2,1.9a4.8,4.8,0,0,1-2.2-.5l.2-1.3a4.1,4.1,0,0,0,2,.6c.4,0,.8-.2.8-.6S16.9,18.2,16,17.9Zm-5.1,1.3c.5,0,.8-.2.8-.9V14.2h1.6v4.3c0,1.5-.9,2-2.1,2h-.9l-.2-1.3Z"/></symbol><symbol overflow="visible" viewBox="0 0 24 24" id="language"><path d="M12,2A10,10,0,1,0,22,12,10,10,0,0,0,12,2Zm6.93,6H16a15.65,15.65,0,0,0-1.38-3.56A8,8,0,0,1,18.92,8ZM12,4a14.09,14.09,0,0,1,1.91,4H10.09A14.09,14.09,0,0,1,12,4ZM4.26,14a7.82,7.82,0,0,1,0-4H7.64a16.52,16.52,0,0,0-.14,2,16.52,16.52,0,0,0,.14,2Zm.82,2H8a15.65,15.65,0,0,0,1.38,3.56A8,8,0,0,1,5.08,16ZM8,8H5.08A8,8,0,0,1,9.41,4.44,15.65,15.65,0,0,0,8,8Zm4,12a14.09,14.09,0,0,1-1.91-4h3.82A14.09,14.09,0,0,1,12,20Zm2.34-6H9.66a14.71,14.71,0,0,1-.16-2,14.58,14.58,0,0,1,.16-2h4.68a14.58,14.58,0,0,1,.16,2A14.71,14.71,0,0,1,14.34,14Zm.25,5.56A15.65,15.65,0,0,0,16,16h3A8,8,0,0,1,14.59,19.56ZM16.36,14a16.52,16.52,0,0,0,.14-2,16.52,16.52,0,0,0-.14-2h3.38a7.82,7.82,0,0,1,0,4Z"/></symbol><symbol overflow="visible" viewBox="0 0 24 24" id="left"><path d="M16.1,4.1h0a1.4,1.4,0,0,0-2.1,0L7.1,11a1.4,1.4,0,0,0,0,2.1L14,19.9a1.4,1.4,0,0,0,2.1,0h0a1.4,1.4,0,0,0,0-2.1L10.2,12l5.9-5.8A1.5,1.5,0,0,0,16.1,4.1Z"/></symbol><symbol overflow="visible" viewBox="0 0 36 36" id="level-0"><circle cx="18" cy="18" r="16" fill="#fff" opacity="0.5"/><path d="M13.2,11.1l-2-.3h0a.4.4,0,0,0-.6.4L9.2,19.1h0a.4.4,0,0,0,.4.6l2,.3h0a.4.4,0,0,0,.6-.4l1.4-7.9h0A.4.4,0,0,0,13.2,11.1Z" fill="#b30469"/><path d="M18,0A18,18,0,1,0,36,18,18.1,18.1,0,0,0,18,0ZM11.9,27.2h0a1,1,0,0,1-1.2.8l-3-.5h0a1,1,0,0,1-.8-1.2L10,8.6h0a1,1,0,0,1,1.2-.8l3,.5A1,1,0,0,1,15,9.4ZM22,27a.9.9,0,0,1-1,1H17a.9.9,0,0,1-1-1V26h6Zm0-3H16V10h6ZM22,8H16V7a.9.9,0,0,1,1-1h4a.9.9,0,0,1,1,1Zm7,19a.9.9,0,0,1-1,1H24a.9.9,0,0,1-1-1V26h6Zm0-2H23V24h6Zm0-2H23V15h6Zm0-9H23V13h6Zm0-2H23V11a.9.9,0,0,1,1-1h4a.9.9,0,0,1,1,1Z" fill="#b30469"/></symbol><symbol overflow="visible" viewBox="0 0 36 36" id="level-1"><circle cx="18" cy="18" r="16" fill="#fff" opacity="0.5"/><path d="M18,0A18,18,0,1,0,36,18,18.1,18.1,0,0,0,18,0Zm6.1,25.9L18,22.6l-6.1,3.3L13,19,8.1,14.2l6.8-1L18,7l3.1,6.2,6.8,1L23,19Z" fill="#1f7aff"/></symbol><symbol overflow="visible" viewBox="0 0 36 36" id="level-2"><circle cx="18" cy="18" r="16" fill="#fff" opacity="0.5"/><path d="M18,0A18,18,0,1,0,36,18,18.1,18.1,0,0,0,18,0ZM8.2,18.8l.9-5.4L5.2,9.6l5.4-.7L13,4l2.4,4.9,5.3.7-3.9,3.8,1,5.4L13,16.2ZM28.8,29.9,24,27.3l-4.8,2.6,1-5.4-3.9-3.8,5.3-.8L24,15.1l2.4,4.8,5.4.8-3.9,3.8Z" fill="#31b304"/></symbol><symbol overflow="visible" viewBox="0 0 36 36" id="level-3"><circle cx="18" cy="18" r="16" fill="#fff" opacity="0.5"/><path d="M18,0A18,18,0,1,0,36,18,18.1,18.1,0,0,0,18,0ZM14.2,28.9,10,26.7,5.8,28.9l.8-4.7L3.2,20.9l4.7-.7L10,16l2.1,4.2,4.7.7-3.4,3.3Zm-.4-12,.8-4.7L11.2,8.9l4.7-.7L18,4l2.1,4.2,4.7.7-3.4,3.3.8,4.7L18,14.7Zm16.4,12L26,26.7l-4.2,2.2.8-4.7-3.4-3.3,4.7-.7L26,16l2.1,4.2,4.7.7-3.4,3.3Z" fill="#ff941f"/></symbol><symbol overflow="visible" viewBox="0 0 28 28" id="library"><path d="M10.2,5.3l-3-.5A1,1,0,0,0,6,5.6H6L2.9,23.3a1,1,0,0,0,.8,1.2h0l3,.5a1,1,0,0,0,1.2-.8h0L11,6.4A1,1,0,0,0,10.2,5.3Zm-2,11.3a.4.4,0,0,1-.6.4h0l-2-.3a.4.4,0,0,1-.4-.6h0L6.6,8.2a.4.4,0,0,1,.6-.4h0l2,.3a.4.4,0,0,1,.4.6h0Z"/><rect x="19" y="21" width="6" height="1"/><rect x="19" y="12" width="6" height="8"/><path d="M19,24a.9.9,0,0,0,1,1h4a.9.9,0,0,0,1-1V23H19Z"/><rect x="19" y="10" width="6" height="1"/><path d="M24,7H20a.9.9,0,0,0-1,1V9h6V8A.9.9,0,0,0,24,7Z"/><path d="M12,24a.9.9,0,0,0,1,1h4a.9.9,0,0,0,1-1V23H12Z"/><path d="M17,3H13a.9.9,0,0,0-1,1V5h6V4A.9.9,0,0,0,17,3Z"/><rect x="12" y="7" width="6" height="14"/></symbol><symbol overflow="visible" viewBox="0 0 24 24" id="lightbulb"><path d="M9,19h6a0,0,0,0,1,0,0v2a2,2,0,0,1-2,2H11a2,2,0,0,1-2-2V19A0,0,0,0,1,9,19Z"/><path d="M12,2A7,7,0,0,0,5,9c0,2.8,4,6,4,9h2.5A17.2,17.2,0,0,0,8.8,9.8a.4.4,0,0,1,0-.5A.5.5,0,0,1,9.2,9h5.6a.5.5,0,0,1,.4.3.4.4,0,0,1,0,.5A17.2,17.2,0,0,0,12.5,18H15c0-3,4-6.2,4-9A7,7,0,0,0,12,2Z"/><path d="M10.1,10A22.8,22.8,0,0,1,12,14.6,22.8,22.8,0,0,1,13.9,10Z"/></symbol><symbol overflow="visible" viewBox="0 0 24 24" id="lock"><path d="M18,8H17V6A5,5,0,0,0,7,6V8H6a2,2,0,0,0-2,2V20a2,2,0,0,0,2,2H18a2,2,0,0,0,2-2V10A2,2,0,0,0,18,8Zm-5,7.7V18H11V15.7A1.9,1.9,0,0,1,10,14a2,2,0,0,1,4,0A1.9,1.9,0,0,1,13,15.7ZM15,8H9V6a3,3,0,0,1,6,0Z"/></symbol><symbol overflow="visible" viewBox="0 0 36 36" id="logo"><polygon points="17 31 17 19 17 19 5 31 17 31" fill="#ff941f"/><polygon points="4 4.5 4 4.5 4 17.5 4 30.5 17 17.5 4 4.5" fill="#b30469"/><polyline points="31 5 19 17 31 17" fill="#31b304"/><polyline points="31 18 18 18 18 31 31 31" fill="#1f7aff"/></symbol><symbol overflow="visible" viewBox="0 0 24 24" id="logout"><path d="M10.8,16.3h0a1,1,0,0,0,1.4,0l3.6-3.6a1,1,0,0,0,0-1.4L12.2,7.7a1,1,0,0,0-1.4,0h0a1,1,0,0,0,0,1.4L12.7,11H4a1,1,0,0,0-1,1H3a1,1,0,0,0,1,1h8.7l-1.9,1.9A1,1,0,0,0,10.8,16.3ZM19,3H5A2,2,0,0,0,3,5V8A1,1,0,0,0,4,9H4A.9.9,0,0,0,5,8V6A.9.9,0,0,1,6,5H18a1,1,0,0,1,1,1V18a1.1,1.1,0,0,1-1,1H6a1,1,0,0,1-1-1V16a.9.9,0,0,0-1-1H4a1,1,0,0,0-1,1v3a2,2,0,0,0,2,2H19a2,2,0,0,0,2-2V5A2,2,0,0,0,19,3Z"/></symbol><symbol overflow="visible" viewBox="0 0 24 24" id="markdown"><path d="M15.3,17.9c0,.7.3,1.1.8,1.1a1,1,0,0,0,.8-.5V16.8l-.7-.2C15.7,16.6,15.3,17,15.3,17.9Z"/><path d="M19.4,7.4,14.6,2.6A2,2,0,0,0,13.2,2H6A2,2,0,0,0,4,4V20a2,2,0,0,0,2,2H18a2,2,0,0,0,2-2V8.8A2,2,0,0,0,19.4,7.4ZM7.1,19.8h-1V18.6h1Zm6.5,0h-1V17.2c0-.3-.1-.5-.4-.5a1.8,1.8,0,0,0-.9.4v2.7h-1V17.2c0-.3-.1-.5-.4-.5a1.8,1.8,0,0,0-.9.4v2.7H8V15.9h.9v.5a2.2,2.2,0,0,1,1.3-.6,1,1,0,0,1,1,.6,2.2,2.2,0,0,1,1.3-.6A1.1,1.1,0,0,1,13.6,17Zm4.3,0h-.8v-.6a1.4,1.4,0,0,1-1.2.6c-.8,0-1.4-.6-1.4-1.9s.7-2,1.6-2h.9V14.1h1ZM14,9a1.1,1.1,0,0,1-1-1V3.5L18.5,9Z"/></symbol><symbol overflow="visible" viewBox="0 0 24 24" id="others"><path d="M12,14.6A1.4,1.4,0,1,0,13.4,16,1.4,1.4,0,0,0,12,14.6Z"/><path d="M19.4,7.4,14.6,2.6A2,2,0,0,0,13.2,2H6A2,2,0,0,0,4,4V20a2,2,0,0,0,2,2H18a2,2,0,0,0,2-2V8.8A2,2,0,0,0,19.4,7.4ZM15,16v.4l.8.7c.1,0,.1.1.1.2l-.8,1.4h-.3l-1-.4-.7.4v1a.2.2,0,0,1-.2.2H11.2a.2.2,0,0,1-.2-.2v-1l-.7-.4-1,.4H8.9l-.8-1.4c0-.1,0-.2.1-.2l.8-.7v-.8l-.8-.7c-.1,0-.1-.1-.1-.2l.8-1.4h.3l1,.4.7-.4v-1l.2-.2h1.6l.2.2v1l.7.4,1-.4h.3l.8,1.4c0,.1,0,.2-.1.2l-.8.7ZM14,9a1.1,1.1,0,0,1-1-1V3.5L18.5,9Z"/></symbol><symbol overflow="visible" viewBox="0 0 24 24" id="pause"><path d="M8,19H8a2,2,0,0,0,2-2V7A2,2,0,0,0,8,5H8A2,2,0,0,0,6,7V17A2,2,0,0,0,8,19ZM14,7V17a2,2,0,0,0,2,2h0a2,2,0,0,0,2-2V7a2,2,0,0,0-2-2h0A2,2,0,0,0,14,7Z"/></symbol><symbol overflow="visible" viewBox="0 0 24 24" id="paypal"><path d="M19.8,10.7a5.6,5.6,0,0,1,0,1.3c-.7,3.5-3,4.7-5.9,4.7h-.5a.7.7,0,0,0-.7.7L12,21.3a.8.8,0,0,1-.8.7h-2a.5.5,0,0,1-.5-.5h0l1.1-7.1h1.7c4.2,0,6.7-2,7.5-5.9A2.7,2.7,0,0,1,19.8,10.7ZM8.7,14.1c.1-.7.4-1,1.1-1h1.8c3.6,0,5.7-1.6,6.4-5S16.3,3,13.1,3H7.4a.9.9,0,0,0-.9.8C4.7,15.4,4.2,18.4,4.2,19.3a.4.4,0,0,0,.3.5H7.8Z"/></symbol><symbol overflow="visible" viewBox="0 0 32 32" id="person-1"><polygon points="3.5 7.9 13.5 17.9 13.5 7.9 3.5 7.9"/><polygon points="14.2 17.9 24.2 7.9 14.2 7.9 14.2 17.9"/><polygon points="16.8 21.2 11.8 26.2 11.8 21.2 16.8 16.2 16.8 21.2"/><polygon points="17.5 16.2 17.5 23.6 24.8 23.6 17.5 16.2"/><polygon points="28.5 20.9 23.5 20.9 28.5 25.9 28.5 20.9"/><polygon points="13.8 30.2 13.8 25.2 8.8 30.2 13.8 30.2"/><rect x="11" y="2" width="5" height="5" transform="translate(-0.3 1.2) rotate(-5)"/></symbol><symbol overflow="visible" viewBox="0 0 32 32" id="person-2"><polygon points="19.2 15.5 11.8 8.2 4.5 15.5 19.2 15.5"/><polygon points="21.5 2.2 14.2 9.5 21.5 16.8 21.5 2.2"/><rect x="10.2" y="2.5" width="5" height="5"/><polygon points="11.8 23.5 19.2 23.5 19.2 16.2 11.8 23.5"/><polygon points="19.8 21.2 24.8 26.2 24.8 21.2 19.8 16.2 19.8 21.2"/><polygon points="9.2 24.2 9.2 29.2 14.2 24.2 9.2 24.2"/><polygon points="22.5 29.8 27.5 29.8 22.5 24.8 22.5 29.8"/></symbol><symbol overflow="visible" viewBox="0 0 32 32" id="person-3"><polygon points="17 6.7 21.4 16.1 30.8 11.7 17 6.7"/><polygon points="22.5 20 18.1 10.6 8.7 15 22.5 20"/><polygon points="18.2 23 25.1 25.6 22.9 20.9 16 18.3 18.2 23"/><polygon points="5.6 14.6 8.6 21 15 18 5.6 14.6"/><polygon points="5.9 10.1 1.2 12.2 8.1 14.8 5.9 10.1"/><polygon points="24.8 30.1 29.5 27.9 22.6 25.4 24.8 30.1"/><rect x="22.2" y="2.9" width="5" height="5" transform="translate(4.7 20.9) rotate(-50)"/></symbol><symbol overflow="visible" viewBox="0 0 24 24" id="pinterest"><path d="M12,2A10,10,0,0,0,2,12a9.9,9.9,0,0,0,6.4,9.3,9.4,9.4,0,0,1,0-2.9c.2-.7,1.2-4.9,1.2-4.9A3.6,3.6,0,0,1,9.3,12c0-1.4.8-2.4,1.8-2.4s1.2.6,1.2,1.4a19.3,19.3,0,0,1-.8,3.3A1.5,1.5,0,0,0,13,16.1c1.8,0,3.1-1.9,3.1-4.6a3.9,3.9,0,0,0-4.1-4,4.3,4.3,0,0,0-4.6,4.3,4,4,0,0,0,.8,2.3.4.4,0,0,1,.1.3L8,15.5c-.1.2-.2.2-.4.1s-2-2.4-2-3.8c0-3.2,2.3-6.1,6.6-6.1a5.9,5.9,0,0,1,6.2,5.8c0,3.4-2.2,6.2-5.2,6.2a2.7,2.7,0,0,1-2.3-1.1l-.6,2.3A11.3,11.3,0,0,1,9,21.6a15.4,15.4,0,0,0,3,.4A10,10,0,0,0,12,2Z"/></symbol><symbol overflow="visible" viewBox="0 0 24 24" id="play"><path d="M7.5,6.2V17.8a1.1,1.1,0,0,0,1.7,1l9.2-5.9a1.1,1.1,0,0,0,0-1.9L9.2,5.2A1.1,1.1,0,0,0,7.5,6.2Z"/></symbol><symbol overflow="visible" viewBox="0 0 24 24" id="progress"><g style="isolation:isolate"><circle cx="4.5" cy="12" r="2" style="mix-blend-mode:multiply"/><circle cx="4.5" cy="6" r="2" style="mix-blend-mode:multiply"/><circle cx="4.5" cy="18" r="2" style="mix-blend-mode:multiply"/><path d="M9.5,19h11a1.1,1.1,0,0,0,1-1h0a1.1,1.1,0,0,0-1-1H9.5a1,1,0,0,0-1,1h0A1,1,0,0,0,9.5,19Z" style="mix-blend-mode:multiply"/><path d="M9.5,13h11a1,1,0,0,0,1-1h0a1,1,0,0,0-1-1H9.5a.9.9,0,0,0-1,1h0A.9.9,0,0,0,9.5,13Z" style="mix-blend-mode:multiply"/><path d="M8.5,6h0a.9.9,0,0,0,1,1h11a1,1,0,0,0,1-1h0a1,1,0,0,0-1-1H9.5A.9.9,0,0,0,8.5,6Z" style="mix-blend-mode:multiply"/></g></symbol><symbol overflow="visible" viewBox="0 0 24 24" id="reddit"><path d="M22,11.8a2.2,2.2,0,0,0-2.2-2.2,2,2,0,0,0-1.5.6,12,12,0,0,0-5.9-1.7l1.3-3.9,3.3.8h0a1.8,1.8,0,1,0,1.8-1.8,1.8,1.8,0,0,0-1.7,1.1L13.5,4c-.1-.1-.3,0-.3.2L11.8,8.5a11.5,11.5,0,0,0-6.1,1.7,2,2,0,0,0-1.5-.6A2.2,2.2,0,0,0,2,11.8a2.1,2.1,0,0,0,1.1,1.9c0,.2-.1.5-.1.7,0,3.3,4,5.9,9,5.9s8.9-2.6,8.9-5.9a2,2,0,0,0-.1-.7A2,2,0,0,0,22,11.8ZM7.6,13.3A1.3,1.3,0,0,1,9,12a1.3,1.3,0,0,1,1.3,1.3A1.3,1.3,0,0,1,9,14.6,1.3,1.3,0,0,1,7.6,13.3Zm7.6,3.9a4.2,4.2,0,0,1-3.2,1h0a4.2,4.2,0,0,1-3.2-1,.3.3,0,0,1,.4-.4,4.3,4.3,0,0,0,2.8.8h0a4.3,4.3,0,0,0,2.8-.8.3.3,0,0,1,.4.4ZM15,14.6a1.3,1.3,0,0,1-1.3-1.3A1.3,1.3,0,0,1,15,12a1.3,1.3,0,0,1,1.4,1.3A1.3,1.3,0,0,1,15,14.6Z"/></symbol><symbol overflow="visible" viewBox="0 0 24 24" id="reset"><g style="isolation:isolate"><path d="M19,3H16.5l-.7-.7a1.1,1.1,0,0,0-.7-.3H8.9a1.1,1.1,0,0,0-.7.3L7.5,3H5A1.1,1.1,0,0,0,4,4,1.1,1.1,0,0,0,5,5H19a1.1,1.1,0,0,0,1-1A1.1,1.1,0,0,0,19,3Z" style="mix-blend-mode:multiply"/><path d="M17,6H7A2,2,0,0,0,5,8V20a2,2,0,0,0,2,2H17a2,2,0,0,0,2-2V8A2,2,0,0,0,17,6ZM12,19a4.8,4.8,0,0,1-4.1-2.2.7.7,0,0,1,.2-1,.6.6,0,0,1,1,.2A3.6,3.6,0,0,0,12,17.5a3.5,3.5,0,0,0,0-7,3.4,3.4,0,0,0-3.1,1.9L10.5,14H7a.5.5,0,0,1-.5-.5V10l1.3,1.3A5,5,0,0,1,12,9a5,5,0,0,1,0,10Z" style="mix-blend-mode:multiply"/></g></symbol><symbol overflow="visible" viewBox="0 0 24 24" id="right"><path d="M7.9,4.1h0a1.4,1.4,0,0,0,0,2.1L13.8,12,7.9,17.8a1.5,1.5,0,0,0,0,2.1h0a1.4,1.4,0,0,0,2.1,0l6.9-6.8a1.6,1.6,0,0,0,0-2.2L10,4.1A1.4,1.4,0,0,0,7.9,4.1Z"/></symbol><symbol overflow="visible" viewBox="0 0 24 24" id="search"><path d="M15.5,14h-.8l-.3-.3a6.6,6.6,0,0,0,1.5-5.3A6.7,6.7,0,0,0,10.3,3,6.6,6.6,0,0,0,3,10.3a6.7,6.7,0,0,0,5.4,5.6,6.6,6.6,0,0,0,5.3-1.5l.3.3v.8l4.2,4.3a1.1,1.1,0,0,0,1.5,0h0a1.1,1.1,0,0,0,0-1.5Zm-6,0A4.5,4.5,0,1,1,14,9.5,4.5,4.5,0,0,1,9.5,14Z"/></symbol><symbol overflow="visible" viewBox="0 0 24 24" id="settings"><path d="M19.4,13a3.4,3.4,0,0,0,.1-1,3.4,3.4,0,0,0-.1-1l2.1-1.6a.6.6,0,0,0,.2-.7l-2-3.4c-.2-.2-.4-.3-.6-.2l-2.5,1a7.5,7.5,0,0,0-1.7-1l-.4-2.7c0-.2-.3-.4-.5-.4H10c-.2,0-.5.2-.5.4L9.1,5.1a7.5,7.5,0,0,0-1.7,1l-2.5-1c-.2-.1-.4,0-.6.2l-2,3.4a.7.7,0,0,0,.2.7L4.6,11a3.4,3.4,0,0,0-.1,1,3.4,3.4,0,0,0,.1,1L2.5,14.6a.6.6,0,0,0-.2.7l2,3.4a.6.6,0,0,0,.7.2l2.4-1a7.5,7.5,0,0,0,1.7,1l.4,2.7c0,.2.3.4.5.4h4c.2,0,.5-.2.5-.4l.4-2.7a14,14,0,0,0,1.7-.9L19,19c.3,0,.5,0,.7-.3l2-3.4a.7.7,0,0,0-.2-.7ZM12,15.5A3.5,3.5,0,1,1,15.5,12,3.5,3.5,0,0,1,12,15.5Z"/></symbol><symbol overflow="visible" viewBox="0 0 24 24" id="share"><path d="M17,16.1a3,3,0,0,0-2,.8L7.9,12.7A1.7,1.7,0,0,0,8,12a1.7,1.7,0,0,0-.1-.7L15,7.2A2.8,2.8,0,0,0,17,8a2.9,2.9,0,0,0,3-3,3,3,0,0,0-6,0,1.7,1.7,0,0,0,.1.7L7,9.8A2.8,2.8,0,0,0,5,9a3,3,0,0,0,0,6,2.8,2.8,0,0,0,2-.8l7.2,4.1a2,2,0,0,0-.1.7A2.9,2.9,0,1,0,17,16.1Z"/></symbol><symbol overflow="visible" viewBox="0 0 24 24" id="star"><path d="M12,17.3l5.2,3.1a.5.5,0,0,0,.7-.6L16.5,14l4.6-4a.5.5,0,0,0-.3-.9l-6-.5L12.5,3.1a.6.6,0,0,0-1,0L9.2,8.6l-6,.5a.5.5,0,0,0-.3.9l4.6,4L6.1,19.9a.5.5,0,0,0,.7.5Z"/></symbol><symbol overflow="visible" viewBox="0 0 28 28" id="teacher"><path d="M8,23H7L5,25c0,.6,1.1,1,2.5,1s2.5-.4,2.5-1Z"/><path d="M7,17.4V22H8V17.8Z"/><path d="M7,11.7l-2-.6v5a13.7,13.7,0,0,0,2,1.3Z"/><path d="M14,14.1l-6-2v5.8A16.4,16.4,0,0,0,14,19a14.3,14.3,0,0,0,9-2.9v-5Z"/><path d="M26.3,8.9c0-.1.1-.1.1-.2V8.3c0-.1-.1-.1-.1-.2h-.2L14,4,1.9,8H1.7c0,.1-.1.1-.1.2v.4c0,.1.1.1.1.2h.2l4.6,1.5L13.8,8a.6.6,0,0,1,.7.3.6.6,0,0,1-.3.7L8,11l6,2L26.1,9Z"/></symbol><symbol overflow="visible" viewBox="0 -10 160 160" id="databear"><defs>
<clipPath id="clip1">
  <path d="M 13 0 L 134 0 L 134 131.664062 L 13 131.664062 Z M 13 0 "/>
</clipPath>
<clipPath id="clip2">
  <path d="M 114 3 L 144.898438 3 L 144.898438 42 L 114 42 Z M 114 3 "/>
</clipPath>
</defs>
<g id="surface1">
<path style=" stroke:none;fill-rule:evenodd;fill:#cc6600;fill-opacity:1;" d="M 132.175781 65.832031 C 132.175781 30.304688 105.820312 1.5 73.308594 1.5 C 40.796875 1.5 14.441406 30.304688 14.441406 65.832031 C 14.441406 101.363281 40.796875 130.164062 73.308594 130.164062 C 105.820312 130.164062 132.175781 101.363281 132.175781 65.832031 "/>
<g clip-path="url(#clip1)" clip-rule="nonzero">
<path style="fill:none;stroke-width:2;stroke-linecap:butt;stroke-linejoin:round;stroke:rgb(0%,0%,0%);stroke-opacity:1;stroke-miterlimit:10;" d="M 309.516781 511.609969 C 309.516781 547.137312 283.161313 575.942 250.649594 575.942 C 218.137875 575.942 191.782406 547.137312 191.782406 511.609969 C 191.782406 476.078719 218.137875 447.277937 250.649594 447.277937 C 283.161313 447.277937 309.516781 476.078719 309.516781 511.609969 " transform="matrix(1,0,0,-1,-177.341,577.442)"/>
</g>
<path style="fill:none;stroke-width:0.8;stroke-linecap:butt;stroke-linejoin:round;stroke:rgb(0%,0%,0%);stroke-opacity:1;stroke-miterlimit:10;" d="M 272.360531 470.133406 C 272.360531 480.840437 262.594906 489.516219 250.551938 489.516219 C 238.505063 489.516219 228.743344 480.840437 228.743344 470.133406 C 228.743344 459.430281 238.505063 450.750594 250.551938 450.750594 C 262.594906 450.750594 272.360531 459.430281 272.360531 470.133406 " transform="matrix(1,0,0,-1,-177.341,577.442)"/>
<path style="fill-rule:evenodd;fill:rgb(0%,0%,0%);fill-opacity:1;stroke-width:2;stroke-linecap:butt;stroke-linejoin:round;stroke:rgb(0%,0%,0%);stroke-opacity:1;stroke-miterlimit:10;" d="M 241.036313 519.945906 C 241.036313 524.121687 239.012875 527.5045 236.512875 527.5045 C 234.012875 527.5045 231.985531 524.121687 231.985531 519.945906 C 231.985531 515.770125 234.012875 512.383406 236.512875 512.383406 C 239.012875 512.383406 241.036313 515.770125 241.036313 519.945906 " transform="matrix(1,0,0,-1,-177.341,577.442)"/>
<path style="fill-rule:evenodd;fill:rgb(0%,0%,0%);fill-opacity:1;stroke-width:2;stroke-linecap:butt;stroke-linejoin:round;stroke:rgb(0%,0%,0%);stroke-opacity:1;stroke-miterlimit:10;" d="M 268.176938 520.149031 C 268.176938 524.324812 266.149594 527.707625 263.649594 527.707625 C 261.149594 527.707625 259.12225 524.324812 259.12225 520.149031 C 259.12225 515.97325 261.149594 512.586531 263.649594 512.586531 C 266.149594 512.586531 268.176938 515.97325 268.176938 520.149031 " transform="matrix(1,0,0,-1,-177.341,577.442)"/>
<path style="fill-rule:evenodd;fill:rgb(0%,0%,0%);fill-opacity:1;stroke-width:2;stroke-linecap:butt;stroke-linejoin:round;stroke:rgb(0%,0%,0%);stroke-opacity:1;stroke-miterlimit:10;" d="M 243.2785 483.367781 C 244.993344 485.797469 252.360531 485.867781 254.99725 484.270125 C 257.633969 482.672469 255.536313 479.41075 253.821469 476.981062 C 252.106625 474.551375 250.774594 472.953719 248.137875 474.551375 C 245.501156 476.149031 241.563656 480.938094 243.2785 483.367781 Z M 243.2785 483.367781 " transform="matrix(1,0,0,-1,-177.341,577.442)"/>
<path style="fill:none;stroke-width:0.8;stroke-linecap:butt;stroke-linejoin:round;stroke:rgb(0%,0%,0%);stroke-opacity:1;stroke-miterlimit:10;" d="M 250.091 474.84825 L 250.091 456.613875 " transform="matrix(1,0,0,-1,-177.341,577.442)"/>
<path style="fill-rule:evenodd;fill:#cc6600;fill-opacity:1;stroke-width:2;stroke-linecap:butt;stroke-linejoin:round;stroke:rgb(0%,0%,0%);stroke-opacity:1;stroke-miterlimit:10;" d="M 206.610531 554.484969 C 199.243344 571.332625 192.610531 572.16075 187.880063 568.641219 C 183.1535 565.121687 180.329281 557.2545 179.216 551.527937 C 178.106625 545.793562 178.708188 542.203719 181.067563 539.703719 C 183.430844 537.203719 187.551938 535.801375 195.165219 534.293562 M 195.165219 534.293562 C 197.989438 541.652937 201.848813 548.461531 206.610531 554.484969 " transform="matrix(1,0,0,-1,-177.341,577.442)"/>
<path style=" stroke:none;fill-rule:evenodd;fill:#cc6600;fill-opacity:1;" d="M 115.25 20.734375 C 121.859375 3.84375 128.449219 2.726562 133.324219 6.039062 C 138.199219 9.351562 141.359375 17.09375 142.71875 22.769531 C 144.074219 28.445312 143.628906 32.0625 141.375 34.660156 C 139.125 37.257812 135.066406 38.835938 127.527344 40.671875 M 115.25 20.734375 C 120.398438 26.515625 124.554688 33.261719 127.527344 40.671875 "/>
<g clip-path="url(#clip2)" clip-rule="nonzero">
<path style="fill:none;stroke-width:2;stroke-linecap:butt;stroke-linejoin:round;stroke:rgb(0%,0%,0%);stroke-opacity:1;stroke-miterlimit:10;" d="M 292.591 556.707625 C 299.200375 573.59825 305.790219 574.715437 310.665219 571.402937 C 315.540219 568.090437 318.700375 560.34825 320.05975 554.672469 C 321.415219 548.996687 320.969906 545.3795 318.716 542.781844 C 316.466 540.184187 312.407406 538.606062 304.868344 536.770125 M 292.591 556.707625 C 297.739438 550.926375 301.895688 544.180281 304.868344 536.770125 " transform="matrix(1,0,0,-1,-177.341,577.442)"/>
</g>
<path style=" stroke:none;fill-rule:evenodd;fill:rgb(74.499512%,74.499512%,74.499512%);fill-opacity:1;" d="M 61.734375 57.605469 C 61.695312 55.679688 60.785156 54.136719 59.695312 54.160156 C 58.609375 54.183594 57.757812 55.765625 57.796875 57.691406 C 57.832031 59.617188 58.742188 61.15625 59.832031 61.132812 C 60.917969 61.109375 61.769531 59.527344 61.734375 57.605469 "/>
<path style=" stroke:none;fill-rule:evenodd;fill:rgb(74.499512%,74.499512%,74.499512%);fill-opacity:1;" d="M 87.242188 57.855469 C 87.207031 56.027344 86.339844 54.566406 85.308594 54.59375 C 84.273438 54.621094 83.46875 56.121094 83.503906 57.949219 C 83.542969 59.78125 84.410156 61.238281 85.441406 61.214844 C 86.476562 61.1875 87.28125 59.683594 87.242188 57.855469 "/>
<path style="fill:none;stroke-width:2;stroke-linecap:round;stroke-linejoin:round;stroke:rgb(0%,0%,0%);stroke-opacity:1;stroke-miterlimit:10;" d="M 236.512875 472.559187 C 238.169125 463.813094 241.102719 459.828719 244.548031 457.777937 C 247.993344 455.72325 251.958188 455.59825 255.477719 457.336531 C 259.001156 459.078719 262.079281 462.684187 263.43475 472.301375 " transform="matrix(1,0,0,-1,-177.341,577.442)"/>
</g>
<symbol overflow="visible" viewBox="-40 0 156 256"  id="datalogo"><defs>
<clipPath id="clip1">
  <path d="M 16 0 L 18 0 L 18 130.5 L 16 130.5 Z M 16 0 "/>
</clipPath>
<clipPath id="clip2">
  <path d="M 112 0 L 114 0 L 114 130.5 L 112 130.5 Z M 112 0 "/>
</clipPath>
</defs>
<g id="surface1">
<path style="fill:none;stroke-width:2;stroke-linecap:butt;stroke-linejoin:round;stroke:rgb(100%,100%,100%);stroke-opacity:1;stroke-miterlimit:10;" d="M 160 704 L 288 704 " transform="matrix(1,0,0,-1,-159,705.5)"/>
<g clip-path="url(#clip1)" clip-rule="nonzero">
<path style="fill:none;stroke-width:2;stroke-linecap:butt;stroke-linejoin:round;stroke:rgb(100%,100%,100%);stroke-opacity:1;stroke-miterlimit:10;" d="M 176 704 L 176 576 " transform="matrix(1,0,0,-1,-159,705.5)"/>
</g>
<g clip-path="url(#clip2)" clip-rule="nonzero">
<path style="fill:none;stroke-width:2;stroke-linecap:butt;stroke-linejoin:round;stroke:rgb(100%,100%,100%);stroke-opacity:1;stroke-miterlimit:10;" d="M 272 704 L 272 576 " transform="matrix(1,0,0,-1,-159,705.5)"/>
</g>
<path style="fill:none;stroke-width:2;stroke-linecap:butt;stroke-linejoin:round;stroke:rgb(100%,100%,100%);stroke-opacity:1;stroke-miterlimit:10;" d="M 192 704 C 192 672 208 656 224 656 C 240 656 256 672 256 704 " transform="matrix(1,0,0,-1,-159,705.5)"/>
<path style="fill:none;stroke-width:2;stroke-linecap:butt;stroke-linejoin:round;stroke:rgb(100%,100%,100%);stroke-opacity:1;stroke-miterlimit:10;" d="M 240.429688 678.007812 C 240.429688 686.847656 233.265625 694.007812 224.429688 694.007812 C 215.59375 694.007812 208.429688 686.847656 208.429688 678.007812 C 208.429688 669.171875 215.59375 662.007812 224.429688 662.007812 C 233.265625 662.007812 240.429688 669.171875 240.429688 678.007812 " transform="matrix(1,0,0,-1,-159,705.5)"/>
<path style="fill:none;stroke-width:2;stroke-linecap:butt;stroke-linejoin:round;stroke:rgb(100%,100%,100%);stroke-opacity:1;stroke-miterlimit:10;" d="M 224 656 C 224 624 208 592 208 592 " transform="matrix(1,0,0,-1,-159,705.5)"/>
<path style="fill:none;stroke-width:2;stroke-linecap:butt;stroke-linejoin:round;stroke:rgb(100%,100%,100%);stroke-opacity:1;stroke-miterlimit:10;" d="M 224 656 C 224 634.667969 229.332031 613.332031 240 592 " transform="matrix(1,0,0,-1,-159,705.5)"/>
<path style="fill:none;stroke-width:2;stroke-linecap:butt;stroke-linejoin:round;stroke:rgb(100%,100%,100%);stroke-opacity:1;stroke-miterlimit:10;" d="M 223.824219 661.082031 L 223.859375 655.691406 " transform="matrix(1,0,0,-1,-159,705.5)"/>
</g>
</symbol><symbol overflow="visible" viewBox="0 0 120 36" id="title-io"><path d="M23.9,23.9l-.9-11L18.7,24H17.2L12.8,13,12,24H10.3l1.1-13.8h2.3L18,21.4l4.3-11.3h2.3l1.1,13.8Z" fill="#fff"/><path d="M34.2,23.9,34,22.6a4.5,4.5,0,0,1-3.4,1.5,2.5,2.5,0,0,1-2.8-2.2v-.5c0-2.4,2-3.3,6-3.7v-.4c0-1.2-.7-1.6-1.8-1.6a7.6,7.6,0,0,0-3.3.8L28.5,15a9.5,9.5,0,0,1,3.7-.8c2.3,0,3.4.9,3.4,3.1V24Zm-.3-4.8c-3.5.3-4.3,1.3-4.3,2.3A1.3,1.3,0,0,0,31,22.6h0a4.1,4.1,0,0,0,2.8-1.3Z" fill="#fff"/><path d="M41.6,24.1c-1.7,0-2.8-.6-2.8-2.5V15.9H37.4V14.4h1.4V11.2l1.7-.3v3.4h2.1l.2,1.5H40.6v5.4c0,.8.3,1.3,1.3,1.3h.8l.2,1.5Z" fill="#fff"/><path d="M51.1,23.9V17.4c0-1-.4-1.6-1.5-1.6a3.9,3.9,0,0,0-2.8,1.5v6.6H45.1V9.7l1.8-.3v6.2a4.8,4.8,0,0,1,3.2-1.5,2.5,2.5,0,0,1,2.8,2.1v7.7Z" fill="#fff"/><path d="M56.7,12.4a1.1,1.1,0,1,1,1.1-1.1A1.1,1.1,0,0,1,56.7,12.4Zm-.9,11.5V14.4h1.8v9.5Z" fill="#fff"/><path d="M64.1,27.5a8.9,8.9,0,0,1-3.6-.7l.3-1.7a6.7,6.7,0,0,0,3.4.9c1.7,0,2.4-.9,2.4-2.2V22.6a3.9,3.9,0,0,1-2.9,1.3c-2.1,0-3.8-1.5-3.8-4.6s1.9-5.1,4.7-5.1a11.5,11.5,0,0,1,3.7.6v8.9C68.4,26,67.1,27.5,64.1,27.5Zm2.5-11.4a6.3,6.3,0,0,0-1.9-.3c-1.9,0-2.9,1.1-2.9,3.5s.9,3.1,2.2,3.1a3.5,3.5,0,0,0,2.6-1.6Z" fill="#fff"/><path d="M75,24.1c-2.5,0-4.4-1.8-4.4-5s1.8-5,4.4-5,4.4,1.8,4.4,5S77.6,24.1,75,24.1Zm0-8.4c-1.7,0-2.6,1.5-2.6,3.5s.9,3.5,2.6,3.5,2.6-1.5,2.6-3.5S76.7,15.7,75,15.7Z" fill="#fff"/><path d="M87.7,23.9V17.4c0-1-.4-1.6-1.5-1.6a3.9,3.9,0,0,0-2.8,1.5v6.6H81.7V14.4h1.4l.2,1.4a5.4,5.4,0,0,1,3.4-1.6,2.5,2.5,0,0,1,2.8,2.2v7.5Z" fill="#fff"/><path d="M92.3,23.9V21.5h2v2.4Z" fill="#b30469"/><path d="M98,12.4a1.2,1.2,0,0,1-1.2-1.1A1.2,1.2,0,0,1,98,10.2a1.1,1.1,0,0,1,0,2.2Zm-.9,11.5V14.4h1.8v9.5Z" fill="#b30469"/><path d="M105.7,24.1c-2.6,0-4.4-1.8-4.4-5s1.8-4.9,4.3-5,4.5,1.9,4.5,5S108.2,24.1,105.7,24.1Zm-.1-8.5c-1.7.1-2.5,1.5-2.5,3.5s.9,3.5,2.6,3.5,2.6-1.5,2.6-3.5S107.4,15.6,105.6,15.6Z" fill="#b30469"/></symbol><symbol overflow="visible" viewBox="0 -5 160 20.5" id="datatitle">  <g
     transform="translate(-41.10395,-79.852489)"
     id="layer1">
    <g
       id="flowRoot10"
       style="font-style:normal;font-weight:normal;font-size:40px;line-height:1.25;font-family:sans-serif;letter-spacing:0px;word-spacing:0px;fill:#fff;fill-opacity:1;stroke:none"
       transform="scale(0.26458333)"
       aria-label="Data Gymnasia">
      <path
         id="path37"
         style=""
         d="m 159.29883,306.27734 v 22.67578 h 4.76562 q 6.03516,0 8.82813,-2.73437 2.8125,-2.73438 2.8125,-8.63281 0,-5.85938 -2.8125,-8.57422 -2.79297,-2.73438 -8.82813,-2.73438 z m -3.94531,-3.24218 h 8.10546 q 8.47657,0 12.44141,3.53515 3.96484,3.51563 3.96484,11.01563 0,7.53906 -3.98437,11.07422 -3.98438,3.53515 -12.42188,3.53515 h -8.10546 z" />
      <path
         id="path39"
         style=""
         d="m 195.91992,321.19922 q -4.35547,0 -6.03515,0.99609 -1.67969,0.9961 -1.67969,3.39844 0,1.91406 1.25,3.04687 1.26953,1.11329 3.4375,1.11329 2.98828,0 4.78515,-2.10938 1.81641,-2.12891 1.81641,-5.64453 v -0.80078 z m 7.16797,-1.48438 v 12.48047 h -3.59375 V 328.875 q -1.23047,1.99219 -3.06641,2.94922 -1.83593,0.9375 -4.49218,0.9375 -3.35938,0 -5.35157,-1.875 -1.97265,-1.89453 -1.97265,-5.0586 0,-3.6914 2.46094,-5.5664 2.48046,-1.875 7.38281,-1.875 h 5.03906 v -0.35156 q 0,-2.48047 -1.64062,-3.82813 -1.6211,-1.36719 -4.57032,-1.36719 -1.875,0 -3.65234,0.44922 -1.77734,0.44922 -3.41797,1.34766 v -3.32031 q 1.97266,-0.76172 3.82813,-1.13282 1.85546,-0.39062 3.61328,-0.39062 4.74609,0 7.08984,2.46094 2.34375,2.46093 2.34375,7.46093 z" />
      <path
         id="path41"
         style=""
         d="m 214.06445,304.10937 v 6.21094 h 7.40235 v 2.79297 h -7.40235 v 11.875 q 0,2.67578 0.72266,3.4375 0.74219,0.76172 2.98828,0.76172 h 3.69141 v 3.00781 h -3.69141 q -4.16016,0 -5.74219,-1.54297 -1.58203,-1.5625 -1.58203,-5.66406 v -11.875 h -2.63672 v -2.79297 h 2.63672 v -6.21094 z" />
      <path
         id="path43"
         style=""
         d="m 236.1543,321.19922 q -4.35547,0 -6.03516,0.99609 -1.67969,0.9961 -1.67969,3.39844 0,1.91406 1.25,3.04687 1.26953,1.11329 3.4375,1.11329 2.98828,0 4.78516,-2.10938 1.81641,-2.12891 1.81641,-5.64453 v -0.80078 z m 7.16797,-1.48438 v 12.48047 h -3.59375 V 328.875 q -1.23047,1.99219 -3.06641,2.94922 -1.83594,0.9375 -4.49219,0.9375 -3.35937,0 -5.35156,-1.875 -1.97266,-1.89453 -1.97266,-5.0586 0,-3.6914 2.46094,-5.5664 2.48047,-1.875 7.38281,-1.875 h 5.03907 v -0.35156 q 0,-2.48047 -1.64063,-3.82813 -1.62109,-1.36719 -4.57031,-1.36719 -1.875,0 -3.65235,0.44922 -1.77734,0.44922 -3.41796,1.34766 v -3.32031 q 1.97265,-0.76172 3.82812,-1.13282 1.85547,-0.39062 3.61328,-0.39062 4.7461,0 7.08985,2.46094 2.34375,2.46093 2.34375,7.46093 z" />
      <path
         id="path45"
         style=""
         d="m 283.51758,328.03516 v -7.83204 h -6.44531 v -3.24218 h 10.35156 v 12.51953 q -2.28516,1.62109 -5.03906,2.46094 -2.75391,0.82031 -5.87891,0.82031 -6.83594,0 -10.70313,-3.98438 -3.84765,-4.0039 -3.84765,-11.13281 0,-7.14844 3.84765,-11.13281 3.86719,-4.00391 10.70313,-4.00391 2.85156,0 5.41016,0.70313 2.57812,0.70312 4.74609,2.07031 v 4.19922 q -2.1875,-1.85547 -4.64844,-2.79297 -2.46094,-0.9375 -5.17578,-0.9375 -5.35156,0 -8.04687,2.98828 -2.67579,2.98828 -2.67579,8.90625 0,5.89844 2.67579,8.88672 2.69531,2.98828 8.04687,2.98828 2.08984,0 3.73047,-0.35156 1.64062,-0.3711 2.94922,-1.13281 z" />
      <path
         id="path47"
         style=""
         d="m 303.5957,334.22656 q -1.52343,3.90625 -2.96875,5.09766 -1.44531,1.1914 -3.86718,1.1914 h -2.8711 v -3.00781 h 2.10938 q 1.48437,0 2.30468,-0.70312 0.82032,-0.70313 1.81641,-3.32032 l 0.64453,-1.64062 -8.84765,-21.52344 h 3.80859 l 6.83594,17.10938 6.83593,-17.10938 h 3.8086 z" />
      <path
         id="path49"
         style=""
         d="m 335.19727,314.51953 q 1.34765,-2.42187 3.22265,-3.57422 1.875,-1.15234 4.41406,-1.15234 3.41797,0 5.27344,2.40234 1.85547,2.38281 1.85547,6.79688 v 13.20312 h -3.61328 v -13.08594 q 0,-3.14453 -1.11328,-4.66796 -1.11328,-1.52344 -3.39844,-1.52344 -2.79297,0 -4.41406,1.85547 -1.6211,1.85547 -1.6211,5.05859 v 12.36328 h -3.61328 v -13.08594 q 0,-3.16406 -1.11328,-4.66796 -1.11328,-1.52344 -3.4375,-1.52344 -2.7539,0 -4.375,1.875 -1.62109,1.85547 -1.62109,5.03906 v 12.36328 h -3.61328 v -21.875 h 3.61328 v 3.39844 q 1.23047,-2.01172 2.94922,-2.96875 1.71875,-0.95703 4.08203,-0.95703 2.38281,0 4.04297,1.21094 1.67968,1.21093 2.48047,3.51562 z" />
      <path
         id="path51"
         style=""
         d="m 375.33398,318.99219 v 13.20312 h -3.59375 v -13.08594 q 0,-3.10546 -1.21093,-4.64843 -1.21094,-1.54297 -3.63282,-1.54297 -2.91015,0 -4.58984,1.85547 -1.67969,1.85547 -1.67969,5.05859 v 12.36328 h -3.61328 v -21.875 h 3.61328 v 3.39844 q 1.28907,-1.97266 3.02735,-2.94922 1.75781,-0.97656 4.04297,-0.97656 3.76953,0 5.70312,2.34375 1.93359,2.32422 1.93359,6.85547 z" />
      <path
         id="path53"
         style=""
         d="m 392.48242,321.19922 q -4.35547,0 -6.03515,0.99609 -1.67969,0.9961 -1.67969,3.39844 0,1.91406 1.25,3.04687 1.26953,1.11329 3.4375,1.11329 2.98828,0 4.78515,-2.10938 1.81641,-2.12891 1.81641,-5.64453 v -0.80078 z m 7.16797,-1.48438 v 12.48047 h -3.59375 V 328.875 q -1.23047,1.99219 -3.06641,2.94922 -1.83593,0.9375 -4.49218,0.9375 -3.35938,0 -5.35157,-1.875 -1.97265,-1.89453 -1.97265,-5.0586 0,-3.6914 2.46094,-5.5664 2.48046,-1.875 7.38281,-1.875 h 5.03906 v -0.35156 q 0,-2.48047 -1.64062,-3.82813 -1.6211,-1.36719 -4.57032,-1.36719 -1.875,0 -3.65234,0.44922 -1.77734,0.44922 -3.41797,1.34766 v -3.32031 q 1.97266,-0.76172 3.82813,-1.13282 1.85546,-0.39062 3.61328,-0.39062 4.74609,0 7.08984,2.46094 2.34375,2.46093 2.34375,7.46093 z" />
      <path
         id="path55"
         style=""
         d="m 421.01758,310.96484 v 3.39844 q -1.52344,-0.78125 -3.16406,-1.17187 -1.64063,-0.39063 -3.39844,-0.39063 -2.67578,0 -4.02344,0.82031 -1.32812,0.82032 -1.32812,2.46094 0,1.25 0.95703,1.97266 0.95703,0.70312 3.84765,1.34765 l 1.23047,0.27344 q 3.82813,0.82031 5.42969,2.32422 1.62109,1.48437 1.62109,4.16016 0,3.04687 -2.42187,4.82421 -2.40235,1.77735 -6.6211,1.77735 -1.75781,0 -3.67187,-0.35156 -1.89453,-0.33204 -4.00391,-1.01563 v -3.71094 q 1.99219,1.03516 3.92578,1.5625 1.9336,0.50782 3.82813,0.50782 2.53906,0 3.90625,-0.85938 1.36719,-0.87891 1.36719,-2.46094 0,-1.46484 -0.9961,-2.24609 -0.97656,-0.78125 -4.3164,-1.50391 l -1.25,-0.29297 q -3.33985,-0.70312 -4.82422,-2.14843 -1.48438,-1.46485 -1.48438,-4.00391 0,-3.08594 2.1875,-4.76562 2.1875,-1.67969 6.21094,-1.67969 1.99219,0 3.75,0.29297 1.75781,0.29297 3.24219,0.8789 z" />
      <path
         id="path57"
         style=""
         d="m 427.93164,310.32031 h 3.59375 v 21.875 h -3.59375 z m 0,-8.51562 h 3.59375 v 4.55078 h -3.59375 z" />
      <path
         id="path59"
         style=""
         d="m 448.9668,321.19922 q -4.35547,0 -6.03516,0.99609 -1.67969,0.9961 -1.67969,3.39844 0,1.91406 1.25,3.04687 1.26953,1.11329 3.4375,1.11329 2.98828,0 4.78516,-2.10938 1.81641,-2.12891 1.81641,-5.64453 v -0.80078 z m 7.16797,-1.48438 v 12.48047 h -3.59375 V 328.875 q -1.23047,1.99219 -3.06641,2.94922 -1.83594,0.9375 -4.49219,0.9375 -3.35937,0 -5.35156,-1.875 -1.97266,-1.89453 -1.97266,-5.0586 0,-3.6914 2.46094,-5.5664 2.48047,-1.875 7.38281,-1.875 h 5.03907 v -0.35156 q 0,-2.48047 -1.64063,-3.82813 -1.62109,-1.36719 -4.57031,-1.36719 -1.875,0 -3.65235,0.44922 -1.77734,0.44922 -3.41796,1.34766 v -3.32031 q 1.97265,-0.76172 3.82812,-1.13282 1.85547,-0.39062 3.61328,-0.39062 4.7461,0 7.08985,2.46094 2.34375,2.46093 2.34375,7.46093 z" />
    </g>
  </g>
</symbol><symbol overflow="visible" viewBox="0 0 100 36" id="title"><path d="M22.9,24.9l-.9-11L17.7,25H16.2L11.8,14,11,25H9.3l1.1-13.8h2.3L17,22.4l4.3-11.3h2.3l1.1,13.8Z" fill="#fff"/><path d="M33.2,24.9,33,23.6a4.5,4.5,0,0,1-3.4,1.5,2.5,2.5,0,0,1-2.8-2.2v-.5c0-2.4,2-3.3,6-3.7v-.4c0-1.2-.7-1.6-1.8-1.6a7.6,7.6,0,0,0-3.3.8L27.5,16a9.5,9.5,0,0,1,3.7-.8c2.3,0,3.4.9,3.4,3.1V25Zm-.3-4.8c-3.5.3-4.3,1.3-4.3,2.3A1.3,1.3,0,0,0,30,23.6h0a4.1,4.1,0,0,0,2.8-1.3Z" fill="#fff"/><path d="M40.6,25.1c-1.7,0-2.8-.6-2.8-2.5V16.9H36.4V15.4h1.4V12.2l1.7-.3v3.4h2.1l.2,1.5H39.6v5.4c0,.8.3,1.3,1.3,1.3h.8l.2,1.5Z" fill="#fff"/><path d="M50.1,24.9V18.4c0-1-.4-1.6-1.5-1.6a3.9,3.9,0,0,0-2.8,1.5v6.6H44.1V10.7l1.8-.3v6.2a4.8,4.8,0,0,1,3.2-1.5,2.5,2.5,0,0,1,2.8,2.1v7.7Z" fill="#fff"/><path d="M55.7,13.4a1.1,1.1,0,1,1,1.1-1.1A1.1,1.1,0,0,1,55.7,13.4Zm-.9,11.5V15.4h1.8v9.5Z" fill="#fff"/><path d="M63.1,28.5a8.9,8.9,0,0,1-3.6-.7l.3-1.7a6.7,6.7,0,0,0,3.4.9c1.7,0,2.4-.9,2.4-2.2V23.6a3.9,3.9,0,0,1-2.9,1.3c-2.1,0-3.8-1.5-3.8-4.6s1.9-5.1,4.7-5.1a11.5,11.5,0,0,1,3.7.6v8.9C67.4,27,66.1,28.5,63.1,28.5Zm2.5-11.4a6.3,6.3,0,0,0-1.9-.3c-1.9,0-2.9,1.1-2.9,3.5s.9,3.1,2.2,3.1a3.5,3.5,0,0,0,2.6-1.6Z" fill="#fff"/><path d="M74,25.1c-2.5,0-4.4-1.8-4.4-5s1.8-5,4.4-5,4.4,1.8,4.4,5S76.6,25.1,74,25.1Zm0-8.4c-1.7,0-2.6,1.5-2.6,3.5s.9,3.5,2.6,3.5,2.6-1.5,2.6-3.5S75.7,16.7,74,16.7Z" fill="#fff"/><path d="M86.7,24.9V18.4c0-1-.4-1.6-1.5-1.6a3.9,3.9,0,0,0-2.8,1.5v6.6H80.7V15.4h1.4l.2,1.4a5.4,5.4,0,0,1,3.4-1.6,2.5,2.5,0,0,1,2.8,2.2v7.5Z" fill="#fff"/></symbol><symbol overflow="visible" viewBox="0 0 24 24" id="tumblr"><path d="M18.3,16.6H15.5c-.2,0-.2-.4-.2-.5V11.2h3.4V6.3H15.3v-4c0-.1,0-.1-.1-.1H9.3a1,1,0,0,0-1,.9C8.1,5.2,6.8,6.3,4.8,7H4.5v4H7v5.1C7,20.2,9.5,22,14.5,22c2,0,4.2-.7,4.9-1.6h.1Zm.2,3.5a5.4,5.4,0,0,1-3.3,1.1H15c-4,0-4.7-3.1-4.7-4.9V10.4H7.9a.1.1,0,0,1-.1-.1V7.7h.1A5.1,5.1,0,0,0,11.4,3a.2.2,0,0,1,.2-.2h2.8a.1.1,0,0,1,.1.1v4h3.3v3.2H14.5V16c0,1.2.6,1.8,1.7,1.8a3.2,3.2,0,0,0,1.4-.3c.1,0,.1,0,.1.1l.9,2.4Z"/></symbol><symbol overflow="visible" viewBox="0 0 24 24" id="twitter"><path d="M22,5.8a6.7,6.7,0,0,1-2.4.7,4.3,4.3,0,0,0,1.9-2.3,9.9,9.9,0,0,1-2.7,1A4.1,4.1,0,0,0,13,4.9a4.3,4.3,0,0,0-1.2,4A11.3,11.3,0,0,1,3.4,4.7a4,4,0,0,0,1.2,5.4,4.1,4.1,0,0,1-1.8-.5,4.3,4.3,0,0,0,3.3,4.1,3.7,3.7,0,0,1-1.8,0,4.1,4.1,0,0,0,3.8,2.9A8.8,8.8,0,0,1,2,18.3a11.6,11.6,0,0,0,16.1-3.5,12.1,12.1,0,0,0,1.8-6.9A7,7,0,0,0,22,5.8Z"/></symbol><symbol overflow="visible" viewBox="0 0 28 28" id="user"><circle cx="14" cy="9" r="5"/><path d="M14,16c-3.7,0-11,2-11,6v1.5A1.5,1.5,0,0,0,4.4,25H23.6A1.5,1.5,0,0,0,25,23.5V22C25,18,17.7,16,14,16Z"/></symbol><symbol overflow="visible" viewBox="0 0 24 24" id="youtube"><path d="M18.3,4.7a88.3,88.3,0,0,0-12.6,0C2.4,4.9,2,6.8,2,12s.4,7.1,3.7,7.3a88.3,88.3,0,0,0,12.6,0c3.3-.2,3.7-2.1,3.7-7.3S21.6,4.9,18.3,4.7ZM9.5,15.3V8.7L16.2,12Z"/></symbol></svg>
