<?xml version="1.0" encoding="UTF-8"?>
<svg  preserveAspectRatio='none' xmlns="http://www.w3.org/2000/svg" xmlns:xlink="http://www.w3.org/1999/xlink" width="260pt" height="259pt" viewBox="0 0 260 259" version="1.1">
<!-- ***Exported Comment***
Created by Mathematica
***Exported Comment*** -->
<g id="surface239">
<path style="fill:none;stroke-width:0.36;stroke-linecap:butt;stroke-linejoin:miter;stroke:rgb(14.99939%,28.999329%,50%);stroke-opacity:0.7;stroke-miterlimit:3.25;" d="M 101.804688 142.394531 L 297.550781 142.394531 " transform="matrix(1,0,0,1,-74,-13)"/>
<path style=" stroke:none;fill-rule:evenodd;fill:rgb(14.99939%,28.999329%,50%);fill-opacity:0.7;" d="M 222.753906 127.117188 L 222.882812 127.378906 L 223.160156 127.996094 L 223.304688 128.371094 L 223.433594 128.746094 L 223.523438 129.097656 L 223.550781 129.394531 L 223.523438 129.660156 L 223.433594 130.003906 L 223.304688 130.394531 L 223.160156 130.792969 L 222.882812 131.46875 L 222.753906 131.757812 L 231.394531 129.394531 Z M 222.753906 127.117188 "/>
<path style="fill:none;stroke-width:0.36;stroke-linecap:butt;stroke-linejoin:miter;stroke:rgb(14.99939%,28.999329%,50%);stroke-opacity:0.7;stroke-miterlimit:3.25;" d="M 316.707031 40.597656 L 316.707031 123.238281 " transform="matrix(1,0,0,1,-74,-13)"/>
<path style=" stroke:none;fill-rule:evenodd;fill:rgb(14.99939%,28.999329%,50%);fill-opacity:0.7;" d="M 244.980469 109.441406 L 244.71875 109.570312 L 244.101562 109.847656 L 243.726562 109.992188 L 243.351562 110.121094 L 243 110.210938 L 242.707031 110.238281 L 242.4375 110.210938 L 242.09375 110.121094 L 241.703125 109.992188 L 241.308594 109.847656 L 240.628906 109.570312 L 240.339844 109.441406 L 242.707031 118.082031 Z M 244.980469 109.441406 "/>
<path style="fill:none;stroke-width:0.36;stroke-linecap:butt;stroke-linejoin:miter;stroke:rgb(14.99939%,28.999329%,50%);stroke-opacity:0.7;stroke-miterlimit:3.25;" d="M 195.601562 247.5 L 104.039062 155.9375 " transform="matrix(1,0,0,1,-74,-13)"/>
<path style=" stroke:none;fill-rule:evenodd;fill:rgb(14.99939%,28.999329%,50%);fill-opacity:0.7;" d="M 28.992188 145.109375 L 29.085938 144.835938 L 29.328125 144.199219 L 29.488281 143.832031 L 29.664062 143.476562 L 29.851562 143.167969 L 30.039062 142.9375 L 30.25 142.769531 L 30.554688 142.585938 L 30.921875 142.402344 L 31.304688 142.226562 L 31.980469 141.941406 L 32.273438 141.828125 L 24.492188 137.390625 Z M 28.992188 145.109375 "/>
<path style="fill:none;stroke-width:0.36;stroke-linecap:butt;stroke-linejoin:miter;stroke:rgb(14.99939%,28.999329%,50%);stroke-opacity:0.7;stroke-miterlimit:3.25;" d="M 211.597656 247.5 L 303.164062 155.9375 " transform="matrix(1,0,0,1,-74,-13)"/>
<path style=" stroke:none;fill-rule:evenodd;fill:rgb(14.99939%,28.999329%,50%);fill-opacity:0.7;" d="M 226.992188 141.890625 L 227.261719 141.984375 L 227.898438 142.226562 L 228.265625 142.386719 L 228.621094 142.5625 L 228.933594 142.75 L 229.164062 142.9375 L 229.328125 143.144531 L 229.511719 143.453125 L 229.695312 143.816406 L 229.871094 144.203125 L 230.15625 144.878906 L 230.269531 145.171875 L 234.707031 137.390625 Z M 226.992188 141.890625 "/>
<path style="fill:none;stroke-width:0.36;stroke-linecap:butt;stroke-linejoin:miter;stroke:rgb(14.99939%,28.999329%,50%);stroke-opacity:0.7;stroke-miterlimit:3.25;" d="M 214.910156 255.5 L 297.550781 255.5 " transform="matrix(1,0,0,1,-74,-13)"/>
<path style=" stroke:none;fill-rule:evenodd;fill:rgb(14.99939%,28.999329%,50%);fill-opacity:0.7;" d="M 222.753906 240.222656 L 222.882812 240.484375 L 223.160156 241.101562 L 223.304688 241.476562 L 223.433594 241.851562 L 223.523438 242.203125 L 223.550781 242.5 L 223.523438 242.765625 L 223.433594 243.109375 L 223.304688 243.5 L 223.160156 243.898438 L 222.882812 244.574219 L 222.753906 244.863281 L 231.394531 242.5 Z M 222.753906 240.222656 "/>
<path style="fill-rule:evenodd;fill:rgb(63.996887%,70.397949%,79.997253%);fill-opacity:1;stroke-width:0.36;stroke-linecap:square;stroke-linejoin:miter;stroke:rgb(0%,0%,0%);stroke-opacity:0.7;stroke-miterlimit:3.25;" d="M 101.804688 142.394531 C 101.804688 139.394531 100.613281 136.515625 98.492188 134.394531 C 96.371094 132.273438 93.496094 131.082031 90.496094 131.082031 C 87.496094 131.082031 84.617188 132.273438 82.496094 134.394531 C 80.375 136.515625 79.183594 139.394531 79.183594 142.394531 C 79.183594 145.390625 80.375 148.269531 82.496094 150.390625 C 84.617188 152.511719 87.496094 153.703125 90.496094 153.703125 C 93.496094 153.703125 96.371094 152.511719 98.492188 150.390625 C 100.613281 148.269531 101.804688 145.390625 101.804688 142.394531 Z M 101.804688 142.394531 " transform="matrix(1,0,0,1,-74,-13)"/>
<path style=" stroke:none;fill-rule:evenodd;fill:rgb(0%,0%,0%);fill-opacity:1;" d="M 14.351562 131.726562 C 14.351562 131.207031 14.449219 130.753906 14.644531 130.371094 C 14.835938 129.984375 15.214844 129.636719 15.78125 129.324219 L 16.570312 128.855469 C 16.925781 128.644531 17.175781 128.464844 17.320312 128.316406 C 17.546875 128.082031 17.660156 127.816406 17.660156 127.515625 C 17.660156 127.164062 17.554688 126.886719 17.347656 126.679688 C 17.140625 126.472656 16.863281 126.367188 16.519531 126.367188 C 16.007812 126.367188 15.652344 126.566406 15.457031 126.960938 C 15.351562 127.171875 15.300781 127.464844 15.300781 127.835938 L 14.523438 127.835938 C 14.523438 127.3125 14.617188 126.882812 14.800781 126.550781 C 15.125 125.964844 15.699219 125.671875 16.523438 125.671875 C 17.207031 125.671875 17.707031 125.859375 18.023438 126.234375 C 18.339844 126.609375 18.5 127.023438 18.5 127.480469 C 18.5 127.964844 18.328125 128.375 17.988281 128.71875 C 17.792969 128.917969 17.441406 129.160156 16.945312 129.445312 L 16.378906 129.765625 C 16.109375 129.914062 15.898438 130.058594 15.742188 130.199219 C 15.464844 130.441406 15.292969 130.710938 15.222656 131.007812 L 18.476562 131.007812 L 18.476562 131.726562 Z M 14.351562 131.726562 "/>
<path style="fill-rule:evenodd;fill:rgb(63.996887%,70.397949%,79.997253%);fill-opacity:1;stroke-width:0.36;stroke-linecap:square;stroke-linejoin:miter;stroke:rgb(0%,0%,0%);stroke-opacity:0.7;stroke-miterlimit:3.25;" d="M 328.015625 142.394531 C 328.015625 139.394531 326.824219 136.515625 324.703125 134.394531 C 322.582031 132.273438 319.707031 131.082031 316.707031 131.082031 C 313.707031 131.082031 310.828125 132.273438 308.707031 134.394531 C 306.585938 136.515625 305.394531 139.394531 305.394531 142.394531 C 305.394531 145.390625 306.585938 148.269531 308.707031 150.390625 C 310.828125 152.511719 313.707031 153.703125 316.707031 153.703125 C 319.707031 153.703125 322.582031 152.511719 324.703125 150.390625 C 326.824219 148.269531 328.015625 145.390625 328.015625 142.394531 Z M 328.015625 142.394531 " transform="matrix(1,0,0,1,-74,-13)"/>
<path style=" stroke:none;fill-rule:evenodd;fill:rgb(0%,0%,0%);fill-opacity:1;" d="M 243.152344 129.59375 L 243.152344 126.851562 L 241.21875 129.59375 Z M 243.171875 131.726562 L 243.171875 130.257812 L 240.519531 130.257812 L 240.519531 129.515625 L 243.289062 125.667969 L 243.925781 125.667969 L 243.925781 129.59375 L 244.796875 129.59375 L 244.796875 130.257812 L 243.933594 130.257812 L 243.933594 131.726562 Z M 243.171875 131.726562 "/>
<path style="fill-rule:evenodd;fill:rgb(63.996887%,70.397949%,79.997253%);fill-opacity:1;stroke-width:0.36;stroke-linecap:square;stroke-linejoin:miter;stroke:rgb(0%,0%,0%);stroke-opacity:0.7;stroke-miterlimit:3.25;" d="M 328.015625 29.289062 C 328.015625 26.289062 326.824219 23.410156 324.703125 21.289062 C 322.582031 19.167969 319.707031 17.976562 316.707031 17.976562 C 313.707031 17.976562 310.828125 19.167969 308.707031 21.289062 C 306.585938 23.410156 305.394531 26.289062 305.394531 29.289062 C 305.394531 32.285156 306.585938 35.164062 308.707031 37.285156 C 310.828125 39.40625 313.707031 40.597656 316.707031 40.597656 C 319.707031 40.597656 322.582031 39.40625 324.703125 37.285156 C 326.824219 35.164062 328.015625 32.285156 328.015625 29.289062 Z M 328.015625 29.289062 " transform="matrix(1,0,0,1,-74,-13)"/>
<path style=" stroke:none;fill-rule:evenodd;fill:rgb(0%,0%,0%);fill-opacity:1;" d="M 242.523438 18.792969 C 241.8125 18.792969 241.292969 18.601562 240.96875 18.214844 C 240.648438 17.828125 240.488281 17.359375 240.488281 16.804688 L 241.289062 16.804688 C 241.324219 17.1875 241.394531 17.464844 241.503906 17.636719 C 241.695312 17.945312 242.046875 18.101562 242.5625 18.101562 C 242.964844 18.101562 243.285156 17.996094 243.527344 17.785156 C 243.769531 17.570312 243.890625 17.300781 243.890625 16.964844 C 243.890625 16.554688 243.761719 16.265625 243.503906 16.101562 C 243.246094 15.9375 242.890625 15.855469 242.433594 15.855469 C 242.378906 15.855469 242.328125 15.855469 242.273438 15.855469 C 242.222656 15.855469 242.171875 15.855469 242.117188 15.855469 L 242.117188 15.1875 C 242.195312 15.199219 242.261719 15.207031 242.316406 15.207031 C 242.367188 15.207031 242.425781 15.207031 242.488281 15.207031 C 242.773438 15.207031 243.007812 15.160156 243.191406 15.070312 C 243.511719 14.910156 243.671875 14.625 243.671875 14.214844 C 243.671875 13.910156 243.566406 13.675781 243.355469 13.511719 C 243.140625 13.347656 242.894531 13.261719 242.609375 13.261719 C 242.105469 13.261719 241.757812 13.433594 241.566406 13.769531 C 241.460938 13.953125 241.40625 14.21875 241.40625 14.558594 L 240.648438 14.558594 C 240.648438 14.109375 240.738281 13.730469 240.917969 13.414062 C 241.222656 12.851562 241.765625 12.574219 242.539062 12.574219 C 243.148438 12.574219 243.621094 12.710938 243.957031 12.988281 C 244.292969 13.265625 244.460938 13.664062 244.460938 14.191406 C 244.460938 14.566406 244.363281 14.871094 244.171875 15.101562 C 244.050781 15.246094 243.886719 15.359375 243.683594 15.441406 C 244.003906 15.53125 244.253906 15.695312 244.4375 15.945312 C 244.617188 16.191406 244.710938 16.496094 244.710938 16.851562 C 244.710938 17.425781 244.519531 17.890625 244.140625 18.253906 C 243.761719 18.613281 243.222656 18.792969 242.523438 18.792969 Z M 242.523438 18.792969 "/>
<path style="fill-rule:evenodd;fill:rgb(63.996887%,70.397949%,79.997253%);fill-opacity:1;stroke-width:0.36;stroke-linecap:square;stroke-linejoin:miter;stroke:rgb(0%,0%,0%);stroke-opacity:0.7;stroke-miterlimit:3.25;" d="M 214.910156 255.5 C 214.910156 252.5 213.71875 249.621094 211.597656 247.5 C 209.476562 245.378906 206.601562 244.1875 203.601562 244.1875 C 200.601562 244.1875 197.722656 245.378906 195.601562 247.5 C 193.480469 249.621094 192.289062 252.5 192.289062 255.5 C 192.289062 258.496094 193.480469 261.375 195.601562 263.496094 C 197.722656 265.617188 200.601562 266.808594 203.601562 266.808594 C 206.601562 266.808594 209.476562 265.617188 211.597656 263.496094 C 213.71875 261.375 214.910156 258.496094 214.910156 255.5 Z M 214.910156 255.5 " transform="matrix(1,0,0,1,-74,-13)"/>
<path style=" stroke:none;fill-rule:evenodd;fill:rgb(0%,0%,0%);fill-opacity:1;" d="M 128.273438 243.277344 C 128.324219 243.722656 128.527344 244.035156 128.878906 244.207031 C 129.058594 244.292969 129.265625 244.335938 129.503906 244.335938 C 129.953125 244.335938 130.285156 244.195312 130.5 243.90625 C 130.71875 243.621094 130.828125 243.300781 130.828125 242.953125 C 130.828125 242.53125 130.699219 242.203125 130.441406 241.972656 C 130.183594 241.742188 129.875 241.625 129.515625 241.625 C 129.253906 241.625 129.027344 241.675781 128.84375 241.777344 C 128.65625 241.878906 128.496094 242.015625 128.363281 242.1875 L 127.707031 242.1875 L 128.164062 238.914062 L 131.34375 238.914062 L 131.34375 239.648438 L 128.734375 239.648438 L 128.476562 241.324219 C 128.617188 241.214844 128.75 241.136719 128.878906 241.082031 C 129.101562 240.988281 129.363281 240.941406 129.660156 240.941406 C 130.210938 240.941406 130.679688 241.121094 131.066406 241.480469 C 131.453125 241.835938 131.644531 242.289062 131.644531 242.835938 C 131.644531 243.410156 131.46875 243.914062 131.109375 244.351562 C 130.753906 244.785156 130.1875 245.003906 129.40625 245.003906 C 128.910156 245.003906 128.472656 244.863281 128.089844 244.578125 C 127.710938 244.296875 127.519531 243.863281 127.519531 243.277344 Z M 128.273438 243.277344 "/>
<path style="fill-rule:evenodd;fill:rgb(63.996887%,70.397949%,79.997253%);fill-opacity:1;stroke-width:0.36;stroke-linecap:square;stroke-linejoin:miter;stroke:rgb(0%,0%,0%);stroke-opacity:0.7;stroke-miterlimit:3.25;" d="M 328.015625 255.5 C 328.015625 252.5 326.824219 249.621094 324.703125 247.5 C 322.582031 245.378906 319.707031 244.1875 316.707031 244.1875 C 313.707031 244.1875 310.828125 245.378906 308.707031 247.5 C 306.585938 249.621094 305.394531 252.5 305.394531 255.5 C 305.394531 258.496094 306.585938 261.375 308.707031 263.496094 C 310.828125 265.617188 313.707031 266.808594 316.707031 266.808594 C 319.707031 266.808594 322.582031 265.617188 324.703125 263.496094 C 326.824219 261.375 328.015625 258.496094 328.015625 255.5 Z M 328.015625 255.5 " transform="matrix(1,0,0,1,-74,-13)"/>
<path style=" stroke:none;fill-rule:evenodd;fill:rgb(0%,0%,0%);fill-opacity:1;" d="M 242.832031 238.785156 C 243.5 238.785156 243.964844 238.960938 244.226562 239.320312 C 244.492188 239.675781 244.621094 240.046875 244.621094 240.425781 L 243.914062 240.425781 C 243.871094 240.175781 243.796875 239.984375 243.699219 239.84375 C 243.515625 239.582031 243.234375 239.449219 242.855469 239.449219 C 242.429688 239.449219 242.085938 239.644531 241.832031 240.03125 C 241.582031 240.414062 241.453125 240.96875 241.453125 241.6875 C 241.613281 241.429688 241.828125 241.238281 242.089844 241.113281 C 242.332031 241 242.605469 240.941406 242.902344 240.941406 C 243.410156 240.941406 243.851562 241.105469 244.230469 241.433594 C 244.605469 241.757812 244.796875 242.246094 244.796875 242.894531 C 244.796875 243.445312 244.617188 243.9375 244.261719 244.363281 C 243.902344 244.789062 243.394531 245.003906 242.730469 245.003906 C 242.164062 245.003906 241.675781 244.789062 241.265625 244.359375 C 240.855469 243.929688 240.648438 243.207031 240.648438 242.195312 C 240.648438 241.445312 240.738281 240.808594 240.921875 240.285156 C 241.265625 239.285156 241.902344 238.785156 242.832031 238.785156 Z M 242.796875 244.328125 C 243.199219 244.328125 243.496094 244.191406 243.695312 243.921875 C 243.894531 243.648438 243.996094 243.328125 243.996094 242.957031 C 243.996094 242.644531 243.90625 242.34375 243.726562 242.0625 C 243.550781 241.777344 243.226562 241.636719 242.761719 241.636719 C 242.433594 241.636719 242.148438 241.746094 241.898438 241.964844 C 241.652344 242.183594 241.53125 242.515625 241.53125 242.957031 C 241.53125 243.34375 241.640625 243.667969 241.867188 243.933594 C 242.089844 244.195312 242.402344 244.328125 242.796875 244.328125 Z M 242.796875 244.328125 "/>
</g>
</svg>
