<?xml version="1.0" encoding="UTF-8"?>
<svg  preserveAspectRatio='none' xmlns="http://www.w3.org/2000/svg" xmlns:xlink="http://www.w3.org/1999/xlink" width="173pt" height="312pt" viewBox="0 0 173 312" version="1.1">
<!-- ***Exported Comment***
Created by Mathematica
***Exported Comment*** -->
<g id="surface203">
<path style="fill:none;stroke-width:0.36;stroke-linecap:butt;stroke-linejoin:miter;stroke:rgb(14.99939%,28.999329%,50%);stroke-opacity:0.7;stroke-miterlimit:3.25;" d="M 91.296875 43.992188 L 91.296875 146.839844 " transform="matrix(1,0,0,1,-74,-13)"/>
<path style=" stroke:none;fill-rule:evenodd;fill:rgb(14.99939%,28.999329%,50%);fill-opacity:0.7;" d="M 19.570312 133.042969 L 19.308594 133.171875 L 18.691406 133.449219 L 18.316406 133.59375 L 17.941406 133.722656 L 17.589844 133.8125 L 17.296875 133.839844 L 17.027344 133.8125 L 16.683594 133.722656 L 16.292969 133.59375 L 15.898438 133.449219 L 15.21875 133.171875 L 14.929688 133.042969 L 17.296875 141.683594 Z M 19.570312 133.042969 "/>
<path style="fill:none;stroke-width:0.36;stroke-linecap:butt;stroke-linejoin:miter;stroke:rgb(14.99939%,28.999329%,50%);stroke-opacity:0.7;stroke-miterlimit:3.25;" d="M 101.078125 39.941406 L 214.328125 153.191406 " transform="matrix(1,0,0,1,-74,-13)"/>
<path style=" stroke:none;fill-rule:evenodd;fill:rgb(14.99939%,28.999329%,50%);fill-opacity:0.7;" d="M 141.371094 138.019531 L 141.28125 138.292969 L 141.035156 138.925781 L 140.878906 139.292969 L 140.703125 139.648438 L 140.515625 139.960938 L 140.328125 140.191406 L 140.117188 140.359375 L 139.8125 140.539062 L 139.445312 140.726562 L 139.0625 140.902344 L 138.386719 141.183594 L 138.09375 141.300781 L 145.875 145.734375 Z M 141.371094 138.019531 "/>
<path style="fill:none;stroke-width:0.36;stroke-linecap:butt;stroke-linejoin:miter;stroke:rgb(14.99939%,28.999329%,50%);stroke-opacity:0.7;stroke-miterlimit:3.25;" d="M 97.484375 180.894531 L 150.78125 287.492188 " transform="matrix(1,0,0,1,-74,-13)"/>
<path style=" stroke:none;fill-rule:evenodd;fill:rgb(14.99939%,28.999329%,50%);fill-opacity:0.7;" d="M 78.457031 272.761719 L 78.285156 272.992188 L 77.851562 273.515625 L 77.585938 273.816406 L 77.304688 274.097656 L 77.03125 274.332031 L 76.78125 274.492188 L 76.527344 274.585938 L 76.179688 274.660156 L 75.777344 274.71875 L 75.355469 274.765625 L 74.625 274.820312 L 74.308594 274.835938 L 80.289062 281.507812 Z M 78.457031 272.761719 "/>
<path style="fill:none;stroke-width:0.36;stroke-linecap:butt;stroke-linejoin:miter;stroke:rgb(14.99939%,28.999329%,50%);stroke-opacity:0.7;stroke-miterlimit:3.25;" d="M 223.46875 180.894531 L 170.171875 287.492188 " transform="matrix(1,0,0,1,-74,-13)"/>
<path style=" stroke:none;fill-rule:evenodd;fill:rgb(14.99939%,28.999329%,50%);fill-opacity:0.7;" d="M 98.5625 274.796875 L 98.273438 274.792969 L 97.59375 274.765625 L 97.195312 274.730469 L 96.800781 274.675781 L 96.449219 274.597656 L 96.171875 274.492188 L 95.945312 274.347656 L 95.675781 274.113281 L 95.386719 273.824219 L 95.097656 273.515625 L 94.613281 272.964844 L 94.414062 272.722656 L 92.664062 281.507812 Z M 98.5625 274.796875 "/>
<path style="fill:none;stroke-width:0.36;stroke-linecap:butt;stroke-linejoin:miter;stroke:rgb(14.99939%,28.999329%,50%);stroke-opacity:0.7;stroke-miterlimit:3.25;" d="M 219.875 39.941406 L 106.625 153.191406 " transform="matrix(1,0,0,1,-74,-13)"/>
<path style=" stroke:none;fill-rule:evenodd;fill:rgb(14.99939%,28.999329%,50%);fill-opacity:0.7;" d="M 34.796875 141.234375 L 34.523438 141.140625 L 33.890625 140.898438 L 33.519531 140.738281 L 33.164062 140.5625 L 32.855469 140.378906 L 32.625 140.191406 L 32.457031 139.980469 L 32.277344 139.671875 L 32.089844 139.308594 L 31.914062 138.921875 L 31.628906 138.25 L 31.515625 137.953125 L 27.078125 145.734375 Z M 34.796875 141.234375 "/>
<path style="fill:none;stroke-width:0.36;stroke-linecap:butt;stroke-linejoin:miter;stroke:rgb(14.99939%,28.999329%,50%);stroke-opacity:0.7;stroke-miterlimit:3.25;" d="M 229.660156 43.992188 L 229.660156 146.839844 " transform="matrix(1,0,0,1,-74,-13)"/>
<path style=" stroke:none;fill-rule:evenodd;fill:rgb(14.99939%,28.999329%,50%);fill-opacity:0.7;" d="M 157.933594 133.042969 L 157.671875 133.171875 L 157.054688 133.449219 L 156.679688 133.59375 L 156.304688 133.722656 L 155.953125 133.8125 L 155.660156 133.839844 L 155.390625 133.8125 L 155.046875 133.722656 L 154.65625 133.59375 L 154.261719 133.449219 L 153.582031 133.171875 L 153.292969 133.042969 L 155.660156 141.683594 Z M 157.933594 133.042969 "/>
<path style="fill-rule:evenodd;fill:rgb(63.996887%,70.397949%,79.997253%);fill-opacity:1;stroke-width:0.36;stroke-linecap:square;stroke-linejoin:miter;stroke:rgb(0%,0%,0%);stroke-opacity:0.7;stroke-miterlimit:3.25;" d="M 105.132812 30.15625 C 105.132812 26.488281 103.675781 22.96875 101.078125 20.375 C 98.484375 17.777344 94.964844 16.320312 91.296875 16.320312 C 87.625 16.320312 84.105469 17.777344 81.511719 20.375 C 78.917969 22.96875 77.460938 26.488281 77.460938 30.15625 C 77.460938 33.828125 78.917969 37.347656 81.511719 39.941406 C 84.105469 42.535156 87.625 43.992188 91.296875 43.992188 C 94.964844 43.992188 98.484375 42.535156 101.078125 39.941406 C 103.675781 37.347656 105.132812 33.828125 105.132812 30.15625 Z M 105.132812 30.15625 " transform="matrix(1,0,0,1,-74,-13)"/>
<path style=" stroke:none;fill-rule:evenodd;fill:rgb(0%,0%,0%);fill-opacity:1;" d="M 17.875 19.402344 L 17.308594 19.402344 L 17.308594 15.773438 C 17.171875 15.90625 16.992188 16.035156 16.769531 16.167969 C 16.546875 16.296875 16.347656 16.394531 16.167969 16.460938 L 16.167969 15.910156 C 16.488281 15.761719 16.765625 15.578125 17.003906 15.367188 C 17.242188 15.152344 17.410156 14.945312 17.511719 14.746094 L 17.875 14.746094 Z M 17.875 19.402344 "/>
<path style="fill-rule:evenodd;fill:rgb(63.996887%,70.397949%,79.997253%);fill-opacity:1;stroke-width:0.36;stroke-linecap:square;stroke-linejoin:miter;stroke:rgb(0%,0%,0%);stroke-opacity:0.7;stroke-miterlimit:3.25;" d="M 105.132812 168.519531 C 105.132812 164.851562 103.675781 161.332031 101.078125 158.734375 C 98.484375 156.140625 94.964844 154.683594 91.296875 154.683594 C 87.625 154.683594 84.105469 156.140625 81.511719 158.734375 C 78.917969 161.332031 77.460938 164.851562 77.460938 168.519531 C 77.460938 172.191406 78.917969 175.707031 81.511719 178.304688 C 84.105469 180.898438 87.625 182.355469 91.296875 182.355469 C 94.964844 182.355469 98.484375 180.898438 101.078125 178.304688 C 103.675781 175.707031 105.132812 172.191406 105.132812 168.519531 Z M 105.132812 168.519531 " transform="matrix(1,0,0,1,-74,-13)"/>
<path style=" stroke:none;fill-rule:evenodd;fill:rgb(0%,0%,0%);fill-opacity:1;" d="M 15.796875 156.527344 L 16.367188 156.453125 C 16.429688 156.773438 16.542969 157.003906 16.699219 157.148438 C 16.851562 157.289062 17.042969 157.359375 17.265625 157.359375 C 17.53125 157.359375 17.757812 157.269531 17.941406 157.082031 C 18.125 156.898438 18.214844 156.667969 18.214844 156.394531 C 18.214844 156.136719 18.128906 155.921875 17.960938 155.753906 C 17.792969 155.582031 17.578125 155.5 17.320312 155.5 C 17.214844 155.5 17.078125 155.519531 16.917969 155.5625 L 16.984375 155.0625 C 17.019531 155.066406 17.050781 155.066406 17.074219 155.066406 C 17.316406 155.066406 17.535156 155.003906 17.730469 154.875 C 17.921875 154.75 18.019531 154.550781 18.019531 154.285156 C 18.019531 154.074219 17.949219 153.902344 17.808594 153.761719 C 17.667969 153.625 17.484375 153.554688 17.261719 153.554688 C 17.039062 153.554688 16.855469 153.625 16.707031 153.765625 C 16.558594 153.90625 16.464844 154.117188 16.421875 154.398438 L 15.851562 154.296875 C 15.921875 153.914062 16.082031 153.613281 16.328125 153.402344 C 16.574219 153.191406 16.882812 153.085938 17.25 153.085938 C 17.5 153.085938 17.734375 153.140625 17.945312 153.25 C 18.160156 153.359375 18.324219 153.507812 18.4375 153.699219 C 18.550781 153.886719 18.605469 154.089844 18.605469 154.300781 C 18.605469 154.5 18.550781 154.683594 18.4375 154.851562 C 18.328125 155.015625 18.167969 155.148438 17.96875 155.246094 C 18.234375 155.308594 18.445312 155.441406 18.59375 155.640625 C 18.746094 155.835938 18.820312 156.085938 18.820312 156.382812 C 18.820312 156.789062 18.671875 157.128906 18.378906 157.410156 C 18.085938 157.691406 17.710938 157.832031 17.261719 157.832031 C 16.859375 157.832031 16.523438 157.710938 16.253906 157.46875 C 15.988281 157.226562 15.835938 156.914062 15.796875 156.527344 Z M 15.796875 156.527344 "/>
<path style="fill-rule:evenodd;fill:rgb(63.996887%,70.397949%,79.997253%);fill-opacity:1;stroke-width:0.36;stroke-linecap:square;stroke-linejoin:miter;stroke:rgb(0%,0%,0%);stroke-opacity:0.7;stroke-miterlimit:3.25;" d="M 243.496094 168.519531 C 243.496094 164.851562 242.035156 161.332031 239.441406 158.734375 C 236.847656 156.140625 233.328125 154.683594 229.660156 154.683594 C 225.988281 154.683594 222.46875 156.140625 219.875 158.734375 C 217.28125 161.332031 215.820312 164.851562 215.820312 168.519531 C 215.820312 172.191406 217.28125 175.707031 219.875 178.304688 C 222.46875 180.898438 225.988281 182.355469 229.660156 182.355469 C 233.328125 182.355469 236.847656 180.898438 239.441406 178.304688 C 242.035156 175.707031 243.496094 172.191406 243.496094 168.519531 Z M 243.496094 168.519531 " transform="matrix(1,0,0,1,-74,-13)"/>
<path style=" stroke:none;fill-rule:evenodd;fill:rgb(0%,0%,0%);fill-opacity:1;" d="M 155.929688 157.765625 L 155.929688 156.664062 L 153.921875 156.664062 L 153.921875 156.140625 L 156.035156 153.128906 L 156.5 153.128906 L 156.5 156.140625 L 157.128906 156.140625 L 157.128906 156.664062 L 156.5 156.664062 L 156.5 157.765625 Z M 155.929688 156.140625 L 155.929688 154.046875 L 154.480469 156.140625 Z M 155.929688 156.140625 "/>
<path style="fill-rule:evenodd;fill:rgb(63.996887%,70.397949%,79.997253%);fill-opacity:1;stroke-width:0.36;stroke-linecap:square;stroke-linejoin:miter;stroke:rgb(0%,0%,0%);stroke-opacity:0.7;stroke-miterlimit:3.25;" d="M 243.496094 30.15625 C 243.496094 26.488281 242.035156 22.96875 239.441406 20.375 C 236.847656 17.777344 233.328125 16.320312 229.660156 16.320312 C 225.988281 16.320312 222.46875 17.777344 219.875 20.375 C 217.28125 22.96875 215.820312 26.488281 215.820312 30.15625 C 215.820312 33.828125 217.28125 37.347656 219.875 39.941406 C 222.46875 42.535156 225.988281 43.992188 229.660156 43.992188 C 233.328125 43.992188 236.847656 42.535156 239.441406 39.941406 C 242.035156 37.347656 243.496094 33.828125 243.496094 30.15625 Z M 243.496094 30.15625 " transform="matrix(1,0,0,1,-74,-13)"/>
<path style=" stroke:none;fill-rule:evenodd;fill:rgb(0%,0%,0%);fill-opacity:1;" d="M 157.121094 18.855469 L 157.121094 19.402344 L 154.050781 19.402344 C 154.050781 19.265625 154.074219 19.132812 154.125 19.007812 C 154.203125 18.796875 154.332031 18.59375 154.507812 18.390625 C 154.683594 18.1875 154.929688 17.953125 155.25 17.6875 C 155.742188 17.273438 156.078125 16.941406 156.253906 16.699219 C 156.425781 16.457031 156.511719 16.230469 156.511719 16.015625 C 156.511719 15.789062 156.433594 15.597656 156.273438 15.441406 C 156.117188 15.289062 155.910156 15.210938 155.652344 15.210938 C 155.382812 15.210938 155.167969 15.292969 155.007812 15.457031 C 154.84375 15.621094 154.765625 15.851562 154.765625 16.140625 L 154.164062 16.082031 C 154.203125 15.644531 154.355469 15.3125 154.613281 15.082031 C 154.875 14.851562 155.222656 14.738281 155.660156 14.738281 C 156.105469 14.738281 156.453125 14.863281 156.710938 15.109375 C 156.96875 15.355469 157.097656 15.660156 157.097656 16.027344 C 157.097656 16.214844 157.0625 16.394531 156.984375 16.574219 C 156.910156 16.753906 156.785156 16.945312 156.609375 17.144531 C 156.433594 17.34375 156.144531 17.613281 155.742188 17.960938 C 155.40625 18.25 155.191406 18.445312 155.097656 18.546875 C 155 18.648438 154.921875 18.753906 154.859375 18.855469 Z M 157.121094 18.855469 "/>
<path style="fill-rule:evenodd;fill:rgb(63.996887%,70.397949%,79.997253%);fill-opacity:1;stroke-width:0.36;stroke-linecap:square;stroke-linejoin:miter;stroke:rgb(0%,0%,0%);stroke-opacity:0.7;stroke-miterlimit:3.25;" d="M 174.3125 306.882812 C 174.3125 303.214844 172.855469 299.695312 170.261719 297.097656 C 167.664062 294.503906 164.144531 293.046875 160.476562 293.046875 C 156.808594 293.046875 153.289062 294.503906 150.691406 297.097656 C 148.097656 299.695312 146.640625 303.214844 146.640625 306.882812 C 146.640625 310.550781 148.097656 314.070312 150.691406 316.667969 C 153.289062 319.261719 156.808594 320.71875 160.476562 320.71875 C 164.144531 320.71875 167.664062 319.261719 170.261719 316.667969 C 172.855469 314.070312 174.3125 310.550781 174.3125 306.882812 Z M 174.3125 306.882812 " transform="matrix(1,0,0,1,-74,-13)"/>
<path style=" stroke:none;fill-rule:evenodd;fill:rgb(0%,0%,0%);fill-opacity:1;" d="M 84.925781 294.898438 L 85.523438 294.847656 C 85.566406 295.140625 85.671875 295.359375 85.832031 295.503906 C 85.992188 295.652344 86.1875 295.726562 86.417969 295.726562 C 86.691406 295.726562 86.921875 295.621094 87.113281 295.414062 C 87.300781 295.207031 87.398438 294.933594 87.398438 294.589844 C 87.398438 294.265625 87.304688 294.007812 87.125 293.820312 C 86.941406 293.632812 86.703125 293.539062 86.40625 293.539062 C 86.222656 293.539062 86.058594 293.578125 85.910156 293.664062 C 85.761719 293.746094 85.644531 293.855469 85.5625 293.988281 L 85.027344 293.917969 L 85.476562 291.527344 L 87.785156 291.527344 L 87.785156 292.074219 L 85.929688 292.074219 L 85.683594 293.324219 C 85.960938 293.132812 86.253906 293.035156 86.558594 293.035156 C 86.964844 293.035156 87.304688 293.175781 87.582031 293.457031 C 87.863281 293.738281 88 294.097656 88 294.539062 C 88 294.960938 87.878906 295.324219 87.632812 295.628906 C 87.335938 296.007812 86.929688 296.195312 86.417969 296.195312 C 85.996094 296.195312 85.648438 296.074219 85.382812 295.839844 C 85.117188 295.601562 84.964844 295.289062 84.925781 294.898438 Z M 84.925781 294.898438 "/>
</g>
</svg>
