<?xml version="1.0" encoding="UTF-8"?>
<svg  preserveAspectRatio='none' xmlns="http://www.w3.org/2000/svg" xmlns:xlink="http://www.w3.org/1999/xlink" width="260pt" height="259pt" viewBox="0 0 260 259" version="1.1">
<!-- ***Exported Comment***
Created by Mathematica
***Exported Comment*** -->
<g id="surface221">
<path style="fill:none;stroke-width:0.36;stroke-linecap:butt;stroke-linejoin:miter;stroke:rgb(14.99939%,28.999329%,50%);stroke-opacity:0.7;stroke-miterlimit:3.25;" d="M 195.601562 37.285156 L 104.039062 128.847656 " transform="matrix(1,0,0,1,-74,-13)"/>
<path style=" stroke:none;fill-rule:evenodd;fill:rgb(14.99939%,28.999329%,50%);fill-opacity:0.7;" d="M 32.210938 116.894531 L 31.9375 116.800781 L 31.300781 116.558594 L 30.933594 116.398438 L 30.578125 116.222656 L 30.269531 116.035156 L 30.039062 115.847656 L 29.871094 115.640625 L 29.6875 115.332031 L 29.503906 114.96875 L 29.328125 114.582031 L 29.042969 113.90625 L 28.929688 113.613281 L 24.492188 121.394531 Z M 32.210938 116.894531 "/>
<path style="fill:none;stroke-width:0.36;stroke-linecap:butt;stroke-linejoin:miter;stroke:rgb(14.99939%,28.999329%,50%);stroke-opacity:0.7;stroke-miterlimit:3.25;" d="M 214.910156 29.289062 L 297.550781 29.289062 " transform="matrix(1,0,0,1,-74,-13)"/>
<path style=" stroke:none;fill-rule:evenodd;fill:rgb(14.99939%,28.999329%,50%);fill-opacity:0.7;" d="M 222.753906 14.011719 L 222.882812 14.273438 L 223.160156 14.890625 L 223.304688 15.265625 L 223.433594 15.640625 L 223.523438 15.992188 L 223.550781 16.289062 L 223.523438 16.554688 L 223.433594 16.898438 L 223.304688 17.289062 L 223.160156 17.6875 L 222.882812 18.363281 L 222.753906 18.652344 L 231.394531 16.289062 Z M 222.753906 14.011719 "/>
<path style="fill:none;stroke-width:0.36;stroke-linecap:butt;stroke-linejoin:miter;stroke:rgb(14.99939%,28.999329%,50%);stroke-opacity:0.7;stroke-miterlimit:3.25;" d="M 211.597656 37.285156 L 303.164062 128.847656 " transform="matrix(1,0,0,1,-74,-13)"/>
<path style=" stroke:none;fill-rule:evenodd;fill:rgb(14.99939%,28.999329%,50%);fill-opacity:0.7;" d="M 230.207031 113.675781 L 230.113281 113.949219 L 229.871094 114.585938 L 229.710938 114.953125 L 229.535156 115.308594 L 229.347656 115.621094 L 229.164062 115.847656 L 228.953125 116.015625 L 228.644531 116.199219 L 228.28125 116.382812 L 227.894531 116.558594 L 227.21875 116.84375 L 226.925781 116.957031 L 234.707031 121.394531 Z M 230.207031 113.675781 "/>
<path style="fill:none;stroke-width:0.36;stroke-linecap:butt;stroke-linejoin:miter;stroke:rgb(14.99939%,28.999329%,50%);stroke-opacity:0.7;stroke-miterlimit:3.25;" d="M 101.804688 142.394531 L 297.550781 142.394531 " transform="matrix(1,0,0,1,-74,-13)"/>
<path style=" stroke:none;fill-rule:evenodd;fill:rgb(14.99939%,28.999329%,50%);fill-opacity:0.7;" d="M 222.753906 127.117188 L 222.882812 127.378906 L 223.160156 127.996094 L 223.304688 128.371094 L 223.433594 128.746094 L 223.523438 129.097656 L 223.550781 129.394531 L 223.523438 129.660156 L 223.433594 130.003906 L 223.304688 130.394531 L 223.160156 130.792969 L 222.882812 131.46875 L 222.753906 131.757812 L 231.394531 129.394531 Z M 222.753906 127.117188 "/>
<path style="fill:none;stroke-width:0.36;stroke-linecap:butt;stroke-linejoin:miter;stroke:rgb(14.99939%,28.999329%,50%);stroke-opacity:0.7;stroke-miterlimit:3.25;" d="M 316.707031 131.082031 L 316.707031 48.441406 " transform="matrix(1,0,0,1,-74,-13)"/>
<path style=" stroke:none;fill-rule:evenodd;fill:rgb(14.99939%,28.999329%,50%);fill-opacity:0.7;" d="M 240.433594 36.238281 L 240.691406 36.109375 L 241.3125 35.832031 L 241.683594 35.6875 L 242.058594 35.558594 L 242.410156 35.46875 L 242.707031 35.441406 L 242.972656 35.46875 L 243.316406 35.558594 L 243.707031 35.6875 L 244.105469 35.832031 L 244.78125 36.109375 L 245.070312 36.238281 L 242.707031 27.597656 Z M 240.433594 36.238281 "/>
<path style="fill:none;stroke-width:0.36;stroke-linecap:butt;stroke-linejoin:miter;stroke:rgb(14.99939%,28.999329%,50%);stroke-opacity:0.7;stroke-miterlimit:3.25;" d="M 195.601562 247.5 L 104.039062 155.9375 " transform="matrix(1,0,0,1,-74,-13)"/>
<path style=" stroke:none;fill-rule:evenodd;fill:rgb(14.99939%,28.999329%,50%);fill-opacity:0.7;" d="M 28.992188 145.109375 L 29.085938 144.835938 L 29.328125 144.199219 L 29.488281 143.832031 L 29.664062 143.476562 L 29.851562 143.167969 L 30.039062 142.9375 L 30.25 142.769531 L 30.554688 142.585938 L 30.921875 142.402344 L 31.304688 142.226562 L 31.980469 141.941406 L 32.273438 141.828125 L 24.492188 137.390625 Z M 28.992188 145.109375 "/>
<path style="fill:none;stroke-width:0.36;stroke-linecap:butt;stroke-linejoin:miter;stroke:rgb(14.99939%,28.999329%,50%);stroke-opacity:0.7;stroke-miterlimit:3.25;" d="M 211.597656 247.5 L 303.164062 155.9375 " transform="matrix(1,0,0,1,-74,-13)"/>
<path style=" stroke:none;fill-rule:evenodd;fill:rgb(14.99939%,28.999329%,50%);fill-opacity:0.7;" d="M 226.992188 141.890625 L 227.261719 141.984375 L 227.898438 142.226562 L 228.265625 142.386719 L 228.621094 142.5625 L 228.933594 142.75 L 229.164062 142.9375 L 229.328125 143.144531 L 229.511719 143.453125 L 229.695312 143.816406 L 229.871094 144.203125 L 230.15625 144.878906 L 230.269531 145.171875 L 234.707031 137.390625 Z M 226.992188 141.890625 "/>
<path style="fill:none;stroke-width:0.36;stroke-linecap:butt;stroke-linejoin:miter;stroke:rgb(14.99939%,28.999329%,50%);stroke-opacity:0.7;stroke-miterlimit:3.25;" d="M 214.910156 255.5 L 297.550781 255.5 " transform="matrix(1,0,0,1,-74,-13)"/>
<path style=" stroke:none;fill-rule:evenodd;fill:rgb(14.99939%,28.999329%,50%);fill-opacity:0.7;" d="M 222.753906 240.222656 L 222.882812 240.484375 L 223.160156 241.101562 L 223.304688 241.476562 L 223.433594 241.851562 L 223.523438 242.203125 L 223.550781 242.5 L 223.523438 242.765625 L 223.433594 243.109375 L 223.304688 243.5 L 223.160156 243.898438 L 222.882812 244.574219 L 222.753906 244.863281 L 231.394531 242.5 Z M 222.753906 240.222656 "/>
<path style="fill-rule:evenodd;fill:rgb(63.996887%,70.397949%,79.997253%);fill-opacity:1;stroke-width:0.36;stroke-linecap:square;stroke-linejoin:miter;stroke:rgb(0%,0%,0%);stroke-opacity:0.7;stroke-miterlimit:3.25;" d="M 214.910156 29.289062 C 214.910156 26.289062 213.71875 23.410156 211.597656 21.289062 C 209.476562 19.167969 206.601562 17.976562 203.601562 17.976562 C 200.601562 17.976562 197.722656 19.167969 195.601562 21.289062 C 193.480469 23.410156 192.289062 26.289062 192.289062 29.289062 C 192.289062 32.285156 193.480469 35.164062 195.601562 37.285156 C 197.722656 39.40625 200.601562 40.597656 203.601562 40.597656 C 206.601562 40.597656 209.476562 39.40625 211.597656 37.285156 C 213.71875 35.164062 214.910156 32.285156 214.910156 29.289062 Z M 214.910156 29.289062 " transform="matrix(1,0,0,1,-74,-13)"/>
<path style=" stroke:none;fill-rule:evenodd;fill:rgb(0%,0%,0%);fill-opacity:1;" d="M 130.179688 18.535156 L 129.613281 18.535156 L 129.613281 14.90625 C 129.476562 15.035156 129.296875 15.164062 129.074219 15.296875 C 128.851562 15.425781 128.648438 15.527344 128.472656 15.589844 L 128.472656 15.039062 C 128.792969 14.890625 129.070312 14.710938 129.308594 14.496094 C 129.546875 14.285156 129.714844 14.078125 129.816406 13.875 L 130.179688 13.875 Z M 130.179688 18.535156 "/>
<path style="fill-rule:evenodd;fill:rgb(63.996887%,70.397949%,79.997253%);fill-opacity:1;stroke-width:0.36;stroke-linecap:square;stroke-linejoin:miter;stroke:rgb(0%,0%,0%);stroke-opacity:0.7;stroke-miterlimit:3.25;" d="M 101.804688 142.394531 C 101.804688 139.394531 100.613281 136.515625 98.492188 134.394531 C 96.371094 132.273438 93.496094 131.082031 90.496094 131.082031 C 87.496094 131.082031 84.617188 132.273438 82.496094 134.394531 C 80.375 136.515625 79.183594 139.394531 79.183594 142.394531 C 79.183594 145.390625 80.375 148.269531 82.496094 150.390625 C 84.617188 152.511719 87.496094 153.703125 90.496094 153.703125 C 93.496094 153.703125 96.371094 152.511719 98.492188 150.390625 C 100.613281 148.269531 101.804688 145.390625 101.804688 142.394531 Z M 101.804688 142.394531 " transform="matrix(1,0,0,1,-74,-13)"/>
<path style=" stroke:none;fill-rule:evenodd;fill:rgb(0%,0%,0%);fill-opacity:1;" d="M 17.957031 131.089844 L 17.957031 131.640625 L 14.886719 131.640625 C 14.886719 131.5 14.910156 131.371094 14.960938 131.242188 C 15.039062 131.035156 15.167969 130.828125 15.34375 130.625 C 15.519531 130.421875 15.765625 130.1875 16.085938 129.921875 C 16.578125 129.507812 16.914062 129.179688 17.089844 128.9375 C 17.261719 128.695312 17.347656 128.464844 17.347656 128.25 C 17.347656 128.023438 17.269531 127.832031 17.109375 127.679688 C 16.953125 127.523438 16.746094 127.445312 16.488281 127.445312 C 16.21875 127.445312 16.003906 127.527344 15.84375 127.691406 C 15.679688 127.855469 15.601562 128.085938 15.601562 128.378906 L 15 128.316406 C 15.039062 127.878906 15.191406 127.546875 15.449219 127.316406 C 15.710938 127.089844 16.058594 126.972656 16.496094 126.972656 C 16.941406 126.972656 17.289062 127.097656 17.546875 127.34375 C 17.804688 127.589844 17.933594 127.898438 17.933594 128.261719 C 17.933594 128.449219 17.898438 128.632812 17.820312 128.8125 C 17.746094 128.992188 17.621094 129.179688 17.445312 129.378906 C 17.269531 129.578125 16.980469 129.851562 16.578125 130.195312 C 16.242188 130.484375 16.027344 130.679688 15.933594 130.78125 C 15.835938 130.886719 15.757812 130.988281 15.695312 131.089844 Z M 17.957031 131.089844 "/>
<path style="fill-rule:evenodd;fill:rgb(63.996887%,70.397949%,79.997253%);fill-opacity:1;stroke-width:0.36;stroke-linecap:square;stroke-linejoin:miter;stroke:rgb(0%,0%,0%);stroke-opacity:0.7;stroke-miterlimit:3.25;" d="M 328.015625 29.289062 C 328.015625 26.289062 326.824219 23.410156 324.703125 21.289062 C 322.582031 19.167969 319.707031 17.976562 316.707031 17.976562 C 313.707031 17.976562 310.828125 19.167969 308.707031 21.289062 C 306.585938 23.410156 305.394531 26.289062 305.394531 29.289062 C 305.394531 32.285156 306.585938 35.164062 308.707031 37.285156 C 310.828125 39.40625 313.707031 40.597656 316.707031 40.597656 C 319.707031 40.597656 322.582031 39.40625 324.703125 37.285156 C 326.824219 35.164062 328.015625 32.285156 328.015625 29.289062 Z M 328.015625 29.289062 " transform="matrix(1,0,0,1,-74,-13)"/>
<path style=" stroke:none;fill-rule:evenodd;fill:rgb(0%,0%,0%);fill-opacity:1;" d="M 241.207031 17.296875 L 241.777344 17.21875 C 241.839844 17.542969 241.953125 17.773438 242.109375 17.914062 C 242.261719 18.054688 242.453125 18.128906 242.675781 18.128906 C 242.941406 18.128906 243.167969 18.035156 243.351562 17.851562 C 243.535156 17.664062 243.625 17.4375 243.625 17.164062 C 243.625 16.902344 243.539062 16.6875 243.371094 16.519531 C 243.203125 16.351562 242.988281 16.265625 242.730469 16.265625 C 242.625 16.265625 242.488281 16.285156 242.328125 16.328125 L 242.394531 15.828125 C 242.429688 15.832031 242.460938 15.835938 242.484375 15.835938 C 242.726562 15.835938 242.945312 15.769531 243.140625 15.644531 C 243.332031 15.515625 243.429688 15.320312 243.429688 15.050781 C 243.429688 14.84375 243.359375 14.667969 243.21875 14.53125 C 243.078125 14.390625 242.894531 14.320312 242.671875 14.320312 C 242.449219 14.320312 242.265625 14.390625 242.117188 14.53125 C 241.96875 14.671875 241.875 14.882812 241.832031 15.164062 L 241.261719 15.0625 C 241.332031 14.679688 241.492188 14.382812 241.738281 14.171875 C 241.984375 13.960938 242.292969 13.855469 242.660156 13.855469 C 242.910156 13.855469 243.144531 13.910156 243.355469 14.019531 C 243.570312 14.128906 243.734375 14.277344 243.847656 14.464844 C 243.960938 14.65625 244.015625 14.855469 244.015625 15.066406 C 244.015625 15.269531 243.960938 15.453125 243.847656 15.617188 C 243.738281 15.785156 243.578125 15.914062 243.378906 16.011719 C 243.644531 16.074219 243.855469 16.207031 244.003906 16.40625 C 244.152344 16.605469 244.230469 16.851562 244.230469 17.152344 C 244.230469 17.554688 244.082031 17.898438 243.789062 18.179688 C 243.496094 18.457031 243.121094 18.597656 242.671875 18.597656 C 242.269531 18.597656 241.933594 18.476562 241.664062 18.234375 C 241.398438 17.992188 241.246094 17.679688 241.207031 17.296875 Z M 241.207031 17.296875 "/>
<path style="fill-rule:evenodd;fill:rgb(63.996887%,70.397949%,79.997253%);fill-opacity:1;stroke-width:0.36;stroke-linecap:square;stroke-linejoin:miter;stroke:rgb(0%,0%,0%);stroke-opacity:0.7;stroke-miterlimit:3.25;" d="M 328.015625 142.394531 C 328.015625 139.394531 326.824219 136.515625 324.703125 134.394531 C 322.582031 132.273438 319.707031 131.082031 316.707031 131.082031 C 313.707031 131.082031 310.828125 132.273438 308.707031 134.394531 C 306.585938 136.515625 305.394531 139.394531 305.394531 142.394531 C 305.394531 145.390625 306.585938 148.269531 308.707031 150.390625 C 310.828125 152.511719 313.707031 153.703125 316.707031 153.703125 C 319.707031 153.703125 322.582031 152.511719 324.703125 150.390625 C 326.824219 148.269531 328.015625 145.390625 328.015625 142.394531 Z M 328.015625 142.394531 " transform="matrix(1,0,0,1,-74,-13)"/>
<path style=" stroke:none;fill-rule:evenodd;fill:rgb(0%,0%,0%);fill-opacity:1;" d="M 242.976562 131.640625 L 242.976562 130.539062 L 240.96875 130.539062 L 240.96875 130.015625 L 243.082031 127 L 243.546875 127 L 243.546875 130.015625 L 244.175781 130.015625 L 244.175781 130.539062 L 243.546875 130.539062 L 243.546875 131.640625 Z M 242.976562 130.015625 L 242.976562 127.917969 L 241.527344 130.015625 Z M 242.976562 130.015625 "/>
<path style="fill-rule:evenodd;fill:rgb(63.996887%,70.397949%,79.997253%);fill-opacity:1;stroke-width:0.36;stroke-linecap:square;stroke-linejoin:miter;stroke:rgb(0%,0%,0%);stroke-opacity:0.7;stroke-miterlimit:3.25;" d="M 214.910156 255.5 C 214.910156 252.5 213.71875 249.621094 211.597656 247.5 C 209.476562 245.378906 206.601562 244.1875 203.601562 244.1875 C 200.601562 244.1875 197.722656 245.378906 195.601562 247.5 C 193.480469 249.621094 192.289062 252.5 192.289062 255.5 C 192.289062 258.496094 193.480469 261.375 195.601562 263.496094 C 197.722656 265.617188 200.601562 266.808594 203.601562 266.808594 C 206.601562 266.808594 209.476562 265.617188 211.597656 263.496094 C 213.71875 261.375 214.910156 258.496094 214.910156 255.5 Z M 214.910156 255.5 " transform="matrix(1,0,0,1,-74,-13)"/>
<path style=" stroke:none;fill-rule:evenodd;fill:rgb(0%,0%,0%);fill-opacity:1;" d="M 128.050781 243.511719 L 128.648438 243.460938 C 128.691406 243.753906 128.792969 243.972656 128.957031 244.121094 C 129.117188 244.269531 129.3125 244.339844 129.539062 244.339844 C 129.8125 244.339844 130.046875 244.238281 130.234375 244.03125 C 130.425781 243.824219 130.519531 243.546875 130.519531 243.207031 C 130.519531 242.878906 130.429688 242.625 130.246094 242.433594 C 130.0625 242.246094 129.824219 242.152344 129.53125 242.152344 C 129.347656 242.152344 129.179688 242.195312 129.03125 242.277344 C 128.886719 242.363281 128.769531 242.46875 128.683594 242.601562 L 128.152344 242.53125 L 128.597656 240.144531 L 130.910156 240.144531 L 130.910156 240.6875 L 129.054688 240.6875 L 128.804688 241.941406 C 129.082031 241.746094 129.375 241.648438 129.679688 241.648438 C 130.085938 241.648438 130.429688 241.789062 130.707031 242.070312 C 130.984375 242.351562 131.125 242.714844 131.125 243.15625 C 131.125 243.574219 131 243.9375 130.757812 244.246094 C 130.460938 244.621094 130.054688 244.808594 129.539062 244.808594 C 129.117188 244.808594 128.773438 244.691406 128.507812 244.453125 C 128.238281 244.21875 128.085938 243.902344 128.050781 243.511719 Z M 128.050781 243.511719 "/>
<path style="fill-rule:evenodd;fill:rgb(63.996887%,70.397949%,79.997253%);fill-opacity:1;stroke-width:0.36;stroke-linecap:square;stroke-linejoin:miter;stroke:rgb(0%,0%,0%);stroke-opacity:0.7;stroke-miterlimit:3.25;" d="M 328.015625 255.5 C 328.015625 252.5 326.824219 249.621094 324.703125 247.5 C 322.582031 245.378906 319.707031 244.1875 316.707031 244.1875 C 313.707031 244.1875 310.828125 245.378906 308.707031 247.5 C 306.585938 249.621094 305.394531 252.5 305.394531 255.5 C 305.394531 258.496094 306.585938 261.375 308.707031 263.496094 C 310.828125 265.617188 313.707031 266.808594 316.707031 266.808594 C 319.707031 266.808594 322.582031 265.617188 324.703125 263.496094 C 326.824219 261.375 328.015625 258.496094 328.015625 255.5 Z M 328.015625 255.5 " transform="matrix(1,0,0,1,-74,-13)"/>
<path style=" stroke:none;fill-rule:evenodd;fill:rgb(0%,0%,0%);fill-opacity:1;" d="M 244.125 241.246094 L 243.558594 241.246094 C 243.511719 241.039062 243.441406 240.886719 243.347656 240.785156 C 243.195312 240.625 243.003906 240.546875 242.78125 240.546875 C 242.601562 240.546875 242.441406 240.597656 242.308594 240.699219 C 242.128906 240.828125 241.988281 241.019531 241.886719 241.265625 C 241.78125 241.515625 241.730469 241.871094 241.730469 242.332031 C 241.867188 242.121094 242.03125 241.96875 242.230469 241.867188 C 242.425781 241.765625 242.632812 241.714844 242.847656 241.714844 C 243.226562 241.714844 243.546875 241.855469 243.808594 242.132812 C 244.074219 242.414062 244.207031 242.777344 244.207031 243.21875 C 244.207031 243.511719 244.144531 243.78125 244.019531 244.035156 C 243.894531 244.285156 243.726562 244.476562 243.507812 244.609375 C 243.289062 244.742188 243.039062 244.808594 242.761719 244.808594 C 242.292969 244.808594 241.90625 244.636719 241.609375 244.285156 C 241.3125 243.9375 241.164062 243.363281 241.164062 242.5625 C 241.164062 241.667969 241.328125 241.015625 241.65625 240.609375 C 241.945312 240.253906 242.332031 240.078125 242.816406 240.078125 C 243.179688 240.078125 243.476562 240.183594 243.710938 240.390625 C 243.941406 240.59375 244.082031 240.878906 244.125 241.246094 Z M 241.816406 243.222656 C 241.816406 243.421875 241.859375 243.609375 241.941406 243.789062 C 242.023438 243.96875 242.140625 244.105469 242.285156 244.199219 C 242.433594 244.292969 242.589844 244.339844 242.753906 244.339844 C 242.992188 244.339844 243.199219 244.242188 243.367188 244.050781 C 243.539062 243.855469 243.625 243.589844 243.625 243.253906 C 243.625 242.933594 243.542969 242.679688 243.371094 242.496094 C 243.203125 242.308594 242.988281 242.21875 242.730469 242.21875 C 242.476562 242.21875 242.261719 242.308594 242.085938 242.496094 C 241.90625 242.679688 241.816406 242.921875 241.816406 243.222656 Z M 241.816406 243.222656 "/>
</g>
</svg>
