<?xml version="1.0" encoding="UTF-8"?>
<svg  preserveAspectRatio='none' xmlns="http://www.w3.org/2000/svg" xmlns:xlink="http://www.w3.org/1999/xlink" width="130pt" height="130pt" viewBox="0 0 130 130" version="1.1">
<!-- ***Exported Comment***
Created by Mathematica
***Exported Comment*** -->
<g id="surface140">
<path style="fill:none;stroke-width:0.36;stroke-linecap:square;stroke-linejoin:miter;stroke:rgb(14.99939%,28.999329%,50%);stroke-opacity:0.7;stroke-miterlimit:3.25;" d="M 86.960938 25.855469 L 86.960938 129.535156 " transform="matrix(1,0,0,1,-74,-13)"/>
<path style="fill:none;stroke-width:0.36;stroke-linecap:square;stroke-linejoin:miter;stroke:rgb(14.99939%,28.999329%,50%);stroke-opacity:0.7;stroke-miterlimit:3.25;" d="M 190.640625 25.855469 L 190.640625 129.535156 " transform="matrix(1,0,0,1,-74,-13)"/>
<path style="fill-rule:evenodd;fill:rgb(63.996887%,70.397949%,79.997253%);fill-opacity:1;stroke-width:0.36;stroke-linecap:square;stroke-linejoin:miter;stroke:rgb(0%,0%,0%);stroke-opacity:0.7;stroke-miterlimit:3.25;" d="M 97.328125 25.855469 C 97.328125 23.105469 96.234375 20.46875 94.292969 18.523438 C 92.347656 16.582031 89.710938 15.488281 86.960938 15.488281 C 84.210938 15.488281 81.574219 16.582031 79.628906 18.523438 C 77.683594 20.46875 76.59375 23.105469 76.59375 25.855469 C 76.59375 28.605469 77.683594 31.242188 79.628906 33.1875 C 81.574219 35.132812 84.210938 36.222656 86.960938 36.222656 C 89.710938 36.222656 92.347656 35.132812 94.292969 33.1875 C 96.234375 31.242188 97.328125 28.605469 97.328125 25.855469 Z M 97.328125 25.855469 " transform="matrix(1,0,0,1,-74,-13)"/>
<path style=" stroke:none;fill-rule:evenodd;fill:rgb(0%,0%,0%);fill-opacity:1;" d="M 11.382812 10.871094 L 11.382812 10.300781 C 11.929688 10.25 12.3125 10.164062 12.53125 10.039062 C 12.746094 9.917969 12.910156 9.628906 13.015625 9.175781 L 13.613281 9.175781 L 13.613281 15.1875 L 12.804688 15.1875 L 12.804688 10.871094 Z M 11.382812 10.871094 "/>
<path style="fill-rule:evenodd;fill:rgb(63.996887%,70.397949%,79.997253%);fill-opacity:1;stroke-width:0.36;stroke-linecap:square;stroke-linejoin:miter;stroke:rgb(0%,0%,0%);stroke-opacity:0.7;stroke-miterlimit:3.25;" d="M 97.328125 129.535156 C 97.328125 126.785156 96.234375 124.148438 94.292969 122.203125 C 92.347656 120.261719 89.710938 119.167969 86.960938 119.167969 C 84.210938 119.167969 81.574219 120.261719 79.628906 122.203125 C 77.683594 124.148438 76.59375 126.785156 76.59375 129.535156 C 76.59375 132.285156 77.683594 134.921875 79.628906 136.867188 C 81.574219 138.8125 84.210938 139.90625 86.960938 139.90625 C 89.710938 139.90625 92.347656 138.8125 94.292969 136.867188 C 96.234375 134.921875 97.328125 132.285156 97.328125 129.535156 Z M 97.328125 129.535156 " transform="matrix(1,0,0,1,-74,-13)"/>
<path style=" stroke:none;fill-rule:evenodd;fill:rgb(0%,0%,0%);fill-opacity:1;" d="M 10.816406 118.871094 C 10.816406 118.351562 10.914062 117.898438 11.109375 117.515625 C 11.304688 117.128906 11.683594 116.78125 12.246094 116.464844 L 13.039062 116 C 13.394531 115.789062 13.640625 115.609375 13.785156 115.460938 C 14.011719 115.226562 14.125 114.960938 14.125 114.660156 C 14.125 114.308594 14.019531 114.03125 13.8125 113.824219 C 13.605469 113.617188 13.328125 113.511719 12.984375 113.511719 C 12.472656 113.511719 12.117188 113.710938 11.921875 114.101562 C 11.820312 114.3125 11.765625 114.605469 11.765625 114.980469 L 10.988281 114.980469 C 10.988281 114.457031 11.082031 114.027344 11.265625 113.695312 C 11.589844 113.109375 12.164062 112.816406 12.988281 112.816406 C 13.671875 112.816406 14.171875 113.003906 14.488281 113.378906 C 14.804688 113.75 14.964844 114.167969 14.964844 114.625 C 14.964844 115.105469 14.792969 115.519531 14.453125 115.863281 C 14.257812 116.0625 13.910156 116.304688 13.410156 116.589844 L 12.84375 116.90625 C 12.574219 117.058594 12.363281 117.203125 12.207031 117.339844 C 11.929688 117.585938 11.757812 117.855469 11.6875 118.152344 L 14.941406 118.152344 L 14.941406 118.871094 Z M 10.816406 118.871094 "/>
<path style="fill-rule:evenodd;fill:rgb(63.996887%,70.397949%,79.997253%);fill-opacity:1;stroke-width:0.36;stroke-linecap:square;stroke-linejoin:miter;stroke:rgb(0%,0%,0%);stroke-opacity:0.7;stroke-miterlimit:3.25;" d="M 201.007812 25.855469 C 201.007812 23.105469 199.914062 20.46875 197.972656 18.523438 C 196.027344 16.582031 193.390625 15.488281 190.640625 15.488281 C 187.890625 15.488281 185.253906 16.582031 183.308594 18.523438 C 181.363281 20.46875 180.273438 23.105469 180.273438 25.855469 C 180.273438 28.605469 181.363281 31.242188 183.308594 33.1875 C 185.253906 35.132812 187.890625 36.222656 190.640625 36.222656 C 193.390625 36.222656 196.027344 35.132812 197.972656 33.1875 C 199.914062 31.242188 201.007812 28.605469 201.007812 25.855469 Z M 201.007812 25.855469 " transform="matrix(1,0,0,1,-74,-13)"/>
<path style=" stroke:none;fill-rule:evenodd;fill:rgb(0%,0%,0%);fill-opacity:1;" d="M 117.089844 13.058594 L 117.089844 10.316406 L 115.152344 13.058594 Z M 117.105469 15.1875 L 117.105469 13.71875 L 114.453125 13.71875 L 114.453125 12.976562 L 117.222656 9.128906 L 117.859375 9.128906 L 117.859375 13.058594 L 118.730469 13.058594 L 118.730469 13.71875 L 117.867188 13.71875 L 117.867188 15.1875 Z M 117.105469 15.1875 "/>
<path style="fill-rule:evenodd;fill:rgb(63.996887%,70.397949%,79.997253%);fill-opacity:1;stroke-width:0.36;stroke-linecap:square;stroke-linejoin:miter;stroke:rgb(0%,0%,0%);stroke-opacity:0.7;stroke-miterlimit:3.25;" d="M 201.007812 129.535156 C 201.007812 126.785156 199.914062 124.148438 197.972656 122.203125 C 196.027344 120.261719 193.390625 119.167969 190.640625 119.167969 C 187.890625 119.167969 185.253906 120.261719 183.308594 122.203125 C 181.363281 124.148438 180.273438 126.785156 180.273438 129.535156 C 180.273438 132.285156 181.363281 134.921875 183.308594 136.867188 C 185.253906 138.8125 187.890625 139.90625 190.640625 139.90625 C 193.390625 139.90625 196.027344 138.8125 197.972656 136.867188 C 199.914062 134.921875 201.007812 132.285156 201.007812 129.535156 Z M 201.007812 129.535156 " transform="matrix(1,0,0,1,-74,-13)"/>
<path style=" stroke:none;fill-rule:evenodd;fill:rgb(0%,0%,0%);fill-opacity:1;" d="M 115.3125 117.3125 C 115.363281 117.761719 115.566406 118.074219 115.917969 118.246094 C 116.097656 118.332031 116.304688 118.375 116.542969 118.375 C 116.992188 118.375 117.324219 118.230469 117.539062 117.945312 C 117.757812 117.65625 117.867188 117.339844 117.867188 116.988281 C 117.867188 116.566406 117.738281 116.242188 117.480469 116.011719 C 117.222656 115.78125 116.914062 115.664062 116.554688 115.664062 C 116.292969 115.664062 116.070312 115.714844 115.882812 115.816406 C 115.695312 115.917969 115.535156 116.054688 115.402344 116.226562 L 114.746094 116.226562 L 115.203125 112.949219 L 118.382812 112.949219 L 118.382812 113.683594 L 115.773438 113.683594 L 115.515625 115.359375 C 115.65625 115.253906 115.792969 115.171875 115.917969 115.121094 C 116.144531 115.027344 116.402344 114.980469 116.699219 114.980469 C 117.253906 114.980469 117.722656 115.160156 118.105469 115.515625 C 118.492188 115.875 118.6875 116.328125 118.6875 116.875 C 118.6875 117.449219 118.507812 117.953125 118.152344 118.390625 C 117.796875 118.824219 117.226562 119.042969 116.449219 119.042969 C 115.953125 119.042969 115.511719 118.902344 115.132812 118.617188 C 114.75 118.335938 114.558594 117.898438 114.558594 117.3125 Z M 115.3125 117.3125 "/>
</g>
</svg>
