<?xml version="1.0" encoding="UTF-8"?>
<svg  preserveAspectRatio='none' xmlns="http://www.w3.org/2000/svg" xmlns:xlink="http://www.w3.org/1999/xlink" width="217pt" height="312pt" viewBox="0 0 217 312" version="1.1">
<!-- ***Exported Comment***
Created by Mathematica
***Exported Comment*** -->
<g id="surface194">
<path style="fill:none;stroke-width:0.36;stroke-linecap:butt;stroke-linejoin:miter;stroke:rgb(14.99939%,28.999329%,50%);stroke-opacity:0.7;stroke-miterlimit:3.25;" d="M 175.703125 33.3125 L 100.03125 108.984375 " transform="matrix(1,0,0,1,-74,-13)"/>
<path style=" stroke:none;fill-rule:evenodd;fill:rgb(14.99939%,28.999329%,50%);fill-opacity:0.7;" d="M 28.203125 97.03125 L 27.929688 96.9375 L 27.292969 96.695312 L 26.925781 96.535156 L 26.570312 96.359375 L 26.261719 96.171875 L 26.03125 95.984375 L 25.863281 95.777344 L 25.679688 95.46875 L 25.496094 95.105469 L 25.320312 94.71875 L 25.035156 94.042969 L 24.921875 93.75 L 20.484375 101.53125 Z M 28.203125 97.03125 "/>
<path style="fill:none;stroke-width:0.36;stroke-linecap:butt;stroke-linejoin:miter;stroke:rgb(14.99939%,28.999329%,50%);stroke-opacity:0.7;stroke-miterlimit:3.25;" d="M 189.082031 33.3125 L 264.757812 108.984375 " transform="matrix(1,0,0,1,-74,-13)"/>
<path style=" stroke:none;fill-rule:evenodd;fill:rgb(14.99939%,28.999329%,50%);fill-opacity:0.7;" d="M 191.800781 93.8125 L 191.707031 94.085938 L 191.464844 94.722656 L 191.304688 95.089844 L 191.128906 95.445312 L 190.945312 95.757812 L 190.757812 95.984375 L 190.546875 96.152344 L 190.242188 96.335938 L 189.875 96.519531 L 189.492188 96.695312 L 188.816406 96.980469 L 188.523438 97.09375 L 196.304688 101.53125 Z M 191.800781 93.8125 "/>
<path style="fill:none;stroke-width:0.36;stroke-linecap:butt;stroke-linejoin:miter;stroke:rgb(14.99939%,28.999329%,50%);stroke-opacity:0.7;stroke-miterlimit:3.25;" d="M 182.394531 36.082031 L 182.394531 245.816406 " transform="matrix(1,0,0,1,-74,-13)"/>
<path style=" stroke:none;fill-rule:evenodd;fill:rgb(14.99939%,28.999329%,50%);fill-opacity:0.7;" d="M 110.667969 232.019531 L 110.410156 232.144531 L 109.789062 232.421875 L 109.414062 232.570312 L 109.039062 232.695312 L 108.6875 232.785156 L 108.394531 232.816406 L 108.128906 232.785156 L 107.78125 232.695312 L 107.394531 232.570312 L 106.996094 232.421875 L 106.316406 232.144531 L 106.03125 232.019531 L 108.394531 240.660156 Z M 110.667969 232.019531 "/>
<path style="fill:none;stroke-width:0.36;stroke-linecap:butt;stroke-linejoin:miter;stroke:rgb(14.99939%,28.999329%,50%);stroke-opacity:0.7;stroke-miterlimit:3.25;" d="M 87.796875 130.679688 L 87.796875 198.515625 " transform="matrix(1,0,0,1,-74,-13)"/>
<path style=" stroke:none;fill-rule:evenodd;fill:rgb(14.99939%,28.999329%,50%);fill-opacity:0.7;" d="M 16.070312 184.71875 L 15.8125 184.847656 L 15.191406 185.125 L 14.816406 185.269531 L 14.441406 185.398438 L 14.089844 185.488281 L 13.796875 185.515625 L 13.527344 185.488281 L 13.183594 185.398438 L 12.792969 185.269531 L 12.398438 185.125 L 11.71875 184.847656 L 11.429688 184.71875 L 13.796875 193.359375 Z M 16.070312 184.71875 "/>
<path style="fill:none;stroke-width:0.36;stroke-linecap:butt;stroke-linejoin:miter;stroke:rgb(14.99939%,28.999329%,50%);stroke-opacity:0.7;stroke-miterlimit:3.25;" d="M 276.992188 130.679688 L 276.992188 198.515625 " transform="matrix(1,0,0,1,-74,-13)"/>
<path style=" stroke:none;fill-rule:evenodd;fill:rgb(14.99939%,28.999329%,50%);fill-opacity:0.7;" d="M 205.265625 184.71875 L 205.007812 184.847656 L 204.386719 185.125 L 204.015625 185.269531 L 203.636719 185.398438 L 203.289062 185.488281 L 202.992188 185.515625 L 202.726562 185.488281 L 202.378906 185.398438 L 201.992188 185.269531 L 201.59375 185.125 L 200.917969 184.847656 L 200.628906 184.71875 L 202.992188 193.359375 Z M 205.265625 184.71875 "/>
<path style="fill:none;stroke-width:0.36;stroke-linecap:butt;stroke-linejoin:miter;stroke:rgb(14.99939%,28.999329%,50%);stroke-opacity:0.7;stroke-miterlimit:3.25;" d="M 96.257812 220.050781 L 166.917969 255.378906 " transform="matrix(1,0,0,1,-74,-13)"/>
<path style=" stroke:none;fill-rule:evenodd;fill:rgb(14.99939%,28.999329%,50%);fill-opacity:0.7;" d="M 93.222656 239.992188 L 93.21875 240.277344 L 93.191406 240.957031 L 93.15625 241.355469 L 93.101562 241.75 L 93.023438 242.101562 L 92.917969 242.378906 L 92.773438 242.605469 L 92.539062 242.875 L 92.25 243.167969 L 91.941406 243.457031 L 91.390625 243.9375 L 91.148438 244.140625 L 99.933594 245.886719 Z M 93.222656 239.992188 "/>
<path style="fill:none;stroke-width:0.36;stroke-linecap:butt;stroke-linejoin:miter;stroke:rgb(14.99939%,28.999329%,50%);stroke-opacity:0.7;stroke-miterlimit:3.25;" d="M 87.796875 225.277344 L 87.796875 293.117188 " transform="matrix(1,0,0,1,-74,-13)"/>
<path style=" stroke:none;fill-rule:evenodd;fill:rgb(14.99939%,28.999329%,50%);fill-opacity:0.7;" d="M 16.070312 279.316406 L 15.8125 279.445312 L 15.191406 279.722656 L 14.816406 279.867188 L 14.441406 279.996094 L 14.089844 280.085938 L 13.796875 280.117188 L 13.527344 280.085938 L 13.183594 279.996094 L 12.792969 279.867188 L 12.398438 279.722656 L 11.71875 279.445312 L 11.429688 279.316406 L 13.796875 287.957031 Z M 16.070312 279.316406 "/>
<path style="fill:none;stroke-width:0.36;stroke-linecap:butt;stroke-linejoin:miter;stroke:rgb(14.99939%,28.999329%,50%);stroke-opacity:0.7;stroke-miterlimit:3.25;" d="M 268.53125 220.050781 L 197.871094 255.378906 " transform="matrix(1,0,0,1,-74,-13)"/>
<path style=" stroke:none;fill-rule:evenodd;fill:rgb(14.99939%,28.999329%,50%);fill-opacity:0.7;" d="M 125.601562 244.058594 L 125.371094 243.882812 L 124.84375 243.453125 L 124.546875 243.183594 L 124.265625 242.90625 L 124.027344 242.632812 L 123.871094 242.378906 L 123.777344 242.128906 L 123.703125 241.78125 L 123.640625 241.375 L 123.597656 240.953125 L 123.542969 240.222656 L 123.527344 239.910156 L 116.855469 245.886719 Z M 125.601562 244.058594 "/>
<path style="fill:none;stroke-width:0.36;stroke-linecap:butt;stroke-linejoin:miter;stroke:rgb(14.99939%,28.999329%,50%);stroke-opacity:0.7;stroke-miterlimit:3.25;" d="M 276.992188 225.277344 L 276.992188 293.117188 " transform="matrix(1,0,0,1,-74,-13)"/>
<path style=" stroke:none;fill-rule:evenodd;fill:rgb(14.99939%,28.999329%,50%);fill-opacity:0.7;" d="M 205.265625 279.316406 L 205.007812 279.445312 L 204.386719 279.722656 L 204.015625 279.867188 L 203.636719 279.996094 L 203.289062 280.085938 L 202.992188 280.117188 L 202.726562 280.085938 L 202.378906 279.996094 L 201.992188 279.867188 L 201.59375 279.722656 L 200.917969 279.445312 L 200.628906 279.316406 L 202.992188 287.957031 Z M 205.265625 279.316406 "/>
<path style="fill:none;stroke-width:0.36;stroke-linecap:butt;stroke-linejoin:miter;stroke:rgb(14.99939%,28.999329%,50%);stroke-opacity:0.7;stroke-miterlimit:3.25;" d="M 96.257812 306.1875 L 166.917969 270.855469 " transform="matrix(1,0,0,1,-74,-13)"/>
<path style=" stroke:none;fill-rule:evenodd;fill:rgb(14.99939%,28.999329%,50%);fill-opacity:0.7;" d="M 91.1875 256.179688 L 91.417969 256.355469 L 91.941406 256.785156 L 92.242188 257.054688 L 92.523438 257.332031 L 92.757812 257.605469 L 92.917969 257.855469 L 93.011719 258.109375 L 93.085938 258.457031 L 93.144531 258.863281 L 93.191406 259.285156 L 93.246094 260.011719 L 93.261719 260.328125 L 99.933594 254.347656 Z M 91.1875 256.179688 "/>
<path style="fill:none;stroke-width:0.36;stroke-linecap:butt;stroke-linejoin:miter;stroke:rgb(14.99939%,28.999329%,50%);stroke-opacity:0.7;stroke-miterlimit:3.25;" d="M 268.53125 306.1875 L 197.871094 270.855469 " transform="matrix(1,0,0,1,-74,-13)"/>
<path style=" stroke:none;fill-rule:evenodd;fill:rgb(14.99939%,28.999329%,50%);fill-opacity:0.7;" d="M 123.566406 260.246094 L 123.570312 259.957031 L 123.597656 259.28125 L 123.632812 258.878906 L 123.6875 258.488281 L 123.765625 258.132812 L 123.871094 257.855469 L 124.015625 257.632812 L 124.25 257.363281 L 124.539062 257.070312 L 124.847656 256.78125 L 125.398438 256.300781 L 125.640625 256.097656 L 116.855469 254.347656 Z M 123.566406 260.246094 "/>
<path style="fill-rule:evenodd;fill:rgb(63.996887%,70.397949%,79.997253%);fill-opacity:1;stroke-width:0.36;stroke-linecap:square;stroke-linejoin:miter;stroke:rgb(0%,0%,0%);stroke-opacity:0.7;stroke-miterlimit:3.25;" d="M 191.855469 26.621094 C 191.855469 24.113281 190.855469 21.707031 189.082031 19.933594 C 187.308594 18.160156 184.902344 17.164062 182.394531 17.164062 C 179.886719 17.164062 177.480469 18.160156 175.703125 19.933594 C 173.929688 21.707031 172.933594 24.113281 172.933594 26.621094 C 172.933594 29.132812 173.929688 31.539062 175.703125 33.3125 C 177.480469 35.085938 179.886719 36.082031 182.394531 36.082031 C 184.902344 36.082031 187.308594 35.085938 189.082031 33.3125 C 190.855469 31.539062 191.855469 29.132812 191.855469 26.621094 Z M 191.855469 26.621094 " transform="matrix(1,0,0,1,-74,-13)"/>
<path style=" stroke:none;fill-rule:evenodd;fill:rgb(0%,0%,0%);fill-opacity:1;" d="M 108.976562 15.867188 L 108.40625 15.867188 L 108.40625 12.238281 C 108.269531 12.371094 108.089844 12.5 107.867188 12.632812 C 107.644531 12.761719 107.445312 12.859375 107.269531 12.925781 L 107.269531 12.375 C 107.585938 12.226562 107.863281 12.042969 108.101562 11.832031 C 108.339844 11.617188 108.511719 11.410156 108.609375 11.210938 L 108.976562 11.210938 Z M 108.976562 15.867188 "/>
<path style="fill-rule:evenodd;fill:rgb(63.996887%,70.397949%,79.997253%);fill-opacity:1;stroke-width:0.36;stroke-linecap:square;stroke-linejoin:miter;stroke:rgb(0%,0%,0%);stroke-opacity:0.7;stroke-miterlimit:3.25;" d="M 97.253906 121.222656 C 97.253906 118.710938 96.257812 116.304688 94.484375 114.53125 C 92.710938 112.757812 90.304688 111.761719 87.796875 111.761719 C 85.285156 111.761719 82.878906 112.757812 81.105469 114.53125 C 79.332031 116.304688 78.335938 118.710938 78.335938 121.222656 C 78.335938 123.730469 79.332031 126.136719 81.105469 127.910156 C 82.878906 129.683594 85.285156 130.679688 87.796875 130.679688 C 90.304688 130.679688 92.710938 129.683594 94.484375 127.910156 C 96.257812 126.136719 97.253906 123.730469 97.253906 121.222656 Z M 97.253906 121.222656 " transform="matrix(1,0,0,1,-74,-13)"/>
<path style=" stroke:none;fill-rule:evenodd;fill:rgb(0%,0%,0%);fill-opacity:1;" d="M 15.257812 109.917969 L 15.257812 110.46875 L 12.1875 110.46875 C 12.1875 110.328125 12.210938 110.199219 12.261719 110.070312 C 12.339844 109.863281 12.46875 109.65625 12.644531 109.453125 C 12.820312 109.25 13.066406 109.015625 13.386719 108.75 C 13.878906 108.335938 14.214844 108.007812 14.390625 107.765625 C 14.5625 107.523438 14.652344 107.292969 14.652344 107.078125 C 14.652344 106.851562 14.570312 106.660156 14.410156 106.507812 C 14.253906 106.351562 14.046875 106.273438 13.789062 106.273438 C 13.523438 106.273438 13.304688 106.355469 13.144531 106.519531 C 12.980469 106.683594 12.902344 106.914062 12.902344 107.207031 L 12.300781 107.144531 C 12.339844 106.707031 12.492188 106.375 12.75 106.144531 C 13.011719 105.917969 13.359375 105.800781 13.800781 105.800781 C 14.242188 105.800781 14.589844 105.925781 14.847656 106.171875 C 15.105469 106.417969 15.234375 106.726562 15.234375 107.089844 C 15.234375 107.277344 15.199219 107.460938 15.121094 107.640625 C 15.046875 107.820312 14.921875 108.007812 14.746094 108.207031 C 14.570312 108.40625 14.28125 108.679688 13.878906 109.023438 C 13.542969 109.3125 13.328125 109.507812 13.234375 109.609375 C 13.140625 109.714844 13.058594 109.816406 12.996094 109.917969 Z M 15.257812 109.917969 "/>
<path style="fill-rule:evenodd;fill:rgb(63.996887%,70.397949%,79.997253%);fill-opacity:1;stroke-width:0.36;stroke-linecap:square;stroke-linejoin:miter;stroke:rgb(0%,0%,0%);stroke-opacity:0.7;stroke-miterlimit:3.25;" d="M 286.453125 121.222656 C 286.453125 118.710938 285.457031 116.304688 283.683594 114.53125 C 281.90625 112.757812 279.5 111.761719 276.992188 111.761719 C 274.484375 111.761719 272.078125 112.757812 270.304688 114.53125 C 268.53125 116.304688 267.53125 118.710938 267.53125 121.222656 C 267.53125 123.730469 268.53125 126.136719 270.304688 127.910156 C 272.078125 129.683594 274.484375 130.679688 276.992188 130.679688 C 279.5 130.679688 281.90625 129.683594 283.683594 127.910156 C 285.457031 126.136719 286.453125 123.730469 286.453125 121.222656 Z M 286.453125 121.222656 " transform="matrix(1,0,0,1,-74,-13)"/>
<path style=" stroke:none;fill-rule:evenodd;fill:rgb(0%,0%,0%);fill-opacity:1;" d="M 201.492188 109.230469 L 202.0625 109.152344 C 202.128906 109.476562 202.238281 109.707031 202.394531 109.847656 C 202.550781 109.988281 202.742188 110.0625 202.964844 110.0625 C 203.230469 110.0625 203.453125 109.96875 203.636719 109.785156 C 203.820312 109.597656 203.914062 109.371094 203.914062 109.097656 C 203.914062 108.835938 203.828125 108.621094 203.660156 108.453125 C 203.492188 108.285156 203.277344 108.199219 203.015625 108.199219 C 202.910156 108.199219 202.777344 108.21875 202.617188 108.261719 L 202.679688 107.761719 C 202.71875 107.765625 202.75 107.769531 202.769531 107.769531 C 203.015625 107.769531 203.234375 107.703125 203.425781 107.578125 C 203.621094 107.449219 203.71875 107.253906 203.71875 106.984375 C 203.71875 106.777344 203.648438 106.601562 203.503906 106.464844 C 203.363281 106.324219 203.183594 106.253906 202.957031 106.253906 C 202.738281 106.253906 202.550781 106.324219 202.40625 106.464844 C 202.257812 106.605469 202.164062 106.816406 202.121094 107.097656 L 201.550781 106.996094 C 201.621094 106.613281 201.777344 106.316406 202.023438 106.105469 C 202.269531 105.894531 202.578125 105.789062 202.945312 105.789062 C 203.199219 105.789062 203.429688 105.84375 203.644531 105.953125 C 203.855469 106.0625 204.019531 106.210938 204.132812 106.398438 C 204.246094 106.589844 204.304688 106.789062 204.304688 107 C 204.304688 107.203125 204.246094 107.386719 204.136719 107.550781 C 204.023438 107.71875 203.867188 107.847656 203.664062 107.945312 C 203.933594 108.007812 204.140625 108.140625 204.289062 108.339844 C 204.441406 108.539062 204.515625 108.785156 204.515625 109.085938 C 204.515625 109.488281 204.371094 109.832031 204.074219 110.113281 C 203.78125 110.390625 203.410156 110.53125 202.960938 110.53125 C 202.554688 110.53125 202.21875 110.410156 201.953125 110.167969 C 201.683594 109.925781 201.53125 109.613281 201.492188 109.230469 Z M 201.492188 109.230469 "/>
<path style="fill-rule:evenodd;fill:rgb(63.996887%,70.397949%,79.997253%);fill-opacity:1;stroke-width:0.36;stroke-linecap:square;stroke-linejoin:miter;stroke:rgb(0%,0%,0%);stroke-opacity:0.7;stroke-miterlimit:3.25;" d="M 191.855469 263.117188 C 191.855469 260.609375 190.855469 258.203125 189.082031 256.429688 C 187.308594 254.65625 184.902344 253.660156 182.394531 253.660156 C 179.886719 253.660156 177.480469 254.65625 175.703125 256.429688 C 173.929688 258.203125 172.933594 260.609375 172.933594 263.117188 C 172.933594 265.628906 173.929688 268.035156 175.703125 269.808594 C 177.480469 271.582031 179.886719 272.578125 182.394531 272.578125 C 184.902344 272.578125 187.308594 271.582031 189.082031 269.808594 C 190.855469 268.035156 191.855469 265.628906 191.855469 263.117188 Z M 191.855469 263.117188 " transform="matrix(1,0,0,1,-74,-13)"/>
<path style=" stroke:none;fill-rule:evenodd;fill:rgb(0%,0%,0%);fill-opacity:1;" d="M 109.816406 248.867188 L 109.25 248.867188 C 109.199219 248.660156 109.128906 248.507812 109.035156 248.40625 C 108.882812 248.246094 108.695312 248.167969 108.46875 248.167969 C 108.289062 248.167969 108.132812 248.21875 107.996094 248.316406 C 107.816406 248.449219 107.675781 248.636719 107.574219 248.886719 C 107.472656 249.136719 107.421875 249.492188 107.421875 249.953125 C 107.554688 249.742188 107.722656 249.585938 107.917969 249.484375 C 108.117188 249.386719 108.320312 249.335938 108.539062 249.335938 C 108.914062 249.335938 109.234375 249.472656 109.5 249.753906 C 109.765625 250.035156 109.898438 250.398438 109.898438 250.839844 C 109.898438 251.132812 109.835938 251.402344 109.710938 251.652344 C 109.585938 251.90625 109.414062 252.097656 109.195312 252.230469 C 108.976562 252.363281 108.730469 252.429688 108.453125 252.429688 C 107.980469 252.429688 107.597656 252.253906 107.296875 251.90625 C 107 251.558594 106.851562 250.984375 106.851562 250.183594 C 106.851562 249.289062 107.015625 248.636719 107.34375 248.230469 C 107.632812 247.875 108.019531 247.699219 108.507812 247.699219 C 108.867188 247.699219 109.167969 247.800781 109.398438 248.007812 C 109.628906 248.214844 109.769531 248.5 109.816406 248.867188 Z M 107.507812 250.84375 C 107.507812 251.039062 107.546875 251.230469 107.628906 251.410156 C 107.710938 251.589844 107.828125 251.726562 107.976562 251.820312 C 108.125 251.914062 108.28125 251.960938 108.441406 251.960938 C 108.679688 251.960938 108.886719 251.863281 109.058594 251.671875 C 109.230469 251.476562 109.316406 251.210938 109.316406 250.875 C 109.316406 250.554688 109.230469 250.300781 109.0625 250.117188 C 108.890625 249.929688 108.679688 249.835938 108.421875 249.835938 C 108.167969 249.835938 107.949219 249.929688 107.773438 250.117188 C 107.59375 250.300781 107.507812 250.542969 107.507812 250.84375 Z M 107.507812 250.84375 "/>
<path style="fill-rule:evenodd;fill:rgb(63.996887%,70.397949%,79.997253%);fill-opacity:1;stroke-width:0.36;stroke-linecap:square;stroke-linejoin:miter;stroke:rgb(0%,0%,0%);stroke-opacity:0.7;stroke-miterlimit:3.25;" d="M 97.253906 215.820312 C 97.253906 213.308594 96.257812 210.902344 94.484375 209.128906 C 92.710938 207.355469 90.304688 206.359375 87.796875 206.359375 C 85.285156 206.359375 82.878906 207.355469 81.105469 209.128906 C 79.332031 210.902344 78.335938 213.308594 78.335938 215.820312 C 78.335938 218.328125 79.332031 220.734375 81.105469 222.507812 C 82.878906 224.28125 85.285156 225.277344 87.796875 225.277344 C 90.304688 225.277344 92.710938 224.28125 94.484375 222.507812 C 96.257812 220.734375 97.253906 218.328125 97.253906 215.820312 Z M 97.253906 215.820312 " transform="matrix(1,0,0,1,-74,-13)"/>
<path style=" stroke:none;fill-rule:evenodd;fill:rgb(0%,0%,0%);fill-opacity:1;" d="M 14.066406 205.066406 L 14.066406 203.964844 L 12.058594 203.964844 L 12.058594 203.441406 L 14.171875 200.425781 L 14.636719 200.425781 L 14.636719 203.441406 L 15.265625 203.441406 L 15.265625 203.964844 L 14.636719 203.964844 L 14.636719 205.066406 Z M 14.066406 203.441406 L 14.066406 201.34375 L 12.617188 203.441406 Z M 14.066406 203.441406 "/>
<path style="fill-rule:evenodd;fill:rgb(63.996887%,70.397949%,79.997253%);fill-opacity:1;stroke-width:0.36;stroke-linecap:square;stroke-linejoin:miter;stroke:rgb(0%,0%,0%);stroke-opacity:0.7;stroke-miterlimit:3.25;" d="M 286.453125 215.820312 C 286.453125 213.308594 285.457031 210.902344 283.683594 209.128906 C 281.90625 207.355469 279.5 206.359375 276.992188 206.359375 C 274.484375 206.359375 272.078125 207.355469 270.304688 209.128906 C 268.53125 210.902344 267.53125 213.308594 267.53125 215.820312 C 267.53125 218.328125 268.53125 220.734375 270.304688 222.507812 C 272.078125 224.28125 274.484375 225.277344 276.992188 225.277344 C 279.5 225.277344 281.90625 224.28125 283.683594 222.507812 C 285.457031 220.734375 286.453125 218.328125 286.453125 215.820312 Z M 286.453125 215.820312 " transform="matrix(1,0,0,1,-74,-13)"/>
<path style=" stroke:none;fill-rule:evenodd;fill:rgb(0%,0%,0%);fill-opacity:1;" d="M 201.441406 203.835938 L 202.039062 203.785156 C 202.082031 204.074219 202.1875 204.292969 202.347656 204.441406 C 202.507812 204.589844 202.703125 204.664062 202.933594 204.664062 C 203.207031 204.664062 203.4375 204.558594 203.628906 204.351562 C 203.816406 204.144531 203.914062 203.871094 203.914062 203.527344 C 203.914062 203.199219 203.820312 202.945312 203.640625 202.757812 C 203.457031 202.566406 203.21875 202.472656 202.921875 202.472656 C 202.738281 202.472656 202.574219 202.515625 202.425781 202.597656 C 202.277344 202.683594 202.164062 202.792969 202.078125 202.925781 L 201.542969 202.855469 L 201.992188 200.464844 L 204.300781 200.464844 L 204.300781 201.007812 L 202.449219 201.007812 L 202.199219 202.261719 C 202.476562 202.066406 202.769531 201.96875 203.074219 201.96875 C 203.480469 201.96875 203.820312 202.109375 204.097656 202.390625 C 204.378906 202.671875 204.515625 203.035156 204.515625 203.476562 C 204.515625 203.894531 204.394531 204.261719 204.148438 204.566406 C 203.851562 204.941406 203.445312 205.128906 202.933594 205.128906 C 202.511719 205.128906 202.164062 205.011719 201.898438 204.777344 C 201.632812 204.539062 201.480469 204.226562 201.441406 203.835938 Z M 201.441406 203.835938 "/>
<path style="fill-rule:evenodd;fill:rgb(63.996887%,70.397949%,79.997253%);fill-opacity:1;stroke-width:0.36;stroke-linecap:square;stroke-linejoin:miter;stroke:rgb(0%,0%,0%);stroke-opacity:0.7;stroke-miterlimit:3.25;" d="M 97.253906 310.417969 C 97.253906 307.910156 96.257812 305.503906 94.484375 303.730469 C 92.710938 301.953125 90.304688 300.957031 87.796875 300.957031 C 85.285156 300.957031 82.878906 301.953125 81.105469 303.730469 C 79.332031 305.503906 78.335938 307.910156 78.335938 310.417969 C 78.335938 312.925781 79.332031 315.332031 81.105469 317.105469 C 82.878906 318.882812 85.285156 319.878906 87.796875 319.878906 C 90.304688 319.878906 92.710938 318.882812 94.484375 317.105469 C 96.257812 315.332031 97.253906 312.925781 97.253906 310.417969 Z M 97.253906 310.417969 " transform="matrix(1,0,0,1,-74,-13)"/>
<path style=" stroke:none;fill-rule:evenodd;fill:rgb(0%,0%,0%);fill-opacity:1;" d="M 12.316406 295.648438 L 12.316406 295.097656 L 15.320312 295.097656 L 15.320312 295.542969 C 15.023438 295.855469 14.726562 296.273438 14.433594 296.792969 C 14.136719 297.316406 13.90625 297.851562 13.746094 298.402344 C 13.628906 298.789062 13.570312 299.214844 13.570312 299.675781 L 12.964844 299.675781 C 12.964844 299.3125 13.035156 298.871094 13.171875 298.355469 C 13.308594 297.835938 13.507812 297.339844 13.765625 296.859375 C 14.023438 296.378906 14.296875 295.976562 14.585938 295.648438 Z M 12.316406 295.648438 "/>
<path style="fill-rule:evenodd;fill:rgb(63.996887%,70.397949%,79.997253%);fill-opacity:1;stroke-width:0.36;stroke-linecap:square;stroke-linejoin:miter;stroke:rgb(0%,0%,0%);stroke-opacity:0.7;stroke-miterlimit:3.25;" d="M 286.453125 310.417969 C 286.453125 307.910156 285.457031 305.503906 283.683594 303.730469 C 281.90625 301.953125 279.5 300.957031 276.992188 300.957031 C 274.484375 300.957031 272.078125 301.953125 270.304688 303.730469 C 268.53125 305.503906 267.53125 307.910156 267.53125 310.417969 C 267.53125 312.925781 268.53125 315.332031 270.304688 317.105469 C 272.078125 318.882812 274.484375 319.878906 276.992188 319.878906 C 279.5 319.878906 281.90625 318.882812 283.683594 317.105469 C 285.457031 315.332031 286.453125 312.925781 286.453125 310.417969 Z M 286.453125 310.417969 " transform="matrix(1,0,0,1,-74,-13)"/>
<path style=" stroke:none;fill-rule:evenodd;fill:rgb(0%,0%,0%);fill-opacity:1;" d="M 202.339844 297.148438 C 202.101562 297.0625 201.925781 296.9375 201.8125 296.777344 C 201.699219 296.617188 201.644531 296.425781 201.644531 296.199219 C 201.644531 295.859375 201.765625 295.574219 202.003906 295.34375 C 202.246094 295.113281 202.566406 295 202.964844 295 C 203.367188 295 203.691406 295.117188 203.9375 295.351562 C 204.179688 295.589844 204.304688 295.875 204.304688 296.214844 C 204.304688 296.433594 204.246094 296.621094 204.136719 296.78125 C 204.023438 296.941406 203.851562 297.0625 203.621094 297.148438 C 203.90625 297.242188 204.125 297.390625 204.273438 297.597656 C 204.421875 297.804688 204.496094 298.046875 204.496094 298.332031 C 204.496094 298.726562 204.355469 299.058594 204.078125 299.328125 C 203.796875 299.59375 203.429688 299.730469 202.972656 299.730469 C 202.515625 299.730469 202.148438 299.59375 201.871094 299.324219 C 201.589844 299.054688 201.449219 298.71875 201.449219 298.316406 C 201.449219 298.015625 201.527344 297.765625 201.679688 297.5625 C 201.835938 297.359375 202.054688 297.222656 202.339844 297.148438 Z M 202.226562 296.179688 C 202.226562 296.398438 202.296875 296.582031 202.433594 296.722656 C 202.574219 296.859375 202.753906 296.929688 202.976562 296.929688 C 203.195312 296.929688 203.371094 296.863281 203.511719 296.722656 C 203.648438 296.582031 203.71875 296.414062 203.71875 296.210938 C 203.71875 296.003906 203.644531 295.824219 203.503906 295.683594 C 203.359375 295.539062 203.183594 295.464844 202.972656 295.464844 C 202.757812 295.464844 202.578125 295.535156 202.4375 295.675781 C 202.296875 295.816406 202.226562 295.984375 202.226562 296.179688 Z M 202.035156 298.320312 C 202.035156 298.480469 202.074219 298.636719 202.152344 298.789062 C 202.226562 298.9375 202.339844 299.054688 202.492188 299.136719 C 202.644531 299.21875 202.804688 299.261719 202.980469 299.261719 C 203.25 299.261719 203.472656 299.175781 203.648438 299 C 203.824219 298.828125 203.914062 298.605469 203.914062 298.335938 C 203.914062 298.066406 203.824219 297.839844 203.640625 297.664062 C 203.460938 297.484375 203.234375 297.394531 202.960938 297.394531 C 202.695312 297.394531 202.472656 297.484375 202.296875 297.660156 C 202.125 297.835938 202.035156 298.054688 202.035156 298.320312 Z M 202.035156 298.320312 "/>
</g>
</svg>
