<?xml version="1.0" encoding="UTF-8"?>
<svg  preserveAspectRatio='none' xmlns="http://www.w3.org/2000/svg" xmlns:xlink="http://www.w3.org/1999/xlink" width="130pt" height="116pt" viewBox="0 0 130 116" version="1.1">
<!-- ***Exported Comment***
Created by Mathematica
***Exported Comment*** -->
<g id="surface95">
<path style="fill:none;stroke-width:0.36;stroke-linecap:square;stroke-linejoin:miter;stroke:rgb(14.99939%,28.999329%,50%);stroke-opacity:0.7;stroke-miterlimit:3.25;" d="M 86.960938 115.644531 L 138.800781 25.855469 " transform="matrix(1,0,0,1,-74,-13)"/>
<path style="fill:none;stroke-width:0.36;stroke-linecap:square;stroke-linejoin:miter;stroke:rgb(14.99939%,28.999329%,50%);stroke-opacity:0.7;stroke-miterlimit:3.25;" d="M 86.960938 115.644531 L 190.640625 115.644531 " transform="matrix(1,0,0,1,-74,-13)"/>
<path style="fill:none;stroke-width:0.36;stroke-linecap:square;stroke-linejoin:miter;stroke:rgb(14.99939%,28.999329%,50%);stroke-opacity:0.7;stroke-miterlimit:3.25;" d="M 138.800781 25.855469 L 190.640625 115.644531 " transform="matrix(1,0,0,1,-74,-13)"/>
<path style="fill-rule:evenodd;fill:rgb(63.996887%,70.397949%,79.997253%);fill-opacity:1;stroke-width:0.36;stroke-linecap:square;stroke-linejoin:miter;stroke:rgb(0%,0%,0%);stroke-opacity:0.7;stroke-miterlimit:3.25;" d="M 97.328125 115.644531 C 97.328125 112.894531 96.234375 110.257812 94.292969 108.316406 C 92.347656 106.371094 89.710938 105.277344 86.960938 105.277344 C 84.210938 105.277344 81.574219 106.371094 79.628906 108.316406 C 77.683594 110.257812 76.59375 112.894531 76.59375 115.644531 C 76.59375 118.394531 77.683594 121.03125 79.628906 122.976562 C 81.574219 124.921875 84.210938 126.015625 86.960938 126.015625 C 89.710938 126.015625 92.347656 124.921875 94.292969 122.976562 C 96.234375 121.03125 97.328125 118.394531 97.328125 115.644531 Z M 97.328125 115.644531 " transform="matrix(1,0,0,1,-74,-13)"/>
<path style=" stroke:none;fill-rule:evenodd;fill:rgb(0%,0%,0%);fill-opacity:1;" d="M 13.542969 104.890625 L 12.972656 104.890625 L 12.972656 101.261719 C 12.835938 101.394531 12.65625 101.523438 12.433594 101.65625 C 12.210938 101.785156 12.011719 101.882812 11.832031 101.949219 L 11.832031 101.398438 C 12.152344 101.25 12.429688 101.066406 12.667969 100.855469 C 12.90625 100.640625 13.074219 100.433594 13.175781 100.234375 L 13.542969 100.234375 Z M 13.542969 104.890625 "/>
<path style="fill-rule:evenodd;fill:rgb(63.996887%,70.397949%,79.997253%);fill-opacity:1;stroke-width:0.36;stroke-linecap:square;stroke-linejoin:miter;stroke:rgb(0%,0%,0%);stroke-opacity:0.7;stroke-miterlimit:3.25;" d="M 149.167969 25.855469 C 149.167969 23.105469 148.074219 20.46875 146.132812 18.523438 C 144.1875 16.582031 141.550781 15.488281 138.800781 15.488281 C 136.050781 15.488281 133.414062 16.582031 131.46875 18.523438 C 129.523438 20.46875 128.433594 23.105469 128.433594 25.855469 C 128.433594 28.605469 129.523438 31.242188 131.46875 33.1875 C 133.414062 35.132812 136.050781 36.222656 138.800781 36.222656 C 141.550781 36.222656 144.1875 35.132812 146.132812 33.1875 C 148.074219 31.242188 149.167969 28.605469 149.167969 25.855469 Z M 149.167969 25.855469 " transform="matrix(1,0,0,1,-74,-13)"/>
<path style=" stroke:none;fill-rule:evenodd;fill:rgb(0%,0%,0%);fill-opacity:1;" d="M 66.261719 14.554688 L 66.261719 15.101562 L 63.191406 15.101562 C 63.191406 14.964844 63.21875 14.832031 63.265625 14.707031 C 63.347656 14.496094 63.472656 14.292969 63.648438 14.089844 C 63.824219 13.886719 64.070312 13.652344 64.390625 13.386719 C 64.886719 12.972656 65.21875 12.640625 65.394531 12.398438 C 65.566406 12.15625 65.65625 11.929688 65.65625 11.714844 C 65.65625 11.488281 65.574219 11.296875 65.414062 11.140625 C 65.257812 10.988281 65.050781 10.910156 64.796875 10.910156 C 64.527344 10.910156 64.308594 10.992188 64.148438 11.15625 C 63.988281 11.320312 63.90625 11.550781 63.90625 11.839844 L 63.304688 11.78125 C 63.347656 11.34375 63.496094 11.011719 63.753906 10.78125 C 64.015625 10.550781 64.363281 10.4375 64.804688 10.4375 C 65.246094 10.4375 65.59375 10.5625 65.851562 10.808594 C 66.109375 11.054688 66.238281 11.359375 66.238281 11.726562 C 66.238281 11.914062 66.203125 12.09375 66.125 12.273438 C 66.050781 12.453125 65.925781 12.644531 65.75 12.84375 C 65.574219 13.042969 65.285156 13.3125 64.882812 13.660156 C 64.550781 13.949219 64.332031 14.144531 64.238281 14.246094 C 64.144531 14.347656 64.0625 14.453125 64 14.554688 Z M 66.261719 14.554688 "/>
<path style="fill-rule:evenodd;fill:rgb(63.996887%,70.397949%,79.997253%);fill-opacity:1;stroke-width:0.36;stroke-linecap:square;stroke-linejoin:miter;stroke:rgb(0%,0%,0%);stroke-opacity:0.7;stroke-miterlimit:3.25;" d="M 201.007812 115.644531 C 201.007812 112.894531 199.914062 110.257812 197.972656 108.316406 C 196.027344 106.371094 193.390625 105.277344 190.640625 105.277344 C 187.890625 105.277344 185.253906 106.371094 183.308594 108.316406 C 181.363281 110.257812 180.273438 112.894531 180.273438 115.644531 C 180.273438 118.394531 181.363281 121.03125 183.308594 122.976562 C 185.253906 124.921875 187.890625 126.015625 190.640625 126.015625 C 193.390625 126.015625 196.027344 124.921875 197.972656 122.976562 C 199.914062 121.03125 201.007812 118.394531 201.007812 115.644531 Z M 201.007812 115.644531 " transform="matrix(1,0,0,1,-74,-13)"/>
<path style=" stroke:none;fill-rule:evenodd;fill:rgb(0%,0%,0%);fill-opacity:1;" d="M 115.140625 103.65625 L 115.710938 103.578125 C 115.777344 103.898438 115.886719 104.132812 116.042969 104.273438 C 116.199219 104.414062 116.386719 104.484375 116.613281 104.484375 C 116.878906 104.484375 117.101562 104.394531 117.285156 104.207031 C 117.46875 104.023438 117.558594 103.792969 117.558594 103.519531 C 117.558594 103.261719 117.476562 103.046875 117.304688 102.878906 C 117.136719 102.707031 116.925781 102.625 116.664062 102.625 C 116.558594 102.625 116.425781 102.644531 116.265625 102.6875 L 116.328125 102.1875 C 116.367188 102.191406 116.394531 102.195312 116.417969 102.195312 C 116.660156 102.195312 116.878906 102.128906 117.074219 102.003906 C 117.269531 101.875 117.367188 101.679688 117.367188 101.410156 C 117.367188 101.203125 117.292969 101.027344 117.152344 100.890625 C 117.011719 100.75 116.828125 100.679688 116.605469 100.679688 C 116.382812 100.679688 116.199219 100.75 116.050781 100.890625 C 115.90625 101.03125 115.808594 101.242188 115.769531 101.523438 L 115.199219 101.421875 C 115.265625 101.039062 115.425781 100.742188 115.671875 100.53125 C 115.917969 100.316406 116.226562 100.210938 116.59375 100.210938 C 116.847656 100.210938 117.078125 100.265625 117.292969 100.375 C 117.503906 100.484375 117.667969 100.636719 117.78125 100.824219 C 117.894531 101.011719 117.949219 101.214844 117.949219 101.425781 C 117.949219 101.628906 117.894531 101.8125 117.78125 101.976562 C 117.671875 102.140625 117.515625 102.273438 117.3125 102.371094 C 117.578125 102.433594 117.789062 102.566406 117.9375 102.765625 C 118.089844 102.964844 118.164062 103.210938 118.164062 103.511719 C 118.164062 103.914062 118.015625 104.253906 117.722656 104.535156 C 117.429688 104.816406 117.058594 104.957031 116.609375 104.957031 C 116.203125 104.957031 115.867188 104.835938 115.597656 104.59375 C 115.332031 104.351562 115.179688 104.039062 115.140625 103.65625 Z M 115.140625 103.65625 "/>
</g>
</svg>
