<?xml version="1.0" encoding="UTF-8"?>
<svg  preserveAspectRatio='none' xmlns="http://www.w3.org/2000/svg" xmlns:xlink="http://www.w3.org/1999/xlink" width="300pt" height="180pt" viewBox="0 0 300 180" version="1.1">
<!-- ***Exported Comment***
Created by Mathematica
***Exported Comment*** -->
<g id="surface18">
<path style="fill:none;stroke-width:0.5;stroke-linecap:square;stroke-linejoin:miter;stroke:rgb(14.99939%,28.999329%,50%);stroke-opacity:0.7;stroke-miterlimit:3.25;" d="M 117.902344 32.253906 L 82.78125 102.5 " transform="matrix(1,0,0,1,-74,-13)"/>
<path style="fill:none;stroke-width:0.5;stroke-linecap:square;stroke-linejoin:miter;stroke:rgb(14.99939%,28.999329%,50%);stroke-opacity:0.7;stroke-miterlimit:3.25;" d="M 117.902344 32.253906 L 153.027344 102.5 " transform="matrix(1,0,0,1,-74,-13)"/>
<path style="fill:none;stroke-width:0.5;stroke-linecap:square;stroke-linejoin:miter;stroke:rgb(14.99939%,28.999329%,50%);stroke-opacity:0.7;stroke-miterlimit:3.25;" d="M 82.78125 102.5 L 153.027344 102.5 " transform="matrix(1,0,0,1,-74,-13)"/>
<path style="fill:none;stroke-width:0.5;stroke-linecap:square;stroke-linejoin:miter;stroke:rgb(14.99939%,28.999329%,50%);stroke-opacity:0.7;stroke-miterlimit:3.25;" d="M 82.78125 102.5 L 82.78125 172.746094 " transform="matrix(1,0,0,1,-74,-13)"/>
<path style="fill:none;stroke-width:0.5;stroke-linecap:square;stroke-linejoin:miter;stroke:rgb(14.99939%,28.999329%,50%);stroke-opacity:0.7;stroke-miterlimit:3.25;" d="M 153.027344 102.5 L 82.78125 172.746094 " transform="matrix(1,0,0,1,-74,-13)"/>
<path style="fill:none;stroke-width:0.5;stroke-linecap:square;stroke-linejoin:miter;stroke:rgb(14.99939%,28.999329%,50%);stroke-opacity:0.7;stroke-miterlimit:3.25;" d="M 153.027344 102.5 L 153.027344 172.746094 " transform="matrix(1,0,0,1,-74,-13)"/>
<path style="fill-rule:evenodd;fill:rgb(63.996887%,70.397949%,79.997253%);fill-opacity:1;stroke-width:0.5;stroke-linecap:square;stroke-linejoin:miter;stroke:rgb(0%,0%,0%);stroke-opacity:0.7;stroke-miterlimit:3.25;" d="M 124.929688 32.253906 C 124.929688 30.390625 124.1875 28.605469 122.871094 27.285156 C 121.554688 25.96875 119.765625 25.230469 117.902344 25.230469 C 116.039062 25.230469 114.253906 25.96875 112.9375 27.285156 C 111.621094 28.605469 110.878906 30.390625 110.878906 32.253906 C 110.878906 34.117188 111.621094 35.902344 112.9375 37.222656 C 114.253906 38.539062 116.039062 39.277344 117.902344 39.277344 C 119.765625 39.277344 121.554688 38.539062 122.871094 37.222656 C 124.1875 35.902344 124.929688 34.117188 124.929688 32.253906 Z M 124.929688 32.253906 " transform="matrix(1,0,0,1,-74,-13)"/>
<path style=" stroke:none;fill-rule:evenodd;fill:rgb(0%,0%,0%);fill-opacity:1;" d="M 44.710938 22.375 L 43.921875 22.375 L 43.921875 17.332031 C 43.730469 17.515625 43.480469 17.695312 43.171875 17.878906 C 42.863281 18.058594 42.585938 18.195312 42.339844 18.289062 L 42.339844 17.523438 C 42.78125 17.3125 43.167969 17.0625 43.5 16.765625 C 43.828125 16.472656 44.0625 16.183594 44.203125 15.90625 L 44.710938 15.90625 Z M 44.710938 22.375 "/>
<path style="fill-rule:evenodd;fill:rgb(63.996887%,70.397949%,79.997253%);fill-opacity:1;stroke-width:0.5;stroke-linecap:square;stroke-linejoin:miter;stroke:rgb(0%,0%,0%);stroke-opacity:0.7;stroke-miterlimit:3.25;" d="M 89.804688 102.5 C 89.804688 100.636719 89.066406 98.851562 87.746094 97.53125 C 86.429688 96.214844 84.644531 95.476562 82.78125 95.476562 C 80.917969 95.476562 79.132812 96.214844 77.8125 97.53125 C 76.496094 98.851562 75.757812 100.636719 75.757812 102.5 C 75.757812 104.363281 76.496094 106.148438 77.8125 107.46875 C 79.132812 108.785156 80.917969 109.523438 82.78125 109.523438 C 84.644531 109.523438 86.429688 108.785156 87.746094 107.46875 C 89.066406 106.148438 89.804688 104.363281 89.804688 102.5 Z M 89.804688 102.5 " transform="matrix(1,0,0,1,-74,-13)"/>
<path style=" stroke:none;fill-rule:evenodd;fill:rgb(0%,0%,0%);fill-opacity:1;" d="M 10.808594 91.859375 L 10.808594 92.621094 L 6.546875 92.621094 C 6.546875 92.429688 6.582031 92.246094 6.648438 92.070312 C 6.761719 91.777344 6.9375 91.492188 7.179688 91.210938 C 7.425781 90.929688 7.769531 90.605469 8.210938 90.234375 C 8.898438 89.660156 9.363281 89.203125 9.605469 88.867188 C 9.847656 88.53125 9.96875 88.210938 9.96875 87.914062 C 9.96875 87.597656 9.855469 87.335938 9.636719 87.117188 C 9.414062 86.902344 9.128906 86.796875 8.773438 86.796875 C 8.398438 86.796875 8.101562 86.910156 7.875 87.136719 C 7.648438 87.367188 7.539062 87.683594 7.539062 88.089844 L 6.707031 88.007812 C 6.761719 87.398438 6.96875 86.9375 7.328125 86.617188 C 7.691406 86.300781 8.175781 86.140625 8.785156 86.140625 C 9.398438 86.140625 9.886719 86.3125 10.242188 86.65625 C 10.601562 86.996094 10.78125 87.421875 10.78125 87.933594 C 10.78125 88.191406 10.726562 88.441406 10.625 88.691406 C 10.519531 88.941406 10.34375 89.203125 10.101562 89.480469 C 9.855469 89.757812 9.457031 90.136719 8.898438 90.617188 C 8.433594 91.015625 8.132812 91.289062 8 91.429688 C 7.867188 91.574219 7.757812 91.714844 7.671875 91.859375 Z M 10.808594 91.859375 "/>
<path style="fill-rule:evenodd;fill:rgb(63.996887%,70.397949%,79.997253%);fill-opacity:1;stroke-width:0.5;stroke-linecap:square;stroke-linejoin:miter;stroke:rgb(0%,0%,0%);stroke-opacity:0.7;stroke-miterlimit:3.25;" d="M 160.050781 102.5 C 160.050781 100.636719 159.3125 98.851562 157.992188 97.53125 C 156.675781 96.214844 154.890625 95.476562 153.027344 95.476562 C 151.164062 95.476562 149.378906 96.214844 148.058594 97.53125 C 146.742188 98.851562 146.003906 100.636719 146.003906 102.5 C 146.003906 104.363281 146.742188 106.148438 148.058594 107.46875 C 149.378906 108.785156 151.164062 109.523438 153.027344 109.523438 C 154.890625 109.523438 156.675781 108.785156 157.992188 107.46875 C 159.3125 106.148438 160.050781 104.363281 160.050781 102.5 Z M 160.050781 102.5 " transform="matrix(1,0,0,1,-74,-13)"/>
<path style=" stroke:none;fill-rule:evenodd;fill:rgb(0%,0%,0%);fill-opacity:1;" d="M 79.402344 92.621094 L 79.402344 91.089844 L 76.613281 91.089844 L 76.613281 90.363281 L 79.546875 86.179688 L 80.195312 86.179688 L 80.195312 90.363281 L 81.070312 90.363281 L 81.070312 91.089844 L 80.195312 91.089844 L 80.195312 92.621094 Z M 79.402344 90.363281 L 79.402344 87.453125 L 77.390625 90.363281 Z M 79.402344 90.363281 "/>
<path style="fill-rule:evenodd;fill:rgb(63.996887%,70.397949%,79.997253%);fill-opacity:1;stroke-width:0.5;stroke-linecap:square;stroke-linejoin:miter;stroke:rgb(0%,0%,0%);stroke-opacity:0.7;stroke-miterlimit:3.25;" d="M 89.804688 172.746094 C 89.804688 170.882812 89.066406 169.097656 87.746094 167.777344 C 86.429688 166.460938 84.644531 165.722656 82.78125 165.722656 C 80.917969 165.722656 79.132812 166.460938 77.8125 167.777344 C 76.496094 169.097656 75.757812 170.882812 75.757812 172.746094 C 75.757812 174.609375 76.496094 176.394531 77.8125 177.714844 C 79.132812 179.03125 80.917969 179.769531 82.78125 179.769531 C 84.644531 179.769531 86.429688 179.03125 87.746094 177.714844 C 89.066406 176.394531 89.804688 174.609375 89.804688 172.746094 Z M 89.804688 172.746094 " transform="matrix(1,0,0,1,-74,-13)"/>
<path style=" stroke:none;fill-rule:evenodd;fill:rgb(0%,0%,0%);fill-opacity:1;" d="M 6.699219 161.148438 L 7.488281 161.042969 C 7.578125 161.488281 7.734375 161.808594 7.949219 162.007812 C 8.167969 162.203125 8.429688 162.300781 8.742188 162.300781 C 9.109375 162.300781 9.421875 162.175781 9.675781 161.917969 C 9.929688 161.660156 10.058594 161.34375 10.058594 160.960938 C 10.058594 160.601562 9.941406 160.304688 9.707031 160.070312 C 9.472656 159.832031 9.175781 159.714844 8.8125 159.714844 C 8.667969 159.714844 8.480469 159.746094 8.257812 159.804688 L 8.347656 159.109375 C 8.398438 159.117188 8.441406 159.117188 8.472656 159.117188 C 8.808594 159.117188 9.113281 159.03125 9.382812 158.851562 C 9.652344 158.675781 9.789062 158.402344 9.789062 158.03125 C 9.789062 157.738281 9.6875 157.5 9.492188 157.304688 C 9.296875 157.113281 9.042969 157.015625 8.734375 157.015625 C 8.425781 157.015625 8.167969 157.113281 7.964844 157.308594 C 7.757812 157.503906 7.625 157.796875 7.570312 158.1875 L 6.777344 158.046875 C 6.875 157.511719 7.09375 157.101562 7.433594 156.808594 C 7.777344 156.511719 8.203125 156.367188 8.714844 156.367188 C 9.066406 156.367188 9.390625 156.441406 9.683594 156.59375 C 9.980469 156.746094 10.207031 156.953125 10.363281 157.214844 C 10.523438 157.476562 10.601562 157.757812 10.601562 158.050781 C 10.601562 158.332031 10.523438 158.585938 10.367188 158.816406 C 10.210938 159.046875 9.996094 159.230469 9.714844 159.363281 C 10.085938 159.453125 10.375 159.636719 10.582031 159.910156 C 10.792969 160.1875 10.898438 160.53125 10.898438 160.945312 C 10.898438 161.507812 10.691406 161.984375 10.285156 162.371094 C 9.875 162.761719 9.359375 162.957031 8.734375 162.957031 C 8.171875 162.957031 7.707031 162.789062 7.332031 162.453125 C 6.960938 162.117188 6.75 161.679688 6.699219 161.148438 Z M 6.699219 161.148438 "/>
<path style="fill-rule:evenodd;fill:rgb(63.996887%,70.397949%,79.997253%);fill-opacity:1;stroke-width:0.5;stroke-linecap:square;stroke-linejoin:miter;stroke:rgb(0%,0%,0%);stroke-opacity:0.7;stroke-miterlimit:3.25;" d="M 160.050781 172.746094 C 160.050781 170.882812 159.3125 169.097656 157.992188 167.777344 C 156.675781 166.460938 154.890625 165.722656 153.027344 165.722656 C 151.164062 165.722656 149.378906 166.460938 148.058594 167.777344 C 146.742188 169.097656 146.003906 170.882812 146.003906 172.746094 C 146.003906 174.609375 146.742188 176.394531 148.058594 177.714844 C 149.378906 179.03125 151.164062 179.769531 153.027344 179.769531 C 154.890625 179.769531 156.675781 179.03125 157.992188 177.714844 C 159.3125 176.394531 160.050781 174.609375 160.050781 172.746094 Z M 160.050781 172.746094 " transform="matrix(1,0,0,1,-74,-13)"/>
<path style=" stroke:none;fill-rule:evenodd;fill:rgb(0%,0%,0%);fill-opacity:1;" d="M 76.871094 161.15625 L 77.703125 161.085938 C 77.765625 161.492188 77.90625 161.796875 78.132812 162 C 78.355469 162.203125 78.625 162.304688 78.941406 162.304688 C 79.324219 162.304688 79.644531 162.164062 79.910156 161.875 C 80.171875 161.585938 80.304688 161.203125 80.304688 160.730469 C 80.304688 160.277344 80.175781 159.921875 79.925781 159.660156 C 79.671875 159.398438 79.339844 159.265625 78.929688 159.265625 C 78.671875 159.265625 78.445312 159.324219 78.238281 159.441406 C 78.035156 159.558594 77.871094 159.707031 77.753906 159.890625 L 77.011719 159.796875 L 77.636719 156.476562 L 80.84375 156.476562 L 80.84375 157.234375 L 78.269531 157.234375 L 77.921875 158.972656 C 78.308594 158.703125 78.714844 158.566406 79.140625 158.566406 C 79.703125 158.566406 80.175781 158.761719 80.5625 159.152344 C 80.949219 159.542969 81.144531 160.046875 81.144531 160.660156 C 81.144531 161.242188 80.972656 161.746094 80.632812 162.171875 C 80.222656 162.695312 79.65625 162.957031 78.941406 162.957031 C 78.355469 162.957031 77.878906 162.792969 77.507812 162.464844 C 77.136719 162.136719 76.925781 161.699219 76.871094 161.15625 Z M 76.871094 161.15625 "/>
<path style="fill:none;stroke-width:0.5;stroke-linecap:square;stroke-linejoin:miter;stroke:rgb(14.99939%,28.999329%,50%);stroke-opacity:0.7;stroke-miterlimit:3.25;" d="M 342.445312 158.492188 L 362.578125 102.460938 " transform="matrix(1,0,0,1,-74,-13)"/>
<path style="fill:none;stroke-width:0.5;stroke-linecap:square;stroke-linejoin:miter;stroke:rgb(14.99939%,28.999329%,50%);stroke-opacity:0.7;stroke-miterlimit:3.25;" d="M 342.445312 158.492188 L 299.394531 102.632812 " transform="matrix(1,0,0,1,-74,-13)"/>
<path style="fill:none;stroke-width:0.5;stroke-linecap:square;stroke-linejoin:miter;stroke:rgb(14.99939%,28.999329%,50%);stroke-opacity:0.7;stroke-miterlimit:3.25;" d="M 362.578125 102.460938 L 299.394531 102.632812 " transform="matrix(1,0,0,1,-74,-13)"/>
<path style="fill:none;stroke-width:0.5;stroke-linecap:square;stroke-linejoin:miter;stroke:rgb(14.99939%,28.999329%,50%);stroke-opacity:0.7;stroke-miterlimit:3.25;" d="M 362.578125 102.460938 L 342.035156 46.507812 " transform="matrix(1,0,0,1,-74,-13)"/>
<path style="fill:none;stroke-width:0.5;stroke-linecap:square;stroke-linejoin:miter;stroke:rgb(14.99939%,28.999329%,50%);stroke-opacity:0.7;stroke-miterlimit:3.25;" d="M 299.394531 102.632812 L 342.035156 46.507812 " transform="matrix(1,0,0,1,-74,-13)"/>
<path style="fill:none;stroke-width:0.5;stroke-linecap:square;stroke-linejoin:miter;stroke:rgb(14.99939%,28.999329%,50%);stroke-opacity:0.7;stroke-miterlimit:3.25;" d="M 299.394531 102.632812 L 220.566406 102.707031 " transform="matrix(1,0,0,1,-74,-13)"/>
<path style="fill-rule:evenodd;fill:rgb(63.996887%,70.397949%,79.997253%);fill-opacity:1;stroke-width:0.5;stroke-linecap:square;stroke-linejoin:miter;stroke:rgb(0%,0%,0%);stroke-opacity:0.7;stroke-miterlimit:3.25;" d="M 348.398438 158.492188 C 348.398438 156.914062 347.773438 155.398438 346.65625 154.28125 C 345.539062 153.164062 344.023438 152.539062 342.445312 152.539062 C 340.867188 152.539062 339.351562 153.164062 338.234375 154.28125 C 337.117188 155.398438 336.492188 156.914062 336.492188 158.492188 C 336.492188 160.070312 337.117188 161.585938 338.234375 162.703125 C 339.351562 163.820312 340.867188 164.445312 342.445312 164.445312 C 344.023438 164.445312 345.539062 163.820312 346.65625 162.703125 C 347.773438 161.585938 348.398438 160.070312 348.398438 158.492188 Z M 348.398438 158.492188 " transform="matrix(1,0,0,1,-74,-13)"/>
<path style=" stroke:none;fill-rule:evenodd;fill:rgb(0%,0%,0%);fill-opacity:1;" d="M 269.253906 148.613281 L 268.460938 148.613281 L 268.460938 143.570312 C 268.273438 143.753906 268.023438 143.933594 267.714844 144.117188 C 267.402344 144.296875 267.125 144.433594 266.878906 144.527344 L 266.878906 143.761719 C 267.324219 143.550781 267.710938 143.300781 268.039062 143.003906 C 268.371094 142.710938 268.605469 142.421875 268.742188 142.144531 L 269.253906 142.144531 Z M 269.253906 148.613281 "/>
<path style="fill-rule:evenodd;fill:rgb(63.996887%,70.397949%,79.997253%);fill-opacity:1;stroke-width:0.5;stroke-linecap:square;stroke-linejoin:miter;stroke:rgb(0%,0%,0%);stroke-opacity:0.7;stroke-miterlimit:3.25;" d="M 368.535156 102.460938 C 368.535156 100.878906 367.90625 99.367188 366.789062 98.25 C 365.671875 97.132812 364.160156 96.503906 362.578125 96.503906 C 361 96.503906 359.484375 97.132812 358.371094 98.25 C 357.253906 99.367188 356.625 100.878906 356.625 102.460938 C 356.625 104.039062 357.253906 105.550781 358.371094 106.667969 C 359.484375 107.785156 361 108.414062 362.578125 108.414062 C 364.160156 108.414062 365.671875 107.785156 366.789062 106.667969 C 367.90625 105.550781 368.535156 104.039062 368.535156 102.460938 Z M 368.535156 102.460938 " transform="matrix(1,0,0,1,-74,-13)"/>
<path style=" stroke:none;fill-rule:evenodd;fill:rgb(0%,0%,0%);fill-opacity:1;" d="M 290.609375 91.820312 L 290.609375 92.578125 L 286.347656 92.578125 C 286.347656 92.390625 286.378906 92.207031 286.449219 92.027344 C 286.558594 91.738281 286.738281 91.453125 286.980469 91.171875 C 287.222656 90.890625 287.566406 90.5625 288.011719 90.195312 C 288.695312 89.617188 289.160156 89.164062 289.402344 88.824219 C 289.644531 88.488281 289.765625 88.171875 289.765625 87.871094 C 289.765625 87.558594 289.65625 87.292969 289.433594 87.078125 C 289.214844 86.863281 288.925781 86.753906 288.574219 86.753906 C 288.199219 86.753906 287.898438 86.867188 287.675781 87.097656 C 287.449219 87.328125 287.335938 87.644531 287.335938 88.050781 L 286.503906 87.964844 C 286.558594 87.359375 286.765625 86.894531 287.128906 86.578125 C 287.488281 86.257812 287.972656 86.097656 288.582031 86.097656 C 289.199219 86.097656 289.683594 86.269531 290.042969 86.613281 C 290.398438 86.957031 290.578125 87.382812 290.578125 87.890625 C 290.578125 88.148438 290.527344 88.402344 290.421875 88.652344 C 290.316406 88.902344 290.140625 89.164062 289.898438 89.441406 C 289.65625 89.714844 289.253906 90.09375 288.695312 90.578125 C 288.230469 90.976562 287.929688 91.246094 287.800781 91.390625 C 287.667969 91.53125 287.558594 91.675781 287.46875 91.820312 Z M 290.609375 91.820312 "/>
<path style="fill-rule:evenodd;fill:rgb(63.996887%,70.397949%,79.997253%);fill-opacity:1;stroke-width:0.5;stroke-linecap:square;stroke-linejoin:miter;stroke:rgb(0%,0%,0%);stroke-opacity:0.7;stroke-miterlimit:3.25;" d="M 305.347656 102.632812 C 305.347656 101.050781 304.722656 99.539062 303.605469 98.421875 C 302.488281 97.304688 300.972656 96.675781 299.394531 96.675781 C 297.816406 96.675781 296.300781 97.304688 295.183594 98.421875 C 294.066406 99.539062 293.441406 101.050781 293.441406 102.632812 C 293.441406 104.210938 294.066406 105.726562 295.183594 106.839844 C 296.300781 107.957031 297.816406 108.585938 299.394531 108.585938 C 300.972656 108.585938 302.488281 107.957031 303.605469 106.839844 C 304.722656 105.726562 305.347656 104.210938 305.347656 102.632812 Z M 305.347656 102.632812 " transform="matrix(1,0,0,1,-74,-13)"/>
<path style=" stroke:none;fill-rule:evenodd;fill:rgb(0%,0%,0%);fill-opacity:1;" d="M 225.769531 92.75 L 225.769531 91.222656 L 222.980469 91.222656 L 222.980469 90.496094 L 225.917969 86.308594 L 226.5625 86.308594 L 226.5625 90.496094 L 227.4375 90.496094 L 227.4375 91.222656 L 226.5625 91.222656 L 226.5625 92.75 Z M 225.769531 90.496094 L 225.769531 87.582031 L 223.757812 90.496094 Z M 225.769531 90.496094 "/>
<path style="fill-rule:evenodd;fill:rgb(63.996887%,70.397949%,79.997253%);fill-opacity:1;stroke-width:0.5;stroke-linecap:square;stroke-linejoin:miter;stroke:rgb(0%,0%,0%);stroke-opacity:0.7;stroke-miterlimit:3.25;" d="M 347.988281 46.507812 C 347.988281 44.929688 347.359375 43.414062 346.242188 42.296875 C 345.128906 41.179688 343.613281 40.554688 342.035156 40.554688 C 340.453125 40.554688 338.941406 41.179688 337.824219 42.296875 C 336.707031 43.414062 336.078125 44.929688 336.078125 46.507812 C 336.078125 48.085938 336.707031 49.601562 337.824219 50.71875 C 338.941406 51.835938 340.453125 52.460938 342.035156 52.460938 C 343.613281 52.460938 345.128906 51.835938 346.242188 50.71875 C 347.359375 49.601562 347.988281 48.085938 347.988281 46.507812 Z M 347.988281 46.507812 " transform="matrix(1,0,0,1,-74,-13)"/>
<path style=" stroke:none;fill-rule:evenodd;fill:rgb(0%,0%,0%);fill-opacity:1;" d="M 265.953125 34.910156 L 266.742188 34.804688 C 266.832031 35.25 266.988281 35.570312 267.203125 35.769531 C 267.417969 35.964844 267.683594 36.0625 267.996094 36.0625 C 268.363281 36.0625 268.675781 35.9375 268.929688 35.679688 C 269.183594 35.421875 269.3125 35.105469 269.3125 34.722656 C 269.3125 34.363281 269.195312 34.066406 268.960938 33.832031 C 268.726562 33.59375 268.429688 33.476562 268.066406 33.476562 C 267.917969 33.476562 267.734375 33.507812 267.511719 33.566406 L 267.597656 32.871094 C 267.652344 32.878906 267.695312 32.878906 267.726562 32.878906 C 268.0625 32.878906 268.367188 32.792969 268.636719 32.613281 C 268.90625 32.4375 269.039062 32.164062 269.039062 31.792969 C 269.039062 31.5 268.941406 31.261719 268.746094 31.066406 C 268.550781 30.875 268.296875 30.777344 267.984375 30.777344 C 267.679688 30.777344 267.421875 30.875 267.21875 31.070312 C 267.011719 31.265625 266.878906 31.558594 266.820312 31.949219 L 266.03125 31.808594 C 266.125 31.273438 266.347656 30.863281 266.6875 30.570312 C 267.03125 30.273438 267.457031 30.128906 267.96875 30.128906 C 268.320312 30.128906 268.644531 30.203125 268.9375 30.355469 C 269.234375 30.507812 269.460938 30.714844 269.617188 30.976562 C 269.773438 31.238281 269.855469 31.519531 269.855469 31.8125 C 269.855469 32.09375 269.777344 32.347656 269.621094 32.578125 C 269.464844 32.808594 269.246094 32.992188 268.964844 33.125 C 269.339844 33.214844 269.628906 33.398438 269.835938 33.671875 C 270.046875 33.949219 270.152344 34.292969 270.152344 34.707031 C 270.152344 35.269531 269.945312 35.746094 269.539062 36.132812 C 269.128906 36.523438 268.613281 36.71875 267.988281 36.71875 C 267.425781 36.71875 266.960938 36.550781 266.585938 36.214844 C 266.214844 35.878906 266.003906 35.441406 265.953125 34.910156 Z M 265.953125 34.910156 "/>
<path style="fill-rule:evenodd;fill:rgb(63.996887%,70.397949%,79.997253%);fill-opacity:1;stroke-width:0.5;stroke-linecap:square;stroke-linejoin:miter;stroke:rgb(0%,0%,0%);stroke-opacity:0.7;stroke-miterlimit:3.25;" d="M 226.519531 102.707031 C 226.519531 101.128906 225.890625 99.613281 224.773438 98.496094 C 223.660156 97.378906 222.144531 96.753906 220.566406 96.753906 C 218.984375 96.753906 217.472656 97.378906 216.355469 98.496094 C 215.238281 99.613281 214.609375 101.128906 214.609375 102.707031 C 214.609375 104.285156 215.238281 105.800781 216.355469 106.917969 C 217.472656 108.035156 218.984375 108.660156 220.566406 108.660156 C 222.144531 108.660156 223.660156 108.035156 224.773438 106.917969 C 225.890625 105.800781 226.519531 104.285156 226.519531 102.707031 Z M 226.519531 102.707031 " transform="matrix(1,0,0,1,-74,-13)"/>
<path style=" stroke:none;fill-rule:evenodd;fill:rgb(0%,0%,0%);fill-opacity:1;" d="M 144.410156 91.117188 L 145.242188 91.046875 C 145.300781 91.453125 145.445312 91.757812 145.667969 91.960938 C 145.894531 92.164062 146.164062 92.265625 146.480469 92.265625 C 146.863281 92.265625 147.183594 92.125 147.445312 91.835938 C 147.710938 91.546875 147.84375 91.164062 147.84375 90.691406 C 147.84375 90.238281 147.714844 89.882812 147.460938 89.621094 C 147.210938 89.359375 146.878906 89.226562 146.464844 89.226562 C 146.210938 89.226562 145.980469 89.285156 145.777344 89.402344 C 145.570312 89.519531 145.410156 89.667969 145.292969 89.851562 L 144.550781 89.753906 L 145.175781 86.4375 L 148.382812 86.4375 L 148.382812 87.195312 L 145.808594 87.195312 L 145.460938 88.933594 C 145.847656 88.664062 146.253906 88.527344 146.675781 88.527344 C 147.238281 88.527344 147.714844 88.722656 148.101562 89.113281 C 148.488281 89.503906 148.679688 90.007812 148.679688 90.621094 C 148.679688 91.203125 148.511719 91.707031 148.171875 92.132812 C 147.757812 92.65625 147.195312 92.917969 146.480469 92.917969 C 145.894531 92.917969 145.417969 92.753906 145.046875 92.425781 C 144.675781 92.097656 144.464844 91.660156 144.410156 91.117188 Z M 144.410156 91.117188 "/>
</g>
</svg>
