<?xml version="1.0" encoding="UTF-8"?>
<svg  preserveAspectRatio='none' xmlns="http://www.w3.org/2000/svg" xmlns:xlink="http://www.w3.org/1999/xlink" width="260pt" height="249pt" viewBox="0 0 260 249" version="1.1">
<!-- ***Exported Comment***
Created by Mathematica
***Exported Comment*** -->
<g id="surface41">
<rect x="0" y="0" width="260" height="249" style="fill:rgb(99.996948%,99.996948%,99.996948%);fill-opacity:1;stroke:none;"/>
<path style="fill:none;stroke-width:0.03;stroke-linecap:square;stroke-linejoin:miter;stroke:rgb(99.996948%,99.996948%,99.996948%);stroke-opacity:1;stroke-miterlimit:10;" d="M 74 13 L 334 13 L 334 262 L 74 262 Z M 74 13 " transform="matrix(1,0,0,1,-74,-13)"/>
<path style="fill:none;stroke-width:0.36;stroke-linecap:square;stroke-linejoin:miter;stroke:rgb(50%,50%,50%);stroke-opacity:0.7;stroke-miterlimit:3.25;" d="M 283 199.800781 L 272.230469 203.671875 " transform="matrix(1,0,0,1,-74,-13)"/>
<path style="fill:none;stroke-width:0.36;stroke-linecap:square;stroke-linejoin:miter;stroke:rgb(50%,50%,50%);stroke-opacity:0.7;stroke-miterlimit:3.25;" d="M 283 199.800781 L 256.910156 172.074219 " transform="matrix(1,0,0,1,-74,-13)"/>
<path style="fill:none;stroke-width:0.36;stroke-linecap:square;stroke-linejoin:miter;stroke:rgb(50%,50%,50%);stroke-opacity:0.7;stroke-miterlimit:3.25;" d="M 283 199.800781 L 276.722656 191.867188 " transform="matrix(1,0,0,1,-74,-13)"/>
<path style="fill:none;stroke-width:0.36;stroke-linecap:square;stroke-linejoin:miter;stroke:rgb(50%,50%,50%);stroke-opacity:0.7;stroke-miterlimit:3.25;" d="M 228.347656 136.351562 L 255.617188 153.109375 " transform="matrix(1,0,0,1,-74,-13)"/>
<path style="fill:none;stroke-width:0.36;stroke-linecap:square;stroke-linejoin:miter;stroke:rgb(50%,50%,50%);stroke-opacity:0.7;stroke-miterlimit:3.25;" d="M 228.347656 136.351562 L 250.96875 141.847656 " transform="matrix(1,0,0,1,-74,-13)"/>
<path style="fill:none;stroke-width:0.36;stroke-linecap:square;stroke-linejoin:miter;stroke:rgb(50%,50%,50%);stroke-opacity:0.7;stroke-miterlimit:3.25;" d="M 228.347656 136.351562 L 260.398438 143.035156 " transform="matrix(1,0,0,1,-74,-13)"/>
<path style="fill:none;stroke-width:0.36;stroke-linecap:square;stroke-linejoin:miter;stroke:rgb(50%,50%,50%);stroke-opacity:0.7;stroke-miterlimit:3.25;" d="M 324.0625 146.125 L 302.863281 153.425781 " transform="matrix(1,0,0,1,-74,-13)"/>
<path style="fill:none;stroke-width:0.36;stroke-linecap:square;stroke-linejoin:miter;stroke:rgb(50%,50%,50%);stroke-opacity:0.7;stroke-miterlimit:3.25;" d="M 324.0625 146.125 L 300.71875 154.140625 " transform="matrix(1,0,0,1,-74,-13)"/>
<path style="fill:none;stroke-width:0.36;stroke-linecap:square;stroke-linejoin:miter;stroke:rgb(50%,50%,50%);stroke-opacity:0.7;stroke-miterlimit:3.25;" d="M 189.835938 206.945312 L 173.644531 234.140625 " transform="matrix(1,0,0,1,-74,-13)"/>
<path style="fill:none;stroke-width:0.36;stroke-linecap:square;stroke-linejoin:miter;stroke:rgb(50%,50%,50%);stroke-opacity:0.7;stroke-miterlimit:3.25;" d="M 189.835938 206.945312 L 172.015625 215.195312 " transform="matrix(1,0,0,1,-74,-13)"/>
<path style="fill:none;stroke-width:0.36;stroke-linecap:square;stroke-linejoin:miter;stroke:rgb(50%,50%,50%);stroke-opacity:0.7;stroke-miterlimit:3.25;" d="M 189.835938 206.945312 L 201.40625 208.863281 " transform="matrix(1,0,0,1,-74,-13)"/>
<path style="fill:none;stroke-width:0.36;stroke-linecap:square;stroke-linejoin:miter;stroke:rgb(50%,50%,50%);stroke-opacity:0.7;stroke-miterlimit:3.25;" d="M 272.230469 203.671875 L 256.910156 172.074219 " transform="matrix(1,0,0,1,-74,-13)"/>
<path style="fill:none;stroke-width:0.36;stroke-linecap:square;stroke-linejoin:miter;stroke:rgb(50%,50%,50%);stroke-opacity:0.7;stroke-miterlimit:3.25;" d="M 272.230469 203.671875 L 276.722656 191.867188 " transform="matrix(1,0,0,1,-74,-13)"/>
<path style="fill:none;stroke-width:0.36;stroke-linecap:square;stroke-linejoin:miter;stroke:rgb(50%,50%,50%);stroke-opacity:0.7;stroke-miterlimit:3.25;" d="M 99.925781 239.851562 L 127.425781 227.25 " transform="matrix(1,0,0,1,-74,-13)"/>
<path style="fill:none;stroke-width:0.36;stroke-linecap:square;stroke-linejoin:miter;stroke:rgb(50%,50%,50%);stroke-opacity:0.7;stroke-miterlimit:3.25;" d="M 99.925781 239.851562 L 105.273438 209.421875 " transform="matrix(1,0,0,1,-74,-13)"/>
<path style="fill:none;stroke-width:0.36;stroke-linecap:square;stroke-linejoin:miter;stroke:rgb(50%,50%,50%);stroke-opacity:0.7;stroke-miterlimit:3.25;" d="M 219.726562 254.910156 L 255.140625 247.316406 " transform="matrix(1,0,0,1,-74,-13)"/>
<path style="fill:none;stroke-width:0.36;stroke-linecap:square;stroke-linejoin:miter;stroke:rgb(50%,50%,50%);stroke-opacity:0.7;stroke-miterlimit:3.25;" d="M 135.367188 188.761719 L 107.242188 189.570312 " transform="matrix(1,0,0,1,-74,-13)"/>
<path style="fill:none;stroke-width:0.36;stroke-linecap:square;stroke-linejoin:miter;stroke:rgb(50%,50%,50%);stroke-opacity:0.7;stroke-miterlimit:3.25;" d="M 135.367188 188.761719 L 119.285156 161.605469 " transform="matrix(1,0,0,1,-74,-13)"/>
<path style="fill:none;stroke-width:0.36;stroke-linecap:square;stroke-linejoin:miter;stroke:rgb(50%,50%,50%);stroke-opacity:0.7;stroke-miterlimit:3.25;" d="M 135.367188 188.761719 L 127.425781 227.25 " transform="matrix(1,0,0,1,-74,-13)"/>
<path style="fill:none;stroke-width:0.36;stroke-linecap:square;stroke-linejoin:miter;stroke:rgb(50%,50%,50%);stroke-opacity:0.7;stroke-miterlimit:3.25;" d="M 135.367188 188.761719 L 132.160156 169.550781 " transform="matrix(1,0,0,1,-74,-13)"/>
<path style="fill:none;stroke-width:0.36;stroke-linecap:square;stroke-linejoin:miter;stroke:rgb(50%,50%,50%);stroke-opacity:0.7;stroke-miterlimit:3.25;" d="M 135.367188 188.761719 L 142.945312 162.449219 " transform="matrix(1,0,0,1,-74,-13)"/>
<path style="fill:none;stroke-width:0.36;stroke-linecap:square;stroke-linejoin:miter;stroke:rgb(50%,50%,50%);stroke-opacity:0.7;stroke-miterlimit:3.25;" d="M 135.367188 188.761719 L 105.273438 209.421875 " transform="matrix(1,0,0,1,-74,-13)"/>
<path style="fill:none;stroke-width:0.36;stroke-linecap:square;stroke-linejoin:miter;stroke:rgb(50%,50%,50%);stroke-opacity:0.7;stroke-miterlimit:3.25;" d="M 135.367188 188.761719 L 138.019531 198.222656 " transform="matrix(1,0,0,1,-74,-13)"/>
<path style="fill:none;stroke-width:0.36;stroke-linecap:square;stroke-linejoin:miter;stroke:rgb(50%,50%,50%);stroke-opacity:0.7;stroke-miterlimit:3.25;" d="M 151.144531 34.167969 L 160.144531 19.121094 " transform="matrix(1,0,0,1,-74,-13)"/>
<path style="fill:none;stroke-width:0.36;stroke-linecap:square;stroke-linejoin:miter;stroke:rgb(50%,50%,50%);stroke-opacity:0.7;stroke-miterlimit:3.25;" d="M 255.617188 153.109375 L 256.910156 172.074219 " transform="matrix(1,0,0,1,-74,-13)"/>
<path style="fill:none;stroke-width:0.36;stroke-linecap:square;stroke-linejoin:miter;stroke:rgb(50%,50%,50%);stroke-opacity:0.7;stroke-miterlimit:3.25;" d="M 255.617188 153.109375 L 250.96875 141.847656 " transform="matrix(1,0,0,1,-74,-13)"/>
<path style="fill:none;stroke-width:0.36;stroke-linecap:square;stroke-linejoin:miter;stroke:rgb(50%,50%,50%);stroke-opacity:0.7;stroke-miterlimit:3.25;" d="M 255.617188 153.109375 L 279.011719 140.550781 " transform="matrix(1,0,0,1,-74,-13)"/>
<path style="fill:none;stroke-width:0.36;stroke-linecap:square;stroke-linejoin:miter;stroke:rgb(50%,50%,50%);stroke-opacity:0.7;stroke-miterlimit:3.25;" d="M 255.617188 153.109375 L 266.285156 152.164062 " transform="matrix(1,0,0,1,-74,-13)"/>
<path style="fill:none;stroke-width:0.36;stroke-linecap:square;stroke-linejoin:miter;stroke:rgb(50%,50%,50%);stroke-opacity:0.7;stroke-miterlimit:3.25;" d="M 255.617188 153.109375 L 260.398438 143.035156 " transform="matrix(1,0,0,1,-74,-13)"/>
<path style="fill:none;stroke-width:0.36;stroke-linecap:square;stroke-linejoin:miter;stroke:rgb(50%,50%,50%);stroke-opacity:0.7;stroke-miterlimit:3.25;" d="M 256.910156 172.074219 L 276.722656 191.867188 " transform="matrix(1,0,0,1,-74,-13)"/>
<path style="fill:none;stroke-width:0.36;stroke-linecap:square;stroke-linejoin:miter;stroke:rgb(50%,50%,50%);stroke-opacity:0.7;stroke-miterlimit:3.25;" d="M 256.910156 172.074219 L 250.96875 141.847656 " transform="matrix(1,0,0,1,-74,-13)"/>
<path style="fill:none;stroke-width:0.36;stroke-linecap:square;stroke-linejoin:miter;stroke:rgb(50%,50%,50%);stroke-opacity:0.7;stroke-miterlimit:3.25;" d="M 256.910156 172.074219 L 279.011719 140.550781 " transform="matrix(1,0,0,1,-74,-13)"/>
<path style="fill:none;stroke-width:0.36;stroke-linecap:square;stroke-linejoin:miter;stroke:rgb(50%,50%,50%);stroke-opacity:0.7;stroke-miterlimit:3.25;" d="M 256.910156 172.074219 L 266.285156 152.164062 " transform="matrix(1,0,0,1,-74,-13)"/>
<path style="fill:none;stroke-width:0.36;stroke-linecap:square;stroke-linejoin:miter;stroke:rgb(50%,50%,50%);stroke-opacity:0.7;stroke-miterlimit:3.25;" d="M 256.910156 172.074219 L 260.398438 143.035156 " transform="matrix(1,0,0,1,-74,-13)"/>
<path style="fill:none;stroke-width:0.36;stroke-linecap:square;stroke-linejoin:miter;stroke:rgb(50%,50%,50%);stroke-opacity:0.7;stroke-miterlimit:3.25;" d="M 107.242188 189.570312 L 119.285156 161.605469 " transform="matrix(1,0,0,1,-74,-13)"/>
<path style="fill:none;stroke-width:0.36;stroke-linecap:square;stroke-linejoin:miter;stroke:rgb(50%,50%,50%);stroke-opacity:0.7;stroke-miterlimit:3.25;" d="M 107.242188 189.570312 L 132.160156 169.550781 " transform="matrix(1,0,0,1,-74,-13)"/>
<path style="fill:none;stroke-width:0.36;stroke-linecap:square;stroke-linejoin:miter;stroke:rgb(50%,50%,50%);stroke-opacity:0.7;stroke-miterlimit:3.25;" d="M 107.242188 189.570312 L 105.273438 209.421875 " transform="matrix(1,0,0,1,-74,-13)"/>
<path style="fill:none;stroke-width:0.36;stroke-linecap:square;stroke-linejoin:miter;stroke:rgb(50%,50%,50%);stroke-opacity:0.7;stroke-miterlimit:3.25;" d="M 107.242188 189.570312 L 138.019531 198.222656 " transform="matrix(1,0,0,1,-74,-13)"/>
<path style="fill:none;stroke-width:0.36;stroke-linecap:square;stroke-linejoin:miter;stroke:rgb(50%,50%,50%);stroke-opacity:0.7;stroke-miterlimit:3.25;" d="M 119.285156 161.605469 L 132.160156 169.550781 " transform="matrix(1,0,0,1,-74,-13)"/>
<path style="fill:none;stroke-width:0.36;stroke-linecap:square;stroke-linejoin:miter;stroke:rgb(50%,50%,50%);stroke-opacity:0.7;stroke-miterlimit:3.25;" d="M 119.285156 161.605469 L 142.945312 162.449219 " transform="matrix(1,0,0,1,-74,-13)"/>
<path style="fill:none;stroke-width:0.36;stroke-linecap:square;stroke-linejoin:miter;stroke:rgb(50%,50%,50%);stroke-opacity:0.7;stroke-miterlimit:3.25;" d="M 119.285156 161.605469 L 107.199219 143.175781 " transform="matrix(1,0,0,1,-74,-13)"/>
<path style="fill:none;stroke-width:0.36;stroke-linecap:square;stroke-linejoin:miter;stroke:rgb(50%,50%,50%);stroke-opacity:0.7;stroke-miterlimit:3.25;" d="M 113.617188 101.15625 L 122.753906 65.964844 " transform="matrix(1,0,0,1,-74,-13)"/>
<path style="fill:none;stroke-width:0.36;stroke-linecap:square;stroke-linejoin:miter;stroke:rgb(50%,50%,50%);stroke-opacity:0.7;stroke-miterlimit:3.25;" d="M 113.617188 101.15625 L 139.503906 124.554688 " transform="matrix(1,0,0,1,-74,-13)"/>
<path style="fill:none;stroke-width:0.36;stroke-linecap:square;stroke-linejoin:miter;stroke:rgb(50%,50%,50%);stroke-opacity:0.7;stroke-miterlimit:3.25;" d="M 113.617188 101.15625 L 109.308594 71.507812 " transform="matrix(1,0,0,1,-74,-13)"/>
<path style="fill:none;stroke-width:0.36;stroke-linecap:square;stroke-linejoin:miter;stroke:rgb(50%,50%,50%);stroke-opacity:0.7;stroke-miterlimit:3.25;" d="M 113.617188 101.15625 L 111.652344 111.195312 " transform="matrix(1,0,0,1,-74,-13)"/>
<path style="fill:none;stroke-width:0.36;stroke-linecap:square;stroke-linejoin:miter;stroke:rgb(50%,50%,50%);stroke-opacity:0.7;stroke-miterlimit:3.25;" d="M 113.617188 101.15625 L 80.492188 93.605469 " transform="matrix(1,0,0,1,-74,-13)"/>
<path style="fill:none;stroke-width:0.36;stroke-linecap:square;stroke-linejoin:miter;stroke:rgb(50%,50%,50%);stroke-opacity:0.7;stroke-miterlimit:3.25;" d="M 113.617188 101.15625 L 91.746094 72.855469 " transform="matrix(1,0,0,1,-74,-13)"/>
<path style="fill:none;stroke-width:0.36;stroke-linecap:square;stroke-linejoin:miter;stroke:rgb(50%,50%,50%);stroke-opacity:0.7;stroke-miterlimit:3.25;" d="M 239.507812 42.960938 L 226.429688 77.695312 " transform="matrix(1,0,0,1,-74,-13)"/>
<path style="fill:none;stroke-width:0.36;stroke-linecap:square;stroke-linejoin:miter;stroke:rgb(50%,50%,50%);stroke-opacity:0.7;stroke-miterlimit:3.25;" d="M 239.507812 42.960938 L 224.984375 58.230469 " transform="matrix(1,0,0,1,-74,-13)"/>
<path style="fill:none;stroke-width:0.36;stroke-linecap:square;stroke-linejoin:miter;stroke:rgb(50%,50%,50%);stroke-opacity:0.7;stroke-miterlimit:3.25;" d="M 239.507812 42.960938 L 250.828125 75.996094 " transform="matrix(1,0,0,1,-74,-13)"/>
<path style="fill:none;stroke-width:0.36;stroke-linecap:square;stroke-linejoin:miter;stroke:rgb(50%,50%,50%);stroke-opacity:0.7;stroke-miterlimit:3.25;" d="M 316.882812 91.34375 L 323.660156 81.105469 " transform="matrix(1,0,0,1,-74,-13)"/>
<path style="fill:none;stroke-width:0.36;stroke-linecap:square;stroke-linejoin:miter;stroke:rgb(50%,50%,50%);stroke-opacity:0.7;stroke-miterlimit:3.25;" d="M 316.882812 91.34375 L 312 82.25 " transform="matrix(1,0,0,1,-74,-13)"/>
<path style="fill:none;stroke-width:0.36;stroke-linecap:square;stroke-linejoin:miter;stroke:rgb(50%,50%,50%);stroke-opacity:0.7;stroke-miterlimit:3.25;" d="M 122.753906 65.964844 L 109.308594 71.507812 " transform="matrix(1,0,0,1,-74,-13)"/>
<path style="fill:none;stroke-width:0.36;stroke-linecap:square;stroke-linejoin:miter;stroke:rgb(50%,50%,50%);stroke-opacity:0.7;stroke-miterlimit:3.25;" d="M 122.753906 65.964844 L 91.746094 72.855469 " transform="matrix(1,0,0,1,-74,-13)"/>
<path style="fill:none;stroke-width:0.36;stroke-linecap:square;stroke-linejoin:miter;stroke:rgb(50%,50%,50%);stroke-opacity:0.7;stroke-miterlimit:3.25;" d="M 173.644531 234.140625 L 172.015625 215.195312 " transform="matrix(1,0,0,1,-74,-13)"/>
<path style="fill:none;stroke-width:0.36;stroke-linecap:square;stroke-linejoin:miter;stroke:rgb(50%,50%,50%);stroke-opacity:0.7;stroke-miterlimit:3.25;" d="M 173.644531 234.140625 L 201.40625 208.863281 " transform="matrix(1,0,0,1,-74,-13)"/>
<path style="fill:none;stroke-width:0.36;stroke-linecap:square;stroke-linejoin:miter;stroke:rgb(50%,50%,50%);stroke-opacity:0.7;stroke-miterlimit:3.25;" d="M 209.523438 79.613281 L 192.808594 44.191406 " transform="matrix(1,0,0,1,-74,-13)"/>
<path style="fill:none;stroke-width:0.36;stroke-linecap:square;stroke-linejoin:miter;stroke:rgb(50%,50%,50%);stroke-opacity:0.7;stroke-miterlimit:3.25;" d="M 209.523438 79.613281 L 226.429688 77.695312 " transform="matrix(1,0,0,1,-74,-13)"/>
<path style="fill:none;stroke-width:0.36;stroke-linecap:square;stroke-linejoin:miter;stroke:rgb(50%,50%,50%);stroke-opacity:0.7;stroke-miterlimit:3.25;" d="M 209.523438 79.613281 L 224.984375 58.230469 " transform="matrix(1,0,0,1,-74,-13)"/>
<path style="fill:none;stroke-width:0.36;stroke-linecap:square;stroke-linejoin:miter;stroke:rgb(50%,50%,50%);stroke-opacity:0.7;stroke-miterlimit:3.25;" d="M 139.503906 124.554688 L 111.652344 111.195312 " transform="matrix(1,0,0,1,-74,-13)"/>
<path style="fill:none;stroke-width:0.36;stroke-linecap:square;stroke-linejoin:miter;stroke:rgb(50%,50%,50%);stroke-opacity:0.7;stroke-miterlimit:3.25;" d="M 139.503906 124.554688 L 142.945312 162.449219 " transform="matrix(1,0,0,1,-74,-13)"/>
<path style="fill:none;stroke-width:0.36;stroke-linecap:square;stroke-linejoin:miter;stroke:rgb(50%,50%,50%);stroke-opacity:0.7;stroke-miterlimit:3.25;" d="M 139.503906 124.554688 L 107.199219 143.175781 " transform="matrix(1,0,0,1,-74,-13)"/>
<path style="fill:none;stroke-width:0.36;stroke-linecap:square;stroke-linejoin:miter;stroke:rgb(50%,50%,50%);stroke-opacity:0.7;stroke-miterlimit:3.25;" d="M 109.308594 71.507812 L 111.652344 111.195312 " transform="matrix(1,0,0,1,-74,-13)"/>
<path style="fill:none;stroke-width:0.36;stroke-linecap:square;stroke-linejoin:miter;stroke:rgb(50%,50%,50%);stroke-opacity:0.7;stroke-miterlimit:3.25;" d="M 109.308594 71.507812 L 80.492188 93.605469 " transform="matrix(1,0,0,1,-74,-13)"/>
<path style="fill:none;stroke-width:0.36;stroke-linecap:square;stroke-linejoin:miter;stroke:rgb(50%,50%,50%);stroke-opacity:0.7;stroke-miterlimit:3.25;" d="M 109.308594 71.507812 L 91.746094 72.855469 " transform="matrix(1,0,0,1,-74,-13)"/>
<path style="fill:none;stroke-width:0.36;stroke-linecap:square;stroke-linejoin:miter;stroke:rgb(50%,50%,50%);stroke-opacity:0.7;stroke-miterlimit:3.25;" d="M 111.652344 111.195312 L 80.492188 93.605469 " transform="matrix(1,0,0,1,-74,-13)"/>
<path style="fill:none;stroke-width:0.36;stroke-linecap:square;stroke-linejoin:miter;stroke:rgb(50%,50%,50%);stroke-opacity:0.7;stroke-miterlimit:3.25;" d="M 111.652344 111.195312 L 107.199219 143.175781 " transform="matrix(1,0,0,1,-74,-13)"/>
<path style="fill:none;stroke-width:0.36;stroke-linecap:square;stroke-linejoin:miter;stroke:rgb(50%,50%,50%);stroke-opacity:0.7;stroke-miterlimit:3.25;" d="M 127.425781 227.25 L 105.273438 209.421875 " transform="matrix(1,0,0,1,-74,-13)"/>
<path style="fill:none;stroke-width:0.36;stroke-linecap:square;stroke-linejoin:miter;stroke:rgb(50%,50%,50%);stroke-opacity:0.7;stroke-miterlimit:3.25;" d="M 127.425781 227.25 L 138.019531 198.222656 " transform="matrix(1,0,0,1,-74,-13)"/>
<path style="fill:none;stroke-width:0.36;stroke-linecap:square;stroke-linejoin:miter;stroke:rgb(50%,50%,50%);stroke-opacity:0.7;stroke-miterlimit:3.25;" d="M 192.808594 44.191406 L 224.984375 58.230469 " transform="matrix(1,0,0,1,-74,-13)"/>
<path style="fill:none;stroke-width:0.36;stroke-linecap:square;stroke-linejoin:miter;stroke:rgb(50%,50%,50%);stroke-opacity:0.7;stroke-miterlimit:3.25;" d="M 172.015625 215.195312 L 201.40625 208.863281 " transform="matrix(1,0,0,1,-74,-13)"/>
<path style="fill:none;stroke-width:0.36;stroke-linecap:square;stroke-linejoin:miter;stroke:rgb(50%,50%,50%);stroke-opacity:0.7;stroke-miterlimit:3.25;" d="M 172.015625 215.195312 L 138.019531 198.222656 " transform="matrix(1,0,0,1,-74,-13)"/>
<path style="fill:none;stroke-width:0.36;stroke-linecap:square;stroke-linejoin:miter;stroke:rgb(50%,50%,50%);stroke-opacity:0.7;stroke-miterlimit:3.25;" d="M 250.96875 141.847656 L 279.011719 140.550781 " transform="matrix(1,0,0,1,-74,-13)"/>
<path style="fill:none;stroke-width:0.36;stroke-linecap:square;stroke-linejoin:miter;stroke:rgb(50%,50%,50%);stroke-opacity:0.7;stroke-miterlimit:3.25;" d="M 250.96875 141.847656 L 266.285156 152.164062 " transform="matrix(1,0,0,1,-74,-13)"/>
<path style="fill:none;stroke-width:0.36;stroke-linecap:square;stroke-linejoin:miter;stroke:rgb(50%,50%,50%);stroke-opacity:0.7;stroke-miterlimit:3.25;" d="M 250.96875 141.847656 L 260.398438 143.035156 " transform="matrix(1,0,0,1,-74,-13)"/>
<path style="fill:none;stroke-width:0.36;stroke-linecap:square;stroke-linejoin:miter;stroke:rgb(50%,50%,50%);stroke-opacity:0.7;stroke-miterlimit:3.25;" d="M 132.160156 169.550781 L 142.945312 162.449219 " transform="matrix(1,0,0,1,-74,-13)"/>
<path style="fill:none;stroke-width:0.36;stroke-linecap:square;stroke-linejoin:miter;stroke:rgb(50%,50%,50%);stroke-opacity:0.7;stroke-miterlimit:3.25;" d="M 132.160156 169.550781 L 107.199219 143.175781 " transform="matrix(1,0,0,1,-74,-13)"/>
<path style="fill:none;stroke-width:0.36;stroke-linecap:square;stroke-linejoin:miter;stroke:rgb(50%,50%,50%);stroke-opacity:0.7;stroke-miterlimit:3.25;" d="M 132.160156 169.550781 L 138.019531 198.222656 " transform="matrix(1,0,0,1,-74,-13)"/>
<path style="fill:none;stroke-width:0.36;stroke-linecap:square;stroke-linejoin:miter;stroke:rgb(50%,50%,50%);stroke-opacity:0.7;stroke-miterlimit:3.25;" d="M 326.6875 21.777344 L 315.0625 42.882812 " transform="matrix(1,0,0,1,-74,-13)"/>
<path style="fill:none;stroke-width:0.36;stroke-linecap:square;stroke-linejoin:miter;stroke:rgb(50%,50%,50%);stroke-opacity:0.7;stroke-miterlimit:3.25;" d="M 142.945312 162.449219 L 138.019531 198.222656 " transform="matrix(1,0,0,1,-74,-13)"/>
<path style="fill:none;stroke-width:0.36;stroke-linecap:square;stroke-linejoin:miter;stroke:rgb(50%,50%,50%);stroke-opacity:0.7;stroke-miterlimit:3.25;" d="M 323.660156 81.105469 L 312 82.25 " transform="matrix(1,0,0,1,-74,-13)"/>
<path style="fill:none;stroke-width:0.36;stroke-linecap:square;stroke-linejoin:miter;stroke:rgb(50%,50%,50%);stroke-opacity:0.7;stroke-miterlimit:3.25;" d="M 323.660156 81.105469 L 315.0625 42.882812 " transform="matrix(1,0,0,1,-74,-13)"/>
<path style="fill:none;stroke-width:0.36;stroke-linecap:square;stroke-linejoin:miter;stroke:rgb(50%,50%,50%);stroke-opacity:0.7;stroke-miterlimit:3.25;" d="M 288.601562 126.964844 L 279.011719 140.550781 " transform="matrix(1,0,0,1,-74,-13)"/>
<path style="fill:none;stroke-width:0.36;stroke-linecap:square;stroke-linejoin:miter;stroke:rgb(50%,50%,50%);stroke-opacity:0.7;stroke-miterlimit:3.25;" d="M 288.601562 126.964844 L 266.285156 152.164062 " transform="matrix(1,0,0,1,-74,-13)"/>
<path style="fill:none;stroke-width:0.36;stroke-linecap:square;stroke-linejoin:miter;stroke:rgb(50%,50%,50%);stroke-opacity:0.7;stroke-miterlimit:3.25;" d="M 288.601562 126.964844 L 302.863281 153.425781 " transform="matrix(1,0,0,1,-74,-13)"/>
<path style="fill:none;stroke-width:0.36;stroke-linecap:square;stroke-linejoin:miter;stroke:rgb(50%,50%,50%);stroke-opacity:0.7;stroke-miterlimit:3.25;" d="M 288.601562 126.964844 L 260.398438 143.035156 " transform="matrix(1,0,0,1,-74,-13)"/>
<path style="fill:none;stroke-width:0.36;stroke-linecap:square;stroke-linejoin:miter;stroke:rgb(50%,50%,50%);stroke-opacity:0.7;stroke-miterlimit:3.25;" d="M 288.601562 126.964844 L 300.71875 154.140625 " transform="matrix(1,0,0,1,-74,-13)"/>
<path style="fill:none;stroke-width:0.36;stroke-linecap:square;stroke-linejoin:miter;stroke:rgb(50%,50%,50%);stroke-opacity:0.7;stroke-miterlimit:3.25;" d="M 312 82.25 L 315.0625 42.882812 " transform="matrix(1,0,0,1,-74,-13)"/>
<path style="fill:none;stroke-width:0.36;stroke-linecap:square;stroke-linejoin:miter;stroke:rgb(50%,50%,50%);stroke-opacity:0.7;stroke-miterlimit:3.25;" d="M 80.492188 93.605469 L 91.746094 72.855469 " transform="matrix(1,0,0,1,-74,-13)"/>
<path style="fill:none;stroke-width:0.36;stroke-linecap:square;stroke-linejoin:miter;stroke:rgb(50%,50%,50%);stroke-opacity:0.7;stroke-miterlimit:3.25;" d="M 279.011719 140.550781 L 266.285156 152.164062 " transform="matrix(1,0,0,1,-74,-13)"/>
<path style="fill:none;stroke-width:0.36;stroke-linecap:square;stroke-linejoin:miter;stroke:rgb(50%,50%,50%);stroke-opacity:0.7;stroke-miterlimit:3.25;" d="M 279.011719 140.550781 L 302.863281 153.425781 " transform="matrix(1,0,0,1,-74,-13)"/>
<path style="fill:none;stroke-width:0.36;stroke-linecap:square;stroke-linejoin:miter;stroke:rgb(50%,50%,50%);stroke-opacity:0.7;stroke-miterlimit:3.25;" d="M 279.011719 140.550781 L 260.398438 143.035156 " transform="matrix(1,0,0,1,-74,-13)"/>
<path style="fill:none;stroke-width:0.36;stroke-linecap:square;stroke-linejoin:miter;stroke:rgb(50%,50%,50%);stroke-opacity:0.7;stroke-miterlimit:3.25;" d="M 279.011719 140.550781 L 300.71875 154.140625 " transform="matrix(1,0,0,1,-74,-13)"/>
<path style="fill:none;stroke-width:0.36;stroke-linecap:square;stroke-linejoin:miter;stroke:rgb(50%,50%,50%);stroke-opacity:0.7;stroke-miterlimit:3.25;" d="M 105.273438 209.421875 L 138.019531 198.222656 " transform="matrix(1,0,0,1,-74,-13)"/>
<path style="fill:none;stroke-width:0.36;stroke-linecap:square;stroke-linejoin:miter;stroke:rgb(50%,50%,50%);stroke-opacity:0.7;stroke-miterlimit:3.25;" d="M 226.429688 77.695312 L 224.984375 58.230469 " transform="matrix(1,0,0,1,-74,-13)"/>
<path style="fill:none;stroke-width:0.36;stroke-linecap:square;stroke-linejoin:miter;stroke:rgb(50%,50%,50%);stroke-opacity:0.7;stroke-miterlimit:3.25;" d="M 226.429688 77.695312 L 250.828125 75.996094 " transform="matrix(1,0,0,1,-74,-13)"/>
<path style="fill:none;stroke-width:0.36;stroke-linecap:square;stroke-linejoin:miter;stroke:rgb(50%,50%,50%);stroke-opacity:0.7;stroke-miterlimit:3.25;" d="M 266.285156 152.164062 L 302.863281 153.425781 " transform="matrix(1,0,0,1,-74,-13)"/>
<path style="fill:none;stroke-width:0.36;stroke-linecap:square;stroke-linejoin:miter;stroke:rgb(50%,50%,50%);stroke-opacity:0.7;stroke-miterlimit:3.25;" d="M 266.285156 152.164062 L 260.398438 143.035156 " transform="matrix(1,0,0,1,-74,-13)"/>
<path style="fill:none;stroke-width:0.36;stroke-linecap:square;stroke-linejoin:miter;stroke:rgb(50%,50%,50%);stroke-opacity:0.7;stroke-miterlimit:3.25;" d="M 266.285156 152.164062 L 300.71875 154.140625 " transform="matrix(1,0,0,1,-74,-13)"/>
<path style="fill:none;stroke-width:0.36;stroke-linecap:square;stroke-linejoin:miter;stroke:rgb(50%,50%,50%);stroke-opacity:0.7;stroke-miterlimit:3.25;" d="M 224.984375 58.230469 L 250.828125 75.996094 " transform="matrix(1,0,0,1,-74,-13)"/>
<path style="fill:none;stroke-width:0.36;stroke-linecap:square;stroke-linejoin:miter;stroke:rgb(50%,50%,50%);stroke-opacity:0.7;stroke-miterlimit:3.25;" d="M 302.863281 153.425781 L 300.71875 154.140625 " transform="matrix(1,0,0,1,-74,-13)"/>
<path style="fill-rule:evenodd;fill:rgb(50%,50%,50%);fill-opacity:0.6;stroke-width:0.36;stroke-linecap:square;stroke-linejoin:miter;stroke:rgb(0%,0%,0%);stroke-opacity:0.7;stroke-miterlimit:3.25;" d="M 284.3125 199.800781 C 284.3125 199.449219 284.175781 199.117188 283.929688 198.871094 C 283.679688 198.625 283.347656 198.484375 283 198.484375 C 282.652344 198.484375 282.316406 198.625 282.070312 198.871094 C 281.824219 199.117188 281.6875 199.449219 281.6875 199.800781 C 281.6875 200.148438 281.824219 200.480469 282.070312 200.726562 C 282.316406 200.972656 282.652344 201.113281 283 201.113281 C 283.347656 201.113281 283.679688 200.972656 283.929688 200.726562 C 284.175781 200.480469 284.3125 200.148438 284.3125 199.800781 Z M 284.3125 199.800781 " transform="matrix(1,0,0,1,-74,-13)"/>
<path style="fill-rule:evenodd;fill:rgb(50%,50%,50%);fill-opacity:0.6;stroke-width:0.36;stroke-linecap:square;stroke-linejoin:miter;stroke:rgb(0%,0%,0%);stroke-opacity:0.7;stroke-miterlimit:3.25;" d="M 229.609375 136.351562 C 229.609375 136.015625 229.476562 135.695312 229.238281 135.457031 C 229.003906 135.222656 228.679688 135.089844 228.347656 135.089844 C 228.011719 135.089844 227.691406 135.222656 227.453125 135.457031 C 227.21875 135.695312 227.085938 136.015625 227.085938 136.351562 C 227.085938 136.683594 227.21875 137.003906 227.453125 137.242188 C 227.691406 137.480469 228.011719 137.613281 228.347656 137.613281 C 228.679688 137.613281 229.003906 137.480469 229.238281 137.242188 C 229.476562 137.003906 229.609375 136.683594 229.609375 136.351562 Z M 229.609375 136.351562 " transform="matrix(1,0,0,1,-74,-13)"/>
<path style="fill-rule:evenodd;fill:rgb(50%,50%,50%);fill-opacity:0.6;stroke-width:0.36;stroke-linecap:square;stroke-linejoin:miter;stroke:rgb(0%,0%,0%);stroke-opacity:0.7;stroke-miterlimit:3.25;" d="M 325.371094 146.125 C 325.371094 145.777344 325.234375 145.445312 324.988281 145.199219 C 324.742188 144.953125 324.410156 144.816406 324.0625 144.816406 C 323.714844 144.816406 323.382812 144.953125 323.136719 145.199219 C 322.890625 145.445312 322.753906 145.777344 322.753906 146.125 C 322.753906 146.472656 322.890625 146.804688 323.136719 147.050781 C 323.382812 147.296875 323.714844 147.433594 324.0625 147.433594 C 324.410156 147.433594 324.742188 147.296875 324.988281 147.050781 C 325.234375 146.804688 325.371094 146.472656 325.371094 146.125 Z M 325.371094 146.125 " transform="matrix(1,0,0,1,-74,-13)"/>
<path style="fill-rule:evenodd;fill:rgb(50%,50%,50%);fill-opacity:0.6;stroke-width:0.36;stroke-linecap:square;stroke-linejoin:miter;stroke:rgb(0%,0%,0%);stroke-opacity:0.7;stroke-miterlimit:3.25;" d="M 191.121094 206.945312 C 191.121094 206.601562 190.984375 206.277344 190.746094 206.035156 C 190.503906 205.796875 190.175781 205.660156 189.835938 205.660156 C 189.496094 205.660156 189.171875 205.796875 188.929688 206.035156 C 188.6875 206.277344 188.554688 206.601562 188.554688 206.945312 C 188.554688 207.285156 188.6875 207.609375 188.929688 207.851562 C 189.171875 208.09375 189.496094 208.226562 189.835938 208.226562 C 190.175781 208.226562 190.503906 208.09375 190.746094 207.851562 C 190.984375 207.609375 191.121094 207.285156 191.121094 206.945312 Z M 191.121094 206.945312 " transform="matrix(1,0,0,1,-74,-13)"/>
<path style="fill-rule:evenodd;fill:rgb(50%,50%,50%);fill-opacity:0.6;stroke-width:0.36;stroke-linecap:square;stroke-linejoin:miter;stroke:rgb(0%,0%,0%);stroke-opacity:0.7;stroke-miterlimit:3.25;" d="M 273.527344 203.671875 C 273.527344 203.328125 273.390625 202.996094 273.148438 202.753906 C 272.90625 202.507812 272.574219 202.371094 272.230469 202.371094 C 271.886719 202.371094 271.554688 202.507812 271.3125 202.753906 C 271.066406 202.996094 270.929688 203.328125 270.929688 203.671875 C 270.929688 204.015625 271.066406 204.347656 271.3125 204.589844 C 271.554688 204.832031 271.886719 204.96875 272.230469 204.96875 C 272.574219 204.96875 272.90625 204.832031 273.148438 204.589844 C 273.390625 204.347656 273.527344 204.015625 273.527344 203.671875 Z M 273.527344 203.671875 " transform="matrix(1,0,0,1,-74,-13)"/>
<path style="fill-rule:evenodd;fill:rgb(50%,50%,50%);fill-opacity:0.6;stroke-width:0.36;stroke-linecap:square;stroke-linejoin:miter;stroke:rgb(0%,0%,0%);stroke-opacity:0.7;stroke-miterlimit:3.25;" d="M 101.171875 239.851562 C 101.171875 239.519531 101.039062 239.203125 100.804688 238.96875 C 100.570312 238.734375 100.253906 238.605469 99.925781 238.605469 C 99.59375 238.605469 99.277344 238.734375 99.042969 238.96875 C 98.808594 239.203125 98.679688 239.519531 98.679688 239.851562 C 98.679688 240.179688 98.808594 240.496094 99.042969 240.730469 C 99.277344 240.964844 99.59375 241.097656 99.925781 241.097656 C 100.253906 241.097656 100.570312 240.964844 100.804688 240.730469 C 101.039062 240.496094 101.171875 240.179688 101.171875 239.851562 Z M 101.171875 239.851562 " transform="matrix(1,0,0,1,-74,-13)"/>
<path style="fill-rule:evenodd;fill:rgb(50%,50%,50%);fill-opacity:0.6;stroke-width:0.36;stroke-linecap:square;stroke-linejoin:miter;stroke:rgb(0%,0%,0%);stroke-opacity:0.7;stroke-miterlimit:3.25;" d="M 221.015625 254.910156 C 221.015625 254.566406 220.878906 254.238281 220.636719 253.996094 C 220.394531 253.753906 220.066406 253.617188 219.726562 253.617188 C 219.382812 253.617188 219.054688 253.753906 218.8125 253.996094 C 218.570312 254.238281 218.433594 254.566406 218.433594 254.910156 C 218.433594 255.25 218.570312 255.578125 218.8125 255.820312 C 219.054688 256.0625 219.382812 256.199219 219.726562 256.199219 C 220.066406 256.199219 220.394531 256.0625 220.636719 255.820312 C 220.878906 255.578125 221.015625 255.25 221.015625 254.910156 Z M 221.015625 254.910156 " transform="matrix(1,0,0,1,-74,-13)"/>
<path style="fill-rule:evenodd;fill:rgb(50%,50%,50%);fill-opacity:0.6;stroke-width:0.36;stroke-linecap:square;stroke-linejoin:miter;stroke:rgb(0%,0%,0%);stroke-opacity:0.7;stroke-miterlimit:3.25;" d="M 136.695312 188.761719 C 136.695312 188.410156 136.554688 188.070312 136.308594 187.820312 C 136.058594 187.570312 135.71875 187.433594 135.367188 187.433594 C 135.015625 187.433594 134.675781 187.570312 134.429688 187.820312 C 134.179688 188.070312 134.039062 188.410156 134.039062 188.761719 C 134.039062 189.113281 134.179688 189.449219 134.429688 189.699219 C 134.675781 189.949219 135.015625 190.089844 135.367188 190.089844 C 135.71875 190.089844 136.058594 189.949219 136.308594 189.699219 C 136.554688 189.449219 136.695312 189.113281 136.695312 188.761719 Z M 136.695312 188.761719 " transform="matrix(1,0,0,1,-74,-13)"/>
<path style="fill-rule:evenodd;fill:rgb(50%,50%,50%);fill-opacity:0.6;stroke-width:0.36;stroke-linecap:square;stroke-linejoin:miter;stroke:rgb(0%,0%,0%);stroke-opacity:0.7;stroke-miterlimit:3.25;" d="M 152.367188 34.167969 C 152.367188 33.84375 152.238281 33.535156 152.011719 33.304688 C 151.78125 33.074219 151.46875 32.945312 151.144531 32.945312 C 150.820312 32.945312 150.507812 33.074219 150.28125 33.304688 C 150.050781 33.535156 149.921875 33.84375 149.921875 34.167969 C 149.921875 34.492188 150.050781 34.804688 150.28125 35.035156 C 150.507812 35.261719 150.820312 35.390625 151.144531 35.390625 C 151.46875 35.390625 151.78125 35.261719 152.011719 35.035156 C 152.238281 34.804688 152.367188 34.492188 152.367188 34.167969 Z M 152.367188 34.167969 " transform="matrix(1,0,0,1,-74,-13)"/>
<path style="fill-rule:evenodd;fill:rgb(50%,50%,50%);fill-opacity:0.6;stroke-width:0.36;stroke-linecap:square;stroke-linejoin:miter;stroke:rgb(0%,0%,0%);stroke-opacity:0.7;stroke-miterlimit:3.25;" d="M 256.816406 153.109375 C 256.816406 152.789062 256.6875 152.488281 256.464844 152.261719 C 256.238281 152.039062 255.9375 151.910156 255.617188 151.910156 C 255.300781 151.910156 254.996094 152.039062 254.773438 152.261719 C 254.546875 152.488281 254.421875 152.789062 254.421875 153.109375 C 254.421875 153.425781 254.546875 153.730469 254.773438 153.953125 C 254.996094 154.179688 255.300781 154.304688 255.617188 154.304688 C 255.9375 154.304688 256.238281 154.179688 256.464844 153.953125 C 256.6875 153.730469 256.816406 153.425781 256.816406 153.109375 Z M 256.816406 153.109375 " transform="matrix(1,0,0,1,-74,-13)"/>
<path style="fill-rule:evenodd;fill:rgb(50%,50%,50%);fill-opacity:0.6;stroke-width:0.36;stroke-linecap:square;stroke-linejoin:miter;stroke:rgb(0%,0%,0%);stroke-opacity:0.7;stroke-miterlimit:3.25;" d="M 258.214844 172.074219 C 258.214844 171.730469 258.078125 171.398438 257.832031 171.152344 C 257.585938 170.90625 257.253906 170.769531 256.910156 170.769531 C 256.5625 170.769531 256.230469 170.90625 255.988281 171.152344 C 255.742188 171.398438 255.605469 171.730469 255.605469 172.074219 C 255.605469 172.421875 255.742188 172.753906 255.988281 172.996094 C 256.230469 173.242188 256.5625 173.378906 256.910156 173.378906 C 257.253906 173.378906 257.585938 173.242188 257.832031 172.996094 C 258.078125 172.753906 258.214844 172.421875 258.214844 172.074219 Z M 258.214844 172.074219 " transform="matrix(1,0,0,1,-74,-13)"/>
<path style="fill-rule:evenodd;fill:rgb(50%,50%,50%);fill-opacity:0.6;stroke-width:0.36;stroke-linecap:square;stroke-linejoin:miter;stroke:rgb(0%,0%,0%);stroke-opacity:0.7;stroke-miterlimit:3.25;" d="M 108.484375 189.570312 C 108.484375 189.242188 108.351562 188.925781 108.121094 188.695312 C 107.886719 188.460938 107.570312 188.332031 107.242188 188.332031 C 106.914062 188.332031 106.597656 188.460938 106.363281 188.695312 C 106.132812 188.925781 106 189.242188 106 189.570312 C 106 189.902344 106.132812 190.214844 106.363281 190.449219 C 106.597656 190.679688 106.914062 190.8125 107.242188 190.8125 C 107.570312 190.8125 107.886719 190.679688 108.121094 190.449219 C 108.351562 190.214844 108.484375 189.902344 108.484375 189.570312 Z M 108.484375 189.570312 " transform="matrix(1,0,0,1,-74,-13)"/>
<path style="fill-rule:evenodd;fill:rgb(50%,50%,50%);fill-opacity:0.6;stroke-width:0.36;stroke-linecap:square;stroke-linejoin:miter;stroke:rgb(0%,0%,0%);stroke-opacity:0.7;stroke-miterlimit:3.25;" d="M 120.445312 161.605469 C 120.445312 161.300781 120.324219 161.003906 120.105469 160.785156 C 119.890625 160.570312 119.59375 160.445312 119.285156 160.445312 C 118.980469 160.445312 118.683594 160.570312 118.464844 160.785156 C 118.25 161.003906 118.125 161.300781 118.125 161.605469 C 118.125 161.914062 118.25 162.210938 118.464844 162.425781 C 118.683594 162.644531 118.980469 162.765625 119.285156 162.765625 C 119.59375 162.765625 119.890625 162.644531 120.105469 162.425781 C 120.324219 162.210938 120.445312 161.914062 120.445312 161.605469 Z M 120.445312 161.605469 " transform="matrix(1,0,0,1,-74,-13)"/>
<path style="fill-rule:evenodd;fill:rgb(50%,50%,50%);fill-opacity:0.6;stroke-width:0.36;stroke-linecap:square;stroke-linejoin:miter;stroke:rgb(0%,0%,0%);stroke-opacity:0.7;stroke-miterlimit:3.25;" d="M 114.8125 101.15625 C 114.8125 100.839844 114.6875 100.539062 114.460938 100.3125 C 114.238281 100.089844 113.933594 99.964844 113.617188 99.964844 C 113.300781 99.964844 112.996094 100.089844 112.773438 100.3125 C 112.550781 100.539062 112.425781 100.839844 112.425781 101.15625 C 112.425781 101.472656 112.550781 101.777344 112.773438 102 C 112.996094 102.226562 113.300781 102.351562 113.617188 102.351562 C 113.933594 102.351562 114.238281 102.226562 114.460938 102 C 114.6875 101.777344 114.8125 101.472656 114.8125 101.15625 Z M 114.8125 101.15625 " transform="matrix(1,0,0,1,-74,-13)"/>
<path style="fill-rule:evenodd;fill:rgb(50%,50%,50%);fill-opacity:0.6;stroke-width:0.36;stroke-linecap:square;stroke-linejoin:miter;stroke:rgb(0%,0%,0%);stroke-opacity:0.7;stroke-miterlimit:3.25;" d="M 240.667969 42.960938 C 240.667969 42.652344 240.546875 42.359375 240.328125 42.140625 C 240.113281 41.921875 239.816406 41.800781 239.507812 41.800781 C 239.203125 41.800781 238.90625 41.921875 238.6875 42.140625 C 238.472656 42.359375 238.347656 42.652344 238.347656 42.960938 C 238.347656 43.269531 238.472656 43.5625 238.6875 43.78125 C 238.90625 44 239.203125 44.121094 239.507812 44.121094 C 239.816406 44.121094 240.113281 44 240.328125 43.78125 C 240.546875 43.5625 240.667969 43.269531 240.667969 42.960938 Z M 240.667969 42.960938 " transform="matrix(1,0,0,1,-74,-13)"/>
<path style="fill-rule:evenodd;fill:rgb(50%,50%,50%);fill-opacity:0.6;stroke-width:0.36;stroke-linecap:square;stroke-linejoin:miter;stroke:rgb(0%,0%,0%);stroke-opacity:0.7;stroke-miterlimit:3.25;" d="M 318.191406 91.34375 C 318.191406 90.996094 318.050781 90.664062 317.808594 90.417969 C 317.5625 90.171875 317.230469 90.035156 316.882812 90.035156 C 316.535156 90.035156 316.199219 90.171875 315.957031 90.417969 C 315.710938 90.664062 315.570312 90.996094 315.570312 91.34375 C 315.570312 91.691406 315.710938 92.023438 315.957031 92.269531 C 316.199219 92.515625 316.535156 92.652344 316.882812 92.652344 C 317.230469 92.652344 317.5625 92.515625 317.808594 92.269531 C 318.050781 92.023438 318.191406 91.691406 318.191406 91.34375 Z M 318.191406 91.34375 " transform="matrix(1,0,0,1,-74,-13)"/>
<path style="fill-rule:evenodd;fill:rgb(50%,50%,50%);fill-opacity:0.6;stroke-width:0.36;stroke-linecap:square;stroke-linejoin:miter;stroke:rgb(0%,0%,0%);stroke-opacity:0.7;stroke-miterlimit:3.25;" d="M 123.90625 65.964844 C 123.90625 65.660156 123.785156 65.367188 123.566406 65.152344 C 123.351562 64.9375 123.058594 64.8125 122.753906 64.8125 C 122.449219 64.8125 122.15625 64.9375 121.9375 65.152344 C 121.722656 65.367188 121.601562 65.660156 121.601562 65.964844 C 121.601562 66.273438 121.722656 66.566406 121.9375 66.78125 C 122.15625 66.996094 122.449219 67.117188 122.753906 67.117188 C 123.058594 67.117188 123.351562 66.996094 123.566406 66.78125 C 123.785156 66.566406 123.90625 66.273438 123.90625 65.964844 Z M 123.90625 65.964844 " transform="matrix(1,0,0,1,-74,-13)"/>
<path style="fill-rule:evenodd;fill:rgb(50%,50%,50%);fill-opacity:0.6;stroke-width:0.36;stroke-linecap:square;stroke-linejoin:miter;stroke:rgb(0%,0%,0%);stroke-opacity:0.7;stroke-miterlimit:3.25;" d="M 174.953125 234.140625 C 174.953125 233.796875 174.8125 233.464844 174.570312 233.21875 C 174.324219 232.972656 173.992188 232.835938 173.644531 232.835938 C 173.300781 232.835938 172.964844 232.972656 172.722656 233.21875 C 172.476562 233.464844 172.339844 233.796875 172.339844 234.140625 C 172.339844 234.488281 172.476562 234.820312 172.722656 235.066406 C 172.964844 235.3125 173.300781 235.449219 173.644531 235.449219 C 173.992188 235.449219 174.324219 235.3125 174.570312 235.066406 C 174.8125 234.820312 174.953125 234.488281 174.953125 234.140625 Z M 174.953125 234.140625 " transform="matrix(1,0,0,1,-74,-13)"/>
<path style="fill-rule:evenodd;fill:rgb(50%,50%,50%);fill-opacity:0.6;stroke-width:0.36;stroke-linecap:square;stroke-linejoin:miter;stroke:rgb(0%,0%,0%);stroke-opacity:0.7;stroke-miterlimit:3.25;" d="M 210.808594 79.613281 C 210.808594 79.273438 210.671875 78.945312 210.433594 78.703125 C 210.191406 78.464844 209.863281 78.328125 209.523438 78.328125 C 209.183594 78.328125 208.855469 78.464844 208.613281 78.703125 C 208.371094 78.945312 208.238281 79.273438 208.238281 79.613281 C 208.238281 79.953125 208.371094 80.28125 208.613281 80.523438 C 208.855469 80.765625 209.183594 80.898438 209.523438 80.898438 C 209.863281 80.898438 210.191406 80.765625 210.433594 80.523438 C 210.671875 80.28125 210.808594 79.953125 210.808594 79.613281 Z M 210.808594 79.613281 " transform="matrix(1,0,0,1,-74,-13)"/>
<path style="fill-rule:evenodd;fill:rgb(50%,50%,50%);fill-opacity:0.6;stroke-width:0.36;stroke-linecap:square;stroke-linejoin:miter;stroke:rgb(0%,0%,0%);stroke-opacity:0.7;stroke-miterlimit:3.25;" d="M 140.753906 124.554688 C 140.753906 124.226562 140.621094 123.910156 140.386719 123.675781 C 140.152344 123.441406 139.835938 123.308594 139.503906 123.308594 C 139.175781 123.308594 138.855469 123.441406 138.625 123.675781 C 138.390625 123.910156 138.257812 124.226562 138.257812 124.554688 C 138.257812 124.886719 138.390625 125.203125 138.625 125.4375 C 138.855469 125.671875 139.175781 125.804688 139.503906 125.804688 C 139.835938 125.804688 140.152344 125.671875 140.386719 125.4375 C 140.621094 125.203125 140.753906 124.886719 140.753906 124.554688 Z M 140.753906 124.554688 " transform="matrix(1,0,0,1,-74,-13)"/>
<path style="fill-rule:evenodd;fill:rgb(50%,50%,50%);fill-opacity:0.6;stroke-width:0.36;stroke-linecap:square;stroke-linejoin:miter;stroke:rgb(0%,0%,0%);stroke-opacity:0.7;stroke-miterlimit:3.25;" d="M 110.578125 71.507812 C 110.578125 71.171875 110.445312 70.847656 110.207031 70.609375 C 109.96875 70.371094 109.644531 70.238281 109.308594 70.238281 C 108.972656 70.238281 108.648438 70.371094 108.410156 70.609375 C 108.171875 70.847656 108.039062 71.171875 108.039062 71.507812 C 108.039062 71.84375 108.171875 72.167969 108.410156 72.40625 C 108.648438 72.644531 108.972656 72.777344 109.308594 72.777344 C 109.644531 72.777344 109.96875 72.644531 110.207031 72.40625 C 110.445312 72.167969 110.578125 71.84375 110.578125 71.507812 Z M 110.578125 71.507812 " transform="matrix(1,0,0,1,-74,-13)"/>
<path style="fill-rule:evenodd;fill:rgb(50%,50%,50%);fill-opacity:0.6;stroke-width:0.36;stroke-linecap:square;stroke-linejoin:miter;stroke:rgb(0%,0%,0%);stroke-opacity:0.7;stroke-miterlimit:3.25;" d="M 112.90625 111.195312 C 112.90625 110.863281 112.773438 110.542969 112.539062 110.308594 C 112.300781 110.074219 111.984375 109.941406 111.652344 109.941406 C 111.320312 109.941406 111 110.074219 110.765625 110.308594 C 110.527344 110.542969 110.398438 110.863281 110.398438 111.195312 C 110.398438 111.527344 110.527344 111.847656 110.765625 112.082031 C 111 112.316406 111.320312 112.449219 111.652344 112.449219 C 111.984375 112.449219 112.300781 112.316406 112.539062 112.082031 C 112.773438 111.847656 112.90625 111.527344 112.90625 111.195312 Z M 112.90625 111.195312 " transform="matrix(1,0,0,1,-74,-13)"/>
<path style="fill-rule:evenodd;fill:rgb(50%,50%,50%);fill-opacity:0.6;stroke-width:0.36;stroke-linecap:square;stroke-linejoin:miter;stroke:rgb(0%,0%,0%);stroke-opacity:0.7;stroke-miterlimit:3.25;" d="M 128.625 227.25 C 128.625 226.933594 128.5 226.625 128.273438 226.402344 C 128.050781 226.175781 127.746094 226.050781 127.425781 226.050781 C 127.109375 226.050781 126.804688 226.175781 126.578125 226.402344 C 126.351562 226.625 126.226562 226.933594 126.226562 227.25 C 126.226562 227.570312 126.351562 227.875 126.578125 228.097656 C 126.804688 228.324219 127.109375 228.449219 127.425781 228.449219 C 127.746094 228.449219 128.050781 228.324219 128.273438 228.097656 C 128.5 227.875 128.625 227.570312 128.625 227.25 Z M 128.625 227.25 " transform="matrix(1,0,0,1,-74,-13)"/>
<path style="fill-rule:evenodd;fill:rgb(50%,50%,50%);fill-opacity:0.6;stroke-width:0.36;stroke-linecap:square;stroke-linejoin:miter;stroke:rgb(0%,0%,0%);stroke-opacity:0.7;stroke-miterlimit:3.25;" d="M 194.0625 44.191406 C 194.0625 43.859375 193.929688 43.539062 193.695312 43.304688 C 193.460938 43.070312 193.140625 42.9375 192.808594 42.9375 C 192.476562 42.9375 192.15625 43.070312 191.921875 43.304688 C 191.6875 43.539062 191.554688 43.859375 191.554688 44.191406 C 191.554688 44.523438 191.6875 44.84375 191.921875 45.078125 C 192.15625 45.3125 192.476562 45.445312 192.808594 45.445312 C 193.140625 45.445312 193.460938 45.3125 193.695312 45.078125 C 193.929688 44.84375 194.0625 44.523438 194.0625 44.191406 Z M 194.0625 44.191406 " transform="matrix(1,0,0,1,-74,-13)"/>
<path style="fill-rule:evenodd;fill:rgb(50%,50%,50%);fill-opacity:0.6;stroke-width:0.36;stroke-linecap:square;stroke-linejoin:miter;stroke:rgb(0%,0%,0%);stroke-opacity:0.7;stroke-miterlimit:3.25;" d="M 278.003906 191.867188 C 278.003906 191.527344 277.867188 191.203125 277.628906 190.960938 C 277.386719 190.722656 277.0625 190.585938 276.722656 190.585938 C 276.382812 190.585938 276.058594 190.722656 275.816406 190.960938 C 275.578125 191.203125 275.441406 191.527344 275.441406 191.867188 C 275.441406 192.207031 275.578125 192.53125 275.816406 192.773438 C 276.058594 193.011719 276.382812 193.148438 276.722656 193.148438 C 277.0625 193.148438 277.386719 193.011719 277.628906 192.773438 C 277.867188 192.53125 278.003906 192.207031 278.003906 191.867188 Z M 278.003906 191.867188 " transform="matrix(1,0,0,1,-74,-13)"/>
<path style="fill-rule:evenodd;fill:rgb(50%,50%,50%);fill-opacity:0.6;stroke-width:0.36;stroke-linecap:square;stroke-linejoin:miter;stroke:rgb(0%,0%,0%);stroke-opacity:0.7;stroke-miterlimit:3.25;" d="M 173.234375 215.195312 C 173.234375 214.871094 173.105469 214.5625 172.875 214.335938 C 172.648438 214.105469 172.335938 213.976562 172.015625 213.976562 C 171.691406 213.976562 171.382812 214.105469 171.152344 214.335938 C 170.925781 214.5625 170.796875 214.871094 170.796875 215.195312 C 170.796875 215.519531 170.925781 215.828125 171.152344 216.054688 C 171.382812 216.285156 171.691406 216.414062 172.015625 216.414062 C 172.335938 216.414062 172.648438 216.285156 172.875 216.054688 C 173.105469 215.828125 173.234375 215.519531 173.234375 215.195312 Z M 173.234375 215.195312 " transform="matrix(1,0,0,1,-74,-13)"/>
<path style="fill-rule:evenodd;fill:rgb(50%,50%,50%);fill-opacity:0.6;stroke-width:0.36;stroke-linecap:square;stroke-linejoin:miter;stroke:rgb(0%,0%,0%);stroke-opacity:0.7;stroke-miterlimit:3.25;" d="M 252.28125 141.847656 C 252.28125 141.5 252.140625 141.164062 251.894531 140.917969 C 251.648438 140.671875 251.316406 140.535156 250.96875 140.535156 C 250.621094 140.535156 250.285156 140.671875 250.039062 140.917969 C 249.792969 141.164062 249.652344 141.5 249.652344 141.847656 C 249.652344 142.195312 249.792969 142.53125 250.039062 142.777344 C 250.285156 143.023438 250.621094 143.160156 250.96875 143.160156 C 251.316406 143.160156 251.648438 143.023438 251.894531 142.777344 C 252.140625 142.53125 252.28125 142.195312 252.28125 141.847656 Z M 252.28125 141.847656 " transform="matrix(1,0,0,1,-74,-13)"/>
<path style="fill-rule:evenodd;fill:rgb(50%,50%,50%);fill-opacity:0.6;stroke-width:0.36;stroke-linecap:square;stroke-linejoin:miter;stroke:rgb(0%,0%,0%);stroke-opacity:0.7;stroke-miterlimit:3.25;" d="M 133.480469 169.550781 C 133.480469 169.199219 133.339844 168.863281 133.09375 168.617188 C 132.847656 168.371094 132.511719 168.230469 132.160156 168.230469 C 131.8125 168.230469 131.476562 168.371094 131.226562 168.617188 C 130.980469 168.863281 130.84375 169.199219 130.84375 169.550781 C 130.84375 169.902344 130.980469 170.234375 131.226562 170.484375 C 131.476562 170.730469 131.8125 170.871094 132.160156 170.871094 C 132.511719 170.871094 132.847656 170.730469 133.09375 170.484375 C 133.339844 170.234375 133.480469 169.902344 133.480469 169.550781 Z M 133.480469 169.550781 " transform="matrix(1,0,0,1,-74,-13)"/>
<path style="fill-rule:evenodd;fill:rgb(50%,50%,50%);fill-opacity:0.6;stroke-width:0.36;stroke-linecap:square;stroke-linejoin:miter;stroke:rgb(0%,0%,0%);stroke-opacity:0.7;stroke-miterlimit:3.25;" d="M 202.738281 208.863281 C 202.738281 208.511719 202.597656 208.171875 202.347656 207.921875 C 202.097656 207.671875 201.757812 207.53125 201.40625 207.53125 C 201.050781 207.53125 200.710938 207.671875 200.460938 207.921875 C 200.210938 208.171875 200.070312 208.511719 200.070312 208.863281 C 200.070312 209.21875 200.210938 209.558594 200.460938 209.808594 C 200.710938 210.058594 201.050781 210.199219 201.40625 210.199219 C 201.757812 210.199219 202.097656 210.058594 202.347656 209.808594 C 202.597656 209.558594 202.738281 209.21875 202.738281 208.863281 Z M 202.738281 208.863281 " transform="matrix(1,0,0,1,-74,-13)"/>
<path style="fill-rule:evenodd;fill:rgb(50%,50%,50%);fill-opacity:0.6;stroke-width:0.36;stroke-linecap:square;stroke-linejoin:miter;stroke:rgb(0%,0%,0%);stroke-opacity:0.7;stroke-miterlimit:3.25;" d="M 328.015625 21.777344 C 328.015625 21.425781 327.875 21.085938 327.628906 20.839844 C 327.378906 20.589844 327.039062 20.449219 326.6875 20.449219 C 326.335938 20.449219 325.996094 20.589844 325.75 20.839844 C 325.5 21.085938 325.359375 21.425781 325.359375 21.777344 C 325.359375 22.128906 325.5 22.46875 325.75 22.714844 C 325.996094 22.964844 326.335938 23.105469 326.6875 23.105469 C 327.039062 23.105469 327.378906 22.964844 327.628906 22.714844 C 327.875 22.46875 328.015625 22.128906 328.015625 21.777344 Z M 328.015625 21.777344 " transform="matrix(1,0,0,1,-74,-13)"/>
<path style="fill-rule:evenodd;fill:rgb(50%,50%,50%);fill-opacity:0.6;stroke-width:0.36;stroke-linecap:square;stroke-linejoin:miter;stroke:rgb(0%,0%,0%);stroke-opacity:0.7;stroke-miterlimit:3.25;" d="M 144.09375 162.449219 C 144.09375 162.144531 143.972656 161.851562 143.757812 161.636719 C 143.542969 161.421875 143.25 161.300781 142.945312 161.300781 C 142.644531 161.300781 142.351562 161.421875 142.136719 161.636719 C 141.921875 161.851562 141.800781 162.144531 141.800781 162.449219 C 141.800781 162.753906 141.921875 163.042969 142.136719 163.257812 C 142.351562 163.476562 142.644531 163.59375 142.945312 163.59375 C 143.25 163.59375 143.542969 163.476562 143.757812 163.257812 C 143.972656 163.042969 144.09375 162.753906 144.09375 162.449219 Z M 144.09375 162.449219 " transform="matrix(1,0,0,1,-74,-13)"/>
<path style="fill-rule:evenodd;fill:rgb(50%,50%,50%);fill-opacity:0.6;stroke-width:0.36;stroke-linecap:square;stroke-linejoin:miter;stroke:rgb(0%,0%,0%);stroke-opacity:0.7;stroke-miterlimit:3.25;" d="M 324.839844 81.105469 C 324.839844 80.792969 324.714844 80.492188 324.496094 80.273438 C 324.273438 80.050781 323.972656 79.925781 323.660156 79.925781 C 323.347656 79.925781 323.046875 80.050781 322.824219 80.273438 C 322.605469 80.492188 322.480469 80.792969 322.480469 81.105469 C 322.480469 81.417969 322.605469 81.71875 322.824219 81.941406 C 323.046875 82.164062 323.347656 82.285156 323.660156 82.285156 C 323.972656 82.285156 324.273438 82.164062 324.496094 81.941406 C 324.714844 81.71875 324.839844 81.417969 324.839844 81.105469 Z M 324.839844 81.105469 " transform="matrix(1,0,0,1,-74,-13)"/>
<path style="fill-rule:evenodd;fill:rgb(50%,50%,50%);fill-opacity:0.6;stroke-width:0.36;stroke-linecap:square;stroke-linejoin:miter;stroke:rgb(0%,0%,0%);stroke-opacity:0.7;stroke-miterlimit:3.25;" d="M 289.746094 126.964844 C 289.746094 126.660156 289.625 126.371094 289.410156 126.15625 C 289.195312 125.941406 288.90625 125.820312 288.601562 125.820312 C 288.296875 125.820312 288.007812 125.941406 287.792969 126.15625 C 287.578125 126.371094 287.457031 126.660156 287.457031 126.964844 C 287.457031 127.269531 287.578125 127.558594 287.792969 127.773438 C 288.007812 127.988281 288.296875 128.109375 288.601562 128.109375 C 288.90625 128.109375 289.195312 127.988281 289.410156 127.773438 C 289.625 127.558594 289.746094 127.269531 289.746094 126.964844 Z M 289.746094 126.964844 " transform="matrix(1,0,0,1,-74,-13)"/>
<path style="fill-rule:evenodd;fill:rgb(50%,50%,50%);fill-opacity:0.6;stroke-width:0.36;stroke-linecap:square;stroke-linejoin:miter;stroke:rgb(0%,0%,0%);stroke-opacity:0.7;stroke-miterlimit:3.25;" d="M 313.214844 82.25 C 313.214844 81.925781 313.085938 81.617188 312.855469 81.390625 C 312.628906 81.160156 312.320312 81.035156 312 81.035156 C 311.675781 81.035156 311.367188 81.160156 311.140625 81.390625 C 310.914062 81.617188 310.785156 81.925781 310.785156 82.25 C 310.785156 82.570312 310.914062 82.878906 311.140625 83.105469 C 311.367188 83.335938 311.675781 83.460938 312 83.460938 C 312.320312 83.460938 312.628906 83.335938 312.855469 83.105469 C 313.085938 82.878906 313.214844 82.570312 313.214844 82.25 Z M 313.214844 82.25 " transform="matrix(1,0,0,1,-74,-13)"/>
<path style="fill-rule:evenodd;fill:rgb(50%,50%,50%);fill-opacity:0.6;stroke-width:0.36;stroke-linecap:square;stroke-linejoin:miter;stroke:rgb(0%,0%,0%);stroke-opacity:0.7;stroke-miterlimit:3.25;" d="M 316.417969 42.882812 C 316.417969 42.523438 316.273438 42.179688 316.019531 41.925781 C 315.765625 41.671875 315.421875 41.53125 315.0625 41.53125 C 314.707031 41.53125 314.363281 41.671875 314.109375 41.925781 C 313.855469 42.179688 313.710938 42.523438 313.710938 42.882812 C 313.710938 43.242188 313.855469 43.585938 314.109375 43.839844 C 314.363281 44.09375 314.707031 44.234375 315.0625 44.234375 C 315.421875 44.234375 315.765625 44.09375 316.019531 43.839844 C 316.273438 43.585938 316.417969 43.242188 316.417969 42.882812 Z M 316.417969 42.882812 " transform="matrix(1,0,0,1,-74,-13)"/>
<path style="fill-rule:evenodd;fill:rgb(50%,50%,50%);fill-opacity:0.6;stroke-width:0.36;stroke-linecap:square;stroke-linejoin:miter;stroke:rgb(0%,0%,0%);stroke-opacity:0.7;stroke-miterlimit:3.25;" d="M 81.804688 93.605469 C 81.804688 93.257812 81.664062 92.925781 81.421875 92.679688 C 81.175781 92.433594 80.839844 92.296875 80.492188 92.296875 C 80.148438 92.296875 79.8125 92.433594 79.566406 92.679688 C 79.320312 92.925781 79.183594 93.257812 79.183594 93.605469 C 79.183594 93.953125 79.320312 94.285156 79.566406 94.53125 C 79.8125 94.777344 80.148438 94.914062 80.492188 94.914062 C 80.839844 94.914062 81.175781 94.777344 81.421875 94.53125 C 81.664062 94.285156 81.804688 93.953125 81.804688 93.605469 Z M 81.804688 93.605469 " transform="matrix(1,0,0,1,-74,-13)"/>
<path style="fill-rule:evenodd;fill:rgb(50%,50%,50%);fill-opacity:0.6;stroke-width:0.36;stroke-linecap:square;stroke-linejoin:miter;stroke:rgb(0%,0%,0%);stroke-opacity:0.7;stroke-miterlimit:3.25;" d="M 93.070312 72.855469 C 93.070312 72.503906 92.933594 72.164062 92.683594 71.917969 C 92.433594 71.667969 92.097656 71.527344 91.746094 71.527344 C 91.394531 71.527344 91.058594 71.667969 90.808594 71.917969 C 90.5625 72.164062 90.421875 72.503906 90.421875 72.855469 C 90.421875 73.207031 90.5625 73.542969 90.808594 73.792969 C 91.058594 74.039062 91.394531 74.179688 91.746094 74.179688 C 92.097656 74.179688 92.433594 74.039062 92.683594 73.792969 C 92.933594 73.542969 93.070312 73.207031 93.070312 72.855469 Z M 93.070312 72.855469 " transform="matrix(1,0,0,1,-74,-13)"/>
<path style="fill-rule:evenodd;fill:rgb(50%,50%,50%);fill-opacity:0.6;stroke-width:0.36;stroke-linecap:square;stroke-linejoin:miter;stroke:rgb(0%,0%,0%);stroke-opacity:0.7;stroke-miterlimit:3.25;" d="M 280.207031 140.550781 C 280.207031 140.234375 280.082031 139.929688 279.855469 139.703125 C 279.632812 139.480469 279.328125 139.355469 279.011719 139.355469 C 278.691406 139.355469 278.386719 139.480469 278.164062 139.703125 C 277.9375 139.929688 277.8125 140.234375 277.8125 140.550781 C 277.8125 140.867188 277.9375 141.171875 278.164062 141.398438 C 278.386719 141.621094 278.691406 141.75 279.011719 141.75 C 279.328125 141.75 279.632812 141.621094 279.855469 141.398438 C 280.082031 141.171875 280.207031 140.867188 280.207031 140.550781 Z M 280.207031 140.550781 " transform="matrix(1,0,0,1,-74,-13)"/>
<path style="fill-rule:evenodd;fill:rgb(50%,50%,50%);fill-opacity:0.6;stroke-width:0.36;stroke-linecap:square;stroke-linejoin:miter;stroke:rgb(0%,0%,0%);stroke-opacity:0.7;stroke-miterlimit:3.25;" d="M 106.628906 209.421875 C 106.628906 209.066406 106.484375 208.722656 106.230469 208.46875 C 105.976562 208.214844 105.632812 208.070312 105.273438 208.070312 C 104.917969 208.070312 104.574219 208.214844 104.320312 208.46875 C 104.066406 208.722656 103.921875 209.066406 103.921875 209.421875 C 103.921875 209.78125 104.066406 210.125 104.320312 210.378906 C 104.574219 210.632812 104.917969 210.777344 105.273438 210.777344 C 105.632812 210.777344 105.976562 210.632812 106.230469 210.378906 C 106.484375 210.125 106.628906 209.78125 106.628906 209.421875 Z M 106.628906 209.421875 " transform="matrix(1,0,0,1,-74,-13)"/>
<path style="fill-rule:evenodd;fill:rgb(50%,50%,50%);fill-opacity:0.6;stroke-width:0.36;stroke-linecap:square;stroke-linejoin:miter;stroke:rgb(0%,0%,0%);stroke-opacity:0.7;stroke-miterlimit:3.25;" d="M 227.574219 77.695312 C 227.574219 77.390625 227.453125 77.097656 227.238281 76.882812 C 227.023438 76.667969 226.730469 76.546875 226.429688 76.546875 C 226.125 76.546875 225.832031 76.667969 225.617188 76.882812 C 225.402344 77.097656 225.28125 77.390625 225.28125 77.695312 C 225.28125 77.996094 225.402344 78.289062 225.617188 78.503906 C 225.832031 78.71875 226.125 78.839844 226.429688 78.839844 C 226.730469 78.839844 227.023438 78.71875 227.238281 78.503906 C 227.453125 78.289062 227.574219 77.996094 227.574219 77.695312 Z M 227.574219 77.695312 " transform="matrix(1,0,0,1,-74,-13)"/>
<path style="fill-rule:evenodd;fill:rgb(50%,50%,50%);fill-opacity:0.6;stroke-width:0.36;stroke-linecap:square;stroke-linejoin:miter;stroke:rgb(0%,0%,0%);stroke-opacity:0.7;stroke-miterlimit:3.25;" d="M 256.476562 247.316406 C 256.476562 246.964844 256.335938 246.625 256.085938 246.375 C 255.835938 246.125 255.496094 245.984375 255.140625 245.984375 C 254.789062 245.984375 254.449219 246.125 254.199219 246.375 C 253.945312 246.625 253.804688 246.964844 253.804688 247.316406 C 253.804688 247.671875 253.945312 248.011719 254.199219 248.261719 C 254.449219 248.511719 254.789062 248.652344 255.140625 248.652344 C 255.496094 248.652344 255.835938 248.511719 256.085938 248.261719 C 256.335938 248.011719 256.476562 247.671875 256.476562 247.316406 Z M 256.476562 247.316406 " transform="matrix(1,0,0,1,-74,-13)"/>
<path style="fill-rule:evenodd;fill:rgb(50%,50%,50%);fill-opacity:0.6;stroke-width:0.36;stroke-linecap:square;stroke-linejoin:miter;stroke:rgb(0%,0%,0%);stroke-opacity:0.7;stroke-miterlimit:3.25;" d="M 267.578125 152.164062 C 267.578125 151.824219 267.441406 151.492188 267.199219 151.25 C 266.957031 151.007812 266.625 150.875 266.285156 150.875 C 265.941406 150.875 265.613281 151.007812 265.371094 151.25 C 265.128906 151.492188 264.992188 151.824219 264.992188 152.164062 C 264.992188 152.507812 265.128906 152.835938 265.371094 153.078125 C 265.613281 153.320312 265.941406 153.457031 266.285156 153.457031 C 266.625 153.457031 266.957031 153.320312 267.199219 153.078125 C 267.441406 152.835938 267.578125 152.507812 267.578125 152.164062 Z M 267.578125 152.164062 " transform="matrix(1,0,0,1,-74,-13)"/>
<path style="fill-rule:evenodd;fill:rgb(50%,50%,50%);fill-opacity:0.6;stroke-width:0.36;stroke-linecap:square;stroke-linejoin:miter;stroke:rgb(0%,0%,0%);stroke-opacity:0.7;stroke-miterlimit:3.25;" d="M 226.234375 58.230469 C 226.234375 57.898438 226.105469 57.578125 225.871094 57.34375 C 225.632812 57.109375 225.316406 56.976562 224.984375 56.976562 C 224.652344 56.976562 224.335938 57.109375 224.101562 57.34375 C 223.863281 57.578125 223.734375 57.898438 223.734375 58.230469 C 223.734375 58.5625 223.863281 58.878906 224.101562 59.113281 C 224.335938 59.347656 224.652344 59.480469 224.984375 59.480469 C 225.316406 59.480469 225.632812 59.347656 225.871094 59.113281 C 226.105469 58.878906 226.234375 58.5625 226.234375 58.230469 Z M 226.234375 58.230469 " transform="matrix(1,0,0,1,-74,-13)"/>
<path style="fill-rule:evenodd;fill:rgb(50%,50%,50%);fill-opacity:0.6;stroke-width:0.36;stroke-linecap:square;stroke-linejoin:miter;stroke:rgb(0%,0%,0%);stroke-opacity:0.7;stroke-miterlimit:3.25;" d="M 108.515625 143.175781 C 108.515625 142.828125 108.375 142.492188 108.128906 142.246094 C 107.882812 142 107.546875 141.859375 107.199219 141.859375 C 106.847656 141.859375 106.511719 142 106.265625 142.246094 C 106.019531 142.492188 105.878906 142.828125 105.878906 143.175781 C 105.878906 143.527344 106.019531 143.863281 106.265625 144.109375 C 106.511719 144.355469 106.847656 144.496094 107.199219 144.496094 C 107.546875 144.496094 107.882812 144.355469 108.128906 144.109375 C 108.375 143.863281 108.515625 143.527344 108.515625 143.175781 Z M 108.515625 143.175781 " transform="matrix(1,0,0,1,-74,-13)"/>
<path style="fill-rule:evenodd;fill:rgb(50%,50%,50%);fill-opacity:0.6;stroke-width:0.36;stroke-linecap:square;stroke-linejoin:miter;stroke:rgb(0%,0%,0%);stroke-opacity:0.7;stroke-miterlimit:3.25;" d="M 139.300781 198.222656 C 139.300781 197.882812 139.164062 197.558594 138.925781 197.316406 C 138.683594 197.078125 138.359375 196.941406 138.019531 196.941406 C 137.679688 196.941406 137.351562 197.078125 137.113281 197.316406 C 136.871094 197.558594 136.738281 197.882812 136.738281 198.222656 C 136.738281 198.5625 136.871094 198.886719 137.113281 199.128906 C 137.351562 199.367188 137.679688 199.503906 138.019531 199.503906 C 138.359375 199.503906 138.683594 199.367188 138.925781 199.128906 C 139.164062 198.886719 139.300781 198.5625 139.300781 198.222656 Z M 139.300781 198.222656 " transform="matrix(1,0,0,1,-74,-13)"/>
<path style="fill-rule:evenodd;fill:rgb(50%,50%,50%);fill-opacity:0.6;stroke-width:0.36;stroke-linecap:square;stroke-linejoin:miter;stroke:rgb(0%,0%,0%);stroke-opacity:0.7;stroke-miterlimit:3.25;" d="M 304.148438 153.425781 C 304.148438 153.085938 304.015625 152.757812 303.773438 152.519531 C 303.53125 152.277344 303.203125 152.140625 302.863281 152.140625 C 302.523438 152.140625 302.195312 152.277344 301.953125 152.519531 C 301.710938 152.757812 301.578125 153.085938 301.578125 153.425781 C 301.578125 153.769531 301.710938 154.097656 301.953125 154.335938 C 302.195312 154.578125 302.523438 154.714844 302.863281 154.714844 C 303.203125 154.714844 303.53125 154.578125 303.773438 154.335938 C 304.015625 154.097656 304.148438 153.769531 304.148438 153.425781 Z M 304.148438 153.425781 " transform="matrix(1,0,0,1,-74,-13)"/>
<path style="fill-rule:evenodd;fill:rgb(50%,50%,50%);fill-opacity:0.6;stroke-width:0.36;stroke-linecap:square;stroke-linejoin:miter;stroke:rgb(0%,0%,0%);stroke-opacity:0.7;stroke-miterlimit:3.25;" d="M 261.6875 143.035156 C 261.6875 142.691406 261.550781 142.367188 261.308594 142.125 C 261.070312 141.882812 260.742188 141.746094 260.398438 141.746094 C 260.058594 141.746094 259.730469 141.882812 259.492188 142.125 C 259.25 142.367188 259.113281 142.691406 259.113281 143.035156 C 259.113281 143.375 259.25 143.703125 259.492188 143.945312 C 259.730469 144.1875 260.058594 144.320312 260.398438 144.320312 C 260.742188 144.320312 261.070312 144.1875 261.308594 143.945312 C 261.550781 143.703125 261.6875 143.375 261.6875 143.035156 Z M 261.6875 143.035156 " transform="matrix(1,0,0,1,-74,-13)"/>
<path style="fill-rule:evenodd;fill:rgb(50%,50%,50%);fill-opacity:0.6;stroke-width:0.36;stroke-linecap:square;stroke-linejoin:miter;stroke:rgb(0%,0%,0%);stroke-opacity:0.7;stroke-miterlimit:3.25;" d="M 301.867188 154.140625 C 301.867188 153.835938 301.746094 153.542969 301.53125 153.328125 C 301.316406 153.113281 301.023438 152.992188 300.71875 152.992188 C 300.417969 152.992188 300.125 153.113281 299.910156 153.328125 C 299.695312 153.542969 299.574219 153.835938 299.574219 154.140625 C 299.574219 154.445312 299.695312 154.734375 299.910156 154.953125 C 300.125 155.167969 300.417969 155.285156 300.71875 155.285156 C 301.023438 155.285156 301.316406 155.167969 301.53125 154.953125 C 301.746094 154.734375 301.867188 154.445312 301.867188 154.140625 Z M 301.867188 154.140625 " transform="matrix(1,0,0,1,-74,-13)"/>
<path style="fill-rule:evenodd;fill:rgb(50%,50%,50%);fill-opacity:0.6;stroke-width:0.36;stroke-linecap:square;stroke-linejoin:miter;stroke:rgb(0%,0%,0%);stroke-opacity:0.7;stroke-miterlimit:3.25;" d="M 161.289062 19.121094 C 161.289062 18.820312 161.167969 18.527344 160.953125 18.3125 C 160.738281 18.097656 160.449219 17.976562 160.144531 17.976562 C 159.839844 17.976562 159.546875 18.097656 159.332031 18.3125 C 159.117188 18.527344 158.996094 18.820312 158.996094 19.121094 C 158.996094 19.425781 159.117188 19.71875 159.332031 19.933594 C 159.546875 20.148438 159.839844 20.269531 160.144531 20.269531 C 160.449219 20.269531 160.738281 20.148438 160.953125 19.933594 C 161.167969 19.71875 161.289062 19.425781 161.289062 19.121094 Z M 161.289062 19.121094 " transform="matrix(1,0,0,1,-74,-13)"/>
<path style="fill-rule:evenodd;fill:rgb(50%,50%,50%);fill-opacity:0.6;stroke-width:0.36;stroke-linecap:square;stroke-linejoin:miter;stroke:rgb(0%,0%,0%);stroke-opacity:0.7;stroke-miterlimit:3.25;" d="M 252.136719 75.996094 C 252.136719 75.648438 252 75.316406 251.753906 75.070312 C 251.507812 74.824219 251.175781 74.6875 250.828125 74.6875 C 250.476562 74.6875 250.144531 74.824219 249.898438 75.070312 C 249.652344 75.316406 249.515625 75.648438 249.515625 75.996094 C 249.515625 76.34375 249.652344 76.679688 249.898438 76.925781 C 250.144531 77.171875 250.476562 77.308594 250.828125 77.308594 C 251.175781 77.308594 251.507812 77.171875 251.753906 76.925781 C 252 76.679688 252.136719 76.34375 252.136719 75.996094 Z M 252.136719 75.996094 " transform="matrix(1,0,0,1,-74,-13)"/>
</g>
</svg>
