<?xml version="1.0" encoding="UTF-8"?>
<svg  preserveAspectRatio='none' xmlns="http://www.w3.org/2000/svg" xmlns:xlink="http://www.w3.org/1999/xlink" width="260pt" height="22pt" viewBox="0 0 260 22" version="1.1">
<!-- ***Exported Comment***
Created by Mathematica
***Exported Comment*** -->
<g id="surface176">
<path style="fill:none;stroke-width:0.36;stroke-linecap:square;stroke-linejoin:miter;stroke:rgb(14.99939%,28.999329%,50%);stroke-opacity:0.7;stroke-miterlimit:3.25;" d="M 203.601562 23.902344 L 144.355469 23.902344 " transform="matrix(1,0,0,1,-74,-13)"/>
<path style="fill:none;stroke-width:0.36;stroke-linecap:square;stroke-linejoin:miter;stroke:rgb(14.99939%,28.999329%,50%);stroke-opacity:0.7;stroke-miterlimit:3.25;" d="M 203.601562 23.902344 L 262.847656 23.902344 " transform="matrix(1,0,0,1,-74,-13)"/>
<path style="fill:none;stroke-width:0.36;stroke-linecap:square;stroke-linejoin:miter;stroke:rgb(14.99939%,28.999329%,50%);stroke-opacity:0.7;stroke-miterlimit:3.25;" d="M 144.355469 23.902344 L 85.109375 23.902344 " transform="matrix(1,0,0,1,-74,-13)"/>
<path style="fill:none;stroke-width:0.36;stroke-linecap:square;stroke-linejoin:miter;stroke:rgb(14.99939%,28.999329%,50%);stroke-opacity:0.7;stroke-miterlimit:3.25;" d="M 262.847656 23.902344 L 322.089844 23.902344 " transform="matrix(1,0,0,1,-74,-13)"/>
<path style="fill-rule:evenodd;fill:rgb(63.996887%,70.397949%,79.997253%);fill-opacity:1;stroke-width:0.36;stroke-linecap:square;stroke-linejoin:miter;stroke:rgb(0%,0%,0%);stroke-opacity:0.7;stroke-miterlimit:3.25;" d="M 209.523438 23.902344 C 209.523438 22.328125 208.898438 20.824219 207.789062 19.710938 C 206.679688 18.601562 205.171875 17.976562 203.601562 17.976562 C 202.027344 17.976562 200.523438 18.601562 199.410156 19.710938 C 198.300781 20.824219 197.675781 22.328125 197.675781 23.902344 C 197.675781 25.472656 198.300781 26.980469 199.410156 28.089844 C 200.523438 29.203125 202.027344 29.824219 203.601562 29.824219 C 205.171875 29.824219 206.679688 29.203125 207.789062 28.089844 C 208.898438 26.980469 209.523438 25.472656 209.523438 23.902344 Z M 209.523438 23.902344 " transform="matrix(1,0,0,1,-74,-13)"/>
<path style=" stroke:none;fill-rule:evenodd;fill:rgb(0%,0%,0%);fill-opacity:1;" d="M 130.179688 13.148438 L 129.613281 13.148438 L 129.613281 9.519531 C 129.476562 9.648438 129.296875 9.78125 129.074219 9.910156 C 128.851562 10.042969 128.648438 10.140625 128.472656 10.207031 L 128.472656 9.65625 C 128.792969 9.503906 129.070312 9.324219 129.308594 9.109375 C 129.546875 8.898438 129.714844 8.691406 129.816406 8.488281 L 130.179688 8.488281 Z M 130.179688 13.148438 "/>
<path style="fill-rule:evenodd;fill:rgb(63.996887%,70.397949%,79.997253%);fill-opacity:1;stroke-width:0.36;stroke-linecap:square;stroke-linejoin:miter;stroke:rgb(0%,0%,0%);stroke-opacity:0.7;stroke-miterlimit:3.25;" d="M 150.277344 23.902344 C 150.277344 22.328125 149.65625 20.824219 148.542969 19.710938 C 147.433594 18.601562 145.925781 17.976562 144.355469 17.976562 C 142.78125 17.976562 141.277344 18.601562 140.164062 19.710938 C 139.054688 20.824219 138.429688 22.328125 138.429688 23.902344 C 138.429688 25.472656 139.054688 26.980469 140.164062 28.089844 C 141.277344 29.203125 142.78125 29.824219 144.355469 29.824219 C 145.925781 29.824219 147.433594 29.203125 148.542969 28.089844 C 149.65625 26.980469 150.277344 25.472656 150.277344 23.902344 Z M 150.277344 23.902344 " transform="matrix(1,0,0,1,-74,-13)"/>
<path style=" stroke:none;fill-rule:evenodd;fill:rgb(0%,0%,0%);fill-opacity:1;" d="M 71.816406 12.597656 L 71.816406 13.148438 L 68.746094 13.148438 C 68.746094 13.011719 68.769531 12.878906 68.820312 12.75 C 68.898438 12.542969 69.027344 12.335938 69.203125 12.132812 C 69.378906 11.929688 69.625 11.695312 69.945312 11.429688 C 70.4375 11.015625 70.773438 10.6875 70.949219 10.445312 C 71.121094 10.203125 71.210938 9.972656 71.210938 9.757812 C 71.210938 9.53125 71.128906 9.34375 70.96875 9.1875 C 70.8125 9.03125 70.605469 8.953125 70.347656 8.953125 C 70.082031 8.953125 69.863281 9.035156 69.703125 9.199219 C 69.539062 9.367188 69.460938 9.59375 69.460938 9.886719 L 68.859375 9.824219 C 68.898438 9.386719 69.050781 9.054688 69.308594 8.828125 C 69.570312 8.597656 69.917969 8.480469 70.359375 8.480469 C 70.800781 8.480469 71.148438 8.605469 71.40625 8.851562 C 71.664062 9.101562 71.792969 9.40625 71.792969 9.773438 C 71.792969 9.957031 71.757812 10.140625 71.679688 10.320312 C 71.605469 10.5 71.480469 10.6875 71.304688 10.886719 C 71.128906 11.085938 70.839844 11.359375 70.4375 11.707031 C 70.101562 11.992188 69.886719 12.1875 69.792969 12.289062 C 69.699219 12.394531 69.617188 12.496094 69.554688 12.597656 Z M 71.816406 12.597656 "/>
<path style="fill-rule:evenodd;fill:rgb(63.996887%,70.397949%,79.997253%);fill-opacity:1;stroke-width:0.36;stroke-linecap:square;stroke-linejoin:miter;stroke:rgb(0%,0%,0%);stroke-opacity:0.7;stroke-miterlimit:3.25;" d="M 268.769531 23.902344 C 268.769531 22.328125 268.144531 20.824219 267.035156 19.710938 C 265.925781 18.601562 264.417969 17.976562 262.847656 17.976562 C 261.273438 17.976562 259.765625 18.601562 258.65625 19.710938 C 257.546875 20.824219 256.921875 22.328125 256.921875 23.902344 C 256.921875 25.472656 257.546875 26.980469 258.65625 28.089844 C 259.765625 29.203125 261.273438 29.824219 262.847656 29.824219 C 264.417969 29.824219 265.925781 29.203125 267.035156 28.089844 C 268.144531 26.980469 268.769531 25.472656 268.769531 23.902344 Z M 268.769531 23.902344 " transform="matrix(1,0,0,1,-74,-13)"/>
<path style=" stroke:none;fill-rule:evenodd;fill:rgb(0%,0%,0%);fill-opacity:1;" d="M 187.347656 11.910156 L 187.914062 11.835938 C 187.980469 12.15625 188.09375 12.386719 188.246094 12.527344 C 188.402344 12.671875 188.59375 12.742188 188.816406 12.742188 C 189.082031 12.742188 189.308594 12.648438 189.488281 12.464844 C 189.671875 12.277344 189.765625 12.050781 189.765625 11.777344 C 189.765625 11.515625 189.679688 11.300781 189.511719 11.132812 C 189.34375 10.964844 189.128906 10.878906 188.871094 10.878906 C 188.761719 10.878906 188.628906 10.902344 188.46875 10.941406 L 188.535156 10.441406 C 188.570312 10.445312 188.601562 10.449219 188.625 10.449219 C 188.867188 10.449219 189.085938 10.386719 189.28125 10.257812 C 189.472656 10.128906 189.570312 9.933594 189.570312 9.667969 C 189.570312 9.457031 189.5 9.28125 189.359375 9.144531 C 189.21875 9.003906 189.035156 8.9375 188.8125 8.9375 C 188.589844 8.9375 188.40625 9.003906 188.257812 9.144531 C 188.109375 9.285156 188.015625 9.496094 187.972656 9.777344 L 187.402344 9.675781 C 187.472656 9.292969 187.628906 8.996094 187.878906 8.785156 C 188.125 8.574219 188.429688 8.46875 188.796875 8.46875 C 189.050781 8.46875 189.285156 8.523438 189.496094 8.632812 C 189.710938 8.742188 189.875 8.890625 189.984375 9.078125 C 190.097656 9.269531 190.15625 9.46875 190.15625 9.683594 C 190.15625 9.882812 190.101562 10.066406 189.988281 10.234375 C 189.875 10.398438 189.71875 10.527344 189.515625 10.625 C 189.785156 10.691406 189.996094 10.820312 190.144531 11.019531 C 190.292969 11.21875 190.371094 11.46875 190.371094 11.765625 C 190.371094 12.167969 190.222656 12.511719 189.929688 12.792969 C 189.632812 13.070312 189.261719 13.210938 188.8125 13.210938 C 188.410156 13.210938 188.070312 13.089844 187.804688 12.851562 C 187.535156 12.605469 187.382812 12.292969 187.347656 11.910156 Z M 187.347656 11.910156 "/>
<path style="fill-rule:evenodd;fill:rgb(63.996887%,70.397949%,79.997253%);fill-opacity:1;stroke-width:0.36;stroke-linecap:square;stroke-linejoin:miter;stroke:rgb(0%,0%,0%);stroke-opacity:0.7;stroke-miterlimit:3.25;" d="M 328.015625 23.902344 C 328.015625 22.328125 327.390625 20.824219 326.28125 19.710938 C 325.167969 18.601562 323.664062 17.976562 322.089844 17.976562 C 320.519531 17.976562 319.011719 18.601562 317.902344 19.710938 C 316.792969 20.824219 316.167969 22.328125 316.167969 23.902344 C 316.167969 25.472656 316.792969 26.980469 317.902344 28.089844 C 319.011719 29.203125 320.519531 29.824219 322.089844 29.824219 C 323.664062 29.824219 325.167969 29.203125 326.28125 28.089844 C 327.390625 26.980469 328.015625 25.472656 328.015625 23.902344 Z M 328.015625 23.902344 " transform="matrix(1,0,0,1,-74,-13)"/>
<path style=" stroke:none;fill-rule:evenodd;fill:rgb(0%,0%,0%);fill-opacity:1;" d="M 249.511719 9.648438 L 248.945312 9.648438 C 248.894531 9.441406 248.824219 9.289062 248.734375 9.191406 C 248.582031 9.03125 248.390625 8.949219 248.167969 8.949219 C 247.988281 8.949219 247.828125 9 247.691406 9.101562 C 247.515625 9.230469 247.375 9.421875 247.273438 9.671875 C 247.167969 9.917969 247.117188 10.273438 247.117188 10.734375 C 247.253906 10.527344 247.417969 10.371094 247.617188 10.269531 C 247.8125 10.167969 248.019531 10.117188 248.234375 10.117188 C 248.609375 10.117188 248.933594 10.257812 249.195312 10.539062 C 249.460938 10.816406 249.59375 11.179688 249.59375 11.621094 C 249.59375 11.914062 249.53125 12.1875 249.40625 12.4375 C 249.28125 12.6875 249.109375 12.878906 248.894531 13.011719 C 248.675781 13.144531 248.425781 13.210938 248.148438 13.210938 C 247.675781 13.210938 247.292969 13.039062 246.996094 12.691406 C 246.699219 12.339844 246.550781 11.765625 246.550781 10.964844 C 246.550781 10.070312 246.714844 9.417969 247.042969 9.011719 C 247.328125 8.660156 247.714844 8.480469 248.203125 8.480469 C 248.566406 8.480469 248.863281 8.585938 249.09375 8.792969 C 249.328125 9 249.464844 9.285156 249.511719 9.648438 Z M 247.203125 11.625 C 247.203125 11.824219 247.246094 12.011719 247.328125 12.191406 C 247.410156 12.371094 247.523438 12.507812 247.671875 12.601562 C 247.820312 12.695312 247.976562 12.746094 248.140625 12.746094 C 248.378906 12.746094 248.582031 12.648438 248.753906 12.453125 C 248.925781 12.257812 249.011719 11.992188 249.011719 11.65625 C 249.011719 11.335938 248.925781 11.082031 248.757812 10.898438 C 248.589844 10.714844 248.375 10.621094 248.117188 10.621094 C 247.863281 10.621094 247.648438 10.714844 247.46875 10.898438 C 247.292969 11.082031 247.203125 11.328125 247.203125 11.625 Z M 247.203125 11.625 "/>
<path style="fill-rule:evenodd;fill:rgb(63.996887%,70.397949%,79.997253%);fill-opacity:1;stroke-width:0.36;stroke-linecap:square;stroke-linejoin:miter;stroke:rgb(0%,0%,0%);stroke-opacity:0.7;stroke-miterlimit:3.25;" d="M 91.03125 23.902344 C 91.03125 22.328125 90.410156 20.824219 89.296875 19.710938 C 88.1875 18.601562 86.679688 17.976562 85.109375 17.976562 C 83.539062 17.976562 82.03125 18.601562 80.917969 19.710938 C 79.808594 20.824219 79.183594 22.328125 79.183594 23.902344 C 79.183594 25.472656 79.808594 26.980469 80.917969 28.089844 C 82.03125 29.203125 83.539062 29.824219 85.109375 29.824219 C 86.679688 29.824219 88.1875 29.203125 89.296875 28.089844 C 90.410156 26.980469 91.03125 25.472656 91.03125 23.902344 Z M 91.03125 23.902344 " transform="matrix(1,0,0,1,-74,-13)"/>
<path style=" stroke:none;fill-rule:evenodd;fill:rgb(0%,0%,0%);fill-opacity:1;" d="M 9.558594 11.917969 L 10.15625 11.867188 C 10.199219 12.15625 10.300781 12.375 10.464844 12.523438 C 10.625 12.671875 10.820312 12.746094 11.046875 12.746094 C 11.320312 12.746094 11.554688 12.640625 11.742188 12.433594 C 11.933594 12.226562 12.027344 11.953125 12.027344 11.609375 C 12.027344 11.28125 11.9375 11.027344 11.753906 10.839844 C 11.574219 10.648438 11.332031 10.554688 11.039062 10.554688 C 10.855469 10.554688 10.6875 10.597656 10.539062 10.679688 C 10.394531 10.765625 10.277344 10.875 10.195312 11.007812 L 9.660156 10.9375 L 10.109375 8.546875 L 12.417969 8.546875 L 12.417969 9.089844 L 10.5625 9.089844 L 10.3125 10.34375 C 10.59375 10.148438 10.882812 10.050781 11.191406 10.050781 C 11.59375 10.050781 11.9375 10.191406 12.214844 10.472656 C 12.492188 10.753906 12.632812 11.117188 12.632812 11.558594 C 12.632812 11.976562 12.511719 12.339844 12.265625 12.648438 C 11.96875 13.023438 11.5625 13.210938 11.046875 13.210938 C 10.625 13.210938 10.28125 13.09375 10.015625 12.859375 C 9.746094 12.621094 9.59375 12.308594 9.558594 11.917969 Z M 9.558594 11.917969 "/>
</g>
</svg>
