<?xml version="1.0" encoding="UTF-8"?>
<svg  preserveAspectRatio='none' xmlns="http://www.w3.org/2000/svg" xmlns:xlink="http://www.w3.org/1999/xlink" width="260pt" height="139pt" viewBox="0 0 260 139" version="1.1">
<!-- ***Exported Comment***
Created by Mathematica
***Exported Comment*** -->
<g id="surface167">
<path style="fill:none;stroke-width:0.36;stroke-linecap:square;stroke-linejoin:miter;stroke:rgb(14.99939%,28.999329%,50%);stroke-opacity:0.7;stroke-miterlimit:3.25;" d="M 240.261719 138.472656 L 320.203125 120.582031 " transform="matrix(1,0,0,1,-74,-13)"/>
<path style="fill:none;stroke-width:0.36;stroke-linecap:square;stroke-linejoin:miter;stroke:rgb(14.99939%,28.999329%,50%);stroke-opacity:0.7;stroke-miterlimit:3.25;" d="M 240.261719 138.472656 L 173.054688 82.046875 " transform="matrix(1,0,0,1,-74,-13)"/>
<path style="fill:none;stroke-width:0.36;stroke-linecap:square;stroke-linejoin:miter;stroke:rgb(14.99939%,28.999329%,50%);stroke-opacity:0.7;stroke-miterlimit:3.25;" d="M 320.203125 120.582031 L 320.324219 43.652344 " transform="matrix(1,0,0,1,-74,-13)"/>
<path style="fill:none;stroke-width:0.36;stroke-linecap:square;stroke-linejoin:miter;stroke:rgb(14.99939%,28.999329%,50%);stroke-opacity:0.7;stroke-miterlimit:3.25;" d="M 173.054688 82.046875 L 86.878906 82.046875 " transform="matrix(1,0,0,1,-74,-13)"/>
<path style="fill:none;stroke-width:0.36;stroke-linecap:square;stroke-linejoin:miter;stroke:rgb(14.99939%,28.999329%,50%);stroke-opacity:0.7;stroke-miterlimit:3.25;" d="M 173.054688 82.046875 L 240.414062 25.667969 " transform="matrix(1,0,0,1,-74,-13)"/>
<path style="fill:none;stroke-width:0.36;stroke-linecap:square;stroke-linejoin:miter;stroke:rgb(14.99939%,28.999329%,50%);stroke-opacity:0.7;stroke-miterlimit:3.25;" d="M 240.414062 25.667969 L 320.324219 43.652344 " transform="matrix(1,0,0,1,-74,-13)"/>
<path style="fill-rule:evenodd;fill:rgb(63.996887%,70.397949%,79.997253%);fill-opacity:1;stroke-width:0.36;stroke-linecap:square;stroke-linejoin:miter;stroke:rgb(0%,0%,0%);stroke-opacity:0.7;stroke-miterlimit:3.25;" d="M 247.957031 138.472656 C 247.957031 136.429688 247.144531 134.472656 245.703125 133.03125 C 244.261719 131.589844 242.304688 130.777344 240.261719 130.777344 C 238.222656 130.777344 236.265625 131.589844 234.824219 133.03125 C 233.378906 134.472656 232.570312 136.429688 232.570312 138.472656 C 232.570312 140.511719 233.378906 142.46875 234.824219 143.910156 C 236.265625 145.355469 238.222656 146.164062 240.261719 146.164062 C 242.304688 146.164062 244.261719 145.355469 245.703125 143.910156 C 247.144531 142.46875 247.957031 140.511719 247.957031 138.472656 Z M 247.957031 138.472656 " transform="matrix(1,0,0,1,-74,-13)"/>
<path style=" stroke:none;fill-rule:evenodd;fill:rgb(0%,0%,0%);fill-opacity:1;" d="M 166.84375 127.71875 L 166.277344 127.71875 L 166.277344 124.089844 C 166.136719 124.21875 165.957031 124.351562 165.734375 124.480469 C 165.511719 124.613281 165.3125 124.710938 165.136719 124.773438 L 165.136719 124.226562 C 165.457031 124.074219 165.734375 123.894531 165.972656 123.679688 C 166.210938 123.46875 166.378906 123.261719 166.476562 123.058594 L 166.84375 123.058594 Z M 166.84375 127.71875 "/>
<path style="fill-rule:evenodd;fill:rgb(63.996887%,70.397949%,79.997253%);fill-opacity:1;stroke-width:0.36;stroke-linecap:square;stroke-linejoin:miter;stroke:rgb(0%,0%,0%);stroke-opacity:0.7;stroke-miterlimit:3.25;" d="M 327.898438 120.582031 C 327.898438 118.542969 327.085938 116.585938 325.644531 115.144531 C 324.203125 113.699219 322.246094 112.890625 320.203125 112.890625 C 318.164062 112.890625 316.207031 113.699219 314.765625 115.144531 C 313.320312 116.585938 312.511719 118.542969 312.511719 120.582031 C 312.511719 122.625 313.320312 124.582031 314.765625 126.023438 C 316.207031 127.464844 318.164062 128.277344 320.203125 128.277344 C 322.246094 128.277344 324.203125 127.464844 325.644531 126.023438 C 327.085938 124.582031 327.898438 122.625 327.898438 120.582031 Z M 327.898438 120.582031 " transform="matrix(1,0,0,1,-74,-13)"/>
<path style=" stroke:none;fill-rule:evenodd;fill:rgb(0%,0%,0%);fill-opacity:1;" d="M 247.664062 109.28125 L 247.664062 109.828125 L 244.597656 109.828125 C 244.597656 109.691406 244.621094 109.558594 244.667969 109.433594 C 244.75 109.222656 244.878906 109.019531 245.050781 108.816406 C 245.226562 108.613281 245.476562 108.378906 245.792969 108.113281 C 246.289062 107.699219 246.625 107.371094 246.796875 107.128906 C 246.972656 106.886719 247.058594 106.65625 247.058594 106.441406 C 247.058594 106.214844 246.980469 106.023438 246.820312 105.871094 C 246.660156 105.714844 246.453125 105.636719 246.199219 105.636719 C 245.929688 105.636719 245.714844 105.71875 245.550781 105.882812 C 245.390625 106.046875 245.308594 106.277344 245.308594 106.570312 L 244.710938 106.507812 C 244.75 106.070312 244.898438 105.738281 245.160156 105.507812 C 245.417969 105.277344 245.769531 105.164062 246.207031 105.164062 C 246.648438 105.164062 247 105.289062 247.257812 105.535156 C 247.515625 105.78125 247.644531 106.089844 247.644531 106.453125 C 247.644531 106.640625 247.605469 106.824219 247.53125 107.003906 C 247.457031 107.179688 247.328125 107.371094 247.152344 107.570312 C 246.980469 107.769531 246.691406 108.042969 246.289062 108.386719 C 245.953125 108.675781 245.738281 108.871094 245.644531 108.972656 C 245.546875 109.074219 245.46875 109.179688 245.40625 109.28125 Z M 247.664062 109.28125 "/>
<path style="fill-rule:evenodd;fill:rgb(63.996887%,70.397949%,79.997253%);fill-opacity:1;stroke-width:0.36;stroke-linecap:square;stroke-linejoin:miter;stroke:rgb(0%,0%,0%);stroke-opacity:0.7;stroke-miterlimit:3.25;" d="M 180.746094 82.046875 C 180.746094 80.007812 179.9375 78.050781 178.492188 76.609375 C 177.050781 75.164062 175.09375 74.355469 173.054688 74.355469 C 171.015625 74.355469 169.058594 75.164062 167.613281 76.609375 C 166.171875 78.050781 165.359375 80.007812 165.359375 82.046875 C 165.359375 84.085938 166.171875 86.042969 167.613281 87.488281 C 169.058594 88.929688 171.015625 89.742188 173.054688 89.742188 C 175.09375 89.742188 177.050781 88.929688 178.492188 87.488281 C 179.9375 86.042969 180.746094 84.085938 180.746094 82.046875 Z M 180.746094 82.046875 " transform="matrix(1,0,0,1,-74,-13)"/>
<path style=" stroke:none;fill-rule:evenodd;fill:rgb(0%,0%,0%);fill-opacity:1;" d="M 97.554688 70.054688 L 98.125 69.980469 C 98.191406 70.300781 98.300781 70.53125 98.457031 70.675781 C 98.613281 70.816406 98.800781 70.886719 99.027344 70.886719 C 99.292969 70.886719 99.515625 70.796875 99.699219 70.609375 C 99.882812 70.425781 99.972656 70.195312 99.972656 69.921875 C 99.972656 69.664062 99.890625 69.449219 99.71875 69.28125 C 99.550781 69.109375 99.339844 69.027344 99.078125 69.027344 C 98.972656 69.027344 98.839844 69.046875 98.679688 69.089844 L 98.742188 68.589844 C 98.78125 68.59375 98.808594 68.59375 98.832031 68.59375 C 99.074219 68.59375 99.292969 68.53125 99.488281 68.402344 C 99.683594 68.277344 99.78125 68.078125 99.78125 67.8125 C 99.78125 67.601562 99.707031 67.429688 99.566406 67.289062 C 99.425781 67.152344 99.242188 67.082031 99.019531 67.082031 C 98.796875 67.082031 98.613281 67.152344 98.464844 67.292969 C 98.320312 67.433594 98.222656 67.644531 98.183594 67.925781 L 97.613281 67.824219 C 97.679688 67.441406 97.839844 67.140625 98.085938 66.929688 C 98.332031 66.71875 98.640625 66.613281 99.007812 66.613281 C 99.261719 66.613281 99.492188 66.667969 99.707031 66.777344 C 99.917969 66.886719 100.082031 67.035156 100.195312 67.226562 C 100.308594 67.414062 100.363281 67.617188 100.363281 67.828125 C 100.363281 68.027344 100.308594 68.210938 100.195312 68.378906 C 100.085938 68.542969 99.929688 68.675781 99.726562 68.773438 C 99.992188 68.835938 100.203125 68.96875 100.351562 69.167969 C 100.503906 69.363281 100.578125 69.613281 100.578125 69.910156 C 100.578125 70.316406 100.429688 70.65625 100.136719 70.9375 C 99.84375 71.21875 99.472656 71.359375 99.023438 71.359375 C 98.617188 71.359375 98.28125 71.238281 98.011719 70.996094 C 97.746094 70.753906 97.59375 70.441406 97.554688 70.054688 Z M 97.554688 70.054688 "/>
<path style="fill-rule:evenodd;fill:rgb(63.996887%,70.397949%,79.997253%);fill-opacity:1;stroke-width:0.36;stroke-linecap:square;stroke-linejoin:miter;stroke:rgb(0%,0%,0%);stroke-opacity:0.7;stroke-miterlimit:3.25;" d="M 94.570312 82.046875 C 94.570312 80.007812 93.757812 78.050781 92.316406 76.609375 C 90.875 75.164062 88.917969 74.355469 86.878906 74.355469 C 84.835938 74.355469 82.878906 75.164062 81.4375 76.609375 C 79.996094 78.050781 79.183594 80.007812 79.183594 82.046875 C 79.183594 84.089844 79.996094 86.046875 81.4375 87.488281 C 82.878906 88.929688 84.835938 89.742188 86.878906 89.742188 C 88.917969 89.742188 90.875 88.929688 92.316406 87.488281 C 93.757812 86.046875 94.570312 84.089844 94.570312 82.046875 Z M 94.570312 82.046875 " transform="matrix(1,0,0,1,-74,-13)"/>
<path style=" stroke:none;fill-rule:evenodd;fill:rgb(0%,0%,0%);fill-opacity:1;" d="M 14.296875 67.796875 L 13.730469 67.796875 C 13.683594 67.589844 13.609375 67.4375 13.519531 67.335938 C 13.367188 67.175781 13.175781 67.097656 12.953125 67.097656 C 12.773438 67.097656 12.613281 67.148438 12.480469 67.246094 C 12.300781 67.378906 12.160156 67.566406 12.058594 67.816406 C 11.953125 68.066406 11.902344 68.421875 11.902344 68.882812 C 12.039062 68.671875 12.203125 68.515625 12.402344 68.414062 C 12.597656 68.316406 12.804688 68.265625 13.019531 68.265625 C 13.398438 68.265625 13.71875 68.402344 13.980469 68.683594 C 14.246094 68.964844 14.378906 69.324219 14.378906 69.769531 C 14.378906 70.0625 14.316406 70.332031 14.191406 70.582031 C 14.066406 70.832031 13.894531 71.027344 13.679688 71.160156 C 13.460938 71.292969 13.210938 71.359375 12.933594 71.359375 C 12.464844 71.359375 12.078125 71.183594 11.78125 70.835938 C 11.484375 70.488281 11.335938 69.914062 11.335938 69.113281 C 11.335938 68.21875 11.5 67.566406 11.828125 67.160156 C 12.113281 66.804688 12.503906 66.628906 12.988281 66.628906 C 13.351562 66.628906 13.648438 66.730469 13.878906 66.9375 C 14.113281 67.144531 14.253906 67.429688 14.296875 67.796875 Z M 11.988281 69.773438 C 11.988281 69.96875 12.03125 70.15625 12.113281 70.339844 C 12.195312 70.519531 12.308594 70.65625 12.457031 70.75 C 12.605469 70.84375 12.761719 70.890625 12.925781 70.890625 C 13.164062 70.890625 13.371094 70.792969 13.539062 70.597656 C 13.710938 70.40625 13.796875 70.140625 13.796875 69.804688 C 13.796875 69.484375 13.714844 69.230469 13.542969 69.046875 C 13.375 68.859375 13.160156 68.765625 12.902344 68.765625 C 12.648438 68.765625 12.433594 68.859375 12.253906 69.046875 C 12.078125 69.230469 11.988281 69.472656 11.988281 69.773438 Z M 11.988281 69.773438 "/>
<path style="fill-rule:evenodd;fill:rgb(63.996887%,70.397949%,79.997253%);fill-opacity:1;stroke-width:0.36;stroke-linecap:square;stroke-linejoin:miter;stroke:rgb(0%,0%,0%);stroke-opacity:0.7;stroke-miterlimit:3.25;" d="M 248.109375 25.667969 C 248.109375 23.628906 247.296875 21.671875 245.855469 20.230469 C 244.414062 18.789062 242.457031 17.976562 240.414062 17.976562 C 238.375 17.976562 236.417969 18.789062 234.976562 20.230469 C 233.53125 21.671875 232.722656 23.628906 232.722656 25.667969 C 232.722656 27.710938 233.53125 29.667969 234.976562 31.109375 C 236.417969 32.550781 238.375 33.363281 240.414062 33.363281 C 242.457031 33.363281 244.414062 32.550781 245.855469 31.109375 C 247.296875 29.667969 248.109375 27.710938 248.109375 25.667969 Z M 248.109375 25.667969 " transform="matrix(1,0,0,1,-74,-13)"/>
<path style=" stroke:none;fill-rule:evenodd;fill:rgb(0%,0%,0%);fill-opacity:1;" d="M 166.6875 14.914062 L 166.6875 13.8125 L 164.679688 13.8125 L 164.679688 13.292969 L 166.792969 10.277344 L 167.253906 10.277344 L 167.253906 13.292969 L 167.886719 13.292969 L 167.886719 13.8125 L 167.253906 13.8125 L 167.253906 14.914062 Z M 166.6875 13.292969 L 166.6875 11.195312 L 165.238281 13.292969 Z M 166.6875 13.292969 "/>
<path style="fill-rule:evenodd;fill:rgb(63.996887%,70.397949%,79.997253%);fill-opacity:1;stroke-width:0.36;stroke-linecap:square;stroke-linejoin:miter;stroke:rgb(0%,0%,0%);stroke-opacity:0.7;stroke-miterlimit:3.25;" d="M 328.015625 43.652344 C 328.015625 41.613281 327.207031 39.65625 325.761719 38.210938 C 324.320312 36.769531 322.363281 35.960938 320.324219 35.960938 C 318.28125 35.960938 316.324219 36.769531 314.882812 38.210938 C 313.441406 39.65625 312.628906 41.613281 312.628906 43.652344 C 312.628906 45.691406 313.441406 47.648438 314.882812 49.09375 C 316.324219 50.535156 318.28125 51.347656 320.324219 51.347656 C 322.363281 51.347656 324.320312 50.535156 325.761719 49.09375 C 327.207031 47.648438 328.015625 45.691406 328.015625 43.652344 Z M 328.015625 43.652344 " transform="matrix(1,0,0,1,-74,-13)"/>
<path style=" stroke:none;fill-rule:evenodd;fill:rgb(0%,0%,0%);fill-opacity:1;" d="M 244.773438 31.667969 L 245.371094 31.617188 C 245.414062 31.910156 245.515625 32.128906 245.679688 32.273438 C 245.839844 32.421875 246.035156 32.496094 246.261719 32.496094 C 246.535156 32.496094 246.769531 32.390625 246.957031 32.183594 C 247.148438 31.976562 247.242188 31.703125 247.242188 31.359375 C 247.242188 31.035156 247.152344 30.777344 246.96875 30.589844 C 246.785156 30.402344 246.546875 30.308594 246.253906 30.308594 C 246.070312 30.308594 245.902344 30.347656 245.753906 30.433594 C 245.609375 30.515625 245.492188 30.625 245.40625 30.757812 L 244.875 30.6875 L 245.320312 28.296875 L 247.632812 28.296875 L 247.632812 28.84375 L 245.777344 28.84375 L 245.527344 30.09375 C 245.804688 29.902344 246.097656 29.804688 246.402344 29.804688 C 246.808594 29.804688 247.152344 29.945312 247.429688 30.226562 C 247.707031 30.507812 247.847656 30.867188 247.847656 31.308594 C 247.847656 31.730469 247.726562 32.09375 247.480469 32.398438 C 247.183594 32.777344 246.777344 32.964844 246.261719 32.964844 C 245.839844 32.964844 245.496094 32.84375 245.230469 32.609375 C 244.960938 32.371094 244.808594 32.058594 244.773438 31.667969 Z M 244.773438 31.667969 "/>
</g>
</svg>
