<?xml version="1.0" encoding="UTF-8"?>
<svg  preserveAspectRatio='none' xmlns="http://www.w3.org/2000/svg" xmlns:xlink="http://www.w3.org/1999/xlink" width="260pt" height="141pt" viewBox="0 0 260 141" version="1.1">
<!-- ***Exported Comment***
Created by Mathematica
***Exported Comment*** -->
<g id="surface104">
<path style="fill:none;stroke-width:0.36;stroke-linecap:square;stroke-linejoin:miter;stroke:rgb(14.99939%,28.999329%,50%);stroke-opacity:0.7;stroke-miterlimit:3.25;" d="M 85.109375 23.902344 L 85.109375 142.394531 " transform="matrix(1,0,0,1,-74,-13)"/>
<path style="fill:none;stroke-width:0.36;stroke-linecap:square;stroke-linejoin:miter;stroke:rgb(14.99939%,28.999329%,50%);stroke-opacity:0.7;stroke-miterlimit:3.25;" d="M 203.601562 23.902344 L 144.355469 142.394531 " transform="matrix(1,0,0,1,-74,-13)"/>
<path style="fill:none;stroke-width:0.36;stroke-linecap:square;stroke-linejoin:miter;stroke:rgb(14.99939%,28.999329%,50%);stroke-opacity:0.7;stroke-miterlimit:3.25;" d="M 203.601562 23.902344 L 262.847656 142.394531 " transform="matrix(1,0,0,1,-74,-13)"/>
<path style="fill:none;stroke-width:0.36;stroke-linecap:square;stroke-linejoin:miter;stroke:rgb(14.99939%,28.999329%,50%);stroke-opacity:0.7;stroke-miterlimit:3.25;" d="M 144.355469 142.394531 L 262.847656 142.394531 " transform="matrix(1,0,0,1,-74,-13)"/>
<path style="fill-rule:evenodd;fill:rgb(63.996887%,70.397949%,79.997253%);fill-opacity:1;stroke-width:0.36;stroke-linecap:square;stroke-linejoin:miter;stroke:rgb(0%,0%,0%);stroke-opacity:0.7;stroke-miterlimit:3.25;" d="M 91.03125 23.902344 C 91.03125 22.328125 90.410156 20.824219 89.296875 19.710938 C 88.1875 18.601562 86.679688 17.976562 85.109375 17.976562 C 83.539062 17.976562 82.03125 18.601562 80.917969 19.710938 C 79.808594 20.824219 79.183594 22.328125 79.183594 23.902344 C 79.183594 25.472656 79.808594 26.980469 80.917969 28.089844 C 82.03125 29.203125 83.539062 29.824219 85.109375 29.824219 C 86.679688 29.824219 88.1875 29.203125 89.296875 28.089844 C 90.410156 26.980469 91.03125 25.472656 91.03125 23.902344 Z M 91.03125 23.902344 " transform="matrix(1,0,0,1,-74,-13)"/>
<path style=" stroke:none;fill-rule:evenodd;fill:rgb(0%,0%,0%);fill-opacity:1;" d="M 11.691406 13.148438 L 11.121094 13.148438 L 11.121094 9.519531 C 10.984375 9.648438 10.804688 9.78125 10.582031 9.910156 C 10.359375 10.042969 10.160156 10.140625 9.980469 10.207031 L 9.980469 9.65625 C 10.300781 9.503906 10.578125 9.324219 10.816406 9.109375 C 11.054688 8.898438 11.222656 8.691406 11.324219 8.488281 L 11.691406 8.488281 Z M 11.691406 13.148438 "/>
<path style="fill-rule:evenodd;fill:rgb(63.996887%,70.397949%,79.997253%);fill-opacity:1;stroke-width:0.36;stroke-linecap:square;stroke-linejoin:miter;stroke:rgb(0%,0%,0%);stroke-opacity:0.7;stroke-miterlimit:3.25;" d="M 91.03125 142.394531 C 91.03125 140.820312 90.410156 139.3125 89.296875 138.203125 C 88.1875 137.09375 86.679688 136.46875 85.109375 136.46875 C 83.539062 136.46875 82.03125 137.09375 80.917969 138.203125 C 79.808594 139.3125 79.183594 140.820312 79.183594 142.394531 C 79.183594 143.964844 79.808594 145.472656 80.917969 146.582031 C 82.03125 147.691406 83.539062 148.316406 85.109375 148.316406 C 86.679688 148.316406 88.1875 147.691406 89.296875 146.582031 C 90.410156 145.472656 91.03125 143.964844 91.03125 142.394531 Z M 91.03125 142.394531 " transform="matrix(1,0,0,1,-74,-13)"/>
<path style=" stroke:none;fill-rule:evenodd;fill:rgb(0%,0%,0%);fill-opacity:1;" d="M 12.570312 131.089844 L 12.570312 131.640625 L 9.5 131.640625 C 9.5 131.5 9.527344 131.371094 9.574219 131.242188 C 9.65625 131.035156 9.78125 130.828125 9.957031 130.625 C 10.132812 130.421875 10.378906 130.1875 10.699219 129.921875 C 11.195312 129.507812 11.527344 129.179688 11.703125 128.9375 C 11.875 128.695312 11.964844 128.464844 11.964844 128.25 C 11.964844 128.023438 11.882812 127.832031 11.722656 127.679688 C 11.566406 127.523438 11.359375 127.445312 11.105469 127.445312 C 10.835938 127.445312 10.617188 127.527344 10.457031 127.691406 C 10.296875 127.855469 10.214844 128.085938 10.214844 128.378906 L 9.613281 128.316406 C 9.65625 127.878906 9.804688 127.546875 10.0625 127.316406 C 10.324219 127.089844 10.671875 126.972656 11.113281 126.972656 C 11.554688 126.972656 11.902344 127.097656 12.160156 127.34375 C 12.417969 127.589844 12.546875 127.898438 12.546875 128.261719 C 12.546875 128.449219 12.511719 128.632812 12.433594 128.8125 C 12.359375 128.992188 12.234375 129.179688 12.058594 129.378906 C 11.882812 129.578125 11.59375 129.851562 11.191406 130.195312 C 10.859375 130.484375 10.640625 130.679688 10.546875 130.78125 C 10.453125 130.886719 10.371094 130.988281 10.308594 131.089844 Z M 12.570312 131.089844 "/>
<path style="fill-rule:evenodd;fill:rgb(63.996887%,70.397949%,79.997253%);fill-opacity:1;stroke-width:0.36;stroke-linecap:square;stroke-linejoin:miter;stroke:rgb(0%,0%,0%);stroke-opacity:0.7;stroke-miterlimit:3.25;" d="M 209.523438 23.902344 C 209.523438 22.328125 208.898438 20.824219 207.789062 19.710938 C 206.679688 18.601562 205.171875 17.976562 203.601562 17.976562 C 202.027344 17.976562 200.523438 18.601562 199.410156 19.710938 C 198.300781 20.824219 197.675781 22.328125 197.675781 23.902344 C 197.675781 25.472656 198.300781 26.980469 199.410156 28.089844 C 200.523438 29.203125 202.027344 29.824219 203.601562 29.824219 C 205.171875 29.824219 206.679688 29.203125 207.789062 28.089844 C 208.898438 26.980469 209.523438 25.472656 209.523438 23.902344 Z M 209.523438 23.902344 " transform="matrix(1,0,0,1,-74,-13)"/>
<path style=" stroke:none;fill-rule:evenodd;fill:rgb(0%,0%,0%);fill-opacity:1;" d="M 128.101562 11.910156 L 128.671875 11.835938 C 128.734375 12.15625 128.847656 12.386719 129.003906 12.527344 C 129.15625 12.671875 129.347656 12.742188 129.570312 12.742188 C 129.835938 12.742188 130.0625 12.648438 130.246094 12.464844 C 130.429688 12.277344 130.519531 12.050781 130.519531 11.777344 C 130.519531 11.515625 130.433594 11.300781 130.265625 11.132812 C 130.097656 10.964844 129.882812 10.878906 129.625 10.878906 C 129.519531 10.878906 129.382812 10.902344 129.222656 10.941406 L 129.289062 10.441406 C 129.324219 10.445312 129.355469 10.449219 129.378906 10.449219 C 129.621094 10.449219 129.839844 10.386719 130.035156 10.257812 C 130.226562 10.128906 130.324219 9.933594 130.324219 9.667969 C 130.324219 9.457031 130.253906 9.28125 130.113281 9.144531 C 129.972656 9.003906 129.789062 8.9375 129.566406 8.9375 C 129.34375 8.9375 129.160156 9.003906 129.011719 9.144531 C 128.863281 9.285156 128.769531 9.496094 128.726562 9.777344 L 128.15625 9.675781 C 128.226562 9.292969 128.386719 8.996094 128.632812 8.785156 C 128.878906 8.574219 129.1875 8.46875 129.554688 8.46875 C 129.804688 8.46875 130.039062 8.523438 130.25 8.632812 C 130.464844 8.742188 130.628906 8.890625 130.742188 9.078125 C 130.855469 9.269531 130.910156 9.46875 130.910156 9.683594 C 130.910156 9.882812 130.855469 10.066406 130.742188 10.234375 C 130.632812 10.398438 130.472656 10.527344 130.273438 10.625 C 130.539062 10.691406 130.75 10.820312 130.898438 11.019531 C 131.046875 11.21875 131.125 11.46875 131.125 11.765625 C 131.125 12.167969 130.976562 12.511719 130.683594 12.792969 C 130.390625 13.070312 130.015625 13.210938 129.566406 13.210938 C 129.164062 13.210938 128.828125 13.089844 128.558594 12.851562 C 128.292969 12.605469 128.140625 12.292969 128.101562 11.910156 Z M 128.101562 11.910156 "/>
<path style="fill-rule:evenodd;fill:rgb(63.996887%,70.397949%,79.997253%);fill-opacity:1;stroke-width:0.36;stroke-linecap:square;stroke-linejoin:miter;stroke:rgb(0%,0%,0%);stroke-opacity:0.7;stroke-miterlimit:3.25;" d="M 150.277344 142.394531 C 150.277344 140.820312 149.65625 139.3125 148.542969 138.203125 C 147.433594 137.09375 145.925781 136.46875 144.355469 136.46875 C 142.78125 136.46875 141.277344 137.09375 140.164062 138.203125 C 139.054688 139.3125 138.429688 140.820312 138.429688 142.394531 C 138.429688 143.964844 139.054688 145.472656 140.164062 146.582031 C 141.277344 147.691406 142.78125 148.316406 144.355469 148.316406 C 145.925781 148.316406 147.433594 147.691406 148.542969 146.582031 C 149.65625 145.472656 150.277344 143.964844 150.277344 142.394531 Z M 150.277344 142.394531 " transform="matrix(1,0,0,1,-74,-13)"/>
<path style=" stroke:none;fill-rule:evenodd;fill:rgb(0%,0%,0%);fill-opacity:1;" d="M 70.625 131.640625 L 70.625 130.539062 L 68.617188 130.539062 L 68.617188 130.015625 L 70.730469 127 L 71.195312 127 L 71.195312 130.015625 L 71.824219 130.015625 L 71.824219 130.539062 L 71.195312 130.539062 L 71.195312 131.640625 Z M 70.625 130.015625 L 70.625 127.917969 L 69.175781 130.015625 Z M 70.625 130.015625 "/>
<path style="fill-rule:evenodd;fill:rgb(63.996887%,70.397949%,79.997253%);fill-opacity:1;stroke-width:0.36;stroke-linecap:square;stroke-linejoin:miter;stroke:rgb(0%,0%,0%);stroke-opacity:0.7;stroke-miterlimit:3.25;" d="M 268.769531 142.394531 C 268.769531 140.820312 268.144531 139.3125 267.035156 138.203125 C 265.925781 137.09375 264.417969 136.46875 262.847656 136.46875 C 261.273438 136.46875 259.765625 137.09375 258.65625 138.203125 C 257.546875 139.3125 256.921875 140.820312 256.921875 142.394531 C 256.921875 143.964844 257.546875 145.472656 258.65625 146.582031 C 259.765625 147.691406 261.273438 148.316406 262.847656 148.316406 C 264.417969 148.316406 265.925781 147.691406 267.035156 146.582031 C 268.144531 145.472656 268.769531 143.964844 268.769531 142.394531 Z M 268.769531 142.394531 " transform="matrix(1,0,0,1,-74,-13)"/>
<path style=" stroke:none;fill-rule:evenodd;fill:rgb(0%,0%,0%);fill-opacity:1;" d="M 187.296875 130.40625 L 187.890625 130.355469 C 187.9375 130.648438 188.039062 130.867188 188.199219 131.015625 C 188.363281 131.164062 188.558594 131.234375 188.785156 131.234375 C 189.058594 131.234375 189.292969 131.132812 189.480469 130.925781 C 189.671875 130.71875 189.765625 130.441406 189.765625 130.101562 C 189.765625 129.773438 189.675781 129.519531 189.492188 129.328125 C 189.308594 129.140625 189.070312 129.046875 188.773438 129.046875 C 188.589844 129.046875 188.425781 129.089844 188.277344 129.171875 C 188.132812 129.257812 188.015625 129.363281 187.929688 129.496094 L 187.394531 129.425781 L 187.84375 127.039062 L 190.152344 127.039062 L 190.152344 127.582031 L 188.300781 127.582031 L 188.050781 128.835938 C 188.328125 128.640625 188.621094 128.542969 188.925781 128.542969 C 189.332031 128.542969 189.671875 128.683594 189.953125 128.964844 C 190.230469 129.246094 190.371094 129.609375 190.371094 130.050781 C 190.371094 130.46875 190.246094 130.832031 190.003906 131.140625 C 189.707031 131.515625 189.300781 131.703125 188.785156 131.703125 C 188.363281 131.703125 188.019531 131.585938 187.75 131.347656 C 187.484375 131.113281 187.332031 130.796875 187.296875 130.40625 Z M 187.296875 130.40625 "/>
<path style="fill-rule:evenodd;fill:rgb(63.996887%,70.397949%,79.997253%);fill-opacity:1;stroke-width:0.36;stroke-linecap:square;stroke-linejoin:miter;stroke:rgb(0%,0%,0%);stroke-opacity:0.7;stroke-miterlimit:3.25;" d="M 328.015625 83.148438 C 328.015625 81.574219 327.390625 80.070312 326.28125 78.957031 C 325.167969 77.847656 323.664062 77.222656 322.089844 77.222656 C 320.519531 77.222656 319.011719 77.847656 317.902344 78.957031 C 316.792969 80.070312 316.167969 81.574219 316.167969 83.148438 C 316.167969 84.71875 316.792969 86.226562 317.902344 87.335938 C 319.011719 88.449219 320.519531 89.070312 322.089844 89.070312 C 323.664062 89.070312 325.167969 88.449219 326.28125 87.335938 C 327.390625 86.226562 328.015625 84.71875 328.015625 83.148438 Z M 328.015625 83.148438 " transform="matrix(1,0,0,1,-74,-13)"/>
<path style=" stroke:none;fill-rule:evenodd;fill:rgb(0%,0%,0%);fill-opacity:1;" d="M 249.511719 68.894531 L 248.945312 68.894531 C 248.894531 68.6875 248.824219 68.535156 248.734375 68.433594 C 248.582031 68.277344 248.390625 68.195312 248.167969 68.195312 C 247.988281 68.195312 247.828125 68.246094 247.691406 68.347656 C 247.515625 68.476562 247.375 68.667969 247.273438 68.917969 C 247.167969 69.164062 247.117188 69.519531 247.117188 69.980469 C 247.253906 69.769531 247.417969 69.617188 247.617188 69.515625 C 247.8125 69.414062 248.019531 69.363281 248.234375 69.363281 C 248.609375 69.363281 248.933594 69.503906 249.195312 69.78125 C 249.460938 70.0625 249.59375 70.425781 249.59375 70.867188 C 249.59375 71.160156 249.53125 71.433594 249.40625 71.683594 C 249.28125 71.933594 249.109375 72.125 248.894531 72.257812 C 248.675781 72.390625 248.425781 72.457031 248.148438 72.457031 C 247.675781 72.457031 247.292969 72.285156 246.996094 71.933594 C 246.699219 71.585938 246.550781 71.011719 246.550781 70.210938 C 246.550781 69.316406 246.714844 68.664062 247.042969 68.257812 C 247.328125 67.90625 247.714844 67.726562 248.203125 67.726562 C 248.566406 67.726562 248.863281 67.832031 249.09375 68.039062 C 249.328125 68.242188 249.464844 68.53125 249.511719 68.894531 Z M 247.203125 70.871094 C 247.203125 71.070312 247.246094 71.257812 247.328125 71.4375 C 247.410156 71.617188 247.523438 71.753906 247.671875 71.847656 C 247.820312 71.941406 247.976562 71.988281 248.140625 71.988281 C 248.378906 71.988281 248.582031 71.894531 248.753906 71.699219 C 248.925781 71.503906 249.011719 71.238281 249.011719 70.902344 C 249.011719 70.582031 248.925781 70.328125 248.757812 70.144531 C 248.589844 69.957031 248.375 69.867188 248.117188 69.867188 C 247.863281 69.867188 247.648438 69.957031 247.46875 70.144531 C 247.292969 70.328125 247.203125 70.570312 247.203125 70.871094 Z M 247.203125 70.871094 "/>
</g>
</svg>
