<?xml version="1.0" encoding="UTF-8"?>
<svg  preserveAspectRatio='none' xmlns="http://www.w3.org/2000/svg" xmlns:xlink="http://www.w3.org/1999/xlink" width="415pt" height="158pt" viewBox="0 0 415 158" version="1.1">
<!-- ***Exported Comment***
Created by Mathematica
***Exported Comment*** -->
<g id="surface77">
<path style="fill:none;stroke-width:0.36;stroke-linecap:square;stroke-linejoin:miter;stroke:rgb(14.99939%,28.999329%,50%);stroke-opacity:0.7;stroke-miterlimit:3.25;" d="M 217.144531 27.382812 L 88.714844 91.597656 " transform="matrix(1,0,0,1,-74,-13)"/>
<path style="fill:none;stroke-width:0.36;stroke-linecap:square;stroke-linejoin:miter;stroke:rgb(14.99939%,28.999329%,50%);stroke-opacity:0.7;stroke-miterlimit:3.25;" d="M 217.144531 27.382812 L 345.574219 91.597656 " transform="matrix(1,0,0,1,-74,-13)"/>
<path style="fill:none;stroke-width:0.36;stroke-linecap:square;stroke-linejoin:miter;stroke:rgb(14.99939%,28.999329%,50%);stroke-opacity:0.7;stroke-miterlimit:3.25;" d="M 88.714844 91.597656 L 217.144531 155.8125 " transform="matrix(1,0,0,1,-74,-13)"/>
<path style="fill:none;stroke-width:0.36;stroke-linecap:square;stroke-linejoin:miter;stroke:rgb(14.99939%,28.999329%,50%);stroke-opacity:0.7;stroke-miterlimit:3.25;" d="M 217.144531 155.8125 L 345.574219 91.597656 " transform="matrix(1,0,0,1,-74,-13)"/>
<path style="fill-rule:evenodd;fill:rgb(63.996887%,70.397949%,79.997253%);fill-opacity:1;stroke-width:0.36;stroke-linecap:square;stroke-linejoin:miter;stroke:rgb(0%,0%,0%);stroke-opacity:0.7;stroke-miterlimit:3.25;" d="M 223.566406 27.382812 C 223.566406 25.679688 222.890625 24.046875 221.6875 22.84375 C 220.480469 21.640625 218.847656 20.960938 217.144531 20.960938 C 215.441406 20.960938 213.808594 21.640625 212.605469 22.84375 C 211.398438 24.046875 210.722656 25.679688 210.722656 27.382812 C 210.722656 29.085938 211.398438 30.71875 212.605469 31.925781 C 213.808594 33.128906 215.441406 33.804688 217.144531 33.804688 C 218.847656 33.804688 220.480469 33.128906 221.6875 31.925781 C 222.890625 30.71875 223.566406 29.085938 223.566406 27.382812 Z M 223.566406 27.382812 " transform="matrix(1,0,0,1,-74,-13)"/>
<path style=" stroke:none;fill-rule:evenodd;fill:rgb(0%,0%,0%);fill-opacity:1;" d="M 143.726562 16.628906 L 143.15625 16.628906 L 143.15625 13 C 143.019531 13.132812 142.839844 13.261719 142.617188 13.394531 C 142.394531 13.523438 142.195312 13.621094 142.019531 13.6875 L 142.019531 13.136719 C 142.335938 12.988281 142.617188 12.804688 142.855469 12.59375 C 143.09375 12.378906 143.261719 12.171875 143.359375 11.972656 L 143.726562 11.972656 Z M 143.726562 16.628906 "/>
<path style="fill-rule:evenodd;fill:rgb(63.996887%,70.397949%,79.997253%);fill-opacity:1;stroke-width:0.36;stroke-linecap:square;stroke-linejoin:miter;stroke:rgb(0%,0%,0%);stroke-opacity:0.7;stroke-miterlimit:3.25;" d="M 95.136719 91.597656 C 95.136719 89.894531 94.460938 88.261719 93.257812 87.058594 C 92.050781 85.855469 90.417969 85.175781 88.714844 85.175781 C 87.011719 85.175781 85.378906 85.855469 84.175781 87.058594 C 82.972656 88.261719 82.292969 89.894531 82.292969 91.597656 C 82.292969 93.300781 82.972656 94.933594 84.175781 96.140625 C 85.378906 97.34375 87.011719 98.019531 88.714844 98.019531 C 90.417969 98.019531 92.050781 97.34375 93.257812 96.140625 C 94.460938 94.933594 95.136719 93.300781 95.136719 91.597656 Z M 95.136719 91.597656 " transform="matrix(1,0,0,1,-74,-13)"/>
<path style=" stroke:none;fill-rule:evenodd;fill:rgb(0%,0%,0%);fill-opacity:1;" d="M 16.175781 80.296875 L 16.175781 80.84375 L 13.109375 80.84375 C 13.109375 80.707031 13.132812 80.574219 13.179688 80.449219 C 13.261719 80.238281 13.390625 80.035156 13.5625 79.832031 C 13.738281 79.628906 13.988281 79.394531 14.304688 79.128906 C 14.800781 78.714844 15.136719 78.386719 15.308594 78.144531 C 15.484375 77.902344 15.570312 77.671875 15.570312 77.457031 C 15.570312 77.230469 15.492188 77.039062 15.332031 76.882812 C 15.171875 76.730469 14.964844 76.652344 14.710938 76.652344 C 14.441406 76.652344 14.226562 76.734375 14.0625 76.898438 C 13.902344 77.0625 13.820312 77.292969 13.820312 77.582031 L 13.222656 77.523438 C 13.261719 77.085938 13.410156 76.753906 13.671875 76.523438 C 13.929688 76.292969 14.28125 76.179688 14.71875 76.179688 C 15.160156 76.179688 15.511719 76.304688 15.769531 76.550781 C 16.027344 76.796875 16.15625 77.105469 16.15625 77.46875 C 16.15625 77.65625 16.117188 77.835938 16.042969 78.015625 C 15.96875 78.195312 15.839844 78.386719 15.664062 78.585938 C 15.492188 78.785156 15.203125 79.054688 14.800781 79.402344 C 14.464844 79.691406 14.25 79.886719 14.15625 79.988281 C 14.058594 80.089844 13.980469 80.195312 13.917969 80.296875 Z M 16.175781 80.296875 "/>
<path style="fill-rule:evenodd;fill:rgb(63.996887%,70.397949%,79.997253%);fill-opacity:1;stroke-width:0.36;stroke-linecap:square;stroke-linejoin:miter;stroke:rgb(0%,0%,0%);stroke-opacity:0.7;stroke-miterlimit:3.25;" d="M 223.566406 155.8125 C 223.566406 154.109375 222.890625 152.476562 221.6875 151.273438 C 220.480469 150.070312 218.847656 149.390625 217.144531 149.390625 C 215.441406 149.390625 213.808594 150.070312 212.605469 151.273438 C 211.398438 152.476562 210.722656 154.109375 210.722656 155.8125 C 210.722656 157.515625 211.398438 159.148438 212.605469 160.355469 C 213.808594 161.558594 215.441406 162.234375 217.144531 162.234375 C 218.847656 162.234375 220.480469 161.558594 221.6875 160.355469 C 222.890625 159.148438 223.566406 157.515625 223.566406 155.8125 Z M 223.566406 155.8125 " transform="matrix(1,0,0,1,-74,-13)"/>
<path style=" stroke:none;fill-rule:evenodd;fill:rgb(0%,0%,0%);fill-opacity:1;" d="M 141.644531 143.824219 L 142.214844 143.746094 C 142.28125 144.066406 142.390625 144.300781 142.546875 144.441406 C 142.703125 144.582031 142.894531 144.652344 143.117188 144.652344 C 143.382812 144.652344 143.605469 144.5625 143.789062 144.375 C 143.972656 144.191406 144.066406 143.960938 144.066406 143.6875 C 144.066406 143.429688 143.980469 143.214844 143.8125 143.046875 C 143.644531 142.875 143.429688 142.792969 143.167969 142.792969 C 143.0625 142.792969 142.929688 142.8125 142.769531 142.855469 L 142.832031 142.355469 C 142.871094 142.359375 142.902344 142.363281 142.925781 142.363281 C 143.167969 142.363281 143.386719 142.296875 143.578125 142.171875 C 143.773438 142.042969 143.871094 141.84375 143.871094 141.578125 C 143.871094 141.367188 143.800781 141.195312 143.65625 141.054688 C 143.515625 140.917969 143.335938 140.847656 143.109375 140.847656 C 142.890625 140.847656 142.707031 140.917969 142.558594 141.058594 C 142.410156 141.199219 142.316406 141.410156 142.273438 141.691406 L 141.703125 141.589844 C 141.773438 141.207031 141.929688 140.910156 142.175781 140.695312 C 142.421875 140.484375 142.730469 140.378906 143.097656 140.378906 C 143.351562 140.378906 143.585938 140.433594 143.796875 140.542969 C 144.011719 140.652344 144.171875 140.800781 144.285156 140.992188 C 144.398438 141.179688 144.457031 141.382812 144.457031 141.59375 C 144.457031 141.796875 144.398438 141.980469 144.289062 142.144531 C 144.175781 142.308594 144.019531 142.441406 143.816406 142.539062 C 144.085938 142.601562 144.292969 142.734375 144.445312 142.933594 C 144.59375 143.132812 144.667969 143.378906 144.667969 143.675781 C 144.667969 144.082031 144.523438 144.421875 144.226562 144.703125 C 143.933594 144.984375 143.5625 145.125 143.113281 145.125 C 142.707031 145.125 142.371094 145.003906 142.105469 144.761719 C 141.835938 144.519531 141.683594 144.207031 141.644531 143.824219 Z M 141.644531 143.824219 "/>
<path style="fill-rule:evenodd;fill:rgb(63.996887%,70.397949%,79.997253%);fill-opacity:1;stroke-width:0.36;stroke-linecap:square;stroke-linejoin:miter;stroke:rgb(0%,0%,0%);stroke-opacity:0.7;stroke-miterlimit:3.25;" d="M 351.996094 91.597656 C 351.996094 89.894531 351.320312 88.261719 350.117188 87.058594 C 348.910156 85.855469 347.277344 85.175781 345.574219 85.175781 C 343.871094 85.175781 342.238281 85.855469 341.035156 87.058594 C 339.828125 88.261719 339.152344 89.894531 339.152344 91.597656 C 339.152344 93.300781 339.828125 94.933594 341.035156 96.140625 C 342.238281 97.34375 343.871094 98.019531 345.574219 98.019531 C 347.277344 98.019531 348.910156 97.34375 350.117188 96.140625 C 351.320312 94.933594 351.996094 93.300781 351.996094 91.597656 Z M 351.996094 91.597656 " transform="matrix(1,0,0,1,-74,-13)"/>
<path style=" stroke:none;fill-rule:evenodd;fill:rgb(0%,0%,0%);fill-opacity:1;" d="M 271.847656 80.84375 L 271.847656 79.742188 L 269.835938 79.742188 L 269.835938 79.222656 L 271.949219 76.207031 L 272.414062 76.207031 L 272.414062 79.222656 L 273.046875 79.222656 L 273.046875 79.742188 L 272.414062 79.742188 L 272.414062 80.84375 Z M 271.847656 79.222656 L 271.847656 77.125 L 270.398438 79.222656 Z M 271.847656 79.222656 "/>
<path style="fill-rule:evenodd;fill:rgb(63.996887%,70.397949%,79.997253%);fill-opacity:1;stroke-width:0.36;stroke-linecap:square;stroke-linejoin:miter;stroke:rgb(0%,0%,0%);stroke-opacity:0.7;stroke-miterlimit:3.25;" d="M 416.210938 91.597656 C 416.210938 89.894531 415.535156 88.261719 414.332031 87.058594 C 413.125 85.855469 411.492188 85.175781 409.789062 85.175781 C 408.085938 85.175781 406.453125 85.855469 405.25 87.058594 C 404.042969 88.261719 403.367188 89.894531 403.367188 91.597656 C 403.367188 93.300781 404.042969 94.933594 405.25 96.140625 C 406.453125 97.34375 408.085938 98.019531 409.789062 98.019531 C 411.492188 98.019531 413.125 97.34375 414.332031 96.140625 C 415.535156 94.933594 416.210938 93.300781 416.210938 91.597656 Z M 416.210938 91.597656 " transform="matrix(1,0,0,1,-74,-13)"/>
<path style=" stroke:none;fill-rule:evenodd;fill:rgb(0%,0%,0%);fill-opacity:1;" d="M 334.238281 79.613281 L 334.835938 79.5625 C 334.878906 79.855469 334.984375 80.074219 335.144531 80.222656 C 335.304688 80.367188 335.5 80.441406 335.730469 80.441406 C 336.003906 80.441406 336.234375 80.339844 336.425781 80.132812 C 336.613281 79.925781 336.710938 79.648438 336.710938 79.304688 C 336.710938 78.980469 336.617188 78.722656 336.4375 78.535156 C 336.253906 78.347656 336.015625 78.253906 335.71875 78.253906 C 335.535156 78.253906 335.371094 78.296875 335.222656 78.378906 C 335.074219 78.460938 334.957031 78.570312 334.875 78.703125 L 334.339844 78.632812 L 334.789062 76.246094 L 337.097656 76.246094 L 337.097656 76.789062 L 335.242188 76.789062 L 334.996094 78.042969 C 335.273438 77.847656 335.566406 77.75 335.871094 77.75 C 336.277344 77.75 336.617188 77.890625 336.894531 78.171875 C 337.175781 78.453125 337.3125 78.8125 337.3125 79.253906 C 337.3125 79.675781 337.191406 80.039062 336.945312 80.347656 C 336.648438 80.722656 336.242188 80.910156 335.730469 80.910156 C 335.308594 80.910156 334.960938 80.792969 334.695312 80.554688 C 334.429688 80.320312 334.277344 80.003906 334.238281 79.613281 Z M 334.238281 79.613281 "/>
<path style="fill-rule:evenodd;fill:rgb(63.996887%,70.397949%,79.997253%);fill-opacity:1;stroke-width:0.36;stroke-linecap:square;stroke-linejoin:miter;stroke:rgb(0%,0%,0%);stroke-opacity:0.7;stroke-miterlimit:3.25;" d="M 480.425781 91.597656 C 480.425781 89.894531 479.75 88.261719 478.542969 87.058594 C 477.339844 85.855469 475.707031 85.175781 474.003906 85.175781 C 472.300781 85.175781 470.667969 85.855469 469.464844 87.058594 C 468.257812 88.261719 467.582031 89.894531 467.582031 91.597656 C 467.582031 93.300781 468.257812 94.933594 469.464844 96.140625 C 470.667969 97.34375 472.300781 98.019531 474.003906 98.019531 C 475.707031 98.019531 477.339844 97.34375 478.542969 96.140625 C 479.75 94.933594 480.425781 93.300781 480.425781 91.597656 Z M 480.425781 91.597656 " transform="matrix(1,0,0,1,-74,-13)"/>
<path style=" stroke:none;fill-rule:evenodd;fill:rgb(0%,0%,0%);fill-opacity:1;" d="M 401.425781 77.347656 L 400.859375 77.347656 C 400.808594 77.140625 400.738281 76.988281 400.644531 76.886719 C 400.492188 76.726562 400.304688 76.648438 400.082031 76.648438 C 399.898438 76.648438 399.742188 76.699219 399.605469 76.796875 C 399.429688 76.929688 399.289062 77.117188 399.183594 77.367188 C 399.082031 77.617188 399.03125 77.972656 399.03125 78.433594 C 399.164062 78.222656 399.332031 78.066406 399.527344 77.964844 C 399.726562 77.867188 399.933594 77.816406 400.148438 77.816406 C 400.523438 77.816406 400.84375 77.953125 401.109375 78.234375 C 401.375 78.515625 401.507812 78.875 401.507812 79.320312 C 401.507812 79.613281 401.445312 79.882812 401.320312 80.132812 C 401.195312 80.382812 401.023438 80.578125 400.804688 80.710938 C 400.585938 80.84375 400.339844 80.910156 400.0625 80.910156 C 399.589844 80.910156 399.207031 80.734375 398.90625 80.386719 C 398.609375 80.039062 398.460938 79.464844 398.460938 78.664062 C 398.460938 77.769531 398.625 77.117188 398.953125 76.710938 C 399.242188 76.355469 399.628906 76.179688 400.117188 76.179688 C 400.480469 76.179688 400.777344 76.28125 401.007812 76.488281 C 401.238281 76.695312 401.378906 76.980469 401.425781 77.347656 Z M 399.117188 79.324219 C 399.117188 79.519531 399.15625 79.707031 399.238281 79.890625 C 399.324219 80.070312 399.4375 80.207031 399.585938 80.300781 C 399.734375 80.394531 399.890625 80.441406 400.054688 80.441406 C 400.292969 80.441406 400.496094 80.34375 400.667969 80.148438 C 400.839844 79.957031 400.925781 79.691406 400.925781 79.355469 C 400.925781 79.035156 400.839844 78.78125 400.671875 78.597656 C 400.5 78.410156 400.289062 78.316406 400.03125 78.316406 C 399.777344 78.316406 399.558594 78.410156 399.382812 78.597656 C 399.207031 78.78125 399.117188 79.023438 399.117188 79.324219 Z M 399.117188 79.324219 "/>
</g>
</svg>
