<?xml version="1.0" encoding="UTF-8"?>
<svg  preserveAspectRatio='none' xmlns="http://www.w3.org/2000/svg" xmlns:xlink="http://www.w3.org/1999/xlink" width="288pt" height="106pt" viewBox="0 0 288 106" version="1.1">
<!-- ***Exported Comment***
Created by Mathematica
***Exported Comment*** -->
<g id="surface59">
<path style="fill:none;stroke-width:0.36;stroke-linecap:square;stroke-linejoin:miter;stroke:rgb(14.99939%,28.999329%,50%);stroke-opacity:0.7;stroke-miterlimit:3.25;" d="M 172.21875 49.488281 L 217.929688 106.125 " transform="matrix(1,0,0,1,-74,-13)"/>
<path style="fill:none;stroke-width:0.36;stroke-linecap:square;stroke-linejoin:miter;stroke:rgb(14.99939%,28.999329%,50%);stroke-opacity:0.7;stroke-miterlimit:3.25;" d="M 172.21875 49.488281 L 263.71875 49.527344 " transform="matrix(1,0,0,1,-74,-13)"/>
<path style="fill:none;stroke-width:0.36;stroke-linecap:square;stroke-linejoin:miter;stroke:rgb(14.99939%,28.999329%,50%);stroke-opacity:0.7;stroke-miterlimit:3.25;" d="M 172.21875 49.488281 L 87.039062 25.808594 " transform="matrix(1,0,0,1,-74,-13)"/>
<path style="fill:none;stroke-width:0.36;stroke-linecap:square;stroke-linejoin:miter;stroke:rgb(14.99939%,28.999329%,50%);stroke-opacity:0.7;stroke-miterlimit:3.25;" d="M 217.929688 106.125 L 263.71875 49.527344 " transform="matrix(1,0,0,1,-74,-13)"/>
<path style="fill:none;stroke-width:0.36;stroke-linecap:square;stroke-linejoin:miter;stroke:rgb(14.99939%,28.999329%,50%);stroke-opacity:0.7;stroke-miterlimit:3.25;" d="M 263.71875 49.527344 L 348.960938 25.820312 " transform="matrix(1,0,0,1,-74,-13)"/>
<path style="fill-rule:evenodd;fill:rgb(63.996887%,70.397949%,79.997253%);fill-opacity:1;stroke-width:0.36;stroke-linecap:square;stroke-linejoin:miter;stroke:rgb(0%,0%,0%);stroke-opacity:0.7;stroke-miterlimit:3.25;" d="M 179.5 49.488281 C 179.5 47.558594 178.730469 45.707031 177.367188 44.34375 C 176.003906 42.980469 174.152344 42.210938 172.21875 42.210938 C 170.289062 42.210938 168.4375 42.980469 167.074219 44.34375 C 165.710938 45.707031 164.941406 47.558594 164.941406 49.488281 C 164.941406 51.421875 165.710938 53.269531 167.074219 54.636719 C 168.4375 56 170.289062 56.769531 172.21875 56.769531 C 174.152344 56.769531 176.003906 56 177.367188 54.636719 C 178.730469 53.269531 179.5 51.421875 179.5 49.488281 Z M 179.5 49.488281 " transform="matrix(1,0,0,1,-74,-13)"/>
<path style=" stroke:none;fill-rule:evenodd;fill:rgb(0%,0%,0%);fill-opacity:1;" d="M 98.800781 38.734375 L 98.234375 38.734375 L 98.234375 35.105469 C 98.097656 35.238281 97.917969 35.367188 97.695312 35.5 C 97.472656 35.628906 97.269531 35.726562 97.09375 35.792969 L 97.09375 35.242188 C 97.414062 35.09375 97.691406 34.910156 97.929688 34.699219 C 98.167969 34.484375 98.335938 34.277344 98.4375 34.078125 L 98.800781 34.078125 Z M 98.800781 38.734375 "/>
<path style="fill-rule:evenodd;fill:rgb(63.996887%,70.397949%,79.997253%);fill-opacity:1;stroke-width:0.36;stroke-linecap:square;stroke-linejoin:miter;stroke:rgb(0%,0%,0%);stroke-opacity:0.7;stroke-miterlimit:3.25;" d="M 225.207031 106.125 C 225.207031 104.195312 224.441406 102.34375 223.078125 100.976562 C 221.710938 99.613281 219.859375 98.847656 217.929688 98.847656 C 216 98.847656 214.148438 99.613281 212.785156 100.976562 C 211.417969 102.34375 210.652344 104.195312 210.652344 106.125 C 210.652344 108.054688 211.417969 109.90625 212.785156 111.269531 C 214.148438 112.636719 216 113.402344 217.929688 113.402344 C 219.859375 113.402344 221.710938 112.636719 223.078125 111.269531 C 224.441406 109.90625 225.207031 108.054688 225.207031 106.125 Z M 225.207031 106.125 " transform="matrix(1,0,0,1,-74,-13)"/>
<path style=" stroke:none;fill-rule:evenodd;fill:rgb(0%,0%,0%);fill-opacity:1;" d="M 145.390625 94.824219 L 145.390625 95.371094 L 142.324219 95.371094 C 142.324219 95.234375 142.347656 95.101562 142.394531 94.972656 C 142.476562 94.765625 142.605469 94.558594 142.777344 94.355469 C 142.953125 94.152344 143.203125 93.917969 143.519531 93.652344 C 144.015625 93.238281 144.351562 92.910156 144.523438 92.667969 C 144.699219 92.425781 144.785156 92.199219 144.785156 91.980469 C 144.785156 91.757812 144.707031 91.566406 144.546875 91.410156 C 144.386719 91.253906 144.179688 91.175781 143.925781 91.175781 C 143.65625 91.175781 143.441406 91.257812 143.277344 91.425781 C 143.117188 91.589844 143.035156 91.816406 143.035156 92.109375 L 142.4375 92.050781 C 142.476562 91.613281 142.625 91.277344 142.886719 91.050781 C 143.144531 90.820312 143.496094 90.707031 143.933594 90.707031 C 144.375 90.707031 144.726562 90.828125 144.984375 91.074219 C 145.242188 91.324219 145.371094 91.628906 145.371094 91.996094 C 145.371094 92.179688 145.332031 92.363281 145.257812 92.542969 C 145.183594 92.722656 145.054688 92.910156 144.878906 93.109375 C 144.707031 93.308594 144.417969 93.582031 144.015625 93.929688 C 143.679688 94.214844 143.464844 94.410156 143.371094 94.515625 C 143.273438 94.617188 143.195312 94.71875 143.132812 94.824219 Z M 145.390625 94.824219 "/>
<path style="fill-rule:evenodd;fill:rgb(63.996887%,70.397949%,79.997253%);fill-opacity:1;stroke-width:0.36;stroke-linecap:square;stroke-linejoin:miter;stroke:rgb(0%,0%,0%);stroke-opacity:0.7;stroke-miterlimit:3.25;" d="M 270.996094 49.527344 C 270.996094 47.597656 270.230469 45.746094 268.867188 44.382812 C 267.5 43.015625 265.648438 42.25 263.71875 42.25 C 261.789062 42.25 259.9375 43.015625 258.574219 44.382812 C 257.207031 45.746094 256.441406 47.597656 256.441406 49.527344 C 256.441406 51.457031 257.207031 53.308594 258.574219 54.675781 C 259.9375 56.039062 261.789062 56.804688 263.71875 56.804688 C 265.648438 56.804688 267.5 56.039062 268.867188 54.675781 C 270.230469 53.308594 270.996094 51.457031 270.996094 49.527344 Z M 270.996094 49.527344 " transform="matrix(1,0,0,1,-74,-13)"/>
<path style=" stroke:none;fill-rule:evenodd;fill:rgb(0%,0%,0%);fill-opacity:1;" d="M 188.21875 37.539062 L 188.789062 37.460938 C 188.855469 37.78125 188.964844 38.015625 189.121094 38.15625 C 189.277344 38.296875 189.46875 38.367188 189.691406 38.367188 C 189.957031 38.367188 190.179688 38.277344 190.363281 38.089844 C 190.546875 37.90625 190.640625 37.675781 190.640625 37.402344 C 190.640625 37.144531 190.554688 36.929688 190.386719 36.761719 C 190.21875 36.589844 190.003906 36.507812 189.742188 36.507812 C 189.636719 36.507812 189.503906 36.527344 189.34375 36.570312 L 189.40625 36.070312 C 189.445312 36.074219 189.476562 36.078125 189.496094 36.078125 C 189.742188 36.078125 189.960938 36.011719 190.152344 35.886719 C 190.347656 35.757812 190.445312 35.558594 190.445312 35.292969 C 190.445312 35.082031 190.375 34.910156 190.230469 34.769531 C 190.089844 34.632812 189.910156 34.5625 189.683594 34.5625 C 189.464844 34.5625 189.277344 34.632812 189.132812 34.773438 C 188.984375 34.914062 188.886719 35.125 188.847656 35.40625 L 188.277344 35.304688 C 188.347656 34.921875 188.503906 34.625 188.75 34.410156 C 188.996094 34.199219 189.304688 34.09375 189.671875 34.09375 C 189.925781 34.09375 190.15625 34.148438 190.371094 34.257812 C 190.582031 34.367188 190.746094 34.515625 190.859375 34.707031 C 190.972656 34.894531 191.03125 35.097656 191.03125 35.308594 C 191.03125 35.511719 190.972656 35.695312 190.863281 35.859375 C 190.75 36.023438 190.59375 36.15625 190.390625 36.253906 C 190.660156 36.316406 190.867188 36.449219 191.015625 36.648438 C 191.167969 36.847656 191.242188 37.09375 191.242188 37.390625 C 191.242188 37.796875 191.097656 38.136719 190.800781 38.417969 C 190.507812 38.699219 190.136719 38.839844 189.6875 38.839844 C 189.28125 38.839844 188.945312 38.71875 188.675781 38.476562 C 188.410156 38.234375 188.257812 37.921875 188.21875 37.539062 Z M 188.21875 37.539062 "/>
<path style="fill-rule:evenodd;fill:rgb(63.996887%,70.397949%,79.997253%);fill-opacity:1;stroke-width:0.36;stroke-linecap:square;stroke-linejoin:miter;stroke:rgb(0%,0%,0%);stroke-opacity:0.7;stroke-miterlimit:3.25;" d="M 94.316406 25.808594 C 94.316406 23.878906 93.550781 22.027344 92.183594 20.660156 C 90.820312 19.296875 88.96875 18.53125 87.039062 18.53125 C 85.109375 18.53125 83.257812 19.296875 81.890625 20.660156 C 80.527344 22.027344 79.761719 23.878906 79.761719 25.808594 C 79.761719 27.738281 80.527344 29.589844 81.890625 30.953125 C 83.257812 32.320312 85.109375 33.085938 87.039062 33.085938 C 88.96875 33.085938 90.820312 32.320312 92.183594 30.953125 C 93.550781 29.589844 94.316406 27.738281 94.316406 25.808594 Z M 94.316406 25.808594 " transform="matrix(1,0,0,1,-74,-13)"/>
<path style=" stroke:none;fill-rule:evenodd;fill:rgb(0%,0%,0%);fill-opacity:1;" d="M 13.308594 15.054688 L 13.308594 13.953125 L 11.300781 13.953125 L 11.300781 13.429688 L 13.414062 10.414062 L 13.878906 10.414062 L 13.878906 13.429688 L 14.507812 13.429688 L 14.507812 13.953125 L 13.878906 13.953125 L 13.878906 15.054688 Z M 13.308594 13.429688 L 13.308594 11.332031 L 11.859375 13.429688 Z M 13.308594 13.429688 "/>
<path style="fill-rule:evenodd;fill:rgb(63.996887%,70.397949%,79.997253%);fill-opacity:1;stroke-width:0.36;stroke-linecap:square;stroke-linejoin:miter;stroke:rgb(0%,0%,0%);stroke-opacity:0.7;stroke-miterlimit:3.25;" d="M 356.238281 25.820312 C 356.238281 23.890625 355.472656 22.039062 354.109375 20.675781 C 352.742188 19.3125 350.890625 18.542969 348.960938 18.542969 C 347.03125 18.542969 345.179688 19.3125 343.816406 20.675781 C 342.449219 22.039062 341.683594 23.890625 341.683594 25.820312 C 341.683594 27.753906 342.449219 29.605469 343.816406 30.96875 C 345.179688 32.332031 347.03125 33.101562 348.960938 33.101562 C 350.890625 33.101562 352.742188 32.332031 354.109375 30.96875 C 355.472656 29.605469 356.238281 27.753906 356.238281 25.820312 Z M 356.238281 25.820312 " transform="matrix(1,0,0,1,-74,-13)"/>
<path style=" stroke:none;fill-rule:evenodd;fill:rgb(0%,0%,0%);fill-opacity:1;" d="M 273.410156 13.835938 L 274.007812 13.785156 C 274.054688 14.078125 274.15625 14.296875 274.316406 14.445312 C 274.480469 14.589844 274.671875 14.664062 274.902344 14.664062 C 275.175781 14.664062 275.40625 14.5625 275.597656 14.355469 C 275.785156 14.148438 275.882812 13.871094 275.882812 13.53125 C 275.882812 13.203125 275.789062 12.949219 275.609375 12.757812 C 275.425781 12.570312 275.1875 12.476562 274.890625 12.476562 C 274.707031 12.476562 274.542969 12.519531 274.394531 12.601562 C 274.246094 12.6875 274.132812 12.792969 274.046875 12.925781 L 273.511719 12.855469 L 273.960938 10.46875 L 276.269531 10.46875 L 276.269531 11.011719 L 274.417969 11.011719 L 274.167969 12.265625 C 274.445312 12.070312 274.738281 11.972656 275.042969 11.972656 C 275.449219 11.972656 275.789062 12.113281 276.066406 12.394531 C 276.347656 12.675781 276.484375 13.039062 276.484375 13.480469 C 276.484375 13.898438 276.363281 14.261719 276.121094 14.570312 C 275.820312 14.945312 275.414062 15.132812 274.902344 15.132812 C 274.480469 15.132812 274.136719 15.015625 273.867188 14.777344 C 273.601562 14.542969 273.449219 14.226562 273.410156 13.835938 Z M 273.410156 13.835938 "/>
</g>
</svg>
