<?xml version="1.0" encoding="UTF-8"?>
<svg  preserveAspectRatio='none' xmlns="http://www.w3.org/2000/svg" xmlns:xlink="http://www.w3.org/1999/xlink" width="415pt" height="166pt" viewBox="0 0 415 166" version="1.1">
<!-- ***Exported Comment***
Created by Mathematica
***Exported Comment*** -->
<g id="surface68">
<path style="fill:none;stroke-width:0.36;stroke-linecap:square;stroke-linejoin:miter;stroke:rgb(14.99939%,28.999329%,50%);stroke-opacity:0.7;stroke-miterlimit:3.25;" d="M 343.566406 33.402344 L 343.566406 157.820312 " transform="matrix(1,0,0,1,-74,-13)"/>
<path style="fill-rule:evenodd;fill:rgb(63.996887%,70.397949%,79.997253%);fill-opacity:1;stroke-width:0.36;stroke-linecap:square;stroke-linejoin:miter;stroke:rgb(0%,0%,0%);stroke-opacity:0.7;stroke-miterlimit:3.25;" d="M 107.175781 33.402344 C 107.175781 30.105469 105.867188 26.941406 103.535156 24.605469 C 101.199219 22.273438 98.035156 20.960938 94.734375 20.960938 C 91.4375 20.960938 88.273438 22.273438 85.9375 24.605469 C 83.605469 26.941406 82.292969 30.105469 82.292969 33.402344 C 82.292969 36.703125 83.605469 39.867188 85.9375 42.203125 C 88.273438 44.535156 91.4375 45.847656 94.734375 45.847656 C 98.035156 45.847656 101.199219 44.535156 103.535156 42.203125 C 105.867188 39.867188 107.175781 36.703125 107.175781 33.402344 Z M 107.175781 33.402344 " transform="matrix(1,0,0,1,-74,-13)"/>
<path style=" stroke:none;fill-rule:evenodd;fill:rgb(0%,0%,0%);fill-opacity:1;" d="M 21.316406 22.648438 L 20.75 22.648438 L 20.75 19.023438 C 20.613281 19.152344 20.429688 19.28125 20.207031 19.414062 C 19.984375 19.542969 19.785156 19.644531 19.609375 19.707031 L 19.609375 19.15625 C 19.929688 19.007812 20.207031 18.828125 20.445312 18.613281 C 20.683594 18.402344 20.851562 18.195312 20.949219 17.992188 L 21.316406 17.992188 Z M 21.316406 22.648438 "/>
<path style="fill-rule:evenodd;fill:rgb(63.996887%,70.397949%,79.997253%);fill-opacity:1;stroke-width:0.36;stroke-linecap:square;stroke-linejoin:miter;stroke:rgb(0%,0%,0%);stroke-opacity:0.7;stroke-miterlimit:3.25;" d="M 231.59375 33.402344 C 231.59375 30.105469 230.28125 26.941406 227.949219 24.605469 C 225.617188 22.273438 222.453125 20.960938 219.152344 20.960938 C 215.851562 20.960938 212.6875 22.273438 210.355469 24.605469 C 208.019531 26.941406 206.710938 30.105469 206.710938 33.402344 C 206.710938 36.703125 208.019531 39.867188 210.355469 42.203125 C 212.6875 44.535156 215.851562 45.847656 219.152344 45.847656 C 222.453125 45.847656 225.617188 44.535156 227.949219 42.203125 C 230.28125 39.867188 231.59375 36.703125 231.59375 33.402344 Z M 231.59375 33.402344 " transform="matrix(1,0,0,1,-74,-13)"/>
<path style=" stroke:none;fill-rule:evenodd;fill:rgb(0%,0%,0%);fill-opacity:1;" d="M 146.613281 22.101562 L 146.613281 22.648438 L 143.542969 22.648438 C 143.542969 22.511719 143.570312 22.382812 143.617188 22.253906 C 143.699219 22.042969 143.824219 21.839844 144 21.636719 C 144.175781 21.433594 144.421875 21.199219 144.742188 20.933594 C 145.238281 20.519531 145.570312 20.191406 145.746094 19.949219 C 145.917969 19.707031 146.007812 19.476562 146.007812 19.261719 C 146.007812 19.035156 145.925781 18.84375 145.769531 18.691406 C 145.609375 18.535156 145.402344 18.457031 145.148438 18.457031 C 144.878906 18.457031 144.664062 18.539062 144.5 18.703125 C 144.339844 18.867188 144.257812 19.097656 144.257812 19.390625 L 143.65625 19.328125 C 143.699219 18.890625 143.847656 18.558594 144.109375 18.328125 C 144.367188 18.101562 144.714844 17.984375 145.15625 17.984375 C 145.597656 17.984375 145.949219 18.109375 146.207031 18.355469 C 146.464844 18.601562 146.59375 18.910156 146.59375 19.273438 C 146.59375 19.460938 146.554688 19.644531 146.480469 19.824219 C 146.402344 20.003906 146.277344 20.191406 146.101562 20.390625 C 145.925781 20.589844 145.636719 20.863281 145.238281 21.207031 C 144.902344 21.496094 144.6875 21.691406 144.589844 21.792969 C 144.496094 21.894531 144.417969 22 144.355469 22.101562 Z M 146.613281 22.101562 "/>
<path style="fill-rule:evenodd;fill:rgb(63.996887%,70.397949%,79.997253%);fill-opacity:1;stroke-width:0.36;stroke-linecap:square;stroke-linejoin:miter;stroke:rgb(0%,0%,0%);stroke-opacity:0.7;stroke-miterlimit:3.25;" d="M 356.007812 33.402344 C 356.007812 30.105469 354.699219 26.941406 352.367188 24.605469 C 350.03125 22.273438 346.867188 20.960938 343.566406 20.960938 C 340.269531 20.960938 337.105469 22.273438 334.769531 24.605469 C 332.4375 26.941406 331.125 30.105469 331.125 33.402344 C 331.125 36.703125 332.4375 39.867188 334.769531 42.203125 C 337.105469 44.535156 340.269531 45.847656 343.566406 45.847656 C 346.867188 45.847656 350.03125 44.535156 352.367188 42.203125 C 354.699219 39.867188 356.007812 36.703125 356.007812 33.402344 Z M 356.007812 33.402344 " transform="matrix(1,0,0,1,-74,-13)"/>
<path style=" stroke:none;fill-rule:evenodd;fill:rgb(0%,0%,0%);fill-opacity:1;" d="M 268.070312 21.414062 L 268.636719 21.335938 C 268.703125 21.660156 268.8125 21.890625 268.96875 22.03125 C 269.125 22.171875 269.316406 22.246094 269.539062 22.246094 C 269.804688 22.246094 270.03125 22.152344 270.210938 21.96875 C 270.394531 21.78125 270.488281 21.554688 270.488281 21.28125 C 270.488281 21.019531 270.402344 20.804688 270.234375 20.636719 C 270.066406 20.46875 269.851562 20.382812 269.589844 20.382812 C 269.484375 20.382812 269.351562 20.402344 269.191406 20.445312 L 269.253906 19.945312 C 269.292969 19.949219 269.324219 19.953125 269.347656 19.953125 C 269.589844 19.953125 269.808594 19.886719 270 19.761719 C 270.195312 19.632812 270.292969 19.4375 270.292969 19.167969 C 270.292969 18.960938 270.222656 18.785156 270.082031 18.648438 C 269.941406 18.507812 269.757812 18.4375 269.535156 18.4375 C 269.3125 18.4375 269.128906 18.507812 268.980469 18.648438 C 268.832031 18.789062 268.738281 19 268.695312 19.28125 L 268.125 19.179688 C 268.195312 18.796875 268.351562 18.5 268.597656 18.289062 C 268.847656 18.078125 269.152344 17.972656 269.519531 17.972656 C 269.773438 17.972656 270.007812 18.027344 270.21875 18.136719 C 270.433594 18.246094 270.59375 18.394531 270.707031 18.582031 C 270.820312 18.769531 270.878906 18.972656 270.878906 19.183594 C 270.878906 19.386719 270.824219 19.570312 270.710938 19.734375 C 270.597656 19.902344 270.441406 20.03125 270.238281 20.128906 C 270.507812 20.191406 270.714844 20.324219 270.867188 20.523438 C 271.015625 20.722656 271.09375 20.96875 271.09375 21.269531 C 271.09375 21.671875 270.945312 22.015625 270.652344 22.296875 C 270.355469 22.574219 269.984375 22.714844 269.535156 22.714844 C 269.132812 22.714844 268.792969 22.59375 268.527344 22.351562 C 268.257812 22.109375 268.105469 21.796875 268.070312 21.414062 Z M 268.070312 21.414062 "/>
<path style="fill-rule:evenodd;fill:rgb(63.996887%,70.397949%,79.997253%);fill-opacity:1;stroke-width:0.36;stroke-linecap:square;stroke-linejoin:miter;stroke:rgb(0%,0%,0%);stroke-opacity:0.7;stroke-miterlimit:3.25;" d="M 480.425781 33.402344 C 480.425781 30.105469 479.113281 26.941406 476.78125 24.605469 C 474.449219 22.273438 471.285156 20.960938 467.984375 20.960938 C 464.683594 20.960938 461.519531 22.273438 459.1875 24.605469 C 456.851562 26.941406 455.542969 30.105469 455.542969 33.402344 C 455.542969 36.703125 456.851562 39.867188 459.1875 42.203125 C 461.519531 44.535156 464.683594 45.847656 467.984375 45.847656 C 471.285156 45.847656 474.449219 44.535156 476.78125 42.203125 C 479.113281 39.867188 480.425781 36.703125 480.425781 33.402344 Z M 480.425781 33.402344 " transform="matrix(1,0,0,1,-74,-13)"/>
<path style=" stroke:none;fill-rule:evenodd;fill:rgb(0%,0%,0%);fill-opacity:1;" d="M 394.253906 22.648438 L 394.253906 21.546875 L 392.246094 21.546875 L 392.246094 21.027344 L 394.359375 18.011719 L 394.824219 18.011719 L 394.824219 21.027344 L 395.457031 21.027344 L 395.457031 21.546875 L 394.824219 21.546875 L 394.824219 22.648438 Z M 394.253906 21.027344 L 394.253906 18.929688 L 392.804688 21.027344 Z M 394.253906 21.027344 "/>
<path style="fill-rule:evenodd;fill:rgb(63.996887%,70.397949%,79.997253%);fill-opacity:1;stroke-width:0.36;stroke-linecap:square;stroke-linejoin:miter;stroke:rgb(0%,0%,0%);stroke-opacity:0.7;stroke-miterlimit:3.25;" d="M 356.007812 157.820312 C 356.007812 154.519531 354.699219 151.355469 352.367188 149.023438 C 350.03125 146.6875 346.867188 145.378906 343.566406 145.378906 C 340.269531 145.378906 337.105469 146.6875 334.769531 149.023438 C 332.4375 151.355469 331.125 154.519531 331.125 157.820312 C 331.125 161.121094 332.4375 164.285156 334.769531 166.617188 C 337.105469 168.949219 340.269531 170.261719 343.566406 170.261719 C 346.867188 170.261719 350.03125 168.949219 352.367188 166.617188 C 354.699219 164.285156 356.007812 161.121094 356.007812 157.820312 Z M 356.007812 157.820312 " transform="matrix(1,0,0,1,-74,-13)"/>
<path style=" stroke:none;fill-rule:evenodd;fill:rgb(0%,0%,0%);fill-opacity:1;" d="M 268.015625 145.835938 L 268.613281 145.785156 C 268.660156 146.074219 268.761719 146.296875 268.921875 146.441406 C 269.085938 146.589844 269.28125 146.664062 269.507812 146.664062 C 269.78125 146.664062 270.011719 146.558594 270.203125 146.351562 C 270.394531 146.144531 270.488281 145.871094 270.488281 145.527344 C 270.488281 145.203125 270.398438 144.945312 270.214844 144.757812 C 270.03125 144.570312 269.792969 144.472656 269.496094 144.472656 C 269.3125 144.472656 269.148438 144.515625 269 144.601562 C 268.851562 144.683594 268.738281 144.792969 268.652344 144.925781 L 268.117188 144.855469 L 268.566406 142.464844 L 270.875 142.464844 L 270.875 143.011719 L 269.023438 143.011719 L 268.773438 144.261719 C 269.050781 144.070312 269.34375 143.972656 269.648438 143.972656 C 270.054688 143.972656 270.394531 144.113281 270.675781 144.394531 C 270.953125 144.675781 271.09375 145.035156 271.09375 145.476562 C 271.09375 145.898438 270.96875 146.261719 270.726562 146.566406 C 270.429688 146.941406 270.023438 147.132812 269.507812 147.132812 C 269.085938 147.132812 268.742188 147.011719 268.472656 146.777344 C 268.207031 146.539062 268.054688 146.226562 268.015625 145.835938 Z M 268.015625 145.835938 "/>
</g>
</svg>
