<?xml version="1.0" encoding="UTF-8"?>
<svg  preserveAspectRatio='none' xmlns="http://www.w3.org/2000/svg" xmlns:xlink="http://www.w3.org/1999/xlink" width="216pt" height="28pt" viewBox="0 0 216 28" version="1.1">
<!-- ***Exported Comment***
Created by Mathematica
***Exported Comment*** -->
<g id="surface72">
<path style="fill-rule:evenodd;fill:rgb(63.996887%,70.397949%,79.997253%);fill-opacity:1;stroke-width:0.36;stroke-linecap:square;stroke-linejoin:miter;stroke:rgb(0%,0%,0%);stroke-opacity:0.7;stroke-miterlimit:3.25;" d="M 97.171875 26.574219 C 97.171875 24.074219 96.179688 21.675781 94.410156 19.90625 C 92.644531 18.140625 90.246094 17.148438 87.746094 17.148438 C 85.246094 17.148438 82.847656 18.140625 81.082031 19.90625 C 79.3125 21.675781 78.320312 24.074219 78.320312 26.574219 C 78.320312 29.074219 79.3125 31.46875 81.082031 33.238281 C 82.847656 35.003906 85.246094 36 87.746094 36 C 90.246094 36 92.644531 35.003906 94.410156 33.238281 C 96.179688 31.46875 97.171875 29.074219 97.171875 26.574219 Z M 97.171875 26.574219 " transform="matrix(1,0,0,1,-74,-13)"/>
<path style=" stroke:none;fill-rule:evenodd;fill:rgb(0%,0%,0%);fill-opacity:1;" d="M 14.328125 15.820312 L 13.757812 15.820312 L 13.757812 12.191406 C 13.621094 12.320312 13.441406 12.449219 13.21875 12.582031 C 12.996094 12.714844 12.796875 12.8125 12.617188 12.875 L 12.617188 12.324219 C 12.9375 12.175781 13.214844 11.996094 13.453125 11.78125 C 13.691406 11.570312 13.859375 11.363281 13.960938 11.160156 L 14.328125 11.160156 Z M 14.328125 15.820312 "/>
<path style="fill-rule:evenodd;fill:rgb(63.996887%,70.397949%,79.997253%);fill-opacity:1;stroke-width:0.36;stroke-linecap:square;stroke-linejoin:miter;stroke:rgb(0%,0%,0%);stroke-opacity:0.7;stroke-miterlimit:3.25;" d="M 144.296875 26.574219 C 144.296875 24.074219 143.304688 21.675781 141.539062 19.90625 C 139.769531 18.140625 137.371094 17.148438 134.871094 17.148438 C 132.371094 17.148438 129.976562 18.140625 128.207031 19.90625 C 126.441406 21.675781 125.449219 24.074219 125.449219 26.574219 C 125.449219 29.074219 126.441406 31.46875 128.207031 33.238281 C 129.976562 35.003906 132.371094 36 134.871094 36 C 137.371094 36 139.769531 35.003906 141.539062 33.238281 C 143.304688 31.46875 144.296875 29.074219 144.296875 26.574219 Z M 144.296875 26.574219 " transform="matrix(1,0,0,1,-74,-13)"/>
<path style=" stroke:none;fill-rule:evenodd;fill:rgb(0%,0%,0%);fill-opacity:1;" d="M 62.335938 15.269531 L 62.335938 15.820312 L 59.265625 15.820312 C 59.265625 15.683594 59.289062 15.550781 59.339844 15.421875 C 59.417969 15.214844 59.546875 15.007812 59.722656 14.804688 C 59.894531 14.601562 60.144531 14.367188 60.464844 14.101562 C 60.957031 13.6875 61.292969 13.359375 61.464844 13.117188 C 61.640625 12.875 61.726562 12.644531 61.726562 12.429688 C 61.726562 12.203125 61.648438 12.011719 61.488281 11.859375 C 61.328125 11.703125 61.125 11.625 60.867188 11.625 C 60.597656 11.625 60.382812 11.707031 60.222656 11.871094 C 60.058594 12.035156 59.976562 12.265625 59.976562 12.558594 L 59.378906 12.496094 C 59.417969 12.058594 59.570312 11.726562 59.828125 11.496094 C 60.089844 11.269531 60.4375 11.152344 60.875 11.152344 C 61.316406 11.152344 61.667969 11.277344 61.925781 11.523438 C 62.183594 11.769531 62.3125 12.078125 62.3125 12.441406 C 62.3125 12.628906 62.273438 12.8125 62.199219 12.992188 C 62.125 13.171875 62 13.359375 61.824219 13.558594 C 61.648438 13.757812 61.359375 14.03125 60.957031 14.378906 C 60.621094 14.664062 60.40625 14.859375 60.3125 14.960938 C 60.214844 15.066406 60.136719 15.167969 60.074219 15.269531 Z M 62.335938 15.269531 "/>
<path style="fill-rule:evenodd;fill:rgb(63.996887%,70.397949%,79.997253%);fill-opacity:1;stroke-width:0.36;stroke-linecap:square;stroke-linejoin:miter;stroke:rgb(0%,0%,0%);stroke-opacity:0.7;stroke-miterlimit:3.25;" d="M 191.425781 26.574219 C 191.425781 24.074219 190.433594 21.675781 188.664062 19.90625 C 186.898438 18.140625 184.5 17.148438 182 17.148438 C 179.5 17.148438 177.101562 18.140625 175.335938 19.90625 C 173.566406 21.675781 172.574219 24.074219 172.574219 26.574219 C 172.574219 29.074219 173.566406 31.46875 175.335938 33.238281 C 177.101562 35.003906 179.5 36 182 36 C 184.5 36 186.898438 35.003906 188.664062 33.238281 C 190.433594 31.46875 191.425781 29.074219 191.425781 26.574219 Z M 191.425781 26.574219 " transform="matrix(1,0,0,1,-74,-13)"/>
<path style=" stroke:none;fill-rule:evenodd;fill:rgb(0%,0%,0%);fill-opacity:1;" d="M 106.5 14.582031 L 107.070312 14.503906 C 107.136719 14.828125 107.246094 15.058594 107.402344 15.199219 C 107.558594 15.34375 107.746094 15.414062 107.972656 15.414062 C 108.238281 15.414062 108.460938 15.320312 108.644531 15.136719 C 108.828125 14.949219 108.917969 14.722656 108.917969 14.449219 C 108.917969 14.1875 108.835938 13.972656 108.667969 13.804688 C 108.5 13.636719 108.285156 13.550781 108.023438 13.550781 C 107.917969 13.550781 107.785156 13.570312 107.625 13.613281 L 107.6875 13.113281 C 107.726562 13.117188 107.753906 13.121094 107.777344 13.121094 C 108.023438 13.121094 108.238281 13.058594 108.433594 12.929688 C 108.628906 12.800781 108.726562 12.605469 108.726562 12.339844 C 108.726562 12.128906 108.65625 11.953125 108.511719 11.816406 C 108.371094 11.675781 108.1875 11.605469 107.964844 11.605469 C 107.746094 11.605469 107.558594 11.675781 107.414062 11.816406 C 107.265625 11.957031 107.167969 12.167969 107.128906 12.449219 L 106.558594 12.347656 C 106.628906 11.964844 106.785156 11.667969 107.03125 11.457031 C 107.277344 11.246094 107.585938 11.140625 107.953125 11.140625 C 108.207031 11.140625 108.4375 11.195312 108.652344 11.304688 C 108.863281 11.414062 109.027344 11.5625 109.140625 11.75 C 109.253906 11.941406 109.308594 12.140625 109.308594 12.351562 C 109.308594 12.554688 109.253906 12.738281 109.140625 12.902344 C 109.03125 13.070312 108.875 13.199219 108.671875 13.296875 C 108.941406 13.359375 109.148438 13.492188 109.296875 13.691406 C 109.449219 13.890625 109.523438 14.136719 109.523438 14.4375 C 109.523438 14.839844 109.375 15.183594 109.082031 15.464844 C 108.789062 15.742188 108.417969 15.882812 107.96875 15.882812 C 107.5625 15.882812 107.226562 15.761719 106.957031 15.519531 C 106.691406 15.277344 106.539062 14.964844 106.5 14.582031 Z M 106.5 14.582031 "/>
<path style="fill-rule:evenodd;fill:rgb(63.996887%,70.397949%,79.997253%);fill-opacity:1;stroke-width:0.36;stroke-linecap:square;stroke-linejoin:miter;stroke:rgb(0%,0%,0%);stroke-opacity:0.7;stroke-miterlimit:3.25;" d="M 238.550781 26.574219 C 238.550781 24.074219 237.558594 21.675781 235.792969 19.90625 C 234.023438 18.140625 231.628906 17.148438 229.128906 17.148438 C 226.628906 17.148438 224.230469 18.140625 222.460938 19.90625 C 220.695312 21.675781 219.703125 24.074219 219.703125 26.574219 C 219.703125 29.074219 220.695312 31.46875 222.460938 33.238281 C 224.230469 35.003906 226.628906 36 229.128906 36 C 231.628906 36 234.023438 35.003906 235.792969 33.238281 C 237.558594 31.46875 238.550781 29.074219 238.550781 26.574219 Z M 238.550781 26.574219 " transform="matrix(1,0,0,1,-74,-13)"/>
<path style=" stroke:none;fill-rule:evenodd;fill:rgb(0%,0%,0%);fill-opacity:1;" d="M 155.398438 15.820312 L 155.398438 14.71875 L 153.390625 14.71875 L 153.390625 14.195312 L 155.503906 11.179688 L 155.96875 11.179688 L 155.96875 14.195312 L 156.597656 14.195312 L 156.597656 14.71875 L 155.96875 14.71875 L 155.96875 15.820312 Z M 155.398438 14.195312 L 155.398438 12.097656 L 153.949219 14.195312 Z M 155.398438 14.195312 "/>
<path style="fill-rule:evenodd;fill:rgb(63.996887%,70.397949%,79.997253%);fill-opacity:1;stroke-width:0.36;stroke-linecap:square;stroke-linejoin:miter;stroke:rgb(0%,0%,0%);stroke-opacity:0.7;stroke-miterlimit:3.25;" d="M 285.679688 26.574219 C 285.679688 24.074219 284.6875 21.675781 282.917969 19.90625 C 281.152344 18.140625 278.753906 17.148438 276.253906 17.148438 C 273.753906 17.148438 271.355469 18.140625 269.589844 19.90625 C 267.820312 21.675781 266.828125 24.074219 266.828125 26.574219 C 266.828125 29.074219 267.820312 31.46875 269.589844 33.238281 C 271.355469 35.003906 273.753906 36 276.253906 36 C 278.753906 36 281.152344 35.003906 282.917969 33.238281 C 284.6875 31.46875 285.679688 29.074219 285.679688 26.574219 Z M 285.679688 26.574219 " transform="matrix(1,0,0,1,-74,-13)"/>
<path style=" stroke:none;fill-rule:evenodd;fill:rgb(0%,0%,0%);fill-opacity:1;" d="M 200.703125 14.585938 L 201.300781 14.535156 C 201.347656 14.828125 201.449219 15.046875 201.609375 15.195312 C 201.769531 15.34375 201.964844 15.414062 202.195312 15.414062 C 202.46875 15.414062 202.699219 15.3125 202.890625 15.105469 C 203.078125 14.898438 203.175781 14.621094 203.175781 14.28125 C 203.175781 13.953125 203.082031 13.699219 202.902344 13.507812 C 202.71875 13.320312 202.480469 13.226562 202.183594 13.226562 C 202 13.226562 201.835938 13.269531 201.6875 13.351562 C 201.539062 13.4375 201.425781 13.542969 201.339844 13.675781 L 200.804688 13.609375 L 201.253906 11.21875 L 203.5625 11.21875 L 203.5625 11.761719 L 201.710938 11.761719 L 201.460938 13.015625 C 201.738281 12.820312 202.03125 12.722656 202.335938 12.722656 C 202.742188 12.722656 203.082031 12.863281 203.359375 13.144531 C 203.640625 13.425781 203.777344 13.789062 203.777344 14.230469 C 203.777344 14.648438 203.65625 15.011719 203.410156 15.320312 C 203.113281 15.695312 202.707031 15.882812 202.195312 15.882812 C 201.773438 15.882812 201.429688 15.765625 201.160156 15.527344 C 200.894531 15.292969 200.742188 14.976562 200.703125 14.585938 Z M 200.703125 14.585938 "/>
</g>
</svg>
