<svg height="168.83pt" viewBox="0 0 226.77 168.83" width="226.77pt" xmlns="http://www.w3.org/2000/svg" xmlns:xlink="http://www.w3.org/1999/xlink"><clipPath id="a"><path d="m218 145h8.769531v5h-8.769531zm0 0"/></clipPath><clipPath id="b"><path d="m218 145h8.769531v6h-8.769531zm0 0"/></clipPath><symbol id="c" overflow="visible"><path d="m2.796875-8.625-.140625-.140625c-.625.3125-1.046875.421875-1.921875.5l-.046875.25h.578125c.28125 0 .40625.09375.40625.296875 0 .09375-.015625.203125-.015625.28125l-.578125 3.203125c-.171875.90625-.359375 1.71875-.984375 4.21875l.109375.125.796875-.203125.28125-1.484375c.109375-.578125.390625-1.109375.796875-1.515625.828125 2.390625 1.203125 3.203125 1.5 3.203125.15625 0 .453125-.15625.96875-.53125l.5625-.375-.09375-.234375-.515625.296875c-.171875.09375-.25.109375-.359375.109375s-.203125-.0625-.296875-.265625c-.421875-.765625-.6875-1.421875-1.15625-2.890625l.171875-.15625c.71875-.734375 1.28125-1.03125 1.875-1.03125.09375 0 .21875.015625.421875.0625l.203125-.75c-.203125-.0625-.421875-.109375-.5625-.109375-.796875 0-1.78125.921875-3.28125 3.015625zm0 0"/></symbol><symbol id="d" overflow="visible"><path d="m-7.90625-.265625.03125-.515625c.03125-.5.125-.625 1.078125-.625h5.359375c.953125 0 1.0625.125 1.078125.625l.03125.515625h.359375c-.015625-.703125-.03125-1.796875-.03125-2.421875s.015625-1.765625.03125-2.46875h-.359375l-.03125.5625c-.03125.546875-.125.609375-1.078125.609375h-6.234375c-.09375-.421875-.140625-.765625-.140625-1.171875 0-1.28125.59375-1.984375 1.734375-1.984375 1.0625 0 1.828125.734375 1.828125 1.78125 0 .25-.03125.421875-.125.734375l.4375-.125c.046875-.28125.0625-.453125.0625-.6875 0-1.640625-1.109375-2.890625-2.546875-2.890625-1.140625 0-1.84375.921875-1.84375 2.453125v.328125c.015625.4375.03125 2.40625.03125 2.8125 0 .625-.015625 1.765625-.03125 2.46875zm1.109375-2.578125h5.359375c.953125 0 1.046875.0625 1.078125.4375-.03125.390625-.125.453125-1.078125.453125h-5.359375c-.953125 0-1.046875-.0625-1.078125-.453125.015625-.375.125-.4375 1.078125-.4375zm0 0"/></symbol><symbol id="e" overflow="visible"><path d="m2.984375-4.125c-.03125 0-.0625 0-.265625.21875-1.578125 1.546875-3.921875 1.953125-5.828125 1.953125-2.171875 0-4.34375-.46875-5.890625-2-.15625-.171875-.171875-.171875-.21875-.171875-.078125 0-.125.046875-.125.125 0 .125.84375 1.25 2.4375 1.984375 1.359375.640625 2.75.78125 3.796875.78125.96875 0 2.46875-.140625 3.875-.828125 1.53125-.734375 2.34375-1.8125 2.34375-1.9375 0-.078125-.03125-.125-.125-.125zm0 0"/></symbol><symbol id="f" overflow="visible"><path d="m-4.078125-8.5625c0-.171875 0-.421875-.25-.421875-.234375 0-.234375.25-.234375.421875v7.453125c0 .171875 0 .40625.234375.40625.25 0 .25-.234375.25-.421875zm2.421875 0c0-.171875 0-.421875-.25-.421875s-.25.25-.25.421875v7.4375c0 .1875 0 .421875.25.421875s.25-.234375.25-.40625zm0 0"/></symbol><symbol id="g" overflow="visible"><path d="m-3.109375-3.59375c-.96875 0-2.484375.125-3.890625.8125-1.53125.75-2.34375 1.828125-2.34375 1.953125 0 .0625.046875.125.125.125.046875 0 .0625 0 .296875-.25 1.21875-1.21875 3.203125-1.921875 5.8125-1.921875 2.125 0 4.3125.453125 5.890625 2 .140625.171875.171875.171875.203125.171875.078125 0 .125-.0625.125-.125 0-.125-.84375-1.25-2.421875-1.984375-1.375-.640625-2.75-.78125-3.796875-.78125zm0 0"/></symbol><symbol id="h" overflow="visible"><path d="m-6.421875-5.390625v-.359375c-.640625-.046875-1.09375-.125-1.609375-.296875-.28125.53125-.40625 1.015625-.40625 1.578125 0 .875.375 1.78125 1.015625 2.40625.484375.515625 1.09375.765625 1.796875.765625 1.015625 0 1.578125-.453125 1.8125-1.453125l.28125-1.140625c.15625-.640625.5625-.96875 1.25-.96875 1.140625 0 1.921875.859375 1.921875 2.09375 0 .640625-.140625 1.09375-.515625 1.625h-1.1875v.359375c.65625.0625 1.203125.140625 1.828125.28125.296875-.59375.453125-1.21875.453125-1.859375 0-1.84375-1.40625-3.4375-3.015625-3.4375-.9375 0-1.453125.515625-1.703125 1.71875l-.171875.78125c-.171875.78125-.609375 1.140625-1.40625 1.140625-1.03125 0-1.78125-.796875-1.78125-1.890625 0-.59375.15625-.984375.53125-1.34375zm0 0"/></symbol><symbol id="i" overflow="visible"><path d="m-8.625-2.796875-.140625.140625c.3125.625.421875 1.046875.5 1.921875l.25.046875v-.578125c0-.28125.09375-.40625.296875-.40625.09375 0 .203125.015625.28125.015625l3.203125.578125c.90625.171875 1.71875.359375 4.21875.984375l.125-.109375-.203125-.796875-1.484375-.28125c-.578125-.109375-1.109375-.390625-1.515625-.796875 2.390625-.828125 3.203125-1.203125 3.203125-1.5 0-.15625-.15625-.453125-.53125-.96875l-.375-.5625-.234375.09375.296875.515625c.09375.171875.109375.25.109375.359375s-.0625.203125-.265625.296875c-.765625.421875-1.421875.6875-2.890625 1.15625l-.15625-.171875c-.734375-.71875-1.03125-1.28125-1.03125-1.875 0-.09375.015625-.21875.0625-.421875l-.75-.203125c-.0625.203125-.109375.421875-.109375.5625 0 .796875.921875 1.78125 3.015625 3.28125zm0 0"/></symbol><symbol id="j" overflow="visible"><path d="m-3.484375-.21875.1875-.0625-.1875-.28125c-.203125-.328125-.234375-.359375-.234375-.421875 0-.09375.09375-.15625.234375-.15625.453125 0 2.1875.359375 3.46875.734375l.09375-.0625c-.0625-.234375-.109375-.4375-.15625-.640625-1.125-.171875-1.703125-.359375-2.328125-.765625-.75-.484375-1.3125-1.15625-1.3125-1.5625 0-.09375.09375-.15625.21875-.15625.15625 0 .359375.03125.640625.109375l1.90625.46875c.328125.078125.53125.109375.671875.109375.234375 0 .359375-.09375.359375-.265625 0-.234375-.1875-.5625-.84375-1.4375l-.15625.09375.15625.234375c.171875.25.265625.453125.265625.546875 0 .0625-.078125.109375-.1875.109375-.03125 0-.140625 0-.171875-.015625l-2.484375-.59375c-.25-.0625-.5-.09375-.65625-.09375-.203125 0-.328125.09375-.328125.28125 0 .375.34375.984375.84375 1.515625.3125.34375.609375.59375 1.265625 1.0625l-1.4375-.34375c-.171875-.03125-.265625-.046875-.375-.046875-.1875 0-.296875.0625-.296875.203125 0 .1875.203125.53125.671875 1.1875zm0 0"/></symbol><symbol id="k" overflow="visible"><path d="m.59375-4.984375h.09375l1.15625-.515625h.03125c.046875 0 .078125.078125.078125.296875v4.34375c0 .46875-.109375.5625-.59375.59375l-.5.03125v.265625c1.390625-.03125 1.390625-.03125 1.484375-.03125.109375 0 .3125 0 .609375.015625.109375 0 .421875 0 .796875.015625v-.265625l-.46875-.03125c-.484375-.03125-.578125-.125-.578125-.59375v-5.3125l-.125-.046875c-.59375.296875-1.21875.5625-2.046875.859375zm0 0"/></symbol><symbol id="l" overflow="visible"><path d="m.140625-.203125v.234375c1.6875-.03125 1.6875-.03125 2-.03125.328125 0 .328125 0 2.0625.03125-.03125-.1875-.03125-.28125-.03125-.40625s0-.203125.03125-.40625c-1.03125.046875-1.453125.0625-3.109375.09375l1.625-1.734375c.875-.921875 1.140625-1.421875 1.140625-2.09375 0-1.03125-.6875-1.65625-1.828125-1.65625-.65625 0-1.09375.171875-1.53125.625l-.15625 1.21875h.265625l.109375-.421875c.15625-.515625.46875-.734375 1.078125-.734375.765625 0 1.265625.484375 1.265625 1.234375 0 .6875-.375 1.34375-1.390625 2.421875zm0 0"/></symbol><symbol id="m" overflow="visible"><path d="m1.578125-4.140625c-.9375 0-1.40625.75-1.40625 2.203125 0 .703125.125 1.296875.34375 1.59375.203125.296875.546875.46875.90625.46875.90625 0 1.375-.78125 1.375-2.328125 0-1.3125-.390625-1.9375-1.21875-1.9375zm-.109375.21875c.578125 0 .8125.578125.8125 2.03125 0 1.265625-.21875 1.796875-.78125 1.796875-.578125 0-.828125-.609375-.828125-2.0625 0-1.265625.234375-1.765625.796875-1.765625zm0 0"/></symbol><symbol id="n" overflow="visible"><path d="m.40625-3.328125h.0625l.765625-.34375c0-.015625.015625-.015625.015625-.015625.046875 0 .046875.0625.046875.203125v2.90625c0 .3125-.0625.375-.390625.390625l-.328125.03125v.171875c.921875-.015625.921875-.015625.984375-.015625h.421875c.0625.015625.28125.015625.53125.015625v-.171875l-.3125-.03125c-.34375-.015625-.390625-.078125-.390625-.390625v-3.5625l-.09375-.015625c-.390625.203125-.8125.375-1.359375.5625zm0 0"/></symbol><symbol id="o" overflow="visible"><path d="m.09375-.140625v.15625c1.125-.015625 1.125-.015625 1.34375-.015625s.21875 0 1.375.015625c-.015625-.125-.015625-.1875-.015625-.265625s0-.140625.015625-.265625c-.6875.03125-.96875.03125-2.078125.046875l1.09375-1.15625c.578125-.609375.765625-.9375.765625-1.390625 0-.6875-.46875-1.125-1.234375-1.125-.4375 0-.734375.125-1.015625.421875l-.109375.828125h.171875l.078125-.28125c.09375-.34375.3125-.5.71875-.5.515625 0 .84375.328125.84375.828125 0 .453125-.25.90625-.9375 1.625zm0 0"/></symbol><symbol id="p" overflow="visible"><path d="m.265625-2.984375h.171875l.109375-.34375c.078125-.203125.453125-.40625.765625-.40625.390625 0 .703125.328125.703125.703125 0 .4375-.359375.828125-.78125.828125-.046875 0-.109375-.015625-.1875-.015625h-.09375l-.078125.3125.046875.03125c.234375-.09375.34375-.125.5-.125.5 0 .796875.3125.796875.859375 0 .609375-.375 1.015625-.921875 1.015625-.28125 0-.53125-.09375-.703125-.265625-.15625-.125-.234375-.265625-.34375-.59375l-.15625.0625c.125.375.171875.578125.203125.890625.328125.109375.578125.15625.8125.15625.46875 0 1.03125-.28125 1.359375-.671875.203125-.25.296875-.515625.296875-.796875s-.109375-.546875-.328125-.6875c-.15625-.109375-.296875-.15625-.59375-.21875.484375-.359375.671875-.640625.671875-1 0-.53125-.453125-.890625-1.125-.890625-.40625 0-.671875.125-.953125.40625zm0 0"/></symbol><symbol id="q" overflow="visible"><path d="m1.6875-1.09375v.453125c0 .359375-.078125.453125-.375.453125l-.359375.03125v.171875c.796875-.015625.796875-.015625.9375-.015625s.140625 0 .9375.015625v-.171875l-.28125-.03125c-.296875-.015625-.359375-.09375-.359375-.453125v-.453125c.34375 0 .46875.015625.640625.03125v-.421875c-.28125.015625-.390625.015625-.484375.015625h-.15625v-.828125c0-1.078125.015625-1.59375.03125-1.84375l-.0625-.015625-.453125.15625-1.6875 2.78125.0625.125zm0-.375h-1.296875l1.296875-2.109375zm0 0"/></symbol><symbol id="r" overflow="visible"><path d="m.765625-3.625c.765625.015625 1.109375.03125 1.828125.03125l.03125-.03125c-.015625-.109375-.015625-.15625-.015625-.234375 0-.09375 0-.140625.015625-.25l-.03125-.03125c-.453125.03125-.71875.03125-1.046875.03125s-.59375 0-1.046875-.03125l-.03125.03125c.015625.375.015625.640625.015625.828125 0 .515625-.015625 1.078125-.03125 1.34375l.109375.046875c.296875-.28125.453125-.375.75-.375.578125 0 .9375.40625.9375 1.0625s-.390625 1.046875-1.046875 1.046875c-.328125 0-.625-.109375-.703125-.25l-.28125-.5-.140625.078125c.140625.34375.203125.546875.296875.796875.171875.09375.40625.15625.65625.15625.40625 0 .828125-.171875 1.171875-.46875.359375-.328125.546875-.734375.546875-1.171875 0-.6875-.484375-1.15625-1.171875-1.15625-.28125 0-.5.078125-.875.296875zm0 0"/></symbol><symbol id="s" overflow="visible"><path d="m2.5-4.03125-.21875-.109375c-.578125.203125-.828125.3125-1.140625.578125-.609375.53125-.953125 1.265625-.953125 2.078125 0 1 .484375 1.609375 1.265625 1.609375.765625 0 1.359375-.625 1.359375-1.4375 0-.6875-.421875-1.140625-1.046875-1.140625-.3125 0-.484375.078125-.84375.359375-.0625.046875-.0625.0625-.140625.109375.125-1.09375.640625-1.671875 1.71875-2zm-.96875 1.9375c.453125 0 .765625.390625.765625.984375 0 .625-.3125 1.03125-.765625 1.03125-.515625 0-.796875-.4375-.796875-1.234375 0-.21875.03125-.328125.09375-.4375.125-.203125.40625-.34375.703125-.34375zm0 0"/></symbol><symbol id="t" overflow="visible"><path d="m.34375-.0625.046875.078125c.234375-.015625.234375-.015625.28125-.015625.03125 0 .03125 0 .265625.015625.25-.65625.546875-1.28125.953125-2l1.09375-1.96875v-.1875c-.65625.03125-.859375.03125-1.34375.03125-.4375 0-.734375 0-1.3125-.03125l-.0625.03125c.015625.578125.015625.578125.015625.640625s0 .0625-.015625.609375h.171875l.046875-.34375c.046875-.359375.09375-.421875.375-.421875h1.59375c-.234375.5-.421875.84375-.65625 1.21875zm0 0"/></symbol><symbol id="u" overflow="visible"><path d="m1.015625-2.0625c-.25.109375-.359375.171875-.484375.296875-.234375.234375-.34375.5-.34375.8125 0 .609375.484375 1.078125 1.171875 1.078125.78125 0 1.421875-.609375 1.421875-1.359375 0-.484375-.21875-.734375-.90625-1.046875.546875-.375.734375-.625.734375-.984375 0-.515625-.421875-.875-1.0625-.875-.703125 0-1.234375.46875-1.234375 1.09375 0 .40625.171875.640625.703125.984375zm.6875.296875c.375.15625.609375.453125.609375.78125 0 .5-.375.90625-.859375.90625-.515625 0-.84375-.359375-.84375-.921875 0-.4375.171875-.71875.609375-.984375zm-.359375-.765625c-.390625-.1875-.578125-.4375-.578125-.734375 0-.390625.296875-.671875.71875-.671875.4375 0 .71875.296875.71875.734375 0 .34375-.140625.578125-.53125.828125zm0 0"/></symbol><symbol id="v" overflow="visible"><path d="m.578125.125c.65625-.21875.953125-.359375 1.28125-.640625.578125-.5.875-1.1875.875-1.984375 0-1.015625-.484375-1.640625-1.265625-1.640625-.765625 0-1.34375.609375-1.34375 1.40625 0 .6875.4375 1.203125 1.0625 1.203125.203125 0 .4375-.078125.546875-.15625l.421875-.359375c-.046875 1.015625-.703125 1.75-1.78125 2.015625v.046875zm.859375-4.0625c.265625 0 .46875.109375.609375.359375.09375.1875.171875.484375.171875.75 0 .546875-.3125.921875-.78125.921875-.484375 0-.796875-.421875-.796875-1.046875 0-.609375.3125-.984375.796875-.984375zm0 0"/></symbol><symbol id="w" overflow="visible"><path d="m.234375-3.875.078125.1875.3125-.203125c.375-.234375.40625-.25.46875-.25.109375 0 .1875.09375.1875.25 0 .515625-.40625 2.4375-.828125 3.875l.078125.109375c.25-.078125.484375-.140625.703125-.171875.1875-1.265625.390625-1.90625.859375-2.609375.53125-.828125 1.28125-1.453125 1.734375-1.453125.109375 0 .171875.09375.171875.234375 0 .1875-.03125.390625-.109375.71875l-.515625 2.125c-.09375.359375-.140625.59375-.140625.75 0 .25.109375.40625.3125.40625.25 0 .609375-.21875 1.59375-.9375l-.09375-.1875-.265625.171875c-.296875.1875-.515625.296875-.609375.296875-.078125 0-.125-.09375-.125-.203125 0-.046875 0-.15625.015625-.1875l.65625-2.765625c.078125-.296875.109375-.578125.109375-.734375 0-.234375-.109375-.359375-.3125-.359375-.421875 0-1.109375.375-1.703125.921875-.375.34375-.65625.6875-1.171875 1.421875l.375-1.609375c.046875-.1875.0625-.296875.0625-.40625 0-.21875-.078125-.328125-.234375-.328125-.203125 0-.59375.21875-1.328125.734375zm0 0"/></symbol><symbol id="x" overflow="visible"><path d="m7.15625-3.40625c.15625 0 .359375 0 .359375-.203125 0-.21875-.203125-.21875-.34375-.21875h-6.25c-.140625 0-.34375 0-.34375.21875 0 .203125.203125.203125.359375.203125zm.015625 2.015625c.140625 0 .34375 0 .34375-.203125s-.203125-.203125-.359375-.203125h-6.21875c-.15625 0-.359375 0-.359375.203125s.203125.203125.34375.203125zm0 0"/></symbol><symbol id="y" overflow="visible"><path d="m.671875-5.546875h.09375l1.296875-.578125c0-.015625.015625-.015625.03125-.015625.0625 0 .078125.09375.078125.328125v4.859375c0 .515625-.109375.625-.65625.65625l-.5625.03125v.296875c1.546875-.03125 1.546875-.03125 1.65625-.03125.125 0 .34375 0 .6875.015625.125 0 .46875 0 .890625.015625v-.296875l-.53125-.03125c-.546875-.03125-.640625-.140625-.640625-.65625v-5.9375l-.140625-.046875c-.65625.34375-1.359375.640625-2.28125.953125zm0 0"/></symbol><symbol id="z" overflow="visible"><path d="m2.796875-1.8125v.75c0 .609375-.109375.75-.59375.765625l-.625.03125v.296875c1.328125-.03125 1.328125-.03125 1.578125-.03125.234375 0 .234375 0 1.5625.03125v-.296875l-.484375-.03125c-.484375-.03125-.59375-.15625-.59375-.765625v-.75c.59375 0 .796875.015625 1.078125.046875v-.71875c-.46875.046875-.65625.046875-.8125.03125h-.265625v-1.390625c0-1.78125.015625-2.640625.0625-3.046875l-.109375-.046875-.75.265625-2.828125 4.625.109375.234375zm0-.640625h-2.140625l2.140625-3.515625zm0 0"/></symbol><symbol id="A" overflow="visible"><path d="m.5625-.09375.09375.125c.390625-.03125.390625-.03125.453125-.03125.078125 0 .078125 0 .453125.03125.421875-1.09375.921875-2.125 1.578125-3.328125l1.828125-3.296875v-.296875c-1.078125.046875-1.421875.046875-2.234375.046875-.734375 0-1.21875 0-2.1875-.046875l-.109375.046875c.03125.953125.03125.953125.03125 1.046875 0 .109375 0 .109375-.03125 1.03125h.296875l.078125-.5625c.078125-.625.140625-.703125.609375-.703125h2.671875c-.40625.828125-.71875 1.40625-1.09375 2.015625zm0 0"/></symbol><symbol id="B" overflow="visible"><path d="m2.625-6.890625c-1.546875 0-2.328125 1.234375-2.328125 3.65625 0 1.171875.203125 2.171875.546875 2.671875.359375.484375.921875.765625 1.53125.765625 1.515625 0 2.28125-1.296875 2.28125-3.859375 0-2.1875-.65625-3.234375-2.03125-3.234375zm-.171875.34375c.96875 0 1.359375.984375 1.359375 3.390625 0 2.125-.375 3-1.296875 3-.96875 0-1.390625-1-1.390625-3.4375 0-2.109375.375-2.953125 1.328125-2.953125zm0 0"/></symbol><symbol id="C" overflow="visible"><path d="m.4375-4.984375h.296875l.1875-.5625c.109375-.328125.734375-.671875 1.265625-.671875.640625 0 1.171875.53125 1.171875 1.15625 0 .75-.59375 1.375-1.296875 1.375-.078125 0-.1875 0-.328125-.015625h-.140625l-.125.515625.078125.0625c.375-.171875.5625-.21875.828125-.21875.828125 0 1.3125.53125 1.3125 1.4375 0 1.03125-.609375 1.703125-1.53125 1.703125-.46875 0-.875-.15625-1.171875-.4375-.25-.21875-.375-.453125-.5625-.984375l-.265625.09375c.203125.609375.28125.96875.34375 1.46875.53125.1875.96875.265625 1.34375.265625.796875 0 1.71875-.453125 2.265625-1.125.34375-.40625.515625-.84375.515625-1.3125 0-.484375-.203125-.90625-.5625-1.15625-.25-.171875-.484375-.265625-.984375-.34375.796875-.625 1.109375-1.078125 1.109375-1.671875 0-.890625-.75-1.484375-1.859375-1.484375-.671875 0-1.125.1875-1.609375.671875zm0 0"/></symbol><symbol id="D" overflow="visible"><path d="m4.15625-6.71875-.359375-.171875c-.96875.328125-1.375.515625-1.890625.953125-1.03125.875-1.59375 2.09375-1.59375 3.46875 0 1.65625.8125 2.671875 2.09375 2.671875 1.296875 0 2.28125-1.03125 2.28125-2.390625 0-1.15625-.703125-1.90625-1.75-1.90625-.5 0-.8125.140625-1.390625.609375-.109375.078125-.125.09375-.234375.171875.203125-1.8125 1.046875-2.78125 2.84375-3.328125zm-1.609375 3.234375c.765625 0 1.265625.65625 1.265625 1.640625 0 1.046875-.5 1.71875-1.265625 1.71875-.859375 0-1.3125-.734375-1.3125-2.078125 0-.34375.03125-.53125.140625-.703125.21875-.34375.6875-.578125 1.171875-.578125zm0 0"/></symbol><symbol id="E" overflow="visible"><path d="m2.15625-6.421875c.359375-.078125.640625-.125.984375-.125 1.078125 0 1.65625.5 1.65625 1.453125 0 .90625-.609375 1.53125-1.484375 1.53125-.203125 0-.359375-.015625-.609375-.09375l.09375.359375c.25.046875.390625.0625.578125.0625 1.375 0 2.421875-.9375 2.421875-2.140625 0-.953125-.78125-1.546875-2.046875-1.546875-.046875 0-.15625 0-.28125.015625-.375 0-1.125.015625-1.421875.015625-.21875 0-.21875 0-1.8125-.03125v.296875l.453125.03125c.4375.03125.515625.15625.515625.90625v4.484375c0 .796875-.046875.875-.5.90625l-.484375.03125v.296875c.59375-.015625.9375-.03125 1.46875-.03125.515625 0 .875.015625 1.46875.03125v-.296875l-.484375-.03125c-.46875-.03125-.515625-.109375-.515625-.90625zm0 0"/></symbol><symbol id="F" overflow="visible"><path d="m7.3125-1.203125c0 .796875-.03125.859375-.5.90625l-.34375.03125v.296875c.46875-.015625.765625-.03125 1.28125-.03125.5625 0 .921875.015625 1.515625.03125v-.296875l-.484375-.03125c-.46875-.03125-.515625-.109375-.515625-.90625v-4.484375c0-.78125.046875-.875.515625-.90625l.421875-.03125v-.296875c-.765625.03125-.765625.03125-.9375.03125-.140625 0-.140625 0-.953125-.03125l-2.609375 5.5625-2.640625-5.5625c-.796875.03125-.796875.03125-.953125.03125s-.15625 0-.953125-.03125v.296875l.4375.03125c.46875.03125.515625.125.515625.90625v4.484375c0 .78125-.046875.875-.515625.90625l-.4375.03125v.296875c1-.03125 1-.03125 1.15625-.03125s.15625 0 1.203125.03125v-.296875l-.4375-.03125c-.453125-.03125-.515625-.125-.515625-.90625v-4.578125l2.796875 5.90625h.203125c.0625-.140625.125-.3125.1875-.453125.15625-.390625.28125-.671875.34375-.8125l1.78125-3.78125c.140625-.28125.265625-.515625.4375-.859375zm0 0"/></symbol><symbol id="G" overflow="visible"><path d="m2.15625-3.265625c.28125-.03125.578125-.03125 1.03125-.03125.75 0 1.015625.03125 1.1875.109375l.078125.25.0625.59375h.296875c-.03125-.921875-.03125-.921875-.03125-1.109375 0-.15625 0-.15625.03125-1.15625h-.296875l-.0625.515625c0 .09375-.03125.1875-.078125.265625-.171875.078125-.453125.109375-1.109375.109375-.421875 0-.765625-.015625-1.109375-.03125v-2.671875c.296875-.0625.484375-.078125 1.078125-.078125.46875 0 1.03125.0625 1.34375.140625.234375.0625.265625.109375.265625.34375v.640625h.359375c0-.59375.046875-1.078125.15625-1.515625-.484375-.015625-.796875-.03125-1.21875-.03125l-1.078125.015625c-.484375.015625-.828125.015625-1.078125.015625-.296875 0-.296875 0-1.765625-.03125v.296875l.484375.03125c.453125.03125.5.109375.5.90625v4.484375c0 .796875-.046875.875-.5.90625l-.484375.03125v.296875c.59375-.015625.9375-.03125 1.46875-.03125.515625 0 .875.015625 1.46875.03125v-.296875l-.484375-.03125c-.46875-.03125-.515625-.109375-.515625-.90625zm0 0"/></symbol><symbol id="H" overflow="visible"><path d="m.40625-1.4375c0 .703125-.03125 1-.109375 1.390625.515625.171875.90625.25 1.375.25 1.3125 0 2.234375-.703125 2.234375-1.6875 0-.3125-.09375-.53125-.28125-.734375-.25-.25-.578125-.375-1.46875-.546875-.8125-.15625-1.09375-.359375-1.09375-.8125 0-.5.359375-.78125.96875-.78125.671875 0 1.171875.34375 1.171875.8125v.234375h.28125c.015625-.578125.03125-.8125.0625-1.125-.53125-.1875-.890625-.25-1.3125-.25-1.15625 0-1.859375.546875-1.859375 1.453125 0 .46875.21875.8125.671875 1.03125.265625.109375.796875.265625 1.484375.421875.453125.09375.640625.3125.640625.6875 0 .546875-.5.921875-1.21875.921875s-1.25-.34375-1.25-.84375v-.421875zm0 0"/></symbol><symbol id="I" overflow="visible"><path d="m3.40625-7.171875c-.203125-.078125-.328125-.109375-.453125-.109375-.328125 0-.671875.171875-.890625.421875l-.578125.65625c-.296875.328125-.421875.78125-.421875 1.4375v.421875l-.6875.3125v.21875l.6875-.03125v2.828125c0 .625-.03125.703125-.375.71875l-.453125.03125v.296875c1-.03125 1-.03125 1.25-.03125s.25 0 1.25.03125v-.296875l-.46875-.03125c-.328125-.015625-.359375-.09375-.359375-.71875v-2.828125h1.234375l.0625-.53125-1.296875.03125v-.84375c0-1.15625.125-1.4375.6875-1.4375.28125 0 .453125.078125.703125.28125l.109375-.0625zm0 0"/></symbol><symbol id="J" overflow="visible"><path d="m2.796875-4.6875c-1.46875 0-2.484375 1.03125-2.484375 2.515625 0 1.40625.890625 2.375 2.1875 2.375 1.546875 0 2.640625-1.078125 2.640625-2.578125 0-1.34375-.984375-2.3125-2.34375-2.3125zm-.1875.328125c.921875 0 1.59375 1 1.59375 2.359375 0 1.15625-.5 1.875-1.3125 1.875-.984375 0-1.640625-.96875-1.640625-2.390625 0-1.1875.484375-1.84375 1.359375-1.84375zm0 0"/></symbol><symbol id="K" overflow="visible"><path d="m.234375-4h.359375c.40625 0 .453125.0625.453125.734375v2.25c0 .625-.03125.703125-.375.71875l-.46875.03125v.296875c.734375-.015625.984375-.03125 1.234375-.03125.203125 0 .203125 0 1.4375.03125v-.296875l-.53125-.03125c-.4375-.03125-.46875-.0625-.46875-.71875v-1.71875c0-.609375.40625-1.109375.890625-1.109375.296875 0 .515625.140625.671875.46875h.21875l.078125-1.203125c-.109375-.078125-.28125-.109375-.46875-.109375-.296875 0-.609375.15625-.828125.40625l-.5625.65625v-1.03125l-.078125-.03125c-.515625.203125-1.03125.34375-1.5625.40625zm0 0"/></symbol><symbol id="L" overflow="visible"><path d="m5.03125-4.65625-.09375-.03125c-.5.203125-1.03125.34375-1.5625.40625v.28125h.375c.40625 0 .4375.0625.4375.734375v1.625c0 .21875-.140625.5-.375.734375-.265625.28125-.59375.421875-.984375.421875-.34375 0-.625-.109375-.78125-.3125-.140625-.15625-.21875-.46875-.21875-.90625v-2.953125l-.09375-.03125c-.5.203125-1.03125.34375-1.546875.40625v.28125h.359375c.40625 0 .4375.0625.4375.734375v1.671875c0 .703125.0625 1.015625.25 1.265625.21875.296875.59375.453125 1.171875.453125.4375 0 .84375-.140625 1.109375-.390625l.671875-.625c0 .296875 0 .453125-.03125.921875.65625-.03125.671875-.03125.828125-.03125.140625 0 .140625 0 .828125.03125v-.296875l-.40625-.03125c-.34375-.015625-.375-.078125-.375-.71875zm0 0"/></symbol><symbol id="M" overflow="visible"><path d="m.1875-4h.359375c.40625 0 .4375.0625.4375.734375v2.25c0 .625-.03125.703125-.359375.71875l-.46875.03125v.296875c.96875-.03125 1-.03125 1.28125-.03125.265625 0 .53125.015625 1.1875.03125v-.296875l-.421875-.03125c-.34375-.015625-.375-.09375-.375-.71875v-2.125c0-.453125.65625-.9375 1.265625-.9375.53125 0 .90625.515625.90625 1.265625v1.796875c0 .625-.03125.703125-.375.71875l-.453125.03125v.296875c1-.03125 1-.03125 1.25-.03125s.25 0 1.25.03125v-.296875l-.46875-.03125c-.328125-.015625-.359375-.09375-.359375-.71875v-2.125c0-.453125.65625-.9375 1.25-.9375.546875 0 .921875.515625.921875 1.265625v2.84375c.609375-.03125.609375-.03125.78125-.03125.140625 0 .140625 0 .890625.03125v-.296875l-.46875-.03125c-.34375-.015625-.375-.09375-.375-.71875v-2.0625c0-.984375-.578125-1.609375-1.5-1.609375-.34375 0-.640625.09375-.8125.25l-.765625.671875c-.3125-.65625-.71875-.921875-1.421875-.921875-.359375 0-.640625.09375-.828125.25l-.6875.640625v-.859375l-.09375-.03125c-.5.203125-1.03125.34375-1.546875.40625zm0 0"/></symbol><symbol id="N" overflow="visible"><path d="m3.984375-3.109375c0-.453125.0625-.875.140625-1.234375-.390625-.234375-.75-.34375-1.15625-.34375-.484375 0-1.03125.1875-1.640625.5625-.703125.4375-1.0625 1.140625-1.0625 2.03125 0 1.34375.9375 2.296875 2.28125 2.296875.515625 0 1.265625-.1875 1.375-.34375l.203125-.3125-.09375-.15625c-.375.203125-.6875.296875-1.046875.296875-1.109375 0-1.84375-.875-1.84375-2.1875 0-1.0625.5-1.671875 1.40625-1.671875.4375 0 .90625.203125 1.09375.453125l.0625.609375zm0 0"/></symbol><symbol id="O" overflow="visible"><path d="m1.875-4.65625-.078125-.03125c-.515625.203125-1.03125.34375-1.5625.40625v.28125h.359375c.40625 0 .453125.0625.453125.734375v2.25c0 .625-.03125.703125-.375.71875l-.46875.03125v.296875c1-.03125 1-.03125 1.25-.03125s.25 0 1.25.03125v-.296875l-.453125-.03125c-.34375-.015625-.375-.09375-.375-.71875zm-.453125-2.21875c-.296875 0-.5625.265625-.5625.5625s.265625.546875.546875.546875c.296875 0 .5625-.25.5625-.546875 0-.28125-.265625-.5625-.546875-.5625zm0 0"/></symbol><symbol id="P" overflow="visible"><path d="m4.09375.03125c.609375-.03125.625-.03125.796875-.03125.140625 0 .140625 0 .828125.03125v-.296875l-.40625-.03125c-.34375-.015625-.375-.078125-.375-.71875v-1.9375c0-1.171875-.546875-1.734375-1.671875-1.734375-.359375 0-.578125.0625-.78125.25l-.765625.65625v-.875l-.09375-.03125c-.5.203125-1.03125.34375-1.5625.40625v.28125h.375c.40625 0 .4375.0625.4375.734375v2.25c0 .625-.03125.703125-.359375.71875l-.453125.03125v.296875c.671875-.015625.953125-.03125 1.234375-.03125.296875 0 .5625.015625 1.25.03125v-.296875l-.453125-.03125c-.34375-.015625-.375-.09375-.375-.71875v-2.125c0-.453125.65625-.9375 1.265625-.9375.671875 0 1.109375.5 1.109375 1.265625zm0 0"/></symbol><symbol id="Q" overflow="visible"><path d="m3.5625-6.609375h.421875c.15625 0 .25.1875.25.546875v5.046875c0 .625-.03125.703125-.375.71875l-.453125.03125v.296875c1-.03125 1-.03125 1.25-.03125s.25 0 1.25.03125v-.296875l-.46875-.03125c-.34375-.015625-.375-.09375-.375-.71875v-6.140625l-.078125-.109375c-.421875.15625-.75.234375-1.421875.375v-.28125c-.109375-.015625-.125-.03125-.21875-.046875-.21875-.046875-.296875-.0625-.40625-.0625-.3125 0-.65625.171875-.875.421875l-.578125.65625c-.296875.328125-.421875.78125-.421875 1.4375v.421875l-.6875.3125v.21875l.6875-.03125v2.828125c0 .625-.03125.703125-.375.71875l-.453125.03125v.296875c1-.03125 1-.03125 1.25-.03125s.53125.015625 1.3125.03125v-.296875l-.53125-.03125c-.328125-.015625-.359375-.09375-.359375-.71875v-2.828125h1.234375l.0625-.53125-1.296875.03125v-.84375c0-1.15625.125-1.4375.6875-1.4375.25 0 .453125.078125.75.28125l.21875-.0625zm0 0"/></symbol><symbol id="R" overflow="visible"><path d="m.09375-4h.375c.40625 0 .4375.0625.4375.734375v5.03125c0 .625-.03125.6875-.359375.71875l-.46875.03125v.296875c1-.03125 1-.03125 1.25-.03125s.25 0 1.25.03125v-.296875l-.453125-.03125c-.34375-.03125-.375-.09375-.375-.71875v-1.890625c.296875.171875.625.25 1.0625.25.296875 0 .5625-.0625.71875-.171875l1.140625-.734375c.390625-.265625.875-1.28125.875-1.921875 0-1.109375-.921875-1.984375-2.09375-1.984375-.359375 0-.71875.09375-.890625.25l-.8125.75v-.96875l-.09375-.03125c-.5.203125-1.03125.34375-1.5625.40625zm1.65625.9375c0-.140625.046875-.25.1875-.421875.28125-.359375.6875-.5625 1.1875-.5625.9375 0 1.546875.671875 1.546875 1.703125 0 1.125-.671875 1.953125-1.578125 1.953125-.546875 0-.953125-.171875-1.34375-.59375zm0 0"/></symbol><path d="m2189.53125 210.64375h-2014.0625" style="fill:none;stroke-width:4.99842;stroke-linecap:round;stroke-linejoin:round;stroke:#000;stroke-miterlimit:10" transform="matrix(.1 0 0 -.1 0 168.83)"/><g clip-path="url(#a)"><path d="m226.449219 147.765625-7.496094-2.011719v4.019532zm0 0"/></g><g clip-path="url(#b)"><path d="m2264.492188 210.64375-74.960938 20.117188v-40.195313zm0 0" style="fill:none;stroke-width:4.99842;stroke-linecap:round;stroke-linejoin:round;stroke:#000;stroke-miterlimit:10" transform="matrix(.1 0 0 -.1 0 168.83)"/></g><g stroke-linecap="round" stroke-linejoin="round" stroke-miterlimit="10" transform="matrix(.1 0 0 -.1 0 168.83)"><path d="m175.46875 1610.292188v-1399.648438" fill="none" stroke="#000" stroke-width="4.99842"/><path d="m175.46875 1685.253125-20.117188-74.960937h40.195313zm0 0" stroke="#000" stroke-width="4.99842"/><g fill="none"><path d="m175.46875 1439.510938h-24.570312" stroke="#000" stroke-width="4.99842"/><path d="m175.46875 210.64375v-24.570312" stroke="#000" stroke-width="4.99842"/><path d="m298.359375 210.64375v-24.570312" stroke="#000" stroke-width="4.99842"/><path d="m421.210938 210.64375v-24.570312" stroke="#000" stroke-width="4.99842"/><path d="m544.101562 210.64375v-24.570312" stroke="#000" stroke-width="4.99842"/><path d="m666.992188 210.64375v-24.570312" stroke="#000" stroke-width="4.99842"/><path d="m789.882812 210.64375v-24.570312" stroke="#000" stroke-width="4.99842"/><path d="m912.773438 210.64375v-24.570312" stroke="#000" stroke-width="4.99842"/><path d="m1035.664062 210.64375v-24.570312" stroke="#000" stroke-width="4.99842"/><path d="m1158.554688 210.64375v-24.570312" stroke="#000" stroke-width="4.99842"/><path d="m1281.40625 210.64375v-24.570312" stroke="#000" stroke-width="4.99842"/><path d="m1404.296875 210.64375v-24.570312" stroke="#000" stroke-width="4.99842"/><path d="m1527.1875 210.64375v-24.570312" stroke="#000" stroke-width="4.99842"/><path d="m1650.078125 210.64375v-24.570312" stroke="#000" stroke-width="4.99842"/><path d="m1772.96875 210.64375v-24.570312" stroke="#000" stroke-width="4.99842"/><path d="m1895.859375 210.64375v-24.570312" stroke="#000" stroke-width="4.99842"/><path d="m2018.710938 210.64375v-24.570312" stroke="#000" stroke-width="4.99842"/><path d="m2141.601562 210.64375v-24.570312" stroke="#000" stroke-width="4.99842"/><path d="m175.46875 1439.510938h122.890625" stroke="#20b2aa" stroke-opacity=".833333" stroke-width="11.9962"/><path d="m175.46875 364.276563 122.890625 460.820312 122.851563 307.1875 122.890624-307.1875 122.890626-460.820312" stroke="#4e6661" stroke-opacity=".528646" stroke-width="11.9962"/><path d="m175.46875 229.8625 122.890625 115.195313 122.851563 268.828125 122.890624 268.789062h122.890626l122.890624-268.789062 122.890626-268.828125 122.890624-115.195313" stroke="#7c1918" stroke-opacity=".364583" stroke-width="11.9962"/><path d="m175.46875 213.065625 122.890625 21.601563 122.851563 83.984375 122.890624 180 122.890626 216.015625 122.890624 100.820312 122.890626-100.820312 122.890624-216.015625 122.890626-180 122.851562-83.984375 122.890625-21.601563" stroke="#7b0410" stroke-opacity=".341146" stroke-width="11.9962"/><path d="m175.46875 210.95625 122.890625 3.59375 122.851563 19.492188 122.890624 62.421875 122.890626 128.710937 122.890624 171.601563 122.890626 128.710937h122.890624l122.890626-128.710937 122.851562-171.601563 122.890625-128.710937 122.890625-62.421875 122.890625-19.492188 122.890625-3.59375" stroke="#4a0e40" stroke-opacity=".458333" stroke-width="11.9962"/><path d="m175.46875 210.682813 122.890625.585937 122.851563 3.90625 122.890624 16.484375 122.890626 47.265625 122.890624 95.546875 122.890626 136.484375 122.890624 128.710938 122.890626 53.632812 122.851562-53.632812 122.890625-128.710938 122.890625-136.484375 122.890625-95.546875 122.890625-47.265625 122.890625-16.484375 122.851563-3.90625 122.890624-.585937" stroke="#191970" stroke-opacity=".716146" stroke-width="11.9962"/><path d="m1527.1875 1275.64375h122.890625" stroke="#20b2aa" stroke-opacity=".833333" stroke-width="11.9962"/><path d="m1527.1875 1152.753125h122.890625" stroke="#4e6661" stroke-opacity=".528646" stroke-width="11.9962"/><path d="m1527.1875 1029.901563h122.890625" stroke="#7c1918" stroke-opacity=".364583" stroke-width="11.9962"/><path d="m1527.1875 907.010938h122.890625" stroke="#7b0410" stroke-opacity=".341146" stroke-width="11.9962"/><path d="m1527.1875 784.120313h122.890625" stroke="#4a0e40" stroke-opacity=".458333" stroke-width="11.9962"/><path d="m1527.1875 661.229688h122.890625" stroke="#191970" stroke-opacity=".716146" stroke-width="11.9962"/></g></g><use x="119.28" xlink:href="#c" y="167.26984"/><use x="10.8" xlink:href="#d" y="101.03"/><use x="10.8" xlink:href="#e" y="92.03"/><use x="10.8" xlink:href="#h" y="86.99016"/><use x="12.6" xlink:href="#j" y="80.26985"/><use x="10.8" xlink:href="#f" y="70.91008"/><use x="10.8" xlink:href="#i" y="57.59018"/><use x="10.8" xlink:href="#g" y="52.07026"/><use x="5.88008" xlink:href="#k" y="23.51"/><path d="m5.867188 24.960938h4.558593v.480468h-4.558593zm0 0"/><use x="5.88008" xlink:href="#l" y="32.39"/><use x="16.08008" xlink:href="#m" y="156.11"/><use x="28.31988" xlink:href="#n" y="156.229922"/><use x="40.68008" xlink:href="#o" y="156.11"/><use x="52.91992" xlink:href="#p" y="156.11"/><use x="65.28008" xlink:href="#q" y="156.229922"/><use x="77.51988" xlink:href="#r" y="156.11"/><use x="89.75972" xlink:href="#s" y="156.11"/><use x="102.119861" xlink:href="#t" y="156.11"/><use x="114.359701" xlink:href="#u" y="156.11"/><use x="126.719842" xlink:href="#v" y="156.11"/><use x="137.51988" xlink:href="#n" y="156.229922"/><use x="140.519885" xlink:href="#m" y="156.229922"/><use x="149.75972" xlink:href="#n" y="156.229922"/><use x="152.759725" xlink:href="#n" y="156.229922"/><use x="162.119861" xlink:href="#n" y="156.229922"/><use x="165.119866" xlink:href="#o" y="156.229922"/><use x="174.359701" xlink:href="#n" y="156.229922"/><use x="177.359706" xlink:href="#p" y="156.229922"/><use x="186.599542" xlink:href="#n" y="156.229922"/><use x="189.599547" xlink:href="#q" y="156.229922"/><use x="198.959682" xlink:href="#n" y="156.229922"/><use x="201.959687" xlink:href="#r" y="156.229922"/><use x="211.199523" xlink:href="#n" y="156.229922"/><use x="214.199528" xlink:href="#s" y="156.229922"/><use fill="#20b2aa" x="168.24" xlink:href="#w" y="44.63"/><use fill="#20b2aa" x="176.75992" xlink:href="#x" y="44.63"/><use fill="#20b2aa" x="187.79972" xlink:href="#y" y="44.63"/><use fill="#4e6661" x="168.24" xlink:href="#w" y="56.99"/><use fill="#4e6661" x="176.75992" xlink:href="#x" y="56.99"/><use fill="#4e6661" x="187.79972" xlink:href="#z" y="56.99"/><use fill="#7c1918" x="168.24" xlink:href="#w" y="69.23"/><use fill="#7c1918" x="176.75992" xlink:href="#x" y="69.23"/><use fill="#7c1918" x="187.79972" xlink:href="#A" y="69.23"/><use fill="#7b0410" x="168.24" xlink:href="#w" y="81.4698"/><use fill="#7b0410" x="176.75992" xlink:href="#x" y="81.4698"/><use fill="#7b0410" x="187.79972" xlink:href="#y" y="81.4698"/><use fill="#7b0410" x="192.83972" xlink:href="#B" y="81.4698"/><use fill="#4a0e40" x="168.24" xlink:href="#w" y="93.83"/><use fill="#4a0e40" x="176.75992" xlink:href="#x" y="93.83"/><use fill="#4a0e40" x="187.79972" xlink:href="#y" y="93.83"/><use fill="#4a0e40" x="192.83972" xlink:href="#C" y="93.83"/><g fill="#191970"><use x="168.24" xlink:href="#w" y="106.0698"/><use x="176.75992" xlink:href="#x" y="106.0698"/><use x="187.79972" xlink:href="#y" y="106.0698"/><use x="192.83972" xlink:href="#D" y="106.0698"/><use x="69.96072" xlink:href="#E" y="14.7499"/><use x="75.96072" xlink:href="#F" y="14.7499"/><use x="85.44072" xlink:href="#G" y="14.7499"/><use x="90.96072" xlink:href="#H" y="14.7499"/><use x="97.68065" xlink:href="#I" y="14.7499"/><use x="101.04065" xlink:href="#J" y="14.7499"/><use x="106.44065" xlink:href="#K" y="14.7499"/><use x="112.9205" xlink:href="#H" y="14.7499"/><use x="117.1205" xlink:href="#L" y="14.7499"/><use x="123.1205" xlink:href="#M" y="14.7499"/><use x="132.000488" xlink:href="#H" y="14.7499"/><use x="138.840418" xlink:href="#J" y="14.7499"/><use x="144.240418" xlink:href="#I" y="14.7499"/><use x="150.24042" xlink:href="#w" y="14.7499"/><g><use x="158.40058" xlink:href="#N" y="14.7499"/><use x="162.84058" xlink:href="#J" y="14.7499"/></g><use x="168.24058" xlink:href="#O" y="14.7499"/><use x="171.12058" xlink:href="#P" y="14.7499"/><use x="179.52051" xlink:href="#Q" y="14.7499"/><use x="185.64051" xlink:href="#O" y="14.7499"/><use x="188.52051" xlink:href="#R" y="14.7499"/><use x="194.52051" xlink:href="#H" y="14.7499"/></g></svg>