<svg height="227.07pt" viewBox="0 0 228.12 227.07" width="228.12pt" xmlns="http://www.w3.org/2000/svg" xmlns:xlink="http://www.w3.org/1999/xlink"><symbol id="a" overflow="visible"><path d="m2.359375-6.171875c-1.390625 0-2.09375 1.09375-2.09375 3.265625 0 1.046875.1875 1.953125.5 2.390625s.8125.6875 1.375.6875c1.34375 0 2.03125-1.15625 2.03125-3.453125 0-1.96875-.578125-2.890625-1.8125-2.890625zm-.15625.3125c.859375 0 1.21875.875 1.21875 3.03125 0 1.90625-.34375 2.6875-1.171875 2.6875-.875 0-1.234375-.90625-1.234375-3.09375 0-1.890625.328125-2.625 1.1875-2.625zm0 0"/></symbol><symbol id="b" overflow="visible"><path d="m1.109375-1c-.265625 0-.515625.25-.515625.53125 0 .265625.25.515625.515625.515625.28125 0 .53125-.25.53125-.515625 0-.28125-.25-.53125-.53125-.53125zm0 0"/></symbol><symbol id="c" overflow="visible"><path d="m.140625-.203125v.234375c1.6875-.03125 1.6875-.03125 2-.03125.328125 0 .328125 0 2.0625.03125-.03125-.1875-.03125-.28125-.03125-.40625s0-.203125.03125-.40625c-1.03125.046875-1.453125.0625-3.109375.09375l1.625-1.734375c.875-.921875 1.140625-1.421875 1.140625-2.09375 0-1.03125-.6875-1.65625-1.828125-1.65625-.65625 0-1.09375.171875-1.53125.625l-.15625 1.21875h.265625l.109375-.421875c.15625-.515625.46875-.734375 1.078125-.734375.765625 0 1.265625.484375 1.265625 1.234375 0 .6875-.375 1.34375-1.390625 2.421875zm0 0"/></symbol><symbol id="d" overflow="visible"><path d="m2.515625-1.625v.671875c0 .546875-.109375.671875-.546875.6875l-.546875.03125v.265625c1.1875-.03125 1.1875-.03125 1.40625-.03125s.21875 0 1.40625.03125v-.265625l-.4375-.03125c-.4375-.03125-.53125-.140625-.53125-.6875v-.671875c.53125 0 .71875.015625.96875.03125v-.625c-.421875.03125-.59375.03125-.734375.015625h-.234375v-1.234375c0-1.609375.015625-2.375.0625-2.734375l-.109375-.046875-.65625.234375-2.546875 4.15625.09375.203125zm0-.578125h-1.9375l1.9375-3.15625zm0 0"/></symbol><symbol id="e" overflow="visible"><path d="m3.734375-6.03125-.328125-.140625c-.875.28125-1.234375.453125-1.6875.859375-.921875.78125-1.4375 1.875-1.4375 3.09375 0 1.484375.71875 2.390625 1.875 2.390625 1.171875 0 2.046875-.921875 2.046875-2.140625 0-1.03125-.625-1.703125-1.578125-1.703125-.453125 0-.71875.125-1.25.546875-.09375.078125-.09375.078125-.203125.15625.1875-1.625.9375-2.5 2.5625-2.984375zm-1.453125 2.90625c.6875 0 1.140625.59375 1.140625 1.46875 0 .9375-.453125 1.546875-1.140625 1.546875-.765625 0-1.171875-.65625-1.171875-1.859375 0-.3125.03125-.484375.125-.640625.203125-.3125.625-.515625 1.046875-.515625zm0 0"/></symbol><symbol id="f" overflow="visible"><path d="m1.5-3.09375c-.359375.171875-.515625.265625-.703125.453125-.34375.34375-.53125.75-.53125 1.21875 0 .921875.75 1.59375 1.765625 1.59375 1.15625 0 2.125-.90625 2.125-2.015625 0-.71875-.328125-1.109375-1.34375-1.578125.8125-.546875 1.09375-.921875 1.09375-1.46875 0-.765625-.625-1.28125-1.578125-1.28125-1.078125 0-1.859375.671875-1.859375 1.609375 0 .609375.25.953125 1.03125 1.46875zm1.046875.453125c.5625.25.90625.6875.90625 1.171875 0 .75-.5625 1.34375-1.296875 1.34375-.75 0-1.25-.53125-1.25-1.375 0-.65625.265625-1.0625.921875-1.46875zm-.546875-1.15625c-.5625-.28125-.859375-.640625-.859375-1.078125 0-.59375.4375-1 1.078125-1 .65625 0 1.078125.4375 1.078125 1.078125 0 .515625-.21875.875-.796875 1.25zm0 0"/></symbol><symbol id="g" overflow="visible"><path d="m.59375-4.984375h.09375l1.15625-.515625h.03125c.046875 0 .078125.078125.078125.296875v4.34375c0 .46875-.109375.5625-.59375.59375l-.5.03125v.265625c1.390625-.03125 1.390625-.03125 1.484375-.03125.109375 0 .3125 0 .609375.015625.109375 0 .421875 0 .796875.015625v-.265625l-.46875-.03125c-.484375-.03125-.578125-.125-.578125-.59375v-5.3125l-.125-.046875c-.59375.296875-1.21875.5625-2.046875.859375zm0 0"/></symbol><g fill="none" stroke-linecap="round" stroke-miterlimit="10" transform="matrix(.1 0 0 -.1 0 227.07)"><g stroke="#000" stroke-linejoin="round" stroke-width="4.99964"><path d="m242.617188 213.2v1968.984375"/><path d="m242.617188 213.2h-56.679688"/><path d="m242.617188 606.989062h-56.679688"/><path d="m242.617188 1000.817187h-56.679688"/><path d="m242.617188 1394.60625h-56.679688"/><path d="m242.617188 1788.395312h-56.679688"/><path d="m242.617188 2182.184375h-56.679688"/><path d="m242.617188 410.114062h-28.359376"/><path d="m242.617188 803.903125h-28.359376"/><path d="m242.617188 1197.692187h-28.359376"/><path d="m242.617188 1591.48125h-28.359376"/><path d="m242.617188 1985.309375h-28.359376"/><path d="m242.617188 213.2h1968.984374"/><path d="m242.617188 213.2v-56.679688"/><path d="m636.40625 213.2v-56.679688"/><path d="m1030.234375 213.2v-56.679688"/><path d="m1424.023438 213.2v-56.679688"/><path d="m1817.8125 213.2v-56.679688"/><path d="m2211.601562 213.2v-56.679688"/><path d="m439.53125 213.2v-28.359375"/><path d="m833.320312 213.2v-28.359375"/><path d="m1227.109375 213.2v-28.359375"/><path d="m1620.9375 213.2v-28.359375"/><path d="m2014.726562 213.2v-28.359375"/></g><path d="m242.617188 213.2.664062 9.609375.664062 5.78125.664063 3.828125.625 8.90625.664063 2.65625h1.953124l.664063 7.695312.664063 7.65625.664062.976563.664062 9.140625.625 5.273437h7.226563l.664063 4.101563.664062 9.375.664062 1.914062.664063 7.695313.625 7.695312h1.992187l.664063 1.914063.625 9.609375.664063 3.867187.664062 4.804688.664062 9.375.664063 1.171875h23.59375l.664063 8.203125.664062 7.1875.664062 3.867187.664063 7.695313.664063 3.828125h1.953124l1.328126 15.390625h.625l.664062 8.90625.664062 6.484375h7.226563l.664063 3.828125.625 8.476562.664062 3.046875 1.328125 15.390625h1.953125l.664062.3125.664063 9.296875.625 5.78125.664063 3.828125.664062 9.140625.664062 2.421875h72.1875l1.328126 15.390625.664062 1.015625.625 9.53125.664062 4.804688h1.992188l.625 7.695312.664062 7.695313h.664063l1.328125 15.390625h7.1875l.664062 1.914062.664063 9.609375.664063 3.867188.664062 5.117187.625 9.296875.664062.976563h1.992188l.625 7.695312.664062 7.65625.664063 2.421875.664063 9.140625.664062 3.828125h23.632812l.625 7.695313.664063 7.695312h.664063l.664062 9.21875.664062 6.171875h1.953126l1.328124 15.390625h.625l.664063 7.695313.664063 7.65625h7.226562l.664062.625.625 9.023437.664063 5.742188.664063 3.867187.664062 9.492188.664062 2.03125h1.953126l1.328124 15.390625.625 1.328125.664063 9.257812.664063 4.804688h217.890624l.664063 4.804687.664063 9.257813.664062 1.289062.625 7.695313.664062 7.695312h1.992188l.664062 2.070313.625 9.492187.664063 3.828125.664063 5.78125.664062 8.984375.664062.625h7.1875l1.328126 15.390625h.664062l.664062 7.695313.625 7.65625h1.992188l.664062 6.171875.625 9.21875h.664063l1.328125 15.390625h23.632812l.664063 3.867187.625 9.101563.664063 2.421875 1.328124 15.390625h1.953126l.664062.9375.664062 9.296875.625 5.117187.664063 3.867188.664063 9.609375.664062 1.914062h7.226562l.625 7.695313.664063 7.695312h.664063l1.328124 15.390625h1.953126l.664062 4.804688.664062 9.53125.664063 1.054687.625 7.695313.664063 7.65625h72.1875l.664062 2.421875.664062 9.140625.664063 3.828125.664063 5.78125.625 9.296875.664062.3125h1.992188l.625 7.695312.664062 7.695313.664062 3.085937.664063 8.4375.664063 3.867188h7.1875l.664062 6.484375.664062 8.867187h.664063l1.328125 15.390625h1.953125l.664063 3.867188.664062 7.695312.625 3.828125.664062 7.1875.664063 8.203125h23.632813l.664062 1.210938.625 9.375.664062 4.804687.664063 3.828125.664063 9.609375.664062 1.953125h1.953125l.664063 7.65625.664062 7.695313.625 1.914062.664062 9.375.664063 4.101563h7.226563l.664062 5.273437.625 9.140625.664062.976563 1.328126 15.390625h1.953124l.664063 2.617187.664063 8.90625.664062 3.828125.625 5.78125.664062 9.609375h656.328126l.664062 9.609375.664062 5.78125.664063 3.828125.625 8.90625.664063 2.65625h1.992187l.664063 7.695313.625 7.695312.664062.9375.664062 9.140625.664063 5.273438h7.226563l.664062 4.140625.625 9.335937.664062 1.914063 1.328126 15.390625h1.953124l.664063 1.914062.664063 9.648438.625 3.828125.664062 4.804687.664062 9.375.664063 1.210938h23.632813l.664062 8.203125.625 7.1875.664062 3.828125.664063 7.695312.664063 3.828125h1.953124l1.328126 15.390625h.664062l.625 8.90625.664062 6.484375h7.226563l.664063 3.828125.664062 8.476563.625 3.085937.664062 7.695313.664063 7.65625h1.953125l.664062.3125.664063 9.335937.664063 5.742188.625 3.867187.664062 9.140625.664062 2.382813h72.226563l.625 7.695312.664063 7.695313.664062 1.015625.664062 9.570312.664063 4.804688h1.953125l1.328125 15.390625h.625l.664063 7.65625.664062 7.695312h7.226562l.625 1.914063.664063 9.648437.664063 3.828125.664062 5.117188.664062 9.296875.625.976562h1.992188l.664062 7.695313.625 7.695312.664063 2.382813.664063 9.140625.664062 3.828125h23.632812l1.328126 15.390625h.625l.664062 9.21875.664062 6.171875h1.953126l1.328124 15.390625h.664063l.625 7.695312.664063 7.695313h7.226562l.664062.585937.664063 9.023438.664063 5.742187.625 3.867188.664062 9.492187.664062 2.03125h1.953126l1.328124 15.390625.664063 1.328125.664063 9.257813.625 4.804687h217.929687l.625 4.804688.664063 9.257812.664062 1.328125 1.328125 15.390625h1.953125l.664062 2.03125.664063 9.492188.664063 3.828125.625 5.78125.664062 9.023437.664062.585938h7.226563l.625 7.695312.664063 7.695313h.664062l1.328125 15.390625h1.953125l.664062 6.132812.664063 9.21875h.664063l.625 7.695313.664062 7.695312h23.632812l.664063 3.867188.664063 9.140625.664062 2.382812.625 7.695313.664062 7.695312h1.953126l.664062.9375.664062 9.335938.664063 5.117187.664063 3.828125.625 9.609375.664062 1.953125h7.226562l.664063 7.65625.664063 7.695313h.625l1.328124 15.390625h1.992188l.625 4.804687.664062 9.570313.664063 1.015625 1.328125 15.390625h72.1875l.664062 2.382812.625 9.140625.664063 3.828125.664063 5.78125.664062 9.335938.625.273437h1.992188l.664062 7.695313.625 7.695312.664062 3.085938.664063 8.476562.664063 3.828125h7.226562l.664062 6.484375.664063 8.90625h.625l.664063 7.65625.664062 7.734375h1.953125l.664063 3.828125.664062 7.695313.664062 3.828125.625 7.1875.664063 8.203125h23.632813l.664062 1.210937.664062 9.375.625 4.804688.664063 3.828125.664063 9.609375.664062 1.953125h1.953125l1.328125 15.390625.664062 1.914062.625 9.335938.664063 4.101562h7.226563l.664062 5.3125.664062 9.101563.664063.976562.625 7.695313.664063 7.695312h1.992187l.625 2.65625.664063 8.867188.664062 3.867187.664062 5.742188.625 9.609375" stroke="#000040" stroke-width="2.99979"/></g><use x="11.4" xlink:href="#a" y="209.7899"/><use x="4.68008" xlink:href="#a" y="170.3098"/><use x="9.120081" xlink:href="#b" y="170.3098"/><use x="11.400082" xlink:href="#c" y="170.3098"/><use x="4.68008" xlink:href="#a" y="130.95"/><use x="9.120081" xlink:href="#b" y="130.95"/><use x="11.400082" xlink:href="#d" y="130.95"/><use x="4.68008" xlink:href="#a" y="91.5898"/><use x="9.120081" xlink:href="#b" y="91.5898"/><use x="11.400082" xlink:href="#e" y="91.5898"/><use x="4.68008" xlink:href="#a" y="52.2296"/><use x="9.120081" xlink:href="#b" y="52.2296"/><use x="11.400082" xlink:href="#f" y="52.2296"/><use x="11.4" xlink:href="#g" y="12.8698"/><use x="22.0801" xlink:href="#a" y="222.2698"/><use x="58.080116" xlink:href="#a" y="222.2698"/><use x="62.520123" xlink:href="#b" y="222.2698"/><use x="64.800122" xlink:href="#c" y="222.2698"/><use x="97.440255" xlink:href="#a" y="222.2698"/><use x="101.880263" xlink:href="#b" y="222.2698"/><use x="104.160262" xlink:href="#d" y="222.2698"/><use x="136.800395" xlink:href="#a" y="222.2698"/><use x="141.240397" xlink:href="#b" y="222.2698"/><use x="143.520395" xlink:href="#e" y="222.2698"/><use x="176.160529" xlink:href="#a" y="222.2698"/><use x="180.60053" xlink:href="#b" y="222.2698"/><use x="182.880529" xlink:href="#f" y="222.2698"/><use x="219.000425" xlink:href="#g" y="222.2698"/></svg>