<svg height="119.29pt" viewBox="0 0 227.77 119.29" width="227.77pt" xmlns="http://www.w3.org/2000/svg" xmlns:xlink="http://www.w3.org/1999/xlink"><symbol id="a" overflow="visible"><path d="m.203125-.875c0 .1875-.015625.328125-.078125.640625-.015625.125-.03125.15625-.03125.21875.140625.078125.3125.125.421875.125.328125 0 .71875-.296875 1.03125-.765625l.765625-1.15625.109375.6875c.125.84375.359375 1.234375.71875 1.234375.21875 0 .546875-.171875.859375-.453125l.484375-.453125-.078125-.1875c-.359375.296875-.609375.453125-.78125.453125-.140625 0-.28125-.09375-.375-.296875-.09375-.1875-.203125-.5625-.25-.859375l-.1875-1 .359375-.5c.46875-.640625.734375-.875 1.046875-.875.15625 0 .28125.078125.328125.234375l.140625-.046875.15625-.84375c-.125-.078125-.21875-.09375-.296875-.09375-.40625 0-.8125.359375-1.421875 1.265625l-.375.5625-.0625-.484375c-.125-.984375-.390625-1.34375-.984375-1.34375-.25 0-.46875.078125-.5625.203125l-.578125.828125.171875.09375c.296875-.328125.5-.46875.6875-.46875.328125 0 .546875.40625.71875 1.390625l.109375.609375-.40625.625c-.421875.671875-.765625.984375-1.046875.984375-.140625 0-.25-.03125-.28125-.078125l-.109375-.28125zm0 0"/></symbol><symbol id="b" overflow="visible"><path d="m2.859375-3.828125c.046875-.1875.109375-.421875.171875-.5625l-.046875-.0625-.0625.015625c-.234375.0625-.359375.0625-.84375.0625h-.15625l.203125-1.109375c.171875-.859375.4375-1.25.90625-1.25.296875 0 .5625.15625.71875.390625l.09375-.03125c.0625-.171875.15625-.46875.234375-.671875l.046875-.15625c-.15625-.0625-.46875-.125-.6875-.125-.125 0-.28125.03125-.359375.0625-.234375.109375-1.0625.71875-1.28125.96875-.234375.21875-.34375.515625-.453125 1.09375l-.15625.78125c-.40625.203125-.609375.28125-.859375.375l-.046875.21875h.8125l-.09375.5625c-.296875 1.953125-.671875 3.8125-.890625 4.5-.171875.578125-.484375.890625-.84375.890625-.21875 0-.328125-.0625-.515625-.28125l-.140625.03125c-.046875.234375-.171875.71875-.234375.8125.09375.046875.25.078125.359375.078125.40625 0 .953125-.3125 1.328125-.78125.625-.71875.84375-1.421875 1.5625-4.9375.03125-.109375.109375-.5.1875-.875zm0 0"/></symbol><symbol id="c" overflow="visible"><path d="m3.453125 2.5c0-.03125 0-.046875-.1875-.234375-1.296875-1.3125-1.625-3.28125-1.625-4.875 0-1.8125.390625-3.625 1.671875-4.921875.140625-.125.140625-.15625.140625-.1875 0-.0625-.046875-.09375-.109375-.09375-.109375 0-1.046875.703125-1.65625 2.03125-.53125 1.140625-.65625 2.296875-.65625 3.171875 0 .8125.109375 2.078125.6875 3.25.625 1.28125 1.515625 1.96875 1.625 1.96875.0625 0 .109375-.03125.109375-.109375zm0 0"/></symbol><symbol id="d" overflow="visible"><path d="m3.015625-2.609375c0-.8125-.125-2.0625-.6875-3.25-.625-1.28125-1.53125-1.953125-1.625-1.953125-.0625 0-.109375.03125-.109375.09375 0 .03125 0 .0625.203125.25 1.015625 1.03125 1.609375 2.6875 1.609375 4.859375 0 1.78125-.390625 3.625-1.671875 4.9375-.140625.125-.140625.140625-.140625.171875 0 .0625.046875.109375.109375.109375.09375 0 1.03125-.71875 1.65625-2.03125.53125-1.15625.65625-2.3125.65625-3.1875zm0 0"/></symbol><symbol id="e" overflow="visible"><path d="m7.15625-3.40625c.15625 0 .359375 0 .359375-.203125 0-.21875-.203125-.21875-.34375-.21875h-6.25c-.140625 0-.34375 0-.34375.21875 0 .203125.203125.203125.359375.203125zm.015625 2.015625c.140625 0 .34375 0 .34375-.203125s-.203125-.203125-.359375-.203125h-6.21875c-.15625 0-.359375 0-.359375.203125s.203125.203125.34375.203125zm0 0"/></symbol><symbol id="f" overflow="visible"><path d="m.515625-4.21875h.0625l.984375-.4375h.03125c.03125 0 .046875.0625.046875.25v3.671875c0 .40625-.078125.484375-.484375.5l-.421875.03125v.21875c1.15625-.015625 1.15625-.015625 1.25-.015625h.515625c.09375.015625.359375.015625.671875.015625v-.21875l-.390625-.03125c-.421875-.015625-.5-.09375-.5-.5v-4.5l-.109375-.03125c-.484375.25-1.03125.484375-1.71875.71875zm0 0"/></symbol><symbol id="g" overflow="visible"><path d="m.125-.171875v.1875c1.421875-.015625 1.421875-.015625 1.6875-.015625.28125 0 .28125 0 1.734375.015625-.015625-.15625-.015625-.234375-.015625-.328125 0-.109375 0-.1875.015625-.34375-.859375.03125-1.21875.046875-2.625.078125l1.390625-1.46875c.734375-.78125.953125-1.203125.953125-1.765625 0-.875-.578125-1.421875-1.546875-1.421875-.546875 0-.921875.15625-1.296875.53125l-.125 1.03125h.21875l.09375-.34375c.125-.4375.40625-.625.90625-.625.65625 0 1.078125.40625 1.078125 1.046875 0 .578125-.328125 1.140625-1.1875 2.046875zm0 0"/></symbol><symbol id="h" overflow="visible"><path d="m3.65625-.984375c-.171875.34375-.453125.71875-.609375.71875-.078125 0-.109375-.09375-.109375-.21875 0-.078125.015625-.171875.03125-.25l.46875-2.234375h.609375l.28125-.53125c-.203125.046875-.5.078125-.828125.078125h-1.984375c-.34375 0-.84375.171875-1.109375.59375l.125.125c.265625-.21875.640625-.265625 1-.265625-.296875 1.234375-.5 2.328125-.890625 2.390625-.171875.03125-.390625.140625-.390625.40625 0 .171875.21875.25.3125.25.375 0 .625-.453125.75-.765625.171875-.40625.40625-1.28125.625-2.28125h.875l-.453125 2.109375c-.03125.140625-.046875.28125-.046875.390625 0 .359375.125.546875.375.546875.5 0 .890625-.390625 1.140625-.96875zm0 0"/></symbol><symbol id="i" overflow="visible"><path d="m2.625 1.90625c0-.03125 0-.046875-.140625-.171875-.984375-1-1.234375-2.5-1.234375-3.71875 0-1.375.296875-2.75 1.265625-3.75.109375-.09375.109375-.109375.109375-.125 0-.0625-.03125-.078125-.078125-.078125-.078125 0-.796875.53125-1.265625 1.546875-.40625.859375-.5 1.75-.5 2.40625 0 .625.09375 1.578125.53125 2.46875.46875.984375 1.15625 1.5 1.234375 1.5.046875 0 .078125-.03125.078125-.078125zm0 0"/></symbol><symbol id="j" overflow="visible"><path d="m3.234375-1.828125h2.21875c.109375 0 .265625 0 .265625-.15625s-.15625-.15625-.265625-.15625h-2.21875v-2.21875c0-.109375 0-.265625-.15625-.265625s-.15625.15625-.15625.265625v2.21875h-2.21875c-.109375 0-.265625 0-.265625.15625s.15625.15625.265625.15625h2.21875v2.21875c0 .109375 0 .265625.15625.265625s.15625-.15625.15625-.265625zm0 0"/></symbol><symbol id="k" overflow="visible"><path d="m2.296875-1.984375c0-.609375-.09375-1.578125-.53125-2.46875-.46875-.96875-1.15625-1.484375-1.234375-1.484375-.046875 0-.078125.03125-.078125.078125 0 .015625 0 .03125.15625.171875.765625.796875 1.21875 2.046875 1.21875 3.703125 0 1.359375-.296875 2.75-1.28125 3.75-.09375.09375-.09375.109375-.09375.140625 0 .046875.03125.078125.078125.078125.078125 0 .796875-.546875 1.265625-1.546875.390625-.875.5-1.75.5-2.421875zm0 0"/></symbol><symbol id="l" overflow="visible"><path d="m.15625-.671875c0 .15625-.015625.25-.0625.5-.015625.09375-.015625.109375-.03125.171875.125.046875.234375.078125.328125.078125.25 0 .546875-.21875.78125-.578125l.578125-.875.09375.515625c.09375.640625.265625.9375.546875.9375.15625 0 .40625-.125.640625-.34375l.375-.328125-.0625-.15625c-.28125.234375-.46875.34375-.59375.34375-.109375 0-.203125-.078125-.28125-.21875-.0625-.15625-.15625-.4375-.1875-.65625l-.140625-.765625.265625-.375c.359375-.484375.5625-.65625.796875-.65625.125 0 .21875.0625.25.171875l.109375-.03125.109375-.640625c-.09375-.0625-.15625-.078125-.21875-.078125-.3125 0-.609375.265625-1.078125.96875l-.28125.421875-.046875-.375c-.09375-.75-.296875-1.015625-.75-1.015625-.203125 0-.359375.0625-.4375.15625l-.4375.625.125.078125c.234375-.25.390625-.359375.53125-.359375.25 0 .421875.3125.546875 1.046875l.078125.484375-.296875.46875c-.328125.5-.59375.75-.796875.75-.109375 0-.203125-.03125-.21875-.078125l-.078125-.203125zm0 0"/></symbol><symbol id="m" overflow="visible"><path d="m.09375-.140625v.15625c1.125-.015625 1.125-.015625 1.34375-.015625s.21875 0 1.375.015625c-.015625-.125-.015625-.1875-.015625-.265625s0-.140625.015625-.265625c-.6875.03125-.96875.03125-2.078125.046875l1.09375-1.15625c.578125-.609375.765625-.9375.765625-1.390625 0-.6875-.46875-1.125-1.234375-1.125-.4375 0-.734375.125-1.015625.421875l-.109375.828125h.171875l.078125-.28125c.09375-.34375.3125-.5.71875-.5.515625 0 .84375.328125.84375.828125 0 .453125-.25.90625-.9375 1.625zm0 0"/></symbol><symbol id="n" overflow="visible"><path d="m6.875-2.390625c.171875 0 .359375 0 .359375-.21875 0-.203125-.1875-.203125-.359375-.203125h-5.640625c-.1875 0-.375 0-.375.203125 0 .21875.1875.21875.375.21875zm0 0"/></symbol><symbol id="o" overflow="visible"><path d="m.15625-.234375v.265625c1.875-.03125 1.875-.03125 2.234375-.03125s.359375 0 2.296875.03125c-.03125-.21875-.03125-.3125-.03125-.453125 0-.125 0-.234375.03125-.453125-1.15625.0625-1.625.0625-3.46875.109375l1.828125-1.9375c.96875-1.03125 1.265625-1.578125 1.265625-2.328125 0-1.15625-.78125-1.859375-2.046875-1.859375-.71875 0-1.21875.203125-1.703125.703125l-.171875 1.359375h.296875l.125-.46875c.15625-.578125.515625-.828125 1.1875-.828125.859375 0 1.40625.546875 1.40625 1.390625 0 .75-.421875 1.5-1.546875 2.6875zm0 0"/></symbol><symbol id="p" overflow="visible"><path d="m.671875-5.546875h.09375l1.296875-.578125c0-.015625.015625-.015625.03125-.015625.0625 0 .078125.09375.078125.328125v4.859375c0 .515625-.109375.625-.65625.65625l-.5625.03125v.296875c1.546875-.03125 1.546875-.03125 1.65625-.03125.125 0 .34375 0 .6875.015625.125 0 .46875 0 .890625.015625v-.296875l-.53125-.03125c-.546875-.03125-.640625-.140625-.640625-.65625v-5.9375l-.140625-.046875c-.65625.34375-1.359375.640625-2.28125.953125zm0 0"/></symbol><symbol id="q" overflow="visible"><path d="m2.625-6.890625c-1.546875 0-2.328125 1.234375-2.328125 3.65625 0 1.171875.203125 2.171875.546875 2.671875.359375.484375.921875.765625 1.53125.765625 1.515625 0 2.28125-1.296875 2.28125-3.859375 0-2.1875-.65625-3.234375-2.03125-3.234375zm-.171875.34375c.96875 0 1.359375.984375 1.359375 3.390625 0 2.125-.375 3-1.296875 3-.96875 0-1.390625-1-1.390625-3.4375 0-2.109375.375-2.953125 1.328125-2.953125zm0 0"/></symbol><g stroke="#000" stroke-linecap="round" stroke-linejoin="round" stroke-miterlimit="10" stroke-width="4.99843" transform="matrix(.1 0 0 -.1 0 119.29)"><path d="m2112.65625 191.610938h-2035.195312" fill="none"/><path d="m2152.617188 191.610938-39.960938 10.703125v-21.445313zm0 0"/><path d="m37.5 191.610938 39.960938-10.742188v21.445313zm0 0"/><path d="m1095.078125 927.157813v-735.546875" fill="none"/><path d="m1095.078125 967.157813-10.742187-40h21.445312zm0 0"/><path d="m390 191.610938v-35.273438" fill="none"/><path d="m742.539062 191.610938v-35.273438" fill="none"/><path d="m1095.078125 191.610938v-35.273438" fill="none"/><path d="m1447.578125 191.610938v-35.273438" fill="none"/><path d="m1800.117188 191.610938v-35.273438" fill="none"/><path d="m1095.078125 808.525h-35.273437" fill="none"/><path d="m2112.734375 233.68125-2.421875.195313-21.132812 1.601562-21.171876 1.679688-21.132812 1.835937-21.171875 1.875-21.132813 2.03125-21.171874 2.148438-21.132813 2.265625-21.171875 2.382812-21.132812 2.539063-21.132813 2.734375-21.171875 2.890625-21.132812 3.046875-21.171876 3.28125-21.132812 3.515625-21.171875 3.710937-21.132813 3.984375-21.171874 4.257813-21.132813 4.570312-21.171875 4.882813-21.132812 5.234375-21.171876 5.625-21.132812 6.015625-21.171875 6.445312-21.132813 6.953125-21.171874 7.421875-21.132813 8.007813-21.132813 8.554687-21.171874 9.179688-21.171876 9.84375-21.132812 10.507812-21.132812 11.171875-21.171876 11.914063-21.132812 12.617187-21.171875 13.28125-21.132813 13.90625-21.171874 14.453125-21.132813 14.921875-21.171875 15.234375-21.132812 15.273438-21.171876 15.117187-21.132812 14.648438-21.171875 13.828125-21.132813 12.65625-21.171874 11.015625-21.132813 9.0625-21.171875 6.757812-21.132812 4.179688-21.132813 1.40625-21.171875-1.40625-21.171875-4.179688-21.132813-6.757812-21.132812-9.0625-21.171875-11.015625-21.132813-12.65625-21.171874-13.828125-21.132813-14.648438-21.171875-15.117187-21.132812-15.273438-21.171876-15.234375-21.132812-14.921875-21.171875-14.453125-21.132813-13.90625-21.171874-13.28125-21.132813-12.617187-21.171875-11.914063-21.132812-11.171875-21.171876-10.507812-21.132812-9.84375-21.132812-9.179688-21.171876-8.554687-21.171874-8.007813-21.132813-7.421875-21.132813-6.953125-21.171874-6.445312-21.132813-6.015625-21.171875-5.625-21.132812-5.234375-21.171876-4.882813-21.132812-4.570312-21.171875-4.257813-21.132813-3.984375-21.171874-3.710937-21.132813-3.515625-21.171875-3.28125-21.132812-3.046875-21.171876-2.890625-21.132812-2.734375-21.132812-2.539063-21.171876-2.382812-21.171874-2.265625-21.132813-2.148438-21.132813-2.03125-21.171874-1.875-21.132813-1.835937-21.171875-1.679688-21.132812-1.601562-2.421876-.195313" fill="none"/></g><path d="m215.261719 96.203125-2.003907-.6875-1.90625-.660156-.15625 2.132812 1.988282-.378906z"/><path d="m2152.617188 230.86875-20.039063 6.875-19.0625 6.601563-1.5625-21.328125 19.882813 3.789062zm0 0" style="fill:none;stroke-width:4.99843;stroke-linecap:round;stroke-linejoin:round;stroke:#000;stroke-miterlimit:10" transform="matrix(.1 0 0 -.1 0 119.29)"/><path d="m3.75 96.203125 2.078125.40625 1.988281.382813-.15625-2.140626-1.90625.664063z"/><path d="m37.5 230.86875 20.78125-4.0625 19.882812-3.828125-1.5625 21.40625-19.0625-6.640625zm0 0" style="fill:none;stroke-width:4.99843;stroke-linecap:round;stroke-linejoin:round;stroke:#000;stroke-miterlimit:10" transform="matrix(.1 0 0 -.1 0 119.29)"/><path d="m3.75 96.203125 2.113281-.144531 2.117188-.15625 2.113281-.160156 2.117188-.167969 2.113281-.183594 2.117187-.1875 2.113282-.203125 2.113281-.214844 2.117187-.226562 2.117188-.238282 2.113281-.253906 2.113281-.273437 2.117188-.289063 2.113281-.304687 2.117187-.328125 2.113282-.351563 2.117187-.371093 2.113281-.398438 2.117188-.425781 2.113281-.457031 2.117188-.488282 2.113281-.523437 2.117188-.5625 2.113281-.601563 2.117187-.644531 2.113282-.695313 2.113281-.742187 2.117187-.800781 2.117188-.855469 2.113281-.917969 2.113281-.984375 2.117188-1.050781 2.113281-1.117188 2.117187-1.191406 2.113282-1.261718 2.117187-1.328126 2.113281-1.390624 2.117188-1.445313 2.113281-1.492187 2.117188-1.523438 2.113281-1.527344 2.117188-1.511718 2.113281-1.464844 2.117187-1.382813 2.113282-1.265625 2.117187-1.101562 2.113281-.90625 2.113282-.675782 2.117187-.417968 2.117187-.140625 2.113282.140625 2.113281.417968 2.117187.675782 2.113282.90625 2.117187 1.101562 2.113281 1.265625 2.117188 1.382813 2.113281 1.464844 2.117188 1.511718 2.113281 1.527344 2.117188 1.523438 2.113281 1.492187 2.117187 1.445313 2.113282 1.390624 2.117187 1.328126 2.113281 1.261718 2.117188 1.191406 2.113281 1.117188 2.113281 1.050781 2.117188.984375 2.117187.917969 2.113281.855469 2.113282.800781 2.117187.742187 2.113281.695313 2.117188.644531 2.113281.601563 2.117188.5625 2.113281.523437 2.117188.488282 2.113281.457031 2.117187.425781 2.113282.398438 2.117187.371093 2.113281.351563 2.117188.328125 2.113281.304687 2.117187.289063 2.113282.273437 2.113281.253906 2.117187.238282 2.113282.226562 2.117187.214844 2.113281.203125 2.117188.1875 2.113281.183594 2.117188.167969 2.113281.160156 2.117188.15625 2.113281.144531v3.925781h-211.511719z" fill="#191970" fill-opacity=".3"/><use x="217.68" xlink:href="#a" y="107.0498"/><use x="113.16" xlink:href="#b" y="14.0498"/><use x="117.47992" xlink:href="#c" y="14.0498"/><use x="121.91976" xlink:href="#a" y="14.0498"/><use x="127.31976" xlink:href="#d" y="14.0498"/><use x="134.399775" xlink:href="#e" y="14.0498"/><use x="159.11976" xlink:href="#f" y="10.09003"/><path d="m146.507812 11.300781h28.921876v.480469h-28.921876zm0 0"/><use x="146.52" xlink:href="#h" y="18.49"/><use x="151.20008" xlink:href="#i" y="18.49"/><use x="154.43992" xlink:href="#f" y="18.49"/><use x="158.40008" xlink:href="#j" y="18.49"/><use x="164.88016" xlink:href="#l" y="18.49"/><use x="168.96024" xlink:href="#m" y="16.20992"/><use x="172.32001" xlink:href="#k" y="18.49"/><use x="29.04001" xlink:href="#n" y="113.5298"/><use x="37.32009" xlink:href="#o" y="113.5298"/><use x="64.32009" xlink:href="#n" y="113.649722"/><use x="72.60017" xlink:href="#p" y="113.649722"/><use x="107.03997" xlink:href="#q" y="113.5298"/><use x="142.32007" xlink:href="#p" y="113.649722"/><use x="177.60017" xlink:href="#o" y="113.5298"/><use x="98.03997" xlink:href="#f" y="37.3298"/><path d="m98.027344 38.542969h3.839844v.480469h-3.839844zm0 0"/><use x="98.0398" xlink:href="#g" y="44.7701"/></svg>