<svg height="219.7pt" viewBox="0 0 341.16 219.7" width="341.16pt" xmlns="http://www.w3.org/2000/svg" xmlns:xlink="http://www.w3.org/1999/xlink"><clipPath id="a"><path d="m7 204h327v1h-327zm0 0"/></clipPath><clipPath id="b"><path d="m3 216.699219h335.101562v-107.515625h-335.101562zm64.71875-12.164063c0-.691406-.558594-1.25-1.25-1.25s-1.25.558594-1.25 1.25.558594 1.25 1.25 1.25 1.25-.558594 1.25-1.25zm0 0"/></clipPath><clipPath id="c"><path d="m3 216.699219h335.101562v-107.515625h-335.101562zm270.46875-83.417969c0-.691406-.5625-1.25-1.25-1.25-.691406 0-1.25.558594-1.25 1.25s.558594 1.25 1.25 1.25c.6875 0 1.25-.558594 1.25-1.25zm0 0"/></clipPath><clipPath id="d"><path d="m3 216.699219h335.101562v-107.515625h-335.101562zm232.757812-79.105469c0-.691406-.558593-1.25-1.25-1.25-.691406 0-1.25.558594-1.25 1.25s.558594 1.25 1.25 1.25c.691407 0 1.25-.558594 1.25-1.25zm0 0"/></clipPath><clipPath id="e"><path d="m3 216.699219h335.101562v-107.515625h-335.101562zm208.445312-58.875c0-.691407-.558593-1.25-1.25-1.25-.6875 0-1.25.558593-1.25 1.25 0 .6875.5625 1.246093 1.25 1.246093.691407 0 1.25-.558593 1.25-1.246093zm0 0"/></clipPath><clipPath id="f"><path d="m3 216.699219h335.101562v-107.515625h-335.101562zm205.011719-48.382813c0-.691406-.558594-1.25-1.25-1.25-.691407 0-1.25.558594-1.25 1.25 0 .6875.558593 1.25 1.25 1.25.691406 0 1.25-.5625 1.25-1.25zm0 0"/></clipPath><clipPath id="g"><path d="m3 216.699219h335.101562v-107.515625h-335.101562zm177.488281-41.648438c0-.691406-.558593-1.25-1.25-1.25-.6875 0-1.25.558594-1.25 1.25 0 .691407.5625 1.25 1.25 1.25.691407 0 1.25-.558593 1.25-1.25zm0 0"/></clipPath><clipPath id="h"><path d="m3 216.699219h335.101562v-107.515625h-335.101562zm124.15625-23.675781c0-.6875-.558594-1.25-1.25-1.25s-1.25.5625-1.25 1.25c0 .691406.558594 1.25 1.25 1.25s1.25-.558594 1.25-1.25zm0 0"/></clipPath><clipPath id="i"><path d="m3 216.699219h335.101562v-107.515625h-335.101562zm118.894531-18.792969c0-.691406-.558593-1.25-1.25-1.25-.6875 0-1.246093.558594-1.246093 1.25s.558593 1.25 1.246093 1.25c.691407 0 1.25-.558594 1.25-1.25zm0 0"/></clipPath><clipPath id="j"><path d="m333 203h5v3h-5zm0 0"/></clipPath><clipPath id="k"><path d="m3 216.699219h335.101562v-107.515625h-335.101562zm64.71875-12.164063c0-.691406-.558594-1.25-1.25-1.25s-1.25.558594-1.25 1.25.558594 1.25 1.25 1.25 1.25-.558594 1.25-1.25zm0 0"/></clipPath><clipPath id="l"><path d="m3 216.699219h335.101562v-107.515625h-335.101562zm270.46875-83.417969c0-.691406-.5625-1.25-1.25-1.25-.691406 0-1.25.558594-1.25 1.25s.558594 1.25 1.25 1.25c.6875 0 1.25-.558594 1.25-1.25zm0 0"/></clipPath><clipPath id="m"><path d="m3 216.699219h335.101562v-107.515625h-335.101562zm232.757812-79.105469c0-.691406-.558593-1.25-1.25-1.25-.691406 0-1.25.558594-1.25 1.25s.558594 1.25 1.25 1.25c.691407 0 1.25-.558594 1.25-1.25zm0 0"/></clipPath><clipPath id="n"><path d="m3 216.699219h335.101562v-107.515625h-335.101562zm208.445312-58.875c0-.691407-.558593-1.25-1.25-1.25-.6875 0-1.25.558593-1.25 1.25 0 .6875.5625 1.246093 1.25 1.246093.691407 0 1.25-.558593 1.25-1.246093zm0 0"/></clipPath><clipPath id="o"><path d="m3 216.699219h335.101562v-107.515625h-335.101562zm205.011719-48.382813c0-.691406-.558594-1.25-1.25-1.25-.691407 0-1.25.558594-1.25 1.25 0 .6875.558593 1.25 1.25 1.25.691406 0 1.25-.5625 1.25-1.25zm0 0"/></clipPath><clipPath id="p"><path d="m3 216.699219h335.101562v-107.515625h-335.101562zm177.488281-41.648438c0-.691406-.558593-1.25-1.25-1.25-.6875 0-1.25.558594-1.25 1.25 0 .691407.5625 1.25 1.25 1.25.691407 0 1.25-.558593 1.25-1.25zm0 0"/></clipPath><clipPath id="q"><path d="m3 216.699219h335.101562v-107.515625h-335.101562zm124.15625-23.675781c0-.6875-.558594-1.25-1.25-1.25s-1.25.5625-1.25 1.25c0 .691406.558594 1.25 1.25 1.25s1.25-.558594 1.25-1.25zm0 0"/></clipPath><clipPath id="r"><path d="m3 216.699219h335.101562v-107.515625h-335.101562zm118.894531-18.792969c0-.691406-.558593-1.25-1.25-1.25-.6875 0-1.246093.558594-1.246093 1.25s.558593 1.25 1.246093 1.25c.691407 0 1.25-.558594 1.25-1.25zm0 0"/></clipPath><clipPath id="s"><path d="m3 203h5v3h-5zm0 0"/></clipPath><clipPath id="t"><path d="m3 216.699219h335.101562v-107.515625h-335.101562zm64.71875-12.164063c0-.691406-.558594-1.25-1.25-1.25s-1.25.558594-1.25 1.25.558594 1.25 1.25 1.25 1.25-.558594 1.25-1.25zm0 0"/></clipPath><clipPath id="u"><path d="m3 216.699219h335.101562v-107.515625h-335.101562zm270.46875-83.417969c0-.691406-.5625-1.25-1.25-1.25-.691406 0-1.25.558594-1.25 1.25s.558594 1.25 1.25 1.25c.6875 0 1.25-.558594 1.25-1.25zm0 0"/></clipPath><clipPath id="v"><path d="m3 216.699219h335.101562v-107.515625h-335.101562zm232.757812-79.105469c0-.691406-.558593-1.25-1.25-1.25-.691406 0-1.25.558594-1.25 1.25s.558594 1.25 1.25 1.25c.691407 0 1.25-.558594 1.25-1.25zm0 0"/></clipPath><clipPath id="w"><path d="m3 216.699219h335.101562v-107.515625h-335.101562zm208.445312-58.875c0-.691407-.558593-1.25-1.25-1.25-.6875 0-1.25.558593-1.25 1.25 0 .6875.5625 1.246093 1.25 1.246093.691407 0 1.25-.558593 1.25-1.246093zm0 0"/></clipPath><clipPath id="x"><path d="m3 216.699219h335.101562v-107.515625h-335.101562zm205.011719-48.382813c0-.691406-.558594-1.25-1.25-1.25-.691407 0-1.25.558594-1.25 1.25 0 .6875.558593 1.25 1.25 1.25.691406 0 1.25-.5625 1.25-1.25zm0 0"/></clipPath><clipPath id="y"><path d="m3 216.699219h335.101562v-107.515625h-335.101562zm177.488281-41.648438c0-.691406-.558593-1.25-1.25-1.25-.6875 0-1.25.558594-1.25 1.25 0 .691407.5625 1.25 1.25 1.25.691407 0 1.25-.558593 1.25-1.25zm0 0"/></clipPath><clipPath id="z"><path d="m3 216.699219h335.101562v-107.515625h-335.101562zm124.15625-23.675781c0-.6875-.558594-1.25-1.25-1.25s-1.25.5625-1.25 1.25c0 .691406.558594 1.25 1.25 1.25s1.25-.558594 1.25-1.25zm0 0"/></clipPath><clipPath id="A"><path d="m3 216.699219h335.101562v-107.515625h-335.101562zm118.894531-18.792969c0-.691406-.558593-1.25-1.25-1.25-.6875 0-1.246093.558594-1.246093 1.25s.558593 1.25 1.246093 1.25c.691407 0 1.25-.558594 1.25-1.25zm0 0"/></clipPath><clipPath id="B"><path d="m166 128h9v1h-9zm0 0"/></clipPath><clipPath id="C"><path d="m3 216.699219h335.101562v-107.515625h-335.101562zm64.71875-12.164063c0-.691406-.558594-1.25-1.25-1.25s-1.25.558594-1.25 1.25.558594 1.25 1.25 1.25 1.25-.558594 1.25-1.25zm0 0"/></clipPath><clipPath id="D"><path d="m3 216.699219h335.101562v-107.515625h-335.101562zm270.46875-83.417969c0-.691406-.5625-1.25-1.25-1.25-.691406 0-1.25.558594-1.25 1.25s.558594 1.25 1.25 1.25c.6875 0 1.25-.558594 1.25-1.25zm0 0"/></clipPath><clipPath id="E"><path d="m3 216.699219h335.101562v-107.515625h-335.101562zm232.757812-79.105469c0-.691406-.558593-1.25-1.25-1.25-.691406 0-1.25.558594-1.25 1.25s.558594 1.25 1.25 1.25c.691407 0 1.25-.558594 1.25-1.25zm0 0"/></clipPath><clipPath id="F"><path d="m3 216.699219h335.101562v-107.515625h-335.101562zm208.445312-58.875c0-.691407-.558593-1.25-1.25-1.25-.6875 0-1.25.558593-1.25 1.25 0 .6875.5625 1.246093 1.25 1.246093.691407 0 1.25-.558593 1.25-1.246093zm0 0"/></clipPath><clipPath id="G"><path d="m3 216.699219h335.101562v-107.515625h-335.101562zm205.011719-48.382813c0-.691406-.558594-1.25-1.25-1.25-.691407 0-1.25.558594-1.25 1.25 0 .6875.558593 1.25 1.25 1.25.691406 0 1.25-.5625 1.25-1.25zm0 0"/></clipPath><clipPath id="H"><path d="m3 216.699219h335.101562v-107.515625h-335.101562zm177.488281-41.648438c0-.691406-.558593-1.25-1.25-1.25-.6875 0-1.25.558594-1.25 1.25 0 .691407.5625 1.25 1.25 1.25.691407 0 1.25-.558593 1.25-1.25zm0 0"/></clipPath><clipPath id="I"><path d="m3 216.699219h335.101562v-107.515625h-335.101562zm124.15625-23.675781c0-.6875-.558594-1.25-1.25-1.25s-1.25.5625-1.25 1.25c0 .691406.558594 1.25 1.25 1.25s1.25-.558594 1.25-1.25zm0 0"/></clipPath><clipPath id="J"><path d="m3 216.699219h335.101562v-107.515625h-335.101562zm118.894531-18.792969c0-.691406-.558593-1.25-1.25-1.25-.6875 0-1.246093.558594-1.246093 1.25s.558593 1.25 1.246093 1.25c.691407 0 1.25-.558594 1.25-1.25zm0 0"/></clipPath><clipPath id="K"><path d="m170 128h1v77h-1zm0 0"/></clipPath><clipPath id="L"><path d="m3 216.699219h335.101562v-107.515625h-335.101562zm64.71875-12.164063c0-.691406-.558594-1.25-1.25-1.25s-1.25.558594-1.25 1.25.558594 1.25 1.25 1.25 1.25-.558594 1.25-1.25zm0 0"/></clipPath><clipPath id="M"><path d="m3 216.699219h335.101562v-107.515625h-335.101562zm270.46875-83.417969c0-.691406-.5625-1.25-1.25-1.25-.691406 0-1.25.558594-1.25 1.25s.558594 1.25 1.25 1.25c.6875 0 1.25-.558594 1.25-1.25zm0 0"/></clipPath><clipPath id="N"><path d="m3 216.699219h335.101562v-107.515625h-335.101562zm232.757812-79.105469c0-.691406-.558593-1.25-1.25-1.25-.691406 0-1.25.558594-1.25 1.25s.558594 1.25 1.25 1.25c.691407 0 1.25-.558594 1.25-1.25zm0 0"/></clipPath><clipPath id="O"><path d="m3 216.699219h335.101562v-107.515625h-335.101562zm208.445312-58.875c0-.691407-.558593-1.25-1.25-1.25-.6875 0-1.25.558593-1.25 1.25 0 .6875.5625 1.246093 1.25 1.246093.691407 0 1.25-.558593 1.25-1.246093zm0 0"/></clipPath><clipPath id="P"><path d="m3 216.699219h335.101562v-107.515625h-335.101562zm205.011719-48.382813c0-.691406-.558594-1.25-1.25-1.25-.691407 0-1.25.558594-1.25 1.25 0 .6875.558593 1.25 1.25 1.25.691406 0 1.25-.5625 1.25-1.25zm0 0"/></clipPath><clipPath id="Q"><path d="m3 216.699219h335.101562v-107.515625h-335.101562zm177.488281-41.648438c0-.691406-.558593-1.25-1.25-1.25-.6875 0-1.25.558594-1.25 1.25 0 .691407.5625 1.25 1.25 1.25.691407 0 1.25-.558593 1.25-1.25zm0 0"/></clipPath><clipPath id="R"><path d="m3 216.699219h335.101562v-107.515625h-335.101562zm124.15625-23.675781c0-.6875-.558594-1.25-1.25-1.25s-1.25.5625-1.25 1.25c0 .691406.558594 1.25 1.25 1.25s1.25-.558594 1.25-1.25zm0 0"/></clipPath><clipPath id="S"><path d="m3 216.699219h335.101562v-107.515625h-335.101562zm118.894531-18.792969c0-.691406-.558593-1.25-1.25-1.25-.6875 0-1.246093.558594-1.246093 1.25s.558593 1.25 1.246093 1.25c.691407 0 1.25-.558594 1.25-1.25zm0 0"/></clipPath><clipPath id="T"><path d="m18 204h2v3h-2zm0 0"/></clipPath><clipPath id="U"><path d="m3 216.699219h335.101562v-107.515625h-335.101562zm64.71875-12.164063c0-.691406-.558594-1.25-1.25-1.25s-1.25.558594-1.25 1.25.558594 1.25 1.25 1.25 1.25-.558594 1.25-1.25zm0 0"/></clipPath><clipPath id="V"><path d="m3 216.699219h335.101562v-107.515625h-335.101562zm270.46875-83.417969c0-.691406-.5625-1.25-1.25-1.25-.691406 0-1.25.558594-1.25 1.25s.558594 1.25 1.25 1.25c.6875 0 1.25-.558594 1.25-1.25zm0 0"/></clipPath><clipPath id="W"><path d="m3 216.699219h335.101562v-107.515625h-335.101562zm232.757812-79.105469c0-.691406-.558593-1.25-1.25-1.25-.691406 0-1.25.558594-1.25 1.25s.558594 1.25 1.25 1.25c.691407 0 1.25-.558594 1.25-1.25zm0 0"/></clipPath><clipPath id="X"><path d="m3 216.699219h335.101562v-107.515625h-335.101562zm208.445312-58.875c0-.691407-.558593-1.25-1.25-1.25-.6875 0-1.25.558593-1.25 1.25 0 .6875.5625 1.246093 1.25 1.246093.691407 0 1.25-.558593 1.25-1.246093zm0 0"/></clipPath><clipPath id="Y"><path d="m3 216.699219h335.101562v-107.515625h-335.101562zm205.011719-48.382813c0-.691406-.558594-1.25-1.25-1.25-.691407 0-1.25.558594-1.25 1.25 0 .6875.558593 1.25 1.25 1.25.691406 0 1.25-.5625 1.25-1.25zm0 0"/></clipPath><clipPath id="Z"><path d="m3 216.699219h335.101562v-107.515625h-335.101562zm177.488281-41.648438c0-.691406-.558593-1.25-1.25-1.25-.6875 0-1.25.558594-1.25 1.25 0 .691407.5625 1.25 1.25 1.25.691407 0 1.25-.558593 1.25-1.25zm0 0"/></clipPath><clipPath id="aa"><path d="m3 216.699219h335.101562v-107.515625h-335.101562zm124.15625-23.675781c0-.6875-.558594-1.25-1.25-1.25s-1.25.5625-1.25 1.25c0 .691406.558594 1.25 1.25 1.25s1.25-.558594 1.25-1.25zm0 0"/></clipPath><clipPath id="ab"><path d="m3 216.699219h335.101562v-107.515625h-335.101562zm118.894531-18.792969c0-.691406-.558593-1.25-1.25-1.25-.6875 0-1.246093.558594-1.246093 1.25s.558593 1.25 1.246093 1.25c.691407 0 1.25-.558594 1.25-1.25zm0 0"/></clipPath><clipPath id="ac"><path d="m94 204h1v3h-1zm0 0"/></clipPath><clipPath id="ad"><path d="m3 216.699219h335.101562v-107.515625h-335.101562zm64.71875-12.164063c0-.691406-.558594-1.25-1.25-1.25s-1.25.558594-1.25 1.25.558594 1.25 1.25 1.25 1.25-.558594 1.25-1.25zm0 0"/></clipPath><clipPath id="ae"><path d="m3 216.699219h335.101562v-107.515625h-335.101562zm270.46875-83.417969c0-.691406-.5625-1.25-1.25-1.25-.691406 0-1.25.558594-1.25 1.25s.558594 1.25 1.25 1.25c.6875 0 1.25-.558594 1.25-1.25zm0 0"/></clipPath><clipPath id="af"><path d="m3 216.699219h335.101562v-107.515625h-335.101562zm232.757812-79.105469c0-.691406-.558593-1.25-1.25-1.25-.691406 0-1.25.558594-1.25 1.25s.558594 1.25 1.25 1.25c.691407 0 1.25-.558594 1.25-1.25zm0 0"/></clipPath><clipPath id="ag"><path d="m3 216.699219h335.101562v-107.515625h-335.101562zm208.445312-58.875c0-.691407-.558593-1.25-1.25-1.25-.6875 0-1.25.558593-1.25 1.25 0 .6875.5625 1.246093 1.25 1.246093.691407 0 1.25-.558593 1.25-1.246093zm0 0"/></clipPath><clipPath id="ah"><path d="m3 216.699219h335.101562v-107.515625h-335.101562zm205.011719-48.382813c0-.691406-.558594-1.25-1.25-1.25-.691407 0-1.25.558594-1.25 1.25 0 .6875.558593 1.25 1.25 1.25.691406 0 1.25-.5625 1.25-1.25zm0 0"/></clipPath><clipPath id="ai"><path d="m3 216.699219h335.101562v-107.515625h-335.101562zm177.488281-41.648438c0-.691406-.558593-1.25-1.25-1.25-.6875 0-1.25.558594-1.25 1.25 0 .691407.5625 1.25 1.25 1.25.691407 0 1.25-.558593 1.25-1.25zm0 0"/></clipPath><clipPath id="aj"><path d="m3 216.699219h335.101562v-107.515625h-335.101562zm124.15625-23.675781c0-.6875-.558594-1.25-1.25-1.25s-1.25.5625-1.25 1.25c0 .691406.558594 1.25 1.25 1.25s1.25-.558594 1.25-1.25zm0 0"/></clipPath><clipPath id="ak"><path d="m3 216.699219h335.101562v-107.515625h-335.101562zm118.894531-18.792969c0-.691406-.558593-1.25-1.25-1.25-.6875 0-1.246093.558594-1.246093 1.25s.558593 1.25 1.246093 1.25c.691407 0 1.25-.558594 1.25-1.25zm0 0"/></clipPath><clipPath id="al"><path d="m246 204h1v3h-1zm0 0"/></clipPath><clipPath id="am"><path d="m3 216.699219h335.101562v-107.515625h-335.101562zm64.71875-12.164063c0-.691406-.558594-1.25-1.25-1.25s-1.25.558594-1.25 1.25.558594 1.25 1.25 1.25 1.25-.558594 1.25-1.25zm0 0"/></clipPath><clipPath id="an"><path d="m3 216.699219h335.101562v-107.515625h-335.101562zm270.46875-83.417969c0-.691406-.5625-1.25-1.25-1.25-.691406 0-1.25.558594-1.25 1.25s.558594 1.25 1.25 1.25c.6875 0 1.25-.558594 1.25-1.25zm0 0"/></clipPath><clipPath id="ao"><path d="m3 216.699219h335.101562v-107.515625h-335.101562zm232.757812-79.105469c0-.691406-.558593-1.25-1.25-1.25-.691406 0-1.25.558594-1.25 1.25s.558594 1.25 1.25 1.25c.691407 0 1.25-.558594 1.25-1.25zm0 0"/></clipPath><clipPath id="ap"><path d="m3 216.699219h335.101562v-107.515625h-335.101562zm208.445312-58.875c0-.691407-.558593-1.25-1.25-1.25-.6875 0-1.25.558593-1.25 1.25 0 .6875.5625 1.246093 1.25 1.246093.691407 0 1.25-.558593 1.25-1.246093zm0 0"/></clipPath><clipPath id="aq"><path d="m3 216.699219h335.101562v-107.515625h-335.101562zm205.011719-48.382813c0-.691406-.558594-1.25-1.25-1.25-.691407 0-1.25.558594-1.25 1.25 0 .6875.558593 1.25 1.25 1.25.691406 0 1.25-.5625 1.25-1.25zm0 0"/></clipPath><clipPath id="ar"><path d="m3 216.699219h335.101562v-107.515625h-335.101562zm177.488281-41.648438c0-.691406-.558593-1.25-1.25-1.25-.6875 0-1.25.558594-1.25 1.25 0 .691407.5625 1.25 1.25 1.25.691407 0 1.25-.558593 1.25-1.25zm0 0"/></clipPath><clipPath id="as"><path d="m3 216.699219h335.101562v-107.515625h-335.101562zm124.15625-23.675781c0-.6875-.558594-1.25-1.25-1.25s-1.25.5625-1.25 1.25c0 .691406.558594 1.25 1.25 1.25s1.25-.558594 1.25-1.25zm0 0"/></clipPath><clipPath id="at"><path d="m3 216.699219h335.101562v-107.515625h-335.101562zm118.894531-18.792969c0-.691406-.558593-1.25-1.25-1.25-.6875 0-1.246093.558594-1.246093 1.25s.558593 1.25 1.246093 1.25c.691407 0 1.25-.558594 1.25-1.25zm0 0"/></clipPath><clipPath id="au"><path d="m321 204h2v3h-2zm0 0"/></clipPath><clipPath id="av"><path d="m3 216.699219h335.101562v-107.515625h-335.101562zm64.71875-12.164063c0-.691406-.558594-1.25-1.25-1.25s-1.25.558594-1.25 1.25.558594 1.25 1.25 1.25 1.25-.558594 1.25-1.25zm0 0"/></clipPath><clipPath id="aw"><path d="m3 216.699219h335.101562v-107.515625h-335.101562zm270.46875-83.417969c0-.691406-.5625-1.25-1.25-1.25-.691406 0-1.25.558594-1.25 1.25s.558594 1.25 1.25 1.25c.6875 0 1.25-.558594 1.25-1.25zm0 0"/></clipPath><clipPath id="ax"><path d="m3 216.699219h335.101562v-107.515625h-335.101562zm232.757812-79.105469c0-.691406-.558593-1.25-1.25-1.25-.691406 0-1.25.558594-1.25 1.25s.558594 1.25 1.25 1.25c.691407 0 1.25-.558594 1.25-1.25zm0 0"/></clipPath><clipPath id="ay"><path d="m3 216.699219h335.101562v-107.515625h-335.101562zm208.445312-58.875c0-.691407-.558593-1.25-1.25-1.25-.6875 0-1.25.558593-1.25 1.25 0 .6875.5625 1.246093 1.25 1.246093.691407 0 1.25-.558593 1.25-1.246093zm0 0"/></clipPath><clipPath id="az"><path d="m3 216.699219h335.101562v-107.515625h-335.101562zm205.011719-48.382813c0-.691406-.558594-1.25-1.25-1.25-.691407 0-1.25.558594-1.25 1.25 0 .6875.558593 1.25 1.25 1.25.691406 0 1.25-.5625 1.25-1.25zm0 0"/></clipPath><clipPath id="aA"><path d="m3 216.699219h335.101562v-107.515625h-335.101562zm177.488281-41.648438c0-.691406-.558593-1.25-1.25-1.25-.6875 0-1.25.558594-1.25 1.25 0 .691407.5625 1.25 1.25 1.25.691407 0 1.25-.558593 1.25-1.25zm0 0"/></clipPath><clipPath id="aB"><path d="m3 216.699219h335.101562v-107.515625h-335.101562zm124.15625-23.675781c0-.6875-.558594-1.25-1.25-1.25s-1.25.5625-1.25 1.25c0 .691406.558594 1.25 1.25 1.25s1.25-.558594 1.25-1.25zm0 0"/></clipPath><clipPath id="aC"><path d="m3 216.699219h335.101562v-107.515625h-335.101562zm118.894531-18.792969c0-.691406-.558593-1.25-1.25-1.25-.6875 0-1.246093.558594-1.246093 1.25s.558593 1.25 1.246093 1.25c.691407 0 1.25-.558594 1.25-1.25zm0 0"/></clipPath><clipPath id="aD"><path d="m66 197h55v2h-55zm0 0"/></clipPath><clipPath id="aE"><path d="m3 216.699219h335.101562v-107.515625h-335.101562zm64.71875-12.164063c0-.691406-.558594-1.25-1.25-1.25s-1.25.558594-1.25 1.25.558594 1.25 1.25 1.25 1.25-.558594 1.25-1.25zm0 0"/></clipPath><clipPath id="aF"><path d="m3 216.699219h335.101562v-107.515625h-335.101562zm270.46875-83.417969c0-.691406-.5625-1.25-1.25-1.25-.691406 0-1.25.558594-1.25 1.25s.558594 1.25 1.25 1.25c.6875 0 1.25-.558594 1.25-1.25zm0 0"/></clipPath><clipPath id="aG"><path d="m3 216.699219h335.101562v-107.515625h-335.101562zm232.757812-79.105469c0-.691406-.558593-1.25-1.25-1.25-.691406 0-1.25.558594-1.25 1.25s.558594 1.25 1.25 1.25c.691407 0 1.25-.558594 1.25-1.25zm0 0"/></clipPath><clipPath id="aH"><path d="m3 216.699219h335.101562v-107.515625h-335.101562zm208.445312-58.875c0-.691407-.558593-1.25-1.25-1.25-.6875 0-1.25.558593-1.25 1.25 0 .6875.5625 1.246093 1.25 1.246093.691407 0 1.25-.558593 1.25-1.246093zm0 0"/></clipPath><clipPath id="aI"><path d="m3 216.699219h335.101562v-107.515625h-335.101562zm205.011719-48.382813c0-.691406-.558594-1.25-1.25-1.25-.691407 0-1.25.558594-1.25 1.25 0 .6875.558593 1.25 1.25 1.25.691406 0 1.25-.5625 1.25-1.25zm0 0"/></clipPath><clipPath id="aJ"><path d="m3 216.699219h335.101562v-107.515625h-335.101562zm177.488281-41.648438c0-.691406-.558593-1.25-1.25-1.25-.6875 0-1.25.558594-1.25 1.25 0 .691407.5625 1.25 1.25 1.25.691407 0 1.25-.558593 1.25-1.25zm0 0"/></clipPath><clipPath id="aK"><path d="m3 216.699219h335.101562v-107.515625h-335.101562zm124.15625-23.675781c0-.6875-.558594-1.25-1.25-1.25s-1.25.5625-1.25 1.25c0 .691406.558594 1.25 1.25 1.25s1.25-.558594 1.25-1.25zm0 0"/></clipPath><clipPath id="aL"><path d="m3 216.699219h335.101562v-107.515625h-335.101562zm118.894531-18.792969c0-.691406-.558593-1.25-1.25-1.25-.6875 0-1.246093.558594-1.246093 1.25s.558593 1.25 1.246093 1.25c.691407 0 1.25-.558594 1.25-1.25zm0 0"/></clipPath><clipPath id="aM"><path d="m119 196h4v4h-4zm0 0"/></clipPath><clipPath id="aN"><path d="m3 216.699219h335.101562v-107.515625h-335.101562zm64.71875-12.164063c0-.691406-.558594-1.25-1.25-1.25s-1.25.558594-1.25 1.25.558594 1.25 1.25 1.25 1.25-.558594 1.25-1.25zm0 0"/></clipPath><clipPath id="aO"><path d="m3 216.699219h335.101562v-107.515625h-335.101562zm270.46875-83.417969c0-.691406-.5625-1.25-1.25-1.25-.691406 0-1.25.558594-1.25 1.25s.558594 1.25 1.25 1.25c.6875 0 1.25-.558594 1.25-1.25zm0 0"/></clipPath><clipPath id="aP"><path d="m3 216.699219h335.101562v-107.515625h-335.101562zm232.757812-79.105469c0-.691406-.558593-1.25-1.25-1.25-.691406 0-1.25.558594-1.25 1.25s.558594 1.25 1.25 1.25c.691407 0 1.25-.558594 1.25-1.25zm0 0"/></clipPath><clipPath id="aQ"><path d="m3 216.699219h335.101562v-107.515625h-335.101562zm208.445312-58.875c0-.691407-.558593-1.25-1.25-1.25-.6875 0-1.25.558593-1.25 1.25 0 .6875.5625 1.246093 1.25 1.246093.691407 0 1.25-.558593 1.25-1.246093zm0 0"/></clipPath><clipPath id="aR"><path d="m3 216.699219h335.101562v-107.515625h-335.101562zm205.011719-48.382813c0-.691406-.558594-1.25-1.25-1.25-.691407 0-1.25.558594-1.25 1.25 0 .6875.558593 1.25 1.25 1.25.691406 0 1.25-.5625 1.25-1.25zm0 0"/></clipPath><clipPath id="aS"><path d="m3 216.699219h335.101562v-107.515625h-335.101562zm177.488281-41.648438c0-.691406-.558593-1.25-1.25-1.25-.6875 0-1.25.558594-1.25 1.25 0 .691407.5625 1.25 1.25 1.25.691407 0 1.25-.558593 1.25-1.25zm0 0"/></clipPath><clipPath id="aT"><path d="m3 216.699219h335.101562v-107.515625h-335.101562zm124.15625-23.675781c0-.6875-.558594-1.25-1.25-1.25s-1.25.5625-1.25 1.25c0 .691406.558594 1.25 1.25 1.25s1.25-.558594 1.25-1.25zm0 0"/></clipPath><clipPath id="aU"><path d="m120 192h7v2h-7zm0 0"/></clipPath><clipPath id="aV"><path d="m3 216.699219h335.101562v-107.515625h-335.101562zm64.71875-12.164063c0-.691406-.558594-1.25-1.25-1.25s-1.25.558594-1.25 1.25.558594 1.25 1.25 1.25 1.25-.558594 1.25-1.25zm0 0"/></clipPath><clipPath id="aW"><path d="m3 216.699219h335.101562v-107.515625h-335.101562zm270.46875-83.417969c0-.691406-.5625-1.25-1.25-1.25-.691406 0-1.25.558594-1.25 1.25s.558594 1.25 1.25 1.25c.6875 0 1.25-.558594 1.25-1.25zm0 0"/></clipPath><clipPath id="aX"><path d="m3 216.699219h335.101562v-107.515625h-335.101562zm232.757812-79.105469c0-.691406-.558593-1.25-1.25-1.25-.691406 0-1.25.558594-1.25 1.25s.558594 1.25 1.25 1.25c.691407 0 1.25-.558594 1.25-1.25zm0 0"/></clipPath><clipPath id="aY"><path d="m3 216.699219h335.101562v-107.515625h-335.101562zm208.445312-58.875c0-.691407-.558593-1.25-1.25-1.25-.6875 0-1.25.558593-1.25 1.25 0 .6875.5625 1.246093 1.25 1.246093.691407 0 1.25-.558593 1.25-1.246093zm0 0"/></clipPath><clipPath id="aZ"><path d="m3 216.699219h335.101562v-107.515625h-335.101562zm205.011719-48.382813c0-.691406-.558594-1.25-1.25-1.25-.691407 0-1.25.558594-1.25 1.25 0 .6875.558593 1.25 1.25 1.25.691406 0 1.25-.5625 1.25-1.25zm0 0"/></clipPath><clipPath id="a0"><path d="m3 216.699219h335.101562v-107.515625h-335.101562zm177.488281-41.648438c0-.691406-.558593-1.25-1.25-1.25-.6875 0-1.25.558594-1.25 1.25 0 .691407.5625 1.25 1.25 1.25.691407 0 1.25-.558593 1.25-1.25zm0 0"/></clipPath><clipPath id="a1"><path d="m3 216.699219h335.101562v-107.515625h-335.101562zm124.15625-23.675781c0-.6875-.558594-1.25-1.25-1.25s-1.25.5625-1.25 1.25c0 .691406.558594 1.25 1.25 1.25s1.25-.558594 1.25-1.25zm0 0"/></clipPath><clipPath id="a2"><path d="m124 191h4v4h-4zm0 0"/></clipPath><clipPath id="a3"><path d="m3 216.699219h335.101562v-107.515625h-335.101562zm64.71875-12.164063c0-.691406-.558594-1.25-1.25-1.25s-1.25.558594-1.25 1.25.558594 1.25 1.25 1.25 1.25-.558594 1.25-1.25zm0 0"/></clipPath><clipPath id="a4"><path d="m3 216.699219h335.101562v-107.515625h-335.101562zm270.46875-83.417969c0-.691406-.5625-1.25-1.25-1.25-.691406 0-1.25.558594-1.25 1.25s.558594 1.25 1.25 1.25c.6875 0 1.25-.558594 1.25-1.25zm0 0"/></clipPath><clipPath id="a5"><path d="m3 216.699219h335.101562v-107.515625h-335.101562zm232.757812-79.105469c0-.691406-.558593-1.25-1.25-1.25-.691406 0-1.25.558594-1.25 1.25s.558594 1.25 1.25 1.25c.691407 0 1.25-.558594 1.25-1.25zm0 0"/></clipPath><clipPath id="a6"><path d="m3 216.699219h335.101562v-107.515625h-335.101562zm208.445312-58.875c0-.691407-.558593-1.25-1.25-1.25-.6875 0-1.25.558593-1.25 1.25 0 .6875.5625 1.246093 1.25 1.246093.691407 0 1.25-.558593 1.25-1.246093zm0 0"/></clipPath><clipPath id="a7"><path d="m3 216.699219h335.101562v-107.515625h-335.101562zm205.011719-48.382813c0-.691406-.558594-1.25-1.25-1.25-.691407 0-1.25.558594-1.25 1.25 0 .6875.558593 1.25 1.25 1.25.691406 0 1.25-.5625 1.25-1.25zm0 0"/></clipPath><clipPath id="a8"><path d="m3 216.699219h335.101562v-107.515625h-335.101562zm177.488281-41.648438c0-.691406-.558593-1.25-1.25-1.25-.6875 0-1.25.558594-1.25 1.25 0 .691407.5625 1.25 1.25 1.25.691407 0 1.25-.558593 1.25-1.25zm0 0"/></clipPath><clipPath id="a9"><path d="m125 174h55v2h-55zm0 0"/></clipPath><clipPath id="ba"><path d="m3 216.699219h335.101562v-107.515625h-335.101562zm64.71875-12.164063c0-.691406-.558594-1.25-1.25-1.25s-1.25.558594-1.25 1.25.558594 1.25 1.25 1.25 1.25-.558594 1.25-1.25zm0 0"/></clipPath><clipPath id="bb"><path d="m3 216.699219h335.101562v-107.515625h-335.101562zm270.46875-83.417969c0-.691406-.5625-1.25-1.25-1.25-.691406 0-1.25.558594-1.25 1.25s.558594 1.25 1.25 1.25c.6875 0 1.25-.558594 1.25-1.25zm0 0"/></clipPath><clipPath id="bc"><path d="m3 216.699219h335.101562v-107.515625h-335.101562zm232.757812-79.105469c0-.691406-.558593-1.25-1.25-1.25-.691406 0-1.25.558594-1.25 1.25s.558594 1.25 1.25 1.25c.691407 0 1.25-.558594 1.25-1.25zm0 0"/></clipPath><clipPath id="bd"><path d="m3 216.699219h335.101562v-107.515625h-335.101562zm208.445312-58.875c0-.691407-.558593-1.25-1.25-1.25-.6875 0-1.25.558593-1.25 1.25 0 .6875.5625 1.246093 1.25 1.246093.691407 0 1.25-.558593 1.25-1.246093zm0 0"/></clipPath><clipPath id="be"><path d="m3 216.699219h335.101562v-107.515625h-335.101562zm205.011719-48.382813c0-.691406-.558594-1.25-1.25-1.25-.691407 0-1.25.558594-1.25 1.25 0 .6875.558593 1.25 1.25 1.25.691406 0 1.25-.5625 1.25-1.25zm0 0"/></clipPath><clipPath id="bf"><path d="m3 216.699219h335.101562v-107.515625h-335.101562zm177.488281-41.648438c0-.691406-.558593-1.25-1.25-1.25-.6875 0-1.25.558594-1.25 1.25 0 .691407.5625 1.25 1.25 1.25.691407 0 1.25-.558593 1.25-1.25zm0 0"/></clipPath><clipPath id="bg"><path d="m177 173h4v4h-4zm0 0"/></clipPath><clipPath id="bh"><path d="m3 216.699219h335.101562v-107.515625h-335.101562zm64.71875-12.164063c0-.691406-.558594-1.25-1.25-1.25s-1.25.558594-1.25 1.25.558594 1.25 1.25 1.25 1.25-.558594 1.25-1.25zm0 0"/></clipPath><clipPath id="bi"><path d="m3 216.699219h335.101562v-107.515625h-335.101562zm270.46875-83.417969c0-.691406-.5625-1.25-1.25-1.25-.691406 0-1.25.558594-1.25 1.25s.558594 1.25 1.25 1.25c.6875 0 1.25-.558594 1.25-1.25zm0 0"/></clipPath><clipPath id="bj"><path d="m3 216.699219h335.101562v-107.515625h-335.101562zm232.757812-79.105469c0-.691406-.558593-1.25-1.25-1.25-.691406 0-1.25.558594-1.25 1.25s.558594 1.25 1.25 1.25c.691407 0 1.25-.558594 1.25-1.25zm0 0"/></clipPath><clipPath id="bk"><path d="m3 216.699219h335.101562v-107.515625h-335.101562zm208.445312-58.875c0-.691407-.558593-1.25-1.25-1.25-.6875 0-1.25.558593-1.25 1.25 0 .6875.5625 1.246093 1.25 1.246093.691407 0 1.25-.558593 1.25-1.246093zm0 0"/></clipPath><clipPath id="bl"><path d="m3 216.699219h335.101562v-107.515625h-335.101562zm205.011719-48.382813c0-.691406-.558594-1.25-1.25-1.25-.691407 0-1.25.558594-1.25 1.25 0 .6875.558593 1.25 1.25 1.25.691406 0 1.25-.5625 1.25-1.25zm0 0"/></clipPath><clipPath id="bm"><path d="m178 168h30v1h-30zm0 0"/></clipPath><clipPath id="bn"><path d="m3 216.699219h335.101562v-107.515625h-335.101562zm64.71875-12.164063c0-.691406-.558594-1.25-1.25-1.25s-1.25.558594-1.25 1.25.558594 1.25 1.25 1.25 1.25-.558594 1.25-1.25zm0 0"/></clipPath><clipPath id="bo"><path d="m3 216.699219h335.101562v-107.515625h-335.101562zm270.46875-83.417969c0-.691406-.5625-1.25-1.25-1.25-.691406 0-1.25.558594-1.25 1.25s.558594 1.25 1.25 1.25c.6875 0 1.25-.558594 1.25-1.25zm0 0"/></clipPath><clipPath id="bp"><path d="m3 216.699219h335.101562v-107.515625h-335.101562zm232.757812-79.105469c0-.691406-.558593-1.25-1.25-1.25-.691406 0-1.25.558594-1.25 1.25s.558594 1.25 1.25 1.25c.691407 0 1.25-.558594 1.25-1.25zm0 0"/></clipPath><clipPath id="bq"><path d="m3 216.699219h335.101562v-107.515625h-335.101562zm208.445312-58.875c0-.691407-.558593-1.25-1.25-1.25-.6875 0-1.25.558593-1.25 1.25 0 .6875.5625 1.246093 1.25 1.246093.691407 0 1.25-.558593 1.25-1.246093zm0 0"/></clipPath><clipPath id="br"><path d="m3 216.699219h335.101562v-107.515625h-335.101562zm205.011719-48.382813c0-.691406-.558594-1.25-1.25-1.25-.691407 0-1.25.558594-1.25 1.25 0 .6875.558593 1.25 1.25 1.25.691406 0 1.25-.5625 1.25-1.25zm0 0"/></clipPath><clipPath id="bs"><path d="m205 166h4v4h-4zm0 0"/></clipPath><clipPath id="bt"><path d="m3 216.699219h335.101562v-107.515625h-335.101562zm64.71875-12.164063c0-.691406-.558594-1.25-1.25-1.25s-1.25.558594-1.25 1.25.558594 1.25 1.25 1.25 1.25-.558594 1.25-1.25zm0 0"/></clipPath><clipPath id="bu"><path d="m3 216.699219h335.101562v-107.515625h-335.101562zm270.46875-83.417969c0-.691406-.5625-1.25-1.25-1.25-.691406 0-1.25.558594-1.25 1.25s.558594 1.25 1.25 1.25c.6875 0 1.25-.558594 1.25-1.25zm0 0"/></clipPath><clipPath id="bv"><path d="m3 216.699219h335.101562v-107.515625h-335.101562zm232.757812-79.105469c0-.691406-.558593-1.25-1.25-1.25-.691406 0-1.25.558594-1.25 1.25s.558594 1.25 1.25 1.25c.691407 0 1.25-.558594 1.25-1.25zm0 0"/></clipPath><clipPath id="bw"><path d="m3 216.699219h335.101562v-107.515625h-335.101562zm208.445312-58.875c0-.691407-.558593-1.25-1.25-1.25-.6875 0-1.25.558593-1.25 1.25 0 .6875.5625 1.246093 1.25 1.246093.691407 0 1.25-.558593 1.25-1.246093zm0 0"/></clipPath><clipPath id="bx"><path d="m206 157h5v2h-5zm0 0"/></clipPath><clipPath id="by"><path d="m3 216.699219h335.101562v-107.515625h-335.101562zm64.71875-12.164063c0-.691406-.558594-1.25-1.25-1.25s-1.25.558594-1.25 1.25.558594 1.25 1.25 1.25 1.25-.558594 1.25-1.25zm0 0"/></clipPath><clipPath id="bz"><path d="m3 216.699219h335.101562v-107.515625h-335.101562zm270.46875-83.417969c0-.691406-.5625-1.25-1.25-1.25-.691406 0-1.25.558594-1.25 1.25s.558594 1.25 1.25 1.25c.6875 0 1.25-.558594 1.25-1.25zm0 0"/></clipPath><clipPath id="bA"><path d="m3 216.699219h335.101562v-107.515625h-335.101562zm232.757812-79.105469c0-.691406-.558593-1.25-1.25-1.25-.691406 0-1.25.558594-1.25 1.25s.558594 1.25 1.25 1.25c.691407 0 1.25-.558594 1.25-1.25zm0 0"/></clipPath><clipPath id="bB"><path d="m3 216.699219h335.101562v-107.515625h-335.101562zm208.445312-58.875c0-.691407-.558593-1.25-1.25-1.25-.6875 0-1.25.558593-1.25 1.25 0 .6875.5625 1.246093 1.25 1.246093.691407 0 1.25-.558593 1.25-1.246093zm0 0"/></clipPath><clipPath id="bC"><path d="m208 156h4v4h-4zm0 0"/></clipPath><clipPath id="bD"><path d="m3 216.699219h335.101562v-107.515625h-335.101562zm64.71875-12.164063c0-.691406-.558594-1.25-1.25-1.25s-1.25.558594-1.25 1.25.558594 1.25 1.25 1.25 1.25-.558594 1.25-1.25zm0 0"/></clipPath><clipPath id="bE"><path d="m3 216.699219h335.101562v-107.515625h-335.101562zm270.46875-83.417969c0-.691406-.5625-1.25-1.25-1.25-.691406 0-1.25.558594-1.25 1.25s.558594 1.25 1.25 1.25c.6875 0 1.25-.558594 1.25-1.25zm0 0"/></clipPath><clipPath id="bF"><path d="m3 216.699219h335.101562v-107.515625h-335.101562zm232.757812-79.105469c0-.691406-.558593-1.25-1.25-1.25-.691406 0-1.25.558594-1.25 1.25s.558594 1.25 1.25 1.25c.691407 0 1.25-.558594 1.25-1.25zm0 0"/></clipPath><clipPath id="bG"><path d="m209 137h26v1h-26zm0 0"/></clipPath><clipPath id="bH"><path d="m3 216.699219h335.101562v-107.515625h-335.101562zm64.71875-12.164063c0-.691406-.558594-1.25-1.25-1.25s-1.25.558594-1.25 1.25.558594 1.25 1.25 1.25 1.25-.558594 1.25-1.25zm0 0"/></clipPath><clipPath id="bI"><path d="m3 216.699219h335.101562v-107.515625h-335.101562zm270.46875-83.417969c0-.691406-.5625-1.25-1.25-1.25-.691406 0-1.25.558594-1.25 1.25s.558594 1.25 1.25 1.25c.6875 0 1.25-.558594 1.25-1.25zm0 0"/></clipPath><clipPath id="bJ"><path d="m3 216.699219h335.101562v-107.515625h-335.101562zm232.757812-79.105469c0-.691406-.558593-1.25-1.25-1.25-.691406 0-1.25.558594-1.25 1.25s.558594 1.25 1.25 1.25c.691407 0 1.25-.558594 1.25-1.25zm0 0"/></clipPath><clipPath id="bK"><path d="m233 136h4v4h-4zm0 0"/></clipPath><clipPath id="bL"><path d="m3 216.699219h335.101562v-107.515625h-335.101562zm64.71875-12.164063c0-.691406-.558594-1.25-1.25-1.25s-1.25.558594-1.25 1.25.558594 1.25 1.25 1.25 1.25-.558594 1.25-1.25zm0 0"/></clipPath><clipPath id="bM"><path d="m3 216.699219h335.101562v-107.515625h-335.101562zm270.46875-83.417969c0-.691406-.5625-1.25-1.25-1.25-.691406 0-1.25.558594-1.25 1.25s.558594 1.25 1.25 1.25c.6875 0 1.25-.558594 1.25-1.25zm0 0"/></clipPath><clipPath id="bN"><path d="m234 133h39v1h-39zm0 0"/></clipPath><clipPath id="bO"><path d="m3 216.699219h335.101562v-107.515625h-335.101562zm64.71875-12.164063c0-.691406-.558594-1.25-1.25-1.25s-1.25.558594-1.25 1.25.558594 1.25 1.25 1.25 1.25-.558594 1.25-1.25zm0 0"/></clipPath><clipPath id="bP"><path d="m3 216.699219h335.101562v-107.515625h-335.101562zm270.46875-83.417969c0-.691406-.5625-1.25-1.25-1.25-.691406 0-1.25.558594-1.25 1.25s.558594 1.25 1.25 1.25c.6875 0 1.25-.558594 1.25-1.25zm0 0"/></clipPath><clipPath id="bQ"><path d="m270 131h4v4h-4zm0 0"/></clipPath><clipPath id="bR"><path d="m3 216.699219h335.101562v-107.515625h-335.101562zm64.71875-12.164063c0-.691406-.558594-1.25-1.25-1.25s-1.25.558594-1.25 1.25.558594 1.25 1.25 1.25 1.25-.558594 1.25-1.25zm0 0"/></clipPath><clipPath id="bS"><path d="m7 204h60v1h-60zm0 0"/></clipPath><clipPath id="bT"><path d="m3 216.699219h335.101562v-107.515625h-335.101562zm64.71875-12.164063c0-.691406-.558594-1.25-1.25-1.25s-1.25.558594-1.25 1.25.558594 1.25 1.25 1.25 1.25-.558594 1.25-1.25zm0 0"/></clipPath><clipPath id="bU"><path d="m3 203h5v3h-5zm0 0"/></clipPath><clipPath id="bV"><path d="m3 216.699219h335.101562v-107.515625h-335.101562zm64.71875-12.164063c0-.691406-.558594-1.25-1.25-1.25s-1.25.558594-1.25 1.25.558594 1.25 1.25 1.25 1.25-.558594 1.25-1.25zm0 0"/></clipPath><clipPath id="bW"><path d="m176 112h7v9h-7zm0 0"/></clipPath><clipPath id="bX"><path d="m3 216.699219h335.15625v-107.535157h-335.15625zm64.730469-12.167969c0-.6875-.5625-1.25-1.25-1.25-.691407 0-1.25.5625-1.25 1.25 0 .691406.558593 1.25 1.25 1.25.6875 0 1.25-.558594 1.25-1.25zm0 0"/></clipPath><clipPath id="bY"><path d="m3 216.699219h335.15625v-107.535157h-335.15625zm270.511719-83.433594c0-.691406-.558594-1.25-1.25-1.25-.6875 0-1.25.558594-1.25 1.25s.5625 1.25 1.25 1.25c.691406 0 1.25-.558594 1.25-1.25zm0 0"/></clipPath><clipPath id="bZ"><path d="m3 216.699219h335.15625v-107.535157h-335.15625zm232.796875-79.121094c0-.6875-.558594-1.25-1.25-1.25s-1.25.5625-1.25 1.25c0 .691406.558594 1.25 1.25 1.25s1.25-.558594 1.25-1.25zm0 0"/></clipPath><clipPath id="b0"><path d="m3 216.699219h335.15625v-107.535157h-335.15625zm208.480469-58.886719c0-.691406-.558594-1.25-1.25-1.25-.6875 0-1.25.558594-1.25 1.25s.5625 1.25 1.25 1.25c.691406 0 1.25-.558594 1.25-1.25zm0 0"/></clipPath><clipPath id="b1"><path d="m3 216.699219h335.15625v-107.535157h-335.15625zm205.046875-48.394531c0-.6875-.558594-1.25-1.25-1.25s-1.25.5625-1.25 1.25c0 .691406.558594 1.25 1.25 1.25s1.25-.558594 1.25-1.25zm0 0"/></clipPath><clipPath id="b2"><path d="m3 216.699219h335.15625v-107.535157h-335.15625zm177.519531-41.65625c0-.691407-.558593-1.25-1.25-1.25-.691406 0-1.25.558593-1.25 1.25 0 .691406.558594 1.25 1.25 1.25.691407 0 1.25-.558594 1.25-1.25zm0 0"/></clipPath><clipPath id="b3"><path d="m3 216.699219h335.15625v-107.535157h-335.15625zm124.175781-23.679688c0-.691406-.558593-1.25-1.25-1.25-.6875 0-1.25.558594-1.25 1.25 0 .691407.5625 1.25 1.25 1.25.691407 0 1.25-.558593 1.25-1.25zm0 0"/></clipPath><clipPath id="b4"><path d="m3 216.699219h335.15625v-107.535157h-335.15625zm118.917969-18.796875c0-.691406-.5625-1.25-1.25-1.25-.691407 0-1.25.558594-1.25 1.25s.558593 1.25 1.25 1.25c.6875 0 1.25-.558594 1.25-1.25zm0 0"/></clipPath><clipPath id="b5"><path d="m181 116h8v7h-8zm0 0"/></clipPath><clipPath id="b6"><path d="m3 216.699219h335.15625v-107.535157h-335.15625zm64.730469-12.167969c0-.6875-.5625-1.25-1.25-1.25-.691407 0-1.25.5625-1.25 1.25 0 .691406.558593 1.25 1.25 1.25.6875 0 1.25-.558594 1.25-1.25zm0 0"/></clipPath><clipPath id="b7"><path d="m3 216.699219h335.15625v-107.535157h-335.15625zm270.511719-83.433594c0-.691406-.558594-1.25-1.25-1.25-.6875 0-1.25.558594-1.25 1.25s.5625 1.25 1.25 1.25c.691406 0 1.25-.558594 1.25-1.25zm0 0"/></clipPath><clipPath id="b8"><path d="m3 216.699219h335.15625v-107.535157h-335.15625zm232.796875-79.121094c0-.6875-.558594-1.25-1.25-1.25s-1.25.5625-1.25 1.25c0 .691406.558594 1.25 1.25 1.25s1.25-.558594 1.25-1.25zm0 0"/></clipPath><clipPath id="b9"><path d="m3 216.699219h335.15625v-107.535157h-335.15625zm208.480469-58.886719c0-.691406-.558594-1.25-1.25-1.25-.6875 0-1.25.558594-1.25 1.25s.5625 1.25 1.25 1.25c.691406 0 1.25-.558594 1.25-1.25zm0 0"/></clipPath><clipPath id="ca"><path d="m3 216.699219h335.15625v-107.535157h-335.15625zm205.046875-48.394531c0-.6875-.558594-1.25-1.25-1.25s-1.25.5625-1.25 1.25c0 .691406.558594 1.25 1.25 1.25s1.25-.558594 1.25-1.25zm0 0"/></clipPath><clipPath id="cb"><path d="m3 216.699219h335.15625v-107.535157h-335.15625zm177.519531-41.65625c0-.691407-.558593-1.25-1.25-1.25-.691406 0-1.25.558593-1.25 1.25 0 .691406.558594 1.25 1.25 1.25.691407 0 1.25-.558594 1.25-1.25zm0 0"/></clipPath><clipPath id="cc"><path d="m3 216.699219h335.15625v-107.535157h-335.15625zm124.175781-23.679688c0-.691406-.558593-1.25-1.25-1.25-.6875 0-1.25.558594-1.25 1.25 0 .691407.5625 1.25 1.25 1.25.691407 0 1.25-.558593 1.25-1.25zm0 0"/></clipPath><clipPath id="cd"><path d="m3 216.699219h335.15625v-107.535157h-335.15625zm118.917969-18.796875c0-.691406-.5625-1.25-1.25-1.25-.691407 0-1.25.558594-1.25 1.25s.558593 1.25 1.25 1.25c.6875 0 1.25-.558594 1.25-1.25zm0 0"/></clipPath><clipPath id="ce"><path d="m190 111h4v13h-4zm0 0"/></clipPath><clipPath id="cf"><path d="m3 216.699219h335.15625v-107.535157h-335.15625zm64.730469-12.167969c0-.6875-.5625-1.25-1.25-1.25-.691407 0-1.25.5625-1.25 1.25 0 .691406.558593 1.25 1.25 1.25.6875 0 1.25-.558594 1.25-1.25zm0 0"/></clipPath><clipPath id="cg"><path d="m3 216.699219h335.15625v-107.535157h-335.15625zm270.511719-83.433594c0-.691406-.558594-1.25-1.25-1.25-.6875 0-1.25.558594-1.25 1.25s.5625 1.25 1.25 1.25c.691406 0 1.25-.558594 1.25-1.25zm0 0"/></clipPath><clipPath id="ch"><path d="m3 216.699219h335.15625v-107.535157h-335.15625zm232.796875-79.121094c0-.6875-.558594-1.25-1.25-1.25s-1.25.5625-1.25 1.25c0 .691406.558594 1.25 1.25 1.25s1.25-.558594 1.25-1.25zm0 0"/></clipPath><clipPath id="ci"><path d="m3 216.699219h335.15625v-107.535157h-335.15625zm208.480469-58.886719c0-.691406-.558594-1.25-1.25-1.25-.6875 0-1.25.558594-1.25 1.25s.5625 1.25 1.25 1.25c.691406 0 1.25-.558594 1.25-1.25zm0 0"/></clipPath><clipPath id="cj"><path d="m3 216.699219h335.15625v-107.535157h-335.15625zm205.046875-48.394531c0-.6875-.558594-1.25-1.25-1.25s-1.25.5625-1.25 1.25c0 .691406.558594 1.25 1.25 1.25s1.25-.558594 1.25-1.25zm0 0"/></clipPath><clipPath id="ck"><path d="m3 216.699219h335.15625v-107.535157h-335.15625zm177.519531-41.65625c0-.691407-.558593-1.25-1.25-1.25-.691406 0-1.25.558593-1.25 1.25 0 .691406.558594 1.25 1.25 1.25.691407 0 1.25-.558594 1.25-1.25zm0 0"/></clipPath><clipPath id="cl"><path d="m3 216.699219h335.15625v-107.535157h-335.15625zm124.175781-23.679688c0-.691406-.558593-1.25-1.25-1.25-.6875 0-1.25.558594-1.25 1.25 0 .691407.5625 1.25 1.25 1.25.691407 0 1.25-.558593 1.25-1.25zm0 0"/></clipPath><clipPath id="cm"><path d="m3 216.699219h335.15625v-107.535157h-335.15625zm118.917969-18.796875c0-.691406-.5625-1.25-1.25-1.25-.691407 0-1.25.558594-1.25 1.25s.558593 1.25 1.25 1.25c.6875 0 1.25-.558594 1.25-1.25zm0 0"/></clipPath><clipPath id="cn"><path d="m194 114h7v7h-7zm0 0"/></clipPath><clipPath id="co"><path d="m3 216.699219h335.15625v-107.535157h-335.15625zm64.730469-12.167969c0-.6875-.5625-1.25-1.25-1.25-.691407 0-1.25.5625-1.25 1.25 0 .691406.558593 1.25 1.25 1.25.6875 0 1.25-.558594 1.25-1.25zm0 0"/></clipPath><clipPath id="cp"><path d="m3 216.699219h335.15625v-107.535157h-335.15625zm270.511719-83.433594c0-.691406-.558594-1.25-1.25-1.25-.6875 0-1.25.558594-1.25 1.25s.5625 1.25 1.25 1.25c.691406 0 1.25-.558594 1.25-1.25zm0 0"/></clipPath><clipPath id="cq"><path d="m3 216.699219h335.15625v-107.535157h-335.15625zm232.796875-79.121094c0-.6875-.558594-1.25-1.25-1.25s-1.25.5625-1.25 1.25c0 .691406.558594 1.25 1.25 1.25s1.25-.558594 1.25-1.25zm0 0"/></clipPath><clipPath id="cr"><path d="m3 216.699219h335.15625v-107.535157h-335.15625zm208.480469-58.886719c0-.691406-.558594-1.25-1.25-1.25-.6875 0-1.25.558594-1.25 1.25s.5625 1.25 1.25 1.25c.691406 0 1.25-.558594 1.25-1.25zm0 0"/></clipPath><clipPath id="cs"><path d="m3 216.699219h335.15625v-107.535157h-335.15625zm205.046875-48.394531c0-.6875-.558594-1.25-1.25-1.25s-1.25.5625-1.25 1.25c0 .691406.558594 1.25 1.25 1.25s1.25-.558594 1.25-1.25zm0 0"/></clipPath><clipPath id="ct"><path d="m3 216.699219h335.15625v-107.535157h-335.15625zm177.519531-41.65625c0-.691407-.558593-1.25-1.25-1.25-.691406 0-1.25.558593-1.25 1.25 0 .691406.558594 1.25 1.25 1.25.691407 0 1.25-.558594 1.25-1.25zm0 0"/></clipPath><clipPath id="cu"><path d="m3 216.699219h335.15625v-107.535157h-335.15625zm124.175781-23.679688c0-.691406-.558593-1.25-1.25-1.25-.6875 0-1.25.558594-1.25 1.25 0 .691407.5625 1.25 1.25 1.25.691407 0 1.25-.558593 1.25-1.25zm0 0"/></clipPath><clipPath id="cv"><path d="m3 216.699219h335.15625v-107.535157h-335.15625zm118.917969-18.796875c0-.691406-.5625-1.25-1.25-1.25-.691407 0-1.25.558594-1.25 1.25s.558593 1.25 1.25 1.25c.6875 0 1.25-.558594 1.25-1.25zm0 0"/></clipPath><clipPath id="cw"><path d="m201 111h4v13h-4zm0 0"/></clipPath><clipPath id="cx"><path d="m3 216.699219h335.15625v-107.535157h-335.15625zm64.730469-12.167969c0-.6875-.5625-1.25-1.25-1.25-.691407 0-1.25.5625-1.25 1.25 0 .691406.558593 1.25 1.25 1.25.6875 0 1.25-.558594 1.25-1.25zm0 0"/></clipPath><clipPath id="cy"><path d="m3 216.699219h335.15625v-107.535157h-335.15625zm270.511719-83.433594c0-.691406-.558594-1.25-1.25-1.25-.6875 0-1.25.558594-1.25 1.25s.5625 1.25 1.25 1.25c.691406 0 1.25-.558594 1.25-1.25zm0 0"/></clipPath><clipPath id="cz"><path d="m3 216.699219h335.15625v-107.535157h-335.15625zm232.796875-79.121094c0-.6875-.558594-1.25-1.25-1.25s-1.25.5625-1.25 1.25c0 .691406.558594 1.25 1.25 1.25s1.25-.558594 1.25-1.25zm0 0"/></clipPath><clipPath id="cA"><path d="m3 216.699219h335.15625v-107.535157h-335.15625zm208.480469-58.886719c0-.691406-.558594-1.25-1.25-1.25-.6875 0-1.25.558594-1.25 1.25s.5625 1.25 1.25 1.25c.691406 0 1.25-.558594 1.25-1.25zm0 0"/></clipPath><clipPath id="cB"><path d="m3 216.699219h335.15625v-107.535157h-335.15625zm205.046875-48.394531c0-.6875-.558594-1.25-1.25-1.25s-1.25.5625-1.25 1.25c0 .691406.558594 1.25 1.25 1.25s1.25-.558594 1.25-1.25zm0 0"/></clipPath><clipPath id="cC"><path d="m3 216.699219h335.15625v-107.535157h-335.15625zm177.519531-41.65625c0-.691407-.558593-1.25-1.25-1.25-.691406 0-1.25.558593-1.25 1.25 0 .691406.558594 1.25 1.25 1.25.691407 0 1.25-.558594 1.25-1.25zm0 0"/></clipPath><clipPath id="cD"><path d="m3 216.699219h335.15625v-107.535157h-335.15625zm124.175781-23.679688c0-.691406-.558593-1.25-1.25-1.25-.6875 0-1.25.558594-1.25 1.25 0 .691407.5625 1.25 1.25 1.25.691407 0 1.25-.558593 1.25-1.25zm0 0"/></clipPath><clipPath id="cE"><path d="m3 216.699219h335.15625v-107.535157h-335.15625zm118.917969-18.796875c0-.691406-.5625-1.25-1.25-1.25-.691407 0-1.25.558594-1.25 1.25s.558593 1.25 1.25 1.25c.6875 0 1.25-.558594 1.25-1.25zm0 0"/></clipPath><clipPath id="cF"><path d="m159 125h4v7h-4zm0 0"/></clipPath><clipPath id="cG"><path d="m3 216.699219h335.15625v-107.535157h-335.15625zm64.730469-12.167969c0-.6875-.5625-1.25-1.25-1.25-.691407 0-1.25.5625-1.25 1.25 0 .691406.558593 1.25 1.25 1.25.6875 0 1.25-.558594 1.25-1.25zm0 0"/></clipPath><clipPath id="cH"><path d="m3 216.699219h335.15625v-107.535157h-335.15625zm270.511719-83.433594c0-.691406-.558594-1.25-1.25-1.25-.6875 0-1.25.558594-1.25 1.25s.5625 1.25 1.25 1.25c.691406 0 1.25-.558594 1.25-1.25zm0 0"/></clipPath><clipPath id="cI"><path d="m3 216.699219h335.15625v-107.535157h-335.15625zm232.796875-79.121094c0-.6875-.558594-1.25-1.25-1.25s-1.25.5625-1.25 1.25c0 .691406.558594 1.25 1.25 1.25s1.25-.558594 1.25-1.25zm0 0"/></clipPath><clipPath id="cJ"><path d="m3 216.699219h335.15625v-107.535157h-335.15625zm208.480469-58.886719c0-.691406-.558594-1.25-1.25-1.25-.6875 0-1.25.558594-1.25 1.25s.5625 1.25 1.25 1.25c.691406 0 1.25-.558594 1.25-1.25zm0 0"/></clipPath><clipPath id="cK"><path d="m3 216.699219h335.15625v-107.535157h-335.15625zm205.046875-48.394531c0-.6875-.558594-1.25-1.25-1.25s-1.25.5625-1.25 1.25c0 .691406.558594 1.25 1.25 1.25s1.25-.558594 1.25-1.25zm0 0"/></clipPath><clipPath id="cL"><path d="m3 216.699219h335.15625v-107.535157h-335.15625zm177.519531-41.65625c0-.691407-.558593-1.25-1.25-1.25-.691406 0-1.25.558593-1.25 1.25 0 .691406.558594 1.25 1.25 1.25.691407 0 1.25-.558594 1.25-1.25zm0 0"/></clipPath><clipPath id="cM"><path d="m3 216.699219h335.15625v-107.535157h-335.15625zm124.175781-23.679688c0-.691406-.558593-1.25-1.25-1.25-.6875 0-1.25.558594-1.25 1.25 0 .691407.5625 1.25 1.25 1.25.691407 0 1.25-.558593 1.25-1.25zm0 0"/></clipPath><clipPath id="cN"><path d="m3 216.699219h335.15625v-107.535157h-335.15625zm118.917969-18.796875c0-.691406-.5625-1.25-1.25-1.25-.691407 0-1.25.558594-1.25 1.25s.558593 1.25 1.25 1.25c.6875 0 1.25-.558594 1.25-1.25zm0 0"/></clipPath><clipPath id="cO"><path d="m14 212h6v1h-6zm0 0"/></clipPath><clipPath id="cP"><path d="m3 216.699219h335.15625v-107.535157h-335.15625zm64.730469-12.167969c0-.6875-.5625-1.25-1.25-1.25-.691407 0-1.25.5625-1.25 1.25 0 .691406.558593 1.25 1.25 1.25.6875 0 1.25-.558594 1.25-1.25zm0 0"/></clipPath><clipPath id="cQ"><path d="m3 216.699219h335.15625v-107.535157h-335.15625zm270.511719-83.433594c0-.691406-.558594-1.25-1.25-1.25-.6875 0-1.25.558594-1.25 1.25s.5625 1.25 1.25 1.25c.691406 0 1.25-.558594 1.25-1.25zm0 0"/></clipPath><clipPath id="cR"><path d="m3 216.699219h335.15625v-107.535157h-335.15625zm232.796875-79.121094c0-.6875-.558594-1.25-1.25-1.25s-1.25.5625-1.25 1.25c0 .691406.558594 1.25 1.25 1.25s1.25-.558594 1.25-1.25zm0 0"/></clipPath><clipPath id="cS"><path d="m3 216.699219h335.15625v-107.535157h-335.15625zm208.480469-58.886719c0-.691406-.558594-1.25-1.25-1.25-.6875 0-1.25.558594-1.25 1.25s.5625 1.25 1.25 1.25c.691406 0 1.25-.558594 1.25-1.25zm0 0"/></clipPath><clipPath id="cT"><path d="m3 216.699219h335.15625v-107.535157h-335.15625zm205.046875-48.394531c0-.6875-.558594-1.25-1.25-1.25s-1.25.5625-1.25 1.25c0 .691406.558594 1.25 1.25 1.25s1.25-.558594 1.25-1.25zm0 0"/></clipPath><clipPath id="cU"><path d="m3 216.699219h335.15625v-107.535157h-335.15625zm177.519531-41.65625c0-.691407-.558593-1.25-1.25-1.25-.691406 0-1.25.558593-1.25 1.25 0 .691406.558594 1.25 1.25 1.25.691407 0 1.25-.558594 1.25-1.25zm0 0"/></clipPath><clipPath id="cV"><path d="m3 216.699219h335.15625v-107.535157h-335.15625zm124.175781-23.679688c0-.691406-.558593-1.25-1.25-1.25-.6875 0-1.25.558594-1.25 1.25 0 .691407.5625 1.25 1.25 1.25.691407 0 1.25-.558593 1.25-1.25zm0 0"/></clipPath><clipPath id="cW"><path d="m3 216.699219h335.15625v-107.535157h-335.15625zm118.917969-18.796875c0-.691406-.5625-1.25-1.25-1.25-.691407 0-1.25.558594-1.25 1.25s.558593 1.25 1.25 1.25c.6875 0 1.25-.558594 1.25-1.25zm0 0"/></clipPath><clipPath id="cX"><path d="m20 208h5v7h-5zm0 0"/></clipPath><clipPath id="cY"><path d="m3 216.699219h335.15625v-107.535157h-335.15625zm64.730469-12.167969c0-.6875-.5625-1.25-1.25-1.25-.691407 0-1.25.5625-1.25 1.25 0 .691406.558593 1.25 1.25 1.25.6875 0 1.25-.558594 1.25-1.25zm0 0"/></clipPath><clipPath id="cZ"><path d="m3 216.699219h335.15625v-107.535157h-335.15625zm270.511719-83.433594c0-.691406-.558594-1.25-1.25-1.25-.6875 0-1.25.558594-1.25 1.25s.5625 1.25 1.25 1.25c.691406 0 1.25-.558594 1.25-1.25zm0 0"/></clipPath><clipPath id="c0"><path d="m3 216.699219h335.15625v-107.535157h-335.15625zm232.796875-79.121094c0-.6875-.558594-1.25-1.25-1.25s-1.25.5625-1.25 1.25c0 .691406.558594 1.25 1.25 1.25s1.25-.558594 1.25-1.25zm0 0"/></clipPath><clipPath id="c1"><path d="m3 216.699219h335.15625v-107.535157h-335.15625zm208.480469-58.886719c0-.691406-.558594-1.25-1.25-1.25-.6875 0-1.25.558594-1.25 1.25s.5625 1.25 1.25 1.25c.691406 0 1.25-.558594 1.25-1.25zm0 0"/></clipPath><clipPath id="c2"><path d="m3 216.699219h335.15625v-107.535157h-335.15625zm205.046875-48.394531c0-.6875-.558594-1.25-1.25-1.25s-1.25.5625-1.25 1.25c0 .691406.558594 1.25 1.25 1.25s1.25-.558594 1.25-1.25zm0 0"/></clipPath><clipPath id="c3"><path d="m3 216.699219h335.15625v-107.535157h-335.15625zm177.519531-41.65625c0-.691407-.558593-1.25-1.25-1.25-.691406 0-1.25.558593-1.25 1.25 0 .691406.558594 1.25 1.25 1.25.691407 0 1.25-.558594 1.25-1.25zm0 0"/></clipPath><clipPath id="c4"><path d="m3 216.699219h335.15625v-107.535157h-335.15625zm124.175781-23.679688c0-.691406-.558593-1.25-1.25-1.25-.6875 0-1.25.558594-1.25 1.25 0 .691407.5625 1.25 1.25 1.25.691407 0 1.25-.558593 1.25-1.25zm0 0"/></clipPath><clipPath id="c5"><path d="m3 216.699219h335.15625v-107.535157h-335.15625zm118.917969-18.796875c0-.691406-.5625-1.25-1.25-1.25-.691407 0-1.25.558594-1.25 1.25s.558593 1.25 1.25 1.25c.6875 0 1.25-.558594 1.25-1.25zm0 0"/></clipPath><clipPath id="c6"><path d="m90 212h6v1h-6zm0 0"/></clipPath><clipPath id="c7"><path d="m3 216.699219h335.15625v-107.535157h-335.15625zm64.730469-12.167969c0-.6875-.5625-1.25-1.25-1.25-.691407 0-1.25.5625-1.25 1.25 0 .691406.558593 1.25 1.25 1.25.6875 0 1.25-.558594 1.25-1.25zm0 0"/></clipPath><clipPath id="c8"><path d="m3 216.699219h335.15625v-107.535157h-335.15625zm270.511719-83.433594c0-.691406-.558594-1.25-1.25-1.25-.6875 0-1.25.558594-1.25 1.25s.5625 1.25 1.25 1.25c.691406 0 1.25-.558594 1.25-1.25zm0 0"/></clipPath><clipPath id="c9"><path d="m3 216.699219h335.15625v-107.535157h-335.15625zm232.796875-79.121094c0-.6875-.558594-1.25-1.25-1.25s-1.25.5625-1.25 1.25c0 .691406.558594 1.25 1.25 1.25s1.25-.558594 1.25-1.25zm0 0"/></clipPath><clipPath id="da"><path d="m3 216.699219h335.15625v-107.535157h-335.15625zm208.480469-58.886719c0-.691406-.558594-1.25-1.25-1.25-.6875 0-1.25.558594-1.25 1.25s.5625 1.25 1.25 1.25c.691406 0 1.25-.558594 1.25-1.25zm0 0"/></clipPath><clipPath id="db"><path d="m3 216.699219h335.15625v-107.535157h-335.15625zm205.046875-48.394531c0-.6875-.558594-1.25-1.25-1.25s-1.25.5625-1.25 1.25c0 .691406.558594 1.25 1.25 1.25s1.25-.558594 1.25-1.25zm0 0"/></clipPath><clipPath id="dc"><path d="m3 216.699219h335.15625v-107.535157h-335.15625zm177.519531-41.65625c0-.691407-.558593-1.25-1.25-1.25-.691406 0-1.25.558593-1.25 1.25 0 .691406.558594 1.25 1.25 1.25.691407 0 1.25-.558594 1.25-1.25zm0 0"/></clipPath><clipPath id="dd"><path d="m3 216.699219h335.15625v-107.535157h-335.15625zm124.175781-23.679688c0-.691406-.558593-1.25-1.25-1.25-.6875 0-1.25.558594-1.25 1.25 0 .691407.5625 1.25 1.25 1.25.691407 0 1.25-.558593 1.25-1.25zm0 0"/></clipPath><clipPath id="de"><path d="m3 216.699219h335.15625v-107.535157h-335.15625zm118.917969-18.796875c0-.691406-.5625-1.25-1.25-1.25-.691407 0-1.25.558594-1.25 1.25s.558593 1.25 1.25 1.25c.6875 0 1.25-.558594 1.25-1.25zm0 0"/></clipPath><clipPath id="df"><path d="m96 208h4v7h-4zm0 0"/></clipPath><clipPath id="dg"><path d="m3 216.699219h335.15625v-107.535157h-335.15625zm64.730469-12.167969c0-.6875-.5625-1.25-1.25-1.25-.691407 0-1.25.5625-1.25 1.25 0 .691406.558593 1.25 1.25 1.25.6875 0 1.25-.558594 1.25-1.25zm0 0"/></clipPath><clipPath id="dh"><path d="m3 216.699219h335.15625v-107.535157h-335.15625zm270.511719-83.433594c0-.691406-.558594-1.25-1.25-1.25-.6875 0-1.25.558594-1.25 1.25s.5625 1.25 1.25 1.25c.691406 0 1.25-.558594 1.25-1.25zm0 0"/></clipPath><clipPath id="di"><path d="m3 216.699219h335.15625v-107.535157h-335.15625zm232.796875-79.121094c0-.6875-.558594-1.25-1.25-1.25s-1.25.5625-1.25 1.25c0 .691406.558594 1.25 1.25 1.25s1.25-.558594 1.25-1.25zm0 0"/></clipPath><clipPath id="dj"><path d="m3 216.699219h335.15625v-107.535157h-335.15625zm208.480469-58.886719c0-.691406-.558594-1.25-1.25-1.25-.6875 0-1.25.558594-1.25 1.25s.5625 1.25 1.25 1.25c.691406 0 1.25-.558594 1.25-1.25zm0 0"/></clipPath><clipPath id="dk"><path d="m3 216.699219h335.15625v-107.535157h-335.15625zm205.046875-48.394531c0-.6875-.558594-1.25-1.25-1.25s-1.25.5625-1.25 1.25c0 .691406.558594 1.25 1.25 1.25s1.25-.558594 1.25-1.25zm0 0"/></clipPath><clipPath id="dl"><path d="m3 216.699219h335.15625v-107.535157h-335.15625zm177.519531-41.65625c0-.691407-.558593-1.25-1.25-1.25-.691406 0-1.25.558593-1.25 1.25 0 .691406.558594 1.25 1.25 1.25.691407 0 1.25-.558594 1.25-1.25zm0 0"/></clipPath><clipPath id="dm"><path d="m3 216.699219h335.15625v-107.535157h-335.15625zm124.175781-23.679688c0-.691406-.558593-1.25-1.25-1.25-.6875 0-1.25.558594-1.25 1.25 0 .691407.5625 1.25 1.25 1.25.691407 0 1.25-.558593 1.25-1.25zm0 0"/></clipPath><clipPath id="dn"><path d="m3 216.699219h335.15625v-107.535157h-335.15625zm118.917969-18.796875c0-.691406-.5625-1.25-1.25-1.25-.691407 0-1.25.558594-1.25 1.25s.558593 1.25 1.25 1.25c.6875 0 1.25-.558594 1.25-1.25zm0 0"/></clipPath><clipPath id="do"><path d="m244 208h4v7h-4zm0 0"/></clipPath><clipPath id="dp"><path d="m3 216.699219h335.15625v-107.535157h-335.15625zm64.730469-12.167969c0-.6875-.5625-1.25-1.25-1.25-.691407 0-1.25.5625-1.25 1.25 0 .691406.558593 1.25 1.25 1.25.6875 0 1.25-.558594 1.25-1.25zm0 0"/></clipPath><clipPath id="dq"><path d="m3 216.699219h335.15625v-107.535157h-335.15625zm270.511719-83.433594c0-.691406-.558594-1.25-1.25-1.25-.6875 0-1.25.558594-1.25 1.25s.5625 1.25 1.25 1.25c.691406 0 1.25-.558594 1.25-1.25zm0 0"/></clipPath><clipPath id="dr"><path d="m3 216.699219h335.15625v-107.535157h-335.15625zm232.796875-79.121094c0-.6875-.558594-1.25-1.25-1.25s-1.25.5625-1.25 1.25c0 .691406.558594 1.25 1.25 1.25s1.25-.558594 1.25-1.25zm0 0"/></clipPath><clipPath id="ds"><path d="m3 216.699219h335.15625v-107.535157h-335.15625zm208.480469-58.886719c0-.691406-.558594-1.25-1.25-1.25-.6875 0-1.25.558594-1.25 1.25s.5625 1.25 1.25 1.25c.691406 0 1.25-.558594 1.25-1.25zm0 0"/></clipPath><clipPath id="dt"><path d="m3 216.699219h335.15625v-107.535157h-335.15625zm205.046875-48.394531c0-.6875-.558594-1.25-1.25-1.25s-1.25.5625-1.25 1.25c0 .691406.558594 1.25 1.25 1.25s1.25-.558594 1.25-1.25zm0 0"/></clipPath><clipPath id="du"><path d="m3 216.699219h335.15625v-107.535157h-335.15625zm177.519531-41.65625c0-.691407-.558593-1.25-1.25-1.25-.691406 0-1.25.558593-1.25 1.25 0 .691406.558594 1.25 1.25 1.25.691407 0 1.25-.558594 1.25-1.25zm0 0"/></clipPath><clipPath id="dv"><path d="m3 216.699219h335.15625v-107.535157h-335.15625zm124.175781-23.679688c0-.691406-.558593-1.25-1.25-1.25-.6875 0-1.25.558594-1.25 1.25 0 .691407.5625 1.25 1.25 1.25.691407 0 1.25-.558593 1.25-1.25zm0 0"/></clipPath><clipPath id="dw"><path d="m3 216.699219h335.15625v-107.535157h-335.15625zm118.917969-18.796875c0-.691406-.5625-1.25-1.25-1.25-.691407 0-1.25.558594-1.25 1.25s.558593 1.25 1.25 1.25c.6875 0 1.25-.558594 1.25-1.25zm0 0"/></clipPath><clipPath id="dx"><path d="m320 208h5v7h-5zm0 0"/></clipPath><clipPath id="dy"><path d="m3 216.699219h335.15625v-107.535157h-335.15625zm64.730469-12.167969c0-.6875-.5625-1.25-1.25-1.25-.691407 0-1.25.5625-1.25 1.25 0 .691406.558593 1.25 1.25 1.25.6875 0 1.25-.558594 1.25-1.25zm0 0"/></clipPath><clipPath id="dz"><path d="m3 216.699219h335.15625v-107.535157h-335.15625zm270.511719-83.433594c0-.691406-.558594-1.25-1.25-1.25-.6875 0-1.25.558594-1.25 1.25s.5625 1.25 1.25 1.25c.691406 0 1.25-.558594 1.25-1.25zm0 0"/></clipPath><clipPath id="dA"><path d="m3 216.699219h335.15625v-107.535157h-335.15625zm232.796875-79.121094c0-.6875-.558594-1.25-1.25-1.25s-1.25.5625-1.25 1.25c0 .691406.558594 1.25 1.25 1.25s1.25-.558594 1.25-1.25zm0 0"/></clipPath><clipPath id="dB"><path d="m3 216.699219h335.15625v-107.535157h-335.15625zm208.480469-58.886719c0-.691406-.558594-1.25-1.25-1.25-.6875 0-1.25.558594-1.25 1.25s.5625 1.25 1.25 1.25c.691406 0 1.25-.558594 1.25-1.25zm0 0"/></clipPath><clipPath id="dC"><path d="m3 216.699219h335.15625v-107.535157h-335.15625zm205.046875-48.394531c0-.6875-.558594-1.25-1.25-1.25s-1.25.5625-1.25 1.25c0 .691406.558594 1.25 1.25 1.25s1.25-.558594 1.25-1.25zm0 0"/></clipPath><clipPath id="dD"><path d="m3 216.699219h335.15625v-107.535157h-335.15625zm177.519531-41.65625c0-.691407-.558593-1.25-1.25-1.25-.691406 0-1.25.558593-1.25 1.25 0 .691406.558594 1.25 1.25 1.25.691407 0 1.25-.558594 1.25-1.25zm0 0"/></clipPath><clipPath id="dE"><path d="m3 216.699219h335.15625v-107.535157h-335.15625zm124.175781-23.679688c0-.691406-.558593-1.25-1.25-1.25-.6875 0-1.25.558594-1.25 1.25 0 .691407.5625 1.25 1.25 1.25.691407 0 1.25-.558593 1.25-1.25zm0 0"/></clipPath><clipPath id="dF"><path d="m3 216.699219h335.15625v-107.535157h-335.15625zm118.917969-18.796875c0-.691406-.5625-1.25-1.25-1.25-.691407 0-1.25.558594-1.25 1.25s.558593 1.25 1.25 1.25c.6875 0 1.25-.558594 1.25-1.25zm0 0"/></clipPath><symbol id="dG" overflow="visible"><path d="m8.71875-1.234375-.296875.203125c-.359375.234375-.609375.359375-.734375.359375-.078125 0-.15625-.109375-.15625-.234375s.015625-.234375.078125-.484375l.90625-3.546875c.046875-.203125.078125-.390625.078125-.484375 0-.203125-.125-.34375-.3125-.34375-.34375 0-.796875.21875-1.53125.734375-.75.53125-1.171875.953125-1.75 1.78125l.359375-1.640625c.046875-.234375.078125-.421875.078125-.5 0-.234375-.125-.375-.3125-.375-.359375 0-.90625.265625-1.5625.765625-.53125.40625-.765625.65625-1.546875 1.71875l.40625-1.59375c.046875-.1875.0625-.375.0625-.515625 0-.234375-.109375-.375-.265625-.375-.265625 0-.71875.25-1.59375.890625l-.34375.234375.09375.234375.375-.25c.4375-.265625.484375-.296875.5625-.296875.140625 0 .21875.125.21875.296875 0 .609375-.484375 2.921875-.984375 4.625l.03125.140625.828125-.1875.25-1.21875c.296875-1.328125.609375-2.03125 1.265625-2.75.515625-.546875 1.046875-.90625 1.375-.90625.09375 0 .140625.09375.140625.25 0 .421875-.265625 1.78125-.75 3.875l-.203125.796875.0625.140625.828125-.1875.25-1.265625c.1875-.96875.59375-1.875 1.125-2.453125.65625-.734375 1.25-1.15625 1.640625-1.15625.09375 0 .15625.109375.15625.296875 0 .296875-.046875.453125-.296875 1.5-.203125.75-.40625 1.46875-.515625 1.875-.109375.34375-.15625.640625-.15625.90625 0 .296875.125.484375.359375.484375.3125 0 .734375-.25 1.90625-1.125zm0 0"/></symbol><symbol id="dH" overflow="visible"><path d="m.25-1.046875c0 .234375-.015625.390625-.09375.765625-.03125.15625-.03125.1875-.046875.265625.171875.09375.375.140625.515625.140625.390625 0 .859375-.34375 1.234375-.90625l.90625-1.390625.125.828125c.15625 1.015625.4375 1.46875.859375 1.46875.265625 0 .65625-.203125 1.03125-.546875l.578125-.515625-.09375-.234375c-.4375.359375-.734375.53125-.921875.53125s-.34375-.109375-.453125-.34375-.25-.671875-.3125-1.03125l-.203125-1.203125.421875-.578125c.546875-.78125.875-1.0625 1.25-1.0625.1875 0 .328125.109375.390625.28125l.171875-.046875.171875-1.015625c-.140625-.078125-.25-.125-.359375-.125-.46875 0-.953125.4375-1.6875 1.53125l-.453125.65625-.0625-.5625c-.140625-1.1875-.46875-1.625-1.171875-1.625-.3125 0-.578125.09375-.6875.25l-.6875 1 .203125.109375c.359375-.40625.59375-.5625.828125-.5625.390625 0 .65625.484375.859375 1.65625l.125.75-.46875.734375c-.515625.796875-.921875 1.1875-1.265625 1.1875-.171875 0-.3125-.046875-.328125-.109375l-.140625-.34375zm0 0"/></symbol><symbol id="dI" overflow="visible"><path d="m3.421875-7.71875 1.265625-.046875c.734375 0 1.21875.109375 1.234375.28125l.09375 1.0625h.28125c.03125-.75.125-1.359375.25-1.8125-.265625-.03125-.59375-.03125-.796875-.03125h-.484375l-1.984375.03125h-.34375c-.296875 0-.78125-.015625-1.234375-.03125h-.578125l-.03125.328125.65625.03125c.296875 0 .421875.109375.421875.3125 0 .171875-.046875.546875-.109375.90625l-.890625 5.1875c-.203125 1.109375-.203125 1.125-.6875 1.171875l-.4375.03125-.046875.328125h.40625c.484375-.015625.859375-.03125 1.109375-.03125.21875 0 .5625.015625 1.03125.03125h.625l.03125-.328125-.765625-.03125c-.328125-.015625-.421875-.109375-.421875-.359375 0-.0625 0-.203125.015625-.25l.4375-2.65625h1.390625c.328125 0 .6875.015625 1.265625.03125l.3125.015625.234375-.546875-.046875-.078125c-.96875.046875-1.6875.078125-2.625.078125h-.4375l.546875-3.25c.03125-.1875.046875-.25.109375-.375zm0 0"/></symbol><symbol id="dJ" overflow="visible"><path d="m3.734375-.21875v.25c.421875-.015625.828125-.03125 1.203125-.03125.359375 0 .765625.015625 1.203125.03125v-.25l-.234375-.015625c-.359375-.03125-.484375-.09375-.609375-.3125l-1.53125-2.75 1.984375-2.265625c.265625-.296875.34375-.34375.578125-.375l.25-.015625v-.25l-1.015625.03125c-.109375 0-.234375 0-1.03125-.03125v.25l.296875.015625c.28125.015625.40625.0625.40625.171875 0 .09375-.046875.171875-.21875.375l-1.4375 1.765625-.9375-1.796875c-.078125-.15625-.125-.265625-.125-.34375 0-.09375.125-.15625.390625-.171875l.328125-.015625v-.25h-.40625c-.375.015625-.640625.03125-.78125.03125-.15625 0-.421875-.015625-.796875-.03125h-.390625v.25l.21875.015625c.453125.046875.546875.109375.734375.4375l1.3125 2.421875-2.140625 2.53125c-.125.15625-.34375.265625-.546875.296875l-.265625.03125v.25c.453125-.015625.8125-.03125 1.125-.03125.328125 0 .6875.015625 1.078125.03125v-.25l-.296875-.03125c-.34375-.03125-.484375-.09375-.484375-.203125 0-.0625.03125-.140625.078125-.21875l1.640625-2.078125 1.0625 2.03125c.078125.15625.125.28125.125.359375s-.0625.09375-.28125.09375l-.140625.015625zm0 0"/></symbol><symbol id="dK" overflow="visible"><path d="m4.125 2.984375c0-.03125 0-.0625-.21875-.265625-1.546875-1.578125-1.953125-3.921875-1.953125-5.828125 0-2.171875.46875-4.34375 2-5.890625.171875-.15625.171875-.171875.171875-.21875 0-.078125-.046875-.125-.125-.125-.125 0-1.25.84375-1.984375 2.4375-.640625 1.359375-.78125 2.75-.78125 3.796875 0 .96875.140625 2.46875.828125 3.875.734375 1.53125 1.8125 2.34375 1.9375 2.34375.078125 0 .125-.03125.125-.125zm0 0"/></symbol><symbol id="dL" overflow="visible"><path d="m3.59375-3.109375c0-.96875-.125-2.484375-.8125-3.890625-.75-1.53125-1.828125-2.34375-1.953125-2.34375-.0625 0-.125.046875-.125.125 0 .046875 0 .0625.25.296875 1.21875 1.21875 1.921875 3.203125 1.921875 5.8125 0 2.125-.453125 4.3125-2 5.890625-.171875.140625-.171875.171875-.171875.203125 0 .078125.0625.125.125.125.125 0 1.25-.84375 1.984375-2.421875.640625-1.375.78125-2.75.78125-3.796875zm0 0"/></symbol><symbol id="dM" overflow="visible"><path d="m.53125-4.4375h.078125l1.03125-.46875h.03125c.046875 0 .0625.0625.0625.265625v3.875c0 .40625-.09375.5-.515625.53125l-.453125.015625v.25c1.234375-.03125 1.234375-.03125 1.328125-.03125s.28125 0 .546875.015625c.09375 0 .375 0 .703125.015625v-.25l-.421875-.015625c-.4375-.03125-.515625-.125-.515625-.53125v-4.75l-.109375-.03125c-.515625.265625-1.09375.5-1.8125.765625zm0 0"/></symbol><symbol id="dN" overflow="visible"><path d="m.125-.1875v.21875c1.5-.03125 1.5-.03125 1.78125-.03125.296875 0 .296875 0 1.84375.03125-.015625-.171875-.015625-.25-.015625-.375 0-.09375 0-.171875.015625-.359375-.921875.046875-1.296875.0625-2.78125.09375l1.46875-1.546875c.765625-.828125 1.015625-1.265625 1.015625-1.875 0-.90625-.625-1.484375-1.640625-1.484375-.578125 0-.96875.15625-1.359375.5625l-.140625 1.09375h.234375l.09375-.375c.140625-.46875.421875-.65625.953125-.65625.6875 0 1.140625.421875 1.140625 1.109375 0 .59375-.34375 1.1875-1.25 2.15625zm0 0"/></symbol><symbol id="dO" overflow="visible"><path d="m5.5-1.921875c.140625 0 .296875 0 .296875-.15625 0-.171875-.15625-.171875-.296875-.171875h-4.515625c-.140625 0-.296875 0-.296875.171875 0 .15625.15625.15625.296875.15625zm0 0"/></symbol><g stroke-linecap="round" stroke-linejoin="round" stroke-miterlimit="10" transform="matrix(.1 0 0 -.1 0 219.7)"><path d="m3333.515625 1213.09375h-3256.015625" fill="none" stroke="#000" stroke-width="4.99916"/><path d="m3373.515625 1213.09375-40 10.742188v-21.445313zm0 0" stroke="#000" stroke-width="4.99916"/><path d="m37.5 1213.09375 40-10.703125v21.445313zm0 0" stroke="#000" stroke-width="4.99916"/><g fill="none"><path d="m1743.007812 1971.296875h-75" stroke="#000" stroke-width="4.99916"/><path d="m1705.507812 1213.09375v758.203125" stroke="#000" stroke-width="4.99916"/><path d="m664.6875 1213.09375v66.289062" stroke="#20b2aa" stroke-opacity=".5" stroke-width="9.99831"/><path d="m1206.445312 1213.09375v48.828125" stroke="#20b2aa" stroke-opacity=".5" stroke-width="9.99831"/><path d="m1259.0625 1213.09375v179.765625" stroke="#20b2aa" stroke-opacity=".5" stroke-width="9.99831"/><path d="m1792.382812 1213.09375v67.382812" stroke="#20b2aa" stroke-opacity=".5" stroke-width="9.99831"/><path d="m2067.617188 1213.09375v104.960938" stroke="#20b2aa" stroke-opacity=".5" stroke-width="9.99831"/><path d="m2101.953125 1213.09375v202.304688" stroke="#20b2aa" stroke-opacity=".5" stroke-width="9.99831"/><path d="m2345.078125 1213.09375v43.125" stroke="#20b2aa" stroke-opacity=".5" stroke-width="9.99831"/><path d="m2722.1875 1213.09375v45.664062" stroke="#20b2aa" stroke-opacity=".5" stroke-width="9.99831"/><path d="m189.140625 1213.09375v-18.945312" stroke="#000" stroke-width="4.99916"/><path d="m947.304688 1213.09375v-18.945312" stroke="#000" stroke-width="4.99916"/><path d="m2463.671875 1213.09375v-18.945312" stroke="#000" stroke-width="4.99916"/><path d="m3221.875 1213.09375v-18.945312" stroke="#000" stroke-width="4.99916"/></g></g><g clip-path="url(#a)"><g clip-path="url(#b)" clip-rule="evenodd"><g clip-path="url(#c)" clip-rule="evenodd"><g clip-path="url(#d)" clip-rule="evenodd"><g clip-path="url(#e)" clip-rule="evenodd"><g clip-path="url(#f)" clip-rule="evenodd"><g clip-path="url(#g)" clip-rule="evenodd"><g clip-path="url(#h)" clip-rule="evenodd"><g clip-path="url(#i)" clip-rule="evenodd"><path d="m3333.515625 151.648438h-3256.015625" style="fill:none;stroke-width:4.99916;stroke-linecap:round;stroke-linejoin:round;stroke:#000;stroke-miterlimit:10" transform="matrix(.1 0 0 -.1 0 219.7)"/></g></g></g></g></g></g></g></g></g><g clip-path="url(#j)"><g clip-path="url(#k)" clip-rule="evenodd"><g clip-path="url(#l)" clip-rule="evenodd"><g clip-path="url(#m)" clip-rule="evenodd"><g clip-path="url(#n)" clip-rule="evenodd"><g clip-path="url(#o)" clip-rule="evenodd"><g clip-path="url(#p)" clip-rule="evenodd"><g clip-path="url(#q)" clip-rule="evenodd"><g clip-path="url(#r)" clip-rule="evenodd"><path d="m3373.515625 151.648438-40 10.703124v-21.40625zm0 0" stroke="#000" stroke-linecap="round" stroke-linejoin="round" stroke-miterlimit="10" stroke-width="4.99916" transform="matrix(.1 0 0 -.1 0 219.7)"/></g></g></g></g></g></g></g></g></g><g clip-path="url(#s)"><g clip-path="url(#t)" clip-rule="evenodd"><g clip-path="url(#u)" clip-rule="evenodd"><g clip-path="url(#v)" clip-rule="evenodd"><g clip-path="url(#w)" clip-rule="evenodd"><g clip-path="url(#x)" clip-rule="evenodd"><g clip-path="url(#y)" clip-rule="evenodd"><g clip-path="url(#z)" clip-rule="evenodd"><g clip-path="url(#A)" clip-rule="evenodd"><path d="m37.5 151.648438 40-10.703126v21.40625zm0 0" stroke="#000" stroke-linecap="round" stroke-linejoin="round" stroke-miterlimit="10" stroke-width="4.99916" transform="matrix(.1 0 0 -.1 0 219.7)"/></g></g></g></g></g></g></g></g></g><g clip-path="url(#B)"><g clip-path="url(#C)" clip-rule="evenodd"><g clip-path="url(#D)" clip-rule="evenodd"><g clip-path="url(#E)" clip-rule="evenodd"><g clip-path="url(#F)" clip-rule="evenodd"><g clip-path="url(#G)" clip-rule="evenodd"><g clip-path="url(#H)" clip-rule="evenodd"><g clip-path="url(#I)" clip-rule="evenodd"><g clip-path="url(#J)" clip-rule="evenodd"><path d="m1743.007812 909.851562h-75" style="fill:none;stroke-width:4.99916;stroke-linecap:round;stroke-linejoin:round;stroke:#000;stroke-miterlimit:10" transform="matrix(.1 0 0 -.1 0 219.7)"/></g></g></g></g></g></g></g></g></g><g clip-path="url(#K)"><g clip-path="url(#L)" clip-rule="evenodd"><g clip-path="url(#M)" clip-rule="evenodd"><g clip-path="url(#N)" clip-rule="evenodd"><g clip-path="url(#O)" clip-rule="evenodd"><g clip-path="url(#P)" clip-rule="evenodd"><g clip-path="url(#Q)" clip-rule="evenodd"><g clip-path="url(#R)" clip-rule="evenodd"><g clip-path="url(#S)" clip-rule="evenodd"><path d="m1705.507812 151.648438v758.203124" style="fill:none;stroke-width:4.99916;stroke-linecap:round;stroke-linejoin:round;stroke:#000;stroke-miterlimit:10" transform="matrix(.1 0 0 -.1 0 219.7)"/></g></g></g></g></g></g></g></g></g><g clip-path="url(#T)"><g clip-path="url(#U)" clip-rule="evenodd"><g clip-path="url(#V)" clip-rule="evenodd"><g clip-path="url(#W)" clip-rule="evenodd"><g clip-path="url(#X)" clip-rule="evenodd"><g clip-path="url(#Y)" clip-rule="evenodd"><g clip-path="url(#Z)" clip-rule="evenodd"><g clip-path="url(#aa)" clip-rule="evenodd"><g clip-path="url(#ab)" clip-rule="evenodd"><path d="m189.140625 151.648438v-18.945313" style="fill:none;stroke-width:4.99916;stroke-linecap:round;stroke-linejoin:round;stroke:#000;stroke-miterlimit:10" transform="matrix(.1 0 0 -.1 0 219.7)"/></g></g></g></g></g></g></g></g></g><g clip-path="url(#ac)"><g clip-path="url(#ad)" clip-rule="evenodd"><g clip-path="url(#ae)" clip-rule="evenodd"><g clip-path="url(#af)" clip-rule="evenodd"><g clip-path="url(#ag)" clip-rule="evenodd"><g clip-path="url(#ah)" clip-rule="evenodd"><g clip-path="url(#ai)" clip-rule="evenodd"><g clip-path="url(#aj)" clip-rule="evenodd"><g clip-path="url(#ak)" clip-rule="evenodd"><path d="m947.304688 151.648438v-18.945313" style="fill:none;stroke-width:4.99916;stroke-linecap:round;stroke-linejoin:round;stroke:#000;stroke-miterlimit:10" transform="matrix(.1 0 0 -.1 0 219.7)"/></g></g></g></g></g></g></g></g></g><g clip-path="url(#al)"><g clip-path="url(#am)" clip-rule="evenodd"><g clip-path="url(#an)" clip-rule="evenodd"><g clip-path="url(#ao)" clip-rule="evenodd"><g clip-path="url(#ap)" clip-rule="evenodd"><g clip-path="url(#aq)" clip-rule="evenodd"><g clip-path="url(#ar)" clip-rule="evenodd"><g clip-path="url(#as)" clip-rule="evenodd"><g clip-path="url(#at)" clip-rule="evenodd"><path d="m2463.671875 151.648438v-18.945313" style="fill:none;stroke-width:4.99916;stroke-linecap:round;stroke-linejoin:round;stroke:#000;stroke-miterlimit:10" transform="matrix(.1 0 0 -.1 0 219.7)"/></g></g></g></g></g></g></g></g></g><g clip-path="url(#au)"><g clip-path="url(#av)" clip-rule="evenodd"><g clip-path="url(#aw)" clip-rule="evenodd"><g clip-path="url(#ax)" clip-rule="evenodd"><g clip-path="url(#ay)" clip-rule="evenodd"><g clip-path="url(#az)" clip-rule="evenodd"><g clip-path="url(#aA)" clip-rule="evenodd"><g clip-path="url(#aB)" clip-rule="evenodd"><g clip-path="url(#aC)" clip-rule="evenodd"><path d="m3221.875 151.648438v-18.945313" style="fill:none;stroke-width:4.99916;stroke-linecap:round;stroke-linejoin:round;stroke:#000;stroke-miterlimit:10" transform="matrix(.1 0 0 -.1 0 219.7)"/></g></g></g></g></g></g></g></g></g><g clip-path="url(#aD)"><g clip-path="url(#aE)" clip-rule="evenodd"><g clip-path="url(#aF)" clip-rule="evenodd"><g clip-path="url(#aG)" clip-rule="evenodd"><g clip-path="url(#aH)" clip-rule="evenodd"><g clip-path="url(#aI)" clip-rule="evenodd"><g clip-path="url(#aJ)" clip-rule="evenodd"><g clip-path="url(#aK)" clip-rule="evenodd"><g clip-path="url(#aL)" clip-rule="evenodd"><path d="m664.6875 217.9375h541.757812" style="fill:none;stroke-width:4.99916;stroke-linecap:round;stroke-linejoin:round;stroke:#191970;stroke-miterlimit:10" transform="matrix(.1 0 0 -.1 0 219.7)"/></g></g></g></g></g></g></g></g></g><g clip-path="url(#aM)"><g clip-path="url(#aN)" clip-rule="evenodd"><g clip-path="url(#aO)" clip-rule="evenodd"><g clip-path="url(#aP)" clip-rule="evenodd"><g clip-path="url(#aQ)" clip-rule="evenodd"><g clip-path="url(#aR)" clip-rule="evenodd"><g clip-path="url(#aS)" clip-rule="evenodd"><g clip-path="url(#aT)" clip-rule="evenodd"><path d="m1218.945312 217.9375c0 6.914062-5.585937 12.5-12.5 12.5-6.875 0-12.460937-5.585938-12.460937-12.5s5.585937-12.5 12.460937-12.5c6.914063 0 12.5 5.585938 12.5 12.5zm0 0" style="fill:none;stroke-width:4.99916;stroke-linecap:round;stroke-linejoin:round;stroke:#191970;stroke-miterlimit:10" transform="matrix(.1 0 0 -.1 0 219.7)"/></g></g></g></g></g></g></g></g><g clip-path="url(#aU)"><g clip-path="url(#aV)" clip-rule="evenodd"><g clip-path="url(#aW)" clip-rule="evenodd"><g clip-path="url(#aX)" clip-rule="evenodd"><g clip-path="url(#aY)" clip-rule="evenodd"><g clip-path="url(#aZ)" clip-rule="evenodd"><g clip-path="url(#a0)" clip-rule="evenodd"><g clip-path="url(#a1)" clip-rule="evenodd"><path d="m1206.445312 266.765625h52.617188" style="fill:none;stroke-width:4.99916;stroke-linecap:round;stroke-linejoin:round;stroke:#191970;stroke-miterlimit:10" transform="matrix(.1 0 0 -.1 0 219.7)"/></g></g></g></g></g></g></g></g><g clip-path="url(#a2)"><g clip-path="url(#a3)" clip-rule="evenodd"><g clip-path="url(#a4)" clip-rule="evenodd"><g clip-path="url(#a5)" clip-rule="evenodd"><g clip-path="url(#a6)" clip-rule="evenodd"><g clip-path="url(#a7)" clip-rule="evenodd"><g clip-path="url(#a8)" clip-rule="evenodd"><path d="m1271.5625 266.765625c0 6.875-5.585938 12.5-12.5 12.5s-12.5-5.625-12.5-12.5c0-6.914063 5.585938-12.5 12.5-12.5s12.5 5.585937 12.5 12.5zm0 0" style="fill:none;stroke-width:4.99916;stroke-linecap:round;stroke-linejoin:round;stroke:#191970;stroke-miterlimit:10" transform="matrix(.1 0 0 -.1 0 219.7)"/></g></g></g></g></g></g></g><g clip-path="url(#a9)"><g clip-path="url(#ba)" clip-rule="evenodd"><g clip-path="url(#bb)" clip-rule="evenodd"><g clip-path="url(#bc)" clip-rule="evenodd"><g clip-path="url(#bd)" clip-rule="evenodd"><g clip-path="url(#be)" clip-rule="evenodd"><g clip-path="url(#bf)" clip-rule="evenodd"><path d="m1259.0625 446.492188h533.320312" style="fill:none;stroke-width:4.99916;stroke-linecap:round;stroke-linejoin:round;stroke:#191970;stroke-miterlimit:10" transform="matrix(.1 0 0 -.1 0 219.7)"/></g></g></g></g></g></g></g><g clip-path="url(#bg)"><g clip-path="url(#bh)" clip-rule="evenodd"><g clip-path="url(#bi)" clip-rule="evenodd"><g clip-path="url(#bj)" clip-rule="evenodd"><g clip-path="url(#bk)" clip-rule="evenodd"><g clip-path="url(#bl)" clip-rule="evenodd"><path d="m1804.882812 446.492188c0 6.914062-5.585937 12.5-12.5 12.5-6.875 0-12.5-5.585938-12.5-12.5 0-6.914063 5.625-12.5 12.5-12.5 6.914063 0 12.5 5.585937 12.5 12.5zm0 0" style="fill:none;stroke-width:4.99916;stroke-linecap:round;stroke-linejoin:round;stroke:#191970;stroke-miterlimit:10" transform="matrix(.1 0 0 -.1 0 219.7)"/></g></g></g></g></g></g><g clip-path="url(#bm)"><g clip-path="url(#bn)" clip-rule="evenodd"><g clip-path="url(#bo)" clip-rule="evenodd"><g clip-path="url(#bp)" clip-rule="evenodd"><g clip-path="url(#bq)" clip-rule="evenodd"><g clip-path="url(#br)" clip-rule="evenodd"><path d="m1792.382812 513.835938h275.234376" style="fill:none;stroke-width:4.99916;stroke-linecap:round;stroke-linejoin:round;stroke:#191970;stroke-miterlimit:10" transform="matrix(.1 0 0 -.1 0 219.7)"/></g></g></g></g></g></g><g clip-path="url(#bs)"><g clip-path="url(#bt)" clip-rule="evenodd"><g clip-path="url(#bu)" clip-rule="evenodd"><g clip-path="url(#bv)" clip-rule="evenodd"><g clip-path="url(#bw)" clip-rule="evenodd"><path d="m2080.117188 513.835938c0 6.914062-5.585938 12.5-12.5 12.5-6.914063 0-12.5-5.585938-12.5-12.5 0-6.875 5.585937-12.5 12.5-12.5 6.914062 0 12.5 5.625 12.5 12.5zm0 0" style="fill:none;stroke-width:4.99916;stroke-linecap:round;stroke-linejoin:round;stroke:#191970;stroke-miterlimit:10" transform="matrix(.1 0 0 -.1 0 219.7)"/></g></g></g></g></g><g clip-path="url(#bx)"><g clip-path="url(#by)" clip-rule="evenodd"><g clip-path="url(#bz)" clip-rule="evenodd"><g clip-path="url(#bA)" clip-rule="evenodd"><g clip-path="url(#bB)" clip-rule="evenodd"><path d="m2067.617188 618.757812h34.335937" style="fill:none;stroke-width:4.99916;stroke-linecap:round;stroke-linejoin:round;stroke:#191970;stroke-miterlimit:10" transform="matrix(.1 0 0 -.1 0 219.7)"/></g></g></g></g></g><g clip-path="url(#bC)"><g clip-path="url(#bD)" clip-rule="evenodd"><g clip-path="url(#bE)" clip-rule="evenodd"><g clip-path="url(#bF)" clip-rule="evenodd"><path d="m2114.453125 618.757812c0 6.914063-5.585937 12.5-12.5 12.5-6.875 0-12.5-5.585937-12.5-12.5 0-6.875 5.625-12.460937 12.5-12.460937 6.914063 0 12.5 5.585937 12.5 12.460937zm0 0" style="fill:none;stroke-width:4.99916;stroke-linecap:round;stroke-linejoin:round;stroke:#191970;stroke-miterlimit:10" transform="matrix(.1 0 0 -.1 0 219.7)"/></g></g></g></g><g clip-path="url(#bG)"><g clip-path="url(#bH)" clip-rule="evenodd"><g clip-path="url(#bI)" clip-rule="evenodd"><g clip-path="url(#bJ)" clip-rule="evenodd"><path d="m2101.953125 821.0625h243.125" style="fill:none;stroke-width:4.99916;stroke-linecap:round;stroke-linejoin:round;stroke:#191970;stroke-miterlimit:10" transform="matrix(.1 0 0 -.1 0 219.7)"/></g></g></g></g><g clip-path="url(#bK)"><g clip-path="url(#bL)" clip-rule="evenodd"><g clip-path="url(#bM)" clip-rule="evenodd"><path d="m2357.578125 821.0625c0 6.914062-5.585937 12.5-12.5 12.5s-12.5-5.585938-12.5-12.5 5.585937-12.5 12.5-12.5 12.5 5.585938 12.5 12.5zm0 0" style="fill:none;stroke-width:4.99916;stroke-linecap:round;stroke-linejoin:round;stroke:#191970;stroke-miterlimit:10" transform="matrix(.1 0 0 -.1 0 219.7)"/></g></g></g><g clip-path="url(#bN)"><g clip-path="url(#bO)" clip-rule="evenodd"><g clip-path="url(#bP)" clip-rule="evenodd"><path d="m2345.078125 864.1875h377.109375" style="fill:none;stroke-width:4.99916;stroke-linecap:round;stroke-linejoin:round;stroke:#191970;stroke-miterlimit:10" transform="matrix(.1 0 0 -.1 0 219.7)"/></g></g></g><g clip-path="url(#bQ)"><g clip-path="url(#bR)" clip-rule="evenodd"><path d="m2734.6875 864.1875c0 6.914062-5.625 12.5-12.5 12.5-6.914062 0-12.5-5.585938-12.5-12.5s5.585938-12.5 12.5-12.5c6.875 0 12.5 5.585938 12.5 12.5zm0 0" style="fill:none;stroke-width:4.99916;stroke-linecap:round;stroke-linejoin:round;stroke:#191970;stroke-miterlimit:10" transform="matrix(.1 0 0 -.1 0 219.7)"/></g></g><g clip-path="url(#bS)"><g clip-path="url(#bT)" clip-rule="evenodd"><path d="m77.5 151.648438h587.1875" style="fill:none;stroke-width:4.99916;stroke-linecap:round;stroke-linejoin:round;stroke:#191970;stroke-miterlimit:10" transform="matrix(.1 0 0 -.1 0 219.7)"/></g></g><g clip-path="url(#bU)"><g clip-path="url(#bV)" clip-rule="evenodd"><path d="m37.5 151.648438 40-10.703126v21.40625zm0 0" style="fill:#191970;stroke-width:4.99916;stroke-linecap:round;stroke-linejoin:round;stroke:#191970;stroke-miterlimit:10" transform="matrix(.1 0 0 -.1 0 219.7)"/></g></g><path d="m677.1875 151.648438c0 6.914062-5.585938 12.5-12.5 12.5s-12.5-5.585938-12.5-12.5c0-6.914063 5.585938-12.5 12.5-12.5s12.5 5.585937 12.5 12.5zm0 0" style="fill:none;stroke-width:4.99916;stroke-linecap:round;stroke-linejoin:round;stroke:#191970;stroke-miterlimit:10" transform="matrix(.1 0 0 -.1 0 219.7)"/><path d="m3212.890625 909.851562h-490.703125" style="fill:none;stroke-width:4.99916;stroke-linecap:round;stroke-linejoin:round;stroke:#191970;stroke-miterlimit:10" transform="matrix(.1 0 0 -.1 0 219.7)"/><path d="m3252.890625 909.851562-40 10.703126v-21.445313zm0 0" style="fill:#191970;stroke-width:4.99916;stroke-linecap:round;stroke-linejoin:round;stroke:#191970;stroke-miterlimit:10" transform="matrix(.1 0 0 -.1 0 219.7)"/><g fill="#20b2aa"><use x="175.8" xlink:href="#dG" y="14.38"/><use x="185.51992" xlink:href="#dJ" y="16.41984"/><use x="192.96015" xlink:href="#dK" y="14.38"/><use x="198.24023" xlink:href="#dH" y="14.38"/><use x="204.60039" xlink:href="#dL" y="14.38"/></g><use x="159.36" xlink:href="#dM" y="25.3"/><use x="13.68" xlink:href="#dO" y="108.1"/><use x="20.28" xlink:href="#dN" y="108.1"/><use x="89.5198" xlink:href="#dO" y="108.219922"/><use x="96.1198" xlink:href="#dM" y="108.219922"/><use x="244.4398" xlink:href="#dM" y="108.219922"/><use x="320.28" xlink:href="#dN" y="108.1"/><g clip-path="url(#bW)"><g clip-path="url(#bX)" clip-rule="evenodd"><g clip-path="url(#bY)" clip-rule="evenodd"><g clip-path="url(#bZ)" clip-rule="evenodd"><g clip-path="url(#b0)" clip-rule="evenodd"><g clip-path="url(#b1)" clip-rule="evenodd"><g clip-path="url(#b2)" clip-rule="evenodd"><g clip-path="url(#b3)" clip-rule="evenodd"><g clip-path="url(#b4)" clip-rule="evenodd"><use fill="#191970" x="176.04" xlink:href="#dI" y="120.4598"/></g></g></g></g></g></g></g></g></g><g clip-path="url(#b5)"><g clip-path="url(#b6)" clip-rule="evenodd"><g clip-path="url(#b7)" clip-rule="evenodd"><g clip-path="url(#b8)" clip-rule="evenodd"><g clip-path="url(#b9)" clip-rule="evenodd"><g clip-path="url(#ca)" clip-rule="evenodd"><g clip-path="url(#cb)" clip-rule="evenodd"><g clip-path="url(#cc)" clip-rule="evenodd"><g clip-path="url(#cd)" clip-rule="evenodd"><use fill="#191970" x="181.80016" xlink:href="#dJ" y="122.61996"/></g></g></g></g></g></g></g></g></g><g clip-path="url(#ce)"><g clip-path="url(#cf)" clip-rule="evenodd"><g clip-path="url(#cg)" clip-rule="evenodd"><g clip-path="url(#ch)" clip-rule="evenodd"><g clip-path="url(#ci)" clip-rule="evenodd"><g clip-path="url(#cj)" clip-rule="evenodd"><g clip-path="url(#ck)" clip-rule="evenodd"><g clip-path="url(#cl)" clip-rule="evenodd"><g clip-path="url(#cm)" clip-rule="evenodd"><use fill="#191970" x="189.36032" xlink:href="#dK" y="120.4598"/></g></g></g></g></g></g></g></g></g><g clip-path="url(#cn)"><g clip-path="url(#co)" clip-rule="evenodd"><g clip-path="url(#cp)" clip-rule="evenodd"><g clip-path="url(#cq)" clip-rule="evenodd"><g clip-path="url(#cr)" clip-rule="evenodd"><g clip-path="url(#cs)" clip-rule="evenodd"><g clip-path="url(#ct)" clip-rule="evenodd"><g clip-path="url(#cu)" clip-rule="evenodd"><g clip-path="url(#cv)" clip-rule="evenodd"><use fill="#191970" x="194.6404" xlink:href="#dH" y="120.4598"/></g></g></g></g></g></g></g></g></g><g clip-path="url(#cw)"><g clip-path="url(#cx)" clip-rule="evenodd"><g clip-path="url(#cy)" clip-rule="evenodd"><g clip-path="url(#cz)" clip-rule="evenodd"><g clip-path="url(#cA)" clip-rule="evenodd"><g clip-path="url(#cB)" clip-rule="evenodd"><g clip-path="url(#cC)" clip-rule="evenodd"><g clip-path="url(#cD)" clip-rule="evenodd"><g clip-path="url(#cE)" clip-rule="evenodd"><use fill="#191970" x="201.00056" xlink:href="#dL" y="120.4598"/></g></g></g></g></g></g></g></g></g><g clip-path="url(#cF)"><g clip-path="url(#cG)" clip-rule="evenodd"><g clip-path="url(#cH)" clip-rule="evenodd"><g clip-path="url(#cI)" clip-rule="evenodd"><g clip-path="url(#cJ)" clip-rule="evenodd"><g clip-path="url(#cK)" clip-rule="evenodd"><g clip-path="url(#cL)" clip-rule="evenodd"><g clip-path="url(#cM)" clip-rule="evenodd"><g clip-path="url(#cN)" clip-rule="evenodd"><use x="159.36" xlink:href="#dM" y="131.5"/></g></g></g></g></g></g></g></g></g><g clip-path="url(#cO)"><g clip-path="url(#cP)" clip-rule="evenodd"><g clip-path="url(#cQ)" clip-rule="evenodd"><g clip-path="url(#cR)" clip-rule="evenodd"><g clip-path="url(#cS)" clip-rule="evenodd"><g clip-path="url(#cT)" clip-rule="evenodd"><g clip-path="url(#cU)" clip-rule="evenodd"><g clip-path="url(#cV)" clip-rule="evenodd"><g clip-path="url(#cW)" clip-rule="evenodd"><use x="13.68" xlink:href="#dO" y="214.3"/></g></g></g></g></g></g></g></g></g><g clip-path="url(#cX)"><g clip-path="url(#cY)" clip-rule="evenodd"><g clip-path="url(#cZ)" clip-rule="evenodd"><g clip-path="url(#c0)" clip-rule="evenodd"><g clip-path="url(#c1)" clip-rule="evenodd"><g clip-path="url(#c2)" clip-rule="evenodd"><g clip-path="url(#c3)" clip-rule="evenodd"><g clip-path="url(#c4)" clip-rule="evenodd"><g clip-path="url(#c5)" clip-rule="evenodd"><use x="20.28" xlink:href="#dN" y="214.3"/></g></g></g></g></g></g></g></g></g><g clip-path="url(#c6)"><g clip-path="url(#c7)" clip-rule="evenodd"><g clip-path="url(#c8)" clip-rule="evenodd"><g clip-path="url(#c9)" clip-rule="evenodd"><g clip-path="url(#da)" clip-rule="evenodd"><g clip-path="url(#db)" clip-rule="evenodd"><g clip-path="url(#dc)" clip-rule="evenodd"><g clip-path="url(#dd)" clip-rule="evenodd"><g clip-path="url(#de)" clip-rule="evenodd"><use x="89.5198" xlink:href="#dO" y="214.419922"/></g></g></g></g></g></g></g></g></g><g clip-path="url(#df)"><g clip-path="url(#dg)" clip-rule="evenodd"><g clip-path="url(#dh)" clip-rule="evenodd"><g clip-path="url(#di)" clip-rule="evenodd"><g clip-path="url(#dj)" clip-rule="evenodd"><g clip-path="url(#dk)" clip-rule="evenodd"><g clip-path="url(#dl)" clip-rule="evenodd"><g clip-path="url(#dm)" clip-rule="evenodd"><g clip-path="url(#dn)" clip-rule="evenodd"><use x="96.1198" xlink:href="#dM" y="214.419922"/></g></g></g></g></g></g></g></g></g><g clip-path="url(#do)"><g clip-path="url(#dp)" clip-rule="evenodd"><g clip-path="url(#dq)" clip-rule="evenodd"><g clip-path="url(#dr)" clip-rule="evenodd"><g clip-path="url(#ds)" clip-rule="evenodd"><g clip-path="url(#dt)" clip-rule="evenodd"><g clip-path="url(#du)" clip-rule="evenodd"><g clip-path="url(#dv)" clip-rule="evenodd"><g clip-path="url(#dw)" clip-rule="evenodd"><use x="244.4398" xlink:href="#dM" y="214.419922"/></g></g></g></g></g></g></g></g></g><g clip-path="url(#dx)"><g clip-path="url(#dy)" clip-rule="evenodd"><g clip-path="url(#dz)" clip-rule="evenodd"><g clip-path="url(#dA)" clip-rule="evenodd"><g clip-path="url(#dB)" clip-rule="evenodd"><g clip-path="url(#dC)" clip-rule="evenodd"><g clip-path="url(#dD)" clip-rule="evenodd"><g clip-path="url(#dE)" clip-rule="evenodd"><g clip-path="url(#dF)" clip-rule="evenodd"><use x="320.28" xlink:href="#dN" y="214.3"/></g></g></g></g></g></g></g></g></g></svg>