<svg height="151.38pt" viewBox="0 0 227.77 151.38" width="227.77pt" xmlns="http://www.w3.org/2000/svg" xmlns:xlink="http://www.w3.org/1999/xlink"><symbol id="a" overflow="visible"><path d="m.25-1.046875c0 .234375-.015625.390625-.09375.765625-.03125.15625-.03125.1875-.046875.265625.171875.09375.375.140625.515625.140625.390625 0 .859375-.34375 1.234375-.90625l.90625-1.390625.125.828125c.15625 1.015625.4375 1.46875.859375 1.46875.265625 0 .65625-.203125 1.03125-.546875l.578125-.515625-.09375-.234375c-.4375.359375-.734375.53125-.921875.53125s-.34375-.109375-.453125-.34375-.25-.671875-.3125-1.03125l-.203125-1.203125.421875-.578125c.546875-.78125.875-1.0625 1.25-1.0625.1875 0 .328125.109375.390625.28125l.171875-.046875.171875-1.015625c-.140625-.078125-.25-.125-.359375-.125-.46875 0-.953125.4375-1.6875 1.53125l-.453125.65625-.0625-.5625c-.140625-1.1875-.46875-1.625-1.171875-1.625-.3125 0-.578125.09375-.6875.25l-.6875 1 .203125.109375c.359375-.40625.59375-.5625.828125-.5625.390625 0 .65625.484375.859375 1.65625l.125.75-.46875.734375c-.515625.796875-.921875 1.1875-1.265625 1.1875-.171875 0-.3125-.046875-.328125-.109375l-.140625-.34375zm0 0"/></symbol><symbol id="b" overflow="visible"><path d="m8.71875-1.234375-.296875.203125c-.359375.234375-.609375.359375-.734375.359375-.078125 0-.15625-.109375-.15625-.234375s.015625-.234375.078125-.484375l.90625-3.546875c.046875-.203125.078125-.390625.078125-.484375 0-.203125-.125-.34375-.3125-.34375-.34375 0-.796875.21875-1.53125.734375-.75.53125-1.171875.953125-1.75 1.78125l.359375-1.640625c.046875-.234375.078125-.421875.078125-.5 0-.234375-.125-.375-.3125-.375-.359375 0-.90625.265625-1.5625.765625-.53125.40625-.765625.65625-1.546875 1.71875l.40625-1.59375c.046875-.1875.0625-.375.0625-.515625 0-.234375-.109375-.375-.265625-.375-.265625 0-.71875.25-1.59375.890625l-.34375.234375.09375.234375.375-.25c.4375-.265625.484375-.296875.5625-.296875.140625 0 .21875.125.21875.296875 0 .609375-.484375 2.921875-.984375 4.625l.03125.140625.828125-.1875.25-1.21875c.296875-1.328125.609375-2.03125 1.265625-2.75.515625-.546875 1.046875-.90625 1.375-.90625.09375 0 .140625.09375.140625.25 0 .421875-.265625 1.78125-.75 3.875l-.203125.796875.0625.140625.828125-.1875.25-1.265625c.1875-.96875.59375-1.875 1.125-2.453125.65625-.734375 1.25-1.15625 1.640625-1.15625.09375 0 .15625.109375.15625.296875 0 .296875-.046875.453125-.296875 1.5-.203125.75-.40625 1.46875-.515625 1.875-.109375.34375-.15625.640625-.15625.90625 0 .296875.125.484375.359375.484375.3125 0 .734375-.25 1.90625-1.125zm0 0"/></symbol><symbol id="c" overflow="visible"><path d="m4.125 2.984375c0-.03125 0-.0625-.21875-.265625-1.546875-1.578125-1.953125-3.921875-1.953125-5.828125 0-2.171875.46875-4.34375 2-5.890625.171875-.15625.171875-.171875.171875-.21875 0-.078125-.046875-.125-.125-.125-.125 0-1.25.84375-1.984375 2.4375-.640625 1.359375-.78125 2.75-.78125 3.796875 0 .96875.140625 2.46875.828125 3.875.734375 1.53125 1.8125 2.34375 1.9375 2.34375.078125 0 .125-.03125.125-.125zm0 0"/></symbol><symbol id="d" overflow="visible"><path d="m3.59375-3.109375c0-.96875-.125-2.484375-.8125-3.890625-.75-1.53125-1.828125-2.34375-1.953125-2.34375-.0625 0-.125.046875-.125.125 0 .046875 0 .0625.25.296875 1.21875 1.21875 1.921875 3.203125 1.921875 5.8125 0 2.125-.453125 4.3125-2 5.890625-.171875.140625-.171875.171875-.171875.203125 0 .078125.0625.125.125.125.125 0 1.25-.84375 1.984375-2.421875.640625-1.375.78125-2.75.78125-3.796875zm0 0"/></symbol><symbol id="e" overflow="visible"><path d="m.21875-3.484375.0625.1875.28125-.1875c.328125-.203125.359375-.234375.421875-.234375.09375 0 .15625.09375.15625.234375 0 .453125-.359375 2.1875-.734375 3.46875l.0625.09375c.234375-.0625.4375-.109375.640625-.15625.171875-1.125.359375-1.703125.765625-2.328125.484375-.75 1.15625-1.3125 1.5625-1.3125.09375 0 .15625.09375.15625.21875 0 .15625-.03125.359375-.109375.640625l-.46875 1.90625c-.078125.328125-.109375.53125-.109375.671875 0 .234375.09375.359375.265625.359375.234375 0 .5625-.1875 1.4375-.84375l-.09375-.15625-.234375.15625c-.25.171875-.453125.265625-.546875.265625-.0625 0-.109375-.078125-.109375-.1875 0-.03125 0-.140625.015625-.171875l.59375-2.484375c.0625-.25.09375-.5.09375-.65625 0-.203125-.09375-.328125-.28125-.328125-.375 0-.984375.34375-1.515625.84375-.34375.3125-.59375.609375-1.0625 1.265625l.34375-1.4375c.03125-.171875.046875-.265625.046875-.375 0-.1875-.0625-.296875-.203125-.296875-.1875 0-.53125.203125-1.1875.671875zm0 0"/></symbol><symbol id="f" overflow="visible"><path d="m3.140625-8.234375c-1.84375 0-2.796875 1.46875-2.796875 4.359375 0 1.40625.25 2.609375.671875 3.1875.421875.59375 1.09375.921875 1.828125.921875 1.8125 0 2.71875-1.546875 2.71875-4.609375 0-2.625-.78125-3.859375-2.421875-3.859375zm-.21875.421875c1.171875 0 1.625 1.171875 1.625 4.03125 0 2.546875-.453125 3.609375-1.546875 3.609375-1.15625 0-1.65625-1.21875-1.65625-4.125 0-2.53125.453125-3.515625 1.578125-3.515625zm0 0"/></symbol><symbol id="g" overflow="visible"><path d="m.796875-6.640625h.125l1.546875-.6875c0-.015625.015625-.015625.03125-.015625.0625 0 .09375.109375.09375.40625v5.796875c0 .609375-.125.75-.78125.78125l-.671875.03125v.359375c1.84375-.03125 1.84375-.03125 1.984375-.03125.15625 0 .40625 0 .8125.015625.15625.015625.5625.015625 1.0625.015625v-.359375l-.625-.03125c-.65625-.03125-.78125-.171875-.78125-.78125v-7.09375l-.15625-.0625c-.78125.40625-1.625.765625-2.71875 1.15625zm0 0"/></symbol><g stroke-linecap="round" stroke-linejoin="round" stroke-miterlimit="10" transform="matrix(.1 0 0 -.1 0 151.38)"><path d="m2050.273438 207.979688h-1700v1192.851562" fill="none" stroke="#000" stroke-width="4.99843"/><path d="m2125.234375 207.979688-74.960937 20.078125v-40.195313zm0 0" stroke="#000" stroke-width="4.99843"/><path d="m350.273438 1475.792188-20.078126-74.960938h40.15625zm0 0" stroke="#000" stroke-width="4.99843"/><g fill="none"><path d="m223.476562 207.979688h126.796876" stroke="#000" stroke-width="4.99843"/><path d="m350.273438 207.979688v-38.046875" stroke="#000" stroke-width="4.99843"/><path d="m1618.125 207.979688v-38.046875" stroke="#000" stroke-width="4.99843"/><path d="m350.273438 207.979688v633.90625" stroke="#8b0000" stroke-width="19.9937"/><path d="m1618.125 207.979688v633.90625" stroke="#8b0000" stroke-width="19.9937"/><path d="m667.226562 207.979688v950.859375" stroke="#105955" stroke-width="4.99843"/><path d="m1935.078125 207.979688v316.953125" stroke="#105955" stroke-width="4.99843"/><path d="m491.132812 207.979688v774.765625" stroke="#157771" stroke-width="4.99843"/><path d="m1758.984375 207.979688v493.046875" stroke="#157771" stroke-width="4.99843"/><path d="m429.53125 207.979688v713.125" stroke="#18857f" stroke-width="4.99843"/><path d="m1697.34375 207.979688v554.648437" stroke="#18857f" stroke-width="4.99843"/><path d="m400.976562 207.979688v684.609375" stroke="#1a8e88" stroke-width="4.99843"/><path d="m1668.828125 207.979688v583.203125" stroke="#1a8e88" stroke-width="4.99843"/><path d="m385.507812 207.979688v669.101562" stroke="#1b948d" stroke-width="4.99843"/><path d="m1653.320312 207.979688v598.671875" stroke="#1b948d" stroke-width="4.99843"/><path d="m376.132812 207.979688v659.765625" stroke="#1b9892" stroke-width="4.99843"/><path d="m1643.984375 207.979688v608.007812" stroke="#1b9892" stroke-width="4.99843"/><path d="m370.078125 207.979688v653.710937" stroke="#1c9c95" stroke-width="4.99843"/><path d="m1637.890625 207.979688v614.101562" stroke="#1c9c95" stroke-width="4.99843"/><path d="m365.9375 207.979688v649.570312" stroke="#1c9e97" stroke-width="4.99843"/><path d="m1633.75 207.979688v618.242187" stroke="#1c9e97" stroke-width="4.99843"/></g></g><use x="216.6" xlink:href="#a" y="133.38"/><use fill="#8b0000" x="5.16016" xlink:href="#b" y="70.2601"/><use fill="#8b0000" x="14.76016" xlink:href="#c" y="70.2601"/><use fill="#8b0000" x="20.04024" xlink:href="#a" y="70.2601"/><use fill="#8b0000" x="26.4004" xlink:href="#d" y="70.2601"/><g fill="#20b2aa"><use x="72" xlink:href="#b" y="58.98"/><use x="81.6" xlink:href="#e" y="60.78"/><use x="87.23984" xlink:href="#c" y="58.98"/><use x="92.51992" xlink:href="#a" y="58.98"/><use x="98.88008" xlink:href="#d" y="58.98"/></g><use x="32.0398" xlink:href="#f" y="146.09992"/><use x="158.8798" xlink:href="#g" y="146.339764"/></svg>