<svg height="660.279" viewBox="0 0 178.922 495.209" width="238.563" xmlns="http://www.w3.org/2000/svg" xmlns:xlink="http://www.w3.org/1999/xlink"><symbol id="a" overflow="visible"><path d="m3.59375-1.28125c0-.515625-.296875-.828125-.421875-.9375-.328125-.328125-.71875-.40625-1.140625-.484375-.5625-.109375-1.21875-.234375-1.21875-.8125 0-.359375.25-.765625 1.109375-.765625 1.09375 0 1.15625.90625 1.171875 1.203125 0 .09375.109375.09375.109375.09375.140625 0 .140625-.046875.140625-.234375v-1.015625c0-.15625 0-.234375-.109375-.234375-.046875 0-.078125 0-.203125.125-.03125.03125-.125.125-.171875.15625-.375-.28125-.78125-.28125-.9375-.28125-1.21875 0-1.59375.671875-1.59375 1.234375 0 .34375.15625.625.421875.84375.328125.25.609375.3125 1.328125.453125.21875.046875 1.03125.203125 1.03125.921875 0 .5-.34375.90625-1.125.90625-.84375 0-1.203125-.5625-1.390625-1.421875-.03125-.125-.03125-.15625-.140625-.15625-.125 0-.125.0625-.125.234375v1.328125c0 .171875 0 .234375.109375.234375.046875 0 .0625-.015625.25-.203125.015625-.015625.015625-.03125.203125-.21875.4375.40625.890625.421875 1.09375.421875 1.140625 0 1.609375-.671875 1.609375-1.390625zm0 0"/></symbol><symbol id="b" overflow="visible"><path d="m3.3125-1.234375v-.5625h-.25v.546875c0 .734375-.296875 1.109375-.671875 1.109375-.671875 0-.671875-.90625-.671875-1.078125v-2.765625h1.4375v-.3125h-1.4375v-1.828125h-.25c0 .8125-.296875 1.875-1.28125 1.921875v.21875h.84375v2.75c0 1.21875.9375 1.34375 1.296875 1.34375.703125 0 .984375-.703125.984375-1.34375zm0 0"/></symbol><symbol id="c" overflow="visible"><path d="m4.8125-.890625v-.5625h-.25v.5625c0 .578125-.25.640625-.359375.640625-.328125 0-.359375-.453125-.359375-.5v-1.984375c0-.421875 0-.8125-.359375-1.1875-.390625-.390625-.890625-.546875-1.375-.546875-.8125 0-1.5.46875-1.5 1.125 0 .296875.203125.46875.453125.46875.28125 0 .46875-.203125.46875-.453125 0-.125-.0625-.453125-.515625-.453125.265625-.359375.765625-.46875 1.078125-.46875.484375 0 1.0625.390625 1.0625 1.28125v.359375c-.515625.03125-1.21875.0625-1.84375.359375-.75.34375-1 .859375-1 1.296875 0 .8125.96875 1.0625 1.59375 1.0625.671875 0 1.125-.40625 1.3125-.859375.046875.390625.3125.8125.78125.8125.203125 0 .8125-.140625.8125-.953125zm-1.65625-.5c0 .9375-.71875 1.28125-1.171875 1.28125-.484375 0-.890625-.34375-.890625-.84375 0-.546875.40625-1.375 2.0625-1.4375zm0 0"/></symbol><symbol id="d" overflow="visible"><path d="m3.625-3.796875c0-.3125-.3125-.609375-.734375-.609375-.734375 0-1.09375.671875-1.21875 1.09375v-1.09375l-1.390625.109375v.3125c.703125 0 .78125.0625.78125.5625v2.671875c0 .4375-.109375.4375-.78125.4375v.3125l1.140625-.03125c.390625 0 .859375 0 1.265625.03125v-.3125h-.21875c-.734375 0-.75-.109375-.75-.46875v-1.53125c0-.984375.421875-1.875 1.171875-1.875.0625 0 .09375 0 .109375.015625-.03125 0-.234375.125-.234375.390625s.21875.421875.4375.421875c.171875 0 .421875-.125.421875-.4375zm0 0"/></symbol><symbol id="e" overflow="visible"><path d="m4.171875 0v-.3125h-.3125c-.90625 0-.921875-.109375-.921875-.46875v-5.59375c0-.25 0-.265625-.234375-.265625-.625.640625-1.5.640625-1.8125.640625v.3125c.203125 0 .78125 0 1.296875-.265625v5.171875c0 .359375-.03125.46875-.921875.46875h-.3125v.3125c.34375-.03125 1.203125-.03125 1.609375-.03125.390625 0 1.265625 0 1.609375.03125zm0 0"/></symbol><symbol id="f" overflow="visible"><path d="m3.296875 2.390625c0-.03125 0-.046875-.171875-.21875-1.234375-1.25-1.5625-3.140625-1.5625-4.671875 0-1.734375.375-3.46875 1.609375-4.703125.125-.125.125-.140625.125-.171875 0-.078125-.03125-.109375-.09375-.109375-.109375 0-1 .6875-1.59375 1.953125-.5 1.09375-.625 2.203125-.625 3.03125 0 .78125.109375 1.984375.65625 3.125.609375 1.21875 1.453125 1.875 1.5625 1.875.0625 0 .09375-.03125.09375-.109375zm0 0"/></symbol><symbol id="g" overflow="visible"><path d="m2.03125-.015625c0-.625-.25-1.046875-.640625-1.046875-.359375 0-.53125.28125-.53125.53125 0 .265625.171875.53125.53125.53125.140625 0 .28125-.0625.390625-.15625.015625.78125-.25 1.390625-.6875 1.859375-.0625.0625-.078125.078125-.078125.109375 0 .078125.046875.109375.09375.109375.125 0 .921875-.78125.921875-1.9375zm0 0"/></symbol><symbol id="h" overflow="visible"><path d="m4.46875-1.734375h-.234375c-.0625.296875-.125.734375-.234375.890625-.0625.078125-.71875.078125-.9375.078125h-1.796875l1.0625-1.03125c1.546875-1.375 2.140625-1.90625 2.140625-2.90625 0-1.140625-.890625-1.9375-2.109375-1.9375-1.125 0-1.859375.921875-1.859375 1.8125 0 .546875.5.546875.53125.546875.171875 0 .515625-.109375.515625-.53125 0-.25-.1875-.515625-.53125-.515625-.078125 0-.09375 0-.125.015625.21875-.65625.765625-1.015625 1.34375-1.015625.90625 0 1.328125.8125 1.328125 1.625 0 .796875-.484375 1.578125-1.046875 2.203125l-1.90625 2.125c-.109375.109375-.109375.140625-.109375.375h3.703125zm0 0"/></symbol><symbol id="i" overflow="visible"><path d="m2.875-2.5c0-.765625-.109375-1.96875-.65625-3.109375-.59375-1.21875-1.453125-1.875-1.546875-1.875-.0625 0-.109375.046875-.109375.109375 0 .03125 0 .046875.1875.234375.984375.984375 1.546875 2.5625 1.546875 4.640625 0 1.71875-.359375 3.46875-1.59375 4.71875-.140625.125-.140625.140625-.140625.171875 0 .0625.046875.109375.109375.109375.09375 0 1-.6875 1.578125-1.953125.515625-1.09375.625-2.203125.625-3.046875zm0 0"/></symbol><symbol id="j" overflow="visible"><path d="m4.5625-1.703125c0-.8125-.640625-1.59375-1.671875-1.8125.8125-.265625 1.390625-.953125 1.390625-1.75 0-.8125-.875-1.375-1.828125-1.375-1 0-1.765625.59375-1.765625 1.359375 0 .328125.21875.515625.515625.515625s.5-.21875.5-.515625c0-.484375-.46875-.484375-.609375-.484375.296875-.5.953125-.625 1.3125-.625.421875 0 .96875.21875.96875 1.109375 0 .125-.03125.703125-.28125 1.140625-.296875.484375-.640625.515625-.890625.515625-.078125.015625-.3125.03125-.390625.03125-.078125.015625-.140625.03125-.140625.125 0 .109375.0625.109375.234375.109375h.4375c.8125 0 1.1875.671875 1.1875 1.65625 0 1.359375-.6875 1.640625-1.125 1.640625s-1.1875-.171875-1.53125-.75c.34375.046875.65625-.171875.65625-.546875 0-.359375-.265625-.5625-.546875-.5625-.25 0-.5625.140625-.5625.578125 0 .90625.921875 1.5625 2.015625 1.5625 1.21875 0 2.125-.90625 2.125-1.921875zm0 0"/></symbol><symbol id="k" overflow="visible"><path d="m4.6875-1.640625v-.3125h-.984375v-4.53125c0-.203125 0-.265625-.171875-.265625-.078125 0-.109375 0-.1875.125l-3.0625 4.671875v.3125h2.65625v.859375c0 .359375-.03125.46875-.765625.46875h-.203125v.3125c.40625-.03125.921875-.03125 1.34375-.03125s.9375 0 1.359375.03125v-.3125h-.21875c-.734375 0-.75-.109375-.75-.46875v-.859375zm-1.703125-.3125h-2.421875l2.421875-3.71875zm0 0"/></symbol><path d="m9.618813 6.437031h-19.234375c-2.203125 0-3.988282-1.78125-3.988282-3.984375v-4.90625c0-2.199218 1.785157-3.984375 3.988282-3.984375h19.234375c2.199218 0 3.984375 1.785157 3.984375 3.984375v4.90625c0 2.203125-1.785157 3.984375-3.984375 3.984375zm0 0" fill="#d1d1e2" stroke="#000" stroke-miterlimit="10" stroke-width=".399" transform="matrix(1 0 0 -1 23.764 247.605)"/><g><use x="13.482" xlink:href="#a" y="250.613"/><use x="17.407" xlink:href="#b" y="250.613"/><use x="21.283" xlink:href="#c" y="250.613"/><use x="26.264" xlink:href="#d" y="250.613"/><use x="30.169" xlink:href="#b" y="250.613"/></g><path d="m44.345375 185.968281h-3.652344c-2.199218 0-3.984375-1.785156-3.984375-3.984375v-5.308593c0-2.199219 1.785157-3.984375 3.984375-3.984375h3.652344c2.203125 0 3.984375 1.785156 3.984375 3.984375v5.308593c0 2.199219-1.78125 3.984375-3.984375 3.984375zm0 0" fill="#d1d1e2" stroke="#000" stroke-miterlimit="10" stroke-width=".399" transform="matrix(1 0 0 -1 23.764 247.605)"/><use x="63.793" xlink:href="#e" y="71.595"/><path d="m1.571938 6.63625 39.328125 165.855469" fill="none" stroke="#000" stroke-miterlimit="10" stroke-width=".399" transform="matrix(1 0 0 -1 23.764 247.605)"/><path d="m94.618813 227.483906h-19.15625c-2.199219 0-3.984375-1.785156-3.984375-3.984375v-8.636718c0-2.199219 1.785156-3.984375 3.984375-3.984375h19.15625c2.199218 0 3.984375 1.785156 3.984375 3.984375v8.636718c0 2.199219-1.785157 3.984375-3.984375 3.984375zm0 0" fill="#d1d1e2" stroke="#000" stroke-miterlimit="10" stroke-width=".399" transform="matrix(1 0 0 -1 23.764 247.605)"/><g><use x="98.562" xlink:href="#f" y="30.917"/><use x="102.437" xlink:href="#e" y="30.917"/><use x="107.419" xlink:href="#g" y="30.917"/><use x="110.188" xlink:href="#h" y="30.917"/><use x="115.17" xlink:href="#i" y="30.917"/></g><path d="m48.528969 184.960469 27.441406 25.71875" fill="none" stroke="#000" stroke-miterlimit="10" stroke-width=".399" transform="matrix(1 0 0 -1 23.764 247.605)"/><path d="m141.013344 237.444844h-26.90625c-2.199219 0-3.984375-1.785156-3.984375-3.984375v-8.632813c0-2.203125 1.785156-3.984375 3.984375-3.984375h26.90625c2.199218 0 3.984375 1.78125 3.984375 3.984375v8.632813c0 2.199219-1.785157 3.984375-3.984375 3.984375zm0 0" fill="#d1d1e2" stroke="#000" stroke-miterlimit="10" stroke-width=".399" transform="matrix(1 0 0 -1 23.764 247.605)"/><g><use x="137.206" xlink:href="#f" y="20.954"/><use x="141.081" xlink:href="#e" y="20.954"/><use x="146.063" xlink:href="#g" y="20.954"/><use x="148.832" xlink:href="#h" y="20.954"/><use x="153.814" xlink:href="#g" y="20.954"/><use x="156.583" xlink:href="#j" y="20.954"/><use x="161.565" xlink:href="#i" y="20.954"/></g><path d="m98.802406 222.405781 11.121094 2.605469" fill="none" stroke="#000" stroke-miterlimit="10" stroke-width=".399" transform="matrix(1 0 0 -1 23.764 247.605)"/><path d="m141.013344 217.519063h-26.90625c-2.199219 0-3.984375-1.78125-3.984375-3.984375v-8.632813c0-2.203125 1.785156-3.984375 3.984375-3.984375h26.90625c2.199218 0 3.984375 1.78125 3.984375 3.984375v8.632813c0 2.203125-1.785157 3.984375-3.984375 3.984375zm0 0" fill="#d1d1e2" stroke="#000" stroke-miterlimit="10" stroke-width=".399" transform="matrix(1 0 0 -1 23.764 247.605)"/><g><use x="137.206" xlink:href="#f" y="40.88"/><use x="141.081" xlink:href="#e" y="40.88"/><use x="146.063" xlink:href="#g" y="40.88"/><use x="148.832" xlink:href="#h" y="40.88"/><use x="153.814" xlink:href="#g" y="40.88"/><use x="156.583" xlink:href="#k" y="40.88"/><use x="161.565" xlink:href="#i" y="40.88"/></g><path d="m98.802406 215.956563 11.121094-2.609375" fill="none" stroke="#000" stroke-miterlimit="10" stroke-width=".399" transform="matrix(1 0 0 -1 23.764 247.605)"/><path d="m94.618813 187.632344h-19.15625c-2.199219 0-3.984375-1.785156-3.984375-3.984375v-8.636719c0-2.199219 1.785156-3.984375 3.984375-3.984375h19.15625c2.199218 0 3.984375 1.785156 3.984375 3.984375v8.636719c0 2.199219-1.785157 3.984375-3.984375 3.984375zm0 0" fill="#d1d1e2" stroke="#000" stroke-miterlimit="10" stroke-width=".399" transform="matrix(1 0 0 -1 23.764 247.605)"/><g><use x="98.562" xlink:href="#f" y="70.768"/><use x="102.437" xlink:href="#e" y="70.768"/><use x="107.419" xlink:href="#g" y="70.768"/><use x="110.188" xlink:href="#j" y="70.768"/><use x="115.17" xlink:href="#i" y="70.768"/></g><path d="m48.528969 179.331563h22.75" fill="none" stroke="#000" stroke-miterlimit="10" stroke-width=".399" transform="matrix(1 0 0 -1 23.764 247.605)"/><path d="m141.013344 197.593281h-26.90625c-2.199219 0-3.984375-1.78125-3.984375-3.984375v-8.632812c0-2.203125 1.785156-3.984375 3.984375-3.984375h26.90625c2.199218 0 3.984375 1.78125 3.984375 3.984375v8.632812c0 2.203125-1.785157 3.984375-3.984375 3.984375zm0 0" fill="#d1d1e2" stroke="#000" stroke-miterlimit="10" stroke-width=".399" transform="matrix(1 0 0 -1 23.764 247.605)"/><g><use x="137.206" xlink:href="#f" y="60.805"/><use x="141.081" xlink:href="#e" y="60.805"/><use x="146.063" xlink:href="#g" y="60.805"/><use x="148.832" xlink:href="#j" y="60.805"/><use x="153.814" xlink:href="#g" y="60.805"/><use x="156.583" xlink:href="#h" y="60.805"/><use x="161.565" xlink:href="#i" y="60.805"/></g><path d="m98.802406 182.554219 11.121094 2.605469" fill="none" stroke="#000" stroke-miterlimit="10" stroke-width=".399" transform="matrix(1 0 0 -1 23.764 247.605)"/><path d="m141.013344 177.6675h-26.90625c-2.199219 0-3.984375-1.78125-3.984375-3.984375v-8.632812c0-2.199219 1.785156-3.984375 3.984375-3.984375h26.90625c2.199218 0 3.984375 1.785156 3.984375 3.984375v8.632812c0 2.203125-1.785157 3.984375-3.984375 3.984375zm0 0" fill="#d1d1e2" stroke="#000" stroke-miterlimit="10" stroke-width=".399" transform="matrix(1 0 0 -1 23.764 247.605)"/><g><use x="137.206" xlink:href="#f" y="80.73"/><use x="141.081" xlink:href="#e" y="80.73"/><use x="146.063" xlink:href="#g" y="80.73"/><use x="148.832" xlink:href="#j" y="80.73"/><use x="153.814" xlink:href="#g" y="80.73"/><use x="156.583" xlink:href="#k" y="80.73"/><use x="161.565" xlink:href="#i" y="80.73"/></g><path d="m98.802406 176.105 11.121094-2.605469" fill="none" stroke="#000" stroke-miterlimit="10" stroke-width=".399" transform="matrix(1 0 0 -1 23.764 247.605)"/><path d="m94.618813 147.780781h-19.15625c-2.199219 0-3.984375-1.785156-3.984375-3.984375v-8.632812c0-2.203125 1.785156-3.988281 3.984375-3.988281h19.15625c2.199218 0 3.984375 1.785156 3.984375 3.988281v8.632812c0 2.199219-1.785157 3.984375-3.984375 3.984375zm0 0" fill="#d1d1e2" stroke="#000" stroke-miterlimit="10" stroke-width=".399" transform="matrix(1 0 0 -1 23.764 247.605)"/><g><use x="98.562" xlink:href="#f" y="110.618"/><use x="102.437" xlink:href="#e" y="110.618"/><use x="107.419" xlink:href="#g" y="110.618"/><use x="110.188" xlink:href="#k" y="110.618"/><use x="115.17" xlink:href="#i" y="110.618"/></g><path d="m48.528969 173.69875 27.441406-25.71875" fill="none" stroke="#000" stroke-miterlimit="10" stroke-width=".399" transform="matrix(1 0 0 -1 23.764 247.605)"/><path d="m141.013344 157.741719h-26.90625c-2.199219 0-3.984375-1.78125-3.984375-3.984375v-8.632813c0-2.199218 1.785156-3.984375 3.984375-3.984375h26.90625c2.199218 0 3.984375 1.785157 3.984375 3.984375v8.632813c0 2.203125-1.785157 3.984375-3.984375 3.984375zm0 0" fill="#d1d1e2" stroke="#000" stroke-miterlimit="10" stroke-width=".399" transform="matrix(1 0 0 -1 23.764 247.605)"/><g><use x="137.206" xlink:href="#f" y="100.656"/><use x="141.081" xlink:href="#e" y="100.656"/><use x="146.063" xlink:href="#g" y="100.656"/><use x="148.832" xlink:href="#k" y="100.656"/><use x="153.814" xlink:href="#g" y="100.656"/><use x="156.583" xlink:href="#h" y="100.656"/><use x="161.565" xlink:href="#i" y="100.656"/></g><path d="m98.802406 142.702656 11.121094 2.609375" fill="none" stroke="#000" stroke-miterlimit="10" stroke-width=".399" transform="matrix(1 0 0 -1 23.764 247.605)"/><path d="m141.013344 137.819844h-26.90625c-2.199219 0-3.984375-1.785156-3.984375-3.988281v-8.632813c0-2.199219 1.785156-3.984375 3.984375-3.984375h26.90625c2.199218 0 3.984375 1.785156 3.984375 3.984375v8.632813c0 2.203125-1.785157 3.988281-3.984375 3.988281zm0 0" fill="#d1d1e2" stroke="#000" stroke-miterlimit="10" stroke-width=".399" transform="matrix(1 0 0 -1 23.764 247.605)"/><g><use x="137.206" xlink:href="#f" y="120.581"/><use x="141.081" xlink:href="#e" y="120.581"/><use x="146.063" xlink:href="#g" y="120.581"/><use x="148.832" xlink:href="#k" y="120.581"/><use x="153.814" xlink:href="#g" y="120.581"/><use x="156.583" xlink:href="#j" y="120.581"/><use x="161.565" xlink:href="#i" y="120.581"/></g><path d="m98.802406 136.253438 11.121094-2.605469" fill="none" stroke="#000" stroke-miterlimit="10" stroke-width=".399" transform="matrix(1 0 0 -1 23.764 247.605)"/><path d="m44.345375 66.413594h-3.652344c-2.199218 0-3.984375-1.78125-3.984375-3.984375v-5.304688c0-2.203125 1.785157-3.984375 3.984375-3.984375h3.652344c2.203125 0 3.984375 1.78125 3.984375 3.984375v5.304688c0 2.203125-1.78125 3.984375-3.984375 3.984375zm0 0" fill="#d1d1e2" stroke="#000" stroke-miterlimit="10" stroke-width=".399" transform="matrix(1 0 0 -1 23.764 247.605)"/><use x="63.793" xlink:href="#h" y="191.146"/><path d="m4.720375 6.63625 32.9375 46.304688" fill="none" stroke="#000" stroke-miterlimit="10" stroke-width=".399" transform="matrix(1 0 0 -1 23.764 247.605)"/><path d="m94.618813 107.929219h-19.15625c-2.199219 0-3.984375-1.785156-3.984375-3.984375v-8.632813c0-2.203125 1.785156-3.984375 3.984375-3.984375h19.15625c2.199218 0 3.984375 1.78125 3.984375 3.984375v8.632813c0 2.199219-1.785157 3.984375-3.984375 3.984375zm0 0" fill="#d1d1e2" stroke="#000" stroke-miterlimit="10" stroke-width=".399" transform="matrix(1 0 0 -1 23.764 247.605)"/><g><use x="98.562" xlink:href="#f" y="150.469"/><use x="102.437" xlink:href="#h" y="150.469"/><use x="107.419" xlink:href="#g" y="150.469"/><use x="110.188" xlink:href="#e" y="150.469"/><use x="115.17" xlink:href="#i" y="150.469"/></g><path d="m48.528969 65.405781 27.441406 25.71875" fill="none" stroke="#000" stroke-miterlimit="10" stroke-width=".399" transform="matrix(1 0 0 -1 23.764 247.605)"/><path d="m141.013344 117.894063h-26.90625c-2.199219 0-3.984375-1.785157-3.984375-3.988282v-8.632812c0-2.199219 1.785156-3.984375 3.984375-3.984375h26.90625c2.199218 0 3.984375 1.785156 3.984375 3.984375v8.632812c0 2.203125-1.785157 3.988282-3.984375 3.988282zm0 0" fill="#d1d1e2" stroke="#000" stroke-miterlimit="10" stroke-width=".399" transform="matrix(1 0 0 -1 23.764 247.605)"/><g><use x="137.206" xlink:href="#f" y="140.506"/><use x="141.081" xlink:href="#h" y="140.506"/><use x="146.063" xlink:href="#g" y="140.506"/><use x="148.832" xlink:href="#e" y="140.506"/><use x="153.814" xlink:href="#g" y="140.506"/><use x="156.583" xlink:href="#j" y="140.506"/><use x="161.565" xlink:href="#i" y="140.506"/></g><path d="m98.802406 102.851094 11.121094 2.609375" fill="none" stroke="#000" stroke-miterlimit="10" stroke-width=".399" transform="matrix(1 0 0 -1 23.764 247.605)"/><path d="m141.013344 97.968281h-26.90625c-2.199219 0-3.984375-1.785156-3.984375-3.988281v-8.632812c0-2.199219 1.785156-3.984375 3.984375-3.984375h26.90625c2.199218 0 3.984375 1.785156 3.984375 3.984375v8.632812c0 2.203125-1.785157 3.988281-3.984375 3.988281zm0 0" fill="#d1d1e2" stroke="#000" stroke-miterlimit="10" stroke-width=".399" transform="matrix(1 0 0 -1 23.764 247.605)"/><g><use x="137.206" xlink:href="#f" y="160.431"/><use x="141.081" xlink:href="#h" y="160.431"/><use x="146.063" xlink:href="#g" y="160.431"/><use x="148.832" xlink:href="#e" y="160.431"/><use x="153.814" xlink:href="#g" y="160.431"/><use x="156.583" xlink:href="#k" y="160.431"/><use x="161.565" xlink:href="#i" y="160.431"/></g><path d="m98.802406 96.401875 11.121094-2.605469" fill="none" stroke="#000" stroke-miterlimit="10" stroke-width=".399" transform="matrix(1 0 0 -1 23.764 247.605)"/><path d="m94.618813 68.077656h-19.15625c-2.199219 0-3.984375-1.785156-3.984375-3.984375v-8.632812c0-2.203125 1.785156-3.984375 3.984375-3.984375h19.15625c2.199218 0 3.984375 1.78125 3.984375 3.984375v8.632812c0 2.199219-1.785157 3.984375-3.984375 3.984375zm0 0" fill="#d1d1e2" stroke="#000" stroke-miterlimit="10" stroke-width=".399" transform="matrix(1 0 0 -1 23.764 247.605)"/><g><use x="98.562" xlink:href="#f" y="190.319"/><use x="102.437" xlink:href="#h" y="190.319"/><use x="107.419" xlink:href="#g" y="190.319"/><use x="110.188" xlink:href="#j" y="190.319"/><use x="115.17" xlink:href="#i" y="190.319"/></g><path d="m48.528969 59.776875h22.75" fill="none" stroke="#000" stroke-miterlimit="10" stroke-width=".399" transform="matrix(1 0 0 -1 23.764 247.605)"/><path d="m141.013344 78.0425h-26.90625c-2.199219 0-3.984375-1.785156-3.984375-3.984375v-8.636719c0-2.199218 1.785156-3.984375 3.984375-3.984375h26.90625c2.199218 0 3.984375 1.785157 3.984375 3.984375v8.636719c0 2.199219-1.785157 3.984375-3.984375 3.984375zm0 0" fill="#d1d1e2" stroke="#000" stroke-miterlimit="10" stroke-width=".399" transform="matrix(1 0 0 -1 23.764 247.605)"/><g><use x="137.206" xlink:href="#f" y="180.357"/><use x="141.081" xlink:href="#h" y="180.357"/><use x="146.063" xlink:href="#g" y="180.357"/><use x="148.832" xlink:href="#j" y="180.357"/><use x="153.814" xlink:href="#g" y="180.357"/><use x="156.583" xlink:href="#e" y="180.357"/><use x="161.565" xlink:href="#i" y="180.357"/></g><path d="m98.802406 62.999531 11.121094 2.609375" fill="none" stroke="#000" stroke-miterlimit="10" stroke-width=".399" transform="matrix(1 0 0 -1 23.764 247.605)"/><path d="m141.013344 58.116719h-26.90625c-2.199219 0-3.984375-1.785156-3.984375-3.984375v-8.636719c0-2.199219 1.785156-3.984375 3.984375-3.984375h26.90625c2.199218 0 3.984375 1.785156 3.984375 3.984375v8.636719c0 2.199219-1.785157 3.984375-3.984375 3.984375zm0 0" fill="#d1d1e2" stroke="#000" stroke-miterlimit="10" stroke-width=".399" transform="matrix(1 0 0 -1 23.764 247.605)"/><g><use x="137.206" xlink:href="#f" y="200.282"/><use x="141.081" xlink:href="#h" y="200.282"/><use x="146.063" xlink:href="#g" y="200.282"/><use x="148.832" xlink:href="#j" y="200.282"/><use x="153.814" xlink:href="#g" y="200.282"/><use x="156.583" xlink:href="#k" y="200.282"/><use x="161.565" xlink:href="#i" y="200.282"/></g><path d="m98.802406 56.554219 11.121094-2.609375" fill="none" stroke="#000" stroke-miterlimit="10" stroke-width=".399" transform="matrix(1 0 0 -1 23.764 247.605)"/><path d="m94.618813 28.226094h-19.15625c-2.199219 0-3.984375-1.78125-3.984375-3.984375v-8.632813c0-2.199218 1.785156-3.984375 3.984375-3.984375h19.15625c2.199218 0 3.984375 1.785157 3.984375 3.984375v8.632813c0 2.203125-1.785157 3.984375-3.984375 3.984375zm0 0" fill="#d1d1e2" stroke="#000" stroke-miterlimit="10" stroke-width=".399" transform="matrix(1 0 0 -1 23.764 247.605)"/><g><use x="98.562" xlink:href="#f" y="230.17"/><use x="102.437" xlink:href="#h" y="230.17"/><use x="107.419" xlink:href="#g" y="230.17"/><use x="110.188" xlink:href="#k" y="230.17"/><use x="115.17" xlink:href="#i" y="230.17"/></g><path d="m48.528969 54.147969 27.441406-25.722656" fill="none" stroke="#000" stroke-miterlimit="10" stroke-width=".399" transform="matrix(1 0 0 -1 23.764 247.605)"/><path d="m141.013344 38.190938h-26.90625c-2.199219 0-3.984375-1.785157-3.984375-3.984375v-8.636719c0-2.199219 1.785156-3.984375 3.984375-3.984375h26.90625c2.199218 0 3.984375 1.785156 3.984375 3.984375v8.636719c0 2.199218-1.785157 3.984375-3.984375 3.984375zm0 0" fill="#d1d1e2" stroke="#000" stroke-miterlimit="10" stroke-width=".399" transform="matrix(1 0 0 -1 23.764 247.605)"/><g><use x="137.206" xlink:href="#f" y="220.207"/><use x="141.081" xlink:href="#h" y="220.207"/><use x="146.063" xlink:href="#g" y="220.207"/><use x="148.832" xlink:href="#k" y="220.207"/><use x="153.814" xlink:href="#g" y="220.207"/><use x="156.583" xlink:href="#e" y="220.207"/><use x="161.565" xlink:href="#i" y="220.207"/></g><path d="m98.802406 23.147969 11.121094 2.609375" fill="none" stroke="#000" stroke-miterlimit="10" stroke-width=".399" transform="matrix(1 0 0 -1 23.764 247.605)"/><path d="m141.013344 18.265156h-26.90625c-2.199219 0-3.984375-1.785156-3.984375-3.984375v-8.636718c0-2.199219 1.785156-3.984375 3.984375-3.984375h26.90625c2.199218 0 3.984375 1.785156 3.984375 3.984375v8.636718c0 2.199219-1.785157 3.984375-3.984375 3.984375zm0 0" fill="#d1d1e2" stroke="#000" stroke-miterlimit="10" stroke-width=".399" transform="matrix(1 0 0 -1 23.764 247.605)"/><g><use x="137.206" xlink:href="#f" y="240.133"/><use x="141.081" xlink:href="#h" y="240.133"/><use x="146.063" xlink:href="#g" y="240.133"/><use x="148.832" xlink:href="#k" y="240.133"/><use x="153.814" xlink:href="#g" y="240.133"/><use x="156.583" xlink:href="#j" y="240.133"/><use x="161.565" xlink:href="#i" y="240.133"/></g><path d="m98.802406 16.702656 11.121094-2.609375" fill="none" stroke="#000" stroke-miterlimit="10" stroke-width=".399" transform="matrix(1 0 0 -1 23.764 247.605)"/><path d="m44.345375-53.027812h-3.652344c-2.199218 0-3.984375-1.785157-3.984375-3.984375v-5.527344c0-2.199219 1.785157-3.984375 3.984375-3.984375h3.652344c2.203125 0 3.984375 1.785156 3.984375 3.984375v5.527344c0 2.199218-1.78125 3.984375-3.984375 3.984375zm0 0" fill="#d1d1e2" stroke="#000" stroke-miterlimit="10" stroke-width=".399" transform="matrix(1 0 0 -1 23.764 247.605)"/><use x="63.793" xlink:href="#j" y="310.588"/><path d="m4.720375-6.637187 32.859375-46.191407" fill="none" stroke="#000" stroke-miterlimit="10" stroke-width=".399" transform="matrix(1 0 0 -1 23.764 247.605)"/><path d="m94.618813-11.625469h-19.15625c-2.199219 0-3.984375-1.78125-3.984375-3.984375v-8.632812c0-2.199219 1.785156-3.984375 3.984375-3.984375h19.15625c2.199218 0 3.984375 1.785156 3.984375 3.984375v8.632812c0 2.203125-1.785157 3.984375-3.984375 3.984375zm0 0" fill="#d1d1e2" stroke="#000" stroke-miterlimit="10" stroke-width=".399" transform="matrix(1 0 0 -1 23.764 247.605)"/><g><use x="98.562" xlink:href="#f" y="270.02"/><use x="102.437" xlink:href="#j" y="270.02"/><use x="107.419" xlink:href="#g" y="270.02"/><use x="110.188" xlink:href="#e" y="270.02"/><use x="115.17" xlink:href="#i" y="270.02"/></g><path d="m48.528969-54.145 27.441406 25.71875" fill="none" stroke="#000" stroke-miterlimit="10" stroke-width=".399" transform="matrix(1 0 0 -1 23.764 247.605)"/><path d="m141.013344-1.660625h-26.90625c-2.199219 0-3.984375-1.785156-3.984375-3.984375v-8.632812c0-2.203125 1.785156-3.988282 3.984375-3.988282h26.90625c2.199218 0 3.984375 1.785157 3.984375 3.988282v8.632812c0 2.199219-1.785157 3.984375-3.984375 3.984375zm0 0" fill="#d1d1e2" stroke="#000" stroke-miterlimit="10" stroke-width=".399" transform="matrix(1 0 0 -1 23.764 247.605)"/><g><use x="137.206" xlink:href="#f" y="260.058"/><use x="141.081" xlink:href="#j" y="260.058"/><use x="146.063" xlink:href="#g" y="260.058"/><use x="148.832" xlink:href="#e" y="260.058"/><use x="153.814" xlink:href="#g" y="260.058"/><use x="156.583" xlink:href="#h" y="260.058"/><use x="161.565" xlink:href="#i" y="260.058"/></g><path d="m98.802406-16.699687 11.121094 2.605468" fill="none" stroke="#000" stroke-miterlimit="10" stroke-width=".399" transform="matrix(1 0 0 -1 23.764 247.605)"/><path d="m141.013344-21.586406h-26.90625c-2.199219 0-3.984375-1.785156-3.984375-3.984375v-8.632813c0-2.203125 1.785156-3.988281 3.984375-3.988281h26.90625c2.199218 0 3.984375 1.785156 3.984375 3.988281v8.632813c0 2.199219-1.785157 3.984375-3.984375 3.984375zm0 0" fill="#d1d1e2" stroke="#000" stroke-miterlimit="10" stroke-width=".399" transform="matrix(1 0 0 -1 23.764 247.605)"/><g><use x="137.206" xlink:href="#f" y="279.983"/><use x="141.081" xlink:href="#j" y="279.983"/><use x="146.063" xlink:href="#g" y="279.983"/><use x="148.832" xlink:href="#e" y="279.983"/><use x="153.814" xlink:href="#g" y="279.983"/><use x="156.583" xlink:href="#k" y="279.983"/><use x="161.565" xlink:href="#i" y="279.983"/></g><path d="m98.802406-23.148906 11.121094-2.609375" fill="none" stroke="#000" stroke-miterlimit="10" stroke-width=".399" transform="matrix(1 0 0 -1 23.764 247.605)"/><path d="m94.618813-51.473125h-19.15625c-2.199219 0-3.984375-1.785156-3.984375-3.988281v-8.632813c0-2.199218 1.785156-3.984375 3.984375-3.984375h19.15625c2.199218 0 3.984375 1.785157 3.984375 3.984375v8.632813c0 2.203125-1.785157 3.988281-3.984375 3.988281zm0 0" fill="#d1d1e2" stroke="#000" stroke-miterlimit="10" stroke-width=".399" transform="matrix(1 0 0 -1 23.764 247.605)"/><g><use x="98.562" xlink:href="#f" y="309.871"/><use x="102.437" xlink:href="#j" y="309.871"/><use x="107.419" xlink:href="#g" y="309.871"/><use x="110.188" xlink:href="#h" y="309.871"/><use x="115.17" xlink:href="#i" y="309.871"/></g><path d="m48.528969-59.777812h22.75" fill="none" stroke="#000" stroke-miterlimit="10" stroke-width=".399" transform="matrix(1 0 0 -1 23.764 247.605)"/><path d="m141.013344-41.512187h-26.90625c-2.199219 0-3.984375-1.785157-3.984375-3.984375v-8.632813c0-2.203125 1.785156-3.988281 3.984375-3.988281h26.90625c2.199218 0 3.984375 1.785156 3.984375 3.988281v8.632813c0 2.199218-1.785157 3.984375-3.984375 3.984375zm0 0" fill="#d1d1e2" stroke="#000" stroke-miterlimit="10" stroke-width=".399" transform="matrix(1 0 0 -1 23.764 247.605)"/><g><use x="137.206" xlink:href="#f" y="299.908"/><use x="141.081" xlink:href="#j" y="299.908"/><use x="146.063" xlink:href="#g" y="299.908"/><use x="148.832" xlink:href="#h" y="299.908"/><use x="153.814" xlink:href="#g" y="299.908"/><use x="156.583" xlink:href="#e" y="299.908"/><use x="161.565" xlink:href="#i" y="299.908"/></g><path d="m98.802406-56.55125 11.121094 2.605469" fill="none" stroke="#000" stroke-miterlimit="10" stroke-width=".399" transform="matrix(1 0 0 -1 23.764 247.605)"/><path d="m141.013344-61.437969h-26.90625c-2.199219 0-3.984375-1.785156-3.984375-3.984375v-8.632812c0-2.203125 1.785156-3.984375 3.984375-3.984375h26.90625c2.199218 0 3.984375 1.78125 3.984375 3.984375v8.632812c0 2.199219-1.785157 3.984375-3.984375 3.984375zm0 0" fill="#d1d1e2" stroke="#000" stroke-miterlimit="10" stroke-width=".399" transform="matrix(1 0 0 -1 23.764 247.605)"/><g><use x="137.206" xlink:href="#f" y="319.834"/><use x="141.081" xlink:href="#j" y="319.834"/><use x="146.063" xlink:href="#g" y="319.834"/><use x="148.832" xlink:href="#h" y="319.834"/><use x="153.814" xlink:href="#g" y="319.834"/><use x="156.583" xlink:href="#k" y="319.834"/><use x="161.565" xlink:href="#i" y="319.834"/></g><path d="m98.802406-63.000469 11.121094-2.609375" fill="none" stroke="#000" stroke-miterlimit="10" stroke-width=".399" transform="matrix(1 0 0 -1 23.764 247.605)"/><path d="m94.618813-91.324687h-19.15625c-2.199219 0-3.984375-1.785157-3.984375-3.984375v-8.636719c0-2.199219 1.785156-3.984375 3.984375-3.984375h19.15625c2.199218 0 3.984375 1.785156 3.984375 3.984375v8.636719c0 2.199218-1.785157 3.984375-3.984375 3.984375zm0 0" fill="#d1d1e2" stroke="#000" stroke-miterlimit="10" stroke-width=".399" transform="matrix(1 0 0 -1 23.764 247.605)"/><g><use x="98.562" xlink:href="#f" y="349.722"/><use x="102.437" xlink:href="#j" y="349.722"/><use x="107.419" xlink:href="#g" y="349.722"/><use x="110.188" xlink:href="#k" y="349.722"/><use x="115.17" xlink:href="#i" y="349.722"/></g><path d="m48.528969-65.406719 27.441406-25.71875" fill="none" stroke="#000" stroke-miterlimit="10" stroke-width=".399" transform="matrix(1 0 0 -1 23.764 247.605)"/><path d="m141.013344-81.36375h-26.90625c-2.199219 0-3.984375-1.785156-3.984375-3.984375v-8.632812c0-2.203125 1.785156-3.984375 3.984375-3.984375h26.90625c2.199218 0 3.984375 1.78125 3.984375 3.984375v8.632812c0 2.199219-1.785157 3.984375-3.984375 3.984375zm0 0" fill="#d1d1e2" stroke="#000" stroke-miterlimit="10" stroke-width=".399" transform="matrix(1 0 0 -1 23.764 247.605)"/><g><use x="137.206" xlink:href="#f" y="339.759"/><use x="141.081" xlink:href="#j" y="339.759"/><use x="146.063" xlink:href="#g" y="339.759"/><use x="148.832" xlink:href="#k" y="339.759"/><use x="153.814" xlink:href="#g" y="339.759"/><use x="156.583" xlink:href="#e" y="339.759"/><use x="161.565" xlink:href="#i" y="339.759"/></g><path d="m98.802406-96.402812 11.121094 2.605468" fill="none" stroke="#000" stroke-miterlimit="10" stroke-width=".399" transform="matrix(1 0 0 -1 23.764 247.605)"/><path d="m141.013344-101.289531h-26.90625c-2.199219 0-3.984375-1.78125-3.984375-3.984375v-8.632813c0-2.203125 1.785156-3.984375 3.984375-3.984375h26.90625c2.199218 0 3.984375 1.78125 3.984375 3.984375v8.632813c0 2.203125-1.785157 3.984375-3.984375 3.984375zm0 0" fill="#d1d1e2" stroke="#000" stroke-miterlimit="10" stroke-width=".399" transform="matrix(1 0 0 -1 23.764 247.605)"/><g><use x="137.206" xlink:href="#f" y="359.684"/><use x="141.081" xlink:href="#j" y="359.684"/><use x="146.063" xlink:href="#g" y="359.684"/><use x="148.832" xlink:href="#k" y="359.684"/><use x="153.814" xlink:href="#g" y="359.684"/><use x="156.583" xlink:href="#h" y="359.684"/><use x="161.565" xlink:href="#i" y="359.684"/></g><path d="m98.802406-102.852031 11.121094-2.609375" fill="none" stroke="#000" stroke-miterlimit="10" stroke-width=".399" transform="matrix(1 0 0 -1 23.764 247.605)"/><path d="m44.345375-172.637187h-3.652344c-2.199218 0-3.984375-1.785157-3.984375-3.984375v-5.417969c0-2.199219 1.785157-3.984375 3.984375-3.984375h3.652344c2.203125 0 3.984375 1.785156 3.984375 3.984375v5.417969c0 2.199218-1.78125 3.984375-3.984375 3.984375zm0 0" fill="#d1d1e2" stroke="#000" stroke-miterlimit="10" stroke-width=".399" transform="matrix(1 0 0 -1 23.764 247.605)"/><use x="63.793" xlink:href="#k" y="430.304"/><path d="m1.571938-6.637187 39.316406-165.800782" fill="none" stroke="#000" stroke-miterlimit="10" stroke-width=".399" transform="matrix(1 0 0 -1 23.764 247.605)"/><path d="m94.618813-131.17625h-19.15625c-2.199219 0-3.984375-1.785156-3.984375-3.984375v-8.636719c0-2.199218 1.785156-3.984375 3.984375-3.984375h19.15625c2.199218 0 3.984375 1.785157 3.984375 3.984375v8.636719c0 2.199219-1.785157 3.984375-3.984375 3.984375zm0 0" fill="#d1d1e2" stroke="#000" stroke-miterlimit="10" stroke-width=".399" transform="matrix(1 0 0 -1 23.764 247.605)"/><g><use x="98.562" xlink:href="#f" y="389.572"/><use x="102.437" xlink:href="#k" y="389.572"/><use x="107.419" xlink:href="#g" y="389.572"/><use x="110.188" xlink:href="#e" y="389.572"/><use x="115.17" xlink:href="#i" y="389.572"/></g><path d="m48.528969-173.699687 27.441406 25.71875" fill="none" stroke="#000" stroke-miterlimit="10" stroke-width=".399" transform="matrix(1 0 0 -1 23.764 247.605)"/><path d="m141.013344-121.215312h-26.90625c-2.199219 0-3.984375-1.78125-3.984375-3.984375v-8.632813c0-2.203125 1.785156-3.984375 3.984375-3.984375h26.90625c2.199218 0 3.984375 1.78125 3.984375 3.984375v8.632813c0 2.203125-1.785157 3.984375-3.984375 3.984375zm0 0" fill="#d1d1e2" stroke="#000" stroke-miterlimit="10" stroke-width=".399" transform="matrix(1 0 0 -1 23.764 247.605)"/><g><use x="137.206" xlink:href="#f" y="379.61"/><use x="141.081" xlink:href="#k" y="379.61"/><use x="146.063" xlink:href="#g" y="379.61"/><use x="148.832" xlink:href="#e" y="379.61"/><use x="153.814" xlink:href="#g" y="379.61"/><use x="156.583" xlink:href="#h" y="379.61"/><use x="161.565" xlink:href="#i" y="379.61"/></g><path d="m98.802406-136.254375 11.121094 2.605469" fill="none" stroke="#000" stroke-miterlimit="10" stroke-width=".399" transform="matrix(1 0 0 -1 23.764 247.605)"/><path d="m141.013344-141.141094h-26.90625c-2.199219 0-3.984375-1.78125-3.984375-3.984375v-8.632812c0-2.199219 1.785156-3.984375 3.984375-3.984375h26.90625c2.199218 0 3.984375 1.785156 3.984375 3.984375v8.632812c0 2.203125-1.785157 3.984375-3.984375 3.984375zm0 0" fill="#d1d1e2" stroke="#000" stroke-miterlimit="10" stroke-width=".399" transform="matrix(1 0 0 -1 23.764 247.605)"/><g><use x="137.206" xlink:href="#f" y="399.535"/><use x="141.081" xlink:href="#k" y="399.535"/><use x="146.063" xlink:href="#g" y="399.535"/><use x="148.832" xlink:href="#e" y="399.535"/><use x="153.814" xlink:href="#g" y="399.535"/><use x="156.583" xlink:href="#j" y="399.535"/><use x="161.565" xlink:href="#i" y="399.535"/></g><path d="m98.802406-142.703594 11.121094-2.605468" fill="none" stroke="#000" stroke-miterlimit="10" stroke-width=".399" transform="matrix(1 0 0 -1 23.764 247.605)"/><path d="m94.618813-171.027812h-19.15625c-2.199219 0-3.984375-1.785157-3.984375-3.984375v-8.632813c0-2.203125 1.785156-3.988281 3.984375-3.988281h19.15625c2.199218 0 3.984375 1.785156 3.984375 3.988281v8.632813c0 2.199218-1.785157 3.984375-3.984375 3.984375zm0 0" fill="#d1d1e2" stroke="#000" stroke-miterlimit="10" stroke-width=".399" transform="matrix(1 0 0 -1 23.764 247.605)"/><g><use x="98.562" xlink:href="#f" y="429.423"/><use x="102.437" xlink:href="#k" y="429.423"/><use x="107.419" xlink:href="#g" y="429.423"/><use x="110.188" xlink:href="#h" y="429.423"/><use x="115.17" xlink:href="#i" y="429.423"/></g><path d="m48.528969-179.328594h22.75" fill="none" stroke="#000" stroke-miterlimit="10" stroke-width=".399" transform="matrix(1 0 0 -1 23.764 247.605)"/><path d="m141.013344-161.066875h-26.90625c-2.199219 0-3.984375-1.78125-3.984375-3.984375v-8.632812c0-2.199219 1.785156-3.984375 3.984375-3.984375h26.90625c2.199218 0 3.984375 1.785156 3.984375 3.984375v8.632812c0 2.203125-1.785157 3.984375-3.984375 3.984375zm0 0" fill="#d1d1e2" stroke="#000" stroke-miterlimit="10" stroke-width=".399" transform="matrix(1 0 0 -1 23.764 247.605)"/><g><use x="137.206" xlink:href="#f" y="419.46"/><use x="141.081" xlink:href="#k" y="419.46"/><use x="146.063" xlink:href="#g" y="419.46"/><use x="148.832" xlink:href="#h" y="419.46"/><use x="153.814" xlink:href="#g" y="419.46"/><use x="156.583" xlink:href="#e" y="419.46"/><use x="161.565" xlink:href="#i" y="419.46"/></g><path d="m98.802406-176.105937 11.121094 2.609375" fill="none" stroke="#000" stroke-miterlimit="10" stroke-width=".399" transform="matrix(1 0 0 -1 23.764 247.605)"/><path d="m141.013344-180.98875h-26.90625c-2.199219 0-3.984375-1.785156-3.984375-3.988281v-8.632813c0-2.199218 1.785156-3.984375 3.984375-3.984375h26.90625c2.199218 0 3.984375 1.785157 3.984375 3.984375v8.632813c0 2.203125-1.785157 3.988281-3.984375 3.988281zm0 0" fill="#d1d1e2" stroke="#000" stroke-miterlimit="10" stroke-width=".399" transform="matrix(1 0 0 -1 23.764 247.605)"/><g><use x="137.206" xlink:href="#f" y="439.385"/><use x="141.081" xlink:href="#k" y="439.385"/><use x="146.063" xlink:href="#g" y="439.385"/><use x="148.832" xlink:href="#h" y="439.385"/><use x="153.814" xlink:href="#g" y="439.385"/><use x="156.583" xlink:href="#j" y="439.385"/><use x="161.565" xlink:href="#i" y="439.385"/></g><path d="m98.802406-182.555156 11.121094-2.605469" fill="none" stroke="#000" stroke-miterlimit="10" stroke-width=".399" transform="matrix(1 0 0 -1 23.764 247.605)"/><path d="m94.618813-210.879375h-19.15625c-2.199219 0-3.984375-1.785156-3.984375-3.984375v-8.632812c0-2.203125 1.785156-3.984375 3.984375-3.984375h19.15625c2.199218 0 3.984375 1.78125 3.984375 3.984375v8.632812c0 2.199219-1.785157 3.984375-3.984375 3.984375zm0 0" fill="#d1d1e2" stroke="#000" stroke-miterlimit="10" stroke-width=".399" transform="matrix(1 0 0 -1 23.764 247.605)"/><g><use x="98.562" xlink:href="#f" y="469.273"/><use x="102.437" xlink:href="#k" y="469.273"/><use x="107.419" xlink:href="#g" y="469.273"/><use x="110.188" xlink:href="#j" y="469.273"/><use x="115.17" xlink:href="#i" y="469.273"/></g><path d="m48.528969-184.961406 27.441406-25.71875" fill="none" stroke="#000" stroke-miterlimit="10" stroke-width=".399" transform="matrix(1 0 0 -1 23.764 247.605)"/><path d="m141.013344-200.914531h-26.90625c-2.199219 0-3.984375-1.785156-3.984375-3.988281v-8.632813c0-2.199219 1.785156-3.984375 3.984375-3.984375h26.90625c2.199218 0 3.984375 1.785156 3.984375 3.984375v8.632813c0 2.203125-1.785157 3.988281-3.984375 3.988281zm0 0" fill="#d1d1e2" stroke="#000" stroke-miterlimit="10" stroke-width=".399" transform="matrix(1 0 0 -1 23.764 247.605)"/><g><use x="137.206" xlink:href="#f" y="459.311"/><use x="141.081" xlink:href="#k" y="459.311"/><use x="146.063" xlink:href="#g" y="459.311"/><use x="148.832" xlink:href="#j" y="459.311"/><use x="153.814" xlink:href="#g" y="459.311"/><use x="156.583" xlink:href="#e" y="459.311"/><use x="161.565" xlink:href="#i" y="459.311"/></g><path d="m98.802406-215.9575 11.121094 2.609375" fill="none" stroke="#000" stroke-miterlimit="10" stroke-width=".399" transform="matrix(1 0 0 -1 23.764 247.605)"/><path d="m141.013344-220.840312h-26.90625c-2.199219 0-3.984375-1.785157-3.984375-3.988282v-8.632812c0-2.199219 1.785156-3.984375 3.984375-3.984375h26.90625c2.199218 0 3.984375 1.785156 3.984375 3.984375v8.632812c0 2.203125-1.785157 3.988282-3.984375 3.988282zm0 0" fill="#d1d1e2" stroke="#000" stroke-miterlimit="10" stroke-width=".399" transform="matrix(1 0 0 -1 23.764 247.605)"/><g><use x="137.206" xlink:href="#f" y="479.236"/><use x="141.081" xlink:href="#k" y="479.236"/><use x="146.063" xlink:href="#g" y="479.236"/><use x="148.832" xlink:href="#j" y="479.236"/><use x="153.814" xlink:href="#g" y="479.236"/><use x="156.583" xlink:href="#h" y="479.236"/><use x="161.565" xlink:href="#i" y="479.236"/></g><path d="m98.802406-222.406719 11.121094-2.605468" fill="none" stroke="#000" stroke-miterlimit="10" stroke-width=".399" transform="matrix(1 0 0 -1 23.764 247.605)"/></svg>