<svg height="87.53pt" viewBox="0 0 283.46 87.53" width="283.46pt" xmlns="http://www.w3.org/2000/svg" xmlns:xlink="http://www.w3.org/1999/xlink"><symbol id="a" overflow="visible"><path d="m3.421875-4.578125c.046875-.234375.125-.5.203125-.671875l-.046875-.078125-.09375.015625c-.28125.078125-.40625.09375-1 .09375h-.1875l.25-1.34375c.1875-1.03125.53125-1.484375 1.078125-1.484375.359375 0 .671875.1875.859375.46875l.125-.046875c.046875-.1875.171875-.5625.265625-.796875l.0625-.1875c-.1875-.078125-.5625-.15625-.84375-.15625-.125 0-.3125.046875-.40625.09375-.296875.125-1.265625.859375-1.546875 1.140625-.265625.265625-.40625.625-.53125 1.296875l-.1875.953125c-.484375.234375-.734375.328125-1.03125.4375l-.0625.265625h.96875l-.109375.671875c-.34375 2.328125-.796875 4.546875-1.0625 5.375-.203125.703125-.5625 1.078125-1 1.078125-.265625 0-.40625-.078125-.625-.34375l-.15625.046875c-.046875.265625-.21875.84375-.28125.953125.109375.0625.28125.09375.421875.09375.484375 0 1.140625-.375 1.59375-.9375.734375-.859375 1-1.6875 1.875-5.890625.03125-.140625.125-.59375.21875-1.046875zm0 0"/></symbol><symbol id="b" overflow="visible"><path d="m.25-1.046875c0 .234375-.015625.390625-.09375.765625-.03125.15625-.03125.1875-.046875.265625.171875.09375.375.140625.515625.140625.390625 0 .859375-.34375 1.234375-.90625l.90625-1.390625.125.828125c.15625 1.015625.4375 1.46875.859375 1.46875.265625 0 .65625-.203125 1.03125-.546875l.578125-.515625-.09375-.234375c-.4375.359375-.734375.53125-.921875.53125s-.34375-.109375-.453125-.34375-.25-.671875-.3125-1.03125l-.203125-1.203125.421875-.578125c.546875-.78125.875-1.0625 1.25-1.0625.1875 0 .328125.109375.390625.28125l.171875-.046875.171875-1.015625c-.140625-.078125-.25-.125-.359375-.125-.46875 0-.953125.4375-1.6875 1.53125l-.453125.65625-.0625-.5625c-.140625-1.1875-.46875-1.625-1.171875-1.625-.3125 0-.578125.09375-.6875.25l-.6875 1 .203125.109375c.359375-.40625.59375-.5625.828125-.5625.390625 0 .65625.484375.859375 1.65625l.125.75-.46875.734375c-.515625.796875-.921875 1.1875-1.265625 1.1875-.171875 0-.3125-.046875-.328125-.109375l-.140625-.34375zm0 0"/></symbol><symbol id="c" overflow="visible"><path d="m4.125 2.984375c0-.03125 0-.0625-.21875-.265625-1.546875-1.578125-1.953125-3.921875-1.953125-5.828125 0-2.171875.46875-4.34375 2-5.890625.171875-.15625.171875-.171875.171875-.21875 0-.078125-.046875-.125-.125-.125-.125 0-1.25.84375-1.984375 2.4375-.640625 1.359375-.78125 2.75-.78125 3.796875 0 .96875.140625 2.46875.828125 3.875.734375 1.53125 1.8125 2.34375 1.9375 2.34375.078125 0 .125-.03125.125-.125zm0 0"/></symbol><symbol id="d" overflow="visible"><path d="m3.59375-3.109375c0-.96875-.125-2.484375-.8125-3.890625-.75-1.53125-1.828125-2.34375-1.953125-2.34375-.0625 0-.125.046875-.125.125 0 .046875 0 .0625.25.296875 1.21875 1.21875 1.921875 3.203125 1.921875 5.8125 0 2.125-.453125 4.3125-2 5.890625-.171875.140625-.171875.171875-.171875.203125 0 .078125.0625.125.125.125.125 0 1.25-.84375 1.984375-2.421875.640625-1.375.78125-2.75.78125-3.796875zm0 0"/></symbol><symbol id="e" overflow="visible"><path d="m.21875-3.484375.0625.1875.28125-.1875c.328125-.203125.359375-.234375.421875-.234375.09375 0 .15625.09375.15625.234375 0 .453125-.359375 2.1875-.734375 3.46875l.0625.09375c.234375-.0625.4375-.109375.640625-.15625.171875-1.125.359375-1.703125.765625-2.328125.484375-.75 1.15625-1.3125 1.5625-1.3125.09375 0 .15625.09375.15625.21875 0 .15625-.03125.359375-.109375.640625l-.46875 1.90625c-.078125.328125-.109375.53125-.109375.671875 0 .234375.09375.359375.265625.359375.234375 0 .5625-.1875 1.4375-.84375l-.09375-.15625-.234375.15625c-.25.171875-.453125.265625-.546875.265625-.0625 0-.109375-.078125-.109375-.1875 0-.03125 0-.140625.015625-.171875l.59375-2.484375c.0625-.25.09375-.5.09375-.65625 0-.203125-.09375-.328125-.28125-.328125-.375 0-.984375.34375-1.515625.84375-.34375.3125-.59375.609375-1.0625 1.265625l.34375-1.4375c.03125-.171875.046875-.265625.046875-.375 0-.1875-.0625-.296875-.203125-.296875-.1875 0-.53125.203125-1.1875.671875zm0 0"/></symbol><path d="m2579.101562 108.659375-2.382812.039062-5.15625.078125h-2.578125l-74.765625 1.132813-2.578125.078125-10.3125.15625-2.539063.039062-2.617187.078125-7.734375.117188-2.539062.039062-2.617188.078125-7.734375.117188-2.578125.078125-5.15625.078125-2.578125.078125-2.539063.039062-2.578124.039063-2.578126.078125-2.617187.039062-2.578125.078125-2.539062.039063-2.578126.039062-2.578124.078125-2.617188.039063-5.15625.15625-2.539062.039062-2.578126.078125-2.617187.039063-5.15625.15625-2.539063.039062-5.15625.15625-2.578124.039063-10.3125.3125-2.617188.078125-2.539062.078125-7.734376.234375-2.617187.078125-2.539063.078125-2.578124.078125-2.578126.117187-7.734374.234375-2.578126.117188-2.578124.078125-2.578126.117187-2.578124.078125-7.734376.351563-2.578124.078125-12.890626.585937-2.578124.15625-5.15625.234375-2.578126.15625-2.578124.117188-20.625 1.25-2.578126.195312-2.578124.15625-15.46875 1.171875-2.578126.234375-2.578124.195313-12.890626 1.171875-5.15625.546875-2.578124.234375-2.578126.3125-5.15625.546875-12.890624 1.5625-10.3125 1.40625-10.3125 1.5625-10.3125 1.71875-7.734376 1.40625-7.734374 1.523437-10.3125 2.1875-2.578126.585938-2.578124.625-2.578126.585937-2.578124.625-2.578126.664063-2.578124.625-2.578126.664062-7.734374 2.109375-7.734376 2.226563-5.15625 1.5625-5.15625 1.640625-5.15625 1.71875-7.734374 2.695312-2.578126.9375-7.734374 2.929688-5.15625 2.03125-5.15625 2.109375-5.15625 2.1875-5.15625 2.265625-2.578126 1.171875-7.734374 3.632812-5.15625 2.5-2.578126 1.289063-7.734374 3.984375-2.578126 1.367187-7.734374 4.21875-2.578126 1.484375-2.578124 1.445313-2.578126 1.484375-5.15625 3.046875-5.15625 3.125-5.15625 3.203125-2.578124 1.640625-2.539063 1.640625-2.617187 1.640625-2.578126 1.71875-2.578124 1.679687-2.578126 1.71875-2.539062 1.757813-2.617188 1.757812-2.578124 1.757813-5.15625 3.59375-5.15625 3.671875-5.15625 3.75-2.539063 1.875-5.15625 3.828125-2.617187 1.914062-2.578126 1.953125-2.539062 1.953125-2.578125 1.953125-2.578125 1.992188-2.617188 1.992187-5.15625 3.984375-2.539062 2.03125-2.578125 2.03125-2.617187 2.03125-2.578126 2.070313-2.578124 2.03125-2.539063 2.070312-12.890625 10.351563-2.578125 2.109375-2.578125 2.070312-2.578125 2.109375-5.15625 4.140625-2.578125 2.109375-2.578125 2.070313-2.617187 2.109375-2.539063 2.070312-10.3125 8.28125-12.890625 10.15625-7.734375 5.976563-5.15625 3.90625-2.578125 1.914062-2.578125 1.953125-2.578125 1.875-2.578125 1.914063-2.578125 1.835937-2.578125 1.875-2.578125 1.796875-2.578125 1.835938-2.578125 1.757812-2.578125 1.796875-5.15625 3.4375-5.15625 3.359375-5.15625 3.28125-5.15625 3.125-5.15625 3.046875-2.578125 1.484375-2.578125 1.445313-2.578125 1.40625-5.15625 2.734375-2.578125 1.328125-2.578125 1.289062-2.578125 1.25-2.578125 1.210938-5.15625 2.34375-5.15625 2.1875-2.578125 1.054687-5.15625 1.953125-2.578125.9375-5.15625 1.796875-2.578125.820313-2.578125.78125-2.578125.742187-5.15625 1.40625-2.578125.625-5.15625 1.171875-5.15625 1.015625-5.15625.859375-2.578125.390625-5.15625.625-2.578125.273438-2.578125.234375-2.578125.195312-2.578125.15625-2.578125.117188-2.578125.078125-2.578125.039062h-5.15625l-2.578125-.039062-5.15625-.234375-5.15625-.3125-5.15625-.46875-2.578125-.273438-5.15625-.625-7.734375-1.171875-2.578125-.46875-2.578125-.429687-5.15625-1.015625-5.15625-1.09375-5.15625-1.171875-2.578125-.625-2.578125-.664063-2.578125-.625-2.578125-.664062-7.734375-2.109375-7.734375-2.226563-2.578125-.78125-2.578125-.742187-7.734375-2.34375-2.578125-.820313-5.15625-1.5625-2.578125-.820312-2.578125-.78125-2.578125-.820313-2.578125-.78125-2.578125-.820312-7.734375-2.34375-2.578125-.742188-2.578125-.78125-7.734375-2.226562-5.15625-1.40625-2.539062-.703125-2.617188-.664063-2.578125-.664062-5.15625-1.25-5.15625-1.171875-2.578125-.546875-5.15625-1.015625-2.578125-.46875-2.539063-.46875-2.617187-.429688-2.578125-.390625-2.578125-.351562-2.578125-.3125-2.539062-.3125-2.617188-.273438-2.578125-.234375-2.578125-.195312-2.539062-.15625-2.578126-.117188-2.617187-.078125-2.578125-.039062h-5.117188l-2.578124.078125-2.578126.117187-2.617187.195313-2.578125.195312-2.539062.273438-2.578126.273437-2.578124.351563-2.617188.390625-2.539062.46875-2.578126.507812-2.578124.546875-2.578126.585938-2.617187.664062-2.539063.703125-2.578124.742188-2.578126.820312-2.578124.859375-2.578126.9375-2.578124.976563-2.578126 1.054687-2.578124 1.09375-2.578126 1.171875-2.578124 1.210938-2.617188 1.289062-2.539062 1.367188-2.578126 1.40625-2.578124 1.484375-2.578126 1.523437-2.578124 1.601563-2.578126 1.679687-2.578124 1.71875-2.578126 1.796875-2.578124 1.875-2.578126 1.914063-2.578124 2.03125-2.578126 2.070312-2.578124 2.148438-2.578126 2.1875-2.578124 2.304687-2.578126 2.34375-2.578124 2.421875-2.578126 2.5-2.578124 2.539063-2.578126 2.65625-2.578124 2.695312-2.578126 2.773438-5.15625 5.78125-2.578124 3.007812-2.578126 3.085938-2.578124 3.125-2.578126 3.203125-2.578124 3.28125-2.578126 3.359375-2.578124 3.4375-2.578126 3.476562-2.578124 3.554688-2.578126 3.632812-2.578124 3.671875-2.578126 3.789063-2.578124 3.828125-2.578126 3.867187-2.578124 3.945313-2.578126 4.023437-2.578124 4.0625-2.578126 4.140625-2.578124 4.179688-2.578126 4.21875-5.15625 8.59375-2.578124 4.375-5.15625 8.90625-2.578126 4.492187-5.15625 9.0625-2.578124 4.570313-5.15625 9.21875-5.15625 9.296875-2.578126 4.609375-2.578124 4.648437-2.578126 4.609375-2.578124 4.648438-5.15625 9.140625-5.15625 9.0625-2.578126 4.453125-5.15625 8.75-2.578124 4.257812-2.578126 4.21875-2.578124 4.140625-2.578126 4.023438-2.578124 3.984375-2.578126 3.828125-2.578124 3.75-2.578126 3.632812-2.578124 3.515625-2.578126 3.359375-2.578124 3.242188-2.578126 3.125-2.578124 2.929687-2.578126 2.8125-2.578124 2.617188-2.578126 2.460937-2.578124 2.265625-2.578126 2.109375-2.578124 1.953125-2.578126 1.71875-2.578124 1.523438-2.578126 1.367187-2.578124 1.132813-2.578126.9375-2.578124.703125-2.578126.507812-2.578124.3125-2.578126.117188-2.578124-.117188-2.578126-.351562-2.578124-.546875-2.578126-.742188-2.578124-.976562-2.578126-1.171875-2.578124-1.367188-2.578126-1.5625-2.578124-1.796875-2.578126-1.992187-2.578124-2.148438-2.578126-2.34375-2.578124-2.539062-2.578126-2.734375-2.578124-2.851563-2.578126-3.046875-2.578124-3.203125-2.578126-3.398437-2.578124-3.476563-2.578126-3.671875-2.578124-3.75-2.578126-3.90625-2.578124-4.023437-2.578126-4.140625-2.578124-4.257813-2.578126-4.335937-2.578124-4.453125-2.578126-4.492188-2.578124-4.609375-2.578126-4.648437-2.578124-4.726563-2.578126-4.804687-2.578124-4.84375-2.578126-4.882813-5.15625-9.84375-2.539062-5-2.617188-5-2.578124-5.039062-2.578126-5-2.578124-5.039063-2.578126-5.078125-2.578124-5.039062-2.578126-5-2.578124-5.039063-5.15625-10-2.539063-4.960937-2.617187-4.960938-2.578126-4.921875-2.578124-4.882812-2.539063-4.84375-2.578125-4.804688-2.617188-4.804687-2.578124-4.726563-2.578126-4.6875-2.539062-4.6875-2.578125-4.609375-2.617187-4.570312-5.15625-8.984375-2.539063-4.414063-2.578125-4.375-2.578125-4.296875-2.617187-4.257812-2.578126-4.21875-2.539062-4.179688-2.578125-4.101562-2.578125-4.0625-2.578125-3.984375-2.578125-3.945313-2.578125-3.90625-2.578125-3.828125-2.578125-3.789062-2.578125-3.710938-2.578125-3.671875-2.578125-3.632812-2.578125-3.554688-2.578125-3.515625-2.578125-3.476562-2.578125-3.398438-2.578125-3.359375-5.15625-6.5625-2.578125-3.203125-5.15625-6.25-2.578125-3.046875-2.578125-3.007812-5.15625-5.859375-2.578125-2.851563-2.578125-2.8125-2.578125-2.773437-2.578125-2.734375-2.578125-2.695313-5.15625-5.234375-2.578125-2.539062-2.578125-2.5-5.15625-4.921875-2.578125-2.382813-2.578125-2.34375-2.578125-2.304687-2.578125-2.265625-5.15625-4.453125-5.15625-4.296875-5.15625-4.140625-2.578125-2.03125-2.578125-1.992188-2.578125-1.953125-5.15625-3.828125-2.578125-1.875-2.578125-1.835937-2.578125-1.796875-5.15625-3.515625-5.15625-3.4375-5.15625-3.28125-5.15625-3.203125-2.578125-1.5625-5.15625-3.046875-5.15625-2.96875-2.578125-1.40625-2.578125-1.445313-2.578125-1.40625-2.578125-1.367187-2.578125-1.328125-2.578125-1.367188-7.734375-3.867187-2.578125-1.25-2.578125-1.210938-2.578125-1.25-7.734375-3.515625-5.15625-2.265625-7.734375-3.28125-5.15625-2.109375-7.734375-3.046875-5.15625-1.953125-7.734375-2.8125-2.578125-.898437-2.578125-.9375-2.578125-.859375-2.578125-.898438-5.15625-1.71875-10.3125-3.28125-10.3125-3.125-5.15625-1.484375-2.578125-.703125-2.578125-.742187-7.734375-2.109375-12.890625-3.320313-10.3125-2.5-2.578125-.585937-2.578125-.625-7.734375-1.757813-5.15625-1.09375-2.578125-.585937-2.578125-.546875-2.578125-.507813-5.15625-1.09375-10.3125-2.03125-2.578125-.46875-2.578125-.507812-2.578125-.46875-2.578125-.507813-5.15625-.9375-2.578125-.429687-2.578125-.46875-2.578125-.429688-2.578125-.46875-12.890625-2.148437-2.578125-.390625-2.578125-.429688-12.890625-1.953125-2.539062-.390625-2.578126-.351562-2.578124-.390625-2.578126-.351563-2.617187-.390625-7.734375-1.054687-2.539062-.351563-2.578126-.351562-2.578124-.3125-2.578126-.351563-2.617187-.3125-2.578125-.351562-5.15625-.625-2.539062-.351563-7.734376-.9375-2.578124-.273437-5.15625-.625-2.578126-.273438-2.578124-.3125-5.15625-.546875-2.578126-.3125-15.46875-1.640625-2.578124-.234375-5.15625-.546875-2.578126-.234375-2.578124-.273437-5.15625-.46875-2.578126-.273438-20.625-1.875-2.578124-.195312-5.15625-.46875-2.578126-.195313-2.578124-.234375-2.578126-.195312-2.578124-.234375-7.734376-.585938-2.578124-.234375-20.625-1.5625-2.578126-.15625-5.15625-.390625-2.578124-.15625-5.15625-.390625-2.578126-.15625-2.578124-.195312-5.15625-.3125-2.578126-.195313-5.15625-.3125-2.578124-.195312-33.515626-2.03125-2.578124-.117188-5.15625-.3125-2.578126-.117187-5.15625-.3125-2.578124-.117188-2.578126-.15625-2.578124-.117187-2.578126-.15625-2.578124-.117188-2.578126-.15625-5.15625-.234375-2.578124-.15625-5.15625-.234375-2.578126-.15625-10.3125-.46875-2.578124-.15625-23.203126-1.054687-2.578124-.078125-12.890626-.585938-2.578124-.078125-5.15625-.234375-2.578126-.078125-5.15625-.234375-2.578124-.078125-5.15625-.234375-2.578126-.078125-2.578124-.117187-2.578126-.078125-2.578124-.117188-2.578126-.078125-2.578124-.117187-2.578126-.078125-2.578124-.117188-5.15625-.15625-2.578126-.117187-5.15625-.15625-2.578124-.117188-5.15625-.15625-2.578126-.117187-7.734374-.234375-2.578126-.117188-10.3125-.3125-2.382812-.078125" style="fill:none;stroke-width:4.99886;stroke-linecap:round;stroke-linejoin:round;stroke:#000;stroke-miterlimit:10" transform="matrix(.1 0 0 -.1 0 87.53)"/><path d="m265.40625 76.757812-.25-.070312-.246094-.070312-.25-.070313-.246094-.070313-.25-.066406-.246093-.070312-.25-.070313-.246094-.070312-.25-.070313-.246094-.066406-.5-.140625-.246093-.070313-.25-.070312-.246094-.070312-.25-.070313-.246094-.066406-.25-.070313-.246094-.070312-.25-.070313-.246094-.070312-.25-.070313-.246093-.070312-.5-.140625-.246094-.070313-.25-.066406-.492187-.140625-.25-.070313-.023438-.007812-.054688 4.015625.027344-.007813.75-.1875.25-.066406.75-.1875.25-.066406.75-.1875.25-.066406.75-.1875.25-.066406.5-.125.25-.066407.246094-.0625.25-.0625.25-.066406.5-.125.25-.066406.5-.125.25-.066407z"/><path d="m2654.0625 107.721875-2.5.703125-2.460938.703125-2.5.703125-2.460937.703125-2.5.664062-2.460937.703125-2.5.703125-2.460938.703125-2.5.703125-2.460938.664063-5 1.40625-2.460937.703125-2.5.703125-2.460937.703125-2.5.703125-2.460938.664062-2.5.703125-2.460938.703125-2.5.703125-2.460937.703125-2.5.703125-2.460937.703125-5 1.40625-2.460938.703125-2.5.664063-4.921875 1.40625-2.5.703125-.234375.078125-.546875-40.15625.273437.078125 7.5 1.875 2.5.664062 7.5 1.875 2.5.664063 7.5 1.875 2.5.664062 7.5 1.875 2.5.664063 5 1.25 2.5.664062 2.460938.625 2.5.625 2.5.664063 5 1.25 2.5.664062 5 1.25 2.5.664063zm0 0" style="fill:none;stroke-width:4.99886;stroke-linecap:round;stroke-linejoin:round;stroke:#000;stroke-miterlimit:10" transform="matrix(.1 0 0 -.1 0 87.53)"/><path d="m7.613281 76.113281.253907.0625.5.117188.25.0625.25.058593.253906.058594.25.0625.5.117188.253906.0625.5.117187.25.0625.253906.058594.75.175781.253906.0625.75.175782.253907.058593.25.0625.5.117188.253906.058593.5.117188.253906.058594.25.058594.03125.007812-.128906-4.019531-.019531.003906-.246094.078125-.25.074219-.984375.296875-.25.074218-.738281.222657-.25.074219-.984375.296874-.25.074219-.738281.222657-.25.074218-.492188.148438-.25.070312-.738281.222656-.25.074219-.246094.074219-.246094.070312z"/><path d="m76.132812 114.167187 2.539063-.625 5-1.171875 2.5-.625 2.5-.585937 2.539063-.585938 2.5-.625 5-1.171875 2.539062-.625 5-1.171875 2.5-.625 2.539062-.585937 7.5-1.757813 2.539063-.625 7.5-1.757812 2.539063-.585938 2.5-.625 5-1.171875 2.539062-.585937 5-1.171875 2.539062-.585938 2.5-.585937.3125-.078125-1.289062 40.195312-.195312-.039062-2.460938-.78125-2.5-.742188-9.84375-2.96875-2.5-.742187-7.382812-2.226563-2.5-.742187-9.84375-2.96875-2.5-.742188-7.382813-2.226562-2.5-.742188-4.921875-1.484375-2.5-.703125-7.382812-2.226562-2.5-.742188-2.460938-.742187-2.460938-.703125zm0 0" style="fill:none;stroke-width:4.99886;stroke-linecap:round;stroke-linejoin:round;stroke:#000;stroke-miterlimit:10" transform="matrix(.1 0 0 -.1 0 87.53)"/><path d="m7.613281 76.113281.261719-.007812.257812-.003907.253907-.007812.257812-.007812.261719-.007813.257812-.007813.253907-.003906.257812-.007812.261719-.007813.773438-.023437.257812-.003906.253906-.007813 3.351563-.101563.257812-.011718 1.546875-.046875.257813-.011719.773437-.023438.257813-.011718.515625-.015625.257812-.011719.515625-.015625.257813-.011719.515625-.015625.257812-.011719.257813-.007812.257812-.011719.257813-.007812.257812-.011719.257813-.007812.257812-.011719.257813-.007813.515625-.023437.257812-.007813.515625-.023437.257813-.007813.515625-.023437.257812-.007813 1.289063-.058594.257812-.007812 2.320313-.105469.257812-.015625 1.03125-.046875.257813-.015625.515625-.023437.257812-.015625.515625-.023438.257813-.015625.257812-.011719.257813-.015624.257812-.011719.257813-.015625.257812-.011719.515625-.03125.257813-.011719.515625-.03125.257812-.011718 3.351563-.203126.257812-.019531.515625-.03125.257813-.019531.515625-.03125.257812-.019531.257813-.015625.515625-.039063.257812-.015625.515625-.039062.257813-.015625 2.0625-.15625.257812-.023438.773438-.058593.257812-.023438.257813-.019531.257812-.023438.257813-.019531.515625-.046875.257812-.019531 2.0625-.1875.257813-.027344.515625-.046875.257812-.027344.257813-.023437.515625-.054688.257812-.023437 1.546875-.164063.257813-.03125.515625-.054687.257812-.03125.257813-.027344.515625-.0625.257812-.027344.773438-.09375.253906-.035156.515625-.0625.257813-.035156.261718-.03125.257813-.035157.257812-.03125.257813-.035156.253906-.035156.773438-.105469.261718-.039062.257813-.035157.257812-.039062.257813-.035156.253906-.039063 1.289062-.195312.257813-.042969.257813-.039062 1.289062-.214844.257812-.046875.257813-.042969.257813-.046875.257812-.042969.515625-.09375.257813-.050781.257812-.046875.257812-.050781.257813-.046875 1.03125-.203125.515625-.109375.257812-.050782.257813-.054687.257813-.058594.515624-.109375.773438-.175781.257812-.0625.257813-.058594 1.03125-.25 1.289063-.332031.773437-.210938.257813-.074218.257812-.070313.515625-.148437 1.03125-.3125 1.03125-.328125.515625-.171875.257812-.089844.257813-.085938.257813-.09375.257812-.089843.773438-.28125.515624-.195313.773438-.304687.515625-.210938.773437-.328125.515626-.226562.773437-.351563.257813-.125.257812-.121093.257812-.125.773438-.386719.257812-.136719.257813-.132812.257813-.136719.257812-.140625.257812-.144532.257813-.140624.515625-.296876.515625-.304687.257813-.15625.515624-.320313.515626-.328124.515624-.34375.515626-.351563.257812-.179687.257812-.183594.257813-.1875.515625-.382813.257812-.195312.257813-.199219.257813-.203125.515624-.414063.515626-.429687.515624-.445313.257813-.226562.257813-.230469.257812-.234375.257812-.238281.515626-.492187.257812-.25.257812-.253907.515626-.523437.257812-.269532.257812-.273437.257813-.277344.257813-.28125.257812-.285156.515625-.585937.257813-.300782.257812-.304687.515625-.625.257813-.320313.515624-.65625.257813-.335937.257813-.339844.257812-.347656.257812-.351563.257813-.355468.257813-.363282.257812-.367187.257812-.371094.257813-.378906.257813-.382813.257812-.390625.257812-.394531.257813-.398438.257813-.40625.257812-.410156.253906-.417968.257813-.421876.261719-.425781.257812-.429687.257812-.4375.253907-.441406.515625-.898438.261718-.457031.257813-.460938.253906-.46875.257813-.46875.257812-.472656.261719-.480469.257813-.480468.253906-.484376.257812-.488281.257813-.492187.261719-.496094.253906-.496094.515625-1 .257812-.503906.257813-.5.257812-.503906.257813-.507813.257812-.503906.257813-.5.257812-.503906.261719-.5.253906-.5.515625-.984375.257813-.488282.257812-.484374.257813-.480469.257812-.472657.257813-.464843.257812-.460938.257813-.449219.257812-.445312.257813-.433594.257812-.425781.257813-.414063.257812-.402343.257813-.390625.257812-.375.257813-.367188.257812-.347656.257813-.339844.257812-.320312.257813-.304688.257812-.285156.257813-.273438.257812-.253906.257813-.234375.257812-.214843.257813-.199219.257812-.179688.257813-.15625.257812-.136719.257813-.117187.257812-.097656.257813-.074219.257812-.054688.257813-.035156.257812-.011718.257813.011718.257812.03125.257813.050782.257812.070312.257813.09375.257812.113281.257813.136719.257812.152344.257813.171875.257812.195312.257813.210938.257812.226562.257813.246094.257812.261719.257813.28125.257812.292968.257813.3125.257812.324219.257813.335938.257812.351562.257813.363281.257812.375.257813.382813.257812.398437.257813.402344.257812.414063.257813.421875.257812.425781.515625.875.257813.445313.515625.90625.515625.914062.257812.464844.257813.460937.257812.464844.257813.460937.515625.929688.515625.921875.257812.457031.515625.90625.257813.449219.515625.890625.257812.4375.515625.859375.257813.421875.257812.417969.257813.414062.257812.40625.257813.402344.257812.394531.257813.386719.257812.382813.257813.378906.257812.367187.257813.363281.257812.355469.257813.347657.257812.34375.257813.335937.257812.328125.257813.320312.257812.3125.257813.308594.257812.300782.515625.578124.257813.277344.257812.269532.257813.265624.257812.253907.257813.25.257812.242187.257813.234375.257812.230469.257813.21875.257812.214844.257813.207031.257812.203125.257813.191406.257812.1875.257813.179688.257812.171875.257813.167969.257812.160156.257813.152344.257812.148437.257813.140625.253906.136719.261719.128906.257812.121094.257813.117187.257812.109375.257813.105469.257812.097656.257813.09375.257812.085938.257813.082031.257812.074219.253906.070312.261719.066406.257813.058594.257812.054688.257813.050781.253906.046875.261719.039062.257812.035157.257813.027343.253906.027344.257813.019532.261718.019531.257813.011719.257812.007812h.511719l.257812-.003906.261719-.007813.257813-.011719.253906-.015624.257812-.019532.257813-.023437.261719-.027344.253906-.03125.257812-.03125.257813-.035156.257813-.039063.261718-.042968.253906-.046876.257813-.046874.515625-.101563.257812-.054687.515626-.117188.515624-.125.257813-.066406.261719-.066406.253906-.070313.515625-.140625.773437-.222656.257813-.078125.257813-.074219.773437-.234375.257813-.082031.257812-.078125.257812-.082031.257813-.078126.257813-.082031.515624-.15625.257813-.082031.773437-.234375.257813-.074219.257813-.078125.773437-.222656.773437-.210937.257813-.066407.257813-.0625.257812-.066406.257812-.0625.515626-.117187.515624-.109376.515626-.101562.257812-.042969.257812-.046875.773438-.117187.515625-.0625.257813-.027344.515624-.046875.515626-.03125.515624-.023438.257813-.003906h.515625l.257812.003906.257813.007813.257813.011719.257812.015625.257812.019531.257813.023438.257813.027343.515624.0625.257813.039063.515625.085937.515625.101563.515625.117187.257812.0625.515626.140625.257812.074219.257812.078125.257813.082031.515625.179688.257812.09375.515626.195312.257812.105469.515625.21875.515625.234375.257812.121094.257813.125.257813.128906.257812.132813.515625.273437.257813.140625.257812.144531.257812.148438.515626.304687.515624.3125.515626.328125.515624.335938.515626.34375.257812.179687.257812.175782.257813.183593.257813.179688.257812.1875.257812.183593.257813.191407.257813.1875.257812.195312.257812.191407.515626.390624.773437.597657 1.289063 1.015625 1.03125.828125.253906.207031.261718.210938.257813.207031.257813.210937.515624.414063.257813.210937.257813.207032.257812.210937 1.289062 1.035156.253907.207031.257812.203126.257813.207031.261718.203125.257813.203125.253906.203125.515625.398437.261719.199219.257813.199219.257812.195312.253906.195313.257813.195312.261719.191406.515624.382813.253907.1875.515625.375.515625.367187.515625.359376.257812.175781.261719.175781.253906.175781.257813.171875.257812.167969.257813.171875.261719.164062.253906.164063.257812.164063.515625.320312.515625.3125.515625.304688.257813.148437.257812.144531.257813.148438.773437.421875.257813.136719.773437.398437.257813.128906.515625.25.773437.363281.257813.117188.515625.226562.515625.21875.515625.210938.515625.203125.773437.292969.257813.09375.773437.269531.515625.171875.515625.164062.515625.15625.773438.222657.773437.210937.257813.066406.257812.0625.257813.066407.257812.0625.257813.058593.257812.0625.257813.058594 1.03125.21875.773437.152344.773438.140625 1.03125.171875 1.03125.15625 1.03125.140625 1.289062.15625.515625.054687.257813.03125.257812.023438.515625.054688 1.289063.117187.257812.019531.257813.023438 1.546875.117187.257812.015625.257813.019532 2.0625.125.257812.011718.257813.015625.515625.023438.257812.015625 1.289063.058594.257812.007812.773438.035156.257812.007813.257813.011719.257812.007812.257813.011719.773437.023437.257813.011719.257812.007813.253906.007812.261719.007812.773438.023438.253906.007812.261719.007813 1.03125.03125.257812.003906.515625.015625.253907.003906.515624.015626.261719.003906.257813.007812.253906.003906.515625.015626.261719.003906.257812.007812.257813.003906.253906.003907.257813.007812.261718.003907.257813.007812.257812.003906.253907.003906.257812.007813.515625.007813.257813.007812.773437.011719.261719.007812.253906.003907.773438.011718.261718.007813.253906.003906 1.03125.015625.257813.007812 7.476563.113282h.257812l1.804688.027344h.257812l1.546875.023437h.257813l1.03125.015625h.257812l1.03125.015625h.257812l.773438.011719h.257812l.773438.011718 7.367188.847657h-272.523438z" fill="#191970" fill-opacity=".8"/><path d="m2579.101562 109.83125-2.382812.039062-48.984375.742188-2.578125.078125-20.625.3125-2.578125.078125-12.890625.195312-2.578125.078125-5.15625.078125-2.539063.039063-2.617187.078125-7.734375.117187-2.539062.078125-2.617188.039063-5.15625.078125-2.578125.078125-5.15625.078125-2.578125.078125-2.578125.039062-2.539063.039063-2.578124.078125-2.578126.039062-2.617187.078125-2.578125.039063-2.539062.039062-2.578126.078125-2.578124.039063-2.617188.078125-2.578125.039062-2.578125.078125-2.539062.039063-2.578126.078125-2.617187.078125-2.578125.039062-2.578125.078125-2.539063.039063-5.15625.15625-2.578124.039062-5.15625.15625-2.578126.039063-2.578124.078125-2.617188.078125-2.539062.078125-5.15625.15625-2.578126.039062-2.617187.078125-2.539063.078125-12.890624.390625-2.578126.117188-10.3125.3125-2.578124.117187-2.578126.078125-2.578124.117188-2.578126.078125-2.578124.117187-2.578126.078125-2.578124.117188-2.578126.078125-5.15625.234375-2.578124.078125-15.46875.703125-2.578126.15625-5.15625.234375-2.578124.15625-2.578126.117187-2.578124.15625-2.578126.117188-15.46875.9375-2.578124.195312-5.15625.3125-5.15625.390625-2.578126.15625-5.15625.390625-2.578124.234375-5.15625.390625-2.578126.234375-2.578124.195313-7.734376.703125-2.578124.273437-2.578126.234375-2.578124.273438-2.578126.234375-7.734374.820312-2.578126.3125-2.578124.273438-10.3125 1.25-12.890626 1.757812-12.890624 1.953125-5.15625.859375-2.578126.46875-2.578124.429688-7.734376 1.40625-7.734374 1.523437-2.578126.546875-2.578124.507813-2.578126.585937-2.578124.546875-7.734376 1.757813-7.734374 1.875-7.734376 1.992187-5.15625 1.40625-10.3125 2.96875-2.578124.78125-10.3125 3.28125-5.15625 1.71875-5.15625 1.796875-7.734376 2.8125-5.15625 1.953125-7.734374 3.046875-5.15625 2.109375-5.15625 2.1875-7.734376 3.398438-5.15625 2.34375-5.15625 2.421875-2.578124 1.25-2.539063 1.25-2.617187 1.25-5.15625 2.578125-2.578126 1.328125-2.539062 1.328125-2.617188 1.328125-5.15625 2.734375-7.734374 4.21875-5.15625 2.890625-2.539063 1.484375-5.15625 2.96875-2.617187 1.484375-2.578126 1.523437-2.539062 1.5625-2.578125 1.523438-2.578125 1.5625-2.617188 1.5625-5.15625 3.203125-2.539062 1.601562-2.578125 1.601563-2.617187 1.640625-2.578126 1.601562-2.578124 1.640625-2.539063 1.679688-2.578125 1.640625-7.734375 5.039062-2.578125 1.71875-2.578125 1.679688-2.578125 1.71875-2.578125 1.679687-7.734375 5.15625-2.578125 1.757813-2.617187 1.71875-2.539063 1.71875-2.578125 1.71875-2.578125 1.757812-2.578125 1.71875-2.578125 1.757813-7.734375 5.15625-2.578125 1.757812-7.734375 5.15625-2.578125 1.679688-2.578125 1.71875-2.578125 1.679687-2.578125 1.71875-5.15625 3.359375-2.578125 1.640625-2.578125 1.679688-5.15625 3.28125-2.578125 1.601562-2.578125 1.640625-2.578125 1.601563-10.3125 6.25-5.15625 3.046875-5.15625 2.96875-5.15625 2.890625-5.15625 2.8125-5.15625 2.734375-5.15625 2.65625-5.15625 2.578125-2.578125 1.25-5.15625 2.421875-5.15625 2.34375-2.578125 1.132812-2.578125 1.09375-5.15625 2.109375-5.15625 2.03125-2.578125.976563-2.578125.9375-5.15625 1.796875-2.578125.859375-5.15625 1.640625-7.734375 2.226562-5.15625 1.328125-5.15625 1.25-5.15625 1.09375-5.15625 1.015625-5.15625.859375-5.15625.78125-2.578125.3125-2.578125.351563-2.578125.273437-7.734375.703125-5.15625.3125-5.15625.234375-2.578125.078125-5.15625.078125h-2.578125l-5.15625-.078125-5.15625-.15625-5.15625-.234375-2.578125-.15625-2.578125-.195312-2.578125-.15625-7.734375-.703125-7.734375-.820313-7.734375-.9375-5.15625-.703125-2.578125-.390625-2.578125-.351562-7.734375-1.171875-2.578125-.429688-2.578125-.390625-2.578125-.429687-2.578125-.390625-15.46875-2.578125-2.578125-.390625-5.15625-.859375-5.15625-.78125-2.578125-.429688-2.578125-.351562-2.539062-.390625-2.617188-.390625-5.15625-.703125-10.3125-1.25-2.578125-.273438-5.15625-.46875-2.539063-.234375-2.617187-.195312-2.578125-.195313-2.578125-.15625-2.578125-.117187-2.539062-.117188-2.617188-.078125-2.578125-.078125h-2.578125l-2.539062-.039062-2.578126.039062-2.617187.039063-2.578125.078125-2.578125.117187-2.539063.15625-2.578124.15625-2.578126.234375-2.617187.234375-2.578125.273438-2.539062.3125-2.578126.351562-2.578124.390625-2.617188.429688-2.539062.46875-2.578126.507812-2.578124.546875-2.578126.625-2.617187.625-2.539063.664063-2.578124.742187-2.578126.78125-2.578124.820313-2.578126.859375-2.578124.898437-2.578126.976563-2.578124 1.015625-2.578126 1.054687-2.578124 1.09375-2.617188 1.171875-2.539062 1.210938-2.578126 1.289062-2.578124 1.328125-2.578126 1.367188-2.578124 1.445312-5.15625 3.046875-5.15625 3.28125-2.578126 1.757813-2.578124 1.796875-2.578126 1.835937-2.578124 1.914063-2.578126 1.992187-2.578124 2.03125-2.578126 2.109375-2.578124 2.1875-2.578126 2.265625-2.578124 2.304688-2.578126 2.382812-2.578124 2.421875-2.578126 2.539063-2.578124 2.578125-2.578126 2.65625-2.578124 2.695312-2.578126 2.8125-2.578124 2.890625-2.578126 2.929688-2.578124 3.007812-2.578126 3.085938-2.578124 3.164062-2.578126 3.242188-2.578124 3.320312-2.578126 3.398438-2.578124 3.476562-2.578126 3.554688-2.578124 3.59375-2.578126 3.710937-2.578124 3.789063-2.578126 3.828125-2.578124 3.945312-2.578126 4.023438-2.578124 4.0625-2.578126 4.179687-2.578124 4.21875-2.578126 4.335938-2.578124 4.375-2.578126 4.492187-2.578124 4.53125-2.578126 4.609375-2.578124 4.726563-2.578126 4.765625-2.578124 4.84375-2.578126 4.882812-2.578124 5-2.578126 5.039063-2.578124 5.117187-2.578126 5.15625-2.578124 5.234375-2.578126 5.3125-2.578124 5.351563-2.578126 5.429687-2.578124 5.46875-2.578126 5.507813-2.578124 5.546875-5.15625 11.25-5.15625 11.40625-5.15625 11.484375-5.15625 11.5625-2.578126 5.820312-2.578124 5.78125-2.578126 5.820313-2.578124 5.78125-7.734376 17.226562-2.578124 5.664063-2.578126 5.625-2.578124 5.585937-2.578126 5.546875-2.578124 5.429688-2.578126 5.390625-2.578124 5.3125-2.578126 5.195312-2.578124 5.078125-2.578126 5-2.578124 4.882813-2.578126 4.765625-2.578124 4.609375-2.578126 4.453125-2.578124 4.335937-2.578126 4.140625-2.578124 4.023438-2.578126 3.789062-2.578124 3.632813-2.578126 3.4375-2.578124 3.242187-2.578126 3.046875-2.578124 2.8125-2.578126 2.578125-2.578124 2.382813-2.578126 2.148437-2.578124 1.875-2.578126 1.679688-2.578124 1.40625-2.578126 1.171875-2.578124.898437-2.578126.664063-2.578124.429687-2.578126.117188-2.578124-.078125-2.578126-.390625-2.578124-.625-2.578126-.859375-2.578124-1.132813-2.578126-1.40625-2.578124-1.640625-2.578126-1.875-2.578124-2.109375-2.578126-2.34375-2.578124-2.578125-2.578126-2.8125-2.578124-3.046875-2.578126-3.242187-2.578124-3.4375-2.578126-3.632813-2.578124-3.867187-2.578126-4.023438-2.539062-4.179687-2.617188-4.375-2.578124-4.53125-2.578126-4.648438-2.578124-4.84375-2.578126-4.960937-2.578124-5.078125-2.578126-5.195313-2.578124-5.3125-2.578126-5.390625-2.578124-5.507812-2.539063-5.585938-2.617187-5.664062-2.578126-5.742188-2.578124-5.78125-2.539063-5.859375-2.578125-5.898437-2.617188-5.9375-2.578124-5.9375-2.578126-6.015625-2.539062-6.015625-2.578125-6.015625-2.617187-6.015625-2.578126-6.054688-2.578124-6.015625-2.539063-6.054687-2.578125-6.015625-2.578125-5.976563-2.617187-5.976562-2.578126-5.9375-2.539062-5.9375-5.15625-11.71875-2.578125-5.820313-2.578125-5.78125-2.578125-5.703125-2.578125-5.664062-2.578125-5.625-2.578125-5.585938-2.578125-5.507812-2.578125-5.46875-2.578125-5.429688-2.578125-5.351562-2.578125-5.273438-2.578125-5.234375-2.578125-5.15625-2.578125-5.117187-2.578125-5.039063-2.578125-5-2.578125-4.921875-2.578125-4.84375-2.578125-4.765625-2.578125-4.726562-2.578125-4.648438-2.578125-4.609375-2.578125-4.53125-2.578125-4.453125-2.578125-4.414062-5.15625-8.59375-2.578125-4.179688-2.578125-4.140625-2.578125-4.101562-2.578125-4.023438-2.578125-3.945312-2.578125-3.867188-2.578125-3.828125-2.578125-3.789062-2.578125-3.710938-2.578125-3.671875-2.578125-3.59375-2.578125-3.515625-2.578125-3.476562-2.578125-3.4375-2.578125-3.359375-2.578125-3.320313-2.578125-3.28125-2.578125-3.203125-2.578125-3.164062-2.578125-3.085938-2.578125-3.046875-2.578125-3.007812-2.578125-2.96875-5.15625-5.78125-2.578125-2.8125-5.15625-5.46875-2.578125-2.695313-2.578125-2.617187-5.15625-5.15625-2.578125-2.5-2.578125-2.460938-2.578125-2.421875-2.578125-2.382812-2.578125-2.34375-2.578125-2.304688-2.578125-2.265625-5.15625-4.453125-2.578125-2.148437-5.15625-4.21875-2.578125-2.070313-2.578125-2.03125-2.578125-1.992187-2.578125-1.953125-5.15625-3.828125-2.578125-1.875-2.578125-1.835938-5.15625-3.59375-2.578125-1.757812-2.578125-1.71875-5.15625-3.359375-5.15625-3.28125-2.578125-1.601563-2.578125-1.5625-7.734375-4.570312-2.578125-1.484375-5.15625-2.890625-2.578125-1.40625-7.734375-4.101563-2.578125-1.328125-7.734375-3.867187-2.578125-1.25-7.734375-3.632813-5.15625-2.34375-5.15625-2.265625-2.578125-1.09375-2.578125-1.132812-10.3125-4.21875-5.15625-2.03125-7.734375-2.929688-7.734375-2.8125-7.734375-2.695312-10.3125-3.4375-5.15625-1.640625-2.578125-.78125-2.578125-.820313-5.15625-1.5625-2.578125-.742187-2.578125-.78125-5.15625-1.484375-2.578125-.703125-2.578125-.742188-2.578125-.703125-2.578125-.664062-5.15625-1.40625-5.15625-1.328125-2.578125-.625-2.578125-.664063-2.578125-.625-2.578125-.664062-2.578125-.585938-5.15625-1.25-12.890625-2.929687-2.539062-.546875-7.734376-1.640625-2.617187-.546875-2.578125-.546875-5.15625-1.015625-2.539062-.546875-2.578126-.507813-2.578124-.46875-2.578126-.507812-2.617187-.507813-7.734375-1.40625-2.539062-.46875-5.15625-.9375-2.578126-.429687-2.578124-.46875-12.890626-2.148438-2.578124-.390625-2.578126-.429687-2.578124-.390625-2.578126-.429688-12.890624-1.953125-2.578126-.351562-2.578124-.390625-2.578126-.351563-2.578124-.390625-15.46875-2.109375-2.578126-.3125-2.578124-.351562-2.578126-.3125-2.578124-.351563-5.15625-.625-2.578126-.351562-7.734374-.9375-2.578126-.273438-5.15625-.625-2.578124-.273437-2.578126-.3125-2.578124-.273438-2.578126-.3125-23.203124-2.460937-2.578126-.234375-5.15625-.546875-2.578124-.234375-2.578126-.273438-7.734374-.703125-2.578126-.273437-12.890624-1.171875-2.578126-.195313-7.734374-.703125-2.578126-.195312-2.578124-.234375-2.578126-.195313-2.578124-.234375-2.578126-.195312-2.578124-.234375-7.734376-.585938-2.578124-.234375-20.625-1.5625-2.578126-.15625-5.15625-.390625-2.578124-.15625-5.15625-.390625-2.578126-.15625-2.578124-.195312-2.578126-.15625-2.578124-.195313-5.15625-.3125-2.578126-.195312-7.734374-.46875-2.578126-.195313-23.203124-1.40625-2.578126-.117187-7.734374-.46875-2.578126-.117188-5.15625-.3125-2.578124-.117187-5.15625-.3125-2.578126-.117188-2.578124-.15625-2.578126-.117187-2.578124-.15625-5.15625-.234375-2.578126-.15625-5.15625-.234375-2.578124-.15625-7.734376-.351563-2.578124-.15625-28.359376-1.289062-2.382812-.117188" style="fill:none;stroke-width:4.99886;stroke-linecap:round;stroke-linejoin:round;stroke:#998100;stroke-miterlimit:10" transform="matrix(.1 0 0 -.1 0 87.53)"/><path d="m265.40625 76.648438-.25-.070313-.246094-.070313-.25-.070312-.246094-.070312-.25-.070313-.246093-.070313-.25-.070312-.246094-.070312-.25-.066407-.246094-.070312-.25-.070313-.246093-.070312-.25-.070313-.246094-.070312-.25-.070313-.246094-.070312-.25-.070313-.246094-.070312-.5-.140625-.246094-.070313-.25-.070312-.246093-.070313-.25-.070312-.246094-.070313-.25-.070312-.246094-.070313-.246093-.066406-.25-.070312-.273438-.078126-.058594 4.015626.78125-.195313.25-.066406 1.25-.3125.25-.066407.25-.0625.246094-.0625.5-.125.25-.066406.75-.1875.25-.066406.75-.1875.25-.066406.75-.1875.25-.066406z" fill="#998100"/><path d="m2654.0625 108.815625-2.5.703125-2.460938.703125-2.5.703125-2.460937.703125-2.5.703125-2.460937.703125-2.5.703125-2.460938.703125-2.5.664062-2.460938.703125-2.5.703125-2.460937.703125-2.5.703125-2.460937.703125-2.5.703125-2.460938.703125-2.5.703125-2.460938.703125-5 1.40625-2.460937.703125-2.5.703125-2.460937.703125-2.5.703125-2.460938.703125-2.5.703125-2.460938.703125-2.460937.664063-2.5.703125-2.734375.78125-.585938-40.15625 7.8125 1.953125 2.5.664062 12.5 3.125 2.5.664063 2.5.625 2.460938.625 5 1.25 2.5.664062 7.5 1.875 2.5.664063 7.5 1.875 2.5.664062 7.5 1.875 2.5.664063zm0 0" style="fill:none;stroke-width:4.99886;stroke-linecap:round;stroke-linejoin:round;stroke:#998100;stroke-miterlimit:10" transform="matrix(.1 0 0 -.1 0 87.53)"/><path d="m7.613281 75.660156.253907.058594.25.058594.253906.058594.25.054687.25.058594.253906.058593.25.054688.25.058594.253906.058594.25.058593.253906.054688.25.058593.253907.054688.5.117188.253906.054687.25.058594.253906.054687.25.058594.253907.054688.25.058593.25.054688.253906.058593.25.054688.253906.054688.25.058593.253906.054688.25.054687.253906.058594.25.054688.03125.007812-.175781-4.019531-.015625.003906-.738281.234375-.246094.074219-.984375.3125-.246094.074219-.738281.234374-.246093.074219-.492188.15625-.246094.074219-.246094.078125-.246093.074219-.492188.15625-.25.074218-.246093.078126-.246094.074218-.246094.078125-.492188.148438-.246093.078125-.246094.074218-.246094.078126z" fill="#998100"/><path d="m76.132812 118.698437 2.539063-.585937 2.5-.585938 2.539063-.585937 2.5-.546875 2.5-.585938 2.539062-.585937 2.5-.546875 2.5-.585938 2.539062-.585937 2.5-.585938 2.539063-.546875 2.5-.585937 2.539063-.546875 5-1.171875 2.539062-.546875 2.5-.585938 2.539062-.546875 2.5-.585937 2.539063-.546875 2.5-.585938 2.5-.546875 2.539063-.585937 2.5-.546875 2.539062-.546875 2.5-.585938 2.539062-.546875 2.5-.546875 2.539063-.585937 2.5-.546875.3125-.078125-1.757813 40.195312-.15625-.039062-7.382812-2.34375-2.460938-.742188-9.84375-3.125-2.460937-.742187-7.382813-2.34375-2.460937-.742188-4.921875-1.5625-2.460938-.742187-2.460937-.78125-2.460937-.742188-4.921876-1.5625-2.5-.742187-2.460937-.78125-2.460937-.742188-2.460938-.78125-4.921875-1.484375-2.460937-.78125-2.460938-.742187-2.460938-.78125zm0 0" style="fill:none;stroke-width:4.99886;stroke-linecap:round;stroke-linejoin:round;stroke:#998100;stroke-miterlimit:10" transform="matrix(.1 0 0 -.1 0 87.53)"/><path d="m7.613281 75.660156.261719-.007812.257812-.011719.253907-.007813.257812-.007812.261719-.011719.257812-.007812.253907-.011719.257812-.007812.261719-.011719.257812-.007813.257813-.011718.257813-.007813.257812-.011719.253906-.011718.257813-.007813.257812-.011719.257813-.007812.773437-.035156.257813-.007813.773437-.035156.257813-.007813 4.125-.1875.257812-.015625.773438-.035156.257812-.015625.515625-.023438.257813-.015624.515625-.023438.257812-.015625.257813-.011719.257812-.015625.257813-.011719.515625-.03125.257812-.011718.515625-.03125.257813-.011719.773437-.046875.257813-.011719 2.320312-.140625.257813-.019531.773437-.046875.257813-.019531.515625-.03125.257812-.019531.257813-.015626.257812-.019531.257813-.015625.515625-.039062.257812-.015625.515625-.039063.257813-.015625 2.0625-.15625.257812-.023437.773438-.058594.257812-.023438.257813-.019531.257812-.023437.257813-.019532.257812-.023437.257813-.019531.773437-.070313.257813-.019531 1.289062-.117188.257813-.027343.773437-.070313.257813-.027344.257812-.023437.515625-.054687.257813-.023438 2.320312-.246094.257813-.03125.257812-.027344.257813-.03125.257812-.027343.515625-.0625.257813-.027344.773437-.09375.257813-.035156.515625-.0625.257812-.035157.257813-.03125.257812-.035156.257813-.03125 1.546875-.210937.257812-.039063.257813-.035156.257812-.039062.257813-.035157 1.289062-.195312.257813-.042969.257812-.039062.257813-.042969.257812-.039063 1.289063-.214844.257812-.046874.257813-.042969.515625-.09375.253906-.046875.773438-.140625.261718-.050781.257813-.050782.257812-.046875.257813-.050781.253906-.054688.515625-.101562.257813-.054688.261718-.054687.773438-.164063.253906-.054687 1.289062-.292969.515626-.125.257812-.058594.257812-.066406.257813-.0625.257813-.066406.257812-.0625.515625-.132812.515625-.140626.257812-.066406.257813-.070312.257813-.074219.257812-.070313.515625-.148437.257813-.078125.257812-.074219.515625-.15625.257813-.082031.257812-.078125.515625-.164063 1.03125-.34375.773437-.269531.773438-.28125.773438-.292969.515624-.203124 1.03125-.421876.257813-.113281.257813-.109375.515624-.226562.515626-.234375.773437-.363281.257813-.125.773437-.386719.257813-.132813.773437-.410156.257813-.140625.515624-.289063.257813-.148437.773437-.457031.257813-.15625.257813-.160156.515624-.328126.515626-.335937.257812-.171875.257812-.175781.515626-.359375.257812-.183594.257812-.1875.515626-.382812.257812-.195313.257812-.199219.257813-.203125.257813-.207031.515624-.421875.257813-.214844.515625-.445312.257812-.226563.257813-.230468.257813-.234376.257812-.238281.257812-.242187.257813-.246094.257813-.25.515624-.515625.257813-.261719.257813-.269531.515624-.546875.257813-.28125.515625-.578125.257812-.296875.257813-.300781.257813-.304688.257812-.308593.257812-.316407.257813-.320312.257813-.328125.257812-.332032.257812-.335937.257813-.34375.257813-.347656.257812-.351563.257812-.359375.257813-.367187.257813-.371094.257812-.378906.257812-.382813.257813-.386719.257813-.394531.257812-.402343.257812-.410157.257813-.414062.257813-.417969.515624-.859375.257813-.441406.257813-.445313.257812-.453125.257812-.460937.257813-.464844.257813-.472656.257812-.476563.257812-.484375.257813-.492187.257813-.5.257812-.503907.257812-.511718.257813-.515625.257813-.523438.257812-.527343.257812-.535157.257813-.542969.257813-.546874.257812-.550782.257812-.558594.257813-.5625.257813-.566406.257812-.570312.257812-.578125.257813-.582031.515625-1.171876.253906-.59375.257813-.59375.261719-.597656.257812-.597656.257812-.601562.253907-.605469.257812-.601563.257813-.605468.261718-.601563.257813-.601563.253906-.601562.257813-.601562.257812-.59375.261719-.59375.257813-.589844.253906-.585938.257812-.578125.257813-.574219.261719-.566406.253906-.558594.257812-.550781.257813-.539062.257812-.53125.257813-.519531.257812-.507813.257813-.496094.257812-.484375.257813-.464844.257812-.453124.261719-.4375.253906-.417969.257813-.402344.257812-.386719.257813-.363281.257812-.34375.257813-.324219.257812-.304687.257813-.28125.257812-.257813.257813-.234375.257812-.210937.257813-.1875.257812-.164063.257813-.140625.257812-.113281.257813-.085937.257812-.0625.257813-.039063.257812-.007813.257813.011719.257812.042969.257813.066406.257812.089844.257813.117188.257812.140624.257813.167969.257812.1875.257813.214844.257812.238281.257813.257813.257812.28125.257813.304687.257812.324219.257813.34375.257812.363281.257813.378906.257812.402344.257813.414063.257812.433593.257813.445313.257812.460937.257813.476563.257812.488281.257813.5.257812.507813.257813.519531.257812.53125.257813.539062.257812.542969.257813.554688.257812.558593.257813.5625.257812.566407.773438 1.722656.257812.578125.257813.582031.257812.578125.257813.582032.515625 1.15625.515625 1.148437.515625 1.140625.515625 1.125.257812.554688.257813.550781.257812.546875.257813.542968.257812.535157.257813.53125.257812.523437.257813.515625.257812.511719.257813.503906.257812.5.257813.488282.257812.484374.257813.476563.257812.472656.257813.460938.257812.453125.257813.449218.257812.4375.257813.433594.257812.421875.257813.417969.257812.40625.257813.402344.257812.394531.257813.382813.257812.378906.257813.371094.257812.359374.257813.355469.257812.347657.257813.339843.257812.332031.257813.324219.257812.316407.257813.308593.257812.300781.257813.292969.257812.289063.257813.28125.257812.269531.257813.265625.257812.257812.257813.253907.257812.242187.257813.238282.257812.230468.257813.226563.257812.21875.257813.210937.257812.203125.257813.199219.257812.191406.257813.183594.257812.179688.257813.175781.515625.328125.515625.304687.257812.144531.257813.136719.257812.132813.257813.128906.253906.121094.261719.117187.257812.109375.257813.105469.257812.101563.257813.097656.257812.089844.257813.085937.257812.082031.257813.078125.257812.074219.253906.066406.261719.0625.257813.0625.257812.054688.257813.050781.253906.046875.261719.042969.257812.039062.257813.035157.253906.03125.257813.027343.261718.023438.257813.023437.257812.015625.253907.015625.257812.011719.257812.007813.261719.003906.257813.003906.253906-.003906h.257812l.257813-.007813.261719-.007812.253906-.011719.257812-.011719.257813-.015625.257813-.019531.261718-.019531.253906-.023438.515626-.046875.257812-.027343 1.03125-.125.515625-.070313.261719-.039063.253906-.039062.257812-.035156.257813-.042969.515625-.078125.515625-.085938.257813-.039062 1.546874-.257812.257813-.039063.257813-.042969.257812-.039062.257812-.042969.773438-.117187.257812-.035157.257813-.039062.515625-.070313.773438-.09375.773437-.082031.773437-.070313.257813-.015624.257813-.019532.257812-.015625.515625-.023437.515625-.015625.515625-.007813h.257813l.515624.007813.257813.007812.515625.023438.515625.03125.773437.070312.257813.027344.257813.035156.257812.03125.515625.078125.515625.085938.515625.101562.515625.109375.515625.125.515625.132813.773438.222656.515624.164062.257813.085938.515625.179688.257812.09375.257813.097656.515625.203125.515625.210937.257813.109375.257812.113281.515625.234376.515625.242187.257812.125.515626.257813.515624.265624.515626.273438.515624.28125.515626.289062.515624.296876.515626.304687 1.03125.625.257812.160156.257812.164063.257813.160156.515625.328125.257812.167969.257813.164062.515625.335938.257812.171875.257813.167969.257813.171874.257812.167969.773438.515625.257812.175782.773438.515624.257812.175782.257812.171875.257813.175781.257813.171875.253906.171875.261718.171875.257813.175781.773437.515625.257813.167969.257813.171875.257812.167969.257812.171875.773438.503906.257812.164063.253907.167968.257812.164063.257813.160156.261718.164063.257813.160156.253906.160156.515625.320312.261719.15625.257813.15625.257812.152344.253906.15625.257813.152344.261719.148438.515624.296874.253907.148438.515625.289062.773437.421876.515625.273437.261719.132813.253906.132812.257813.132812.515625.257813.261719.125.253906.125.257812.125.515625.242187.515625.234376.773438.339843.515625.21875.515625.210938.773437.304687.515625.195313.773438.28125.515625.179687.515625.171875 1.03125.328125.257812.078125 1.03125.296875.515625.140625.773438.199219.773437.1875.773438.175781.257812.054688.257813.058593.257812.050782.257813.054687.773437.152344.773438.140625.257812.042969.257813.046875.515625.085937 1.289062.195313 1.289063.175781 1.03125.125.257812.027344.257813.03125.773437.082031.257813.023438.257812.027343.257813.023438.257812.027343.773438.070313.257812.019531.257813.023438.515625.039062.257812.023438.515625.039062.257813.015625.515625.039063.515625.03125.257812.019531 1.546875.09375.257813.011719.257812.015625.257813.011719.257812.015624.515625.023438.257813.015625 1.546875.070313.257812.007812.515625.023438.257813.007812.257812.011719.257813.007812.257812.011719.257813.007812.257812.011719.257813.007813.257812.011718 1.03125.03125.257813.011719 1.289062.039063.253906.007812.261719.007813.257813.003906.515625.015625.253906.007812.261719.007813.257812.007813.257813.003906.515625.015625.257812.003906.515625.015625.253907.003906.257812.007813.257812.003906.261719.007813.257813.007812.253906.003906.257812.007813.257813.003906.261719.007813.257812.003906.257813.007812.253906.003906.257813.003907.261718.007812.257813.003907.257812.007812.253907.003906.257812.003906.257812.007813.515626.007813.257812.007812.515625.007812.261719.003907.253906.007812.773438.011719.261718.007812.253906.003907.515626.007812.257812.007813 1.289062.019531.257813.007813 2.0625.03125.257813.007812 6.445312.097656h.257812l2.578126.039063h.257812l1.546875.023437h.257813l1.289062.019532 7.367188.957031h-272.523438z" fill="#ff0" fill-opacity=".12"/><path d="m2579.101562 109.323437-2.382812.039063-64.453125.976562-2.578125.078125-15.46875.234375-2.578125.078125-10.3125.15625-2.539063.039063-2.617187.078125-7.734375.117187-2.539062.078125-2.617188.039063-2.578125.039062-2.578125.078125-7.734375.117188-2.578125.078125-2.578125.039062-2.539063.078125-5.15625.078125-2.617187.078125-2.578125.039063-2.539062.078125-2.578126.039062-2.578124.078125-2.617188.039063-2.578125.078125-2.578125.039062-2.539062.078125-2.578126.039063-2.617187.078125-2.578125.039062-2.578125.078125-2.539063.078125-2.578124.039063-7.734376.234375-2.578124.039062-5.15625.15625-2.617188.078125-2.539062.078125-7.734376.234375-2.617187.078125-2.539063.078125-10.3125.3125-2.578124.117188-5.15625.15625-2.578126.117187-5.15625.15625-2.578124.117188-2.578126.078125-5.15625.234375-2.578124.078125-20.625.9375-2.578126.15625-5.15625.234375-5.15625.3125-2.578124.117187-15.46875.9375-2.578126.195313-2.578124.15625-2.578126.195312-2.578124.15625-12.890626.976563-2.578124.234375-2.578126.195312-12.890624 1.171875-2.578126.273438-2.578124.234375-10.3125 1.09375-2.578126.3125-2.578124.273437-5.15625.625-2.578126.351563-2.578124.3125-10.3125 1.40625-2.578126.390625-2.578124.351562-2.578126.390625-2.578124.429688-2.578126.390625-7.734374 1.289062-7.734376 1.40625-2.578124.507813-2.578126.46875-2.578124.507812-2.578126.546875-2.578124.507813-2.578126.546875-2.578124.585937-2.578126.546875-5.15625 1.171875-7.734374 1.875-7.734376 1.992188-5.15625 1.40625-7.734374 2.226562-5.15625 1.5625-7.734376 2.460938-5.15625 1.71875-7.734374 2.695312-2.578126.9375-2.578124.976563-2.578126.9375-10.3125 4.0625-2.578124 1.09375-2.578126 1.054687-2.578124 1.09375-7.734376 3.398438-2.578124 1.171875-7.734376 3.632812-5.15625 2.5-5.15625 2.578125-5.15625 2.65625-7.734374 4.101563-2.578126 1.445312-2.578124 1.40625-2.539063 1.445313-2.617187 1.484375-2.578126 1.445312-5.15625 3.046875-2.539062 1.523438-2.617188 1.523437-2.578124 1.601563-2.578126 1.5625-5.15625 3.203125-5.15625 3.28125-2.578124 1.679687-2.539063 1.679688-2.578125 1.679687-2.578125 1.71875-2.617187 1.71875-2.578126 1.71875-2.539062 1.757813-5.15625 3.515625-2.617188 1.796875-5.15625 3.59375-2.539062 1.796875-2.578125 1.835937-2.617187 1.835938-2.578126 1.835937-2.578124 1.875-2.539063 1.835938-7.734375 5.625-2.578125 1.914062-2.578125 1.875-5.15625 3.828125-2.578125 1.875-10.3125 7.65625-2.617187 1.914063-2.539063 1.914062-12.890625 9.570313-2.578125 1.875-2.578125 1.914062-12.890625 9.375-10.3125 7.34375-5.15625 3.59375-10.3125 7.03125-2.578125 1.71875-7.734375 5.039063-5.15625 3.28125-2.578125 1.601562-7.734375 4.6875-2.578125 1.523438-2.578125 1.484375-7.734375 4.335937-7.734375 4.101563-7.734375 3.867187-5.15625 2.421875-2.578125 1.171875-5.15625 2.265625-5.15625 2.109375-2.578125 1.015625-5.15625 1.953125-2.578125.9375-7.734375 2.578125-2.578125.78125-5.15625 1.484375-2.578125.703125-2.578125.664063-2.578125.625-2.578125.585937-5.15625 1.09375-2.578125.507813-2.578125.46875-2.578125.429687-2.578125.390625-5.15625.703125-5.15625.546875-2.578125.234375-5.15625.390625-2.578125.15625-2.578125.078125-2.578125.117188-5.15625.078125-2.578125-.039063h-2.578125l-5.15625-.15625-2.578125-.117187-5.15625-.3125-2.578125-.195313-5.15625-.46875-5.15625-.546875-5.15625-.625-2.578125-.351562-7.734375-1.171875-5.15625-.859375-7.734375-1.40625-7.734375-1.523438-12.890625-2.734375-7.734375-1.757812-2.578125-.546875-15.46875-3.515625-2.578125-.546875-2.578125-.585938-2.578125-.546875-2.578125-.585937-2.578125-.546875-2.578125-.507813-2.578125-.546875-2.578125-.507812-2.539062-.507813-2.617188-.46875-2.578125-.507812-2.578125-.429688-2.578125-.46875-2.578125-.429687-5.15625-.78125-7.734375-1.054688-2.539063-.273437-2.617187-.273438-2.578125-.273437-2.578125-.195313-2.578125-.234375-2.539062-.15625-2.617188-.117187-2.578125-.117188-2.578125-.078125-2.539062-.039062h-5.195313l-5.15625.15625-2.539063.15625-2.578124.15625-2.578126.195312-2.617187.273438-2.578125.273437-2.539062.351563-2.578126.351562-2.578124.429688-2.617188.46875-2.539062.507812-2.578126.546875-2.578124.625-2.578126.664063-2.617187.703125-2.539063.742187-2.578124.78125-2.578126.859375-2.578124.898438-2.578126.976562-2.578124 1.015625-2.578126 1.054688-2.578124 1.132812-2.578126 1.171875-2.578124 1.25-2.617188 1.289063-2.539062 1.367187-2.578126 1.40625-2.578124 1.484375-2.578126 1.5625-2.578124 1.601563-2.578126 1.640625-2.578124 1.757812-2.578126 1.796875-2.578124 1.835938-2.578126 1.914062-2.578124 1.992188-2.578126 2.070312-2.578124 2.148438-2.578126 2.1875-2.578124 2.265625-2.578126 2.304687-2.578124 2.421875-2.578126 2.460938-2.578124 2.578125-2.578126 2.617187-2.578124 2.695313-2.578126 2.734375-2.578124 2.851562-2.578126 2.929688-2.578124 2.96875-2.578126 3.046875-2.578124 3.164062-2.578126 3.203125-2.578124 3.28125-2.578126 3.359375-2.578124 3.4375-2.578126 3.515625-2.578124 3.554688-2.578126 3.671875-2.578124 3.75-2.578126 3.789062-2.578124 3.867188-2.578126 3.984375-2.578124 4.023437-2.578126 4.101563-2.578124 4.140625-2.578126 4.257812-2.578124 4.296875-2.578126 4.375-2.578124 4.453125-2.578126 4.492188-2.578124 4.570312-2.578126 4.609375-2.578124 4.6875-2.578126 4.765625-2.578124 4.804688-2.578126 4.84375-5.15625 9.84375-2.578124 5-2.578126 5.039062-5.15625 10.15625-7.734374 15.46875-5.15625 10.390625-2.578126 5.234375-10.3125 20.78125-2.578124 5.15625-2.578126 5.117188-2.578124 5.078125-2.578126 5.039062-2.578124 5-2.578126 4.960938-2.578124 4.882812-2.578126 4.765625-2.578124 4.726563-2.578126 4.648437-2.578124 4.53125-2.578126 4.453125-2.578124 4.296875-2.578126 4.21875-2.578124 4.0625-2.578126 3.945313-2.578124 3.789062-2.578126 3.632813-2.578124 3.515625-2.578126 3.320312-2.578124 3.164063-2.578126 2.96875-2.578124 2.773437-2.578126 2.578125-2.578124 2.382813-2.578126 2.1875-2.578124 1.992187-2.578126 1.757813-2.578124 1.5625-2.578126 1.328125-2.578124 1.09375-2.578126.859375-2.578124.625-2.578126.429687-2.578124.15625-2.578126-.039062-2.578124-.3125-2.578126-.546875-2.578124-.742188-2.578126-1.015625-2.578124-1.210937-2.578126-1.484375-2.578124-1.679688-2.578126-1.875-2.578124-2.148437-2.578126-2.304688-2.578124-2.539062-2.578126-2.734375-2.578124-2.96875-2.578126-3.125-2.578124-3.28125-2.578126-3.515625-2.578124-3.632813-2.578126-3.828125-2.578124-3.984375-2.578126-4.101562-2.578124-4.257813-2.578126-4.414062-2.578124-4.53125-2.578126-4.609375-2.578124-4.765625-2.578126-4.84375-2.578124-4.960938-2.578126-5-2.539062-5.117187-2.617188-5.195313-2.578124-5.234375-2.578126-5.3125-2.578124-5.351562-2.578126-5.390625-2.578124-5.429688-2.578126-5.46875-5.15625-11.015625-2.578124-5.546875-2.539063-5.507812-2.617187-5.546875-5.15625-11.09375-2.539063-5.507813-2.578125-5.507812-2.617188-5.46875-2.578124-5.46875-2.578126-5.429688-2.539062-5.429687-2.578125-5.390625-2.617187-5.3125-2.578126-5.3125-2.578124-5.273438-2.539063-5.195312-2.578125-5.195313-2.578125-5.117187-2.617187-5.078125-2.578126-5.039063-2.539062-4.960937-2.578125-4.921875-2.578125-4.882813-2.578125-4.804687-2.578125-4.765625-2.578125-4.6875-2.578125-4.648438-2.578125-4.570312-2.578125-4.53125-2.578125-4.453125-2.578125-4.414063-2.578125-4.335937-2.578125-4.296875-2.578125-4.21875-2.578125-4.179688-2.578125-4.101562-2.578125-4.0625-2.578125-3.984375-2.578125-3.90625-2.578125-3.867188-2.578125-3.828125-2.578125-3.75-2.578125-3.710937-2.578125-3.632813-2.578125-3.59375-2.578125-3.515625-2.578125-3.476562-2.578125-3.4375-2.578125-3.359375-2.578125-3.320313-2.578125-3.242187-2.578125-3.203125-2.578125-3.164063-5.15625-6.171875-2.578125-3.007812-5.15625-5.859375-2.578125-2.851563-2.578125-2.8125-2.578125-2.773437-5.15625-5.390625-5.15625-5.234375-2.578125-2.539063-2.578125-2.5-2.578125-2.460937-2.578125-2.421875-2.578125-2.382813-5.15625-4.6875-2.578125-2.265625-2.578125-2.226562-2.578125-2.1875-5.15625-4.296875-5.15625-4.140625-2.578125-2.03125-2.578125-1.992188-2.578125-1.953125-5.15625-3.828125-2.578125-1.875-2.578125-1.835937-2.578125-1.796875-5.15625-3.515625-5.15625-3.4375-7.734375-4.921875-7.734375-4.6875-2.578125-1.523438-2.578125-1.484375-7.734375-4.335937-2.578125-1.40625-5.15625-2.734375-5.15625-2.65625-5.15625-2.578125-5.15625-2.5-5.15625-2.421875-7.734375-3.515625-2.578125-1.132813-2.578125-1.09375-2.578125-1.132812-2.578125-1.054688-2.578125-1.09375-2.578125-1.054687-2.578125-1.015625-2.578125-1.054688-2.578125-.976562-2.578125-1.015625-5.15625-1.953125-7.734375-2.8125-7.734375-2.695313-10.3125-3.4375-5.15625-1.640625-2.578125-.78125-2.578125-.820312-5.15625-1.5625-12.890625-3.710938-7.734375-2.109375-5.15625-1.328125-2.578125-.703125-2.578125-.625-5.15625-1.328125-7.734375-1.875-2.578125-.585937-2.578125-.625-7.734375-1.757813-2.578125-.546875-2.578125-.585937-12.890625-2.734375-5.15625-1.015625-2.578125-.546875-2.578125-.507813-2.578125-.46875-5.15625-1.015625-12.890625-2.34375-2.539062-.46875-5.15625-.859375-2.578126-.46875-2.617187-.429687-5.15625-.859375-2.578125-.390625-2.539062-.429688-2.578126-.390625-2.578124-.429687-2.578126-.390625-2.617187-.390625-7.734375-1.171875-2.539062-.390625-2.578126-.351563-2.578124-.390625-5.15625-.703125-2.578126-.390625-7.734374-1.054687-2.578126-.3125-5.15625-.703125-2.578124-.3125-2.578126-.351563-20.625-2.5-2.578124-.273437-2.578126-.3125-2.578124-.273438-2.578126-.3125-5.15625-.546875-2.578124-.3125-12.890626-1.367187-2.578124-.234375-5.15625-.546875-2.578126-.234375-2.578124-.273438-2.578126-.234375-2.578124-.273437-10.3125-.9375-2.578126-.273438-2.578124-.234375-2.578126-.195312-10.3125-.9375-2.578124-.195313-5.15625-.46875-2.578126-.195312-2.578124-.234375-5.15625-.390625-2.578126-.234375-7.734374-.585938-2.578126-.234375-10.3125-.78125-2.578124-.15625-10.3125-.78125-2.578126-.15625-5.15625-.390625-2.578124-.15625-2.578126-.195312-2.578124-.15625-2.578126-.195313-5.15625-.3125-2.578124-.195312-10.3125-.625-2.578126-.195313-18.046874-1.09375-2.578126-.117187-10.3125-.625-2.578124-.117188-5.15625-.3125-2.578126-.117187-2.578124-.15625-2.578126-.117188-2.578124-.15625-2.578126-.117187-2.578124-.15625-2.578126-.117188-2.578124-.15625-2.578126-.117187-2.578124-.15625-7.734376-.351563-2.578124-.15625-10.3125-.46875-2.578126-.15625-25.78125-1.171875-2.578124-.078125-10.3125-.46875-2.578126-.078125-7.734374-.351562-2.578126-.078125-5.15625-.234375-2.578124-.078125-2.578126-.117188-2.578124-.078125-2.578126-.117187-2.578124-.078125-5.15625-.234375-2.578126-.078125-2.382812-.078125" style="fill:none;stroke-width:4.99886;stroke-linecap:round;stroke-linejoin:round;stroke:#b29600;stroke-miterlimit:10" transform="matrix(.1 0 0 -.1 0 87.53)"/><path d="m265.40625 76.695312-.25-.070312-.246094-.070312-.25-.070313-.246094-.070313-.25-.070312-.246093-.066406-.25-.070313-.246094-.070312-.25-.070313-.246094-.070312-.25-.070313-.246093-.070312-.25-.070313-.246094-.066406-.25-.070312-.246094-.070313-.5-.140625-.246094-.070312-.25-.070313-.246094-.070313-.25-.070312-.246093-.070312-.25-.070313-.246094-.070313-.25-.070312-.246094-.070312-.25-.070313-.246093-.070313-.25-.070312-.023438-.003906-.058594 4.015625.53125-.132813.25-.066406 1-.25.25-.066406 1-.25.25-.066406.5-.125.246094-.0625.25-.066407.75-.1875.25-.066406.75-.1875.25-.066406.5-.125.25-.066407z" fill="#b29600"/><path d="m2654.0625 108.346875-2.5.703125-2.460938.703125-2.5.703125-2.460937.703125-2.5.703125-2.460937.664062-2.5.703125-2.460938.703125-2.5.703125-2.460938.703125-2.5.703125-2.460937.703125-2.5.703125-2.460937.664063-2.5.703125-2.460938.703125-5 1.40625-2.460938.703125-2.5.703125-2.460937.703125-2.5.703125-2.460937.703125-2.5.703125-2.460938.703125-2.5.703125-2.460938.703125-2.5.703125-2.460937.703125-2.5.703125-.234375.039062-.585938-40.15625 5.3125 1.328125 2.5.664063 10 2.5 2.5.664062 10 2.5 2.5.664063 5 1.25 2.460938.625 2.5.664062 7.5 1.875 2.5.664063 7.5 1.875 2.5.664062 5 1.25 2.5.664063zm0 0" style="fill:none;stroke-width:4.99886;stroke-linecap:round;stroke-linejoin:round;stroke:#b29600;stroke-miterlimit:10" transform="matrix(.1 0 0 -.1 0 87.53)"/><path d="m7.613281 75.910156.253907.058594.5.117188.253906.058593.25.0625.25.058594.253906.058594.75.175781.253906.058594.5.117187.253906.058594.5.117187.253907.058594.25.058594.25.054688.253906.058593.5.117188.253906.058593.25.058594.25.054688.253907.058594.5.117187.253906.054687.25.058594.03125.007813-.148438-4.019531-.015625.003906-.25.078125-.246093.074219-.246094.078124-.246094.074219-.246094.078125-.492187.148438-.25.078125-.492188.148437-.246093.078125-.492188.148438-.246094.078125-.246094.074218-.25.074219-.246093.074219-.246094.078125-.492187.148437-.25.074219-.738282.222657-.246094.078124-.25.074219-.738281.222657z" fill="#b29600"/><path d="m76.132812 116.198437 2.539063-.585937 5-1.171875 2.539063-.585938 2.5-.625 2.5-.585937 2.539062-.585938 7.5-1.757812 2.539062-.585938 5-1.171875 2.539063-.585937 5-1.171875 2.539063-.585938 2.5-.585937 2.5-.546875 2.539062-.585938 5-1.171875 2.539062-.585937 2.5-.585938 2.5-.546875 2.539063-.585937 5-1.171875 2.539063-.546875 2.5-.585938.3125-.078125-1.484376 40.195313-.15625-.039063-2.5-.78125-2.460937-.742187-2.460937-.78125-2.460938-.742188-2.460938-.78125-4.921874-1.484375-2.5-.78125-4.921876-1.484375-2.460937-.78125-4.921875-1.484375-2.460938-.78125-2.460937-.742187-2.5-.742188-2.460937-.742187-2.460938-.78125-4.921875-1.484375-2.5-.742188-7.382813-2.226562-2.460937-.78125-2.5-.742188-7.382813-2.226562zm0 0" style="fill:none;stroke-width:4.99886;stroke-linecap:round;stroke-linejoin:round;stroke:#b29600;stroke-miterlimit:10" transform="matrix(.1 0 0 -.1 0 87.53)"/><path d="m7.613281 75.910156.261719-.007812.257812-.007813.253907-.007812.257812-.007813.261719-.007812.257812-.007813.253907-.007812.257812-.011719.261719-.007812 1.03125-.03125.253906-.011719.773438-.023438.257812-.011719.773438-.023437.257812-.011719.515625-.015625.257813-.011719.257812-.007812.257813-.011719.257812-.007812.257813-.011719.515625-.015625.515625-.023437.257812-.007813.257813-.011719.257812-.007812.257813-.011719.257812-.007813.515625-.023437.257813-.007813.773437-.035156.257813-.007812 1.03125-.046875.257812-.007813 2.578125-.117187.257813-.015625 1.03125-.046875.257812-.015625.773438-.035156.257812-.015626.257813-.011718.257812-.015625.257813-.011719.257812-.015625.257813-.011719.257812-.015625.257813-.011719.257812-.015624.257813-.011719.515625-.03125.257812-.011719 1.03125-.0625.257813-.011719 1.804687-.109375.257813-.019531 1.03125-.0625.257812-.019531.515625-.03125.257813-.019532.257812-.015624.257813-.019532.257812-.015625.515625-.039062.257813-.015625 1.03125-.078125.257812-.015625 1.03125-.078125.257813-.023438.773437-.058593.257813-.023438.515625-.039062.257812-.023438.257813-.019531.515625-.046875.257812-.019532 1.03125-.09375.257813-.019531.257812-.023437.257813-.027344 1.03125-.09375.257812-.027344.257813-.023437.257812-.027344.257813-.023437.515625-.054688.257812-.023438 1.289063-.136718.257812-.03125.515625-.054688.257813-.03125.257812-.027344.257813-.03125.257812-.027343 2.0625-.25.257813-.035157.257812-.03125.515625-.070312.257813-.03125.773437-.105469.257813-.039062.515625-.070313.257812-.039062.257813-.035156.253906-.039063.773438-.117187.261718-.039063.257813-.039063.257812-.042968.257813-.039063.253906-.042969.257812-.039062.515626-.085938.261718-.042968.257813-.046875.515625-.085938.253906-.046875 1.289062-.234375.515626-.101562.257812-.046875.257812-.050782.257813-.054687.515625-.101563 1.289062-.273437.257813-.058594.257813-.054687.773437-.175782.257813-.0625.257812-.058593.773438-.1875.515624-.132813.257813-.0625.257813-.070312.515624-.132813.773438-.210937 1.289062-.371094.515626-.15625.257812-.082031.257812-.078125.515626-.164063 1.03125-.34375.773437-.269531.773437-.28125.515626-.195312.257812-.101563.257812-.097656.257813-.105469.257813-.101562.257812-.105469.257812-.109375.257813-.105469.257813-.113281.257812-.109375.257812-.113281.773438-.351563.515625-.242187.515625-.25.515625-.257813.515625-.265625.515625-.273438.257813-.140624.773437-.433594.257813-.148438.257812-.152344.773438-.46875.773437-.492187.515625-.34375.515625-.351563.257813-.179687.257812-.183594.257812-.1875.515626-.382812.257812-.195313.257812-.199218.257813-.203126.515625-.414062.515625-.429688.257813-.21875.257812-.222656.257812-.226562.515626-.46875.257812-.238282.257812-.242187.257813-.246094.257813-.25.257812-.253906.515625-.523437.515625-.539063.257812-.277344.257813-.28125.257813-.285156.515624-.585937.257813-.300782.515625-.617187.257812-.316407.257813-.320312.257813-.324219.257812-.332031.257812-.335938.257813-.34375.257813-.347656.257812-.351562.257812-.359375.257813-.363281.257813-.371094.257812-.375.257812-.382813.257813-.386719.257813-.390624.257812-.398438.257812-.40625.257813-.410156.257813-.417969.257812-.421875.257812-.429688.257813-.433593.257813-.441407.257812-.445312.257812-.453125.257813-.457031.257813-.464844.257812-.46875.257812-.476562.257813-.480469.257813-.488281.257812-.492188.253906-.496094.257813-.503906.261719-.507812.257812-.511719.257812-.519531.253907-.519532.257812-.527344.257813-.53125.261718-.53125.257813-.539062.253906-.542969.257813-.542969.257812-.546874.261719-.546876.257813-.550781.253906-.550781.515625-1.109375.261719-.554687.253906-.550782.257812-.554687.515625-1.101563.257813-.546875.257812-.542969.257813-.539062.257812-.535156.257813-.53125.257812-.523438.261719-.519531.253906-.511719.257813-.5.257812-.496094.257813-.484374.257812-.476563.257813-.460937.257812-.453126.257813-.441406.257812-.425781.257813-.410156.257812-.398438.257813-.382812.257812-.363281.257813-.351563.257812-.328125.257813-.3125.257812-.296875.257813-.273437.257812-.253907.257813-.230469.257812-.214843.257813-.1875.257812-.167969.257813-.148438.257812-.121093.257813-.101563.257812-.074218.257813-.054688.257812-.03125.257813-.003906.257812.015625.257813.042969.257812.0625.257813.085937.257812.109375.257813.132812.257812.15625.257813.175782.257812.199218.257813.21875.257812.238282.257813.257812.257812.277344.257813.296875.257812.316406.257813.332031.257812.351563.257813.363281.257812.378906.257813.394532.257812.40625.257813.421875.257812.429687.257813.445313.257812.453125.257813.464844.257812.472656.257813.476562.257812.488282.257813.496093.257812.5.257813.503907.257812.507812.257813.511719.257812.515625 1.03125 2.078125.257813.523437.515625 1.039063.773437 1.546875.515625 1.015625.257813.503906.257812.5.515625.984375.257813.484375.257812.480469.257813.476562.257812.46875.257813.460938.257812.457031.257813.449219.257812.445312.257813.4375.257812.429688.257813.425781.257812.414063.257813.410156.257812.402344.257813.398437.257812.386719.257813.378906.257812.375.257813.367188.257812.355468.257813.351563.257812.34375.257813.335937.257812.328125.257813.320313.257812.316406.257813.304688.257812.296874.257813.292969.257812.285157.257813.273437.257812.269531.257813.261719.257812.257813.257813.246093.257812.242188.257813.230469.257812.226562.257813.21875.257812.214844.257813.207031.257812.199219.257813.191406.257812.183594.257813.179687.257812.175781.257813.164063.257812.160156.257813.15625.257812.148438.257813.140625.253906.136718.261719.128907.257812.125.257813.117187.257812.113282.257813.105468.257812.101563.257813.097656.257812.089844.257813.085937.257812.078125.253906.074219.261719.070312.257813.066407.257812.0625.257813.054687.253906.050782.261719.046874.257812.042969.257813.035157.253906.035156.257813.027344.261718.027343.257813.019531.257812.015626.253907.015624.515624.015626h.519532l.253906-.003907.257812-.007812.257813-.011719.261719-.011719.253906-.015625.257812-.023437.257813-.019531.257813-.027344.261718-.027344.253906-.027344.773438-.105468.515625-.078126.257813-.042968.257812-.046875.257812-.042969.257813-.050781.261719-.046875.253906-.050782.257812-.050781.257813-.054687.257813-.050782.257812-.054687.257812-.058594.257813-.054687.257813-.058594.257812-.054688 1.546875-.351562.257813-.054688.773437-.175781 1.289063-.273437.773437-.152344.773437-.140625.515626-.085937.773437-.117188.257813-.035156.515624-.0625.515626-.054688.515624-.046875.257813-.019531.515625-.03125.257812-.011719.515626-.015625h.257812l.257812-.003906.515626.007812.257812.011719.257812.007813.257813.015625.515625.039062.257812.023438.515626.054687.515624.070313.257813.039062.257813.042969.257812.046875.257812.050781.515626.109375.257812.058594.257812.0625.257813.066406.257813.070313.515624.148437.257813.078125.773437.257813.257813.09375.515625.195312.257812.101563.515626.210937.515624.226563.257813.117187.515625.242188.773438.386719.773437.410156.773437.433594.257813.148437.257813.152344.773437.46875.257813.160156.515624.328125.773438.503906.257812.171875 1.03125.703125.515626.359375 1.03125.734375 1.289062.9375.257812.191406.257813.1875 1.289063.957032.253906.191406.261718.191406 1.03125.765625.257813.1875.515625.382813.257812.1875.257813.191406.773437.5625.253907.183594.257812.1875.257813.183594.261718.183593.257813.183594.253906.179687.515625.359376.261719.179687.515625.351563.253906.175781.257813.171875.261719.171875.257812.171875.257812.167968.253907.167969.257812.167969.515625.328125.515625.320313.257813.15625.257812.160156.261719.152344.253906.152343.515625.304688.257813.144531.261719.148438.253906.144531.257812.140625.257813.144531.773437.410156.515625.265625.515625.257813.515625.25.773438.363281.257812.117188.773438.339843.257812.109375.257813.105469.257812.109375 1.03125.40625.257813.09375.257812.097656.257813.09375.773437.269532.515625.171874.773438.246094.515625.15625.773437.222656.515625.140626.773438.199218.773437.1875.515625.117188.257813.054687.257812.058594.257813.054687.257812.050782.257813.054687.257812.050781.257813.046876.257812.050781.773438.140625.773437.128906.257813.039062.257812.042969.257813.039063.257812.035156.257813.039062 1.03125.140626.257812.03125.257813.035156.515625.0625.257812.027344.257813.03125 1.03125.109374.257812.023438.257813.027344 1.289062.117187.257813.019531.257812.023438 1.289063.097656.257812.015625.257813.019531.257812.015626.257813.019531 1.546875.09375.257812.011719.515625.03125.515625.023437.257813.015625 2.0625.09375.257812.007812.515625.023438.257813.007812.257812.011719.515625.015625.257813.011719.515625.015625.257812.011719 1.03125.03125.253906.007812.261719.007813.773438.023437.253906.007813.261719.007812.515625.015625.257812.003907.773438.023437.257812.003906.253907.007813.257812.007812.257812.003906.261719.007813.257813.003906.253906.007813.257812.003906.257813.007812.261719.003907.257812.007812.257813.003907.253906.007812.257813.003906.261718.007813.515625.007812.253907.007813.257812.003906.257812.007812.773438.011719.257812.007813.257813.003906.261719.003906.253906.007813.773438.011719.261718.007812.253906.003906 1.03125.015625.257813.007813 1.546875.023437.257812.007813 7.476563.113281h.257813l2.0625.03125h.257812l1.546875.023437h.257813l1.289062.019532h.257812l.773438.011718 7.367188.910157h-272.523438z" fill="#ff0" fill-opacity=".12"/><path d="m7.613281 76.011719.261719-.003907.257812-.007812.253907-.007812.257812-.007813.261719-.007813.257812-.007812.253907-.007812.257812-.007813.261719-.007813 1.03125-.03125.253906-.007812 1.03125-.03125.257813-.011719 1.289062-.039062.257813-.011719.773437-.023438.257813-.011718.515625-.015625.257812-.011719.515625-.015625.257813-.011719.515625-.015625.257812-.011719.257813-.007812.257812-.011719.257813-.007812.257812-.011719.257813-.007812.257812-.011719.257813-.007813.515625-.023437.257812-.007813.515625-.023437.257813-.007813.515625-.023437.257812-.007813 1.289063-.058594.257812-.007812 2.578125-.117188.257813-.015624 1.03125-.046876.257812-.015624.515625-.023438.257813-.015625.515625-.023437.257812-.015626.257813-.011718.257812-.015625.257813-.011719.257812-.015625.257813-.011719.515625-.03125.257812-.011718.773438-.046876.257812-.011718 2.835938-.171875.257812-.019531.515625-.03125.257813-.019532.515625-.03125.257812-.019531.257813-.015625.257812-.019531.257813-.015625.515625-.039063.257812-.015625.773438-.058594.257812-.015624 1.289063-.097657.257812-.023437.773438-.058594.257812-.023438.257813-.019531.257812-.023437.257813-.019532.257812-.023437.257813-.019531.515625-.046875.257812-.019531 2.0625-.1875.257813-.027344.257812-.023438.257813-.027344.257812-.023437.257813-.027344.257812-.023437.773438-.082032.257812-.023437.515625-.054687.257813-.03125.773437-.082032.257813-.03125.257812-.027344.257813-.03125.257812-.027343 1.804688-.21875.257812-.035157.257813-.03125.257812-.035156.257813-.03125.515625-.070312.253906-.035156.773438-.105469.261718-.035157.257813-.039062.257812-.035156.257813-.039063.253906-.039062.257812-.035157.515626-.078124.261718-.042969.515625-.078125.257813-.042969.253906-.039063 1.03125-.171874.257812-.046876.257813-.042968.257813-.046875.257812-.042969.773438-.140625.257812-.050781.257812-.046875.257813-.050781.257813-.046876.515624-.101562.257813-.054688.257813-.050781.257812-.054687.257812-.050782.515626-.109374.257812-.058594.257812-.054688.257813-.058594.257813-.054687.257812-.058594.257812-.0625.257813-.058593.257813-.0625.257812-.058594.257812-.0625.257813-.066406.257813-.0625.257812-.066407.257812-.0625.257813-.066406.257813-.070313.257812-.066406.773438-.210937 1.289062-.371094.515625-.15625.257813-.082031.257812-.078125.515625-.164063 1.03125-.34375.773437-.269531.515626-.1875 1.03125-.390625.515624-.203125.515626-.210937.773437-.328126.773437-.339843.257813-.117188.773437-.363281.257813-.125.773437-.386719.257813-.132812.773437-.410157.257813-.140624.515625-.289063.257812-.148437.515626-.304688.515624-.3125.257813-.160156.515625-.328125.257812-.167969.515626-.34375.257812-.175781.257812-.179688.515626-.367187.773437-.574219.257813-.199219.515624-.40625.257813-.207031.257813-.210937.257812-.214844.257812-.21875.515626-.445313.257812-.230469.257812-.234374.515626-.476563.257812-.246094.257812-.25.515626-.507812.257812-.261719.515625-.539062.257813-.273438.257812-.28125.515625-.570312.515625-.59375.257812-.304688.257813-.308594.257813-.3125.257812-.316406.257812-.324219.257813-.328125.515625-.671875.515625-.695312.257813-.355469.515624-.726562.515626-.75.257812-.382813.257812-.390625.257813-.394531.257813-.398438.257812-.40625.257812-.414062.257813-.417969.257813-.421875.257812-.429687.257812-.433594.257813-.441406.257813-.445313.257812-.449219.253906-.457031.257813-.460937.261719-.46875.257812-.472657.257812-.476562.253907-.480469.257812-.488281.257813-.492188.261718-.492187.257813-.503906.253906-.503907.257813-.507812.257812-.511719.261719-.511719.257813-.519531.253906-.519531.515625-1.046875.261719-.527344.253906-.527344.257812-.527344.257813-.53125.257812-.527343.257813-.53125.257812-.527344.773438-1.570313.257812-.515624.261719-.515626.253906-.507812.257813-.503906.257812-.5.257813-.492188.257812-.484375.257813-.476562.257812-.46875.257813-.460938.257812-.449219.257813-.4375.257812-.429687.257813-.414063.257812-.402343.257813-.386719.257812-.375.257813-.359375.257812-.339844.257813-.328125.257812-.308594.257813-.292968.257812-.273438.257813-.253906.257812-.234375.257813-.214844.257812-.195312.257813-.171875.257812-.152344.257813-.132812.257812-.109376.257813-.085937.257812-.066406.257813-.039063.257812-.023437.257813.003906.257812.023437.257813.046876.257812.070312.257813.089844.257812.113281.257813.132813.257812.152343.257813.175781.257812.195313.257813.21875.257812.234375.257813.25.257812.273438.257813.289062.257812.304688.257813.320312.257812.339844.257813.351562.257812.363282.257813.378906.257812.390625.257813.40625.257812.414062.257813.421875.257812.433594.257813.445312.257812.449219.257813.457031.257812.464844.257813.46875.257812.476563.515625.960937.515625.976563.257813.492187.257812.488282.257813.492187.257812.496094.257813.492187.257812.488282.257813.492187.257812.488281.515625.96875.257813.480469.257812.476563.257813.472656.257812.46875.515625.921875.257813.453125.257812.449218.257813.445313.257812.4375.257813.433594.257812.425781.257813.417969.257812.414062.257813.40625.257812.398438.257813.394531.257812.386719.257813.378906.257812.375.257813.363281.257812.359375.257813.351563.257812.34375.257813.335937.257812.328125.257813.320313.257812.316406.257813.308594.257812.296875.257813.292968.257812.285157.257813.277343.257812.273438.257813.261719.257812.257812.257813.246094.257812.242187.257813.234376.257812.230468.257813.21875.257812.214844.257813.207031.257812.199219.257813.191406.257812.1875.257813.179688.257812.175781.257813.164063.257812.160156.257813.15625.257812.148437.257813.140625.253906.136719.261719.128906.257812.121094.257813.117187.257812.113282.257813.105468.515625.195313.515625.171875.257812.078125.253906.070313.261719.070312.257813.0625.257812.058594.257813.050781.253906.046875.261719.042969.257812.039062.257813.035157.253906.027343.257813.027344.261718.019531.257813.015625.257812.011719.253907.011719.257812.003906h.257812l.261719-.003906.257813-.007813.253906-.007812.515625-.03125.261719-.019532.253906-.023437.515625-.054687.257813-.035157.261718-.035156.253906-.035156.257813-.039063.257813-.042968.773437-.140626.257813-.050781.773437-.164062.261719-.058594.253906-.0625.257812-.058594.515626-.125.257812-.066406.257812-.0625.515626-.132813.257812-.070312.257812-.066406.257813-.070313.257813-.066406.515624-.140625.257813-.066406.515625-.140625.515625-.132813.257813-.070312.515624-.132813.257813-.0625.257813-.066406.773437-.1875.773437-.175781.515626-.109375.515624-.101563.515626-.09375.515624-.085937.515626-.078125.257812-.035156.515625-.0625.257813-.027344.515624-.046875.257813-.019531.257813-.015626.515624-.023437.257813-.007813.515625-.007812.515625.007812.257813.007813.257812.011719.515625.03125.515625.046875.257812.027343.773438.105469.257812.042969.257813.046875.515625.101563.257812.054687.515626.125.257812.066406.257812.070313.257813.074218.257813.078126.515624.164062.515626.179688.257812.09375.515625.203124.515625.210938.515625.226562.257813.117188.257812.121094.257812.125.515626.257812.257812.132813.257812.136719.515626.28125.257812.148437.257812.144531.515626.304688.515624.3125.257813.160156.515625.328125.515625.335937.257813.171876.773437.527343.515625.359375.515625.367188.773437.5625.257813.191406.257813.1875.257812.195312.257812.191407 1.03125.78125.257813.199219.257813.195312 1.03125.796875.253906.199219.261718.203125.773438.597656.257812.203125 1.289063.996094.257813.195312.257812.199219.257812.195313.253907.199218.257812.195313.257813.191406.261718.195313.257813.191406.253906.191406.515625.382812.261719.1875.515625.375.253906.183594.257813.183594.261719.183594.515624.359375.253907.179687.515625.351563.773437.515625.515625.335937.261719.164063.253906.164062.773438.480469.261719.15625.253906.152344.515625.304687.515625.296875.257812.144531.257813.140626.257812.144531.773438.410156.515625.265625.515625.257812.515625.25.515625.242188.515625.234375.257812.113281.257813.109375.257812.113281.257813.105469.257812.109375.257813.105469.515625.203125.515625.195312.773437.28125.515625.179688.515625.171875.515625.164063.773438.234374.773437.222657.257813.070312.257812.066407.257813.070312.257812.0625.257813.066406.515625.125.257812.058594.257813.0625.257812.054688.257813.058593.515625.109375 1.03125.203125.773437.140625 1.03125.171875.773438.117188.257812.035156.257813.039063.515625.070312.257812.03125.257813.035156 1.03125.125.515625.054688.257812.03125.257813.023437.515625.054688.515625.046875.257812.027344.257813.019531.515625.046875.257812.019531.257813.023437 1.289062.097657.257813.015625.257812.019531.515625.03125.257813.019531.773437.046875.257813.011719.515625.03125.257812.011719.257813.015625.515625.023437.257812.015625 1.289063.058594.257812.007812.773438.035157.257812.007812.257813.011719.257812.007812.257813.011719.515625.015625.257812.011719 1.03125.03125.253906.011719.261719.007812.773438.023438.253906.007812.261719.003906 1.03125.03125.257812.003907.515625.015625.253907.007812.257812.003906.257812.007813.261719.003906.257813.007813.253906.007812.257812.003906.257813.007813.261719.003906.257812.007813.257813.003906.253906.003906.257813.007813.261718.003906.257813.007813.257812.003906.253907.003906.257812.007812.515625.007813.257813.007813.515624.007812.257813.007812.261719.003907.253906.003906.257812.003906.257813.007813.257813.003906.261718.003906.253906.003906.257813.003907.257813.007812 1.804687.027344.257813.007813 6.445312.097656h.257812l2.320313.035156h.257813l1.546874.023438h.257813l1.03125.015624h.257813l1.03125.015626h.257812l1.03125.015624 7.367188.878907h-272.523438z" fill="#ff0" fill-opacity=".12"/><g stroke-linecap="round" stroke-linejoin="round" stroke-miterlimit="10" stroke-width="4.99886" transform="matrix(.1 0 0 -.1 0 87.53)"><g stroke="#000"><path d="m2652.734375 99.245312h-2575.234375" fill="none"/><path d="m2727.734375 99.245312-75 20.078125v-40.195312zm0 0"/><path d="m2.5 99.245312 75-20.117187v40.195312zm0 0"/><path d="m1180.976562 797.604687v-698.359375" fill="none"/><path d="m1180.976562 872.604687-20.078124-75h40.15625zm0 0"/></g><path d="m2579.101562 109.010937-2.382812.039063-2.578125.039062h-2.578125l-64.453125.976563-2.578125.078125-18.046875.273437-2.578125.078125-2.578125.039063-2.539063.039062-2.617187.039063-2.578125.039062-2.578125.078125-2.578125.039063-2.539062.039062-2.617188.039063-2.578125.078125-5.15625.078125-2.578125.078125-5.15625.078125-2.578125.078125-2.539063.039062-2.578124.039063-2.578126.078125-2.617187.039062-2.578125.078125-2.539062.039063-2.578126.039062-2.578124.078125-2.617188.039063-2.578125.078125-2.578125.039062-2.539062.078125-2.578126.078125-2.617187.039063-2.578125.078125-2.578125.039062-2.539063.078125-5.15625.15625-2.578124.039063-10.3125.3125-2.617188.039062-2.539062.078125-7.734376.234375-2.617187.078125-2.539063.117188-10.3125.3125-2.578124.117187-5.15625.15625-2.578126.117188-2.578124.078125-2.578126.117187-2.578124.078125-7.734376.351563-2.578124.078125-12.890626.585937-2.578124.15625-5.15625.234375-2.578126.15625-2.578124.117188-5.15625.3125-2.578126.117187-7.734374.46875-2.578126.195313-5.15625.3125-2.578124.195312-2.578126.15625-12.890624.976563-2.578126.234375-2.578124.195312-5.15625.46875-2.578126.195313-2.578124.273437-5.15625.46875-5.15625.546875-2.578126.234375-2.578124.3125-5.15625.546875-10.3125 1.25-2.578126.351563-2.578124.3125-5.15625.703125-2.578126.390625-2.578124.351562-7.734376 1.171875-10.3125 1.71875-7.734374 1.40625-10.3125 2.03125-5.15625 1.09375-2.578126.585938-2.578124.546875-2.578126.625-2.578124.585937-5.15625 1.25-2.578126.664063-2.578124.625-2.578126.703125-2.578124.664062-2.578126.703125-7.734374 2.226563-7.734376 2.34375-5.15625 1.640625-5.15625 1.71875-5.15625 1.796875-7.734374 2.8125-5.15625 1.953125-5.15625 2.03125-2.578126 1.054687-2.578124 1.09375-2.578126 1.054688-2.578124 1.132812-2.578126 1.09375-2.578124 1.132813-5.15625 2.34375-5.15625 2.421875-5.15625 2.5-5.15625 2.578125-5.15625 2.65625-7.734376 4.101562-2.578124 1.445313-2.578126 1.40625-2.578124 1.445312-5.15625 2.96875-5.15625 3.046875-2.539063 1.523438-2.617187 1.5625-7.734376 4.804687-2.539062 1.640625-2.617188 1.640625-5.15625 3.359375-7.734374 5.15625-5.15625 3.515625-2.539063 1.796875-5.15625 3.59375-2.617187 1.835938-2.578126 1.835937-2.539062 1.835938-5.15625 3.75-2.617188 1.875-5.15625 3.828125-2.539062 1.914062-2.578125 1.914063-2.617187 1.953125-2.578126 1.914062-2.578124 1.953125-2.539063 1.992188-2.578125 1.953125-2.578125 1.992187-2.578125 1.953125-12.890625 9.960938-2.578125 2.03125-7.734375 5.976562-2.617187 2.03125-2.539063 1.992188-10.3125 7.96875-2.578125 1.953125-2.578125 1.992187-10.3125 7.8125-2.578125 1.914063-2.578125 1.953125-2.578125 1.875-2.578125 1.914062-7.734375 5.625-5.15625 3.671875-5.15625 3.59375-7.734375 5.273438-2.578125 1.71875-5.15625 3.359375-5.15625 3.28125-2.578125 1.601562-5.15625 3.125-5.15625 3.046875-2.578125 1.445313-2.578125 1.484375-5.15625 2.8125-2.578125 1.367187-2.578125 1.328125-5.15625 2.578125-2.578125 1.25-2.578125 1.210938-2.578125 1.171875-5.15625 2.265625-5.15625 2.109375-5.15625 2.03125-2.578125.9375-5.15625 1.796875-5.15625 1.640625-2.578125.78125-2.578125.742187-2.578125.703125-2.578125.664063-5.15625 1.25-2.578125.546875-5.15625 1.015625-2.578125.46875-2.578125.429687-7.734375 1.054688-2.578125.273437-5.15625.46875-5.15625.3125-2.578125.117188-2.578125.078125-5.15625.078125-5.15625-.078125-2.578125-.078125-5.15625-.234375-2.578125-.15625-2.578125-.195313-5.15625-.46875-2.578125-.273437-5.15625-.625-2.578125-.351563-5.15625-.78125-5.15625-.859375-5.15625-.9375-5.15625-1.015625-5.15625-1.09375-7.734375-1.757812-7.734375-1.875-2.578125-.664063-2.578125-.625-5.15625-1.328125-2.578125-.703125-5.15625-1.328125-5.15625-1.40625-2.578125-.664062-5.15625-1.40625-2.578125-.664063-2.578125-.703125-2.578125-.664062-2.578125-.703125-5.15625-1.328125-2.578125-.625-2.578125-.664063-5.15625-1.25-2.578125-.585937-2.539062-.625-2.617188-.585938-7.734375-1.640625-2.578125-.507812-7.734375-1.40625-2.578125-.429688-2.578125-.390625-2.539063-.351562-2.617187-.351563-2.578125-.351562-5.15625-.546875-2.539062-.234375-2.617188-.195313-5.15625-.3125-2.539062-.078125-2.578126-.078125-2.617187-.039062h-2.578125l-2.578125.039062-2.539063.117188-2.578124.117187-2.578126.15625-2.617187.195313-2.578125.273437-2.539062.273438-2.578126.351562-2.578124.390625-2.617188.429688-2.539062.46875-2.578126.507812-2.578124.585938-2.578126.625-2.617187.703125-2.539063.703125-2.578124.78125-5.15625 1.71875-5.15625 1.953125-2.578126 1.054687-2.578124 1.132813-2.578126 1.171875-2.578124 1.210937-2.617188 1.289063-2.539062 1.367187-2.578126 1.40625-2.578124 1.484375-2.578126 1.5625-2.578124 1.601563-2.578126 1.640625-2.578124 1.757812-2.578126 1.796875-2.578124 1.875-2.578126 1.914063-2.578124 1.992187-2.578126 2.070313-2.578124 2.148437-2.578126 2.1875-2.578124 2.304688-2.578126 2.34375-2.578124 2.421875-2.578126 2.460937-2.578124 2.578125-2.578126 2.617188-2.578124 2.734375-2.578126 2.773437-2.578124 2.851563-2.578126 2.929687-2.578124 2.96875-2.578126 3.085938-2.578124 3.164062-2.578126 3.203125-2.578124 3.28125-2.578126 3.359375-2.578124 3.4375-2.578126 3.515625-2.578124 3.59375-2.578126 3.632813-2.578124 3.75-2.578126 3.789062-2.578124 3.867188-2.578126 3.945312-2.578124 3.984375-2.578126 4.0625-2.578124 4.140625-2.578126 4.179688-2.578124 4.257812-2.578126 4.335938-2.578124 4.375-2.578126 4.453125-2.578124 4.492187-2.578126 4.53125-5.15625 9.21875-2.578124 4.6875-2.578126 4.726563-2.578124 4.765625-2.578126 4.804687-5.15625 9.6875-2.578124 4.882813-2.578126 4.921875-2.578124 4.882812-2.578126 4.921875-2.578124 4.960938-2.578126 4.921875-2.578124 4.882812-2.578126 4.921875-5.15625 9.765625-5.15625 9.609375-2.578124 4.765625-2.578126 4.6875-2.578124 4.648438-2.578126 4.570312-2.578124 4.492188-2.578126 4.453125-2.578124 4.335937-2.578126 4.21875-2.578124 4.140625-2.578126 4.0625-2.578124 3.90625-2.578126 3.789063-2.578124 3.632812-2.578126 3.515625-2.578124 3.398438-2.578126 3.203125-2.578124 3.046875-2.578126 2.890625-2.578124 2.734375-2.578126 2.5-2.578124 2.34375-2.578126 2.1875-2.578124 1.953125-2.578126 1.757812-2.578124 1.523438-2.578126 1.328125-2.578124 1.132812-2.578126.898438-2.578124.703125-2.578126.46875-2.578124.234375-2.578126.039062-2.578124-.234375-2.578126-.390625-2.578124-.664062-2.578126-.859375-2.578124-1.09375-2.578126-1.328125-2.578124-1.523438-2.578126-1.71875-2.578124-1.953125-2.578126-2.148437-2.578124-2.34375-2.578126-2.539063-2.578124-2.734375-2.578126-2.929687-2.578124-3.085938-2.578126-3.28125-2.578124-3.398437-2.578126-3.59375-2.578124-3.75-2.578126-3.867188-2.578124-4.023437-2.578126-4.140625-2.578124-4.296875-2.578126-4.375-2.578124-4.492188-2.578126-4.609375-2.578124-4.6875-2.578126-4.765625-2.578124-4.84375-2.578126-4.921875-2.578124-5-2.578126-5.039062-2.539062-5.078125-2.617188-5.15625-2.578124-5.15625-7.734376-15.703125-2.578124-5.273438-2.578126-5.3125-2.578124-5.273437-2.578126-5.3125-2.578124-5.273438-2.539063-5.273437-2.617187-5.273438-5.15625-10.46875-2.539063-5.195312-2.578125-5.195313-2.617188-5.117187-2.578124-5.117188-2.578126-5.078125-2.539062-5.039062-2.578125-5.039063-2.617187-4.921875-2.578126-4.921875-2.578124-4.882812-2.539063-4.804688-2.578125-4.765625-2.578125-4.726562-2.617187-4.6875-2.578126-4.609375-2.539062-4.570313-2.578125-4.492187-2.578125-4.453125-2.578125-4.414063-2.578125-4.335937-2.578125-4.296875-2.578125-4.21875-2.578125-4.179688-2.578125-4.140625-2.578125-4.0625-2.578125-3.984375-2.578125-3.945312-2.578125-3.90625-2.578125-3.828125-5.15625-7.5-5.15625-7.265625-2.578125-3.554688-5.15625-6.953125-5.15625-6.71875-2.578125-3.28125-2.578125-3.242187-2.578125-3.164063-2.578125-3.125-2.578125-3.085937-2.578125-3.046875-5.15625-5.9375-5.15625-5.703125-2.578125-2.8125-2.578125-2.734375-5.15625-5.390625-2.578125-2.617188-5.15625-5.078125-2.578125-2.5-2.578125-2.460937-5.15625-4.765625-2.578125-2.34375-2.578125-2.304688-5.15625-4.453125-2.578125-2.1875-2.578125-2.148437-2.578125-2.109375-2.578125-2.070313-5.15625-4.0625-2.578125-1.992187-7.734375-5.742188-5.15625-3.671875-2.578125-1.796875-2.578125-1.757812-5.15625-3.4375-2.578125-1.679688-5.15625-3.28125-2.578125-1.601562-5.15625-3.125-5.15625-3.046875-2.578125-1.484375-5.15625-2.890625-2.578125-1.40625-7.734375-4.101563-2.578125-1.328125-7.734375-3.867187-2.578125-1.25-7.734375-3.632813-2.578125-1.171875-7.734375-3.398437-7.734375-3.28125-5.15625-2.109375-5.15625-2.03125-10.3125-3.90625-5.15625-1.875-7.734375-2.695313-10.3125-3.4375-5.15625-1.640625-2.578125-.78125-2.578125-.820312-5.15625-1.5625-12.890625-3.710938-7.734375-2.109375-2.578125-.664062-2.578125-.703125-2.578125-.664063-2.578125-.625-2.578125-.664062-2.578125-.625-2.578125-.664063-2.578125-.625-2.578125-.585937-2.578125-.625-2.578125-.585938-2.578125-.625-2.578125-.585937-2.578125-.546875-2.578125-.585938-2.578125-.546875-2.578125-.585937-5.15625-1.09375-2.578125-.507813-2.578125-.546875-2.578125-.507812-2.578125-.546875-5.15625-1.015625-2.578125-.46875-2.578125-.507813-2.578125-.46875-2.578125-.507812-7.734375-1.40625-2.578125-.429688-2.578125-.46875-2.578125-.429687-2.578125-.46875-10.3125-1.71875-2.539062-.390625-2.578126-.429688-5.15625-.78125-2.617187-.429687-5.15625-.78125-2.578125-.351563-2.539062-.390625-2.578126-.390625-2.578124-.351562-2.578126-.390625-2.617187-.351563-7.734375-1.054687-2.539062-.351563-5.15625-.703125-2.578126-.3125-2.578124-.351562-2.578126-.3125-2.578124-.351563-18.046876-2.1875-2.578124-.273437-2.578126-.3125-2.578124-.273438-2.578126-.3125-7.734374-.820312-2.578126-.3125-5.15625-.546875-2.578124-.234375-7.734376-.820313-2.578124-.234375-2.578126-.273437-2.578124-.234375-2.578126-.273438-2.578124-.234375-2.578126-.273437-20.625-1.875-2.578124-.195313-5.15625-.46875-2.578126-.195312-2.578124-.234375-2.578126-.195313-2.578124-.234375-2.578126-.195312-2.578124-.234375-7.734376-.585938-2.578124-.234375-12.890626-.976562-2.578124-.15625-7.734376-.585938-2.578124-.15625-5.15625-.390625-2.578126-.15625-2.578124-.195312-2.578126-.15625-2.578124-.195313-5.15625-.3125-2.578126-.195312-5.15625-.3125-2.578124-.195313-28.359376-1.71875-2.578124-.117187-7.734376-.46875-2.578124-.117188-5.15625-.3125-2.578126-.117187-2.578124-.15625-2.578126-.117188-2.578124-.15625-2.578126-.117187-2.578124-.15625-5.15625-.234375-2.578126-.15625-5.15625-.234375-2.578124-.15625-10.3125-.46875-2.578126-.15625-25.78125-1.171875-2.578124-.078125-12.890626-.585938-2.578124-.078125-5.15625-.234375-2.578126-.078125-5.15625-.234375-2.578124-.078125-5.15625-.234375-2.578126-.078125-2.578124-.117187-2.578126-.078125-2.578124-.117188-2.578126-.078125-2.578124-.117187-2.578126-.078125-2.578124-.117188-5.15625-.15625-2.578126-.117187-5.15625-.15625-2.578124-.117188-2.578126-.078125-2.382812-.078125" fill="none" stroke="#ccac00"/></g><path d="m265.40625 76.726562-.25-.070312-.246094-.070312-.25-.070313-.246094-.070313-.25-.070312-.246093-.066406-.25-.070313-.246094-.070312-.25-.070313-.246094-.070312-.25-.070313-.246093-.070312-.25-.066407-.246094-.070312-.5-.140625-.246094-.070313-.25-.070312-.246094-.070312-.25-.070313-.246094-.070313-.25-.070312-.246093-.066406-.25-.070313-.246094-.070312-.25-.070313-.246094-.070312-.25-.070313-.246093-.070312-.25-.070313-.023438-.007812-.054688 4.015625.027344-.003907.25-.066406 1-.25.25-.066406.75-.1875.25-.066406.75-.1875.25-.066406.75-.1875.25-.066407.246094-.0625.25-.0625.25-.066406.75-.1875.25-.066406.5-.125.25-.066407z" fill="#ccac00"/><path d="m2654.0625 108.034375-2.5.703125-2.460938.703125-2.5.703125-2.460937.703125-2.5.703125-2.460937.664062-2.5.703125-2.460938.703125-2.5.703125-2.460938.703125-2.5.703125-2.460937.703125-2.5.664063-2.460937.703125-5 1.40625-2.460938.703125-2.5.703125-2.460938.703125-2.5.703125-2.460937.703125-2.5.703125-2.460937.664062-2.5.703125-2.460938.703125-2.5.703125-2.460938.703125-2.5.703125-2.460937.703125-2.5.703125-.234375.078125-.546875-40.15625.273437.039063 2.5.664062 10 2.5 2.5.664063 7.5 1.875 2.5.664062 7.5 1.875 2.5.664063 7.5 1.875 2.5.664062 2.460938.625 2.5.625 2.5.664063 7.5 1.875 2.5.664062 5 1.25 2.5.664063zm0 0" style="fill:none;stroke-width:4.99886;stroke-linecap:round;stroke-linejoin:round;stroke:#ccac00;stroke-miterlimit:10" transform="matrix(.1 0 0 -.1 0 87.53)"/><path d="m7.613281 76.011719.253907.0625.75.175781.253906.0625.5.117188.253906.058593.25.0625.5.117188.253906.058593.75.175782.253906.058594.25.0625.25.058593.253907.058594.75.175781.253906.058594.5.117188.253906.058593.25.054688.25.058593.253907.058594.25.058594.03125.007812-.140626-4.019531-.015624.003907-.246094.078124-.25.074219-.246094.074219-.246094.078125-.738281.222656-.25.074219-.246094.078125-.738281.222656-.25.074219-.492188.148438-.246093.078124-.246094.074219-.25.074219-.984375.296875-.25.074219-.738281.222656-.25.074219-.246094.074219-.246094.070312z" fill="#ccac00"/><path d="m76.132812 115.182812 2.539063-.625 7.5-1.757812 2.539063-.625 5-1.171875 2.539062-.585938 2.5-.625 5-1.171875 2.539062-.585937 7.5-1.757813 2.539063-.585937 2.5-.625 2.5-.585938 2.539063-.585937 7.5-1.757813 2.539062-.585937 5-1.171875 2.539062-.585938 2.5-.546875 2.5-.585937 2.539063-.585938 2.5-.585937.3125-.078125-1.40625 40.195312-.15625-.039062-2.460937-.78125-2.5-.742188-2.460938-.742187-2.460938-.78125-7.382812-2.226563-2.5-.742187-2.460938-.78125-7.382812-2.226563-2.5-.742187-4.921875-1.484375-2.460937-.78125-2.460938-.742188-2.5-.742187-9.84375-2.96875-2.5-.742188-7.382812-2.226562-2.5-.742188-2.460938-.742187-2.460938-.703125zm0 0" style="fill:none;stroke-width:4.99886;stroke-linecap:round;stroke-linejoin:round;stroke:#ccac00;stroke-miterlimit:10" transform="matrix(.1 0 0 -.1 0 87.53)"/><use fill="#191970" x="154.08" xlink:href="#a" y="34.6101"/><use fill="#191970" x="159.24016" xlink:href="#c" y="34.6101"/><use fill="#191970" x="164.52024" xlink:href="#b" y="34.6101"/><use fill="#191970" x="170.8804" xlink:href="#d" y="34.6101"/><g fill="#998100"><use x="59.7605" xlink:href="#a" y="34.6101"/><use x="63.59995" xlink:href="#e" y="36.4101"/><use x="69.36011" xlink:href="#c" y="34.6101"/><use x="74.64019" xlink:href="#b" y="34.6101"/><use x="81.00035" xlink:href="#d" y="34.6101"/></g><use x="275.76" xlink:href="#b" y="85.96984"/></svg>