<svg height="93.35pt" viewBox="0 0 283.46 93.35" width="283.46pt" xmlns="http://www.w3.org/2000/svg" xmlns:xlink="http://www.w3.org/1999/xlink"><symbol id="a" overflow="visible"><path d="m.25-1.046875c0 .234375-.015625.390625-.09375.765625-.03125.15625-.03125.1875-.046875.265625.171875.09375.375.140625.515625.140625.390625 0 .859375-.34375 1.234375-.90625l.90625-1.390625.125.828125c.15625 1.015625.4375 1.46875.859375 1.46875.265625 0 .65625-.203125 1.03125-.546875l.578125-.515625-.09375-.234375c-.4375.359375-.734375.53125-.921875.53125s-.34375-.109375-.453125-.34375-.25-.671875-.3125-1.03125l-.203125-1.203125.421875-.578125c.546875-.78125.875-1.0625 1.25-1.0625.1875 0 .328125.109375.390625.28125l.171875-.046875.171875-1.015625c-.140625-.078125-.25-.125-.359375-.125-.46875 0-.953125.4375-1.6875 1.53125l-.453125.65625-.0625-.5625c-.140625-1.1875-.46875-1.625-1.171875-1.625-.3125 0-.578125.09375-.6875.25l-.6875 1 .203125.109375c.359375-.40625.59375-.5625.828125-.5625.390625 0 .65625.484375.859375 1.65625l.125.75-.46875.734375c-.515625.796875-.921875 1.1875-1.265625 1.1875-.171875 0-.3125-.046875-.328125-.109375l-.140625-.34375zm0 0"/></symbol><symbol id="b" overflow="visible"><path d="m4.8125-5.640625-.125-.109375-.390625.21875c-.5-.1875-.703125-.234375-1.015625-.234375-.34375 0-.578125.0625-.90625.21875-.734375.375-1.125.734375-1.4375 1.3125-.515625 1.0625-.890625 2.5-.890625 3.4375 0 .515625.1875.921875.40625.921875.265625 0 .71875-.25 1.171875-.65625.5-.453125.96875-1 1.609375-1.90625l-.34375 1.515625c-.046875.203125-.0625.421875-.0625.609375 0 .265625.09375.421875.28125.421875.265625 0 .765625-.3125 1.75-1.125l-.09375-.25c-.0625.0625-.109375.078125-.15625.125-.375.328125-.5625.4375-.734375.4375-.109375 0-.1875-.109375-.1875-.28125 0-.0625 0-.09375.015625-.125zm-1 .6875c-.265625 1.3125-.484375 1.921875-.890625 2.546875-.6875 1-1.421875 1.703125-1.796875 1.703125-.140625 0-.21875-.15625-.21875-.484375 0-.765625.34375-2.15625.75-3.109375.296875-.65625.5625-.875 1.140625-.875.28125 0 .484375.046875 1.015625.21875zm0 0"/></symbol><symbol id="c" overflow="visible"><path d="m2.8125-8.625-.140625-.140625c-.625.3125-1.0625.421875-1.921875.5l-.046875.25h.578125c.28125 0 .40625.09375.40625.296875 0 .078125-.015625.21875-.03125.28125l-1.203125 6.59375c-.015625.03125-.015625.078125-.015625.109375 0 .46875.578125.859375 1.234375.859375.4375 0 1.046875-.21875 1.5625-.59375 1.15625-.8125 1.9375-2.453125 1.9375-4.03125 0-.453125-.109375-.921875-.25-1.09375-.078125-.109375-.234375-.171875-.421875-.171875-.28125 0-.640625.09375-.96875.265625-.609375.328125-1.015625.6875-1.75 1.625zm1.03125 3.5625c.3125 0 .46875.265625.46875.859375 0 .765625-.25 1.78125-.609375 2.5625-.390625.828125-.875 1.203125-1.515625 1.203125-.546875 0-.84375-.265625-.84375-.765625 0-.296875.046875-.640625.15625-1.078125.21875-.953125.515625-1.53125.984375-2.03125.390625-.40625 1.015625-.75 1.359375-.75zm0 0"/></symbol><symbol id="d" overflow="visible"><path d="m3.421875-4.578125c.046875-.234375.125-.5.203125-.671875l-.046875-.078125-.09375.015625c-.28125.078125-.40625.09375-1 .09375h-.1875l.25-1.34375c.1875-1.03125.53125-1.484375 1.078125-1.484375.359375 0 .671875.1875.859375.46875l.125-.046875c.046875-.1875.171875-.5625.265625-.796875l.0625-.1875c-.1875-.078125-.5625-.15625-.84375-.15625-.125 0-.3125.046875-.40625.09375-.296875.125-1.265625.859375-1.546875 1.140625-.265625.265625-.40625.625-.53125 1.296875l-.1875.953125c-.484375.234375-.734375.328125-1.03125.4375l-.0625.265625h.96875l-.109375.671875c-.34375 2.328125-.796875 4.546875-1.0625 5.375-.203125.703125-.5625 1.078125-1 1.078125-.265625 0-.40625-.078125-.625-.34375l-.15625.046875c-.046875.265625-.21875.84375-.28125.953125.109375.0625.28125.09375.421875.09375.484375 0 1.140625-.375 1.59375-.9375.734375-.859375 1-1.6875 1.875-5.890625.03125-.140625.125-.59375.21875-1.046875zm0 0"/></symbol><symbol id="e" overflow="visible"><path d="m4.125 2.984375c0-.03125 0-.0625-.21875-.265625-1.546875-1.578125-1.953125-3.921875-1.953125-5.828125 0-2.171875.46875-4.34375 2-5.890625.171875-.15625.171875-.171875.171875-.21875 0-.078125-.046875-.125-.125-.125-.125 0-1.25.84375-1.984375 2.4375-.640625 1.359375-.78125 2.75-.78125 3.796875 0 .96875.140625 2.46875.828125 3.875.734375 1.53125 1.8125 2.34375 1.9375 2.34375.078125 0 .125-.03125.125-.125zm0 0"/></symbol><symbol id="f" overflow="visible"><path d="m3.59375-3.109375c0-.96875-.125-2.484375-.8125-3.890625-.75-1.53125-1.828125-2.34375-1.953125-2.34375-.0625 0-.125.046875-.125.125 0 .046875 0 .0625.25.296875 1.21875 1.21875 1.921875 3.203125 1.921875 5.8125 0 2.125-.453125 4.3125-2 5.890625-.171875.140625-.171875.171875-.171875.203125 0 .078125.0625.125.125.125.125 0 1.25-.84375 1.984375-2.421875.640625-1.375.78125-2.75.78125-3.796875zm0 0"/></symbol><symbol id="g" overflow="visible"><path d="m.46875-2.53125c.1875-.375.40625-.765625.5625-.765625.171875 0 .1875.1875.21875.390625l.46875 2.90625h.28125c.40625-.640625 2.140625-3.015625 2.140625-3.515625 0-.125-.0625-.171875-.203125-.171875-.359375 0-.515625.25-.515625.421875l.015625.3125c0 .421875-.8125 1.46875-1.171875 2.0625l-.390625-2.25c-.046875-.296875-.203125-.546875-.46875-.546875-.53125 0-.859375.4375-1.125 1.046875zm0 0"/></symbol><symbol id="h" overflow="visible"><path d="m2.765625 2c0-.015625 0-.046875-.140625-.1875-1.046875-1.046875-1.3125-2.625-1.3125-3.890625 0-1.453125.3125-2.90625 1.34375-3.953125.109375-.09375.109375-.125.109375-.140625 0-.0625-.03125-.078125-.09375-.078125-.078125 0-.828125.5625-1.3125 1.625-.4375.90625-.53125 1.84375-.53125 2.546875 0 .640625.09375 1.65625.546875 2.59375.5 1.03125 1.21875 1.5625 1.296875 1.5625.0625 0 .09375-.015625.09375-.078125zm0 0"/></symbol><symbol id="i" overflow="visible"><path d="m2.125 2.078125v-.328125h-.8125v-7.671875h.8125v-.328125h-1.140625v8.328125zm0 0"/></symbol><symbol id="j" overflow="visible"><path d="m1.328125-6.25h-1.140625v.328125h.8125v7.671875h-.8125v.328125h1.140625zm0 0"/></symbol><symbol id="k" overflow="visible"><path d="m2.40625-2.078125c0-.65625-.09375-1.671875-.546875-2.609375-.5-1.03125-1.21875-1.5625-1.296875-1.5625-.046875 0-.09375.03125-.09375.078125 0 .015625 0 .046875.171875.1875.8125.828125 1.28125 2.15625 1.28125 3.90625 0 1.421875-.296875 2.890625-1.34375 3.9375-.109375.09375-.109375.125-.109375.140625 0 .046875.046875.078125.09375.078125.078125 0 .828125-.5625 1.328125-1.625.421875-.90625.515625-1.84375.515625-2.53125zm0 0"/></symbol><symbol id="l" overflow="visible"><path d="m3.21875-3.78125-.078125-.0625-.265625.140625c-.328125-.125-.46875-.15625-.6875-.15625s-.375.046875-.59375.140625c-.5.25-.765625.5-.96875.890625-.34375.703125-.59375 1.671875-.59375 2.296875 0 .34375.125.625.265625.625.1875 0 .484375-.1875.796875-.453125.328125-.296875.640625-.671875 1.078125-1.265625l-.234375 1.015625c-.03125.125-.046875.265625-.046875.40625 0 .171875.0625.28125.1875.28125.1875 0 .515625-.21875 1.171875-.765625l-.0625-.15625c-.046875.03125-.0625.046875-.09375.078125-.265625.21875-.375.296875-.5.296875-.078125 0-.125-.078125-.125-.1875 0-.046875 0-.0625.015625-.09375zm-.671875.46875c-.171875.875-.328125 1.28125-.59375 1.703125-.453125.671875-.9375 1.140625-1.203125 1.140625-.09375 0-.140625-.109375-.140625-.328125 0-.5.21875-1.4375.5-2.078125.1875-.4375.375-.59375.765625-.59375.1875 0 .328125.03125.671875.15625zm0 0"/></symbol><symbol id="m" overflow="visible"><path d="m1.875-5.78125-.09375-.078125c-.40625.203125-.703125.28125-1.28125.328125l-.03125.171875h.390625c.1875 0 .265625.0625.265625.1875 0 .0625 0 .140625-.015625.203125l-.8125 4.40625v.078125c0 .3125.390625.578125.828125.578125.296875 0 .703125-.15625 1.046875-.40625.765625-.546875 1.296875-1.640625 1.296875-2.703125 0-.296875-.078125-.609375-.171875-.734375-.0625-.0625-.15625-.109375-.28125-.109375-.1875 0-.4375.0625-.65625.171875-.40625.21875-.671875.46875-1.171875 1.09375zm.703125 2.390625c.203125 0 .3125.1875.3125.578125 0 .515625-.171875 1.203125-.40625 1.71875-.265625.546875-.59375.8125-1.015625.8125-.375 0-.578125-.1875-.578125-.53125 0-.203125.03125-.421875.109375-.71875.15625-.640625.34375-1.015625.65625-1.359375.265625-.265625.6875-.5.921875-.5zm0 0"/></symbol><symbol id="n" overflow="visible"><path d="m1.625-.984375c-.203125.078125-.359375.125-.78125.234375-.046875.609375-.25 1.140625-.71875 1.90625l.109375.078125.328125-.140625c.65625-.84375.953125-1.34375 1.1875-1.96875zm0 0"/></symbol><path d="m7.613281 76.121094.261719-.007813.257812-.007812.253907-.007813.257812-.003906.261719-.007812.257812-.007813.253907-.007813.257812-.007812.261719-.003906 1.03125-.03125.253906-.007813 1.546875-.046875.257813-.003906.257812-.007812.257813-.011719 2.320312-.070313.257813-.011718 1.03125-.03125.257812-.011719.515625-.015625.257813-.011719.515625-.015625.257812-.011719.515625-.015625.257813-.011718.257812-.007813.257813-.011719.257812-.007812.257813-.011719.257812-.007813.257813-.011718.257812-.007813.257813-.011719.257812-.007812.515625-.023438.257813-.007812.515625-.023438.257812-.007812 1.03125-.046875.257813-.007813 3.867187-.175781.257813-.015625.773437-.035156.257813-.015625.515625-.023437.257812-.015626.257813-.011718.257812-.015625.257813-.011719.257812-.015625.257813-.011719.257812-.015625.257813-.011719.515625-.03125.257812-.011718.773438-.046875.257812-.011719 2.578125-.15625.257813-.019531.515625-.03125.257812-.019531.515625-.03125.257813-.019532.257812-.015625.257813-.019531.257812-.015625.515625-.039063.257813-.015624 1.03125-.078126.257812-.015624.257813-.019532.257812-.023437.257813-.015625.257812-.023438.773438-.058594.257812-.023437.515625-.039063.257813-.023437.257812-.019531.515625-.046875.257813-.019531.515625-.046876.257812-.019531.773438-.070312.257812-.027344 1.03125-.09375.257813-.027344.257812-.023437.515625-.054688.257813-.023437.773437-.082031.257813-.023438.257812-.027344.257813-.03125.773437-.082031.257813-.03125.257812-.027344.257813-.03125.257812-.027343 1.289063-.15625.253906-.03125.257812-.03125.257813-.035157.257813-.03125.261718-.03125.773438-.105469.253906-.03125.257812-.039062.515626-.070312.261718-.035157.257813-.039062.257812-.035157.257813-.039062.253906-.035156.773438-.117188.257812-.042968.515625-.078126.515625-.085937.257812-.039063.515626-.085937.257812-.046875.515625-.085938 1.546875-.28125.515625-.101562.257813-.046875.257812-.050781.257812-.054688.515626-.101562 1.289062-.273438 1.289062-.292968.257813-.0625.257813-.058594.515624-.125.257813-.066406.257813-.0625.773437-.199219.257813-.070313.257812-.066406.257812-.070312.257813-.074219.257813-.070313 1.03125-.296875.515624-.15625.257813-.082031.257813-.078125.515624-.164063 1.03125-.34375.773438-.269531.515625-.1875 1.03125-.390625.257813-.101562.257812-.105469.257812-.101563.257813-.109374.257813-.105469.515624-.21875.515626-.226563.515624-.234375.515626-.242187.773437-.375.257813-.128906.515624-.265626.515626-.273437.515624-.28125.515626-.289063.257812-.148437.515625-.304687.257813-.160157.257812-.15625.257812-.160156.257813-.164063.515625-.335937.257812-.171875.515626-.351562.515624-.367188.515626-.375.257812-.191406.773438-.597656.257812-.207032.515625-.421875.515625-.4375.257812-.222656.257813-.226563.515625-.46875.257812-.238281.257813-.242187.257813-.246094.515624-.507812.257813-.257813.257813-.265625.515624-.539062.257813-.277344.257813-.28125.515624-.578125.257813-.296875.257813-.300782.257812-.304687.257812-.308594.257813-.316406.257813-.320313.257812-.324218.257812-.332032.257813-.335937.257813-.339844.257812-.34375.257812-.351562.515626-.71875.257812-.367188.257812-.375.257813-.378906.257813-.382813.257812-.386718.257812-.394532.515626-.804687.257812-.414063.253906-.414062.257813-.421875.261719-.425781.257812-.433594.257812-.4375.253907-.441406.257812-.445313.257813-.453125.261718-.457031.257813-.460937.253906-.464844.257813-.46875.257812-.476563.261719-.476562.257813-.480469.253906-.488281.257812-.488281.257813-.492188.261719-.492188.253906-.5.257812-.496093.257813-.5 1.546875-3.023438.257812-.5.261719-.5.253906-.5.257813-.496093.257812-.492188.257813-.488281.257812-.484375.257813-.476563.257812-.472656.257813-.46875.257812-.457031.257813-.453125.257812-.441407.257813-.433593.257812-.425781.257813-.414063.257812-.402344.257813-.390625.257812-.378906.257813-.363281.257812-.351563.257813-.335937.257812-.320313.257813-.304687.257812-.289063.257813-.269531.257812-.253906.257813-.234375.257812-.21875.257813-.199219.257812-.175781.257813-.15625.257812-.140625.257813-.117188.257812-.09375.257813-.078125.257812-.054687.257813-.03125.257812-.011719.257813.007812.257812.03125.257813.050782.257812.074218.257813.09375.257812.113282.257813.132812.257812.15625.257813.171875.257812.191407.257813.210937.257812.230469.257813.246094.257812.261718.257813.28125.257812.292969.257813.308594.257812.324219.257813.339843.257812.351563.257813.359375.257812.375.257813.386719.257812.394531.257813.40625.257812.414062.257813.417969.257812.429688.257813.433593.257812.441407.257813.445312.257812.449219.257813.453125.257812.457031.773438 1.382813.773437 1.394531.773438 1.382812.515625.914063.257812.453125.257813.449219.257812.445312.257813.441406.257812.4375.257813.433594.257812.429688.257813.421874.257812.417969.257813.414063.257812.40625.257813.398437.257812.394531.257813.390626.257812.382812.257813.375.257812.371094.257813.363281.257812.355469.257813.347656.257812.34375.257813.332031.257812.328125.257813.324219.257812.3125.257813.308594.257812.296875.257813.292968.257812.285157.257813.277343.257812.273438.257813.261719.257812.257812.257813.25.257812.242188.257813.234375.257812.226562.257813.222656.257812.214844.257813.207032.257812.199218.257813.195313.515625.367187.257812.171875.257813.167969.257812.160156.257813.152344.257812.148438.257813.140624.253906.132813.261719.128906.257812.125.515625.226563.515625.203125.515625.179687.257813.082032.257812.074218.253906.070313.261719.066406.257813.058594.257812.054687.257813.050782.253906.042968.261719.039063.257812.035156.257813.03125.253906.027344.257813.019531.261718.015625.257813.011719.257812.007812.253907.003906h.257812l.257812-.003906.261719-.007812.257813-.015625.253906-.015625.257812-.019532.257813-.023437.261719-.023437.253906-.03125.257812-.03125.515626-.078126.261718-.042968.253906-.042969.257813-.046875.257813-.050781.773437-.164063.257813-.0625.257812-.058594.257812-.066406.257813-.0625.261719-.070312.253906-.066406.515625-.140626.773437-.222656 1.546876-.46875.257812-.082031.515625-.15625.257813-.082031.257812-.078125.257812-.082031 1.289063-.390626.257813-.074218.257812-.078125.257812-.070313.257813-.074218.773437-.210938.515626-.132812.515624-.125.515626-.117188.515624-.109375.515626-.101563.257812-.046874.515625-.085938.257813-.039062.515624-.070313.773438-.082031.515625-.039063.257813-.015625.257812-.011718.257812-.007813.515626-.007813.515624.007813.257813.007813.257813.011718.257812.015625.257812.019531.257813.023438.515625.054688.257812.035156.515626.078125.515624.09375.515626.109375.515624.125.257813.066406.257813.070312.515624.15625.257813.082032.257813.085937.257812.089844.257812.09375.257813.097656.257813.101563.515624.210937.515626.226563.515624.242187.257813.125.257813.128907.515624.265624.515626.28125.257812.144532.515625.296875.257813.152343.257812.15625.515625.320313.257813.167969.257812.164062.257812.167969.257813.171875.515625.351562.515625.359376.515625.367187.515625.375.515625.382813.773438.585937.257812.199219.257812.195312.257813.203125.257813.199219.773437.609375 1.289063 1.035156.253906.207031.261718.207032.257813.210937.515625.414063.257812.210937.257813.207031.257813.210938.257812.207031.257812.210938 1.03125.828125.253907.207031.515625.40625.261718.207031.257813.203125.253906.199219.257813.203125.257812.199219.261719.199218.257813.199219.257812.195313.253906.195312.257813.195313.261719.191406.515624.382813.253907.1875.257812.1875.257813.183593.257812.1875.257813.179688.257812.183593.257813.175782.257812.179687.261719.175781.253906.171876.515625.34375.257813.167968.261719.167969.253906.164063.257812.164062.515625.320312.257813.15625.773437.457032.515625.296875.515625.289062.257813.140625.773437.410156.257813.132813.773437.386719.257813.125.515625.242187.515625.234375.773437.339844.257813.105469.257812.109375.257813.101562.257812.105469.257813.101563.515625.195312.773437.28125.257813.089844.773437.257812.515625.164063.773438.234375.515625.148437.515625.140625.773437.199219.773438.1875.773437.175781.515625.109375.257813.050781.257812.054688.257813.050781 1.289062.234375.515625.085938.257813.039062.257812.042969.515625.078125.257813.035156.257812.039063.515625.070312.257813.03125.257812.035157.773438.09375.257812.027343.257813.03125 1.03125.109375.257812.023438.257813.027344.773437.070312.257813.019531.257812.023438.257813.019531.257812.023438 1.03125.078124.257813.015626.257812.019531.257813.015625.257812.019531 1.289063.078125.257812.011719.515625.03125.257813.011719.257812.015624 2.320313.105469.257812.007813.515625.023437.257813.007813.257812.011718.257813.007813.257812.011719 1.03125.03125.253906.011718.261719.007813.773438.023437.253906.007813.261719.007813.515625.015624.257812.003907.773438.023437.257812.003906.253907.007813.257812.007813.257812.003906.261719.007812.257813.007813.253906.003906.257812.007813.257813.003906.261719.007812.515625.007813.253906.007812.257813.003907.261718.007812.257813.003906.257812.007813.253907.003906.257812.003906.257812.007813.773438.011718.257812.007813.257813.003906.261719.003907.253906.003906.257812.007812.515626.007813.261718.003906.253906.003906.257813.007813 2.0625.03125.257813.007812 4.898437.074219h.257813l2.320312.035156h.257812l1.546876.023438h.257812l1.289062.019531h.257813l1.03125.015625h.257813l.773437.011719h.257813l1.03125.015625h.257812l7.367188.851562h-272.523438z" fill="#7f7f7f" fill-opacity=".8"/><path d="m2579.101562 166.78125-2.382812.039062-18.046875.273438h-2.578125l-48.984375.742188-2.578125.078124-20.625.3125-2.578125.078126-2.539063.039062-2.617187.039062-5.15625.078126-2.578125.078124-2.539062.039063-2.617188.039063-2.578125.039062-2.578125.078125-7.734375.117187-2.578125.078126-2.578125.039062-2.539063.039062-2.578124.078126-2.578126.039062-2.617187.078125-2.578125.039063-2.539062.078124-5.15625.078126-2.617188.078124-2.578125.039063-2.578125.078125-2.539062.039062-2.578126.078126-2.617187.078124-2.578125.039063-2.578125.078125-2.539063.078125-2.578124.039063-7.734376.234374-2.578124.039063-5.15625.15625-2.617188.078125-2.539062.078125-7.734376.234375-2.617187.078125-2.539063.117187-10.3125.3125-2.578124.117188-2.578126.078125-2.578124.117187-2.578126.078126-5.15625.234374-2.578124.078126-23.203126 1.054687-2.578124.15625-2.578126.117187-5.15625.3125-2.578124.117188-12.890626.78125-2.578124.195312-2.578126.15625-2.578124.195313-2.578126.15625-10.3125.78125-2.578124.234375-2.578126.195312-2.578124.234376-2.578126.195312-7.734374.703125-2.578126.273437-2.578124.234376-10.3125 1.09375-2.578126.3125-2.578124.273437-7.734376.9375-2.578124.351563-2.578126.3125-5.15625.703124-2.578124.390626-2.578126.351562-5.15625.78125-2.578124.429688-2.578126.390624-5.15625.859376-12.890624 2.34375-2.578126.507812-2.578124.546875-2.578126.507813-5.15625 1.09375-7.734374 1.757812-7.734376 1.875-7.734374 1.992188-5.15625 1.40625-5.15625 1.484374-7.734376 2.34375-5.15625 1.640626-7.734374 2.578124-2.578126.898438-7.734374 2.8125-5.15625 1.953125-2.578126 1.015625-2.578124 1.054688-2.578126 1.015624-2.578124 1.09375-2.578126 1.054688-7.734374 3.398438-5.15625 2.34375-5.15625 2.421874-2.578126 1.25-7.734374 3.867188-2.578126 1.328125-7.734374 4.101563-2.578126 1.40625-5.15625 2.890624-5.15625 2.96875-7.734374 4.570313-2.578126 1.5625-5.15625 3.203125-2.578124 1.640625-2.539063 1.640625-2.617187 1.679688-2.578126 1.679687-5.15625 3.4375-2.539062 1.71875-2.617188 1.757813-2.578124 1.796874-2.578126 1.757813-2.578124 1.835937-2.578126 1.796876-2.578124 1.875-2.578126 1.835937-2.578124 1.875-2.539063 1.875-5.15625 3.828125-2.617187 1.914062-2.578126 1.953126-2.539062 1.953124-2.578125 1.953126-2.578125 1.992187-2.617188 1.992187-2.578124 1.992188-2.578126 2.03125-2.539062 1.992188-2.578125 2.03125-2.617187 2.070312-5.15625 4.0625-2.539063 2.070312-10.3125 8.28125-2.578125 2.109376-2.578125 2.070312-2.578125 2.109375-2.578125 2.070313-2.578125 2.109374-5.15625 4.140626-2.578125 2.109374-2.617187 2.070313-2.539063 2.070313-12.890625 10.351562-7.734375 6.09375-2.578125 1.992188-2.578125 2.03125-2.578125 1.953124-2.578125 1.992188-7.734375 5.859375-5.15625 3.828125-5.15625 3.75-5.15625 3.671875-5.15625 3.59375-5.15625 3.515625-2.578125 1.71875-2.578125 1.679688-2.578125 1.640624-2.578125 1.679688-5.15625 3.203125-2.578125 1.5625-2.578125 1.523437-5.15625 2.96875-2.578125 1.445313-5.15625 2.8125-5.15625 2.65625-2.578125 1.289063-2.578125 1.25-5.15625 2.421874-5.15625 2.265626-5.15625 2.109374-2.578125 1.015626-2.578125.976562-2.578125.9375-2.578125.898438-2.578125.859374-2.578125.820313-5.15625 1.5625-2.578125.703125-2.578125.664062-5.15625 1.25-5.15625 1.09375-5.15625.9375-5.15625.78125-2.578125.351563-5.15625.546875-2.578125.234375-2.578125.195313-2.578125.15625-2.578125.117187-2.578125.078125-5.15625.078125-5.15625-.078125-2.578125-.078125-2.578125-.117187-2.578125-.15625-5.15625-.390626-7.734375-.820312-5.15625-.703125-2.578125-.390625-5.15625-.859375-2.578125-.46875-5.15625-1.015625-5.15625-1.09375-5.15625-1.171875-5.15625-1.25-5.15625-1.328125-7.734375-2.109375-2.578125-.742187-2.578125-.703126-2.578125-.78125-2.578125-.742187-12.890625-3.90625-2.578125-.820313-2.578125-.78125-2.578125-.820312-5.15625-1.5625-2.578125-.820312-15.46875-4.6875-7.734375-2.226563-5.15625-1.40625-2.539062-.664063-2.617188-.703124-2.578125-.625-2.578125-.664063-2.578125-.585937-2.578125-.625-7.734375-1.640626-2.578125-.507812-2.578125-.46875-2.539063-.429688-2.617187-.429687-5.15625-.78125-2.578125-.3125-2.539062-.3125-2.617188-.234375-2.578125-.234375-2.578125-.195313-2.539062-.15625-2.578126-.15625-2.617187-.078124-2.578125-.039063h-2.578125l-2.539063.039063-2.578124.078124-2.578126.117188-2.617187.15625-2.578125.195312-2.539062.273438-2.578126.3125-2.578124.351562-2.617188.390626-2.539062.429687-2.578126.507813-2.578124.546874-2.578126.585938-2.617187.664062-2.539063.703126-2.578124.742187-2.578126.820313-5.15625 1.796874-5.15625 2.03125-5.15625 2.265626-2.578124 1.25-2.617188 1.289062-2.539062 1.328125-2.578126 1.40625-2.578124 1.484375-2.578126 1.523438-2.578124 1.601562-2.578126 1.679688-2.578124 1.71875-5.15625 3.671874-2.578126 1.953126-2.578124 1.992187-2.578126 2.070313-2.578124 2.148437-2.578126 2.226563-2.578124 2.265624-2.578126 2.34375-2.578124 2.421876-2.578126 2.5-2.578124 2.578124-2.578126 2.617188-2.578124 2.734375-2.578126 2.773437-2.578124 2.851563-2.578126 2.929687-2.578124 2.96875-2.578126 3.085938-2.578124 3.125-2.578126 3.242188-2.578124 3.28125-2.578126 3.320312-2.578124 3.4375-2.578126 3.476562-2.578124 3.554688-2.578126 3.632812-2.578124 3.710938-2.578126 3.75-2.578124 3.828125-2.578126 3.90625-2.578124 3.945313-2.578126 3.984374-2.578124 4.0625-2.578126 4.140626-2.578124 4.179687-2.578126 4.21875-2.578124 4.296875-2.578126 4.335938-2.578124 4.375-2.578126 4.414062-2.578124 4.453125-2.578126 4.492187-2.578124 4.53125-5.15625 9.140626-7.734376 13.828124-7.734374 13.945313-7.734376 13.828125-2.578124 4.570312-2.578126 4.53125-2.578124 4.492188-2.578126 4.453125-2.578124 4.414063-2.578126 4.335937-2.578124 4.296875-2.578126 4.179688-2.578124 4.140624-2.578126 4.0625-2.578124 3.945313-2.578126 3.867187-2.578124 3.75-2.578126 3.59375-2.578124 3.515626-2.578126 3.398437-2.578124 3.242187-2.578126 3.085938-2.578124 2.929688-2.578126 2.8125-2.578124 2.617187-2.578126 2.460937-2.578124 2.304688-2.578126 2.109375-2.578124 1.914063-2.578126 1.71875-2.578124 1.5625-2.578126 1.328124-2.578124 1.132813-2.578126.9375-2.578124.742187-2.578126.507813-2.578124.3125-2.578126.078125-2.578124-.117188-2.578126-.3125-2.578124-.546874-2.578126-.78125-2.578124-.9375-2.578126-1.171876-2.578124-1.40625-2.578126-1.5625-2.578124-1.757812-2.578126-1.992188-2.578124-2.1875-2.578126-2.34375-2.578124-2.539062-2.578126-2.695312-2.578124-2.890626-2.578126-3.046874-2.578124-3.203126-2.578126-3.359374-2.578124-3.515626-2.578126-3.632812-2.578124-3.789062-2.578126-3.90625-2.578124-4.023438-2.578126-4.140625-2.578124-4.257813-2.578126-4.335937-2.578124-4.414063-2.578126-4.53125-2.578124-4.570312-2.578126-4.6875-2.578124-4.726562-2.578126-4.765626-2.578124-4.84375-2.578126-4.882812-2.578124-4.921875-2.578126-4.960937-2.539062-5-2.617188-5-2.578124-5-15.46875-30.234376-2.578126-5-2.578124-4.960937-2.539063-5-2.617187-4.921875-2.578126-4.921875-2.578124-4.882813-2.539063-4.882812-2.578125-4.804688-2.617188-4.765624-2.578124-4.765626-2.578126-4.6875-2.539062-4.648437-2.578125-4.609375-2.617187-4.570312-2.578126-4.53125-2.578124-4.453126-2.539063-4.414062-2.578125-4.375-2.578125-4.335938-2.617187-4.257812-2.578126-4.21875-2.539062-4.140625-2.578125-4.140625-5.15625-8.046875-2.578125-3.945313-2.578125-3.867187-2.578125-3.828125-2.578125-3.789062-2.578125-3.75-2.578125-3.671876-5.15625-7.1875-2.578125-3.515624-2.578125-3.4375-2.578125-3.398438-2.578125-3.359375-2.578125-3.320313-2.578125-3.242187-2.578125-3.203125-2.578125-3.164062-2.578125-3.085938-2.578125-3.046875-2.578125-3.007813-2.578125-2.96875-5.15625-5.78125-2.578125-2.8125-2.578125-2.773437-5.15625-5.390625-2.578125-2.65625-2.578125-2.578125-5.15625-5.078125-2.578125-2.460938-2.578125-2.421874-2.578125-2.382813-5.15625-4.6875-2.578125-2.265625-2.578125-2.226562-5.15625-4.375-5.15625-4.21875-2.578125-2.070313-7.734375-5.976563-2.578125-1.914062-5.15625-3.75-5.15625-3.671875-5.15625-3.515625-2.578125-1.71875-5.15625-3.359375-2.578125-1.640625-2.578125-1.601562-2.578125-1.5625-2.578125-1.601563-5.15625-3.046875-2.578125-1.484375-5.15625-2.890625-5.15625-2.8125-5.15625-2.734375-5.15625-2.65625-2.578125-1.289063-7.734375-3.75-5.15625-2.421874-5.15625-2.34375-5.15625-2.265626-5.15625-2.1875-2.578125-1.054687-2.578125-1.09375-2.578125-1.015625-2.578125-1.054688-2.578125-1.015624-10.3125-3.90625-5.15625-1.875-7.734375-2.695313-10.3125-3.4375-5.15625-1.640625-2.578125-.78125-2.578125-.820312-5.15625-1.5625-10.3125-2.96875-2.578125-.703126-2.578125-.742187-2.578125-.703125-2.578125-.664062-2.578125-.703126-7.734375-1.992187-2.578125-.625-2.578125-.664063-5.15625-1.25-2.578125-.585937-2.578125-.625-12.890625-2.929687-12.890625-2.734376-5.15625-1.015624-2.578125-.546876-2.578125-.507812-2.578125-.46875-5.15625-1.015625-15.46875-2.8125-5.15625-.859375-2.578125-.46875-5.15625-.859375-2.578125-.390625-5.15625-.859375-5.15625-.78125-2.578125-.429687-7.734375-1.171876-2.539062-.351562-2.578126-.390625-2.578124-.351563-2.578126-.390624-2.617187-.351563-5.15625-.703125-2.578125-.390625-2.539062-.3125-7.734376-1.054687-2.617187-.3125-2.578125-.3125-2.578125-.351563-2.578125-.3125-2.539062-.3125-12.890626-1.5625-2.578124-.273437-2.578126-.3125-2.578124-.273438-2.578126-.3125-7.734374-.820312-2.578126-.3125-2.578124-.273438-2.578126-.234375-7.734374-.820313-2.578126-.234374-5.15625-.546876-2.578124-.234374-2.578126-.273438-10.3125-.9375-2.578124-.273438-7.734376-.703124-2.578124-.195313-5.15625-.46875-2.578126-.195313-5.15625-.46875-2.578124-.195312-2.578126-.234375-5.15625-.390625-2.578124-.234375-7.734376-.585937-2.578124-.234376-2.578126-.15625-2.578124-.234374-2.578126-.195313-2.578124-.15625-10.3125-.78125-2.578126-.15625-5.15625-.390625-2.578124-.15625-2.578126-.195312-2.578124-.15625-2.578126-.195313-5.15625-.3125-2.578124-.195313-5.15625-.3125-2.578126-.195312-25.78125-1.5625-2.578124-.117188-7.734376-.46875-2.578124-.117187-5.15625-.3125-2.578126-.117187-2.578124-.15625-2.578126-.117188-2.578124-.15625-2.578126-.117188-2.578124-.15625-2.578126-.117187-2.578124-.15625-5.15625-.234375-2.578126-.15625-7.734374-.351562-2.578126-.15625-38.671874-1.757813-2.578126-.078125-10.3125-.46875-2.578124-.078125-5.15625-.234375-2.578126-.078125-5.15625-.234375-2.578124-.078125-2.578126-.117187-2.578124-.078126-2.578126-.117187-2.578124-.078125-2.578126-.117188-2.578124-.078124-2.578126-.117188-2.578124-.078125-2.578126-.117187-5.15625-.15625-2.578124-.117188-5.15625-.15625-2.578126-.117188-5.15625-.15625-2.578124-.117187-10.3125-.3125-2.578126-.117187-5.15625-.15625-2.382812-.078126" style="fill:none;stroke-width:4.99886;stroke-linecap:round;stroke-linejoin:round;stroke:#000;stroke-miterlimit:10" transform="matrix(.1 0 0 -.1 0 93.35)"/><path d="m265.40625 76.761719-.25-.066407-.246094-.070312-.25-.070312-.246094-.070313-.25-.070313-.246093-.070312-.25-.066406-.246094-.070313-.25-.070312-.246094-.070313-.5-.140625-.246093-.070312-.25-.066407-.246094-.070312-.25-.070312-.246094-.070313-.25-.070313-.246094-.070312-.25-.070312-.246094-.066407-.25-.070312-.246093-.070313-.5-.140625-.246094-.070312-.25-.070313-.492187-.140625-.25-.070312-.023438-.007813-.054688 4.019532.027344-.007813.25-.0625.25-.066406.75-.1875.25-.066407.75-.1875.25-.066406.75-.1875.25-.066406.75-.1875.25-.066406.25-.0625.246094-.0625.25-.066406.5-.125.25-.066407.5-.125.25-.066406.5-.125z"/><path d="m2654.0625 165.882812-2.5.664063-2.460938.703125-2.5.703125-2.460937.703125-2.5.703125-2.460937.703125-2.5.664062-2.460938.703126-2.5.703124-2.460938.703126-5 1.40625-2.460937.703124-2.5.664063-2.460937.703125-2.5.703125-2.460938.703125-2.5.703125-2.460938.703125-2.5.703125-2.460937.664063-2.5.703124-2.460937.703126-5 1.40625-2.460938.703124-2.5.703126-4.921875 1.40625-2.5.703124-.234375.078126-.546875-40.195313.273437.078125 2.5.625 2.5.664062 7.5 1.875 2.5.664063 7.5 1.875 2.5.664063 7.5 1.875 2.5.664062 7.5 1.875 2.5.664062 2.5.625 2.460938.625 2.5.664063 5 1.25 2.5.664063 5 1.25 2.5.664062 5 1.25zm0 0" style="fill:none;stroke-width:4.99886;stroke-linecap:round;stroke-linejoin:round;stroke:#000;stroke-miterlimit:10" transform="matrix(.1 0 0 -.1 0 93.35)"/><path d="m7.613281 76.121094.253907.058594.25.058593.25.0625.25.058594.25.0625.253906.058594.25.058593.25.0625.25.058594.253906.058594.25.0625.5.117188.253906.058593.25.0625.5.117188.253906.058593.25.058594.25.0625.25.058594.253907.058594.75.175781.253906.058594.5.117187.253906.0625.25.058594.03125.003906-.128906-4.015625-.019531.003907-.246094.074218-.25.074219-.246094.074219-.246094.078125-.492187.148437-.25.074219-.738281.222656-.25.074219-.984375.296875-.25.074219-.492188.148437-.246093.070313-.25.074218-.492188.148438-.25.074219-.738281.222656-.25.070313-.492188.148437z"/><g stroke="#000" stroke-linecap="round" stroke-linejoin="round" stroke-miterlimit="10" stroke-width="4.99886" transform="matrix(.1 0 0 -.1 0 93.35)"><path d="m76.132812 172.289062 2.539063-.585937 2.5-.585937 2.5-.625 2.5-.585938 2.5-.625 2.539063-.585938 2.5-.585937 2.5-.625 2.5-.585937 2.539062-.585938 2.5-.625 5-1.171875 2.539062-.585937 2.5-.625 5-1.171876 2.539063-.585937 2.5-.585937 2.5-.625 2.5-.585938 2.539063-.585938 7.5-1.757812 2.539062-.585938 5-1.171874 2.539062-.625 2.5-.585938.3125-.039062-1.289062 40.15625-.195312-.039063-2.460938-.742187-2.5-.742188-2.460938-.742188-2.460937-.78125-4.921875-1.484374-2.5-.742188-7.382812-2.226562-2.5-.742188-9.84375-2.96875-2.5-.742188-4.921876-1.484374-2.460937-.703126-2.5-.742187-4.921875-1.484375-2.5-.742188-7.382812-2.226562-2.5-.703125-4.921876-1.484375zm0 0" fill="none"/><path d="m2652.734375 157.367188h-2575.234375" fill="none"/><path d="m2727.734375 157.367188-75 20.117187v-40.195313zm0 0"/><path d="m2.5 157.367188 75-20.078126v40.195313zm0 0"/><path d="m1180.976562 855.765625v-698.398437" fill="none"/><path d="m1180.976562 930.726562-20.078124-74.960937h40.15625zm0 0"/><g fill="none"><path d="m1401.914062 157.367188v-18.398438"/><path d="m1733.398438 157.367188v-18.398438"/></g></g><path d="m140.191406 77.613281v-27l.332032.253907.332031.242187.332031.230469.332031.21875.332031.210937.332032.199219.332031.1875.328125.179688.332031.167968.332031.15625.332032.148438.332031.136718.332031.128907.332032.117187.328124.109375.332032.097657.332031.089843.332031.082031.332032.074219.332031.066407.328125.054687.332031.050781.332031.039063.332032.03125.332031.027343.332031.015626.332031.011718.328125.003906.332032-.003906.332031-.007812.332031-.015625.332031-.023438.332031-.027343.332032-.03125.328125-.039063.664062-.09375.332031-.054687.332032-.058594.332031-.0625.328125-.070313.332031-.070312.332031-.074219.332032-.078125.332031-.082031.332031-.085938.328125-.085937.332031-.089844.664063-.1875.996094-.292969.332031-.101562.328125-.101563.664063-.203125.332031-.105468.332031-.101563.328125-.101563.996094-.304687.996093-.292969.328126-.09375.332031-.09375.664062-.179687.332031-.085938.332032-.082031.664062-.15625.328125-.070312.332031-.070313.332032-.066406.332031-.0625.332031-.058594.332032-.050781.328124-.050782.332032-.042968.332031-.039063.332031-.035156.332032-.03125.332031-.023437.328125-.019532.332031-.015625.332031-.007812.332032-.003907.332031.003907.332031.007812.332031.015625.332031.019532.328126.023437.332031.03125.332031.039063.664062.09375.332032.058593v27.5625z" fill="#191970" fill-opacity=".5"/><path d="m1401.914062 157.367188v270l3.320313-2.539063 3.320313-2.421875 3.320312-2.304688 3.320312-2.1875 3.320313-2.109374 3.320313-1.992188 3.320312-1.875 3.28125-1.796875 3.320312-1.679687 3.320313-1.5625 3.320313-1.484376 3.320312-1.367187 3.320312-1.289063 3.320313-1.171874 3.28125-1.09375 3.320313-.976563 3.320312-.898437 3.320312-.820313 3.320313-.742187 3.320313-.664063 3.28125-.546875 3.320312-.507812 3.320312-.390626 3.320313-.3125 3.320313-.273437 3.320312-.15625 3.320312-.117187 3.28125-.039063 3.320313.039063 3.320313.078124 3.320312.15625 3.320312.234376 3.320313.273437 3.320313.3125 3.28125.390625 6.640624.9375 3.320313.546875 3.320313.585937 3.320312.625 3.28125.703126 3.320312.703124 3.320313.742188 3.320313.78125 3.320312.820312 3.320312.859376 3.28125.859374 3.320313.898438 6.640625 1.875 9.960938 2.929688 3.320312 1.015624 3.28125 1.015626 6.640625 2.03125 3.320313 1.054687 3.320312 1.015625 3.28125 1.015625 9.960938 3.046875 9.960937 2.929688 3.28125.9375 3.320313.9375 6.640624 1.796874 3.320313.859376 3.320313.820312 6.640624 1.5625 3.28125.703125 3.320313.703125 3.320313.664062 3.320312.625 3.320312.585938 3.320313.507812 3.28125.507813 3.320313.429687 3.320312.390626 3.320312.351562 3.320313.3125 3.320313.234375 3.28125.195313 3.320312.15625 3.320312.078124 3.320313.039063 3.320313-.039063 3.320312-.078124 3.320312-.15625 3.320313-.195313 3.28125-.234375 3.320313-.3125 3.320312-.390625 6.640625-.9375 3.320313-.585937v-275.625zm0 0" style="fill:none;stroke-width:4.99886;stroke-linecap:round;stroke-linejoin:round;stroke:#191970;stroke-miterlimit:10" transform="matrix(.1 0 0 -.1 0 93.35)"/><use x="275.76" xlink:href="#a" y="85.90977"/><use x="137.64" xlink:href="#b" y="90.58985"/><use x="170.64" xlink:href="#c" y="91.78985"/><use fill="#4d4d4d" x="154.08" xlink:href="#d" y="34.55"/><use fill="#4d4d4d" x="159.24016" xlink:href="#e" y="34.55"/><use fill="#4d4d4d" x="164.52024" xlink:href="#a" y="34.55"/><use fill="#4d4d4d" x="170.8804" xlink:href="#f" y="34.55"/><g fill="#fff"><use x="143.16" xlink:href="#g" y="66.8301"/><use x="147.59984" xlink:href="#h" y="66.8301"/><use x="151.079919" xlink:href="#i" y="66.8301"/><use x="153.71976" xlink:href="#l" y="66.8301"/><use x="157.43968" xlink:href="#n" y="66.8301"/><use x="160.91976" xlink:href="#m" y="66.8301"/><use x="164.87992" xlink:href="#j" y="66.8301"/><use x="167.399841" xlink:href="#k" y="66.8301"/></g></svg>