<svg height="175.418pt" viewBox="0 0 156.541 175.418" width="156.541pt" xmlns="http://www.w3.org/2000/svg" xmlns:xlink="http://www.w3.org/1999/xlink"><symbol id="a" overflow="visible"><path d="m.671875-5.53125h.09375l1.28125-.578125c.015625-.015625.03125-.015625.03125-.015625.0625 0 .078125.09375.078125.328125v4.84375c0 .515625-.109375.625-.640625.65625l-.5625.03125v.296875c1.546875-.03125 1.546875-.03125 1.65625-.03125.125 0 .34375 0 .6875.015625.109375 0 .46875 0 .875.015625v-.296875l-.515625-.03125c-.5625-.03125-.65625-.140625-.65625-.65625v-5.921875l-.140625-.046875c-.640625.34375-1.359375.640625-2.265625.953125zm0 0"/></symbol><symbol id="b" overflow="visible"><path d="m.15625-.234375v.265625c1.875-.03125 1.875-.03125 2.21875-.03125.359375 0 .359375 0 2.296875.03125-.03125-.203125-.03125-.3125-.03125-.453125 0-.125 0-.21875.03125-.453125-1.15625.0625-1.609375.0625-3.453125.109375l1.8125-1.921875c.96875-1.03125 1.265625-1.578125 1.265625-2.328125 0-1.140625-.78125-1.859375-2.046875-1.859375-.71875 0-1.203125.203125-1.6875.703125l-.171875 1.359375h.28125l.140625-.46875c.15625-.578125.515625-.8125 1.1875-.8125.84375 0 1.40625.53125 1.40625 1.375 0 .75-.421875 1.484375-1.546875 2.6875zm0 0"/></symbol><symbol id="c" overflow="visible"><path d="m.421875-4.96875h.3125l.1875-.546875c.109375-.34375.734375-.6875 1.25-.6875.65625 0 1.171875.53125 1.171875 1.15625 0 .75-.578125 1.375-1.296875 1.375-.078125 0-.1875 0-.3125-.015625l-.15625-.015625-.109375.53125.0625.0625c.375-.171875.578125-.21875.84375-.21875.828125 0 1.296875.53125 1.296875 1.4375 0 1.015625-.59375 1.6875-1.53125 1.6875-.453125 0-.859375-.15625-1.15625-.4375-.25-.21875-.375-.453125-.5625-.984375l-.265625.09375c.203125.609375.28125.96875.34375 1.46875.53125.1875.96875.265625 1.328125.265625.796875 0 1.71875-.453125 2.265625-1.125.34375-.40625.515625-.84375.515625-1.3125 0-.484375-.203125-.890625-.5625-1.140625-.25-.1875-.484375-.265625-.96875-.359375.796875-.609375 1.09375-1.078125 1.09375-1.65625 0-.890625-.75-1.484375-1.84375-1.484375-.6875 0-1.125.203125-1.609375.671875zm0 0"/></symbol><symbol id="d" overflow="visible"><path d="m2.796875-1.796875v.734375c0 .609375-.109375.75-.609375.765625l-.609375.03125v.296875c1.328125-.03125 1.328125-.03125 1.5625-.03125s.234375 0 1.5625.03125v-.296875l-.46875-.03125c-.5-.03125-.609375-.15625-.609375-.765625v-.734375c.59375 0 .796875 0 1.078125.03125v-.703125c-.46875.03125-.65625.03125-.8125.03125h-.265625v-1.390625c0-1.78125.03125-2.625.078125-3.046875l-.125-.046875-.734375.265625-2.828125 4.625.109375.234375zm0-.640625h-2.15625l2.15625-3.515625zm0 0"/></symbol><symbol id="e" overflow="visible"><path d="m1.265625-6.03125c1.28125.046875 1.84375.046875 3.046875.046875l.046875-.046875c-.015625-.171875-.015625-.265625-.015625-.390625 0-.140625 0-.21875.015625-.390625l-.046875-.0625c-.75.046875-1.203125.0625-1.734375.0625-.546875 0-1-.015625-1.734375-.0625l-.0625.0625c.015625.609375.03125 1.046875.03125 1.359375 0 .84375-.03125 1.796875-.0625 2.25l.203125.046875c.46875-.46875.734375-.609375 1.21875-.609375.953125 0 1.5625.6875 1.5625 1.765625 0 1.109375-.640625 1.75-1.734375 1.75-.53125 0-1.03125-.171875-1.171875-.4375l-.453125-.8125-.25.140625c.234375.5625.359375.875.5 1.3125.265625.15625.671875.25 1.09375.25.671875 0 1.375-.296875 1.9375-.765625.59375-.546875.921875-1.21875.921875-1.953125 0-1.140625-.8125-1.9375-1.953125-1.9375-.46875 0-.828125.140625-1.453125.5zm0 0"/></symbol><symbol id="f" overflow="visible"><path d="m4.140625-6.703125-.359375-.171875c-.953125.328125-1.375.53125-1.875.96875-1.03125.859375-1.59375 2.078125-1.59375 3.4375 0 1.65625.796875 2.671875 2.09375 2.671875s2.265625-1.03125 2.265625-2.390625c0-1.140625-.6875-1.890625-1.75-1.890625-.5 0-.796875.125-1.390625.59375-.109375.09375-.109375.109375-.21875.1875.203125-1.8125 1.046875-2.78125 2.828125-3.328125zm-1.59375 3.21875c.75 0 1.265625.65625 1.265625 1.65625 0 1.03125-.515625 1.703125-1.28125 1.703125-.84375 0-1.3125-.734375-1.3125-2.0625 0-.359375.046875-.546875.15625-.71875.21875-.328125.6875-.578125 1.171875-.578125zm0 0"/></symbol><symbol id="g" overflow="visible"><path d="m.5625-.203125v.234375c1.15625-.03125 1.15625-.03125 1.390625-.03125.1875 0 .34375 0 .515625.015625.796875.015625.796875.015625.9375.015625 1.265625 0 2.21875-.328125 2.921875-1.015625.71875-.703125 1.15625-1.78125 1.15625-2.859375 0-1.84375-1.375-3.046875-3.484375-3.046875-.0625 0-.1875 0-.375 0-.5.015625-.921875.015625-1.359375.015625-.359375 0-.90625 0-2.046875-.015625v.296875l.40625.03125c.453125.015625.5.109375.5.890625v4.71875c0 .296875-.09375.515625-.25.59375zm1.515625-6.21875c.25-.046875.609375-.078125 1.109375-.078125.71875 0 1.515625.125 1.9375.3125.21875.09375.40625.234375.59375.421875.46875.46875.703125 1.1875.703125 2.1875 0 1.109375-.34375 1.96875-1 2.515625-.59375.484375-1.1875.65625-2.328125.65625-.453125 0-.765625-.015625-1.015625-.078125zm0 0"/></symbol><symbol id="h" overflow="visible"><path d="m1.875-4.640625-.09375-.03125c-.5.203125-1.03125.34375-1.546875.40625v.28125h.359375c.40625 0 .4375.0625.4375.71875v2.25c0 .625-.03125.703125-.359375.71875l-.46875.03125v.296875c1-.03125 1-.03125 1.25-.03125s.25 0 1.25.03125v-.296875l-.453125-.03125c-.34375-.015625-.375-.09375-.375-.71875zm-.453125-2.203125c-.3125 0-.5625.25-.5625.546875s.25.5625.546875.5625c.28125 0 .5625-.265625.5625-.5625 0-.265625-.28125-.546875-.546875-.546875zm0 0"/></symbol><symbol id="i" overflow="visible"><path d="m4.359375-.703125-.125-.09375c-.640625.375-.875.46875-1.296875.46875-.65625 0-1.1875-.296875-1.46875-.78125-.1875-.328125-.265625-.609375-.28125-1.1875h1.453125c.6875 0 1.125-.03125 1.8125-.140625 0-.140625.015625-.21875.015625-.34375 0-1.140625-.734375-1.890625-1.859375-1.890625-.359375 0-.796875.125-1.203125.359375-.8125.46875-1.140625 1.09375-1.140625 2.125 0 .625.140625 1.171875.40625 1.546875.40625.53125 1.078125.84375 1.828125.84375.359375 0 .734375-.078125 1.140625-.265625.265625-.109375.46875-.234375.515625-.296875zm-.78125-1.953125c-.515625.015625-.75.03125-1.109375.03125-.46875 0-.71875-.015625-1.265625-.0625 0-.46875.046875-.6875.171875-.953125.203125-.4375.640625-.703125 1.125-.703125.328125 0 .578125.125.765625.390625.21875.328125.28125.625.3125 1.296875zm0 0"/></symbol><symbol id="j" overflow="visible"><path d="m.5-4.203125h.078125l.984375-.4375c0-.015625.015625-.015625.015625-.015625.046875 0 .0625.078125.0625.25v3.671875c0 .40625-.078125.484375-.484375.5l-.421875.03125v.21875c1.15625-.015625 1.15625-.015625 1.25-.015625h.515625c.09375.015625.359375.015625.671875.015625v-.21875l-.390625-.03125c-.421875-.015625-.5-.09375-.5-.5v-4.484375l-.109375-.046875c-.484375.265625-1.03125.484375-1.71875.734375zm0 0"/></symbol><symbol id="k" overflow="visible"><path d="m.328125-3.78125h.234375l.140625-.421875c.078125-.25.5625-.515625.953125-.515625.484375 0 .890625.40625.890625.890625 0 .5625-.453125 1.046875-.984375 1.046875-.0625 0-.140625-.015625-.25-.015625l-.109375-.015625-.09375.40625.0625.046875c.28125-.140625.421875-.171875.625-.171875.640625 0 1 .40625 1 1.09375 0 .765625-.46875 1.28125-1.171875 1.28125-.34375 0-.65625-.109375-.875-.328125-.1875-.171875-.28125-.34375-.4375-.75l-.203125.078125c.15625.453125.21875.734375.265625 1.109375.40625.140625.734375.203125 1.015625.203125.609375 0 1.3125-.34375 1.71875-.859375.265625-.3125.390625-.640625.390625-1s-.15625-.671875-.421875-.859375c-.1875-.140625-.359375-.203125-.75-.265625.609375-.46875.84375-.828125.84375-1.265625 0-.6875-.5625-1.125-1.40625-1.125-.515625 0-.859375.140625-1.21875.5zm0 0"/></symbol><symbol id="l" overflow="visible"><path d="m3.15625-5.09375-.28125-.125c-.734375.234375-1.046875.390625-1.421875.71875-.78125.671875-1.203125 1.59375-1.203125 2.625 0 1.25.59375 2.03125 1.578125 2.03125s1.71875-.78125 1.71875-1.8125c0-.875-.515625-1.4375-1.328125-1.4375-.375 0-.609375.09375-1.046875.453125-.09375.0625-.09375.078125-.171875.125.15625-1.359375.78125-2.109375 2.15625-2.515625zm-1.21875 2.453125c.578125 0 .953125.5.953125 1.25 0 .78125-.375 1.296875-.96875 1.296875-.640625 0-.984375-.5625-.984375-1.578125 0-.265625.03125-.40625.109375-.53125.171875-.265625.515625-.4375.890625-.4375zm0 0"/></symbol><symbol id="m" overflow="visible"><path d="m.125-.171875v.1875c1.40625-.015625 1.40625-.015625 1.6875-.015625.265625 0 .265625 0 1.734375.015625-.015625-.15625-.015625-.234375-.015625-.328125 0-.109375 0-.1875.015625-.34375-.875.03125-1.21875.046875-2.625.078125l1.375-1.46875c.734375-.78125.96875-1.203125.96875-1.765625 0-.875-.59375-1.40625-1.546875-1.40625-.546875 0-.921875.15625-1.296875.53125l-.125 1.03125h.21875l.09375-.359375c.125-.4375.40625-.625.90625-.625.65625 0 1.0625.40625 1.0625 1.0625 0 .5625-.3125 1.125-1.171875 2.03125zm0 0"/></symbol><symbol id="n" overflow="visible"><path d="m.421875-.078125.078125.09375c.28125-.015625.28125-.015625.34375-.015625.046875 0 .046875 0 .34375.015625.328125-.8125.6875-1.609375 1.1875-2.515625l1.390625-2.5v-.21875c-.8125.03125-1.078125.03125-1.703125.03125-.546875 0-.921875 0-1.65625-.03125l-.078125.03125c.03125.71875.03125.71875.03125.796875 0 .09375 0 .09375-.03125.78125h.234375l.046875-.4375c.0625-.46875.125-.515625.46875-.515625h2.015625c-.296875.609375-.53125 1.046875-.8125 1.515625zm0 0"/></symbol><symbol id="o" overflow="visible"><path d="m-.203125-.5625h.234375c-.03125-1.15625-.03125-1.15625-.03125-1.390625 0-.1875 0-.34375.015625-.515625.015625-.796875.015625-.796875.015625-.9375 0-1.265625-.328125-2.21875-1.015625-2.921875-.703125-.71875-1.78125-1.15625-2.859375-1.15625-1.84375 0-3.046875 1.375-3.046875 3.484375v.375c.015625.5.015625.921875.015625 1.359375 0 .359375 0 .90625-.015625 2.046875h.296875l.03125-.40625c.015625-.453125.109375-.5.890625-.5h4.71875c.296875 0 .515625.09375.59375.25zm-6.21875-1.515625c-.046875-.25-.078125-.609375-.078125-1.109375 0-.71875.125-1.515625.3125-1.9375.09375-.21875.234375-.40625.421875-.59375.46875-.46875 1.1875-.703125 2.1875-.703125 1.109375 0 1.96875.34375 2.515625 1 .484375.59375.65625 1.1875.65625 2.328125 0 .453125-.015625.765625-.078125 1.015625zm0 0"/></symbol><symbol id="p" overflow="visible"><path d="m-4.640625-1.875-.03125.09375c.203125.5.34375 1.03125.40625 1.546875h.28125v-.359375c0-.40625.0625-.4375.71875-.4375h2.25c.625 0 .703125.03125.71875.359375l.03125.46875h.296875c-.03125-1-.03125-1-.03125-1.25s0-.25.03125-1.25h-.296875l-.03125.453125c-.015625.34375-.09375.375-.71875.375zm-2.203125.453125c0 .3125.25.5625.546875.5625s.5625-.25.5625-.546875c0-.28125-.265625-.5625-.5625-.5625-.265625 0-.546875.28125-.546875.546875zm0 0"/></symbol><symbol id="q" overflow="visible"><path d="m-.703125-4.359375-.09375.125c.375.640625.46875.875.46875 1.296875 0 .65625-.296875 1.1875-.78125 1.46875-.328125.1875-.609375.265625-1.1875.28125v-1.453125c0-.6875-.03125-1.125-.140625-1.8125-.140625 0-.21875-.015625-.34375-.015625-1.140625 0-1.890625.734375-1.890625 1.859375 0 .359375.125.796875.359375 1.203125.46875.8125 1.09375 1.140625 2.125 1.140625.625 0 1.171875-.140625 1.546875-.40625.53125-.40625.84375-1.078125.84375-1.828125 0-.359375-.078125-.734375-.265625-1.140625-.109375-.265625-.234375-.46875-.296875-.515625zm-1.953125.78125c.015625.515625.03125.75.03125 1.109375 0 .46875-.015625.71875-.0625 1.265625-.46875 0-.6875-.046875-.953125-.171875-.4375-.203125-.703125-.640625-.703125-1.125 0-.328125.125-.578125.390625-.765625.328125-.21875.625-.28125 1.296875-.3125zm0 0"/></symbol><symbol id="r" overflow="visible"><path d="m-.234375-.15625h.265625c-.03125-1.875-.03125-1.875-.03125-2.21875 0-.359375 0-.359375.03125-2.296875-.203125.03125-.3125.03125-.453125.03125-.125 0-.21875 0-.453125-.03125.0625 1.15625.0625 1.609375.109375 3.453125l-1.921875-1.8125c-1.03125-.96875-1.578125-1.265625-2.328125-1.265625-1.140625 0-1.859375.78125-1.859375 2.046875 0 .71875.203125 1.203125.703125 1.6875l1.359375.171875v-.28125l-.46875-.140625c-.578125-.15625-.8125-.515625-.8125-1.1875 0-.84375.53125-1.40625 1.375-1.40625.75 0 1.484375.421875 2.6875 1.546875zm0 0"/></symbol><path d="m-5.812938-6.827594h11.625v13.65625h-11.625zm0 0" fill="none" stroke="#000" stroke-miterlimit="10" stroke-width=".3985" transform="matrix(1 0 0 -1 47.727 31.606)"/><use x="45.237" xlink:href="#a" y="35.053"/><path d="m-5.810531-6.753375h11.621094v13.507813h-11.621094zm0 0" fill="none" stroke="#000" stroke-miterlimit="10" stroke-width=".3985" transform="matrix(1 0 0 -1 67.166 31.606)"/><use x="64.675" xlink:href="#b" y="34.979"/><path d="m-5.811031-6.804156h11.621094v13.605469h-11.621094zm0 0" fill="none" stroke="#000" stroke-miterlimit="10" stroke-width=".3985" transform="matrix(1 0 0 -1 86.604 31.606)"/><use x="84.113" xlink:href="#c" y="34.929"/><path d="m-5.811531-6.827594h11.621093v13.65625h-11.621093zm0 0" fill="none" stroke="#000" stroke-miterlimit="10" stroke-width=".3985" transform="matrix(1 0 0 -1 106.042 31.606)"/><use x="103.552" xlink:href="#d" y="35.053"/><path d="m-5.813031-6.804156h11.625v13.605469h-11.625zm0 0" fill="none" stroke="#000" stroke-miterlimit="10" stroke-width=".3985" transform="matrix(1 0 0 -1 125.481 31.606)"/><use x="122.99" xlink:href="#e" y="34.929"/><path d="m-5.809625-6.804156h11.621094v13.605469h-11.621094zm0 0" fill="none" stroke="#000" stroke-miterlimit="10" stroke-width=".3985" transform="matrix(1 0 0 -1 144.919 31.606)"/><use x="142.428" xlink:href="#f" y="34.929"/><path d="m-5.811469-6.828h11.621094v13.65625h-11.621094zm0 0" fill="none" stroke="#000" stroke-miterlimit="10" stroke-width=".3985" transform="matrix(1 0 0 -1 30.581 51.172)"/><use x="28.09" xlink:href="#a" y="54.619"/><use x="45.835" xlink:href="#j" y="50.073"/><path d="m-.00059375.0001875h7.57421875" fill="none" stroke="#000" stroke-miterlimit="10" stroke-width=".398" transform="matrix(1 0 0 -1 43.942 51.508)"/><use x="43.942" xlink:href="#k" y="57.435"/><use x="47.7278" xlink:href="#l" y="57.435"/><use x="65.273" xlink:href="#m" y="50.016"/><path d="m-.00109375.00178125h7.57421875" fill="none" stroke="#000" stroke-miterlimit="10" stroke-width=".398" transform="matrix(1 0 0 -1 63.38 51.451)"/><use x="63.38" xlink:href="#k" y="57.379"/><use x="67.1658" xlink:href="#l" y="57.379"/><use x="84.711" xlink:href="#j" y="50.073"/><path d="m-.00159375.0001875h7.57421875" fill="none" stroke="#000" stroke-miterlimit="10" stroke-width=".398" transform="matrix(1 0 0 -1 82.818 51.508)"/><use x="82.818" xlink:href="#k" y="57.435"/><use x="86.6038" xlink:href="#l" y="57.435"/><use x="104.15" xlink:href="#j" y="50.073"/><path d="m.0008125.0001875h7.5703125" fill="none" stroke="#000" stroke-miterlimit="10" stroke-width=".398" transform="matrix(1 0 0 -1 102.257 51.508)"/><use x="102.257" xlink:href="#k" y="57.435"/><use x="106.0428" xlink:href="#l" y="57.435"/><use x="123.588" xlink:href="#k" y="50.016"/><path d="m.0003125.00178125h7.5703125" fill="none" stroke="#000" stroke-miterlimit="10" stroke-width=".398" transform="matrix(1 0 0 -1 121.695 51.451)"/><use x="121.695" xlink:href="#k" y="57.379"/><use x="125.4808" xlink:href="#l" y="57.379"/><use x="143.026" xlink:href="#j" y="50.073"/><path d="m-.0001875.0001875h7.5703125" fill="none" stroke="#000" stroke-miterlimit="10" stroke-width=".398" transform="matrix(1 0 0 -1 141.133 51.508)"/><use x="141.133" xlink:href="#k" y="57.435"/><use x="144.9188" xlink:href="#l" y="57.435"/><path d="m-5.811469-6.751969h11.621094v13.503907h-11.621094zm0 0" fill="none" stroke="#000" stroke-miterlimit="10" stroke-width=".3985" transform="matrix(1 0 0 -1 30.581 73.416)"/><use x="28.09" xlink:href="#b" y="76.789"/><use x="45.835" xlink:href="#j" y="72.355"/><path d="m-.00059375-.0000625h7.57421875" fill="none" stroke="#000" stroke-miterlimit="10" stroke-width=".398" transform="matrix(1 0 0 -1 43.942 73.789)"/><use x="43.942" xlink:href="#n" y="79.717"/><use x="47.7278" xlink:href="#m" y="79.717"/><use x="65.273" xlink:href="#j" y="72.317"/><path d="m-.00109375-.00190625h7.57421875" fill="none" stroke="#000" stroke-miterlimit="10" stroke-width=".398" transform="matrix(1 0 0 -1 63.38 73.752)"/><use x="63.38" xlink:href="#k" y="79.679"/><use x="67.1658" xlink:href="#l" y="79.679"/><use x="84.711" xlink:href="#j" y="72.355"/><path d="m-.00159375-.0000625h7.57421875" fill="none" stroke="#000" stroke-miterlimit="10" stroke-width=".398" transform="matrix(1 0 0 -1 82.818 73.789)"/><use x="82.818" xlink:href="#n" y="79.717"/><use x="86.6038" xlink:href="#m" y="79.717"/><use x="104.15" xlink:href="#j" y="72.317"/><path d="m.0008125-.00190625h7.5703125" fill="none" stroke="#000" stroke-miterlimit="10" stroke-width=".398" transform="matrix(1 0 0 -1 102.257 73.752)"/><use x="102.257" xlink:href="#k" y="79.679"/><use x="106.0428" xlink:href="#l" y="79.679"/><use x="123.588" xlink:href="#j" y="72.317"/><path d="m.0003125-.00190625h7.5703125" fill="none" stroke="#000" stroke-miterlimit="10" stroke-width=".398" transform="matrix(1 0 0 -1 121.695 73.752)"/><use x="121.695" xlink:href="#k" y="79.679"/><use x="125.4808" xlink:href="#l" y="79.679"/><use x="143.026" xlink:href="#j" y="72.317"/><path d="m-.0001875-.00190625h7.5703125" fill="none" stroke="#000" stroke-miterlimit="10" stroke-width=".398" transform="matrix(1 0 0 -1 141.133 73.752)"/><use x="141.133" xlink:href="#k" y="79.679"/><use x="144.9188" xlink:href="#l" y="79.679"/><path d="m-5.811469-6.800937h11.621094v13.601562h-11.621094zm0 0" fill="none" stroke="#000" stroke-miterlimit="10" stroke-width=".3985" transform="matrix(1 0 0 -1 30.581 95.66)"/><use x="28.09" xlink:href="#c" y="98.983"/><use x="45.835" xlink:href="#j" y="94.561"/><path d="m-.00059375-.00009375h7.57421875" fill="none" stroke="#000" stroke-miterlimit="10" stroke-width=".398" transform="matrix(1 0 0 -1 43.942 95.996)"/><use x="43.942" xlink:href="#k" y="101.923"/><use x="47.7278" xlink:href="#l" y="101.923"/><use x="65.273" xlink:href="#j" y="94.599"/><path d="m-.00109375.00175h7.57421875" fill="none" stroke="#000" stroke-miterlimit="10" stroke-width=".398" transform="matrix(1 0 0 -1 63.38 96.033)"/><use x="63.38" xlink:href="#n" y="101.961"/><use x="67.1658" xlink:href="#m" y="101.961"/><use x="84.711" xlink:href="#j" y="94.599"/><path d="m-.00159375.00175h7.57421875" fill="none" stroke="#000" stroke-miterlimit="10" stroke-width=".398" transform="matrix(1 0 0 -1 82.818 96.033)"/><use x="82.818" xlink:href="#n" y="101.961"/><use x="86.6038" xlink:href="#m" y="101.961"/><use x="104.15" xlink:href="#j" y="94.599"/><path d="m.0008125.00175h7.5703125" fill="none" stroke="#000" stroke-miterlimit="10" stroke-width=".398" transform="matrix(1 0 0 -1 102.257 96.033)"/><use x="102.257" xlink:href="#n" y="101.961"/><use x="106.0428" xlink:href="#m" y="101.961"/><use x="123.588" xlink:href="#j" y="94.561"/><path d="m.0003125-.00009375h7.5703125" fill="none" stroke="#000" stroke-miterlimit="10" stroke-width=".398" transform="matrix(1 0 0 -1 121.695 95.996)"/><use x="121.695" xlink:href="#k" y="101.923"/><use x="125.4808" xlink:href="#l" y="101.923"/><use x="143.026" xlink:href="#m" y="94.504"/><path d="m-.0001875.0015h7.5703125" fill="none" stroke="#000" stroke-miterlimit="10" stroke-width=".398" transform="matrix(1 0 0 -1 141.133 95.939)"/><use x="141.133" xlink:href="#k" y="101.867"/><use x="144.9188" xlink:href="#l" y="101.867"/><path d="m-5.811469-6.826469h11.621094v13.652344h-11.621094zm0 0" fill="none" stroke="#000" stroke-miterlimit="10" stroke-width=".3985" transform="matrix(1 0 0 -1 30.581 117.904)"/><use x="28.09" xlink:href="#d" y="121.351"/><use x="45.835" xlink:href="#j" y="116.843"/><path d="m-.00059375-.00034375h7.57421875" fill="none" stroke="#000" stroke-miterlimit="10" stroke-width=".398" transform="matrix(1 0 0 -1 43.942 118.277)"/><use x="43.942" xlink:href="#n" y="124.205"/><use x="47.7278" xlink:href="#m" y="124.205"/><use x="65.273" xlink:href="#j" y="116.843"/><path d="m-.00109375-.00034375h7.57421875" fill="none" stroke="#000" stroke-miterlimit="10" stroke-width=".398" transform="matrix(1 0 0 -1 63.38 118.277)"/><use x="63.38" xlink:href="#n" y="124.205"/><use x="67.1658" xlink:href="#m" y="124.205"/><use x="84.711" xlink:href="#j" y="116.843"/><path d="m-.00159375-.00034375h7.57421875" fill="none" stroke="#000" stroke-miterlimit="10" stroke-width=".398" transform="matrix(1 0 0 -1 82.818 118.277)"/><use x="82.818" xlink:href="#n" y="124.205"/><use x="86.6038" xlink:href="#m" y="124.205"/><use x="104.15" xlink:href="#j" y="116.805"/><path d="m.0008125.00171875h7.5703125" fill="none" stroke="#000" stroke-miterlimit="10" stroke-width=".398" transform="matrix(1 0 0 -1 102.257 118.24)"/><use x="102.257" xlink:href="#k" y="124.167"/><use x="106.0428" xlink:href="#l" y="124.167"/><use x="123.588" xlink:href="#j" y="116.805"/><path d="m.0003125.00171875h7.5703125" fill="none" stroke="#000" stroke-miterlimit="10" stroke-width=".398" transform="matrix(1 0 0 -1 121.695 118.24)"/><use x="121.695" xlink:href="#k" y="124.167"/><use x="125.4808" xlink:href="#l" y="124.167"/><use x="143.026" xlink:href="#j" y="116.805"/><path d="m-.0001875.00071875h7.5703125" fill="none" stroke="#000" stroke-miterlimit="10" stroke-width=".398" transform="matrix(1 0 0 -1 141.133 118.239)"/><use x="141.133" xlink:href="#k" y="124.167"/><use x="144.9188" xlink:href="#l" y="124.167"/><path d="m-5.811469-6.801219h11.621094v13.605469h-11.621094zm0 0" fill="none" stroke="#000" stroke-miterlimit="10" stroke-width=".3985" transform="matrix(1 0 0 -1 30.581 140.148)"/><use x="28.09" xlink:href="#e" y="143.471"/><use x="45.835" xlink:href="#m" y="138.992"/><path d="m-.00059375.00121875h7.57421875" fill="none" stroke="#000" stroke-miterlimit="10" stroke-width=".398" transform="matrix(1 0 0 -1 43.942 140.427)"/><use x="43.942" xlink:href="#k" y="146.355"/><use x="47.7278" xlink:href="#l" y="146.355"/><use x="65.273" xlink:href="#j" y="139.049"/><path d="m-.00109375-.000375h7.57421875" fill="none" stroke="#000" stroke-miterlimit="10" stroke-width=".398" transform="matrix(1 0 0 -1 63.38 140.484)"/><use x="63.38" xlink:href="#k" y="146.411"/><use x="67.1658" xlink:href="#l" y="146.411"/><use x="84.711" xlink:href="#j" y="139.049"/><path d="m-.00159375-.000375h7.57421875" fill="none" stroke="#000" stroke-miterlimit="10" stroke-width=".398" transform="matrix(1 0 0 -1 82.818 140.484)"/><use x="82.818" xlink:href="#k" y="146.411"/><use x="86.6038" xlink:href="#l" y="146.411"/><use x="104.15" xlink:href="#j" y="139.049"/><path d="m.0008125-.000375h7.5703125" fill="none" stroke="#000" stroke-miterlimit="10" stroke-width=".398" transform="matrix(1 0 0 -1 102.257 140.484)"/><use x="102.257" xlink:href="#k" y="146.411"/><use x="106.0428" xlink:href="#l" y="146.411"/><use x="123.588" xlink:href="#j" y="139.049"/><path d="m.0003125-.001375h7.5703125" fill="none" stroke="#000" stroke-miterlimit="10" stroke-width=".398" transform="matrix(1 0 0 -1 121.695 140.483)"/><use x="121.695" xlink:href="#k" y="146.411"/><use x="125.4808" xlink:href="#l" y="146.411"/><use x="143.026" xlink:href="#j" y="139.049"/><path d="m-.0001875-.001375h7.5703125" fill="none" stroke="#000" stroke-miterlimit="10" stroke-width=".398" transform="matrix(1 0 0 -1 141.133 140.483)"/><use x="141.133" xlink:href="#k" y="146.411"/><use x="144.9188" xlink:href="#l" y="146.411"/><path d="m-5.811469-6.803312h11.621094v13.605468h-11.621094zm0 0" fill="none" stroke="#000" stroke-miterlimit="10" stroke-width=".3985" transform="matrix(1 0 0 -1 30.581 162.392)"/><use x="28.09" xlink:href="#f" y="165.715"/><use x="45.835" xlink:href="#j" y="161.293"/><path d="m-.00059375.0014375h7.57421875" fill="none" stroke="#000" stroke-miterlimit="10" stroke-width=".398" transform="matrix(1 0 0 -1 43.942 162.728)"/><use x="43.942" xlink:href="#k" y="168.655"/><use x="47.7278" xlink:href="#l" y="168.655"/><use x="65.273" xlink:href="#j" y="161.293"/><path d="m-.00109375.0014375h7.57421875" fill="none" stroke="#000" stroke-miterlimit="10" stroke-width=".398" transform="matrix(1 0 0 -1 63.38 162.728)"/><use x="63.38" xlink:href="#k" y="168.655"/><use x="67.1658" xlink:href="#l" y="168.655"/><use x="84.711" xlink:href="#j" y="161.331"/><path d="m-.00159375-.000625h7.57421875" fill="none" stroke="#000" stroke-miterlimit="10" stroke-width=".398" transform="matrix(1 0 0 -1 82.818 162.765)"/><use x="82.818" xlink:href="#n" y="168.693"/><use x="86.6038" xlink:href="#m" y="168.693"/><use x="104.15" xlink:href="#j" y="161.293"/><path d="m.0008125.0004375h7.5703125" fill="none" stroke="#000" stroke-miterlimit="10" stroke-width=".398" transform="matrix(1 0 0 -1 102.257 162.727)"/><use x="102.257" xlink:href="#k" y="168.655"/><use x="106.0428" xlink:href="#l" y="168.655"/><use x="123.588" xlink:href="#j" y="161.293"/><path d="m.0003125.0004375h7.5703125" fill="none" stroke="#000" stroke-miterlimit="10" stroke-width=".398" transform="matrix(1 0 0 -1 121.695 162.727)"/><use x="121.695" xlink:href="#k" y="168.655"/><use x="125.4808" xlink:href="#l" y="168.655"/><use x="143.026" xlink:href="#j" y="161.331"/><path d="m-.0001875-.000625h7.5703125" fill="none" stroke="#000" stroke-miterlimit="10" stroke-width=".398" transform="matrix(1 0 0 -1 141.133 162.765)"/><use x="141.133" xlink:href="#n" y="168.693"/><use x="144.9188" xlink:href="#m" y="168.693"/><use x="10.274" xlink:href="#o" y="123.166"/><use x="10.274" xlink:href="#p" y="115.454948"/><use x="10.274" xlink:href="#q" y="112.555831"/><use x="10.274" xlink:href="#r" y="105.293096"/><use x="83.138" xlink:href="#g" y="10.274"/><use x="90.849052" xlink:href="#h" y="10.274"/><use x="93.748169" xlink:href="#i" y="10.274"/><use x="101.010904" xlink:href="#a" y="10.274"/></svg>