<svg height="28.08pt" viewBox="0 0 142.73 28.08" width="142.73pt" xmlns="http://www.w3.org/2000/svg" xmlns:xlink="http://www.w3.org/1999/xlink"><symbol id="a" overflow="visible"><path d="m3.140625-8.234375c-1.84375 0-2.796875 1.46875-2.796875 4.359375 0 1.40625.25 2.609375.671875 3.1875.421875.59375 1.09375.921875 1.828125.921875 1.8125 0 2.71875-1.546875 2.71875-4.609375 0-2.625-.78125-3.859375-2.421875-3.859375zm-.21875.421875c1.171875 0 1.625 1.171875 1.625 4.03125 0 2.546875-.453125 3.609375-1.546875 3.609375-1.15625 0-1.65625-1.21875-1.65625-4.125 0-2.53125.453125-3.515625 1.578125-3.515625zm0 0"/></symbol><symbol id="b" overflow="visible"><path d="m.796875-6.640625h.125l1.546875-.6875c0-.015625.015625-.015625.03125-.015625.0625 0 .09375.109375.09375.40625v5.796875c0 .609375-.125.75-.78125.78125l-.671875.03125v.359375c1.84375-.03125 1.84375-.03125 1.984375-.03125.15625 0 .40625 0 .8125.015625.15625.015625.5625.015625 1.0625.015625v-.359375l-.625-.03125c-.65625-.03125-.78125-.171875-.78125-.78125v-7.09375l-.15625-.0625c-.78125.40625-1.625.765625-2.71875 1.15625zm0 0"/></symbol><g fill="none" stroke-linecap="round" stroke-linejoin="round" stroke-miterlimit="10" stroke-width="4.99887" transform="matrix(.1 0 0 -.1 0 28.08)"><path d="m79.804688 168.3v75" stroke="#7f7f7f"/><path d="m1347.1875 168.3v75" stroke="#7f7f7f"/><path d="m79.804688 205.8h1267.382812" stroke="#7f7f7f"/><path d="m238.242188 205.8v-25.351563" stroke="#000"/><path d="m396.679688 205.8v-25.351563" stroke="#000"/><path d="m555.078125 205.8v-25.351563" stroke="#000"/><path d="m713.515625 205.8v-25.351563" stroke="#000"/><path d="m871.914062 205.8v-25.351563" stroke="#000"/><path d="m1030.351562 205.8v-25.351563" stroke="#000"/><path d="m1188.75 205.8v-25.351563" stroke="#000"/><path d="m1347.1875 205.8v-25.351563" stroke="#000"/></g><use x="5.03984" xlink:href="#a" y="22.79992"/><use x="131.75984" xlink:href="#b" y="23.039764"/></svg>