<svg height="115.78pt" viewBox="0 0 226.77 115.78" width="226.77pt" xmlns="http://www.w3.org/2000/svg" xmlns:xlink="http://www.w3.org/1999/xlink"><symbol id="a" overflow="visible"><path d="m.203125-.875c0 .1875-.015625.328125-.078125.640625-.015625.125-.03125.15625-.03125.21875.140625.078125.3125.125.421875.125.328125 0 .71875-.296875 1.03125-.765625l.765625-1.15625.109375.6875c.125.84375.359375 1.234375.71875 1.234375.21875 0 .546875-.171875.859375-.453125l.484375-.453125-.078125-.1875c-.359375.296875-.609375.453125-.78125.453125-.140625 0-.28125-.09375-.375-.296875-.09375-.1875-.203125-.5625-.25-.859375l-.1875-1 .359375-.5c.46875-.640625.734375-.875 1.046875-.875.15625 0 .28125.078125.328125.234375l.140625-.046875.15625-.84375c-.125-.078125-.21875-.09375-.296875-.09375-.40625 0-.8125.359375-1.421875 1.265625l-.375.5625-.0625-.484375c-.125-.984375-.390625-1.34375-.984375-1.34375-.25 0-.46875.078125-.5625.203125l-.578125.828125.171875.09375c.296875-.328125.5-.46875.6875-.46875.328125 0 .546875.40625.71875 1.390625l.109375.609375-.40625.625c-.421875.671875-.765625.984375-1.046875.984375-.140625 0-.25-.03125-.28125-.078125l-.109375-.28125zm0 0"/></symbol><symbol id="b" overflow="visible"><path d="m2.859375-3.828125c.046875-.1875.109375-.421875.171875-.5625l-.046875-.0625-.0625.015625c-.234375.0625-.359375.0625-.84375.0625h-.15625l.203125-1.109375c.171875-.859375.4375-1.25.90625-1.25.296875 0 .5625.15625.71875.390625l.09375-.03125c.0625-.171875.15625-.46875.234375-.671875l.046875-.15625c-.15625-.0625-.46875-.125-.6875-.125-.125 0-.28125.03125-.359375.0625-.234375.109375-1.0625.71875-1.28125.96875-.234375.21875-.34375.515625-.453125 1.09375l-.15625.78125c-.40625.203125-.609375.28125-.859375.375l-.046875.21875h.8125l-.09375.5625c-.296875 1.953125-.671875 3.8125-.890625 4.5-.171875.578125-.484375.890625-.84375.890625-.21875 0-.328125-.0625-.515625-.28125l-.140625.03125c-.046875.234375-.171875.71875-.234375.8125.09375.046875.25.078125.359375.078125.40625 0 .953125-.3125 1.328125-.78125.625-.71875.84375-1.421875 1.5625-4.9375.03125-.109375.109375-.5.1875-.875zm0 0"/></symbol><symbol id="c" overflow="visible"><path d="m3.453125 2.5c0-.03125 0-.046875-.1875-.234375-1.296875-1.3125-1.625-3.28125-1.625-4.875 0-1.8125.390625-3.625 1.671875-4.921875.140625-.125.140625-.15625.140625-.1875 0-.0625-.046875-.09375-.109375-.09375-.109375 0-1.046875.703125-1.65625 2.03125-.53125 1.140625-.65625 2.296875-.65625 3.171875 0 .8125.109375 2.078125.6875 3.25.625 1.28125 1.515625 1.96875 1.625 1.96875.0625 0 .109375-.03125.109375-.109375zm0 0"/></symbol><symbol id="d" overflow="visible"><path d="m3.015625-2.609375c0-.8125-.125-2.0625-.6875-3.25-.625-1.28125-1.53125-1.953125-1.625-1.953125-.0625 0-.109375.03125-.109375.09375 0 .03125 0 .0625.203125.25 1.015625 1.03125 1.609375 2.6875 1.609375 4.859375 0 1.78125-.390625 3.625-1.671875 4.9375-.140625.125-.140625.140625-.140625.171875 0 .0625.046875.109375.109375.109375.09375 0 1.03125-.71875 1.65625-2.03125.53125-1.15625.65625-2.3125.65625-3.1875zm0 0"/></symbol><symbol id="e" overflow="visible"><path d="m7.15625-3.40625c.15625 0 .359375 0 .359375-.203125 0-.21875-.203125-.21875-.34375-.21875h-6.25c-.140625 0-.34375 0-.34375.21875 0 .203125.203125.203125.359375.203125zm.015625 2.015625c.140625 0 .34375 0 .34375-.203125s-.203125-.203125-.359375-.203125h-6.21875c-.15625 0-.359375 0-.359375.203125s.203125.203125.34375.203125zm0 0"/></symbol><symbol id="f" overflow="visible"><path d="m.515625-4.21875h.0625l.984375-.4375h.03125c.03125 0 .046875.0625.046875.25v3.671875c0 .40625-.078125.484375-.484375.5l-.421875.03125v.21875c1.15625-.015625 1.15625-.015625 1.25-.015625h.515625c.09375.015625.359375.015625.671875.015625v-.21875l-.390625-.03125c-.421875-.015625-.5-.09375-.5-.5v-4.5l-.109375-.03125c-.484375.25-1.03125.484375-1.71875.71875zm0 0"/></symbol><symbol id="g" overflow="visible"><path d="m.125-.171875v.1875c1.421875-.015625 1.421875-.015625 1.6875-.015625.28125 0 .28125 0 1.734375.015625-.015625-.15625-.015625-.234375-.015625-.328125 0-.109375 0-.1875.015625-.34375-.859375.03125-1.21875.046875-2.625.078125l1.390625-1.46875c.734375-.78125.953125-1.203125.953125-1.765625 0-.875-.578125-1.421875-1.546875-1.421875-.546875 0-.921875.15625-1.296875.53125l-.125 1.03125h.21875l.09375-.34375c.125-.4375.40625-.625.90625-.625.65625 0 1.078125.40625 1.078125 1.046875 0 .578125-.328125 1.140625-1.1875 2.046875zm0 0"/></symbol><symbol id="h" overflow="visible"><path d="m3.9375-5.515625h-.453125l-2.828125 6.421875h.453125zm0 0"/></symbol><symbol id="i" overflow="visible"><path d="m3.078125 6.765625-1.390625-3.078125c-.0625-.125-.09375-.125-.125-.125 0 0-.046875 0-.125.0625l-.75.578125c-.109375.078125-.109375.09375-.109375.125s.03125.078125.078125.078125.1875-.109375.265625-.171875c.046875-.03125.171875-.125.265625-.1875l1.546875 3.4375c.0625.125.109375.125.171875.125.125 0 .140625-.046875.203125-.15625l3.59375-7.453125c.046875-.109375.046875-.140625.046875-.15625 0-.078125-.0625-.15625-.15625-.15625-.0625 0-.109375.03125-.171875.15625zm0 0"/></symbol><symbol id="j" overflow="visible"><path d="m5.21875-1.828125c.140625 0 .28125 0 .28125-.15625s-.140625-.15625-.28125-.15625h-4.28125c-.140625 0-.28125 0-.28125.15625s.140625.15625.28125.15625zm0 0"/></symbol><symbol id="k" overflow="visible"><path d="m3.65625-.984375c-.171875.34375-.453125.71875-.609375.71875-.078125 0-.109375-.09375-.109375-.21875 0-.078125.015625-.171875.03125-.25l.46875-2.234375h.609375l.28125-.53125c-.203125.046875-.5.078125-.828125.078125h-1.984375c-.34375 0-.84375.171875-1.109375.59375l.125.125c.265625-.21875.640625-.265625 1-.265625-.296875 1.234375-.5 2.328125-.890625 2.390625-.171875.03125-.390625.140625-.390625.40625 0 .171875.21875.25.3125.25.375 0 .625-.453125.75-.765625.171875-.40625.40625-1.28125.625-2.28125h.875l-.453125 2.109375c-.03125.140625-.046875.28125-.046875.390625 0 .359375.125.546875.375.546875.5 0 .890625-.390625 1.140625-.96875zm0 0"/></symbol><symbol id="l" overflow="visible"><path d="m4.375-.703125-.140625-.09375c-.640625.375-.859375.46875-1.296875.46875-.640625 0-1.1875-.296875-1.46875-.78125-.1875-.328125-.265625-.609375-.28125-1.1875h1.46875c.6875 0 1.109375-.03125 1.796875-.140625.015625-.140625.03125-.234375.03125-.359375 0-1.140625-.75-1.890625-1.859375-1.890625-.375 0-.8125.125-1.21875.375-.8125.46875-1.140625 1.078125-1.140625 2.125 0 .625.140625 1.171875.421875 1.546875.390625.53125 1.0625.84375 1.8125.84375.375 0 .734375-.078125 1.15625-.265625.265625-.109375.46875-.234375.515625-.296875zm-.78125-1.96875c-.53125.015625-.765625.03125-1.125.03125-.453125 0-.71875-.015625-1.265625-.0625 0-.46875.046875-.6875.171875-.953125.21875-.4375.640625-.703125 1.125-.703125.328125 0 .59375.125.765625.40625.21875.328125.296875.609375.328125 1.28125zm0 0"/></symbol><symbol id="m" overflow="visible"><path d="m.15625-.234375v.265625c1.875-.03125 1.875-.03125 2.234375-.03125s.359375 0 2.296875.03125c-.03125-.21875-.03125-.3125-.03125-.453125 0-.125 0-.234375.03125-.453125-1.15625.0625-1.625.0625-3.46875.109375l1.828125-1.9375c.96875-1.03125 1.265625-1.578125 1.265625-2.328125 0-1.15625-.78125-1.859375-2.046875-1.859375-.71875 0-1.21875.203125-1.703125.703125l-.171875 1.359375h.296875l.125-.46875c.15625-.578125.515625-.828125 1.1875-.828125.859375 0 1.40625.546875 1.40625 1.390625 0 .75-.421875 1.5-1.546875 2.6875zm0 0"/></symbol><symbol id="n" overflow="visible"><path d="m.671875-5.546875h.09375l1.296875-.578125c0-.015625.015625-.015625.03125-.015625.0625 0 .078125.09375.078125.328125v4.859375c0 .515625-.109375.625-.65625.65625l-.5625.03125v.296875c1.546875-.03125 1.546875-.03125 1.65625-.03125.125 0 .34375 0 .6875.015625.125 0 .46875 0 .890625.015625v-.296875l-.53125-.03125c-.546875-.03125-.640625-.140625-.640625-.65625v-5.9375l-.140625-.046875c-.65625.34375-1.359375.640625-2.28125.953125zm0 0"/></symbol><symbol id="o" overflow="visible"><path d="m2.625-6.890625c-1.546875 0-2.328125 1.234375-2.328125 3.65625 0 1.171875.203125 2.171875.546875 2.671875.359375.484375.921875.765625 1.53125.765625 1.515625 0 2.28125-1.296875 2.28125-3.859375 0-2.1875-.65625-3.234375-2.03125-3.234375zm-.171875.34375c.96875 0 1.359375.984375 1.359375 3.390625 0 2.125-.375 3-1.296875 3-.96875 0-1.390625-1-1.390625-3.4375 0-2.109375.375-2.953125 1.328125-2.953125zm0 0"/></symbol><symbol id="p" overflow="visible"><path d="m.15625-.671875c0 .15625-.015625.25-.0625.5-.015625.09375-.015625.109375-.03125.171875.125.046875.234375.078125.328125.078125.25 0 .546875-.21875.78125-.578125l.578125-.875.09375.515625c.09375.640625.265625.9375.546875.9375.15625 0 .40625-.125.640625-.34375l.375-.328125-.0625-.15625c-.28125.234375-.46875.34375-.59375.34375-.109375 0-.203125-.078125-.28125-.21875-.0625-.15625-.15625-.4375-.1875-.65625l-.140625-.765625.265625-.375c.359375-.484375.5625-.65625.796875-.65625.125 0 .21875.0625.25.171875l.109375-.03125.109375-.640625c-.09375-.0625-.15625-.078125-.21875-.078125-.3125 0-.609375.265625-1.078125.96875l-.28125.421875-.046875-.375c-.09375-.75-.296875-1.015625-.75-1.015625-.203125 0-.359375.0625-.4375.15625l-.4375.625.125.078125c.234375-.25.390625-.359375.53125-.359375.25 0 .421875.3125.546875 1.046875l.078125.484375-.296875.46875c-.328125.5-.59375.75-.796875.75-.109375 0-.203125-.03125-.21875-.078125l-.078125-.203125zm0 0"/></symbol><symbol id="q" overflow="visible"><path d="m.09375-.140625v.15625c1.125-.015625 1.125-.015625 1.34375-.015625s.21875 0 1.375.015625c-.015625-.125-.015625-.1875-.015625-.265625s0-.140625.015625-.265625c-.6875.03125-.96875.03125-2.078125.046875l1.09375-1.15625c.578125-.609375.765625-.9375.765625-1.390625 0-.6875-.46875-1.125-1.234375-1.125-.4375 0-.734375.125-1.015625.421875l-.109375.828125h.171875l.078125-.28125c.09375-.34375.3125-.5.71875-.5.515625 0 .84375.328125.84375.828125 0 .453125-.25.90625-.9375 1.625zm0 0"/></symbol><symbol id="r" overflow="visible"><path d="m6.875-2.390625c.171875 0 .359375 0 .359375-.21875 0-.203125-.1875-.203125-.359375-.203125h-5.640625c-.1875 0-.375 0-.375.203125 0 .21875.1875.21875.375.21875zm0 0"/></symbol><g stroke="#000" stroke-linecap="round" stroke-linejoin="round" stroke-miterlimit="10" stroke-width="4.99842" transform="matrix(.1 0 0 -.1 0 115.78)"><path d="m2137.617188 157.604687h-2095.117188" fill="none"/><path d="m2177.617188 157.604687-40 10.742188v-21.445313zm0 0"/><path d="m2.5 157.604687 40-10.703125v21.445313zm0 0"/><path d="m1090.078125 915.182812v-757.578125" fill="none"/><path d="m1090.078125 955.14375-10.742187-39.960938h21.445312zm0 0"/><g fill="none"><path d="m365.039062 157.604687v-36.25"/><path d="m727.539062 157.604687v-36.25"/><path d="m1090.078125 157.604687v-36.25"/><path d="m1452.578125 157.604687v-36.25"/><path d="m1815.117188 157.604687v-36.25"/><path d="m1090.078125 792.01875h-36.289063"/><path d="m2137.695312 165.417187-3.59375.195313-21.757812 1.484375-21.71875 1.757812-21.757812 1.992188-21.757813 2.304687-21.757813 2.617188-21.757812 3.007812-21.71875 3.398438-21.757812 3.867187-21.757813 4.335938-21.757813 4.84375-21.757812 5.46875-21.757812 6.054687-21.71875 6.679688-21.757813 7.382812-21.757813 8.085938-21.757812 8.867187-21.757812 9.609375-21.757813 10.429688-21.71875 11.210937-21.757813 12.03125-21.757812 12.851563-21.757812 13.632812-21.757813 14.414063-21.71875 15.15625-21.757813 15.859375-21.757812 16.484375-21.757812 17.03125-21.757813 17.539062-21.757813 17.890625-21.757812 18.203125-21.71875 18.398438-21.757812 18.398437-21.757813 18.320313-21.757813 18.085937-21.757812 17.734375-21.757812 17.1875-21.71875 16.484375-21.757813 15.703125-21.757813 14.726563-21.757812 13.59375-21.757812 12.34375-21.71875 10.976562-21.757813 9.453125-21.757813 7.929688-21.757812 6.210937-21.757812 4.53125-21.757813 2.695313-21.71875.9375-21.796875-.9375-21.71875-2.695313-21.757812-4.53125-21.757813-6.210937-21.757813-7.929688-21.71875-9.453125-21.757812-10.976562-21.757812-12.34375-21.757813-13.59375-21.757813-14.726563-21.757812-15.703125-21.71875-16.484375-21.757812-17.1875-21.757813-17.734375-21.757813-18.085937-21.757812-18.320313-43.515625-36.796875-21.71875-18.203125-21.757813-17.890625-21.757812-17.539062-21.757812-17.03125-21.757813-16.484375-21.71875-15.859375-21.757813-15.15625-21.757812-14.414063-21.757812-13.632812-21.757813-12.851563-21.757813-12.03125-21.71875-11.210937-21.757812-10.429688-21.757812-9.609375-21.757813-8.867187-21.757813-8.085938-21.757812-7.382812-21.71875-6.679688-21.757812-6.054687-21.757813-5.46875-21.757813-4.84375-21.757812-4.335938-21.757812-3.867187-21.71875-3.398438-21.757813-3.007812-21.757813-2.617188-21.757812-2.304687-21.757812-1.992188-21.757813-1.757812-21.71875-1.484375-3.59375-.195313"/></g></g><path d="m217.761719 99.457031-2.074219-.667969-1.855469-.617187-.125 2.136719 1.925781-.394532z"/><path d="m2177.617188 163.229687-20.742188 6.679688-18.554688 6.171875-1.25-21.367188 19.257813 3.945313zm0 0" style="fill:none;stroke-width:4.99842;stroke-linecap:round;stroke-linejoin:round;stroke:#000;stroke-miterlimit:10" transform="matrix(.1 0 0 -.1 0 115.78)"/><path d="m.25 99.457031 2.128906.457031 1.925782.398438-.125-2.144531-1.855469.617187z"/><path d="m2.5 163.229687 21.289062-4.570312 19.257813-3.984375-1.25 21.445312-18.554687-6.171875zm0 0" style="fill:none;stroke-width:4.99842;stroke-linecap:round;stroke-linejoin:round;stroke:#000;stroke-miterlimit:10" transform="matrix(.1 0 0 -.1 0 115.78)"/><path d="m.25 99.457031 2.175781-.109375 2.175781-.128906 2.171876-.148438 2.175781-.175781 2.175781-.199219 2.175781-.230468 2.175781-.261719 2.175782-.300781 2.171875-.339844 2.175781-.386719 2.175781-.433593 2.175781-.484376 2.175782-.546874 2.175781-.605469 2.171875-.667969 2.175781-.738281 2.175781-.808594 2.175782-.886719 2.175781-.960937 2.175781-1.042969 2.171875-1.121094 2.175781-1.203125 2.175782-1.285156 2.175781-1.363281 2.175781-1.441406 2.175782-1.515626 2.171874-1.585937 2.175782-1.648437 2.175781-1.703126 2.175781-1.753906 2.175782-1.789062 2.171874-1.820313 4.351563-3.679687 2.175781-1.832032 2.175782-1.808593 2.175781-1.773438 2.175781-1.71875 2.171875-1.648437 2.175781-1.570313 2.175782-1.472656 2.175781-1.359375 2.175781-1.234375 2.175781-1.097656 2.171875-.945313 2.175782-.792968 2.175781-.621094 2.175781-.453125 2.171875-.269531 2.179687-.09375 2.171876.09375 2.175781.269531 2.175781.453125 2.175781.621094 2.175781.792968 2.175782.945313 2.171875 1.097656 2.175781 1.234375 2.175781 1.359375 2.175781 1.472656 2.175782 1.570313 2.171875 1.648437 2.175781 1.71875 2.175781 1.773438 2.175781 1.808593 2.175782 1.832032 2.175781 1.839844 2.171875 1.839843 2.175781 1.820313 2.175781 1.789062 2.175782 1.753906 2.175781 1.703126 2.175781 1.648437 2.175782 1.585937 2.171874 1.515626 2.175782 1.441406 2.175781 1.363281 2.175781 1.285156 2.175782 1.203125 2.171874 1.121094 2.175782 1.042969 2.175781.960937 2.175781.886719 2.175782.808594 2.175781.738281 2.171875.667969 2.175781.605469 2.175781.546874 2.175782.484376 2.175781.433593 2.175781.386719 2.171875.339844 2.175781.300781 2.175782.261719 2.175781.230468 2.175781.199219 2.171875.175781 2.175781.148438 2.175782.128906 2.175781.109375v.5625h-217.511719z" fill="#191970" fill-opacity=".3"/><use x="220.2" xlink:href="#a" y="107.01984"/><use x="112.56" xlink:href="#b" y="11.73974"/><use x="116.87992" xlink:href="#c" y="11.73974"/><use x="121.31976" xlink:href="#a" y="11.73974"/><use x="126.71976" xlink:href="#d" y="11.73974"/><use x="133.799775" xlink:href="#e" y="11.73974"/><use x="151.67996" xlink:href="#f" y="7.8999"/><path d="m146.027344 9.113281h15.238281v.480469h-15.238281zm0 0"/><use x="146.16" xlink:href="#i" y="10.54"/><path d="m152.867188 10.191406h8.398437v.359375h-8.398437zm0 0"/><use x="152.88" xlink:href="#g" y="17.0198"/><use x="156.71984" xlink:href="#k" y="17.0198"/><use x="162.36007" xlink:href="#l" y="11.73972"/><use x="167.27999" xlink:href="#j" y="8.13972"/><use x="173.76007" xlink:href="#p" y="8.13972"/><use x="177.83976" xlink:href="#q" y="5.37995"/><use x="181.31984" xlink:href="#h" y="8.13972"/><use x="185.999921" xlink:href="#g" y="8.13972"/><use x="26.63984" xlink:href="#r" y="113.49972"/><use x="34.91992" xlink:href="#m" y="113.49972"/><use x="62.88012" xlink:href="#r" y="113.619642"/><use x="71.1602" xlink:href="#n" y="113.619642"/><use x="106.5602" xlink:href="#o" y="113.49972"/><use x="142.8" xlink:href="#n" y="113.619642"/><use x="179.0398" xlink:href="#m" y="113.49972"/><use x="97.4398" xlink:href="#f" y="35.49972"/><path d="m97.429688 36.710938h3.839843v.480468h-3.839843zm0 0"/><use x="97.4398" xlink:href="#g" y="42.8198"/></svg>