<svg height="29.79pt" viewBox="0 0 226.77 29.79" width="226.77pt" xmlns="http://www.w3.org/2000/svg" xmlns:xlink="http://www.w3.org/1999/xlink"><clipPath id="a"><path d="m218 5h8.769531v5h-8.769531zm0 0"/></clipPath><clipPath id="b"><path d="m218 5h8.769531v6h-8.769531zm0 0"/></clipPath><symbol id="c" overflow="visible"><path d="m3.140625-8.234375c-1.84375 0-2.796875 1.46875-2.796875 4.359375 0 1.40625.25 2.609375.671875 3.1875.421875.59375 1.09375.921875 1.828125.921875 1.8125 0 2.71875-1.546875 2.71875-4.609375 0-2.625-.78125-3.859375-2.421875-3.859375zm-.21875.421875c1.171875 0 1.625 1.171875 1.625 4.03125 0 2.546875-.453125 3.609375-1.546875 3.609375-1.15625 0-1.65625-1.21875-1.65625-4.125 0-2.53125.453125-3.515625 1.578125-3.515625zm0 0"/></symbol><symbol id="d" overflow="visible"><path d="m.796875-6.640625h.125l1.546875-.6875c0-.015625.015625-.015625.03125-.015625.0625 0 .09375.109375.09375.40625v5.796875c0 .609375-.125.75-.78125.78125l-.671875.03125v.359375c1.84375-.03125 1.84375-.03125 1.984375-.03125.15625 0 .40625 0 .8125.015625.15625.015625.5625.015625 1.0625.015625v-.359375l-.625-.03125c-.65625-.03125-.78125-.171875-.78125-.78125v-7.09375l-.15625-.0625c-.78125.40625-1.625.765625-2.71875 1.15625zm0 0"/></symbol><symbol id="e" overflow="visible"><path d="m.1875-.28125v.3125c2.234375-.03125 2.234375-.03125 2.671875-.03125.421875 0 .421875 0 2.734375.03125-.03125-.25-.03125-.359375-.03125-.53125 0-.15625 0-.28125.03125-.546875-1.375.0625-1.921875.078125-4.140625.125l2.1875-2.3125c1.15625-1.21875 1.515625-1.875 1.515625-2.78125 0-1.375-.9375-2.21875-2.453125-2.21875-.859375 0-1.453125.234375-2.03125.828125l-.203125 1.640625h.34375l.15625-.5625c.1875-.6875.625-.984375 1.421875-.984375 1.03125 0 1.6875.640625 1.6875 1.65625 0 .90625-.5 1.78125-1.859375 3.21875zm0 0"/></symbol><symbol id="f" overflow="visible"><path d="m8.203125-2.859375c.21875 0 .4375 0 .4375-.25s-.21875-.25-.4375-.25h-6.734375c-.21875 0-.4375 0-.4375.25s.21875.25.4375.25zm0 0"/></symbol><path d="m2189.53125 219.892187h-2112.070312" style="fill:none;stroke-width:4.99842;stroke-linecap:round;stroke-linejoin:round;stroke:#000;stroke-miterlimit:10" transform="matrix(.1 0 0 -.1 0 29.79)"/><g clip-path="url(#a)"><path d="m226.449219 7.800781-7.496094-2.011719v4.019532zm0 0"/></g><g clip-path="url(#b)"><path d="m2264.492188 219.892187-74.960938 20.117188v-40.195313zm0 0" style="fill:none;stroke-width:4.99842;stroke-linecap:round;stroke-linejoin:round;stroke:#000;stroke-miterlimit:10" transform="matrix(.1 0 0 -.1 0 29.79)"/></g><g stroke="#000" stroke-linecap="round" stroke-linejoin="round" stroke-miterlimit="10" stroke-width="4.99842" transform="matrix(.1 0 0 -.1 0 29.79)"><path d="m2.5 219.892187 74.960938-20.078125v40.195313zm0 0"/><path d="m1133.515625 144.501562v150.820313" fill="none"/><path d="m756.484375 144.501562v150.820313" fill="none"/><path d="m1510.507812 144.501562v150.820313" fill="none"/><path d="m379.492188 144.501562v150.820313" fill="none"/><path d="m1887.5 144.501562v150.820313" fill="none"/></g><use x="110.4" xlink:href="#c" y="27.02984"/><use x="64.3199" xlink:href="#f" y="27.270074"/><use x="74.15974" xlink:href="#d" y="27.270074"/><use x="148.079818" xlink:href="#d" y="27.270074"/><use x="26.63984" xlink:href="#f" y="27.02984"/><use x="36.47968" xlink:href="#e" y="27.02984"/><use x="185.880228" xlink:href="#e" y="27.02984"/></svg>