<svg height="238.61pt" viewBox="0 0 425.2 238.61" width="425.2pt" xmlns="http://www.w3.org/2000/svg" xmlns:xlink="http://www.w3.org/1999/xlink"><symbol id="a" overflow="visible"><path d="m.125-.53125c0 .125-.015625.203125-.046875.390625-.015625.078125-.015625.09375-.03125.140625.09375.046875.1875.0625.265625.0625.203125 0 .4375-.171875.625-.453125l.453125-.703125.0625.421875c.078125.5.21875.734375.4375.734375.125 0 .3125-.09375.515625-.265625l.28125-.265625-.046875-.125c-.21875.1875-.359375.28125-.46875.28125-.078125 0-.15625-.0625-.21875-.1875-.0625-.109375-.125-.328125-.15625-.515625l-.109375-.59375.21875-.296875c.28125-.390625.4375-.53125.625-.53125.09375 0 .171875.046875.203125.140625l.078125-.03125.09375-.5c-.078125-.046875-.125-.0625-.1875-.0625-.234375 0-.46875.21875-.84375.765625l-.21875.328125-.046875-.28125c-.0625-.59375-.234375-.8125-.578125-.8125-.15625 0-.296875.046875-.34375.125l-.34375.5.09375.0625c.1875-.203125.296875-.296875.421875-.296875.1875 0 .328125.25.421875.84375l.0625.359375-.234375.375c-.25.40625-.46875.59375-.625.59375-.09375 0-.15625-.015625-.171875-.046875l-.0625-.171875zm0 0"/></symbol><symbol id="b" overflow="visible"><path d="m-.046875 1.078125v.109375c0 .265625.21875.46875.484375.46875.640625 0 1.296875-.75 1.65625-1.859375l.84375-2.640625-.0625-.046875c-.171875.0625-.3125.09375-.4375.109375l-.21875.796875c-.078125.28125-.28125.71875-.484375 1.015625s-.5.5625-.625.5625c-.078125 0-.125-.140625-.125-.28125v-.078125l.09375-1.171875c.015625-.1875.03125-.40625.03125-.578125 0-.265625-.046875-.375-.15625-.375-.078125 0-.15625.046875-.4375.234375l-.5.34375.0625.109375.3125-.1875.015625-.015625c.0625-.03125.109375-.046875.125-.046875.09375 0 .140625.109375.140625.3125 0 0 0 .03125-.015625.078125l-.09375 1.46875-.015625.234375c0 .25.109375.421875.265625.421875.21875 0 .71875-.5 1.171875-1.1875l-.296875 1.03125c-.296875 1.0625-.59375 1.5-1.015625 1.5-.21875 0-.375-.171875-.375-.375 0-.03125 0-.078125.015625-.125l-.0625-.03125zm0 0"/></symbol><symbol id="c" overflow="visible"><path d="m.46875-.28125c-.09375.09375-.15625.125-.3125.25-.0625.03125-.078125.046875-.125.0625.03125.09375.09375.1875.140625.234375.140625.140625.4375.1875.765625.109375l.8125-.15625-.25.34375c-.296875.390625-.359375.671875-.203125.828125.078125.078125.28125.15625.546875.171875l.390625.015625.046875-.140625c-.28125 0-.453125-.046875-.53125-.125-.046875-.046875-.0625-.15625-.015625-.296875.046875-.109375.140625-.296875.25-.46875l.34375-.5.359375-.046875c.484375-.078125.6875-.0625.828125.078125.0625.0625.078125.140625.046875.234375l.0625.03125.4375-.28125c-.03125-.09375-.046875-.140625-.09375-.1875-.171875-.171875-.484375-.171875-1.140625-.046875l-.390625.078125.171875-.234375c.375-.46875.40625-.75.171875-.984375-.109375-.109375-.25-.1875-.34375-.15625l-.578125.109375.015625.109375c.265625-.015625.40625 0 .5.09375.125.125.0625.40625-.296875.890625l-.203125.296875-.4375.09375c-.46875.125-.75.09375-.859375-.015625-.0625-.0625-.09375-.125-.09375-.15625l.078125-.171875zm0 0"/></symbol><symbol id="d" overflow="visible"><path d="m-.796875.734375c-.03125.03125-.046875.046875-.078125.078125-.1875.1875-.171875.484375.015625.671875.453125.453125 1.4375.375 2.484375-.140625l2.46875-1.28125-.015625-.078125c-.171875-.078125-.28125-.15625-.390625-.234375l-.71875.40625c-.25.15625-.703125.328125-1.0625.375-.359375.078125-.75.0625-.84375-.03125-.046875-.046875.03125-.1875.125-.28125l.0625-.0625.890625-.765625c.125-.125.296875-.265625.421875-.390625.1875-.1875.234375-.296875.15625-.375-.046875-.046875-.140625-.078125-.484375-.140625l-.578125-.109375-.03125.125.34375.09375.015625-.015625c.0625.03125.109375.046875.125.0625.0625.0625.015625.171875-.125.3125 0 0-.03125.03125-.0625.0625l-1.109375.953125-.171875.171875c-.171875.171875-.21875.375-.109375.484375.15625.15625.859375.140625 1.671875-.015625l-.953125.515625c-.953125.546875-1.484375.640625-1.78125.34375-.140625-.140625-.140625-.390625 0-.53125.03125-.03125.0625-.0625.109375-.078125l-.03125-.0625zm0 0"/></symbol><symbol id="e" overflow="visible"><path d="m2.828125.796875 1.21875 1.21875c.078125.078125.15625.15625.25.0625.078125-.078125 0-.15625-.078125-.234375l-1.21875-1.21875 1.25-1.25c.0625-.0625.140625-.140625.046875-.234375-.078125-.078125-.15625 0-.21875.0625l-1.25 1.25-1.25-1.25c-.0625-.0625-.140625-.140625-.21875-.0625-.09375.09375-.015625.171875.046875.234375l1.25 1.25-1.234375 1.234375c-.0625.0625-.140625.140625-.0625.21875.09375.09375.171875.015625.234375-.046875zm0 0"/></symbol><symbol id="f" overflow="visible"><path d="m4.484375 1.578125c.078125.078125.15625.15625.234375.078125.09375-.09375.015625-.171875-.0625-.25l-2.640625-2.640625c-.0625-.0625-.140625-.140625-.234375-.046875-.078125.078125 0 .15625.0625.21875zm-.875.875c.078125.078125.15625.15625.25.0625s.015625-.171875-.0625-.25l-2.640625-2.640625c-.0625-.0625-.140625-.140625-.234375-.046875s-.015625.171875.046875.234375zm0 0"/></symbol><symbol id="g" overflow="visible"><path d="m4.03125-1.8125c-.65625-.65625-1.515625-.453125-2.53125.5625-.5.5-.84375 1-.890625 1.359375-.0625.375.046875.734375.296875.984375.640625.640625 1.546875.421875 2.640625-.671875.921875-.921875 1.078125-1.640625.484375-2.234375zm-.234375.078125c.421875.421875.171875.984375-.84375 2-.90625.90625-1.4375 1.125-1.828125.734375-.40625-.40625-.15625-1.03125.875-2.0625.890625-.890625 1.40625-1.0625 1.796875-.671875zm0 0"/></symbol><symbol id="h" overflow="visible"><path d="m1 .0625c-.140625-.140625-.359375-.140625-.5 0-.125.125-.125.34375 0 .46875.140625.140625.359375.140625.484375.015625.140625-.140625.140625-.359375.015625-.484375zm0 0"/></symbol><symbol id="i" overflow="visible"><path d="m3.109375-2.015625c.515625.546875.765625.796875 1.265625 1.296875l.046875.015625c.0625-.09375.09375-.125.15625-.1875s.09375-.09375.1875-.15625l-.015625-.046875c-.328125-.296875-.515625-.484375-.75-.71875s-.421875-.421875-.71875-.75l-.046875-.015625c-.25.28125-.4375.46875-.578125.609375-.359375.359375-.765625.734375-.953125.921875l.03125.09375c.40625.03125.59375.0625.796875.265625.421875.421875.375.96875-.09375 1.4375-.453125.453125-1.015625.453125-1.484375-.015625-.21875-.21875-.359375-.515625-.3125-.65625l.15625-.5625-.15625-.03125c-.140625.328125-.234375.515625-.359375.765625.0625.1875.171875.390625.359375.578125.28125.28125.703125.453125 1.171875.484375s.890625-.140625 1.203125-.453125c.484375-.484375.484375-1.140625-.015625-1.640625-.1875-.1875-.40625-.28125-.828125-.390625zm0 0"/></symbol><symbol id="j" overflow="visible"><path d="m.15625-.03125-.109375.109375c.8125.78125.8125.78125.96875.9375s.15625.15625.953125.984375l.1875-.1875.1875-.1875c-.5-.46875-.703125-.671875-1.5-1.4375l1.609375-.046875c.828125-.015625 1.1875-.125 1.5-.4375.5-.5.46875-1.125-.0625-1.65625-.3125-.3125-.609375-.453125-1.015625-.421875l-.65625.5.109375.109375.265625-.140625c.296875-.171875.5625-.125.84375.15625.375.375.375.84375.03125 1.1875-.328125.328125-.828125.453125-1.828125.484375zm0 0"/></symbol><symbol id="k" overflow="visible"><path d="m2.171875-.734375c-.25-.09375-.359375-.140625-.546875-.140625-.34375 0-.609375.109375-.828125.328125-.421875.421875-.421875 1.109375.078125 1.609375.546875.546875 1.4375.5625 1.96875.03125.34375-.34375.359375-.671875.09375-1.375.65625.125.96875.0625 1.21875-.1875.359375-.359375.3125-.90625-.140625-1.359375-.5-.5-1.203125-.546875-1.640625-.109375-.296875.296875-.328125.578125-.203125 1.203125zm.28125.6875c.15625.375.109375.765625-.109375.984375-.359375.359375-.90625.375-1.25.03125-.375-.375-.34375-.84375.046875-1.234375.3125-.3125.625-.40625 1.125-.28125zm.296875-.796875c-.15625-.40625-.109375-.703125.109375-.921875.265625-.265625.671875-.265625.96875.03125.3125.3125.3125.71875 0 1.03125-.25.25-.515625.296875-.96875.21875zm0 0"/></symbol><symbol id="l" overflow="visible"><path d="m7.671875-4.3125h5.234375c.25 0 .609375 0 .609375-.375s-.359375-.375-.609375-.375h-5.234375v-5.25c0-.265625 0-.625-.375-.625s-.375.359375-.375.625v5.25h-5.25c-.265625 0-.625 0-.625.375s.359375.375.625.375h5.25v5.25c0 .265625 0 .625.375.625s.375-.359375.375-.625zm0 0"/></symbol><symbol id="m" overflow="visible"><path d="m12.875-6.125c.28125 0 .640625 0 .640625-.375s-.359375-.375-.609375-.375h-11.234375c-.265625 0-.625 0-.625.375s.359375.375.640625.375zm.03125 3.625c.25 0 .609375 0 .609375-.375s-.359375-.375-.640625-.375h-11.1875c-.28125 0-.640625 0-.640625.375s.359375.375.625.375zm0 0"/></symbol><symbol id="n" overflow="visible"><path d="m3.78125-4.90625c.359375 0 1.0625 0 1.578125.3125.703125.453125.75 1.234375.75 1.328125.015625.203125.015625.390625.265625.390625s.25-.203125.25-.46875v-3.953125c0-.234375 0-.46875-.25-.46875s-.265625.21875-.265625.34375c-.078125 1.875-1.578125 1.984375-2.328125 2v-3.09375c0-.96875.28125-.96875.625-.96875h.703125c1.96875 0 2.953125 1 3.03125 2.015625.015625.109375.03125.328125.265625.328125.25 0 .25-.234375.25-.484375v-1.890625c0-.453125-.03125-.484375-.484375-.484375h-7.46875c-.265625 0-.5 0-.5.265625 0 .25.28125.25.390625.25.84375 0 .890625.109375.890625.828125v7.3125c0 .6875-.046875.828125-.8125.828125-.21875 0-.46875 0-.46875.25 0 .265625.234375.265625.5.265625h7.734375c.28125 0 .421875 0 .46875-.203125.015625-.015625.421875-2.453125.421875-2.53125 0-.15625-.140625-.25-.25-.25-.203125 0-.265625.1875-.265625.203125-.078125.375-.234375.984375-1.296875 1.609375-.765625.453125-1.5.65625-2.3125.65625h-.796875c-.34375 0-.625 0-.625-.96875zm4.359375-4.578125v.703125c-.25-.28125-.515625-.515625-.828125-.703125zm-2.84375 4.28125c.234375-.109375.5625-.328125.8125-.640625v1.234375c-.34375-.390625-.796875-.59375-.8125-.59375zm-3.296875-3.484375c0-.171875 0-.53125-.125-.796875h1.546875c-.15625.328125-.15625.8125-.15625.953125v7.078125c0 .515625.109375.8125.15625.9375h-1.546875c.125-.265625.125-.625.125-.796875zm5.421875 8.171875v-.015625c.46875-.234375.875-.53125 1.15625-.796875-.015625.0625-.109375.703125-.125.8125zm0 0"/></symbol><symbol id="o" overflow="visible"><path d="m3.71875 3.65625v-.59375h-1.40625v-13.421875h1.40625v-.59375h-2v14.609375zm0 0"/></symbol><symbol id="p" overflow="visible"><path d="m2.328125-10.953125h-2v.59375h1.40625v13.421875h-1.40625v.59375h2zm0 0"/></symbol><symbol id="q" overflow="visible"><path d="m5.96875-3.359375h4.078125c.203125 0 .46875 0 .46875-.296875 0-.28125-.265625-.28125-.46875-.28125h-4.078125v-4.09375c0-.203125 0-.484375-.296875-.484375-.28125 0-.28125.28125-.28125.484375v4.09375h-4.09375c-.203125 0-.484375 0-.484375.28125 0 .296875.28125.296875.484375.296875h4.09375v4.09375c0 .203125 0 .484375.28125.484375.296875 0 .296875-.28125.296875-.484375zm0 0"/></symbol><symbol id="r" overflow="visible"><path d="m10.03125-4.765625c.21875 0 .484375 0 .484375-.296875s-.265625-.296875-.46875-.296875h-8.75c-.203125 0-.484375 0-.484375.296875s.28125.296875.5.296875zm.015625 2.828125c.203125 0 .46875 0 .46875-.296875s-.265625-.296875-.484375-.296875h-8.71875c-.21875 0-.5 0-.5.296875s.28125.296875.484375.296875zm0 0"/></symbol><symbol id="s" overflow="visible"><path d="m5.828125-.34375v.390625c.671875-.03125 1.296875-.046875 1.890625-.046875.5625 0 1.1875.015625 1.859375.046875v-.390625l-.359375-.03125c-.5625-.046875-.75-.140625-.9375-.484375l-2.40625-4.296875 3.09375-3.53125c.421875-.453125.546875-.53125.921875-.578125l.390625-.03125v-.390625l-1.59375.046875c-.171875 0-.375 0-1.625-.046875v.390625l.46875.03125c.453125.03125.625.09375.625.265625 0 .15625-.0625.28125-.3125.59375l-2.25 2.734375-1.46875-2.78125c-.125-.25-.1875-.421875-.1875-.53125 0-.171875.171875-.25.59375-.28125l.515625-.03125v-.390625l-.640625.015625c-.5625.015625-.984375.03125-1.21875.03125s-.65625-.015625-1.234375-.03125l-.625-.015625v.390625l.359375.03125c.6875.0625.859375.171875 1.140625.6875l2.046875 3.78125-3.328125 3.9375c-.21875.25-.53125.421875-.875.46875l-.390625.046875v.390625c.6875-.03125 1.265625-.046875 1.75-.046875.5 0 1.0625.015625 1.671875.046875v-.390625l-.453125-.046875c-.53125-.0625-.765625-.140625-.765625-.3125 0-.109375.046875-.234375.140625-.34375l2.546875-3.234375 1.65625 3.15625c.125.25.203125.4375.203125.5625 0 .109375-.09375.15625-.453125.15625l-.21875.015625zm0 0"/></symbol><symbol id="t" overflow="visible"><path d="m.734375-9.0625.03125.34375c.328125-.125.484375-.171875.640625-.171875.65625 0 1.15625.640625 1.734375 2.21875.328125.9375.875 2.84375.859375 3.078125 0 0 0 .03125-.015625.078125l-.28125 1.765625c-.25 1.28125-.265625 1.3125-.8125 1.359375l-.671875.046875-.0625.390625.734375-.015625c.671875-.015625.984375-.03125 1.21875-.03125l1.34375.046875h.375l.03125-.390625-.671875-.046875c-.390625-.03125-.515625-.125-.515625-.40625 0-.078125.015625-.21875.03125-.296875l.359375-2.34375c.125-.78125 1.046875-2.421875 2.078125-3.734375.8125-1.03125 1.40625-1.453125 2.21875-1.59375l.09375-1c-1.03125.28125-1.765625.859375-2.8125 2.265625-.859375 1.171875-1.40625 2.125-1.796875 3.15625-1.046875-4.28125-1.71875-5.515625-3.015625-5.53125l-.046875.046875c-.046875.046875-.09375.0625-.125.09375-.15625.125-.453125.359375-.71875.515625zm0 0"/></symbol><g stroke-linecap="round" stroke-linejoin="round" stroke-miterlimit="10" transform="matrix(.1 0 0 -.1 0 238.61)"><g stroke="#7f7f7f" stroke-width="2.00002"><path d="m820.859375 1682.0375h659.257813" fill="none"/><path d="m800.859375 1682.0375 20-5.390625v10.742187zm0 0" fill="#7f7f7f"/><path d="m1629.921875 1682.0375h-22.421875" fill="none"/><path d="m1649.921875 1682.0375-20 5.351562v-10.742187zm0 0" fill="#7f7f7f"/><path d="m1013.125 1489.732812v809.101563" fill="none"/><path d="m1013.125 1469.732812 5.390625 20h-10.742187zm0 0" fill="#7f7f7f"/><path d="m1013.125 2318.834375-5.351562-20h10.742187zm0 0" fill="#7f7f7f"/></g><path d="m1248.125 1553.13125-300.195312 300.195312" fill="none" stroke="#000" stroke-width="3.00002"/><path d="m1502.851562 1786.646875-450.273437 450.273437" fill="none" stroke="#000" stroke-width="3.00002"/><path d="m1693.90625 2062.584375-300.195312 300.195312" fill="none" stroke="#000" stroke-width="3.00002"/><path d="m2903.554688 1682.0375h-809.0625" fill="none" stroke="#7f7f7f" stroke-width="2.00002"/><path d="m2923.554688 1682.0375-20 5.351562v-10.742187zm0 0" fill="#7f7f7f" stroke="#7f7f7f" stroke-width="2.00002"/><path d="m2074.492188 1682.0375 20-5.390625v10.742187zm0 0" fill="#7f7f7f" stroke="#7f7f7f" stroke-width="2.00002"/><path d="m2286.757812 1489.732812v809.101563" fill="none" stroke="#7f7f7f" stroke-width="2.00002"/><path d="m2286.757812 1469.732812 5.351563 20h-10.742187zm0 0" fill="#7f7f7f" stroke="#7f7f7f" stroke-width="2.00002"/><path d="m2286.757812 2318.834375-5.390624-20h10.742187zm0 0" fill="#7f7f7f" stroke="#7f7f7f" stroke-width="2.00002"/><path d="m2371.640625 1469.732812v849.101563" fill="none" stroke="#000" stroke-width="3.00002"/><path d="m2626.367188 1469.732812v849.101563" fill="none" stroke="#000" stroke-width="3.00002"/><path d="m2817.421875 1469.732812v849.101563" fill="none" stroke="#000" stroke-width="3.00002"/><path d="m4177.148438 1682.0375h-809.0625" fill="none" stroke="#7f7f7f" stroke-width="2.00002"/><path d="m4197.148438 1682.0375-20 5.351562v-10.742187zm0 0" fill="#7f7f7f" stroke="#7f7f7f" stroke-width="2.00002"/><path d="m3348.085938 1682.0375 20-5.390625v10.742187zm0 0" fill="#7f7f7f" stroke="#7f7f7f" stroke-width="2.00002"/><path d="m3560.351562 1489.732812v809.101563" fill="none" stroke="#7f7f7f" stroke-width="2.00002"/><path d="m3560.351562 1469.732812 5.351563 20h-10.703125zm0 0" fill="#7f7f7f" stroke="#7f7f7f" stroke-width="2.00002"/><path d="m3560.351562 2318.834375-5.351562-20h10.703125zm0 0" fill="#7f7f7f" stroke="#7f7f7f" stroke-width="2.00002"/><path d="m3348.085938 1703.248437h849.0625" fill="none" stroke="#000" stroke-width="3.00002"/><path d="m3348.085938 1936.725h849.0625" fill="none" stroke="#000" stroke-width="3.00002"/><path d="m3348.085938 2191.451562h849.0625" fill="none" stroke="#000" stroke-width="3.00002"/><path d="m3348.085938 2212.701562h849.0625" fill="none" stroke="#000" stroke-width="3.00002"/><path d="m2903.554688 620.670312h-809.0625" fill="none" stroke="#7f7f7f" stroke-width="2.00002"/><path d="m2923.554688 620.670312-20 5.351563v-10.703125zm0 0" fill="#7f7f7f" stroke="#7f7f7f" stroke-width="2.00002"/><path d="m2074.492188 620.670312 20-5.351562v10.703125zm0 0" fill="#7f7f7f" stroke="#7f7f7f" stroke-width="2.00002"/><path d="m2286.757812 428.404687v809.0625" fill="none" stroke="#7f7f7f" stroke-width="2.00002"/><path d="m2286.757812 408.404687 5.351563 20h-10.742187zm0 0" fill="#7f7f7f" stroke="#7f7f7f" stroke-width="2.00002"/><path d="m2286.757812 1257.467187-5.390624-20h10.742187zm0 0" fill="#7f7f7f" stroke="#7f7f7f" stroke-width="2.00002"/><path d="m2371.640625 408.404687v849.0625" fill="none" stroke="#000" stroke-width="3.00002"/><path d="m2626.367188 408.404687v849.0625" fill="none" stroke="#000" stroke-width="3.00002"/><path d="m2817.421875 408.404687v849.0625" fill="none" stroke="#000" stroke-width="3.00002"/><path d="m4177.148438 620.670312h-809.0625" fill="none" stroke="#7f7f7f" stroke-width="2.00002"/><path d="m4197.148438 620.670312-20 5.351563v-10.703125zm0 0" fill="#7f7f7f" stroke="#7f7f7f" stroke-width="2.00002"/><path d="m3348.085938 620.670312 20-5.351562v10.703125zm0 0" fill="#7f7f7f" stroke="#7f7f7f" stroke-width="2.00002"/><path d="m3560.351562 428.404687v809.0625" fill="none" stroke="#7f7f7f" stroke-width="2.00002"/><path d="m3560.351562 408.404687 5.351563 20h-10.703125zm0 0" fill="#7f7f7f" stroke="#7f7f7f" stroke-width="2.00002"/><path d="m3560.351562 1257.467187-5.351562-20h10.703125zm0 0" fill="#7f7f7f" stroke="#7f7f7f" stroke-width="2.00002"/><path d="m3348.085938 641.920312h849.0625" fill="none" stroke="#000" stroke-width="3.00002"/><path d="m3348.085938 875.396875h849.0625" fill="none" stroke="#000" stroke-width="3.00002"/><path d="m3348.085938 1130.123437h849.0625" fill="none" stroke="#000" stroke-width="3.00002"/><path d="m3348.085938 1151.334375h849.0625" fill="none" stroke="#000" stroke-width="3.00002"/></g><use fill="#7f7f7f" x="166.56" xlink:href="#a" y="74.57"/><use fill="#7f7f7f" x="102.7198" xlink:href="#b" y="3.77"/><use x="116.085" xlink:href="#c" y="82.185"/><use x="119.224456" xlink:href="#e" y="85.324456"/><use x="123.551802" xlink:href="#d" y="89.651802"/><use x="126.945944" xlink:href="#f" y="93.045944"/><use x="131.612744" xlink:href="#g" y="97.712744"/><use x="133.734069" xlink:href="#h" y="99.834069"/><use x="134.7523" xlink:href="#i" y="100.8523"/><use x="134.924834" xlink:href="#c" y="52.184953"/><use x="138.06429" xlink:href="#e" y="55.324409"/><use x="142.391636" xlink:href="#d" y="59.651756"/><use x="145.785778" xlink:href="#f" y="63.045897"/><use x="150.452578" xlink:href="#j" y="67.712698"/><use x="152.573903" xlink:href="#h" y="69.834022"/><use x="153.592133" xlink:href="#k" y="70.852253"/><use x="160.724863" xlink:href="#c" y="31.184964"/><use x="163.779551" xlink:href="#e" y="34.239652"/><use x="168.106897" xlink:href="#d" y="38.566999"/><use x="171.585807" xlink:href="#f" y="42.045909"/><use x="176.167839" xlink:href="#i" y="46.627941"/><use fill="#7f7f7f" x="293.88" xlink:href="#a" y="74.57"/><use fill="#7f7f7f" x="230.0398" xlink:href="#b" y="3.77"/><use fill="#7f7f7f" x="421.1998" xlink:href="#a" y="74.57"/><use fill="#7f7f7f" x="357.4799" xlink:href="#b" y="3.77"/><use x="306.36" xlink:href="#l" y="53.93"/><use x="189.6" xlink:href="#m" y="52.61008"/><use x="306.36" xlink:href="#l" y="149.44988"/><use x="189.6" xlink:href="#m" y="148.12996"/><use x="306.36" xlink:href="#l" y="234.29016"/><use x="189.6" xlink:href="#m" y="233.09016"/><g fill="#191970"><use x="245.76" xlink:href="#n" y="233.21"/><use x="255.59984" xlink:href="#o" y="233.21"/><use x="260.16" xlink:href="#s" y="233.21"/><use x="270.8401" xlink:href="#p" y="233.21"/><use x="352.56" xlink:href="#n" y="233.21"/><use x="362.39984" xlink:href="#o" y="233.21"/><use x="366.47992" xlink:href="#t" y="233.21"/><use x="376.44008" xlink:href="#p" y="233.21"/></g><use fill="#8b0000" x="1.68008" xlink:href="#n" y="52.85"/><use fill="#8b0000" x="11.51992" xlink:href="#o" y="52.85"/><use fill="#8b0000" x="16.08008" xlink:href="#s" y="52.85"/><use fill="#8b0000" x="29.64028" xlink:href="#q" y="52.85"/><use fill="#8b0000" x="43.80048" xlink:href="#t" y="52.85"/><use fill="#8b0000" x="53.76064" xlink:href="#p" y="52.85"/><use fill="#8b0000" x="62.040701" xlink:href="#r" y="52.85"/><use fill="#7f7f7f" x="293.88" xlink:href="#a" y="180.7698"/><use fill="#7f7f7f" x="230.0398" xlink:href="#b" y="109.9698"/><use fill="#7f7f7f" x="421.1998" xlink:href="#a" y="180.7698"/><use fill="#7f7f7f" x="357.4799" xlink:href="#b" y="109.9698"/></svg>