<svg height="107.34pt" viewBox="0 0 340.16 107.34" width="340.16pt" xmlns="http://www.w3.org/2000/svg" xmlns:xlink="http://www.w3.org/1999/xlink"><clipPath id="a"><path d="m23 105h2v2.339844h-2zm0 0"/></clipPath><clipPath id="b"><path d="m22 105h3v2.339844h-3zm0 0"/></clipPath><clipPath id="c"><path d="m140 105h2v2.339844h-2zm0 0"/></clipPath><clipPath id="d"><path d="m258 105h2v2.339844h-2zm0 0"/></clipPath><symbol id="e" overflow="visible"><path d="m.25-1.046875c0 .234375-.015625.390625-.09375.765625-.03125.15625-.03125.1875-.046875.265625.171875.09375.375.140625.515625.140625.390625 0 .859375-.34375 1.234375-.90625l.90625-1.390625.125.828125c.15625 1.015625.4375 1.46875.859375 1.46875.265625 0 .65625-.203125 1.03125-.546875l.578125-.515625-.09375-.234375c-.4375.359375-.734375.53125-.921875.53125s-.34375-.109375-.453125-.34375-.25-.671875-.3125-1.03125l-.203125-1.203125.421875-.578125c.546875-.78125.875-1.0625 1.25-1.0625.1875 0 .328125.109375.390625.28125l.171875-.046875.171875-1.015625c-.140625-.078125-.25-.125-.359375-.125-.46875 0-.953125.4375-1.6875 1.53125l-.453125.65625-.0625-.5625c-.140625-1.1875-.46875-1.625-1.171875-1.625-.3125 0-.578125.09375-.6875.25l-.6875 1 .203125.109375c.359375-.40625.59375-.5625.828125-.5625.390625 0 .65625.484375.859375 1.65625l.125.75-.46875.734375c-.515625.796875-.921875 1.1875-1.265625 1.1875-.171875 0-.3125-.046875-.328125-.109375l-.140625-.34375zm0 0"/></symbol><symbol id="f" overflow="visible"><path d="m-.078125 2.15625c-.015625.078125-.015625.15625-.015625.203125 0 .515625.4375.9375.984375.9375 1.265625 0 2.578125-1.484375 3.28125-3.6875l1.6875-5.265625-.140625-.109375c-.34375.140625-.609375.203125-.875.234375l-.421875 1.578125c-.140625.5625-.5625 1.4375-.953125 2.015625-.421875.609375-1 1.140625-1.265625 1.140625-.140625 0-.25-.28125-.25-.578125l.015625-.15625.1875-2.3125c.015625-.375.046875-.828125.046875-1.171875 0-.53125-.09375-.75-.296875-.75-.15625 0-.3125.09375-.890625.484375l-.984375.671875.140625.203125.59375-.34375.046875-.046875c.125-.0625.203125-.109375.25-.109375.171875 0 .265625.234375.265625.625 0 .015625 0 .078125-.015625.1875l-.203125 2.90625-.015625.46875c0 .5.21875.84375.515625.84375.453125 0 1.453125-1.015625 2.34375-2.359375l-.578125 2.046875c-.609375 2.109375-1.21875 2.984375-2.046875 2.984375-.421875 0-.75-.328125-.75-.734375 0-.0625.015625-.15625.03125-.265625l-.125-.046875zm0 0"/></symbol><path d="m922.070312 236.251563h-901.054687" style="fill:none;stroke-width:1.99966;stroke-linecap:round;stroke-linejoin:round;stroke:#000;stroke-miterlimit:10" transform="matrix(.1 0 0 -.1 0 107.34)"/><path d="m942.070312 236.251563-20 5.390625v-10.742188zm0 0" stroke="#000" stroke-linecap="round" stroke-linejoin="round" stroke-miterlimit="10" stroke-width="1.99966" transform="matrix(.1 0 0 -.1 0 107.34)"/><path d="m1.015625 236.251563 20-5.351563v10.742188zm0 0" stroke="#000" stroke-linecap="round" stroke-linejoin="round" stroke-miterlimit="10" stroke-width="1.99966" transform="matrix(.1 0 0 -.1 0 107.34)"/><path d="m236.25 20.978125v901.09375" style="fill:none;stroke-width:1.99966;stroke-linecap:round;stroke-linejoin:round;stroke:#000;stroke-miterlimit:10" transform="matrix(.1 0 0 -.1 0 107.34)"/><g clip-path="url(#a)"><path d="m23.625 107.238281.535156-1.996093h-1.070312zm0 0"/></g><g clip-path="url(#b)"><path d="m236.25 1.017188 5.351562 19.960937h-10.703124zm0 0" style="fill:none;stroke-width:1.99966;stroke-linecap:round;stroke-linejoin:round;stroke:#000;stroke-miterlimit:10" transform="matrix(.1 0 0 -.1 0 107.34)"/></g><g stroke="#000" stroke-linecap="round" stroke-linejoin="round" stroke-miterlimit="10" stroke-width="1.99966" transform="matrix(.1 0 0 -.1 0 107.34)"><path d="m236.25 942.071875-5.351562-20h10.703124zm0 0"/><path d="m2098.398438 236.251563h-901.09375" fill="none"/><path d="m2118.398438 236.251563-20 5.390625v-10.742188zm0 0"/><path d="m1177.304688 236.251563 20-5.351563v10.742188zm0 0"/><path d="m1412.578125 20.978125v901.09375" fill="none"/></g><g clip-path="url(#c)"><path d="m1412.578125 1.017188 5.390625 19.960937h-10.742188zm0 0" stroke="#000" stroke-linecap="round" stroke-linejoin="round" stroke-miterlimit="10" stroke-width="1.99966" transform="matrix(.1 0 0 -.1 0 107.34)"/></g><path d="m1412.578125 942.071875-5.351563-20h10.742188zm0 0" stroke="#000" stroke-linecap="round" stroke-linejoin="round" stroke-miterlimit="10" stroke-width="1.99966" transform="matrix(.1 0 0 -.1 0 107.34)"/><path d="m3274.726562 236.251563h-901.09375" style="fill:none;stroke-width:1.99966;stroke-linecap:round;stroke-linejoin:round;stroke:#000;stroke-miterlimit:10" transform="matrix(.1 0 0 -.1 0 107.34)"/><path d="m3294.726562 236.251563-20 5.390625v-10.742188zm0 0" stroke="#000" stroke-linecap="round" stroke-linejoin="round" stroke-miterlimit="10" stroke-width="1.99966" transform="matrix(.1 0 0 -.1 0 107.34)"/><path d="m2353.632812 236.251563 20-5.351563v10.742188zm0 0" stroke="#000" stroke-linecap="round" stroke-linejoin="round" stroke-miterlimit="10" stroke-width="1.99966" transform="matrix(.1 0 0 -.1 0 107.34)"/><path d="m2588.90625 20.978125v901.09375" style="fill:none;stroke-width:1.99966;stroke-linecap:round;stroke-linejoin:round;stroke:#000;stroke-miterlimit:10" transform="matrix(.1 0 0 -.1 0 107.34)"/><g clip-path="url(#d)"><path d="m2588.90625 1.017188 5.351562 19.960937h-10.703124zm0 0" stroke="#000" stroke-linecap="round" stroke-linejoin="round" stroke-miterlimit="10" stroke-width="1.99966" transform="matrix(.1 0 0 -.1 0 107.34)"/></g><path d="m2588.90625 942.071875-5.351562-20h10.703124zm0 0" stroke="#000" stroke-linecap="round" stroke-linejoin="round" stroke-miterlimit="10" stroke-width="1.99966" transform="matrix(.1 0 0 -.1 0 107.34)"/><use x="97.0801" xlink:href="#e" y="91.9798"/><use x="26.2801" xlink:href="#f" y="7.2599"/><use x="214.8001" xlink:href="#e" y="91.9798"/><use x="144.0001" xlink:href="#f" y="7.2599"/><use x="332.4001" xlink:href="#e" y="91.9798"/><use x="261.6001" xlink:href="#f" y="7.2599"/></svg>