<svg height="105.64pt" viewBox="0 0 284.46 105.64" width="284.46pt" xmlns="http://www.w3.org/2000/svg" xmlns:xlink="http://www.w3.org/1999/xlink"><clipPath id="a"><path d="m5 23h259v70h-259zm0 0"/></clipPath><clipPath id="b"><path d="m3 102.640625h278.402344v-99.613281h-278.402344zm155.160156-10.421875c0-.691406-.558594-1.25-1.25-1.25s-1.25.558594-1.25 1.25c0 .6875.558594 1.25 1.25 1.25s1.25-.5625 1.25-1.25zm0 0"/></clipPath><clipPath id="c"><path d="m262 90h9v5h-9zm0 0"/></clipPath><clipPath id="d"><path d="m3 102.640625h278.402344v-99.613281h-278.402344zm155.160156-10.421875c0-.691406-.558594-1.25-1.25-1.25s-1.25.558594-1.25 1.25c0 .6875.558594 1.25 1.25 1.25s1.25-.5625 1.25-1.25zm0 0"/></clipPath><clipPath id="e"><path d="m262 89h9v6h-9zm0 0"/></clipPath><clipPath id="f"><path d="m3 102.640625h278.402344v-99.613281h-278.402344zm155.160156-10.421875c0-.691406-.558594-1.25-1.25-1.25s-1.25.558594-1.25 1.25c0 .6875.558594 1.25 1.25 1.25s1.25-.5625 1.25-1.25zm0 0"/></clipPath><clipPath id="g"><path d="m3 16h5v9h-5zm0 0"/></clipPath><clipPath id="h"><path d="m3 102.640625h278.402344v-99.613281h-278.402344zm155.160156-10.421875c0-.691406-.558594-1.25-1.25-1.25s-1.25.558594-1.25 1.25c0 .6875.558594 1.25 1.25 1.25s1.25-.5625 1.25-1.25zm0 0"/></clipPath><clipPath id="i"><path d="m3 16h6v9h-6zm0 0"/></clipPath><clipPath id="j"><path d="m3 102.640625h278.402344v-99.613281h-278.402344zm155.160156-10.421875c0-.691406-.558594-1.25-1.25-1.25s-1.25.558594-1.25 1.25c0 .6875.558594 1.25 1.25 1.25s1.25-.5625 1.25-1.25zm0 0"/></clipPath><clipPath id="k"><path d="m5 91h153v2h-153zm0 0"/></clipPath><clipPath id="l"><path d="m3 102.640625h278.402344v-99.613281h-278.402344zm155.160156-10.421875c0-.691406-.558594-1.25-1.25-1.25s-1.25.558594-1.25 1.25c0 .6875.558594 1.25 1.25 1.25s1.25-.5625 1.25-1.25zm0 0"/></clipPath><clipPath id="m"><path d="m156 53h2v40h-2zm0 0"/></clipPath><clipPath id="n"><path d="m3 102.640625h278.402344v-99.613281h-278.402344zm155.160156-10.421875c0-.691406-.558594-1.25-1.25-1.25s-1.25.558594-1.25 1.25c0 .6875.558594 1.25 1.25 1.25s1.25-.5625 1.25-1.25zm0 0"/></clipPath><clipPath id="o"><path d="m156 53h74v3h-74zm0 0"/></clipPath><clipPath id="p"><path d="m3 102.640625h278.402344v-99.613281h-278.402344zm155.160156-10.421875c0-.691406-.558594-1.25-1.25-1.25s-1.25.558594-1.25 1.25c0 .6875.558594 1.25 1.25 1.25s1.25-.5625 1.25-1.25zm0 0"/></clipPath><clipPath id="q"><path d="m228 53h5v3h-5zm0 0"/></clipPath><clipPath id="r"><path d="m3 102.640625h278.402344v-99.613281h-278.402344zm155.160156-10.421875c0-.691406-.558594-1.25-1.25-1.25s-1.25.558594-1.25 1.25c0 .6875.558594 1.25 1.25 1.25s1.25-.5625 1.25-1.25zm0 0"/></clipPath><clipPath id="s"><path d="m227 52h7v5h-7zm0 0"/></clipPath><clipPath id="t"><path d="m3 102.640625h278.402344v-99.613281h-278.402344zm155.160156-10.421875c0-.691406-.558594-1.25-1.25-1.25s-1.25.558594-1.25 1.25c0 .6875.558594 1.25 1.25 1.25s1.25-.5625 1.25-1.25zm0 0"/></clipPath><clipPath id="u"><path d="m5 26h263v67h-263zm0 0"/></clipPath><clipPath id="v"><path d="m3 102.640625h278.402344v-99.613281h-278.402344zm155.160156-10.421875c0-.691406-.558594-1.25-1.25-1.25s-1.25.558594-1.25 1.25c0 .6875.558594 1.25 1.25 1.25s1.25-.5625 1.25-1.25zm0 0"/></clipPath><clipPath id="w"><path d="m266 26h5v3h-5zm0 0"/></clipPath><clipPath id="x"><path d="m3 102.640625h278.402344v-99.613281h-278.402344zm155.160156-10.421875c0-.691406-.558594-1.25-1.25-1.25s-1.25.558594-1.25 1.25c0 .6875.558594 1.25 1.25 1.25s1.25-.5625 1.25-1.25zm0 0"/></clipPath><clipPath id="y"><path d="m265 25h7v4h-7zm0 0"/></clipPath><clipPath id="z"><path d="m3 102.640625h278.402344v-99.613281h-278.402344zm155.160156-10.421875c0-.691406-.558594-1.25-1.25-1.25s-1.25.558594-1.25 1.25c0 .6875.558594 1.25 1.25 1.25s1.25-.5625 1.25-1.25zm0 0"/></clipPath><clipPath id="A"><path d="m273 94h7v7h-7zm0 0"/></clipPath><clipPath id="B"><path d="m3 102.640625h278.464844v-99.636719h-278.464844zm155.195312-10.425781c0-.691406-.558593-1.25-1.25-1.25-.691406 0-1.25.558594-1.25 1.25s.558594 1.25 1.25 1.25c.691407 0 1.25-.558594 1.25-1.25zm0 0"/></clipPath><clipPath id="C"><path d="m8 5h7v10h-7zm0 0"/></clipPath><clipPath id="D"><path d="m3 102.640625h278.464844v-99.636719h-278.464844zm155.195312-10.425781c0-.691406-.558593-1.25-1.25-1.25-.691406 0-1.25.558594-1.25 1.25s.558594 1.25 1.25 1.25c.691407 0 1.25-.558594 1.25-1.25zm0 0"/></clipPath><clipPath id="E"><path d="m214 61h7v10h-7zm0 0"/></clipPath><clipPath id="F"><path d="m3 102.640625h278.464844v-99.636719h-278.464844zm155.195312-10.425781c0-.691406-.558593-1.25-1.25-1.25-.691406 0-1.25.558594-1.25 1.25s.558594 1.25 1.25 1.25c.691407 0 1.25-.558594 1.25-1.25zm0 0"/></clipPath><clipPath id="G"><path d="m225 62h9v4h-9zm0 0"/></clipPath><clipPath id="H"><path d="m3 102.640625h278.464844v-99.636719h-278.464844zm155.195312-10.425781c0-.691406-.558593-1.25-1.25-1.25-.691406 0-1.25.558594-1.25 1.25s.558594 1.25 1.25 1.25c.691407 0 1.25-.558594 1.25-1.25zm0 0"/></clipPath><clipPath id="I"><path d="m238 59h6v9h-6zm0 0"/></clipPath><clipPath id="J"><path d="m3 102.640625h278.464844v-99.636719h-278.464844zm155.195312-10.425781c0-.691406-.558593-1.25-1.25-1.25-.691406 0-1.25.558594-1.25 1.25s.558594 1.25 1.25 1.25c.691407 0 1.25-.558594 1.25-1.25zm0 0"/></clipPath><clipPath id="K"><path d="m244 63h4v10h-4zm0 0"/></clipPath><clipPath id="L"><path d="m3 102.640625h278.464844v-99.636719h-278.464844zm155.195312-10.425781c0-.691406-.558593-1.25-1.25-1.25-.691406 0-1.25.558594-1.25 1.25s.558594 1.25 1.25 1.25c.691407 0 1.25-.558594 1.25-1.25zm0 0"/></clipPath><clipPath id="M"><path d="m249 66h5v5h-5zm0 0"/></clipPath><clipPath id="N"><path d="m3 102.640625h278.464844v-99.636719h-278.464844zm155.195312-10.425781c0-.691406-.558593-1.25-1.25-1.25-.691406 0-1.25.558594-1.25 1.25s.558594 1.25 1.25 1.25c.691407 0 1.25-.558594 1.25-1.25zm0 0"/></clipPath><clipPath id="O"><path d="m254 64h7v8h-7zm0 0"/></clipPath><clipPath id="P"><path d="m3 102.640625h278.464844v-99.636719h-278.464844zm155.195312-10.425781c0-.691406-.558593-1.25-1.25-1.25-.691406 0-1.25.558594-1.25 1.25s.558594 1.25 1.25 1.25c.691407 0 1.25-.558594 1.25-1.25zm0 0"/></clipPath><clipPath id="Q"><path d="m261 66h5v5h-5zm0 0"/></clipPath><clipPath id="R"><path d="m3 102.640625h278.464844v-99.636719h-278.464844zm155.195312-10.425781c0-.691406-.558593-1.25-1.25-1.25-.691406 0-1.25.558594-1.25 1.25s.558594 1.25 1.25 1.25c.691407 0 1.25-.558594 1.25-1.25zm0 0"/></clipPath><clipPath id="S"><path d="m266 63h4v10h-4zm0 0"/></clipPath><clipPath id="T"><path d="m3 102.640625h278.464844v-99.636719h-278.464844zm155.195312-10.425781c0-.691406-.558593-1.25-1.25-1.25-.691406 0-1.25.558594-1.25 1.25s.558594 1.25 1.25 1.25c.691407 0 1.25-.558594 1.25-1.25zm0 0"/></clipPath><clipPath id="U"><path d="m31 59h7v10h-7zm0 0"/></clipPath><clipPath id="V"><path d="m3 102.640625h278.464844v-99.636719h-278.464844zm155.195312-10.425781c0-.691406-.558593-1.25-1.25-1.25-.691406 0-1.25.558594-1.25 1.25s.558594 1.25 1.25 1.25c.691407 0 1.25-.558594 1.25-1.25zm0 0"/></clipPath><clipPath id="W"><path d="m42 60h9v4h-9zm0 0"/></clipPath><clipPath id="X"><path d="m3 102.640625h278.464844v-99.636719h-278.464844zm155.195312-10.425781c0-.691406-.558593-1.25-1.25-1.25-.691406 0-1.25.558594-1.25 1.25s.558594 1.25 1.25 1.25c.691407 0 1.25-.558594 1.25-1.25zm0 0"/></clipPath><clipPath id="Y"><path d="m55 59h6v7h-6zm0 0"/></clipPath><clipPath id="Z"><path d="m3 102.640625h278.464844v-99.636719h-278.464844zm155.195312-10.425781c0-.691406-.558593-1.25-1.25-1.25-.691406 0-1.25.558594-1.25 1.25s.558594 1.25 1.25 1.25c.691407 0 1.25-.558594 1.25-1.25zm0 0"/></clipPath><clipPath id="aa"><path d="m62 56h6v11h-6zm0 0"/></clipPath><clipPath id="ab"><path d="m3 102.640625h278.464844v-99.636719h-278.464844zm155.195312-10.425781c0-.691406-.558593-1.25-1.25-1.25-.691406 0-1.25.558594-1.25 1.25s.558594 1.25 1.25 1.25c.691407 0 1.25-.558594 1.25-1.25zm0 0"/></clipPath><clipPath id="ac"><path d="m69 59h5v7h-5zm0 0"/></clipPath><clipPath id="ad"><path d="m3 102.640625h278.464844v-99.636719h-278.464844zm155.195312-10.425781c0-.691406-.558593-1.25-1.25-1.25-.691406 0-1.25.558594-1.25 1.25s.558594 1.25 1.25 1.25c.691407 0 1.25-.558594 1.25-1.25zm0 0"/></clipPath><symbol id="ae" overflow="visible"><path d="m.25-1.046875c0 .234375-.015625.390625-.09375.765625-.03125.15625-.03125.1875-.046875.265625.171875.09375.375.140625.515625.140625.390625 0 .859375-.34375 1.234375-.90625l.90625-1.390625.125.828125c.15625 1.015625.4375 1.46875.859375 1.46875.265625 0 .65625-.203125 1.03125-.546875l.578125-.515625-.09375-.234375c-.4375.359375-.734375.53125-.921875.53125s-.34375-.109375-.453125-.34375-.25-.671875-.3125-1.03125l-.203125-1.203125.421875-.578125c.546875-.78125.875-1.0625 1.25-1.0625.1875 0 .328125.109375.390625.28125l.171875-.046875.171875-1.015625c-.140625-.078125-.25-.125-.359375-.125-.46875 0-.953125.4375-1.6875 1.53125l-.453125.65625-.0625-.5625c-.140625-1.1875-.46875-1.625-1.171875-1.625-.3125 0-.578125.09375-.6875.25l-.6875 1 .203125.109375c.359375-.40625.59375-.5625.828125-.5625.390625 0 .65625.484375.859375 1.65625l.125.75-.46875.734375c-.515625.796875-.921875 1.1875-1.265625 1.1875-.171875 0-.3125-.046875-.328125-.109375l-.140625-.34375zm0 0"/></symbol><symbol id="af" overflow="visible"><path d="m-.078125 2.15625c-.015625.078125-.015625.15625-.015625.203125 0 .515625.4375.9375.984375.9375 1.265625 0 2.578125-1.484375 3.28125-3.6875l1.6875-5.265625-.140625-.109375c-.34375.140625-.609375.203125-.875.234375l-.421875 1.578125c-.140625.5625-.5625 1.4375-.953125 2.015625-.421875.609375-1 1.140625-1.265625 1.140625-.140625 0-.25-.28125-.25-.578125l.015625-.15625.1875-2.3125c.015625-.375.046875-.828125.046875-1.171875 0-.53125-.09375-.75-.296875-.75-.15625 0-.3125.09375-.890625.484375l-.984375.671875.140625.203125.59375-.34375.046875-.046875c.125-.0625.203125-.109375.25-.109375.171875 0 .265625.234375.265625.625 0 .015625 0 .078125-.015625.1875l-.203125 2.90625-.015625.46875c0 .5.21875.84375.515625.84375.453125 0 1.453125-1.015625 2.34375-2.359375l-.578125 2.046875c-.609375 2.109375-1.21875 2.984375-2.046875 2.984375-.421875 0-.75-.328125-.75-.734375 0-.0625.015625-.15625.03125-.265625l-.125-.046875zm0 0"/></symbol><symbol id="ag" overflow="visible"><path d="m4.8125-5.640625-.125-.109375-.390625.21875c-.5-.1875-.703125-.234375-1.015625-.234375-.34375 0-.578125.0625-.90625.21875-.734375.375-1.125.734375-1.4375 1.3125-.515625 1.0625-.890625 2.5-.890625 3.4375 0 .515625.1875.921875.40625.921875.265625 0 .71875-.25 1.171875-.65625.5-.453125.96875-1 1.609375-1.90625l-.34375 1.515625c-.046875.203125-.0625.421875-.0625.609375 0 .265625.09375.421875.28125.421875.265625 0 .765625-.3125 1.75-1.125l-.09375-.25c-.0625.0625-.109375.078125-.15625.125-.375.328125-.5625.4375-.734375.4375-.109375 0-.1875-.109375-.1875-.28125 0-.0625 0-.09375.015625-.125zm-1 .6875c-.265625 1.3125-.484375 1.921875-.890625 2.546875-.6875 1-1.421875 1.703125-1.796875 1.703125-.140625 0-.21875-.15625-.21875-.484375 0-.765625.34375-2.15625.75-3.109375.296875-.65625.5625-.875 1.140625-.875.28125 0 .484375.046875 1.015625.21875zm0 0"/></symbol><symbol id="ah" overflow="visible"><path d="m8.5625-4.078125c.171875 0 .421875 0 .421875-.25 0-.234375-.25-.234375-.421875-.234375h-7.453125c-.171875 0-.40625 0-.40625.234375 0 .25.234375.25.421875.25zm0 2.421875c.171875 0 .421875 0 .421875-.25s-.25-.25-.421875-.25h-7.4375c-.1875 0-.421875 0-.421875.25s.234375.25.40625.25zm0 0"/></symbol><symbol id="ai" overflow="visible"><path d="m2.265625-6.734375c.015625-.015625.046875-.015625.046875-.015625.109375.015625.125.09375.125.453125v5.296875c0 .34375-.21875.53125-.6875.5625l-.859375.03125v.4375c.734375 0 1.46875-.015625 1.671875-.015625.359375-.015625.609375-.015625.765625-.015625.140625 0 .421875 0 .8125.015625.15625 0 .71875.015625 1.296875.015625v-.4375l-.734375-.03125c-.453125-.03125-.6875-.203125-.6875-.5625v-3.859375c0-.9375.03125-1.6875.125-3.03125l-.140625-.125c-1.46875.578125-2.84375 1.046875-3.578125 1.21875 0 .296875.046875.515625.15625.828125zm0 0"/></symbol><symbol id="aj" overflow="visible"><path d="m2.640625-5.765625c0-.375.25-.96875 1.265625-1.03125.046875-.015625.078125-.046875.078125-.109375 0-.109375-.0625-.109375-.171875-.109375-.9375 0-1.78125.484375-1.796875 1.171875v2.140625c0 .359375 0 .65625-.375.96875-.328125.265625-.671875.28125-.890625.296875-.046875.015625-.078125.046875-.078125.09375 0 .09375.0625.09375.15625.109375.609375.03125 1.0625.375 1.15625.828125.03125.109375.03125.125.03125.46875v1.84375c0 .390625 0 .6875.453125 1.046875.359375.28125.984375.390625 1.34375.390625.109375 0 .171875 0 .171875-.109375 0-.09375-.046875-.09375-.140625-.109375-.59375-.03125-1.046875-.328125-1.171875-.8125-.03125-.078125-.03125-.09375-.03125-.4375v-1.953125c0-.4375-.078125-.59375-.375-.890625-.1875-.203125-.46875-.296875-.71875-.375.765625-.203125 1.09375-.640625 1.09375-1.171875zm0 0"/></symbol><symbol id="ak" overflow="visible"><path d="m6.296875-3.03125c.125-.046875.1875-.125.1875-.203125 0-.09375-.03125-.140625-.1875-.21875l-5.140625-2.421875c-.140625-.0625-.171875-.0625-.1875-.0625-.125 0-.1875.078125-.1875.1875s.0625.15625.171875.203125l4.90625 2.296875-4.890625 2.3125c-.1875.09375-.1875.15625-.1875.21875 0 .109375.078125.1875.1875.1875.015625 0 .046875 0 .15625-.0625zm-.140625 4.3125c.15625 0 .328125 0 .328125-.1875s-.203125-.1875-.34375-.1875h-5.03125c-.140625 0-.328125 0-.328125.1875s.15625.1875.328125.1875zm0 0"/></symbol><symbol id="al" overflow="visible"><path d="m2.015625 1.09375c0 .375-.234375.96875-1.265625 1.03125-.046875.015625-.078125.046875-.078125.109375 0 .109375.109375.109375.1875.109375.90625 0 1.78125-.46875 1.78125-1.171875v-2.140625c0-.359375 0-.65625.375-.96875.328125-.265625.6875-.28125.890625-.296875.046875-.015625.078125-.046875.078125-.109375 0-.078125-.046875-.078125-.140625-.09375-.625-.03125-1.0625-.375-1.171875-.828125-.03125-.109375-.03125-.125-.03125-.46875v-1.84375c0-.390625 0-.6875-.4375-1.046875-.375-.296875-1.03125-.390625-1.34375-.390625-.078125 0-.1875 0-.1875.109375 0 .09375.0625.09375.15625.109375.578125.03125 1.046875.328125 1.15625.8125.03125.078125.03125.09375.03125.4375v1.953125c0 .4375.078125.59375.375.890625.203125.203125.46875.296875.734375.359375-.765625.21875-1.109375.65625-1.109375 1.1875zm0 0"/></symbol><symbol id="am" overflow="visible"><path d="m.1875-.796875c0 .1875-.015625.296875-.078125.59375-.015625.109375-.015625.125-.03125.1875.140625.078125.28125.109375.390625.109375.296875 0 .640625-.25.921875-.671875l.6875-1.046875.09375.609375c.109375.765625.328125 1.109375.640625 1.109375.203125 0 .484375-.140625.78125-.40625l.4375-.390625-.078125-.171875c-.328125.265625-.546875.40625-.703125.40625-.125 0-.25-.09375-.328125-.28125-.09375-.171875-.1875-.5-.234375-.75l-.15625-.90625.3125-.453125c.421875-.578125.65625-.78125.9375-.78125.140625 0 .25.078125.296875.203125l.125-.03125.140625-.765625c-.109375-.0625-.1875-.09375-.265625-.09375-.359375 0-.71875.328125-1.28125 1.15625l-.328125.484375-.0625-.421875c-.09375-.890625-.34375-1.21875-.875-1.21875-.234375 0-.421875.078125-.515625.1875l-.515625.75.15625.09375c.265625-.3125.453125-.4375.625-.4375.28125 0 .484375.375.640625 1.25l.09375.5625-.359375.546875c-.375.609375-.6875.890625-.9375.890625-.140625 0-.234375-.03125-.25-.078125l-.09375-.25zm0 0"/></symbol><symbol id="an" overflow="visible"><path d="m3.609375-4.234375-.09375-.078125-.296875.15625c-.359375-.125-.515625-.171875-.765625-.171875s-.421875.046875-.671875.171875c-.546875.265625-.84375.546875-1.078125.984375-.390625.796875-.671875 1.875-.671875 2.578125 0 .390625.140625.6875.3125.6875.1875 0 .53125-.1875.875-.5.375-.34375.734375-.734375 1.21875-1.421875l-.265625 1.140625c-.03125.15625-.0625.3125-.0625.453125 0 .203125.09375.3125.21875.3125.203125 0 .578125-.234375 1.3125-.84375l-.0625-.1875c-.046875.046875-.078125.0625-.109375.09375-.296875.25-.421875.328125-.5625.328125-.078125 0-.140625-.078125-.140625-.203125 0-.046875 0-.078125.015625-.09375zm-.75.515625c-.203125.984375-.359375 1.453125-.671875 1.921875-.515625.75-1.0625 1.265625-1.34375 1.265625-.109375 0-.15625-.109375-.15625-.359375 0-.578125.25-1.625.5625-2.34375.21875-.484375.421875-.65625.84375-.65625.21875 0 .375.046875.765625.171875zm0 0"/></symbol><symbol id="ao" overflow="visible"><path d="m6.203125-8.671875h-.71875l-4.4375 10.09375h.703125zm0 0"/></symbol><g clip-path="url(#a)"><g clip-path="url(#b)" clip-rule="evenodd"><path d="m2627.734375 134.2125h-2570.15625v680.78125" style="fill:none;stroke-width:4.99886;stroke-linecap:round;stroke-linejoin:round;stroke:#000;stroke-miterlimit:10" transform="matrix(.1 0 0 -.1 0 105.64)"/></g></g><g clip-path="url(#c)"><g clip-path="url(#d)" clip-rule="evenodd"><path d="m270.273438 92.21875-7.5-2.011719v4.019531zm0 0"/></g></g><g clip-path="url(#e)"><g clip-path="url(#f)" clip-rule="evenodd"><path d="m2702.734375 134.2125-75 20.117188v-40.195313zm0 0" style="fill:none;stroke-width:4.99886;stroke-linecap:round;stroke-linejoin:round;stroke:#000;stroke-miterlimit:10" transform="matrix(.1 0 0 -.1 0 105.64)"/></g></g><g clip-path="url(#g)"><g clip-path="url(#h)" clip-rule="evenodd"><path d="m5.757812 16.640625-2.007812 7.5h4.019531zm0 0"/></g></g><g clip-path="url(#i)"><g clip-path="url(#j)" clip-rule="evenodd"><path d="m57.578125 889.99375-20.078125-75h40.195312zm0 0" style="fill:none;stroke-width:4.99886;stroke-linecap:round;stroke-linejoin:round;stroke:#000;stroke-miterlimit:10" transform="matrix(.1 0 0 -.1 0 105.64)"/></g></g><g clip-path="url(#k)"><g clip-path="url(#l)" clip-rule="evenodd"><path d="m57.578125 134.2125h1511.523437" style="fill:none;stroke-width:14.9966;stroke-linecap:round;stroke-linejoin:round;stroke:#8b0000;stroke-miterlimit:10" transform="matrix(.1 0 0 -.1 0 105.64)"/></g></g><g clip-path="url(#m)"><g clip-path="url(#n)" clip-rule="evenodd"><path d="m1569.101562 134.2125v377.890625" style="fill:none;stroke-width:14.9966;stroke-linecap:round;stroke-linejoin:round;stroke:#8b0000;stroke-dasharray:0 62.9638;stroke-miterlimit:10" transform="matrix(.1 0 0 -.1 0 105.64)"/></g></g><g clip-path="url(#o)"><g clip-path="url(#p)" clip-rule="evenodd"><path d="m2284.84375 512.103125h-715.742188" style="fill:none;stroke-width:14.9966;stroke-linecap:round;stroke-linejoin:round;stroke:#8b0000;stroke-miterlimit:10" transform="matrix(.1 0 0 -.1 0 105.64)"/></g></g><g clip-path="url(#q)"><g clip-path="url(#r)" clip-rule="evenodd"><path d="m232.484375 54.429688-4-1.070313v2.140625zm0 0" fill="#8b0000"/></g></g><g clip-path="url(#s)"><g clip-path="url(#t)" clip-rule="evenodd"><path d="m2324.84375 512.103125-40 10.703125v-21.40625zm0 0" style="fill:none;stroke-width:14.9966;stroke-linecap:round;stroke-linejoin:round;stroke:#8b0000;stroke-miterlimit:10" transform="matrix(.1 0 0 -.1 0 105.64)"/></g></g><g clip-path="url(#u)"><g clip-path="url(#v)" clip-rule="evenodd"><path d="m2663.945312 785.814063-2606.367187-651.601563" style="fill:none;stroke-width:14.9966;stroke-linecap:round;stroke-linejoin:round;stroke:#191970;stroke-miterlimit:10" transform="matrix(.1 0 0 -.1 0 105.64)"/></g></g><g clip-path="url(#w)"><g clip-path="url(#x)" clip-rule="evenodd"><path d="m270.273438 26.089844-4.140626-.070313.519532 2.078125zm0 0" fill="#191970"/></g></g><g clip-path="url(#y)"><g clip-path="url(#z)" clip-rule="evenodd"><path d="m2702.734375 795.501563-41.40625.703125 5.195313-20.78125zm0 0" style="fill:none;stroke-width:14.9966;stroke-linecap:round;stroke-linejoin:round;stroke:#191970;stroke-miterlimit:10" transform="matrix(.1 0 0 -.1 0 105.64)"/></g></g><path d="m1581.601562 134.2125c0 6.914063-5.585937 12.5-12.5 12.5-6.914062 0-12.5-5.585937-12.5-12.5 0-6.875 5.585938-12.5 12.5-12.5 6.914063 0 12.5 5.625 12.5 12.5zm0 0" style="fill:none;stroke-width:4.99886;stroke-linecap:round;stroke-linejoin:round;stroke:#8b0000;stroke-miterlimit:10" transform="matrix(.1 0 0 -.1 0 105.64)"/><g clip-path="url(#A)"><g clip-path="url(#B)" clip-rule="evenodd"><use x="273.24" xlink:href="#ae" y="100.47984"/></g></g><g clip-path="url(#C)"><g clip-path="url(#D)" clip-rule="evenodd"><use x="8.4" xlink:href="#af" y="10.84004"/></g></g><g clip-path="url(#E)"><g clip-path="url(#F)" clip-rule="evenodd"><use fill="#8b0000" x="215.04" xlink:href="#af" y="67.4798"/></g></g><g clip-path="url(#G)"><g clip-path="url(#H)" clip-rule="evenodd"><use fill="#8b0000" x="224.64" xlink:href="#ah" y="67.4798"/></g></g><g clip-path="url(#I)"><g clip-path="url(#J)" clip-rule="evenodd"><use fill="#8b0000" x="237.84" xlink:href="#ai" y="67.4798"/></g></g><g clip-path="url(#K)"><g clip-path="url(#L)" clip-rule="evenodd"><use fill="#8b0000" x="243.96031" xlink:href="#aj" y="70.35988"/></g></g><g clip-path="url(#M)"><g clip-path="url(#N)" clip-rule="evenodd"><use fill="#8b0000" x="249.00015" xlink:href="#am" y="70.35988"/></g></g><g clip-path="url(#O)"><g clip-path="url(#P)" clip-rule="evenodd"><use fill="#8b0000" x="253.80015" xlink:href="#ak" y="70.35988"/></g></g><g clip-path="url(#Q)"><g clip-path="url(#R)" clip-rule="evenodd"><use fill="#8b0000" x="261.48023" xlink:href="#an" y="70.35988"/></g></g><g clip-path="url(#S)"><g clip-path="url(#T)" clip-rule="evenodd"><use fill="#8b0000" x="265.68023" xlink:href="#al" y="70.35988"/></g></g><g clip-path="url(#U)"><g clip-path="url(#V)" clip-rule="evenodd"><use fill="#191970" x="32.0398" xlink:href="#af" y="65.3201"/></g></g><g clip-path="url(#W)"><g clip-path="url(#X)" clip-rule="evenodd"><use fill="#191970" x="41.6398" xlink:href="#ah" y="65.3201"/></g></g><g clip-path="url(#Y)"><g clip-path="url(#Z)" clip-rule="evenodd"><use fill="#191970" x="55.2" xlink:href="#ae" y="65.3201"/></g></g><g clip-path="url(#aa)"><g clip-path="url(#ab)" clip-rule="evenodd"><use fill="#191970" x="61.56016" xlink:href="#ao" y="65.3201"/></g></g><g clip-path="url(#ac)"><g clip-path="url(#ad)" clip-rule="evenodd"><use fill="#191970" x="69.12032" xlink:href="#ag" y="65.3201"/></g></g></svg>