<svg height="174.46pt" viewBox="0 0 227.77 174.46" width="227.77pt" xmlns="http://www.w3.org/2000/svg" xmlns:xlink="http://www.w3.org/1999/xlink"><symbol id="a" overflow="visible"><path d="m2.796875-8.625-.140625-.140625c-.625.3125-1.046875.421875-1.921875.5l-.046875.25h.578125c.28125 0 .40625.09375.40625.296875 0 .09375-.015625.203125-.015625.28125l-.578125 3.203125c-.171875.90625-.359375 1.71875-.984375 4.21875l.109375.125.796875-.203125.28125-1.484375c.109375-.578125.390625-1.109375.796875-1.515625.828125 2.390625 1.203125 3.203125 1.5 3.203125.15625 0 .453125-.15625.96875-.53125l.5625-.375-.09375-.234375-.515625.296875c-.171875.09375-.25.109375-.359375.109375s-.203125-.0625-.296875-.265625c-.421875-.765625-.6875-1.421875-1.15625-2.890625l.171875-.15625c.71875-.734375 1.28125-1.03125 1.875-1.03125.09375 0 .21875.015625.421875.0625l.203125-.75c-.203125-.0625-.421875-.109375-.5625-.109375-.796875 0-1.78125.921875-3.28125 3.015625zm0 0"/></symbol><symbol id="b" overflow="visible"><path d="m-7.90625-.265625.03125-.515625c.03125-.5.125-.625 1.078125-.625h5.359375c.953125 0 1.0625.125 1.078125.625l.03125.515625h.359375c-.015625-.703125-.03125-1.796875-.03125-2.421875s.015625-1.765625.03125-2.46875h-.359375l-.03125.5625c-.03125.546875-.125.609375-1.078125.609375h-6.234375c-.09375-.421875-.140625-.765625-.140625-1.171875 0-1.28125.59375-1.984375 1.734375-1.984375 1.0625 0 1.828125.734375 1.828125 1.78125 0 .25-.03125.421875-.125.734375l.4375-.125c.046875-.28125.0625-.453125.0625-.6875 0-1.640625-1.109375-2.890625-2.546875-2.890625-1.140625 0-1.84375.921875-1.84375 2.453125v.328125c.015625.4375.03125 2.40625.03125 2.8125 0 .625-.015625 1.765625-.03125 2.46875zm1.109375-2.578125h5.359375c.953125 0 1.046875.0625 1.078125.4375-.03125.390625-.125.453125-1.078125.453125h-5.359375c-.953125 0-1.046875-.0625-1.078125-.453125.015625-.375.125-.4375 1.078125-.4375zm0 0"/></symbol><symbol id="c" overflow="visible"><path d="m2.984375-4.125c-.03125 0-.0625 0-.265625.21875-1.578125 1.546875-3.921875 1.953125-5.828125 1.953125-2.171875 0-4.34375-.46875-5.890625-2-.15625-.171875-.171875-.171875-.21875-.171875-.078125 0-.125.046875-.125.125 0 .125.84375 1.25 2.4375 1.984375 1.359375.640625 2.75.78125 3.796875.78125.96875 0 2.46875-.140625 3.875-.828125 1.53125-.734375 2.34375-1.8125 2.34375-1.9375 0-.078125-.03125-.125-.125-.125zm0 0"/></symbol><symbol id="d" overflow="visible"><path d="m-4.078125-8.5625c0-.171875 0-.421875-.25-.421875-.234375 0-.234375.25-.234375.421875v7.453125c0 .171875 0 .40625.234375.40625.25 0 .25-.234375.25-.421875zm2.421875 0c0-.171875 0-.421875-.25-.421875s-.25.25-.25.421875v7.4375c0 .1875 0 .421875.25.421875s.25-.234375.25-.40625zm0 0"/></symbol><symbol id="e" overflow="visible"><path d="m-3.109375-3.59375c-.96875 0-2.484375.125-3.890625.8125-1.53125.75-2.34375 1.828125-2.34375 1.953125 0 .0625.046875.125.125.125.046875 0 .0625 0 .296875-.25 1.21875-1.21875 3.203125-1.921875 5.8125-1.921875 2.125 0 4.3125.453125 5.890625 2 .140625.171875.171875.171875.203125.171875.078125 0 .125-.0625.125-.125 0-.125-.84375-1.25-2.421875-1.984375-1.375-.640625-2.75-.78125-3.796875-.78125zm0 0"/></symbol><symbol id="f" overflow="visible"><path d="m-6.421875-5.390625v-.359375c-.640625-.046875-1.09375-.125-1.609375-.296875-.28125.53125-.40625 1.015625-.40625 1.578125 0 .875.375 1.78125 1.015625 2.40625.484375.515625 1.09375.765625 1.796875.765625 1.015625 0 1.578125-.453125 1.8125-1.453125l.28125-1.140625c.15625-.640625.5625-.96875 1.25-.96875 1.140625 0 1.921875.859375 1.921875 2.09375 0 .640625-.140625 1.09375-.515625 1.625h-1.1875v.359375c.65625.0625 1.203125.140625 1.828125.28125.296875-.59375.453125-1.21875.453125-1.859375 0-1.84375-1.40625-3.4375-3.015625-3.4375-.9375 0-1.453125.515625-1.703125 1.71875l-.171875.78125c-.171875.78125-.609375 1.140625-1.40625 1.140625-1.03125 0-1.78125-.796875-1.78125-1.890625 0-.59375.15625-.984375.53125-1.34375zm0 0"/></symbol><symbol id="g" overflow="visible"><path d="m-8.625-2.796875-.140625.140625c.3125.625.421875 1.046875.5 1.921875l.25.046875v-.578125c0-.28125.09375-.40625.296875-.40625.09375 0 .203125.015625.28125.015625l3.203125.578125c.90625.171875 1.71875.359375 4.21875.984375l.125-.109375-.203125-.796875-1.484375-.28125c-.578125-.109375-1.109375-.390625-1.515625-.796875 2.390625-.828125 3.203125-1.203125 3.203125-1.5 0-.15625-.15625-.453125-.53125-.96875l-.375-.5625-.234375.09375.296875.515625c.09375.171875.109375.25.109375.359375s-.0625.203125-.265625.296875c-.765625.421875-1.421875.6875-2.890625 1.15625l-.15625-.171875c-.734375-.71875-1.03125-1.28125-1.03125-1.875 0-.09375.015625-.21875.0625-.421875l-.75-.203125c-.0625.203125-.109375.421875-.109375.5625 0 .796875.921875 1.78125 3.015625 3.28125zm0 0"/></symbol><symbol id="h" overflow="visible"><path d="m-3.484375-.21875.1875-.0625-.1875-.28125c-.203125-.328125-.234375-.359375-.234375-.421875 0-.09375.09375-.15625.234375-.15625.453125 0 2.1875.359375 3.46875.734375l.09375-.0625c-.0625-.234375-.109375-.4375-.15625-.640625-1.125-.171875-1.703125-.359375-2.328125-.765625-.75-.484375-1.3125-1.15625-1.3125-1.5625 0-.09375.09375-.15625.21875-.15625.15625 0 .359375.03125.640625.109375l1.90625.46875c.328125.078125.53125.109375.671875.109375.234375 0 .359375-.09375.359375-.265625 0-.234375-.1875-.5625-.84375-1.4375l-.15625.09375.15625.234375c.171875.25.265625.453125.265625.546875 0 .0625-.078125.109375-.1875.109375-.03125 0-.140625 0-.171875-.015625l-2.484375-.59375c-.25-.0625-.5-.09375-.65625-.09375-.203125 0-.328125.09375-.328125.28125 0 .375.34375.984375.84375 1.515625.3125.34375.609375.59375 1.265625 1.0625l-1.4375-.34375c-.171875-.03125-.265625-.046875-.375-.046875-.1875 0-.296875.0625-.296875.203125 0 .1875.203125.53125.671875 1.1875zm0 0"/></symbol><symbol id="i" overflow="visible"><path d="m.59375-4.984375h.09375l1.15625-.515625h.03125c.046875 0 .078125.078125.078125.296875v4.34375c0 .46875-.109375.5625-.59375.59375l-.5.03125v.265625c1.390625-.03125 1.390625-.03125 1.484375-.03125.109375 0 .3125 0 .609375.015625.109375 0 .421875 0 .796875.015625v-.265625l-.46875-.03125c-.484375-.03125-.578125-.125-.578125-.59375v-5.3125l-.125-.046875c-.59375.296875-1.21875.5625-2.046875.859375zm0 0"/></symbol><symbol id="j" overflow="visible"><path d="m.140625-.203125v.234375c1.6875-.03125 1.6875-.03125 2-.03125.328125 0 .328125 0 2.0625.03125-.03125-.1875-.03125-.28125-.03125-.40625s0-.203125.03125-.40625c-1.03125.046875-1.453125.0625-3.109375.09375l1.625-1.734375c.875-.921875 1.140625-1.421875 1.140625-2.09375 0-1.03125-.6875-1.65625-1.828125-1.65625-.65625 0-1.09375.171875-1.53125.625l-.15625 1.21875h.265625l.109375-.421875c.15625-.515625.46875-.734375 1.078125-.734375.765625 0 1.265625.484375 1.265625 1.234375 0 .6875-.375 1.34375-1.390625 2.421875zm0 0"/></symbol><symbol id="k" overflow="visible"><path d="m1.578125-4.140625c-.9375 0-1.40625.75-1.40625 2.203125 0 .703125.125 1.296875.34375 1.59375.203125.296875.546875.46875.90625.46875.90625 0 1.375-.78125 1.375-2.328125 0-1.3125-.390625-1.9375-1.21875-1.9375zm-.109375.21875c.578125 0 .8125.578125.8125 2.03125 0 1.265625-.21875 1.796875-.78125 1.796875-.578125 0-.828125-.609375-.828125-2.0625 0-1.265625.234375-1.765625.796875-1.765625zm0 0"/></symbol><symbol id="l" overflow="visible"><path d="m.765625-3.625c.765625.015625 1.109375.03125 1.828125.03125l.03125-.03125c-.015625-.109375-.015625-.15625-.015625-.234375 0-.09375 0-.140625.015625-.25l-.03125-.03125c-.453125.03125-.71875.03125-1.046875.03125s-.59375 0-1.046875-.03125l-.03125.03125c.015625.375.015625.640625.015625.828125 0 .515625-.015625 1.078125-.03125 1.34375l.109375.046875c.296875-.28125.453125-.375.75-.375.578125 0 .9375.40625.9375 1.0625s-.390625 1.046875-1.046875 1.046875c-.328125 0-.625-.109375-.703125-.25l-.28125-.5-.140625.078125c.140625.34375.203125.546875.296875.796875.171875.09375.40625.15625.65625.15625.40625 0 .828125-.171875 1.171875-.46875.359375-.328125.546875-.734375.546875-1.171875 0-.6875-.484375-1.15625-1.171875-1.15625-.28125 0-.5.078125-.875.296875zm0 0"/></symbol><symbol id="m" overflow="visible"><path d="m.40625-3.328125h.0625l.765625-.34375c0-.015625.015625-.015625.015625-.015625.046875 0 .046875.0625.046875.203125v2.90625c0 .3125-.0625.375-.390625.390625l-.328125.03125v.171875c.921875-.015625.921875-.015625.984375-.015625h.421875c.0625.015625.28125.015625.53125.015625v-.171875l-.3125-.03125c-.34375-.015625-.390625-.078125-.390625-.390625v-3.5625l-.09375-.015625c-.390625.203125-.8125.375-1.359375.5625zm0 0"/></symbol><symbol id="n" overflow="visible"><path d="m.09375-.140625v.15625c1.125-.015625 1.125-.015625 1.34375-.015625s.21875 0 1.375.015625c-.015625-.125-.015625-.1875-.015625-.265625s0-.140625.015625-.265625c-.6875.03125-.96875.03125-2.078125.046875l1.09375-1.15625c.578125-.609375.765625-.9375.765625-1.390625 0-.6875-.46875-1.125-1.234375-1.125-.4375 0-.734375.125-1.015625.421875l-.109375.828125h.171875l.078125-.28125c.09375-.34375.3125-.5.71875-.5.515625 0 .84375.328125.84375.828125 0 .453125-.25.90625-.9375 1.625zm0 0"/></symbol><symbol id="o" overflow="visible"><path d="m.234375-3.875.078125.1875.3125-.203125c.375-.234375.40625-.25.46875-.25.109375 0 .1875.09375.1875.25 0 .515625-.40625 2.4375-.828125 3.875l.078125.109375c.25-.078125.484375-.140625.703125-.171875.1875-1.265625.390625-1.90625.859375-2.609375.53125-.828125 1.28125-1.453125 1.734375-1.453125.109375 0 .171875.09375.171875.234375 0 .1875-.03125.390625-.109375.71875l-.515625 2.125c-.09375.359375-.140625.59375-.140625.75 0 .25.109375.40625.3125.40625.25 0 .609375-.21875 1.59375-.9375l-.09375-.1875-.265625.171875c-.296875.1875-.515625.296875-.609375.296875-.078125 0-.125-.09375-.125-.203125 0-.046875 0-.15625.015625-.1875l.65625-2.765625c.078125-.296875.109375-.578125.109375-.734375 0-.234375-.109375-.359375-.3125-.359375-.421875 0-1.109375.375-1.703125.921875-.375.34375-.65625.6875-1.171875 1.421875l.375-1.609375c.046875-.1875.0625-.296875.0625-.40625 0-.21875-.078125-.328125-.234375-.328125-.203125 0-.59375.21875-1.328125.734375zm0 0"/></symbol><symbol id="p" overflow="visible"><path d="m7.15625-3.40625c.15625 0 .359375 0 .359375-.203125 0-.21875-.203125-.21875-.34375-.21875h-6.25c-.140625 0-.34375 0-.34375.21875 0 .203125.203125.203125.359375.203125zm.015625 2.015625c.140625 0 .34375 0 .34375-.203125s-.203125-.203125-.359375-.203125h-6.21875c-.15625 0-.359375 0-.359375.203125s.203125.203125.34375.203125zm0 0"/></symbol><symbol id="q" overflow="visible"><path d="m3.453125 2.5c0-.03125 0-.046875-.1875-.234375-1.296875-1.3125-1.625-3.28125-1.625-4.875 0-1.8125.390625-3.625 1.671875-4.921875.140625-.125.140625-.15625.140625-.1875 0-.0625-.046875-.09375-.109375-.09375-.109375 0-1.046875.703125-1.65625 2.03125-.53125 1.140625-.65625 2.296875-.65625 3.171875 0 .8125.109375 2.078125.6875 3.25.625 1.28125 1.515625 1.96875 1.625 1.96875.0625 0 .109375-.03125.109375-.109375zm0 0"/></symbol><symbol id="r" overflow="visible"><path d="m3.015625-2.609375c0-.8125-.125-2.0625-.6875-3.25-.625-1.28125-1.53125-1.953125-1.625-1.953125-.0625 0-.109375.03125-.109375.09375 0 .03125 0 .0625.203125.25 1.015625 1.03125 1.609375 2.6875 1.609375 4.859375 0 1.78125-.390625 3.625-1.671875 4.9375-.140625.125-.140625.140625-.140625.171875 0 .0625.046875.109375.109375.109375.09375 0 1.03125-.71875 1.65625-2.03125.53125-1.15625.65625-2.3125.65625-3.1875zm0 0"/></symbol><symbol id="s" overflow="visible"><path d="m.671875-5.546875h.09375l1.296875-.578125c0-.015625.015625-.015625.03125-.015625.0625 0 .078125.09375.078125.328125v4.859375c0 .515625-.109375.625-.65625.65625l-.5625.03125v.296875c1.546875-.03125 1.546875-.03125 1.65625-.03125.125 0 .34375 0 .6875.015625.125 0 .46875 0 .890625.015625v-.296875l-.53125-.03125c-.546875-.03125-.640625-.140625-.640625-.65625v-5.9375l-.140625-.046875c-.65625.34375-1.359375.640625-2.28125.953125zm0 0"/></symbol><symbol id="t" overflow="visible"><path d="m.15625-.234375v.265625c1.875-.03125 1.875-.03125 2.234375-.03125s.359375 0 2.296875.03125c-.03125-.21875-.03125-.3125-.03125-.453125 0-.125 0-.234375.03125-.453125-1.15625.0625-1.625.0625-3.46875.109375l1.828125-1.9375c.96875-1.03125 1.265625-1.578125 1.265625-2.328125 0-1.15625-.78125-1.859375-2.046875-1.859375-.71875 0-1.21875.203125-1.703125.703125l-.171875 1.359375h.296875l.125-.46875c.15625-.578125.515625-.828125 1.1875-.828125.859375 0 1.40625.546875 1.40625 1.390625 0 .75-.421875 1.5-1.546875 2.6875zm0 0"/></symbol><symbol id="u" overflow="visible"><path d="m.4375-4.984375h.296875l.1875-.5625c.109375-.328125.734375-.671875 1.265625-.671875.640625 0 1.171875.53125 1.171875 1.15625 0 .75-.59375 1.375-1.296875 1.375-.078125 0-.1875 0-.328125-.015625h-.140625l-.125.515625.078125.0625c.375-.171875.5625-.21875.828125-.21875.828125 0 1.3125.53125 1.3125 1.4375 0 1.03125-.609375 1.703125-1.53125 1.703125-.46875 0-.875-.15625-1.171875-.4375-.25-.21875-.375-.453125-.5625-.984375l-.265625.09375c.203125.609375.28125.96875.34375 1.46875.53125.1875.96875.265625 1.34375.265625.796875 0 1.71875-.453125 2.265625-1.125.34375-.40625.515625-.84375.515625-1.3125 0-.484375-.203125-.90625-.5625-1.15625-.25-.171875-.484375-.265625-.984375-.34375.796875-.625 1.109375-1.078125 1.109375-1.671875 0-.890625-.75-1.484375-1.859375-1.484375-.671875 0-1.125.1875-1.609375.671875zm0 0"/></symbol><symbol id="v" overflow="visible"><path d="m2.796875-1.8125v.75c0 .609375-.109375.75-.59375.765625l-.625.03125v.296875c1.328125-.03125 1.328125-.03125 1.578125-.03125.234375 0 .234375 0 1.5625.03125v-.296875l-.484375-.03125c-.484375-.03125-.59375-.15625-.59375-.765625v-.75c.59375 0 .796875.015625 1.078125.046875v-.71875c-.46875.046875-.65625.046875-.8125.03125h-.265625v-1.390625c0-1.78125.015625-2.640625.0625-3.046875l-.109375-.046875-.75.265625-2.828125 4.625.109375.234375zm0-.640625h-2.140625l2.140625-3.515625zm0 0"/></symbol><symbol id="w" overflow="visible"><path d="m1.265625-6.046875c1.296875.03125 1.859375.046875 3.046875.046875l.0625-.046875c-.03125-.1875-.03125-.265625-.03125-.390625 0-.140625 0-.21875.03125-.40625l-.0625-.046875c-.75.046875-1.1875.046875-1.734375.046875s-.984375 0-1.734375-.046875l-.046875.046875c0 .609375.015625 1.046875.015625 1.375 0 .84375-.03125 1.8125-.0625 2.25l.203125.0625c.46875-.46875.734375-.609375 1.234375-.609375.953125 0 1.546875.671875 1.546875 1.75 0 1.109375-.640625 1.765625-1.71875 1.765625-.546875 0-1.046875-.1875-1.1875-.4375l-.453125-.828125-.25.140625c.234375.578125.359375.890625.5 1.328125.28125.15625.671875.25 1.109375.25.671875 0 1.375-.296875 1.921875-.765625.609375-.546875.9375-1.234375.9375-1.96875 0-1.125-.8125-1.921875-1.953125-1.921875-.484375 0-.84375.125-1.453125.5zm0 0"/></symbol><symbol id="x" overflow="visible"><path d="m4.15625-6.71875-.359375-.171875c-.96875.328125-1.375.515625-1.890625.953125-1.03125.875-1.59375 2.09375-1.59375 3.46875 0 1.65625.8125 2.671875 2.09375 2.671875 1.296875 0 2.28125-1.03125 2.28125-2.390625 0-1.15625-.703125-1.90625-1.75-1.90625-.5 0-.8125.140625-1.390625.609375-.109375.078125-.125.09375-.234375.171875.203125-1.8125 1.046875-2.78125 2.84375-3.328125zm-1.609375 3.234375c.765625 0 1.265625.65625 1.265625 1.640625 0 1.046875-.5 1.71875-1.265625 1.71875-.859375 0-1.3125-.734375-1.3125-2.078125 0-.34375.03125-.53125.140625-.703125.21875-.34375.6875-.578125 1.171875-.578125zm0 0"/></symbol><symbol id="y" overflow="visible"><path d="m2.15625-6.421875c.359375-.078125.640625-.125.984375-.125 1.078125 0 1.65625.5 1.65625 1.453125 0 .90625-.609375 1.53125-1.484375 1.53125-.203125 0-.359375-.015625-.609375-.09375l.09375.359375c.25.046875.390625.0625.578125.0625 1.375 0 2.421875-.9375 2.421875-2.140625 0-.953125-.78125-1.546875-2.046875-1.546875-.046875 0-.15625 0-.28125.015625-.375 0-1.125.015625-1.421875.015625-.21875 0-.21875 0-1.8125-.03125v.296875l.453125.03125c.4375.03125.515625.15625.515625.90625v4.484375c0 .796875-.046875.875-.5.90625l-.484375.03125v.296875c.59375-.015625.9375-.03125 1.46875-.03125.515625 0 .875.015625 1.46875.03125v-.296875l-.484375-.03125c-.46875-.03125-.515625-.109375-.515625-.90625zm0 0"/></symbol><symbol id="z" overflow="visible"><path d="m7.3125-1.203125c0 .796875-.03125.859375-.5.90625l-.34375.03125v.296875c.46875-.015625.765625-.03125 1.28125-.03125.5625 0 .921875.015625 1.515625.03125v-.296875l-.484375-.03125c-.46875-.03125-.515625-.109375-.515625-.90625v-4.484375c0-.78125.046875-.875.515625-.90625l.421875-.03125v-.296875c-.765625.03125-.765625.03125-.9375.03125-.140625 0-.140625 0-.953125-.03125l-2.609375 5.5625-2.640625-5.5625c-.796875.03125-.796875.03125-.953125.03125s-.15625 0-.953125-.03125v.296875l.4375.03125c.46875.03125.515625.125.515625.90625v4.484375c0 .78125-.046875.875-.515625.90625l-.4375.03125v.296875c1-.03125 1-.03125 1.15625-.03125s.15625 0 1.203125.03125v-.296875l-.4375-.03125c-.453125-.03125-.515625-.125-.515625-.90625v-4.578125l2.796875 5.90625h.203125c.0625-.140625.125-.3125.1875-.453125.15625-.390625.28125-.671875.34375-.8125l1.78125-3.78125c.140625-.28125.265625-.515625.4375-.859375zm0 0"/></symbol><symbol id="A" overflow="visible"><path d="m2.15625-3.265625c.28125-.03125.578125-.03125 1.03125-.03125.75 0 1.015625.03125 1.1875.109375l.078125.25.0625.59375h.296875c-.03125-.921875-.03125-.921875-.03125-1.109375 0-.15625 0-.15625.03125-1.15625h-.296875l-.0625.515625c0 .09375-.03125.1875-.078125.265625-.171875.078125-.453125.109375-1.109375.109375-.421875 0-.765625-.015625-1.109375-.03125v-2.671875c.296875-.0625.484375-.078125 1.078125-.078125.46875 0 1.03125.0625 1.34375.140625.234375.0625.265625.109375.265625.34375v.640625h.359375c0-.59375.046875-1.078125.15625-1.515625-.484375-.015625-.796875-.03125-1.21875-.03125l-1.078125.015625c-.484375.015625-.828125.015625-1.078125.015625-.296875 0-.296875 0-1.765625-.03125v.296875l.484375.03125c.453125.03125.5.109375.5.90625v4.484375c0 .796875-.046875.875-.5.90625l-.484375.03125v.296875c.59375-.015625.9375-.03125 1.46875-.03125.515625 0 .875.015625 1.46875.03125v-.296875l-.484375-.03125c-.46875-.03125-.515625-.109375-.515625-.90625zm0 0"/></symbol><symbol id="B" overflow="visible"><path d="m.40625-1.4375c0 .703125-.03125 1-.109375 1.390625.515625.171875.90625.25 1.375.25 1.3125 0 2.234375-.703125 2.234375-1.6875 0-.3125-.09375-.53125-.28125-.734375-.25-.25-.578125-.375-1.46875-.546875-.8125-.15625-1.09375-.359375-1.09375-.8125 0-.5.359375-.78125.96875-.78125.671875 0 1.171875.34375 1.171875.8125v.234375h.28125c.015625-.578125.03125-.8125.0625-1.125-.53125-.1875-.890625-.25-1.3125-.25-1.15625 0-1.859375.546875-1.859375 1.453125 0 .46875.21875.8125.671875 1.03125.265625.109375.796875.265625 1.484375.421875.453125.09375.640625.3125.640625.6875 0 .546875-.5.921875-1.21875.921875s-1.25-.34375-1.25-.84375v-.421875zm0 0"/></symbol><symbol id="C" overflow="visible"><path d="m3.40625-7.171875c-.203125-.078125-.328125-.109375-.453125-.109375-.328125 0-.671875.171875-.890625.421875l-.578125.65625c-.296875.328125-.421875.78125-.421875 1.4375v.421875l-.6875.3125v.21875l.6875-.03125v2.828125c0 .625-.03125.703125-.375.71875l-.453125.03125v.296875c1-.03125 1-.03125 1.25-.03125s.25 0 1.25.03125v-.296875l-.46875-.03125c-.328125-.015625-.359375-.09375-.359375-.71875v-2.828125h1.234375l.0625-.53125-1.296875.03125v-.84375c0-1.15625.125-1.4375.6875-1.4375.28125 0 .453125.078125.703125.28125l.109375-.0625zm0 0"/></symbol><symbol id="D" overflow="visible"><path d="m2.796875-4.6875c-1.46875 0-2.484375 1.03125-2.484375 2.515625 0 1.40625.890625 2.375 2.1875 2.375 1.546875 0 2.640625-1.078125 2.640625-2.578125 0-1.34375-.984375-2.3125-2.34375-2.3125zm-.1875.328125c.921875 0 1.59375 1 1.59375 2.359375 0 1.15625-.5 1.875-1.3125 1.875-.984375 0-1.640625-.96875-1.640625-2.390625 0-1.1875.484375-1.84375 1.359375-1.84375zm0 0"/></symbol><symbol id="E" overflow="visible"><path d="m.234375-4h.359375c.40625 0 .453125.0625.453125.734375v2.25c0 .625-.03125.703125-.375.71875l-.46875.03125v.296875c.734375-.015625.984375-.03125 1.234375-.03125.203125 0 .203125 0 1.4375.03125v-.296875l-.53125-.03125c-.4375-.03125-.46875-.0625-.46875-.71875v-1.71875c0-.609375.40625-1.109375.890625-1.109375.296875 0 .515625.140625.671875.46875h.21875l.078125-1.203125c-.109375-.078125-.28125-.109375-.46875-.109375-.296875 0-.609375.15625-.828125.40625l-.5625.65625v-1.03125l-.078125-.03125c-.515625.203125-1.03125.34375-1.5625.40625zm0 0"/></symbol><symbol id="F" overflow="visible"><path d="m5.03125-4.65625-.09375-.03125c-.5.203125-1.03125.34375-1.5625.40625v.28125h.375c.40625 0 .4375.0625.4375.734375v1.625c0 .21875-.140625.5-.375.734375-.265625.28125-.59375.421875-.984375.421875-.34375 0-.625-.109375-.78125-.3125-.140625-.15625-.21875-.46875-.21875-.90625v-2.953125l-.09375-.03125c-.5.203125-1.03125.34375-1.546875.40625v.28125h.359375c.40625 0 .4375.0625.4375.734375v1.671875c0 .703125.0625 1.015625.25 1.265625.21875.296875.59375.453125 1.171875.453125.4375 0 .84375-.140625 1.109375-.390625l.671875-.625c0 .296875 0 .453125-.03125.921875.65625-.03125.671875-.03125.828125-.03125.140625 0 .140625 0 .828125.03125v-.296875l-.40625-.03125c-.34375-.015625-.375-.078125-.375-.71875zm0 0"/></symbol><symbol id="G" overflow="visible"><path d="m.1875-4h.359375c.40625 0 .4375.0625.4375.734375v2.25c0 .625-.03125.703125-.359375.71875l-.46875.03125v.296875c.96875-.03125 1-.03125 1.28125-.03125.265625 0 .53125.015625 1.1875.03125v-.296875l-.421875-.03125c-.34375-.015625-.375-.09375-.375-.71875v-2.125c0-.453125.65625-.9375 1.265625-.9375.53125 0 .90625.515625.90625 1.265625v1.796875c0 .625-.03125.703125-.375.71875l-.453125.03125v.296875c1-.03125 1-.03125 1.25-.03125s.25 0 1.25.03125v-.296875l-.46875-.03125c-.328125-.015625-.359375-.09375-.359375-.71875v-2.125c0-.453125.65625-.9375 1.25-.9375.546875 0 .921875.515625.921875 1.265625v2.84375c.609375-.03125.609375-.03125.78125-.03125.140625 0 .140625 0 .890625.03125v-.296875l-.46875-.03125c-.34375-.015625-.375-.09375-.375-.71875v-2.0625c0-.984375-.578125-1.609375-1.5-1.609375-.34375 0-.640625.09375-.8125.25l-.765625.671875c-.3125-.65625-.71875-.921875-1.421875-.921875-.359375 0-.640625.09375-.828125.25l-.6875.640625v-.859375l-.09375-.03125c-.5.203125-1.03125.34375-1.546875.40625zm0 0"/></symbol><symbol id="H" overflow="visible"><path d="m1.875-4.65625-.078125-.03125c-.515625.203125-1.03125.34375-1.5625.40625v.28125h.359375c.40625 0 .453125.0625.453125.734375v2.25c0 .625-.03125.703125-.375.71875l-.46875.03125v.296875c1-.03125 1-.03125 1.25-.03125s.25 0 1.25.03125v-.296875l-.453125-.03125c-.34375-.015625-.375-.09375-.375-.71875zm-.453125-2.21875c-.296875 0-.5625.265625-.5625.5625s.265625.546875.546875.546875c.296875 0 .5625-.25.5625-.546875 0-.28125-.265625-.5625-.546875-.5625zm0 0"/></symbol><symbol id="I" overflow="visible"><path d="m4.09375.03125c.609375-.03125.625-.03125.796875-.03125.140625 0 .140625 0 .828125.03125v-.296875l-.40625-.03125c-.34375-.015625-.375-.078125-.375-.71875v-1.9375c0-1.171875-.546875-1.734375-1.671875-1.734375-.359375 0-.578125.0625-.78125.25l-.765625.65625v-.875l-.09375-.03125c-.5.203125-1.03125.34375-1.5625.40625v.28125h.375c.40625 0 .4375.0625.4375.734375v2.25c0 .625-.03125.703125-.359375.71875l-.453125.03125v.296875c.671875-.015625.953125-.03125 1.234375-.03125.296875 0 .5625.015625 1.25.03125v-.296875l-.453125-.03125c-.34375-.015625-.375-.09375-.375-.71875v-2.125c0-.453125.65625-.9375 1.265625-.9375.671875 0 1.109375.5 1.109375 1.265625zm0 0"/></symbol><symbol id="J" overflow="visible"><path d="m1.046875-4.703125c.5625-.734375.9375-1.390625 1.28125-2.25l-.125-.140625c-.359375.125-.46875.15625-.96875.296875-.0625.8125-.296875 1.46875-.78125 2.234375l.140625.109375zm0 0"/></symbol><g stroke-linecap="round" stroke-linejoin="round" stroke-miterlimit="10" transform="matrix(.1 0 0 -.1 0 174.46)"><path d="m2164.53125 245.654688h-1954.101562" fill="none" stroke="#000" stroke-width="4.99843"/><path d="m2239.492188 245.654688-74.960938 20.078125v-40.195313zm0 0" stroke="#000" stroke-width="4.99843"/><path d="m210.429688 1631.592188v-1385.9375" fill="none" stroke="#000" stroke-width="4.99843"/><path d="m210.429688 1706.553125-20.078126-74.960937h40.195313zm0 0" stroke="#000" stroke-width="4.99843"/><path d="m210.429688 1463.076563h-13.515626" fill="none" stroke="#000" stroke-width="4.99843"/><path d="m210.429688 245.654688v-13.554688" fill="none" stroke="#000" stroke-width="4.99843"/><path d="m548.632812 245.654688v-13.554688" fill="none" stroke="#000" stroke-width="4.99843"/><path d="m886.796875 245.654688v-13.554688" fill="none" stroke="#000" stroke-width="4.99843"/><path d="m1224.960938 245.654688v-13.554688" fill="none" stroke="#000" stroke-width="4.99843"/><path d="m1563.164062 245.654688v-13.554688" fill="none" stroke="#000" stroke-width="4.99843"/><path d="m1901.328125 245.654688v-13.554688" fill="none" stroke="#000" stroke-width="4.99843"/><path d="m210.429688 305.85 67.65625 120.390625 67.617187 135.429688 67.65625 90.3125 67.617187 13.554687 67.65625-54.179687 67.617188-89.257813 67.65625-91.445312 67.617188-73.789063 67.65625-50.507812 67.617187-30.507813 67.65625-16.484375 67.617187-8.046875 67.65625-3.554687 67.617188-1.40625 67.617188-.507813 67.65625-.15625 67.617187-.039062h67.65625" fill="none" stroke="#20b2aa" stroke-opacity=".833333" stroke-width="11.9962"/><path d="m210.429688 255.107813 67.65625 33.125 67.617187 63.90625 67.65625 85.15625 67.617187 83.085937 67.65625 55.898438 67.617188 14.492187 67.65625-25.78125 67.617188-53.320312 67.65625-64.101563 67.617187-61.054687 67.65625-49.960938 67.617187-36.328125 67.65625-24.023437 67.617188-14.53125 67.617188-8.164063 67.65625-4.257812 67.617187-2.03125 67.65625-.9375 67.617187-.390625 67.65625-.15625 67.617188-.078125h405.820312" fill="none" stroke="#555955" stroke-opacity=".555556" stroke-width="11.9962"/><path d="m210.429688 247.139063 67.65625 7.421875 67.617187 20.117187 67.65625 37.929688 67.617187 55.078125 67.65625 63.789062 67.617188 58.90625 67.65625 40.507813 67.617188 13.945312 67.65625-13.28125 67.617187-34.492187 67.65625-46.523438 67.617187-49.140625 67.65625-44.804687 67.617188-36.5625 67.617188-27.34375 67.65625-18.867188 67.617187-12.1875 67.65625-7.382812 67.617187-4.179688 67.65625-2.265625 67.617188-1.171875 67.65625-.546875 67.617188-.273437 67.65625-.078125 67.617187-.078125h270.546875" fill="none" stroke="#8b0000" stroke-opacity=".388889" stroke-width="11.9962"/><path d="m210.429688 245.889063 67.65625 1.523437 67.617187 5.234375 67.65625 12.734375 67.617187 23.828125 67.65625 36.40625 67.617188 46.5625 67.65625 50.3125 67.617188 45.3125 67.65625 31.914063 67.617187 13.164062 67.65625-6.640625 67.617187-23.476562 67.65625-34.726563 67.617188-39.609375 67.617188-38.945312 67.65625-34.492188 67.617187-28.007812 67.65625-21.210938 67.617187-15.039062 67.65625-10.117188 67.617188-6.40625 67.65625-3.867187 67.617188-2.226563 67.65625-1.210937 67.617187-.664063 67.65625-.3125 67.617187-.15625 67.65625-.078125 67.617188-.039062" fill="none" stroke="#8b0000" stroke-opacity=".333333" stroke-width="11.9962"/><path d="m210.429688 245.69375 67.65625.273438 67.617187 1.25 67.65625 3.632812 67.617187 8.28125 67.65625 15.46875 67.617188 24.414063 67.65625 33.359375 67.617188 39.765625 67.65625 41.25 67.617187 36.71875 67.65625 26.523437 67.617187 12.421875 67.65625-2.773437 67.617188-16.445313 67.617188-26.523437 67.65625-32.1875 67.617187-33.59375 67.65625-31.523438 67.617187-27.304687 67.65625-22.109375 67.617188-16.835938 67.65625-12.148437 67.617188-8.359375 67.65625-5.46875 67.617187-3.476563 67.65625-2.070312 67.617187-1.210938 67.65625-.664062 67.617188-.351563" fill="none" stroke="#520c38" stroke-opacity=".388889" stroke-width="11.9962"/><path d="m210.429688 245.654688 67.65625.039062 67.617187.273438 67.65625.9375 67.617187 2.539062 67.65625 5.46875 67.617188 10.234375 67.65625 16.5625 67.617188 23.75 67.65625 30.195313 67.617187 34.453125 67.65625 34.84375 67.617187 30.859375 67.65625 22.773437 67.617188 11.71875 67.617188-.351562 67.65625-11.640625 67.617187-20.585938 67.65625-26.40625 67.617187-28.867187 67.65625-28.476563 67.617188-25.898437 67.65625-22.03125 67.617188-17.773438 67.65625-13.59375 67.617187-9.921875 67.65625-6.953125 67.617187-4.6875 67.65625-3.007812 67.617188-1.875" fill="none" stroke="#191970" stroke-opacity=".555556" stroke-width="11.9962"/><path d="m1630.78125 1341.357813h121.757812" fill="none" stroke="#20b2aa" stroke-opacity=".833333" stroke-width="11.9962"/><path d="m1630.78125 1219.6h121.757812" fill="none" stroke="#555955" stroke-opacity=".555556" stroke-width="11.9962"/><path d="m1630.78125 1097.842188h121.757812" fill="none" stroke="#8b0000" stroke-opacity=".388889" stroke-width="11.9962"/><path d="m1630.78125 976.123438h121.757812" fill="none" stroke="#8b0000" stroke-opacity=".333333" stroke-width="11.9962"/><path d="m1630.78125 854.365625h121.757812" fill="none" stroke="#520c38" stroke-opacity=".388889" stroke-width="11.9962"/><path d="m1630.78125 732.607813h121.757812" fill="none" stroke="#191970" stroke-opacity=".555556" stroke-width="11.9962"/></g><use x="119.88" xlink:href="#a" y="169.29984"/><use x="14.4" xlink:href="#b" y="103.7799"/><use x="14.4" xlink:href="#c" y="94.7799"/><use x="14.4" xlink:href="#f" y="89.74006"/><use x="16.2" xlink:href="#h" y="83.01975"/><use x="14.4" xlink:href="#d" y="73.77991"/><use x="14.4" xlink:href="#g" y="60.46001"/><use x="14.4" xlink:href="#e" y="54.94009"/><use x="10.4398" xlink:href="#i" y="26.74"/><path d="m10.429688 28.3125h4.558593v.480469h-4.558593zm0 0"/><use x="10.4398" xlink:href="#j" y="35.62"/><use x="19.56011" xlink:href="#k" y="157.18"/><use x="53.399926" xlink:href="#l" y="157.18"/><use x="85.67998" xlink:href="#m" y="157.18"/><use x="88.679985" xlink:href="#k" y="157.18"/><use x="119.519857" xlink:href="#m" y="157.18"/><use x="122.519862" xlink:href="#l" y="157.18"/><use x="153.359733" xlink:href="#n" y="157.18"/><use x="156.359738" xlink:href="#k" y="157.18"/><use x="187.199609" xlink:href="#n" y="157.18"/><use x="190.199614" xlink:href="#l" y="157.18"/><use fill="#20b2aa" x="178.44" xlink:href="#o" y="43.78"/><use fill="#20b2aa" x="187.07984" xlink:href="#p" y="43.78"/><use fill="#20b2aa" x="197.99974" xlink:href="#s" y="43.78"/><use fill="#555955" x="178.44" xlink:href="#o" y="55.78"/><use fill="#555955" x="187.07984" xlink:href="#p" y="55.78"/><use fill="#555955" x="197.99974" xlink:href="#t" y="55.78"/><use fill="#8b0000" x="178.44" xlink:href="#o" y="68.02"/><use fill="#8b0000" x="187.07984" xlink:href="#p" y="68.02"/><use fill="#8b0000" x="197.99974" xlink:href="#u" y="68.02"/><use fill="#8b0000" x="178.43994" xlink:href="#o" y="80.2602"/><use fill="#8b0000" x="187.07978" xlink:href="#p" y="80.2602"/><use fill="#8b0000" x="197.99968" xlink:href="#v" y="80.2602"/><use fill="#520c38" x="178.44" xlink:href="#o" y="92.3799"/><use fill="#520c38" x="187.07984" xlink:href="#p" y="92.3799"/><use fill="#520c38" x="197.99974" xlink:href="#w" y="92.3799"/><g fill="#191970"><use x="178.44" xlink:href="#o" y="104.4998"/><use x="187.07984" xlink:href="#p" y="104.4998"/><use x="197.99974" xlink:href="#x" y="104.4998"/><use x="57.71974" xlink:href="#y" y="18.5799"/><use x="63.71974" xlink:href="#z" y="18.5799"/><use x="73.19974" xlink:href="#A" y="18.5799"/><use x="78.71974" xlink:href="#B" y="18.5799"/><use x="85.43967" xlink:href="#C" y="18.5799"/><use x="88.79967" xlink:href="#D" y="18.5799"/><use x="94.19967" xlink:href="#E" y="18.5799"/><use x="100.67952" xlink:href="#B" y="18.5799"/><use x="104.87952" xlink:href="#F" y="18.5799"/><use x="110.87952" xlink:href="#G" y="18.5799"/><use x="119.759508" xlink:href="#B" y="18.5799"/><use x="126.599438" xlink:href="#D" y="18.5799"/><use x="131.999438" xlink:href="#C" y="18.5799"/><use x="137.99944" xlink:href="#o" y="18.5799"/><use x="146.1596" xlink:href="#y" y="18.5799"/><use x="152.1596" xlink:href="#D" y="18.5799"/><use x="157.5596" xlink:href="#H" y="18.5799"/><use x="160.4396" xlink:href="#B" y="18.5799"/><use x="164.6396" xlink:href="#B" y="18.5799"/><use x="168.8396" xlink:href="#D" y="18.5799"/><use x="174.2396" xlink:href="#I" y="18.5799"/><use x="180.1198" xlink:href="#q" y="18.5799"/><use x="184.3198" xlink:href="#u" y="18.5799"/><use x="189.47996" xlink:href="#r" y="18.5799"/><use x="193.67996" xlink:href="#J" y="18.5799"/><use x="196.43996" xlink:href="#B" y="18.5799"/></g></svg>