<svg height="87.19pt" viewBox="0 0 511.24 87.19" width="511.24pt" xmlns="http://www.w3.org/2000/svg" xmlns:xlink="http://www.w3.org/1999/xlink"><symbol id="a" overflow="visible"><path d="m4.96875-.296875v.328125c.578125-.015625 1.109375-.03125 1.625-.03125.46875 0 1.015625.015625 1.578125.03125v-.328125l-.296875-.03125c-.484375-.03125-.640625-.109375-.8125-.40625l-2.046875-3.671875 2.640625-3c.359375-.40625.46875-.46875.78125-.5l.34375-.03125v-.328125l-1.375.03125c-.140625 0-.3125 0-1.375-.03125v.328125l.40625.03125c.375.015625.53125.078125.53125.21875s-.0625.234375-.28125.5l-1.921875 2.34375-1.234375-2.375c-.109375-.21875-.171875-.359375-.171875-.453125 0-.140625.15625-.21875.515625-.234375l.4375-.03125v-.328125h-.546875c-.484375.015625-.84375.03125-1.046875.03125s-.5625-.015625-1.046875-.03125h-.53125v.328125l.3125.03125c.578125.046875.71875.140625.96875.578125l1.734375 3.234375-2.84375 3.359375c-.171875.21875-.453125.359375-.734375.40625l-.34375.03125v.328125c.59375-.015625 1.078125-.03125 1.5-.03125s.90625.015625 1.421875.03125v-.328125l-.390625-.03125c-.453125-.046875-.65625-.125-.65625-.265625 0-.09375.046875-.203125.125-.296875l2.171875-2.765625 1.421875 2.703125c.109375.21875.171875.375.171875.46875 0 .109375-.078125.140625-.375.140625l-.203125.015625zm0 0"/></symbol><symbol id="b" overflow="visible"><path d="m.59375-4.984375h.09375l1.15625-.515625h.03125c.046875 0 .078125.078125.078125.296875v4.34375c0 .46875-.109375.5625-.59375.59375l-.5.03125v.265625c1.390625-.03125 1.390625-.03125 1.484375-.03125.109375 0 .3125 0 .609375.015625.109375 0 .421875 0 .796875.015625v-.265625l-.46875-.03125c-.484375-.03125-.578125-.125-.578125-.59375v-5.3125l-.125-.046875c-.59375.296875-1.21875.5625-2.046875.859375zm0 0"/></symbol><symbol id="c" overflow="visible"><path d="m.140625-.203125v.234375c1.6875-.03125 1.6875-.03125 2-.03125.328125 0 .328125 0 2.0625.03125-.03125-.1875-.03125-.28125-.03125-.40625s0-.203125.03125-.40625c-1.03125.046875-1.453125.0625-3.109375.09375l1.625-1.734375c.875-.921875 1.140625-1.421875 1.140625-2.09375 0-1.03125-.6875-1.65625-1.828125-1.65625-.65625 0-1.09375.171875-1.53125.625l-.15625 1.21875h.265625l.109375-.421875c.15625-.515625.46875-.734375 1.078125-.734375.765625 0 1.265625.484375 1.265625 1.234375 0 .6875-.375 1.34375-1.390625 2.421875zm0 0"/></symbol><symbol id="d" overflow="visible"><path d="m.390625-4.46875h.265625l.171875-.5c.09375-.3125.65625-.609375 1.125-.609375.578125 0 1.0625.46875 1.0625 1.046875 0 .671875-.53125 1.234375-1.171875 1.234375-.0625 0-.171875-.015625-.28125-.015625l-.140625-.015625-.109375.46875.0625.0625c.34375-.15625.515625-.203125.765625-.203125.734375 0 1.171875.484375 1.171875 1.296875 0 .90625-.546875 1.515625-1.390625 1.515625-.40625 0-.78125-.140625-1.046875-.390625-.21875-.1875-.328125-.40625-.5-.890625l-.234375.09375c.1875.546875.25.875.3125 1.328125.46875.15625.859375.21875 1.203125.21875.71875 0 1.53125-.390625 2.03125-1 .296875-.359375.453125-.765625.453125-1.1875s-.171875-.796875-.5-1.03125c-.21875-.15625-.4375-.234375-.875-.3125.71875-.546875.984375-.96875.984375-1.5 0-.796875-.671875-1.3125-1.65625-1.3125-.609375 0-1.015625.15625-1.453125.59375zm0 0"/></symbol><symbol id="e" overflow="visible"><path d="m2.515625-1.625v.671875c0 .546875-.109375.671875-.546875.6875l-.546875.03125v.265625c1.1875-.03125 1.1875-.03125 1.40625-.03125s.21875 0 1.40625.03125v-.265625l-.4375-.03125c-.4375-.03125-.53125-.140625-.53125-.6875v-.671875c.53125 0 .71875.015625.96875.03125v-.625c-.421875.03125-.59375.03125-.734375.015625h-.234375v-1.234375c0-1.609375.015625-2.375.0625-2.734375l-.109375-.046875-.65625.234375-2.546875 4.15625.09375.203125zm0-.578125h-1.9375l1.9375-3.15625zm0 0"/></symbol><symbol id="f" overflow="visible"><path d="m1.140625-5.421875c1.15625.03125 1.65625.046875 2.734375.046875l.046875-.046875c-.015625-.171875-.015625-.234375-.015625-.359375s0-.1875.015625-.359375l-.046875-.03125c-.671875.03125-1.078125.03125-1.5625.03125s-.890625 0-1.5625-.03125l-.046875.03125c.015625.546875.015625.953125.015625 1.234375 0 .765625-.015625 1.625-.046875 2.015625l.1875.0625c.421875-.421875.65625-.546875 1.09375-.546875.859375 0 1.40625.609375 1.40625 1.578125 0 .984375-.578125 1.578125-1.5625 1.578125-.484375 0-.921875-.171875-1.046875-.40625l-.421875-.734375-.21875.125c.21875.515625.328125.796875.453125 1.203125.25.125.609375.203125.984375.203125.609375 0 1.25-.25 1.734375-.6875.546875-.484375.828125-1.09375.828125-1.75 0-1.015625-.71875-1.734375-1.734375-1.734375-.4375 0-.765625.109375-1.3125.453125zm0 0"/></symbol><symbol id="g" overflow="visible"><path d="m3.734375-6.03125-.328125-.140625c-.875.28125-1.234375.453125-1.6875.859375-.921875.78125-1.4375 1.875-1.4375 3.09375 0 1.484375.71875 2.390625 1.875 2.390625 1.171875 0 2.046875-.921875 2.046875-2.140625 0-1.03125-.625-1.703125-1.578125-1.703125-.453125 0-.71875.125-1.25.546875-.09375.078125-.09375.078125-.203125.15625.1875-1.625.9375-2.5 2.5625-2.984375zm-1.453125 2.90625c.6875 0 1.140625.59375 1.140625 1.46875 0 .9375-.453125 1.546875-1.140625 1.546875-.765625 0-1.171875-.65625-1.171875-1.859375 0-.3125.03125-.484375.125-.640625.203125-.3125.625-.515625 1.046875-.515625zm0 0"/></symbol><symbol id="h" overflow="visible"><path d="m.5-.09375.078125.125c.359375-.03125.359375-.03125.421875-.03125s.0625 0 .40625.03125c.375-.984375.8125-1.921875 1.40625-2.984375l1.640625-2.953125v-.265625c-.96875.03125-1.28125.03125-2 .03125-.65625 0-1.09375 0-1.96875-.03125l-.09375.03125c.03125.859375.03125.859375.03125.953125s0 .09375-.03125.90625h.265625l.0625-.5c.078125-.5625.140625-.625.5625-.625h2.390625c-.359375.734375-.640625 1.25-.984375 1.796875zm0 0"/></symbol><symbol id="i" overflow="visible"><path d="m1.5-3.09375c-.359375.171875-.515625.265625-.703125.453125-.34375.34375-.53125.75-.53125 1.21875 0 .921875.75 1.59375 1.765625 1.59375 1.15625 0 2.125-.90625 2.125-2.015625 0-.71875-.328125-1.109375-1.34375-1.578125.8125-.546875 1.09375-.921875 1.09375-1.46875 0-.765625-.625-1.28125-1.578125-1.28125-1.078125 0-1.859375.671875-1.859375 1.609375 0 .609375.25.953125 1.03125 1.46875zm1.046875.453125c.5625.25.90625.6875.90625 1.171875 0 .75-.5625 1.34375-1.296875 1.34375-.75 0-1.25-.53125-1.25-1.375 0-.65625.265625-1.0625.921875-1.46875zm-.546875-1.15625c-.5625-.28125-.859375-.640625-.859375-1.078125 0-.59375.4375-1 1.078125-1 .65625 0 1.078125.4375 1.078125 1.078125 0 .515625-.21875.875-.796875 1.25zm0 0"/></symbol><symbol id="j" overflow="visible"><path d="m.53125-4.4375h.078125l1.03125-.46875h.03125c.046875 0 .0625.0625.0625.265625v3.875c0 .40625-.09375.5-.515625.53125l-.453125.015625v.25c1.234375-.03125 1.234375-.03125 1.328125-.03125s.28125 0 .546875.015625c.09375 0 .375 0 .703125.015625v-.25l-.421875-.015625c-.4375-.03125-.515625-.125-.515625-.53125v-4.75l-.109375-.03125c-.515625.265625-1.09375.5-1.8125.765625zm0 0"/></symbol><path d="m522.695312 341.978125h-371.601562v409.453125" style="fill:none;stroke-width:2.99979;stroke-linecap:round;stroke-linejoin:round;stroke:#000;stroke-miterlimit:10" transform="matrix(.1 0 0 -.1 0 87.19)"/><path d="m567.695312 341.978125-45 12.03125v-24.101563zm0 0" stroke="#000" stroke-linecap="round" stroke-linejoin="round" stroke-miterlimit="10" stroke-width="2.99979" transform="matrix(.1 0 0 -.1 0 87.19)"/><path d="m151.09375 796.43125-12.03125-45h24.101562zm0 0" stroke="#000" stroke-linecap="round" stroke-linejoin="round" stroke-miterlimit="10" stroke-width="2.99979" transform="matrix(.1 0 0 -.1 0 87.19)"/><path d="m151.09375 720.689062h-25.234375" style="fill:none;stroke-width:4.99965;stroke-linecap:round;stroke-linejoin:round;stroke:#000;stroke-miterlimit:10" transform="matrix(.1 0 0 -.1 0 87.19)"/><path d="m15.109375 52.992188v-37.871094h18.9375v37.871094h18.9375z" fill="#8b0000" fill-opacity=".5"/><g stroke-linecap="round" stroke-linejoin="round" stroke-miterlimit="10" transform="matrix(.1 0 0 -.1 0 87.19)"><path d="m151.09375 341.978125v378.710937h189.375v-378.710937h189.375" fill="none" stroke="#8b0000" stroke-width="6.9995"/><g stroke="#000"><path d="m1090.78125 341.978125h-371.601562v409.453125" fill="none" stroke-width="2.99979"/><path d="m1135.78125 341.978125-45 12.03125v-24.101563zm0 0" stroke-width="2.99979"/><path d="m719.179688 796.43125-12.03125-45h24.101562zm0 0" stroke-width="2.99979"/><path d="m719.179688 720.689062h-25.234376" fill="none" stroke-width="4.99965"/></g></g><path d="m71.917969 52.992188h18.9375v-37.871094h18.9375v37.871094z" fill="#8b0000" fill-opacity=".5"/><g stroke-linecap="round" stroke-linejoin="round" stroke-miterlimit="10" transform="matrix(.1 0 0 -.1 0 87.19)"><path d="m719.179688 341.978125h189.375v378.710937h189.375v-378.710937" fill="none" stroke="#8b0000" stroke-width="6.9995"/><path d="m1658.867188 341.978125h-371.601563v409.453125" fill="none" stroke="#000" stroke-width="2.99979"/><path d="m1703.867188 341.978125-45 12.03125v-24.101563zm0 0" stroke="#000" stroke-width="2.99979"/><path d="m1287.265625 796.43125-12.03125-45h24.101563zm0 0" stroke="#000" stroke-width="2.99979"/><path d="m1287.265625 720.689062h-25.234375" fill="none" stroke="#000" stroke-width="4.99965"/></g><path d="m128.726562 52.992188v-37.871094h9.46875v37.871094h28.40625z" fill="#8b0000" fill-opacity=".5"/><path d="m1287.265625 341.978125v378.710937h94.6875v-378.710937h284.0625" style="fill:none;stroke-width:6.9995;stroke-linecap:round;stroke-linejoin:round;stroke:#8b0000;stroke-miterlimit:10" transform="matrix(.1 0 0 -.1 0 87.19)"/><path d="m2226.953125 341.978125h-371.601563v409.453125" style="fill:none;stroke-width:2.99979;stroke-linecap:round;stroke-linejoin:round;stroke:#000;stroke-miterlimit:10" transform="matrix(.1 0 0 -.1 0 87.19)"/><path d="m2271.953125 341.978125-45 12.03125v-24.101563zm0 0" stroke="#000" stroke-linecap="round" stroke-linejoin="round" stroke-miterlimit="10" stroke-width="2.99979" transform="matrix(.1 0 0 -.1 0 87.19)"/><path d="m1855.351562 796.43125-12.03125-45h24.101563zm0 0" stroke="#000" stroke-linecap="round" stroke-linejoin="round" stroke-miterlimit="10" stroke-width="2.99979" transform="matrix(.1 0 0 -.1 0 87.19)"/><path d="m1855.351562 720.689062h-25.234374" style="fill:none;stroke-width:4.99965;stroke-linecap:round;stroke-linejoin:round;stroke:#000;stroke-miterlimit:10" transform="matrix(.1 0 0 -.1 0 87.19)"/><path d="m185.535156 52.992188h9.46875v-37.871094h9.46875v37.871094h18.9375z" fill="#8b0000" fill-opacity=".5"/><path d="m1855.351562 341.978125h94.6875v378.710937h94.6875v-378.710937h189.375" style="fill:none;stroke-width:6.9995;stroke-linecap:round;stroke-linejoin:round;stroke:#8b0000;stroke-miterlimit:10" transform="matrix(.1 0 0 -.1 0 87.19)"/><path d="m2795.039062 341.978125h-371.601562v409.453125" style="fill:none;stroke-width:2.99979;stroke-linecap:round;stroke-linejoin:round;stroke:#000;stroke-miterlimit:10" transform="matrix(.1 0 0 -.1 0 87.19)"/><path d="m2840.039062 341.978125-45 12.03125v-24.101563zm0 0" stroke="#000" stroke-linecap="round" stroke-linejoin="round" stroke-miterlimit="10" stroke-width="2.99979" transform="matrix(.1 0 0 -.1 0 87.19)"/><path d="m2423.4375 796.43125-12.03125-45h24.101562zm0 0" stroke="#000" stroke-linecap="round" stroke-linejoin="round" stroke-miterlimit="10" stroke-width="2.99979" transform="matrix(.1 0 0 -.1 0 87.19)"/><path d="m2423.4375 720.689062h-25.234375" style="fill:none;stroke-width:4.99965;stroke-linecap:round;stroke-linejoin:round;stroke:#000;stroke-miterlimit:10" transform="matrix(.1 0 0 -.1 0 87.19)"/><path d="m242.34375 52.992188h18.9375v-37.871094h9.46875v37.871094h9.46875z" fill="#8b0000" fill-opacity=".5"/><path d="m2423.4375 341.978125h189.375v378.710937h94.6875v-378.710937h94.6875" style="fill:none;stroke-width:6.9995;stroke-linecap:round;stroke-linejoin:round;stroke:#8b0000;stroke-miterlimit:10" transform="matrix(.1 0 0 -.1 0 87.19)"/><path d="m3363.125 341.978125h-371.601562v409.453125" style="fill:none;stroke-width:2.99979;stroke-linecap:round;stroke-linejoin:round;stroke:#000;stroke-miterlimit:10" transform="matrix(.1 0 0 -.1 0 87.19)"/><path d="m3408.125 341.978125-45 12.03125v-24.101563zm0 0" stroke="#000" stroke-linecap="round" stroke-linejoin="round" stroke-miterlimit="10" stroke-width="2.99979" transform="matrix(.1 0 0 -.1 0 87.19)"/><path d="m2991.523438 796.43125-12.070313-45h24.140625zm0 0" stroke="#000" stroke-linecap="round" stroke-linejoin="round" stroke-miterlimit="10" stroke-width="2.99979" transform="matrix(.1 0 0 -.1 0 87.19)"/><path d="m2991.523438 720.689062h-25.234376" style="fill:none;stroke-width:4.99965;stroke-linecap:round;stroke-linejoin:round;stroke:#000;stroke-miterlimit:10" transform="matrix(.1 0 0 -.1 0 87.19)"/><path d="m299.152344 52.992188h28.40625v-37.871094h9.464844v37.871094z" fill="#8b0000" fill-opacity=".5"/><path d="m2991.523438 341.978125h284.0625v378.710937h94.648437v-378.710937" style="fill:none;stroke-width:6.9995;stroke-linecap:round;stroke-linejoin:round;stroke:#8b0000;stroke-miterlimit:10" transform="matrix(.1 0 0 -.1 0 87.19)"/><path d="m3931.210938 341.978125h-371.601563v409.453125" style="fill:none;stroke-width:2.99979;stroke-linecap:round;stroke-linejoin:round;stroke:#000;stroke-miterlimit:10" transform="matrix(.1 0 0 -.1 0 87.19)"/><path d="m3976.210938 341.978125-45 12.03125v-24.101563zm0 0" stroke="#000" stroke-linecap="round" stroke-linejoin="round" stroke-miterlimit="10" stroke-width="2.99979" transform="matrix(.1 0 0 -.1 0 87.19)"/><path d="m3559.609375 796.43125-12.03125-45h24.101563zm0 0" stroke="#000" stroke-linecap="round" stroke-linejoin="round" stroke-miterlimit="10" stroke-width="2.99979" transform="matrix(.1 0 0 -.1 0 87.19)"/><path d="m3559.609375 720.689062h-25.234375" style="fill:none;stroke-width:4.99965;stroke-linecap:round;stroke-linejoin:round;stroke:#000;stroke-miterlimit:10" transform="matrix(.1 0 0 -.1 0 87.19)"/><path d="m355.960938 52.992188v-37.871094h4.734374v37.871094h33.140626z" fill="#8b0000" fill-opacity=".5"/><path d="m3559.609375 341.978125v378.710937h47.34375v-378.710937h331.40625" style="fill:none;stroke-width:6.9995;stroke-linecap:round;stroke-linejoin:round;stroke:#8b0000;stroke-miterlimit:10" transform="matrix(.1 0 0 -.1 0 87.19)"/><path d="m4499.296875 341.978125h-371.601563v409.453125" style="fill:none;stroke-width:2.99979;stroke-linecap:round;stroke-linejoin:round;stroke:#000;stroke-miterlimit:10" transform="matrix(.1 0 0 -.1 0 87.19)"/><path d="m4544.296875 341.978125-45 12.03125v-24.101563zm0 0" stroke="#000" stroke-linecap="round" stroke-linejoin="round" stroke-miterlimit="10" stroke-width="2.99979" transform="matrix(.1 0 0 -.1 0 87.19)"/><path d="m4127.695312 796.43125-12.070312-45h24.140625zm0 0" stroke="#000" stroke-linecap="round" stroke-linejoin="round" stroke-miterlimit="10" stroke-width="2.99979" transform="matrix(.1 0 0 -.1 0 87.19)"/><path d="m4127.695312 720.689062h-25.234374" style="fill:none;stroke-width:4.99965;stroke-linecap:round;stroke-linejoin:round;stroke:#000;stroke-miterlimit:10" transform="matrix(.1 0 0 -.1 0 87.19)"/><path d="m412.769531 52.992188h4.734375v-37.871094h4.734375v37.871094h28.402344z" fill="#8b0000" fill-opacity=".5"/><path d="m4127.695312 341.978125h47.34375v378.710937h47.34375v-378.710937h284.023438" style="fill:none;stroke-width:6.9995;stroke-linecap:round;stroke-linejoin:round;stroke:#8b0000;stroke-miterlimit:10" transform="matrix(.1 0 0 -.1 0 87.19)"/><path d="m37.5 228.345312h1136.171875v605.9375h-1136.171875zm0 0" style="fill:none;stroke-width:4.99965;stroke-linecap:round;stroke-linejoin:round;stroke:#000;stroke-miterlimit:10" transform="matrix(.1 0 0 -.1 0 87.19)"/><path d="m1192.617188 228.345312h2245.820312v605.9375h-2245.820312zm0 0" style="fill:none;stroke-width:4.99965;stroke-linecap:round;stroke-linejoin:round;stroke:#000;stroke-miterlimit:10" transform="matrix(.1 0 0 -.1 0 87.19)"/><path d="m3457.34375 228.345312h1617.148438v605.9375h-1617.148438zm0 0" style="fill:none;stroke-width:4.99965;stroke-linecap:round;stroke-linejoin:round;stroke:#000;stroke-miterlimit:10" transform="matrix(.1 0 0 -.1 0 87.19)"/><use x="27.3602" xlink:href="#a" y="79.99"/><use x="36.00004" xlink:href="#b" y="82.14977"/><use x="7.43984" xlink:href="#j" y="17.82987"/><use x="84.11994" xlink:href="#a" y="79.99007"/><use x="92.76017" xlink:href="#c" y="82.02991"/><use x="64.31997" xlink:href="#j" y="17.82991"/><use x="141.00007" xlink:href="#a" y="79.99011"/><use x="149.63991" xlink:href="#d" y="82.02995"/><use x="121.08011" xlink:href="#j" y="17.82995"/><use x="197.76021" xlink:href="#a" y="79.99015"/><use x="206.40005" xlink:href="#e" y="82.14992"/><use x="177.83985" xlink:href="#j" y="17.83002"/><use x="254.51995" xlink:href="#a" y="79.99022"/><use x="263.16018" xlink:href="#f" y="82.03006"/><use x="234.71998" xlink:href="#j" y="17.83006"/><use x="311.40008" xlink:href="#a" y="79.99026"/><use x="320.03992" xlink:href="#g" y="82.0301"/><use x="291.48012" xlink:href="#j" y="17.8301"/><use x="368.16022" xlink:href="#a" y="79.9903"/><use x="376.80006" xlink:href="#h" y="82.03014"/><use x="348.36026" xlink:href="#j" y="17.83014"/><use x="425.03996" xlink:href="#a" y="79.99034"/><use x="433.68019" xlink:href="#i" y="82.03018"/><use x="405.11999" xlink:href="#j" y="17.83018"/></svg>