<svg height="216.81pt" viewBox="0 0 227.77 216.81" width="227.77pt" xmlns="http://www.w3.org/2000/svg" xmlns:xlink="http://www.w3.org/1999/xlink"><symbol id="a" overflow="visible"><path d="m.59375-4.984375h.09375l1.15625-.515625h.03125c.046875 0 .078125.078125.078125.296875v4.34375c0 .46875-.109375.5625-.59375.59375l-.5.03125v.265625c1.390625-.03125 1.390625-.03125 1.484375-.03125.109375 0 .3125 0 .609375.015625.109375 0 .421875 0 .796875.015625v-.265625l-.46875-.03125c-.484375-.03125-.578125-.125-.578125-.59375v-5.3125l-.125-.046875c-.59375.296875-1.21875.5625-2.046875.859375zm0 0"/></symbol><symbol id="b" overflow="visible"><path d="m.390625-4.46875h.265625l.171875-.5c.09375-.3125.65625-.609375 1.125-.609375.578125 0 1.0625.46875 1.0625 1.046875 0 .671875-.53125 1.234375-1.171875 1.234375-.0625 0-.171875-.015625-.28125-.015625l-.140625-.015625-.109375.46875.0625.0625c.34375-.15625.515625-.203125.765625-.203125.734375 0 1.171875.484375 1.171875 1.296875 0 .90625-.546875 1.515625-1.390625 1.515625-.40625 0-.78125-.140625-1.046875-.390625-.21875-.1875-.328125-.40625-.5-.890625l-.234375.09375c.1875.546875.25.875.3125 1.328125.46875.15625.859375.21875 1.203125.21875.71875 0 1.53125-.390625 2.03125-1 .296875-.359375.453125-.765625.453125-1.1875s-.171875-.796875-.5-1.03125c-.21875-.15625-.4375-.234375-.875-.3125.71875-.546875.984375-.96875.984375-1.5 0-.796875-.671875-1.3125-1.65625-1.3125-.609375 0-1.015625.15625-1.453125.59375zm0 0"/></symbol><symbol id="c" overflow="visible"><path d="m.140625-.203125v.234375c1.6875-.03125 1.6875-.03125 2-.03125.328125 0 .328125 0 2.0625.03125-.03125-.1875-.03125-.28125-.03125-.40625s0-.203125.03125-.40625c-1.03125.046875-1.453125.0625-3.109375.09375l1.625-1.734375c.875-.921875 1.140625-1.421875 1.140625-2.09375 0-1.03125-.6875-1.65625-1.828125-1.65625-.65625 0-1.09375.171875-1.53125.625l-.15625 1.21875h.265625l.109375-.421875c.15625-.515625.46875-.734375 1.078125-.734375.765625 0 1.265625.484375 1.265625 1.234375 0 .6875-.375 1.34375-1.390625 2.421875zm0 0"/></symbol><symbol id="d" overflow="visible"><path d="m2.515625-1.625v.671875c0 .546875-.109375.671875-.546875.6875l-.546875.03125v.265625c1.1875-.03125 1.1875-.03125 1.40625-.03125s.21875 0 1.40625.03125v-.265625l-.4375-.03125c-.4375-.03125-.53125-.140625-.53125-.6875v-.671875c.53125 0 .71875.015625.96875.03125v-.625c-.421875.03125-.59375.03125-.734375.015625h-.234375v-1.234375c0-1.609375.015625-2.375.0625-2.734375l-.109375-.046875-.65625.234375-2.546875 4.15625.09375.203125zm0-.578125h-1.9375l1.9375-3.15625zm0 0"/></symbol><symbol id="e" overflow="visible"><path d="m3.015625 1.9375c-.71875-.890625-.984375-1.375-1.25-2.265625-.203125-.71875-.3125-1.484375-.3125-2.328125 0-.828125.109375-1.546875.296875-2.1875.265625-.84375.53125-1.3125 1.265625-2.15625l-.203125-.265625c-1.03125.9375-1.4375 1.484375-1.828125 2.46875-.25.671875-.390625 1.375-.390625 2.140625 0 1.0625.25 2.078125.734375 2.96875.359375.671875.671875 1.0625 1.484375 1.84375zm0 0"/></symbol><symbol id="f" overflow="visible"><path d="m6.640625-5.6875c0-.78125.046875-.875.515625-.90625l.4375-.03125v-.296875c-1.046875.03125-1.046875.03125-1.203125.03125-.171875 0-.171875 0-1.15625-.03125v.296875l.4375.03125c.453125.03125.515625.125.515625.90625v3.203125c0 1.40625-.6875 2.0625-2.140625 2.0625-1.390625 0-1.984375-.546875-1.984375-1.828125v-3.4375c0-.796875.046875-.875.5-.90625l.484375-.03125v-.296875c-.734375.03125-.953125.03125-1.46875.03125-.5 0-.734375-.015625-1.453125-.03125v.296875l.46875.03125c.46875.03125.515625.109375.515625.90625v3.546875c0 .78125.1875 1.328125.5625 1.71875.390625.40625 1.109375.625 2.109375.625 1.03125 0 1.71875-.21875 2.171875-.671875.46875-.46875.6875-1.21875.6875-2.328125zm0 0"/></symbol><symbol id="g" overflow="visible"><path d="m.234375-4h.359375c.40625 0 .453125.0625.453125.734375v2.25c0 .625-.03125.703125-.375.71875l-.46875.03125v.296875c.734375-.015625.984375-.03125 1.234375-.03125.203125 0 .203125 0 1.4375.03125v-.296875l-.53125-.03125c-.4375-.03125-.46875-.0625-.46875-.71875v-1.71875c0-.609375.40625-1.109375.890625-1.109375.296875 0 .515625.140625.671875.46875h.21875l.078125-1.203125c-.109375-.078125-.28125-.109375-.46875-.109375-.296875 0-.609375.15625-.828125.40625l-.5625.65625v-1.03125l-.078125-.03125c-.515625.203125-1.03125.34375-1.5625.40625zm0 0"/></symbol><symbol id="h" overflow="visible"><path d="m4.09375.03125c.609375-.03125.625-.03125.796875-.03125.140625 0 .140625 0 .828125.03125v-.296875l-.40625-.03125c-.34375-.015625-.375-.078125-.375-.71875v-1.9375c0-1.171875-.546875-1.734375-1.671875-1.734375-.359375 0-.578125.0625-.78125.25l-.765625.65625v-.875l-.09375-.03125c-.5.203125-1.03125.34375-1.5625.40625v.28125h.375c.40625 0 .4375.0625.4375.734375v2.25c0 .625-.03125.703125-.359375.71875l-.453125.03125v.296875c.671875-.015625.953125-.03125 1.234375-.03125.296875 0 .5625.015625 1.25.03125v-.296875l-.453125-.03125c-.34375-.015625-.375-.09375-.375-.71875v-2.125c0-.453125.65625-.9375 1.265625-.9375.671875 0 1.109375.5 1.109375 1.265625zm0 0"/></symbol><symbol id="i" overflow="visible"><path d="m4.078125-7h-.3125c-.1875.4375-.328125.796875-.390625.953125l-.53125 1.203125-1.78125 4.046875c-.125.296875-.328125.484375-.546875.5l-.359375.03125v.296875c.921875-.03125.921875-.03125 1.078125-.03125.140625 0 .140625 0 1.21875.03125v-.296875l-.375-.03125c-.34375-.03125-.484375-.109375-.484375-.265625 0-.125.140625-.5625.359375-1.0625l.28125-.671875h2.875l.453125 1.15625c.171875.421875.21875.546875.21875.640625 0 .109375-.15625.1875-.40625.203125l-.46875.03125v.296875c1.21875-.03125 1.21875-.03125 1.390625-.03125.1875 0 .1875 0 1.265625.03125v-.296875l-.34375-.03125c-.265625-.046875-.375-.21875-.71875-1.015625zm-1.671875 4.3125 1.265625-2.984375 1.265625 2.984375zm0 0"/></symbol><symbol id="j" overflow="visible"><path d="m2.046875-1.234375c-.28125.09375-.453125.15625-.984375.296875-.078125.765625-.328125 1.421875-.90625 2.375l.140625.109375.40625-.1875c.8125-1.046875 1.203125-1.671875 1.484375-2.453125zm0 0"/></symbol><symbol id="k" overflow="visible"><path d="m1.5-7.1875-.09375-.078125c-.4375.171875-.765625.25-1.5625.375v.28125h.5625c.1875 0 .25.109375.25.40625v4.671875c0 .625 0 .890625-.078125 1.59375l.15625.0625.40625-.359375c.40625.25.765625.359375 1.296875.359375.375 0 .640625-.078125.859375-.21875l1-.71875c.4375-.328125.78125-1.15625.78125-1.890625 0-1.15625-.75-1.984375-1.8125-1.984375-.46875 0-.953125.171875-1.21875.4375l-.546875.5625zm0 4.109375c0-.140625.09375-.328125.265625-.5.28125-.296875.671875-.46875 1.078125-.46875.84375 0 1.359375.6875 1.359375 1.75 0 1.125-.59375 1.90625-1.4375 1.90625-.53125 0-1.265625-.3125-1.265625-.546875zm0 0"/></symbol><symbol id="l" overflow="visible"><path d="m.234375-6.609375h.5625c.171875 0 .25.109375.25.40625v5.1875c0 .625-.03125.703125-.375.71875l-.46875.03125v.296875c1-.03125 1-.03125 1.25-.03125s.25 0 1.25.03125v-.296875l-.453125-.03125c-.34375-.015625-.375-.09375-.375-.71875v-6.171875l-.078125-.078125c-.453125.171875-.78125.25-1.5625.375zm0 0"/></symbol><symbol id="m" overflow="visible"><path d="m5.03125-4.65625-.09375-.03125c-.5.203125-1.03125.34375-1.5625.40625v.28125h.375c.40625 0 .4375.0625.4375.734375v1.625c0 .21875-.140625.5-.375.734375-.265625.28125-.59375.421875-.984375.421875-.34375 0-.625-.109375-.78125-.3125-.140625-.15625-.21875-.46875-.21875-.90625v-2.953125l-.09375-.03125c-.5.203125-1.03125.34375-1.546875.40625v.28125h.359375c.40625 0 .4375.0625.4375.734375v1.671875c0 .703125.0625 1.015625.25 1.265625.21875.296875.59375.453125 1.171875.453125.4375 0 .84375-.140625 1.109375-.390625l.671875-.625c0 .296875 0 .453125-.03125.921875.65625-.03125.671875-.03125.828125-.03125.140625 0 .140625 0 .828125.03125v-.296875l-.40625-.03125c-.34375-.015625-.375-.078125-.375-.71875zm0 0"/></symbol><symbol id="n" overflow="visible"><path d="m4.375-.703125-.140625-.09375c-.640625.375-.859375.46875-1.296875.46875-.640625 0-1.1875-.296875-1.46875-.78125-.1875-.328125-.265625-.609375-.28125-1.1875h1.46875c.6875 0 1.109375-.03125 1.796875-.140625.015625-.140625.03125-.234375.03125-.359375 0-1.140625-.75-1.890625-1.859375-1.890625-.375 0-.8125.125-1.21875.375-.8125.46875-1.140625 1.078125-1.140625 2.125 0 .625.140625 1.171875.421875 1.546875.390625.53125 1.0625.84375 1.8125.84375.375 0 .734375-.078125 1.15625-.265625.265625-.109375.46875-.234375.515625-.296875zm-.78125-1.96875c-.53125.015625-.765625.03125-1.125.03125-.453125 0-.71875-.015625-1.265625-.0625 0-.46875.046875-.6875.171875-.953125.21875-.4375.640625-.703125 1.125-.703125.328125 0 .59375.125.765625.40625.21875.328125.296875.609375.328125 1.28125zm0 0"/></symbol><symbol id="o" overflow="visible"><path d="m3.234375-.8125-.046875.84375c.65625-.03125.65625-.03125.78125-.03125.046875 0 .296875.015625.734375.03125v-.296875l-.390625-.03125c-.234375 0-.265625-.078125-.265625-.578125v-1.828125c0-1.453125-.421875-1.984375-1.59375-1.984375-.421875 0-.828125.109375-1.203125.34375l-.53125.3125v.65625l.265625.0625.125-.3125c.203125-.46875.3125-.53125.765625-.53125.9375 0 1.328125.359375 1.359375 1.28125l-.984375.171875c-1.359375.25-1.9375.71875-1.9375 1.59375 0 .78125.484375 1.234375 1.265625 1.234375.1875 0 .359375-.03125.421875-.078125zm0-.421875c-.28125.40625-.921875.78125-1.296875.78125-.40625 0-.75-.359375-.75-.796875 0-.375.1875-.71875.5-.90625.25-.15625.796875-.296875 1.546875-.40625zm0 0"/></symbol><symbol id="p" overflow="visible"><path d="m.515625 2.15625c.6875-.65625.96875-.984375 1.28125-1.46875.609375-.984375.9375-2.140625.9375-3.34375 0-.765625-.140625-1.46875-.390625-2.140625-.390625-.96875-.796875-1.515625-1.828125-2.46875l-.203125.265625c.734375.859375 1 1.328125 1.25 2.15625.203125.640625.3125 1.359375.3125 2.1875 0 .84375-.109375 1.609375-.3125 2.328125-.265625.890625-.515625 1.375-1.25 2.265625zm0 0"/></symbol><symbol id="q" overflow="visible"><path d="m4.125-4.375c-.5625-.234375-.84375-.3125-1.1875-.3125-.28125 0-.515625.0625-.765625.1875l-.875.453125c-.578125.3125-.953125 1.03125-.953125 1.890625 0 .796875.28125 1.453125.765625 1.859375.34375.28125.8125.421875 1.453125.421875.203125 0 .4375-.046875.484375-.078125l1.109375-.9375-.046875.921875c.484375-.015625.65625-.03125.765625-.03125.078125 0 .21875 0 .4375.015625.0625 0 .265625 0 .484375.015625v-.296875l-.46875-.03125c-.34375-.015625-.375-.09375-.375-.71875v-6.171875l-.078125-.078125c-.4375.171875-.78125.25-1.5625.375v.28125h.5625c.171875 0 .25.109375.25.40625zm0 2.171875c0 .640625-.03125.75-.15625.96875-.28125.46875-.765625.78125-1.234375.78125-.890625 0-1.515625-.84375-1.515625-2.03125 0-1.09375.546875-1.734375 1.4375-1.734375.390625 0 .78125.125 1.140625.375.203125.140625.328125.265625.328125.34375zm0 0"/></symbol><symbol id="r" overflow="visible"><path d="m3.375-6.921875c-1.390625.03125-1.390625.03125-1.53125.03125-.1875 0-.1875 0-1.578125-.03125v.296875l.359375.03125c.46875.046875.5.109375.5.90625v4.734375c0 .375-.078125.59375-.21875.65625l-.25.09375v.234375c.6875-.015625.890625-.03125 1.078125-.03125.109375 0 .21875 0 .34375.015625.796875.015625.796875.015625.90625.015625.71875 0 1.390625-.1875 1.828125-.515625.59375-.421875.953125-1.09375.953125-1.796875 0-.515625-.203125-.921875-.578125-1.1875-.390625-.28125-.734375-.375-1.5-.4375.5-.09375.71875-.1875 1-.375.484375-.328125.734375-.765625.734375-1.28125 0-.875-.625-1.359375-1.796875-1.359375zm-1.296875 3.296875c.390625-.015625.484375-.015625.671875-.015625 1.34375 0 1.984375.484375 1.984375 1.5625 0 1.0625-.6875 1.6875-1.890625 1.6875-.28125 0-.515625-.015625-.765625-.078125zm0-2.8125c.265625-.0625.484375-.078125.8125-.078125 1.0625 0 1.546875.359375 1.546875 1.1875 0 .875-.609375 1.34375-1.75 1.34375-.171875 0-.296875 0-.609375-.03125zm0 0"/></symbol><g fill="none" stroke-linecap="round" stroke-linejoin="round" stroke-miterlimit="10" transform="matrix(.1 0 0 -.1 0 216.81)"><path d="m45 1083.725 579.0625 579.0625" stroke="#20b2aa" stroke-opacity=".8" stroke-width="19.9937"/><path d="m45 1083.725 579.0625-579.101563" stroke="#998100" stroke-opacity=".8" stroke-width="19.9937"/><g stroke-width="11.9962"><path d="m624.0625 1662.7875 709.257812 409.492187" stroke="#191970"/><path d="m624.0625 1662.7875 709.257812-409.453125" stroke="#8b0000"/><path d="m624.0625 504.623437 709.257812 409.492188" stroke="#191970"/><path d="m624.0625 504.623437 709.257812-409.492187" stroke="#8b0000"/></g></g><g fill="#20b2aa"><use x="37.2" xlink:href="#a" y="88.29"/><path d="m37.1875 89.742188h4.558594v.480468h-4.558594zm0 0"/><use x="37.2" xlink:href="#b" y="97.05"/></g><use fill="#998100" x="25.3199" xlink:href="#c" y="146.01"/><path d="m25.308594 147.460938h4.558594v.480468h-4.558594zm0 0" fill="#998100"/><use fill="#998100" x="25.3199" xlink:href="#b" y="154.8901"/><use fill="#191970" x="99.4801" xlink:href="#a" y="39.33"/><path d="m99.46875 40.902344h4.558594v.480468h-4.558594zm0 0" fill="#191970"/><use fill="#191970" x="99.4801" xlink:href="#c" y="48.21"/><use fill="#8b0000" x="91.9199" xlink:href="#a" y="80.37"/><path d="m91.90625 81.820312h4.558594v.480469h-4.558594zm0 0" fill="#8b0000"/><use fill="#8b0000" x="91.9199" xlink:href="#c" y="89.13"/><use fill="#191970" x="99.4801" xlink:href="#b" y="155.1299"/><path d="m99.46875 156.582031h4.558594v.480469h-4.558594zm0 0" fill="#191970"/><use fill="#191970" x="99.4801" xlink:href="#d" y="163.8901"/><use fill="#8b0000" x="91.9199" xlink:href="#a" y="196.1698"/><path d="m91.90625 197.621094h4.558594v.480468h-4.558594zm0 0" fill="#8b0000"/><use fill="#8b0000" x="91.9199" xlink:href="#d" y="205.0498"/><use x="145.44" xlink:href="#e" y="12.09"/><use x="148.8" xlink:href="#f" y="12.09"/><use x="156.6" xlink:href="#g" y="12.09"/><use x="160.56" xlink:href="#h" y="12.09"/><use x="168.72008" xlink:href="#i" y="12.09"/><use x="176.52008" xlink:href="#j" y="12.09"/><use x="181.55993" xlink:href="#k" y="12.09"/><use x="187.07993" xlink:href="#l" y="12.09"/><use x="189.95993" xlink:href="#m" y="12.09"/><use x="195.95993" xlink:href="#n" y="12.09"/><use x="203.27985" xlink:href="#k" y="12.09"/><use x="208.79985" xlink:href="#o" y="12.09"/><use x="213.839865" xlink:href="#l" y="12.09"/><use x="216.719835" xlink:href="#l" y="12.09"/><use x="219.599835" xlink:href="#p" y="12.09"/><use x="145.44" xlink:href="#e" y="94.0498"/><use x="148.8" xlink:href="#f" y="94.0498"/><use x="156.6" xlink:href="#g" y="94.0498"/><use x="160.56" xlink:href="#h" y="94.0498"/><use x="168.72008" xlink:href="#i" y="94.0498"/><use x="176.52008" xlink:href="#j" y="94.0498"/><use x="181.55993" xlink:href="#g" y="94.0498"/><use x="185.399776" xlink:href="#n" y="94.0498"/><use x="190.199776" xlink:href="#q" y="94.0498"/><use x="198.719686" xlink:href="#k" y="94.0498"/><use x="204.239686" xlink:href="#o" y="94.0498"/><use x="209.279701" xlink:href="#l" y="94.0498"/><use x="212.159671" xlink:href="#l" y="94.0498"/><use x="215.039671" xlink:href="#p" y="94.0498"/><use x="145.44" xlink:href="#e" y="127.89"/><use x="148.8" xlink:href="#f" y="127.89"/><use x="156.6" xlink:href="#g" y="127.89"/><use x="160.56" xlink:href="#h" y="127.89"/><use x="168.72008" xlink:href="#r" y="127.89"/><use x="174.840065" xlink:href="#j" y="127.89"/><use x="179.880215" xlink:href="#k" y="127.89"/><use x="185.400215" xlink:href="#l" y="127.89"/><use x="188.280215" xlink:href="#m" y="127.89"/><use x="194.280215" xlink:href="#n" y="127.89"/><use x="201.600135" xlink:href="#k" y="127.89"/><use x="207.120135" xlink:href="#o" y="127.89"/><use x="212.16015" xlink:href="#l" y="127.89"/><use x="215.040121" xlink:href="#l" y="127.89"/><use x="217.920121" xlink:href="#p" y="127.89"/><use x="145.44" xlink:href="#e" y="209.8498"/><use x="148.8" xlink:href="#f" y="209.8498"/><use x="156.6" xlink:href="#g" y="209.8498"/><use x="160.56" xlink:href="#h" y="209.8498"/><use x="168.72008" xlink:href="#r" y="209.8498"/><use x="174.840065" xlink:href="#j" y="209.8498"/><use x="179.880215" xlink:href="#g" y="209.8498"/><use x="183.720061" xlink:href="#n" y="209.8498"/><use x="188.520061" xlink:href="#q" y="209.8498"/><use x="197.039971" xlink:href="#k" y="209.8498"/><use x="202.559971" xlink:href="#o" y="209.8498"/><use x="207.599986" xlink:href="#l" y="209.8498"/><use x="210.479957" xlink:href="#l" y="209.8498"/><use x="213.359957" xlink:href="#p" y="209.8498"/></svg>