<?xml version="1.0" encoding="utf-8"?>
<svg xmlns="http://www.w3.org/2000/svg" xmlns:xlink="http://www.w3.org/1999/xlink" width="600" height="400" viewBox="0 0 2400 1600">
<defs>
  <clipPath id="clip6600">
    <rect x="0" y="0" width="2400" height="1600"/>
  </clipPath>
</defs>
<path clip-path="url(#clip6600)" d="
M0 1600 L2400 1600 L2400 0 L0 0  Z
  " fill="#f7ece2" fill-rule="evenodd" fill-opacity="1"/>
<defs>
  <clipPath id="clip6601">
    <rect x="480" y="0" width="1681" height="1600"/>
  </clipPath>
</defs>
<path clip-path="url(#clip6600)" d="
M401.839 1479.96 L2352.76 1479.96 L2352.76 47.2441 L401.839 47.2441  Z
  " fill="#f7ece2" fill-rule="evenodd" fill-opacity="1"/>
<defs>
  <clipPath id="clip6602">
    <rect x="401" y="47" width="1952" height="1434"/>
  </clipPath>
</defs>
<polyline clip-path="url(#clip6602)" style="stroke:#000000; stroke-width:2; stroke-opacity:0.1; fill:none" points="
  661.597,1479.96 661.597,47.2441 
  "/>
<polyline clip-path="url(#clip6602)" style="stroke:#000000; stroke-width:2; stroke-opacity:0.1; fill:none" points="
  1071.51,1479.96 1071.51,47.2441 
  "/>
<polyline clip-path="url(#clip6602)" style="stroke:#000000; stroke-width:2; stroke-opacity:0.1; fill:none" points="
  1481.41,1479.96 1481.41,47.2441 
  "/>
<polyline clip-path="url(#clip6602)" style="stroke:#000000; stroke-width:2; stroke-opacity:0.1; fill:none" points="
  1891.32,1479.96 1891.32,47.2441 
  "/>
<polyline clip-path="url(#clip6602)" style="stroke:#000000; stroke-width:2; stroke-opacity:0.1; fill:none" points="
  2301.23,1479.96 2301.23,47.2441 
  "/>
<polyline clip-path="url(#clip6602)" style="stroke:#000000; stroke-width:2; stroke-opacity:0.1; fill:none" points="
  401.839,1439.41 2352.76,1439.41 
  "/>
<polyline clip-path="url(#clip6602)" style="stroke:#000000; stroke-width:2; stroke-opacity:0.1; fill:none" points="
  401.839,1123.93 2352.76,1123.93 
  "/>
<polyline clip-path="url(#clip6602)" style="stroke:#000000; stroke-width:2; stroke-opacity:0.1; fill:none" points="
  401.839,808.445 2352.76,808.445 
  "/>
<polyline clip-path="url(#clip6602)" style="stroke:#000000; stroke-width:2; stroke-opacity:0.1; fill:none" points="
  401.839,492.961 2352.76,492.961 
  "/>
<polyline clip-path="url(#clip6602)" style="stroke:#000000; stroke-width:2; stroke-opacity:0.1; fill:none" points="
  401.839,177.477 2352.76,177.477 
  "/>
<polyline clip-path="url(#clip6600)" style="stroke:#000000; stroke-width:4; stroke-opacity:1; fill:none" points="
  401.839,1479.96 2352.76,1479.96 
  "/>
<polyline clip-path="url(#clip6600)" style="stroke:#000000; stroke-width:4; stroke-opacity:1; fill:none" points="
  401.839,1479.96 401.839,47.2441 
  "/>
<polyline clip-path="url(#clip6600)" style="stroke:#000000; stroke-width:4; stroke-opacity:1; fill:none" points="
  661.597,1479.96 661.597,1458.47 
  "/>
<polyline clip-path="url(#clip6600)" style="stroke:#000000; stroke-width:4; stroke-opacity:1; fill:none" points="
  1071.51,1479.96 1071.51,1458.47 
  "/>
<polyline clip-path="url(#clip6600)" style="stroke:#000000; stroke-width:4; stroke-opacity:1; fill:none" points="
  1481.41,1479.96 1481.41,1458.47 
  "/>
<polyline clip-path="url(#clip6600)" style="stroke:#000000; stroke-width:4; stroke-opacity:1; fill:none" points="
  1891.32,1479.96 1891.32,1458.47 
  "/>
<polyline clip-path="url(#clip6600)" style="stroke:#000000; stroke-width:4; stroke-opacity:1; fill:none" points="
  2301.23,1479.96 2301.23,1458.47 
  "/>
<polyline clip-path="url(#clip6600)" style="stroke:#000000; stroke-width:4; stroke-opacity:1; fill:none" points="
  401.839,1439.41 431.102,1439.41 
  "/>
<polyline clip-path="url(#clip6600)" style="stroke:#000000; stroke-width:4; stroke-opacity:1; fill:none" points="
  401.839,1123.93 431.102,1123.93 
  "/>
<polyline clip-path="url(#clip6600)" style="stroke:#000000; stroke-width:4; stroke-opacity:1; fill:none" points="
  401.839,808.445 431.102,808.445 
  "/>
<polyline clip-path="url(#clip6600)" style="stroke:#000000; stroke-width:4; stroke-opacity:1; fill:none" points="
  401.839,492.961 431.102,492.961 
  "/>
<polyline clip-path="url(#clip6600)" style="stroke:#000000; stroke-width:4; stroke-opacity:1; fill:none" points="
  401.839,177.477 431.102,177.477 
  "/>
<g clip-path="url(#clip6600)">
<text style="fill:#000000; fill-opacity:1; font-family:Arial,Helvetica Neue,Helvetica,sans-serif; font-size:48px; text-anchor:middle;" transform="rotate(0, 661.597, 1533.96)" x="661.597" y="1533.96">6</text>
</g>
<g clip-path="url(#clip6600)">
<text style="fill:#000000; fill-opacity:1; font-family:Arial,Helvetica Neue,Helvetica,sans-serif; font-size:48px; text-anchor:middle;" transform="rotate(0, 1071.51, 1533.96)" x="1071.51" y="1533.96">7</text>
</g>
<g clip-path="url(#clip6600)">
<text style="fill:#000000; fill-opacity:1; font-family:Arial,Helvetica Neue,Helvetica,sans-serif; font-size:48px; text-anchor:middle;" transform="rotate(0, 1481.41, 1533.96)" x="1481.41" y="1533.96">8</text>
</g>
<g clip-path="url(#clip6600)">
<text style="fill:#000000; fill-opacity:1; font-family:Arial,Helvetica Neue,Helvetica,sans-serif; font-size:48px; text-anchor:middle;" transform="rotate(0, 1891.32, 1533.96)" x="1891.32" y="1533.96">9</text>
</g>
<g clip-path="url(#clip6600)">
<text style="fill:#000000; fill-opacity:1; font-family:Arial,Helvetica Neue,Helvetica,sans-serif; font-size:48px; text-anchor:middle;" transform="rotate(0, 2301.23, 1533.96)" x="2301.23" y="1533.96">10</text>
</g>
<g clip-path="url(#clip6600)">
<text style="fill:#000000; fill-opacity:1; font-family:Arial,Helvetica Neue,Helvetica,sans-serif; font-size:48px; text-anchor:end;" transform="rotate(0, 377.839, 1456.91)" x="377.839" y="1456.91">0</text>
</g>
<g clip-path="url(#clip6600)">
<text style="fill:#000000; fill-opacity:1; font-family:Arial,Helvetica Neue,Helvetica,sans-serif; font-size:48px; text-anchor:start;" transform="rotate(0, 184.714, 1147.66)" x="184.714" y="1147.66">2.5×10</text>
</g>
<g clip-path="url(#clip6600)">
<text style="fill:#000000; fill-opacity:1; font-family:Arial,Helvetica Neue,Helvetica,sans-serif; font-size:38px; text-anchor:start;" transform="rotate(0, 333.255, 1120.25)" x="333.255" y="1120.25">-</text>
</g>
<g clip-path="url(#clip6600)">
<text style="fill:#000000; fill-opacity:1; font-family:Arial,Helvetica Neue,Helvetica,sans-serif; font-size:38px; text-anchor:start;" transform="rotate(0, 356.094, 1120.25)" x="356.094" y="1120.25">8</text>
</g>
<g clip-path="url(#clip6600)">
<text style="fill:#000000; fill-opacity:1; font-family:Arial,Helvetica Neue,Helvetica,sans-serif; font-size:48px; text-anchor:start;" transform="rotate(0, 184.714, 832.173)" x="184.714" y="832.173">5.0×10</text>
</g>
<g clip-path="url(#clip6600)">
<text style="fill:#000000; fill-opacity:1; font-family:Arial,Helvetica Neue,Helvetica,sans-serif; font-size:38px; text-anchor:start;" transform="rotate(0, 333.255, 804.762)" x="333.255" y="804.762">-</text>
</g>
<g clip-path="url(#clip6600)">
<text style="fill:#000000; fill-opacity:1; font-family:Arial,Helvetica Neue,Helvetica,sans-serif; font-size:38px; text-anchor:start;" transform="rotate(0, 356.094, 804.762)" x="356.094" y="804.762">8</text>
</g>
<g clip-path="url(#clip6600)">
<text style="fill:#000000; fill-opacity:1; font-family:Arial,Helvetica Neue,Helvetica,sans-serif; font-size:48px; text-anchor:start;" transform="rotate(0, 184.714, 516.688)" x="184.714" y="516.688">7.5×10</text>
</g>
<g clip-path="url(#clip6600)">
<text style="fill:#000000; fill-opacity:1; font-family:Arial,Helvetica Neue,Helvetica,sans-serif; font-size:38px; text-anchor:start;" transform="rotate(0, 333.255, 489.278)" x="333.255" y="489.278">-</text>
</g>
<g clip-path="url(#clip6600)">
<text style="fill:#000000; fill-opacity:1; font-family:Arial,Helvetica Neue,Helvetica,sans-serif; font-size:38px; text-anchor:start;" transform="rotate(0, 356.094, 489.278)" x="356.094" y="489.278">8</text>
</g>
<g clip-path="url(#clip6600)">
<text style="fill:#000000; fill-opacity:1; font-family:Arial,Helvetica Neue,Helvetica,sans-serif; font-size:48px; text-anchor:start;" transform="rotate(0, 184.714, 201.204)" x="184.714" y="201.204">1.0×10</text>
</g>
<g clip-path="url(#clip6600)">
<text style="fill:#000000; fill-opacity:1; font-family:Arial,Helvetica Neue,Helvetica,sans-serif; font-size:38px; text-anchor:start;" transform="rotate(0, 333.255, 173.794)" x="333.255" y="173.794">-</text>
</g>
<g clip-path="url(#clip6600)">
<text style="fill:#000000; fill-opacity:1; font-family:Arial,Helvetica Neue,Helvetica,sans-serif; font-size:38px; text-anchor:start;" transform="rotate(0, 356.094, 173.794)" x="356.094" y="173.794">7</text>
</g>
<polyline clip-path="url(#clip6602)" style="stroke:#009af9; stroke-width:4; stroke-opacity:1; fill:none" points="
  457.053,87.7927 461.152,160.201 465.251,228.852 469.35,293.933 473.449,355.623 477.549,414.094 481.648,469.507 485.747,522.017 489.846,571.771 493.945,618.909 
  498.044,663.563 502.143,705.861 506.242,745.922 510.341,783.86 514.44,819.785 518.539,853.8 522.638,886.003 526.738,916.488 530.837,945.342 534.936,972.651 
  539.035,998.495 543.134,1022.95 547.233,1046.09 551.332,1067.98 555.431,1088.68 559.53,1108.27 563.629,1126.79 567.728,1144.31 571.827,1160.87 575.927,1176.53 
  580.026,1191.33 584.125,1205.32 588.224,1218.55 592.323,1231.05 596.422,1242.86 600.521,1254.02 604.62,1264.57 608.719,1274.53 612.818,1283.94 616.917,1292.83 
  621.016,1301.22 625.116,1309.14 629.215,1316.63 633.314,1323.69 637.413,1330.36 641.512,1336.66 645.611,1342.6 649.71,1348.21 653.809,1353.5 657.908,1358.49 
  662.007,1363.2 666.106,1367.64 670.205,1371.83 674.305,1375.78 678.404,1379.51 682.503,1383.03 686.602,1386.34 690.701,1389.46 694.8,1392.41 698.899,1395.18 
  702.998,1397.8 707.097,1400.26 711.196,1402.59 715.295,1404.77 719.394,1406.84 723.494,1408.78 727.593,1410.61 731.692,1412.33 735.791,1413.95 739.89,1415.48 
  743.989,1416.92 748.088,1418.27 752.187,1419.54 756.286,1420.74 760.385,1421.87 764.484,1422.94 768.583,1423.93 772.683,1424.87 776.782,1425.76 780.881,1426.59 
  784.98,1427.37 789.079,1428.11 793.178,1428.8 797.277,1429.45 801.376,1430.06 805.475,1430.64 809.574,1431.18 813.673,1431.69 817.772,1432.16 821.872,1432.61 
  825.971,1433.03 830.07,1433.43 834.169,1433.8 838.268,1434.15 842.367,1434.48 846.466,1434.79 850.565,1435.08 854.664,1435.35 858.763,1435.6 862.862,1435.84 
  866.961,1436.07 871.06,1436.28 875.16,1436.48 879.259,1436.66 883.358,1436.84 887.457,1437 891.556,1437.15 895.655,1437.3 899.754,1437.43 903.853,1437.56 
  907.952,1437.68 912.051,1437.79 916.15,1437.89 920.249,1437.99 924.349,1438.08 928.448,1438.17 932.547,1438.25 936.646,1438.32 940.745,1438.39 944.844,1438.46 
  948.943,1438.52 953.042,1438.58 957.141,1438.63 961.24,1438.68 965.339,1438.73 969.438,1438.77 973.538,1438.82 977.637,1438.86 981.736,1438.89 985.835,1438.93 
  989.934,1438.96 994.033,1438.99 998.132,1439.02 1002.23,1439.04 1006.33,1439.07 1010.43,1439.09 1014.53,1439.11 1018.63,1439.13 1022.73,1439.15 1026.83,1439.17 
  1030.92,1439.18 1035.02,1439.2 1039.12,1439.21 1043.22,1439.23 1047.32,1439.24 1051.42,1439.25 1055.52,1439.26 1059.62,1439.27 1063.72,1439.28 1067.82,1439.29 
  1071.92,1439.3 1076.01,1439.31 1080.11,1439.31 1084.21,1439.32 1088.31,1439.33 1092.41,1439.33 1096.51,1439.34 1100.61,1439.34 1104.71,1439.35 1108.81,1439.35 
  1112.91,1439.36 1117.01,1439.36 1121.1,1439.36 1125.2,1439.37 1129.3,1439.37 1133.4,1439.37 1137.5,1439.38 1141.6,1439.38 1145.7,1439.38 1149.8,1439.38 
  1153.9,1439.39 1158,1439.39 1162.1,1439.39 1166.19,1439.39 1170.29,1439.39 1174.39,1439.39 1178.49,1439.4 1182.59,1439.4 1186.69,1439.4 1190.79,1439.4 
  1194.89,1439.4 1198.99,1439.4 1203.09,1439.4 1207.19,1439.4 1211.28,1439.4 1215.38,1439.4 1219.48,1439.4 1223.58,1439.41 1227.68,1439.41 1231.78,1439.41 
  1235.88,1439.41 1239.98,1439.41 1244.08,1439.41 1248.18,1439.41 1252.28,1439.41 1256.37,1439.41 1260.47,1439.41 1264.57,1439.41 1268.67,1439.41 1272.77,1439.41 
  1276.87,1439.41 1280.97,1439.41 1285.07,1439.41 1289.17,1439.41 1293.27,1439.41 1297.37,1439.41 1301.46,1439.41 1305.56,1439.41 1309.66,1439.41 1313.76,1439.41 
  1317.86,1439.41 1321.96,1439.41 1326.06,1439.41 1330.16,1439.41 1334.26,1439.41 1338.36,1439.41 1342.46,1439.41 1346.55,1439.41 1350.65,1439.41 1354.75,1439.41 
  1358.85,1439.41 1362.95,1439.41 1367.05,1439.41 1371.15,1439.41 1375.25,1439.41 1379.35,1439.41 1383.45,1439.41 1387.54,1439.41 1391.64,1439.41 1395.74,1439.41 
  1399.84,1439.41 1403.94,1439.41 1408.04,1439.41 1412.14,1439.41 1416.24,1439.41 1420.34,1439.41 1424.44,1439.41 1428.54,1439.41 1432.63,1439.41 1436.73,1439.41 
  1440.83,1439.41 1444.93,1439.41 1449.03,1439.41 1453.13,1439.41 1457.23,1439.41 1461.33,1439.41 1465.43,1439.41 1469.53,1439.41 1473.63,1439.41 1477.72,1439.41 
  1481.82,1439.41 1485.92,1439.41 1490.02,1439.41 1494.12,1439.41 1498.22,1439.41 1502.32,1439.41 1506.42,1439.41 1510.52,1439.41 1514.62,1439.41 1518.72,1439.41 
  1522.81,1439.41 1526.91,1439.41 1531.01,1439.41 1535.11,1439.41 1539.21,1439.41 1543.31,1439.41 1547.41,1439.41 1551.51,1439.41 1555.61,1439.41 1559.71,1439.41 
  1563.81,1439.41 1567.9,1439.41 1572,1439.41 1576.1,1439.41 1580.2,1439.41 1584.3,1439.41 1588.4,1439.41 1592.5,1439.41 1596.6,1439.41 1600.7,1439.41 
  1604.8,1439.41 1608.9,1439.41 1612.99,1439.41 1617.09,1439.41 1621.19,1439.41 1625.29,1439.41 1629.39,1439.41 1633.49,1439.41 1637.59,1439.41 1641.69,1439.41 
  1645.79,1439.41 1649.89,1439.41 1653.99,1439.41 1658.08,1439.41 1662.18,1439.41 1666.28,1439.41 1670.38,1439.41 1674.48,1439.41 1678.58,1439.41 1682.68,1439.41 
  1686.78,1439.41 1690.88,1439.41 1694.98,1439.41 1699.08,1439.41 1703.17,1439.41 1707.27,1439.41 1711.37,1439.41 1715.47,1439.41 1719.57,1439.41 1723.67,1439.41 
  1727.77,1439.41 1731.87,1439.41 1735.97,1439.41 1740.07,1439.41 1744.17,1439.41 1748.26,1439.41 1752.36,1439.41 1756.46,1439.41 1760.56,1439.41 1764.66,1439.41 
  1768.76,1439.41 1772.86,1439.41 1776.96,1439.41 1781.06,1439.41 1785.16,1439.41 1789.26,1439.41 1793.35,1439.41 1797.45,1439.41 1801.55,1439.41 1805.65,1439.41 
  1809.75,1439.41 1813.85,1439.41 1817.95,1439.41 1822.05,1439.41 1826.15,1439.41 1830.25,1439.41 1834.34,1439.41 1838.44,1439.41 1842.54,1439.41 1846.64,1439.41 
  1850.74,1439.41 1854.84,1439.41 1858.94,1439.41 1863.04,1439.41 1867.14,1439.41 1871.24,1439.41 1875.34,1439.41 1879.43,1439.41 1883.53,1439.41 1887.63,1439.41 
  1891.73,1439.41 1895.83,1439.41 1899.93,1439.41 1904.03,1439.41 1908.13,1439.41 1912.23,1439.41 1916.33,1439.41 1920.43,1439.41 1924.52,1439.41 1928.62,1439.41 
  1932.72,1439.41 1936.82,1439.41 1940.92,1439.41 1945.02,1439.41 1949.12,1439.41 1953.22,1439.41 1957.32,1439.41 1961.42,1439.41 1965.52,1439.41 1969.61,1439.41 
  1973.71,1439.41 1977.81,1439.41 1981.91,1439.41 1986.01,1439.41 1990.11,1439.41 1994.21,1439.41 1998.31,1439.41 2002.41,1439.41 2006.51,1439.41 2010.61,1439.41 
  2014.7,1439.41 2018.8,1439.41 2022.9,1439.41 2027,1439.41 2031.1,1439.41 2035.2,1439.41 2039.3,1439.41 2043.4,1439.41 2047.5,1439.41 2051.6,1439.41 
  2055.7,1439.41 2059.79,1439.41 2063.89,1439.41 2067.99,1439.41 2072.09,1439.41 2076.19,1439.41 2080.29,1439.41 2084.39,1439.41 2088.49,1439.41 2092.59,1439.41 
  2096.69,1439.41 2100.79,1439.41 2104.88,1439.41 2108.98,1439.41 2113.08,1439.41 2117.18,1439.41 2121.28,1439.41 2125.38,1439.41 2129.48,1439.41 2133.58,1439.41 
  2137.68,1439.41 2141.78,1439.41 2145.88,1439.41 2149.97,1439.41 2154.07,1439.41 2158.17,1439.41 2162.27,1439.41 2166.37,1439.41 2170.47,1439.41 2174.57,1439.41 
  2178.67,1439.41 2182.77,1439.41 2186.87,1439.41 2190.97,1439.41 2195.06,1439.41 2199.16,1439.41 2203.26,1439.41 2207.36,1439.41 2211.46,1439.41 2215.56,1439.41 
  2219.66,1439.41 2223.76,1439.41 2227.86,1439.41 2231.96,1439.41 2236.06,1439.41 2240.15,1439.41 2244.25,1439.41 2248.35,1439.41 2252.45,1439.41 2256.55,1439.41 
  2260.65,1439.41 2264.75,1439.41 2268.85,1439.41 2272.95,1439.41 2277.05,1439.41 2281.14,1439.41 2285.24,1439.41 2289.34,1439.41 2293.44,1439.41 2297.54,1439.41 
  
  "/>
</svg>
