<?xml version="1.0" encoding="utf-8"?>
<svg xmlns="http://www.w3.org/2000/svg" xmlns:xlink="http://www.w3.org/1999/xlink" width="600" height="400" viewBox="0 0 2400 1600">
<defs>
  <clipPath id="clip6800">
    <rect x="0" y="0" width="2400" height="1600"/>
  </clipPath>
</defs>
<path clip-path="url(#clip6800)" d="
M0 1600 L2400 1600 L2400 0 L0 0  Z
  " fill="#f7ece2" fill-rule="evenodd" fill-opacity="1"/>
<defs>
  <clipPath id="clip6801">
    <rect x="480" y="0" width="1681" height="1600"/>
  </clipPath>
</defs>
<path clip-path="url(#clip6800)" d="
M183.285 1372.86 L1121.61 1372.86 L1121.61 47.2441 L183.285 47.2441  Z
  " fill="#f7ece2" fill-rule="evenodd" fill-opacity="1"/>
<defs>
  <clipPath id="clip6802">
    <rect x="183" y="47" width="939" height="1327"/>
  </clipPath>
</defs>
<polyline clip-path="url(#clip6802)" style="stroke:#000000; stroke-width:2; stroke-opacity:0.1; fill:none" points="
  208.955,1372.86 208.955,47.2441 
  "/>
<polyline clip-path="url(#clip6802)" style="stroke:#000000; stroke-width:2; stroke-opacity:0.1; fill:none" points="
  430.48,1372.86 430.48,47.2441 
  "/>
<polyline clip-path="url(#clip6802)" style="stroke:#000000; stroke-width:2; stroke-opacity:0.1; fill:none" points="
  652.005,1372.86 652.005,47.2441 
  "/>
<polyline clip-path="url(#clip6802)" style="stroke:#000000; stroke-width:2; stroke-opacity:0.1; fill:none" points="
  873.53,1372.86 873.53,47.2441 
  "/>
<polyline clip-path="url(#clip6802)" style="stroke:#000000; stroke-width:2; stroke-opacity:0.1; fill:none" points="
  1095.05,1372.86 1095.05,47.2441 
  "/>
<polyline clip-path="url(#clip6802)" style="stroke:#000000; stroke-width:2; stroke-opacity:0.1; fill:none" points="
  183.285,1367.13 1121.61,1367.13 
  "/>
<polyline clip-path="url(#clip6802)" style="stroke:#000000; stroke-width:2; stroke-opacity:0.1; fill:none" points="
  183.285,989.184 1121.61,989.184 
  "/>
<polyline clip-path="url(#clip6802)" style="stroke:#000000; stroke-width:2; stroke-opacity:0.1; fill:none" points="
  183.285,611.241 1121.61,611.241 
  "/>
<polyline clip-path="url(#clip6802)" style="stroke:#000000; stroke-width:2; stroke-opacity:0.1; fill:none" points="
  183.285,233.297 1121.61,233.297 
  "/>
<polyline clip-path="url(#clip6800)" style="stroke:#000000; stroke-width:4; stroke-opacity:1; fill:none" points="
  183.285,1372.86 1121.61,1372.86 
  "/>
<polyline clip-path="url(#clip6800)" style="stroke:#000000; stroke-width:4; stroke-opacity:1; fill:none" points="
  183.285,1372.86 183.285,47.2441 
  "/>
<polyline clip-path="url(#clip6800)" style="stroke:#000000; stroke-width:4; stroke-opacity:1; fill:none" points="
  208.955,1372.86 208.955,1352.97 
  "/>
<polyline clip-path="url(#clip6800)" style="stroke:#000000; stroke-width:4; stroke-opacity:1; fill:none" points="
  430.48,1372.86 430.48,1352.97 
  "/>
<polyline clip-path="url(#clip6800)" style="stroke:#000000; stroke-width:4; stroke-opacity:1; fill:none" points="
  652.005,1372.86 652.005,1352.97 
  "/>
<polyline clip-path="url(#clip6800)" style="stroke:#000000; stroke-width:4; stroke-opacity:1; fill:none" points="
  873.53,1372.86 873.53,1352.97 
  "/>
<polyline clip-path="url(#clip6800)" style="stroke:#000000; stroke-width:4; stroke-opacity:1; fill:none" points="
  1095.05,1372.86 1095.05,1352.97 
  "/>
<polyline clip-path="url(#clip6800)" style="stroke:#000000; stroke-width:4; stroke-opacity:1; fill:none" points="
  183.285,1367.13 197.359,1367.13 
  "/>
<polyline clip-path="url(#clip6800)" style="stroke:#000000; stroke-width:4; stroke-opacity:1; fill:none" points="
  183.285,989.184 197.359,989.184 
  "/>
<polyline clip-path="url(#clip6800)" style="stroke:#000000; stroke-width:4; stroke-opacity:1; fill:none" points="
  183.285,611.241 197.359,611.241 
  "/>
<polyline clip-path="url(#clip6800)" style="stroke:#000000; stroke-width:4; stroke-opacity:1; fill:none" points="
  183.285,233.297 197.359,233.297 
  "/>
<g clip-path="url(#clip6800)">
<text style="fill:#000000; fill-opacity:1; font-family:Arial,Helvetica Neue,Helvetica,sans-serif; font-size:48px; text-anchor:middle;" transform="rotate(0, 208.955, 1426.86)" x="208.955" y="1426.86">0</text>
</g>
<g clip-path="url(#clip6800)">
<text style="fill:#000000; fill-opacity:1; font-family:Arial,Helvetica Neue,Helvetica,sans-serif; font-size:48px; text-anchor:middle;" transform="rotate(0, 430.48, 1426.86)" x="430.48" y="1426.86">250</text>
</g>
<g clip-path="url(#clip6800)">
<text style="fill:#000000; fill-opacity:1; font-family:Arial,Helvetica Neue,Helvetica,sans-serif; font-size:48px; text-anchor:middle;" transform="rotate(0, 652.005, 1426.86)" x="652.005" y="1426.86">500</text>
</g>
<g clip-path="url(#clip6800)">
<text style="fill:#000000; fill-opacity:1; font-family:Arial,Helvetica Neue,Helvetica,sans-serif; font-size:48px; text-anchor:middle;" transform="rotate(0, 873.53, 1426.86)" x="873.53" y="1426.86">750</text>
</g>
<g clip-path="url(#clip6800)">
<text style="fill:#000000; fill-opacity:1; font-family:Arial,Helvetica Neue,Helvetica,sans-serif; font-size:48px; text-anchor:middle;" transform="rotate(0, 1095.05, 1426.86)" x="1095.05" y="1426.86">1000</text>
</g>
<g clip-path="url(#clip6800)">
<text style="fill:#000000; fill-opacity:1; font-family:Arial,Helvetica Neue,Helvetica,sans-serif; font-size:48px; text-anchor:end;" transform="rotate(0, 159.285, 1384.63)" x="159.285" y="1384.63">0</text>
</g>
<g clip-path="url(#clip6800)">
<text style="fill:#000000; fill-opacity:1; font-family:Arial,Helvetica Neue,Helvetica,sans-serif; font-size:48px; text-anchor:end;" transform="rotate(0, 159.285, 1006.68)" x="159.285" y="1006.68">5</text>
</g>
<g clip-path="url(#clip6800)">
<text style="fill:#000000; fill-opacity:1; font-family:Arial,Helvetica Neue,Helvetica,sans-serif; font-size:48px; text-anchor:end;" transform="rotate(0, 159.285, 628.741)" x="159.285" y="628.741">10</text>
</g>
<g clip-path="url(#clip6800)">
<text style="fill:#000000; fill-opacity:1; font-family:Arial,Helvetica Neue,Helvetica,sans-serif; font-size:48px; text-anchor:end;" transform="rotate(0, 159.285, 250.797)" x="159.285" y="250.797">15</text>
</g>
<g clip-path="url(#clip6800)">
<text style="fill:#000000; fill-opacity:1; font-family:Arial,Helvetica Neue,Helvetica,sans-serif; font-size:66px; text-anchor:middle;" transform="rotate(0, 652.448, 1506.72)" x="652.448" y="1506.72">k</text>
</g>
<polyline clip-path="url(#clip6802)" style="stroke:#000014; stroke-width:4; stroke-opacity:1; fill:none" points="
  209.841,1302.12 210.727,1275.39 211.613,1101.54 212.499,1162.29 213.385,1047.99 214.272,868.648 215.158,889.014 216.044,792.987 216.93,656.209 217.816,656.209 
  218.702,535.697 219.588,535.697 220.474,615.879 221.36,615.879 222.246,690.366 223.133,526.571 224.019,592.423 224.905,592.423 225.791,585.135 226.677,585.135 
  227.563,657.208 228.449,988.228 229.335,1157.87 230.221,1021.1 231.107,1103.32 231.993,959.836 232.88,998.284 233.766,849.997 234.652,726.44 235.538,934.887 
  236.424,1130.19 237.31,1130.19 238.196,1137.17 239.082,1036.59 239.968,954.293 240.854,1029.28 241.741,1052.82 242.627,1038.05 243.513,1038.05 244.399,1038.05 
  245.285,959.817 246.171,1194.37 247.057,1194.37 247.943,1099.17 248.829,1237.26 249.715,1237.26 250.602,1121.79 251.488,1066.09 252.374,1124.47 253.26,1124.47 
  254.146,1121.21 255.032,1121.21 255.918,1010.16 256.804,1164.02 257.69,1191.9 258.576,1191.9 259.463,1191.9 260.349,1035.15 261.235,973.144 262.121,971.036 
  263.007,860.766 263.893,830.613 264.779,1088.52 265.665,1052.11 266.551,990.8 267.437,987.486 268.324,804.825 269.21,763.605 270.096,916.595 270.982,1102.25 
  271.868,1102.25 272.754,1230.83 273.64,1105.11 274.526,1046.56 275.412,1046.56 276.298,1024.44 277.185,1081.94 278.071,1081.94 278.957,1081.94 279.843,1112.74 
  280.729,1026.63 281.615,1011.18 282.501,1065.21 283.387,1156.71 284.273,1024.5 285.159,1085.37 286.046,1183.08 286.932,973.636 287.818,1087.55 288.704,1087.55 
  289.59,1064.8 290.476,1171.11 291.362,1171.11 292.248,1207.77 293.134,1207.77 294.02,1119.9 294.907,1119.9 295.793,1040.61 296.679,1040.61 297.565,988.28 
  298.451,913.434 299.337,956.832 300.223,975.947 301.109,975.947 301.995,902.834 302.881,842.561 303.768,842.561 304.654,685.884 305.54,706.708 306.426,823.92 
  307.312,797.926 308.198,844.413 309.084,1063.77 309.97,1175.11 310.856,1224.33 311.742,1300 312.629,1264.64 313.515,1264.64 314.401,1099.18 315.287,1099.18 
  316.173,1099.18 317.059,999.42 317.945,796.174 318.831,1022.48 319.717,990.595 320.603,990.595 321.49,990.595 322.376,990.595 323.262,753.067 324.148,636.967 
  325.034,625.902 325.92,757.614 326.806,757.614 327.692,793.278 328.578,843.274 329.464,807.591 330.351,808.529 331.237,1045.21 332.123,1045.21 333.009,884.666 
  333.895,819.784 334.781,815.117 335.667,694.813 336.553,920.369 337.439,844.789 338.325,976.666 339.212,1073.14 340.098,1056.51 340.984,1125.51 341.87,1044.17 
  342.756,1106.32 343.642,1079.86 344.528,1079.07 345.414,1079.07 346.3,1045.69 347.186,999.228 348.073,708.722 348.959,740.334 349.845,1027.29 350.731,953.023 
  351.617,969.204 352.503,857.479 353.389,815.247 354.275,995.569 355.161,813.675 356.047,887.407 356.934,887.407 357.82,836.401 358.706,784.701 359.592,625.277 
  360.478,802.259 361.364,908.099 362.25,970.797 363.136,970.797 364.022,970.797 364.908,970.797 365.795,936.802 366.681,721.998 367.567,584.276 368.453,271.107 
  369.339,149.697 370.225,184.391 371.111,359.36 371.997,526.782 372.883,526.782 373.769,649.187 374.656,694.2 375.542,724.123 376.428,834.014 377.314,928.663 
  378.2,1180.13 379.086,1180.13 379.972,1027.84 380.858,863.923 381.744,828.306 382.63,1030.45 383.517,963.383 384.403,1003.38 385.289,985.884 386.175,985.884 
  387.061,1079.53 387.947,1054.11 388.833,1054.11 389.719,1182.01 390.605,857.318 391.491,857.318 392.378,686.866 393.264,630.047 394.15,637.979 395.036,634.902 
  395.922,473.963 396.808,395.317 397.694,353.479 398.58,728.397 399.466,702.062 400.352,597.134 401.239,597.134 402.125,782.225 403.011,826.769 403.897,963.182 
  404.783,1105 405.669,1052.28 406.555,1143.25 407.441,1102.5 408.327,1043.5 409.213,1205.51 410.1,1131.62 410.986,1150.96 411.872,1146.89 412.758,1220.6 
  413.644,1220.6 414.53,1229.52 415.416,1234.87 416.302,1180.46 417.188,1180.46 418.074,1045.06 418.961,987.751 419.847,815.825 420.733,764.591 421.619,764.591 
  422.505,764.591 423.391,879.869 424.277,879.869 425.163,1000.46 426.049,827.509 426.935,1040.99 427.822,1103.28 428.708,1217.52 429.594,1248.38 430.48,1011.37 
  431.366,913.207 432.252,894.792 433.138,1067.34 434.024,1067.34 434.91,1268.38 435.796,1316.88 436.683,1316.88 437.569,1316.88 438.455,1290.89 439.341,1290.89 
  440.227,1290.89 441.113,1332.22 441.999,1052.82 442.885,1225.27 443.771,1178.25 444.657,1014.09 445.544,975.898 446.43,836.449 447.316,598.096 448.202,560.415 
  449.088,447.295 449.974,447.295 450.86,479.743 451.746,572.966 452.632,647.419 453.518,626.32 454.405,552.458 455.291,674.222 456.177,674.222 457.063,712.968 
  457.949,795.578 458.835,947.245 459.721,917.363 460.607,805.325 461.493,1060.69 462.379,1158.01 463.266,1206.1 464.152,1080.75 465.038,1080.75 465.924,1293.93 
  466.81,1151.31 467.696,1024.33 468.582,682.515 469.468,740.356 470.354,852.026 471.24,1099.04 472.127,938.669 473.013,938.669 473.899,1028.15 474.785,1028.15 
  475.671,1030.18 476.557,1182.75 477.443,1182.75 478.329,1182.75 479.215,1182.75 480.101,1059.48 480.988,948.535 481.874,1009.05 482.76,724.945 483.646,855.986 
  484.532,715.169 485.418,948.573 486.304,970.757 487.19,1184.19 488.076,963.03 488.962,1196.53 489.849,1114.47 490.735,1100.01 491.621,1013.45 492.507,1013.45 
  493.393,1020.46 494.279,1130.51 495.165,1072.54 496.051,932.225 496.937,696.567 497.823,696.567 498.71,600.056 499.596,432.732 500.482,451.46 501.368,205.867 
  502.254,84.7614 503.14,244.096 504.026,172.318 504.912,172.318 505.798,350.075 506.684,517.75 507.571,460.36 508.457,403.079 509.343,438.157 510.229,521.779 
  511.115,250.429 512.001,317.86 512.887,467.835 513.773,489.615 514.659,715.01 515.545,695.405 516.432,931.74 517.318,937.784 518.204,955.307 519.09,1028.05 
  519.976,1174.42 520.862,1174.42 521.748,1062.6 522.634,1013.07 523.52,899.842 524.406,843.857 525.293,789.834 526.179,789.834 527.065,760.853 527.951,687.885 
  528.837,629.062 529.723,569.696 530.609,623.6 531.495,718.541 532.381,376.188 533.267,515.706 534.154,630.826 535.04,841.397 535.926,977.348 536.812,941.031 
  537.698,975.206 538.584,859.78 539.47,834.42 540.356,785.443 541.242,823.126 542.128,751.103 543.015,850.269 543.901,864.572 544.787,1085.69 545.673,1112.31 
  546.559,1001.12 547.445,1013.03 548.331,1234.38 549.217,1205.57 550.103,1205.57 550.989,1205.57 551.876,1258.46 552.762,1258.46 553.648,1258.46 554.534,1233.8 
  555.42,1164.83 556.306,1164.83 557.192,1037.46 558.078,958.003 558.964,912.548 559.85,814.768 560.737,814.768 561.623,814.768 562.509,983.93 563.395,1182.8 
  564.281,1002.21 565.167,1047.22 566.053,1138.25 566.939,772.633 567.825,902.93 568.711,895.019 569.598,859.343 570.484,769.408 571.37,800.6 572.256,800.6 
  573.142,1074.96 574.028,863.964 574.914,982.676 575.8,991.403 576.686,1118 577.572,885.104 578.459,722.851 579.345,818.446 580.231,881.424 581.117,1106.96 
  582.003,1106.96 582.889,1106.96 583.775,797.709 584.661,801.338 585.547,1002.34 586.433,1081.75 587.32,902.29 588.206,1076.97 589.092,1180.05 589.978,1310.85 
  590.864,1274.27 591.75,1274.27 592.636,1282.39 593.522,1282.39 594.408,1282.39 595.294,1282.39 596.181,1157.29 597.067,1157.29 597.953,1135.24 598.839,1075.18 
  599.725,1043.39 600.611,1042.83 601.497,971.751 602.383,1126.17 603.269,1080.27 604.155,888.567 605.042,827.948 605.928,827.948 606.814,842.217 607.7,842.217 
  608.586,855.801 609.472,1037.8 610.358,1242.21 611.244,1242.21 612.13,979.717 613.016,979.717 613.903,1168.1 614.789,1064.12 615.675,1212.11 616.561,1197.49 
  617.447,1052.16 618.333,1125.78 619.219,997.103 620.105,1078.48 620.991,1257.26 621.877,1257.26 622.764,1257.97 623.65,1074.4 624.536,1074.4 625.422,1074.4 
  626.308,1223.14 627.194,1223.14 628.08,1223.14 628.966,1223.14 629.852,1090.03 630.738,1090.03 631.625,1145.5 632.511,1145.5 633.397,772.918 634.283,732.772 
  635.169,691.568 636.055,819.335 636.941,786.505 637.827,492.334 638.713,412.573 639.599,611.236 640.486,414.094 641.372,414.094 642.258,414.094 643.144,241.485 
  644.03,146.3 644.916,456.05 645.802,456.05 646.688,456.05 647.574,603.525 648.46,652.53 649.347,483.803 650.233,579.091 651.119,727.492 652.005,643.17 
  652.891,849.841 653.777,930.733 654.663,889.69 655.549,825.428 656.435,916.254 657.321,911.048 658.208,1042.99 659.094,1042.99 659.98,932.986 660.866,894.882 
  661.752,894.882 662.638,844.323 663.524,889.496 664.41,714.423 665.296,714.423 666.182,712.308 667.069,712.308 667.955,829.207 668.841,897.209 669.727,818.1 
  670.613,1066.85 671.499,1110.81 672.385,1116.06 673.271,954.817 674.157,948.781 675.043,1078.99 675.93,1017.59 676.816,1017.59 677.702,1017.59 678.588,1157.22 
  679.474,1125.46 680.36,1264.87 681.246,1034.58 682.132,938.676 683.018,1026.59 683.904,1089.11 684.791,921.91 685.677,973.838 686.563,990.515 687.449,1063.97 
  688.335,872.491 689.221,705.194 690.107,801.967 690.993,801.967 691.879,801.967 692.765,801.967 693.652,917.548 694.538,931.184 695.424,868.074 696.31,868.074 
  697.196,879.416 698.082,867.963 698.968,955.967 699.854,955.967 700.74,877.064 701.626,877.064 702.513,877.064 703.399,916.617 704.285,1195.89 705.171,1195.89 
  706.057,1214.45 706.943,1327.93 707.829,1222.94 708.715,1103.41 709.601,1025.62 710.487,1125.5 711.374,1035.05 712.26,1035.05 713.146,1035.05 714.032,862.874 
  714.918,862.874 715.804,902.101 716.69,902.101 717.576,902.101 718.462,902.101 719.348,925.433 720.235,1145.7 721.121,1085.97 722.007,1081.09 722.893,781.275 
  723.779,935.225 724.665,1097.96 725.551,1097.96 726.437,1023.27 727.323,924.543 728.209,889.735 729.096,1027.59 729.982,1134.48 730.868,1013.04 731.754,1013.04 
  732.64,1136.56 733.526,1123.68 734.412,1014.88 735.298,852.111 736.184,892.541 737.07,905.786 737.957,779.4 738.843,779.4 739.729,831.057 740.615,630.13 
  741.501,589.885 742.387,589.885 743.273,461.223 744.159,531.736 745.045,531.736 745.931,601.711 746.818,473.94 747.704,679.455 748.59,645.513 749.476,645.513 
  750.362,645.513 751.248,703.516 752.134,745.406 753.02,589.395 753.906,718.111 754.792,718.111 755.679,821.651 756.565,756.582 757.451,1015.59 758.337,1038.76 
  759.223,1126.09 760.109,1203.11 760.995,1203.11 761.881,1203.11 762.767,1203.11 763.653,1168.58 764.54,1122.16 765.426,1122.16 766.312,1111.1 767.198,1225.73 
  768.084,1225.73 768.97,923.559 769.856,1061.82 770.742,1016.55 771.628,1075.92 772.514,1154.85 773.401,1154.85 774.287,1171.76 775.173,968.515 776.059,1022.22 
  776.945,1025.85 777.831,1097.3 778.717,1097.3 779.603,1097.3 780.489,1126.03 781.375,1049.19 782.262,1044.59 783.148,1025.32 784.034,1025.32 784.92,1131.94 
  785.806,1163.09 786.692,1163.09 787.578,1092.93 788.464,966.485 789.35,1113.18 790.236,1228.48 791.123,1253.58 792.009,1218.6 792.895,1218.6 793.781,1148.25 
  794.667,1175.39 795.553,1220.04 796.439,1265.66 797.325,985.695 798.211,985.695 799.097,985.695 799.984,985.695 800.87,1061.61 801.756,1333 802.642,1333 
  803.528,1333 804.414,1333 805.3,1331.68 806.186,1335.34 807.072,1335.34 807.958,1190.43 808.845,1190.43 809.731,1190.43 810.617,1148.19 811.503,1148.19 
  812.389,1148.19 813.275,1172.68 814.161,1204.1 815.047,1138.9 815.933,1138.9 816.819,1315.01 817.706,1315.01 818.592,1315.01 819.478,1315.01 820.364,1315.01 
  821.25,1315.01 822.136,1087.69 823.022,1083.19 823.908,1194.01 824.794,1088.76 825.68,1088.76 826.567,1039.23 827.453,1039.23 828.339,1039.23 829.225,1095.86 
  830.111,1095.86 830.997,1095.86 831.883,1047.83 832.769,978.349 833.655,872.767 834.541,1111.19 835.428,934.558 836.314,1085.94 837.2,899.98 838.086,919.988 
  838.972,866.97 839.858,973.134 840.744,757.09 841.63,691.195 842.516,679.585 843.402,622.112 844.289,534.713 845.175,534.713 846.061,610.352 846.947,571.828 
  847.833,575.177 848.719,590.99 849.605,457.993 850.491,457.993 851.377,332.809 852.263,327.806 853.15,327.806 854.036,327.806 854.922,501.117 855.808,595.281 
  856.694,639.366 857.58,694.361 858.466,850.475 859.352,850.475 860.238,1084.44 861.124,1119.14 862.011,1227.39 862.897,1159.3 863.783,1302.61 864.669,1302.61 
  865.555,1221.31 866.441,1220.82 867.327,1220.82 868.213,1037.39 869.099,1064.83 869.985,1056.78 870.872,1103.26 871.758,1099.11 872.644,1150.94 873.53,1151.09 
  874.416,1151.09 875.302,1127.74 876.188,1043.98 877.074,1043.98 877.96,1191.85 878.846,1127.01 879.733,1127.01 880.619,907.822 881.505,980.254 882.391,980.254 
  883.277,880.476 884.163,880.476 885.049,742.688 885.935,806.339 886.821,635.343 887.707,480.465 888.594,421.881 889.48,488.638 890.366,488.638 891.252,564.79 
  892.138,317.146 893.024,317.146 893.91,478.82 894.796,277.966 895.682,359.758 896.568,546.03 897.455,648.979 898.341,695.305 899.227,694.313 900.113,696.469 
  900.999,682.664 901.885,771.743 902.771,845.923 903.657,905.112 904.543,902.292 905.429,1004.69 906.316,1110.9 907.202,1165.7 908.088,1186.35 908.974,1176.95 
  909.86,1304.75 910.746,1303.06 911.632,1303.06 912.518,1284.72 913.404,1259.85 914.29,1259.85 915.177,1289.52 916.063,1081.48 916.949,1114.65 917.835,1157.92 
  918.721,1298.61 919.607,1297.24 920.493,1305.77 921.379,1305.77 922.265,1206.21 923.151,1206.21 924.038,1206.21 924.924,1174.51 925.81,1225.02 926.696,1141.36 
  927.582,1093.58 928.468,1093.58 929.354,947.912 930.24,680.113 931.126,680.113 932.012,615.321 932.899,615.321 933.785,677.395 934.671,677.395 935.557,666.538 
  936.443,887.508 937.329,887.508 938.215,1002.55 939.101,860.242 939.987,821.045 940.873,580.69 941.76,643.403 942.646,778.063 943.532,803.167 944.418,1104.47 
  945.304,1104.47 946.19,1117.6 947.076,1117.6 947.962,1152.07 948.848,1152.07 949.734,965.1 950.621,1152.92 951.507,1006.71 952.393,942.757 953.279,802.216 
  954.165,802.216 955.051,848.082 955.937,888.367 956.823,982.546 957.709,982.546 958.595,945.372 959.482,945.372 960.368,1074 961.254,1074 962.14,1090.21 
  963.026,989.875 963.912,1191.61 964.798,1091.89 965.684,907.805 966.57,1036.29 967.456,1023.76 968.343,1105.9 969.229,1079.21 970.115,1143.67 971.001,1173.24 
  971.887,806.498 972.773,1187.3 973.659,998.913 974.545,791.013 975.431,965.869 976.317,868.974 977.204,1092.72 978.09,1060.78 978.976,1060.78 979.862,977.368 
  980.748,977.368 981.634,822.708 982.52,934.403 983.406,1152.85 984.292,966.555 985.178,1005.51 986.065,1147.77 986.951,1254.95 987.837,1254.95 988.723,905.768 
  989.609,774.964 990.495,676.213 991.381,841.068 992.267,549.388 993.153,549.388 994.039,570.184 994.926,762.044 995.812,689.869 996.698,590.223 997.584,436.942 
  998.47,486.368 999.356,216.771 1000.24,260.438 1001.13,355.673 1002.01,386.867 1002.9,386.867 1003.79,746.599 1004.67,581.587 1005.56,581.587 1006.44,705.651 
  1007.33,705.651 1008.22,774.947 1009.1,793.888 1009.99,966.417 1010.88,853.987 1011.76,971.575 1012.65,825.683 1013.53,849.923 1014.42,912.603 1015.31,816.554 
  1016.19,876.214 1017.08,1057.32 1017.96,1057.32 1018.85,1118.34 1019.74,1118.34 1020.62,861.955 1021.51,859.122 1022.39,859.122 1023.28,1042.44 1024.17,875.875 
  1025.05,864.345 1025.94,956.173 1026.83,869.982 1027.71,720.864 1028.6,760.133 1029.48,760.133 1030.37,760.133 1031.26,755.196 1032.14,791.057 1033.03,608.923 
  1033.91,432.35 1034.8,396.699 1035.69,733.747 1036.57,879.632 1037.46,1130.46 1038.34,1130.46 1039.23,1130.46 1040.12,1130.46 1041,933.731 1041.89,933.731 
  1042.77,1142.04 1043.66,810.727 1044.55,1067.06 1045.43,993.397 1046.32,902.754 1047.21,986.35 1048.09,1250.27 1048.98,1250.27 1049.86,1066.54 1050.75,1102.31 
  1051.64,895.482 1052.52,806.267 1053.41,1102.81 1054.29,992.146 1055.18,992.146 1056.07,970.236 1056.95,868.901 1057.84,868.901 1058.72,969.073 1059.61,1205.5 
  1060.5,1227.16 1061.38,1227.16 1062.27,1297.8 1063.16,1175.91 1064.04,1175.91 1064.93,1175.91 1065.81,1175.91 1066.7,1175.91 1067.59,1175.91 1068.47,932.013 
  1069.36,973.792 1070.24,871.979 1071.13,989.279 1072.02,915.787 1072.9,952.46 1073.79,965.425 1074.67,862.775 1075.56,804.168 1076.45,804.809 1077.33,815.39 
  1078.22,1008.18 1079.11,1008.18 1079.99,837.833 1080.88,776.848 1081.76,776.848 1082.65,776.848 1083.54,667.655 1084.42,617.362 1085.31,610.39 1086.19,540.915 
  1087.08,762.144 1087.97,762.144 1088.85,816.258 1089.74,710.425 1090.62,665.721 1091.51,603.501 1092.4,577.043 1093.28,664.912 1094.17,754.736 1095.05,759.788 
  
  "/>
<path clip-path="url(#clip6800)" d="
M1414.43 1372.86 L2352.76 1372.86 L2352.76 47.2441 L1414.43 47.2441  Z
  " fill="#f7ece2" fill-rule="evenodd" fill-opacity="1"/>
<defs>
  <clipPath id="clip6803">
    <rect x="1414" y="47" width="939" height="1327"/>
  </clipPath>
</defs>
<polyline clip-path="url(#clip6803)" style="stroke:#000000; stroke-width:2; stroke-opacity:0.1; fill:none" points="
  1455.78,1372.86 1455.78,47.2441 
  "/>
<polyline clip-path="url(#clip6803)" style="stroke:#000000; stroke-width:2; stroke-opacity:0.1; fill:none" points="
  1745.92,1372.86 1745.92,47.2441 
  "/>
<polyline clip-path="url(#clip6803)" style="stroke:#000000; stroke-width:2; stroke-opacity:0.1; fill:none" points="
  2036.06,1372.86 2036.06,47.2441 
  "/>
<polyline clip-path="url(#clip6803)" style="stroke:#000000; stroke-width:2; stroke-opacity:0.1; fill:none" points="
  2326.2,1372.86 2326.2,47.2441 
  "/>
<polyline clip-path="url(#clip6803)" style="stroke:#000000; stroke-width:2; stroke-opacity:0.1; fill:none" points="
  1414.43,1335.34 2352.76,1335.34 
  "/>
<polyline clip-path="url(#clip6803)" style="stroke:#000000; stroke-width:2; stroke-opacity:0.1; fill:none" points="
  1414.43,1072.98 2352.76,1072.98 
  "/>
<polyline clip-path="url(#clip6803)" style="stroke:#000000; stroke-width:2; stroke-opacity:0.1; fill:none" points="
  1414.43,810.621 2352.76,810.621 
  "/>
<polyline clip-path="url(#clip6803)" style="stroke:#000000; stroke-width:2; stroke-opacity:0.1; fill:none" points="
  1414.43,548.262 2352.76,548.262 
  "/>
<polyline clip-path="url(#clip6803)" style="stroke:#000000; stroke-width:2; stroke-opacity:0.1; fill:none" points="
  1414.43,285.903 2352.76,285.903 
  "/>
<polyline clip-path="url(#clip6800)" style="stroke:#000000; stroke-width:4; stroke-opacity:1; fill:none" points="
  1414.43,1372.86 2352.76,1372.86 
  "/>
<polyline clip-path="url(#clip6800)" style="stroke:#000000; stroke-width:4; stroke-opacity:1; fill:none" points="
  1414.43,1372.86 1414.43,47.2441 
  "/>
<polyline clip-path="url(#clip6800)" style="stroke:#000000; stroke-width:4; stroke-opacity:1; fill:none" points="
  1455.78,1372.86 1455.78,1352.97 
  "/>
<polyline clip-path="url(#clip6800)" style="stroke:#000000; stroke-width:4; stroke-opacity:1; fill:none" points="
  1745.92,1372.86 1745.92,1352.97 
  "/>
<polyline clip-path="url(#clip6800)" style="stroke:#000000; stroke-width:4; stroke-opacity:1; fill:none" points="
  2036.06,1372.86 2036.06,1352.97 
  "/>
<polyline clip-path="url(#clip6800)" style="stroke:#000000; stroke-width:4; stroke-opacity:1; fill:none" points="
  2326.2,1372.86 2326.2,1352.97 
  "/>
<polyline clip-path="url(#clip6800)" style="stroke:#000000; stroke-width:4; stroke-opacity:1; fill:none" points="
  1414.43,1335.34 1428.5,1335.34 
  "/>
<polyline clip-path="url(#clip6800)" style="stroke:#000000; stroke-width:4; stroke-opacity:1; fill:none" points="
  1414.43,1072.98 1428.5,1072.98 
  "/>
<polyline clip-path="url(#clip6800)" style="stroke:#000000; stroke-width:4; stroke-opacity:1; fill:none" points="
  1414.43,810.621 1428.5,810.621 
  "/>
<polyline clip-path="url(#clip6800)" style="stroke:#000000; stroke-width:4; stroke-opacity:1; fill:none" points="
  1414.43,548.262 1428.5,548.262 
  "/>
<polyline clip-path="url(#clip6800)" style="stroke:#000000; stroke-width:4; stroke-opacity:1; fill:none" points="
  1414.43,285.903 1428.5,285.903 
  "/>
<g clip-path="url(#clip6800)">
<text style="fill:#000000; fill-opacity:1; font-family:Arial,Helvetica Neue,Helvetica,sans-serif; font-size:48px; text-anchor:middle;" transform="rotate(0, 1455.78, 1426.86)" x="1455.78" y="1426.86">0</text>
</g>
<g clip-path="url(#clip6800)">
<text style="fill:#000000; fill-opacity:1; font-family:Arial,Helvetica Neue,Helvetica,sans-serif; font-size:48px; text-anchor:middle;" transform="rotate(0, 1745.92, 1426.86)" x="1745.92" y="1426.86">10</text>
</g>
<g clip-path="url(#clip6800)">
<text style="fill:#000000; fill-opacity:1; font-family:Arial,Helvetica Neue,Helvetica,sans-serif; font-size:48px; text-anchor:middle;" transform="rotate(0, 2036.06, 1426.86)" x="2036.06" y="1426.86">20</text>
</g>
<g clip-path="url(#clip6800)">
<text style="fill:#000000; fill-opacity:1; font-family:Arial,Helvetica Neue,Helvetica,sans-serif; font-size:48px; text-anchor:middle;" transform="rotate(0, 2326.2, 1426.86)" x="2326.2" y="1426.86">30</text>
</g>
<g clip-path="url(#clip6800)">
<text style="fill:#000000; fill-opacity:1; font-family:Arial,Helvetica Neue,Helvetica,sans-serif; font-size:48px; text-anchor:end;" transform="rotate(0, 1390.43, 1352.84)" x="1390.43" y="1352.84">0.00</text>
</g>
<g clip-path="url(#clip6800)">
<text style="fill:#000000; fill-opacity:1; font-family:Arial,Helvetica Neue,Helvetica,sans-serif; font-size:48px; text-anchor:end;" transform="rotate(0, 1390.43, 1090.48)" x="1390.43" y="1090.48">0.03</text>
</g>
<g clip-path="url(#clip6800)">
<text style="fill:#000000; fill-opacity:1; font-family:Arial,Helvetica Neue,Helvetica,sans-serif; font-size:48px; text-anchor:end;" transform="rotate(0, 1390.43, 828.121)" x="1390.43" y="828.121">0.06</text>
</g>
<g clip-path="url(#clip6800)">
<text style="fill:#000000; fill-opacity:1; font-family:Arial,Helvetica Neue,Helvetica,sans-serif; font-size:48px; text-anchor:end;" transform="rotate(0, 1390.43, 565.762)" x="1390.43" y="565.762">0.09</text>
</g>
<g clip-path="url(#clip6800)">
<text style="fill:#000000; fill-opacity:1; font-family:Arial,Helvetica Neue,Helvetica,sans-serif; font-size:48px; text-anchor:end;" transform="rotate(0, 1390.43, 303.403)" x="1390.43" y="303.403">0.12</text>
</g>
<path clip-path="url(#clip6803)" d="
M1455.78 1055.49 L1455.78 1335.34 L1484.8 1335.34 L1484.8 1055.49 L1455.78 1055.49 L1455.78 1055.49  Z
  " fill="#000014" fill-rule="evenodd" fill-opacity="1"/>
<polyline clip-path="url(#clip6803)" style="stroke:#000000; stroke-width:4; stroke-opacity:1; fill:none" points="
  1455.78,1055.49 1455.78,1335.34 1484.8,1335.34 1484.8,1055.49 1455.78,1055.49 
  "/>
<path clip-path="url(#clip6803)" d="
M1484.8 784.385 L1484.8 1335.34 L1513.81 1335.34 L1513.81 784.385 L1484.8 784.385 L1484.8 784.385  Z
  " fill="#000014" fill-rule="evenodd" fill-opacity="1"/>
<polyline clip-path="url(#clip6803)" style="stroke:#000000; stroke-width:4; stroke-opacity:1; fill:none" points="
  1484.8,784.385 1484.8,1335.34 1513.81,1335.34 1513.81,784.385 1484.8,784.385 
  "/>
<path clip-path="url(#clip6803)" d="
M1513.81 399.592 L1513.81 1335.34 L1542.82 1335.34 L1542.82 399.592 L1513.81 399.592 L1513.81 399.592  Z
  " fill="#000014" fill-rule="evenodd" fill-opacity="1"/>
<polyline clip-path="url(#clip6803)" style="stroke:#000000; stroke-width:4; stroke-opacity:1; fill:none" points="
  1513.81,399.592 1513.81,1335.34 1542.82,1335.34 1542.82,399.592 1513.81,399.592 
  "/>
<path clip-path="url(#clip6803)" d="
M1542.82 84.7614 L1542.82 1335.34 L1571.84 1335.34 L1571.84 84.7614 L1542.82 84.7614 L1542.82 84.7614  Z
  " fill="#000014" fill-rule="evenodd" fill-opacity="1"/>
<polyline clip-path="url(#clip6803)" style="stroke:#000000; stroke-width:4; stroke-opacity:1; fill:none" points="
  1542.82,84.7614 1542.82,1335.34 1571.84,1335.34 1571.84,84.7614 1542.82,84.7614 
  "/>
<path clip-path="url(#clip6803)" d="
M1571.84 189.705 L1571.84 1335.34 L1600.85 1335.34 L1600.85 189.705 L1571.84 189.705 L1571.84 189.705  Z
  " fill="#000014" fill-rule="evenodd" fill-opacity="1"/>
<polyline clip-path="url(#clip6803)" style="stroke:#000000; stroke-width:4; stroke-opacity:1; fill:none" points="
  1571.84,189.705 1571.84,1335.34 1600.85,1335.34 1600.85,189.705 1571.84,189.705 
  "/>
<path clip-path="url(#clip6803)" d="
M1600.85 417.083 L1600.85 1335.34 L1629.87 1335.34 L1629.87 417.083 L1600.85 417.083 L1600.85 417.083  Z
  " fill="#000014" fill-rule="evenodd" fill-opacity="1"/>
<polyline clip-path="url(#clip6803)" style="stroke:#000000; stroke-width:4; stroke-opacity:1; fill:none" points="
  1600.85,417.083 1600.85,1335.34 1629.87,1335.34 1629.87,417.083 1600.85,417.083 
  "/>
<path clip-path="url(#clip6803)" d="
M1629.87 408.337 L1629.87 1335.34 L1658.88 1335.34 L1658.88 408.337 L1629.87 408.337 L1629.87 408.337  Z
  " fill="#000014" fill-rule="evenodd" fill-opacity="1"/>
<polyline clip-path="url(#clip6803)" style="stroke:#000000; stroke-width:4; stroke-opacity:1; fill:none" points="
  1629.87,408.337 1629.87,1335.34 1658.88,1335.34 1658.88,408.337 1629.87,408.337 
  "/>
<path clip-path="url(#clip6803)" d="
M1658.88 574.498 L1658.88 1335.34 L1687.89 1335.34 L1687.89 574.498 L1658.88 574.498 L1658.88 574.498  Z
  " fill="#000014" fill-rule="evenodd" fill-opacity="1"/>
<polyline clip-path="url(#clip6803)" style="stroke:#000000; stroke-width:4; stroke-opacity:1; fill:none" points="
  1658.88,574.498 1658.88,1335.34 1687.89,1335.34 1687.89,574.498 1658.88,574.498 
  "/>
<path clip-path="url(#clip6803)" d="
M1687.89 775.64 L1687.89 1335.34 L1716.91 1335.34 L1716.91 775.64 L1687.89 775.64 L1687.89 775.64  Z
  " fill="#000014" fill-rule="evenodd" fill-opacity="1"/>
<polyline clip-path="url(#clip6803)" style="stroke:#000000; stroke-width:4; stroke-opacity:1; fill:none" points="
  1687.89,775.64 1687.89,1335.34 1716.91,1335.34 1716.91,775.64 1687.89,775.64 
  "/>
<path clip-path="url(#clip6803)" d="
M1716.91 924.31 L1716.91 1335.34 L1745.92 1335.34 L1745.92 924.31 L1716.91 924.31 L1716.91 924.31  Z
  " fill="#000014" fill-rule="evenodd" fill-opacity="1"/>
<polyline clip-path="url(#clip6803)" style="stroke:#000000; stroke-width:4; stroke-opacity:1; fill:none" points="
  1716.91,924.31 1716.91,1335.34 1745.92,1335.34 1745.92,924.31 1716.91,924.31 
  "/>
<path clip-path="url(#clip6803)" d="
M1745.92 976.782 L1745.92 1335.34 L1774.94 1335.34 L1774.94 976.782 L1745.92 976.782 L1745.92 976.782  Z
  " fill="#000014" fill-rule="evenodd" fill-opacity="1"/>
<polyline clip-path="url(#clip6803)" style="stroke:#000000; stroke-width:4; stroke-opacity:1; fill:none" points="
  1745.92,976.782 1745.92,1335.34 1774.94,1335.34 1774.94,976.782 1745.92,976.782 
  "/>
<path clip-path="url(#clip6803)" d="
M1774.94 1116.71 L1774.94 1335.34 L1803.95 1335.34 L1803.95 1116.71 L1774.94 1116.71 L1774.94 1116.71  Z
  " fill="#000014" fill-rule="evenodd" fill-opacity="1"/>
<polyline clip-path="url(#clip6803)" style="stroke:#000000; stroke-width:4; stroke-opacity:1; fill:none" points="
  1774.94,1116.71 1774.94,1335.34 1803.95,1335.34 1803.95,1116.71 1774.94,1116.71 
  "/>
<path clip-path="url(#clip6803)" d="
M1803.95 1142.94 L1803.95 1335.34 L1832.96 1335.34 L1832.96 1142.94 L1803.95 1142.94 L1803.95 1142.94  Z
  " fill="#000014" fill-rule="evenodd" fill-opacity="1"/>
<polyline clip-path="url(#clip6803)" style="stroke:#000000; stroke-width:4; stroke-opacity:1; fill:none" points="
  1803.95,1142.94 1803.95,1335.34 1832.96,1335.34 1832.96,1142.94 1803.95,1142.94 
  "/>
<path clip-path="url(#clip6803)" d="
M1832.96 1221.65 L1832.96 1335.34 L1861.98 1335.34 L1861.98 1221.65 L1832.96 1221.65 L1832.96 1221.65  Z
  " fill="#000014" fill-rule="evenodd" fill-opacity="1"/>
<polyline clip-path="url(#clip6803)" style="stroke:#000000; stroke-width:4; stroke-opacity:1; fill:none" points="
  1832.96,1221.65 1832.96,1335.34 1861.98,1335.34 1861.98,1221.65 1832.96,1221.65 
  "/>
<path clip-path="url(#clip6803)" d="
M1861.98 1282.87 L1861.98 1335.34 L1890.99 1335.34 L1890.99 1282.87 L1861.98 1282.87 L1861.98 1282.87  Z
  " fill="#000014" fill-rule="evenodd" fill-opacity="1"/>
<polyline clip-path="url(#clip6803)" style="stroke:#000000; stroke-width:4; stroke-opacity:1; fill:none" points="
  1861.98,1282.87 1861.98,1335.34 1890.99,1335.34 1890.99,1282.87 1861.98,1282.87 
  "/>
<path clip-path="url(#clip6803)" d="
M1890.99 1291.61 L1890.99 1335.34 L1920.01 1335.34 L1920.01 1291.61 L1890.99 1291.61 L1890.99 1291.61  Z
  " fill="#000014" fill-rule="evenodd" fill-opacity="1"/>
<polyline clip-path="url(#clip6803)" style="stroke:#000000; stroke-width:4; stroke-opacity:1; fill:none" points="
  1890.99,1291.61 1890.99,1335.34 1920.01,1335.34 1920.01,1291.61 1890.99,1291.61 
  "/>
<path clip-path="url(#clip6803)" d="
M1920.01 1309.1 L1920.01 1335.34 L1949.02 1335.34 L1949.02 1309.1 L1920.01 1309.1 L1920.01 1309.1  Z
  " fill="#000014" fill-rule="evenodd" fill-opacity="1"/>
<polyline clip-path="url(#clip6803)" style="stroke:#000000; stroke-width:4; stroke-opacity:1; fill:none" points="
  1920.01,1309.1 1920.01,1335.34 1949.02,1335.34 1949.02,1309.1 1920.01,1309.1 
  "/>
<polyline clip-path="url(#clip6803)" style="stroke:#90ee90; stroke-width:4; stroke-opacity:1; fill:none" points="
  1455.78,1335.34 1456.07,1335.28 1456.36,1335.12 1456.65,1334.85 1456.94,1334.48 1457.23,1334.01 1457.52,1333.43 1457.81,1332.75 1458.1,1331.98 1458.39,1331.11 
  1458.68,1330.14 1458.97,1329.08 1459.26,1327.93 1459.55,1326.68 1459.84,1325.35 1460.13,1323.93 1460.42,1322.42 1460.72,1320.83 1461.01,1319.15 1461.3,1317.4 
  1461.59,1315.56 1461.88,1313.64 1462.17,1311.64 1462.46,1309.57 1462.75,1307.42 1463.04,1305.19 1463.33,1302.89 1463.62,1300.53 1463.91,1298.09 1464.2,1295.58 
  1464.49,1293 1464.78,1290.35 1465.07,1287.64 1465.36,1284.87 1465.65,1282.03 1465.94,1279.13 1466.23,1276.17 1466.52,1273.15 1466.81,1270.07 1467.1,1266.93 
  1467.39,1263.74 1467.68,1260.49 1467.97,1257.19 1468.26,1253.83 1468.55,1250.42 1468.84,1246.96 1469.13,1243.45 1469.42,1239.89 1469.71,1236.28 1470,1232.62 
  1470.29,1228.92 1470.58,1225.17 1470.87,1221.38 1471.16,1217.55 1471.45,1213.67 1471.74,1209.75 1472.03,1205.79 1472.32,1201.79 1472.61,1197.76 1472.9,1193.68 
  1473.19,1189.57 1473.48,1185.42 1473.77,1181.24 1474.06,1177.02 1474.35,1172.77 1474.64,1168.49 1474.93,1164.17 1475.22,1159.82 1475.51,1155.45 1475.8,1151.04 
  1476.09,1146.61 1476.38,1142.14 1476.67,1137.65 1476.96,1133.14 1477.25,1128.6 1477.54,1124.03 1477.83,1119.44 1478.12,1114.83 1478.41,1110.19 1478.7,1105.53 
  1478.99,1100.85 1479.28,1096.15 1479.57,1091.43 1479.86,1086.69 1480.15,1081.94 1480.44,1077.16 1480.73,1072.37 1481.02,1067.56 1481.31,1062.74 1481.61,1057.9 
  1481.9,1053.04 1482.19,1048.17 1482.48,1043.29 1482.77,1038.4 1483.06,1033.49 1483.35,1028.57 1483.64,1023.64 1483.93,1018.7 1484.22,1013.75 1484.51,1008.79 
  1484.8,1003.82 1485.09,998.844 1485.38,993.86 1485.67,988.868 1485.96,983.869 1486.25,978.865 1486.54,973.854 1486.83,968.839 1487.12,963.818 1487.41,958.794 
  1487.7,953.766 1487.99,948.734 1488.28,943.7 1488.57,938.664 1488.86,933.626 1489.15,928.586 1489.44,923.545 1489.73,918.504 1490.02,913.463 1490.31,908.422 
  1490.6,903.382 1490.89,898.343 1491.18,893.306 1491.47,888.271 1491.76,883.238 1492.05,878.208 1492.34,873.181 1492.63,868.158 1492.92,863.139 1493.21,858.124 
  1493.5,853.114 1493.79,848.109 1494.08,843.109 1494.37,838.115 1494.66,833.127 1494.95,828.146 1495.24,823.171 1495.53,818.204 1495.82,813.244 1496.11,808.292 
  1496.4,803.348 1496.69,798.412 1496.98,793.485 1497.27,788.567 1497.56,783.659 1497.85,778.76 1498.14,773.871 1498.43,768.992 1498.72,764.123 1499.01,759.266 
  1499.3,754.419 1499.59,749.584 1499.88,744.76 1500.17,739.948 1500.46,735.148 1500.75,730.361 1501.04,725.586 1501.33,720.824 1501.62,716.075 1501.91,711.339 
  1502.2,706.617 1502.5,701.908 1502.79,697.214 1503.08,692.533 1503.37,687.867 1503.66,683.216 1503.95,678.58 1504.24,673.958 1504.53,669.352 1504.82,664.761 
  1505.11,660.186 1505.4,655.627 1505.69,651.084 1505.98,646.557 1506.27,642.046 1506.56,637.552 1506.85,633.074 1507.14,628.614 1507.43,624.171 1507.72,619.744 
  1508.01,615.336 1508.3,610.944 1508.59,606.571 1508.88,602.215 1509.17,597.878 1509.46,593.558 1509.75,589.257 1510.04,584.974 1510.33,580.71 1510.62,576.465 
  1510.91,572.238 1511.2,568.03 1511.49,563.842 1511.78,559.673 1512.07,555.523 1512.36,551.392 1512.65,547.281 1512.94,543.19 1513.23,539.118 1513.52,535.067 
  1513.81,531.035 1514.1,527.024 1514.39,523.033 1514.68,519.062 1514.97,515.111 1515.26,511.181 1515.55,507.272 1515.84,503.383 1516.13,499.515 1516.42,495.667 
  1516.71,491.841 1517,488.036 1517.29,484.252 1517.58,480.489 1517.87,476.747 1518.16,473.026 1518.45,469.327 1518.74,465.649 1519.03,461.992 1519.32,458.358 
  1519.61,454.744 1519.9,451.153 1520.19,447.583 1520.48,444.035 1520.77,440.508 1521.06,437.004 1521.35,433.521 1521.64,430.061 1521.93,426.622 1522.22,423.206 
  1522.51,419.811 1522.8,416.439 1523.09,413.088 1523.39,409.76 1523.68,406.454 1523.97,403.171 1524.26,399.909 1524.55,396.67 1524.84,393.454 1525.13,390.259 
  1525.42,387.087 1525.71,383.938 1526,380.81 1526.29,377.705 1526.58,374.623 1526.87,371.563 1527.16,368.526 1527.45,365.511 1527.74,362.518 1528.03,359.548 
  1528.32,356.601 1528.61,353.676 1528.9,350.773 1529.19,347.894 1529.48,345.036 1529.77,342.201 1530.06,339.389 1530.35,336.599 1530.64,333.832 1530.93,331.087 
  1531.22,328.365 1531.51,325.665 1531.8,322.987 1532.09,320.332 1532.38,317.7 1532.67,315.09 1532.96,312.503 1533.25,309.937 1533.54,307.395 1533.83,304.874 
  1534.12,302.376 1534.41,299.901 1534.7,297.448 1534.99,295.017 1535.28,292.608 1535.57,290.222 1535.86,287.857 1536.15,285.516 1536.44,283.196 1536.73,280.898 
  1537.02,278.623 1537.31,276.369 1537.6,274.138 1537.89,271.929 1538.18,269.742 1538.47,267.576 1538.76,265.433 1539.05,263.312 1539.34,261.212 1539.63,259.135 
  1539.92,257.079 1540.21,255.045 1540.5,253.032 1540.79,251.042 1541.08,249.073 1541.37,247.125 1541.66,245.199 1541.95,243.295 1542.24,241.412 1542.53,239.551 
  1542.82,237.71 1543.11,235.892 1543.4,234.094 1543.69,232.318 1543.98,230.563 1544.28,228.829 1544.57,227.117 1544.86,225.425 1545.15,223.754 1545.44,222.105 
  1545.73,220.476 1546.02,218.868 1546.31,217.281 1546.6,215.714 1546.89,214.169 1547.18,212.644 1547.47,211.139 1547.76,209.655 1548.05,208.192 1548.34,206.749 
  1548.63,205.326 1548.92,203.924 1549.21,202.542 1549.5,201.18 1549.79,199.838 1550.08,198.516 1550.37,197.214 1550.66,195.933 1550.95,194.671 1551.24,193.429 
  1551.53,192.206 1551.82,191.004 1552.11,189.821 1552.4,188.658 1552.69,187.514 1552.98,186.389 1553.27,185.284 1553.56,184.199 1553.85,183.132 1554.14,182.085 
  1554.43,181.057 1554.72,180.048 1555.01,179.058 1555.3,178.087 1555.59,177.135 1555.88,176.202 1556.17,175.287 1556.46,174.391 1556.75,173.514 1557.04,172.655 
  1557.33,171.815 1557.62,170.993 1557.91,170.19 1558.2,169.404 1558.49,168.637 1558.78,167.888 1559.07,167.157 1559.36,166.444 1559.65,165.749 1559.94,165.072 
  1560.23,164.413 1560.52,163.771 1560.81,163.147 1561.1,162.541 1561.39,161.952 1561.68,161.38 1561.97,160.826 1562.26,160.289 1562.55,159.769 1562.84,159.267 
  1563.13,158.781 1563.42,158.313 1563.71,157.861 1564,157.426 1564.29,157.008 1564.58,156.607 1564.87,156.223 1565.17,155.855 1565.46,155.503 1565.75,155.168 
  1566.04,154.849 1566.33,154.547 1566.62,154.26 1566.91,153.99 1567.2,153.736 1567.49,153.498 1567.78,153.275 1568.07,153.069 1568.36,152.878 1568.65,152.703 
  1568.94,152.544 1569.23,152.4 1569.52,152.271 1569.81,152.158 1570.1,152.061 1570.39,151.978 1570.68,151.911 1570.97,151.859 1571.26,151.821 1571.55,151.799 
  1571.84,151.792 1572.13,151.799 1572.42,151.821 1572.71,151.858 1573,151.909 1573.29,151.975 1573.58,152.055 1573.87,152.15 1574.16,152.259 1574.45,152.382 
  1574.74,152.519 1575.03,152.67 1575.32,152.836 1575.61,153.015 1575.9,153.208 1576.19,153.414 1576.48,153.635 1576.77,153.869 1577.06,154.117 1577.35,154.378 
  1577.64,154.652 1577.93,154.94 1578.22,155.241 1578.51,155.555 1578.8,155.882 1579.09,156.223 1579.38,156.576 1579.67,156.942 1579.96,157.321 1580.25,157.713 
  1580.54,158.117 1580.83,158.534 1581.12,158.963 1581.41,159.405 1581.7,159.86 1581.99,160.326 1582.28,160.805 1582.57,161.296 1582.86,161.799 1583.15,162.314 
  1583.44,162.841 1583.73,163.38 1584.02,163.931 1584.31,164.493 1584.6,165.067 1584.89,165.653 1585.18,166.25 1585.47,166.858 1585.76,167.478 1586.06,168.11 
  1586.35,168.752 1586.64,169.406 1586.93,170.071 1587.22,170.746 1587.51,171.433 1587.8,172.131 1588.09,172.839 1588.38,173.558 1588.67,174.288 1588.96,175.029 
  1589.25,175.78 1589.54,176.541 1589.83,177.313 1590.12,178.095 1590.41,178.888 1590.7,179.69 1590.99,180.503 1591.28,181.326 1591.57,182.159 1591.86,183.001 
  1592.15,183.854 1592.44,184.716 1592.73,185.588 1593.02,186.47 1593.31,187.362 1593.6,188.262 1593.89,189.173 1594.18,190.092 1594.47,191.021 1594.76,191.96 
  1595.05,192.907 1595.34,193.864 1595.63,194.829 1595.92,195.804 1596.21,196.787 1596.5,197.78 1596.79,198.781 1597.08,199.791 1597.37,200.81 1597.66,201.837 
  1597.95,202.873 1598.24,203.917 1598.53,204.97 1598.82,206.031 1599.11,207.1 1599.4,208.177 1599.69,209.263 1599.98,210.357 1600.27,211.459 1600.56,212.569 
  1600.85,213.686 1601.14,214.812 1601.43,215.945 1601.72,217.086 1602.01,218.235 1602.3,219.391 1602.59,220.555 1602.88,221.727 1603.17,222.906 1603.46,224.092 
  1603.75,225.285 1604.04,226.486 1604.33,227.694 1604.62,228.909 1604.91,230.131 1605.2,231.36 1605.49,232.596 1605.78,233.839 1606.07,235.089 1606.36,236.345 
  1606.65,237.609 1606.95,238.879 1607.24,240.155 1607.53,241.438 1607.82,242.728 1608.11,244.024 1608.4,245.326 1608.69,246.635 1608.98,247.95 1609.27,249.271 
  1609.56,250.598 1609.85,251.932 1610.14,253.271 1610.43,254.616 1610.72,255.968 1611.01,257.325 1611.3,258.688 1611.59,260.057 1611.88,261.431 1612.17,262.811 
  1612.46,264.197 1612.75,265.588 1613.04,266.985 1613.33,268.387 1613.62,269.795 1613.91,271.208 1614.2,272.626 1614.49,274.05 1614.78,275.478 1615.07,276.912 
  1615.36,278.351 1615.65,279.795 1615.94,281.243 1616.23,282.697 1616.52,284.156 1616.81,285.619 1617.1,287.087 1617.39,288.56 1617.68,290.038 1617.97,291.52 
  1618.26,293.007 1618.55,294.498 1618.84,295.994 1619.13,297.494 1619.42,298.999 1619.71,300.508 1620,302.021 1620.29,303.538 1620.58,305.06 1620.87,306.585 
  1621.16,308.115 1621.45,309.649 1621.74,311.187 1622.03,312.729 1622.32,314.274 1622.61,315.824 1622.9,317.377 1623.19,318.934 1623.48,320.495 1623.77,322.06 
  1624.06,323.628 1624.35,325.199 1624.64,326.775 1624.93,328.353 1625.22,329.935 1625.51,331.521 1625.8,333.11 1626.09,334.702 1626.38,336.298 1626.67,337.896 
  1626.96,339.498 1627.25,341.103 1627.54,342.711 1627.84,344.323 1628.13,345.937 1628.42,347.554 1628.71,349.174 1629,350.797 1629.29,352.423 1629.58,354.051 
  1629.87,355.683 1630.16,357.317 1630.45,358.954 1630.74,360.593 1631.03,362.235 1631.32,363.88 1631.61,365.527 1631.9,367.177 1632.19,368.829 1632.48,370.483 
  1632.77,372.14 1633.06,373.799 1633.35,375.46 1633.64,377.124 1633.93,378.79 1634.22,380.458 1634.51,382.128 1634.8,383.8 1635.09,385.475 1635.38,387.151 
  1635.67,388.829 1635.96,390.51 1636.25,392.192 1636.54,393.876 1636.83,395.562 1637.12,397.249 1637.41,398.939 1637.7,400.63 1637.99,402.323 1638.28,404.017 
  1638.57,405.713 1638.86,407.411 1639.15,409.11 1639.44,410.811 1639.73,412.513 1640.02,414.217 1640.31,415.922 1640.6,417.629 1640.89,419.337 1641.18,421.046 
  1641.47,422.756 1641.76,424.468 1642.05,426.181 1642.34,427.895 1642.63,429.61 1642.92,431.327 1643.21,433.044 1643.5,434.763 1643.79,436.482 1644.08,438.203 
  1644.37,439.924 1644.66,441.647 1644.95,443.37 1645.24,445.094 1645.53,446.819 1645.82,448.545 1646.11,450.272 1646.4,451.999 1646.69,453.727 1646.98,455.456 
  1647.27,457.185 1647.56,458.915 1647.85,460.646 1648.14,462.377 1648.43,464.109 1648.73,465.841 1649.02,467.573 1649.31,469.307 1649.6,471.04 1649.89,472.774 
  1650.18,474.508 1650.47,476.243 1650.76,477.978 1651.05,479.713 1651.34,481.449 1651.63,483.185 1651.92,484.921 1652.21,486.657 1652.5,488.393 1652.79,490.13 
  1653.08,491.866 1653.37,493.603 1653.66,495.339 1653.95,497.076 1654.24,498.813 1654.53,500.549 1654.82,502.286 1655.11,504.022 1655.4,505.759 1655.69,507.495 
  1655.98,509.231 1656.27,510.967 1656.56,512.703 1656.85,514.438 1657.14,516.173 1657.43,517.908 1657.72,519.643 1658.01,521.377 1658.3,523.112 1658.59,524.845 
  1658.88,526.578 1659.17,528.311 1659.46,530.044 1659.75,531.776 1660.04,533.507 1660.33,535.238 1660.62,536.969 1660.91,538.698 1661.2,540.428 1661.49,542.157 
  1661.78,543.885 1662.07,545.612 1662.36,547.339 1662.65,549.065 1662.94,550.791 1663.23,552.515 1663.52,554.239 1663.81,555.963 1664.1,557.685 1664.39,559.407 
  1664.68,561.128 1664.97,562.848 1665.26,564.567 1665.55,566.285 1665.84,568.003 1666.13,569.719 1666.42,571.435 1666.71,573.15 1667,574.863 1667.29,576.576 
  1667.58,578.287 1667.87,579.998 1668.16,581.708 1668.45,583.416 1668.74,585.124 1669.03,586.83 1669.32,588.535 1669.62,590.239 1669.91,591.942 1670.2,593.644 
  1670.49,595.345 1670.78,597.044 1671.07,598.742 1671.36,600.439 1671.65,602.135 1671.94,603.829 1672.23,605.522 1672.52,607.214 1672.81,608.905 1673.1,610.594 
  1673.39,612.282 1673.68,613.968 1673.97,615.653 1674.26,617.337 1674.55,619.019 1674.84,620.7 1675.13,622.379 1675.42,624.057 1675.71,625.734 1676,627.409 
  1676.29,629.082 1676.58,630.754 1676.87,632.424 1677.16,634.093 1677.45,635.761 1677.74,637.426 1678.03,639.091 1678.32,640.753 1678.61,642.414 1678.9,644.073 
  1679.19,645.731 1679.48,647.387 1679.77,649.041 1680.06,650.694 1680.35,652.345 1680.64,653.994 1680.93,655.642 1681.22,657.288 1681.51,658.932 1681.8,660.574 
  1682.09,662.215 1682.38,663.853 1682.67,665.49 1682.96,667.126 1683.25,668.759 1683.54,670.39 1683.83,672.02 1684.12,673.648 1684.41,675.274 1684.7,676.898 
  1684.99,678.52 1685.28,680.141 1685.57,681.759 1685.86,683.375 1686.15,684.99 1686.44,686.603 1686.73,688.213 1687.02,689.822 1687.31,691.429 1687.6,693.033 
  1687.89,694.636 1688.18,696.237 1688.47,697.836 1688.76,699.432 1689.05,701.027 1689.34,702.62 1689.63,704.21 1689.92,705.799 1690.21,707.385 1690.51,708.97 
  1690.8,710.552 1691.09,712.132 1691.38,713.71 1691.67,715.286 1691.96,716.86 1692.25,718.432 1692.54,720.002 1692.83,721.569 1693.12,723.134 1693.41,724.697 
  1693.7,726.258 1693.99,727.817 1694.28,729.374 1694.57,730.928 1694.86,732.48 1695.15,734.03 1695.44,735.578 1695.73,737.123 1696.02,738.666 1696.31,740.207 
  1696.6,741.746 1696.89,743.283 1697.18,744.817 1697.47,746.349 1697.76,747.879 1698.05,749.406 1698.34,750.931 1698.63,752.454 1698.92,753.974 1699.21,755.492 
  1699.5,757.008 1699.79,758.522 1700.08,760.033 1700.37,761.542 1700.66,763.048 1700.95,764.552 1701.24,766.054 1701.53,767.554 1701.82,769.051 1702.11,770.545 
  1702.4,772.038 1702.69,773.527 1702.98,775.015 1703.27,776.5 1703.56,777.983 1703.85,779.463 1704.14,780.941 1704.43,782.416 1704.72,783.889 1705.01,785.36 
  1705.3,786.828 1705.59,788.294 1705.88,789.757 1706.17,791.218 1706.46,792.676 1706.75,794.132 1707.04,795.586 1707.33,797.037 1707.62,798.485 1707.91,799.931 
  1708.2,801.375 1708.49,802.816 1708.78,804.255 1709.07,805.691 1709.36,807.124 1709.65,808.555 1709.94,809.984 1710.23,811.41 1710.52,812.834 1710.81,814.255 
  1711.11,815.673 1711.4,817.089 1711.69,818.503 1711.98,819.914 1712.27,821.322 1712.56,822.728 1712.85,824.131 1713.14,825.532 1713.43,826.93 1713.72,828.326 
  1714.01,829.719 1714.3,831.11 1714.59,832.498 1714.88,833.883 1715.17,835.266 1715.46,836.647 1715.75,838.024 1716.04,839.4 1716.33,840.772 1716.62,842.142 
  1716.91,843.51 1717.2,844.875 1717.49,846.237 1717.78,847.597 1718.07,848.954 1718.36,850.308 1718.65,851.66 1718.94,853.01 1719.23,854.357 1719.52,855.701 
  1719.81,857.042 1720.1,858.381 1720.39,859.718 1720.68,861.051 1720.97,862.383 1721.26,863.711 1721.55,865.037 1721.84,866.36 1722.13,867.681 1722.42,868.999 
  1722.71,870.315 1723,871.628 1723.29,872.938 1723.58,874.246 1723.87,875.551 1724.16,876.853 1724.45,878.153 1724.74,879.45 1725.03,880.745 1725.32,882.037 
  1725.61,883.326 1725.9,884.613 1726.19,885.897 1726.48,887.178 1726.77,888.457 1727.06,889.733 1727.35,891.007 1727.64,892.277 1727.93,893.546 1728.22,894.811 
  1728.51,896.074 1728.8,897.335 1729.09,898.593 1729.38,899.848 1729.67,901.1 1729.96,902.35 1730.25,903.597 1730.54,904.842 1730.83,906.084 1731.12,907.323 
  1731.41,908.56 1731.7,909.794 1732,911.026 1732.29,912.255 1732.58,913.481 1732.87,914.704 1733.16,915.925 1733.45,917.144 1733.74,918.359 1734.03,919.572 
  1734.32,920.783 1734.61,921.991 1734.9,923.196 1735.19,924.398 1735.48,925.598 1735.77,926.796 1736.06,927.99 1736.35,929.182 1736.64,930.372 1736.93,931.559 
  1737.22,932.743 1737.51,933.924 1737.8,935.103 1738.09,936.28 1738.38,937.453 1738.67,938.624 1738.96,939.793 1739.25,940.959 1739.54,942.122 1739.83,943.283 
  1740.12,944.441 1740.41,945.596 1740.7,946.749 1740.99,947.899 1741.28,949.047 1741.57,950.192 1741.86,951.334 1742.15,952.474 1742.44,953.611 1742.73,954.746 
  1743.02,955.878 1743.31,957.007 1743.6,958.134 1743.89,959.258 1744.18,960.38 1744.47,961.499 1744.76,962.616 1745.05,963.73 1745.34,964.841 1745.63,965.95 
  1745.92,967.056 1746.21,968.159 1746.5,969.26 1746.79,970.359 1747.08,971.454 1747.37,972.548 1747.66,973.638 1747.95,974.727 1748.24,975.812 1748.53,976.895 
  1748.82,977.976 1749.11,979.054 1749.4,980.129 1749.69,981.202 1749.98,982.272 1750.27,983.34 1750.56,984.405 1750.85,985.467 1751.14,986.527 1751.43,987.585 
  1751.72,988.64 1752.01,989.692 1752.3,990.742 1752.59,991.789 1752.89,992.834 1753.18,993.877 1753.47,994.916 1753.76,995.954 1754.05,996.988 1754.34,998.021 
  1754.63,999.05 1754.92,1000.08 1755.21,1001.1 1755.5,1002.12 1755.79,1003.14 1756.08,1004.16 1756.37,1005.18 1756.66,1006.19 1756.95,1007.2 1757.24,1008.21 
  1757.53,1009.21 1757.82,1010.21 1758.11,1011.21 1758.4,1012.21 1758.69,1013.2 1758.98,1014.2 1759.27,1015.19 1759.56,1016.17 1759.85,1017.16 1760.14,1018.14 
  1760.43,1019.12 1760.72,1020.1 1761.01,1021.07 1761.3,1022.05 1761.59,1023.02 1761.88,1023.98 1762.17,1024.95 1762.46,1025.91 1762.75,1026.87 1763.04,1027.83 
  1763.33,1028.79 1763.62,1029.74 1763.91,1030.69 1764.2,1031.64 1764.49,1032.58 1764.78,1033.53 1765.07,1034.47 1765.36,1035.41 1765.65,1036.34 1765.94,1037.28 
  1766.23,1038.21 1766.52,1039.14 1766.81,1040.06 1767.1,1040.99 1767.39,1041.91 1767.68,1042.83 1767.97,1043.75 1768.26,1044.66 1768.55,1045.57 1768.84,1046.48 
  1769.13,1047.39 1769.42,1048.3 1769.71,1049.2 1770,1050.1 1770.29,1051 1770.58,1051.9 1770.87,1052.79 1771.16,1053.68 1771.45,1054.57 1771.74,1055.46 
  1772.03,1056.34 1772.32,1057.22 1772.61,1058.1 1772.9,1058.98 1773.19,1059.85 1773.48,1060.73 1773.78,1061.6 1774.07,1062.46 1774.36,1063.33 1774.65,1064.19 
  1774.94,1065.06 1775.23,1065.91 1775.52,1066.77 1775.81,1067.62 1776.1,1068.48 1776.39,1069.33 1776.68,1070.17 1776.97,1071.02 1777.26,1071.86 1777.55,1072.7 
  1777.84,1073.54 1778.13,1074.38 1778.42,1075.21 1778.71,1076.04 1779,1076.87 1779.29,1077.7 1779.58,1078.52 1779.87,1079.35 1780.16,1080.17 1780.45,1080.99 
  1780.74,1081.8 1781.03,1082.62 1781.32,1083.43 1781.61,1084.24 1781.9,1085.04 1782.19,1085.85 1782.48,1086.65 1782.77,1087.45 1783.06,1088.25 1783.35,1089.05 
  1783.64,1089.84 1783.93,1090.63 1784.22,1091.42 1784.51,1092.21 1784.8,1093 1785.09,1093.78 1785.38,1094.56 1785.67,1095.34 1785.96,1096.12 1786.25,1096.89 
  1786.54,1097.66 1786.83,1098.43 1787.12,1099.2 1787.41,1099.97 1787.7,1100.73 1787.99,1101.49 1788.28,1102.25 1788.57,1103.01 1788.86,1103.77 1789.15,1104.52 
  1789.44,1105.27 1789.73,1106.02 1790.02,1106.77 1790.31,1107.51 1790.6,1108.25 1790.89,1109 1791.18,1109.73 1791.47,1110.47 1791.76,1111.21 1792.05,1111.94 
  1792.34,1112.67 1792.63,1113.4 1792.92,1114.12 1793.21,1114.85 1793.5,1115.57 1793.79,1116.29 1794.08,1117.01 1794.37,1117.72 1794.67,1118.44 1794.96,1119.15 
  1795.25,1119.86 1795.54,1120.57 1795.83,1121.27 1796.12,1121.98 1796.41,1122.68 1796.7,1123.38 1796.99,1124.08 1797.28,1124.77 1797.57,1125.47 1797.86,1126.16 
  1798.15,1126.85 1798.44,1127.54 1798.73,1128.23 1799.02,1128.91 1799.31,1129.59 1799.6,1130.27 1799.89,1130.95 1800.18,1131.63 1800.47,1132.3 1800.76,1132.97 
  1801.05,1133.64 1801.34,1134.31 1801.63,1134.98 1801.92,1135.64 1802.21,1136.31 1802.5,1136.97 1802.79,1137.63 1803.08,1138.28 1803.37,1138.94 1803.66,1139.59 
  1803.95,1140.24 1804.24,1140.89 1804.53,1141.54 1804.82,1142.18 1805.11,1142.83 1805.4,1143.47 1805.69,1144.11 1805.98,1144.75 1806.27,1145.38 1806.56,1146.02 
  1806.85,1146.65 1807.14,1147.28 1807.43,1147.91 1807.72,1148.54 1808.01,1149.16 1808.3,1149.79 1808.59,1150.41 1808.88,1151.03 1809.17,1151.64 1809.46,1152.26 
  1809.75,1152.87 1810.04,1153.49 1810.33,1154.1 1810.62,1154.71 1810.91,1155.31 1811.2,1155.92 1811.49,1156.52 1811.78,1157.12 1812.07,1157.72 1812.36,1158.32 
  1812.65,1158.92 1812.94,1159.51 1813.23,1160.1 1813.52,1160.69 1813.81,1161.28 1814.1,1161.87 1814.39,1162.46 1814.68,1163.04 1814.97,1163.62 1815.26,1164.2 
  1815.56,1164.78 1815.85,1165.36 1816.14,1165.93 1816.43,1166.51 1816.72,1167.08 1817.01,1167.65 1817.3,1168.22 1817.59,1168.78 1817.88,1169.35 1818.17,1169.91 
  1818.46,1170.47 1818.75,1171.03 1819.04,1171.59 1819.33,1172.15 1819.62,1172.7 1819.91,1173.25 1820.2,1173.8 1820.49,1174.35 1820.78,1174.9 1821.07,1175.45 
  1821.36,1175.99 1821.65,1176.54 1821.94,1177.08 1822.23,1177.62 1822.52,1178.16 1822.81,1178.69 1823.1,1179.23 1823.39,1179.76 1823.68,1180.29 1823.97,1180.82 
  1824.26,1181.35 1824.55,1181.88 1824.84,1182.4 1825.13,1182.92 1825.42,1183.45 1825.71,1183.97 1826,1184.49 1826.29,1185 1826.58,1185.52 1826.87,1186.03 
  1827.16,1186.54 1827.45,1187.05 1827.74,1187.56 1828.03,1188.07 1828.32,1188.58 1828.61,1189.08 1828.9,1189.58 1829.19,1190.09 1829.48,1190.59 1829.77,1191.08 
  1830.06,1191.58 1830.35,1192.08 1830.64,1192.57 1830.93,1193.06 1831.22,1193.55 1831.51,1194.04 1831.8,1194.53 1832.09,1195.01 1832.38,1195.5 1832.67,1195.98 
  1832.96,1196.46 1833.25,1196.94 1833.54,1197.42 1833.83,1197.9 1834.12,1198.37 1834.41,1198.85 1834.7,1199.32 1834.99,1199.79 1835.28,1200.26 1835.57,1200.73 
  1835.86,1201.2 1836.15,1201.66 1836.45,1202.12 1836.74,1202.59 1837.03,1203.05 1837.32,1203.51 1837.61,1203.97 1837.9,1204.42 1838.19,1204.88 1838.48,1205.33 
  1838.77,1205.78 1839.06,1206.23 1839.35,1206.68 1839.64,1207.13 1839.93,1207.58 1840.22,1208.02 1840.51,1208.47 1840.8,1208.91 1841.09,1209.35 1841.38,1209.79 
  1841.67,1210.23 1841.96,1210.66 1842.25,1211.1 1842.54,1211.53 1842.83,1211.97 1843.12,1212.4 1843.41,1212.83 1843.7,1213.26 1843.99,1213.68 1844.28,1214.11 
  1844.57,1214.53 1844.86,1214.96 1845.15,1215.38 1845.44,1215.8 1845.73,1216.22 1846.02,1216.63 1846.31,1217.05 1846.6,1217.47 1846.89,1217.88 1847.18,1218.29 
  1847.47,1218.7 1847.76,1219.11 1848.05,1219.52 1848.34,1219.93 1848.63,1220.33 1848.92,1220.74 1849.21,1221.14 1849.5,1221.54 1849.79,1221.94 1850.08,1222.34 
  1850.37,1222.74 1850.66,1223.14 1850.95,1223.53 1851.24,1223.93 1851.53,1224.32 1851.82,1224.71 1852.11,1225.1 1852.4,1225.49 1852.69,1225.88 1852.98,1226.27 
  1853.27,1226.65 1853.56,1227.04 1853.85,1227.42 1854.14,1227.8 1854.43,1228.18 1854.72,1228.56 1855.01,1228.94 1855.3,1229.31 1855.59,1229.69 1855.88,1230.06 
  1856.17,1230.44 1856.46,1230.81 1856.75,1231.18 1857.04,1231.55 1857.34,1231.92 1857.63,1232.29 1857.92,1232.65 1858.21,1233.02 1858.5,1233.38 1858.79,1233.74 
  1859.08,1234.1 1859.37,1234.46 1859.66,1234.82 1859.95,1235.18 1860.24,1235.54 1860.53,1235.89 1860.82,1236.24 1861.11,1236.6 1861.4,1236.95 1861.69,1237.3 
  1861.98,1237.65 1862.27,1238 1862.56,1238.34 1862.85,1238.69 1863.14,1239.04 1863.43,1239.38 1863.72,1239.72 1864.01,1240.06 1864.3,1240.4 1864.59,1240.74 
  1864.88,1241.08 1865.17,1241.42 1865.46,1241.75 1865.75,1242.09 1866.04,1242.42 1866.33,1242.76 1866.62,1243.09 1866.91,1243.42 1867.2,1243.75 1867.49,1244.08 
  1867.78,1244.4 1868.07,1244.73 1868.36,1245.05 1868.65,1245.38 1868.94,1245.7 1869.23,1246.02 1869.52,1246.34 1869.81,1246.66 1870.1,1246.98 1870.39,1247.3 
  1870.68,1247.61 1870.97,1247.93 1871.26,1248.24 1871.55,1248.56 1871.84,1248.87 1872.13,1249.18 1872.42,1249.49 1872.71,1249.8 1873,1250.11 1873.29,1250.42 
  1873.58,1250.72 1873.87,1251.03 1874.16,1251.33 1874.45,1251.63 1874.74,1251.94 1875.03,1252.24 1875.32,1252.54 1875.61,1252.84 1875.9,1253.13 1876.19,1253.43 
  1876.48,1253.73 1876.77,1254.02 1877.06,1254.32 1877.35,1254.61 1877.64,1254.9 1877.93,1255.19 1878.23,1255.48 1878.52,1255.77 1878.81,1256.06 1879.1,1256.35 
  1879.39,1256.63 1879.68,1256.92 1879.97,1257.2 1880.26,1257.49 1880.55,1257.77 1880.84,1258.05 1881.13,1258.33 1881.42,1258.61 1881.71,1258.89 1882,1259.17 
  1882.29,1259.44 1882.58,1259.72 1882.87,1259.99 1883.16,1260.27 1883.45,1260.54 1883.74,1260.81 1884.03,1261.08 1884.32,1261.35 1884.61,1261.62 1884.9,1261.89 
  1885.19,1262.16 1885.48,1262.42 1885.77,1262.69 1886.06,1262.96 1886.35,1263.22 1886.64,1263.48 1886.93,1263.74 1887.22,1264.01 1887.51,1264.27 1887.8,1264.52 
  1888.09,1264.78 1888.38,1265.04 1888.67,1265.3 1888.96,1265.55 1889.25,1265.81 1889.54,1266.06 1889.83,1266.32 1890.12,1266.57 1890.41,1266.82 1890.7,1267.07 
  1890.99,1267.32 1891.28,1267.57 1891.57,1267.82 1891.86,1268.06 1892.15,1268.31 1892.44,1268.56 1892.73,1268.8 1893.02,1269.05 1893.31,1269.29 1893.6,1269.53 
  1893.89,1269.77 1894.18,1270.01 1894.47,1270.25 1894.76,1270.49 1895.05,1270.73 1895.34,1270.97 1895.63,1271.2 1895.92,1271.44 1896.21,1271.67 1896.5,1271.91 
  1896.79,1272.14 1897.08,1272.37 1897.37,1272.61 1897.66,1272.84 1897.95,1273.07 1898.24,1273.3 1898.53,1273.52 1898.82,1273.75 1899.12,1273.98 1899.41,1274.2 
  1899.7,1274.43 1899.99,1274.65 1900.28,1274.88 1900.57,1275.1 1900.86,1275.32 1901.15,1275.54 1901.44,1275.77 1901.73,1275.99 1902.02,1276.2 1902.31,1276.42 
  1902.6,1276.64 1902.89,1276.86 1903.18,1277.07 1903.47,1277.29 1903.76,1277.5 1904.05,1277.72 1904.34,1277.93 1904.63,1278.14 1904.92,1278.35 1905.21,1278.57 
  1905.5,1278.78 1905.79,1278.99 1906.08,1279.19 1906.37,1279.4 1906.66,1279.61 1906.95,1279.82 1907.24,1280.02 1907.53,1280.23 1907.82,1280.43 1908.11,1280.63 
  1908.4,1280.84 1908.69,1281.04 1908.98,1281.24 1909.27,1281.44 1909.56,1281.64 1909.85,1281.84 1910.14,1282.04 1910.43,1282.24 1910.72,1282.44 1911.01,1282.63 
  1911.3,1282.83 1911.59,1283.02 1911.88,1283.22 1912.17,1283.41 1912.46,1283.61 1912.75,1283.8 1913.04,1283.99 1913.33,1284.18 1913.62,1284.37 1913.91,1284.56 
  1914.2,1284.75 1914.49,1284.94 1914.78,1285.13 1915.07,1285.32 1915.36,1285.5 1915.65,1285.69 1915.94,1285.87 1916.23,1286.06 1916.52,1286.24 1916.81,1286.43 
  1917.1,1286.61 1917.39,1286.79 1917.68,1286.97 1917.97,1287.15 1918.26,1287.33 1918.55,1287.51 1918.84,1287.69 1919.13,1287.87 1919.42,1288.05 1919.71,1288.22 
  1920.01,1288.4 1920.3,1288.58 1920.59,1288.75 1920.88,1288.92 1921.17,1289.1 1921.46,1289.27 1921.75,1289.44 1922.04,1289.62 1922.33,1289.79 1922.62,1289.96 
  1922.91,1290.13 1923.2,1290.3 1923.49,1290.47 1923.78,1290.64 1924.07,1290.8 1924.36,1290.97 1924.65,1291.14 1924.94,1291.3 1925.23,1291.47 1925.52,1291.63 
  1925.81,1291.8 1926.1,1291.96 1926.39,1292.12 1926.68,1292.29 1926.97,1292.45 1927.26,1292.61 1927.55,1292.77 1927.84,1292.93 1928.13,1293.09 1928.42,1293.25 
  1928.71,1293.41 1929,1293.57 1929.29,1293.72 1929.58,1293.88 1929.87,1294.04 1930.16,1294.19 1930.45,1294.35 1930.74,1294.5 1931.03,1294.66 1931.32,1294.81 
  1931.61,1294.96 1931.9,1295.12 1932.19,1295.27 1932.48,1295.42 1932.77,1295.57 1933.06,1295.72 1933.35,1295.87 1933.64,1296.02 1933.93,1296.17 1934.22,1296.31 
  1934.51,1296.46 1934.8,1296.61 1935.09,1296.76 1935.38,1296.9 1935.67,1297.05 1935.96,1297.19 1936.25,1297.34 1936.54,1297.48 1936.83,1297.62 1937.12,1297.77 
  1937.41,1297.91 1937.7,1298.05 1937.99,1298.19 1938.28,1298.33 1938.57,1298.47 1938.86,1298.61 1939.15,1298.75 1939.44,1298.89 1939.73,1299.03 1940.02,1299.17 
  1940.31,1299.3 1940.6,1299.44 1940.9,1299.58 1941.19,1299.71 1941.48,1299.85 1941.77,1299.98 1942.06,1300.12 1942.35,1300.25 1942.64,1300.38 1942.93,1300.52 
  1943.22,1300.65 1943.51,1300.78 1943.8,1300.91 1944.09,1301.04 1944.38,1301.17 1944.67,1301.3 1944.96,1301.43 1945.25,1301.56 1945.54,1301.69 1945.83,1301.82 
  1946.12,1301.95 1946.41,1302.07 1946.7,1302.2 1946.99,1302.33 1947.28,1302.45 1947.57,1302.58 1947.86,1302.7 1948.15,1302.83 1948.44,1302.95 1948.73,1303.08 
  1949.02,1303.2 1949.31,1303.32 1949.6,1303.44 1949.89,1303.57 1950.18,1303.69 1950.47,1303.81 1950.76,1303.93 1951.05,1304.05 1951.34,1304.17 1951.63,1304.29 
  1951.92,1304.41 1952.21,1304.52 1952.5,1304.64 1952.79,1304.76 1953.08,1304.88 1953.37,1304.99 1953.66,1305.11 1953.95,1305.22 1954.24,1305.34 1954.53,1305.45 
  1954.82,1305.57 1955.11,1305.68 1955.4,1305.8 1955.69,1305.91 1955.98,1306.02 1956.27,1306.14 1956.56,1306.25 1956.85,1306.36 1957.14,1306.47 1957.43,1306.58 
  1957.72,1306.69 1958.01,1306.8 1958.3,1306.91 1958.59,1307.02 1958.88,1307.13 1959.17,1307.24 1959.46,1307.34 1959.75,1307.45 1960.04,1307.56 1960.33,1307.67 
  1960.62,1307.77 1960.91,1307.88 1961.2,1307.98 1961.49,1308.09 1961.79,1308.19 1962.08,1308.3 1962.37,1308.4 1962.66,1308.51 1962.95,1308.61 1963.24,1308.71 
  1963.53,1308.81 1963.82,1308.92 1964.11,1309.02 1964.4,1309.12 1964.69,1309.22 1964.98,1309.32 1965.27,1309.42 1965.56,1309.52 1965.85,1309.62 1966.14,1309.72 
  1966.43,1309.82 1966.72,1309.92 1967.01,1310.02 1967.3,1310.11 1967.59,1310.21 1967.88,1310.31 1968.17,1310.4 1968.46,1310.5 1968.75,1310.6 1969.04,1310.69 
  1969.33,1310.79 1969.62,1310.88 1969.91,1310.98 1970.2,1311.07 1970.49,1311.16 1970.78,1311.26 1971.07,1311.35 1971.36,1311.44 1971.65,1311.54 1971.94,1311.63 
  1972.23,1311.72 1972.52,1311.81 1972.81,1311.9 1973.1,1311.99 1973.39,1312.08 1973.68,1312.17 1973.97,1312.26 1974.26,1312.35 1974.55,1312.44 1974.84,1312.53 
  1975.13,1312.62 1975.42,1312.71 1975.71,1312.79 1976,1312.88 1976.29,1312.97 1976.58,1313.06 1976.87,1313.14 1977.16,1313.23 1977.45,1313.31 1977.74,1313.4 
  1978.03,1313.48 1978.32,1313.57 1978.61,1313.65 1978.9,1313.74 1979.19,1313.82 1979.48,1313.91 1979.77,1313.99 1980.06,1314.07 1980.35,1314.15 1980.64,1314.24 
  1980.93,1314.32 1981.22,1314.4 1981.51,1314.48 1981.8,1314.56 1982.09,1314.64 1982.38,1314.72 1982.68,1314.8 1982.97,1314.88 1983.26,1314.96 1983.55,1315.04 
  1983.84,1315.12 1984.13,1315.2 1984.42,1315.28 1984.71,1315.36 1985,1315.44 1985.29,1315.51 1985.58,1315.59 1985.87,1315.67 1986.16,1315.74 1986.45,1315.82 
  1986.74,1315.9 1987.03,1315.97 1987.32,1316.05 1987.61,1316.12 1987.9,1316.2 1988.19,1316.27 1988.48,1316.35 1988.77,1316.42 1989.06,1316.49 1989.35,1316.57 
  1989.64,1316.64 1989.93,1316.71 1990.22,1316.79 1990.51,1316.86 1990.8,1316.93 1991.09,1317 1991.38,1317.08 1991.67,1317.15 1991.96,1317.22 1992.25,1317.29 
  1992.54,1317.36 1992.83,1317.43 1993.12,1317.5 1993.41,1317.57 1993.7,1317.64 1993.99,1317.71 1994.28,1317.78 1994.57,1317.85 1994.86,1317.92 1995.15,1317.98 
  1995.44,1318.05 1995.73,1318.12 1996.02,1318.19 1996.31,1318.25 1996.6,1318.32 1996.89,1318.39 1997.18,1318.45 1997.47,1318.52 1997.76,1318.59 1998.05,1318.65 
  1998.34,1318.72 1998.63,1318.78 1998.92,1318.85 1999.21,1318.91 1999.5,1318.98 1999.79,1319.04 2000.08,1319.1 2000.37,1319.17 2000.66,1319.23 2000.95,1319.3 
  2001.24,1319.36 2001.53,1319.42 2001.82,1319.48 2002.11,1319.55 2002.4,1319.61 2002.69,1319.67 2002.98,1319.73 2003.27,1319.79 2003.57,1319.85 2003.86,1319.91 
  2004.15,1319.98 2004.44,1320.04 2004.73,1320.1 2005.02,1320.16 2005.31,1320.22 2005.6,1320.28 2005.89,1320.33 2006.18,1320.39 2006.47,1320.45 2006.76,1320.51 
  2007.05,1320.57 2007.34,1320.63 2007.63,1320.69 2007.92,1320.74 2008.21,1320.8 2008.5,1320.86 2008.79,1320.92 2009.08,1320.97 2009.37,1321.03 2009.66,1321.09 
  2009.95,1321.14 2010.24,1321.2 2010.53,1321.25 2010.82,1321.31 2011.11,1321.36 2011.4,1321.42 2011.69,1321.47 2011.98,1321.53 2012.27,1321.58 2012.56,1321.64 
  2012.85,1321.69 2013.14,1321.75 2013.43,1321.8 2013.72,1321.85 2014.01,1321.91 2014.3,1321.96 2014.59,1322.01 2014.88,1322.07 2015.17,1322.12 2015.46,1322.17 
  2015.75,1322.22 2016.04,1322.27 2016.33,1322.33 2016.62,1322.38 2016.91,1322.43 2017.2,1322.48 2017.49,1322.53 2017.78,1322.58 2018.07,1322.63 2018.36,1322.68 
  2018.65,1322.73 2018.94,1322.78 2019.23,1322.83 2019.52,1322.88 2019.81,1322.93 2020.1,1322.98 2020.39,1323.03 2020.68,1323.08 2020.97,1323.13 2021.26,1323.18 
  2021.55,1323.22 2021.84,1323.27 2022.13,1323.32 2022.42,1323.37 2022.71,1323.41 2023,1323.46 2023.29,1323.51 2023.58,1323.56 2023.87,1323.6 2024.16,1323.65 
  2024.46,1323.7 2024.75,1323.74 2025.04,1323.79 2025.33,1323.83 2025.62,1323.88 2025.91,1323.93 2026.2,1323.97 2026.49,1324.02 2026.78,1324.06 2027.07,1324.11 
  2027.36,1324.15 2027.65,1324.19 2027.94,1324.24 2028.23,1324.28 2028.52,1324.33 2028.81,1324.37 2029.1,1324.41 2029.39,1324.46 2029.68,1324.5 2029.97,1324.54 
  2030.26,1324.59 2030.55,1324.63 2030.84,1324.67 2031.13,1324.72 2031.42,1324.76 2031.71,1324.8 2032,1324.84 2032.29,1324.88 2032.58,1324.93 2032.87,1324.97 
  2033.16,1325.01 2033.45,1325.05 2033.74,1325.09 2034.03,1325.13 2034.32,1325.17 2034.61,1325.21 2034.9,1325.25 2035.19,1325.29 2035.48,1325.33 2035.77,1325.37 
  2036.06,1325.41 2036.35,1325.45 2036.64,1325.49 2036.93,1325.53 2037.22,1325.57 2037.51,1325.61 2037.8,1325.65 2038.09,1325.69 2038.38,1325.73 2038.67,1325.76 
  2038.96,1325.8 2039.25,1325.84 2039.54,1325.88 2039.83,1325.92 2040.12,1325.95 2040.41,1325.99 2040.7,1326.03 2040.99,1326.07 2041.28,1326.1 2041.57,1326.14 
  2041.86,1326.18 2042.15,1326.21 2042.44,1326.25 2042.73,1326.29 2043.02,1326.32 2043.31,1326.36 2043.6,1326.4 2043.89,1326.43 2044.18,1326.47 2044.47,1326.5 
  2044.76,1326.54 2045.05,1326.57 2045.35,1326.61 2045.64,1326.64 2045.93,1326.68 2046.22,1326.71 2046.51,1326.75 2046.8,1326.78 2047.09,1326.82 2047.38,1326.85 
  2047.67,1326.88 2047.96,1326.92 2048.25,1326.95 2048.54,1326.99 2048.83,1327.02 2049.12,1327.05 2049.41,1327.09 2049.7,1327.12 2049.99,1327.15 2050.28,1327.18 
  2050.57,1327.22 2050.86,1327.25 2051.15,1327.28 2051.44,1327.32 2051.73,1327.35 2052.02,1327.38 2052.31,1327.41 2052.6,1327.44 2052.89,1327.47 2053.18,1327.51 
  2053.47,1327.54 2053.76,1327.57 2054.05,1327.6 2054.34,1327.63 2054.63,1327.66 2054.92,1327.69 2055.21,1327.72 2055.5,1327.76 2055.79,1327.79 2056.08,1327.82 
  2056.37,1327.85 2056.66,1327.88 2056.95,1327.91 2057.24,1327.94 2057.53,1327.97 2057.82,1328 2058.11,1328.03 2058.4,1328.06 2058.69,1328.08 2058.98,1328.11 
  2059.27,1328.14 2059.56,1328.17 2059.85,1328.2 2060.14,1328.23 2060.43,1328.26 2060.72,1328.29 2061.01,1328.32 2061.3,1328.34 2061.59,1328.37 2061.88,1328.4 
  2062.17,1328.43 2062.46,1328.46 2062.75,1328.48 2063.04,1328.51 2063.33,1328.54 2063.62,1328.57 2063.91,1328.59 2064.2,1328.62 2064.49,1328.65 2064.78,1328.67 
  2065.07,1328.7 2065.36,1328.73 2065.65,1328.76 2065.94,1328.78 2066.24,1328.81 2066.53,1328.83 2066.82,1328.86 2067.11,1328.89 2067.4,1328.91 2067.69,1328.94 
  2067.98,1328.97 2068.27,1328.99 2068.56,1329.02 2068.85,1329.04 2069.14,1329.07 2069.43,1329.09 2069.72,1329.12 2070.01,1329.14 2070.3,1329.17 2070.59,1329.19 
  2070.88,1329.22 2071.17,1329.24 2071.46,1329.27 2071.75,1329.29 2072.04,1329.32 2072.33,1329.34 2072.62,1329.37 2072.91,1329.39 2073.2,1329.41 2073.49,1329.44 
  2073.78,1329.46 2074.07,1329.49 2074.36,1329.51 2074.65,1329.53 2074.94,1329.56 2075.23,1329.58 2075.52,1329.6 2075.81,1329.63 2076.1,1329.65 2076.39,1329.67 
  2076.68,1329.7 2076.97,1329.72 2077.26,1329.74 2077.55,1329.76 2077.84,1329.79 2078.13,1329.81 2078.42,1329.83 2078.71,1329.85 2079,1329.88 2079.29,1329.9 
  2079.58,1329.92 2079.87,1329.94 2080.16,1329.96 2080.45,1329.99 2080.74,1330.01 2081.03,1330.03 2081.32,1330.05 2081.61,1330.07 2081.9,1330.09 2082.19,1330.12 
  2082.48,1330.14 2082.77,1330.16 2083.06,1330.18 2083.35,1330.2 2083.64,1330.22 2083.93,1330.24 2084.22,1330.26 2084.51,1330.28 2084.8,1330.3 2085.09,1330.32 
  2085.38,1330.34 2085.67,1330.37 2085.96,1330.39 2086.25,1330.41 2086.54,1330.43 2086.83,1330.45 2087.13,1330.47 2087.42,1330.49 2087.71,1330.51 2088,1330.52 
  2088.29,1330.54 2088.58,1330.56 2088.87,1330.58 2089.16,1330.6 2089.45,1330.62 2089.74,1330.64 2090.03,1330.66 2090.32,1330.68 2090.61,1330.7 2090.9,1330.72 
  2091.19,1330.74 2091.48,1330.76 2091.77,1330.77 2092.06,1330.79 2092.35,1330.81 2092.64,1330.83 2092.93,1330.85 2093.22,1330.87 2093.51,1330.88 2093.8,1330.9 
  2094.09,1330.92 2094.38,1330.94 2094.67,1330.96 2094.96,1330.97 2095.25,1330.99 2095.54,1331.01 2095.83,1331.03 2096.12,1331.05 2096.41,1331.06 2096.7,1331.08 
  2096.99,1331.1 2097.28,1331.12 2097.57,1331.13 2097.86,1331.15 2098.15,1331.17 2098.44,1331.18 2098.73,1331.2 2099.02,1331.22 2099.31,1331.23 2099.6,1331.25 
  2099.89,1331.27 2100.18,1331.28 2100.47,1331.3 2100.76,1331.32 2101.05,1331.33 2101.34,1331.35 2101.63,1331.37 2101.92,1331.38 2102.21,1331.4 2102.5,1331.42 
  2102.79,1331.43 2103.08,1331.45 2103.37,1331.46 2103.66,1331.48 2103.95,1331.5 2104.24,1331.51 2104.53,1331.53 2104.82,1331.54 2105.11,1331.56 2105.4,1331.57 
  2105.69,1331.59 2105.98,1331.6 2106.27,1331.62 2106.56,1331.63 2106.85,1331.65 2107.14,1331.67 2107.43,1331.68 2107.72,1331.7 2108.02,1331.71 2108.31,1331.73 
  2108.6,1331.74 2108.89,1331.75 2109.18,1331.77 2109.47,1331.78 2109.76,1331.8 2110.05,1331.81 2110.34,1331.83 2110.63,1331.84 2110.92,1331.86 2111.21,1331.87 
  2111.5,1331.89 2111.79,1331.9 2112.08,1331.91 2112.37,1331.93 2112.66,1331.94 2112.95,1331.96 2113.24,1331.97 2113.53,1331.98 2113.82,1332 2114.11,1332.01 
  2114.4,1332.02 2114.69,1332.04 2114.98,1332.05 2115.27,1332.07 2115.56,1332.08 2115.85,1332.09 2116.14,1332.11 2116.43,1332.12 2116.72,1332.13 2117.01,1332.15 
  2117.3,1332.16 2117.59,1332.17 2117.88,1332.18 2118.17,1332.2 2118.46,1332.21 2118.75,1332.22 2119.04,1332.24 2119.33,1332.25 2119.62,1332.26 2119.91,1332.27 
  2120.2,1332.29 2120.49,1332.3 2120.78,1332.31 2121.07,1332.32 2121.36,1332.34 2121.65,1332.35 2121.94,1332.36 2122.23,1332.37 2122.52,1332.39 2122.81,1332.4 
  2123.1,1332.41 2123.39,1332.42 2123.68,1332.43 2123.97,1332.45 2124.26,1332.46 2124.55,1332.47 2124.84,1332.48 2125.13,1332.49 2125.42,1332.51 2125.71,1332.52 
  2126,1332.53 2126.29,1332.54 2126.58,1332.55 2126.87,1332.56 2127.16,1332.57 2127.45,1332.59 2127.74,1332.6 2128.03,1332.61 2128.32,1332.62 2128.61,1332.63 
  2128.91,1332.64 2129.2,1332.65 2129.49,1332.66 2129.78,1332.68 2130.07,1332.69 2130.36,1332.7 2130.65,1332.71 2130.94,1332.72 2131.23,1332.73 2131.52,1332.74 
  2131.81,1332.75 2132.1,1332.76 2132.39,1332.77 2132.68,1332.78 2132.97,1332.79 2133.26,1332.81 2133.55,1332.82 2133.84,1332.83 2134.13,1332.84 2134.42,1332.85 
  2134.71,1332.86 2135,1332.87 2135.29,1332.88 2135.58,1332.89 2135.87,1332.9 2136.16,1332.91 2136.45,1332.92 2136.74,1332.93 2137.03,1332.94 2137.32,1332.95 
  2137.61,1332.96 2137.9,1332.97 2138.19,1332.98 2138.48,1332.99 2138.77,1333 2139.06,1333.01 2139.35,1333.02 2139.64,1333.03 2139.93,1333.04 2140.22,1333.05 
  2140.51,1333.05 2140.8,1333.06 2141.09,1333.07 2141.38,1333.08 2141.67,1333.09 2141.96,1333.1 2142.25,1333.11 2142.54,1333.12 2142.83,1333.13 2143.12,1333.14 
  2143.41,1333.15 2143.7,1333.16 2143.99,1333.17 2144.28,1333.17 2144.57,1333.18 2144.86,1333.19 2145.15,1333.2 2145.44,1333.21 2145.73,1333.22 2146.02,1333.23 
  2146.31,1333.24 2146.6,1333.25 2146.89,1333.25 2147.18,1333.26 2147.47,1333.27 2147.76,1333.28 2148.05,1333.29 2148.34,1333.3 2148.63,1333.31 2148.92,1333.31 
  2149.21,1333.32 2149.5,1333.33 2149.8,1333.34 2150.09,1333.35 2150.38,1333.36 2150.67,1333.36 2150.96,1333.37 2151.25,1333.38 2151.54,1333.39 2151.83,1333.4 
  2152.12,1333.4 2152.41,1333.41 2152.7,1333.42 2152.99,1333.43 2153.28,1333.44 2153.57,1333.44 2153.86,1333.45 2154.15,1333.46 2154.44,1333.47 2154.73,1333.48 
  2155.02,1333.48 2155.31,1333.49 2155.6,1333.5 2155.89,1333.51 2156.18,1333.51 2156.47,1333.52 2156.76,1333.53 2157.05,1333.54 2157.34,1333.54 2157.63,1333.55 
  2157.92,1333.56 2158.21,1333.57 2158.5,1333.57 2158.79,1333.58 2159.08,1333.59 2159.37,1333.6 2159.66,1333.6 2159.95,1333.61 2160.24,1333.62 2160.53,1333.63 
  2160.82,1333.63 2161.11,1333.64 2161.4,1333.65 2161.69,1333.65 2161.98,1333.66 2162.27,1333.67 2162.56,1333.67 2162.85,1333.68 2163.14,1333.69 2163.43,1333.7 
  2163.72,1333.7 2164.01,1333.71 2164.3,1333.72 2164.59,1333.72 2164.88,1333.73 2165.17,1333.74 2165.46,1333.74 2165.75,1333.75 2166.04,1333.76 2166.33,1333.76 
  2166.62,1333.77 2166.91,1333.78 2167.2,1333.78 2167.49,1333.79 2167.78,1333.8 2168.07,1333.8 2168.36,1333.81 2168.65,1333.81 2168.94,1333.82 2169.23,1333.83 
  2169.52,1333.83 2169.81,1333.84 2170.1,1333.85 2170.39,1333.85 2170.69,1333.86 2170.98,1333.86 2171.27,1333.87 2171.56,1333.88 2171.85,1333.88 2172.14,1333.89 
  2172.43,1333.9 2172.72,1333.9 2173.01,1333.91 2173.3,1333.91 2173.59,1333.92 2173.88,1333.93 2174.17,1333.93 2174.46,1333.94 2174.75,1333.94 2175.04,1333.95 
  2175.33,1333.95 2175.62,1333.96 2175.91,1333.97 2176.2,1333.97 2176.49,1333.98 2176.78,1333.98 2177.07,1333.99 2177.36,1333.99 2177.65,1334 2177.94,1334.01 
  2178.23,1334.01 2178.52,1334.02 2178.81,1334.02 2179.1,1334.03 2179.39,1334.03 2179.68,1334.04 2179.97,1334.04 2180.26,1334.05 2180.55,1334.06 2180.84,1334.06 
  2181.13,1334.07 2181.42,1334.07 2181.71,1334.08 2182,1334.08 2182.29,1334.09 2182.58,1334.09 2182.87,1334.1 2183.16,1334.1 2183.45,1334.11 2183.74,1334.11 
  2184.03,1334.12 2184.32,1334.12 2184.61,1334.13 2184.9,1334.13 2185.19,1334.14 2185.48,1334.14 2185.77,1334.15 2186.06,1334.15 2186.35,1334.16 2186.64,1334.16 
  2186.93,1334.17 2187.22,1334.17 2187.51,1334.18 2187.8,1334.18 2188.09,1334.19 2188.38,1334.19 2188.67,1334.2 2188.96,1334.2 2189.25,1334.21 2189.54,1334.21 
  2189.83,1334.22 2190.12,1334.22 2190.41,1334.23 2190.7,1334.23 2190.99,1334.24 2191.28,1334.24 2191.58,1334.25 2191.87,1334.25 2192.16,1334.25 2192.45,1334.26 
  2192.74,1334.26 2193.03,1334.27 2193.32,1334.27 2193.61,1334.28 2193.9,1334.28 2194.19,1334.29 2194.48,1334.29 2194.77,1334.29 2195.06,1334.3 2195.35,1334.3 
  2195.64,1334.31 2195.93,1334.31 2196.22,1334.32 2196.51,1334.32 2196.8,1334.32 2197.09,1334.33 2197.38,1334.33 2197.67,1334.34 2197.96,1334.34 2198.25,1334.35 
  2198.54,1334.35 2198.83,1334.35 2199.12,1334.36 2199.41,1334.36 2199.7,1334.37 2199.99,1334.37 2200.28,1334.38 2200.57,1334.38 2200.86,1334.38 2201.15,1334.39 
  2201.44,1334.39 2201.73,1334.4 2202.02,1334.4 2202.31,1334.4 2202.6,1334.41 2202.89,1334.41 2203.18,1334.41 2203.47,1334.42 2203.76,1334.42 2204.05,1334.43 
  2204.34,1334.43 2204.63,1334.43 2204.92,1334.44 2205.21,1334.44 2205.5,1334.45 2205.79,1334.45 2206.08,1334.45 2206.37,1334.46 2206.66,1334.46 2206.95,1334.46 
  2207.24,1334.47 2207.53,1334.47 2207.82,1334.48 2208.11,1334.48 2208.4,1334.48 2208.69,1334.49 2208.98,1334.49 2209.27,1334.49 2209.56,1334.5 2209.85,1334.5 
  2210.14,1334.5 2210.43,1334.51 2210.72,1334.51 2211.01,1334.51 2211.3,1334.52 2211.59,1334.52 2211.88,1334.52 2212.17,1334.53 2212.47,1334.53 2212.76,1334.54 
  2213.05,1334.54 2213.34,1334.54 2213.63,1334.55 2213.92,1334.55 2214.21,1334.55 2214.5,1334.56 2214.79,1334.56 2215.08,1334.56 2215.37,1334.57 2215.66,1334.57 
  2215.95,1334.57 2216.24,1334.58 2216.53,1334.58 2216.82,1334.58 2217.11,1334.58 2217.4,1334.59 2217.69,1334.59 2217.98,1334.59 2218.27,1334.6 2218.56,1334.6 
  2218.85,1334.6 2219.14,1334.61 2219.43,1334.61 2219.72,1334.61 2220.01,1334.62 2220.3,1334.62 2220.59,1334.62 2220.88,1334.63 2221.17,1334.63 2221.46,1334.63 
  2221.75,1334.63 2222.04,1334.64 2222.33,1334.64 2222.62,1334.64 2222.91,1334.65 2223.2,1334.65 2223.49,1334.65 2223.78,1334.65 2224.07,1334.66 2224.36,1334.66 
  2224.65,1334.66 2224.94,1334.67 2225.23,1334.67 2225.52,1334.67 2225.81,1334.67 2226.1,1334.68 2226.39,1334.68 2226.68,1334.68 2226.97,1334.69 2227.26,1334.69 
  2227.55,1334.69 2227.84,1334.69 2228.13,1334.7 2228.42,1334.7 2228.71,1334.7 2229,1334.71 2229.29,1334.71 2229.58,1334.71 2229.87,1334.71 2230.16,1334.72 
  2230.45,1334.72 2230.74,1334.72 2231.03,1334.72 2231.32,1334.73 2231.61,1334.73 2231.9,1334.73 2232.19,1334.73 2232.48,1334.74 2232.77,1334.74 2233.06,1334.74 
  2233.36,1334.74 2233.65,1334.75 2233.94,1334.75 2234.23,1334.75 2234.52,1334.75 2234.81,1334.76 2235.1,1334.76 2235.39,1334.76 2235.68,1334.76 2235.97,1334.77 
  2236.26,1334.77 2236.55,1334.77 2236.84,1334.77 2237.13,1334.78 2237.42,1334.78 2237.71,1334.78 2238,1334.78 2238.29,1334.79 2238.58,1334.79 2238.87,1334.79 
  2239.16,1334.79 2239.45,1334.8 2239.74,1334.8 2240.03,1334.8 2240.32,1334.8 2240.61,1334.8 2240.9,1334.81 2241.19,1334.81 2241.48,1334.81 2241.77,1334.81 
  2242.06,1334.82 2242.35,1334.82 2242.64,1334.82 2242.93,1334.82 2243.22,1334.82 2243.51,1334.83 2243.8,1334.83 2244.09,1334.83 2244.38,1334.83 2244.67,1334.84 
  2244.96,1334.84 2245.25,1334.84 2245.54,1334.84 2245.83,1334.84 2246.12,1334.85 2246.41,1334.85 2246.7,1334.85 2246.99,1334.85 2247.28,1334.85 2247.57,1334.86 
  2247.86,1334.86 2248.15,1334.86 2248.44,1334.86 2248.73,1334.86 2249.02,1334.87 2249.31,1334.87 2249.6,1334.87 2249.89,1334.87 2250.18,1334.87 2250.47,1334.88 
  2250.76,1334.88 2251.05,1334.88 2251.34,1334.88 2251.63,1334.88 2251.92,1334.89 2252.21,1334.89 2252.5,1334.89 2252.79,1334.89 2253.08,1334.89 2253.37,1334.9 
  2253.66,1334.9 2253.95,1334.9 2254.25,1334.9 2254.54,1334.9 2254.83,1334.91 2255.12,1334.91 2255.41,1334.91 2255.7,1334.91 2255.99,1334.91 2256.28,1334.91 
  2256.57,1334.92 2256.86,1334.92 2257.15,1334.92 2257.44,1334.92 2257.73,1334.92 2258.02,1334.93 2258.31,1334.93 2258.6,1334.93 2258.89,1334.93 2259.18,1334.93 
  2259.47,1334.93 2259.76,1334.94 2260.05,1334.94 2260.34,1334.94 2260.63,1334.94 2260.92,1334.94 2261.21,1334.94 2261.5,1334.95 2261.79,1334.95 2262.08,1334.95 
  2262.37,1334.95 2262.66,1334.95 2262.95,1334.95 2263.24,1334.96 2263.53,1334.96 2263.82,1334.96 2264.11,1334.96 2264.4,1334.96 2264.69,1334.96 2264.98,1334.97 
  2265.27,1334.97 2265.56,1334.97 2265.85,1334.97 2266.14,1334.97 2266.43,1334.97 2266.72,1334.98 2267.01,1334.98 2267.3,1334.98 2267.59,1334.98 2267.88,1334.98 
  2268.17,1334.98 2268.46,1334.98 2268.75,1334.99 2269.04,1334.99 2269.33,1334.99 2269.62,1334.99 2269.91,1334.99 2270.2,1334.99 2270.49,1334.99 2270.78,1335 
  2271.07,1335 2271.36,1335 2271.65,1335 2271.94,1335 2272.23,1335 2272.52,1335.01 2272.81,1335.01 2273.1,1335.01 2273.39,1335.01 2273.68,1335.01 
  2273.97,1335.01 2274.26,1335.01 2274.55,1335.01 2274.84,1335.02 2275.14,1335.02 2275.43,1335.02 2275.72,1335.02 2276.01,1335.02 2276.3,1335.02 2276.59,1335.02 
  2276.88,1335.03 2277.17,1335.03 2277.46,1335.03 2277.75,1335.03 2278.04,1335.03 2278.33,1335.03 2278.62,1335.03 2278.91,1335.04 2279.2,1335.04 2279.49,1335.04 
  2279.78,1335.04 2280.07,1335.04 2280.36,1335.04 2280.65,1335.04 2280.94,1335.04 2281.23,1335.05 2281.52,1335.05 2281.81,1335.05 2282.1,1335.05 2282.39,1335.05 
  2282.68,1335.05 2282.97,1335.05 2283.26,1335.05 2283.55,1335.06 2283.84,1335.06 2284.13,1335.06 2284.42,1335.06 2284.71,1335.06 2285,1335.06 2285.29,1335.06 
  2285.58,1335.06 2285.87,1335.06 2286.16,1335.07 2286.45,1335.07 2286.74,1335.07 2287.03,1335.07 2287.32,1335.07 2287.61,1335.07 2287.9,1335.07 2288.19,1335.07 
  2288.48,1335.08 2288.77,1335.08 2289.06,1335.08 2289.35,1335.08 2289.64,1335.08 2289.93,1335.08 2290.22,1335.08 2290.51,1335.08 2290.8,1335.08 2291.09,1335.09 
  2291.38,1335.09 2291.67,1335.09 2291.96,1335.09 2292.25,1335.09 2292.54,1335.09 2292.83,1335.09 2293.12,1335.09 2293.41,1335.09 2293.7,1335.1 2293.99,1335.1 
  2294.28,1335.1 2294.57,1335.1 2294.86,1335.1 2295.15,1335.1 2295.44,1335.1 2295.73,1335.1 2296.03,1335.1 2296.32,1335.1 2296.61,1335.11 2296.9,1335.11 
  2297.19,1335.11 2297.48,1335.11 2297.77,1335.11 2298.06,1335.11 2298.35,1335.11 2298.64,1335.11 2298.93,1335.11 2299.22,1335.11 2299.51,1335.12 2299.8,1335.12 
  2300.09,1335.12 2300.38,1335.12 2300.67,1335.12 2300.96,1335.12 2301.25,1335.12 2301.54,1335.12 2301.83,1335.12 2302.12,1335.12 2302.41,1335.12 2302.7,1335.13 
  2302.99,1335.13 2303.28,1335.13 2303.57,1335.13 2303.86,1335.13 2304.15,1335.13 2304.44,1335.13 2304.73,1335.13 2305.02,1335.13 2305.31,1335.13 2305.6,1335.13 
  2305.89,1335.14 2306.18,1335.14 2306.47,1335.14 2306.76,1335.14 2307.05,1335.14 2307.34,1335.14 2307.63,1335.14 2307.92,1335.14 2308.21,1335.14 2308.5,1335.14 
  2308.79,1335.14 2309.08,1335.14 2309.37,1335.15 2309.66,1335.15 2309.95,1335.15 2310.24,1335.15 2310.53,1335.15 2310.82,1335.15 2311.11,1335.15 2311.4,1335.15 
  2311.69,1335.15 2311.98,1335.15 2312.27,1335.15 2312.56,1335.15 2312.85,1335.16 2313.14,1335.16 2313.43,1335.16 2313.72,1335.16 2314.01,1335.16 2314.3,1335.16 
  2314.59,1335.16 2314.88,1335.16 2315.17,1335.16 2315.46,1335.16 2315.75,1335.16 2316.04,1335.16 2316.33,1335.16 2316.62,1335.17 2316.92,1335.17 2317.21,1335.17 
  2317.5,1335.17 2317.79,1335.17 2318.08,1335.17 2318.37,1335.17 2318.66,1335.17 2318.95,1335.17 2319.24,1335.17 2319.53,1335.17 2319.82,1335.17 2320.11,1335.17 
  2320.4,1335.18 2320.69,1335.18 2320.98,1335.18 2321.27,1335.18 2321.56,1335.18 2321.85,1335.18 2322.14,1335.18 2322.43,1335.18 2322.72,1335.18 2323.01,1335.18 
  2323.3,1335.18 2323.59,1335.18 2323.88,1335.18 2324.17,1335.18 2324.46,1335.18 2324.75,1335.19 2325.04,1335.19 2325.33,1335.19 2325.62,1335.19 2325.91,1335.19 
  2326.2,1335.19 
  "/>
</svg>
