<?xml version="1.0" encoding="utf-8"?>
<svg xmlns="http://www.w3.org/2000/svg" xmlns:xlink="http://www.w3.org/1999/xlink" width="600" height="400" viewBox="0 0 2400 1600">
<defs>
  <clipPath id="clip8000">
    <rect x="0" y="0" width="2400" height="1600"/>
  </clipPath>
</defs>
<path clip-path="url(#clip8000)" d="
M0 1600 L2400 1600 L2400 0 L0 0  Z
  " fill="#f7ece2" fill-rule="evenodd" fill-opacity="1"/>
<defs>
  <clipPath id="clip8001">
    <rect x="480" y="0" width="1681" height="1600"/>
  </clipPath>
</defs>
<path clip-path="url(#clip8000)" d="
M183.285 1372.86 L1121.61 1372.86 L1121.61 47.2441 L183.285 47.2441  Z
  " fill="#f7ece2" fill-rule="evenodd" fill-opacity="1"/>
<defs>
  <clipPath id="clip8002">
    <rect x="183" y="47" width="939" height="1327"/>
  </clipPath>
</defs>
<polyline clip-path="url(#clip8002)" style="stroke:#000000; stroke-width:2; stroke-opacity:0.1; fill:none" points="
  208.955,1372.86 208.955,47.2441 
  "/>
<polyline clip-path="url(#clip8002)" style="stroke:#000000; stroke-width:2; stroke-opacity:0.1; fill:none" points="
  430.48,1372.86 430.48,47.2441 
  "/>
<polyline clip-path="url(#clip8002)" style="stroke:#000000; stroke-width:2; stroke-opacity:0.1; fill:none" points="
  652.005,1372.86 652.005,47.2441 
  "/>
<polyline clip-path="url(#clip8002)" style="stroke:#000000; stroke-width:2; stroke-opacity:0.1; fill:none" points="
  873.53,1372.86 873.53,47.2441 
  "/>
<polyline clip-path="url(#clip8002)" style="stroke:#000000; stroke-width:2; stroke-opacity:0.1; fill:none" points="
  1095.05,1372.86 1095.05,47.2441 
  "/>
<polyline clip-path="url(#clip8002)" style="stroke:#000000; stroke-width:2; stroke-opacity:0.1; fill:none" points="
  183.285,1360.08 1121.61,1360.08 
  "/>
<polyline clip-path="url(#clip8002)" style="stroke:#000000; stroke-width:2; stroke-opacity:0.1; fill:none" points="
  183.285,1099.75 1121.61,1099.75 
  "/>
<polyline clip-path="url(#clip8002)" style="stroke:#000000; stroke-width:2; stroke-opacity:0.1; fill:none" points="
  183.285,839.431 1121.61,839.431 
  "/>
<polyline clip-path="url(#clip8002)" style="stroke:#000000; stroke-width:2; stroke-opacity:0.1; fill:none" points="
  183.285,579.108 1121.61,579.108 
  "/>
<polyline clip-path="url(#clip8002)" style="stroke:#000000; stroke-width:2; stroke-opacity:0.1; fill:none" points="
  183.285,318.784 1121.61,318.784 
  "/>
<polyline clip-path="url(#clip8002)" style="stroke:#000000; stroke-width:2; stroke-opacity:0.1; fill:none" points="
  183.285,58.461 1121.61,58.461 
  "/>
<polyline clip-path="url(#clip8000)" style="stroke:#000000; stroke-width:4; stroke-opacity:1; fill:none" points="
  183.285,1372.86 1121.61,1372.86 
  "/>
<polyline clip-path="url(#clip8000)" style="stroke:#000000; stroke-width:4; stroke-opacity:1; fill:none" points="
  183.285,1372.86 183.285,47.2441 
  "/>
<polyline clip-path="url(#clip8000)" style="stroke:#000000; stroke-width:4; stroke-opacity:1; fill:none" points="
  208.955,1372.86 208.955,1352.97 
  "/>
<polyline clip-path="url(#clip8000)" style="stroke:#000000; stroke-width:4; stroke-opacity:1; fill:none" points="
  430.48,1372.86 430.48,1352.97 
  "/>
<polyline clip-path="url(#clip8000)" style="stroke:#000000; stroke-width:4; stroke-opacity:1; fill:none" points="
  652.005,1372.86 652.005,1352.97 
  "/>
<polyline clip-path="url(#clip8000)" style="stroke:#000000; stroke-width:4; stroke-opacity:1; fill:none" points="
  873.53,1372.86 873.53,1352.97 
  "/>
<polyline clip-path="url(#clip8000)" style="stroke:#000000; stroke-width:4; stroke-opacity:1; fill:none" points="
  1095.05,1372.86 1095.05,1352.97 
  "/>
<polyline clip-path="url(#clip8000)" style="stroke:#000000; stroke-width:4; stroke-opacity:1; fill:none" points="
  183.285,1360.08 197.359,1360.08 
  "/>
<polyline clip-path="url(#clip8000)" style="stroke:#000000; stroke-width:4; stroke-opacity:1; fill:none" points="
  183.285,1099.75 197.359,1099.75 
  "/>
<polyline clip-path="url(#clip8000)" style="stroke:#000000; stroke-width:4; stroke-opacity:1; fill:none" points="
  183.285,839.431 197.359,839.431 
  "/>
<polyline clip-path="url(#clip8000)" style="stroke:#000000; stroke-width:4; stroke-opacity:1; fill:none" points="
  183.285,579.108 197.359,579.108 
  "/>
<polyline clip-path="url(#clip8000)" style="stroke:#000000; stroke-width:4; stroke-opacity:1; fill:none" points="
  183.285,318.784 197.359,318.784 
  "/>
<polyline clip-path="url(#clip8000)" style="stroke:#000000; stroke-width:4; stroke-opacity:1; fill:none" points="
  183.285,58.461 197.359,58.461 
  "/>
<g clip-path="url(#clip8000)">
<text style="fill:#000000; fill-opacity:1; font-family:Arial,Helvetica Neue,Helvetica,sans-serif; font-size:48px; text-anchor:middle;" transform="rotate(0, 208.955, 1426.86)" x="208.955" y="1426.86">0</text>
</g>
<g clip-path="url(#clip8000)">
<text style="fill:#000000; fill-opacity:1; font-family:Arial,Helvetica Neue,Helvetica,sans-serif; font-size:48px; text-anchor:middle;" transform="rotate(0, 430.48, 1426.86)" x="430.48" y="1426.86">250</text>
</g>
<g clip-path="url(#clip8000)">
<text style="fill:#000000; fill-opacity:1; font-family:Arial,Helvetica Neue,Helvetica,sans-serif; font-size:48px; text-anchor:middle;" transform="rotate(0, 652.005, 1426.86)" x="652.005" y="1426.86">500</text>
</g>
<g clip-path="url(#clip8000)">
<text style="fill:#000000; fill-opacity:1; font-family:Arial,Helvetica Neue,Helvetica,sans-serif; font-size:48px; text-anchor:middle;" transform="rotate(0, 873.53, 1426.86)" x="873.53" y="1426.86">750</text>
</g>
<g clip-path="url(#clip8000)">
<text style="fill:#000000; fill-opacity:1; font-family:Arial,Helvetica Neue,Helvetica,sans-serif; font-size:48px; text-anchor:middle;" transform="rotate(0, 1095.05, 1426.86)" x="1095.05" y="1426.86">1000</text>
</g>
<g clip-path="url(#clip8000)">
<text style="fill:#000000; fill-opacity:1; font-family:Arial,Helvetica Neue,Helvetica,sans-serif; font-size:48px; text-anchor:end;" transform="rotate(0, 159.285, 1377.58)" x="159.285" y="1377.58">0</text>
</g>
<g clip-path="url(#clip8000)">
<text style="fill:#000000; fill-opacity:1; font-family:Arial,Helvetica Neue,Helvetica,sans-serif; font-size:48px; text-anchor:end;" transform="rotate(0, 159.285, 1117.25)" x="159.285" y="1117.25">5</text>
</g>
<g clip-path="url(#clip8000)">
<text style="fill:#000000; fill-opacity:1; font-family:Arial,Helvetica Neue,Helvetica,sans-serif; font-size:48px; text-anchor:end;" transform="rotate(0, 159.285, 856.931)" x="159.285" y="856.931">10</text>
</g>
<g clip-path="url(#clip8000)">
<text style="fill:#000000; fill-opacity:1; font-family:Arial,Helvetica Neue,Helvetica,sans-serif; font-size:48px; text-anchor:end;" transform="rotate(0, 159.285, 596.608)" x="159.285" y="596.608">15</text>
</g>
<g clip-path="url(#clip8000)">
<text style="fill:#000000; fill-opacity:1; font-family:Arial,Helvetica Neue,Helvetica,sans-serif; font-size:48px; text-anchor:end;" transform="rotate(0, 159.285, 336.284)" x="159.285" y="336.284">20</text>
</g>
<g clip-path="url(#clip8000)">
<text style="fill:#000000; fill-opacity:1; font-family:Arial,Helvetica Neue,Helvetica,sans-serif; font-size:48px; text-anchor:end;" transform="rotate(0, 159.285, 75.961)" x="159.285" y="75.961">25</text>
</g>
<g clip-path="url(#clip8000)">
<text style="fill:#000000; fill-opacity:1; font-family:Arial,Helvetica Neue,Helvetica,sans-serif; font-size:66px; text-anchor:middle;" transform="rotate(0, 652.448, 1506.72)" x="652.448" y="1506.72">k</text>
</g>
<polyline clip-path="url(#clip8002)" style="stroke:#000014; stroke-width:4; stroke-opacity:1; fill:none" points="
  209.841,1335.34 210.727,1335.34 211.613,1282.15 212.499,1282.15 213.385,643.952 214.272,643.952 215.158,643.952 216.044,643.952 216.93,643.952 217.816,1263.96 
  218.702,896.609 219.588,896.609 220.474,896.609 221.36,1229.05 222.246,1229.05 223.133,1229.05 224.019,1229.05 224.905,1229.05 225.791,1229.05 226.677,1229.05 
  227.563,1229.05 228.449,1229.05 229.335,1229.05 230.221,1229.05 231.107,1229.05 231.993,1229.05 232.88,1229.05 233.766,1229.05 234.652,1229.05 235.538,1229.05 
  236.424,1229.05 237.31,1229.05 238.196,1229.05 239.082,1229.05 239.968,1229.05 240.854,897.495 241.741,897.495 242.627,897.495 243.513,897.495 244.399,766.205 
  245.285,766.205 246.171,766.205 247.057,766.205 247.943,766.205 248.829,869.734 249.715,869.734 250.602,869.734 251.488,869.734 252.374,1097.19 253.26,1097.19 
  254.146,1097.19 255.032,1097.19 255.918,1097.19 256.804,1097.19 257.69,1097.19 258.576,883.179 259.463,883.179 260.349,1196.02 261.235,1196.02 262.121,1196.02 
  263.007,1196.02 263.893,1196.02 264.779,1196.02 265.665,1196.02 266.551,1196.02 267.437,1196.02 268.324,884.296 269.21,1268.77 270.096,1268.77 270.982,945.224 
  271.868,1247.6 272.754,1247.6 273.64,1247.6 274.526,1247.6 275.412,1247.6 276.298,1247.6 277.185,1247.6 278.071,1247.6 278.957,1247.6 279.843,1220.55 
  280.729,1220.55 281.615,1220.55 282.501,1080.82 283.387,1057.43 284.273,1057.43 285.159,1057.43 286.046,1057.43 286.932,1057.43 287.818,1057.43 288.704,1057.43 
  289.59,1199.06 290.476,1199.06 291.362,1199.06 292.248,1199.06 293.134,1199.06 294.02,1199.06 294.907,1199.06 295.793,1199.06 296.679,1199.06 297.565,1199.06 
  298.451,1199.06 299.337,1242.57 300.223,1242.57 301.109,1242.57 301.995,1242.57 302.881,1242.57 303.768,1242.57 304.654,1242.57 305.54,1001.87 306.426,1001.87 
  307.312,1001.87 308.198,1001.87 309.084,1001.87 309.97,1264 310.856,1264 311.742,1264 312.629,1264 313.515,1264 314.401,899.089 315.287,899.089 
  316.173,899.089 317.059,899.089 317.945,899.089 318.831,899.089 319.717,899.089 320.603,899.089 321.49,899.089 322.376,899.089 323.262,647.891 324.148,647.891 
  325.034,1134.01 325.92,1134.01 326.806,1134.01 327.692,1134.01 328.578,1134.01 329.464,1134.01 330.351,1134.01 331.237,1134.01 332.123,1134.01 333.009,1134.01 
  333.895,1092.13 334.781,1092.13 335.667,1092.13 336.553,1153.6 337.439,1153.6 338.325,1153.6 339.212,1228.64 340.098,1228.64 340.984,1168.31 341.87,1168.31 
  342.756,1168.31 343.642,1168.31 344.528,1168.31 345.414,1168.31 346.3,1168.31 347.186,1168.31 348.073,1168.31 348.959,1168.31 349.845,1168.31 350.731,916.621 
  351.617,916.621 352.503,916.621 353.389,916.621 354.275,916.621 355.161,916.621 356.047,905.279 356.934,905.279 357.82,1031.66 358.706,1031.66 359.592,1031.66 
  360.478,1031.66 361.364,928.335 362.25,835.695 363.136,835.695 364.022,835.695 364.908,835.695 365.795,835.695 366.681,928.5 367.567,1068.68 368.453,1068.68 
  369.339,1068.68 370.225,1068.68 371.111,1239.27 371.997,1239.27 372.883,1239.27 373.769,1171.79 374.656,1171.79 375.542,1171.79 376.428,1171.79 377.314,1171.79 
  378.2,1139.71 379.086,1139.71 379.972,1139.71 380.858,1268.15 381.744,1200.79 382.63,1200.79 383.517,1200.79 384.403,1207.65 385.289,1207.65 386.175,1207.65 
  387.061,1250.97 387.947,1250.97 388.833,449.878 389.719,449.878 390.605,449.878 391.491,443.458 392.378,443.458 393.264,443.458 394.15,443.458 395.036,1269.86 
  395.922,1269.86 396.808,1269.86 397.694,1269.86 398.58,1269.86 399.466,1269.86 400.352,1269.86 401.239,1269.86 402.125,1269.86 403.011,1269.86 403.897,1269.86 
  404.783,1126.98 405.669,1126.98 406.555,1126.98 407.441,1126.98 408.327,1126.98 409.213,1126.98 410.1,1126.98 410.986,1126.98 411.872,1126.98 412.758,1126.98 
  413.644,1126.98 414.53,1126.98 415.416,1155.39 416.302,1155.39 417.188,1155.39 418.074,1046.08 418.961,1046.08 419.847,1046.08 420.733,1046.08 421.619,1046.08 
  422.505,1046.08 423.391,1236.12 424.277,1236.12 425.163,1236.12 426.049,1236.12 426.935,1236.12 427.822,1229.97 428.708,1229.97 429.594,1001.72 430.48,1001.72 
  431.366,1001.72 432.252,1001.72 433.138,1001.72 434.024,1073.76 434.91,1073.76 435.796,1073.76 436.683,1073.76 437.569,1073.76 438.455,1089.3 439.341,1089.3 
  440.227,1089.3 441.113,968.858 441.999,919.063 442.885,919.063 443.771,919.063 444.657,919.063 445.544,919.063 446.43,919.063 447.316,919.063 448.202,919.063 
  449.088,925.378 449.974,1246.99 450.86,1246.99 451.746,1246.99 452.632,1246.99 453.518,1246.99 454.405,1246.99 455.291,1246.99 456.177,1246.99 457.063,1005.83 
  457.949,1005.83 458.835,1005.83 459.721,1005.83 460.607,1005.83 461.493,1005.83 462.379,1005.83 463.266,1005.83 464.152,1142.06 465.038,1142.06 465.924,1142.06 
  466.81,1182.83 467.696,1182.83 468.582,1068.72 469.468,1068.72 470.354,1068.72 471.24,1068.72 472.127,1090.62 473.013,1090.62 473.899,1090.62 474.785,1090.62 
  475.671,1224.1 476.557,1224.1 477.443,1224.1 478.329,1224.1 479.215,1224.1 480.101,754.826 480.988,604.244 481.874,604.244 482.76,604.244 483.646,604.244 
  484.532,1213.02 485.418,1213.02 486.304,1213.02 487.19,1213.02 488.076,1213.02 488.962,1213.02 489.849,992.145 490.735,1285.85 491.621,1269.17 492.507,1269.17 
  493.393,1269.17 494.279,1269.17 495.165,1269.17 496.051,1269.17 496.937,1269.17 497.823,1269.17 498.71,1269.17 499.596,1269.17 500.482,1269.17 501.368,1269.17 
  502.254,1269.17 503.14,1269.17 504.026,1269.17 504.912,1269.17 505.798,1269.17 506.684,1269.17 507.571,1269.17 508.457,1010.64 509.343,1010.64 510.229,956.03 
  511.115,956.03 512.001,956.03 512.887,956.03 513.773,956.03 514.659,1222.96 515.545,1222.96 516.432,1222.96 517.318,1222.96 518.204,1222.96 519.09,1200.15 
  519.976,1200.15 520.862,923.095 521.748,923.095 522.634,923.095 523.52,923.095 524.406,923.095 525.293,1295.81 526.179,1295.81 527.065,1121.98 527.951,1121.98 
  528.837,1121.98 529.723,1121.98 530.609,1154.11 531.495,1154.11 532.381,1154.11 533.267,1154.11 534.154,1115.6 535.04,1115.6 535.926,1052.84 536.812,1052.84 
  537.698,1052.84 538.584,1334.96 539.47,1334.96 540.356,1334.96 541.242,1334.96 542.128,1334.96 543.015,1334.96 543.901,1334.96 544.787,1038.25 545.673,1038.25 
  546.559,1038.25 547.445,1038.25 548.331,1038.25 549.217,1038.25 550.103,1038.25 550.989,1038.25 551.876,1038.25 552.762,1038.25 553.648,1038.25 554.534,1038.25 
  555.42,1038.25 556.306,1038.25 557.192,1038.25 558.078,468.787 558.964,654.579 559.85,654.579 560.737,654.579 561.623,654.579 562.509,84.7614 563.395,84.7614 
  564.281,84.7614 565.167,84.7614 566.053,84.7614 566.939,86.601 567.825,86.601 568.711,790.153 569.598,790.153 570.484,897.354 571.37,1270.92 572.256,1270.92 
  573.142,1270.92 574.028,1270.92 574.914,1270.92 575.8,1270.92 576.686,1270.92 577.572,1270.92 578.459,1270.92 579.345,1178.91 580.231,1080.28 581.117,1080.28 
  582.003,1080.28 582.889,1080.28 583.775,1080.28 584.661,1080.28 585.547,1080.28 586.433,1080.28 587.32,1080.28 588.206,1080.28 589.092,1263.39 589.978,1263.39 
  590.864,1263.39 591.75,1263.39 592.636,1281.05 593.522,1281.05 594.408,1141.28 595.294,1075.36 596.181,1075.36 597.067,1075.36 597.953,1034.52 598.839,1034.52 
  599.725,1034.52 600.611,1034.52 601.497,1034.52 602.383,1034.52 603.269,1034.52 604.155,805.933 605.042,805.933 605.928,805.933 606.814,805.933 607.7,805.933 
  608.586,805.933 609.472,829.539 610.358,829.539 611.244,1227.86 612.13,1227.86 613.016,1227.86 613.903,1227.86 614.789,1227.86 615.675,1221.37 616.561,1221.37 
  617.447,1221.37 618.333,1221.37 619.219,1221.37 620.105,1221.37 620.991,1221.37 621.877,1221.37 622.764,1086.81 623.65,1086.81 624.536,1213.89 625.422,1213.89 
  626.308,1213.89 627.194,1213.89 628.08,1213.89 628.966,1213.89 629.852,1213.89 630.738,1213.89 631.625,1213.89 632.511,944.856 633.397,944.856 634.283,944.856 
  635.169,944.856 636.055,944.856 636.941,944.856 637.827,944.856 638.713,944.856 639.599,944.856 640.486,944.856 641.372,944.856 642.258,734.375 643.144,734.375 
  644.03,1176.13 644.916,1176.13 645.802,1176.13 646.688,1176.13 647.574,1176.13 648.46,1176.13 649.347,1176.13 650.233,1049.03 651.119,1049.03 652.005,1049.03 
  652.891,1049.03 653.777,1248.06 654.663,1248.06 655.549,1155.99 656.435,1155.99 657.321,1155.99 658.208,1155.99 659.094,1155.99 659.98,1155.99 660.866,1155.99 
  661.752,1155.99 662.638,1155.99 663.524,1155.99 664.41,1155.99 665.296,1155.99 666.182,1155.99 667.069,1187.53 667.955,1187.53 668.841,1187.53 669.727,1187.53 
  670.613,1187.53 671.499,1187.53 672.385,1187.53 673.271,1187.53 674.157,1187.53 675.043,960.27 675.93,960.27 676.816,759.37 677.702,759.37 678.588,759.37 
  679.474,759.37 680.36,759.37 681.246,759.37 682.132,491.382 683.018,491.382 683.904,491.382 684.791,803.906 685.677,803.906 686.563,803.906 687.449,803.906 
  688.335,909.534 689.221,1116.42 690.107,1116.42 690.993,1116.42 691.879,1116.42 692.765,1116.42 693.652,1116.42 694.538,1116.42 695.424,1116.42 696.31,1116.42 
  697.196,1116.42 698.082,1116.42 698.968,1116.42 699.854,1116.42 700.74,1116.42 701.626,1116.42 702.513,1116.42 703.399,1116.42 704.285,1116.42 705.171,1116.42 
  706.057,924.683 706.943,924.683 707.829,924.683 708.715,924.683 709.601,974.089 710.487,1025.94 711.374,1081.89 712.26,1081.89 713.146,1081.89 714.032,1081.89 
  714.918,1081.89 715.804,1081.89 716.69,1081.89 717.576,1033.23 718.462,1033.23 719.348,851.235 720.235,851.235 721.121,851.235 722.007,851.235 722.893,851.235 
  723.779,851.235 724.665,851.235 725.551,851.235 726.437,851.235 727.323,1270.98 728.209,1085.77 729.096,1085.77 729.982,1085.77 730.868,1139.58 731.754,1139.58 
  732.64,1239.65 733.526,1239.65 734.412,1239.65 735.298,1239.65 736.184,1239.65 737.07,1239.65 737.957,1239.65 738.843,1239.65 739.729,1239.65 740.615,1231.84 
  741.501,1231.84 742.387,1231.84 743.273,1231.84 744.159,1231.84 745.045,1231.84 745.931,1142.49 746.818,1142.49 747.704,1142.49 748.59,1142.49 749.476,1142.49 
  750.362,1142.49 751.248,1142.49 752.134,1142.49 753.02,1142.49 753.906,1070.67 754.792,1070.67 755.679,1070.67 756.565,1051.95 757.451,1051.95 758.337,1051.95 
  759.223,1051.95 760.109,1051.95 760.995,1051.95 761.881,1051.95 762.767,1075.33 763.653,1075.33 764.54,1075.33 765.426,1075.33 766.312,1075.33 767.198,1024.91 
  768.084,1221.83 768.97,1003.54 769.856,1003.54 770.742,1028.62 771.628,845.208 772.514,845.208 773.401,845.208 774.287,845.208 775.173,845.208 776.059,845.208 
  776.945,845.208 777.831,668.981 778.717,668.981 779.603,668.981 780.489,668.981 781.375,1016 782.262,1016 783.148,1016 784.034,1016 784.92,1154.97 
  785.806,1154.97 786.692,760.475 787.578,760.475 788.464,760.475 789.35,1308.46 790.236,1160.23 791.123,1271.5 792.009,1271.5 792.895,1271.5 793.781,1271.5 
  794.667,1271.5 795.553,1245.47 796.439,1245.47 797.325,1245.47 798.211,970.135 799.097,970.135 799.984,970.135 800.87,970.135 801.756,996.433 802.642,1318.01 
  803.528,1318.01 804.414,1318.01 805.3,1037.45 806.186,1037.45 807.072,790.72 807.958,790.72 808.845,790.72 809.731,1235.52 810.617,1235.52 811.503,1235.52 
  812.389,1235.52 813.275,1081.05 814.161,1081.05 815.047,1153 815.933,1153 816.819,1153 817.706,1153 818.592,955.136 819.478,810.212 820.364,810.212 
  821.25,1203.48 822.136,1203.48 823.022,1203.48 823.908,1203.48 824.794,1203.48 825.68,1203.48 826.567,1033.53 827.453,1033.53 828.339,1151.25 829.225,1151.25 
  830.111,1151.25 830.997,1151.25 831.883,1151.25 832.769,1151.25 833.655,1151.25 834.541,847.366 835.428,873.484 836.314,873.484 837.2,873.484 838.086,1301.94 
  838.972,1322.41 839.858,962.892 840.744,962.892 841.63,962.892 842.516,962.892 843.402,962.892 844.289,962.892 845.175,783.684 846.061,644.375 846.947,1009.26 
  847.833,1009.26 848.719,1009.26 849.605,1009.26 850.491,1009.26 851.377,1009.26 852.263,1009.26 853.15,783.41 854.036,932.543 854.922,932.543 855.808,932.543 
  856.694,932.543 857.58,932.543 858.466,932.543 859.352,932.543 860.238,932.543 861.124,932.543 862.011,932.543 862.897,932.543 863.783,932.543 864.669,1224.39 
  865.555,1224.39 866.441,1224.39 867.327,1224.39 868.213,1224.39 869.099,1224.39 869.985,1224.39 870.872,984.503 871.758,984.503 872.644,984.503 873.53,984.503 
  874.416,984.503 875.302,984.503 876.188,984.503 877.074,511.499 877.96,511.499 878.846,511.499 879.733,511.499 880.619,847.376 881.505,847.376 882.391,847.376 
  883.277,847.376 884.163,1001.64 885.049,1001.64 885.935,1001.64 886.821,1001.64 887.707,1001.64 888.594,1001.64 889.48,978.52 890.366,978.52 891.252,978.52 
  892.138,1311.62 893.024,1311.62 893.91,1311.62 894.796,1311.62 895.682,1311.62 896.568,1311.62 897.455,1311.62 898.341,1311.62 899.227,1129.06 900.113,1129.06 
  900.999,1129.06 901.885,1129.06 902.771,1129.06 903.657,1173.1 904.543,1173.1 905.429,1173.1 906.316,1173.1 907.202,1173.1 908.088,1173.1 908.974,1173.1 
  909.86,1173.1 910.746,1173.1 911.632,1173.1 912.518,1173.1 913.404,1173.1 914.29,1173.1 915.177,1173.1 916.063,1173.1 916.949,1173.1 917.835,956.432 
  918.721,956.432 919.607,956.432 920.493,956.432 921.379,956.432 922.265,956.432 923.151,956.432 924.038,956.432 924.924,843.333 925.81,843.333 926.696,843.333 
  927.582,891.251 928.468,891.251 929.354,1021.28 930.24,997.367 931.126,997.367 932.012,997.367 932.899,997.367 933.785,997.367 934.671,1082.52 935.557,1082.52 
  936.443,1192.49 937.329,1192.49 938.215,1192.49 939.101,1192.49 939.987,1192.49 940.873,1192.49 941.76,1192.49 942.646,1192.49 943.532,1192.49 944.418,1192.49 
  945.304,1192.49 946.19,1192.49 947.076,1192.49 947.962,1192.49 948.848,1192.49 949.734,1192.49 950.621,1192.49 951.507,1192.49 952.393,1192.49 953.279,1192.49 
  954.165,1192.49 955.051,1192.49 955.937,1192.49 956.823,1192.49 957.709,1192.49 958.595,1243.01 959.482,1243.01 960.368,1243.01 961.254,1243.01 962.14,1243.01 
  963.026,1243.01 963.912,1243.01 964.798,1243.01 965.684,1183.61 966.57,1183.61 967.456,1183.61 968.343,1183.61 969.229,1183.61 970.115,1051.27 971.001,400.329 
  971.887,400.329 972.773,238.173 973.659,238.173 974.545,238.173 975.431,356.43 976.317,356.43 977.204,530.931 978.09,530.931 978.976,530.931 979.862,624.601 
  980.748,624.601 981.634,624.601 982.52,602.539 983.406,777.7 984.292,1043.49 985.178,1043.49 986.065,1021.16 986.951,820.222 987.837,820.222 988.723,820.222 
  989.609,1208.68 990.495,1208.68 991.381,1208.68 992.267,1208.68 993.153,1208.68 994.039,1208.68 994.926,1208.68 995.812,1208.68 996.698,1208.68 997.584,1208.68 
  998.47,1064.15 999.356,1064.15 1000.24,1064.15 1001.13,1311.3 1002.01,1311.3 1002.9,1311.3 1003.79,1311.3 1004.67,1311.3 1005.56,597.847 1006.44,597.847 
  1007.33,597.847 1008.22,597.847 1009.1,597.847 1009.99,597.847 1010.88,597.847 1011.76,597.847 1012.65,973.525 1013.53,1197.22 1014.42,1197.22 1015.31,1197.22 
  1016.19,1197.22 1017.08,1197.22 1017.96,1197.22 1018.85,1197.22 1019.74,1197.22 1020.62,1197.22 1021.51,1197.22 1022.39,1197.22 1023.28,1197.22 1024.17,1197.22 
  1025.05,1197.22 1025.94,1197.22 1026.83,1170.43 1027.71,1170.43 1028.6,1170.43 1029.48,1170.43 1030.37,1170.43 1031.26,1170.43 1032.14,1261.15 1033.03,1261.15 
  1033.91,1261.15 1034.8,1261.15 1035.69,1261.15 1036.57,1261.15 1037.46,1261.15 1038.34,1261.15 1039.23,1261.15 1040.12,1261.15 1041,1261.15 1041.89,1261.15 
  1042.77,886.007 1043.66,886.007 1044.55,886.007 1045.43,886.007 1046.32,813.665 1047.21,813.665 1048.09,813.665 1048.98,811.316 1049.86,811.316 1050.75,811.316 
  1051.64,1180.02 1052.52,917.672 1053.41,938.198 1054.29,938.198 1055.18,938.198 1056.07,938.198 1056.95,490.405 1057.84,490.405 1058.72,490.405 1059.61,490.405 
  1060.5,490.405 1061.38,490.405 1062.27,933.413 1063.16,1200.22 1064.04,1200.22 1064.93,1200.22 1065.81,1200.22 1066.7,1200.22 1067.59,1138.64 1068.47,1138.64 
  1069.36,1138.64 1070.24,829.42 1071.13,829.42 1072.02,829.42 1072.9,829.42 1073.79,1045.37 1074.67,1045.37 1075.56,1045.37 1076.45,1045.37 1077.33,1045.37 
  1078.22,1045.37 1079.11,1045.37 1079.99,1045.37 1080.88,1045.37 1081.76,1045.37 1082.65,1045.37 1083.54,1045.37 1084.42,1149.89 1085.31,1149.89 1086.19,1298.37 
  1087.08,1298.37 1087.97,1298.37 1088.85,1010.58 1089.74,1010.58 1090.62,1010.58 1091.51,1010.58 1092.4,1010.58 1093.28,1010.58 1094.17,1010.58 1095.05,1010.58 
  
  "/>
<path clip-path="url(#clip8000)" d="
M1414.43 1372.86 L2352.76 1372.86 L2352.76 47.2441 L1414.43 47.2441  Z
  " fill="#f7ece2" fill-rule="evenodd" fill-opacity="1"/>
<defs>
  <clipPath id="clip8003">
    <rect x="1414" y="47" width="939" height="1327"/>
  </clipPath>
</defs>
<polyline clip-path="url(#clip8003)" style="stroke:#000000; stroke-width:2; stroke-opacity:0.1; fill:none" points="
  1462.58,1372.86 1462.58,47.2441 
  "/>
<polyline clip-path="url(#clip8003)" style="stroke:#000000; stroke-width:2; stroke-opacity:0.1; fill:none" points="
  1750.45,1372.86 1750.45,47.2441 
  "/>
<polyline clip-path="url(#clip8003)" style="stroke:#000000; stroke-width:2; stroke-opacity:0.1; fill:none" points="
  2038.33,1372.86 2038.33,47.2441 
  "/>
<polyline clip-path="url(#clip8003)" style="stroke:#000000; stroke-width:2; stroke-opacity:0.1; fill:none" points="
  2326.2,1372.86 2326.2,47.2441 
  "/>
<polyline clip-path="url(#clip8003)" style="stroke:#000000; stroke-width:2; stroke-opacity:0.1; fill:none" points="
  1414.43,1335.34 2352.76,1335.34 
  "/>
<polyline clip-path="url(#clip8003)" style="stroke:#000000; stroke-width:2; stroke-opacity:0.1; fill:none" points="
  1414.43,965.346 2352.76,965.346 
  "/>
<polyline clip-path="url(#clip8003)" style="stroke:#000000; stroke-width:2; stroke-opacity:0.1; fill:none" points="
  1414.43,595.352 2352.76,595.352 
  "/>
<polyline clip-path="url(#clip8003)" style="stroke:#000000; stroke-width:2; stroke-opacity:0.1; fill:none" points="
  1414.43,225.359 2352.76,225.359 
  "/>
<polyline clip-path="url(#clip8000)" style="stroke:#000000; stroke-width:4; stroke-opacity:1; fill:none" points="
  1414.43,1372.86 2352.76,1372.86 
  "/>
<polyline clip-path="url(#clip8000)" style="stroke:#000000; stroke-width:4; stroke-opacity:1; fill:none" points="
  1414.43,1372.86 1414.43,47.2441 
  "/>
<polyline clip-path="url(#clip8000)" style="stroke:#000000; stroke-width:4; stroke-opacity:1; fill:none" points="
  1462.58,1372.86 1462.58,1352.97 
  "/>
<polyline clip-path="url(#clip8000)" style="stroke:#000000; stroke-width:4; stroke-opacity:1; fill:none" points="
  1750.45,1372.86 1750.45,1352.97 
  "/>
<polyline clip-path="url(#clip8000)" style="stroke:#000000; stroke-width:4; stroke-opacity:1; fill:none" points="
  2038.33,1372.86 2038.33,1352.97 
  "/>
<polyline clip-path="url(#clip8000)" style="stroke:#000000; stroke-width:4; stroke-opacity:1; fill:none" points="
  2326.2,1372.86 2326.2,1352.97 
  "/>
<polyline clip-path="url(#clip8000)" style="stroke:#000000; stroke-width:4; stroke-opacity:1; fill:none" points="
  1414.43,1335.34 1428.5,1335.34 
  "/>
<polyline clip-path="url(#clip8000)" style="stroke:#000000; stroke-width:4; stroke-opacity:1; fill:none" points="
  1414.43,965.346 1428.5,965.346 
  "/>
<polyline clip-path="url(#clip8000)" style="stroke:#000000; stroke-width:4; stroke-opacity:1; fill:none" points="
  1414.43,595.352 1428.5,595.352 
  "/>
<polyline clip-path="url(#clip8000)" style="stroke:#000000; stroke-width:4; stroke-opacity:1; fill:none" points="
  1414.43,225.359 1428.5,225.359 
  "/>
<g clip-path="url(#clip8000)">
<text style="fill:#000000; fill-opacity:1; font-family:Arial,Helvetica Neue,Helvetica,sans-serif; font-size:48px; text-anchor:middle;" transform="rotate(0, 1462.58, 1426.86)" x="1462.58" y="1426.86">0</text>
</g>
<g clip-path="url(#clip8000)">
<text style="fill:#000000; fill-opacity:1; font-family:Arial,Helvetica Neue,Helvetica,sans-serif; font-size:48px; text-anchor:middle;" transform="rotate(0, 1750.45, 1426.86)" x="1750.45" y="1426.86">10</text>
</g>
<g clip-path="url(#clip8000)">
<text style="fill:#000000; fill-opacity:1; font-family:Arial,Helvetica Neue,Helvetica,sans-serif; font-size:48px; text-anchor:middle;" transform="rotate(0, 2038.33, 1426.86)" x="2038.33" y="1426.86">20</text>
</g>
<g clip-path="url(#clip8000)">
<text style="fill:#000000; fill-opacity:1; font-family:Arial,Helvetica Neue,Helvetica,sans-serif; font-size:48px; text-anchor:middle;" transform="rotate(0, 2326.2, 1426.86)" x="2326.2" y="1426.86">30</text>
</g>
<g clip-path="url(#clip8000)">
<text style="fill:#000000; fill-opacity:1; font-family:Arial,Helvetica Neue,Helvetica,sans-serif; font-size:48px; text-anchor:end;" transform="rotate(0, 1390.43, 1352.84)" x="1390.43" y="1352.84">0.00</text>
</g>
<g clip-path="url(#clip8000)">
<text style="fill:#000000; fill-opacity:1; font-family:Arial,Helvetica Neue,Helvetica,sans-serif; font-size:48px; text-anchor:end;" transform="rotate(0, 1390.43, 982.846)" x="1390.43" y="982.846">0.05</text>
</g>
<g clip-path="url(#clip8000)">
<text style="fill:#000000; fill-opacity:1; font-family:Arial,Helvetica Neue,Helvetica,sans-serif; font-size:48px; text-anchor:end;" transform="rotate(0, 1390.43, 612.852)" x="1390.43" y="612.852">0.10</text>
</g>
<g clip-path="url(#clip8000)">
<text style="fill:#000000; fill-opacity:1; font-family:Arial,Helvetica Neue,Helvetica,sans-serif; font-size:48px; text-anchor:end;" transform="rotate(0, 1390.43, 242.859)" x="1390.43" y="242.859">0.15</text>
</g>
<path clip-path="url(#clip8003)" d="
M1462.58 1135.54 L1462.58 1335.34 L1491.36 1335.34 L1491.36 1135.54 L1462.58 1135.54 L1462.58 1135.54  Z
  " fill="#000014" fill-rule="evenodd" fill-opacity="1"/>
<polyline clip-path="url(#clip8003)" style="stroke:#000000; stroke-width:4; stroke-opacity:1; fill:none" points="
  1462.58,1135.54 1462.58,1335.34 1491.36,1335.34 1491.36,1135.54 1462.58,1135.54 
  "/>
<path clip-path="url(#clip8003)" d="
M1491.36 735.95 L1491.36 1335.34 L1520.15 1335.34 L1520.15 735.95 L1491.36 735.95 L1491.36 735.95  Z
  " fill="#000014" fill-rule="evenodd" fill-opacity="1"/>
<polyline clip-path="url(#clip8003)" style="stroke:#000000; stroke-width:4; stroke-opacity:1; fill:none" points="
  1491.36,735.95 1491.36,1335.34 1520.15,1335.34 1520.15,735.95 1491.36,735.95 
  "/>
<path clip-path="url(#clip8003)" d="
M1520.15 195.759 L1520.15 1335.34 L1548.94 1335.34 L1548.94 195.759 L1520.15 195.759 L1520.15 195.759  Z
  " fill="#000014" fill-rule="evenodd" fill-opacity="1"/>
<polyline clip-path="url(#clip8003)" style="stroke:#000000; stroke-width:4; stroke-opacity:1; fill:none" points="
  1520.15,195.759 1520.15,1335.34 1548.94,1335.34 1548.94,195.759 1520.15,195.759 
  "/>
<path clip-path="url(#clip8003)" d="
M1548.94 84.7614 L1548.94 1335.34 L1577.73 1335.34 L1577.73 84.7614 L1548.94 84.7614 L1548.94 84.7614  Z
  " fill="#000014" fill-rule="evenodd" fill-opacity="1"/>
<polyline clip-path="url(#clip8003)" style="stroke:#000000; stroke-width:4; stroke-opacity:1; fill:none" points="
  1548.94,84.7614 1548.94,1335.34 1577.73,1335.34 1577.73,84.7614 1548.94,84.7614 
  "/>
<path clip-path="url(#clip8003)" d="
M1577.73 728.55 L1577.73 1335.34 L1606.51 1335.34 L1606.51 728.55 L1577.73 728.55 L1577.73 728.55  Z
  " fill="#000014" fill-rule="evenodd" fill-opacity="1"/>
<polyline clip-path="url(#clip8003)" style="stroke:#000000; stroke-width:4; stroke-opacity:1; fill:none" points="
  1577.73,728.55 1577.73,1335.34 1606.51,1335.34 1606.51,728.55 1577.73,728.55 
  "/>
<path clip-path="url(#clip8003)" d="
M1606.51 647.151 L1606.51 1335.34 L1635.3 1335.34 L1635.3 647.151 L1606.51 647.151 L1606.51 647.151  Z
  " fill="#000014" fill-rule="evenodd" fill-opacity="1"/>
<polyline clip-path="url(#clip8003)" style="stroke:#000000; stroke-width:4; stroke-opacity:1; fill:none" points="
  1606.51,647.151 1606.51,1335.34 1635.3,1335.34 1635.3,647.151 1606.51,647.151 
  "/>
<path clip-path="url(#clip8003)" d="
M1635.3 521.354 L1635.3 1335.34 L1664.09 1335.34 L1664.09 521.354 L1635.3 521.354 L1635.3 521.354  Z
  " fill="#000014" fill-rule="evenodd" fill-opacity="1"/>
<polyline clip-path="url(#clip8003)" style="stroke:#000000; stroke-width:4; stroke-opacity:1; fill:none" points="
  1635.3,521.354 1635.3,1335.34 1664.09,1335.34 1664.09,521.354 1635.3,521.354 
  "/>
<path clip-path="url(#clip8003)" d="
M1664.09 950.546 L1664.09 1335.34 L1692.88 1335.34 L1692.88 950.546 L1664.09 950.546 L1664.09 950.546  Z
  " fill="#000014" fill-rule="evenodd" fill-opacity="1"/>
<polyline clip-path="url(#clip8003)" style="stroke:#000000; stroke-width:4; stroke-opacity:1; fill:none" points="
  1664.09,950.546 1664.09,1335.34 1692.88,1335.34 1692.88,950.546 1664.09,950.546 
  "/>
<path clip-path="url(#clip8003)" d="
M1692.88 854.348 L1692.88 1335.34 L1721.66 1335.34 L1721.66 854.348 L1692.88 854.348 L1692.88 854.348  Z
  " fill="#000014" fill-rule="evenodd" fill-opacity="1"/>
<polyline clip-path="url(#clip8003)" style="stroke:#000000; stroke-width:4; stroke-opacity:1; fill:none" points="
  1692.88,854.348 1692.88,1335.34 1721.66,1335.34 1721.66,854.348 1692.88,854.348 
  "/>
<path clip-path="url(#clip8003)" d="
M1721.66 1039.34 L1721.66 1335.34 L1750.45 1335.34 L1750.45 1039.34 L1721.66 1039.34 L1721.66 1039.34  Z
  " fill="#000014" fill-rule="evenodd" fill-opacity="1"/>
<polyline clip-path="url(#clip8003)" style="stroke:#000000; stroke-width:4; stroke-opacity:1; fill:none" points="
  1721.66,1039.34 1721.66,1335.34 1750.45,1335.34 1750.45,1039.34 1721.66,1039.34 
  "/>
<path clip-path="url(#clip8003)" d="
M1750.45 1061.54 L1750.45 1335.34 L1779.24 1335.34 L1779.24 1061.54 L1750.45 1061.54 L1750.45 1061.54  Z
  " fill="#000014" fill-rule="evenodd" fill-opacity="1"/>
<polyline clip-path="url(#clip8003)" style="stroke:#000000; stroke-width:4; stroke-opacity:1; fill:none" points="
  1750.45,1061.54 1750.45,1335.34 1779.24,1335.34 1779.24,1061.54 1750.45,1061.54 
  "/>
<path clip-path="url(#clip8003)" d="
M1779.24 1202.14 L1779.24 1335.34 L1808.03 1335.34 L1808.03 1202.14 L1779.24 1202.14 L1779.24 1202.14  Z
  " fill="#000014" fill-rule="evenodd" fill-opacity="1"/>
<polyline clip-path="url(#clip8003)" style="stroke:#000000; stroke-width:4; stroke-opacity:1; fill:none" points="
  1779.24,1202.14 1779.24,1335.34 1808.03,1335.34 1808.03,1202.14 1779.24,1202.14 
  "/>
<path clip-path="url(#clip8003)" d="
M1808.03 1320.54 L1808.03 1335.34 L1836.81 1335.34 L1836.81 1320.54 L1808.03 1320.54 L1808.03 1320.54  Z
  " fill="#000014" fill-rule="evenodd" fill-opacity="1"/>
<polyline clip-path="url(#clip8003)" style="stroke:#000000; stroke-width:4; stroke-opacity:1; fill:none" points="
  1808.03,1320.54 1808.03,1335.34 1836.81,1335.34 1836.81,1320.54 1808.03,1320.54 
  "/>
<path clip-path="url(#clip8003)" d="
M1836.81 1216.94 L1836.81 1335.34 L1865.6 1335.34 L1865.6 1216.94 L1836.81 1216.94 L1836.81 1216.94  Z
  " fill="#000014" fill-rule="evenodd" fill-opacity="1"/>
<polyline clip-path="url(#clip8003)" style="stroke:#000000; stroke-width:4; stroke-opacity:1; fill:none" points="
  1836.81,1216.94 1836.81,1335.34 1865.6,1335.34 1865.6,1216.94 1836.81,1216.94 
  "/>
<path clip-path="url(#clip8003)" d="
M1865.6 1216.94 L1865.6 1335.34 L1894.39 1335.34 L1894.39 1216.94 L1865.6 1216.94 L1865.6 1216.94  Z
  " fill="#000014" fill-rule="evenodd" fill-opacity="1"/>
<polyline clip-path="url(#clip8003)" style="stroke:#000000; stroke-width:4; stroke-opacity:1; fill:none" points="
  1865.6,1216.94 1865.6,1335.34 1894.39,1335.34 1894.39,1216.94 1865.6,1216.94 
  "/>
<path clip-path="url(#clip8003)" d="
M1894.39 1313.14 L1894.39 1335.34 L1923.18 1335.34 L1923.18 1313.14 L1894.39 1313.14 L1894.39 1313.14  Z
  " fill="#000014" fill-rule="evenodd" fill-opacity="1"/>
<polyline clip-path="url(#clip8003)" style="stroke:#000000; stroke-width:4; stroke-opacity:1; fill:none" points="
  1894.39,1313.14 1894.39,1335.34 1923.18,1335.34 1923.18,1313.14 1894.39,1313.14 
  "/>
<path clip-path="url(#clip8003)" d="
M1923.18 1239.14 L1923.18 1335.34 L1951.96 1335.34 L1951.96 1239.14 L1923.18 1239.14 L1923.18 1239.14  Z
  " fill="#000014" fill-rule="evenodd" fill-opacity="1"/>
<polyline clip-path="url(#clip8003)" style="stroke:#000000; stroke-width:4; stroke-opacity:1; fill:none" points="
  1923.18,1239.14 1923.18,1335.34 1951.96,1335.34 1951.96,1239.14 1923.18,1239.14 
  "/>
<path clip-path="url(#clip8003)" d="
M1951.96 1276.14 L1951.96 1335.34 L1980.75 1335.34 L1980.75 1276.14 L1951.96 1276.14 L1951.96 1276.14  Z
  " fill="#000014" fill-rule="evenodd" fill-opacity="1"/>
<polyline clip-path="url(#clip8003)" style="stroke:#000000; stroke-width:4; stroke-opacity:1; fill:none" points="
  1951.96,1276.14 1951.96,1335.34 1980.75,1335.34 1980.75,1276.14 1951.96,1276.14 
  "/>
<path clip-path="url(#clip8003)" d="
M1980.75 1320.54 L1980.75 1335.34 L2009.54 1335.34 L2009.54 1320.54 L1980.75 1320.54 L1980.75 1320.54  Z
  " fill="#000014" fill-rule="evenodd" fill-opacity="1"/>
<polyline clip-path="url(#clip8003)" style="stroke:#000000; stroke-width:4; stroke-opacity:1; fill:none" points="
  1980.75,1320.54 1980.75,1335.34 2009.54,1335.34 2009.54,1320.54 1980.75,1320.54 
  "/>
<path clip-path="url(#clip8003)" d="
M2009.54 1320.54 L2009.54 1335.34 L2038.33 1335.34 L2038.33 1320.54 L2009.54 1320.54 L2009.54 1320.54  Z
  " fill="#000014" fill-rule="evenodd" fill-opacity="1"/>
<polyline clip-path="url(#clip8003)" style="stroke:#000000; stroke-width:4; stroke-opacity:1; fill:none" points="
  2009.54,1320.54 2009.54,1335.34 2038.33,1335.34 2038.33,1320.54 2009.54,1320.54 
  "/>
<path clip-path="url(#clip8003)" d="
M2038.33 1335.34 L2038.33 1335.34 L2067.11 1335.34 L2067.11 1335.34 L2038.33 1335.34 L2038.33 1335.34  Z
  " fill="#000014" fill-rule="evenodd" fill-opacity="1"/>
<polyline clip-path="url(#clip8003)" style="stroke:#000000; stroke-width:4; stroke-opacity:1; fill:none" points="
  2038.33,1335.34 2038.33,1335.34 2067.11,1335.34 2038.33,1335.34 
  "/>
<path clip-path="url(#clip8003)" d="
M2067.11 1313.14 L2067.11 1335.34 L2095.9 1335.34 L2095.9 1313.14 L2067.11 1313.14 L2067.11 1313.14  Z
  " fill="#000014" fill-rule="evenodd" fill-opacity="1"/>
<polyline clip-path="url(#clip8003)" style="stroke:#000000; stroke-width:4; stroke-opacity:1; fill:none" points="
  2067.11,1313.14 2067.11,1335.34 2095.9,1335.34 2095.9,1313.14 2067.11,1313.14 
  "/>
<path clip-path="url(#clip8003)" d="
M2095.9 1335.34 L2095.9 1335.34 L2124.69 1335.34 L2124.69 1335.34 L2095.9 1335.34 L2095.9 1335.34  Z
  " fill="#000014" fill-rule="evenodd" fill-opacity="1"/>
<polyline clip-path="url(#clip8003)" style="stroke:#000000; stroke-width:4; stroke-opacity:1; fill:none" points="
  2095.9,1335.34 2095.9,1335.34 2124.69,1335.34 2095.9,1335.34 
  "/>
<path clip-path="url(#clip8003)" d="
M2124.69 1335.34 L2124.69 1335.34 L2153.47 1335.34 L2153.47 1335.34 L2124.69 1335.34 L2124.69 1335.34  Z
  " fill="#000014" fill-rule="evenodd" fill-opacity="1"/>
<polyline clip-path="url(#clip8003)" style="stroke:#000000; stroke-width:4; stroke-opacity:1; fill:none" points="
  2124.69,1335.34 2124.69,1335.34 2153.47,1335.34 2124.69,1335.34 
  "/>
<path clip-path="url(#clip8003)" d="
M2153.47 1283.54 L2153.47 1335.34 L2182.26 1335.34 L2182.26 1283.54 L2153.47 1283.54 L2153.47 1283.54  Z
  " fill="#000014" fill-rule="evenodd" fill-opacity="1"/>
<polyline clip-path="url(#clip8003)" style="stroke:#000000; stroke-width:4; stroke-opacity:1; fill:none" points="
  2153.47,1283.54 2153.47,1335.34 2182.26,1335.34 2182.26,1283.54 2153.47,1283.54 
  "/>
<polyline clip-path="url(#clip8003)" style="stroke:#90ee90; stroke-width:4; stroke-opacity:1; fill:none" points="
  1462.58,1335.34 1462.86,1335.29 1463.15,1335.16 1463.44,1334.93 1463.73,1334.61 1464.02,1334.21 1464.3,1333.72 1464.59,1333.15 1464.88,1332.5 1465.17,1331.76 
  1465.45,1330.94 1465.74,1330.04 1466.03,1329.07 1466.32,1328.01 1466.61,1326.89 1466.89,1325.69 1467.18,1324.41 1467.47,1323.06 1467.76,1321.64 1468.05,1320.16 
  1468.33,1318.6 1468.62,1316.98 1468.91,1315.29 1469.2,1313.53 1469.49,1311.71 1469.77,1309.83 1470.06,1307.89 1470.35,1305.88 1470.64,1303.82 1470.92,1301.69 
  1471.21,1299.51 1471.5,1297.28 1471.79,1294.98 1472.08,1292.63 1472.36,1290.23 1472.65,1287.78 1472.94,1285.27 1473.23,1282.72 1473.52,1280.11 1473.8,1277.46 
  1474.09,1274.75 1474.38,1272 1474.67,1269.21 1474.95,1266.37 1475.24,1263.48 1475.53,1260.55 1475.82,1257.58 1476.11,1254.57 1476.39,1251.52 1476.68,1248.42 
  1476.97,1245.29 1477.26,1242.12 1477.55,1238.91 1477.83,1235.67 1478.12,1232.39 1478.41,1229.07 1478.7,1225.72 1478.99,1222.34 1479.27,1218.92 1479.56,1215.47 
  1479.85,1212 1480.14,1208.49 1480.42,1204.95 1480.71,1201.38 1481,1197.78 1481.29,1194.16 1481.58,1190.5 1481.86,1186.83 1482.15,1183.12 1482.44,1179.39 
  1482.73,1175.64 1483.02,1171.87 1483.3,1168.07 1483.59,1164.25 1483.88,1160.4 1484.17,1156.54 1484.45,1152.66 1484.74,1148.75 1485.03,1144.83 1485.32,1140.89 
  1485.61,1136.93 1485.89,1132.95 1486.18,1128.96 1486.47,1124.95 1486.76,1120.92 1487.05,1116.88 1487.33,1112.83 1487.62,1108.76 1487.91,1104.68 1488.2,1100.58 
  1488.48,1096.47 1488.77,1092.35 1489.06,1088.22 1489.35,1084.08 1489.64,1079.93 1489.92,1075.77 1490.21,1071.59 1490.5,1067.41 1490.79,1063.22 1491.08,1059.03 
  1491.36,1054.82 1491.65,1050.61 1491.94,1046.39 1492.23,1042.17 1492.52,1037.94 1492.8,1033.71 1493.09,1029.47 1493.38,1025.22 1493.67,1020.98 1493.95,1016.72 
  1494.24,1012.47 1494.53,1008.21 1494.82,1003.95 1495.11,999.691 1495.39,995.428 1495.68,991.163 1495.97,986.898 1496.26,982.633 1496.55,978.367 1496.83,974.102 
  1497.12,969.837 1497.41,965.574 1497.7,961.311 1497.98,957.051 1498.27,952.792 1498.56,948.536 1498.85,944.283 1499.14,940.032 1499.42,935.785 1499.71,931.542 
  1500,927.302 1500.29,923.067 1500.58,918.837 1500.86,914.611 1501.15,910.391 1501.44,906.176 1501.73,901.966 1502.02,897.763 1502.3,893.566 1502.59,889.376 
  1502.88,885.193 1503.17,881.016 1503.45,876.847 1503.74,872.686 1504.03,868.533 1504.32,864.387 1504.61,860.25 1504.89,856.122 1505.18,852.003 1505.47,847.892 
  1505.76,843.791 1506.05,839.7 1506.33,835.618 1506.62,831.547 1506.91,827.485 1507.2,823.434 1507.48,819.394 1507.77,815.365 1508.06,811.346 1508.35,807.339 
  1508.64,803.343 1508.92,799.359 1509.21,795.387 1509.5,791.426 1509.79,787.478 1510.08,783.543 1510.36,779.62 1510.65,775.709 1510.94,771.812 1511.23,767.927 
  1511.51,764.056 1511.8,760.198 1512.09,756.354 1512.38,752.523 1512.67,748.706 1512.95,744.904 1513.24,741.115 1513.53,737.341 1513.82,733.581 1514.11,729.836 
  1514.39,726.105 1514.68,722.39 1514.97,718.689 1515.26,715.004 1515.55,711.333 1515.83,707.678 1516.12,704.039 1516.41,700.415 1516.7,696.807 1516.98,693.215 
  1517.27,689.638 1517.56,686.078 1517.85,682.534 1518.14,679.006 1518.42,675.494 1518.71,671.999 1519,668.521 1519.29,665.059 1519.58,661.614 1519.86,658.186 
  1520.15,654.774 1520.44,651.38 1520.73,648.003 1521.01,644.643 1521.3,641.3 1521.59,637.975 1521.88,634.667 1522.17,631.376 1522.45,628.103 1522.74,624.848 
  1523.03,621.61 1523.32,618.39 1523.61,615.188 1523.89,612.004 1524.18,608.838 1524.47,605.69 1524.76,602.559 1525.05,599.447 1525.33,596.354 1525.62,593.278 
  1525.91,590.221 1526.2,587.181 1526.48,584.161 1526.77,581.159 1527.06,578.175 1527.35,575.209 1527.64,572.263 1527.92,569.334 1528.21,566.425 1528.5,563.534 
  1528.79,560.662 1529.08,557.808 1529.36,554.973 1529.65,552.157 1529.94,549.36 1530.23,546.581 1530.51,543.822 1530.8,541.081 1531.09,538.359 1531.38,535.656 
  1531.67,532.972 1531.95,530.307 1532.24,527.661 1532.53,525.034 1532.82,522.426 1533.11,519.836 1533.39,517.266 1533.68,514.715 1533.97,512.183 1534.26,509.67 
  1534.54,507.176 1534.83,504.701 1535.12,502.245 1535.41,499.808 1535.7,497.39 1535.98,494.992 1536.27,492.612 1536.56,490.251 1536.85,487.91 1537.14,485.587 
  1537.42,483.284 1537.71,480.999 1538,478.734 1538.29,476.487 1538.58,474.26 1538.86,472.051 1539.15,469.862 1539.44,467.692 1539.73,465.54 1540.01,463.407 
  1540.3,461.294 1540.59,459.199 1540.88,457.123 1541.17,455.066 1541.45,453.028 1541.74,451.009 1542.03,449.008 1542.32,447.027 1542.61,445.064 1542.89,443.12 
  1543.18,441.195 1543.47,439.288 1543.76,437.4 1544.04,435.53 1544.33,433.68 1544.62,431.848 1544.91,430.034 1545.2,428.239 1545.48,426.463 1545.77,424.705 
  1546.06,422.965 1546.35,421.244 1546.64,419.541 1546.92,417.857 1547.21,416.19 1547.5,414.543 1547.79,412.913 1548.07,411.302 1548.36,409.708 1548.65,408.133 
  1548.94,406.576 1549.23,405.038 1549.51,403.517 1549.8,402.014 1550.09,400.529 1550.38,399.062 1550.67,397.612 1550.95,396.181 1551.24,394.767 1551.53,393.372 
  1551.82,391.993 1552.11,390.633 1552.39,389.29 1552.68,387.964 1552.97,386.657 1553.26,385.366 1553.54,384.093 1553.83,382.837 1554.12,381.599 1554.41,380.378 
  1554.7,379.174 1554.98,377.988 1555.27,376.818 1555.56,375.666 1555.85,374.53 1556.14,373.412 1556.42,372.311 1556.71,371.226 1557,370.158 1557.29,369.107 
  1557.57,368.073 1557.86,367.055 1558.15,366.055 1558.44,365.07 1558.73,364.102 1559.01,363.151 1559.3,362.216 1559.59,361.297 1559.88,360.395 1560.17,359.509 
  1560.45,358.639 1560.74,357.785 1561.03,356.948 1561.32,356.126 1561.61,355.32 1561.89,354.531 1562.18,353.757 1562.47,352.999 1562.76,352.256 1563.04,351.53 
  1563.33,350.819 1563.62,350.123 1563.91,349.443 1564.2,348.779 1564.48,348.13 1564.77,347.496 1565.06,346.878 1565.35,346.274 1565.64,345.686 1565.92,345.113 
  1566.21,344.555 1566.5,344.012 1566.79,343.484 1567.07,342.971 1567.36,342.473 1567.65,341.989 1567.94,341.52 1568.23,341.066 1568.51,340.626 1568.8,340.201 
  1569.09,339.79 1569.38,339.394 1569.67,339.012 1569.95,338.644 1570.24,338.29 1570.53,337.951 1570.82,337.625 1571.1,337.314 1571.39,337.016 1571.68,336.733 
  1571.97,336.463 1572.26,336.207 1572.54,335.965 1572.83,335.736 1573.12,335.521 1573.41,335.319 1573.7,335.131 1573.98,334.957 1574.27,334.795 1574.56,334.647 
  1574.85,334.512 1575.14,334.39 1575.42,334.282 1575.71,334.186 1576,334.103 1576.29,334.034 1576.57,333.977 1576.86,333.933 1577.15,333.901 1577.44,333.882 
  1577.73,333.876 1578.01,333.882 1578.3,333.901 1578.59,333.932 1578.88,333.975 1579.17,334.031 1579.45,334.099 1579.74,334.179 1580.03,334.271 1580.32,334.375 
  1580.6,334.491 1580.89,334.619 1581.18,334.759 1581.47,334.911 1581.76,335.074 1582.04,335.249 1582.33,335.436 1582.62,335.634 1582.91,335.843 1583.2,336.064 
  1583.48,336.296 1583.77,336.54 1584.06,336.794 1584.35,337.06 1584.64,337.337 1584.92,337.625 1585.21,337.924 1585.5,338.234 1585.79,338.554 1586.07,338.886 
  1586.36,339.228 1586.65,339.581 1586.94,339.944 1587.23,340.318 1587.51,340.703 1587.8,341.097 1588.09,341.503 1588.38,341.918 1588.67,342.344 1588.95,342.779 
  1589.24,343.225 1589.53,343.681 1589.82,344.147 1590.1,344.623 1590.39,345.109 1590.68,345.604 1590.97,346.11 1591.26,346.625 1591.54,347.149 1591.83,347.683 
  1592.12,348.227 1592.41,348.78 1592.7,349.343 1592.98,349.915 1593.27,350.496 1593.56,351.086 1593.85,351.685 1594.13,352.294 1594.42,352.911 1594.71,353.538 
  1595,354.173 1595.29,354.818 1595.57,355.471 1595.86,356.133 1596.15,356.803 1596.44,357.482 1596.73,358.17 1597.01,358.866 1597.3,359.571 1597.59,360.284 
  1597.88,361.006 1598.17,361.735 1598.45,362.473 1598.74,363.219 1599.03,363.973 1599.32,364.736 1599.6,365.506 1599.89,366.284 1600.18,367.07 1600.47,367.864 
  1600.76,368.666 1601.04,369.475 1601.33,370.292 1601.62,371.117 1601.91,371.949 1602.2,372.789 1602.48,373.636 1602.77,374.491 1603.06,375.353 1603.35,376.222 
  1603.63,377.098 1603.92,377.982 1604.21,378.873 1604.5,379.77 1604.79,380.675 1605.07,381.587 1605.36,382.506 1605.65,383.431 1605.94,384.363 1606.23,385.303 
  1606.51,386.248 1606.8,387.201 1607.09,388.16 1607.38,389.125 1607.66,390.097 1607.95,391.076 1608.24,392.061 1608.53,393.052 1608.82,394.049 1609.1,395.053 
  1609.39,396.063 1609.68,397.079 1609.97,398.101 1610.26,399.129 1610.54,400.163 1610.83,401.203 1611.12,402.249 1611.41,403.301 1611.7,404.358 1611.98,405.421 
  1612.27,406.49 1612.56,407.565 1612.85,408.645 1613.13,409.731 1613.42,410.822 1613.71,411.918 1614,413.02 1614.29,414.128 1614.57,415.24 1614.86,416.358 
  1615.15,417.481 1615.44,418.61 1615.73,419.743 1616.01,420.881 1616.3,422.025 1616.59,423.173 1616.88,424.327 1617.16,425.485 1617.45,426.648 1617.74,427.816 
  1618.03,428.988 1618.32,430.165 1618.6,431.347 1618.89,432.534 1619.18,433.725 1619.47,434.92 1619.76,436.12 1620.04,437.325 1620.33,438.534 1620.62,439.747 
  1620.91,440.964 1621.2,442.186 1621.48,443.412 1621.77,444.642 1622.06,445.876 1622.35,447.115 1622.63,448.357 1622.92,449.603 1623.21,450.854 1623.5,452.108 
  1623.79,453.366 1624.07,454.628 1624.36,455.893 1624.65,457.163 1624.94,458.436 1625.23,459.712 1625.51,460.993 1625.8,462.277 1626.09,463.564 1626.38,464.855 
  1626.66,466.15 1626.95,467.448 1627.24,468.749 1627.53,470.053 1627.82,471.361 1628.1,472.672 1628.39,473.987 1628.68,475.304 1628.97,476.625 1629.26,477.949 
  1629.54,479.276 1629.83,480.606 1630.12,481.938 1630.41,483.274 1630.69,484.613 1630.98,485.955 1631.27,487.299 1631.56,488.646 1631.85,489.996 1632.13,491.349 
  1632.42,492.705 1632.71,494.063 1633,495.423 1633.29,496.787 1633.57,498.153 1633.86,499.521 1634.15,500.892 1634.44,502.265 1634.73,503.641 1635.01,505.019 
  1635.3,506.399 1635.59,507.782 1635.88,509.167 1636.16,510.554 1636.45,511.944 1636.74,513.335 1637.03,514.729 1637.32,516.125 1637.6,517.523 1637.89,518.922 
  1638.18,520.324 1638.47,521.728 1638.76,523.134 1639.04,524.542 1639.33,525.951 1639.62,527.363 1639.91,528.776 1640.19,530.191 1640.48,531.608 1640.77,533.026 
  1641.06,534.446 1641.35,535.868 1641.63,537.291 1641.92,538.716 1642.21,540.143 1642.5,541.571 1642.79,543 1643.07,544.431 1643.36,545.864 1643.65,547.298 
  1643.94,548.733 1644.23,550.169 1644.51,551.607 1644.8,553.046 1645.09,554.487 1645.38,555.928 1645.66,557.371 1645.95,558.815 1646.24,560.26 1646.53,561.706 
  1646.82,563.154 1647.1,564.602 1647.39,566.052 1647.68,567.502 1647.97,568.953 1648.26,570.406 1648.54,571.859 1648.83,573.313 1649.12,574.768 1649.41,576.224 
  1649.69,577.68 1649.98,579.138 1650.27,580.596 1650.56,582.055 1650.85,583.515 1651.13,584.975 1651.42,586.436 1651.71,587.897 1652,589.36 1652.29,590.822 
  1652.57,592.286 1652.86,593.75 1653.15,595.214 1653.44,596.679 1653.72,598.144 1654.01,599.61 1654.3,601.076 1654.59,602.542 1654.88,604.009 1655.16,605.476 
  1655.45,606.944 1655.74,608.412 1656.03,609.88 1656.32,611.348 1656.6,612.817 1656.89,614.285 1657.18,615.754 1657.47,617.223 1657.76,618.692 1658.04,620.162 
  1658.33,621.631 1658.62,623.101 1658.91,624.57 1659.19,626.04 1659.48,627.509 1659.77,628.978 1660.06,630.448 1660.35,631.917 1660.63,633.386 1660.92,634.856 
  1661.21,636.325 1661.5,637.793 1661.79,639.262 1662.07,640.731 1662.36,642.199 1662.65,643.667 1662.94,645.135 1663.22,646.602 1663.51,648.07 1663.8,649.537 
  1664.09,651.003 1664.38,652.469 1664.66,653.935 1664.95,655.401 1665.24,656.866 1665.53,658.331 1665.82,659.795 1666.1,661.259 1666.39,662.722 1666.68,664.185 
  1666.97,665.647 1667.25,667.109 1667.54,668.57 1667.83,670.03 1668.12,671.49 1668.41,672.95 1668.69,674.409 1668.98,675.867 1669.27,677.324 1669.56,678.781 
  1669.85,680.237 1670.13,681.693 1670.42,683.147 1670.71,684.601 1671,686.055 1671.29,687.507 1671.57,688.959 1671.86,690.409 1672.15,691.859 1672.44,693.309 
  1672.72,694.757 1673.01,696.204 1673.3,697.651 1673.59,699.097 1673.88,700.541 1674.16,701.985 1674.45,703.428 1674.74,704.87 1675.03,706.311 1675.32,707.751 
  1675.6,709.19 1675.89,710.628 1676.18,712.065 1676.47,713.501 1676.75,714.935 1677.04,716.369 1677.33,717.802 1677.62,719.233 1677.91,720.664 1678.19,722.093 
  1678.48,723.521 1678.77,724.948 1679.06,726.374 1679.35,727.799 1679.63,729.222 1679.92,730.644 1680.21,732.065 1680.5,733.485 1680.79,734.904 1681.07,736.321 
  1681.36,737.737 1681.65,739.152 1681.94,740.565 1682.22,741.977 1682.51,743.388 1682.8,744.798 1683.09,746.206 1683.38,747.613 1683.66,749.018 1683.95,750.422 
  1684.24,751.825 1684.53,753.226 1684.82,754.626 1685.1,756.024 1685.39,757.421 1685.68,758.817 1685.97,760.211 1686.25,761.603 1686.54,762.994 1686.83,764.384 
  1687.12,765.772 1687.41,767.159 1687.69,768.544 1687.98,769.928 1688.27,771.31 1688.56,772.69 1688.85,774.069 1689.13,775.447 1689.42,776.822 1689.71,778.197 
  1690,779.569 1690.28,780.94 1690.57,782.31 1690.86,783.678 1691.15,785.044 1691.44,786.408 1691.72,787.771 1692.01,789.132 1692.3,790.492 1692.59,791.85 
  1692.88,793.206 1693.16,794.56 1693.45,795.913 1693.74,797.264 1694.03,798.614 1694.32,799.961 1694.6,801.307 1694.89,802.651 1695.18,803.994 1695.47,805.334 
  1695.75,806.673 1696.04,808.01 1696.33,809.346 1696.62,810.679 1696.91,812.011 1697.19,813.341 1697.48,814.669 1697.77,815.995 1698.06,817.32 1698.35,818.642 
  1698.63,819.963 1698.92,821.282 1699.21,822.599 1699.5,823.914 1699.78,825.228 1700.07,826.539 1700.36,827.849 1700.65,829.156 1700.94,830.462 1701.22,831.766 
  1701.51,833.068 1701.8,834.368 1702.09,835.667 1702.38,836.963 1702.66,838.257 1702.95,839.549 1703.24,840.84 1703.53,842.128 1703.82,843.415 1704.1,844.7 
  1704.39,845.982 1704.68,847.263 1704.97,848.542 1705.25,849.818 1705.54,851.093 1705.83,852.366 1706.12,853.636 1706.41,854.905 1706.69,856.172 1706.98,857.437 
  1707.27,858.699 1707.56,859.96 1707.85,861.219 1708.13,862.475 1708.42,863.73 1708.71,864.983 1709,866.233 1709.28,867.481 1709.57,868.728 1709.86,869.972 
  1710.15,871.215 1710.44,872.455 1710.72,873.693 1711.01,874.929 1711.3,876.163 1711.59,877.395 1711.88,878.625 1712.16,879.853 1712.45,881.078 1712.74,882.302 
  1713.03,883.523 1713.31,884.743 1713.6,885.96 1713.89,887.175 1714.18,888.388 1714.47,889.599 1714.75,890.808 1715.04,892.015 1715.33,893.219 1715.62,894.422 
  1715.91,895.622 1716.19,896.82 1716.48,898.016 1716.77,899.21 1717.06,900.402 1717.35,901.591 1717.63,902.779 1717.92,903.964 1718.21,905.147 1718.5,906.328 
  1718.78,907.507 1719.07,908.684 1719.36,909.858 1719.65,911.03 1719.94,912.201 1720.22,913.369 1720.51,914.534 1720.8,915.698 1721.09,916.859 1721.38,918.019 
  1721.66,919.176 1721.95,920.331 1722.24,921.483 1722.53,922.634 1722.81,923.782 1723.1,924.929 1723.39,926.073 1723.68,927.214 1723.97,928.354 1724.25,929.491 
  1724.54,930.626 1724.83,931.759 1725.12,932.89 1725.41,934.019 1725.69,935.145 1725.98,936.269 1726.27,937.391 1726.56,938.511 1726.84,939.629 1727.13,940.744 
  1727.42,941.857 1727.71,942.968 1728,944.077 1728.28,945.183 1728.57,946.287 1728.86,947.389 1729.15,948.489 1729.44,949.587 1729.72,950.682 1730.01,951.775 
  1730.3,952.866 1730.59,953.955 1730.88,955.042 1731.16,956.126 1731.45,957.208 1731.74,958.288 1732.03,959.365 1732.31,960.441 1732.6,961.514 1732.89,962.585 
  1733.18,963.654 1733.47,964.72 1733.75,965.784 1734.04,966.846 1734.33,967.906 1734.62,968.964 1734.91,970.019 1735.19,971.072 1735.48,972.123 1735.77,973.172 
  1736.06,974.218 1736.34,975.263 1736.63,976.305 1736.92,977.344 1737.21,978.382 1737.5,979.417 1737.78,980.45 1738.07,981.481 1738.36,982.51 1738.65,983.536 
  1738.94,984.561 1739.22,985.583 1739.51,986.602 1739.8,987.62 1740.09,988.635 1740.38,989.648 1740.66,990.659 1740.95,991.668 1741.24,992.674 1741.53,993.679 
  1741.81,994.681 1742.1,995.68 1742.39,996.678 1742.68,997.673 1742.97,998.667 1743.25,999.658 1743.54,1000.65 1743.83,1001.63 1744.12,1002.62 1744.41,1003.6 
  1744.69,1004.58 1744.98,1005.56 1745.27,1006.53 1745.56,1007.51 1745.84,1008.48 1746.13,1009.45 1746.42,1010.41 1746.71,1011.38 1747,1012.34 1747.28,1013.3 
  1747.57,1014.26 1747.86,1015.21 1748.15,1016.17 1748.44,1017.12 1748.72,1018.07 1749.01,1019.01 1749.3,1019.96 1749.59,1020.9 1749.87,1021.84 1750.16,1022.78 
  1750.45,1023.71 1750.74,1024.65 1751.03,1025.58 1751.31,1026.51 1751.6,1027.44 1751.89,1028.36 1752.18,1029.28 1752.47,1030.21 1752.75,1031.12 1753.04,1032.04 
  1753.33,1032.95 1753.62,1033.87 1753.91,1034.78 1754.19,1035.68 1754.48,1036.59 1754.77,1037.49 1755.06,1038.39 1755.34,1039.29 1755.63,1040.19 1755.92,1041.09 
  1756.21,1041.98 1756.5,1042.87 1756.78,1043.76 1757.07,1044.64 1757.36,1045.53 1757.65,1046.41 1757.94,1047.29 1758.22,1048.17 1758.51,1049.04 1758.8,1049.92 
  1759.09,1050.79 1759.37,1051.66 1759.66,1052.52 1759.95,1053.39 1760.24,1054.25 1760.53,1055.11 1760.81,1055.97 1761.1,1056.83 1761.39,1057.68 1761.68,1058.53 
  1761.97,1059.38 1762.25,1060.23 1762.54,1061.08 1762.83,1061.92 1763.12,1062.76 1763.41,1063.6 1763.69,1064.44 1763.98,1065.28 1764.27,1066.11 1764.56,1066.94 
  1764.84,1067.77 1765.13,1068.6 1765.42,1069.42 1765.71,1070.24 1766,1071.07 1766.28,1071.88 1766.57,1072.7 1766.86,1073.52 1767.15,1074.33 1767.44,1075.14 
  1767.72,1075.95 1768.01,1076.75 1768.3,1077.56 1768.59,1078.36 1768.87,1079.16 1769.16,1079.96 1769.45,1080.76 1769.74,1081.55 1770.03,1082.34 1770.31,1083.13 
  1770.6,1083.92 1770.89,1084.71 1771.18,1085.49 1771.47,1086.27 1771.75,1087.05 1772.04,1087.83 1772.33,1088.61 1772.62,1089.38 1772.9,1090.15 1773.19,1090.92 
  1773.48,1091.69 1773.77,1092.46 1774.06,1093.22 1774.34,1093.98 1774.63,1094.74 1774.92,1095.5 1775.21,1096.26 1775.5,1097.01 1775.78,1097.76 1776.07,1098.51 
  1776.36,1099.26 1776.65,1100.01 1776.94,1100.75 1777.22,1101.5 1777.51,1102.24 1777.8,1102.97 1778.09,1103.71 1778.37,1104.45 1778.66,1105.18 1778.95,1105.91 
  1779.24,1106.64 1779.53,1107.36 1779.81,1108.09 1780.1,1108.81 1780.39,1109.53 1780.68,1110.25 1780.97,1110.97 1781.25,1111.68 1781.54,1112.4 1781.83,1113.11 
  1782.12,1113.82 1782.4,1114.53 1782.69,1115.23 1782.98,1115.93 1783.27,1116.64 1783.56,1117.34 1783.84,1118.03 1784.13,1118.73 1784.42,1119.42 1784.71,1120.12 
  1785,1120.81 1785.28,1121.5 1785.57,1122.18 1785.86,1122.87 1786.15,1123.55 1786.43,1124.23 1786.72,1124.91 1787.01,1125.59 1787.3,1126.26 1787.59,1126.94 
  1787.87,1127.61 1788.16,1128.28 1788.45,1128.95 1788.74,1129.61 1789.03,1130.28 1789.31,1130.94 1789.6,1131.6 1789.89,1132.26 1790.18,1132.92 1790.47,1133.57 
  1790.75,1134.23 1791.04,1134.88 1791.33,1135.53 1791.62,1136.18 1791.9,1136.82 1792.19,1137.47 1792.48,1138.11 1792.77,1138.75 1793.06,1139.39 1793.34,1140.03 
  1793.63,1140.67 1793.92,1141.3 1794.21,1141.93 1794.5,1142.56 1794.78,1143.19 1795.07,1143.82 1795.36,1144.44 1795.65,1145.07 1795.93,1145.69 1796.22,1146.31 
  1796.51,1146.93 1796.8,1147.54 1797.09,1148.16 1797.37,1148.77 1797.66,1149.38 1797.95,1149.99 1798.24,1150.6 1798.53,1151.2 1798.81,1151.81 1799.1,1152.41 
  1799.39,1153.01 1799.68,1153.61 1799.97,1154.21 1800.25,1154.8 1800.54,1155.4 1800.83,1155.99 1801.12,1156.58 1801.4,1157.17 1801.69,1157.76 1801.98,1158.34 
  1802.27,1158.93 1802.56,1159.51 1802.84,1160.09 1803.13,1160.67 1803.42,1161.25 1803.71,1161.82 1804,1162.39 1804.28,1162.97 1804.57,1163.54 1804.86,1164.11 
  1805.15,1164.67 1805.43,1165.24 1805.72,1165.8 1806.01,1166.37 1806.3,1166.93 1806.59,1167.49 1806.87,1168.04 1807.16,1168.6 1807.45,1169.15 1807.74,1169.71 
  1808.03,1170.26 1808.31,1170.81 1808.6,1171.35 1808.89,1171.9 1809.18,1172.45 1809.46,1172.99 1809.75,1173.53 1810.04,1174.07 1810.33,1174.61 1810.62,1175.15 
  1810.9,1175.68 1811.19,1176.21 1811.48,1176.75 1811.77,1177.28 1812.06,1177.81 1812.34,1178.33 1812.63,1178.86 1812.92,1179.38 1813.21,1179.91 1813.5,1180.43 
  1813.78,1180.95 1814.07,1181.46 1814.36,1181.98 1814.65,1182.5 1814.93,1183.01 1815.22,1183.52 1815.51,1184.03 1815.8,1184.54 1816.09,1185.05 1816.37,1185.55 
  1816.66,1186.06 1816.95,1186.56 1817.24,1187.06 1817.53,1187.56 1817.81,1188.06 1818.1,1188.56 1818.39,1189.05 1818.68,1189.55 1818.96,1190.04 1819.25,1190.53 
  1819.54,1191.02 1819.83,1191.51 1820.12,1192 1820.4,1192.48 1820.69,1192.96 1820.98,1193.45 1821.27,1193.93 1821.56,1194.41 1821.84,1194.88 1822.13,1195.36 
  1822.42,1195.84 1822.71,1196.31 1823,1196.78 1823.28,1197.25 1823.57,1197.72 1823.86,1198.19 1824.15,1198.66 1824.43,1199.12 1824.72,1199.59 1825.01,1200.05 
  1825.3,1200.51 1825.59,1200.97 1825.87,1201.43 1826.16,1201.88 1826.45,1202.34 1826.74,1202.79 1827.03,1203.24 1827.31,1203.7 1827.6,1204.14 1827.89,1204.59 
  1828.18,1205.04 1828.46,1205.49 1828.75,1205.93 1829.04,1206.37 1829.33,1206.81 1829.62,1207.25 1829.9,1207.69 1830.19,1208.13 1830.48,1208.57 1830.77,1209 
  1831.06,1209.44 1831.34,1209.87 1831.63,1210.3 1831.92,1210.73 1832.21,1211.16 1832.49,1211.58 1832.78,1212.01 1833.07,1212.43 1833.36,1212.86 1833.65,1213.28 
  1833.93,1213.7 1834.22,1214.12 1834.51,1214.53 1834.8,1214.95 1835.09,1215.37 1835.37,1215.78 1835.66,1216.19 1835.95,1216.6 1836.24,1217.01 1836.53,1217.42 
  1836.81,1217.83 1837.1,1218.23 1837.39,1218.64 1837.68,1219.04 1837.96,1219.45 1838.25,1219.85 1838.54,1220.25 1838.83,1220.65 1839.12,1221.04 1839.4,1221.44 
  1839.69,1221.83 1839.98,1222.23 1840.27,1222.62 1840.56,1223.01 1840.84,1223.4 1841.13,1223.79 1841.42,1224.18 1841.71,1224.56 1841.99,1224.95 1842.28,1225.33 
  1842.57,1225.71 1842.86,1226.1 1843.15,1226.48 1843.43,1226.86 1843.72,1227.23 1844.01,1227.61 1844.3,1227.99 1844.59,1228.36 1844.87,1228.73 1845.16,1229.1 
  1845.45,1229.48 1845.74,1229.84 1846.02,1230.21 1846.31,1230.58 1846.6,1230.95 1846.89,1231.31 1847.18,1231.67 1847.46,1232.04 1847.75,1232.4 1848.04,1232.76 
  1848.33,1233.12 1848.62,1233.48 1848.9,1233.83 1849.19,1234.19 1849.48,1234.54 1849.77,1234.9 1850.06,1235.25 1850.34,1235.6 1850.63,1235.95 1850.92,1236.3 
  1851.21,1236.65 1851.49,1236.99 1851.78,1237.34 1852.07,1237.68 1852.36,1238.03 1852.65,1238.37 1852.93,1238.71 1853.22,1239.05 1853.51,1239.39 1853.8,1239.73 
  1854.09,1240.06 1854.37,1240.4 1854.66,1240.73 1854.95,1241.07 1855.24,1241.4 1855.52,1241.73 1855.81,1242.06 1856.1,1242.39 1856.39,1242.72 1856.68,1243.05 
  1856.96,1243.37 1857.25,1243.7 1857.54,1244.02 1857.83,1244.35 1858.12,1244.67 1858.4,1244.99 1858.69,1245.31 1858.98,1245.63 1859.27,1245.94 1859.56,1246.26 
  1859.84,1246.58 1860.13,1246.89 1860.42,1247.2 1860.71,1247.52 1860.99,1247.83 1861.28,1248.14 1861.57,1248.45 1861.86,1248.76 1862.15,1249.07 1862.43,1249.37 
  1862.72,1249.68 1863.01,1249.98 1863.3,1250.29 1863.59,1250.59 1863.87,1250.89 1864.16,1251.19 1864.45,1251.49 1864.74,1251.79 1865.02,1252.09 1865.31,1252.38 
  1865.6,1252.68 1865.89,1252.97 1866.18,1253.27 1866.46,1253.56 1866.75,1253.85 1867.04,1254.14 1867.33,1254.43 1867.62,1254.72 1867.9,1255.01 1868.19,1255.3 
  1868.48,1255.58 1868.77,1255.87 1869.05,1256.15 1869.34,1256.44 1869.63,1256.72 1869.92,1257 1870.21,1257.28 1870.49,1257.56 1870.78,1257.84 1871.07,1258.12 
  1871.36,1258.39 1871.65,1258.67 1871.93,1258.94 1872.22,1259.22 1872.51,1259.49 1872.8,1259.76 1873.09,1260.03 1873.37,1260.3 1873.66,1260.57 1873.95,1260.84 
  1874.24,1261.11 1874.52,1261.38 1874.81,1261.64 1875.1,1261.91 1875.39,1262.17 1875.68,1262.44 1875.96,1262.7 1876.25,1262.96 1876.54,1263.22 1876.83,1263.48 
  1877.12,1263.74 1877.4,1264 1877.69,1264.26 1877.98,1264.51 1878.27,1264.77 1878.55,1265.02 1878.84,1265.28 1879.13,1265.53 1879.42,1265.78 1879.71,1266.03 
  1879.99,1266.28 1880.28,1266.53 1880.57,1266.78 1880.86,1267.03 1881.15,1267.28 1881.43,1267.52 1881.72,1267.77 1882.01,1268.01 1882.3,1268.26 1882.59,1268.5 
  1882.87,1268.74 1883.16,1268.98 1883.45,1269.22 1883.74,1269.46 1884.02,1269.7 1884.31,1269.94 1884.6,1270.18 1884.89,1270.41 1885.18,1270.65 1885.46,1270.88 
  1885.75,1271.12 1886.04,1271.35 1886.33,1271.58 1886.62,1271.82 1886.9,1272.05 1887.19,1272.28 1887.48,1272.51 1887.77,1272.74 1888.05,1272.96 1888.34,1273.19 
  1888.63,1273.42 1888.92,1273.64 1889.21,1273.87 1889.49,1274.09 1889.78,1274.31 1890.07,1274.54 1890.36,1274.76 1890.65,1274.98 1890.93,1275.2 1891.22,1275.42 
  1891.51,1275.64 1891.8,1275.86 1892.08,1276.07 1892.37,1276.29 1892.66,1276.51 1892.95,1276.72 1893.24,1276.93 1893.52,1277.15 1893.81,1277.36 1894.1,1277.57 
  1894.39,1277.78 1894.68,1278 1894.96,1278.21 1895.25,1278.41 1895.54,1278.62 1895.83,1278.83 1896.12,1279.04 1896.4,1279.24 1896.69,1279.45 1896.98,1279.66 
  1897.27,1279.86 1897.55,1280.06 1897.84,1280.27 1898.13,1280.47 1898.42,1280.67 1898.71,1280.87 1898.99,1281.07 1899.28,1281.27 1899.57,1281.47 1899.86,1281.67 
  1900.15,1281.86 1900.43,1282.06 1900.72,1282.26 1901.01,1282.45 1901.3,1282.65 1901.58,1282.84 1901.87,1283.03 1902.16,1283.23 1902.45,1283.42 1902.74,1283.61 
  1903.02,1283.8 1903.31,1283.99 1903.6,1284.18 1903.89,1284.37 1904.18,1284.56 1904.46,1284.74 1904.75,1284.93 1905.04,1285.12 1905.33,1285.3 1905.61,1285.49 
  1905.9,1285.67 1906.19,1285.85 1906.48,1286.04 1906.77,1286.22 1907.05,1286.4 1907.34,1286.58 1907.63,1286.76 1907.92,1286.94 1908.21,1287.12 1908.49,1287.3 
  1908.78,1287.48 1909.07,1287.66 1909.36,1287.83 1909.65,1288.01 1909.93,1288.18 1910.22,1288.36 1910.51,1288.53 1910.8,1288.71 1911.08,1288.88 1911.37,1289.05 
  1911.66,1289.22 1911.95,1289.39 1912.24,1289.56 1912.52,1289.73 1912.81,1289.9 1913.1,1290.07 1913.39,1290.24 1913.68,1290.41 1913.96,1290.58 1914.25,1290.74 
  1914.54,1290.91 1914.83,1291.07 1915.11,1291.24 1915.4,1291.4 1915.69,1291.57 1915.98,1291.73 1916.27,1291.89 1916.55,1292.05 1916.84,1292.21 1917.13,1292.37 
  1917.42,1292.53 1917.71,1292.69 1917.99,1292.85 1918.28,1293.01 1918.57,1293.17 1918.86,1293.33 1919.15,1293.48 1919.43,1293.64 1919.72,1293.8 1920.01,1293.95 
  1920.3,1294.11 1920.58,1294.26 1920.87,1294.41 1921.16,1294.57 1921.45,1294.72 1921.74,1294.87 1922.02,1295.02 1922.31,1295.17 1922.6,1295.32 1922.89,1295.47 
  1923.18,1295.62 1923.46,1295.77 1923.75,1295.92 1924.04,1296.07 1924.33,1296.21 1924.61,1296.36 1924.9,1296.51 1925.19,1296.65 1925.48,1296.8 1925.77,1296.94 
  1926.05,1297.08 1926.34,1297.23 1926.63,1297.37 1926.92,1297.51 1927.21,1297.66 1927.49,1297.8 1927.78,1297.94 1928.07,1298.08 1928.36,1298.22 1928.64,1298.36 
  1928.93,1298.5 1929.22,1298.64 1929.51,1298.77 1929.8,1298.91 1930.08,1299.05 1930.37,1299.18 1930.66,1299.32 1930.95,1299.46 1931.24,1299.59 1931.52,1299.73 
  1931.81,1299.86 1932.1,1299.99 1932.39,1300.13 1932.68,1300.26 1932.96,1300.39 1933.25,1300.52 1933.54,1300.65 1933.83,1300.78 1934.11,1300.92 1934.4,1301.05 
  1934.69,1301.17 1934.98,1301.3 1935.27,1301.43 1935.55,1301.56 1935.84,1301.69 1936.13,1301.81 1936.42,1301.94 1936.71,1302.07 1936.99,1302.19 1937.28,1302.32 
  1937.57,1302.44 1937.86,1302.57 1938.14,1302.69 1938.43,1302.82 1938.72,1302.94 1939.01,1303.06 1939.3,1303.18 1939.58,1303.3 1939.87,1303.43 1940.16,1303.55 
  1940.45,1303.67 1940.74,1303.79 1941.02,1303.91 1941.31,1304.03 1941.6,1304.14 1941.89,1304.26 1942.18,1304.38 1942.46,1304.5 1942.75,1304.62 1943.04,1304.73 
  1943.33,1304.85 1943.61,1304.96 1943.9,1305.08 1944.19,1305.19 1944.48,1305.31 1944.77,1305.42 1945.05,1305.54 1945.34,1305.65 1945.63,1305.76 1945.92,1305.87 
  1946.21,1305.99 1946.49,1306.1 1946.78,1306.21 1947.07,1306.32 1947.36,1306.43 1947.64,1306.54 1947.93,1306.65 1948.22,1306.76 1948.51,1306.87 1948.8,1306.98 
  1949.08,1307.08 1949.37,1307.19 1949.66,1307.3 1949.95,1307.41 1950.24,1307.51 1950.52,1307.62 1950.81,1307.72 1951.1,1307.83 1951.39,1307.93 1951.67,1308.04 
  1951.96,1308.14 1952.25,1308.25 1952.54,1308.35 1952.83,1308.45 1953.11,1308.56 1953.4,1308.66 1953.69,1308.76 1953.98,1308.86 1954.27,1308.96 1954.55,1309.06 
  1954.84,1309.16 1955.13,1309.26 1955.42,1309.36 1955.71,1309.46 1955.99,1309.56 1956.28,1309.66 1956.57,1309.76 1956.86,1309.86 1957.14,1309.96 1957.43,1310.05 
  1957.72,1310.15 1958.01,1310.25 1958.3,1310.34 1958.58,1310.44 1958.87,1310.53 1959.16,1310.63 1959.45,1310.72 1959.74,1310.82 1960.02,1310.91 1960.31,1311 
  1960.6,1311.1 1960.89,1311.19 1961.17,1311.28 1961.46,1311.38 1961.75,1311.47 1962.04,1311.56 1962.33,1311.65 1962.61,1311.74 1962.9,1311.83 1963.19,1311.92 
  1963.48,1312.01 1963.77,1312.1 1964.05,1312.19 1964.34,1312.28 1964.63,1312.37 1964.92,1312.46 1965.2,1312.55 1965.49,1312.63 1965.78,1312.72 1966.07,1312.81 
  1966.36,1312.9 1966.64,1312.98 1966.93,1313.07 1967.22,1313.15 1967.51,1313.24 1967.8,1313.32 1968.08,1313.41 1968.37,1313.49 1968.66,1313.58 1968.95,1313.66 
  1969.24,1313.74 1969.52,1313.83 1969.81,1313.91 1970.1,1313.99 1970.39,1314.08 1970.67,1314.16 1970.96,1314.24 1971.25,1314.32 1971.54,1314.4 1971.83,1314.48 
  1972.11,1314.56 1972.4,1314.64 1972.69,1314.72 1972.98,1314.8 1973.27,1314.88 1973.55,1314.96 1973.84,1315.04 1974.13,1315.12 1974.42,1315.2 1974.7,1315.28 
  1974.99,1315.35 1975.28,1315.43 1975.57,1315.51 1975.86,1315.58 1976.14,1315.66 1976.43,1315.74 1976.72,1315.81 1977.01,1315.89 1977.3,1315.96 1977.58,1316.04 
  1977.87,1316.11 1978.16,1316.19 1978.45,1316.26 1978.74,1316.34 1979.02,1316.41 1979.31,1316.48 1979.6,1316.56 1979.89,1316.63 1980.17,1316.7 1980.46,1316.77 
  1980.75,1316.85 1981.04,1316.92 1981.33,1316.99 1981.61,1317.06 1981.9,1317.13 1982.19,1317.2 1982.48,1317.27 1982.77,1317.34 1983.05,1317.41 1983.34,1317.48 
  1983.63,1317.55 1983.92,1317.62 1984.2,1317.69 1984.49,1317.76 1984.78,1317.83 1985.07,1317.9 1985.36,1317.96 1985.64,1318.03 1985.93,1318.1 1986.22,1318.17 
  1986.51,1318.23 1986.8,1318.3 1987.08,1318.37 1987.37,1318.43 1987.66,1318.5 1987.95,1318.56 1988.23,1318.63 1988.52,1318.69 1988.81,1318.76 1989.1,1318.82 
  1989.39,1318.89 1989.67,1318.95 1989.96,1319.02 1990.25,1319.08 1990.54,1319.14 1990.83,1319.21 1991.11,1319.27 1991.4,1319.33 1991.69,1319.39 1991.98,1319.46 
  1992.27,1319.52 1992.55,1319.58 1992.84,1319.64 1993.13,1319.7 1993.42,1319.76 1993.7,1319.82 1993.99,1319.89 1994.28,1319.95 1994.57,1320.01 1994.86,1320.07 
  1995.14,1320.13 1995.43,1320.19 1995.72,1320.24 1996.01,1320.3 1996.3,1320.36 1996.58,1320.42 1996.87,1320.48 1997.16,1320.54 1997.45,1320.6 1997.73,1320.65 
  1998.02,1320.71 1998.31,1320.77 1998.6,1320.83 1998.89,1320.88 1999.17,1320.94 1999.46,1321 1999.75,1321.05 2000.04,1321.11 2000.33,1321.16 2000.61,1321.22 
  2000.9,1321.27 2001.19,1321.33 2001.48,1321.38 2001.77,1321.44 2002.05,1321.49 2002.34,1321.55 2002.63,1321.6 2002.92,1321.66 2003.2,1321.71 2003.49,1321.76 
  2003.78,1321.82 2004.07,1321.87 2004.36,1321.92 2004.64,1321.98 2004.93,1322.03 2005.22,1322.08 2005.51,1322.13 2005.8,1322.18 2006.08,1322.24 2006.37,1322.29 
  2006.66,1322.34 2006.95,1322.39 2007.23,1322.44 2007.52,1322.49 2007.81,1322.54 2008.1,1322.59 2008.39,1322.64 2008.67,1322.69 2008.96,1322.74 2009.25,1322.79 
  2009.54,1322.84 2009.83,1322.89 2010.11,1322.94 2010.4,1322.99 2010.69,1323.04 2010.98,1323.09 2011.26,1323.13 2011.55,1323.18 2011.84,1323.23 2012.13,1323.28 
  2012.42,1323.33 2012.7,1323.37 2012.99,1323.42 2013.28,1323.47 2013.57,1323.51 2013.86,1323.56 2014.14,1323.61 2014.43,1323.65 2014.72,1323.7 2015.01,1323.75 
  2015.3,1323.79 2015.58,1323.84 2015.87,1323.88 2016.16,1323.93 2016.45,1323.97 2016.73,1324.02 2017.02,1324.06 2017.31,1324.11 2017.6,1324.15 2017.89,1324.2 
  2018.17,1324.24 2018.46,1324.28 2018.75,1324.33 2019.04,1324.37 2019.33,1324.42 2019.61,1324.46 2019.9,1324.5 2020.19,1324.54 2020.48,1324.59 2020.76,1324.63 
  2021.05,1324.67 2021.34,1324.71 2021.63,1324.76 2021.92,1324.8 2022.2,1324.84 2022.49,1324.88 2022.78,1324.92 2023.07,1324.96 2023.36,1325.01 2023.64,1325.05 
  2023.93,1325.09 2024.22,1325.13 2024.51,1325.17 2024.79,1325.21 2025.08,1325.25 2025.37,1325.29 2025.66,1325.33 2025.95,1325.37 2026.23,1325.41 2026.52,1325.45 
  2026.81,1325.49 2027.1,1325.53 2027.39,1325.57 2027.67,1325.6 2027.96,1325.64 2028.25,1325.68 2028.54,1325.72 2028.83,1325.76 2029.11,1325.8 2029.4,1325.83 
  2029.69,1325.87 2029.98,1325.91 2030.26,1325.95 2030.55,1325.98 2030.84,1326.02 2031.13,1326.06 2031.42,1326.1 2031.7,1326.13 2031.99,1326.17 2032.28,1326.21 
  2032.57,1326.24 2032.86,1326.28 2033.14,1326.31 2033.43,1326.35 2033.72,1326.39 2034.01,1326.42 2034.29,1326.46 2034.58,1326.49 2034.87,1326.53 2035.16,1326.56 
  2035.45,1326.6 2035.73,1326.63 2036.02,1326.67 2036.31,1326.7 2036.6,1326.74 2036.89,1326.77 2037.17,1326.8 2037.46,1326.84 2037.75,1326.87 2038.04,1326.91 
  2038.33,1326.94 2038.61,1326.97 2038.9,1327.01 2039.19,1327.04 2039.48,1327.07 2039.76,1327.11 2040.05,1327.14 2040.34,1327.17 2040.63,1327.21 2040.92,1327.24 
  2041.2,1327.27 2041.49,1327.3 2041.78,1327.33 2042.07,1327.37 2042.36,1327.4 2042.64,1327.43 2042.93,1327.46 2043.22,1327.49 2043.51,1327.52 2043.79,1327.56 
  2044.08,1327.59 2044.37,1327.62 2044.66,1327.65 2044.95,1327.68 2045.23,1327.71 2045.52,1327.74 2045.81,1327.77 2046.1,1327.8 2046.39,1327.83 2046.67,1327.86 
  2046.96,1327.89 2047.25,1327.92 2047.54,1327.95 2047.82,1327.98 2048.11,1328.01 2048.4,1328.04 2048.69,1328.07 2048.98,1328.1 2049.26,1328.13 2049.55,1328.16 
  2049.84,1328.19 2050.13,1328.21 2050.42,1328.24 2050.7,1328.27 2050.99,1328.3 2051.28,1328.33 2051.57,1328.36 2051.86,1328.38 2052.14,1328.41 2052.43,1328.44 
  2052.72,1328.47 2053.01,1328.49 2053.29,1328.52 2053.58,1328.55 2053.87,1328.58 2054.16,1328.6 2054.45,1328.63 2054.73,1328.66 2055.02,1328.68 2055.31,1328.71 
  2055.6,1328.74 2055.89,1328.76 2056.17,1328.79 2056.46,1328.82 2056.75,1328.84 2057.04,1328.87 2057.32,1328.9 2057.61,1328.92 2057.9,1328.95 2058.19,1328.97 
  2058.48,1329 2058.76,1329.02 2059.05,1329.05 2059.34,1329.08 2059.63,1329.1 2059.92,1329.13 2060.2,1329.15 2060.49,1329.18 2060.78,1329.2 2061.07,1329.23 
  2061.36,1329.25 2061.64,1329.27 2061.93,1329.3 2062.22,1329.32 2062.51,1329.35 2062.79,1329.37 2063.08,1329.4 2063.37,1329.42 2063.66,1329.44 2063.95,1329.47 
  2064.23,1329.49 2064.52,1329.51 2064.81,1329.54 2065.1,1329.56 2065.39,1329.58 2065.67,1329.61 2065.96,1329.63 2066.25,1329.65 2066.54,1329.68 2066.82,1329.7 
  2067.11,1329.72 2067.4,1329.75 2067.69,1329.77 2067.98,1329.79 2068.26,1329.81 2068.55,1329.84 2068.84,1329.86 2069.13,1329.88 2069.42,1329.9 2069.7,1329.92 
  2069.99,1329.95 2070.28,1329.97 2070.57,1329.99 2070.85,1330.01 2071.14,1330.03 2071.43,1330.05 2071.72,1330.08 2072.01,1330.1 2072.29,1330.12 2072.58,1330.14 
  2072.87,1330.16 2073.16,1330.18 2073.45,1330.2 2073.73,1330.22 2074.02,1330.24 2074.31,1330.26 2074.6,1330.28 2074.89,1330.31 2075.17,1330.33 2075.46,1330.35 
  2075.75,1330.37 2076.04,1330.39 2076.32,1330.41 2076.61,1330.43 2076.9,1330.45 2077.19,1330.47 2077.48,1330.49 2077.76,1330.51 2078.05,1330.53 2078.34,1330.54 
  2078.63,1330.56 2078.92,1330.58 2079.2,1330.6 2079.49,1330.62 2079.78,1330.64 2080.07,1330.66 2080.35,1330.68 2080.64,1330.7 2080.93,1330.72 2081.22,1330.74 
  2081.51,1330.75 2081.79,1330.77 2082.08,1330.79 2082.37,1330.81 2082.66,1330.83 2082.95,1330.85 2083.23,1330.87 2083.52,1330.88 2083.81,1330.9 2084.1,1330.92 
  2084.38,1330.94 2084.67,1330.96 2084.96,1330.97 2085.25,1330.99 2085.54,1331.01 2085.82,1331.03 2086.11,1331.04 2086.4,1331.06 2086.69,1331.08 2086.98,1331.1 
  2087.26,1331.11 2087.55,1331.13 2087.84,1331.15 2088.13,1331.16 2088.42,1331.18 2088.7,1331.2 2088.99,1331.22 2089.28,1331.23 2089.57,1331.25 2089.85,1331.27 
  2090.14,1331.28 2090.43,1331.3 2090.72,1331.32 2091.01,1331.33 2091.29,1331.35 2091.58,1331.36 2091.87,1331.38 2092.16,1331.4 2092.45,1331.41 2092.73,1331.43 
  2093.02,1331.44 2093.31,1331.46 2093.6,1331.48 2093.88,1331.49 2094.17,1331.51 2094.46,1331.52 2094.75,1331.54 2095.04,1331.55 2095.32,1331.57 2095.61,1331.59 
  2095.9,1331.6 2096.19,1331.62 2096.48,1331.63 2096.76,1331.65 2097.05,1331.66 2097.34,1331.68 2097.63,1331.69 2097.92,1331.71 2098.2,1331.72 2098.49,1331.74 
  2098.78,1331.75 2099.07,1331.77 2099.35,1331.78 2099.64,1331.79 2099.93,1331.81 2100.22,1331.82 2100.51,1331.84 2100.79,1331.85 2101.08,1331.87 2101.37,1331.88 
  2101.66,1331.89 2101.95,1331.91 2102.23,1331.92 2102.52,1331.94 2102.81,1331.95 2103.1,1331.96 2103.38,1331.98 2103.67,1331.99 2103.96,1332.01 2104.25,1332.02 
  2104.54,1332.03 2104.82,1332.05 2105.11,1332.06 2105.4,1332.07 2105.69,1332.09 2105.98,1332.1 2106.26,1332.11 2106.55,1332.13 2106.84,1332.14 2107.13,1332.15 
  2107.41,1332.17 2107.7,1332.18 2107.99,1332.19 2108.28,1332.2 2108.57,1332.22 2108.85,1332.23 2109.14,1332.24 2109.43,1332.26 2109.72,1332.27 2110.01,1332.28 
  2110.29,1332.29 2110.58,1332.31 2110.87,1332.32 2111.16,1332.33 2111.45,1332.34 2111.73,1332.36 2112.02,1332.37 2112.31,1332.38 2112.6,1332.39 2112.88,1332.4 
  2113.17,1332.42 2113.46,1332.43 2113.75,1332.44 2114.04,1332.45 2114.32,1332.46 2114.61,1332.48 2114.9,1332.49 2115.19,1332.5 2115.48,1332.51 2115.76,1332.52 
  2116.05,1332.53 2116.34,1332.55 2116.63,1332.56 2116.91,1332.57 2117.2,1332.58 2117.49,1332.59 2117.78,1332.6 2118.07,1332.61 2118.35,1332.63 2118.64,1332.64 
  2118.93,1332.65 2119.22,1332.66 2119.51,1332.67 2119.79,1332.68 2120.08,1332.69 2120.37,1332.7 2120.66,1332.71 2120.95,1332.72 2121.23,1332.73 2121.52,1332.75 
  2121.81,1332.76 2122.1,1332.77 2122.38,1332.78 2122.67,1332.79 2122.96,1332.8 2123.25,1332.81 2123.54,1332.82 2123.82,1332.83 2124.11,1332.84 2124.4,1332.85 
  2124.69,1332.86 2124.98,1332.87 2125.26,1332.88 2125.55,1332.89 2125.84,1332.9 2126.13,1332.91 2126.41,1332.92 2126.7,1332.93 2126.99,1332.94 2127.28,1332.95 
  2127.57,1332.96 2127.85,1332.97 2128.14,1332.98 2128.43,1332.99 2128.72,1333 2129.01,1333.01 2129.29,1333.02 2129.58,1333.03 2129.87,1333.04 2130.16,1333.05 
  2130.44,1333.06 2130.73,1333.07 2131.02,1333.08 2131.31,1333.09 2131.6,1333.09 2131.88,1333.1 2132.17,1333.11 2132.46,1333.12 2132.75,1333.13 2133.04,1333.14 
  2133.32,1333.15 2133.61,1333.16 2133.9,1333.17 2134.19,1333.18 2134.48,1333.19 2134.76,1333.19 2135.05,1333.2 2135.34,1333.21 2135.63,1333.22 2135.91,1333.23 
  2136.2,1333.24 2136.49,1333.25 2136.78,1333.26 2137.07,1333.26 2137.35,1333.27 2137.64,1333.28 2137.93,1333.29 2138.22,1333.3 2138.51,1333.31 2138.79,1333.32 
  2139.08,1333.32 2139.37,1333.33 2139.66,1333.34 2139.94,1333.35 2140.23,1333.36 2140.52,1333.37 2140.81,1333.37 2141.1,1333.38 2141.38,1333.39 2141.67,1333.4 
  2141.96,1333.41 2142.25,1333.41 2142.54,1333.42 2142.82,1333.43 2143.11,1333.44 2143.4,1333.45 2143.69,1333.45 2143.97,1333.46 2144.26,1333.47 2144.55,1333.48 
  2144.84,1333.48 2145.13,1333.49 2145.41,1333.5 2145.7,1333.51 2145.99,1333.52 2146.28,1333.52 2146.57,1333.53 2146.85,1333.54 2147.14,1333.55 2147.43,1333.55 
  2147.72,1333.56 2148.01,1333.57 2148.29,1333.58 2148.58,1333.58 2148.87,1333.59 2149.16,1333.6 2149.44,1333.6 2149.73,1333.61 2150.02,1333.62 2150.31,1333.63 
  2150.6,1333.63 2150.88,1333.64 2151.17,1333.65 2151.46,1333.65 2151.75,1333.66 2152.04,1333.67 2152.32,1333.67 2152.61,1333.68 2152.9,1333.69 2153.19,1333.7 
  2153.47,1333.7 2153.76,1333.71 2154.05,1333.72 2154.34,1333.72 2154.63,1333.73 2154.91,1333.74 2155.2,1333.74 2155.49,1333.75 2155.78,1333.76 2156.07,1333.76 
  2156.35,1333.77 2156.64,1333.78 2156.93,1333.78 2157.22,1333.79 2157.51,1333.8 2157.79,1333.8 2158.08,1333.81 2158.37,1333.81 2158.66,1333.82 2158.94,1333.83 
  2159.23,1333.83 2159.52,1333.84 2159.81,1333.85 2160.1,1333.85 2160.38,1333.86 2160.67,1333.86 2160.96,1333.87 2161.25,1333.88 2161.54,1333.88 2161.82,1333.89 
  2162.11,1333.89 2162.4,1333.9 2162.69,1333.91 2162.97,1333.91 2163.26,1333.92 2163.55,1333.92 2163.84,1333.93 2164.13,1333.94 2164.41,1333.94 2164.7,1333.95 
  2164.99,1333.95 2165.28,1333.96 2165.57,1333.97 2165.85,1333.97 2166.14,1333.98 2166.43,1333.98 2166.72,1333.99 2167,1333.99 2167.29,1334 2167.58,1334.01 
  2167.87,1334.01 2168.16,1334.02 2168.44,1334.02 2168.73,1334.03 2169.02,1334.03 2169.31,1334.04 2169.6,1334.04 2169.88,1334.05 2170.17,1334.05 2170.46,1334.06 
  2170.75,1334.07 2171.04,1334.07 2171.32,1334.08 2171.61,1334.08 2171.9,1334.09 2172.19,1334.09 2172.47,1334.1 2172.76,1334.1 2173.05,1334.11 2173.34,1334.11 
  2173.63,1334.12 2173.91,1334.12 2174.2,1334.13 2174.49,1334.13 2174.78,1334.14 2175.07,1334.14 2175.35,1334.15 2175.64,1334.15 2175.93,1334.16 2176.22,1334.16 
  2176.5,1334.17 2176.79,1334.17 2177.08,1334.18 2177.37,1334.18 2177.66,1334.19 2177.94,1334.19 2178.23,1334.2 2178.52,1334.2 2178.81,1334.21 2179.1,1334.21 
  2179.38,1334.22 2179.67,1334.22 2179.96,1334.23 2180.25,1334.23 2180.54,1334.23 2180.82,1334.24 2181.11,1334.24 2181.4,1334.25 2181.69,1334.25 2181.97,1334.26 
  2182.26,1334.26 2182.55,1334.27 2182.84,1334.27 2183.13,1334.28 2183.41,1334.28 2183.7,1334.28 2183.99,1334.29 2184.28,1334.29 2184.57,1334.3 2184.85,1334.3 
  2185.14,1334.31 2185.43,1334.31 2185.72,1334.31 2186,1334.32 2186.29,1334.32 2186.58,1334.33 2186.87,1334.33 2187.16,1334.34 2187.44,1334.34 2187.73,1334.34 
  2188.02,1334.35 2188.31,1334.35 2188.6,1334.36 2188.88,1334.36 2189.17,1334.37 2189.46,1334.37 2189.75,1334.37 2190.03,1334.38 2190.32,1334.38 2190.61,1334.39 
  2190.9,1334.39 2191.19,1334.39 2191.47,1334.4 2191.76,1334.4 2192.05,1334.41 2192.34,1334.41 2192.63,1334.41 2192.91,1334.42 2193.2,1334.42 2193.49,1334.42 
  2193.78,1334.43 2194.07,1334.43 2194.35,1334.44 2194.64,1334.44 2194.93,1334.44 2195.22,1334.45 2195.5,1334.45 2195.79,1334.46 2196.08,1334.46 2196.37,1334.46 
  2196.66,1334.47 2196.94,1334.47 2197.23,1334.47 2197.52,1334.48 2197.81,1334.48 2198.1,1334.48 2198.38,1334.49 2198.67,1334.49 2198.96,1334.5 2199.25,1334.5 
  2199.53,1334.5 2199.82,1334.51 2200.11,1334.51 2200.4,1334.51 2200.69,1334.52 2200.97,1334.52 2201.26,1334.52 2201.55,1334.53 2201.84,1334.53 2202.13,1334.53 
  2202.41,1334.54 2202.7,1334.54 2202.99,1334.54 2203.28,1334.55 2203.56,1334.55 2203.85,1334.55 2204.14,1334.56 2204.43,1334.56 2204.72,1334.56 2205,1334.57 
  2205.29,1334.57 2205.58,1334.57 2205.87,1334.58 2206.16,1334.58 2206.44,1334.58 2206.73,1334.59 2207.02,1334.59 2207.31,1334.59 2207.6,1334.6 2207.88,1334.6 
  2208.17,1334.6 2208.46,1334.61 2208.75,1334.61 2209.03,1334.61 2209.32,1334.61 2209.61,1334.62 2209.9,1334.62 2210.19,1334.62 2210.47,1334.63 2210.76,1334.63 
  2211.05,1334.63 2211.34,1334.64 2211.63,1334.64 2211.91,1334.64 2212.2,1334.64 2212.49,1334.65 2212.78,1334.65 2213.06,1334.65 2213.35,1334.66 2213.64,1334.66 
  2213.93,1334.66 2214.22,1334.66 2214.5,1334.67 2214.79,1334.67 2215.08,1334.67 2215.37,1334.68 2215.66,1334.68 2215.94,1334.68 2216.23,1334.68 2216.52,1334.69 
  2216.81,1334.69 2217.1,1334.69 2217.38,1334.7 2217.67,1334.7 2217.96,1334.7 2218.25,1334.7 2218.53,1334.71 2218.82,1334.71 2219.11,1334.71 2219.4,1334.71 
  2219.69,1334.72 2219.97,1334.72 2220.26,1334.72 2220.55,1334.72 2220.84,1334.73 2221.13,1334.73 2221.41,1334.73 2221.7,1334.74 2221.99,1334.74 2222.28,1334.74 
  2222.56,1334.74 2222.85,1334.75 2223.14,1334.75 2223.43,1334.75 2223.72,1334.75 2224,1334.76 2224.29,1334.76 2224.58,1334.76 2224.87,1334.76 2225.16,1334.77 
  2225.44,1334.77 2225.73,1334.77 2226.02,1334.77 2226.31,1334.77 2226.59,1334.78 2226.88,1334.78 2227.17,1334.78 2227.46,1334.78 2227.75,1334.79 2228.03,1334.79 
  2228.32,1334.79 2228.61,1334.79 2228.9,1334.8 2229.19,1334.8 2229.47,1334.8 2229.76,1334.8 2230.05,1334.81 2230.34,1334.81 2230.63,1334.81 2230.91,1334.81 
  2231.2,1334.81 2231.49,1334.82 2231.78,1334.82 2232.06,1334.82 2232.35,1334.82 2232.64,1334.83 2232.93,1334.83 2233.22,1334.83 2233.5,1334.83 2233.79,1334.83 
  2234.08,1334.84 2234.37,1334.84 2234.66,1334.84 2234.94,1334.84 2235.23,1334.84 2235.52,1334.85 2235.81,1334.85 2236.09,1334.85 2236.38,1334.85 2236.67,1334.85 
  2236.96,1334.86 2237.25,1334.86 2237.53,1334.86 2237.82,1334.86 2238.11,1334.87 2238.4,1334.87 2238.69,1334.87 2238.97,1334.87 2239.26,1334.87 2239.55,1334.88 
  2239.84,1334.88 2240.13,1334.88 2240.41,1334.88 2240.7,1334.88 2240.99,1334.88 2241.28,1334.89 2241.56,1334.89 2241.85,1334.89 2242.14,1334.89 2242.43,1334.89 
  2242.72,1334.9 2243,1334.9 2243.29,1334.9 2243.58,1334.9 2243.87,1334.9 2244.16,1334.91 2244.44,1334.91 2244.73,1334.91 2245.02,1334.91 2245.31,1334.91 
  2245.59,1334.91 2245.88,1334.92 2246.17,1334.92 2246.46,1334.92 2246.75,1334.92 2247.03,1334.92 2247.32,1334.93 2247.61,1334.93 2247.9,1334.93 2248.19,1334.93 
  2248.47,1334.93 2248.76,1334.93 2249.05,1334.94 2249.34,1334.94 2249.62,1334.94 2249.91,1334.94 2250.2,1334.94 2250.49,1334.94 2250.78,1334.95 2251.06,1334.95 
  2251.35,1334.95 2251.64,1334.95 2251.93,1334.95 2252.22,1334.95 2252.5,1334.96 2252.79,1334.96 2253.08,1334.96 2253.37,1334.96 2253.66,1334.96 2253.94,1334.96 
  2254.23,1334.97 2254.52,1334.97 2254.81,1334.97 2255.09,1334.97 2255.38,1334.97 2255.67,1334.97 2255.96,1334.98 2256.25,1334.98 2256.53,1334.98 2256.82,1334.98 
  2257.11,1334.98 2257.4,1334.98 2257.69,1334.98 2257.97,1334.99 2258.26,1334.99 2258.55,1334.99 2258.84,1334.99 2259.12,1334.99 2259.41,1334.99 2259.7,1334.99 
  2259.99,1335 2260.28,1335 2260.56,1335 2260.85,1335 2261.14,1335 2261.43,1335 2261.72,1335.01 2262,1335.01 2262.29,1335.01 2262.58,1335.01 
  2262.87,1335.01 2263.15,1335.01 2263.44,1335.01 2263.73,1335.01 2264.02,1335.02 2264.31,1335.02 2264.59,1335.02 2264.88,1335.02 2265.17,1335.02 2265.46,1335.02 
  2265.75,1335.02 2266.03,1335.03 2266.32,1335.03 2266.61,1335.03 2266.9,1335.03 2267.19,1335.03 2267.47,1335.03 2267.76,1335.03 2268.05,1335.04 2268.34,1335.04 
  2268.62,1335.04 2268.91,1335.04 2269.2,1335.04 2269.49,1335.04 2269.78,1335.04 2270.06,1335.04 2270.35,1335.05 2270.64,1335.05 2270.93,1335.05 2271.22,1335.05 
  2271.5,1335.05 2271.79,1335.05 2272.08,1335.05 2272.37,1335.05 2272.65,1335.06 2272.94,1335.06 2273.23,1335.06 2273.52,1335.06 2273.81,1335.06 2274.09,1335.06 
  2274.38,1335.06 2274.67,1335.06 2274.96,1335.06 2275.25,1335.07 2275.53,1335.07 2275.82,1335.07 2276.11,1335.07 2276.4,1335.07 2276.69,1335.07 2276.97,1335.07 
  2277.26,1335.07 2277.55,1335.08 2277.84,1335.08 2278.12,1335.08 2278.41,1335.08 2278.7,1335.08 2278.99,1335.08 2279.28,1335.08 2279.56,1335.08 2279.85,1335.08 
  2280.14,1335.09 2280.43,1335.09 2280.72,1335.09 2281,1335.09 2281.29,1335.09 2281.58,1335.09 2281.87,1335.09 2282.15,1335.09 2282.44,1335.09 2282.73,1335.09 
  2283.02,1335.1 2283.31,1335.1 2283.59,1335.1 2283.88,1335.1 2284.17,1335.1 2284.46,1335.1 2284.75,1335.1 2285.03,1335.1 2285.32,1335.1 2285.61,1335.11 
  2285.9,1335.11 2286.18,1335.11 2286.47,1335.11 2286.76,1335.11 2287.05,1335.11 2287.34,1335.11 2287.62,1335.11 2287.91,1335.11 2288.2,1335.11 2288.49,1335.12 
  2288.78,1335.12 2289.06,1335.12 2289.35,1335.12 2289.64,1335.12 2289.93,1335.12 2290.22,1335.12 2290.5,1335.12 2290.79,1335.12 2291.08,1335.12 2291.37,1335.12 
  2291.65,1335.13 2291.94,1335.13 2292.23,1335.13 2292.52,1335.13 2292.81,1335.13 2293.09,1335.13 2293.38,1335.13 2293.67,1335.13 2293.96,1335.13 2294.25,1335.13 
  2294.53,1335.13 2294.82,1335.14 2295.11,1335.14 2295.4,1335.14 2295.68,1335.14 2295.97,1335.14 2296.26,1335.14 2296.55,1335.14 2296.84,1335.14 2297.12,1335.14 
  2297.41,1335.14 2297.7,1335.14 2297.99,1335.14 2298.28,1335.15 2298.56,1335.15 2298.85,1335.15 2299.14,1335.15 2299.43,1335.15 2299.72,1335.15 2300,1335.15 
  2300.29,1335.15 2300.58,1335.15 2300.87,1335.15 2301.15,1335.15 2301.44,1335.15 2301.73,1335.16 2302.02,1335.16 2302.31,1335.16 2302.59,1335.16 2302.88,1335.16 
  2303.17,1335.16 2303.46,1335.16 2303.75,1335.16 2304.03,1335.16 2304.32,1335.16 2304.61,1335.16 2304.9,1335.16 2305.18,1335.16 2305.47,1335.17 2305.76,1335.17 
  2306.05,1335.17 2306.34,1335.17 2306.62,1335.17 2306.91,1335.17 2307.2,1335.17 2307.49,1335.17 2307.78,1335.17 2308.06,1335.17 2308.35,1335.17 2308.64,1335.17 
  2308.93,1335.17 2309.21,1335.17 2309.5,1335.18 2309.79,1335.18 2310.08,1335.18 2310.37,1335.18 2310.65,1335.18 2310.94,1335.18 2311.23,1335.18 2311.52,1335.18 
  2311.81,1335.18 2312.09,1335.18 2312.38,1335.18 2312.67,1335.18 2312.96,1335.18 2313.25,1335.18 2313.53,1335.19 2313.82,1335.19 2314.11,1335.19 2314.4,1335.19 
  2314.68,1335.19 2314.97,1335.19 2315.26,1335.19 2315.55,1335.19 2315.84,1335.19 2316.12,1335.19 2316.41,1335.19 2316.7,1335.19 2316.99,1335.19 2317.28,1335.19 
  2317.56,1335.19 2317.85,1335.19 2318.14,1335.2 2318.43,1335.2 2318.71,1335.2 2319,1335.2 2319.29,1335.2 2319.58,1335.2 2319.87,1335.2 2320.15,1335.2 
  2320.44,1335.2 2320.73,1335.2 2321.02,1335.2 2321.31,1335.2 2321.59,1335.2 2321.88,1335.2 2322.17,1335.2 2322.46,1335.2 2322.74,1335.21 2323.03,1335.21 
  2323.32,1335.21 2323.61,1335.21 2323.9,1335.21 2324.18,1335.21 2324.47,1335.21 2324.76,1335.21 2325.05,1335.21 2325.34,1335.21 2325.62,1335.21 2325.91,1335.21 
  2326.2,1335.21 
  "/>
</svg>
