<?xml version="1.0" encoding="UTF-8"?>
<svg  preserveAspectRatio='none' xmlns="http://www.w3.org/2000/svg" xmlns:xlink="http://www.w3.org/1999/xlink" width="360pt" height="220pt" viewBox="0 0 360 220" version="1.1">
<!-- ***Exported Comment***
Created by Mathematica
***Exported Comment*** -->
<g id="surface288">
<path style=" stroke:none;fill-rule:evenodd;fill:rgb(96.859741%,92.546082%,88.624573%);fill-opacity:1;" d="M 0 220 L 360 220 L 360 0 L 0 0 Z M 0 220 "/>
<path style="fill:none;stroke-width:0.03;stroke-linecap:square;stroke-linejoin:miter;stroke:rgb(96.859741%,92.546082%,88.624573%);stroke-opacity:1;stroke-miterlimit:10;" d="M 74 13 L 434 13 L 434 233 L 74 233 Z M 74 13 " transform="matrix(1,0,0,1,-74,-13)"/>
<path style="fill:none;stroke-width:0.2;stroke-linecap:square;stroke-linejoin:miter;stroke:rgb(36.84082%,50.675964%,70.977783%);stroke-opacity:0.65;stroke-miterlimit:3.25;" d="M 273.59375 211.964844 L 273.59375 201.800781 L 273.59375 211.964844 L 273.59375 201.800781 L 273.59375 211.964844 L 273.59375 201.800781 L 273.59375 222.125 L 308.671875 222.125 L 308.671875 211.964844 L 326.207031 211.964844 L 326.207031 201.800781 L 308.671875 201.800781 L 308.671875 211.964844 L 291.132812 211.964844 L 308.671875 211.964844 L 308.671875 222.125 L 343.746094 222.125 L 343.746094 211.964844 L 326.207031 211.964844 L 326.207031 201.800781 L 343.746094 201.800781 L 343.746094 181.480469 L 396.359375 181.480469 L 378.820312 181.480469 L 396.359375 181.480469 L 396.359375 171.316406 L 361.285156 171.316406 L 378.820312 171.316406 L 378.820312 161.15625 L 378.820312 171.316406 L 326.207031 171.316406 L 343.746094 171.316406 L 308.671875 171.316406 L 326.207031 171.316406 L 326.207031 161.15625 L 291.132812 161.15625 L 291.132812 181.480469 L 273.59375 181.480469 L 273.59375 171.316406 L 273.59375 181.480469 L 291.132812 181.480469 L 291.132812 191.640625 L 273.59375 191.640625 L 273.59375 201.800781 L 273.59375 191.640625 L 256.054688 191.640625 L 256.054688 201.800781 L 220.980469 201.800781 L 220.980469 222.125 L 220.980469 211.964844 L 203.441406 211.964844 L 203.441406 201.800781 L 238.519531 201.800781 L 238.519531 211.964844 L 238.519531 201.800781 L 220.980469 201.800781 L 238.519531 201.800781 L 220.980469 201.800781 L 220.980469 211.964844 L 203.441406 211.964844 L 203.441406 201.800781 L 238.519531 201.800781 L 220.980469 201.800781 L 238.519531 201.800781 L 238.519531 191.640625 L 185.90625 191.640625 L 185.90625 181.480469 L 185.90625 191.640625 L 185.90625 171.316406 L 168.367188 171.316406 L 185.90625 171.316406 L 185.90625 181.480469 L 185.90625 161.15625 L 185.90625 171.316406 L 185.90625 161.15625 L 220.980469 161.15625 L 185.90625 161.15625 L 203.441406 161.15625 L 203.441406 171.316406 L 203.441406 161.15625 L 203.441406 171.316406 L 220.980469 171.316406 L 220.980469 161.15625 L 220.980469 171.316406 L 256.054688 171.316406 L 256.054688 181.480469 L 256.054688 171.316406 L 238.519531 171.316406 L 256.054688 171.316406 L 185.90625 171.316406 L 185.90625 161.15625 L 185.90625 181.480469 L 273.59375 181.480469 L 273.59375 191.640625 L 238.519531 191.640625 L 256.054688 191.640625 L 256.054688 181.480469 L 291.132812 181.480469 L 273.59375 181.480469 L 273.59375 191.640625 L 273.59375 181.480469 L 273.59375 191.640625 L 273.59375 181.480469 L 308.671875 181.480469 L 308.671875 191.640625 L 308.671875 171.316406 L 291.132812 171.316406 L 291.132812 150.992188 L 291.132812 161.15625 L 273.59375 161.15625 L 291.132812 161.15625 L 256.054688 161.15625 L 308.671875 161.15625 L 308.671875 150.992188 L 291.132812 150.992188 L 291.132812 140.832031 L 291.132812 161.15625 L 291.132812 130.671875 L 308.671875 130.671875 L 308.671875 120.507812 L 291.132812 120.507812 L 291.132812 130.671875 L 273.59375 130.671875 L 291.132812 130.671875 L 291.132812 140.832031 L 273.59375 140.832031 L 273.59375 150.992188 L 291.132812 150.992188 L 273.59375 150.992188 L 273.59375 161.15625 L 273.59375 120.507812 L 220.980469 120.507812 L 220.980469 100.1875 L 203.441406 100.1875 L 238.519531 100.1875 L 220.980469 100.1875 L 220.980469 120.507812 L 220.980469 110.347656 L 238.519531 110.347656 L 220.980469 110.347656 L 220.980469 100.1875 L 203.441406 100.1875 L 203.441406 120.507812 L 203.441406 110.347656 L 185.90625 110.347656 L 185.90625 90.023438 L 203.441406 90.023438 L 203.441406 110.347656 L 203.441406 100.1875 L 203.441406 110.347656 L 220.980469 110.347656 L 220.980469 90.023438 L 185.90625 90.023438 L 203.441406 90.023438 L 185.90625 90.023438 L 220.980469 90.023438 L 203.441406 90.023438 L 220.980469 90.023438 L 220.980469 79.863281 L 220.980469 90.023438 L 291.132812 90.023438 L 273.59375 90.023438 L 273.59375 100.1875 L 291.132812 100.1875 L 291.132812 69.699219 L 308.671875 69.699219 L 308.671875 79.863281 L 326.207031 79.863281 L 308.671875 79.863281 L 343.746094 79.863281 L 343.746094 69.699219 L 343.746094 79.863281 L 291.132812 79.863281 L 291.132812 69.699219 L 273.59375 69.699219 L 273.59375 59.539062 L 273.59375 69.699219 L 256.054688 69.699219 L 291.132812 69.699219 L 291.132812 49.378906 L 308.671875 49.378906 L 291.132812 49.378906 L 291.132812 69.699219 L 378.820312 69.699219 L 378.820312 59.539062 L 361.285156 59.539062 L 361.285156 69.699219 L 343.746094 69.699219 L 361.285156 69.699219 L 361.285156 79.863281 L 326.207031 79.863281 L 361.285156 79.863281 L 361.285156 90.023438 L 361.285156 79.863281 L 361.285156 90.023438 L 378.820312 90.023438 L 378.820312 100.1875 L 361.285156 100.1875 L 361.285156 110.347656 L 361.285156 100.1875 L 378.820312 100.1875 L 378.820312 90.023438 L 378.820312 100.1875 L 361.285156 100.1875 L 361.285156 90.023438 L 361.285156 100.1875 L 378.820312 100.1875 L 361.285156 100.1875 L 361.285156 90.023438 L 361.285156 100.1875 L 378.820312 100.1875 L 378.820312 110.347656 L 378.820312 100.1875 L 396.359375 100.1875 L 378.820312 100.1875 L 396.359375 100.1875 L 378.820312 100.1875 L 378.820312 110.347656 L 361.285156 110.347656 L 378.820312 110.347656 L 361.285156 110.347656 L 396.359375 110.347656 L 396.359375 120.507812 L 361.285156 120.507812 L 361.285156 150.992188 L 361.285156 140.832031 L 361.285156 150.992188 L 343.746094 150.992188 L 343.746094 140.832031 L 378.820312 140.832031 L 378.820312 150.992188 L 378.820312 140.832031 L 378.820312 150.992188 L 361.285156 150.992188 L 378.820312 150.992188 L 378.820312 140.832031 L 378.820312 150.992188 L 378.820312 140.832031 L 343.746094 140.832031 L 343.746094 130.671875 L 343.746094 150.992188 L 361.285156 150.992188 L 361.285156 161.15625 L 361.285156 150.992188 L 378.820312 150.992188 L 361.285156 150.992188 L 361.285156 140.832031 L 378.820312 140.832031 L 343.746094 140.832031 L 343.746094 130.671875 L 361.285156 130.671875 L 361.285156 100.1875 L 343.746094 100.1875 L 343.746094 90.023438 L 343.746094 100.1875 L 343.746094 79.863281 L 343.746094 90.023438 L 291.132812 90.023438 L 291.132812 100.1875 L 326.207031 100.1875 L 308.671875 100.1875 L 308.671875 90.023438 L 291.132812 90.023438 L 291.132812 100.1875 L 273.59375 100.1875 L 273.59375 90.023438 L 273.59375 100.1875 L 256.054688 100.1875 L 273.59375 100.1875 L 220.980469 100.1875 L 220.980469 120.507812 L 220.980469 110.347656 L 220.980469 130.671875 L 220.980469 120.507812 L 256.054688 120.507812 L 256.054688 90.023438 L 220.980469 90.023438 L 220.980469 79.863281 L 238.519531 79.863281 L 238.519531 100.1875 L 256.054688 100.1875 L 256.054688 90.023438 L 256.054688 100.1875 L 273.59375 100.1875 L 273.59375 110.347656 L 256.054688 110.347656 L 256.054688 100.1875 L 273.59375 100.1875 L 256.054688 100.1875 L 256.054688 90.023438 L 256.054688 100.1875 L 308.671875 100.1875 L 291.132812 100.1875 L 291.132812 90.023438 L 273.59375 90.023438 L 273.59375 100.1875 L 256.054688 100.1875 L 256.054688 90.023438 L 238.519531 90.023438 L 256.054688 90.023438 L 256.054688 100.1875 L 256.054688 90.023438 L 291.132812 90.023438 L 273.59375 90.023438 L 273.59375 79.863281 L 273.59375 90.023438 L 291.132812 90.023438 L 291.132812 79.863281 L 291.132812 90.023438 L 273.59375 90.023438 L 273.59375 100.1875 L 291.132812 100.1875 L 273.59375 100.1875 L 291.132812 100.1875 L 291.132812 90.023438 L 238.519531 90.023438 L 238.519531 100.1875 L 238.519531 90.023438 L 238.519531 100.1875 L 238.519531 90.023438 L 256.054688 90.023438 L 238.519531 90.023438 L 238.519531 79.863281 L 220.980469 79.863281 L 220.980469 90.023438 L 256.054688 90.023438 L 256.054688 100.1875 L 238.519531 100.1875 L 256.054688 100.1875 L 256.054688 110.347656 L 256.054688 100.1875 L 220.980469 100.1875 L 220.980469 90.023438 L 238.519531 90.023438 L 203.441406 90.023438 L 203.441406 79.863281 L 203.441406 90.023438 L 185.90625 90.023438 L 185.90625 79.863281 L 185.90625 90.023438 L 168.367188 90.023438 L 185.90625 90.023438 L 133.289062 90.023438 L 133.289062 79.863281 L 150.828125 79.863281 L 150.828125 90.023438 L 150.828125 69.699219 L 150.828125 90.023438 L 185.90625 90.023438 L 185.90625 100.1875 L 185.90625 79.863281 L 203.441406 79.863281 L 203.441406 100.1875 L 185.90625 100.1875 L 203.441406 100.1875 L 203.441406 69.699219 L 185.90625 69.699219 L 203.441406 69.699219 L 203.441406 79.863281 L 220.980469 79.863281 L 220.980469 69.699219 L 238.519531 69.699219 L 238.519531 79.863281 L 238.519531 49.378906 L 256.054688 49.378906 L 238.519531 49.378906 L 238.519531 59.539062 L 185.90625 59.539062 L 185.90625 69.699219 L 185.90625 39.214844 L 185.90625 59.539062 L 133.289062 59.539062 L 133.289062 79.863281 L 80.675781 79.863281 L 80.675781 90.023438 L 80.675781 79.863281 " transform="matrix(1,0,0,1,-74,-13)"/>
<path style="fill:none;stroke-width:0.5;stroke-linecap:butt;stroke-linejoin:miter;stroke:rgb(0%,0%,0%);stroke-opacity:0.65;stroke-miterlimit:3.25;" d="M 80.675781 211.964844 L 80.675781 209.628906 " transform="matrix(1,0,0,1,-74,-13)"/>
<path style="fill:none;stroke-width:0.5;stroke-linecap:butt;stroke-linejoin:miter;stroke:rgb(0%,0%,0%);stroke-opacity:0.65;stroke-miterlimit:3.25;" d="M 98.214844 211.964844 L 98.214844 208.070312 " transform="matrix(1,0,0,1,-74,-13)"/>
<path style=" stroke:none;fill-rule:evenodd;fill:rgb(0%,0%,0%);fill-opacity:0.65;" d="M 21.382812 208.132812 L 17.121094 208.132812 L 17.121094 207.394531 L 21.382812 207.394531 Z M 21.382812 208.132812 "/>
<path style=" stroke:none;fill-rule:evenodd;fill:rgb(0%,0%,0%);fill-opacity:0.65;" d="M 25.410156 210.109375 L 24.175781 210.109375 L 24.175781 205.445312 C 23.726562 205.867188 23.191406 206.179688 22.582031 206.382812 L 22.582031 205.257812 C 22.902344 205.15625 23.253906 204.953125 23.632812 204.660156 C 24.011719 204.363281 24.269531 204.019531 24.410156 203.625 L 25.410156 203.625 Z M 29.285156 203.59375 C 29.910156 203.59375 30.394531 203.816406 30.746094 204.265625 C 31.164062 204.796875 31.375 205.671875 31.375 206.902344 C 31.375 208.125 31.164062 209.003906 30.742188 209.539062 C 30.394531 209.980469 29.910156 210.203125 29.285156 210.203125 C 28.660156 210.203125 28.15625 209.960938 27.773438 209.476562 C 27.390625 208.992188 27.199219 208.128906 27.199219 206.886719 C 27.199219 205.667969 27.410156 204.792969 27.832031 204.257812 C 28.179688 203.816406 28.664062 203.59375 29.285156 203.59375 Z M 29.285156 204.621094 C 29.136719 204.621094 29.007812 204.667969 28.890625 204.765625 C 28.773438 204.859375 28.683594 205.03125 28.617188 205.28125 C 28.535156 205.601562 28.492188 206.140625 28.492188 206.902344 C 28.492188 207.660156 28.53125 208.183594 28.605469 208.46875 C 28.679688 208.75 28.777344 208.941406 28.890625 209.035156 C 29.007812 209.128906 29.136719 209.175781 29.285156 209.175781 C 29.433594 209.175781 29.566406 209.125 29.683594 209.03125 C 29.800781 208.9375 29.890625 208.765625 29.953125 208.515625 C 30.039062 208.199219 30.082031 207.660156 30.082031 206.902344 C 30.082031 206.140625 30.042969 205.617188 29.96875 205.335938 C 29.890625 205.050781 29.796875 204.859375 29.679688 204.765625 C 29.566406 204.667969 29.433594 204.621094 29.285156 204.621094 Z M 29.285156 204.621094 "/>
<path style="fill:none;stroke-width:0.5;stroke-linecap:butt;stroke-linejoin:miter;stroke:rgb(0%,0%,0%);stroke-opacity:0.65;stroke-miterlimit:3.25;" d="M 115.753906 211.964844 L 115.753906 209.628906 " transform="matrix(1,0,0,1,-74,-13)"/>
<path style="fill:none;stroke-width:0.5;stroke-linecap:butt;stroke-linejoin:miter;stroke:rgb(0%,0%,0%);stroke-opacity:0.65;stroke-miterlimit:3.25;" d="M 133.289062 211.964844 L 133.289062 209.628906 " transform="matrix(1,0,0,1,-74,-13)"/>
<path style="fill:none;stroke-width:0.5;stroke-linecap:butt;stroke-linejoin:miter;stroke:rgb(0%,0%,0%);stroke-opacity:0.65;stroke-miterlimit:3.25;" d="M 150.828125 211.964844 L 150.828125 209.628906 " transform="matrix(1,0,0,1,-74,-13)"/>
<path style="fill:none;stroke-width:0.5;stroke-linecap:butt;stroke-linejoin:miter;stroke:rgb(0%,0%,0%);stroke-opacity:0.65;stroke-miterlimit:3.25;" d="M 168.367188 211.964844 L 168.367188 209.628906 " transform="matrix(1,0,0,1,-74,-13)"/>
<path style="fill:none;stroke-width:0.5;stroke-linecap:butt;stroke-linejoin:miter;stroke:rgb(0%,0%,0%);stroke-opacity:0.65;stroke-miterlimit:3.25;" d="M 185.90625 211.964844 L 185.90625 208.070312 " transform="matrix(1,0,0,1,-74,-13)"/>
<path style=" stroke:none;fill-rule:evenodd;fill:rgb(0%,0%,0%);fill-opacity:0.65;" d="M 111.574219 208.132812 L 107.3125 208.132812 L 107.3125 207.394531 L 111.574219 207.394531 Z M 111.574219 208.132812 "/>
<path style=" stroke:none;fill-rule:evenodd;fill:rgb(0%,0%,0%);fill-opacity:0.65;" d="M 112.386719 208.4375 L 113.617188 208.3125 C 113.652344 208.585938 113.753906 208.804688 113.929688 208.96875 C 114.101562 209.128906 114.300781 209.210938 114.527344 209.210938 C 114.785156 209.210938 115 209.105469 115.179688 208.898438 C 115.359375 208.691406 115.449219 208.375 115.449219 207.957031 C 115.449219 207.5625 115.359375 207.269531 115.183594 207.074219 C 115.003906 206.875 114.773438 206.777344 114.492188 206.777344 C 114.136719 206.777344 113.816406 206.933594 113.535156 207.246094 L 112.535156 207.101562 L 113.167969 203.722656 L 116.441406 203.722656 L 116.441406 204.878906 L 114.105469 204.878906 L 113.910156 205.996094 C 114.1875 205.859375 114.46875 205.792969 114.753906 205.792969 C 115.300781 205.792969 115.765625 205.988281 116.148438 206.386719 C 116.527344 206.785156 116.71875 207.300781 116.71875 207.933594 C 116.71875 208.464844 116.566406 208.933594 116.257812 209.351562 C 115.839844 209.917969 115.257812 210.203125 114.511719 210.203125 C 113.917969 210.203125 113.433594 210.042969 113.058594 209.722656 C 112.683594 209.40625 112.460938 208.976562 112.386719 208.4375 Z M 112.386719 208.4375 "/>
<path style="fill:none;stroke-width:0.5;stroke-linecap:butt;stroke-linejoin:miter;stroke:rgb(0%,0%,0%);stroke-opacity:0.65;stroke-miterlimit:3.25;" d="M 203.441406 211.964844 L 203.441406 209.628906 " transform="matrix(1,0,0,1,-74,-13)"/>
<path style="fill:none;stroke-width:0.5;stroke-linecap:butt;stroke-linejoin:miter;stroke:rgb(0%,0%,0%);stroke-opacity:0.65;stroke-miterlimit:3.25;" d="M 220.980469 211.964844 L 220.980469 209.628906 " transform="matrix(1,0,0,1,-74,-13)"/>
<path style="fill:none;stroke-width:0.5;stroke-linecap:butt;stroke-linejoin:miter;stroke:rgb(0%,0%,0%);stroke-opacity:0.65;stroke-miterlimit:3.25;" d="M 238.519531 211.964844 L 238.519531 209.628906 " transform="matrix(1,0,0,1,-74,-13)"/>
<path style="fill:none;stroke-width:0.5;stroke-linecap:butt;stroke-linejoin:miter;stroke:rgb(0%,0%,0%);stroke-opacity:0.65;stroke-miterlimit:3.25;" d="M 256.054688 211.964844 L 256.054688 209.628906 " transform="matrix(1,0,0,1,-74,-13)"/>
<path style="fill:none;stroke-width:0.5;stroke-linecap:butt;stroke-linejoin:miter;stroke:rgb(0%,0%,0%);stroke-opacity:0.65;stroke-miterlimit:3.25;" d="M 273.59375 211.964844 L 273.59375 208.070312 " transform="matrix(1,0,0,1,-74,-13)"/>
<path style="fill:none;stroke-width:0.5;stroke-linecap:butt;stroke-linejoin:miter;stroke:rgb(0%,0%,0%);stroke-opacity:0.65;stroke-miterlimit:3.25;" d="M 291.132812 211.964844 L 291.132812 209.628906 " transform="matrix(1,0,0,1,-74,-13)"/>
<path style="fill:none;stroke-width:0.5;stroke-linecap:butt;stroke-linejoin:miter;stroke:rgb(0%,0%,0%);stroke-opacity:0.65;stroke-miterlimit:3.25;" d="M 308.671875 211.964844 L 308.671875 209.628906 " transform="matrix(1,0,0,1,-74,-13)"/>
<path style="fill:none;stroke-width:0.5;stroke-linecap:butt;stroke-linejoin:miter;stroke:rgb(0%,0%,0%);stroke-opacity:0.65;stroke-miterlimit:3.25;" d="M 326.207031 211.964844 L 326.207031 209.628906 " transform="matrix(1,0,0,1,-74,-13)"/>
<path style="fill:none;stroke-width:0.5;stroke-linecap:butt;stroke-linejoin:miter;stroke:rgb(0%,0%,0%);stroke-opacity:0.65;stroke-miterlimit:3.25;" d="M 343.746094 211.964844 L 343.746094 209.628906 " transform="matrix(1,0,0,1,-74,-13)"/>
<path style="fill:none;stroke-width:0.5;stroke-linecap:butt;stroke-linejoin:miter;stroke:rgb(0%,0%,0%);stroke-opacity:0.65;stroke-miterlimit:3.25;" d="M 361.285156 211.964844 L 361.285156 208.070312 " transform="matrix(1,0,0,1,-74,-13)"/>
<path style=" stroke:none;fill-rule:evenodd;fill:rgb(0%,0%,0%);fill-opacity:0.65;" d="M 285.136719 208.4375 L 286.367188 208.3125 C 286.402344 208.585938 286.507812 208.804688 286.679688 208.96875 C 286.851562 209.128906 287.050781 209.210938 287.277344 209.210938 C 287.535156 209.210938 287.753906 209.105469 287.933594 208.898438 C 288.113281 208.691406 288.203125 208.375 288.203125 207.957031 C 288.203125 207.5625 288.113281 207.269531 287.933594 207.074219 C 287.757812 206.875 287.527344 206.777344 287.242188 206.777344 C 286.886719 206.777344 286.570312 206.933594 286.289062 207.246094 L 285.289062 207.101562 L 285.921875 203.722656 L 289.191406 203.722656 L 289.191406 204.878906 L 286.855469 204.878906 L 286.664062 205.996094 C 286.9375 205.859375 287.21875 205.792969 287.507812 205.792969 C 288.054688 205.792969 288.519531 205.988281 288.898438 206.386719 C 289.28125 206.785156 289.472656 207.300781 289.472656 207.933594 C 289.472656 208.464844 289.316406 208.933594 289.011719 209.351562 C 288.589844 209.917969 288.007812 210.203125 287.265625 210.203125 C 286.671875 210.203125 286.1875 210.042969 285.8125 209.722656 C 285.4375 209.40625 285.210938 208.976562 285.136719 208.4375 Z M 285.136719 208.4375 "/>
<path style="fill:none;stroke-width:0.5;stroke-linecap:butt;stroke-linejoin:miter;stroke:rgb(0%,0%,0%);stroke-opacity:0.65;stroke-miterlimit:3.25;" d="M 378.820312 211.964844 L 378.820312 209.628906 " transform="matrix(1,0,0,1,-74,-13)"/>
<path style="fill:none;stroke-width:0.5;stroke-linecap:butt;stroke-linejoin:miter;stroke:rgb(0%,0%,0%);stroke-opacity:0.65;stroke-miterlimit:3.25;" d="M 396.359375 211.964844 L 396.359375 209.628906 " transform="matrix(1,0,0,1,-74,-13)"/>
<path style="fill:none;stroke-width:0.5;stroke-linecap:butt;stroke-linejoin:miter;stroke:rgb(0%,0%,0%);stroke-opacity:0.65;stroke-miterlimit:3.25;" d="M 74.101562 211.964844 L 402.9375 211.964844 " transform="matrix(1,0,0,1,-74,-13)"/>
<path style=" stroke:none;fill-rule:evenodd;fill:rgb(0%,0%,0%);fill-opacity:0.65;" d="M 337.476562 199.925781 L 338.761719 199.925781 C 338.761719 200.308594 338.820312 200.574219 338.941406 200.71875 C 339.136719 200.949219 339.496094 201.066406 340.019531 201.066406 C 340.457031 201.066406 340.769531 200.988281 340.964844 200.828125 C 341.160156 200.671875 341.257812 200.480469 341.257812 200.253906 C 341.257812 200.0625 341.179688 199.898438 341.019531 199.769531 C 340.910156 199.671875 340.605469 199.515625 340.109375 199.300781 C 339.613281 199.085938 339.25 198.90625 339.019531 198.765625 C 338.789062 198.617188 338.609375 198.429688 338.476562 198.199219 C 338.347656 197.96875 338.28125 197.699219 338.28125 197.390625 C 338.28125 196.851562 338.480469 196.402344 338.875 196.046875 C 339.269531 195.691406 339.839844 195.515625 340.589844 195.515625 C 341.351562 195.515625 341.9375 195.695312 342.355469 196.054688 C 342.773438 196.414062 342.980469 196.894531 342.980469 197.492188 L 341.730469 197.492188 C 341.699219 197.203125 341.585938 196.972656 341.398438 196.808594 C 341.207031 196.644531 340.929688 196.5625 340.5625 196.5625 C 340.195312 196.5625 339.9375 196.628906 339.78125 196.757812 C 339.625 196.886719 339.546875 197.046875 339.546875 197.242188 C 339.546875 197.429688 339.617188 197.582031 339.761719 197.699219 C 339.902344 197.824219 340.21875 197.992188 340.707031 198.203125 C 341.445312 198.519531 341.914062 198.773438 342.117188 198.972656 C 342.417969 199.261719 342.570312 199.636719 342.570312 200.101562 C 342.570312 200.671875 342.347656 201.160156 341.898438 201.566406 C 341.449219 201.972656 340.824219 202.175781 340.019531 202.175781 C 339.46875 202.175781 338.988281 202.078125 338.582031 201.886719 C 338.179688 201.695312 337.894531 201.433594 337.726562 201.09375 C 337.558594 200.753906 337.476562 200.363281 337.476562 199.925781 Z M 337.476562 199.925781 "/>
<path style=" stroke:none;fill-rule:evenodd;fill:rgb(0%,0%,0%);fill-opacity:0.65;" d="M 343.707031 203.582031 L 343.707031 199.585938 L 346.902344 199.585938 L 346.902344 203.582031 Z M 343.804688 203.484375 L 346.800781 203.484375 L 346.800781 199.6875 L 343.804688 199.6875 Z M 343.804688 203.484375 "/>
<path style=" stroke:none;fill-rule:evenodd;fill:rgb(0%,0%,0%);fill-opacity:0.65;" d="M 351.671875 203.972656 L 351.105469 203.972656 C 350.871094 203.675781 350.65625 203.359375 350.464844 203.027344 C 350.273438 202.695312 350.109375 202.351562 349.972656 201.992188 C 349.832031 201.632812 349.726562 201.269531 349.652344 200.894531 C 349.578125 200.519531 349.539062 200.136719 349.539062 199.753906 C 349.539062 199.363281 349.578125 198.984375 349.652344 198.609375 C 349.730469 198.238281 349.839844 197.871094 349.976562 197.519531 C 350.113281 197.164062 350.277344 196.820312 350.46875 196.488281 C 350.660156 196.15625 350.875 195.835938 351.105469 195.53125 L 351.671875 195.53125 C 351.464844 195.871094 351.277344 196.207031 351.113281 196.535156 C 350.949219 196.867188 350.8125 197.199219 350.699219 197.542969 C 350.589844 197.882812 350.503906 198.234375 350.445312 198.597656 C 350.386719 198.957031 350.359375 199.339844 350.359375 199.746094 C 350.359375 200.121094 350.390625 200.492188 350.453125 200.863281 C 350.515625 201.230469 350.605469 201.59375 350.71875 201.949219 C 350.832031 202.304688 350.96875 202.652344 351.132812 202.992188 C 351.292969 203.328125 351.472656 203.65625 351.671875 203.972656 Z M 351.671875 203.972656 "/>
<path style=" stroke:none;fill-rule:evenodd;fill:rgb(0%,0%,0%);fill-opacity:0.65;" d="M 352.050781 202.082031 L 353.730469 199.671875 L 352.121094 197.402344 L 353.625 197.402344 L 354.453125 198.691406 L 355.324219 197.402344 L 356.773438 197.402344 L 355.191406 199.621094 L 356.917969 202.082031 L 355.402344 202.082031 L 354.453125 200.632812 L 353.496094 202.082031 Z M 352.050781 202.082031 "/>
<path style=" stroke:none;fill-rule:evenodd;fill:rgb(0%,0%,0%);fill-opacity:0.65;" d="M 359.441406 199.753906 C 359.441406 200.140625 359.402344 200.523438 359.324219 200.894531 C 359.25 201.269531 359.140625 201.632812 359.003906 201.988281 C 358.867188 202.339844 358.703125 202.683594 358.511719 203.019531 C 358.316406 203.351562 358.105469 203.667969 357.875 203.972656 L 357.308594 203.972656 C 357.511719 203.640625 357.699219 203.308594 357.863281 202.976562 C 358.027344 202.644531 358.164062 202.308594 358.277344 201.964844 C 358.386719 201.621094 358.472656 201.269531 358.53125 200.90625 C 358.59375 200.542969 358.621094 200.160156 358.621094 199.761719 C 358.621094 199.386719 358.589844 199.015625 358.527344 198.648438 C 358.464844 198.277344 358.375 197.914062 358.261719 197.558594 C 358.148438 197.203125 358.011719 196.855469 357.847656 196.515625 C 357.683594 196.175781 357.503906 195.847656 357.308594 195.53125 L 357.875 195.53125 C 358.109375 195.832031 358.324219 196.144531 358.515625 196.480469 C 358.710938 196.8125 358.875 197.15625 359.011719 197.515625 C 359.148438 197.875 359.253906 198.242188 359.328125 198.617188 C 359.402344 198.996094 359.441406 199.375 359.441406 199.753906 Z M 359.441406 199.753906 "/>
<path style="fill:none;stroke-width:0.5;stroke-linecap:butt;stroke-linejoin:miter;stroke:rgb(0%,0%,0%);stroke-opacity:0.65;stroke-miterlimit:3.25;" d="M 273.59375 232.285156 L 275.929688 232.285156 " transform="matrix(1,0,0,1,-74,-13)"/>
<path style="fill:none;stroke-width:0.5;stroke-linecap:butt;stroke-linejoin:miter;stroke:rgb(0%,0%,0%);stroke-opacity:0.65;stroke-miterlimit:3.25;" d="M 273.59375 222.125 L 275.929688 222.125 " transform="matrix(1,0,0,1,-74,-13)"/>
<path style="fill:none;stroke-width:0.5;stroke-linecap:butt;stroke-linejoin:miter;stroke:rgb(0%,0%,0%);stroke-opacity:0.65;stroke-miterlimit:3.25;" d="M 273.59375 211.964844 L 277.488281 211.964844 " transform="matrix(1,0,0,1,-74,-13)"/>
<path style="fill:none;stroke-width:0.5;stroke-linecap:butt;stroke-linejoin:miter;stroke:rgb(0%,0%,0%);stroke-opacity:0.65;stroke-miterlimit:3.25;" d="M 273.59375 201.800781 L 275.929688 201.800781 " transform="matrix(1,0,0,1,-74,-13)"/>
<path style="fill:none;stroke-width:0.5;stroke-linecap:butt;stroke-linejoin:miter;stroke:rgb(0%,0%,0%);stroke-opacity:0.65;stroke-miterlimit:3.25;" d="M 273.59375 191.640625 L 275.929688 191.640625 " transform="matrix(1,0,0,1,-74,-13)"/>
<path style="fill:none;stroke-width:0.5;stroke-linecap:butt;stroke-linejoin:miter;stroke:rgb(0%,0%,0%);stroke-opacity:0.65;stroke-miterlimit:3.25;" d="M 273.59375 181.480469 L 275.929688 181.480469 " transform="matrix(1,0,0,1,-74,-13)"/>
<path style="fill:none;stroke-width:0.5;stroke-linecap:butt;stroke-linejoin:miter;stroke:rgb(0%,0%,0%);stroke-opacity:0.65;stroke-miterlimit:3.25;" d="M 273.59375 171.316406 L 275.929688 171.316406 " transform="matrix(1,0,0,1,-74,-13)"/>
<path style="fill:none;stroke-width:0.5;stroke-linecap:butt;stroke-linejoin:miter;stroke:rgb(0%,0%,0%);stroke-opacity:0.65;stroke-miterlimit:3.25;" d="M 273.59375 161.15625 L 277.488281 161.15625 " transform="matrix(1,0,0,1,-74,-13)"/>
<path style=" stroke:none;fill-rule:evenodd;fill:rgb(0%,0%,0%);fill-opacity:0.65;" d="M 191.945312 149.601562 L 193.175781 149.476562 C 193.210938 149.75 193.316406 149.96875 193.488281 150.132812 C 193.660156 150.292969 193.859375 150.375 194.085938 150.375 C 194.34375 150.375 194.5625 150.269531 194.738281 150.0625 C 194.917969 149.855469 195.007812 149.539062 195.007812 149.121094 C 195.007812 148.730469 194.917969 148.433594 194.742188 148.238281 C 194.5625 148.042969 194.332031 147.941406 194.050781 147.941406 C 193.695312 147.941406 193.378906 148.097656 193.097656 148.410156 L 192.09375 148.265625 L 192.726562 144.886719 L 196 144.886719 L 196 146.042969 L 193.664062 146.042969 L 193.46875 147.164062 C 193.746094 147.023438 194.027344 146.957031 194.3125 146.957031 C 194.863281 146.957031 195.324219 147.15625 195.707031 147.550781 C 196.085938 147.949219 196.277344 148.464844 196.277344 149.097656 C 196.277344 149.628906 196.125 150.101562 195.816406 150.515625 C 195.398438 151.082031 194.816406 151.367188 194.070312 151.367188 C 193.476562 151.367188 192.992188 151.207031 192.617188 150.886719 C 192.242188 150.570312 192.019531 150.140625 191.945312 149.601562 Z M 191.945312 149.601562 "/>
<path style="fill:none;stroke-width:0.5;stroke-linecap:butt;stroke-linejoin:miter;stroke:rgb(0%,0%,0%);stroke-opacity:0.65;stroke-miterlimit:3.25;" d="M 273.59375 150.992188 L 275.929688 150.992188 " transform="matrix(1,0,0,1,-74,-13)"/>
<path style="fill:none;stroke-width:0.5;stroke-linecap:butt;stroke-linejoin:miter;stroke:rgb(0%,0%,0%);stroke-opacity:0.65;stroke-miterlimit:3.25;" d="M 273.59375 140.832031 L 275.929688 140.832031 " transform="matrix(1,0,0,1,-74,-13)"/>
<path style="fill:none;stroke-width:0.5;stroke-linecap:butt;stroke-linejoin:miter;stroke:rgb(0%,0%,0%);stroke-opacity:0.65;stroke-miterlimit:3.25;" d="M 273.59375 130.671875 L 275.929688 130.671875 " transform="matrix(1,0,0,1,-74,-13)"/>
<path style="fill:none;stroke-width:0.5;stroke-linecap:butt;stroke-linejoin:miter;stroke:rgb(0%,0%,0%);stroke-opacity:0.65;stroke-miterlimit:3.25;" d="M 273.59375 120.507812 L 275.929688 120.507812 " transform="matrix(1,0,0,1,-74,-13)"/>
<path style="fill:none;stroke-width:0.5;stroke-linecap:butt;stroke-linejoin:miter;stroke:rgb(0%,0%,0%);stroke-opacity:0.65;stroke-miterlimit:3.25;" d="M 273.59375 110.347656 L 277.488281 110.347656 " transform="matrix(1,0,0,1,-74,-13)"/>
<path style=" stroke:none;fill-rule:evenodd;fill:rgb(0%,0%,0%);fill-opacity:0.65;" d="M 190.15625 100.46875 L 188.921875 100.46875 L 188.921875 95.800781 C 188.472656 96.226562 187.9375 96.539062 187.328125 96.738281 L 187.328125 95.617188 C 187.648438 95.511719 188 95.3125 188.378906 95.015625 C 188.753906 94.71875 189.015625 94.375 189.15625 93.980469 L 190.15625 93.980469 Z M 194.03125 93.953125 C 194.65625 93.953125 195.140625 94.175781 195.492188 94.621094 C 195.910156 95.152344 196.117188 96.03125 196.117188 97.257812 C 196.117188 98.480469 195.910156 99.359375 195.488281 99.894531 C 195.140625 100.335938 194.65625 100.558594 194.03125 100.558594 C 193.40625 100.558594 192.902344 100.316406 192.519531 99.832031 C 192.136719 99.347656 191.945312 98.484375 191.945312 97.242188 C 191.945312 96.027344 192.15625 95.148438 192.578125 94.613281 C 192.925781 94.171875 193.410156 93.953125 194.03125 93.953125 Z M 194.03125 94.976562 C 193.882812 94.976562 193.75 95.027344 193.636719 95.121094 C 193.519531 95.21875 193.429688 95.386719 193.363281 95.636719 C 193.28125 95.957031 193.238281 96.496094 193.238281 97.257812 C 193.238281 98.015625 193.277344 98.539062 193.351562 98.824219 C 193.425781 99.109375 193.523438 99.296875 193.636719 99.390625 C 193.753906 99.484375 193.882812 99.53125 194.03125 99.53125 C 194.179688 99.53125 194.3125 99.484375 194.429688 99.386719 C 194.546875 99.292969 194.636719 99.121094 194.699219 98.875 C 194.785156 98.554688 194.828125 98.015625 194.828125 97.257812 C 194.828125 96.496094 194.789062 95.976562 194.710938 95.691406 C 194.636719 95.40625 194.542969 95.21875 194.425781 95.121094 C 194.3125 95.027344 194.179688 94.976562 194.03125 94.976562 Z M 194.03125 94.976562 "/>
<path style="fill:none;stroke-width:0.5;stroke-linecap:butt;stroke-linejoin:miter;stroke:rgb(0%,0%,0%);stroke-opacity:0.65;stroke-miterlimit:3.25;" d="M 273.59375 100.1875 L 275.929688 100.1875 " transform="matrix(1,0,0,1,-74,-13)"/>
<path style="fill:none;stroke-width:0.5;stroke-linecap:butt;stroke-linejoin:miter;stroke:rgb(0%,0%,0%);stroke-opacity:0.65;stroke-miterlimit:3.25;" d="M 273.59375 90.023438 L 275.929688 90.023438 " transform="matrix(1,0,0,1,-74,-13)"/>
<path style="fill:none;stroke-width:0.5;stroke-linecap:butt;stroke-linejoin:miter;stroke:rgb(0%,0%,0%);stroke-opacity:0.65;stroke-miterlimit:3.25;" d="M 273.59375 79.863281 L 275.929688 79.863281 " transform="matrix(1,0,0,1,-74,-13)"/>
<path style="fill:none;stroke-width:0.5;stroke-linecap:butt;stroke-linejoin:miter;stroke:rgb(0%,0%,0%);stroke-opacity:0.65;stroke-miterlimit:3.25;" d="M 273.59375 69.699219 L 275.929688 69.699219 " transform="matrix(1,0,0,1,-74,-13)"/>
<path style="fill:none;stroke-width:0.5;stroke-linecap:butt;stroke-linejoin:miter;stroke:rgb(0%,0%,0%);stroke-opacity:0.65;stroke-miterlimit:3.25;" d="M 273.59375 59.539062 L 277.488281 59.539062 " transform="matrix(1,0,0,1,-74,-13)"/>
<path style=" stroke:none;fill-rule:evenodd;fill:rgb(0%,0%,0%);fill-opacity:0.65;" d="M 190.15625 49.660156 L 188.921875 49.660156 L 188.921875 44.992188 C 188.472656 45.417969 187.9375 45.730469 187.328125 45.933594 L 187.328125 44.808594 C 187.648438 44.703125 188 44.503906 188.378906 44.207031 C 188.753906 43.914062 189.015625 43.566406 189.15625 43.175781 L 190.15625 43.175781 Z M 191.941406 47.984375 L 193.171875 47.859375 C 193.207031 48.136719 193.3125 48.355469 193.484375 48.515625 C 193.660156 48.675781 193.859375 48.757812 194.082031 48.757812 C 194.339844 48.757812 194.558594 48.652344 194.738281 48.445312 C 194.917969 48.238281 195.007812 47.925781 195.007812 47.503906 C 195.007812 47.113281 194.917969 46.816406 194.738281 46.621094 C 194.5625 46.425781 194.332031 46.328125 194.046875 46.328125 C 193.691406 46.328125 193.375 46.484375 193.09375 46.792969 L 192.09375 46.648438 L 192.726562 43.269531 L 195.996094 43.269531 L 195.996094 44.429688 L 193.660156 44.429688 L 193.46875 45.546875 C 193.742188 45.410156 194.023438 45.339844 194.3125 45.339844 C 194.859375 45.339844 195.324219 45.539062 195.703125 45.9375 C 196.085938 46.332031 196.277344 46.847656 196.277344 47.484375 C 196.277344 48.011719 196.121094 48.484375 195.816406 48.898438 C 195.394531 49.464844 194.816406 49.75 194.070312 49.75 C 193.476562 49.75 192.992188 49.589844 192.617188 49.273438 C 192.242188 48.953125 192.015625 48.523438 191.941406 47.984375 Z M 191.941406 47.984375 "/>
<path style="fill:none;stroke-width:0.5;stroke-linecap:butt;stroke-linejoin:miter;stroke:rgb(0%,0%,0%);stroke-opacity:0.65;stroke-miterlimit:3.25;" d="M 273.59375 49.378906 L 275.929688 49.378906 " transform="matrix(1,0,0,1,-74,-13)"/>
<path style="fill:none;stroke-width:0.5;stroke-linecap:butt;stroke-linejoin:miter;stroke:rgb(0%,0%,0%);stroke-opacity:0.65;stroke-miterlimit:3.25;" d="M 273.59375 39.214844 L 275.929688 39.214844 " transform="matrix(1,0,0,1,-74,-13)"/>
<path style="fill:none;stroke-width:0.5;stroke-linecap:butt;stroke-linejoin:miter;stroke:rgb(0%,0%,0%);stroke-opacity:0.65;stroke-miterlimit:3.25;" d="M 273.59375 29.054688 L 275.929688 29.054688 " transform="matrix(1,0,0,1,-74,-13)"/>
<path style="fill:none;stroke-width:0.5;stroke-linecap:butt;stroke-linejoin:miter;stroke:rgb(0%,0%,0%);stroke-opacity:0.65;stroke-miterlimit:3.25;" d="M 273.59375 232.285156 L 273.59375 29.054688 " transform="matrix(1,0,0,1,-74,-13)"/>
<path style=" stroke:none;fill-rule:evenodd;fill:rgb(0%,0%,0%);fill-opacity:0.65;" d="M 188.601562 5.988281 L 189.886719 5.988281 C 189.886719 6.371094 189.945312 6.636719 190.066406 6.78125 C 190.261719 7.015625 190.621094 7.128906 191.148438 7.128906 C 191.582031 7.128906 191.894531 7.050781 192.089844 6.894531 C 192.285156 6.734375 192.382812 6.542969 192.382812 6.320312 C 192.382812 6.125 192.304688 5.960938 192.148438 5.832031 C 192.035156 5.734375 191.734375 5.582031 191.234375 5.367188 C 190.738281 5.152344 190.375 4.972656 190.144531 4.828125 C 189.917969 4.683594 189.734375 4.492188 189.605469 4.261719 C 189.472656 4.03125 189.40625 3.761719 189.40625 3.453125 C 189.40625 2.914062 189.605469 2.46875 190 2.113281 C 190.394531 1.753906 190.96875 1.578125 191.714844 1.578125 C 192.476562 1.578125 193.066406 1.757812 193.484375 2.117188 C 193.898438 2.480469 194.109375 2.957031 194.109375 3.558594 L 192.855469 3.558594 C 192.824219 3.265625 192.714844 3.039062 192.523438 2.875 C 192.335938 2.710938 192.054688 2.625 191.6875 2.625 C 191.320312 2.625 191.0625 2.691406 190.90625 2.820312 C 190.75 2.949219 190.671875 3.109375 190.671875 3.308594 C 190.671875 3.492188 190.742188 3.644531 190.886719 3.765625 C 191.027344 3.886719 191.34375 4.054688 191.832031 4.265625 C 192.570312 4.582031 193.042969 4.839844 193.242188 5.035156 C 193.546875 5.324219 193.695312 5.699219 193.695312 6.164062 C 193.695312 6.734375 193.472656 7.226562 193.023438 7.628906 C 192.574219 8.035156 191.949219 8.238281 191.148438 8.238281 C 190.59375 8.238281 190.117188 8.140625 189.710938 7.953125 C 189.304688 7.761719 189.019531 7.496094 188.851562 7.15625 C 188.6875 6.816406 188.601562 6.429688 188.601562 5.988281 Z M 188.601562 5.988281 "/>
<path style=" stroke:none;fill-rule:evenodd;fill:rgb(0%,0%,0%);fill-opacity:0.65;" d="M 194.832031 9.648438 L 194.832031 5.648438 L 198.027344 5.648438 L 198.027344 9.648438 Z M 194.933594 9.546875 L 197.925781 9.546875 L 197.925781 5.75 L 194.933594 5.75 Z M 194.933594 9.546875 "/>
<path style=" stroke:none;fill-rule:evenodd;fill:rgb(0%,0%,0%);fill-opacity:0.65;" d="M 202.796875 10.039062 L 202.230469 10.039062 C 201.996094 9.738281 201.785156 9.421875 201.589844 9.089844 C 201.398438 8.757812 201.234375 8.414062 201.097656 8.054688 C 200.960938 7.699219 200.851562 7.332031 200.777344 6.957031 C 200.703125 6.582031 200.664062 6.203125 200.664062 5.820312 C 200.664062 5.429688 200.703125 5.046875 200.78125 4.675781 C 200.855469 4.300781 200.964844 3.9375 201.101562 3.582031 C 201.238281 3.226562 201.402344 2.882812 201.59375 2.550781 C 201.789062 2.21875 202 1.902344 202.230469 1.597656 L 202.796875 1.597656 C 202.589844 1.933594 202.402344 2.269531 202.238281 2.601562 C 202.074219 2.929688 201.9375 3.265625 201.824219 3.605469 C 201.714844 3.945312 201.628906 4.296875 201.570312 4.660156 C 201.511719 5.023438 201.484375 5.40625 201.484375 5.808594 C 201.484375 6.183594 201.515625 6.554688 201.578125 6.925781 C 201.640625 7.292969 201.730469 7.65625 201.84375 8.015625 C 201.957031 8.371094 202.097656 8.714844 202.257812 9.054688 C 202.417969 9.394531 202.597656 9.71875 202.796875 10.039062 Z M 202.796875 10.039062 "/>
<path style=" stroke:none;fill-rule:evenodd;fill:rgb(0%,0%,0%);fill-opacity:0.65;" d="M 203.183594 3.46875 L 204.5 3.46875 L 205.613281 6.785156 L 206.703125 3.46875 L 207.984375 3.46875 L 206.335938 7.964844 L 206.039062 8.777344 C 205.933594 9.050781 205.828125 9.261719 205.730469 9.402344 C 205.632812 9.546875 205.519531 9.664062 205.394531 9.753906 C 205.265625 9.84375 205.109375 9.910156 204.921875 9.960938 C 204.734375 10.011719 204.527344 10.039062 204.292969 10.039062 C 204.054688 10.039062 203.820312 10.011719 203.59375 9.964844 L 203.484375 8.992188 C 203.675781 9.03125 203.851562 9.050781 204.007812 9.050781 C 204.292969 9.050781 204.503906 8.964844 204.644531 8.796875 C 204.78125 8.628906 204.886719 8.414062 204.960938 8.152344 Z M 203.183594 3.46875 "/>
<path style=" stroke:none;fill-rule:evenodd;fill:rgb(0%,0%,0%);fill-opacity:0.65;" d="M 210.566406 5.820312 C 210.566406 6.203125 210.527344 6.585938 210.449219 6.960938 C 210.375 7.332031 210.269531 7.695312 210.128906 8.050781 C 209.992188 8.40625 209.828125 8.75 209.636719 9.082031 C 209.445312 9.414062 209.230469 9.734375 209 10.039062 L 208.433594 10.039062 C 208.640625 9.703125 208.824219 9.371094 208.988281 9.039062 C 209.152344 8.707031 209.289062 8.371094 209.402344 8.03125 C 209.511719 7.6875 209.597656 7.332031 209.660156 6.96875 C 209.71875 6.605469 209.75 6.226562 209.75 5.828125 C 209.75 5.453125 209.71875 5.078125 209.652344 4.710938 C 209.589844 4.339844 209.5 3.980469 209.386719 3.625 C 209.273438 3.265625 209.136719 2.917969 208.972656 2.582031 C 208.808594 2.238281 208.632812 1.910156 208.433594 1.597656 L 209 1.597656 C 209.234375 1.894531 209.449219 2.210938 209.640625 2.542969 C 209.835938 2.875 210 3.222656 210.136719 3.578125 C 210.273438 3.9375 210.378906 4.304688 210.453125 4.683594 C 210.527344 5.058594 210.566406 5.4375 210.566406 5.820312 Z M 210.566406 5.820312 "/>
</g>
</svg>
