<svg height="216pt" viewBox="0 0 288 216" width="288pt" xmlns="http://www.w3.org/2000/svg" xmlns:xlink="http://www.w3.org/1999/xlink"><clipPath id="a"><path d="m52 2.835938h2v198.878906h-2zm0 0"/></clipPath><clipPath id="b"><path d="m97 2.835938h2v198.878906h-2zm0 0"/></clipPath><clipPath id="c"><path d="m142 2.835938h2v198.878906h-2zm0 0"/></clipPath><clipPath id="d"><path d="m187 2.835938h2v198.878906h-2zm0 0"/></clipPath><clipPath id="e"><path d="m232 2.835938h2v198.878906h-2zm0 0"/></clipPath><clipPath id="f"><path d="m277 2.835938h1v198.878906h-1zm0 0"/></clipPath><clipPath id="g"><path d="m18.289062 195h266.875v2h-266.875zm0 0"/></clipPath><clipPath id="h"><path d="m18.289062 149h266.875v2h-266.875zm0 0"/></clipPath><clipPath id="i"><path d="m18.289062 103h266.875v2h-266.875zm0 0"/></clipPath><clipPath id="j"><path d="m18.289062 58h266.875v1h-266.875zm0 0"/></clipPath><clipPath id="k"><path d="m18.289062 12h266.875v1h-266.875zm0 0"/></clipPath><clipPath id="l"><path d="m111.261719 191.355469h8.738281v8.644531h-8.738281zm0 0"/></clipPath><clipPath id="m"><path d="m111.261719 191.355469h9v9h-9zm0 0"/></clipPath><clipPath id="n"><path d="m210.171875 117.042969h8.828125v8.957031h-8.828125zm0 0"/></clipPath><clipPath id="o"><path d="m210.171875 117.042969h9v9h-9zm0 0"/></clipPath><clipPath id="p"><path d="m102.269531 185.164062h8.730469v8.835938h-8.730469zm0 0"/></clipPath><clipPath id="q"><path d="m102.269531 185.164062h9v9h-9zm0 0"/></clipPath><clipPath id="r"><path d="m174.203125 148.007812h8.796875v8.992188h-8.796875zm0 0"/></clipPath><clipPath id="s"><path d="m174.203125 148.007812h9v9h-9zm0 0"/></clipPath><clipPath id="t"><path d="m273.113281 4h8.886719v8.964844h-8.886719zm0 0"/></clipPath><clipPath id="u"><path d="m273.113281 3.964844h9v9h-9zm0 0"/></clipPath><clipPath id="v"><path d="m201.179688 125h8.820312v8.839844h-8.820312zm0 0"/></clipPath><clipPath id="w"><path d="m201.179688 124.839844h9v9h-9zm0 0"/></clipPath><clipPath id="x"><path d="m255.128906 56h8.871094v8.800781h-8.871094zm0 0"/></clipPath><clipPath id="y"><path d="m255.128906 55.800781h9v9h-9zm0 0"/></clipPath><clipPath id="z"><path d="m174.203125 156.492188h8.796875v8.507812h-8.796875zm0 0"/></clipPath><clipPath id="A"><path d="m174.203125 156.492188h9v9h-9zm0 0"/></clipPath><clipPath id="B"><path d="m21.34375 173.238281h8.65625v8.761719h-8.65625zm0 0"/></clipPath><clipPath id="C"><path d="m21.34375 173.238281h9v9h-9zm0 0"/></clipPath><symbol id="D" overflow="visible"><path d="m2.25-1.71875.234375-.53125-.03125-.03125h-2.109375l-.203125.53125.03125.03125zm0 0"/></symbol><symbol id="E" overflow="visible"><path d="m1.015625-4.828125c1.03125.03125 1.46875.046875 2.421875.046875l.046875-.046875c-.015625-.140625-.015625-.203125-.015625-.296875 0-.125 0-.1875.015625-.328125l-.046875-.03125c-.59375.03125-.953125.03125-1.375.03125-.4375 0-.796875 0-1.390625-.03125l-.046875.03125c.015625.484375.015625.84375.015625 1.09375 0 .671875-.015625 1.4375-.046875 1.796875l.15625.046875c.375-.375.59375-.484375.984375-.484375.765625 0 1.25.53125 1.25 1.390625 0 .890625-.515625 1.40625-1.375 1.40625-.4375 0-.84375-.140625-.953125-.34375l-.359375-.65625-.1875.109375c.171875.453125.265625.71875.390625 1.0625.21875.125.53125.1875.875.1875.53125 0 1.109375-.234375 1.546875-.609375.484375-.4375.734375-.96875.734375-1.5625 0-.90625-.640625-1.53125-1.546875-1.53125-.390625 0-.671875.09375-1.171875.390625zm0 0"/></symbol><symbol id="F" overflow="visible"><path d="m2.09375-5.484375c-1.234375 0-1.859375.96875-1.859375 2.90625 0 .921875.15625 1.734375.4375 2.125s.734375.609375 1.21875.609375c1.203125 0 1.8125-1.03125 1.8125-3.078125 0-1.734375-.515625-2.5625-1.609375-2.5625zm-.140625.265625c.765625 0 1.078125.78125 1.078125 2.703125 0 1.6875-.296875 2.390625-1.03125 2.390625-.765625 0-1.09375-.796875-1.09375-2.75 0-1.671875.28125-2.34375 1.046875-2.34375zm0 0"/></symbol><symbol id="G" overflow="visible"><path d="m.53125-4.421875h.078125l1.03125-.46875h.03125c.046875 0 .0625.0625.0625.265625v3.859375c0 .421875-.09375.5-.515625.53125l-.453125.015625v.25c1.21875-.03125 1.21875-.03125 1.3125-.03125.109375 0 .28125 0 .546875.015625.09375 0 .375 0 .703125.015625v-.25l-.40625-.015625c-.4375-.03125-.515625-.109375-.515625-.53125v-4.71875l-.125-.046875c-.515625.265625-1.078125.515625-1.796875.765625zm0 0"/></symbol><symbol id="H" overflow="visible"><path d="m.125-.1875v.21875c1.5-.03125 1.5-.03125 1.78125-.03125s.28125 0 1.828125.03125c-.015625-.171875-.015625-.25-.015625-.359375s0-.1875.015625-.359375c-.921875.03125-1.28125.046875-2.765625.078125l1.453125-1.546875c.78125-.8125 1.015625-1.25 1.015625-1.859375 0-.90625-.625-1.46875-1.640625-1.46875-.5625 0-.953125.15625-1.34375.546875l-.140625 1.09375h.234375l.09375-.375c.125-.453125.421875-.65625.953125-.65625.6875 0 1.125.421875 1.125 1.109375 0 .59375-.34375 1.1875-1.234375 2.140625zm0 0"/></symbol><symbol id="I" overflow="visible"><path d="m2.234375-1.4375v.59375c0 .484375-.09375.59375-.484375.609375l-.484375.015625v.25c1.046875-.03125 1.046875-.03125 1.25-.03125.1875 0 .1875 0 1.25.03125v-.25l-.390625-.015625c-.390625-.03125-.46875-.125-.46875-.609375v-.59375c.46875 0 .625 0 .859375.03125v-.5625c-.375.03125-.53125.03125-.65625.015625h-.203125v-1.109375c0-1.421875.015625-2.09375.046875-2.421875l-.09375-.046875-.59375.21875-2.25 3.6875.09375.1875zm0-.515625h-1.71875l1.71875-2.796875zm0 0"/></symbol><symbol id="J" overflow="visible"><path d="m3.3125-5.359375-.296875-.125c-.765625.25-1.09375.40625-1.5.765625-.8125.6875-1.265625 1.65625-1.265625 2.75 0 1.3125.640625 2.125 1.671875 2.125s1.8125-.8125 1.8125-1.90625c0-.90625-.5625-1.515625-1.40625-1.515625-.390625 0-.625.109375-1.09375.484375-.09375.078125-.109375.078125-.1875.140625.171875-1.4375.828125-2.21875 2.265625-2.65625zm-1.28125 2.578125c.609375 0 1.015625.53125 1.015625 1.3125 0 .828125-.40625 1.359375-1.015625 1.359375-.6875 0-1.046875-.578125-1.046875-1.640625 0-.28125.03125-.4375.109375-.5625.1875-.28125.5625-.46875.9375-.46875zm0 0"/></symbol><symbol id="K" overflow="visible"><path d="m1.34375-2.75c-.328125.15625-.46875.234375-.640625.40625-.3125.296875-.46875.65625-.46875 1.078125 0 .8125.671875 1.421875 1.5625 1.421875 1.046875 0 1.90625-.8125 1.90625-1.796875 0-.640625-.296875-.984375-1.203125-1.390625.71875-.5.96875-.828125.96875-1.3125 0-.6875-.5625-1.140625-1.40625-1.140625-.953125 0-1.640625.59375-1.640625 1.4375 0 .546875.21875.84375.921875 1.296875zm.921875.40625c.5.21875.796875.609375.796875 1.03125 0 .671875-.5 1.203125-1.140625 1.203125-.671875 0-1.109375-.484375-1.109375-1.21875 0-.578125.21875-.953125.8125-1.3125zm-.484375-1.03125c-.5-.25-.765625-.5625-.765625-.953125 0-.53125.390625-.890625.953125-.890625.578125 0 .96875.375.96875.96875 0 .453125-.203125.765625-.71875 1.09375zm0 0"/></symbol><path d="m0 0h288v216h-288z" fill="#fff"/><path d="m18.289062 201.714844h266.875v-198.878906h-266.875zm0 0" fill="#fff"/><g clip-path="url(#a)"><path d="m52.816406 14.285156v198.878906" style="fill:none;stroke-width:.5;stroke-linecap:square;stroke-linejoin:round;stroke:#000;stroke-opacity:.1;stroke-miterlimit:10" transform="matrix(1 0 0 -1 0 216)"/></g><path d="m52.816406 14.285156v3.5" fill="none" stroke="#000" stroke-linejoin="round" stroke-miterlimit="10" stroke-width=".8" transform="matrix(1 0 0 -1 0 216)"/><g><use x="49.498648" xlink:href="#D" y="210.917832"/><use x="52.144726" xlink:href="#E" y="210.917832"/></g><g clip-path="url(#b)"><path d="m97.777344 14.285156v198.878906" style="fill:none;stroke-width:.5;stroke-linecap:square;stroke-linejoin:round;stroke:#000;stroke-opacity:.1;stroke-miterlimit:10" transform="matrix(1 0 0 -1 0 216)"/></g><path d="m97.777344 14.285156v3.5" fill="none" stroke="#000" stroke-linejoin="round" stroke-miterlimit="10" stroke-width=".8" transform="matrix(1 0 0 -1 0 216)"/><use x="95.784475" xlink:href="#F" y="210.917832"/><g clip-path="url(#c)"><path d="m142.734375 14.285156v198.878906" style="fill:none;stroke-width:.5;stroke-linecap:square;stroke-linejoin:round;stroke:#000;stroke-opacity:.1;stroke-miterlimit:10" transform="matrix(1 0 0 -1 0 216)"/></g><path d="m142.734375 14.285156v3.5" fill="none" stroke="#000" stroke-linejoin="round" stroke-miterlimit="10" stroke-width=".8" transform="matrix(1 0 0 -1 0 216)"/><use x="140.743293" xlink:href="#E" y="210.917832"/><g clip-path="url(#d)"><path d="m187.695312 14.285156v198.878906" style="fill:none;stroke-width:.5;stroke-linecap:square;stroke-linejoin:round;stroke:#000;stroke-opacity:.1;stroke-miterlimit:10" transform="matrix(1 0 0 -1 0 216)"/></g><path d="m187.695312 14.285156v3.5" fill="none" stroke="#000" stroke-linejoin="round" stroke-miterlimit="10" stroke-width=".8" transform="matrix(1 0 0 -1 0 216)"/><g><use x="183.709582" xlink:href="#G" y="210.917832"/><use x="187.694638" xlink:href="#F" y="210.917832"/></g><g clip-path="url(#e)"><path d="m232.652344 14.285156v198.878906" style="fill:none;stroke-width:.5;stroke-linecap:square;stroke-linejoin:round;stroke:#000;stroke-opacity:.1;stroke-miterlimit:10" transform="matrix(1 0 0 -1 0 216)"/></g><path d="m232.652344 14.285156v3.5" fill="none" stroke="#000" stroke-linejoin="round" stroke-miterlimit="10" stroke-width=".8" transform="matrix(1 0 0 -1 0 216)"/><g><use x="228.668399" xlink:href="#G" y="210.917832"/><use x="232.653456" xlink:href="#E" y="210.917832"/></g><g clip-path="url(#f)"><path d="m277.613281 14.285156v198.878906" style="fill:none;stroke-width:.5;stroke-linecap:square;stroke-linejoin:round;stroke:#000;stroke-opacity:.1;stroke-miterlimit:10" transform="matrix(1 0 0 -1 0 216)"/></g><path d="m277.613281 14.285156v3.5" fill="none" stroke="#000" stroke-linejoin="round" stroke-miterlimit="10" stroke-width=".8" transform="matrix(1 0 0 -1 0 216)"/><g><use x="273.627217" xlink:href="#H" y="210.917832"/><use x="277.612273" xlink:href="#F" y="210.917832"/></g><g clip-path="url(#g)"><path d="m18.289062 19.914062h266.875" style="fill:none;stroke-width:.5;stroke-linecap:square;stroke-linejoin:round;stroke:#000;stroke-opacity:.1;stroke-miterlimit:10" transform="matrix(1 0 0 -1 0 216)"/></g><path d="m18.289062 19.914062h3.5" fill="none" stroke="#000" stroke-linejoin="round" stroke-miterlimit="10" stroke-width=".8" transform="matrix(1 0 0 -1 0 216)"/><use x="10.804758" xlink:href="#F" y="198.938029"/><g clip-path="url(#h)"><path d="m18.289062 65.785156h266.875" style="fill:none;stroke-width:.5;stroke-linecap:square;stroke-linejoin:round;stroke:#000;stroke-opacity:.1;stroke-miterlimit:10" transform="matrix(1 0 0 -1 0 216)"/></g><path d="m18.289062 65.785156h3.5" fill="none" stroke="#000" stroke-linejoin="round" stroke-miterlimit="10" stroke-width=".8" transform="matrix(1 0 0 -1 0 216)"/><g><use x="2.834646" xlink:href="#H" y="153.064338"/><use x="6.819702" xlink:href="#F" y="153.064338"/><use x="10.804758" xlink:href="#F" y="153.064338"/></g><g clip-path="url(#i)"><path d="m18.289062 111.660156h266.875" style="fill:none;stroke-width:.5;stroke-linecap:square;stroke-linejoin:round;stroke:#000;stroke-opacity:.1;stroke-miterlimit:10" transform="matrix(1 0 0 -1 0 216)"/></g><path d="m18.289062 111.660156h3.5" fill="none" stroke="#000" stroke-linejoin="round" stroke-miterlimit="10" stroke-width=".8" transform="matrix(1 0 0 -1 0 216)"/><g><use x="2.834646" xlink:href="#I" y="107.190647"/><use x="6.819702" xlink:href="#F" y="107.190647"/><use x="10.804758" xlink:href="#F" y="107.190647"/></g><g clip-path="url(#j)"><path d="m18.289062 157.535156h266.875" style="fill:none;stroke-width:.5;stroke-linecap:square;stroke-linejoin:round;stroke:#000;stroke-opacity:.1;stroke-miterlimit:10" transform="matrix(1 0 0 -1 0 216)"/></g><path d="m18.289062 157.535156h3.5" fill="none" stroke="#000" stroke-linejoin="round" stroke-miterlimit="10" stroke-width=".8" transform="matrix(1 0 0 -1 0 216)"/><g><use x="2.834646" xlink:href="#J" y="61.316957"/><use x="6.819702" xlink:href="#F" y="61.316957"/><use x="10.804758" xlink:href="#F" y="61.316957"/></g><g clip-path="url(#k)"><path d="m18.289062 203.40625h266.875" style="fill:none;stroke-width:.5;stroke-linecap:square;stroke-linejoin:round;stroke:#000;stroke-opacity:.1;stroke-miterlimit:10" transform="matrix(1 0 0 -1 0 216)"/></g><path d="m18.289062 203.40625h3.5" fill="none" stroke="#000" stroke-linejoin="round" stroke-miterlimit="10" stroke-width=".8" transform="matrix(1 0 0 -1 0 216)"/><g><use x="2.834646" xlink:href="#K" y="15.443266"/><use x="6.819702" xlink:href="#F" y="15.443266"/><use x="10.804758" xlink:href="#F" y="15.443266"/></g><path d="m25.84375 49.273438 5.058594-3.988282 5.0625-3.695312 5.058594-3.402344 5.0625-3.113281 5.058593-2.824219 5.0625-2.53125 5.0625-2.242188 5.058594-1.953124 5.0625-1.660157 5.058594-1.371093 5.0625-1.078126 5.058593-.789062 5.0625-.496094 5.058594-.207031 5.0625.082031 5.058594.371094 5.0625.664062 5.058594.957032 5.0625 1.246094 5.0625 1.535156 5.058594 1.828125 5.0625 2.117187 5.058593 2.40625 5.0625 2.699219 5.058594 2.988281 5.0625 3.28125 5.058594 3.570313 5.0625 3.859375 5.058593 4.152344 5.0625 4.441406 5.058594 4.734375 5.0625 5.023437 5.058594 5.316406 5.0625 5.601563 5.0625 5.898437 5.058594 6.183594 5.0625 6.476563 6.324218 8.503906 6.324219 8.960937 6.328125 9.410157 6.324219 9.867187 6.328125 10.320313 6.324219 10.777343 6.328125 11.226563 6.324218 11.683594 6.324219 12.136719 6.328125 12.59375 1.265625 2.570312" style="fill:none;stroke-width:2;stroke-linecap:round;stroke-linejoin:round;stroke:#036;stroke-miterlimit:10" transform="matrix(1 0 0 -1 0 216)"/><g clip-path="url(#l)"><path d="m115.761719 199.855469c1.058593 0 2.078125-.417969 2.828125-1.167969s1.171875-1.769531 1.171875-2.832031c0-1.058594-.421875-2.078125-1.171875-2.828125s-1.769532-1.171875-2.828125-1.171875c-1.0625 0-2.078125.421875-2.828125 1.171875s-1.171875 1.769531-1.171875 2.828125c0 1.0625.421875 2.082031 1.171875 2.832031s1.765625 1.167969 2.828125 1.167969zm0 0" fill="#90ee90"/></g><g clip-path="url(#m)"><path d="m.00118867-3.9981c1.05859333 0 2.07812533.417968 2.82812533 1.167968s1.171875 1.769532 1.171875 2.83203165c0 1.05859335-.421875 2.07812535-1.171875 2.82812535s-1.769532 1.171875-2.82812533 1.171875c-1.06249967 0-2.07812467-.421875-2.82812467-1.171875s-1.171875-1.769532-1.171875-2.82812535c0-1.06249965.421875-2.08203165 1.171875-2.83203165s1.765625-1.167968 2.82812467-1.167968zm0 0" fill="none" stroke="#000" stroke-linejoin="round" stroke-miterlimit="10" transform="matrix(1 0 0 -1 115.76053 195.857368)"/></g><g clip-path="url(#n)"><path d="m214.671875 125.542969c1.058594 0 2.078125-.421875 2.828125-1.171875s1.171875-1.769532 1.171875-2.828125c0-1.0625-.421875-2.078125-1.171875-2.828125s-1.769531-1.171875-2.828125-1.171875c-1.0625 0-2.082031.421875-2.832031 1.171875s-1.167969 1.765625-1.167969 2.828125c0 1.058593.417969 2.078125 1.167969 2.828125s1.769531 1.171875 2.832031 1.171875zm0 0" fill="#90ee90"/></g><g clip-path="url(#o)"><path d="m.00194647-4.000979c1.05859353 0 2.07812453.421875 2.82812453 1.171875s1.171875 1.769531 1.171875 2.82812474c0 1.06250026-.421875 2.07812526-1.171875 2.82812526s-1.769531 1.171875-2.82812453 1.171875c-1.06250047 0-2.08203147-.421875-2.83203147-1.171875s-1.167969-1.765625-1.167969-2.82812526c0-1.05859374.417969-2.07812474 1.167969-2.82812474s1.769531-1.171875 2.83203147-1.171875zm0 0" fill="none" stroke="#000" stroke-linejoin="round" stroke-miterlimit="10" transform="matrix(1 0 0 -1 214.669929 121.541989)"/></g><g clip-path="url(#p)"><path d="m106.769531 193.664062c1.058594 0 2.078125-.421874 2.828125-1.171874s1.171875-1.765626 1.171875-2.828126c0-1.058593-.421875-2.078124-1.171875-2.828124s-1.769531-1.171876-2.828125-1.171876c-1.0625 0-2.078125.421876-2.828125 1.171876s-1.171875 1.769531-1.171875 2.828124c0 1.0625.421875 2.078126 1.171875 2.828126s1.765625 1.171874 2.828125 1.171874zm0 0" fill="#90ee90"/></g><g clip-path="url(#q)"><path d="m.00076467-3.999642c1.05859333 0 2.07812533.421875 2.82812533 1.171875s1.171875 1.765625 1.171875 2.82812466c0 1.05859334-.421875 2.07812534-1.171875 2.82812534s-1.769532 1.171875-2.82812533 1.171875c-1.06249967 0-2.07812467-.421875-2.82812467-1.171875s-1.171875-1.769532-1.171875-2.82812534c0-1.06249966.421875-2.07812466 1.171875-2.82812466s1.765625-1.171875 2.82812467-1.171875zm0 0" fill="none" stroke="#000" stroke-linejoin="round" stroke-miterlimit="10" transform="matrix(1 0 0 -1 106.768767 189.66442)"/></g><g clip-path="url(#r)"><path d="m178.703125 156.507812c1.0625 0 2.078125-.421874 2.828125-1.171874s1.171875-1.769532 1.171875-2.828126c0-1.0625-.421875-2.078124-1.171875-2.828124s-1.765625-1.171876-2.828125-1.171876-2.078125.421876-2.828125 1.171876-1.171875 1.765624-1.171875 2.828124c0 1.058594.421875 2.078126 1.171875 2.828126s1.765625 1.171874 2.828125 1.171874zm0 0" fill="#90ee90"/></g><g clip-path="url(#s)"><path d="m.00025045-4.001082c1.06249955 0 2.07812455.421875 2.82812455 1.171875s1.171875 1.769531 1.171875 2.8281252c0 1.0624998-.421875 2.0781248-1.171875 2.8281248s-1.765625 1.171875-2.82812455 1.171875c-1.06250045 0-2.07812545-.421875-2.82812545-1.171875s-1.171875-1.765625-1.171875-2.8281248c0-1.0585942.421875-2.0781252 1.171875-2.8281252s1.765625-1.171875 2.82812545-1.171875zm0 0" fill="none" stroke="#000" stroke-linejoin="round" stroke-miterlimit="10" transform="matrix(1 0 0 -1 178.702875 152.506731)"/></g><g clip-path="url(#t)"><path d="m277.613281 12.464844c1.058594 0 2.078125-.421875 2.828125-1.171875s1.171875-1.769531 1.171875-2.828125c0-1.0625-.421875-2.078125-1.171875-2.828125s-1.769531-1.171875-2.828125-1.171875c-1.0625 0-2.078125.421875-2.828125 1.171875s-1.171875 1.765625-1.171875 2.828125c0 1.058594.421875 2.078125 1.171875 2.828125s1.765625 1.171875 2.828125 1.171875zm0 0" fill="#90ee90"/></g><g clip-path="url(#u)"><path d="m.00100826-4.001502c1.05859374 0 2.07812474.421875 2.82812474 1.171875s1.171875 1.769531 1.171875 2.82812521c0 1.06249979-.421875 2.07812479-1.171875 2.82812479s-1.769531 1.171875-2.82812474 1.171875c-1.06250026 0-2.07812526-.421875-2.82812526-1.171875s-1.171875-1.765625-1.171875-2.82812479c0-1.05859421.421875-2.07812521 1.171875-2.82812521s1.765625-1.171875 2.82812526-1.171875zm0 0" fill="none" stroke="#000" stroke-linejoin="round" stroke-miterlimit="10" transform="matrix(1 0 0 -1 277.612273 8.463342)"/></g><g clip-path="url(#v)"><path d="m205.679688 133.339844c1.058593 0 2.078124-.421875 2.828124-1.171875s1.171876-1.765625 1.171876-2.828125c0-1.058594-.421876-2.078125-1.171876-2.828125s-1.769531-1.171875-2.828124-1.171875c-1.0625 0-2.078126.421875-2.828126 1.171875s-1.171874 1.769531-1.171874 2.828125c0 1.0625.421874 2.078125 1.171874 2.828125s1.765626 1.171875 2.828126 1.171875zm0 0" fill="#90ee90"/></g><g clip-path="url(#w)"><path d="m.00152247-3.999327c1.05859353 0 2.07812453.421875 2.82812453 1.171875s1.171875 1.765625 1.171875 2.82812516c0 1.05859384-.421875 2.07812484-1.171875 2.82812484s-1.769531 1.171875-2.82812453 1.171875c-1.06250047 0-2.07812547-.421875-2.82812547-1.171875s-1.171875-1.769531-1.171875-2.82812484c0-1.06250016.421875-2.07812516 1.171875-2.82812516s1.765625-1.171875 2.82812547-1.171875zm0 0" fill="none" stroke="#000" stroke-linejoin="round" stroke-miterlimit="10" transform="matrix(1 0 0 -1 205.678165 129.340517)"/></g><g clip-path="url(#x)"><path d="m259.628906 64.300781c1.0625 0 2.078125-.421875 2.828125-1.171875s1.171875-1.765625 1.171875-2.828125-.421875-2.078125-1.171875-2.828125-1.765625-1.171875-2.828125-1.171875-2.078125.421875-2.828125 1.171875-1.171875 1.765625-1.171875 2.828125.421875 2.078125 1.171875 2.828125 1.765625 1.171875 2.828125 1.171875zm0 0" fill="#90ee90"/></g><g clip-path="url(#y)"><path d="m.00016025-4.000169c1.06249975 0 2.07812475.421875 2.82812475 1.171875s1.171875 1.765625 1.171875 2.82812518c0 1.06249982-.421875 2.07812482-1.171875 2.82812482s-1.765625 1.171875-2.82812475 1.171875c-1.06250025 0-2.07812525-.421875-2.82812525-1.171875s-1.171875-1.765625-1.171875-2.82812482c0-1.06250018.421875-2.07812518 1.171875-2.82812518s1.765625-1.171875 2.82812525-1.171875zm0 0" fill="none" stroke="#000" stroke-linejoin="round" stroke-miterlimit="10" transform="matrix(1 0 0 -1 259.628746 60.300612)"/></g><g clip-path="url(#z)"><path d="m178.703125 164.992188c1.0625 0 2.078125-.421876 2.828125-1.171876s1.171875-1.765624 1.171875-2.828124c0-1.058594-.421875-2.078126-1.171875-2.828126s-1.765625-1.171874-2.828125-1.171874-2.078125.421874-2.828125 1.171874-1.171875 1.769532-1.171875 2.828126c0 1.0625.421875 2.078124 1.171875 2.828124s1.765625 1.171876 2.828125 1.171876zm0 0" fill="#90ee90"/></g><g clip-path="url(#A)"><path d="m.00025045-3.998824c1.06249955 0 2.07812455.421875 2.82812455 1.171875s1.171875 1.765625 1.171875 2.82812498c0 1.05859402-.421875 2.07812502-1.171875 2.82812502s-1.765625 1.171875-2.82812455 1.171875c-1.06250045 0-2.07812545-.421875-2.82812545-1.171875s-1.171875-1.769531-1.171875-2.82812502c0-1.06249998.421875-2.07812498 1.171875-2.82812498s1.765625-1.171875 2.82812545-1.171875zm0 0" fill="none" stroke="#000" stroke-linejoin="round" stroke-miterlimit="10" transform="matrix(1 0 0 -1 178.702875 160.993363)"/></g><g clip-path="url(#B)"><path d="m25.84375 181.738281c1.058594 0 2.078125-.421875 2.828125-1.171875s1.171875-1.769531 1.171875-2.828125c0-1.0625-.421875-2.078125-1.171875-2.828125s-1.769531-1.171875-2.828125-1.171875c-1.0625 0-2.078125.421875-2.828125 1.171875s-1.171875 1.765625-1.171875 2.828125c0 1.058594.421875 2.078125 1.171875 2.828125s1.765625 1.171875 2.828125 1.171875zm0 0" fill="#90ee90"/></g><g clip-path="url(#C)"><path d="m.00085488-4.001021c1.05859412 0 2.07812512.421875 2.82812512 1.171875s1.171875 1.769532 1.171875 2.82812533c0 1.06249967-.421875 2.07812467-1.171875 2.82812467s-1.769531 1.171875-2.82812512 1.171875c-1.06249988 0-2.07812488-.421875-2.82812488-1.171875s-1.171875-1.765625-1.171875-2.82812467c0-1.05859333.421875-2.07812533 1.171875-2.82812533s1.765625-1.171875 2.82812488-1.171875zm0 0" fill="none" stroke="#000" stroke-linejoin="round" stroke-miterlimit="10" transform="matrix(1 0 0 -1 25.842895 177.737261)"/></g><g fill="none" stroke="#000" stroke-linecap="square" stroke-miterlimit="10" transform="matrix(1 0 0 -1 0 216)"><path d="m18.289062 14.285156v198.878906"/><path d="m285.164062 14.285156v198.878906" stroke-opacity=".5" stroke-width=".5"/><path d="m18.289062 14.285156h266.875"/><path d="m18.289062 213.164062h266.875" stroke-opacity=".5" stroke-width=".5"/></g></svg>