<svg height="216pt" viewBox="0 0 288 216" width="288pt" xmlns="http://www.w3.org/2000/svg" xmlns:xlink="http://www.w3.org/1999/xlink"><clipPath id="a"><path d="m53 2.835938h2v198.878906h-2zm0 0"/></clipPath><clipPath id="b"><path d="m117 2.835938h2v198.878906h-2zm0 0"/></clipPath><clipPath id="c"><path d="m181 2.835938h2v198.878906h-2zm0 0"/></clipPath><clipPath id="d"><path d="m245 2.835938h1v198.878906h-1zm0 0"/></clipPath><clipPath id="e"><path d="m14.304688 173h270.859374v2h-270.859374zm0 0"/></clipPath><clipPath id="f"><path d="m14.304688 118h270.859374v2h-270.859374zm0 0"/></clipPath><clipPath id="g"><path d="m14.304688 63h270.859374v2h-270.859374zm0 0"/></clipPath><clipPath id="h"><path d="m14.304688 8h270.859374v1h-270.859374zm0 0"/></clipPath><clipPath id="i"><path d="m17.46875 181h8.53125v8.550781h-8.53125zm0 0"/></clipPath><clipPath id="j"><path d="m17.46875 180.550781h9v9h-9zm0 0"/></clipPath><clipPath id="k"><path d="m241.058594 48.109375h8.941406v8.890625h-8.941406zm0 0"/></clipPath><clipPath id="l"><path d="m241.058594 48.109375h9v9h-9zm0 0"/></clipPath><clipPath id="m"><path d="m273 4h9v8.964844h-9zm0 0"/></clipPath><clipPath id="n"><path d="m273 3.964844h9v9h-9zm0 0"/></clipPath><clipPath id="o"><path d="m81.351562 125.367188h8.648438v8.632812h-8.648438zm0 0"/></clipPath><clipPath id="p"><path d="m81.351562 125.367188h9v9h-9zm0 0"/></clipPath><clipPath id="q"><path d="m177.175781 59.148438h8.824219v8.851562h-8.824219zm0 0"/></clipPath><clipPath id="r"><path d="m177.175781 59.148438h9v9h-9zm0 0"/></clipPath><clipPath id="s"><path d="m81.351562 136.402344h8.648438v8.597656h-8.648438zm0 0"/></clipPath><clipPath id="t"><path d="m81.351562 136.402344h9v9h-9zm0 0"/></clipPath><clipPath id="u"><path d="m113.292969 136.402344h8.707031v8.597656h-8.707031zm0 0"/></clipPath><clipPath id="v"><path d="m113.292969 136.402344h9v9h-9zm0 0"/></clipPath><clipPath id="w"><path d="m17.46875 192h8.53125v8.585938h-8.53125zm0 0"/></clipPath><clipPath id="x"><path d="m17.46875 191.585938h9v9h-9zm0 0"/></clipPath><clipPath id="y"><path d="m209.117188 70.183594h8.882812v8.816406h-8.882812zm0 0"/></clipPath><clipPath id="z"><path d="m209.117188 70.183594h9v9h-9zm0 0"/></clipPath><symbol id="A" overflow="visible"><path d="m2.25-1.71875.234375-.53125-.03125-.03125h-2.109375l-.203125.53125.03125.03125zm0 0"/></symbol><symbol id="B" overflow="visible"><path d="m.125-.1875v.21875c1.5-.03125 1.5-.03125 1.78125-.03125s.28125 0 1.828125.03125c-.015625-.171875-.015625-.25-.015625-.359375s0-.1875.015625-.359375c-.921875.03125-1.28125.046875-2.765625.078125l1.453125-1.546875c.78125-.8125 1.015625-1.25 1.015625-1.859375 0-.90625-.625-1.46875-1.640625-1.46875-.5625 0-.953125.15625-1.34375.546875l-.140625 1.09375h.234375l.09375-.375c.125-.453125.421875-.65625.953125-.65625.6875 0 1.125.421875 1.125 1.109375 0 .59375-.34375 1.1875-1.234375 2.140625zm0 0"/></symbol><symbol id="C" overflow="visible"><path d="m2.09375-5.484375c-1.234375 0-1.859375.96875-1.859375 2.90625 0 .921875.15625 1.734375.4375 2.125s.734375.609375 1.21875.609375c1.203125 0 1.8125-1.03125 1.8125-3.078125 0-1.734375-.515625-2.5625-1.609375-2.5625zm-.140625.265625c.765625 0 1.078125.78125 1.078125 2.703125 0 1.6875-.296875 2.390625-1.03125 2.390625-.765625 0-1.09375-.796875-1.09375-2.75 0-1.671875.28125-2.34375 1.046875-2.34375zm0 0"/></symbol><symbol id="D" overflow="visible"><path d="m2.234375-1.4375v.59375c0 .484375-.09375.59375-.484375.609375l-.484375.015625v.25c1.046875-.03125 1.046875-.03125 1.25-.03125.1875 0 .1875 0 1.25.03125v-.25l-.390625-.015625c-.390625-.03125-.46875-.125-.46875-.609375v-.59375c.46875 0 .625 0 .859375.03125v-.5625c-.375.03125-.53125.03125-.65625.015625h-.203125v-1.109375c0-1.421875.015625-2.09375.046875-2.421875l-.09375-.046875-.59375.21875-2.25 3.6875.09375.1875zm0-.515625h-1.71875l1.71875-2.796875zm0 0"/></symbol><symbol id="E" overflow="visible"><path d="m1.015625-4.828125c1.03125.03125 1.46875.046875 2.421875.046875l.046875-.046875c-.015625-.140625-.015625-.203125-.015625-.296875 0-.125 0-.1875.015625-.328125l-.046875-.03125c-.59375.03125-.953125.03125-1.375.03125-.4375 0-.796875 0-1.390625-.03125l-.046875.03125c.015625.484375.015625.84375.015625 1.09375 0 .671875-.015625 1.4375-.046875 1.796875l.15625.046875c.375-.375.59375-.484375.984375-.484375.765625 0 1.25.53125 1.25 1.390625 0 .890625-.515625 1.40625-1.375 1.40625-.4375 0-.84375-.140625-.953125-.34375l-.359375-.65625-.1875.109375c.171875.453125.265625.71875.390625 1.0625.21875.125.53125.1875.875.1875.53125 0 1.109375-.234375 1.546875-.609375.484375-.4375.734375-.96875.734375-1.5625 0-.90625-.640625-1.53125-1.546875-1.53125-.390625 0-.671875.09375-1.171875.390625zm0 0"/></symbol><symbol id="F" overflow="visible"><path d="m.53125-4.421875h.078125l1.03125-.46875h.03125c.046875 0 .0625.0625.0625.265625v3.859375c0 .421875-.09375.5-.515625.53125l-.453125.015625v.25c1.21875-.03125 1.21875-.03125 1.3125-.03125.109375 0 .28125 0 .546875.015625.09375 0 .375 0 .703125.015625v-.25l-.40625-.015625c-.4375-.03125-.515625-.109375-.515625-.53125v-4.71875l-.125-.046875c-.515625.265625-1.078125.515625-1.796875.765625zm0 0"/></symbol><path d="m0 0h288v216h-288z" fill="#fff"/><path d="m14.304688 201.714844h270.859374v-198.878906h-270.859374zm0 0" fill="#fff"/><g clip-path="url(#a)"><path d="m53.910156 14.285156v198.878906" style="fill:none;stroke-width:.5;stroke-linecap:square;stroke-linejoin:round;stroke:#000;stroke-opacity:.1;stroke-miterlimit:10" transform="matrix(1 0 0 -1 0 216)"/></g><path d="m53.910156 14.285156v3.5" fill="none" stroke="#000" stroke-linejoin="round" stroke-miterlimit="10" stroke-width=".8" transform="matrix(1 0 0 -1 0 216)"/><g><use x="50.592195" xlink:href="#A" y="210.917832"/><use x="53.238272" xlink:href="#B" y="210.917832"/></g><g clip-path="url(#b)"><path d="m117.792969 14.285156v198.878906" style="fill:none;stroke-width:.5;stroke-linecap:square;stroke-linejoin:round;stroke:#000;stroke-opacity:.1;stroke-miterlimit:10" transform="matrix(1 0 0 -1 0 216)"/></g><path d="m117.792969 14.285156v3.5" fill="none" stroke="#000" stroke-linejoin="round" stroke-miterlimit="10" stroke-width=".8" transform="matrix(1 0 0 -1 0 216)"/><use x="115.80142" xlink:href="#C" y="210.917832"/><g clip-path="url(#c)"><path d="m181.675781 14.285156v198.878906" style="fill:none;stroke-width:.5;stroke-linecap:square;stroke-linejoin:round;stroke:#000;stroke-opacity:.1;stroke-miterlimit:10" transform="matrix(1 0 0 -1 0 216)"/></g><path d="m181.675781 14.285156v3.5" fill="none" stroke="#000" stroke-linejoin="round" stroke-miterlimit="10" stroke-width=".8" transform="matrix(1 0 0 -1 0 216)"/><use x="179.683636" xlink:href="#B" y="210.917832"/><g clip-path="url(#d)"><path d="m245.558594 14.285156v198.878906" style="fill:none;stroke-width:.5;stroke-linecap:square;stroke-linejoin:round;stroke:#000;stroke-opacity:.1;stroke-miterlimit:10" transform="matrix(1 0 0 -1 0 216)"/></g><path d="m245.558594 14.285156v3.5" fill="none" stroke="#000" stroke-linejoin="round" stroke-miterlimit="10" stroke-width=".8" transform="matrix(1 0 0 -1 0 216)"/><use x="243.565852" xlink:href="#D" y="210.917832"/><g clip-path="url(#e)"><path d="m14.304688 41.988281h270.859374" style="fill:none;stroke-width:.5;stroke-linecap:square;stroke-linejoin:round;stroke:#000;stroke-opacity:.1;stroke-miterlimit:10" transform="matrix(1 0 0 -1 0 216)"/></g><path d="m14.304688 41.988281h3.5" fill="none" stroke="#000" stroke-linejoin="round" stroke-miterlimit="10" stroke-width=".8" transform="matrix(1 0 0 -1 0 216)"/><g><use x="4.165683" xlink:href="#A" y="176.864525"/><use x="6.811761" xlink:href="#E" y="176.864525"/></g><g clip-path="url(#f)"><path d="m14.304688 97.171875h270.859374" style="fill:none;stroke-width:.5;stroke-linecap:square;stroke-linejoin:round;stroke:#000;stroke-opacity:.1;stroke-miterlimit:10" transform="matrix(1 0 0 -1 0 216)"/></g><path d="m14.304688 97.171875h3.5" fill="none" stroke="#000" stroke-linejoin="round" stroke-miterlimit="10" stroke-width=".8" transform="matrix(1 0 0 -1 0 216)"/><use x="6.819702" xlink:href="#C" y="121.681228"/><g clip-path="url(#g)"><path d="m14.304688 152.351562h270.859374" style="fill:none;stroke-width:.5;stroke-linecap:square;stroke-linejoin:round;stroke:#000;stroke-opacity:.1;stroke-miterlimit:10" transform="matrix(1 0 0 -1 0 216)"/></g><path d="m14.304688 152.351562h3.5" fill="none" stroke="#000" stroke-linejoin="round" stroke-miterlimit="10" stroke-width=".8" transform="matrix(1 0 0 -1 0 216)"/><use x="6.819702" xlink:href="#E" y="66.497931"/><g clip-path="url(#h)"><path d="m14.304688 207.535156h270.859374" style="fill:none;stroke-width:.5;stroke-linecap:square;stroke-linejoin:round;stroke:#000;stroke-opacity:.1;stroke-miterlimit:10" transform="matrix(1 0 0 -1 0 216)"/></g><path d="m14.304688 207.535156h3.5" fill="none" stroke="#000" stroke-linejoin="round" stroke-miterlimit="10" stroke-width=".8" transform="matrix(1 0 0 -1 0 216)"/><g><use x="2.834646" xlink:href="#F" y="11.314634"/><use x="6.819702" xlink:href="#C" y="11.314634"/></g><path d="m21.96875 28.671875 255.53125 168.179687" style="fill:none;stroke-width:2;stroke-linecap:round;stroke-linejoin:round;stroke:#036;stroke-miterlimit:10" transform="matrix(1 0 0 -1 0 216)"/><g clip-path="url(#i)"><path d="m21.96875 189.050781c1.0625 0 2.082031-.421875 2.832031-1.171875s1.167969-1.769531 1.167969-2.828125c0-1.0625-.417969-2.078125-1.167969-2.828125s-1.769531-1.171875-2.832031-1.171875c-1.058594 0-2.078125.421875-2.828125 1.171875s-1.171875 1.765625-1.171875 2.828125c0 1.058594.421875 2.078125 1.171875 2.828125s1.769531 1.171875 2.828125 1.171875zm0 0" fill="#90ee90"/></g><g clip-path="url(#j)"><path d="m-.00187369-4.000889c1.06249969 0 2.08203169.421875 2.83203169 1.171875s1.167968 1.769531 1.167968 2.82812487c0 1.06250013-.417968 2.07812513-1.167968 2.82812513s-1.769532 1.171875-2.83203169 1.171875c-1.05859331 0-2.07812531-.421875-2.82812531-1.171875s-1.171875-1.765625-1.171875-2.82812513c0-1.05859387.421875-2.07812487 1.171875-2.82812487s1.769532-1.171875 2.82812531-1.171875zm0 0" fill="none" stroke="#000" stroke-linejoin="round" stroke-miterlimit="10" transform="matrix(1 0 0 -1 21.970624 185.049892)"/></g><g clip-path="url(#k)"><path d="m245.558594 56.609375c1.0625 0 2.078125-.421875 2.828125-1.171875s1.171875-1.765625 1.171875-2.828125c0-1.058594-.421875-2.078125-1.171875-2.828125s-1.765625-1.171875-2.828125-1.171875-2.078125.421875-2.828125 1.171875-1.171875 1.769531-1.171875 2.828125c0 1.0625.421875 2.078125 1.171875 2.828125s1.765625 1.171875 2.828125 1.171875zm0 0" fill="#90ee90"/></g><g clip-path="url(#l)"><path d="m.00021345-3.999396c1.06249955 0 2.07812455.421875 2.82812455 1.171875s1.171875 1.765625 1.171875 2.8281255c0 1.0585935-.421875 2.0781245-1.171875 2.8281245s-1.765625 1.171875-2.82812455 1.171875c-1.06250045 0-2.07812545-.421875-2.82812545-1.171875s-1.171875-1.769531-1.171875-2.8281245c0-1.0625005.421875-2.0781255 1.171875-2.8281255s1.765625-1.171875 2.82812545-1.171875zm0 0" fill="none" stroke="#000" stroke-linejoin="round" stroke-miterlimit="10" transform="matrix(1 0 0 -1 245.55838 52.609979)"/></g><g clip-path="url(#m)"><path d="m277.5 12.464844c1.058594 0 2.078125-.421875 2.828125-1.171875s1.171875-1.769531 1.171875-2.828125c0-1.0625-.421875-2.078125-1.171875-2.828125s-1.769531-1.171875-2.828125-1.171875c-1.0625 0-2.078125.421875-2.828125 1.171875s-1.171875 1.765625-1.171875 2.828125c0 1.058594.421875 2.078125 1.171875 2.828125s1.765625 1.171875 2.828125 1.171875zm0 0" fill="#90ee90"/></g><g clip-path="url(#n)"><path d="m.00051161-4.001502c1.05859339 0 2.07812539.421875 2.82812539 1.171875s1.171875 1.769531 1.171875 2.82812521c0 1.06249979-.421875 2.07812479-1.171875 2.82812479s-1.769532 1.171875-2.82812539 1.171875c-1.06249961 0-2.07812461-.421875-2.82812461-1.171875s-1.171875-1.765625-1.171875-2.82812479c0-1.05859421.421875-2.07812521 1.171875-2.82812521s1.765625-1.171875 2.82812461-1.171875zm0 0" fill="none" stroke="#000" stroke-linejoin="round" stroke-miterlimit="10" transform="matrix(1 0 0 -1 277.499488 8.463342)"/></g><g clip-path="url(#o)"><path d="m85.851562 133.867188c1.0625 0 2.078126-.421876 2.828126-1.171876s1.171874-1.769531 1.171874-2.828124c0-1.0625-.421874-2.078126-1.171874-2.828126s-1.765626-1.171874-2.828126-1.171874c-1.058593 0-2.078124.421874-2.828124 1.171874s-1.171876 1.765626-1.171876 2.828126c0 1.058593.421876 2.078124 1.171876 2.828124s1.769531 1.171876 2.828124 1.171876zm0 0" fill="#90ee90"/></g><g clip-path="url(#p)"><path d="m-.00127737-4.000592c1.06250037 0 2.07812537.421875 2.82812537 1.171875s1.171875 1.769531 1.171875 2.8281247c0 1.0625003-.421875 2.0781253-1.171875 2.8281253s-1.765625 1.171875-2.82812537 1.171875c-1.05859363 0-2.07812463-.421875-2.82812463-1.171875s-1.171875-1.765625-1.171875-2.8281253c0-1.0585937.421875-2.0781247 1.171875-2.8281247s1.769531-1.171875 2.82812463-1.171875zm0 0" fill="none" stroke="#000" stroke-linejoin="round" stroke-miterlimit="10" transform="matrix(1 0 0 -1 85.85284 129.866595)"/></g><g clip-path="url(#q)"><path d="m181.675781 67.648438c1.0625 0 2.078125-.421876 2.828125-1.171876s1.171875-1.769531 1.171875-2.828124c0-1.0625-.421875-2.082032-1.171875-2.832032s-1.765625-1.167968-2.828125-1.167968c-1.058593 0-2.078125.417968-2.828125 1.167968s-1.171875 1.769532-1.171875 2.832032c0 1.058593.421875 2.078124 1.171875 2.828124s1.769532 1.171876 2.828125 1.171876zm0 0" fill="#90ee90"/></g><g clip-path="url(#r)"><path d="m-.00038288-4.001799c1.06249988 0 2.07812488.421875 2.82812488 1.171875s1.171875 1.769532 1.171875 2.82812538c0 1.06249962-.421875 2.08203162-1.171875 2.83203162s-1.765625 1.167968-2.82812488 1.167968c-1.05859412 0-2.07812512-.417968-2.82812512-1.167968s-1.171875-1.769532-1.171875-2.83203162c0-1.05859338.421875-2.07812538 1.171875-2.82812538s1.769531-1.171875 2.82812512-1.171875zm0 0" fill="none" stroke="#000" stroke-linejoin="round" stroke-miterlimit="10" transform="matrix(1 0 0 -1 181.676164 63.646639)"/></g><g clip-path="url(#s)"><path d="m85.851562 144.902344c1.0625 0 2.078126-.421875 2.828126-1.171875s1.171874-1.765625 1.171874-2.828125c0-1.058594-.421874-2.078125-1.171874-2.828125s-1.765626-1.171875-2.828126-1.171875c-1.058593 0-2.078124.421875-2.828124 1.171875s-1.171876 1.769531-1.171876 2.828125c0 1.0625.421876 2.078125 1.171876 2.828125s1.769531 1.171875 2.828124 1.171875zm0 0" fill="#90ee90"/></g><g clip-path="url(#t)"><path d="m-.00127737-3.999089c1.06250037 0 2.07812537.421875 2.82812537 1.171875s1.171875 1.765625 1.171875 2.82812483c0 1.05859417-.421875 2.07812517-1.171875 2.82812517s-1.765625 1.171875-2.82812537 1.171875c-1.05859363 0-2.07812463-.421875-2.82812463-1.171875s-1.171875-1.769531-1.171875-2.82812517c0-1.06249983.421875-2.07812483 1.171875-2.82812483s1.769531-1.171875 2.82812463-1.171875zm0 0" fill="none" stroke="#000" stroke-linejoin="round" stroke-miterlimit="10" transform="matrix(1 0 0 -1 85.85284 140.903255)"/></g><g clip-path="url(#u)"><path d="m117.792969 144.902344c1.0625 0 2.078125-.421875 2.828125-1.171875s1.171875-1.765625 1.171875-2.828125c0-1.058594-.421875-2.078125-1.171875-2.828125s-1.765625-1.171875-2.828125-1.171875c-1.058594 0-2.078125.421875-2.828125 1.171875s-1.171875 1.769531-1.171875 2.828125c0 1.0625.421875 2.078125 1.171875 2.828125s1.769531 1.171875 2.828125 1.171875zm0 0" fill="#90ee90"/></g><g clip-path="url(#v)"><path d="m-.0009792-3.999089c1.0625002 0 2.0781252.421875 2.8281252 1.171875s1.171875 1.765625 1.171875 2.82812483c0 1.05859417-.421875 2.07812517-1.171875 2.82812517s-1.765625 1.171875-2.8281252 1.171875c-1.0585938 0-2.0781248-.421875-2.8281248-1.171875s-1.171875-1.769531-1.171875-2.82812517c0-1.06249983.421875-2.07812483 1.171875-2.82812483s1.769531-1.171875 2.8281248-1.171875zm0 0" fill="none" stroke="#000" stroke-linejoin="round" stroke-miterlimit="10" transform="matrix(1 0 0 -1 117.793948 140.903255)"/></g><g clip-path="url(#w)"><path d="m21.96875 200.085938c1.0625 0 2.082031-.421876 2.832031-1.171876s1.167969-1.765624 1.167969-2.828124c0-1.058594-.417969-2.078126-1.167969-2.828126s-1.769531-1.171874-2.832031-1.171874c-1.058594 0-2.078125.421874-2.828125 1.171874s-1.171875 1.769532-1.171875 2.828126c0 1.0625.421875 2.078124 1.171875 2.828124s1.769531 1.171876 2.828125 1.171876zm0 0" fill="#90ee90"/></g><g clip-path="url(#x)"><path d="m-.00187369-3.999386c1.06249969 0 2.08203169.421875 2.83203169 1.171875s1.167968 1.765625 1.167968 2.82812501c0 1.05859399-.417968 2.07812499-1.167968 2.82812499s-1.769532 1.171875-2.83203169 1.171875c-1.05859331 0-2.07812531-.421875-2.82812531-1.171875s-1.171875-1.769531-1.171875-2.82812499c0-1.06250001.421875-2.07812501 1.171875-2.82812501s1.769532-1.171875 2.82812531-1.171875zm0 0" fill="none" stroke="#000" stroke-linejoin="round" stroke-miterlimit="10" transform="matrix(1 0 0 -1 21.970624 196.086552)"/></g><g clip-path="url(#y)"><path d="m213.617188 78.683594c1.0625 0 2.078124-.421875 2.828124-1.171875s1.171876-1.769531 1.171876-2.828125c0-1.0625-.421876-2.078125-1.171876-2.828125s-1.765624-1.171875-2.828124-1.171875-2.078126.421875-2.828126 1.171875-1.171874 1.765625-1.171874 2.828125c0 1.058594.421874 2.078125 1.171874 2.828125s1.765626 1.171875 2.828126 1.171875zm0 0" fill="#90ee90"/></g><g clip-path="url(#z)"><path d="m-.00008471-4.000295c1.06249971 0 2.07812471.421875 2.82812471 1.171875s1.171875 1.769531 1.171875 2.82812452c0 1.06250048-.421875 2.07812548-1.171875 2.82812548s-1.765625 1.171875-2.82812471 1.171875c-1.06250029 0-2.07812529-.421875-2.82812529-1.171875s-1.171875-1.765625-1.171875-2.82812548c0-1.05859352.421875-2.07812452 1.171875-2.82812452s1.765625-1.171875 2.82812529-1.171875zm0 0" fill="none" stroke="#000" stroke-linejoin="round" stroke-miterlimit="10" transform="matrix(1 0 0 -1 213.617272 74.683298)"/></g><g fill="none" stroke="#000" stroke-linecap="square" stroke-miterlimit="10" transform="matrix(1 0 0 -1 0 216)"><path d="m14.304688 14.285156v198.878906"/><path d="m285.164062 14.285156v198.878906" stroke-opacity=".5" stroke-width=".5"/><path d="m14.304688 14.285156h270.859374"/><path d="m14.304688 213.164062h270.859374" stroke-opacity=".5" stroke-width=".5"/></g></svg>