<svg height="216pt" viewBox="0 0 288 216" width="288pt" xmlns="http://www.w3.org/2000/svg" xmlns:xlink="http://www.w3.org/1999/xlink"><clipPath id="a"><path d="m64 5.6875h2v196.027344h-2zm0 0"/></clipPath><clipPath id="b"><path d="m117 5.6875h2v196.027344h-2zm0 0"/></clipPath><clipPath id="c"><path d="m170 5.6875h2v196.027344h-2zm0 0"/></clipPath><clipPath id="d"><path d="m224 5.6875h1v196.027344h-1zm0 0"/></clipPath><clipPath id="e"><path d="m277 5.6875h1v196.027344h-1zm0 0"/></clipPath><clipPath id="f"><path d="m18.289062 201h266.875v.714844h-266.875zm0 0"/></clipPath><clipPath id="g"><path d="m18.289062 168h266.875v2h-266.875zm0 0"/></clipPath><clipPath id="h"><path d="m18.289062 136h266.875v1h-266.875zm0 0"/></clipPath><clipPath id="i"><path d="m18.289062 103h266.875v2h-266.875zm0 0"/></clipPath><clipPath id="j"><path d="m18.289062 70h266.875v2h-266.875zm0 0"/></clipPath><clipPath id="k"><path d="m18.289062 38h266.875v1h-266.875zm0 0"/></clipPath><clipPath id="l"><path d="m18.289062 5.6875h266.875v1.3125h-266.875zm0 0"/></clipPath><clipPath id="m"><path d="m24 5.6875h255v196.027344h-255zm0 0"/></clipPath><clipPath id="n"><path d="m25 196.234375h8.890625v5.480469h-8.890625zm0 0"/></clipPath><clipPath id="o"><path d="m24.890625 196.234375h9v5.480469h-9zm0 0"/></clipPath><clipPath id="p"><path d="m202.191406 66h8.808594v8.550781h-8.808594zm0 0"/></clipPath><clipPath id="q"><path d="m202.191406 65.550781h9v9h-9zm0 0"/></clipPath><clipPath id="r"><path d="m273.113281 12h8.886719v8.640625h-8.886719zm0 0"/></clipPath><clipPath id="s"><path d="m273.113281 11.640625h9v9h-9zm0 0"/></clipPath><clipPath id="t"><path d="m114 158.007812h8.539062v8.992188h-8.539062zm0 0"/></clipPath><clipPath id="u"><path d="m113.539062 158.007812h9v9h-9zm0 0"/></clipPath><clipPath id="v"><path d="m96 152.457031h8.808594v8.542969h-8.808594zm0 0"/></clipPath><clipPath id="w"><path d="m95.808594 152.457031h9v9h-9zm0 0"/></clipPath><clipPath id="x"><path d="m78.078125 187.085938h8.921875v8.914062h-8.921875zm0 0"/></clipPath><clipPath id="y"><path d="m78.078125 187.085938h9v9h-9zm0 0"/></clipPath><clipPath id="z"><path d="m167 81.230469h8.730469v8.769531h-8.730469zm0 0"/></clipPath><clipPath id="A"><path d="m166.730469 81.230469h9v9h-9zm0 0"/></clipPath><clipPath id="B"><path d="m78.078125 172.386719h8.921875v8.613281h-8.921875zm0 0"/></clipPath><clipPath id="C"><path d="m78.078125 172.386719h9v9h-9zm0 0"/></clipPath><symbol id="D" overflow="visible"><path d="m3.3125-5.359375-.296875-.125c-.765625.25-1.09375.40625-1.5.765625-.8125.6875-1.265625 1.65625-1.265625 2.75 0 1.3125.640625 2.125 1.671875 2.125s1.8125-.8125 1.8125-1.90625c0-.90625-.5625-1.515625-1.40625-1.515625-.390625 0-.625.109375-1.09375.484375-.09375.078125-.109375.078125-.1875.140625.171875-1.4375.828125-2.21875 2.265625-2.65625zm-1.28125 2.578125c.609375 0 1.015625.53125 1.015625 1.3125 0 .828125-.40625 1.359375-1.015625 1.359375-.6875 0-1.046875-.578125-1.046875-1.640625 0-.28125.03125-.4375.109375-.5625.1875-.28125.5625-.46875.9375-.46875zm0 0"/></symbol><symbol id="E" overflow="visible"><path d="m.765625.15625c.890625-.28125 1.265625-.46875 1.703125-.828125.765625-.671875 1.171875-1.578125 1.171875-2.65625 0-1.34375-.640625-2.15625-1.703125-2.15625-1.015625 0-1.78125.796875-1.78125 1.859375 0 .921875.59375 1.578125 1.421875 1.578125.28125 0 .59375-.078125.734375-.203125l.5625-.453125c-.0625 1.328125-.9375 2.3125-2.375 2.65625v.078125zm1.140625-5.390625c.359375 0 .625.15625.796875.484375.15625.25.25.640625.25 1 0 .734375-.421875 1.21875-1.046875 1.21875s-1.0625-.5625-1.0625-1.390625c0-.796875.421875-1.3125 1.0625-1.3125zm0 0"/></symbol><symbol id="F" overflow="visible"><path d="m.53125-4.421875h.078125l1.03125-.46875h.03125c.046875 0 .0625.0625.0625.265625v3.859375c0 .421875-.09375.5-.515625.53125l-.453125.015625v.25c1.21875-.03125 1.21875-.03125 1.3125-.03125.109375 0 .28125 0 .546875.015625.09375 0 .375 0 .703125.015625v-.25l-.40625-.015625c-.4375-.03125-.515625-.109375-.515625-.53125v-4.71875l-.125-.046875c-.515625.265625-1.078125.515625-1.796875.765625zm0 0"/></symbol><symbol id="G" overflow="visible"><path d="m.125-.1875v.21875c1.5-.03125 1.5-.03125 1.78125-.03125s.28125 0 1.828125.03125c-.015625-.171875-.015625-.25-.015625-.359375s0-.1875.015625-.359375c-.921875.03125-1.28125.046875-2.765625.078125l1.453125-1.546875c.78125-.8125 1.015625-1.25 1.015625-1.859375 0-.90625-.625-1.46875-1.640625-1.46875-.5625 0-.953125.15625-1.34375.546875l-.140625 1.09375h.234375l.09375-.375c.125-.453125.421875-.65625.953125-.65625.6875 0 1.125.421875 1.125 1.109375 0 .59375-.34375 1.1875-1.234375 2.140625zm0 0"/></symbol><symbol id="H" overflow="visible"><path d="m1.015625-4.828125c1.03125.03125 1.46875.046875 2.421875.046875l.046875-.046875c-.015625-.140625-.015625-.203125-.015625-.296875 0-.125 0-.1875.015625-.328125l-.046875-.03125c-.59375.03125-.953125.03125-1.375.03125-.4375 0-.796875 0-1.390625-.03125l-.046875.03125c.015625.484375.015625.84375.015625 1.09375 0 .671875-.015625 1.4375-.046875 1.796875l.15625.046875c.375-.375.59375-.484375.984375-.484375.765625 0 1.25.53125 1.25 1.390625 0 .890625-.515625 1.40625-1.375 1.40625-.4375 0-.84375-.140625-.953125-.34375l-.359375-.65625-.1875.109375c.171875.453125.265625.71875.390625 1.0625.21875.125.53125.1875.875.1875.53125 0 1.109375-.234375 1.546875-.609375.484375-.4375.734375-.96875.734375-1.5625 0-.90625-.640625-1.53125-1.546875-1.53125-.390625 0-.671875.09375-1.171875.390625zm0 0"/></symbol><symbol id="I" overflow="visible"><path d="m1.34375-2.75c-.328125.15625-.46875.234375-.640625.40625-.3125.296875-.46875.65625-.46875 1.078125 0 .8125.671875 1.421875 1.5625 1.421875 1.046875 0 1.90625-.8125 1.90625-1.796875 0-.640625-.296875-.984375-1.203125-1.390625.71875-.5.96875-.828125.96875-1.3125 0-.6875-.5625-1.140625-1.40625-1.140625-.953125 0-1.640625.59375-1.640625 1.4375 0 .546875.21875.84375.921875 1.296875zm.921875.40625c.5.21875.796875.609375.796875 1.03125 0 .671875-.5 1.203125-1.140625 1.203125-.671875 0-1.109375-.484375-1.109375-1.21875 0-.578125.21875-.953125.8125-1.3125zm-.484375-1.03125c-.5-.25-.765625-.5625-.765625-.953125 0-.53125.390625-.890625.953125-.890625.578125 0 .96875.375.96875.96875 0 .453125-.203125.765625-.71875 1.09375zm0 0"/></symbol><symbol id="J" overflow="visible"><path d="m2.09375-5.484375c-1.234375 0-1.859375.96875-1.859375 2.90625 0 .921875.15625 1.734375.4375 2.125s.734375.609375 1.21875.609375c1.203125 0 1.8125-1.03125 1.8125-3.078125 0-1.734375-.515625-2.5625-1.609375-2.5625zm-.140625.265625c.765625 0 1.078125.78125 1.078125 2.703125 0 1.6875-.296875 2.390625-1.03125 2.390625-.765625 0-1.09375-.796875-1.09375-2.75 0-1.671875.28125-2.34375 1.046875-2.34375zm0 0"/></symbol><symbol id="K" overflow="visible"><path d="m.34375-3.96875h.25l.140625-.453125c.09375-.265625.59375-.53125 1-.53125.515625 0 .9375.421875.9375.921875 0 .59375-.46875 1.09375-1.03125 1.09375-.0625 0-.15625 0-.25-.015625h-.125l-.09375.421875.0625.046875c.296875-.140625.453125-.171875.65625-.171875.671875 0 1.046875.421875 1.046875 1.140625 0 .8125-.484375 1.34375-1.21875 1.34375-.375 0-.703125-.109375-.9375-.34375-.1875-.171875-.296875-.359375-.453125-.78125l-.203125.078125c.15625.484375.21875.765625.265625 1.171875.4375.140625.78125.203125 1.078125.203125.640625 0 1.375-.359375 1.8125-.890625.265625-.328125.40625-.671875.40625-1.046875 0-.390625-.171875-.71875-.453125-.921875-.203125-.140625-.375-.203125-.78125-.28125.640625-.484375.875-.859375.875-1.328125 0-.703125-.59375-1.171875-1.46875-1.171875-.546875 0-.90625.140625-1.28125.53125zm0 0"/></symbol><symbol id="L" overflow="visible"><path d="m2.234375-1.4375v.59375c0 .484375-.09375.59375-.484375.609375l-.484375.015625v.25c1.046875-.03125 1.046875-.03125 1.25-.03125.1875 0 .1875 0 1.25.03125v-.25l-.390625-.015625c-.390625-.03125-.46875-.125-.46875-.609375v-.59375c.46875 0 .625 0 .859375.03125v-.5625c-.375.03125-.53125.03125-.65625.015625h-.203125v-1.109375c0-1.421875.015625-2.09375.046875-2.421875l-.09375-.046875-.59375.21875-2.25 3.6875.09375.1875zm0-.515625h-1.71875l1.71875-2.796875zm0 0"/></symbol><path d="m0 0h288v216h-288z" fill="#fff"/><path d="m18.289062 201.714844h266.875v-196.027344h-266.875zm0 0" fill="#fff"/><g clip-path="url(#a)"><path d="m64.847656 14.285156v196.027344" style="fill:none;stroke-width:.5;stroke-linecap:square;stroke-linejoin:round;stroke:#000;stroke-opacity:.1;stroke-miterlimit:10" transform="matrix(1 0 0 -1 0 216)"/></g><path d="m64.847656 14.285156v3.5" fill="none" stroke="#000" stroke-linejoin="round" stroke-miterlimit="10" stroke-width=".8" transform="matrix(1 0 0 -1 0 216)"/><use x="62.85689" xlink:href="#D" y="210.917832"/><g clip-path="url(#b)"><path d="m118.039062 14.285156v196.027344" style="fill:none;stroke-width:.5;stroke-linecap:square;stroke-linejoin:round;stroke:#000;stroke-opacity:.1;stroke-miterlimit:10" transform="matrix(1 0 0 -1 0 216)"/></g><path d="m118.039062 14.285156v3.5" fill="none" stroke="#000" stroke-linejoin="round" stroke-miterlimit="10" stroke-width=".8" transform="matrix(1 0 0 -1 0 216)"/><use x="116.047604" xlink:href="#E" y="210.917832"/><g clip-path="url(#c)"><path d="m171.230469 14.285156v196.027344" style="fill:none;stroke-width:.5;stroke-linecap:square;stroke-linejoin:round;stroke:#000;stroke-opacity:.1;stroke-miterlimit:10" transform="matrix(1 0 0 -1 0 216)"/></g><path d="m171.230469 14.285156v3.5" fill="none" stroke="#000" stroke-linejoin="round" stroke-miterlimit="10" stroke-width=".8" transform="matrix(1 0 0 -1 0 216)"/><g><use x="167.24579" xlink:href="#F" y="210.917832"/><use x="171.230846" xlink:href="#G" y="210.917832"/></g><g clip-path="url(#d)"><path d="m224.421875 14.285156v196.027344" style="fill:none;stroke-width:.5;stroke-linecap:square;stroke-linejoin:round;stroke:#000;stroke-opacity:.1;stroke-miterlimit:10" transform="matrix(1 0 0 -1 0 216)"/></g><path d="m224.421875 14.285156v3.5" fill="none" stroke="#000" stroke-linejoin="round" stroke-miterlimit="10" stroke-width=".8" transform="matrix(1 0 0 -1 0 216)"/><g><use x="220.436503" xlink:href="#F" y="210.917832"/><use x="224.421559" xlink:href="#H" y="210.917832"/></g><g clip-path="url(#e)"><path d="m277.613281 14.285156v196.027344" style="fill:none;stroke-width:.5;stroke-linecap:square;stroke-linejoin:round;stroke:#000;stroke-opacity:.1;stroke-miterlimit:10" transform="matrix(1 0 0 -1 0 216)"/></g><path d="m277.613281 14.285156v3.5" fill="none" stroke="#000" stroke-linejoin="round" stroke-miterlimit="10" stroke-width=".8" transform="matrix(1 0 0 -1 0 216)"/><g><use x="273.627217" xlink:href="#F" y="210.917832"/><use x="277.612273" xlink:href="#I" y="210.917832"/></g><g clip-path="url(#f)"><path d="m18.289062 14.285156h266.875" style="fill:none;stroke-width:.5;stroke-linecap:square;stroke-linejoin:round;stroke:#000;stroke-opacity:.1;stroke-miterlimit:10" transform="matrix(1 0 0 -1 0 216)"/></g><path d="m18.289062 14.285156h3.5" fill="none" stroke="#000" stroke-linejoin="round" stroke-miterlimit="10" stroke-width=".8" transform="matrix(1 0 0 -1 0 216)"/><use x="10.804758" xlink:href="#J" y="204.56654"/><g clip-path="url(#g)"><path d="m18.289062 46.957031h266.875" style="fill:none;stroke-width:.5;stroke-linecap:square;stroke-linejoin:round;stroke:#000;stroke-opacity:.1;stroke-miterlimit:10" transform="matrix(1 0 0 -1 0 216)"/></g><path d="m18.289062 46.957031h3.5" fill="none" stroke="#000" stroke-linejoin="round" stroke-miterlimit="10" stroke-width=".8" transform="matrix(1 0 0 -1 0 216)"/><g><use x="2.834646" xlink:href="#F" y="171.894988"/><use x="6.819702" xlink:href="#J" y="171.894988"/><use x="10.804758" xlink:href="#J" y="171.894988"/></g><g clip-path="url(#h)"><path d="m18.289062 79.628906h266.875" style="fill:none;stroke-width:.5;stroke-linecap:square;stroke-linejoin:round;stroke:#000;stroke-opacity:.1;stroke-miterlimit:10" transform="matrix(1 0 0 -1 0 216)"/></g><path d="m18.289062 79.628906h3.5" fill="none" stroke="#000" stroke-linejoin="round" stroke-miterlimit="10" stroke-width=".8" transform="matrix(1 0 0 -1 0 216)"/><g><use x="2.834646" xlink:href="#G" y="139.223436"/><use x="6.819702" xlink:href="#J" y="139.223436"/><use x="10.804758" xlink:href="#J" y="139.223436"/></g><g clip-path="url(#i)"><path d="m18.289062 112.300781h266.875" style="fill:none;stroke-width:.5;stroke-linecap:square;stroke-linejoin:round;stroke:#000;stroke-opacity:.1;stroke-miterlimit:10" transform="matrix(1 0 0 -1 0 216)"/></g><path d="m18.289062 112.300781h3.5" fill="none" stroke="#000" stroke-linejoin="round" stroke-miterlimit="10" stroke-width=".8" transform="matrix(1 0 0 -1 0 216)"/><g><use x="2.834646" xlink:href="#K" y="106.551885"/><use x="6.819702" xlink:href="#J" y="106.551885"/><use x="10.804758" xlink:href="#J" y="106.551885"/></g><g clip-path="url(#j)"><path d="m18.289062 144.972656h266.875" style="fill:none;stroke-width:.5;stroke-linecap:square;stroke-linejoin:round;stroke:#000;stroke-opacity:.1;stroke-miterlimit:10" transform="matrix(1 0 0 -1 0 216)"/></g><path d="m18.289062 144.972656h3.5" fill="none" stroke="#000" stroke-linejoin="round" stroke-miterlimit="10" stroke-width=".8" transform="matrix(1 0 0 -1 0 216)"/><g><use x="2.834646" xlink:href="#L" y="73.880333"/><use x="6.819702" xlink:href="#J" y="73.880333"/><use x="10.804758" xlink:href="#J" y="73.880333"/></g><g clip-path="url(#k)"><path d="m18.289062 177.640625h266.875" style="fill:none;stroke-width:.5;stroke-linecap:square;stroke-linejoin:round;stroke:#000;stroke-opacity:.1;stroke-miterlimit:10" transform="matrix(1 0 0 -1 0 216)"/></g><path d="m18.289062 177.640625h3.5" fill="none" stroke="#000" stroke-linejoin="round" stroke-miterlimit="10" stroke-width=".8" transform="matrix(1 0 0 -1 0 216)"/><g><use x="2.834646" xlink:href="#H" y="41.208781"/><use x="6.819702" xlink:href="#J" y="41.208781"/><use x="10.804758" xlink:href="#J" y="41.208781"/></g><g clip-path="url(#l)"><path d="m18.289062 210.3125h266.875" style="fill:none;stroke-width:.5;stroke-linecap:square;stroke-linejoin:round;stroke:#000;stroke-opacity:.1;stroke-miterlimit:10" transform="matrix(1 0 0 -1 0 216)"/></g><path d="m18.289062 210.3125h3.5" fill="none" stroke="#000" stroke-linejoin="round" stroke-miterlimit="10" stroke-width=".8" transform="matrix(1 0 0 -1 0 216)"/><g><use x="2.834646" xlink:href="#D" y="8.537229"/><use x="6.819702" xlink:href="#J" y="8.537229"/><use x="10.804758" xlink:href="#J" y="8.537229"/></g><g clip-path="url(#m)"><path d="m25.84375 147.695312 1.265625-52.582031 1.265625-46.550781 1.566406-49.5625m45.085938 0 1.421875 7.273438 2.53125 11.667968 2.53125 10.054688 2.527343 8.464844 1.265626 3.648437 1.265624 3.277344 1.265626 2.914062 1.265624 2.566407 1.265626 2.234374 1.265624 1.914063 1.265626 1.613281 1.265624 1.332032 1.261719 1.070312 1.265625.824219 1.265625.601562 1.265625.394531 1.265625.210938 1.265625.046875 1.265625-.09375 2.527344-.550781 2.53125-.886719 5.0625-2.214844 3.792969-1.519531 2.53125-.726562 2.53125-.390626 1.265625-.039062 1.265625.070312 1.265625.191407 1.265625.320312 1.261718.453125 1.265626.589844 1.265624.726562 1.265626.875 1.265624 1.015626 2.53125 2.464843 2.527344 3.039063 2.53125 3.585937 2.53125 4.105469 2.53125 4.570312 2.53125 4.984376 3.792969 8.109374 5.0625 11.578126 8.855469 20.476562 3.796875 8.101562 2.527343 4.96875 2.53125 4.542969 2.53125 4.050781 2.53125 3.503907 2.527344 2.917969 1.265625 1.222656 1.265625 1.070312 1.265625.90625 1.265625.746094 1.265625.585938 1.265625.425781 1.265625.265625 1.261719.113281 1.265625-.042969 1.265625-.191406 1.265625-.332031 1.265625-.46875 2.53125-1.3125 2.53125-1.757813 2.527344-2.113281 3.796875-3.628906 6.324219-6.273438 2.53125-2.214843 2.53125-1.828126 1.265624-.730468 1.265626-.582032 1.265624-.414062 1.261719-.234375 1.265625-.035156 1.265625.179687 1.265625.410156 1.265625.652344 1.265625.90625 1.265625 1.175782 1.265625 1.453124 1.265625 1.734376 1.261719 2.027343 1.265625 2.324219 1.265625 2.621094 1.265625 2.917968 2.53125 6.707032 2.53125 7.8125 2.527344 8.792968 2.53125 9.585938 9.25 36.59375m15.085937 0 .96875-6.476562 1.265625-10.664063" style="fill:none;stroke-width:2;stroke-linecap:round;stroke-linejoin:round;stroke:#036;stroke-miterlimit:10" transform="matrix(1 0 0 -1 0 216)"/></g><g clip-path="url(#n)"><path d="m29.390625 204.734375c1.058594 0 2.078125-.421875 2.828125-1.171875s1.171875-1.765625 1.171875-2.828125c0-1.058594-.421875-2.078125-1.171875-2.828125s-1.769531-1.171875-2.828125-1.171875c-1.0625 0-2.078125.421875-2.832031 1.171875-.75.75-1.167969 1.769531-1.167969 2.828125 0 1.0625.417969 2.078125 1.167969 2.828125.753906.75 1.769531 1.171875 2.832031 1.171875zm0 0" fill="#90ee90"/></g><g clip-path="url(#o)"><path d="m.0016823-3.999274c1.0585937 0 2.0781247.421875 2.8281247 1.171875s1.171875 1.765625 1.171875 2.82812525c0 1.05859375-.421875 2.07812475-1.171875 2.82812475s-1.769531 1.171875-2.8281247 1.171875c-1.0625003 0-2.0781253-.421875-2.8320313-1.171875-.75-.75-1.167969-1.769531-1.167969-2.82812475 0-1.06250025.417969-2.07812525 1.167969-2.82812525.753906-.75 1.769531-1.171875 2.8320313-1.171875zm0 0" fill="none" stroke="#000" stroke-linejoin="round" stroke-miterlimit="10" transform="matrix(1 0 0 -1 29.388943 200.735101)"/></g><g clip-path="url(#p)"><path d="m206.691406 74.050781c1.0625 0 2.078125-.421875 2.828125-1.171875s1.171875-1.769531 1.171875-2.828125c0-1.0625-.421875-2.082031-1.171875-2.832031s-1.765625-1.167969-2.828125-1.167969-2.078125.417969-2.828125 1.167969-1.171875 1.769531-1.171875 2.832031c0 1.058594.421875 2.078125 1.171875 2.828125s1.765625 1.171875 2.828125 1.171875zm0 0" fill="#90ee90"/></g><g clip-path="url(#q)"><path d="m.00008477-4.001887c1.06250023 0 2.07812523.421875 2.82812523 1.171875s1.171875 1.769531 1.171875 2.82812518c0 1.06249982-.421875 2.08203082-1.171875 2.83203082s-1.765625 1.167969-2.82812523 1.167969c-1.06249977 0-2.07812477-.417969-2.82812477-1.167969s-1.171875-1.769531-1.171875-2.83203082c0-1.05859418.421875-2.07812518 1.171875-2.82812518s1.765625-1.171875 2.82812477-1.171875zm0 0" fill="none" stroke="#000" stroke-linejoin="round" stroke-miterlimit="10" transform="matrix(1 0 0 -1 206.691321 70.048894)"/></g><g clip-path="url(#r)"><path d="m277.613281 20.140625c1.058594 0 2.078125-.421875 2.828125-1.171875s1.171875-1.765625 1.171875-2.828125-.421875-2.078125-1.171875-2.828125-1.769531-1.171875-2.828125-1.171875c-1.0625 0-2.078125.421875-2.828125 1.171875s-1.171875 1.765625-1.171875 2.828125.421875 2.078125 1.171875 2.828125 1.765625 1.171875 2.828125 1.171875zm0 0" fill="#90ee90"/></g><g clip-path="url(#s)"><path d="m.00100826-3.999791c1.05859374 0 2.07812474.421875 2.82812474 1.171875s1.171875 1.765625 1.171875 2.82812512c0 1.06249988-.421875 2.07812488-1.171875 2.82812488s-1.769531 1.171875-2.82812474 1.171875c-1.06250026 0-2.07812526-.421875-2.82812526-1.171875s-1.171875-1.765625-1.171875-2.82812488c0-1.06250012.421875-2.07812512 1.171875-2.82812512s1.765625-1.171875 2.82812526-1.171875zm0 0" fill="none" stroke="#000" stroke-linejoin="round" stroke-miterlimit="10" transform="matrix(1 0 0 -1 277.612273 16.140834)"/></g><g clip-path="url(#t)"><path d="m118.039062 166.507812c1.0625 0 2.078126-.417968 2.828126-1.171874.75-.75 1.171874-1.765626 1.171874-2.828126 0-1.058593-.421874-2.078124-1.171874-2.828124s-1.765626-1.171876-2.828126-1.171876c-1.058593 0-2.078124.421876-2.828124 1.171876s-1.171876 1.769531-1.171876 2.828124c0 1.0625.421876 2.078126 1.171876 2.828126.75.753906 1.769531 1.171874 2.828124 1.171874zm0 0" fill="#90ee90"/></g><g clip-path="url(#u)"><path d="m-.00106959-3.998427c1.06249959 0 2.07812459.417969 2.82812459 1.171875.75.75 1.171875 1.765625 1.171875 2.82812525 0 1.05859375-.421875 2.07812475-1.171875 2.82812475s-1.765625 1.171875-2.82812459 1.171875c-1.05859341 0-2.07812541-.421875-2.82812541-1.171875s-1.171875-1.769531-1.171875-2.82812475c0-1.06250025.421875-2.07812525 1.171875-2.82812525.75-.753906 1.769532-1.171875 2.82812541-1.171875zm0 0" fill="none" stroke="#000" stroke-linejoin="round" stroke-miterlimit="10" transform="matrix(1 0 0 -1 118.040132 162.509386)"/></g><g clip-path="url(#v)"><path d="m100.308594 160.957031c1.0625 0 2.078125-.421875 2.828125-1.171875s1.171875-1.769531 1.171875-2.828125c0-1.0625-.421875-2.082031-1.171875-2.832031s-1.765625-1.167969-2.828125-1.167969c-1.058594 0-2.078125.417969-2.828125 1.167969s-1.171875 1.769531-1.171875 2.832031c0 1.058594.421875 2.078125 1.171875 2.828125s1.769531 1.171875 2.828125 1.171875zm0 0" fill="#90ee90"/></g><g clip-path="url(#w)"><path d="m-.00130046-4.001809c1.06250046 0 2.07812546.421875 2.82812546 1.171875s1.171875 1.769531 1.171875 2.82812471c0 1.06250029-.421875 2.08203129-1.171875 2.83203129s-1.765625 1.167969-2.82812546 1.167969c-1.05859354 0-2.07812454-.417969-2.82812454-1.167969s-1.171875-1.769531-1.171875-2.83203129c0-1.05859371.421875-2.07812471 1.171875-2.82812471s1.769531-1.171875 2.82812454-1.171875zm0 0" fill="none" stroke="#000" stroke-linejoin="round" stroke-miterlimit="10" transform="matrix(1 0 0 -1 100.309894 156.955222)"/></g><g clip-path="url(#x)"><path d="m82.578125 195.585938c1.0625 0 2.078125-.421876 2.828125-1.171876s1.171875-1.765624 1.171875-2.828124c0-1.058594-.421875-2.078126-1.171875-2.828126s-1.765625-1.171874-2.828125-1.171874c-1.058594 0-2.078125.421874-2.828125 1.171874s-1.171875 1.769532-1.171875 2.828126c0 1.0625.421875 2.078124 1.171875 2.828124s1.769531 1.171876 2.828125 1.171876zm0 0" fill="#90ee90"/></g><g clip-path="url(#y)"><path d="m-.00153134-3.998871c1.06250034 0 2.07812534.421875 2.82812534 1.171875s1.171875 1.765625 1.171875 2.82812527c0 1.05859373-.421875 2.07812473-1.171875 2.82812473s-1.765625 1.171875-2.82812534 1.171875c-1.05859366 0-2.07812466-.421875-2.82812466-1.171875s-1.171875-1.769531-1.171875-2.82812473c0-1.06250027.421875-2.07812527 1.171875-2.82812527s1.769531-1.171875 2.82812466-1.171875zm0 0" fill="none" stroke="#000" stroke-linejoin="round" stroke-miterlimit="10" transform="matrix(1 0 0 -1 82.579656 191.587067)"/></g><g clip-path="url(#z)"><path d="m171.230469 89.730469c1.0625 0 2.078125-.421875 2.828125-1.171875s1.171875-1.765625 1.171875-2.828125c0-1.058594-.421875-2.078125-1.171875-2.828125s-1.765625-1.171875-2.828125-1.171875c-1.058594 0-2.078125.421875-2.828125 1.171875s-1.171875 1.769531-1.171875 2.828125c0 1.0625.421875 2.078125 1.171875 2.828125s1.769531 1.171875 2.828125 1.171875zm0 0" fill="#90ee90"/></g><g clip-path="url(#A)"><path d="m-.00037698-3.999229c1.06249998 0 2.07812498.421875 2.82812498 1.171875s1.171875 1.765625 1.171875 2.8281245c0 1.0585935-.421875 2.0781255-1.171875 2.8281255s-1.765625 1.171875-2.82812498 1.171875c-1.05859402 0-2.07812502-.421875-2.82812502-1.171875s-1.171875-1.769532-1.171875-2.8281255c0-1.0624995.421875-2.0781245 1.171875-2.8281245s1.769531-1.171875 2.82812502-1.171875zm0 0" fill="none" stroke="#000" stroke-linejoin="round" stroke-miterlimit="10" transform="matrix(1 0 0 -1 171.230846 85.731239)"/></g><g clip-path="url(#B)"><path d="m82.578125 180.886719c1.0625 0 2.078125-.421875 2.828125-1.171875s1.171875-1.769532 1.171875-2.828125c0-1.0625-.421875-2.082031-1.171875-2.832031s-1.765625-1.167969-2.828125-1.167969c-1.058594 0-2.078125.417969-2.828125 1.167969s-1.171875 1.769531-1.171875 2.832031c0 1.058593.421875 2.078125 1.171875 2.828125s1.769531 1.171875 2.828125 1.171875zm0 0" fill="#90ee90"/></g><g clip-path="url(#C)"><path d="m-.00153134-4.00185c1.06250034 0 2.07812534.421875 2.82812534 1.171875s1.171875 1.769531 1.171875 2.82812475c0 1.06250025-.421875 2.08203125-1.171875 2.83203125s-1.765625 1.167969-2.82812534 1.167969c-1.05859366 0-2.07812466-.417969-2.82812466-1.167969s-1.171875-1.769531-1.171875-2.83203125c0-1.05859375.421875-2.07812475 1.171875-2.82812475s1.769531-1.171875 2.82812466-1.171875zm0 0" fill="none" stroke="#000" stroke-linejoin="round" stroke-miterlimit="10" transform="matrix(1 0 0 -1 82.579656 176.884869)"/></g><g fill="none" stroke="#000" stroke-linecap="square" stroke-miterlimit="10" transform="matrix(1 0 0 -1 0 216)"><path d="m18.289062 14.285156v196.027344"/><path d="m285.164062 14.285156v196.027344" stroke-opacity=".5" stroke-width=".5"/><path d="m18.289062 14.285156h266.875"/><path d="m18.289062 210.3125h266.875" stroke-opacity=".5" stroke-width=".5"/></g></svg>