<svg height="179.637pt" viewBox="0 0 407.2787 179.637" width="407.2787pt" xmlns="http://www.w3.org/2000/svg" xmlns:xlink="http://www.w3.org/1999/xlink"><clipPath id="a"><path d="m160 1h99v178.636719h-99zm0 0"/></clipPath><clipPath id="b"><path d="m304 1h99v178.636719h-99zm0 0"/></clipPath><symbol id="c" overflow="visible"><path d="m2.921875-1.90625c-.59375 1.015625-1.1875 1.359375-2.015625 1.40625-.1875.015625-.328125.015625-.328125.328125 0 .109375.09375.171875.21875.171875.3125 0 1.078125-.03125 1.390625-.03125.5 0 1.046875.03125 1.53125.03125.109375 0 .3125 0 .3125-.328125 0-.15625-.140625-.171875-.25-.171875-.390625-.03125-.71875-.171875-.71875-.578125 0-.25.109375-.4375.328125-.8125l1.3125-2.171875h4.390625c.015625.15625.015625.296875.03125.453125.046875.4375.265625 2.234375.265625 2.5625 0 .515625-.890625.546875-1.15625.546875-.1875 0-.375 0-.375.3125 0 .1875.140625.1875.25.1875.296875 0 .640625-.03125.9375-.03125h.96875c1.0625 0 1.8125.03125 1.828125.03125.125 0 .3125 0 .3125-.328125 0-.171875-.15625-.171875-.40625-.171875-.953125 0-.96875-.15625-1.015625-.671875l-1.0625-10.75c-.03125-.34375-.09375-.375-.28125-.375-.171875 0-.28125.03125-.4375.296875zm2.078125-2.65625 3.453125-5.78125.59375 5.78125zm0 0"/></symbol><symbol id="d" overflow="visible"><path d="m6.296875-10.59375c.15625-.640625.234375-.671875.90625-.671875h2.234375c1.9375 0 1.9375 1.65625 1.9375 1.8125 0 1.390625-1.390625 3.171875-3.65625 3.171875h-2.484375zm2.921875 4.453125c1.875-.34375 3.578125-1.65625 3.578125-3.25 0-1.34375-1.1875-2.375-3.140625-2.375h-5.53125c-.3125 0-.46875 0-.46875.328125 0 .171875.15625.171875.40625.171875 1.046875 0 1.046875.140625 1.046875.328125 0 .03125 0 .140625-.0625.40625l-2.328125 9.25c-.15625.609375-.1875.78125-1.390625.78125-.328125 0-.5 0-.5.3125 0 .1875.109375.1875.453125.1875h5.90625c2.625 0 4.65625-2 4.65625-3.734375 0-1.40625-1.234375-2.28125-2.625-2.40625zm-2.453125 5.640625h-2.328125c-.234375 0-.265625 0-.375-.015625-.1875-.015625-.203125-.046875-.203125-.1875 0-.125.03125-.234375.0625-.375l1.203125-4.859375h3.25c2.03125 0 2.03125 1.890625 2.03125 2.03125 0 1.65625-1.5 3.40625-3.640625 3.40625zm0 0"/></symbol><symbol id="e" overflow="visible"><path d="m7.671875-6.921875c.359375 0 .484375 0 .484375-.328125 0-.171875-.125-.171875-.4375-.171875h-1.40625c.328125-1.765625.578125-3 .71875-3.546875.09375-.40625.453125-.8125.90625-.8125.359375 0 .71875.15625.890625.3125-.671875.0625-.875.5625-.875.859375 0 .34375.265625.546875.59375.546875.34375 0 .859375-.28125.859375-.9375 0-.71875-.734375-1.125-1.484375-1.125-.734375 0-1.46875.546875-1.8125 1.21875-.3125.609375-.484375 1.234375-.875 3.484375h-1.15625c-.328125 0-.5 0-.5.3125 0 .1875.109375.1875.453125.1875h1.09375c-.296875 1.59375-1.015625 5.5-1.40625 7.328125-.296875 1.5-.546875 2.765625-1.40625 2.765625-.0625 0-.5625 0-.859375-.328125.875-.078125.875-.828125.875-.84375 0-.34375-.265625-.546875-.59375-.546875-.34375 0-.859375.28125-.859375.9375 0 .75.765625 1.125 1.4375 1.125 1.75 0 2.46875-3.15625 2.65625-4.015625.3125-1.328125 1.15625-5.90625 1.25-6.421875zm0 0"/></symbol><symbol id="f" overflow="visible"><path d="m5.8125-2.1875c-.0625.28125-.09375.34375-.3125.609375-.71875.90625-1.4375 1.234375-1.96875 1.234375-.5625 0-1.109375-.453125-1.109375-1.640625 0-.90625.515625-2.84375.90625-3.609375.5-.96875 1.265625-1.65625 2-1.65625 1.125 0 1.359375 1.40625 1.359375 1.515625l-.0625.234375zm1.078125-4.265625c-.234375-.5-.703125-1.140625-1.5625-1.140625-1.890625 0-4.015625 2.359375-4.015625 4.921875 0 1.796875 1.078125 2.671875 2.1875 2.671875.90625 0 1.71875-.71875 2.03125-1.0625l-.390625 1.546875c-.234375.9375-.34375 1.375-.953125 1.984375-.703125.703125-1.359375.703125-1.75.703125-.515625 0-.9375-.03125-1.375-.171875.5625-.15625.6875-.640625.6875-.828125 0-.28125-.203125-.546875-.578125-.546875-.421875 0-.859375.34375-.859375.90625 0 .703125.703125.984375 2.171875.984375 2.21875 0 3.375-1.4375 3.59375-2.359375l1.90625-7.71875c.0625-.203125.0625-.234375.0625-.265625 0-.25-.1875-.4375-.453125-.4375-.40625 0-.65625.34375-.703125.8125zm0 0"/></symbol><symbol id="g" overflow="visible"><path d="m12.859375-11.96875c0-.15625-.125-.15625-.15625-.15625s-.09375 0-.234375.171875l-1.1875 1.453125c-.609375-1.03125-1.546875-1.625-2.84375-1.625-3.71875 0-7.578125 3.78125-7.578125 7.8125 0 2.890625 2.015625 4.671875 4.53125 4.671875 1.375 0 2.578125-.578125 3.578125-1.421875 1.5-1.265625 1.953125-2.9375 1.953125-3.0625 0-.15625-.140625-.15625-.1875-.15625-.15625 0-.171875.09375-.21875.171875-.78125 2.6875-3.109375 3.96875-4.828125 3.96875-1.828125 0-3.421875-1.171875-3.421875-3.609375 0-.5625.171875-3.546875 2.125-5.8125.953125-1.09375 2.5625-2.0625 4.203125-2.0625 1.890625 0 2.734375 1.5625 2.734375 3.328125 0 .4375-.046875.828125-.046875.890625 0 .15625.171875.15625.21875.15625.1875 0 .203125-.015625.28125-.328125zm0 0"/></symbol><path d="m188.7933 670.743c0 48.601563-21.492188 88-48 88s-48-39.398437-48-88c0-48.601562 21.492188-88 48-88s48 39.398438 48 88" style="fill-rule:evenodd;fill:#add8e6;fill-opacity:.3;stroke-width:2;stroke-linejoin:round;stroke:#00008b;stroke-opacity:.3;stroke-miterlimit:10" transform="matrix(1 0 0 -1 -91.2933 760.243)"/><path d="m257.5 90.136719c0-48.601563-21.492188-88-48-88s-48 39.398437-48 88c0 48.601562 21.492188 88 48 88s48-39.398438 48-88" fill="#ffc0cb" fill-opacity=".5" fill-rule="evenodd"/><g clip-path="url(#a)"><path d="m348.7933 670.106281c0 48.601563-21.492188 88-48 88-26.507813 0-48-39.398437-48-88 0-48.601562 21.492187-88 48-88 26.507812 0 48 39.398438 48 88" style="fill:none;stroke-width:2;stroke-linejoin:round;stroke:#8b0000;stroke-opacity:.5;stroke-miterlimit:10" transform="matrix(1 0 0 -1 -91.2933 760.243)"/></g><g fill-rule="evenodd"><path d="m51.300781 49.496094c0-.992188-.808593-1.800782-1.800781-1.800782-.996094 0-1.800781.808594-1.800781 1.800782 0 .996094.804687 1.800781 1.800781 1.800781.992188 0 1.800781-.804687 1.800781-1.800781" fill="#00008b"/><path d="m19.300781 81.496094c0-.992188-.808593-1.800782-1.800781-1.800782-.996094 0-1.800781.808594-1.800781 1.800782 0 .996094.804687 1.800781 1.800781 1.800781.992188 0 1.800781-.804687 1.800781-1.800781" fill="#00008b"/><path d="m67.300781 113.496094c0-.992188-.808593-1.800782-1.800781-1.800782-.996094 0-1.800781.808594-1.800781 1.800782 0 .996094.804687 1.800781 1.800781 1.800781.992188 0 1.800781-.804687 1.800781-1.800781" fill="#00008b"/><path d="m195.300781 49.496094c0-.992188-.808593-1.800782-1.800781-1.800782-.996094 0-1.800781.808594-1.800781 1.800782 0 .996094.804687 1.800781 1.800781 1.800781.992188 0 1.800781-.804687 1.800781-1.800781" fill="#8b0000"/><path d="m243.300781 81.496094c0-.992188-.808593-1.800782-1.800781-1.800782-.996094 0-1.800781.808594-1.800781 1.800782 0 .996094.804687 1.800781 1.800781 1.800781.992188 0 1.800781-.804687 1.800781-1.800781" fill="#8b0000"/><path d="m211.300781 113.496094c0-.992188-.808593-1.800782-1.800781-1.800782-.996094 0-1.800781.808594-1.800781 1.800782 0 .996094.804687 1.800781 1.800781 1.800781.992188 0 1.800781-.804687 1.800781-1.800781" fill="#8b0000"/><path d="m225.039062 146.035156c0-.992187-.808593-1.796875-1.800781-1.796875-.996093 0-1.800781.804688-1.800781 1.796875 0 .996094.804688 1.800782 1.800781 1.800782.992188 0 1.800781-.804688 1.800781-1.800782" fill="#8b0000"/></g><path d="m144.469081 712.121906c65.257813 11.683594 110.328125 11.996094 135.214844.9375" fill="none" stroke="#2e8b57" stroke-linejoin="round" stroke-miterlimit="10" stroke-width="2" transform="matrix(1 0 0 -1 -91.2933 760.243)"/><path d="m279.683925 713.059406-5.453125 4.972657-1.890625-4.261719zm0 0" style="fill-rule:evenodd;fill:#2e8b57;stroke-width:2;stroke-linejoin:round;stroke:#2e8b57;stroke-miterlimit:10" transform="matrix(1 0 0 -1 -91.2933 760.243)"/><path d="m111.402675 678.477375c72.972656-2.085937 129.441406 7.683594 169.410156 29.300781" fill="none" stroke="#2e8b57" stroke-linejoin="round" stroke-miterlimit="10" stroke-width="2" transform="matrix(1 0 0 -1 -91.2933 760.243)"/><path d="m280.812831 707.778156-7.265625-1.277343 2.21875-4.101563zm0 0" style="fill-rule:evenodd;fill:#2e8b57;stroke-width:2;stroke-linejoin:round;stroke:#2e8b57;stroke-miterlimit:10" transform="matrix(1 0 0 -1 -91.2933 760.243)"/><path d="m159.840175 645.700031c55.964844-10.722656 101.753906-10.695312 137.375.089844" fill="none" stroke="#2e8b57" stroke-linejoin="round" stroke-miterlimit="10" stroke-width="2" transform="matrix(1 0 0 -1 -91.2933 760.243)"/><path d="m297.215175 645.789875-7.375.203125 1.351562-4.460937zm0 0" style="fill-rule:evenodd;fill:#2e8b57;stroke-width:2;stroke-linejoin:round;stroke:#2e8b57;stroke-miterlimit:10" transform="matrix(1 0 0 -1 -91.2933 760.243)"/><use fill="#00008b" x="83.3657" xlink:href="#c" y="178.53"/><use fill="#8b0000" x="247.1347" xlink:href="#d" y="177.892"/><use fill="#2e8b57" x="122.2367" xlink:href="#e" y="22.411"/><path d="m401.5 90.136719c0-48.601563-21.492188-88-48-88s-48 39.398437-48 88c0 48.601562 21.492188 88 48 88s48-39.398438 48-88" fill="#d3d3d3" fill-opacity=".5" fill-rule="evenodd"/><g clip-path="url(#b)"><path d="m492.7933 670.106281c0 48.601563-21.492188 88-48 88-26.507813 0-48-39.398437-48-88 0-48.601562 21.492187-88 48-88 26.507812 0 48 39.398438 48 88" style="fill:none;stroke-width:2;stroke-linejoin:round;stroke:#000;stroke-opacity:.5;stroke-miterlimit:10" transform="matrix(1 0 0 -1 -91.2933 760.243)"/></g><path d="m342.507812 72.242188c0-.992188-.808593-1.800782-1.800781-1.800782-.996093 0-1.800781.808594-1.800781 1.800782 0 .996093.804688 1.800781 1.800781 1.800781.992188 0 1.800781-.804688 1.800781-1.800781" fill-rule="evenodd"/><path d="m374.507812 104.242188c0-.992188-.808593-1.800782-1.800781-1.800782-.996093 0-1.800781.808594-1.800781 1.800782 0 .996093.804688 1.800781 1.800781 1.800781.992188 0 1.800781-.804688 1.800781-1.800781" fill-rule="evenodd"/><g stroke="#ff8c00" stroke-linejoin="round" stroke-miterlimit="10" stroke-width="2" transform="matrix(1 0 0 -1 -91.2933 760.243)"><path d="m290.488612 710.817219c52.253907 10.195312 97.285157 3.613281 135.09375-19.753906" fill="none"/><path d="m425.582362 691.063313-4.726562 5.664062-2.453125-3.964844zm0 0" fill="#ff8c00" fill-rule="evenodd"/><path d="m336.410487 678.047688c30.5625-5.34375 60.921875-3.550782 91.085938 5.371093" fill="none"/><path d="m427.496425 683.418781-7.375.25 1.324219-4.472656zm0 0" fill="#ff8c00" fill-rule="evenodd"/><path d="m303.629237 647.496906c57.089844 6.527344 108.785157 9.15625 155.089844 7.882813" fill="none"/><path d="m458.719081 655.379719-6.933594 2.519531-.125-4.660156zm0 0" fill="#ff8c00" fill-rule="evenodd"/><path d="m319.164394 615.231281c73.496093 7.648438 121.289062 19.96875 143.378906 36.960938" fill="none"/><path d="m462.5433 652.192219-6.96875-2.421875 2.839844-3.691406zm0 0" fill="#ff8c00" fill-rule="evenodd"/></g><use fill="#ff8c00" x="272.2707" xlink:href="#f" y="22.552"/><use x="393.9827" xlink:href="#g" y="178.034"/></svg>