<svg height="115pt" viewBox="0 0 208.833 115" width="208.833pt" xmlns="http://www.w3.org/2000/svg" xmlns:xlink="http://www.w3.org/1999/xlink"><clipPath id="a"><path d="m15 0h193.832031v114h-193.832031zm0 0"/></clipPath><symbol id="b" overflow="visible"><path d="m2.4375-1.59375c-.5.84375-.984375 1.140625-1.671875 1.171875-.15625.015625-.28125.015625-.28125.28125 0 .078125.078125.140625.171875.140625.265625 0 .90625-.03125 1.171875-.03125.40625 0 .875.03125 1.265625.03125.09375 0 .265625 0 .265625-.265625 0-.140625-.125-.15625-.203125-.15625-.328125-.015625-.609375-.140625-.609375-.484375 0-.203125.09375-.359375.28125-.671875l1.09375-1.8125h3.65625c.015625.140625.015625.25.03125.375.03125.375.203125 1.875.203125 2.140625 0 .4375-.734375.453125-.953125.453125-.15625 0-.3125 0-.3125.265625 0 .15625.125.15625.203125.15625.25 0 .53125-.03125.78125-.03125h.8125c.875 0 1.515625.03125 1.53125.03125.09375 0 .25 0 .25-.265625 0-.15625-.125-.15625-.34375-.15625-.78125 0-.796875-.125-.84375-.546875l-.875-8.953125c-.03125-.296875-.09375-.3125-.25-.3125-.140625 0-.21875.015625-.359375.234375zm1.71875-2.203125 2.890625-4.828125.484375 4.828125zm0 0"/></symbol><symbol id="c" overflow="visible"><path d="m9.109375-9.96875c0-.125-.09375-.125-.125-.125-.0625 0-.078125.015625-.25.21875-.078125.109375-.671875.859375-.6875.859375-.46875-.921875-1.421875-1.078125-2.015625-1.078125-1.828125 0-3.484375 1.65625-3.484375 3.28125 0 1.078125.65625 1.703125 1.359375 1.953125.15625.046875 1 .28125 1.421875.390625.734375.1875.921875.25 1.234375.5625.046875.078125.34375.40625.34375 1.078125 0 1.34375-1.234375 2.71875-2.671875 2.71875-1.171875 0-2.484375-.5-2.484375-2.109375 0-.28125.0625-.625.09375-.765625 0-.046875.015625-.109375.015625-.140625 0-.0625-.015625-.125-.140625-.125s-.140625.015625-.203125.265625l-.734375 2.9375c0 .015625-.046875.203125-.046875.21875 0 .125.109375.125.140625.125.0625 0 .078125-.015625.25-.21875l.65625-.859375c.34375.515625 1.09375 1.078125 2.421875 1.078125 1.84375 0 3.546875-1.78125 3.546875-3.578125 0-.609375-.140625-1.140625-.6875-1.671875-.3125-.296875-.5625-.375-1.890625-.71875-.953125-.25-1.078125-.296875-1.34375-.53125-.25-.234375-.421875-.578125-.421875-1.0625 0-1.21875 1.21875-2.4375 2.578125-2.4375 1.40625 0 2.0625.859375 2.0625 2.21875 0 .375-.078125.75-.078125.8125 0 .125.125.125.171875.125.125 0 .140625-.03125.1875-.265625zm0 0"/></symbol><symbol id="d" overflow="visible"><path d="m4.09375-4.171875c-.59375-.328125-.9375-.421875-1.546875-.421875-1.375 0-2.1875 1.203125-2.1875 2.375 0 1.234375.90625 2.328125 2.15625 2.328125.53125 0 1.078125-.140625 1.625-.515625l-.0625-.65625c-.515625.390625-1.046875.53125-1.5625.53125-.828125 0-1.375-.71875-1.375-1.6875 0-.78125.359375-1.734375 1.421875-1.734375.515625 0 .859375.078125 1.40625.4375zm0 0"/></symbol><path d="m18.667969 28.167969c-2.667969 16-2.667969 42.664062 0 58.664062 2.664062 16 8 21.335938 37.332031 24 29.332031 2.667969 82.667969 2.667969 112 0 29.332031-2.664062 34.667969-8 37.332031-24 2.667969-16 2.667969-42.664062 0-58.664062-2.664062-16-8-21.335938-24-24-16-2.667969-42.664062-2.667969-69.332031-2.667969s-53.332031 0-69.332031 2.667969c-16 2.664062-21.335938 8-24 24zm0 0" fill="#add8e6" fill-rule="evenodd"/><g clip-path="url(#a)"><path d="m194.667969 725.332031c-2.667969-16-2.667969-42.664062 0-58.664062 2.664062-16 8-21.335938 37.332031-24 29.332031-2.667969 82.667969-2.667969 112 0 29.332031 2.664062 34.667969 8 37.332031 24 2.667969 16 2.667969 42.664062 0 58.664062-2.664062 16-8 21.335938-24 24-16 2.667969-42.664062 2.667969-69.332031 2.667969s-53.332031 0-69.332031-2.667969c-16-2.664062-21.335938-8-24-24zm0 0" fill="none" stroke="#00008b" stroke-linejoin="round" stroke-miterlimit="10" stroke-width="2" transform="matrix(1 0 0 -1 -176 753.5)"/></g><g fill-rule="evenodd"><g fill="#006400"><path d="m135.214844 32.496094c0-.992188-.808594-1.800782-1.800782-1.800782-.992187 0-1.800781.808594-1.800781 1.800782 0 .996094.808594 1.800781 1.800781 1.800781.992188 0 1.800782-.804687 1.800782-1.800781"/><path d="m177.800781 49.5c0-.992188-.808593-1.800781-1.800781-1.800781s-1.800781.808593-1.800781 1.800781.808593 1.800781 1.800781 1.800781 1.800781-.808593 1.800781-1.800781"/><path d="m151.769531 73.472656c0-.992187-.808593-1.796875-1.800781-1.796875-.996094 0-1.800781.804688-1.800781 1.796875 0 .996094.804687 1.800782 1.800781 1.800782.992188 0 1.800781-.804688 1.800781-1.800782"/><path d="m162.300781 29.433594c0-.992188-.804687-1.796875-1.796875-1.796875-.996094 0-1.800781.804687-1.800781 1.796875 0 .996094.804687 1.800781 1.800781 1.800781.992188 0 1.796875-.804687 1.796875-1.800781"/><path d="m177.800781 81.5c0-.992188-.808593-1.800781-1.800781-1.800781s-1.800781.808593-1.800781 1.800781.808593 1.800781 1.800781 1.800781 1.800781-.808593 1.800781-1.800781"/></g><path d="m74.492188 23.683594c0-.996094-.804688-1.800782-1.796876-1.800782-.996093 0-1.800781.804688-1.800781 1.800782 0 .992187.804688 1.796875 1.800781 1.796875.992188 0 1.796876-.804688 1.796876-1.796875" fill="#8b0000"/><path d="m49.800781 33.5c0-.992188-.808593-1.800781-1.800781-1.800781s-1.800781.808593-1.800781 1.800781.808593 1.800781 1.800781 1.800781 1.800781-.808593 1.800781-1.800781" fill="#8b0000"/><path d="m36.992188 56.074219c0-.992188-.808594-1.796875-1.800782-1.796875-.996094 0-1.800781.804687-1.800781 1.796875 0 .996093.804687 1.800781 1.800781 1.800781.992188 0 1.800782-.804688 1.800782-1.800781" fill="#8b0000"/><path d="m77.917969 60.933594c0-.996094-.804688-1.800782-1.800781-1.800782-.992188 0-1.796876.804688-1.796876 1.800782s.804688 1.800781 1.796876 1.800781c.996093 0 1.800781-.804687 1.800781-1.800781" fill="#8b0000"/><path d="m97.800781 81.5c0-.992188-.808593-1.800781-1.800781-1.800781s-1.800781.808593-1.800781 1.800781.808593 1.800781 1.800781 1.800781 1.800781-.808593 1.800781-1.800781" fill="#8b0000"/></g><use fill="#8b0000" x="48" xlink:href="#b" y="97.5"/><use fill="#006400" x="144" xlink:href="#b" y="97.5"/><use fill="#006400" x="154.53" xlink:href="#d" y="92.294"/><path d="m288 640c0 32 8 48 8 60s-8 20-40 52" style="fill-rule:evenodd;fill:#add8e6;stroke-width:2;stroke-linejoin:round;stroke:#00008b;stroke-miterlimit:10" transform="matrix(1 0 0 -1 -176 753.5)"/><use fill="#00008b" xlink:href="#c" y="97.5"/></svg>