<svg height="179.637pt" viewBox="0 0 260.81 179.637" width="260.81pt" xmlns="http://www.w3.org/2000/svg" xmlns:xlink="http://www.w3.org/1999/xlink"><clipPath id="a"><path d="m160 1h99v178.636719h-99zm0 0"/></clipPath><symbol id="b" overflow="visible"><path d="m2.921875-1.90625c-.59375 1.015625-1.1875 1.359375-2.015625 1.40625-.1875.015625-.328125.015625-.328125.328125 0 .109375.09375.171875.21875.171875.3125 0 1.078125-.03125 1.390625-.03125.5 0 1.046875.03125 1.53125.03125.109375 0 .3125 0 .3125-.328125 0-.15625-.140625-.171875-.25-.171875-.390625-.03125-.71875-.171875-.71875-.578125 0-.25.109375-.4375.328125-.8125l1.3125-2.171875h4.390625c.015625.15625.015625.296875.03125.453125.046875.4375.265625 2.234375.265625 2.5625 0 .515625-.890625.546875-1.15625.546875-.1875 0-.375 0-.375.3125 0 .1875.140625.1875.25.1875.296875 0 .640625-.03125.9375-.03125h.96875c1.0625 0 1.8125.03125 1.828125.03125.125 0 .3125 0 .3125-.328125 0-.171875-.15625-.171875-.40625-.171875-.953125 0-.96875-.15625-1.015625-.671875l-1.0625-10.75c-.03125-.34375-.09375-.375-.28125-.375-.171875 0-.28125.03125-.4375.296875zm2.078125-2.65625 3.453125-5.78125.59375 5.78125zm0 0"/></symbol><symbol id="c" overflow="visible"><path d="m6.296875-10.59375c.15625-.640625.234375-.671875.90625-.671875h2.234375c1.9375 0 1.9375 1.65625 1.9375 1.8125 0 1.390625-1.390625 3.171875-3.65625 3.171875h-2.484375zm2.921875 4.453125c1.875-.34375 3.578125-1.65625 3.578125-3.25 0-1.34375-1.1875-2.375-3.140625-2.375h-5.53125c-.3125 0-.46875 0-.46875.328125 0 .171875.15625.171875.40625.171875 1.046875 0 1.046875.140625 1.046875.328125 0 .03125 0 .140625-.0625.40625l-2.328125 9.25c-.15625.609375-.1875.78125-1.390625.78125-.328125 0-.5 0-.5.3125 0 .1875.109375.1875.453125.1875h5.90625c2.625 0 4.65625-2 4.65625-3.734375 0-1.40625-1.234375-2.28125-2.625-2.40625zm-2.453125 5.640625h-2.328125c-.234375 0-.265625 0-.375-.015625-.1875-.015625-.203125-.046875-.203125-.1875 0-.125.03125-.234375.0625-.375l1.203125-4.859375h3.25c2.03125 0 2.03125 1.890625 2.03125 2.03125 0 1.65625-1.5 3.40625-3.640625 3.40625zm0 0"/></symbol><symbol id="d" overflow="visible"><path d="m7.671875-6.921875c.359375 0 .484375 0 .484375-.328125 0-.171875-.125-.171875-.4375-.171875h-1.40625c.328125-1.765625.578125-3 .71875-3.546875.09375-.40625.453125-.8125.90625-.8125.359375 0 .71875.15625.890625.3125-.671875.0625-.875.5625-.875.859375 0 .34375.265625.546875.59375.546875.34375 0 .859375-.28125.859375-.9375 0-.71875-.734375-1.125-1.484375-1.125-.734375 0-1.46875.546875-1.8125 1.21875-.3125.609375-.484375 1.234375-.875 3.484375h-1.15625c-.328125 0-.5 0-.5.3125 0 .1875.109375.1875.453125.1875h1.09375c-.296875 1.59375-1.015625 5.5-1.40625 7.328125-.296875 1.5-.546875 2.765625-1.40625 2.765625-.0625 0-.5625 0-.859375-.328125.875-.078125.875-.828125.875-.84375 0-.34375-.265625-.546875-.59375-.546875-.34375 0-.859375.28125-.859375.9375 0 .75.765625 1.125 1.4375 1.125 1.75 0 2.46875-3.15625 2.65625-4.015625.3125-1.328125 1.15625-5.90625 1.25-6.421875zm0 0"/></symbol><path d="m240 664c0 48.601562-21.488281 88-48 88s-48-39.398438-48-88 21.488281-88 48-88 48 39.398438 48 88" style="fill-rule:evenodd;fill:#add8e6;fill-opacity:.3;stroke-width:2;stroke-linejoin:round;stroke:#00008b;stroke-opacity:.3;stroke-miterlimit:10" transform="matrix(1 0 0 -1 -142.5 753.5)"/><path d="m257.5 90.136719c0-48.601563-21.488281-88-48-88s-48 39.398437-48 88c0 48.601562 21.488281 88 48 88s48-39.398438 48-88" fill="#ffc0cb" fill-opacity=".5" fill-rule="evenodd"/><g clip-path="url(#a)"><path d="m400 663.363281c0 48.601563-21.488281 88-48 88s-48-39.398437-48-88c0-48.601562 21.488281-88 48-88s48 39.398438 48 88" style="fill:none;stroke-width:2;stroke-linejoin:round;stroke:#8b0000;stroke-opacity:.5;stroke-miterlimit:10" transform="matrix(1 0 0 -1 -142.5 753.5)"/></g><g fill-rule="evenodd"><path d="m51.300781 49.5c0-.992188-.808593-1.800781-1.800781-1.800781s-1.800781.808593-1.800781 1.800781.808593 1.800781 1.800781 1.800781 1.800781-.808593 1.800781-1.800781" fill="#00008b"/><path d="m19.300781 81.5c0-.992188-.808593-1.800781-1.800781-1.800781s-1.800781.808593-1.800781 1.800781.808593 1.800781 1.800781 1.800781 1.800781-.808593 1.800781-1.800781" fill="#00008b"/><path d="m67.300781 113.5c0-.992188-.808593-1.800781-1.800781-1.800781s-1.800781.808593-1.800781 1.800781.808593 1.800781 1.800781 1.800781 1.800781-.808593 1.800781-1.800781" fill="#00008b"/><g fill="#8b0000"><path d="m195.300781 49.5c0-.992188-.808593-1.800781-1.800781-1.800781s-1.800781.808593-1.800781 1.800781.808593 1.800781 1.800781 1.800781 1.800781-.808593 1.800781-1.800781"/><path d="m243.300781 81.5c0-.992188-.808593-1.800781-1.800781-1.800781s-1.800781.808593-1.800781 1.800781.808593 1.800781 1.800781 1.800781 1.800781-.808593 1.800781-1.800781"/><path d="m211.300781 113.5c0-.992188-.808593-1.800781-1.800781-1.800781s-1.800781.808593-1.800781 1.800781.808593 1.800781 1.800781 1.800781 1.800781-.808593 1.800781-1.800781"/><path d="m225.039062 146.039062c0-.992187-.808593-1.800781-1.800781-1.800781-.996093 0-1.800781.808594-1.800781 1.800781 0 .996094.804688 1.800782 1.800781 1.800782.992188 0 1.800781-.804688 1.800781-1.800782"/></g></g><g stroke="#2e8b57" stroke-linejoin="round" stroke-miterlimit="10" stroke-width="2" transform="matrix(1 0 0 -1 -142.5 753.5)"><path d="m195.675781 705.375c65.253907 11.683594 110.328125 11.996094 135.214844.9375" fill="none"/><path d="m330.890625 706.3125-5.453125 4.972656-1.890625-4.261718zm0 0" fill="#2e8b57" fill-rule="evenodd"/><path d="m162.609375 671.730469c72.972656-2.082031 129.441406 7.683593 169.410156 29.300781" fill="none"/><path d="m332.019531 701.03125-7.265625-1.277344 2.21875-4.101562zm0 0" fill="#2e8b57" fill-rule="evenodd"/><path d="m211.046875 638.953125c55.964844-10.722656 101.753906-10.691406 137.375.089844" fill="none"/><path d="m348.421875 639.042969-7.375.203125 1.351563-4.460938zm0 0" fill="#2e8b57" fill-rule="evenodd"/></g><use fill="#00008b" x="83.366" xlink:href="#b" y="178.533"/><use fill="#8b0000" x="247.135" xlink:href="#c" y="177.896"/><use fill="#2e8b57" x="122.237" xlink:href="#d" y="22.414"/></svg>