<svg height="171.968" viewBox="0 0 259.364 128.976" width="345.819" xmlns="http://www.w3.org/2000/svg" xmlns:xlink="http://www.w3.org/1999/xlink"><clipPath id="a"><path d="m0 0h259v128.976562h-259zm0 0"/></clipPath><clipPath id="b"><path d="m77 51h97v77.976562h-97zm0 0"/></clipPath><symbol id="c" overflow="visible"><path d="m9.109375-9.96875c0-.125-.09375-.125-.125-.125-.0625 0-.078125.015625-.25.21875-.078125.109375-.671875.859375-.6875.859375-.46875-.921875-1.421875-1.078125-2.015625-1.078125-1.828125 0-3.484375 1.65625-3.484375 3.28125 0 1.078125.65625 1.703125 1.359375 1.953125.15625.046875 1 .28125 1.421875.390625.734375.1875.921875.25 1.234375.5625.046875.078125.34375.40625.34375 1.078125 0 1.34375-1.234375 2.71875-2.671875 2.71875-1.171875 0-2.484375-.5-2.484375-2.109375 0-.28125.0625-.625.09375-.765625 0-.046875.015625-.109375.015625-.140625 0-.0625-.015625-.125-.140625-.125s-.140625.015625-.203125.265625l-.734375 2.9375c0 .015625-.046875.203125-.046875.21875 0 .125.109375.125.140625.125.0625 0 .078125-.015625.25-.21875l.65625-.859375c.34375.515625 1.09375 1.078125 2.421875 1.078125 1.84375 0 3.546875-1.78125 3.546875-3.578125 0-.609375-.140625-1.140625-.6875-1.671875-.3125-.296875-.5625-.375-1.890625-.71875-.953125-.25-1.078125-.296875-1.34375-.53125-.25-.234375-.421875-.578125-.421875-1.0625 0-1.21875 1.21875-2.4375 2.578125-2.4375 1.40625 0 2.0625.859375 2.0625 2.21875 0 .375-.078125.75-.078125.8125 0 .125.125.125.171875.125.125 0 .140625-.03125.1875-.265625zm0 0"/></symbol><symbol id="d" overflow="visible"><path d="m2.9375-6.375c0-.25 0-.265625-.234375-.265625-.625.640625-1.5.640625-1.8125.640625v.3125c.203125 0 .78125 0 1.296875-.265625v5.171875c0 .359375-.03125.46875-.921875.46875h-.3125v.3125c.34375-.03125 1.203125-.03125 1.609375-.03125.390625 0 1.265625 0 1.609375.03125v-.3125h-.3125c-.90625 0-.921875-.109375-.921875-.46875zm0 0"/></symbol><symbol id="e" overflow="visible"><path d="m1.265625-.765625 1.0625-1.03125c1.546875-1.375 2.140625-1.90625 2.140625-2.90625 0-1.140625-.890625-1.9375-2.109375-1.9375-1.125 0-1.859375.921875-1.859375 1.8125 0 .546875.5.546875.53125.546875.171875 0 .515625-.109375.515625-.53125 0-.25-.1875-.515625-.53125-.515625-.078125 0-.09375 0-.125.015625.21875-.65625.765625-1.015625 1.34375-1.015625.90625 0 1.328125.8125 1.328125 1.625 0 .796875-.484375 1.578125-1.046875 2.203125l-1.90625 2.125c-.109375.109375-.109375.140625-.109375.375h3.703125l.265625-1.734375h-.234375c-.0625.296875-.125.734375-.234375.890625-.0625.078125-.71875.078125-.9375.078125zm0 0"/></symbol><symbol id="f" overflow="visible"><path d="m2.890625-3.515625c.8125-.265625 1.390625-.953125 1.390625-1.75 0-.8125-.875-1.375-1.828125-1.375-1 0-1.765625.59375-1.765625 1.359375 0 .328125.21875.515625.515625.515625s.5-.21875.5-.515625c0-.484375-.46875-.484375-.609375-.484375.296875-.5.953125-.625 1.3125-.625.421875 0 .96875.21875.96875 1.109375 0 .125-.03125.703125-.28125 1.140625-.296875.484375-.640625.515625-.890625.515625-.078125.015625-.3125.03125-.390625.03125-.078125.015625-.140625.03125-.140625.125 0 .109375.0625.109375.234375.109375h.4375c.8125 0 1.1875.671875 1.1875 1.65625 0 1.359375-.6875 1.640625-1.125 1.640625s-1.1875-.171875-1.53125-.75c.34375.046875.65625-.171875.65625-.546875 0-.359375-.265625-.5625-.546875-.5625-.25 0-.5625.140625-.5625.578125 0 .90625.921875 1.5625 2.015625 1.5625 1.21875 0 2.125-.90625 2.125-1.921875 0-.8125-.640625-1.59375-1.671875-1.8125zm0 0"/></symbol><symbol id="g" overflow="visible"><path d="m2.9375-1.640625v.859375c0 .359375-.03125.46875-.765625.46875h-.203125v.3125c.40625-.03125.921875-.03125 1.34375-.03125s.9375 0 1.359375.03125v-.3125h-.21875c-.734375 0-.75-.109375-.75-.46875v-.859375h.984375v-.3125h-.984375v-4.53125c0-.203125 0-.265625-.171875-.265625-.078125 0-.109375 0-.1875.125l-3.0625 4.671875v.3125zm.046875-.3125h-2.421875l2.421875-3.71875zm0 0"/></symbol><g clip-path="url(#a)"><path d="m128.971281 640.143438v126.464843h255.875v-126.464843zm0 0" fill="none" stroke="#00008b" stroke-linejoin="round" stroke-miterlimit="10" stroke-width="2" transform="matrix(1 0 0 -1 -126.983 767.62)"/></g><path d="m128.483 672.006719c49.019531 15.683594 89.214844 47.054687 120.585938 94.113281" fill="none" stroke="#00008b" stroke-linejoin="round" stroke-miterlimit="10" stroke-width="2" transform="matrix(1 0 0 -1 -126.983 767.62)"/><g clip-path="url(#b)"><path d="m205.022063 715.100469c58.449218-30.363281 89.957031-55.347656 94.535156-74.957031" fill="none" stroke="#00008b" stroke-linejoin="round" stroke-miterlimit="10" stroke-width="2" transform="matrix(1 0 0 -1 -126.983 767.62)"/></g><path d="m263.772063 680.33875c65.359375 24.507813 105.714843 47.382813 121.074218 68.625" fill="none" stroke="#00008b" stroke-linejoin="round" stroke-miterlimit="10" stroke-width="2" transform="matrix(1 0 0 -1 -126.983 767.62)"/><g fill="#00008b"><use x="30.911" xlink:href="#c" y="41.203"/><use x="39.55" xlink:href="#d" y="43.355"/><use x="75.027" xlink:href="#c" y="99.534"/><use x="83.666" xlink:href="#e" y="101.686"/><use x="152.476" xlink:href="#c" y="31.889"/><use x="161.115" xlink:href="#f" y="34.041"/><use x="204.435" xlink:href="#c" y="98.064"/><use x="213.074" xlink:href="#g" y="100.216"/></g></svg>