<svg height="179.637pt" viewBox="0 0 260.81 179.637" width="260.81pt" xmlns="http://www.w3.org/2000/svg" xmlns:xlink="http://www.w3.org/1999/xlink"><clipPath id="a"><path d="m160 1h99v178.636719h-99zm0 0"/></clipPath><symbol id="b" overflow="visible"><path d="m2.921875-1.90625c-.59375 1.015625-1.1875 1.359375-2.015625 1.40625-.1875.015625-.328125.015625-.328125.328125 0 .109375.09375.171875.21875.171875.3125 0 1.078125-.03125 1.390625-.03125.5 0 1.046875.03125 1.53125.03125.109375 0 .3125 0 .3125-.328125 0-.15625-.140625-.171875-.25-.171875-.390625-.03125-.71875-.171875-.71875-.578125 0-.25.109375-.4375.328125-.8125l1.3125-2.171875h4.390625c.015625.15625.015625.296875.03125.453125.046875.4375.265625 2.234375.265625 2.5625 0 .515625-.890625.546875-1.15625.546875-.1875 0-.375 0-.375.3125 0 .1875.140625.1875.25.1875.296875 0 .640625-.03125.9375-.03125h.96875c1.0625 0 1.8125.03125 1.828125.03125.125 0 .3125 0 .3125-.328125 0-.171875-.15625-.171875-.40625-.171875-.953125 0-.96875-.15625-1.015625-.671875l-1.0625-10.75c-.03125-.34375-.09375-.375-.28125-.375-.171875 0-.28125.03125-.4375.296875zm2.078125-2.65625 3.453125-5.78125.59375 5.78125zm0 0"/></symbol><symbol id="c" overflow="visible"><path d="m6.296875-10.59375c.15625-.640625.234375-.671875.90625-.671875h2.234375c1.9375 0 1.9375 1.65625 1.9375 1.8125 0 1.390625-1.390625 3.171875-3.65625 3.171875h-2.484375zm2.921875 4.453125c1.875-.34375 3.578125-1.65625 3.578125-3.25 0-1.34375-1.1875-2.375-3.140625-2.375h-5.53125c-.3125 0-.46875 0-.46875.328125 0 .171875.15625.171875.40625.171875 1.046875 0 1.046875.140625 1.046875.328125 0 .03125 0 .140625-.0625.40625l-2.328125 9.25c-.15625.609375-.1875.78125-1.390625.78125-.328125 0-.5 0-.5.3125 0 .1875.109375.1875.453125.1875h5.90625c2.625 0 4.65625-2 4.65625-3.734375 0-1.40625-1.234375-2.28125-2.625-2.40625zm-2.453125 5.640625h-2.328125c-.234375 0-.265625 0-.375-.015625-.1875-.015625-.203125-.046875-.203125-.1875 0-.125.03125-.234375.0625-.375l1.203125-4.859375h3.25c2.03125 0 2.03125 1.890625 2.03125 2.03125 0 1.65625-1.5 3.40625-3.640625 3.40625zm0 0"/></symbol><symbol id="d" overflow="visible"><path d="m7.671875-6.921875c.359375 0 .484375 0 .484375-.328125 0-.171875-.125-.171875-.4375-.171875h-1.40625c.328125-1.765625.578125-3 .71875-3.546875.09375-.40625.453125-.8125.90625-.8125.359375 0 .71875.15625.890625.3125-.671875.0625-.875.5625-.875.859375 0 .34375.265625.546875.59375.546875.34375 0 .859375-.28125.859375-.9375 0-.71875-.734375-1.125-1.484375-1.125-.734375 0-1.46875.546875-1.8125 1.21875-.3125.609375-.484375 1.234375-.875 3.484375h-1.15625c-.328125 0-.5 0-.5.3125 0 .1875.109375.1875.453125.1875h1.09375c-.296875 1.59375-1.015625 5.5-1.40625 7.328125-.296875 1.5-.546875 2.765625-1.40625 2.765625-.0625 0-.5625 0-.859375-.328125.875-.078125.875-.828125.875-.84375 0-.34375-.265625-.546875-.59375-.546875-.34375 0-.859375.28125-.859375.9375 0 .75.765625 1.125 1.4375 1.125 1.75 0 2.46875-3.15625 2.65625-4.015625.3125-1.328125 1.15625-5.90625 1.25-6.421875zm0 0"/></symbol><symbol id="e" overflow="visible"><path d="m1.59375-.78125c-.09375.390625-.125.46875-.90625.46875-.171875 0-.265625 0-.265625.203125 0 .109375.09375.109375.265625.109375h3.5625c1.578125 0 2.75-1.171875 2.75-2.15625 0-.71875-.578125-1.296875-1.546875-1.40625 1.03125-.1875 2.078125-.921875 2.078125-1.875 0-.734375-.65625-1.375-1.84375-1.375h-3.359375c-.1875 0-.28125 0-.28125.203125 0 .109375.09375.109375.28125.109375.015625 0 .203125 0 .375.015625.171875.03125.265625.03125.265625.171875 0 .03125-.015625.0625-.03125.1875zm1.5-2.875.625-2.46875c.09375-.34375.109375-.375.53125-.375h1.296875c.875 0 1.078125.59375 1.078125 1.03125 0 .875-.859375 1.8125-2.0625 1.8125zm-.4375 3.34375c-.140625 0-.15625 0-.21875 0-.109375-.015625-.140625-.03125-.140625-.109375 0-.03125 0-.046875.0625-.21875l.6875-2.78125h1.875c.953125 0 1.15625.734375 1.15625 1.15625 0 .984375-.890625 1.953125-2.078125 1.953125zm0 0"/></symbol><symbol id="f" overflow="visible"><path d="m3.65625-3.984375h.859375c.203125 0 .296875 0 .296875-.203125 0-.109375-.09375-.109375-.265625-.109375h-.828125l.203125-1.140625c.046875-.203125.1875-.90625.25-1.03125.078125-.1875.25-.34375.46875-.34375.03125 0 .296875 0 .484375.1875-.4375.03125-.546875.390625-.546875.53125 0 .234375.1875.359375.375.359375.265625 0 .546875-.234375.546875-.609375 0-.453125-.453125-.6875-.859375-.6875-.34375 0-.96875.1875-1.265625 1.171875-.0625.203125-.09375.3125-.328125 1.5625h-.6875c-.203125 0-.3125 0-.3125.1875 0 .125.09375.125.28125.125h.65625l-.734375 3.9375c-.1875.96875-.359375 1.875-.875 1.875-.046875 0-.28125 0-.484375-.1875.46875-.03125.5625-.390625.5625-.53125 0-.234375-.1875-.359375-.375-.359375-.265625 0-.546875.234375-.546875.609375 0 .4375.4375.6875.84375.6875.546875 0 .953125-.59375 1.125-.96875.328125-.625.546875-1.828125.5625-1.90625zm0 0"/></symbol><symbol id="g" overflow="visible"><path d="m2.015625-3.296875c.0625-.109375.0625-.171875.0625-.21875 0-.21875-.1875-.375-.40625-.375-.265625 0-.34375.21875-.375.328125l-.921875 3.015625c-.015625.015625-.046875.09375-.046875.109375 0 .078125.21875.15625.28125.15625.046875 0 .046875-.015625.09375-.125zm0 0"/></symbol><symbol id="h" overflow="visible"><path d="m5.1875-1.578125c.109375 0 .28125 0 .28125-.15625 0-.1875-.171875-.1875-.28125-.1875h-4.15625c-.109375 0-.28125 0-.28125.171875s.15625.171875.28125.171875zm0 0"/></symbol><symbol id="i" overflow="visible"><path d="m2.328125-4.4375c0-.1875 0-.1875-.203125-.1875-.453125.4375-1.078125.4375-1.359375.4375v.25c.15625 0 .625 0 1-.1875v3.546875c0 .234375 0 .328125-.6875.328125h-.265625v.25c.125 0 .984375-.03125 1.234375-.03125.21875 0 1.09375.03125 1.25.03125v-.25h-.265625c-.703125 0-.703125-.09375-.703125-.328125zm0 0"/></symbol><symbol id="j" overflow="visible"><path d="m3.296875 2.390625c0-.03125 0-.046875-.171875-.21875-1.234375-1.25-1.5625-3.140625-1.5625-4.671875 0-1.734375.375-3.46875 1.609375-4.703125.125-.125.125-.140625.125-.171875 0-.078125-.03125-.109375-.09375-.109375-.109375 0-1 .6875-1.59375 1.953125-.5 1.09375-.625 2.203125-.625 3.03125 0 .78125.109375 1.984375.65625 3.125.609375 1.21875 1.453125 1.875 1.5625 1.875.0625 0 .09375-.03125.09375-.109375zm0 0"/></symbol><symbol id="k" overflow="visible"><path d="m2.875-2.5c0-.765625-.109375-1.96875-.65625-3.109375-.59375-1.21875-1.453125-1.875-1.546875-1.875-.0625 0-.109375.046875-.109375.109375 0 .03125 0 .046875.1875.234375.984375.984375 1.546875 2.5625 1.546875 4.640625 0 1.71875-.359375 3.46875-1.59375 4.71875-.140625.125-.140625.140625-.140625.171875 0 .0625.046875.109375.109375.109375.09375 0 1-.6875 1.578125-1.953125.515625-1.09375.625-2.203125.625-3.046875zm0 0"/></symbol><path d="m230.821 668.402c0 48.601562-21.488281 88-48 88s-48-39.398438-48-88c0-48.601563 21.488281-88 48-88s48 39.398437 48 88" style="fill-rule:evenodd;fill:#add8e6;fill-opacity:.3;stroke-width:2;stroke-linejoin:round;stroke:#00008b;stroke-opacity:.3;stroke-miterlimit:10" transform="matrix(1 0 0 -1 -133.321 757.902)"/><path d="m257.5 90.136719c0-48.601563-21.488281-88-48-88s-48 39.398437-48 88c0 48.601562 21.488281 88 48 88s48-39.398438 48-88" fill="#ffc0cb" fill-opacity=".5" fill-rule="evenodd"/><g clip-path="url(#a)"><path d="m390.821 667.765281c0 48.601563-21.488281 88-48 88s-48-39.398437-48-88c0-48.601562 21.488281-88 48-88s48 39.398438 48 88" style="fill:none;stroke-width:2;stroke-linejoin:round;stroke:#8b0000;stroke-opacity:.5;stroke-miterlimit:10" transform="matrix(1 0 0 -1 -133.321 757.902)"/></g><g fill-rule="evenodd"><path d="m51.300781 49.496094c0-.992188-.808593-1.800782-1.800781-1.800782s-1.800781.808594-1.800781 1.800782c0 .996094.808593 1.800781 1.800781 1.800781s1.800781-.804687 1.800781-1.800781" fill="#00008b"/><path d="m19.300781 81.496094c0-.992188-.808593-1.800782-1.800781-1.800782s-1.800781.808594-1.800781 1.800782c0 .996094.808593 1.800781 1.800781 1.800781s1.800781-.804687 1.800781-1.800781" fill="#00008b"/><path d="m67.300781 113.496094c0-.992188-.808593-1.800782-1.800781-1.800782s-1.800781.808594-1.800781 1.800782c0 .996094.808593 1.800781 1.800781 1.800781s1.800781-.804687 1.800781-1.800781" fill="#00008b"/><g fill="#8b0000"><path d="m195.300781 49.496094c0-.992188-.808593-1.800782-1.800781-1.800782s-1.800781.808594-1.800781 1.800782c0 .996094.808593 1.800781 1.800781 1.800781s1.800781-.804687 1.800781-1.800781"/><path d="m243.300781 81.496094c0-.992188-.808593-1.800782-1.800781-1.800782s-1.800781.808594-1.800781 1.800782c0 .996094.808593 1.800781 1.800781 1.800781s1.800781-.804687 1.800781-1.800781"/><path d="m211.300781 113.496094c0-.992188-.808593-1.800782-1.800781-1.800782s-1.800781.808594-1.800781 1.800782c0 .996094.808593 1.800781 1.800781 1.800781s1.800781-.804687 1.800781-1.800781"/><path d="m225.039062 146.035156c0-.992187-.808593-1.796875-1.800781-1.796875-.996093 0-1.800781.804688-1.800781 1.796875 0 .996094.804688 1.800782 1.800781 1.800782.992188 0 1.800781-.804688 1.800781-1.800782"/></g></g><path d="m186.496781 709.780906c65.257813 11.683594 110.328125 11.996094 135.214844.9375" fill="none" stroke="#2e8b57" stroke-linejoin="round" stroke-miterlimit="10" stroke-width="2" transform="matrix(1 0 0 -1 -133.321 757.902)"/><path d="m321.711625 710.718406-5.453125 4.972656-1.890625-4.261718zm0 0" style="fill-rule:evenodd;fill:#2e8b57;stroke-width:2;stroke-linejoin:round;stroke:#2e8b57;stroke-miterlimit:10" transform="matrix(1 0 0 -1 -133.321 757.902)"/><path d="m153.430375 676.136375c72.972656-2.085938 129.441406 7.683594 169.410156 29.300781" fill="none" stroke="#2e8b57" stroke-linejoin="round" stroke-miterlimit="10" stroke-width="2" transform="matrix(1 0 0 -1 -133.321 757.902)"/><path d="m322.840531 705.437156-7.265625-1.277344 2.21875-4.101562zm0 0" style="fill-rule:evenodd;fill:#2e8b57;stroke-width:2;stroke-linejoin:round;stroke:#2e8b57;stroke-miterlimit:10" transform="matrix(1 0 0 -1 -133.321 757.902)"/><path d="m201.867875 643.359031c55.964844-10.722656 101.757813-10.695312 137.375.089844" fill="none" stroke="#2e8b57" stroke-linejoin="round" stroke-miterlimit="10" stroke-width="2" transform="matrix(1 0 0 -1 -133.321 757.902)"/><path d="m339.242875 643.448875-7.375.203125 1.351563-4.460938zm0 0" style="fill-rule:evenodd;fill:#2e8b57;stroke-width:2;stroke-linejoin:round;stroke:#2e8b57;stroke-miterlimit:10" transform="matrix(1 0 0 -1 -133.321 757.902)"/><use fill="#00008b" x="83.365" xlink:href="#b" y="178.53"/><use fill="#8b0000" x="247.135" xlink:href="#c" y="177.892"/><use fill="#2e8b57" x="122.237" xlink:href="#d" y="22.411"/><path d="m306.246781 706.05825c.8125-9.902344 14.636719-17.902344 30.363282-25.308594 15.730468-7.40625 33.359375-14.21875 42.445312-13.675781 9.085938.546875 9.628906 8.445312-.003906 21.753906-9.628906 13.308594-29.433594 32.023438-45.429688 35.480469-16 3.453125-28.191406-8.347656-27.375-18.25zm0 0" style="fill-rule:evenodd;fill:#ffc0cb;fill-opacity:.5;stroke-width:2;stroke-linejoin:round;stroke:#8b0000;stroke-opacity:.5;stroke-miterlimit:10" transform="matrix(1 0 0 -1 -133.321 757.902)"/><use fill="#8b0000" x="205.963" xlink:href="#e" y="65.792"/><use fill="#8b0000" x="214.02" xlink:href="#g" y="62.177"/><path d="m141.656938 681.644187c-2.757813-8.332031-2.492188-15.8125 3.9375-17.78125 6.429687-1.96875 19.03125 1.574219 29.792968 11.15625 10.761719 9.578125 19.6875 25.199219 21.394532 35.109375 1.703125 9.90625-3.808594 14.105469-11.8125 12.859375-8.007813-1.246093-18.507813-7.941406-26.644532-15.878906-8.136718-7.941406-13.910156-17.128906-16.667968-25.464844zm0 0" style="fill-rule:evenodd;fill:#add8e6;fill-opacity:.5;stroke-width:2;stroke-linejoin:round;stroke:#00008b;stroke-opacity:.5;stroke-miterlimit:10" transform="matrix(1 0 0 -1 -133.321 757.902)"/><g fill="#00008b"><use x="25.004" xlink:href="#f" y="29.466"/><use x="30.954" xlink:href="#h" y="25.851"/><use x="37.181" xlink:href="#i" y="25.851"/><use x="41.65" xlink:href="#j" y="29.466"/><use x="45.524" xlink:href="#e" y="29.466"/><use x="53.581" xlink:href="#g" y="25.851"/><use x="56.376" xlink:href="#k" y="29.466"/></g></svg>