<svg height="179.637pt" viewBox="0 0 259 179.637" width="259pt" xmlns="http://www.w3.org/2000/svg" xmlns:xlink="http://www.w3.org/1999/xlink"><clipPath id="a"><path d="m160 1h99v178.636719h-99zm0 0"/></clipPath><symbol id="b" overflow="visible"><path d="m2.4375-1.59375c-.5.84375-.984375 1.140625-1.671875 1.171875-.15625.015625-.28125.015625-.28125.28125 0 .078125.078125.140625.171875.140625.265625 0 .90625-.03125 1.171875-.03125.40625 0 .875.03125 1.265625.03125.09375 0 .265625 0 .265625-.265625 0-.140625-.125-.15625-.203125-.15625-.328125-.015625-.609375-.140625-.609375-.484375 0-.203125.09375-.359375.28125-.671875l1.09375-1.8125h3.65625c.015625.140625.015625.25.03125.375.03125.375.203125 1.875.203125 2.140625 0 .4375-.734375.453125-.953125.453125-.15625 0-.3125 0-.3125.265625 0 .15625.125.15625.203125.15625.25 0 .53125-.03125.78125-.03125h.8125c.875 0 1.515625.03125 1.53125.03125.09375 0 .25 0 .25-.265625 0-.15625-.125-.15625-.34375-.15625-.78125 0-.796875-.125-.84375-.546875l-.875-8.953125c-.03125-.296875-.09375-.3125-.25-.3125-.140625 0-.21875.015625-.359375.234375zm1.71875-2.203125 2.890625-4.828125.484375 4.828125zm0 0"/></symbol><symbol id="c" overflow="visible"><path d="m5.25-8.828125c.125-.53125.1875-.546875.75-.546875h1.859375c1.625 0 1.625 1.375 1.625 1.5 0 1.15625-1.171875 2.640625-3.0625 2.640625h-2.0625zm2.421875 3.703125c1.5625-.28125 2.984375-1.375 2.984375-2.6875 0-1.125-.984375-1.984375-2.609375-1.984375h-4.609375c-.265625 0-.390625 0-.390625.265625 0 .15625.125.15625.34375.15625.875 0 .875.109375.875.265625 0 .03125 0 .109375-.0625.328125l-1.9375 7.71875c-.125.5-.15625.640625-1.15625.640625-.28125 0-.421875 0-.421875.265625 0 .15625.09375.15625.375.15625h4.921875c2.1875 0 3.890625-1.65625 3.890625-3.109375 0-1.171875-1.046875-1.890625-2.203125-2.015625zm-2.03125 4.703125h-1.9375c-.203125 0-.234375 0-.3125-.015625-.15625 0-.171875-.03125-.171875-.15625 0-.09375.015625-.1875.046875-.3125l1.015625-4.046875h2.6875c1.6875 0 1.6875 1.578125 1.6875 1.703125 0 1.375-1.234375 2.828125-3.015625 2.828125zm0 0"/></symbol><symbol id="d" overflow="visible"><path d="m6.390625-5.765625c.296875 0 .40625 0 .40625-.265625 0-.15625-.109375-.15625-.375-.15625h-1.15625c.265625-1.46875.46875-2.484375.59375-2.953125.078125-.34375.375-.671875.75-.671875.296875 0 .609375.125.75.265625-.5625.046875-.734375.46875-.734375.71875 0 .28125.21875.453125.484375.453125.296875 0 .71875-.25.71875-.796875 0-.59375-.59375-.921875-1.234375-.921875-.609375 0-1.21875.453125-1.5 1.015625-.265625.5-.40625 1.015625-.734375 2.890625h-.953125c-.28125 0-.421875 0-.421875.265625 0 .15625.078125.15625.375.15625h.921875c-.265625 1.328125-.859375 4.578125-1.1875 6.109375-.234375 1.25-.453125 2.296875-1.171875 2.296875-.046875 0-.453125 0-.71875-.28125.734375-.046875.734375-.6875.734375-.703125 0-.28125-.21875-.453125-.484375-.453125-.296875 0-.71875.25-.71875.796875 0 .609375.625.921875 1.1875.921875 1.46875 0 2.0625-2.625 2.21875-3.34375.265625-1.09375.96875-4.90625 1.03125-5.34375zm0 0"/></symbol><symbol id="e" overflow="visible"><path d="m2.515625-4.734375c.0625-.125.09375-.203125.09375-.3125 0-.28125-.25-.53125-.5625-.53125-.28125 0-.46875.1875-.53125.453125l-1.1875 4.359375c0 .015625-.03125.125-.03125.140625 0 .109375.25.171875.328125.171875.0625 0 .078125-.03125.125-.15625zm0 0"/></symbol><symbol id="f" overflow="visible"><path d="m2.28125-10.234375c0-.265625 0-.515625-.28125-.515625-.296875 0-.296875.25-.296875.515625v13.296875c0 .265625 0 .515625.296875.515625.28125 0 .28125-.25.28125-.515625zm0 0"/></symbol><symbol id="g" overflow="visible"><path d="m1.78125-1.140625c-.390625.65625-.78125.796875-1.21875.828125-.125.015625-.21875.015625-.21875.203125 0 .0625.0625.109375.140625.109375.265625 0 .578125-.03125.84375-.03125.34375 0 .6875.03125 1 .03125.0625 0 .1875 0 .1875-.1875 0-.109375-.078125-.125-.15625-.125-.21875-.015625-.46875-.09375-.46875-.34375 0-.125.0625-.234375.140625-.375l.765625-1.265625h2.5c.015625.203125.15625 1.5625.15625 1.65625 0 .296875-.515625.328125-.71875.328125-.140625 0-.234375 0-.234375.203125 0 .109375.109375.109375.140625.109375.40625 0 .828125-.03125 1.234375-.03125.25 0 .890625.03125 1.140625.03125.046875 0 .171875 0 .171875-.203125 0-.109375-.09375-.109375-.234375-.109375-.609375 0-.609375-.0625-.640625-.359375l-.609375-6.21875c-.015625-.203125-.015625-.25-.1875-.25-.15625 0-.203125.078125-.265625.171875zm1.203125-1.46875 1.953125-3.296875.328125 3.296875zm0 0"/></symbol><symbol id="h" overflow="visible"><path d="m2.015625-3.296875c.0625-.109375.0625-.171875.0625-.21875 0-.21875-.1875-.375-.40625-.375-.265625 0-.34375.21875-.375.328125l-.921875 3.015625c-.015625.015625-.046875.09375-.046875.109375 0 .078125.21875.15625.28125.15625.046875 0 .046875-.015625.09375-.125zm0 0"/></symbol><path d="m267.368 690.7c0 48.601563-21.488281 88-48 88s-48-39.398437-48-88c0-48.601562 21.488281-88 48-88s48 39.398438 48 88" style="fill-rule:evenodd;fill:#add8e6;fill-opacity:.3;stroke-width:2;stroke-linejoin:round;stroke:#bebebe;stroke-opacity:.3;stroke-miterlimit:10" transform="matrix(1 0 0 -1 -169.868 780.2)"/><path d="m257.5 90.136719c0-48.601563-21.488281-88-48-88s-48 39.398437-48 88c0 48.601562 21.488281 88 48 88s48-39.398438 48-88" fill="#ffc0cb" fill-opacity=".3" fill-rule="evenodd"/><g clip-path="url(#a)"><path d="m427.368 690.063281c0 48.601563-21.488281 88-48 88s-48-39.398437-48-88c0-48.601562 21.488281-88 48-88s48 39.398438 48 88" style="fill:none;stroke-width:2;stroke-linejoin:round;stroke:#8b0000;stroke-opacity:.3;stroke-miterlimit:10" transform="matrix(1 0 0 -1 -169.868 780.2)"/></g><g fill-rule="evenodd"><path d="m51.300781 49.496094c0-.992188-.808593-1.800782-1.800781-1.800782s-1.800781.808594-1.800781 1.800782c0 .996094.808593 1.800781 1.800781 1.800781s1.800781-.804687 1.800781-1.800781" fill="#bebebe"/><path d="m19.300781 81.496094c0-.992188-.808593-1.800782-1.800781-1.800782s-1.800781.808594-1.800781 1.800782c0 .996094.808593 1.800781 1.800781 1.800781s1.800781-.804687 1.800781-1.800781" fill="#00008b"/><path d="m67.300781 113.496094c0-.992188-.808593-1.800782-1.800781-1.800782s-1.800781.808594-1.800781 1.800782c0 .996094.808593 1.800781 1.800781 1.800781s1.800781-.804687 1.800781-1.800781" fill="#00008b"/><g fill="#8b0000"><path d="m195.300781 49.496094c0-.992188-.808593-1.800782-1.800781-1.800782s-1.800781.808594-1.800781 1.800782c0 .996094.808593 1.800781 1.800781 1.800781s1.800781-.804687 1.800781-1.800781"/><path d="m243.300781 81.496094c0-.992188-.808593-1.800782-1.800781-1.800782s-1.800781.808594-1.800781 1.800782c0 .996094.808593 1.800781 1.800781 1.800781s1.800781-.804687 1.800781-1.800781"/><path d="m211.300781 113.496094c0-.992188-.808593-1.800782-1.800781-1.800782s-1.800781.808594-1.800781 1.800782c0 .996094.808593 1.800781 1.800781 1.800781s1.800781-.804687 1.800781-1.800781"/><path d="m225.039062 146.035156c0-.992187-.808593-1.796875-1.800781-1.796875-.996093 0-1.800781.804688-1.800781 1.796875 0 .996094.804688 1.800782 1.800781 1.800782.992188 0 1.800781-.804688 1.800781-1.800782"/></g></g><g stroke-linejoin="round" stroke-miterlimit="10" stroke-width="2" transform="matrix(1 0 0 -1 -169.868 780.2)"><path d="m223.043781 732.078906c65.257813 11.683594 110.328125 11.996094 135.214844.9375" fill="none" stroke="#bebebe" stroke-opacity=".3"/><path d="m358.258625 733.016406-5.453125 4.972657-1.890625-4.261719zm0 0" fill="#bebebe" fill-rule="evenodd" stroke="#bebebe"/><path d="m189.977375 698.434375c72.972656-2.085937 129.441406 7.683594 169.410156 29.300781" fill="none" stroke="#2e8b57"/><path d="m359.387531 727.735156-7.265625-1.277343 2.21875-4.101563zm0 0" fill="#2e8b57" fill-rule="evenodd" stroke="#2e8b57"/><path d="m238.414875 665.657031c55.964844-10.722656 101.757813-10.695312 137.375.089844" fill="none" stroke="#2e8b57"/><path d="m375.789875 665.746875-7.375.203125 1.351563-4.460937zm0 0" fill="#2e8b57" fill-rule="evenodd" stroke="#2e8b57"/></g><use fill="#bebebe" x="83.365" xlink:href="#b" y="178.53"/><use fill="#8b0000" x="247.135" xlink:href="#c" y="177.892"/><use fill="#bebebe" fill-opacity=".3" x="122.237" xlink:href="#d" y="22.408"/><path d="m193.875813 708.891406c-10.375 1.714844-17.074219-2.371093-15.113282-11.195312 1.960938-8.820313 12.582032-22.382813 27.449219-30.714844 14.871094-8.335937 33.984375-11.4375 39.050781-6.375 5.066407 5.066406-3.921875 18.300781-15.441406 28.675781s-25.570312 17.890625-35.945312 19.609375zm0 0" fill="none" stroke="#000080" stroke-linejoin="round" stroke-miterlimit="10" stroke-width="1.2" transform="matrix(1 0 0 -1 -169.868 780.2)"/><use fill="#000080" x="26.704" xlink:href="#b" y="130.703"/><use fill="#000080" x="37.234" xlink:href="#e" y="125.497"/><use fill="#2e8b57" x="121.524" xlink:href="#d" y="99.817"/><use fill="#2e8b57" x="129.979" xlink:href="#f" y="99.817"/><use fill="#2e8b57" x="133.964" xlink:href="#g" y="103.902"/><use fill="#2e8b57" x="141.436" xlink:href="#h" y="101.024"/></svg>