<svg height="131pt" viewBox="0 0 131 131" width="131pt" xmlns="http://www.w3.org/2000/svg" xmlns:xlink="http://www.w3.org/1999/xlink"><symbol id="a" overflow="visible"><path d="m9.109375-9.96875c0-.125-.09375-.125-.125-.125-.0625 0-.078125.015625-.25.21875-.078125.109375-.671875.859375-.6875.859375-.46875-.921875-1.421875-1.078125-2.015625-1.078125-1.828125 0-3.484375 1.65625-3.484375 3.28125 0 1.078125.65625 1.703125 1.359375 1.953125.15625.046875 1 .28125 1.421875.390625.734375.1875.921875.25 1.234375.5625.046875.078125.34375.40625.34375 1.078125 0 1.34375-1.234375 2.71875-2.671875 2.71875-1.171875 0-2.484375-.5-2.484375-2.109375 0-.28125.0625-.625.09375-.765625 0-.046875.015625-.109375.015625-.140625 0-.0625-.015625-.125-.140625-.125s-.140625.015625-.203125.265625l-.734375 2.9375c0 .015625-.046875.203125-.046875.21875 0 .125.109375.125.140625.125.0625 0 .078125-.015625.25-.21875l.65625-.859375c.34375.515625 1.09375 1.078125 2.421875 1.078125 1.84375 0 3.546875-1.78125 3.546875-3.578125 0-.609375-.140625-1.140625-.6875-1.671875-.3125-.296875-.5625-.375-1.890625-.71875-.953125-.25-1.078125-.296875-1.34375-.53125-.25-.234375-.421875-.578125-.421875-1.0625 0-1.21875 1.21875-2.4375 2.578125-2.4375 1.40625 0 2.0625.859375 2.0625 2.21875 0 .375-.078125.75-.078125.8125 0 .125.125.125.171875.125.125 0 .140625-.03125.1875-.265625zm0 0"/></symbol><symbol id="b" overflow="visible"><path d="m5.984375-8.75c.078125-.34375.109375-.46875.328125-.53125.109375-.03125.59375-.03125.890625-.03125 1.4375 0 2.109375.0625 2.109375 1.171875 0 .21875-.0625.765625-.140625 1.296875l-.015625.171875c0 .0625.046875.140625.140625.140625.140625 0 .140625-.0625.1875-.296875l.40625-2.53125c.03125-.140625.03125-.171875.03125-.203125 0-.15625-.078125-.15625-.375-.15625h-7.84375c-.328125 0-.34375.015625-.421875.265625l-.875 2.578125c-.015625.03125-.0625.1875-.0625.203125 0 .078125.0625.140625.140625.140625.125 0 .140625-.046875.203125-.234375.609375-1.734375.90625-2.546875 2.8125-2.546875h.953125c.359375 0 .5 0 .5.15625 0 .046875 0 .078125-.078125.328125l-1.921875 7.703125c-.140625.5625-.171875.703125-1.6875.703125-.359375 0-.46875 0-.46875.28125 0 .140625.171875.140625.234375.140625.359375 0 .734375-.03125 1.09375-.03125h2.234375c.359375 0 .75.03125 1.109375.03125.15625 0 .296875 0 .296875-.265625 0-.15625-.09375-.15625-.46875-.15625-1.296875 0-1.296875-.125-1.296875-.34375 0-.015625 0-.109375.0625-.34375zm0 0"/></symbol><path d="m320 704c0 35.347656-28.652344 64-64 64s-64-28.652344-64-64 28.652344-64 64-64 64 28.652344 64 64" style="fill-rule:evenodd;fill:#add8e6;stroke-width:2;stroke-linejoin:round;stroke:#00008b;stroke-miterlimit:10" transform="matrix(1 0 0 -1 -190.5 769.5)"/><path d="m320 704c0 26.511719-21.488281 48-48 48s-48-21.488281-48-48 21.488281-48 48-48 48 21.488281 48 48" style="fill-rule:evenodd;fill:#ffffe0;stroke-width:2;stroke-linejoin:round;stroke:#006400;stroke-miterlimit:10" transform="matrix(1 0 0 -1 -190.5 769.5)"/><use fill="#00008b" x="22.204" xlink:href="#a" y="97.011"/><use fill="#006400" x="54.11" xlink:href="#b" y="95.004"/><g fill="#00008b" fill-rule="evenodd"><path d="m71.363281 48.652344c0-.992188-.808593-1.796875-1.800781-1.796875-.996094 0-1.800781.804687-1.800781 1.796875 0 .996094.804687 1.800781 1.800781 1.800781.992188 0 1.800781-.804687 1.800781-1.800781"/><path d="m99.496094 61.707031c0-.996093-.804688-1.800781-1.800782-1.800781-.992187 0-1.800781.804688-1.800781 1.800781 0 .992188.808594 1.800781 1.800781 1.800781.996094 0 1.800782-.808593 1.800782-1.800781"/><path d="m80.0625 75.339844c0-.996094-.804688-1.800782-1.800781-1.800782-.992188 0-1.796875.804688-1.796875 1.800782 0 .992187.804687 1.796875 1.796875 1.796875.996093 0 1.800781-.804688 1.800781-1.796875"/><path d="m18.28125 52.714844c0-.996094-.804688-1.800782-1.796875-1.800782-.996094 0-1.800781.804688-1.800781 1.800782s.804687 1.800781 1.800781 1.800781c.992187 0 1.796875-.804687 1.796875-1.800781"/><path d="m46.996094 21.097656c0-.992187-.804688-1.796875-1.796875-1.796875-.996094 0-1.800781.804688-1.800781 1.796875 0 .996094.804687 1.800782 1.800781 1.800782.992187 0 1.796875-.804688 1.796875-1.800782"/><path d="m42.066406 108.984375c0-.996094-.804687-1.800781-1.800781-1.800781-.992187 0-1.796875.804687-1.796875 1.800781 0 .992187.804688 1.800781 1.796875 1.800781.996094 0 1.800781-.808594 1.800781-1.800781"/><path d="m93.40625 84.910156c0-.996094-.808594-1.800781-1.800781-1.800781-.996094 0-1.800781.804687-1.800781 1.800781 0 .992188.804687 1.800782 1.800781 1.800782.992187 0 1.800781-.808594 1.800781-1.800782"/></g></svg>