<svg height="86.734pt" viewBox="0 0 140.066 86.734" width="140.066pt" xmlns="http://www.w3.org/2000/svg" xmlns:xlink="http://www.w3.org/1999/xlink"><clipPath id="a"><path d="m0 0h44v86.734375h-44zm0 0"/></clipPath><clipPath id="b"><path d="m96 0h44v86.734375h-44zm0 0"/></clipPath><symbol id="c" overflow="visible"><path d="m1.78125-1.140625c-.390625.65625-.78125.796875-1.21875.828125-.125.015625-.21875.015625-.21875.203125 0 .0625.0625.109375.140625.109375.265625 0 .578125-.03125.84375-.03125.34375 0 .6875.03125 1 .03125.0625 0 .1875 0 .1875-.1875 0-.109375-.078125-.125-.15625-.125-.21875-.015625-.46875-.09375-.46875-.34375 0-.125.0625-.234375.140625-.375l.765625-1.265625h2.5c.015625.203125.15625 1.5625.15625 1.65625 0 .296875-.515625.328125-.71875.328125-.140625 0-.234375 0-.234375.203125 0 .109375.109375.109375.140625.109375.40625 0 .828125-.03125 1.234375-.03125.25 0 .890625.03125 1.140625.03125.046875 0 .171875 0 .171875-.203125 0-.109375-.09375-.109375-.234375-.109375-.609375 0-.609375-.0625-.640625-.359375l-.609375-6.21875c-.015625-.203125-.015625-.25-.1875-.25-.15625 0-.203125.078125-.265625.171875zm1.203125-1.46875 1.953125-3.296875.328125 3.296875zm0 0"/></symbol><symbol id="d" overflow="visible"><path d="m1.59375-.78125c-.09375.390625-.125.46875-.90625.46875-.171875 0-.265625 0-.265625.203125 0 .109375.09375.109375.265625.109375h3.5625c1.578125 0 2.75-1.171875 2.75-2.15625 0-.71875-.578125-1.296875-1.546875-1.40625 1.03125-.1875 2.078125-.921875 2.078125-1.875 0-.734375-.65625-1.375-1.84375-1.375h-3.359375c-.1875 0-.28125 0-.28125.203125 0 .109375.09375.109375.28125.109375.015625 0 .203125 0 .375.015625.171875.03125.265625.03125.265625.171875 0 .03125-.015625.0625-.03125.1875zm1.5-2.875.625-2.46875c.09375-.34375.109375-.375.53125-.375h1.296875c.875 0 1.078125.59375 1.078125 1.03125 0 .875-.859375 1.8125-2.0625 1.8125zm-.4375 3.34375c-.140625 0-.15625 0-.21875 0-.109375-.015625-.140625-.03125-.140625-.109375 0-.03125 0-.046875.0625-.21875l.6875-2.78125h1.875c.953125 0 1.15625.734375 1.15625 1.15625 0 .984375-.890625 1.953125-2.078125 1.953125zm0 0"/></symbol><symbol id="e" overflow="visible"><path d="m3.65625-3.984375h.859375c.203125 0 .296875 0 .296875-.203125 0-.109375-.09375-.109375-.265625-.109375h-.828125l.203125-1.140625c.046875-.203125.1875-.90625.25-1.03125.078125-.1875.25-.34375.46875-.34375.03125 0 .296875 0 .484375.1875-.4375.03125-.546875.390625-.546875.53125 0 .234375.1875.359375.375.359375.265625 0 .546875-.234375.546875-.609375 0-.453125-.453125-.6875-.859375-.6875-.34375 0-.96875.1875-1.265625 1.171875-.0625.203125-.09375.3125-.328125 1.5625h-.6875c-.203125 0-.3125 0-.3125.1875 0 .125.09375.125.28125.125h.65625l-.734375 3.9375c-.1875.96875-.359375 1.875-.875 1.875-.046875 0-.28125 0-.484375-.1875.46875-.03125.5625-.390625.5625-.53125 0-.234375-.1875-.359375-.375-.359375-.265625 0-.546875.234375-.546875.609375 0 .4375.4375.6875.84375.6875.546875 0 .953125-.59375 1.125-.96875.328125-.625.546875-1.828125.5625-1.90625zm0 0"/></symbol><g clip-path="url(#a)"><path d="m191.99825 661.331844c10.667969 0 21.335938 21.335937 21.335938 42.667968 0 21.332032-10.667969 42.667969-21.335938 42.667969-10.664062 0-21.332031-21.335937-21.332031-42.667969 0-21.332031 10.667969-42.667968 21.332031-42.667968zm0 0" fill="none" stroke="#8b0000" stroke-linejoin="round" stroke-miterlimit="10" stroke-width=".4" transform="matrix(1 0 0 -1 -169.967 747.367)"/></g><g clip-path="url(#b)"><path d="m287.99825 661.331844c10.667969 0 21.335937 21.335937 21.335937 42.667968 0 21.332032-10.667968 42.667969-21.335937 42.667969-10.664063 0-21.332031-21.335937-21.332031-42.667969 0-21.332031 10.667968-42.667968 21.332031-42.667968zm0 0" fill="none" stroke="#008b8b" stroke-linejoin="round" stroke-miterlimit="10" stroke-width=".4" transform="matrix(1 0 0 -1 -169.967 747.367)"/></g><g fill-rule="evenodd"><path d="m23.832031 27.367188c0-.996094-.804687-1.800782-1.800781-1.800782-.992188 0-1.796875.804688-1.796875 1.800782 0 .992187.804687 1.800781 1.796875 1.800781.996094 0 1.800781-.808594 1.800781-1.800781"/><path d="m23.832031 43.367188c0-.996094-.804687-1.800782-1.800781-1.800782-.992188 0-1.796875.804688-1.796875 1.800782 0 .992187.804687 1.800781 1.796875 1.800781.996094 0 1.800781-.808594 1.800781-1.800781"/><path d="m23.832031 59.367188c0-.996094-.804687-1.800782-1.800781-1.800782-.992188 0-1.796875.804688-1.796875 1.800782 0 .992187.804687 1.800781 1.796875 1.800781.996094 0 1.800781-.808594 1.800781-1.800781"/><path d="m119.832031 27.367188c0-.996094-.804687-1.800782-1.800781-1.800782-.992188 0-1.796875.804688-1.796875 1.800782 0 .992187.804687 1.800781 1.796875 1.800781.996094 0 1.800781-.808594 1.800781-1.800781"/><path d="m119.832031 27.367188c0-.996094-.804687-1.800782-1.800781-1.800782-.992188 0-1.796875.804688-1.796875 1.800782 0 .992187.804687 1.800781 1.796875 1.800781.996094 0 1.800781-.808594 1.800781-1.800781"/><path d="m119.832031 43.367188c0-.996094-.804687-1.800782-1.800781-1.800782-.992188 0-1.796875.804688-1.796875 1.800782 0 .992187.804687 1.800781 1.796875 1.800781.996094 0 1.800781-.808594 1.800781-1.800781"/></g><g stroke-linejoin="round" stroke-miterlimit="10" stroke-width=".4" transform="matrix(1 0 0 -1 -169.967 747.367)"><g stroke="#000"><path d="m194.603719 703.097469c30.40625-4.53125 60.195312-4.625 89.371093-.277344" fill="none"/><path d="m283.974812 702.820125-5.191406.910156.492188-3.292969zm0 0" fill-rule="evenodd"/><path d="m194.447469 688.33575c42.980469 10 73.109375 19.917969 90.386718 29.757812" fill="none"/><path d="m284.834187 718.093562-5.167968-1.027343 1.648437-2.894532zm0 0" fill-rule="evenodd"/><path d="m194.213094 720.988094c30.4375 7.339843 60.300781 7.863281 89.589843 1.570312" fill="none"/><path d="m283.802937 722.558406-4.539062 2.675781-.699219-3.253906zm0 0" fill-rule="evenodd"/></g><path d="m192.115438 698.542781c2.949218-.089844 6.117187 7.214844 6.074218 14.015625-.042968 6.796875-3.300781 13.089844-6.25 13.179688-2.949218.089843-5.585937-6.027344-5.542968-12.828125.042968-6.800782 2.769531-14.28125 5.71875-14.367188zm0 0" fill="none" stroke="#2e8b57"/><path d="m192.24825 681.941219c2.949219-.085938 6.117188 7.21875 6.074219 14.015625-.042969 6.800781-3.300781 13.09375-6.25 13.179687-2.945313.089844-5.585938-6.027344-5.542969-12.824219.042969-6.800781 2.773438-14.28125 5.71875-14.371093zm0 0" fill="none" stroke="#00008b"/></g><use fill="#00008b" x="7.947" xlink:href="#c" y="58.976"/><use fill="#2e8b57" x="7.033" xlink:href="#d" y="38.36"/><use x="64.318" xlink:href="#e" y="13.916"/></svg>