<svg height="150.36" viewBox="0 0 142.73 112.77" width="190.307" xmlns="http://www.w3.org/2000/svg" xmlns:xlink="http://www.w3.org/1999/xlink"><symbol id="a" overflow="visible"><path d="m11.09375-16.921875-8.953125 14.234375c-.875 1.34375-1.296875 1.734375-2.109375 1.921875l-.484375.125v.71875c2.203125-.078125 2.203125-.078125 2.6875-.078125.453125 0 .5 0 2.5625.078125v-.671875l-1.25-.078125c-.375-.03125-.734375-.234375-.734375-.453125 0-.1875.15625-.53125.625-1.328125l2.4375-4.1875h5.90625l.609375 4.5v.078125c0 .015625.015625.09375.046875.21875.015625.1875.046875.421875.046875.53125 0 .375-.359375.59375-1.03125.640625l-1.0625.078125v.671875c2.453125-.078125 2.453125-.078125 2.921875-.078125.484375 0 .484375 0 2.9375.078125v-.671875l-.625-.078125c-1.125-.171875-1.15625-.171875-1.34375-1.25l-2.09375-15zm-.3125 2.5.875 6.90625h-5.171875zm0 0"/></symbol><symbol id="b" overflow="visible"><path d="m2.328125-15.9375 1.265625.046875c.578125.03125.84375.21875.84375.65625 0 .328125-.09375 1.09375-.21875 1.8125l-2.078125 12.109375c-.09375.421875-.390625.59375-1.390625.765625l-.125.625.890625-.03125c.640625-.046875 1-.046875 1.296875-.046875.265625 0 .890625.03125 1.5.046875l.890625.03125.484375.015625c.453125.03125.765625.046875.953125.046875 1.15625 0 2.3125-.328125 3.4375-1 1.890625-1.125 2.953125-2.765625 2.953125-4.59375 0-1.03125-.328125-1.8125-.984375-2.34375-.625-.5-1.34375-.71875-3-.96875 1.375-.46875 1.96875-.765625 2.71875-1.4375 1.09375-.9375 1.65625-2.0625 1.65625-3.28125 0-1.96875-1.390625-3.125-3.796875-3.125-.046875 0-.28125 0-.65625.03125l-1.5.015625c-.296875.03125-1.15625.03125-1.4375.03125-.46875 0-1.203125-.03125-2.390625-.046875l-1.234375-.03125zm2.875 7.78125h2.046875c2.46875 0 3.671875 1 3.671875 3.09375 0 2.46875-1.75 4.25-4.15625 4.25-.484375 0-1.171875-.03125-1.96875-.09375-.140625-.03125-.421875-.046875-.8125-.078125zm1.328125-7.4375c.265625 0 .3125-.03125.8125-.046875.5-.0625.8125-.078125 1.109375-.078125 1.9375 0 2.90625.859375 2.90625 2.65625 0 2.53125-1.78125 4.03125-4.765625 4.03125h-1.234375zm0 0"/></symbol><symbol id="c" overflow="visible"><path d="m15.28125-14.0625c0-.453125 0-.890625-.5-.890625s-.5.4375-.5.890625v9.0625c0 3.75-4.078125 4.546875-5.953125 4.546875-1.125 0-2.703125-.21875-4.03125-1.078125-1.921875-1.21875-1.921875-2.828125-1.921875-3.5v-9.03125c0-.453125 0-.890625-.5-.890625s-.5.4375-.5.890625v9.15625c0 3.8125 3.828125 5.453125 6.953125 5.453125 3.25 0 6.953125-1.75 6.953125-5.421875zm0 0"/></symbol><symbol id="d" overflow="visible"><path d="m7.390625-11.28125-5.96875 9.484375c-.578125.90625-.859375 1.15625-1.40625 1.28125l-.3125.078125v.484375c1.46875-.046875 1.46875-.046875 1.78125-.046875s.34375 0 1.71875.046875v-.453125l-.828125-.046875c-.265625-.015625-.5-.15625-.5-.296875 0-.125.109375-.359375.40625-.875l1.640625-2.8125h3.9375l.390625 3.015625v.046875c0 .015625.015625.0625.03125.140625.015625.125.03125.296875.03125.359375 0 .25-.234375.390625-.6875.421875l-.703125.046875v.453125c1.640625-.046875 1.640625-.046875 1.953125-.046875.328125 0 .328125 0 1.953125.046875v-.453125l-.40625-.046875c-.765625-.109375-.78125-.109375-.90625-.828125l-1.390625-10zm-.203125 1.671875.59375 4.59375h-3.46875zm0 0"/></symbol><symbol id="e" overflow="visible"><path d="m1.546875-10.625.859375.03125c.375.015625.546875.140625.546875.4375 0 .21875-.0625.734375-.140625 1.21875l-1.390625 8.0625c-.0625.28125-.25.390625-.921875.5l-.078125.421875.59375-.015625c.421875-.03125.671875-.03125.859375-.03125.171875 0 .59375.015625 1 .03125l.59375.015625.328125.015625c.296875.015625.5.03125.640625.03125.765625 0 1.53125-.21875 2.28125-.671875 1.265625-.75 1.96875-1.84375 1.96875-3.046875 0-.6875-.21875-1.21875-.65625-1.578125-.421875-.328125-.890625-.484375-2-.640625.90625-.3125 1.3125-.515625 1.8125-.953125.734375-.625 1.09375-1.375 1.09375-2.1875 0-1.3125-.921875-2.09375-2.515625-2.09375-.03125 0-.203125 0-.4375.015625l-1.015625.015625c-.1875.015625-.765625.015625-.953125.015625-.296875 0-.796875-.015625-1.578125-.03125l-.84375-.015625zm1.921875 5.1875h1.359375c1.65625 0 2.453125.671875 2.453125 2.0625 0 1.640625-1.171875 2.828125-2.765625 2.828125-.328125 0-.78125-.015625-1.3125-.0625-.09375-.015625-.296875-.03125-.546875-.046875zm.890625-4.96875c.171875 0 .203125-.015625.53125-.03125.34375-.03125.546875-.046875.734375-.046875 1.296875 0 1.9375.578125 1.9375 1.78125 0 1.671875-1.171875 2.6875-3.15625 2.6875h-.84375zm0 0"/></symbol><path d="m85.328125 46.328125c0-21.167969-17.160156-38.324219-38.324219-38.324219-21.167968 0-38.324218 17.15625-38.324218 38.324219 0 21.164063 17.15625 38.324219 38.324218 38.324219 21.164063 0 38.324219-17.160156 38.324219-38.324219" fill="#525294"/><path d="m135.148438 46.328125c0-21.167969-17.15625-38.324219-38.324219-38.324219-21.164063 0-38.324219 17.15625-38.324219 38.324219 0 21.164063 17.160156 38.324219 38.324219 38.324219 21.167969 0 38.324219-17.160156 38.324219-38.324219" fill="#525294"/><path d="m853.28125 664.41875c0 211.679688-171.601562 383.242188-383.242188 383.242188-211.679687 0-383.242187-171.5625-383.242187-383.242188 0-211.640625 171.5625-383.242187 383.242187-383.242187 211.640626 0 383.242188 171.601562 383.242188 383.242187zm0 0" transform="matrix(.1 0 0 -.1 0 112.77)" fill="none" stroke-width="4.99887" stroke-linecap="round" stroke-linejoin="round" stroke="#000" stroke-miterlimit="10"/><path d="m1351.484375 664.41875c0 211.679688-171.5625 383.242188-383.242187 383.242188-211.640626 0-383.242188-171.5625-383.242188-383.242188 0-211.640625 171.601562-383.242187 383.242188-383.242187 211.679687 0 383.242187 171.601562 383.242187 383.242187zm0 0" transform="matrix(.1 0 0 -.1 0 112.77)" fill="none" stroke-width="4.99887" stroke-linecap="round" stroke-linejoin="round" stroke="#000" stroke-miterlimit="10"/><g fill="#191970"><use x="42.6" xlink:href="#a" y="106.41"/><use x="65.28" xlink:href="#c" y="106.41"/><use x="87.6" xlink:href="#b" y="106.41"/></g><use x="6.48" xlink:href="#d" y="16.65"/><use x="127.44" xlink:href="#e" y="16.53"/></svg>