<svg height="234.051pt" viewBox="0 0 276.886 234.051" width="276.886pt" xmlns="http://www.w3.org/2000/svg" xmlns:xlink="http://www.w3.org/1999/xlink"><clipPath id="a"><path d="m202 161h74.886719v72h-74.886719zm0 0"/></clipPath><symbol id="b" overflow="visible"><path d="m.09375-3.984375h.375c.40625 0 .4375.0625.4375.71875v5.015625c0 .625-.03125.703125-.375.71875l-.453125.03125v.296875c1-.03125 1-.03125 1.25-.03125s.25 0 1.25.03125v-.296875l-.46875-.03125c-.328125-.015625-.359375-.09375-.359375-.71875v-1.875c.296875.171875.609375.25 1.0625.25.28125 0 .546875-.0625.703125-.171875l1.140625-.734375c.390625-.25.859375-1.28125.859375-1.921875 0-1.109375-.90625-1.96875-2.0625-1.96875-.375 0-.734375.09375-.890625.25l-.8125.75v-.96875l-.09375-.03125c-.515625.203125-1.03125.34375-1.5625.40625zm1.65625.9375c0-.140625.046875-.25.171875-.421875.296875-.375.703125-.5625 1.203125-.5625.9375 0 1.53125.65625 1.53125 1.703125 0 1.109375-.671875 1.9375-1.5625 1.9375-.546875 0-.953125-.171875-1.34375-.59375zm0 0"/></symbol><symbol id="c" overflow="visible"><path d="m4.359375-.703125-.125-.09375c-.640625.375-.875.46875-1.296875.46875-.65625 0-1.1875-.296875-1.46875-.78125-.1875-.328125-.265625-.609375-.28125-1.1875h1.453125c.6875 0 1.125-.03125 1.8125-.140625 0-.140625.015625-.21875.015625-.34375 0-1.140625-.734375-1.890625-1.859375-1.890625-.359375 0-.796875.125-1.203125.359375-.8125.46875-1.140625 1.09375-1.140625 2.125 0 .625.140625 1.171875.40625 1.546875.40625.53125 1.078125.84375 1.828125.84375.359375 0 .734375-.078125 1.140625-.265625.265625-.109375.46875-.234375.515625-.296875zm-.78125-1.953125c-.515625.015625-.75.03125-1.109375.03125-.46875 0-.71875-.015625-1.265625-.0625 0-.46875.046875-.6875.171875-.953125.203125-.4375.640625-.703125 1.125-.703125.328125 0 .578125.125.765625.390625.21875.328125.28125.625.3125 1.296875zm0 0"/></symbol><symbol id="d" overflow="visible"><path d="m.984375-3.8125v2.875c0 .734375.328125 1.0625 1.09375 1.0625.21875 0 .46875-.0625.53125-.125l.46875-.53125-.125-.171875c-.25.140625-.40625.1875-.59375.1875-.390625 0-.546875-.1875-.546875-.6875v-2.609375h1.28125l.09375-.53125-1.375.0625v-.390625c0-.40625.03125-.765625.109375-1.40625l-.125-.109375c-.234375.140625-.53125.28125-.84375.375.03125.296875.046875.484375.046875.78125v.703125l-.78125.34375v.21875zm0 0"/></symbol><symbol id="e" overflow="visible"><path d="m3.234375-.8125-.046875.84375c.640625-.03125.640625-.03125.765625-.03125.046875 0 .296875.015625.734375.03125v-.296875l-.375-.03125c-.25 0-.28125-.078125-.28125-.578125v-1.8125c0-1.453125-.421875-1.984375-1.578125-1.984375-.421875 0-.828125.109375-1.203125.328125l-.53125.328125v.640625l.265625.078125.125-.3125c.203125-.46875.3125-.53125.765625-.53125.9375 0 1.328125.359375 1.359375 1.265625l-.984375.1875c-1.359375.25-1.9375.71875-1.9375 1.578125 0 .78125.46875 1.234375 1.265625 1.234375.171875 0 .34375-.03125.421875-.078125zm0-.421875c-.296875.40625-.921875.78125-1.3125.78125s-.75-.359375-.75-.796875c0-.359375.203125-.71875.5-.90625.25-.140625.796875-.28125 1.5625-.390625zm0 0"/></symbol><symbol id="f" overflow="visible"><path d="m.234375-6.59375h.546875c.1875 0 .25.109375.25.40625v5.171875c0 .625-.03125.703125-.359375.71875l-.46875.03125v.296875c1-.03125 1-.03125 1.25-.03125s.25 0 1.25.03125v-.296875l-.453125-.03125c-.34375-.015625-.375-.09375-.375-.71875v-6.140625l-.09375-.078125c-.4375.171875-.765625.25-1.546875.359375zm0 0"/></symbol><symbol id="g" overflow="visible"><path d="m4.09375.03125c.59375-.03125.609375-.03125.78125-.03125.140625 0 .140625 0 .828125.03125v-.296875l-.40625-.03125c-.34375-.015625-.375-.078125-.375-.71875v-1.921875c0-1.171875-.546875-1.734375-1.65625-1.734375-.375 0-.578125.0625-.796875.25l-.75.65625v-.875l-.09375-.03125c-.515625.203125-1.03125.34375-1.5625.40625v.28125h.375c.40625 0 .4375.0625.4375.71875v2.25c0 .625-.03125.703125-.359375.71875l-.453125.03125v.296875c.671875-.015625.9375-.03125 1.234375-.03125.28125 0 .5625.015625 1.234375.03125v-.296875l-.453125-.03125c-.328125-.015625-.359375-.09375-.359375-.71875v-2.109375c0-.453125.65625-.9375 1.265625-.9375.671875 0 1.109375.5 1.109375 1.265625zm0 0"/></symbol><symbol id="h" overflow="visible"><path d="m5.171875-3.765625.25-.40625-.03125-.125-1.421875.046875c-.375-.3125-.734375-.421875-1.21875-.421875-.4375 0-.953125.140625-1.359375.375-.546875.3125-.84375.8125-.84375 1.421875 0 .734375.453125 1.234375 1.203125 1.3125l-.796875.609375c-.09375.15625-.140625.28125-.140625.4375 0 .28125.171875.4375.65625.578125l-.875.46875c-.140625.078125-.28125.453125-.28125.75 0 .90625.890625 1.546875 2.15625 1.546875 1.515625 0 2.6875-.953125 2.6875-2.171875 0-.71875-.46875-1.21875-1.171875-1.21875h-1.59375c-.515625 0-.75-.109375-.75-.390625 0-.125.078125-.234375.328125-.453125.0625-.046875.078125-.0625.125-.109375.09375.015625.15625.015625.234375.015625.4375 0 .96875-.1875 1.375-.46875.4375-.328125.65625-.734375.65625-1.265625 0-.1875-.015625-.328125-.109375-.53125zm-2.78125-.578125c.6875 0 1.140625.5625 1.140625 1.40625 0 .65625-.421875 1.109375-1.03125 1.109375-.671875 0-1.109375-.53125-1.109375-1.296875s.359375-1.21875 1-1.21875zm.46875 4.484375c1.125 0 1.515625.234375 1.515625.875 0 .859375-.78125 1.5-1.828125 1.5-.875 0-1.46875-.515625-1.46875-1.25 0-.453125.25-.859375.65625-1.03125.15625-.078125.4375-.09375 1.125-.09375zm0 0"/></symbol><symbol id="i" overflow="visible"><path d="m.0625-6.59375h.5625c.1875 0 .25.109375.25.40625v5.171875c0 .625-.03125.703125-.359375.71875l-.453125.03125v.296875c.671875-.015625.9375-.03125 1.234375-.03125.28125 0 .5625.015625 1.234375.03125v-.296875l-.453125-.03125c-.328125-.015625-.359375-.09375-.359375-.71875v-2.109375c0-.453125.65625-.9375 1.265625-.9375.671875 0 1.109375.5 1.109375 1.265625v2.828125c.59375-.03125.609375-.03125.78125-.03125.140625 0 .140625 0 .828125.03125v-.296875l-.40625-.03125c-.34375-.015625-.375-.078125-.375-.71875v-1.921875c0-1.171875-.546875-1.734375-1.65625-1.734375-.375 0-.578125.0625-.796875.25l-.75.65625v-3.390625l-.09375-.078125c-.4375.171875-.765625.25-1.5625.359375zm0 0"/></symbol><symbol id="j" overflow="visible"><path d="m.421875-4.96875h.3125l.1875-.546875c.109375-.34375.734375-.6875 1.25-.6875.65625 0 1.171875.53125 1.171875 1.15625 0 .75-.578125 1.375-1.296875 1.375-.078125 0-.1875 0-.3125-.015625l-.15625-.015625-.109375.53125.0625.0625c.375-.171875.578125-.21875.84375-.21875.828125 0 1.296875.53125 1.296875 1.4375 0 1.015625-.59375 1.6875-1.53125 1.6875-.453125 0-.859375-.15625-1.15625-.4375-.25-.21875-.375-.453125-.5625-.984375l-.265625.09375c.203125.609375.28125.96875.34375 1.46875.53125.1875.96875.265625 1.328125.265625.796875 0 1.71875-.453125 2.265625-1.125.34375-.40625.515625-.84375.515625-1.3125 0-.484375-.203125-.890625-.5625-1.140625-.25-.1875-.484375-.265625-.96875-.359375.796875-.609375 1.09375-1.078125 1.09375-1.65625 0-.890625-.75-1.484375-1.84375-1.484375-.6875 0-1.125.203125-1.609375.671875zm0 0"/></symbol><symbol id="k" overflow="visible"><path d="m1.234375-1.109375c-.296875 0-.5625.28125-.5625.578125s.265625.578125.546875.578125c.328125 0 .609375-.265625.609375-.578125 0-.296875-.28125-.578125-.59375-.578125zm0 0"/></symbol><symbol id="l" overflow="visible"><path d="m.5625-.09375.078125.125c.390625-.03125.390625-.03125.46875-.03125.0625 0 .0625 0 .453125.03125.421875-1.09375.90625-2.125 1.5625-3.328125l1.828125-3.265625v-.3125c-1.078125.046875-1.421875.0625-2.234375.0625-.71875 0-1.21875-.015625-2.1875-.0625l-.09375.0625c.03125.9375.03125.9375.03125 1.046875s0 .109375-.03125 1.015625h.296875l.078125-.5625c.078125-.625.140625-.703125.609375-.703125h2.65625c-.40625.828125-.703125 1.40625-1.09375 2.015625zm0 0"/></symbol><symbol id="m" overflow="visible"><path d="m1.265625-6.03125c1.28125.046875 1.84375.046875 3.046875.046875l.046875-.046875c-.015625-.171875-.015625-.265625-.015625-.390625 0-.140625 0-.21875.015625-.390625l-.046875-.0625c-.75.046875-1.203125.0625-1.734375.0625-.546875 0-1-.015625-1.734375-.0625l-.0625.0625c.015625.609375.03125 1.046875.03125 1.359375 0 .84375-.03125 1.796875-.0625 2.25l.203125.046875c.46875-.46875.734375-.609375 1.21875-.609375.953125 0 1.5625.6875 1.5625 1.765625 0 1.109375-.640625 1.75-1.734375 1.75-.53125 0-1.03125-.171875-1.171875-.4375l-.453125-.8125-.25.140625c.234375.5625.359375.875.5 1.3125.265625.15625.671875.25 1.09375.25.671875 0 1.375-.296875 1.9375-.765625.59375-.546875.921875-1.21875.921875-1.953125 0-1.140625-.8125-1.9375-1.953125-1.9375-.46875 0-.828125.140625-1.453125.5zm0 0"/></symbol><symbol id="n" overflow="visible"><path d="m.40625-1.421875c0 .6875-.03125.984375-.109375 1.375.515625.171875.90625.25 1.375.25 1.296875 0 2.21875-.703125 2.21875-1.671875 0-.3125-.078125-.546875-.265625-.75-.265625-.25-.59375-.359375-1.46875-.53125-.828125-.15625-1.09375-.359375-1.09375-.8125 0-.5.359375-.78125.96875-.78125.65625 0 1.171875.34375 1.171875.8125v.234375h.28125c0-.578125.015625-.8125.046875-1.125-.53125-.1875-.890625-.25-1.296875-.25-1.15625 0-1.859375.546875-1.859375 1.4375 0 .484375.21875.828125.671875 1.03125.265625.125.796875.28125 1.46875.421875.453125.109375.640625.3125.640625.6875 0 .546875-.5.921875-1.203125.921875-.734375 0-1.25-.34375-1.25-.84375v-.40625zm0 0"/></symbol><symbol id="o" overflow="visible"><path d="m4.109375-4.671875c-.8125 1.90625-.953125 2.234375-1.578125 3.640625l-.84375-2.75c-.015625-.09375-.03125-.171875-.03125-.25 0-.15625.125-.234375.375-.25l.40625-.015625v-.28125c-.984375.03125-.984375.03125-1.1875.03125s-.203125 0-1.1875-.03125v.28125l.28125.015625c.28125.03125.40625.21875.65625 1l1.015625 3.34375h.46875l.96875-2.28125c.0625-.125.171875-.359375.328125-.703125l.203125-.421875 1.34375 3.40625h.46875c.0625-.203125.140625-.4375.21875-.65625.203125-.578125.421875-1.203125.46875-1.265625l.671875-1.546875c.296875-.671875.421875-.84375.640625-.875l.265625-.015625v-.28125c-.828125.03125-.828125.03125-.984375.03125s-.15625 0-.984375-.03125v.28125l.34375.015625c.25.015625.390625.140625.390625.3125 0 .109375-.015625.234375-.0625.359375l-.5 1.390625c-.078125.21875-.171875.421875-.484375 1.234375l-1.140625-2.890625c-.140625-.328125-.21875-.53125-.296875-.796875zm0 0"/></symbol><symbol id="p" overflow="visible"><path d="m1.875-4.640625-.09375-.03125c-.5.203125-1.03125.34375-1.546875.40625v.28125h.359375c.40625 0 .4375.0625.4375.71875v2.25c0 .625-.03125.703125-.359375.71875l-.46875.03125v.296875c1-.03125 1-.03125 1.25-.03125s.25 0 1.25.03125v-.296875l-.453125-.03125c-.34375-.015625-.375-.09375-.375-.71875zm-.453125-2.203125c-.3125 0-.5625.25-.5625.546875s.25.5625.546875.5625c.28125 0 .5625-.265625.5625-.5625 0-.265625-.28125-.546875-.546875-.546875zm0 0"/></symbol><symbol id="q" overflow="visible"><path d="m4.109375-4.359375c-.5625-.234375-.84375-.3125-1.1875-.3125-.265625 0-.515625.0625-.765625.1875l-.875.453125c-.5625.296875-.9375 1.03125-.9375 1.875 0 .796875.28125 1.453125.765625 1.859375.34375.28125.796875.421875 1.453125.421875.203125 0 .421875-.046875.484375-.078125l1.09375-.9375-.046875.921875c.484375-.015625.65625-.03125.765625-.03125.078125 0 .21875 0 .4375.015625.0625 0 .265625 0 .46875.015625v-.296875l-.453125-.03125c-.34375-.015625-.375-.09375-.375-.71875v-6.140625l-.078125-.078125c-.4375.171875-.765625.25-1.5625.359375v.28125h.5625c.171875 0 .25.109375.25.40625zm0 2.15625c0 .640625-.015625.75-.15625.984375-.28125.46875-.765625.765625-1.234375.765625-.875 0-1.5-.84375-1.5-2.03125 0-1.078125.53125-1.71875 1.4375-1.71875.375 0 .765625.125 1.125.359375.203125.140625.328125.28125.328125.359375zm0 0"/></symbol><symbol id="r" overflow="visible"><path d="m5.375-4.296875v-.28125c-.59375.015625-.78125.03125-.9375.03125s-.34375-.015625-.9375-.03125v.28125l.40625.015625c.15625.015625.234375.109375.234375.265625s-.0625.421875-.1875.71875l-.421875 1.0625c-.109375.296875-.234375.5625-.609375 1.390625l-1.1875-2.859375c-.0625-.140625-.09375-.28125-.09375-.390625s.09375-.171875.25-.1875l.484375-.015625v-.28125c-.96875.03125-.96875.03125-1.15625.03125s-.671875-.015625-1.15625-.03125v.28125l.34375.015625c.140625.03125.1875.078125.296875.328125l1.71875 4.015625h.5c.0625-.15625.15625-.421875.15625-.4375.109375-.296875.234375-.640625.25-.640625l1.171875-2.59375c.21875-.46875.359375-.640625.5625-.671875zm0 0"/></symbol><symbol id="s" overflow="visible"><path d="m.234375-3.984375h.359375c.40625 0 .4375.0625.4375.71875v2.25c0 .625-.03125.703125-.359375.71875l-.46875.03125v.296875c.71875-.015625.984375-.03125 1.234375-.03125.203125 0 .203125 0 1.421875.03125v-.296875l-.515625-.03125c-.453125-.03125-.46875-.0625-.46875-.71875v-1.71875c0-.59375.390625-1.09375.890625-1.09375.296875 0 .5.140625.65625.453125h.21875l.09375-1.1875c-.109375-.078125-.296875-.109375-.46875-.109375-.3125 0-.625.15625-.828125.40625l-.5625.65625v-1.03125l-.09375-.03125c-.5.203125-1.03125.34375-1.546875.40625zm0 0"/></symbol><symbol id="t" overflow="visible"><path d="m3.984375-3.09375c0-.46875.046875-.875.125-1.234375-.390625-.234375-.734375-.34375-1.15625-.34375-.46875 0-1.03125.1875-1.625.5625-.703125.4375-1.0625 1.140625-1.0625 2.015625 0 1.34375.9375 2.296875 2.28125 2.296875.515625 0 1.265625-.1875 1.359375-.34375l.203125-.3125-.09375-.15625c-.359375.203125-.6875.296875-1.046875.296875-1.109375 0-1.828125-.859375-1.828125-2.1875 0-1.0625.5-1.65625 1.390625-1.65625.4375 0 .921875.203125 1.09375.453125l.078125.609375zm0 0"/></symbol><symbol id="u" overflow="visible"><path d="m2.78125-4.671875c-1.453125 0-2.46875 1.015625-2.46875 2.515625 0 1.40625.890625 2.359375 2.1875 2.359375 1.53125 0 2.625-1.078125 2.625-2.5625 0-1.34375-.984375-2.3125-2.34375-2.3125zm-.171875.328125c.90625 0 1.59375 1 1.59375 2.34375 0 1.15625-.515625 1.875-1.328125 1.875-.96875 0-1.625-.96875-1.625-2.375 0-1.203125.46875-1.84375 1.359375-1.84375zm0 0"/></symbol><symbol id="v" overflow="visible"><path d="m7-2.359375c.125-.0625.203125-.109375.203125-.234375s-.078125-.171875-.203125-.234375l-5.75-2.703125c-.125-.078125-.15625-.078125-.1875-.078125-.109375 0-.203125.09375-.203125.21875 0 .09375.046875.15625.203125.21875l5.4375 2.578125-5.4375 2.578125c-.15625.0625-.203125.125-.203125.21875 0 .125.09375.21875.203125.21875.03125 0 .0625 0 .1875-.078125zm0 0"/></symbol><path d="m305.055656 705.268688c.175781 19.390625-21.648437 34.546875-48.742187 33.84375-27.089844-.699219-49.195313-16.988282-49.371094-36.378907-.171875-19.394531 21.648437-34.546875 48.742187-33.847656s49.199219 16.988281 49.371094 36.382813" fill="none" stroke="#000" stroke-linejoin="round" stroke-miterlimit="10" stroke-width="1.2" transform="matrix(1 0 0 -1 -157.333 740.214)"/><g><use x="56.447" xlink:href="#b" y="39.028"/><use x="62.434523" xlink:href="#c" y="39.028"/><use x="67.206608" xlink:href="#d" y="39.028"/><use x="70.454416" xlink:href="#e" y="39.028"/><use x="75.435716" xlink:href="#f" y="39.028"/></g><g><use x="80.825482" xlink:href="#f" y="39.028"/><use x="83.724599" xlink:href="#c" y="39.028"/><use x="88.496684" xlink:href="#g" y="39.028"/><use x="94.294917" xlink:href="#h" y="39.028"/><use x="99.834123" xlink:href="#d" y="39.028"/><use x="103.081931" xlink:href="#i" y="39.028"/></g><use x="111.771" xlink:href="#v" y="39.028"/><g><use x="122.733" xlink:href="#j" y="39.028"/><use x="127.7143" xlink:href="#k" y="39.028"/><use x="130.20495" xlink:href="#l" y="39.028"/><use x="135.18625" xlink:href="#m" y="39.028"/></g><path d="m385.891594 624.124156c.175781 19.394532-21.648438 34.546875-48.742188 33.847657-27.089844-.699219-49.195312-16.988282-49.371094-36.382813-.171875-19.394531 21.648438-34.546875 48.742188-33.847656 27.09375.703125 49.195312 16.992187 49.371094 36.382812" fill="none" stroke="#000" stroke-linejoin="round" stroke-miterlimit="10" stroke-width="1.2" transform="matrix(1 0 0 -1 -157.333 740.214)"/><path d="m225.8955 675.366344-13.367188-26.617188" fill="none" stroke="#000" stroke-linejoin="round" stroke-miterlimit="10" stroke-width="1.2" transform="matrix(1 0 0 -1 -157.333 740.214)"/><path d="m212.528312 648.749156 2.242188 2.234375-1.789063.894532zm0 0" fill-rule="evenodd" stroke="#000" stroke-linejoin="round" stroke-miterlimit="10" stroke-width="1.2" transform="matrix(1 0 0 -1 -157.333 740.214)"/><path d="m285.290031 676.729625 19.882813-28.023437" fill="none" stroke="#000" stroke-linejoin="round" stroke-miterlimit="10" stroke-width="1.2" transform="matrix(1 0 0 -1 -157.333 740.214)"/><path d="m305.172844 648.706188-.921875 3.027343-1.628907-1.15625zm0 0" fill-rule="evenodd" stroke="#000" stroke-linejoin="round" stroke-miterlimit="10" stroke-width="1.2" transform="matrix(1 0 0 -1 -157.333 740.214)"/><path d="m317.907219 543.753063c.167968 19.691406-15.945313 35.285156-35.984375 34.824218-20.042969-.460937-36.425782-16.796875-36.59375-36.488281-.167969-19.695312 15.941406-35.285156 35.984375-34.824219 20.042968.457032 36.425781 16.796875 36.59375 36.488282" style="fill-rule:evenodd;fill:#2e8b57;fill-opacity:.1;stroke-width:1.2;stroke-linejoin:round;stroke:#2e8b57;stroke-miterlimit:10" transform="matrix(1 0 0 -1 -157.333 740.214)"/><path d="m308.653312 593.264781-9.457031-17.335937" fill="none" stroke="#000" stroke-linejoin="round" stroke-miterlimit="10" stroke-width="1.2" transform="matrix(1 0 0 -1 -157.333 740.214)"/><path d="m299.196281 575.928844 2.3125 2.152344-1.753906.957031zm0 0" fill-rule="evenodd" stroke="#000" stroke-linejoin="round" stroke-miterlimit="10" stroke-width="1.2" transform="matrix(1 0 0 -1 -157.333 740.214)"/><path d="m364.227531 594.569469 13.484375-20.210938" fill="none" stroke="#000" stroke-linejoin="round" stroke-miterlimit="10" stroke-width="1.2" transform="matrix(1 0 0 -1 -157.333 740.214)"/><path d="m377.711906 574.358531-.835937 3.050782-1.660157-1.109375zm0 0" fill-rule="evenodd" stroke="#000" stroke-linejoin="round" stroke-miterlimit="10" stroke-width="1.2" transform="matrix(1 0 0 -1 -157.333 740.214)"/><g><use x="145.307" xlink:href="#n" y="120.329"/><use x="149.531142" xlink:href="#c" y="120.329"/><use x="154.303228" xlink:href="#b" y="120.329"/><use x="160.29075" xlink:href="#e" y="120.329"/><use x="165.27205" xlink:href="#f" y="120.329"/></g><g><use x="170.661817" xlink:href="#o" y="120.329"/><use x="178.970625" xlink:href="#p" y="120.329"/><use x="181.869742" xlink:href="#q" y="120.329"/><use x="187.956891" xlink:href="#d" y="120.329"/><use x="191.204698" xlink:href="#i" y="120.329"/></g><use x="199.894" xlink:href="#v" y="120.329"/><use x="210.856" xlink:href="#j" y="120.329"/><g fill="#2e8b57"><use x="105.437" xlink:href="#r" y="201.288"/><use x="111.065869" xlink:href="#p" y="201.288"/><use x="113.964986" xlink:href="#s" y="201.288"/></g><g fill="#2e8b57"><use x="117.720886" xlink:href="#h" y="201.288"/><use x="123.260091" xlink:href="#p" y="201.288"/><use x="126.159208" xlink:href="#g" y="201.288"/><use x="131.957441" xlink:href="#p" y="201.288"/><use x="134.856558" xlink:href="#t" y="201.288"/><use x="139.279952" xlink:href="#e" y="201.288"/></g><g fill-rule="evenodd"><path d="m79.878906 13.429688c0-.996094-.808594-1.800782-1.800781-1.800782s-1.800781.804688-1.800781 1.800782c0 .992187.808594 1.796874 1.800781 1.796874s1.800781-.804687 1.800781-1.796874" fill="#00008b"/><path d="m88.285156 24.007812c0-.996093-.804687-1.800781-1.796875-1.800781-.996093 0-1.800781.804688-1.800781 1.800781 0 .996094.804688 1.800782 1.800781 1.800782.992188 0 1.796875-.804688 1.796875-1.800782" fill="#00008b"/><path d="m104.246094 22.429688c0-.996094-.804688-1.800782-1.800782-1.800782-.996093 0-1.800781.804688-1.800781 1.800782 0 .992187.804688 1.796874 1.800781 1.796874.996094 0 1.800782-.804687 1.800782-1.796874" fill="#00008b"/><path d="m96.660156 6.988281c0-.992187-.804687-1.796875-1.796875-1.796875-.996093 0-1.800781.804688-1.800781 1.796875 0 .996094.804688 1.800781 1.800781 1.800781.992188 0 1.796875-.804687 1.796875-1.800781" fill="#00008b"/><path d="m118.355469 50.304688c0-.996094-.804688-1.800782-1.800781-1.800782-.992188 0-1.796876.804688-1.796876 1.800782 0 .992187.804688 1.796874 1.796876 1.796874.996093 0 1.800781-.804687 1.800781-1.796874" fill="#00008b"/><path d="m99.972656 53.050781c0-.992187-.808594-1.800781-1.800781-1.800781s-1.800781.808594-1.800781 1.800781c0 .996094.808594 1.800781 1.800781 1.800781s1.800781-.804687 1.800781-1.800781" fill="#00008b"/><path d="m98.40625 63.945312c0-.992187-.804688-1.796874-1.800781-1.796874-.992188 0-1.796875.804687-1.796875 1.796874 0 .996094.804687 1.800782 1.796875 1.800782.996093 0 1.800781-.804688 1.800781-1.800782" fill="#00008b"/><path d="m71.226562 53.433594c0-.996094-.804687-1.800782-1.800781-1.800782-.992187 0-1.796875.804688-1.796875 1.800782 0 .992187.804688 1.800781 1.796875 1.800781.996094 0 1.800781-.808594 1.800781-1.800781" fill="#00008b"/><path d="m169.605469 141.921875c0-.992187-.804688-1.800781-1.800781-1.800781-.996094 0-1.800782.808594-1.800782 1.800781 0 .996094.804688 1.800781 1.800782 1.800781.996093 0 1.800781-.804687 1.800781-1.800781" fill="#00008b"/><path d="m188.375 139.699219c0-.992188-.804688-1.796875-1.800781-1.796875-.992188 0-1.800781.804687-1.800781 1.796875 0 .996093.808593 1.800781 1.800781 1.800781.996093 0 1.800781-.804688 1.800781-1.800781" fill="#2e8b57"/><path d="m123.863281 18.070312c0-.992187-.808593-1.800781-1.800781-1.800781-.996094 0-1.800781.808594-1.800781 1.800781 0 .996094.804687 1.800782 1.800781 1.800782.992188 0 1.800781-.804688 1.800781-1.800782" fill="#2e8b57"/><path d="m130.445312 49.917969c0-.992188-.804687-1.800781-1.800781-1.800781-.992187 0-1.796875.808593-1.796875 1.800781 0 .992187.804688 1.800781 1.796875 1.800781.996094 0 1.800781-.808594 1.800781-1.800781" fill="#2e8b57"/><path d="m112.957031 59.464844c0-.992188-.804687-1.800782-1.800781-1.800782-.992188 0-1.796875.808594-1.796875 1.800782 0 .996094.804687 1.800781 1.796875 1.800781.996094 0 1.800781-.804687 1.800781-1.800781" fill="#2e8b57"/><path d="m85.496094 58.46875c0-.996094-.804688-1.800781-1.800782-1.800781-.992187 0-1.796874.804687-1.796874 1.800781 0 .992188.804687 1.800781 1.796874 1.800781.996094 0 1.800782-.808593 1.800782-1.800781" fill="#2e8b57"/><path d="m68.292969 25.59375c0-.996094-.804688-1.800781-1.800781-1.800781-.992188 0-1.800782.804687-1.800782 1.800781 0 .992188.808594 1.800781 1.800782 1.800781.996093 0 1.800781-.808593 1.800781-1.800781" fill="#2e8b57"/><path d="m174.84375 98.433594c0-.996094-.804688-1.800782-1.800781-1.800782-.992188 0-1.800781.804688-1.800781 1.800782 0 .992187.808593 1.800781 1.800781 1.800781.996093 0 1.800781-.808594 1.800781-1.800781" fill="#2e8b57"/><path d="m204.292969 101.746094c0-.992188-.804688-1.800782-1.800781-1.800782-.992188 0-1.796876.808594-1.796876 1.800782 0 .996094.804688 1.800781 1.796876 1.800781.996093 0 1.800781-.804687 1.800781-1.800781" fill="#2e8b57"/><path d="m188.195312 92.152344c0-.996094-.804687-1.800782-1.800781-1.800782-.992187 0-1.796875.804688-1.796875 1.800782 0 .992187.804688 1.796875 1.796875 1.796875.996094 0 1.800781-.804688 1.800781-1.796875" fill="#2e8b57"/><path d="m188.195312 104.765625c0-.996094-.804687-1.800781-1.800781-1.800781-.992187 0-1.796875.804687-1.796875 1.800781 0 .992187.804688 1.796875 1.796875 1.796875.996094 0 1.800781-.804688 1.800781-1.796875" fill="#2e8b57"/><path d="m159.679688 99.160156c0-.996094-.808594-1.800781-1.800782-1.800781-.996094 0-1.800781.804687-1.800781 1.800781 0 .992188.804687 1.800782 1.800781 1.800782.992188 0 1.800782-.808594 1.800782-1.800782" fill="#000080"/><path d="m109.957031 11.441406c0-.992187-.804687-1.800781-1.800781-1.800781-.992188 0-1.800781.808594-1.800781 1.800781 0 .996094.808593 1.800782 1.800781 1.800782.996094 0 1.800781-.804688 1.800781-1.800782" fill="#8b0000"/><path d="m137.324219 23.691406c0-.996094-.804688-1.800781-1.796875-1.800781-.996094 0-1.800782.804687-1.800782 1.800781s.804688 1.800782 1.800782 1.800782c.992187 0 1.796875-.804688 1.796875-1.800782" fill="#8b0000"/><path d="m197.464844 132.355469c0-.992188-.808594-1.796875-1.800782-1.796875-.992187 0-1.800781.804687-1.800781 1.796875 0 .996093.808594 1.800781 1.800781 1.800781.992188 0 1.800782-.804688 1.800782-1.800781" fill="#8b0000"/><path d="m156.476562 135.066406c0-.992187-.804687-1.800781-1.796874-1.800781-.996094 0-1.800782.808594-1.800782 1.800781 0 .996094.804688 1.800782 1.800782 1.800782.992187 0 1.796874-.804688 1.796874-1.800782" fill="#8b0000"/><path d="m120.742188 178.5625c0-.996094-.804688-1.800781-1.796876-1.800781-.996093 0-1.800781.804687-1.800781 1.800781s.804688 1.800781 1.800781 1.800781c.992188 0 1.796876-.804687 1.796876-1.800781" fill="#000080"/><path d="m259.207031 209.429688c0-.996094-.808593-1.800782-1.800781-1.800782-.996094 0-1.800781.804688-1.800781 1.800782 0 .992187.804687 1.800781 1.800781 1.800781.992188 0 1.800781-.808594 1.800781-1.800781" fill="#2e8b57"/><path d="m153.800781 193.589844c0-.996094-.804687-1.800782-1.796875-1.800782-.996094 0-1.800781.804688-1.800781 1.800782 0 .992187.804687 1.796875 1.800781 1.796875.992188 0 1.796875-.804688 1.796875-1.796875" fill="#2e8b57"/><path d="m127.832031 216.644531c0-.992187-.804687-1.800781-1.800781-1.800781-.992188 0-1.800781.808594-1.800781 1.800781 0 .996094.808593 1.800781 1.800781 1.800781.996094 0 1.800781-.804687 1.800781-1.800781" fill="#2e8b57"/><path d="m133.277344 184.21875c0-.996094-.804688-1.800781-1.800782-1.800781-.992187 0-1.796874.804687-1.796874 1.800781 0 .992188.804687 1.800781 1.796874 1.800781.996094 0 1.800782-.808593 1.800782-1.800781" fill="#2e8b57"/><path d="m97.105469 196.238281c0-.992187-.804688-1.800781-1.800781-1.800781-.992188 0-1.800782.808594-1.800782 1.800781 0 .996094.808594 1.800781 1.800782 1.800781.996093 0 1.800781-.804687 1.800781-1.800781" fill="#2e8b57"/><path d="m275.785156 197.082031c-.132812-19.382812-16.460937-35.125-36.46875-35.160156-20.007812-.035156-36.121094 15.648437-35.988281 35.03125.132813 19.386719 16.460937 35.128906 36.46875 35.164063 20.007813.035156 36.121094-15.652344 35.988281-35.035157" fill="#8b0000" fill-opacity=".1"/></g><g clip-path="url(#a)"><path d="m433.118156 543.131969c-.132812 19.382812-16.460937 35.125-36.46875 35.160156-20.007812.035156-36.121094-15.648437-35.988281-35.03125.132812-19.386719 16.460937-35.128906 36.46875-35.164062 20.007812-.035157 36.121094 15.652343 35.988281 35.035156" fill="none" stroke="#8b0000" stroke-linejoin="round" stroke-miterlimit="10" stroke-width="1.2" transform="matrix(1 0 0 -1 -157.333 740.214)"/></g><g fill="#8b0000"><use x="218.465" xlink:href="#r" y="200.204"/><use x="224.093869" xlink:href="#c" y="200.204"/><use x="228.865954" xlink:href="#s" y="200.204"/><use x="232.801181" xlink:href="#n" y="200.204"/><use x="237.025324" xlink:href="#p" y="200.204"/><use x="239.92444" xlink:href="#t" y="200.204"/><use x="244.347835" xlink:href="#u" y="200.204"/><use x="249.787414" xlink:href="#f" y="200.204"/><use x="252.686531" xlink:href="#u" y="200.204"/><use x="258.126111" xlink:href="#s" y="200.204"/></g><path d="m228.589844 211.523438c0-.996094-.804688-1.800782-1.800782-1.800782-.992187 0-1.796874.804688-1.796874 1.800782 0 .992187.804687 1.796874 1.796874 1.796874.996094 0 1.800782-.804687 1.800782-1.796874" fill="#8b0000" fill-rule="evenodd"/><path d="m250.054688 216.277344c0-.992188-.808594-1.796875-1.800782-1.796875-.992187 0-1.800781.804687-1.800781 1.796875 0 .996094.808594 1.800781 1.800781 1.800781.992188 0 1.800782-.804687 1.800782-1.800781" fill="#000080" fill-rule="evenodd"/><path d="m241.589844 177.886719c0-.996094-.808594-1.800781-1.800782-1.800781-.992187 0-1.800781.804687-1.800781 1.800781 0 .992187.808594 1.800781 1.800781 1.800781.992188 0 1.800782-.808594 1.800782-1.800781" fill="#8b0000" fill-rule="evenodd"/><path d="m236.465812 613.249156c-.664062 21.144532-18.671875 37.628907-40.222656 36.816407-21.546875-.8125-38.476562-18.613282-37.808594-39.757813.664063-21.144531 18.671875-37.625 40.222657-36.8125 21.546875.8125 38.476562 18.613281 37.808593 39.753906" style="fill-rule:evenodd;fill:#000080;fill-opacity:.1;stroke-width:1.2;stroke-linejoin:round;stroke:#000080;stroke-miterlimit:10" transform="matrix(1 0 0 -1 -157.333 740.214)"/><g fill="#000080"><use x="28.281" xlink:href="#n" y="130.33"/><use x="32.505142" xlink:href="#c" y="130.33"/><use x="37.277228" xlink:href="#d" y="130.33"/><use x="40.525035" xlink:href="#u" y="130.33"/><use x="45.964615" xlink:href="#n" y="130.33"/><use x="50.188757" xlink:href="#e" y="130.33"/></g><path d="m70.363281 135.445312c0-.996093-.804687-1.800781-1.800781-1.800781-.992188 0-1.800781.804688-1.800781 1.800781 0 .992188.808593 1.800782 1.800781 1.800782.996094 0 1.800781-.808594 1.800781-1.800782" fill="#00008b" fill-rule="evenodd"/><path d="m46.925781 152.464844c0-.992188-.808593-1.800782-1.800781-1.800782-.996094 0-1.800781.808594-1.800781 1.800782 0 .996094.804687 1.800781 1.800781 1.800781.992188 0 1.800781-.804687 1.800781-1.800781" fill="#00008b" fill-rule="evenodd"/><path d="m21.238281 144.515625c0-.996094-.808593-1.800781-1.800781-1.800781-.996094 0-1.800781.804687-1.800781 1.800781 0 .992187.804687 1.800781 1.800781 1.800781.992188 0 1.800781-.808594 1.800781-1.800781" fill="#00008b" fill-rule="evenodd"/><path d="m18.203125 113.5625c0-.996094-.804687-1.800781-1.800781-1.800781-.992188 0-1.796875.804687-1.796875 1.800781 0 .992188.804687 1.796875 1.796875 1.796875.996094 0 1.800781-.804687 1.800781-1.796875" fill="#00008b" fill-rule="evenodd"/><path d="m46.109375 109.863281c0-.992187-.804687-1.796875-1.800781-1.796875-.992188 0-1.796875.804688-1.796875 1.796875 0 .996094.804687 1.800781 1.796875 1.800781.996094 0 1.800781-.804687 1.800781-1.800781" fill="#00008b" fill-rule="evenodd"/><path d="m67.457031 118.578125c0-.996094-.804687-1.800781-1.800781-1.800781-.992188 0-1.796875.804687-1.796875 1.800781 0 .992187.804687 1.800781 1.796875 1.800781.996094 0 1.800781-.808594 1.800781-1.800781" fill="#00008b" fill-rule="evenodd"/></svg>