<svg height="100.714pt" viewBox="0 0 614.423 100.714" width="614.423pt" xmlns="http://www.w3.org/2000/svg" xmlns:xlink="http://www.w3.org/1999/xlink"><clipPath id="a"><path d="m491 37h123.421875v45h-123.421875zm0 0"/></clipPath><symbol id="b" overflow="visible"><path d="m3.25 17.546875h.6875v-17.25h2.625v-.6875h-3.3125zm0 0"/></symbol><symbol id="c" overflow="visible"><path d="m3.25 17.53125h3.3125v-.6875h-2.625v-17.25h-.6875zm0 0"/></symbol><symbol id="d" overflow="visible"><path d="m2.703125 17.546875h.6875v-17.9375h-3.328125v.6875h2.640625zm0 0"/></symbol><symbol id="e" overflow="visible"><path d="m2.703125 16.84375h-2.640625v.6875h3.328125v-17.9375h-.6875zm0 0"/></symbol><symbol id="f" overflow="visible"><path d="m2.5 23.515625h2.609375v-.546875h-2.0625v-22.8125h2.0625v-.5625h-2.609375zm0 0"/></symbol><symbol id="g" overflow="visible"><path d="m2.21875 22.96875h-2.078125v.546875h2.625v-23.921875h-2.625v.5625h2.078125zm0 0"/></symbol><symbol id="h" overflow="visible"><path d="m3.25 5.984375h.6875v-6h-.6875zm0 0"/></symbol><symbol id="i" overflow="visible"><path d="m2.703125 5.984375h.6875v-6h-.6875zm0 0"/></symbol><symbol id="j" overflow="visible"><path d="m1.453125 5.828125c0 .15625 0 .359375.203125.359375.21875 0 .21875-.203125.21875-.359375v-5.671875c0-.15625 0-.359375-.203125-.359375-.21875 0-.21875.1875-.21875.359375zm0 0"/></symbol><symbol id="k" overflow="visible"><path d="m.671875-5.53125h.09375l1.28125-.578125c.015625-.015625.03125-.015625.03125-.015625.0625 0 .078125.09375.078125.328125v4.84375c0 .515625-.109375.625-.640625.65625l-.5625.03125v.296875c1.546875-.03125 1.546875-.03125 1.65625-.03125.125 0 .34375 0 .6875.015625.109375 0 .46875 0 .875.015625v-.296875l-.515625-.03125c-.5625-.03125-.65625-.140625-.65625-.65625v-5.921875l-.140625-.046875c-.640625.34375-1.359375.640625-2.265625.953125zm0 0"/></symbol><symbol id="l" overflow="visible"><path d="m.15625-.234375v.265625c1.875-.03125 1.875-.03125 2.21875-.03125.359375 0 .359375 0 2.296875.03125-.03125-.203125-.03125-.3125-.03125-.453125 0-.125 0-.21875.03125-.453125-1.15625.0625-1.609375.0625-3.453125.109375l1.8125-1.921875c.96875-1.03125 1.265625-1.578125 1.265625-2.328125 0-1.140625-.78125-1.859375-2.046875-1.859375-.71875 0-1.203125.203125-1.6875.703125l-.171875 1.359375h.28125l.140625-.46875c.15625-.578125.515625-.8125 1.1875-.8125.84375 0 1.40625.53125 1.40625 1.375 0 .75-.421875 1.484375-1.546875 2.6875zm0 0"/></symbol><symbol id="m" overflow="visible"><path d="m.421875-4.96875h.3125l.1875-.546875c.109375-.34375.734375-.6875 1.25-.6875.65625 0 1.171875.53125 1.171875 1.15625 0 .75-.578125 1.375-1.296875 1.375-.078125 0-.1875 0-.3125-.015625l-.15625-.015625-.109375.53125.0625.0625c.375-.171875.578125-.21875.84375-.21875.828125 0 1.296875.53125 1.296875 1.4375 0 1.015625-.59375 1.6875-1.53125 1.6875-.453125 0-.859375-.15625-1.15625-.4375-.25-.21875-.375-.453125-.5625-.984375l-.265625.09375c.203125.609375.28125.96875.34375 1.46875.53125.1875.96875.265625 1.328125.265625.796875 0 1.71875-.453125 2.265625-1.125.34375-.40625.515625-.84375.515625-1.3125 0-.484375-.203125-.890625-.5625-1.140625-.25-.1875-.484375-.265625-.96875-.359375.796875-.609375 1.09375-1.078125 1.09375-1.65625 0-.890625-.75-1.484375-1.84375-1.484375-.6875 0-1.125.203125-1.609375.671875zm0 0"/></symbol><symbol id="n" overflow="visible"><path d="m2.796875-1.796875v.734375c0 .609375-.109375.75-.609375.765625l-.609375.03125v.296875c1.328125-.03125 1.328125-.03125 1.5625-.03125s.234375 0 1.5625.03125v-.296875l-.46875-.03125c-.5-.03125-.609375-.15625-.609375-.765625v-.734375c.59375 0 .796875 0 1.078125.03125v-.703125c-.46875.03125-.65625.03125-.8125.03125h-.265625v-1.390625c0-1.78125.03125-2.625.078125-3.046875l-.125-.046875-.734375.265625-2.828125 4.625.109375.234375zm0-.640625h-2.15625l2.15625-3.515625zm0 0"/></symbol><symbol id="o" overflow="visible"><path d="m2.625-6.875c-1.546875 0-2.328125 1.234375-2.328125 3.640625 0 1.171875.203125 2.171875.546875 2.671875.359375.484375.90625.765625 1.53125.765625 1.5 0 2.265625-1.296875 2.265625-3.859375 0-2.171875-.65625-3.21875-2.015625-3.21875zm-.1875.359375c.96875 0 1.359375.96875 1.359375 3.359375 0 2.125-.375 3-1.296875 3-.96875 0-1.375-1-1.375-3.4375 0-2.09375.375-2.921875 1.3125-2.921875zm0 0"/></symbol><symbol id="p" overflow="visible"><path d="m1.265625-6.03125c1.28125.046875 1.84375.046875 3.046875.046875l.046875-.046875c-.015625-.171875-.015625-.265625-.015625-.390625 0-.140625 0-.21875.015625-.390625l-.046875-.0625c-.75.046875-1.203125.0625-1.734375.0625-.546875 0-1-.015625-1.734375-.0625l-.0625.0625c.015625.609375.03125 1.046875.03125 1.359375 0 .84375-.03125 1.796875-.0625 2.25l.203125.046875c.46875-.46875.734375-.609375 1.21875-.609375.953125 0 1.5625.6875 1.5625 1.765625 0 1.109375-.640625 1.75-1.734375 1.75-.53125 0-1.03125-.171875-1.171875-.4375l-.453125-.8125-.25.140625c.234375.5625.359375.875.5 1.3125.265625.15625.671875.25 1.09375.25.671875 0 1.375-.296875 1.9375-.765625.59375-.546875.921875-1.21875.921875-1.953125 0-1.140625-.8125-1.9375-1.953125-1.9375-.46875 0-.828125.140625-1.453125.5zm0 0"/></symbol><symbol id="q" overflow="visible"><path d="m1.234375-1.109375c-.296875 0-.5625.28125-.5625.578125s.265625.578125.546875.578125c.328125 0 .609375-.265625.609375-.578125 0-.296875-.28125-.578125-.59375-.578125zm0 0"/></symbol><symbol id="r" overflow="visible"><path d="m1.875-4.640625-.09375-.03125c-.5.203125-1.03125.34375-1.546875.40625v.28125h.359375c.40625 0 .4375.0625.4375.71875v2.25c0 .625-.03125.703125-.359375.71875l-.46875.03125v.296875c1-.03125 1-.03125 1.25-.03125s.25 0 1.25.03125v-.296875l-.453125-.03125c-.34375-.015625-.375-.09375-.375-.71875zm-.453125-2.203125c-.3125 0-.5625.25-.5625.546875s.25.5625.546875.5625c.28125 0 .5625-.265625.5625-.5625 0-.265625-.28125-.546875-.546875-.546875zm0 0"/></symbol><symbol id="s" overflow="visible"><path d="m4.109375-4.359375c-.5625-.234375-.84375-.3125-1.1875-.3125-.265625 0-.515625.0625-.765625.1875l-.875.453125c-.5625.296875-.9375 1.03125-.9375 1.875 0 .796875.28125 1.453125.765625 1.859375.34375.28125.796875.421875 1.453125.421875.203125 0 .421875-.046875.484375-.078125l1.09375-.9375-.046875.921875c.484375-.015625.65625-.03125.765625-.03125.078125 0 .21875 0 .4375.015625.0625 0 .265625 0 .46875.015625v-.296875l-.453125-.03125c-.34375-.015625-.375-.09375-.375-.71875v-6.140625l-.078125-.078125c-.4375.171875-.765625.25-1.5625.359375v.28125h.5625c.171875 0 .25.109375.25.40625zm0 2.15625c0 .640625-.015625.75-.15625.984375-.28125.46875-.765625.765625-1.234375.765625-.875 0-1.5-.84375-1.5-2.03125 0-1.078125.53125-1.71875 1.4375-1.71875.375 0 .765625.125 1.125.359375.203125.140625.328125.28125.328125.359375zm0 0"/></symbol><symbol id="t" overflow="visible"><path d="m6.84375-2.390625c.171875 0 .359375 0 .359375-.203125s-.1875-.203125-.359375-.203125h-5.625c-.171875 0-.359375 0-.359375.203125s.1875.203125.359375.203125zm0 0"/></symbol><symbol id="u" overflow="visible"><path d="m5.6875-2.390625c.171875 0 .359375 0 .359375-.203125s-.1875-.203125-.359375-.203125h-4.40625c.125-1.390625 1.328125-2.390625 2.78125-2.390625h1.625c.171875 0 .359375 0 .359375-.203125 0-.21875-.1875-.21875-.359375-.21875h-1.640625c-1.78125 0-3.1875 1.359375-3.1875 3.015625s1.40625 3.015625 3.1875 3.015625h1.640625c.171875 0 .359375 0 .359375-.21875 0-.203125-.1875-.203125-.359375-.203125h-1.625c-1.453125 0-2.65625-1-2.78125-2.390625zm0 0"/></symbol><symbol id="v" overflow="visible"><path d="m2.46875 0v-.3125c-.671875 0-.703125-.046875-.703125-.4375v-3.65625l-1.390625.109375v.3125c.640625 0 .734375.0625.734375.546875v2.6875c0 .4375-.109375.4375-.78125.4375v.3125l1.09375-.03125c.359375 0 .703125.015625 1.046875.03125zm-.5625-6.015625c0-.28125-.21875-.53125-.515625-.53125-.34375 0-.546875.28125-.546875.53125 0 .265625.234375.515625.53125.515625.34375 0 .53125-.265625.53125-.515625zm0 0"/></symbol><symbol id="w" overflow="visible"><path d="m5.328125 0v-.3125c-.515625 0-.765625 0-.765625-.296875v-1.90625c0-.859375 0-1.15625-.3125-1.515625-.140625-.171875-.46875-.375-1.046875-.375-.734375 0-1.203125.421875-1.484375 1.046875v-1.046875l-1.40625.109375v.3125c.703125 0 .78125.0625.78125.5625v2.671875c0 .4375-.109375.4375-.78125.4375v.3125l1.140625-.03125 1.109375.03125v-.3125c-.671875 0-.78125 0-.78125-.4375v-1.84375c0-1.03125.71875-1.59375 1.34375-1.59375.640625 0 .75.53125.75 1.109375v2.328125c0 .4375-.109375.4375-.78125.4375v.3125l1.125-.03125zm0 0"/></symbol><symbol id="x" overflow="visible"><path d="m5.1875-2.15625c0-1.265625-.953125-2.25-2.078125-2.25-.78125 0-1.203125.4375-1.390625.65625v-.65625l-1.4375.109375v.3125c.703125 0 .78125.0625.78125.5v4.65625c0 .453125-.109375.453125-.78125.453125v.3125l1.109375-.03125 1.125.03125v-.3125c-.65625 0-.765625 0-.765625-.453125v-1.765625c.046875.171875.46875.703125 1.21875.703125 1.1875 0 2.21875-.984375 2.21875-2.265625zm-.828125 0c0 1.203125-.6875 2.046875-1.421875 2.046875-.40625 0-.78125-.203125-1.046875-.609375-.140625-.203125-.140625-.21875-.140625-.421875v-2.21875c.28125-.515625.765625-.796875 1.28125-.796875.734375 0 1.328125.875 1.328125 2zm0 0"/></symbol><symbol id="y" overflow="visible"><path d="m5.328125 0v-.3125c-.6875 0-.765625-.0625-.765625-.5625v-3.53125l-1.46875.109375v.3125c.6875 0 .78125.0625.78125.5625v1.765625c0 .875-.484375 1.546875-1.21875 1.546875-.828125 0-.875-.46875-.875-.984375v-3.3125l-1.46875.109375v.3125c.78125 0 .78125.03125.78125.90625v1.5c0 .78125 0 1.6875 1.515625 1.6875.5625 0 1-.28125 1.28125-.890625v.890625zm0 0"/></symbol><symbol id="z" overflow="visible"><path d="m3.3125-1.234375v-.5625h-.25v.546875c0 .734375-.296875 1.109375-.671875 1.109375-.671875 0-.671875-.90625-.671875-1.078125v-2.765625h1.4375v-.3125h-1.4375v-1.828125h-.25c0 .8125-.296875 1.875-1.28125 1.921875v.21875h.84375v2.75c0 1.21875.9375 1.34375 1.296875 1.34375.703125 0 .984375-.703125.984375-1.34375zm0 0"/></symbol><symbol id="A" overflow="visible"><path d="m4.6875-2.140625c0-1.265625-.984375-2.328125-2.1875-2.328125-1.25 0-2.21875 1.09375-2.21875 2.328125 0 1.296875 1.03125 2.25 2.203125 2.25 1.203125 0 2.203125-.984375 2.203125-2.25zm-.8125-.078125c0 .359375 0 .90625-.21875 1.34375-.234375.453125-.671875.734375-1.15625.734375-.4375 0-.875-.203125-1.140625-.671875-.25-.4375-.25-1.046875-.25-1.40625 0-.390625 0-.921875.234375-1.359375.265625-.453125.734375-.671875 1.140625-.671875.4375 0 .859375.21875 1.125.65625.265625.421875.265625 1 .265625 1.375zm0 0"/></symbol><symbol id="B" overflow="visible"><path d="m2.546875 0v-.3125c-.671875 0-.78125 0-.78125-.4375v-6.171875l-1.4375.109375v.3125c.703125 0 .78125.0625.78125.5625v5.1875c0 .4375-.109375.4375-.78125.4375v.3125l1.109375-.03125zm0 0"/></symbol><symbol id="C" overflow="visible"><path d="m3.59375-1.28125c0-.515625-.296875-.828125-.421875-.9375-.328125-.328125-.71875-.40625-1.140625-.484375-.5625-.109375-1.21875-.234375-1.21875-.8125 0-.359375.25-.765625 1.109375-.765625 1.09375 0 1.15625.90625 1.171875 1.203125 0 .09375.109375.09375.109375.09375.140625 0 .140625-.046875.140625-.234375v-1.015625c0-.15625 0-.234375-.109375-.234375-.046875 0-.078125 0-.203125.125-.03125.03125-.125.125-.171875.15625-.375-.28125-.78125-.28125-.9375-.28125-1.21875 0-1.59375.671875-1.59375 1.234375 0 .34375.15625.625.421875.84375.328125.25.609375.3125 1.328125.453125.21875.046875 1.03125.203125 1.03125.921875 0 .5-.34375.90625-1.125.90625-.84375 0-1.203125-.5625-1.390625-1.421875-.03125-.125-.03125-.15625-.140625-.15625-.125 0-.125.0625-.125.234375v1.328125c0 .171875 0 .234375.109375.234375.046875 0 .0625-.015625.25-.203125.015625-.015625.015625-.03125.203125-.21875.4375.40625.890625.421875 1.09375.421875 1.140625 0 1.609375-.671875 1.609375-1.390625zm0 0"/></symbol><symbol id="D" overflow="visible"><path d="m5.25 0v-.3125c-.6875 0-.78125-.0625-.78125-.5625v-6.046875l-1.421875.109375v.3125c.6875 0 .765625.0625.765625.5625v2.15625c-.28125-.359375-.71875-.625-1.25-.625-1.171875 0-2.21875.984375-2.21875 2.265625 0 1.265625.96875 2.25 2.109375 2.25.640625 0 1.078125-.34375 1.328125-.65625v.65625zm-1.46875-1.171875c0 .171875 0 .1875-.109375.359375-.296875.484375-.734375.703125-1.171875.703125-.453125 0-.8125-.265625-1.046875-.640625-.25-.40625-.28125-.96875-.28125-1.390625 0-.359375.015625-.953125.296875-1.40625.21875-.3125.59375-.640625 1.140625-.640625.34375 0 .765625.15625 1.0625.59375.109375.171875.109375.1875.109375.375zm0 0"/></symbol><symbol id="E" overflow="visible"><path d="m4.140625-1.1875c0-.09375-.078125-.125-.140625-.125-.078125 0-.109375.0625-.125.140625-.34375 1.03125-1.25 1.03125-1.34375 1.03125-.5 0-.890625-.296875-1.125-.671875-.296875-.46875-.296875-1.125-.296875-1.484375h2.78125c.21875 0 .25 0 .25-.21875 0-.984375-.546875-1.953125-1.78125-1.953125-1.15625 0-2.078125 1.03125-2.078125 2.28125 0 1.328125 1.046875 2.296875 2.1875 2.296875 1.21875 0 1.671875-1.109375 1.671875-1.296875zm-.65625-1.328125h-2.375c.0625-1.484375.90625-1.734375 1.25-1.734375 1.015625 0 1.125 1.34375 1.125 1.734375zm0 0"/></symbol><symbol id="F" overflow="visible"><path d="m3.625-3.796875c0-.3125-.3125-.609375-.734375-.609375-.734375 0-1.09375.671875-1.21875 1.09375v-1.09375l-1.390625.109375v.3125c.703125 0 .78125.0625.78125.5625v2.671875c0 .4375-.109375.4375-.78125.4375v.3125l1.140625-.03125c.390625 0 .859375 0 1.265625.03125v-.3125h-.21875c-.734375 0-.75-.109375-.75-.46875v-1.53125c0-.984375.421875-1.875 1.171875-1.875.0625 0 .09375 0 .109375.015625-.03125 0-.234375.125-.234375.390625s.21875.421875.4375.421875c.171875 0 .421875-.125.421875-.4375zm0 0"/></symbol><symbol id="G" overflow="visible"><path d="m3.296875 2.390625c0-.03125 0-.046875-.171875-.21875-1.234375-1.25-1.5625-3.140625-1.5625-4.671875 0-1.734375.375-3.46875 1.609375-4.703125.125-.125.125-.140625.125-.171875 0-.078125-.03125-.109375-.09375-.109375-.109375 0-1 .6875-1.59375 1.953125-.5 1.09375-.625 2.203125-.625 3.03125 0 .78125.109375 1.984375.65625 3.125.609375 1.21875 1.453125 1.875 1.5625 1.875.0625 0 .09375-.03125.09375-.109375zm0 0"/></symbol><symbol id="H" overflow="visible"><path d="m2.875-2.5c0-.765625-.109375-1.96875-.65625-3.109375-.59375-1.21875-1.453125-1.875-1.546875-1.875-.0625 0-.109375.046875-.109375.109375 0 .03125 0 .046875.1875.234375.984375.984375 1.546875 2.5625 1.546875 4.640625 0 1.71875-.359375 3.46875-1.59375 4.71875-.140625.125-.140625.140625-.140625.171875 0 .0625.046875.109375.109375.109375.09375 0 1-.6875 1.578125-1.953125.515625-1.09375.625-2.203125.625-3.046875zm0 0"/></symbol><symbol id="I" overflow="visible"><path d="m3.4375 2.484375c0-.03125 0-.046875-.1875-.21875-1.296875-1.3125-1.625-3.265625-1.625-4.859375 0-1.8125.390625-3.609375 1.671875-4.90625.140625-.125.140625-.140625.140625-.171875 0-.078125-.046875-.109375-.109375-.109375-.09375 0-1.03125.703125-1.640625 2.015625-.53125 1.15625-.65625 2.296875-.65625 3.171875 0 .8125.109375 2.0625.6875 3.234375.609375 1.28125 1.515625 1.953125 1.609375 1.953125.0625 0 .109375-.03125.109375-.109375zm0 0"/></symbol><symbol id="J" overflow="visible"><path d="m3-2.59375c0-.8125-.109375-2.0625-.6875-3.234375-.625-1.28125-1.515625-1.953125-1.625-1.953125-.046875 0-.09375.046875-.09375.109375 0 .03125 0 .046875.1875.234375 1.03125 1.03125 1.609375 2.671875 1.609375 4.84375 0 1.78125-.375 3.59375-1.671875 4.90625-.125.125-.125.140625-.125.171875 0 .0625.046875.109375.09375.109375.109375 0 1.046875-.703125 1.65625-2.015625.53125-1.15625.65625-2.296875.65625-3.171875zm0 0"/></symbol><symbol id="K" overflow="visible"><path d="m7.125-3.390625c.15625 0 .359375 0 .359375-.203125 0-.21875-.203125-.21875-.34375-.21875h-6.21875c-.140625 0-.34375 0-.34375.21875 0 .203125.203125.203125.359375.203125zm.015625 2.015625c.140625 0 .34375 0 .34375-.21875 0-.203125-.203125-.203125-.359375-.203125h-6.1875c-.15625 0-.359375 0-.359375.203125 0 .21875.203125.21875.34375.21875zm0 0"/></symbol><symbol id="L" overflow="visible"><path d="m2-2.09375-1.109375 1.390625c-.1875.25-.375.34375-.6875.359375v.34375h.90625c.296875-.453125.40625-.609375.53125-.78125l.625-.875 1 1.6875.78125-.03125c.40625.015625.484375.015625.765625.03125v-.375c-.3125-.03125-.5-.21875-.859375-.78125l-.875-1.515625.953125-1.140625c.3125-.359375.421875-.421875.78125-.421875v-.375h-.9375l-1.078125 1.5-.53125-.84375c-.234375-.390625-.40625-.609375-.609375-.765625-.34375.078125-1.09375.234375-1.453125.3125l.078125.359375c.046875-.015625.125-.015625.140625-.015625.328125 0 .515625.140625.78125.578125zm0 0"/></symbol><symbol id="M" overflow="visible"><path d="m2.734375-4.203125v-.375l-1.3125.03125c-.125 0-.28125 0-1.328125-.03125v.375l.359375.03125c.140625 0 .265625.171875.421875.546875l1.5625 4.03125-.21875.546875c-.234375.578125-.578125.90625-.921875.90625-.265625 0-.46875-.109375-.703125-.359375l-.109375.03125-.171875.953125c.265625.125.5.171875.71875.171875.703125 0 1.25-.546875 1.765625-1.71875l1.984375-4.609375c.109375-.28125.265625-.4375.40625-.46875l.25-.0625v-.375l-.921875.03125c-.03125 0-.34375-.015625-.921875-.03125v.375l.328125.03125c.15625 0 .265625.078125.265625.1875 0 .0625-.015625.171875-.046875.21875l-1 2.515625-.84375-2.171875s-.03125-.078125-.046875-.140625c-.09375-.203125-.109375-.28125-.109375-.390625 0-.125.109375-.21875.25-.21875zm0 0"/></symbol><symbol id="N" overflow="visible"><path d="m.25-2.9375.0625.15625.234375-.171875c.28125-.171875.3125-.1875.359375-.1875.078125 0 .140625.078125.140625.171875 0 .0625-.03125.234375-.0625.34375l-.5 1.8125c-.0625.234375-.09375.4375-.09375.578125 0 .1875.078125.296875.21875.296875.203125 0 .46875-.15625 1.21875-.703125l-.078125-.140625-.203125.125c-.21875.15625-.390625.234375-.453125.234375s-.09375-.078125-.09375-.15625.015625-.140625.046875-.296875l.578125-2.3125c.03125-.125.046875-.203125.046875-.265625 0-.125-.0625-.203125-.1875-.203125-.171875 0-.453125.15625-1.015625.5625zm1.484375-2.453125c-.21875 0-.453125.25-.453125.5 0 .1875.125.3125.296875.3125.234375 0 .421875-.21875.421875-.5 0-.1875-.109375-.3125-.265625-.3125zm0 0"/></symbol><symbol id="O" overflow="visible"><path d="m.875-.015625.0625.015625c.203125.0625.3125.078125.390625.078125.4375 0 1.296875-.546875 1.625-1.03125.3125-.453125.578125-1.296875.578125-1.859375 0-.5-.1875-.84375-.453125-.84375-.3125 0-.71875.203125-1.109375.5625-.3125.265625-.46875.453125-.734375.90625l.171875-.90625c.03125-.125.046875-.234375.046875-.328125 0-.140625-.0625-.234375-.171875-.234375-.15625 0-.453125.15625-1.015625.5625l-.203125.15625.046875.15625.25-.171875c.203125-.125.296875-.171875.359375-.171875.078125 0 .125.078125.125.171875 0 .0625-.015625.21875-.03125.296875l-.4375 2.59375c-.078125.453125-.21875 1.140625-.375 1.828125l-.046875.28125.046875.046875c.15625-.0625.3125-.09375.546875-.125zm.203125-1.234375c.171875-.96875.984375-1.96875 1.609375-1.96875.203125 0 .296875.171875.296875.515625 0 .625-.3125 1.515625-.703125 2.09375-.15625.21875-.40625.34375-.71875.34375-.234375 0-.421875-.0625-.609375-.1875zm0 0"/></symbol><symbol id="P" overflow="visible"><path d="m2.921875-3.46875c-.328125-.125-.546875-.1875-.765625-.1875-.203125 0-.390625.0625-.609375.1875-.265625.171875-.59375.4375-.765625.640625-.296875.34375-.59375 1.453125-.59375 2.234375 0 .453125.078125.671875.265625.671875.171875 0 .3125-.0625.5625-.21875l.046875-.046875c.5-.34375.984375-.890625 1.265625-1.390625l-.5625 3.125c-.046875.1875-.125.34375-.21875.4375l.078125.109375c.234375-.0625.46875-.109375.65625-.125.015625-.421875.0625-.828125.140625-1.203125l.640625-3.46875c.09375-.453125.140625-.65625.21875-.890625l-.109375-.046875zm-.421875 1.109375c-.078125.390625-.25.71875-.53125 1.078125-.390625.484375-.859375.828125-1.078125.828125-.109375 0-.15625-.15625-.15625-.40625 0-.71875.3125-1.859375.640625-2.234375.09375-.125.3125-.1875.546875-.1875.21875 0 .375.046875.734375.203125zm0 0"/></symbol><symbol id="Q" overflow="visible"><path d="m2.78125-3.25h.375l1.546875 2.40625c.109375.15625.359375.5625.46875.71875.078125.125.109375.125.34375.125h1.4375c.1875 0 .34375 0 .34375-.1875 0-.078125-.0625-.15625-.15625-.171875-.390625-.09375-.890625-.765625-1.140625-1.109375-.078125-.09375-.59375-.78125-1.296875-1.90625.9375-.15625 1.828125-.5625 1.828125-1.796875 0-1.4375-1.53125-1.9375-2.75-1.9375h-3.265625c-.1875 0-.34375 0-.34375.1875 0 .171875.1875.171875.28125.171875.578125 0 .640625.078125.640625.59375v5.203125c0 .515625-.0625.59375-.640625.59375-.09375 0-.28125 0-.28125.171875 0 .1875.15625.1875.34375.1875h2.84375c.1875 0 .34375 0 .34375-.1875 0-.171875-.171875-.171875-.296875-.171875-.578125 0-.625-.09375-.625-.59375zm2-.515625c.296875-.390625.328125-.9375.328125-1.390625 0-.5-.0625-1.046875-.40625-1.46875.4375.09375 1.453125.40625 1.453125 1.453125 0 .671875-.3125 1.203125-1.375 1.40625zm-2-2.421875c0-.21875 0-.5625.640625-.5625.890625 0 1.3125.375 1.3125 1.59375 0 1.34375-.3125 1.53125-1.953125 1.53125zm-1.40625 5.828125c.078125-.1875.078125-.484375.078125-.578125v-5.234375c0-.109375 0-.390625-.078125-.578125h1.171875c-.125.171875-.125.375-.125.53125v5.28125c0 .109375 0 .390625.078125.578125zm2.203125-2.890625c.078125-.015625.109375-.03125.203125-.03125.15625 0 .375-.015625.53125-.03125.15625.234375 1.28125 2.09375 2.140625 2.953125h-1zm0 0"/></symbol><symbol id="R" overflow="visible"><path d="m2.359375-6.890625-.796875.015625h-.25c-.03125 0-.171875 0-.40625-.015625h-.15625l-.046875.265625.34375.03125c.171875 0 .390625.078125.5.15625.140625.125.296875.3125.296875.390625 0 .015625 0 .046875-.015625.078125v.046875c-.015625.078125-.03125.15625-.03125.1875l-.875 4.71875c-.125.609375-.1875.703125-.546875.734375l-.3125.03125-.046875.28125 1.109375-.03125c.125 0 .125 0 1.09375.03125l.046875-.28125-.40625-.03125c-.40625-.03125-.5-.109375-.5-.4375 0-.078125.015625-.1875.03125-.296875l.796875-4.625 3.375 5.75h.5l.9375-5.515625c.203125-1.125.234375-1.15625.59375-1.1875l.375-.03125.046875-.265625h-.203125l-.890625.015625-.859375-.015625h-.1875l-.046875.265625.46875.03125c.25 0 .359375.078125.359375.234375 0 .0625-.03125.328125-.0625.453125l-.796875 4.875zm0 0"/></symbol><symbol id="S" overflow="visible"><path d="m4.609375-7.03125-3.71875 5.921875c-.359375.546875-.546875.703125-.875.796875l-.203125.046875v.296875c.921875-.03125.921875-.03125 1.109375-.03125s.21875 0 1.078125.03125v-.28125l-.53125-.03125c-.15625-.015625-.296875-.09375-.296875-.1875 0-.078125.0625-.21875.25-.546875l1.015625-1.75h2.453125l.25 1.875v.03125c0 .015625.015625.046875.015625.09375.015625.078125.03125.171875.03125.21875 0 .15625-.15625.25-.4375.265625l-.4375.03125v.28125c1.015625-.03125 1.015625-.03125 1.21875-.03125s.203125 0 1.21875.03125v-.28125l-.265625-.03125c-.46875-.0625-.46875-.0625-.546875-.515625l-.875-6.234375zm-.140625 1.046875.375 2.859375h-2.15625zm0 0"/></symbol><symbol id="T" overflow="visible"><path d="m3.703125-6.625.03125-.265625h-.25l-.890625.015625c-.15625 0-.34375 0-.765625 0l-.640625-.015625-.03125.265625.46875.03125c.234375 0 .34375.078125.34375.265625 0 .140625-.03125.421875-.078125.75l-.734375 4.328125c-.171875.921875-.171875.9375-.578125.96875l-.40625.03125-.046875.28125.421875-.015625c.484375 0 .703125-.015625.90625-.015625l.953125.03125h.265625l.03125-.28125-.484375-.03125c-.28125-.015625-.359375-.09375-.359375-.28125 0-.0625 0-.171875.015625-.21875l.421875-2.609375c1.5 1.703125 1.734375 2 2.78125 3.421875l.6875-.03125c.359375.015625.421875.015625.671875.03125v-.296875h-.203125c-.21875 0-.421875-.125-.625-.375l-2.453125-3.015625 2.90625-2.71875c.15625-.15625.375-.25.53125-.25h.21875v-.265625h-.234375c-.203125.015625-.375.015625-.453125.015625-.09375 0-.25 0-.46875-.015625h-.1875v.28125c0 .078125-.109375.203125-.390625.484375l-1.265625 1.296875c-.4375.453125-.859375.8125-1.484375 1.3125l.4375-2.59375c.078125-.375.140625-.453125.515625-.484375zm0 0"/></symbol><symbol id="U" overflow="visible"><path d="m3.484375-6.625.03125-.265625h-.25l-.890625.015625c-.15625 0-.34375 0-.765625 0l-.640625-.015625-.03125.265625.46875.03125c.234375 0 .34375.078125.34375.265625 0 .140625-.03125.453125-.078125.75l-.859375 5.03125c-.046875.171875-.171875.25-.609375.3125l-.046875.265625.40625-.015625c.3125 0 .9375-.015625 1.125-.015625l2.15625.03125h.09375c.140625 0 .390625-.015625.71875-.015625l.328125-.015625c-.015625-.25.09375-1.03125.234375-1.640625h-.3125l-.171875.609375c-.09375.328125-.171875.5-.265625.546875-.125.046875-.765625.09375-1.4375.09375-.484375 0-.765625-.015625-1.421875-.0625v-.046875c0-.140625.015625-.21875.03125-.3125l.90625-5.296875c.078125-.375.140625-.453125.515625-.484375zm0 0"/></symbol><symbol id="V" overflow="visible"><path d="m.125-.171875v.1875c1.40625-.015625 1.40625-.015625 1.6875-.015625.265625 0 .265625 0 1.734375.015625-.015625-.15625-.015625-.234375-.015625-.328125 0-.109375 0-.1875.015625-.34375-.875.03125-1.21875.046875-2.625.078125l1.375-1.46875c.734375-.78125.96875-1.203125.96875-1.765625 0-.875-.59375-1.40625-1.546875-1.40625-.546875 0-.921875.15625-1.296875.53125l-.125 1.03125h.21875l.09375-.359375c.125-.4375.40625-.625.90625-.625.65625 0 1.0625.40625 1.0625 1.0625 0 .5625-.3125 1.125-1.171875 2.03125zm0 0"/></symbol><symbol id="W" overflow="visible"><path d="m.5-4.203125h.078125l.984375-.4375c0-.015625.015625-.015625.015625-.015625.046875 0 .0625.078125.0625.25v3.671875c0 .40625-.078125.484375-.484375.5l-.421875.03125v.21875c1.15625-.015625 1.15625-.015625 1.25-.015625h.515625c.09375.015625.359375.015625.671875.015625v-.21875l-.390625-.03125c-.421875-.015625-.5-.09375-.5-.5v-4.484375l-.109375-.046875c-.484375.265625-1.03125.484375-1.71875.734375zm0 0"/></symbol><symbol id="X" overflow="visible"><path d="m.328125-3.78125h.234375l.140625-.421875c.078125-.25.5625-.515625.953125-.515625.484375 0 .890625.40625.890625.890625 0 .5625-.453125 1.046875-.984375 1.046875-.0625 0-.140625-.015625-.25-.015625l-.109375-.015625-.09375.40625.0625.046875c.28125-.140625.421875-.171875.625-.171875.640625 0 1 .40625 1 1.09375 0 .765625-.46875 1.28125-1.171875 1.28125-.34375 0-.65625-.109375-.875-.328125-.1875-.171875-.28125-.34375-.4375-.75l-.203125.078125c.15625.453125.21875.734375.265625 1.109375.40625.140625.734375.203125 1.015625.203125.609375 0 1.3125-.34375 1.71875-.859375.265625-.3125.390625-.640625.390625-1s-.15625-.671875-.421875-.859375c-.1875-.140625-.359375-.203125-.75-.265625.609375-.46875.84375-.828125.84375-1.265625 0-.6875-.5625-1.125-1.40625-1.125-.515625 0-.859375.140625-1.21875.5zm0 0"/></symbol><symbol id="Y" overflow="visible"><path d="m2.75 2c0-.03125 0-.046875-.140625-.1875-1.03125-1.046875-1.296875-2.625-1.296875-3.890625 0-1.453125.3125-2.890625 1.328125-3.9375.109375-.09375.109375-.109375.109375-.140625 0-.046875-.03125-.078125-.078125-.078125-.09375 0-.828125.5625-1.328125 1.625-.421875.90625-.515625 1.828125-.515625 2.53125 0 .640625.09375 1.65625.546875 2.59375.5 1.015625 1.203125 1.5625 1.296875 1.5625.046875 0 .078125-.03125.078125-.078125zm0 0"/></symbol><symbol id="Z" overflow="visible"><path d="m2.40625-2.078125c0-.640625-.09375-1.65625-.546875-2.59375-.5-1.015625-1.21875-1.5625-1.296875-1.5625-.0625 0-.09375.03125-.09375.078125 0 .03125 0 .046875.15625.203125.828125.8125 1.296875 2.140625 1.296875 3.875 0 1.421875-.3125 2.890625-1.34375 3.9375-.109375.09375-.109375.109375-.109375.140625 0 .046875.03125.078125.09375.078125.078125 0 .828125-.5625 1.3125-1.625.421875-.90625.53125-1.828125.53125-2.53125zm0 0"/></symbol><symbol id="aa" overflow="visible"><path d="m2.421875-5.515625-.3125.015625c-.3125.015625-.5.015625-.65625.015625-.09375 0-.28125-.015625-.578125-.015625l-.3125-.015625v.21875l.140625.015625c.328125.046875.390625.140625.421875.59375l.265625 3.421875c.03125.53125.046875.921875.0625 1.328125h.390625c.109375-.28125.265625-.59375.40625-.875l1.78125-3.53125.890625 3.109375c.125.421875.203125.8125.3125 1.296875h.40625l.0625-.203125c.078125-.328125.140625-.53125.234375-.84375l1.375-4.046875c.046875-.125.15625-.234375.34375-.25l.15625-.015625v-.21875l-.265625.015625c-.21875 0-.40625.015625-.515625.015625-.09375 0-.28125-.015625-.515625-.015625l-.265625-.015625-.03125.21875.3125.015625c.21875.015625.328125.078125.328125.1875s-.03125.25-.078125.390625l-1.171875 3.6875-1.265625-4.5625h-.140625c-.09375.21875-.265625.609375-.40625.890625l-1.78125 3.640625-.25-3.859375c0-.234375.09375-.359375.359375-.375l.296875-.015625zm0 0"/></symbol><symbol id="ab" overflow="visible"><path d="m.40625-3.328125h.046875l.78125-.34375h.015625c.03125 0 .046875.046875.046875.1875v2.90625c0 .3125-.0625.375-.390625.40625l-.328125.015625v.171875c.921875-.015625.921875-.015625.984375-.015625h.40625c.078125.015625.28125.015625.53125.015625v-.171875l-.3125-.015625c-.328125-.03125-.390625-.09375-.390625-.40625v-3.546875l-.078125-.03125c-.390625.203125-.8125.390625-1.359375.578125zm0 0"/></symbol><symbol id="ac" overflow="visible"><path d="m.09375-.140625v.15625c1.125-.015625 1.125-.015625 1.34375-.015625.203125 0 .203125 0 1.359375.015625-.015625-.125-.015625-.1875-.015625-.265625s0-.140625.015625-.265625c-.6875.03125-.953125.03125-2.0625.0625l1.078125-1.15625c.59375-.625.765625-.953125.765625-1.40625 0-.6875-.46875-1.109375-1.21875-1.109375-.4375 0-.734375.125-1.03125.421875l-.09375.8125h.171875l.078125-.28125c.09375-.34375.3125-.484375.71875-.484375.515625 0 .84375.3125.84375.828125 0 .453125-.25.890625-.9375 1.609375zm0 0"/></symbol><symbol id="ad" overflow="visible"><path d="m.25-2.984375h.1875l.109375-.328125c.0625-.203125.453125-.40625.75-.40625.390625 0 .71875.3125.71875.6875 0 .453125-.359375.828125-.78125.828125-.046875 0-.109375 0-.1875-.015625h-.09375l-.078125.3125.046875.046875c.234375-.109375.34375-.140625.5-.140625.5 0 .78125.3125.78125.859375 0 .609375-.359375 1.015625-.921875 1.015625-.265625 0-.515625-.09375-.6875-.265625-.15625-.125-.234375-.265625-.34375-.578125l-.15625.046875c.125.375.171875.59375.203125.890625.3125.109375.578125.15625.796875.15625.484375 0 1.03125-.28125 1.359375-.671875.203125-.25.3125-.515625.3125-.796875s-.125-.53125-.34375-.6875c-.140625-.109375-.28125-.15625-.578125-.203125.484375-.375.65625-.65625.65625-1 0-.53125-.4375-.890625-1.109375-.890625-.40625 0-.671875.109375-.953125.40625zm0 0"/></symbol><symbol id="ae" overflow="visible"><path d="m1.625-.984375c-.21875.078125-.359375.125-.78125.25-.0625.59375-.25 1.109375-.71875 1.875l.109375.09375.328125-.15625c.65625-.828125.953125-1.328125 1.171875-1.953125zm0 0"/></symbol><symbol id="af" overflow="visible"><path d="m1.6875-5.6875-.0625-.046875-.578125.171875c-.234375.078125-.5.125-.96875.171875v.28125l.421875.03125c.171875 0 .203125.078125.203125.546875v3.234375c0 .421875-.015625.90625-.0625 1.328125l.171875.0625.3125-.25c.359375.203125.703125.296875 1.046875.296875.25 0 .453125-.0625.6875-.203125.3125-.1875.6875-.4375.90625-.625.40625-.328125.671875-.9375.671875-1.546875 0-.890625-.609375-1.515625-1.453125-1.515625-.3125 0-.53125.078125-.8125.3125l-.484375.390625zm0 3.046875c.171875-.265625.4375-.390625.765625-.390625.609375 0 .96875.46875.96875 1.265625 0 .828125-.359375 1.359375-.9375 1.359375-.328125 0-.59375-.140625-.796875-.4375zm0 0"/></symbol><path d="m17.850219 21.251938h-35.703125c-2.199219 0-3.984375-1.78125-3.984375-3.984375v-34.535157c0-2.203125 1.785156-3.984375 3.984375-3.984375h35.703125c2.203125 0 3.984375 1.78125 3.984375 3.984375v34.535157c0 2.203125-1.78125 3.984375-3.984375 3.984375zm0 0" fill="#cd853f" fill-opacity=".5" stroke="#a46a33" stroke-miterlimit="10" stroke-width=".3985" transform="matrix(1 0 0 -1 39.599 59.041)"/><use fill="#a46a33" x="21.208" xlink:href="#b" y="41.507"/><use fill="#a46a33" x="21.208" xlink:href="#c" y="59.43"/><use fill="#a46a33" x="37.108" xlink:href="#k" y="49.477"/><use fill="#a46a33" x="33.073" xlink:href="#t" y="61.432"/><use fill="#a46a33" x="41.267" xlink:href="#l" y="61.432"/><use fill="#a46a33" x="37.108" xlink:href="#m" y="73.388"/><use fill="#a46a33" x="51.354" xlink:href="#d" y="41.507"/><use fill="#a46a33" x="51.354" xlink:href="#e" y="59.43"/><g fill="#cd853f"><use x="6.309" xlink:href="#v" y="91.7"/><use x="9.078614" xlink:href="#w" y="91.7"/><use x="14.617842" xlink:href="#x" y="91.7"/><use x="20.15707" xlink:href="#y" y="91.7"/><use x="25.696297" xlink:href="#z" y="91.7"/></g><use fill="#cd853f" x="31.357" xlink:href="#I" y="91.804"/><use fill="#cd853f" x="35.631" xlink:href="#L" y="91.7"/><use fill="#cd853f" x="40.778" xlink:href="#N" y="93.66"/><use fill="#cd853f" x="46.421" xlink:href="#u" y="91.7"/><use fill="#cd853f" x="56.227" xlink:href="#Q" y="91.7"/><use fill="#cd853f" x="64.235" xlink:href="#O" y="88.083"/><use fill="#cd853f" x="68.738" xlink:href="#J" y="91.804"/><path d="m87.498656 15.275375h-32.933594c-2.199218 0-3.984375-1.785156-3.984375-3.984375v-22.582031c0-2.199219 1.785157-3.984375 3.984375-3.984375h32.933594c2.203125 0 3.984375 1.785156 3.984375 3.984375v22.582031c0 2.199219-1.78125 3.984375-3.984375 3.984375zm0 0" fill="#7f007f" fill-opacity=".5" stroke="#191970" stroke-miterlimit="10" stroke-width=".3985" transform="matrix(1 0 0 -1 39.599 59.041)"/><use fill="#191970" x="93.625" xlink:href="#f" y="47.48"/><use fill="#191970" x="104.105" xlink:href="#t" y="55.455"/><use fill="#191970" x="112.299" xlink:href="#m" y="55.455"/><use fill="#191970" x="108.14" xlink:href="#n" y="67.41"/><use fill="#191970" x="122.387" xlink:href="#g" y="47.48"/><path d="m148.826781 15.275375h-24.613281c-2.199219 0-3.984375-1.785156-3.984375-3.984375v-22.582031c0-2.199219 1.785156-3.984375 3.984375-3.984375h24.613281c2.203125 0 3.988282 1.785156 3.988282 3.984375v22.582031c0 2.199219-1.785157 3.984375-3.988282 3.984375zm0 0" fill="#2e8b57" fill-opacity=".5" stroke="#191970" stroke-miterlimit="10" stroke-width=".3985" transform="matrix(1 0 0 -1 39.599 59.041)"/><use fill="#191970" x="163.272" xlink:href="#f" y="47.48"/><use fill="#191970" x="173.628" xlink:href="#o" y="55.455"/><use fill="#191970" x="173.628" xlink:href="#n" y="67.41"/><use fill="#191970" x="183.715" xlink:href="#g" y="47.48"/><path d="m221.24475 27.232406h-35.699219c-2.203125 0-3.988281-1.785156-3.988281-3.984375v-46.492187c0-2.203125 1.785156-3.988281 3.988281-3.988281h35.699219c2.203125 0 3.988281 1.785156 3.988281 3.988281v46.492187c0 2.199219-1.785156 3.984375-3.988281 3.984375zm0 0" fill="#7f007f" fill-opacity=".5" stroke="#191970" stroke-miterlimit="10" stroke-width=".3985" transform="matrix(1 0 0 -1 39.599 59.041)"/><use fill="#191970" x="224.6" xlink:href="#b" y="35.53"/><use fill="#191970" x="224.6" xlink:href="#h" y="53.064"/><use fill="#191970" x="224.6" xlink:href="#h" y="59.041"/><use fill="#191970" x="224.6" xlink:href="#c" y="65.407"/><use fill="#191970" x="240.501" xlink:href="#m" y="43.5"/><use fill="#191970" x="240.501" xlink:href="#k" y="55.455"/><use fill="#191970" x="240.501" xlink:href="#l" y="67.41"/><use fill="#191970" x="236.466" xlink:href="#t" y="79.365"/><use fill="#191970" x="244.66" xlink:href="#p" y="79.365"/><use fill="#191970" x="254.747" xlink:href="#d" y="35.53"/><use fill="#191970" x="254.747" xlink:href="#i" y="53.064"/><use fill="#191970" x="254.747" xlink:href="#i" y="59.041"/><use fill="#191970" x="254.747" xlink:href="#e" y="65.407"/><path d="m285.346313 27.232406h-27.382813c-2.203125 0-3.988281-1.785156-3.988281-3.984375v-46.492187c0-2.203125 1.785156-3.988281 3.988281-3.988281h27.382813c2.199218 0 3.984375 1.785156 3.984375 3.988281v46.492187c0 2.199219-1.785157 3.984375-3.984375 3.984375zm0 0" fill="#2e8b57" fill-opacity=".5" stroke="#191970" stroke-miterlimit="10" stroke-width=".3985" transform="matrix(1 0 0 -1 39.599 59.041)"/><use fill="#191970" x="297.017" xlink:href="#b" y="35.53"/><use fill="#191970" x="297.017" xlink:href="#h" y="53.064"/><use fill="#191970" x="297.017" xlink:href="#h" y="59.041"/><use fill="#191970" x="297.017" xlink:href="#c" y="65.407"/><use fill="#191970" x="308.758" xlink:href="#m" y="43.5"/><use fill="#191970" x="308.758" xlink:href="#k" y="55.455"/><use fill="#191970" x="308.758" xlink:href="#l" y="67.41"/><use fill="#191970" x="308.758" xlink:href="#o" y="79.365"/><use fill="#191970" x="318.845" xlink:href="#d" y="35.53"/><use fill="#191970" x="318.845" xlink:href="#i" y="53.064"/><use fill="#191970" x="318.845" xlink:href="#i" y="59.041"/><use fill="#191970" x="318.845" xlink:href="#e" y="65.407"/><path d="m354.99475 15.275375h-32.933594c-2.199218 0-3.984375-1.785156-3.984375-3.984375v-22.582031c0-2.199219 1.785157-3.984375 3.984375-3.984375h32.933594c2.199219 0 3.984375 1.785156 3.984375 3.984375v22.582031c0 2.199219-1.785156 3.984375-3.984375 3.984375zm0 0" fill="#7f007f" fill-opacity=".5" stroke="#191970" stroke-miterlimit="10" stroke-width=".3985" transform="matrix(1 0 0 -1 39.599 59.041)"/><use fill="#191970" x="361.116" xlink:href="#f" y="47.48"/><use fill="#191970" x="371.596" xlink:href="#t" y="55.455"/><use fill="#191970" x="379.79" xlink:href="#k" y="55.455"/><use fill="#191970" x="371.596" xlink:href="#t" y="67.41"/><use fill="#191970" x="379.79" xlink:href="#k" y="67.41"/><use fill="#191970" x="389.877" xlink:href="#g" y="47.48"/><path d="m424.643188 15.275375h-32.933594c-2.203125 0-3.984375-1.785156-3.984375-3.984375v-22.582031c0-2.199219 1.78125-3.984375 3.984375-3.984375h32.933594c2.199218 0 3.984375 1.785156 3.984375 3.984375v22.582031c0 2.199219-1.785157 3.984375-3.984375 3.984375zm0 0" fill="#2e8b57" fill-opacity=".5" stroke="#191970" stroke-miterlimit="10" stroke-width=".3985" transform="matrix(1 0 0 -1 39.599 59.041)"/><use fill="#191970" x="430.763" xlink:href="#f" y="47.48"/><use fill="#191970" x="441.243" xlink:href="#t" y="55.455"/><use fill="#191970" x="449.437" xlink:href="#k" y="55.455"/><use fill="#191970" x="441.243" xlink:href="#t" y="67.41"/><use fill="#191970" x="449.437" xlink:href="#k" y="67.41"/><use fill="#191970" x="459.525" xlink:href="#g" y="47.48"/><g fill="#2e8b57"><use x="403.181" xlink:href="#A" y="85.827"/><use x="408.16232" xlink:href="#y" y="85.827"/><use x="413.701548" xlink:href="#z" y="85.827"/><use x="417.577015" xlink:href="#x" y="85.827"/><use x="423.116243" xlink:href="#y" y="85.827"/><use x="428.65547" xlink:href="#z" y="85.827"/></g><use fill="#2e8b57" x="434.316" xlink:href="#I" y="85.931"/><use fill="#2e8b57" x="438.939" xlink:href="#R" y="85.827"/><use fill="#2e8b57" x="447.248" xlink:href="#I" y="85.827"/><use fill="#2e8b57" x="451.522" xlink:href="#L" y="85.827"/><use fill="#2e8b57" x="456.669" xlink:href="#N" y="87.787"/><use fill="#2e8b57" x="459.544" xlink:href="#J" y="85.827"/><use fill="#2e8b57" x="466.586" xlink:href="#u" y="85.827"/><use fill="#2e8b57" x="476.392" xlink:href="#Q" y="85.827"/><use fill="#2e8b57" x="483.984" xlink:href="#P" y="82.21"/><use fill="#2e8b57" x="488.207" xlink:href="#J" y="85.931"/><path d="m607.257812 42.640625h-106.300781c-2.203125 0-3.984375 1.785156-3.984375 3.984375v24.832031c0 2.199219 1.78125 3.984375 3.984375 3.984375h106.300781c2.203126 0 3.984376-1.785156 3.984376-3.984375v-24.832031c0-2.199219-1.78125-3.984375-3.984376-3.984375zm0 0" fill="#8b0000" fill-opacity=".2"/><g clip-path="url(#a)"><path d="m567.658812 16.400375h-106.300781c-2.203125 0-3.984375-1.785156-3.984375-3.984375v-24.832031c0-2.199219 1.78125-3.984375 3.984375-3.984375h106.300781c2.203125 0 3.984375 1.785156 3.984375 3.984375v24.832031c0 2.199219-1.78125 3.984375-3.984375 3.984375zm0 0" fill="none" stroke="#8b0000" stroke-miterlimit="10" stroke-width=".3985" transform="matrix(1 0 0 -1 39.599 59.041)"/></g><use fill="#8b0000" x="500.41" xlink:href="#j" y="48.211"/><use fill="#8b0000" x="500.41" xlink:href="#j" y="54.188"/><use fill="#8b0000" x="500.41" xlink:href="#j" y="60.166"/><use fill="#8b0000" x="500.41" xlink:href="#j" y="66.143"/><use fill="#8b0000" x="503.976" xlink:href="#f" y="48.604"/><use fill="#8b0000" x="514.457" xlink:href="#t" y="56.579"/><use fill="#8b0000" x="522.651" xlink:href="#k" y="56.579"/><use fill="#8b0000" x="514.457" xlink:href="#t" y="68.534"/><use fill="#8b0000" x="522.651" xlink:href="#k" y="68.534"/><use fill="#8b0000" x="532.738" xlink:href="#g" y="48.604"/><use fill="#8b0000" x="540.175" xlink:href="#t" y="62.656"/><use fill="#8b0000" x="550.43" xlink:href="#f" y="48.604"/><use fill="#8b0000" x="560.787" xlink:href="#m" y="56.579"/><use fill="#8b0000" x="560.787" xlink:href="#l" y="68.534"/><use fill="#8b0000" x="570.874" xlink:href="#g" y="48.604"/><use fill="#8b0000" x="576.373" xlink:href="#j" y="48.211"/><use fill="#8b0000" x="576.373" xlink:href="#j" y="54.188"/><use fill="#8b0000" x="576.373" xlink:href="#j" y="60.166"/><use fill="#8b0000" x="576.373" xlink:href="#j" y="66.143"/><use fill="#8b0000" x="579.815" xlink:href="#V" y="51.133"/><use fill="#8b0000" x="586.991" xlink:href="#K" y="62.656"/><g fill="#8b0000"><use x="597.952" xlink:href="#l" y="62.656"/><use x="602.93332" xlink:href="#p" y="62.656"/></g><g fill="#8b0000"><use x="546.299" xlink:href="#B" y="86.075"/><use x="549.068614" xlink:href="#A" y="86.075"/><use x="554.049934" xlink:href="#C" y="86.075"/><use x="557.975214" xlink:href="#C" y="86.075"/></g><path d="m540.986937 55.8535h-24.613281c-2.199219 0-3.984375-1.78125-3.984375-3.984375v-22.582031c0-2.199219 1.785156-3.984375 3.984375-3.984375h24.613281c2.203125 0 3.988282 1.785156 3.988282 3.984375v22.582031c0 2.203125-1.785157 3.984375-3.988282 3.984375zm0 0" fill="#cd853f" fill-opacity=".5" stroke="#a46a33" stroke-miterlimit="10" stroke-width=".3985" transform="matrix(1 0 0 -1 39.599 59.041)"/><use fill="#a46a33" x="555.427" xlink:href="#f" y="6.902"/><use fill="#a46a33" x="565.783" xlink:href="#m" y="14.877"/><use fill="#a46a33" x="565.783" xlink:href="#l" y="26.832"/><use fill="#a46a33" x="575.87" xlink:href="#g" y="6.902"/><g fill="#cd853f"><use x="465.421" xlink:href="#D" y="20.874"/><use x="470.960228" xlink:href="#E" y="20.874"/><use x="475.38364" xlink:href="#C" y="20.874"/><use x="479.30892" xlink:href="#v" y="20.874"/><use x="482.078534" xlink:href="#F" y="20.874"/><use x="485.983889" xlink:href="#E" y="20.874"/><use x="490.407301" xlink:href="#D" y="20.874"/></g><g fill="#cd853f"><use x="499.264088" xlink:href="#A" y="20.874"/><use x="504.245408" xlink:href="#y" y="20.874"/><use x="509.784636" xlink:href="#z" y="20.874"/><use x="513.660103" xlink:href="#x" y="20.874"/><use x="519.199331" xlink:href="#y" y="20.874"/><use x="524.738559" xlink:href="#z" y="20.874"/></g><use fill="#cd853f" x="531.931585" xlink:href="#G" y="20.874"/><use fill="#cd853f" x="535.931" xlink:href="#M" y="20.874"/><use fill="#cd853f" x="541.636" xlink:href="#N" y="22.834"/><use fill="#cd853f" x="544.387" xlink:href="#H" y="20.874"/><path d="m22.033812.0019375h23.519532" fill="none" stroke="#191970" stroke-miterlimit="10" stroke-width=".3985" transform="matrix(1 0 0 -1 39.599 59.041)"/><path d="m87.148438 59.039062-3.191407-1.59375 1.195313 1.59375-1.195313 1.597657" fill="#191970"/><use fill="#191970" x="75.987" xlink:href="#S" y="69.58"/><use fill="#191970" x="83.304" xlink:href="#W" y="71.438"/><path d="m91.68225.0019375h23.519531" fill="none" stroke="#191970" stroke-miterlimit="10" stroke-width=".3985" transform="matrix(1 0 0 -1 39.599 59.041)"/><path d="m156.792969 59.039062-3.1875-1.59375 1.195312 1.59375-1.195312 1.597657" fill="#191970"/><use fill="#191970" x="140.812" xlink:href="#T" y="69.45"/><use fill="#191970" x="147.741" xlink:href="#q" y="69.45"/><path d="m153.014281.0019375h23.519532" fill="none" stroke="#191970" stroke-miterlimit="10" stroke-width=".3985" transform="matrix(1 0 0 -1 39.599 59.041)"/><path d="m218.125 59.039062-3.1875-1.59375 1.195312 1.59375-1.195312 1.597657" fill="#191970"/><use fill="#191970" x="206.962" xlink:href="#S" y="69.58"/><use fill="#191970" x="214.28" xlink:href="#V" y="71.324"/><path d="m225.43225.0019375h23.519531" fill="none" stroke="#191970" stroke-miterlimit="10" stroke-width=".3985" transform="matrix(1 0 0 -1 39.599 59.041)"/><path d="m290.542969 59.039062-3.1875-1.59375 1.195312 1.59375-1.195312 1.597657" fill="#191970"/><use fill="#191970" x="274.557" xlink:href="#T" y="69.45"/><use fill="#191970" x="281.486" xlink:href="#q" y="69.45"/><path d="m289.529906.0019375h23.519532" fill="none" stroke="#191970" stroke-miterlimit="10" stroke-width=".3985" transform="matrix(1 0 0 -1 39.599 59.041)"/><path d="m354.640625 59.039062-3.1875-1.59375 1.195313 1.59375-1.195313 1.597657" fill="#191970"/><use fill="#191970" x="343.478" xlink:href="#S" y="69.58"/><use fill="#191970" x="350.795" xlink:href="#X" y="71.324"/><path d="m359.178344.0019375h23.519531" fill="none" stroke="#191970" stroke-miterlimit="10" stroke-width=".3985" transform="matrix(1 0 0 -1 39.599 59.041)"/><path d="m424.289062 59.039062-3.1875-1.59375 1.195313 1.59375-1.195313 1.597657" fill="#191970"/><g fill="#191970"><use x="408.452" xlink:href="#r" y="69.819"/><use x="411.351128" xlink:href="#s" y="69.819"/></g><path d="m428.826781.0019375h23.519532" fill="none" stroke="#191970" stroke-miterlimit="10" stroke-width=".3985" transform="matrix(1 0 0 -1 39.599 59.041)"/><path d="m493.9375 59.039062-3.1875-1.59375 1.195312 1.59375-1.195312 1.597657" fill="#191970"/><use fill="#191970" x="478.576" xlink:href="#U" y="69.45"/><use fill="#191970" x="484.281" xlink:href="#N" y="71.41"/><path d="m528.68225 25.1035v-3.675781" fill="none" stroke="#a46a33" stroke-miterlimit="10" stroke-width=".3985" transform="matrix(1 0 0 -1 39.599 59.041)"/><path d="m568.28125 39.605469 1.59375-3.1875-1.59375 1.195312-1.59375-1.195312" fill="#a46a33"/><g fill="#191970"><path d="m50.229125 49.169906h-28.039063c-2.203125 0-3.984375-1.785156-3.984375-3.984375v-6.984375c0-2.203125 1.78125-3.984375 3.984375-3.984375h28.039063c2.199219 0 3.984375 1.78125 3.984375 3.984375v6.984375c0 2.199219-1.785156 3.984375-3.984375 3.984375zm0 0" fill-opacity=".5" stroke="#191970" stroke-miterlimit="10" stroke-width=".3985" transform="matrix(1 0 0 -1 39.599 59.041)"/><use x="61.223" xlink:href="#Y" y="19.426"/><use x="64.483" xlink:href="#aa" y="19.426"/><use x="71.708" xlink:href="#ab" y="20.856"/><use x="75.195" xlink:href="#ae" y="19.426"/><use x="78.615" xlink:href="#af" y="19.426"/><use x="83.584" xlink:href="#ab" y="20.856"/><use x="87.171" xlink:href="#Z" y="19.426"/><path d="m181.205688 49.169906h-28.039063c-2.199219 0-3.984375-1.785156-3.984375-3.984375v-6.984375c0-2.203125 1.785156-3.984375 3.984375-3.984375h28.039063c2.199218 0 3.984375 1.78125 3.984375 3.984375v6.984375c0 2.199219-1.785157 3.984375-3.984375 3.984375zm0 0" fill-opacity=".5" stroke="#191970" stroke-miterlimit="10" stroke-width=".3985" transform="matrix(1 0 0 -1 39.599 59.041)"/><use x="192.199" xlink:href="#Y" y="19.426"/><use x="195.459" xlink:href="#aa" y="19.426"/><use x="202.683" xlink:href="#ac" y="20.767"/><use x="206.17" xlink:href="#ae" y="19.426"/><use x="209.591" xlink:href="#af" y="19.426"/><use x="214.56" xlink:href="#ac" y="20.767"/><use x="218.147" xlink:href="#Z" y="19.426"/><path d="m317.721313 49.169906h-28.039063c-2.199219 0-3.984375-1.785156-3.984375-3.984375v-6.984375c0-2.203125 1.785156-3.984375 3.984375-3.984375h28.039063c2.203125 0 3.984375 1.78125 3.984375 3.984375v6.984375c0 2.199219-1.78125 3.984375-3.984375 3.984375zm0 0" fill-opacity=".5" stroke="#191970" stroke-miterlimit="10" stroke-width=".3985" transform="matrix(1 0 0 -1 39.599 59.041)"/><use x="328.714" xlink:href="#Y" y="19.426"/><use x="331.974" xlink:href="#aa" y="19.426"/><use x="339.199" xlink:href="#ad" y="20.767"/><use x="342.686" xlink:href="#ae" y="19.426"/><use x="346.106" xlink:href="#af" y="19.426"/><use x="351.075" xlink:href="#ad" y="20.767"/><use x="354.662" xlink:href="#Z" y="19.426"/></g><path d="m36.209594 34.017563v-34.0156255" fill="none" stroke="#191970" stroke-miterlimit="10" stroke-width=".3985" transform="matrix(1 0 0 -1 39.599 59.041)"/><path d="m167.186156 34.017563v-34.0156255" fill="none" stroke="#191970" stroke-miterlimit="10" stroke-width=".3985" transform="matrix(1 0 0 -1 39.599 59.041)"/><path d="m303.701781 34.017563v-34.0156255" fill="none" stroke="#191970" stroke-miterlimit="10" stroke-width=".3985" transform="matrix(1 0 0 -1 39.599 59.041)"/></svg>