<svg height="158.36pt" viewBox="0 0 257 158.36" width="257pt" xmlns="http://www.w3.org/2000/svg" xmlns:xlink="http://www.w3.org/1999/xlink"><clipPath id="a"><path d="m164 69h6v6h-6zm0 0"/></clipPath><clipPath id="b"><path d="m9.550781 154.609375h243.699219v-150.859375h-249.5zm0 0"/></clipPath><clipPath id="c"><path d="m221 10h6v7h-6zm0 0"/></clipPath><clipPath id="d"><path d="m9.550781 154.609375h243.699219v-150.859375h-249.5zm0 0"/></clipPath><clipPath id="e"><path d="m152 64h6v6h-6zm0 0"/></clipPath><clipPath id="f"><path d="m9.550781 154.609375h243.699219v-150.859375h-249.5zm0 0"/></clipPath><clipPath id="g"><path d="m69 110h6v6h-6zm0 0"/></clipPath><clipPath id="h"><path d="m9.550781 154.609375h243.699219v-150.859375h-249.5zm0 0"/></clipPath><clipPath id="i"><path d="m109 56h7v7h-7zm0 0"/></clipPath><clipPath id="j"><path d="m9.550781 154.609375h243.699219v-150.859375h-249.5zm0 0"/></clipPath><clipPath id="k"><path d="m97 93h6v6h-6zm0 0"/></clipPath><clipPath id="l"><path d="m9.550781 154.609375h243.699219v-150.859375h-249.5zm0 0"/></clipPath><clipPath id="m"><path d="m9 148h226v2h-226zm0 0"/></clipPath><clipPath id="n"><path d="m9.550781 154.609375h243.699219v-150.859375h-249.5zm0 0"/></clipPath><clipPath id="o"><path d="m234 146h8v5h-8zm0 0"/></clipPath><clipPath id="p"><path d="m9.550781 154.609375h243.699219v-150.859375h-249.5zm0 0"/></clipPath><clipPath id="q"><path d="m233 146h9v6h-9zm0 0"/></clipPath><clipPath id="r"><path d="m9.550781 154.609375h243.699219v-150.859375h-249.5zm0 0"/></clipPath><clipPath id="s"><path d="m9 11h1v139h-1zm0 0"/></clipPath><clipPath id="t"><path d="m9.550781 154.609375h243.699219v-150.859375h-249.5zm0 0"/></clipPath><clipPath id="u"><path d="m7 3h5v9h-5zm0 0"/></clipPath><clipPath id="v"><path d="m9.550781 154.609375h243.699219v-150.859375h-249.5zm0 0"/></clipPath><clipPath id="w"><path d="m8 14h235v119h-235zm0 0"/></clipPath><clipPath id="x"><path d="m9.550781 154.609375h243.699219v-150.859375h-249.5zm0 0"/></clipPath><clipPath id="y"><path d="m8 3h235v152h-235zm0 0"/></clipPath><clipPath id="z"><path d="m9.550781 154.609375h243.699219v-150.859375h-249.5zm0 0"/></clipPath><clipPath id="A"><path d="m107 89h5v7h-5zm0 0"/></clipPath><clipPath id="B"><path d="m9.550781 154.609375h243.699219v-150.859375h-249.5zm0 0"/></clipPath><clipPath id="C"><path d="m111 86h4v10h-4zm0 0"/></clipPath><clipPath id="D"><path d="m9.550781 154.609375h243.699219v-150.859375h-249.5zm0 0"/></clipPath><clipPath id="E"><path d="m115 89h5v7h-5zm0 0"/></clipPath><clipPath id="F"><path d="m9.550781 154.609375h243.699219v-150.859375h-249.5zm0 0"/></clipPath><clipPath id="G"><path d="m120 86h7v10h-7zm0 0"/></clipPath><clipPath id="H"><path d="m9.550781 154.609375h243.699219v-150.859375h-249.5zm0 0"/></clipPath><clipPath id="I"><path d="m130 89h11v7h-11zm0 0"/></clipPath><clipPath id="J"><path d="m9.550781 154.609375h243.699219v-150.859375h-249.5zm0 0"/></clipPath><clipPath id="K"><path d="m140 86h4v10h-4zm0 0"/></clipPath><clipPath id="L"><path d="m9.550781 154.609375h243.699219v-150.859375h-249.5zm0 0"/></clipPath><clipPath id="M"><path d="m144 89h7v7h-7zm0 0"/></clipPath><clipPath id="N"><path d="m9.550781 154.609375h243.699219v-150.859375h-249.5zm0 0"/></clipPath><clipPath id="O"><path d="m151 86h4v10h-4zm0 0"/></clipPath><clipPath id="P"><path d="m9.550781 154.609375h243.699219v-150.859375h-249.5zm0 0"/></clipPath><clipPath id="Q"><path d="m154 89h11v7h-11zm0 0"/></clipPath><clipPath id="R"><path d="m9.550781 154.609375h243.699219v-150.859375h-249.5zm0 0"/></clipPath><clipPath id="S"><path d="m165 86h4v10h-4zm0 0"/></clipPath><clipPath id="T"><path d="m9.550781 154.609375h243.699219v-150.859375h-249.5zm0 0"/></clipPath><clipPath id="U"><path d="m168 89h7v7h-7zm0 0"/></clipPath><clipPath id="V"><path d="m9.550781 154.609375h243.699219v-150.859375h-249.5zm0 0"/></clipPath><clipPath id="W"><path d="m174 89h6v7h-6zm0 0"/></clipPath><clipPath id="X"><path d="m9.550781 154.609375h243.699219v-150.859375h-249.5zm0 0"/></clipPath><clipPath id="Y"><path d="m180 89h5v7h-5zm0 0"/></clipPath><clipPath id="Z"><path d="m9.550781 154.609375h243.699219v-150.859375h-249.5zm0 0"/></clipPath><clipPath id="aa"><path d="m88 12h6v7h-6zm0 0"/></clipPath><clipPath id="ab"><path d="m9.550781 154.609375h243.699219v-150.859375h-249.5zm0 0"/></clipPath><clipPath id="ac"><path d="m94 12h11v7h-11zm0 0"/></clipPath><clipPath id="ad"><path d="m9.550781 154.609375h243.699219v-150.859375h-249.5zm0 0"/></clipPath><clipPath id="ae"><path d="m104 12h8v10h-8zm0 0"/></clipPath><clipPath id="af"><path d="m9.550781 154.609375h243.699219v-150.859375h-249.5zm0 0"/></clipPath><clipPath id="ag"><path d="m111 9h4v10h-4zm0 0"/></clipPath><clipPath id="ah"><path d="m9.550781 154.609375h243.699219v-150.859375h-249.5zm0 0"/></clipPath><clipPath id="ai"><path d="m115 12h5v7h-5zm0 0"/></clipPath><clipPath id="aj"><path d="m9.550781 154.609375h243.699219v-150.859375h-249.5zm0 0"/></clipPath><clipPath id="ak"><path d="m120 9h3v10h-3zm0 0"/></clipPath><clipPath id="al"><path d="m9.550781 154.609375h243.699219v-150.859375h-249.5zm0 0"/></clipPath><clipPath id="am"><path d="m123 12h6v7h-6zm0 0"/></clipPath><clipPath id="an"><path d="m9.550781 154.609375h243.699219v-150.859375h-249.5zm0 0"/></clipPath><clipPath id="ao"><path d="m128 12h7v7h-7zm0 0"/></clipPath><clipPath id="ap"><path d="m9.550781 154.609375h243.699219v-150.859375h-249.5zm0 0"/></clipPath><clipPath id="aq"><path d="m134 9h4v10h-4zm0 0"/></clipPath><clipPath id="ar"><path d="m9.550781 154.609375h243.699219v-150.859375h-249.5zm0 0"/></clipPath><clipPath id="as"><path d="m141 12h5v7h-5zm0 0"/></clipPath><clipPath id="at"><path d="m9.550781 154.609375h243.699219v-150.859375h-249.5zm0 0"/></clipPath><clipPath id="au"><path d="m145 9h4v10h-4zm0 0"/></clipPath><clipPath id="av"><path d="m9.550781 154.609375h243.699219v-150.859375h-249.5zm0 0"/></clipPath><clipPath id="aw"><path d="m149 12h5v7h-5zm0 0"/></clipPath><clipPath id="ax"><path d="m9.550781 154.609375h243.699219v-150.859375h-249.5zm0 0"/></clipPath><clipPath id="ay"><path d="m154 9h7v10h-7zm0 0"/></clipPath><clipPath id="az"><path d="m9.550781 154.609375h243.699219v-150.859375h-249.5zm0 0"/></clipPath><clipPath id="aA"><path d="m101 22h11v7h-11zm0 0"/></clipPath><clipPath id="aB"><path d="m9.550781 154.609375h243.699219v-150.859375h-249.5zm0 0"/></clipPath><clipPath id="aC"><path d="m111 19h4v10h-4zm0 0"/></clipPath><clipPath id="aD"><path d="m9.550781 154.609375h243.699219v-150.859375h-249.5zm0 0"/></clipPath><clipPath id="aE"><path d="m115 22h7v7h-7zm0 0"/></clipPath><clipPath id="aF"><path d="m9.550781 154.609375h243.699219v-150.859375h-249.5zm0 0"/></clipPath><clipPath id="aG"><path d="m122 19h4v10h-4zm0 0"/></clipPath><clipPath id="aH"><path d="m9.550781 154.609375h243.699219v-150.859375h-249.5zm0 0"/></clipPath><clipPath id="aI"><path d="m125 22h11v7h-11zm0 0"/></clipPath><clipPath id="aJ"><path d="m9.550781 154.609375h243.699219v-150.859375h-249.5zm0 0"/></clipPath><clipPath id="aK"><path d="m136 19h4v10h-4zm0 0"/></clipPath><clipPath id="aL"><path d="m9.550781 154.609375h243.699219v-150.859375h-249.5zm0 0"/></clipPath><clipPath id="aM"><path d="m139 22h7v7h-7zm0 0"/></clipPath><clipPath id="aN"><path d="m9.550781 154.609375h243.699219v-150.859375h-249.5zm0 0"/></clipPath><clipPath id="aO"><path d="m145 22h6v7h-6zm0 0"/></clipPath><clipPath id="aP"><path d="m9.550781 154.609375h243.699219v-150.859375h-249.5zm0 0"/></clipPath><clipPath id="aQ"><path d="m151 22h5v7h-5zm0 0"/></clipPath><clipPath id="aR"><path d="m9.550781 154.609375h243.699219v-150.859375h-249.5zm0 0"/></clipPath><clipPath id="aS"><path d="m247 140h7v7h-7zm0 0"/></clipPath><clipPath id="aT"><path d="m9.550781 154.609375h243.699219v-150.859375h-249.5zm0 0"/></clipPath><clipPath id="aU"><path d="m15 16h7v10h-7zm0 0"/></clipPath><clipPath id="aV"><path d="m9.550781 154.609375h243.699219v-150.859375h-249.5zm0 0"/></clipPath><symbol id="aW" overflow="visible"><path d="m.28125-4.78125h.4375c.46875 0 .53125.078125.53125.875v2.6875c0 .75-.046875.84375-.453125.859375l-.546875.03125v.359375c.859375-.015625 1.171875-.03125 1.46875-.03125.234375 0 .234375 0 1.71875.03125v-.359375l-.625-.03125c-.546875-.03125-.5625-.078125-.5625-.859375v-2.0625c0-.71875.46875-1.3125 1.0625-1.3125.359375 0 .609375.171875.796875.546875h.25l.109375-1.421875c-.125-.09375-.34375-.140625-.5625-.140625-.359375 0-.734375.1875-.984375.5l-.671875.78125v-1.234375l-.109375-.046875c-.609375.25-1.234375.421875-1.859375.5zm0 0"/></symbol><symbol id="aX" overflow="visible"><path d="m2.25-5.5625-.109375-.046875c-.609375.25-1.234375.421875-1.859375.5v.328125h.4375c.46875 0 .53125.078125.53125.875v2.6875c0 .75-.046875.84375-.453125.859375l-.546875.03125v.359375c1.203125-.03125 1.203125-.03125 1.5-.03125s.296875 0 1.484375.03125v-.359375l-.546875-.03125c-.40625-.015625-.4375-.109375-.4375-.859375zm-.546875-2.65625c-.359375 0-.671875.3125-.671875.671875 0 .34375.3125.65625.65625.65625s.671875-.3125.671875-.65625c0-.328125-.328125-.671875-.65625-.671875zm0 0"/></symbol><symbol id="aY" overflow="visible"><path d="m.484375-1.703125c0 .8125-.03125 1.171875-.125 1.65625.625.203125 1.09375.28125 1.640625.28125 1.5625 0 2.671875-.828125 2.671875-2 0-.375-.109375-.65625-.328125-.890625-.3125-.296875-.703125-.4375-1.765625-.640625-.96875-.1875-1.296875-.4375-1.296875-.984375 0-.59375.421875-.9375 1.140625-.9375.8125 0 1.421875.421875 1.421875.984375v.28125h.328125c.015625-.703125.03125-.984375.0625-1.359375-.640625-.203125-1.0625-.296875-1.5625-.296875-1.375 0-2.234375.65625-2.234375 1.734375 0 .578125.265625.984375.8125 1.234375.328125.140625.96875.328125 1.78125.515625.53125.109375.765625.375.765625.828125 0 .640625-.609375 1.09375-1.453125 1.09375-.875 0-1.5-.421875-1.5-1.015625v-.484375zm0 0"/></symbol><symbol id="aZ" overflow="visible"><path d="m.28125-7.90625h.65625c.21875 0 .3125.140625.3125.5v6.1875c0 .75-.046875.84375-.453125.859375l-.546875.03125v.359375c1.203125-.03125 1.203125-.03125 1.5-.03125.34375 0 .40625 0 1.46875.03125v-.359375l-.53125-.03125c-.40625-.015625-.4375-.109375-.4375-.859375v-1.65625l3.171875 3.015625 1.140625-.34375v-.28125c-.28125 0-.640625-.203125-1.015625-.5625l-1.5-1.5c-.4375-.421875-.5625-.578125-.765625-.8125l1.53125-1.203125c.5625-.4375.890625-.578125 1.296875-.5625v-.359375h-1.203125c-.765625.765625-1.328125 1.28125-1.78125 1.65625l-.875.703125v-5.453125l-.109375-.09375c-.53125.203125-.921875.296875-1.859375.4375zm0 0"/></symbol><symbol id="a0" overflow="visible"><path d="m.21875-4.78125h.4375c.484375 0 .53125.078125.53125.875v2.6875c0 .75-.046875.84375-.453125.859375l-.546875.03125v.359375c1.15625-.03125 1.1875-.03125 1.515625-.03125.34375 0 .65625.015625 1.421875.03125v-.359375l-.5-.03125c-.40625-.015625-.4375-.109375-.4375-.859375v-2.53125c0-.546875.78125-1.125 1.5-1.125.65625 0 1.09375.609375 1.09375 1.515625v2.140625c0 .75-.03125.84375-.4375.859375l-.546875.03125v.359375c1.1875-.03125 1.1875-.03125 1.484375-.03125s.296875 0 1.5.03125v-.359375l-.546875-.03125c-.40625-.015625-.453125-.109375-.453125-.859375v-2.53125c0-.546875.796875-1.125 1.515625-1.125.640625 0 1.078125.609375 1.078125 1.515625v3.390625c.734375-.03125.75-.03125.953125-.03125.15625 0 .15625 0 1.0625.03125v-.359375l-.5625-.03125c-.40625-.015625-.4375-.109375-.4375-.859375v-2.46875c0-1.171875-.703125-1.921875-1.796875-1.921875-.421875 0-.765625.109375-.984375.296875l-.90625.8125c-.390625-.78125-.875-1.109375-1.703125-1.109375-.4375 0-.765625.109375-.984375.296875l-.828125.765625v-1.015625l-.109375-.046875c-.609375.25-1.234375.421875-1.859375.5zm0 0"/></symbol><symbol id="a1" overflow="visible"><path d="m4.90625.03125c.71875-.03125.734375-.03125.9375-.03125.171875 0 .171875 0 1 .03125v-.359375l-.5-.03125c-.40625-.015625-.4375-.09375-.4375-.859375v-2.3125c0-1.390625-.65625-2.078125-2-2.078125-.4375 0-.6875.09375-.9375.296875l-.90625.796875v-1.046875l-.109375-.046875c-.609375.25-1.234375.421875-1.875.5v.328125h.453125c.46875 0 .515625.078125.515625.875v2.6875c0 .75-.03125.84375-.4375.859375l-.53125.03125v.359375c.8125-.015625 1.125-.03125 1.46875-.03125.359375 0 .671875.015625 1.484375.03125v-.359375l-.53125-.03125c-.40625-.015625-.4375-.109375-.4375-.859375v-2.53125c0-.546875.78125-1.125 1.515625-1.125.796875 0 1.328125.59375 1.328125 1.515625zm0 0"/></symbol><symbol id="a2" overflow="visible"><path d="m5.4375-5.15625v-.359375c-.828125.015625-1.1875.03125-1.640625.03125l-2.96875-.03125c-.03125.609375-.046875.75-.109375 1.578125h.359375l.140625-.8125c.046875-.265625.265625-.3125 1.140625-.3125h1.71875c-.25.390625-.453125.65625-.78125 1.0625l-2.03125 2.546875c-.28125.34375-.453125.546875-1.078125 1.25l.078125.234375c1.234375-.03125 1.3125-.03125 1.828125-.03125l3.296875.03125c0-.265625.03125-.5625.109375-1.125l.0625-.5625h-.34375l-.21875.9375c-.046875.21875-.546875.296875-1.703125.296875h-1.609375zm0 0"/></symbol><symbol id="a3" overflow="visible"><path d="m5.21875-.84375-.15625-.109375c-.765625.453125-1.03125.5625-1.546875.5625-.78125 0-1.421875-.34375-1.765625-.9375-.21875-.390625-.296875-.734375-.328125-1.421875h1.75c.828125 0 1.328125-.03125 2.15625-.171875.015625-.15625.03125-.265625.03125-.40625 0-1.375-.890625-2.28125-2.234375-2.28125-.4375 0-.953125.15625-1.4375.453125-.984375.546875-1.375 1.296875-1.375 2.53125 0 .765625.171875 1.40625.5 1.859375.484375.640625 1.28125 1 2.171875 1 .453125 0 .890625-.09375 1.375-.3125.328125-.125.578125-.28125.625-.359375zm-.921875-2.34375c-.625.015625-.921875.03125-1.34375.03125-.546875 0-.859375-.015625-1.5-.078125 0-.5625.046875-.8125.203125-1.125.25-.53125.765625-.859375 1.328125-.859375.390625 0 .703125.15625.921875.484375.265625.390625.34375.734375.390625 1.546875zm0 0"/></symbol><symbol id="a4" overflow="visible"><path d="m.125-4.78125h.4375c.484375 0 .53125.078125.53125.875v6.015625c0 .75-.046875.828125-.453125.859375l-.546875.03125v.359375c1.203125-.03125 1.203125-.03125 1.5-.03125s.296875 0 1.484375.03125v-.359375l-.546875-.03125c-.40625-.03125-.4375-.109375-.4375-.859375v-2.265625c.359375.21875.734375.296875 1.28125.296875.34375 0 .65625-.0625.84375-.1875l1.359375-.890625c.484375-.3125 1.046875-1.53125 1.046875-2.296875 0-1.328125-1.109375-2.375-2.484375-2.375-.453125 0-.875.125-1.0625.296875l-.984375.90625v-1.15625l-.109375-.046875c-.609375.25-1.234375.421875-1.859375.5zm1.96875 1.125c0-.171875.0625-.296875.21875-.5.34375-.453125.828125-.671875 1.421875-.671875 1.125 0 1.84375.78125 1.84375 2.03125 0 1.34375-.796875 2.328125-1.875 2.328125-.65625 0-1.140625-.21875-1.609375-.703125zm0 0"/></symbol><symbol id="a5" overflow="visible"><path d="m4.765625-3.71875c0-.546875.0625-1.03125.171875-1.46875-.484375-.28125-.890625-.421875-1.390625-.421875-.578125 0-1.234375.234375-1.953125.6875-.84375.515625-1.28125 1.359375-1.28125 2.40625 0 1.625 1.140625 2.75 2.734375 2.75.625 0 1.515625-.21875 1.640625-.40625l.25-.375-.125-.1875c-.4375.25-.8125.359375-1.25.359375-1.328125 0-2.203125-1.03125-2.203125-2.609375 0-1.28125.59375-2 1.671875-2 .53125 0 1.109375.234375 1.3125.53125l.09375.734375zm0 0"/></symbol><symbol id="a6" overflow="visible"><path d="m3.875-.984375-.0625 1.015625c.78125-.03125.78125-.03125.9375-.03125.0625 0 .359375.015625.875.03125v-.359375l-.46875-.015625c-.28125-.015625-.328125-.109375-.328125-.703125v-2.1875c0-1.734375-.5-2.375-1.890625-2.375-.515625 0-.984375.140625-1.4375.40625l-.640625.390625v.765625l.3125.09375.15625-.375c.25-.5625.375-.640625.921875-.640625 1.125 0 1.59375.4375 1.625 1.53125l-1.1875.203125c-1.625.3125-2.3125.875-2.3125 1.90625 0 .9375.5625 1.46875 1.515625 1.46875.21875 0 .421875-.03125.5-.09375zm0-.5c-.34375.5-1.109375.953125-1.5625.953125-.484375 0-.90625-.453125-.90625-.96875 0-.4375.25-.859375.609375-1.078125.296875-.1875.953125-.34375 1.859375-.484375zm0 0"/></symbol><symbol id="a7" overflow="visible"><path d="m.28125-7.90625h.65625c.21875 0 .3125.140625.3125.5v6.1875c0 .75-.046875.84375-.453125.859375l-.546875.03125v.359375c1.203125-.03125 1.203125-.03125 1.5-.03125s.296875 0 1.484375.03125v-.359375l-.546875-.03125c-.40625-.015625-.4375-.109375-.4375-.859375v-7.359375l-.109375-.09375c-.53125.203125-.921875.296875-1.859375.4375zm0 0"/></symbol><symbol id="a8" overflow="visible"><path d="m.25-1.046875c0 .234375-.015625.390625-.09375.765625-.03125.15625-.03125.1875-.046875.265625.171875.09375.375.140625.515625.140625.390625 0 .859375-.34375 1.234375-.90625l.90625-1.390625.125.828125c.15625 1.015625.4375 1.46875.859375 1.46875.265625 0 .65625-.203125 1.03125-.546875l.578125-.515625-.09375-.234375c-.4375.359375-.734375.53125-.921875.53125s-.34375-.109375-.453125-.34375-.25-.671875-.3125-1.03125l-.203125-1.203125.421875-.578125c.546875-.78125.875-1.0625 1.25-1.0625.1875 0 .328125.109375.390625.28125l.171875-.046875.171875-1.015625c-.140625-.078125-.25-.125-.359375-.125-.46875 0-.953125.4375-1.6875 1.53125l-.453125.65625-.0625-.5625c-.140625-1.1875-.46875-1.625-1.171875-1.625-.3125 0-.578125.09375-.6875.25l-.6875 1 .203125.109375c.359375-.40625.59375-.5625.828125-.5625.390625 0 .65625.484375.859375 1.65625l.125.75-.46875.734375c-.515625.796875-.921875 1.1875-1.265625 1.1875-.171875 0-.3125-.046875-.328125-.109375l-.140625-.34375zm0 0"/></symbol><symbol id="a9" overflow="visible"><path d="m-.078125 2.15625c-.015625.078125-.015625.15625-.015625.203125 0 .515625.4375.9375.984375.9375 1.265625 0 2.578125-1.484375 3.28125-3.6875l1.6875-5.265625-.140625-.109375c-.34375.140625-.609375.203125-.875.234375l-.421875 1.578125c-.140625.5625-.5625 1.4375-.953125 2.015625-.421875.609375-1 1.140625-1.265625 1.140625-.140625 0-.25-.28125-.25-.578125l.015625-.15625.1875-2.3125c.015625-.375.046875-.828125.046875-1.171875 0-.53125-.09375-.75-.296875-.75-.15625 0-.3125.09375-.890625.484375l-.984375.671875.140625.203125.59375-.34375.046875-.046875c.125-.0625.203125-.109375.25-.109375.171875 0 .265625.234375.265625.625 0 .015625 0 .078125-.015625.1875l-.203125 2.90625-.015625.46875c0 .5.21875.84375.515625.84375.453125 0 1.453125-1.015625 2.34375-2.359375l-.578125 2.046875c-.609375 2.109375-1.21875 2.984375-2.046875 2.984375-.421875 0-.75-.328125-.75-.734375 0-.0625.015625-.15625.03125-.265625l-.125-.046875zm0 0"/></symbol><g clip-path="url(#a)"><g clip-path="url(#b)"><path d="m1691.367188 859.654688c0 9.609375-7.8125 17.421875-17.421876 17.421875-9.609374 0-17.421874-7.8125-17.421874-17.421875s7.8125-17.421875 17.421874-17.421875c9.609376 0 17.421876 7.8125 17.421876 17.421875zm0 0" style="fill:none;stroke-width:17;stroke-linecap:round;stroke-linejoin:round;stroke:#191970;stroke-miterlimit:10" transform="matrix(.1 0 0 -.1 0 158.36)"/></g></g><g clip-path="url(#c)"><g clip-path="url(#d)"><path d="m2257.617188 1449.264063c0 9.609375-7.773438 17.421875-17.382813 17.421875s-17.421875-7.8125-17.421875-17.421875 7.8125-17.421875 17.421875-17.421875 17.382813 7.8125 17.382813 17.421875zm0 0" style="fill:none;stroke-width:17;stroke-linecap:round;stroke-linejoin:round;stroke:#191970;stroke-miterlimit:10" transform="matrix(.1 0 0 -.1 0 158.36)"/></g></g><g clip-path="url(#e)"><g clip-path="url(#f)"><path d="m1564.0625 913.560938c0 9.609375-7.773438 17.421875-17.421875 17.421875-9.609375 0-17.382813-7.8125-17.382813-17.421875s7.773438-17.382813 17.382813-17.382813c9.648437 0 17.421875 7.773438 17.421875 17.382813zm0 0" style="fill:none;stroke-width:17;stroke-linecap:round;stroke-linejoin:round;stroke:#191970;stroke-miterlimit:10" transform="matrix(.1 0 0 -.1 0 158.36)"/></g></g><g clip-path="url(#g)"><g clip-path="url(#h)"><path d="m733.4375 450.94375c0 9.609375-7.773438 17.382813-17.382812 17.382813-9.609376 0-17.421876-7.773438-17.421876-17.382813 0-9.648437 7.8125-17.421875 17.421876-17.421875 9.609374 0 17.382812 7.773438 17.382812 17.421875zm0 0" style="fill:none;stroke-width:17;stroke-linecap:round;stroke-linejoin:round;stroke:#191970;stroke-miterlimit:10" transform="matrix(.1 0 0 -.1 0 158.36)"/></g></g><g clip-path="url(#i)"><g clip-path="url(#j)"><path d="m1142.109375 987.779688c0 9.648437-7.8125 17.421875-17.421875 17.421875s-17.382812-7.773438-17.382812-17.421875c0-9.609375 7.773437-17.382813 17.382812-17.382813s17.421875 7.773438 17.421875 17.382813zm0 0" style="fill:none;stroke-width:17;stroke-linecap:round;stroke-linejoin:round;stroke:#191970;stroke-miterlimit:10" transform="matrix(.1 0 0 -.1 0 158.36)"/></g></g><g clip-path="url(#k)"><g clip-path="url(#l)"><path d="m1015.46875 623.365625c0 9.609375-7.8125 17.382813-17.421875 17.382813s-17.421875-7.773438-17.421875-17.382813 7.8125-17.421875 17.421875-17.421875 17.421875 7.8125 17.421875 17.421875zm0 0" style="fill:none;stroke-width:17;stroke-linecap:round;stroke-linejoin:round;stroke:#191970;stroke-miterlimit:10" transform="matrix(.1 0 0 -.1 0 158.36)"/></g></g><g clip-path="url(#m)"><g clip-path="url(#n)"><path d="m2341.445312 95.514063h-2245.9375" style="fill:none;stroke-width:5;stroke-linecap:round;stroke-linejoin:round;stroke:#000;stroke-miterlimit:10" transform="matrix(.1 0 0 -.1 0 158.36)"/></g></g><g clip-path="url(#o)"><g clip-path="url(#p)"><path d="m241.644531 148.808594-7.5-2.011719v4.019531zm0 0"/></g></g><g clip-path="url(#q)"><g clip-path="url(#r)"><path d="m2416.445312 95.514063-75 20.117187v-40.195312zm0 0" style="fill:none;stroke-width:5;stroke-linecap:round;stroke-linejoin:round;stroke:#000;stroke-miterlimit:10" transform="matrix(.1 0 0 -.1 0 158.36)"/></g></g><g clip-path="url(#s)"><g clip-path="url(#t)"><path d="m95.507812 1471.1v-1375.585937" style="fill:none;stroke-width:5;stroke-linecap:round;stroke-linejoin:round;stroke:#000;stroke-miterlimit:10" transform="matrix(.1 0 0 -.1 0 158.36)"/></g></g><g clip-path="url(#u)"><g clip-path="url(#v)"><path d="m95.507812 1546.1-20.078124-75h40.195312zm0 0" stroke="#000" stroke-linecap="round" stroke-linejoin="round" stroke-miterlimit="10" stroke-width="5" transform="matrix(.1 0 0 -.1 0 158.36)"/></g></g><g clip-path="url(#w)"><g clip-path="url(#x)"><path d="m95.507812 269.576563 2320.9375 1160.46875" style="fill:none;stroke-width:20;stroke-linecap:round;stroke-linejoin:round;stroke:#8b0000;stroke-opacity:.7;stroke-miterlimit:10" transform="matrix(.1 0 0 -.1 0 158.36)"/></g></g><g clip-path="url(#y)"><g clip-path="url(#z)"><path d="m95.507812 7350.123438 2.34375-23.398438 2.304688-23.554687 2.34375-23.789063 2.304688-23.984375 2.34375-24.179687 2.304687-24.414063 2.34375-24.570312 2.304687-24.804688 2.34375-24.960937 2.304688-25.195313 2.34375-25.390625 2.304688-25.546875 2.34375-25.78125 2.304687-25.9375 2.304687-26.132812 2.34375-26.328125 2.34375-26.523438 2.304688-26.679687 2.304688-26.875 2.34375-27.03125 2.304687-27.226563 2.34375-27.382812 2.304687-27.578125 2.34375-27.773438 2.304688-27.890625 2.34375-28.085937 2.304688-28.242188 2.34375-28.398437 2.304687-28.59375 2.34375-28.75 2.304687-28.867188 2.34375-29.0625 2.304688-29.179687 2.34375-29.335938 2.304688-29.492187 2.304687-29.648438 2.34375-29.804687 2.34375-29.921875 2.304687-30.039063 2.304688-30.195312 2.34375-30.351563 2.304688-30.46875 2.34375-30.585937 2.304687-30.703125 2.34375-30.859375 2.304687-30.976563 2.34375-31.09375 2.304688-31.210937 2.34375-31.289063 2.304688-31.445312 2.34375-31.5625 2.304687-31.640625 2.34375-31.757813 2.304687-31.835937 2.34375-31.992188 2.304688-32.03125 2.304688-32.148437 2.34375-32.226563 2.304687-32.34375 2.34375-32.421875 2.304687-32.5 2.34375-32.578125 2.304688-32.65625 2.34375-32.734375 2.304688-32.8125 2.34375-32.890625 2.304687-32.96875 2.34375-33.007812 2.304687-33.046875 2.34375-33.164063 2.304688-33.203125 2.34375-33.242187 2.304688-33.28125 2.34375-33.359375 2.304687-33.398438 2.34375-33.476562 2.304687-33.476563 2.304688-33.515625 2.34375-33.554687 2.304688-33.59375 2.34375-33.632813 2.304687-33.671875 2.34375-33.671875 2.304687-33.710937 2.34375-33.710938 2.304688-33.75 2.34375-33.75 2.304688-33.75 2.34375-33.789062 2.304687-33.789063 2.34375-33.789062 2.304687-33.789063 2.34375-33.789062 2.304688-33.75 2.304688-33.789063 2.34375-33.789062 2.34375-33.75 2.304687-33.75 2.304687-33.710938 2.34375-33.710937 2.304688-33.710938 2.34375-33.632812 2.304688-33.671875 2.34375-33.59375 2.304687-33.554688 2.34375-33.554687 2.304687-33.515625 2.34375-33.4375 2.304688-33.4375 2.34375-33.359375 2.304688-33.359375 2.34375-33.28125 2.304687-33.203125 2.34375-33.203125 2.304687-33.085938 2.34375-33.085937 2.304688-33.007813 2.34375-32.929687 2.304688-32.851563 2.304687-32.8125 2.34375-32.734375 2.304687-32.65625 2.34375-32.578125 2.304688-32.5 2.34375-32.421875 2.304688-32.34375 2.34375-32.226562 2.304687-32.1875 2.34375-32.070313 2.304687-31.992187 2.34375-31.875 2.304688-31.796875 2.34375-31.71875 2.304688-31.601563 2.34375-31.484375 2.304687-31.40625 2.34375-31.289062 2.304687-31.171875 2.304688-31.054688 2.34375-30.976562 2.304688-30.859375 2.34375-30.703125 2.304687-30.625 2.34375-30.46875 2.304687-30.390625 2.34375-30.234375 2.304688-30.117188 2.34375-30 2.304688-29.84375 2.34375-29.726562 2.304687-29.570313 2.34375-29.453125 2.304687-29.335937 2.34375-29.179688 2.304688-29.0625 2.304688-28.867187 2.34375-28.789063 2.34375-28.59375 2.304687-28.476562 2.304687-28.28125 2.34375-28.164063 2.304688-28.007812 2.34375-27.890625 2.304688-27.695313 2.34375-27.539062 2.304687-27.382813 2.34375-27.226562 2.304687-27.070313 2.34375-26.914062 2.304688-26.71875 2.34375-26.5625 2.304688-26.40625 2.34375-26.25 2.304687-26.054688 2.34375-25.898437 2.304687-25.742188 2.304688-25.546875 2.34375-25.390625 2.34375-25.195312 2.304688-25 2.304687-24.84375 2.34375-24.6875 2.304687-24.492188 2.34375-24.296875 2.304688-24.140625 2.34375-23.90625 2.304688-23.789062 2.34375-23.554688 2.304687-23.359375 2.34375-23.203125 2.304687-23.007812 2.34375-22.8125 2.304688-22.617188 2.34375-22.460937 2.304688-22.226563 2.34375-22.03125 2.304687-21.875 2.304687-21.640625 2.34375-21.484375 2.34375-21.25 2.304688-21.09375 2.304688-20.859375 2.34375-20.664062 2.304687-20.507813 2.34375-20.234375 2.304687-20.117187 2.34375-19.84375 2.304688-19.6875 2.34375-19.492188 2.304688-19.257812 2.34375-19.0625 2.304687-18.867188 2.34375-18.671875 2.304687-18.4375 2.34375-18.242187 2.304688-18.085938 2.34375-17.8125 2.304688-17.65625 2.304687-17.421875 2.34375-17.226562 2.304687-17.03125 2.34375-16.796875 2.304688-16.601563 2.34375-16.40625 2.304688-16.210937 2.34375-15.976563 2.304687-15.78125 2.34375-15.546875 2.304687-15.390625 2.34375-15.15625 2.304688-14.921875 2.34375-14.765625 2.304688-14.53125 2.34375-14.296875 2.304687-14.140625 2.34375-13.90625 2.304687-13.710937 2.304688-13.476563 2.34375-13.28125 2.304688-13.085937 2.34375-12.890625 2.304687-12.65625 2.34375-12.460938 2.304687-12.265625 2.34375-12.03125 2.304688-11.875 2.34375-11.640625 2.304688-11.40625 2.34375-11.25 2.304687-11.015625 2.34375-10.820312 2.304687-10.625 2.34375-10.429688 2.304688-10.195312 2.34375-10 2.304688-9.84375 2.34375-9.609375 2.304687-9.375 2.304687-9.21875 2.34375-9.023438 2.304688-8.789062 2.34375-8.632813 2.304688-8.398437 2.34375-8.242188 2.304687-8.007812 2.34375-7.851563 2.304687-7.617187 2.34375-7.421875 2.304688-7.265625 2.34375-7.03125 2.304688-6.875 2.34375-6.679688 2.304687-6.484375 2.34375-6.289062 2.304687-6.09375 2.34375-5.898438 2.304688-5.742187 2.34375-5.546875 2.304688-5.351563 2.304687-5.15625 2.34375-5 2.304687-4.804687 2.34375-4.609375 2.304688-4.453125 2.34375-4.257813 2.304688-4.101562 2.34375-3.90625 2.304687-3.75 2.34375-3.554688 2.304687-3.398437 2.34375-3.203125 2.304688-3.046875 2.34375-2.851563 2.304688-2.695312 2.34375-2.539063 2.304687-2.382812 2.34375-2.1875 2.304687-2.03125 2.34375-1.875 2.304688-1.679688 2.304688-1.5625 2.34375-1.40625 2.304687-1.210937 2.34375-1.054688 2.304687-.9375 2.34375-.742187 2.304688-.625 2.34375-.429688 2.304688-.3125 2.34375-.15625h2.304687l2.34375.15625 2.304687.273438 2.34375.429687 2.304688.585938 2.34375.703125 2.304688.859375 2.304687.976562 2.34375 1.132813 2.34375 1.289062 2.304687 1.40625 2.304688 1.523438 2.34375 1.640625 2.304688 1.796875 2.34375 1.953125 2.304687 2.03125 2.34375 2.1875 2.304687 2.304687 2.34375 2.421875 2.304688 2.539063 2.34375 2.65625 2.304688 2.773437 2.34375 2.890625 2.304687 3.007813 2.34375 3.125 2.304687 3.242187 2.34375 3.320313 2.304688 3.476562 2.304688 3.554688 2.34375 3.632812 2.34375 3.789063 2.304687 3.867187 2.304687 3.945313 2.34375 4.101562 2.304688 4.140625 2.34375 4.257813 2.304688 4.375 2.34375 4.414062 2.304687 4.570313 2.34375 4.609375 2.304687 4.726562 2.34375 4.765625 2.304688 4.882813 2.34375 4.960937 2.304688 5.078125 2.34375 5.117188 2.304687 5.195312 2.304687 5.273438 2.34375 5.351562 2.34375 5.429688 2.304688 5.46875 2.34375 5.585937 2.304688 5.625 2.304687 5.664063 2.34375 5.78125 2.304687 5.820312 2.34375 5.898438 2.304688 5.9375 2.34375 5.976562 2.304688 6.054688 2.34375 6.09375 2.304687 6.171875 2.34375 6.210937 2.304687 6.25 2.34375 6.328125 2.304688 6.367188 2.34375 6.367187 2.304688 6.445313 2.304687 6.484375 2.34375 6.523437 2.34375 6.5625 2.304687 6.5625 2.304688 6.640625 2.34375 6.679688 2.304688 6.679687 2.34375 6.71875 2.304687 6.757813 2.34375 6.757812 2.304687 6.796875 2.34375 6.796875 2.304688 6.875 2.34375 6.835938 2.304688 6.875 2.34375 6.914062 2.304687 6.914063 2.34375 6.914062 2.304687 6.914063 2.34375 6.953125 4.609376 13.90625 2.34375 6.992187 2.304687 6.953125 2.34375 6.953125 2.304687 6.992188 2.34375 6.953125 2.34375 6.992187 4.609376 13.90625 2.34375 6.953125 2.304687 6.953125 2.34375 6.914063 2.304687 6.953125 2.34375 6.914062 2.304688 6.875 2.34375 6.875 2.304688 6.875 2.34375 6.835938 2.304687 6.835937 2.304687 6.796875 2.34375 6.796875 2.304688 6.757813 2.34375 6.71875 2.304688 6.71875 2.34375 6.679687 2.304687 6.640625 2.34375 6.601563 2.304687 6.601562 2.34375 6.523438 2.304688 6.523437 2.34375 6.484375 2.304688 6.445313 2.34375 6.40625 2.304687 6.367187 2.34375 6.328125 2.304687 6.289063 2.34375 6.25 2.304688 6.171875 2.34375 6.171875 2.304688 6.09375 2.304687 6.054687 2.34375 5.976563 2.304687 5.976562 2.34375 5.898438 2.304688 5.859375 2.34375 5.78125 2.34375 5.742187 2.304688 5.703125 2.304687 5.625 2.34375 5.585938 2.304687 5.507812 2.34375 5.429688 2.304688 5.390625 2.34375 5.351562 2.304688 5.273438 2.34375 5.195312 2.304687 5.15625 2.34375 5.078125 2.304687 5 2.34375 4.921875 2.304688 4.882813 2.304688 4.804687 2.34375 4.726563 2.304687 4.648437 2.34375 4.609375 2.34375 4.53125 2.304687 4.453125 2.304688 4.375 2.34375 4.296875 2.304688 4.21875 2.34375 4.140625 2.304687 4.101563 2.34375 3.984375 2.304687 3.90625 2.34375 3.867187 2.304688 3.75 2.34375 3.671875 2.304688 3.59375 2.34375 3.554688 2.304687 3.4375 2.304687 3.359375 2.34375 3.28125 2.304688 3.203125 2.34375 3.085937 2.304688 3.046875 2.34375 2.96875 2.34375 2.851563 2.304687 2.773437 2.304687 2.695313 2.34375 2.617187 2.304688 2.5 2.34375 2.460938 2.304688 2.34375 2.34375 2.265625 2.304687 2.1875 2.34375 2.109375 2.304687 1.992187 2.34375 1.914063 2.304688 1.835937 2.34375 1.757813 2.304688 1.640625 2.304687 1.601562 2.34375 1.445313 2.304687 1.40625 2.34375 1.328125 2.34375 1.210937 2.304688 1.132813 2.304688 1.054687 2.34375.9375 2.304687.898438 2.34375.78125 2.304687.703125 2.34375.585937 2.304688.546875 2.34375.429688 2.304688.351562 2.34375.273438 2.304687.195312 2.34375.078125h2.304687l2.304688-.078125 2.34375-.15625 2.304688-.234375 2.34375-.351562 2.304687-.390625 2.34375-.507813 2.304687-.585937 2.34375-.664063 2.304688-.742187 2.34375-.820313 2.304688-.898437 2.34375-1.015625 2.304687-1.054688 2.34375-1.132812 2.304687-1.25 2.34375-1.289063 2.304688-1.367187 2.34375-1.484375 2.304688-1.523438 2.34375-1.601562 2.304687-1.679688 2.304687-1.757812 2.34375-1.835938 2.304688-1.914062 2.34375-1.953125 2.34375-2.070313 2.304688-2.109375 2.304687-2.148437 2.34375-2.265625 2.304687-2.304688 2.34375-2.421875 2.304688-2.421875 2.34375-2.539062 2.304688-2.578125 2.34375-2.617188 2.304687-2.695312 2.34375-2.773438 2.304687-2.8125 2.34375-2.890625 2.304688-2.929687 2.34375-3.007813 2.304688-3.046875 2.304687-3.085937 2.34375-3.164063 2.34375-3.203125 2.304687-3.242187 2.304688-3.320313 2.34375-3.359375 2.304688-3.398437 2.34375-3.4375 2.304687-3.476563 2.34375-3.515625 2.304687-3.59375 2.34375-3.59375 2.304688-3.671875 2.34375-3.671875 2.304688-3.710937 2.34375-3.75 2.304687-3.789063 2.34375-3.828125 2.304687-3.828125 2.304688-3.90625 2.34375-3.90625 2.304688-3.90625 2.34375-3.945312 2.34375-3.984375 2.304687-3.984375 2.304687-4.023438 2.34375-4.023437 2.304688-4.0625 2.34375-4.023438 2.304688-4.101562 2.34375-4.0625 2.304687-4.101563 2.34375-4.101562 2.304687-4.101563 2.34375-4.101562 2.304688-4.101563 2.34375-4.140625 2.304688-4.101562 2.34375-4.101563 4.609374-8.203125 2.34375-4.0625 2.34375-4.101562 4.609376-8.125 2.34375-4.023438 2.304687-4.023437 2.34375-3.984375 2.304687-3.984375 2.34375-3.945313 2.304688-3.945312 2.34375-3.867188 2.304688-3.90625 2.34375-3.828125 2.304687-3.789062 2.34375-3.789063 2.304687-3.75 2.34375-3.671875 2.304688-3.671875 2.34375-3.59375 2.304688-3.59375 2.304687-3.515625 2.34375-3.476562 2.304687-3.398438 2.34375-3.398437 2.304688-3.28125 2.34375-3.28125 2.304688-3.203125 2.34375-3.125 2.304687-3.085938 2.34375-3.007812 2.304687-2.929688 2.34375-2.890625 2.304688-2.8125 2.34375-2.734375 2.304688-2.65625 2.34375-2.578125 2.304687-2.5 2.34375-2.421875 2.304687-2.304687 2.304688-2.265625 2.34375-2.148438 2.34375-2.070312 2.304688-1.992188 2.304687-1.914062 2.34375-1.796875 2.304687-1.679688 2.34375-1.601562 2.304688-1.484375 2.34375-1.40625 2.304688-1.289063 2.34375-1.171875 2.304687-1.054687 2.34375-.976563 2.304687-.820312 2.34375-.742188 2.304688-.625 2.34375-.46875 2.304688-.390625 2.34375-.234375 2.304687-.117187h2.34375l2.304687.117187 2.34375.273438 2.304688.390625 2.304688.546875 2.34375.664062 2.304687.820313 2.34375.9375 2.304687 1.09375 2.34375 1.210937 2.304688 1.40625 2.34375 1.523438 2.304688 1.679687 2.34375 1.796875 2.304687 1.992188 2.34375 2.148437 2.304687 2.304688 2.34375 2.421875 2.304688 2.617187 2.304688 2.773438 2.34375 2.929687 2.34375 3.085938 2.304687 3.28125 2.304687 3.4375 2.34375 3.59375 2.304688 3.75 2.34375 3.945312 2.304688 4.140625 2.34375 4.296875 2.304687 4.453125 2.34375 4.648438 2.304687 4.804687 2.34375 5 2.304688 5.195313 2.34375 5.390625 2.304688 5.546875 2.34375 5.742187 2.304687 5.898438 2.34375 6.132812 2.304687 6.289063 2.34375 6.484375 2.304688 6.679687 2.34375 6.875 2.304688 7.070313 2.304687 7.265625 2.34375 7.460937 2.304687 7.65625 2.34375 7.851563 2.304688 8.007812 2.34375 8.242188 2.304688 8.4375 2.34375 8.671875 2.304687 8.828125 2.34375 9.023437 2.304687 9.257813 2.34375 9.453125 2.304688 9.609375 2.34375 9.84375 2.304688 10.078125 2.304687 10.234375 2.34375 10.429687 2.34375 10.664063 2.304687 10.859375 2.34375 11.054687 2.304688 11.289063 2.304688 11.445312 2.34375 11.679688 2.304687 11.875 2.34375 12.070312 2.304687 12.304688 2.34375 12.460937 2.304688 12.695313 2.34375 12.890625 2.304688 13.085937 2.34375 13.28125 2.304687 13.476563 2.34375 13.710937 2.304687 13.867188 2.304688 14.101562 2.34375 14.257813 2.34375 14.492187 2.304688 14.6875 2.34375 14.84375 2.304687 15.078125 2.304687 15.234375 2.34375 15.46875 2.304688 15.625 2.34375 15.820313 2.304688 15.976562 2.34375 16.210938 2.304687 16.367187 2.34375 16.5625 2.304687 16.71875 2.34375 16.914063 2.304688 17.070312 2.34375 17.265625 2.304688 17.460938 2.34375 17.578125 2.304687 17.773437 2.34375 17.929688 2.304687 18.125 2.34375 18.242187 2.304688 18.4375 2.34375 18.554688 2.304688 18.710937 2.304687 18.867188 2.34375 19.023437 2.304687 19.179688 2.34375 19.296875 2.304688 19.414062 2.34375 19.570313 2.304688 19.6875 2.34375 19.84375 2.304687 19.960937 2.34375 20.078125 2.304687 20.15625 2.34375 20.3125 2.304688 20.390625 2.304688 20.507813 2.34375 20.585937 2.34375 20.703125 2.304687 20.78125 2.34375 20.859375 2.304687 20.976563 2.304688 21.015625 2.34375 21.09375 2.304688 21.171875 2.34375 21.25 2.304687 21.25 2.34375 21.328125 2.304687 21.40625 2.34375 21.40625 2.304688 21.445312 2.34375 21.484375 2.304688 21.484375 2.34375 21.484375 2.304687 21.523438 2.34375 21.523437 2.304687 21.523438 2.34375 21.523437 2.304688 21.484375 2.34375 21.445313 2.304688 21.445312 2.34375 21.40625 2.304687 21.328125 2.304687 21.289063 2.34375 21.25 2.304688 21.171875 2.34375 21.09375 2.304688 20.976562 2.34375 20.9375 2.304687 20.78125 2.34375 20.703125 2.304687 20.585938 2.34375 20.46875 2.304688 20.3125 2.34375 20.15625 2.304688 20.039062 2.304687 19.84375 2.34375 19.6875 2.34375 19.53125 2.304687 19.296875 2.34375 19.101563 2.304688 18.867187 2.34375 18.671875 2.304688 18.4375 2.304687 18.203125 2.34375 17.929688 2.304687 17.695312 2.34375 17.382813 2.304688 17.109375 2.34375 16.796875 2.304688 16.484375 2.34375 16.171875 2.304687 15.820312 2.34375 15.507813 2.304687 15.117187 2.304688 14.726563 2.34375 14.375 2.34375 13.984375 2.304688 13.515625 2.34375 13.125 2.304687 12.695312 2.34375 12.226563 2.304687 11.796875 2.304688 11.25 2.34375 10.820312 2.304688 10.234375 2.34375 9.765625 2.304687 9.21875 2.34375 8.671875 2.304687 8.085938 2.34375 7.5 2.304688 6.875 2.34375 6.289062 2.304688 5.664063 2.34375 5 2.304687 4.335937 2.34375 3.632813 2.304687 2.929687 2.34375 2.226563 2.304688 1.484375 2.34375.742187 2.304688-.039062 2.34375-.820313 2.304687-1.640625 2.304687-2.460937 2.34375-3.320313 2.304688-4.179687 2.34375-5.078125 2.304688-5.9375 2.34375-6.914063 2.304687-7.851562 2.34375-8.789063 2.304687-9.765625 2.34375-10.820312 2.304688-11.796875 2.34375-12.890625 2.304688-13.945313 2.34375-15.039062 2.304687-16.132813 2.34375-17.265625 2.304687-18.476562 2.34375-19.609375 2.304688-20.859375 2.304688-22.070313 2.34375-23.320312 2.304687-24.570313 2.34375-25.898437 2.304687-27.226563 2.34375-28.59375 2.304688-29.921875 2.34375-31.367187 2.304688-32.773438 2.34375-34.257812 2.304687-35.703125 2.34375-37.226563 2.304687-38.75 2.34375-40.3125 2.304688-41.914062 2.34375-43.515625 2.304688-45.15625 2.34375-46.835938 2.304687-48.515625 2.304687-50.273437 2.34375-52.03125 2.304688-53.789063 2.34375-55.625 2.304688-57.5 2.34375-59.335937 2.304687-61.289063 2.34375-63.203125 2.304687-65.15625 2.34375-67.226562 2.304688-69.21875 2.34375-71.289063 2.304688-73.359375 2.34375-75.546875 2.304687-77.695312 2.34375-79.882813 2.304687-82.148437 2.34375-84.414063 2.304688-86.71875 2.34375-89.023437 2.304688-91.445313 2.304687-93.867187 2.34375-96.25 2.304687-98.789063 2.34375-101.289062 2.304688-103.867188 2.34375-106.484375 2.304688-109.0625 2.34375-111.796875 2.304687-114.453125 2.34375-117.226562 2.304687-120.039063 2.34375-122.851562 2.304688-125.742188 2.34375-128.632812 2.304688-131.601563 2.34375-134.570312 2.304687-137.617188 2.34375-140.703125 2.304687-143.828125 2.304688-146.992187 2.34375-150.195313 2.304688-153.476562 2.34375-156.71875 2.304687-160.117188 2.34375-163.476562 2.304687-166.875 2.34375-170.390625 2.304688-173.90625 2.34375-177.5 2.304688-181.09375 2.34375-184.765625 2.304687-188.476563 2.34375-192.226562 2.304687-196.054688 2.34375-199.921875 2.304688-203.789062 2.34375-207.773438 2.304688-211.796875 2.34375-215.859375 2.304687-219.960937 2.304687-224.140625 2.34375-228.359375 2.304688-232.617188 2.34375-236.914062 2.304688-241.328125 2.34375-245.742188 2.304687-250.234375 2.34375-254.765625 2.304687-259.375 2.34375-264.0625 2.304688-268.710937 2.34375-273.515625 2.304688-278.320313 2.34375-283.242187 2.304687-288.164063 2.34375-293.125 2.304687-298.242187 2.34375-303.320313 2.304688-308.515625 2.304688-313.828125 2.34375-318.984375 2.304687-324.492187 2.34375-329.804688 2.304687-335.390625 2.34375-340.898437 2.34375-346.523438 2.304688-352.1875 2.304688-357.890625 2.34375-363.828125 2.304687-369.6875 2.34375-375.585937 2.304687-381.601563" style="fill:none;stroke-width:20;stroke-linecap:round;stroke-linejoin:round;stroke:#191970;stroke-opacity:.5;stroke-miterlimit:10" transform="matrix(.1 0 0 -.1 0 158.36)"/></g></g><g clip-path="url(#A)"><g clip-path="url(#B)"><use fill="#8b0000" x="107.04" xlink:href="#aW" y="94.9998"/></g></g><g clip-path="url(#C)"><g clip-path="url(#D)"><use fill="#8b0000" x="111.720019" xlink:href="#aX" y="94.9998"/></g></g><g clip-path="url(#E)"><g clip-path="url(#F)"><use fill="#8b0000" x="115.200019" xlink:href="#aY" y="94.9998"/></g></g><g clip-path="url(#G)"><g clip-path="url(#H)"><use fill="#8b0000" x="120.240033" xlink:href="#aZ" y="94.9998"/></g></g><g clip-path="url(#I)"><g clip-path="url(#J)"><use fill="#8b0000" x="129.959981" xlink:href="#a0" y="94.9998"/></g></g><g clip-path="url(#K)"><g clip-path="url(#L)"><use fill="#8b0000" x="140.520011" xlink:href="#aX" y="94.9998"/></g></g><g clip-path="url(#M)"><g clip-path="url(#N)"><use fill="#8b0000" x="144.000024" xlink:href="#a1" y="94.9998"/></g></g><g clip-path="url(#O)"><g clip-path="url(#P)"><use fill="#8b0000" x="150.960038" xlink:href="#aX" y="94.9998"/></g></g><g clip-path="url(#Q)"><g clip-path="url(#R)"><use fill="#8b0000" x="154.440039" xlink:href="#a0" y="94.9998"/></g></g><g clip-path="url(#S)"><g clip-path="url(#T)"><use fill="#8b0000" x="165.000069" xlink:href="#aX" y="94.9998"/></g></g><g clip-path="url(#U)"><g clip-path="url(#V)"><use fill="#8b0000" x="168.480082" xlink:href="#a2" y="94.9998"/></g></g><g clip-path="url(#W)"><g clip-path="url(#X)"><use fill="#8b0000" x="174.480095" xlink:href="#a3" y="94.9998"/></g></g><g clip-path="url(#Y)"><g clip-path="url(#Z)"><use fill="#8b0000" x="180.240107" xlink:href="#aW" y="94.9998"/></g></g><g clip-path="url(#aa)"><g clip-path="url(#ab)"><use fill="#191970" x="88.0801" xlink:href="#a3" y="18.08"/></g></g><g clip-path="url(#ac)"><g clip-path="url(#ad)"><use fill="#191970" x="93.840113" xlink:href="#a0" y="18.08"/></g></g><g clip-path="url(#ae)"><g clip-path="url(#af)"><use fill="#191970" x="104.400143" xlink:href="#a4" y="18.08"/></g></g><g clip-path="url(#ag)"><g clip-path="url(#ah)"><use fill="#191970" x="111.60016" xlink:href="#aX" y="18.08"/></g></g><g clip-path="url(#ai)"><g clip-path="url(#aj)"><use fill="#191970" x="115.080173" xlink:href="#aW" y="18.08"/></g></g><g clip-path="url(#ak)"><g clip-path="url(#al)"><use fill="#191970" x="119.760179" xlink:href="#aX" y="18.08"/></g></g><g clip-path="url(#am)"><g clip-path="url(#an)"><use fill="#191970" x="123.240192" xlink:href="#a5" y="18.08"/></g></g><g clip-path="url(#ao)"><g clip-path="url(#ap)"><use fill="#191970" x="128.5202" xlink:href="#a6" y="18.08"/></g></g><g clip-path="url(#aq)"><g clip-path="url(#ar)"><use fill="#191970" x="134.520213" xlink:href="#a7" y="18.08"/></g></g><g clip-path="url(#as)"><g clip-path="url(#at)"><use fill="#191970" x="141.00023" xlink:href="#aW" y="18.08"/></g></g><g clip-path="url(#au)"><g clip-path="url(#av)"><use fill="#191970" x="145.680249" xlink:href="#aX" y="18.08"/></g></g><g clip-path="url(#aw)"><g clip-path="url(#ax)"><use fill="#191970" x="149.160249" xlink:href="#aY" y="18.08"/></g></g><g clip-path="url(#ay)"><g clip-path="url(#az)"><use fill="#191970" x="154.200262" xlink:href="#aZ" y="18.08"/></g></g><g clip-path="url(#aA)"><g clip-path="url(#aB)"><use fill="#191970" x="101.0399" xlink:href="#a0" y="28.04016"/></g></g><g clip-path="url(#aC)"><g clip-path="url(#aD)"><use fill="#191970" x="111.59993" xlink:href="#aX" y="28.04016"/></g></g><g clip-path="url(#aE)"><g clip-path="url(#aF)"><use fill="#191970" x="115.079943" xlink:href="#a1" y="28.04016"/></g></g><g clip-path="url(#aG)"><g clip-path="url(#aH)"><use fill="#191970" x="122.039957" xlink:href="#aX" y="28.04016"/></g></g><g clip-path="url(#aI)"><g clip-path="url(#aJ)"><use fill="#191970" x="125.519958" xlink:href="#a0" y="28.04016"/></g></g><g clip-path="url(#aK)"><g clip-path="url(#aL)"><use fill="#191970" x="136.079989" xlink:href="#aX" y="28.04016"/></g></g><g clip-path="url(#aM)"><g clip-path="url(#aN)"><use fill="#191970" x="139.560002" xlink:href="#a2" y="28.04016"/></g></g><g clip-path="url(#aO)"><g clip-path="url(#aP)"><use fill="#191970" x="145.560014" xlink:href="#a3" y="28.04016"/></g></g><g clip-path="url(#aQ)"><g clip-path="url(#aR)"><use fill="#191970" x="151.320026" xlink:href="#aW" y="28.04016"/></g></g><g clip-path="url(#aS)"><g clip-path="url(#aT)"><use x="247.44" xlink:href="#a8" y="145.8799"/></g></g><g clip-path="url(#aU)"><g clip-path="url(#aV)"><use x="15.24" xlink:href="#a9" y="22.3999"/></g></g></svg>