<svg height="141.73pt" viewBox="0 0 140.51 141.73" width="140.51pt" xmlns="http://www.w3.org/2000/svg" xmlns:xlink="http://www.w3.org/1999/xlink"><symbol id="a" overflow="visible"><path d="m3.140625-8.234375c-1.84375 0-2.796875 1.46875-2.796875 4.359375 0 1.40625.25 2.609375.671875 3.1875.421875.59375 1.09375.921875 1.828125.921875 1.8125 0 2.71875-1.546875 2.71875-4.609375 0-2.625-.78125-3.859375-2.421875-3.859375zm-.21875.421875c1.171875 0 1.625 1.171875 1.625 4.03125 0 2.546875-.453125 3.609375-1.546875 3.609375-1.15625 0-1.65625-1.21875-1.65625-4.125 0-2.53125.453125-3.515625 1.578125-3.515625zm0 0"/></symbol><symbol id="b" overflow="visible"><path d="m.796875-6.640625h.125l1.546875-.6875c0-.015625.015625-.015625.03125-.015625.0625 0 .09375.109375.09375.40625v5.796875c0 .609375-.125.75-.78125.78125l-.671875.03125v.359375c1.84375-.03125 1.84375-.03125 1.984375-.03125.15625 0 .40625 0 .8125.015625.15625.015625.5625.015625 1.0625.015625v-.359375l-.625-.03125c-.65625-.03125-.78125-.171875-.78125-.78125v-7.09375l-.15625-.0625c-.78125.40625-1.625.765625-2.71875 1.15625zm0 0"/></symbol><symbol id="c" overflow="visible"><path d="m4.875-8.359375h-.375c-.21875.5-.40625.953125-.46875 1.125l-.640625 1.453125-2.125 4.84375c-.140625.34375-.375.5625-.640625.578125l-.453125.03125v.359375c1.125-.03125 1.125-.03125 1.3125-.03125.15625 0 .15625 0 1.4375.03125v-.359375l-.4375-.03125c-.421875-.03125-.578125-.125-.578125-.3125 0-.15625.171875-.671875.421875-1.265625l.34375-.796875h3.4375l.546875 1.375c.203125.5.25.65625.25.765625 0 .125-.1875.21875-.484375.234375l-.5625.03125v.359375c1.46875-.03125 1.46875-.03125 1.65625-.03125.234375 0 .234375 0 1.515625.03125v-.359375l-.40625-.03125c-.3125-.046875-.4375-.25-.859375-1.21875zm-2 5.140625 1.515625-3.5625 1.5 3.5625zm0 0"/></symbol><symbol id="d" overflow="visible"><path d="m7.9375-6.796875c0-.9375.0625-1.046875.609375-1.078125l.53125-.03125v-.359375c-1.265625.03125-1.265625.03125-1.4375.03125-.203125 0-.203125 0-1.390625-.03125v.359375l.53125.03125c.546875.03125.609375.140625.609375 1.078125v3.828125c0 1.671875-.8125 2.46875-2.546875 2.46875-1.671875 0-2.375-.65625-2.375-2.1875v-4.109375c0-.953125.046875-1.046875.609375-1.078125l.5625-.03125v-.359375c-.875.03125-1.125.03125-1.75.03125-.59375 0-.890625-.015625-1.75-.03125v.359375l.578125.03125c.546875.03125.609375.125.609375 1.078125v4.234375c0 .9375.21875 1.59375.671875 2.0625.46875.484375 1.328125.734375 2.515625.734375 1.234375 0 2.0625-.25 2.59375-.796875.5625-.5625.828125-1.453125.828125-2.78125zm0 0"/></symbol><symbol id="e" overflow="visible"><path d="m2.578125-7.671875c.40625-.09375.765625-.140625 1.171875-.140625 1.25 0 1.9375.5625 1.9375 1.578125 0 1.109375-.875 1.796875-2.25 1.796875-.09375 0-.203125 0-.359375-.015625l-.0625.15625c.125.15625.15625.203125.3125.359375.15625.1875.203125.234375.3125.375l2.1875 2.953125c.078125.09375.140625.1875.21875.28125s.15625.203125.28125.359375c.5625-.03125.671875-.03125.8125-.03125.109375 0 .109375 0 .859375.03125v-.359375c-.390625-.03125-.578125-.109375-.734375-.3125l-2.71875-3.53125c.671875-.171875.984375-.296875 1.375-.578125.625-.4375.96875-1.03125.96875-1.734375 0-1.140625-.84375-1.78125-2.328125-1.78125h-.1875c-1.546875.03125-1.546875.03125-1.953125.03125s-.40625 0-2.078125-.03125v.359375l.5.03125c.546875.03125.609375.140625.609375 1.078125v5.359375c0 .953125-.0625 1.046875-.609375 1.078125l-.578125.03125v.359375c.703125-.015625 1.125-.03125 1.75-.03125.609375 0 1.046875.015625 1.75.03125v-.359375l-.578125-.03125c-.546875-.03125-.609375-.125-.609375-1.078125zm0 0"/></symbol><symbol id="f" overflow="visible"><path d="m4.8125-8.46875c-2.734375 0-4.546875 1.765625-4.546875 4.390625 0 2.515625 1.75 4.3125 4.15625 4.3125 2.671875 0 4.703125-1.984375 4.703125-4.625 0-2.5-1.671875-4.078125-4.3125-4.078125zm-.203125.5c2.03125 0 3.25 1.453125 3.25 3.9375 0 2.375-1.109375 3.765625-2.953125 3.765625-2.015625 0-3.359375-1.6875-3.359375-4.25 0-2.21875 1.09375-3.453125 3.0625-3.453125zm0 0"/></symbol><symbol id="g" overflow="visible"><path d="m8.015625-1-.109375-.125c-.75.484375-1.578125.71875-2.484375.71875-2.328125 0-3.875-1.546875-3.875-3.90625 0-2.203125 1.359375-3.65625 3.40625-3.65625 1.171875 0 2.390625.46875 2.390625.9375v.859375h.359375c.015625-.59375.0625-1.03125.234375-1.8125-1.015625-.328125-1.890625-.484375-2.765625-.484375-1.03125 0-2.03125.25-2.828125.71875-1.359375.796875-2.078125 2.046875-2.078125 3.65625 0 2.59375 1.890625 4.328125 4.6875 4.328125 1 0 1.890625-.203125 2.71875-.640625zm0 0"/></symbol><symbol id="h" overflow="visible"><path d="m4.078125-8.578125c-.25-.09375-.390625-.125-.546875-.125-.390625 0-.8125.203125-1.0625.5l-.703125.796875c-.34375.390625-.5.921875-.5 1.71875v.5l-.828125.375v.265625l.828125-.0625v3.390625c0 .75-.03125.84375-.4375.859375l-.546875.03125v.359375c1.1875-.03125 1.1875-.03125 1.484375-.03125s.296875 0 1.5.03125v-.359375l-.546875-.03125c-.40625-.015625-.453125-.109375-.453125-.859375v-3.390625h1.484375l.09375-.625-1.578125.046875v-1.015625c0-1.375.15625-1.703125.84375-1.703125.328125 0 .53125.078125.828125.328125l.140625-.078125zm0 0"/></symbol><symbol id="i" overflow="visible"><path d="m3.875-.984375-.0625 1.015625c.78125-.03125.78125-.03125.9375-.03125.0625 0 .359375.015625.875.03125v-.359375l-.46875-.015625c-.28125-.015625-.328125-.109375-.328125-.703125v-2.1875c0-1.734375-.5-2.375-1.890625-2.375-.515625 0-.984375.140625-1.4375.40625l-.640625.390625v.765625l.3125.09375.15625-.375c.25-.5625.375-.640625.921875-.640625 1.125 0 1.59375.4375 1.625 1.53125l-1.1875.203125c-1.625.3125-2.3125.875-2.3125 1.90625 0 .9375.5625 1.46875 1.515625 1.46875.21875 0 .421875-.03125.5-.09375zm0-.5c-.34375.5-1.109375.953125-1.5625.953125-.484375 0-.90625-.453125-.90625-.96875 0-.4375.25-.859375.609375-1.078125.296875-.1875.953125-.34375 1.859375-.484375zm0 0"/></symbol><symbol id="j" overflow="visible"><path d="m.28125-7.90625h.65625c.21875 0 .3125.140625.3125.5v6.1875c0 .75-.046875.84375-.453125.859375l-.546875.03125v.359375c1.203125-.03125 1.203125-.03125 1.5-.03125s.296875 0 1.484375.03125v-.359375l-.546875-.03125c-.40625-.015625-.4375-.109375-.4375-.859375v-7.359375l-.109375-.09375c-.53125.203125-.921875.296875-1.859375.4375zm0 0"/></symbol><symbol id="k" overflow="visible"><path d="m.484375-1.703125c0 .8125-.03125 1.171875-.125 1.65625.625.203125 1.09375.28125 1.640625.28125 1.5625 0 2.671875-.828125 2.671875-2 0-.375-.109375-.65625-.328125-.890625-.3125-.296875-.703125-.4375-1.765625-.640625-.96875-.1875-1.296875-.4375-1.296875-.984375 0-.59375.421875-.9375 1.140625-.9375.8125 0 1.421875.421875 1.421875.984375v.28125h.328125c.015625-.703125.03125-.984375.0625-1.359375-.640625-.203125-1.0625-.296875-1.5625-.296875-1.375 0-2.234375.65625-2.234375 1.734375 0 .578125.265625.984375.8125 1.234375.328125.140625.96875.328125 1.78125.515625.53125.109375.765625.375.765625.828125 0 .640625-.609375 1.09375-1.453125 1.09375-.875 0-1.5-.421875-1.5-1.015625v-.484375zm0 0"/></symbol><symbol id="l" overflow="visible"><path d="m5.21875-.84375-.15625-.109375c-.765625.453125-1.03125.5625-1.546875.5625-.78125 0-1.421875-.34375-1.765625-.9375-.21875-.390625-.296875-.734375-.328125-1.421875h1.75c.828125 0 1.328125-.03125 2.15625-.171875.015625-.15625.03125-.265625.03125-.40625 0-1.375-.890625-2.28125-2.234375-2.28125-.4375 0-.953125.15625-1.4375.453125-.984375.546875-1.375 1.296875-1.375 2.53125 0 .765625.171875 1.40625.5 1.859375.484375.640625 1.28125 1 2.171875 1 .453125 0 .890625-.09375 1.375-.3125.328125-.125.578125-.28125.625-.359375zm-.921875-2.34375c-.625.015625-.921875.03125-1.34375.03125-.546875 0-.859375-.015625-1.5-.078125 0-.5625.046875-.8125.203125-1.125.25-.53125.765625-.859375 1.328125-.859375.390625 0 .703125.15625.921875.484375.265625.390625.34375.734375.390625 1.546875zm0 0"/></symbol><symbol id="m" overflow="visible"><path d="m.28125-4.78125h.4375c.46875 0 .53125.078125.53125.875v2.6875c0 .75-.046875.84375-.453125.859375l-.546875.03125v.359375c.859375-.015625 1.171875-.03125 1.46875-.03125.234375 0 .234375 0 1.71875.03125v-.359375l-.625-.03125c-.546875-.03125-.5625-.078125-.5625-.859375v-2.0625c0-.71875.46875-1.3125 1.0625-1.3125.359375 0 .609375.171875.796875.546875h.25l.109375-1.421875c-.125-.09375-.34375-.140625-.5625-.140625-.359375 0-.734375.1875-.984375.5l-.671875.78125v-1.234375l-.109375-.046875c-.609375.25-1.234375.421875-1.859375.5zm0 0"/></symbol><symbol id="n" overflow="visible"><path d="m.21875-4.78125h.4375c.484375 0 .53125.078125.53125.875v2.6875c0 .75-.046875.84375-.453125.859375l-.546875.03125v.359375c1.15625-.03125 1.1875-.03125 1.515625-.03125.34375 0 .65625.015625 1.421875.03125v-.359375l-.5-.03125c-.40625-.015625-.4375-.109375-.4375-.859375v-2.53125c0-.546875.78125-1.125 1.5-1.125.65625 0 1.09375.609375 1.09375 1.515625v2.140625c0 .75-.03125.84375-.4375.859375l-.546875.03125v.359375c1.1875-.03125 1.1875-.03125 1.484375-.03125s.296875 0 1.5.03125v-.359375l-.546875-.03125c-.40625-.015625-.453125-.109375-.453125-.859375v-2.53125c0-.546875.796875-1.125 1.515625-1.125.640625 0 1.078125.609375 1.078125 1.515625v3.390625c.734375-.03125.75-.03125.953125-.03125.15625 0 .15625 0 1.0625.03125v-.359375l-.5625-.03125c-.40625-.015625-.4375-.109375-.4375-.859375v-2.46875c0-1.171875-.703125-1.921875-1.796875-1.921875-.421875 0-.765625.109375-.984375.296875l-.90625.8125c-.390625-.78125-.875-1.109375-1.703125-1.109375-.4375 0-.765625.109375-.984375.296875l-.828125.765625v-1.015625l-.109375-.046875c-.609375.25-1.234375.421875-1.859375.5zm0 0"/></symbol><symbol id="o" overflow="visible"><path d="m1.171875-4.5625v3.4375c0 .890625.390625 1.265625 1.3125 1.265625.28125 0 .5625-.0625.640625-.140625l.5625-.640625-.15625-.203125c-.296875.171875-.46875.234375-.703125.234375-.46875 0-.65625-.234375-.65625-.828125v-3.125h1.53125l.109375-.65625-1.640625.078125v-.453125c0-.5.046875-.9375.140625-1.703125l-.15625-.125c-.28125.171875-.640625.328125-1.015625.453125.046875.359375.046875.578125.046875.9375v.84375l-.921875.421875v.25zm0 0"/></symbol><symbol id="p" overflow="visible"><path d="m-5.21875-4.921875c-.296875.671875-.390625 1-.390625 1.421875 0 .328125.078125.609375.234375.90625l.546875 1.046875c.359375.6875 1.234375 1.125 2.25 1.125.953125 0 1.734375-.3125 2.21875-.90625.34375-.40625.5-.96875.5-1.75 0-.234375-.046875-.5-.09375-.5625l-1.109375-1.328125 1.09375.0625c-.015625-.59375-.03125-.78125-.03125-.921875 0-.09375 0-.265625.015625-.515625.015625-.09375.015625-.328125.015625-.578125h-.359375l-.03125.546875c-.015625.40625-.109375.453125-.859375.453125h-7.359375l-.09375.09375c.203125.53125.296875.921875.4375 1.875h.328125v-.671875c0-.21875.140625-.296875.5-.296875zm2.578125 0c.78125 0 .890625.015625 1.171875.171875.5625.34375.9375.921875.9375 1.484375 0 1.046875-1.015625 1.8125-2.4375 1.8125-1.3125 0-2.078125-.65625-2.078125-1.71875 0-.46875.15625-.9375.4375-1.359375.171875-.25.328125-.390625.421875-.390625zm0 0"/></symbol><symbol id="q" overflow="visible"><path d="m-.84375-5.21875-.109375.15625c.453125.765625.5625 1.03125.5625 1.546875 0 .78125-.34375 1.421875-.9375 1.765625-.390625.21875-.734375.296875-1.421875.328125v-1.75c0-.828125-.03125-1.328125-.171875-2.15625-.15625-.015625-.265625-.03125-.40625-.03125-1.375 0-2.28125.890625-2.28125 2.234375 0 .4375.15625.953125.453125 1.4375.546875.984375 1.296875 1.375 2.53125 1.375.765625 0 1.40625-.171875 1.859375-.5.640625-.484375 1-1.28125 1-2.171875 0-.453125-.09375-.890625-.3125-1.375-.125-.328125-.28125-.578125-.359375-.625zm-2.34375.921875c.015625.625.03125.921875.03125 1.34375 0 .546875-.015625.859375-.078125 1.5-.5625 0-.8125-.046875-1.125-.203125-.53125-.25-.859375-.765625-.859375-1.328125 0-.390625.15625-.703125.484375-.921875.390625-.265625.734375-.34375 1.546875-.390625zm0 0"/></symbol><symbol id="r" overflow="visible"><path d="m-4.5625-1.171875h3.4375c.890625 0 1.265625-.390625 1.265625-1.3125 0-.28125-.0625-.5625-.140625-.640625l-.640625-.5625-.203125.15625c.171875.296875.234375.46875.234375.703125 0 .46875-.234375.65625-.828125.65625h-3.125v-1.53125l-.65625-.109375.078125 1.640625h-.453125c-.5 0-.9375-.046875-1.703125-.140625l-.125.15625c.171875.28125.328125.640625.453125 1.015625.359375-.046875.578125-.046875.9375-.046875h.84375l.421875.921875h.25zm0 0"/></symbol><symbol id="s" overflow="visible"><path d="m-3.71875-4.765625c-.546875 0-1.03125-.0625-1.46875-.171875-.28125.484375-.421875.890625-.421875 1.390625 0 .578125.234375 1.234375.6875 1.953125.515625.84375 1.359375 1.28125 2.40625 1.28125 1.625 0 2.75-1.140625 2.75-2.734375 0-.625-.21875-1.515625-.40625-1.640625l-.375-.25-.1875.125c.25.4375.359375.8125.359375 1.25 0 1.328125-1.03125 2.203125-2.609375 2.203125-1.28125 0-2-.59375-2-1.671875 0-.53125.234375-1.109375.53125-1.3125l.734375-.09375zm0 0"/></symbol><symbol id="t" overflow="visible"><path d="m-5.5625-2.25-.046875.109375c.25.609375.421875 1.234375.5 1.859375h.328125v-.4375c0-.46875.078125-.53125.875-.53125h2.6875c.75 0 .84375.046875.859375.453125l.03125.546875h.359375c-.03125-1.203125-.03125-1.203125-.03125-1.5s0-.296875.03125-1.484375h-.359375l-.03125.546875c-.015625.40625-.109375.4375-.859375.4375zm-2.65625.546875c0 .359375.3125.671875.671875.671875.34375 0 .65625-.3125.65625-.65625s-.3125-.671875-.65625-.671875c-.328125 0-.671875.328125-.671875.65625zm0 0"/></symbol><symbol id="u" overflow="visible"><path d="m-5.609375-3.328125c0 1.734375 1.234375 2.953125 3.015625 2.953125 1.6875 0 2.828125-1.078125 2.828125-2.609375 0-1.84375-1.28125-3.15625-3.0625-3.15625-1.625 0-2.78125 1.171875-2.78125 2.8125zm.390625.203125c0-1.09375 1.203125-1.90625 2.828125-1.90625 1.375 0 2.234375.609375 2.234375 1.578125 0 1.171875-1.140625 1.953125-2.84375 1.953125-1.4375 0-2.21875-.5625-2.21875-1.625zm0 0"/></symbol><symbol id="v" overflow="visible"><path d="m.03125-4.90625c-.03125-.71875-.03125-.734375-.03125-.9375 0-.171875 0-.171875.03125-1h-.359375l-.03125.5c-.015625.40625-.09375.4375-.859375.4375h-2.3125c-1.390625 0-2.078125.65625-2.078125 2 0 .4375.09375.6875.296875.9375l.796875.90625h-1.046875l-.046875.109375c.25.609375.421875 1.234375.5 1.875h.328125v-.453125c0-.46875.078125-.515625.875-.515625h2.6875c.75 0 .84375.03125.859375.4375l.03125.53125h.359375c-.015625-.8125-.03125-1.125-.03125-1.46875 0-.359375.015625-.671875.03125-1.484375h-.359375l-.03125.53125c-.015625.40625-.109375.4375-.859375.4375h-2.53125c-.546875 0-1.125-.78125-1.125-1.515625 0-.796875.59375-1.328125 1.515625-1.328125zm0 0"/></symbol><symbol id="w" overflow="visible"><path d="m-4.78125-.28125v-.4375c0-.46875.078125-.53125.875-.53125h2.6875c.75 0 .84375.046875.859375.453125l.03125.546875h.359375c-.015625-.859375-.03125-1.171875-.03125-1.46875 0-.234375 0-.234375.03125-1.71875h-.359375l-.03125.625c-.03125.546875-.078125.5625-.859375.5625h-2.0625c-.71875 0-1.3125-.46875-1.3125-1.0625 0-.359375.171875-.609375.546875-.796875v-.25l-1.421875-.109375c-.09375.125-.140625.34375-.140625.5625 0 .359375.1875.734375.5.984375l.78125.671875h-1.234375l-.046875.109375c.25.609375.421875 1.234375.5 1.859375zm0 0"/></symbol><symbol id="x" overflow="visible"><path d="m-.984375-3.875 1.015625.0625c-.03125-.78125-.03125-.78125-.03125-.9375 0-.0625.015625-.359375.03125-.875h-.359375l-.015625.46875c-.015625.28125-.109375.328125-.703125.328125h-2.1875c-1.734375 0-2.375.5-2.375 1.890625 0 .515625.140625.984375.40625 1.4375l.390625.640625h.765625l.09375-.3125-.375-.15625c-.5625-.25-.640625-.375-.640625-.921875 0-1.125.4375-1.59375 1.53125-1.625l.203125 1.1875c.3125 1.625.875 2.3125 1.90625 2.3125.9375 0 1.46875-.5625 1.46875-1.515625 0-.21875-.03125-.421875-.09375-.5zm-.5 0c.5.34375.953125 1.109375.953125 1.5625 0 .484375-.453125.90625-.96875.90625-.4375 0-.859375-.25-1.078125-.609375-.1875-.296875-.34375-.953125-.484375-1.859375zm0 0"/></symbol><path d="m139.804688 139.8h1220.351562v1220.351562h-1220.351562zm0 0" style="fill:none;stroke-width:4.99954;stroke-linecap:round;stroke-linejoin:round;stroke:#000;stroke-miterlimit:10" transform="matrix(.1 0 0 -.1 0 141.73)"/><path d="m13.980469 127.75.121093-17.597656.125-4.5625.121094-3.199219.121094-2.542969.121094-2.144531.125-1.871094.121094-1.671875.121093-1.519531.121094-1.394531.125-1.289063.121094-1.207031.121093-1.136719.121094-1.070312.125-1.015625.121094-.96875.121094-.925782.121094-.882812.121093-.851562.125-.816407.121094-.789062.121094-.761719.121093-.738281.125-.714844.121094-.691406.121094-.671875.125-.65625.121094-.636719.121094-.621094.121093-.605469.121094-.589843.125-.574219.121094-.566406.121093-.550782.121094-.539062.125-.527344.121094-.515625.121094-.507812.121094-.5.125-.488281.121093-.476563.121094-.472656.121094-.460938.125-.453125.121093-.449218.121094-.4375.121094-.433594.125-.425782.121094-.417968.121094-.414063.121093-.40625.125-.398437.121094-.398438.121094-.386718.121093-.382813.125-.378906.121094-.375.121094-.367188.121094-.363281.121094-.359375.125-.355469.121093-.351562.121094-.34375.121094-.339844.125-.339844.242187-.664062.121094-.324219.125-.320313.121094-.320312.121094-.316406.121093-.308594.125-.308594.121094-.304687.242187-.601563.125-.292968.121094-.292969.242188-.578125.121094-.28125.125-.28125.242187-.554688.121094-.273437.125-.269531.121093-.269532.121094-.265625.121094-.261719.125-.261718.121094-.257813.242187-.507812.125-.253907.121094-.246093.121094-.25.121093-.242188.125-.246093.121094-.238282.121094-.242187.242188-.46875.125-.234375.242187-.460938.121094-.226562.125-.226563.363281-.667969.125-.21875.121094-.21875.242187-.429687.125-.210937.242188-.421876.121093-.207031.125-.207031.363282-.609375.125-.199219.242187-.398437.121094-.195313.125-.195312.121094-.191406.121093-.195313.121094-.1875.121094-.191406.125-.1875.242188-.375.125-.183594.242187-.367187.121094-.179688.125-.179688.121093-.179687.121094-.175781.121094-.179688.121094-.171875.125-.175781.121094-.171875.121093-.175781.121094-.167969.125-.171875.363281-.503906.125-.164063.363282-.492187.125-.160156.121093-.164063.121094-.15625.121094-.160156.125-.160157.363281-.46875.121094-.152343.125-.15625.242187-.304688.121094-.148437.125-.152344.363281-.445312.125-.144532.121094-.148437.242188-.289063.125-.140625.121093-.144531.242188-.28125.125-.140625.121093-.140625.121094-.136719.121094-.140625.121094-.136718.125-.136719.242187-.273438.121094-.132812.125-.132813.363281-.398437.125-.128907.121094-.132812.242188-.257812.125-.128907.121093-.125.121094-.128906.121094-.125.125-.125.363281-.375.125-.121094.121094-.125.242187-.242187.125-.121094.121094-.121094.121094-.117187.121093-.121094.121094-.117187.125-.117188.242188-.234375.125-.117187.121094-.113282.121093-.117187.242188-.226563.125-.113281.242187-.226563.121094-.109374.125-.113282.363281-.328125.125-.109375.121094-.109375.121094-.105469.121093-.109374.125-.105469.242188-.210938.121094-.109375.125-.101562.121094-.105469.121093-.101563.121094-.105468.125-.101563.121094-.105469.242187-.203124.125-.101563.121094-.097656.121094-.101563.121094-.097656.121093-.101562.125-.097657.363281-.292969.125-.097656.121094-.097656.121094-.09375.121094-.097656.125-.09375.363281-.28125.125-.09375.242187-.1875.121094-.089844.125-.09375.121094-.089844.121094-.09375.242187-.179687.125-.089844.121094-.089844.121094-.085937.121093-.089844.125-.089844.242188-.171875.121094-.089843.125-.085938.363281-.257812.125-.082032.242187-.171875.121094-.082031.125-.085938.363282-.246093.125-.082031.484374-.328126.125-.078124.121094-.082032.121094-.078125.125-.078125.121094-.082031.242187-.15625.121094-.074219.125-.078125.363281-.234375.125-.074218.121094-.074219.121094-.078125.121094-.074219.125-.074219.363281-.222656.125-.074219.242187-.148437.121094-.070313.125-.074219.121094-.070312.121094-.074219.121093-.070312.125-.070313.363281-.210937.125-.070313.363282-.210937.121094-.066407.125-.070312.121093-.066406.121094-.070313.121094-.066406.125-.066406.242187-.132813.121094-.070312.125-.066406.121094-.0625.242187-.132813.125-.066406.121094-.0625.121094-.066407.121093-.0625.125-.0625.121094-.066406.363282-.1875.125-.0625.363281-.1875.125-.0625.121093-.058594.242188-.125.125-.058593.121094-.0625.242187-.117188.125-.0625.363281-.175781.125-.058594.363282-.175781.121094-.054687.125-.058594.121093-.058594.121094-.054688.121094-.058593.125-.054688.121093-.058593.242188-.109376.125-.054687.242188-.109375.121093-.058594.125-.050781.363281-.164063.125-.054687.121094-.050781.121094-.054688.121094-.050781.125-.054687.121094-.050782.121093-.054687.121094-.050781.125-.050782.121094-.050781.121093-.054687.242188-.101563.125-.050781.121094-.050782.121094-.046874.125-.050782.242187-.101562.121094-.046875.125-.050781.121093-.050782.242188-.09375.121094-.050781.125-.046875.121094-.050781.242187-.09375.125-.046875.363281-.140625.125-.046875.242188-.09375.121094-.042969.125-.046875.121093-.046875.121094-.042969.121094-.046875.125-.042969.121093-.046874.121094-.042969.121094-.046875.121094-.042969.125-.042969.121094-.042968.121093-.046876.121094-.042968.125-.042969.363281-.128906.125-.042969.121094-.039062.242188-.085938.125-.042969.121093-.039062.121094-.042969.121094-.039062.125-.042969.121093-.039063.121094-.042968.121094-.039063.121094-.042969.125-.039062.363281-.117188.125-.042968.242187-.078126.121094-.035156.125-.039062.363282-.117188.125-.039062.121093-.035156.242188-.078126.125-.035156.121093-.039062.121094-.035156.121094-.039063.125-.035156.121094-.035157.121094-.039062.121093-.035156.125-.035156.121094-.039063.363281-.105469.125-.035156.242188-.070312.125-.035157.121094-.035156.121093-.03125.121094-.035156.125-.035157.121094-.035156.121093-.03125.242188-.070312.125-.03125.121094-.035156.121094-.03125.121093-.035157.125-.03125.121094-.03125.121094-.035156.121093-.03125.125-.03125.121094-.035156.242188-.0625.125-.03125.363281-.09375.125-.03125.242187-.0625.121094-.027344.125-.03125.242188-.0625.121094-.027344.121093-.03125.125-.03125.121094-.027343.121094-.03125.121093-.027344.125-.03125.121094-.027344.121094-.03125.121094-.027344.125-.027344.121094-.03125.242187-.054687.125-.027344.121094-.03125.242187-.054687.125-.027344.484375-.109375.125-.027344.121094-.027343.121094-.023438.121093-.027344.125-.027344.121094-.027343.121094-.023438.121094-.027343.125-.027344.121094-.023438.121093-.027344.121094-.023437.125-.027344.121094-.023437.121093-.027344.121094-.023438.125-.027343.363282-.070313.125-.027344.484374-.09375.125-.023437.121094-.027344.121094-.019531.125-.027344.121094-.019531.242187-.046875.125-.023438.363281-.070312.121094-.019531.125-.023438.242188-.046875.121094-.019531.125-.023437.121093-.019532.121094-.023437.121094-.019531.125-.023438.121093-.019531.121094-.023438.121094-.019531.125-.023438.242188-.039062.121093-.023438.125-.019531.363281-.058593.125-.023438.484376-.078125.125-.019531.363281-.058594.125-.019531.121093-.019531.121094-.015626.121094-.019531.125-.019531.242188-.039062.121093-.015626.125-.019531.242188-.039062.121093-.015625.125-.019532.121094-.015624.121094-.019532.121094-.015625.121094-.019531.125-.015625.121093-.019531.242188-.03125.125-.019532.242187-.03125.121094-.019531.125-.015625.242188-.03125.121093-.019531.125-.015625.363281-.046875.125-.015625.363282-.046875.125-.015625.484375-.0625.125-.015625.121093-.015625.121094-.011719.121094-.015625.125-.015625.121094-.015625.121094-.011718.125-.015626.242187-.03125.121094-.011718.121093-.015625.125-.011719.121094-.015625.121094-.011719.121094-.015625.125-.011719.242187-.03125.121094-.011718.125-.011719.121094-.015625.242187-.023438.121094-.015624.125-.011719.242188-.023438.125-.015625.363281-.035156.125-.015625.484375-.046875.125-.011719.363281-.035156.125-.011719.363281-.035156.125-.007812.121094-.015626.121094-.007812.121094-.011719.125-.011719.242187-.023437.121094-.007813.125-.011718.121093-.011719.121094-.007813.242188-.023437.125-.011719.121094-.007812.121093-.011719.121094-.007813.125-.011718.121094-.007813.242187-.023437.125-.007813.121094-.007812.121094-.011719.125-.007812.121094-.011719.242187-.015625.121094-.011719.125-.007813.121093-.011718.242188-.015625.125-.007813.121094-.011718.242187-.015626.125-.007812.121094-.007812.121094-.011719.242187-.015625.125-.007813.121094-.011719.242188-.015624.125-.007813.363281-.023437.125-.007813.242187-.015625.125-.007812.117188-.007813.125-.003906.242187-.015625.125-.007813.363281-.023437.125-.003906.363282-.023438.125-.007812.121094-.003907.242187-.015625.121094-.003906.125-.007812.121093-.007813.121094-.003906.121094-.007813.125-.007812.121094-.003906.121094-.007813.121093-.003906.125-.007813.121094-.003906.242187-.015625.125-.003906.121094-.003907.242188-.015624.125-.003907.121094-.003906.121093-.007813.121094-.003906.125-.003906.121094-.007812.121093-.003907.121094-.007812.125-.003907.121094-.003906.121094-.007812.242187-.007813.125-.003906.121094-.007813.242187-.007812.125-.003906.121094-.007813.242188-.007812.125-.003907.121094-.003906.121093-.007812.121094-.003906.125-.003907.363281-.011719.125-.003906.363282-.011718.125-.007813.121093-.003906h.121094l.242187-.007813.125-.003906.363282-.011719.125-.003906.363281-.011719.125-.003906.242187-.007812h.121094l.125-.003907.363282-.011719h.125l.363281-.011718.125-.003906h.121093l.242188-.007813.125-.003906h.121094l.242187-.007813h.121094l.125-.003906.121094-.003906h.121093l.121094-.003906.125-.003907.121094-.003906h.121094l.121094-.003906h.125l.121093-.003907h.121094l.125-.003906.117187-.003906h.125l.121094-.003906h.121094l.125-.003906h.121094l.121094-.003907h.121093l.125-.003906h.121094l.242187-.007813h.246094l.121094-.003906h.121094l.121094-.003906h.125l.121093-.003906h.242188l.125-.003906h.121093l.121094-.003907h.246094l.121094-.003906h.242187l.121094-.003906h.246094l.121093-.003907h.246094l.121094-.003906h.246094l.121094-.003906h.242187l.125-.003906h.242187l.121094-.003906h.488282l.121093-.003907h.367188l.121093-.003906h.488282l.125-.003906h.609375l.121093-.003907h.855469l.121094-.003906h.976563l.121093-.003906h1.585938l.125-.003906h4.878906v122.035156z" fill="#191970" fill-opacity=".5"/><path d="m139.804688 139.8 1.210937 175.976562 1.25 45.625 1.210937 31.992188 1.210938 25.429687 1.210938 21.445313 1.25 18.710937 1.210937 16.71875 1.210937 15.195313 1.210938 13.945312 1.25 12.890625 1.210938 12.070313 1.210937 11.367187 1.210937 10.703125 1.25 10.15625 1.210938 9.6875 1.210938 9.257813 1.210937 8.828125 1.210937 8.515625 1.25 8.164062 1.210938 7.890625 1.210938 7.617188 1.210937 7.382812 1.25 7.148438 1.210937 6.914062 1.210938 6.71875 1.25 6.5625 1.210938 6.367188 1.210937 6.210937 1.210937 6.054688 1.210938 5.898437 1.25 5.742188 1.210938 5.664062 1.210937 5.507813 1.210937 5.390625 1.25 5.273437 1.210938 5.15625 1.210938 5.078125 1.210937 5 1.25 4.882813 1.210937 4.765625 1.210938 4.726562 1.210938 4.609375 1.25 4.53125 1.210937 4.492188 1.210937 4.375 1.210938 4.335937 1.25 4.257813 1.210938 4.179687 1.210937 4.140625 1.210937 4.0625 1.25 3.984375 1.210938 3.984375 1.210938 3.867188 1.210937 3.828125 1.25 3.789062 1.210937 3.75 1.210938 3.671875 1.210938 3.632813 1.210937 3.59375 1.25 3.554687 1.210937 3.515625 1.210938 3.4375 1.210938 3.398438 1.25 3.398437 2.421874 6.640625 1.210938 3.242188 1.25 3.203125 1.210938 3.203125 1.210937 3.164062 1.210937 3.085938 1.25 3.085937 1.210938 3.046875 2.421875 6.015625 1.25 2.929688 1.210937 2.929687 2.421876 5.78125 1.210937 2.8125 1.25 2.8125 2.421875 5.546875 1.210938 2.734375 1.25 2.695313 1.210937 2.695312 1.210937 2.65625 1.210938 2.617188 1.25 2.617187 1.210938 2.578125 2.421874 5.078125 1.25 2.539063 1.210938 2.460937 1.210938 2.5 1.210937 2.421875 1.25 2.460938 1.210937 2.382812 1.210938 2.421875 2.421875 4.6875 1.25 2.34375 2.421875 4.609375 1.210938 2.265625 1.25 2.265625 3.632812 6.679688 1.25 2.1875 1.210938 2.1875 2.421874 4.296875 1.25 2.109375 2.421876 4.21875 1.210937 2.070312 1.25 2.070313 3.632813 6.09375 1.25 1.992187 2.421874 3.984375 1.210938 1.953125 1.25 1.953125 1.210938 1.914063 1.210937 1.953125 1.210937 1.875 1.210938 1.914062 1.25 1.875 2.421875 3.75 1.25 1.835938 2.421875 3.671875 1.210938 1.796875 1.25 1.796875 1.210937 1.796875 1.210937 1.757812 1.210938 1.796875 1.210938 1.71875 1.25 1.757813 1.210937 1.71875 1.210937 1.757812 1.210938 1.679688 1.25 1.71875 3.632812 5.039062 1.25 1.640625 3.632813 4.921875 1.25 1.601563 1.210937 1.640625 1.210938 1.5625 1.210938 1.601562 1.25 1.601563 3.632812 4.6875 1.210938 1.523437 1.25 1.5625 2.421874 3.046875 1.210938 1.484375 1.25 1.523438 3.632812 4.453125 1.25 1.445312 1.210938 1.484375 2.421875 2.890625 1.25 1.40625 1.210937 1.445313 2.421876 2.8125 1.25 1.40625 1.210937 1.40625 1.210937 1.367187 1.210938 1.40625 1.210938 1.367188 1.25 1.367187 2.421874 2.734375 1.210938 1.328125 1.25 1.328125 3.632812 3.984375 1.25 1.289063 1.210938 1.328125 2.421875 2.578125 1.25 1.289062 1.210937 1.25 1.210938 1.289063 1.210938 1.25 1.25 1.25 3.632812 3.75 1.25 1.210937 1.210938 1.25 2.421874 2.421875 1.25 1.210938 1.210938 1.210937 1.210938 1.171875 1.210937 1.210938 1.210937 1.171875 1.25 1.171875 2.421876 2.34375 1.25 1.171875 1.210937 1.132812 1.210937 1.171875 2.421876 2.265625 1.25 1.132813 2.421874 2.265625 1.210938 1.09375 1.25 1.132812 3.632812 3.28125 1.25 1.09375 1.210938 1.09375 1.210938 1.054688 1.210937 1.09375 1.25 1.054687 2.421875 2.109375 1.210938 1.09375 1.25 1.015625 1.210937 1.054688 1.210937 1.015625 1.210938 1.054687 1.25 1.015625 1.210938 1.054688 2.421874 2.03125 1.25 1.015625 1.210938.976562 1.210938 1.015625 1.210937.976563 1.210937 1.015625 1.25.976562 3.632813 2.929688 1.25.976562 1.210937.976563 1.210938.9375 1.210938.976562 1.25.9375 3.632812 2.8125 1.25.9375 2.421875 1.875 1.210937.898438 1.25.9375 1.210938.898437 1.210938.9375 2.421874 1.796875 1.25.898438 1.210938.898437 1.210938.859375 1.210937.898438 1.25.898437 2.421875 1.71875 1.210938.898438 1.25.859375 3.632812 2.578125 1.25.820312 2.421875 1.71875 1.210937.820313 1.25.859375 3.632813 2.460937 1.25.820313 4.84375 3.28125 1.25.78125 1.210937.820312 1.210938.78125 1.25.78125 1.210938.820313 2.421874 1.5625 1.210938.742187 1.25.78125 3.632812 2.34375 1.25.742188 1.210938.742187 1.210938.78125 1.210937.742188 1.25.742187 3.632813 2.226563 1.25.742187 2.421874 1.484375 1.210938.703125 1.25.742188 1.210938.703125 1.210937.742187 1.210937.703125 1.25.703125 3.632813 2.109375 1.25.703125 3.632813 2.109375 1.210937.664063 1.25.703125 1.210937.664062 1.210938.703125 1.210938.664063 1.25.664062 2.421874 1.328125 1.210938.703125 1.25.664063 1.210938.625 2.421874 1.328125 1.25.664062 1.210938.625 1.210938.664063 1.210937.625 1.25.625 1.210937.664062 3.632813 1.875 1.25.625 3.632813 1.875 1.25.625 1.210937.585938 2.421875 1.25 1.25.585937 1.210938.625 2.421874 1.171875 1.25.625 3.632813 1.757813 1.25.585937 3.632813 1.757813 1.210937.546875 1.25.585937 1.210937.585938 1.210938.546875 1.210938.585937 1.25.546875 1.210937.585938 2.421875 1.09375 1.25.546875 2.421875 1.09375 1.210937.585937 1.25.507813 3.632813 1.640625 1.25.546875 1.210937.507812 1.210938.546875 1.210938.507813 1.25.546875 1.210937.507812 1.210937.546875 1.210938.507813 1.25.507812 1.210938.507813 1.210937.546875 2.421875 1.015625 1.25.507812 1.210938.507813 1.210937.46875 1.25.507812 2.421875 1.015625 1.210938.46875 1.25.507813 1.210937.507812 2.421875.9375 1.210938.507813 1.25.46875 1.210937.507812 2.421875.9375 1.25.46875 3.632812 1.40625 1.25.46875 2.421876.9375 1.210937.429688 1.25.46875 1.210937.46875 1.210938.429687 1.210938.46875 1.25.429688 1.210937.46875 1.210937.429687 1.210938.46875 1.210938.429688 1.25.429687 1.210937.429688 1.210937.46875 1.210938.429687 1.25.429688 3.632812 1.289062 1.25.429688 1.210938.390625 2.421875.859375 1.25.429687 1.210937.390625 1.210938.429688 1.210938.390625 1.25.429687 1.210937.390625 1.210937.429688 1.210938.390625 1.210938.429687 1.25.390625 3.632812 1.171875 1.25.429688 2.421875.78125 1.210937.351562 1.25.390625 3.632813 1.171875 1.25.390625 1.210937.351563 2.421876.78125 1.25.351562 1.210937.390625 1.210937.351563 1.210938.390625 1.25.351562 1.210938.351563 1.210937.390625 1.210937.351562 1.25.351563 1.210938.390625 3.632812 1.054687 1.25.351563 2.421876.703125 1.25.351562 1.210937.351563 1.210937.3125 1.210938.351562 1.25.351563 1.210938.351562 1.210937.3125 2.421875.703125 1.25.3125 1.210938.351563 1.210937.3125 1.210937.351562 1.25.3125 1.210938.3125 1.210938.351563 1.210937.3125 1.25.3125 1.210937.351562 2.421876.625 1.25.3125 3.632812.9375 1.25.3125 2.421875.625 1.210937.273438 1.25.3125 2.421876.625 1.210937.273437 1.210937.3125 1.25.3125 1.210938.273438 1.210938.3125 1.210937.273437 1.25.3125 1.210937.273438 1.210938.3125 1.210938.273437 1.25.273438 1.210937.3125 2.421875.546875 1.25.273437 1.210938.3125 2.421874.546875 1.25.273438 4.84375 1.09375 1.25.273437 1.210938.273438 1.210938.234375 1.210937.273437 1.25.273438 1.210937.273437 1.210938.234375 1.210938.273438 1.25.273437 1.210937.234375 1.210937.273438 1.210938.234375 1.25.273437 1.210938.234375 1.210937.273438 1.210937.234375 1.25.273437 3.632813.703125 1.25.273438 4.84375.9375 1.25.234375 1.210937.273437 1.210938.195313 1.25.273437 1.210938.195313 2.421874.46875 1.25.234375 3.632813.703125 1.210937.195312 1.25.234375 2.421876.46875 1.210937.195313 1.25.234375 1.210937.195312 1.210938.234375 1.210938.195313 1.25.234375 1.210937.195312 1.210937.234375 1.210938.195313 1.25.234375 2.421875.390625 1.210937.234375 1.25.195312 3.632813.585938 1.25.234375 4.84375.78125 1.25.195312 3.632813.585938 1.25.195312 1.210937.195313 1.210937.15625 1.210938.195312 1.25.195313 2.421875.390625 1.210937.15625 1.25.195312 2.421876.390625 1.210937.15625 1.25.195313 1.210937.15625 1.210938.195312 1.210938.15625 1.210937.195313 1.25.15625 1.210937.195312 2.421876.3125 1.25.195313 2.421874.3125 1.210938.195312 1.25.15625 2.421875.3125 1.210937.195313 1.25.15625 3.632813.46875 1.25.15625 3.632813.46875 1.25.15625 4.84375.625 1.25.15625 1.210937.15625 1.210937.117187 1.210938.15625 1.25.15625 1.210938.15625 1.210937.117188 1.25.15625 2.421875.3125 1.210938.117187 1.210937.15625 1.25.117188 1.210937.15625 1.210938.117187 1.210938.15625 1.25.117188 2.421874.3125 1.210938.117187 1.25.117188 1.210938.15625 2.421874.234375 1.210938.15625 1.25.117187 2.421875.234375 1.25.15625 3.632813.351563 1.25.15625 4.84375.46875 1.25.117187 3.632812.351563 1.25.117187 3.632812.351563 1.25.078125 1.210938.15625 1.210938.078125 1.210937.117187 1.25.117188 2.421875.234375 1.210938.078125 1.25.117187 1.210937.117188 1.210937.078125 2.421876.234375 1.25.117187 1.210937.078125 1.210937.117188 1.210938.078125 1.25.117187 1.210938.078125 2.421874.234375 1.25.078125 1.210938.078125 1.210938.117188 1.25.078125 1.210937.117187 2.421875.15625 1.210938.117188 1.25.078125 1.210937.117187 2.421875.15625 1.25.078125 1.210938.117188 2.421874.15625 1.25.078125 1.210938.078125 1.210938.117187 2.421874.15625 1.25.078125 1.210938.117188 2.421875.15625 1.25.078125 3.632813.234375 1.25.078125 2.421874.15625 1.25.078125 1.171876.078125 1.25.039062 2.421874.15625 1.25.078125 3.632813.234375 1.25.039063 3.632813.234375 1.25.078125 1.210937.039062 2.421875.15625 1.210938.039063 1.25.078125 1.210937.078125 1.210937.039062 1.210938.078125 1.25.078125 1.210938.039063 1.210937.078125 1.210937.039062 1.25.078125 1.210938.039063 2.421875.15625 1.25.039062 1.210937.039063 2.421876.15625 1.25.039062 1.210937.039063 1.210937.078125 1.210938.039062 1.25.039063 1.210938.078125 1.210937.039062 1.210937.078125 1.25.039063 1.210938.039062 1.210938.078125 2.421874.078125 1.25.039063 1.210938.078125 2.421875.078125 1.25.039062 1.210937.078125 2.421876.078125 1.25.039063 1.210937.039062 1.210937.078125 1.210938.039063 1.25.039062 3.632812.117188 1.25.039062 3.632813.117188 1.25.078125 1.210937.039062h1.210938l2.421875.078125 1.25.039063 3.632813.117187 1.25.039063 3.632812.117187 1.25.039063 2.421875.078125h1.210937l1.25.039062 3.632813.117188h1.25l3.632813.117187 1.25.039063h1.210937l2.421875.078125 1.25.039062h1.210938l2.421874.078125h1.210938l1.25.039063 1.210938.039062h1.210937l1.210937.039063 1.25.039062 1.210938.039063h1.210938l1.210937.039062h1.25l1.210937.039063h1.210938l1.25.039062 1.171875.039063h1.25l1.210937.039062h1.210938l1.25.039063h1.210938l1.210937.039062h1.210937l1.25.039063h1.210938l2.421875.078125h2.460937l1.210938.039062h1.210938l1.210937.039063h1.25l1.210937.039062h2.421876l1.25.039063h1.210937l1.210937.039062h2.460938l1.210938.039063h2.421874l1.210938.039062h2.460938l1.210937.039063h2.460937l1.210938.039062h2.460938l1.210937.039063h2.421875l1.25.039062h2.421875l1.210937.039063h4.882813l1.210937.039062h3.671876l1.210937.039063h4.882813l1.25.039062h6.09375l1.210937.039063h8.554687l1.210938.039062h9.765625l1.210937.039063h15.859376l1.25.039062h48.789062" style="fill:none;stroke-width:11.9989;stroke-linecap:round;stroke-linejoin:round;stroke:#191970;stroke-miterlimit:10" transform="matrix(.1 0 0 -.1 0 141.73)"/><use x="5.51992" xlink:href="#a" y="138.48977"/><use x="133.07992" xlink:href="#b" y="139.68977"/><use x="4.43992" xlink:href="#b" y="9.84977"/><g fill="#ebf2fd"><use x="86.5199" xlink:href="#c" y="122.53"/><use x="95.87992" xlink:href="#d" y="122.53"/><use x="105.239941" xlink:href="#e" y="122.53"/><use x="113.279969" xlink:href="#f" y="122.53"/><use x="122.639989" xlink:href="#g" y="122.53"/></g><use x="34.4398" xlink:href="#h" y="140.04992"/><use x="38.399812" xlink:href="#i" y="140.04992"/><use x="44.399824" xlink:href="#j" y="140.04992"/><use x="47.879834" xlink:href="#k" y="140.04992"/><use x="52.919847" xlink:href="#l" y="140.04992"/><use x="61.559799" xlink:href="#i" y="140.04992"/><use x="67.559817" xlink:href="#j" y="140.04992"/><use x="71.039824" xlink:href="#i" y="140.04992"/><use x="77.039842" xlink:href="#m" y="140.04992"/><use x="81.719855" xlink:href="#n" y="140.04992"/><use x="95.279885" xlink:href="#m" y="140.04992"/><use x="99.959898" xlink:href="#i" y="140.04992"/><use x="105.959922" xlink:href="#o" y="140.04992"/><use x="109.79992" xlink:href="#l" y="140.04992"/><use x="10.2" xlink:href="#p" y="102.8499"/><use x="10.2" xlink:href="#q" y="95.529883"/><use x="10.2" xlink:href="#r" y="89.769864"/><use x="10.2" xlink:href="#q" y="85.92986"/><use x="10.2" xlink:href="#s" y="80.169842"/><use x="10.2" xlink:href="#r" y="74.889827"/><use x="10.2" xlink:href="#t" y="71.049824"/><use x="10.2" xlink:href="#u" y="67.569817"/><use x="10.2" xlink:href="#v" y="61.089794"/><use x="10.2" xlink:href="#w" y="51.009922"/><use x="10.2" xlink:href="#x" y="46.32991"/><use x="10.2" xlink:href="#r" y="40.329891"/><use x="10.2" xlink:href="#q" y="36.489882"/></svg>