<?xml version="1.0" encoding="UTF-8"?>
<svg xmlns="http://www.w3.org/2000/svg" xmlns:xlink="http://www.w3.org/1999/xlink" width="197.15pt" height="262pt" viewBox="0 0 197.15 262" version="1.1">
<g id="surface1">
<path style="fill:none;stroke-width:5;stroke-linecap:round;stroke-linejoin:round;stroke:rgb(0%,0%,0%);stroke-opacity:1;stroke-miterlimit:10;" d="M 879.804688 2512.5 L 879.804688 45.546875 " transform="matrix(0.1,0,0,-0.1,0,262)"/>
<path style="fill-rule:nonzero;fill:rgb(0%,0%,0%);fill-opacity:1;stroke-width:5;stroke-linecap:round;stroke-linejoin:round;stroke:rgb(0%,0%,0%);stroke-opacity:1;stroke-miterlimit:10;" d="M 879.804688 2587.5 L 859.726562 2512.5 L 899.921875 2512.5 Z M 879.804688 2587.5 " transform="matrix(0.1,0,0,-0.1,0,262)"/>
<path style="fill:none;stroke-width:5;stroke-linecap:round;stroke-linejoin:round;stroke:rgb(0%,0%,0%);stroke-opacity:1;stroke-miterlimit:10;" d="M 1863.984375 1316.523438 L 32.5 1316.523438 " transform="matrix(0.1,0,0,-0.1,0,262)"/>
<path style="fill-rule:nonzero;fill:rgb(0%,0%,0%);fill-opacity:1;stroke-width:5;stroke-linecap:round;stroke-linejoin:round;stroke:rgb(0%,0%,0%);stroke-opacity:1;stroke-miterlimit:10;" d="M 1938.984375 1316.523438 L 1863.984375 1336.601562 L 1863.984375 1296.40625 Z M 1938.984375 1316.523438 " transform="matrix(0.1,0,0,-0.1,0,262)"/>
<path style="fill:none;stroke-width:10;stroke-linecap:round;stroke-linejoin:round;stroke:rgb(54.492188%,0%,0%);stroke-opacity:1;stroke-miterlimit:10;" d="M 1360.117188 877.578125 L 1408.046875 925.46875 " transform="matrix(0.1,0,0,-0.1,0,262)"/>
<path style="fill:none;stroke-width:10;stroke-linecap:round;stroke-linejoin:round;stroke:rgb(54.492188%,0%,0%);stroke-opacity:1;stroke-miterlimit:10;" d="M 1408.046875 877.578125 L 1360.117188 925.46875 " transform="matrix(0.1,0,0,-0.1,0,262)"/>
<path style="fill:none;stroke-width:10;stroke-linecap:round;stroke-linejoin:round;stroke:rgb(54.492188%,0%,0%);stroke-opacity:1;stroke-miterlimit:10;" d="M 1723.59375 1402.851562 L 1771.523438 1450.78125 " transform="matrix(0.1,0,0,-0.1,0,262)"/>
<path style="fill:none;stroke-width:10;stroke-linecap:round;stroke-linejoin:round;stroke:rgb(54.492188%,0%,0%);stroke-opacity:1;stroke-miterlimit:10;" d="M 1771.523438 1402.851562 L 1723.59375 1450.78125 " transform="matrix(0.1,0,0,-0.1,0,262)"/>
<path style="fill:none;stroke-width:10;stroke-linecap:round;stroke-linejoin:round;stroke:rgb(54.492188%,0%,0%);stroke-opacity:1;stroke-miterlimit:10;" d="M 1339.960938 1094.0625 L 1387.890625 1141.992188 " transform="matrix(0.1,0,0,-0.1,0,262)"/>
<path style="fill:none;stroke-width:10;stroke-linecap:round;stroke-linejoin:round;stroke:rgb(54.492188%,0%,0%);stroke-opacity:1;stroke-miterlimit:10;" d="M 1387.890625 1094.0625 L 1339.960938 1141.992188 " transform="matrix(0.1,0,0,-0.1,0,262)"/>
<path style="fill:none;stroke-width:10;stroke-linecap:round;stroke-linejoin:round;stroke:rgb(54.492188%,0%,0%);stroke-opacity:1;stroke-miterlimit:10;" d="M 574.257812 1938.164062 L 622.1875 1986.09375 " transform="matrix(0.1,0,0,-0.1,0,262)"/>
<path style="fill:none;stroke-width:10;stroke-linecap:round;stroke-linejoin:round;stroke:rgb(54.492188%,0%,0%);stroke-opacity:1;stroke-miterlimit:10;" d="M 622.1875 1938.164062 L 574.257812 1986.09375 " transform="matrix(0.1,0,0,-0.1,0,262)"/>
<path style="fill:none;stroke-width:10;stroke-linecap:round;stroke-linejoin:round;stroke:rgb(54.492188%,0%,0%);stroke-opacity:1;stroke-miterlimit:10;" d="M 1271.445312 539.414062 L 1319.375 587.34375 " transform="matrix(0.1,0,0,-0.1,0,262)"/>
<path style="fill:none;stroke-width:10;stroke-linecap:round;stroke-linejoin:round;stroke:rgb(54.492188%,0%,0%);stroke-opacity:1;stroke-miterlimit:10;" d="M 1319.375 539.414062 L 1271.445312 587.34375 " transform="matrix(0.1,0,0,-0.1,0,262)"/>
<path style="fill:none;stroke-width:10;stroke-linecap:round;stroke-linejoin:round;stroke:rgb(54.492188%,0%,0%);stroke-opacity:1;stroke-miterlimit:10;" d="M 971.875 1623.945312 L 1019.804688 1671.875 " transform="matrix(0.1,0,0,-0.1,0,262)"/>
<path style="fill:none;stroke-width:10;stroke-linecap:round;stroke-linejoin:round;stroke:rgb(54.492188%,0%,0%);stroke-opacity:1;stroke-miterlimit:10;" d="M 1019.804688 1623.945312 L 971.875 1671.875 " transform="matrix(0.1,0,0,-0.1,0,262)"/>
<path style="fill:none;stroke-width:10;stroke-linecap:round;stroke-linejoin:round;stroke:rgb(54.492188%,0%,0%);stroke-opacity:1;stroke-miterlimit:10;" d="M 773.554688 2272.734375 L 821.484375 2320.664062 " transform="matrix(0.1,0,0,-0.1,0,262)"/>
<path style="fill:none;stroke-width:10;stroke-linecap:round;stroke-linejoin:round;stroke:rgb(54.492188%,0%,0%);stroke-opacity:1;stroke-miterlimit:10;" d="M 821.484375 2272.734375 L 773.554688 2320.664062 " transform="matrix(0.1,0,0,-0.1,0,262)"/>
<path style="fill:none;stroke-width:10;stroke-linecap:round;stroke-linejoin:round;stroke:rgb(54.492188%,0%,0%);stroke-opacity:1;stroke-miterlimit:10;" d="M 498.359375 1439.023438 L 546.289062 1486.953125 " transform="matrix(0.1,0,0,-0.1,0,262)"/>
<path style="fill:none;stroke-width:10;stroke-linecap:round;stroke-linejoin:round;stroke:rgb(54.492188%,0%,0%);stroke-opacity:1;stroke-miterlimit:10;" d="M 546.289062 1439.023438 L 498.359375 1486.953125 " transform="matrix(0.1,0,0,-0.1,0,262)"/>
<path style="fill:none;stroke-width:10;stroke-linecap:round;stroke-linejoin:round;stroke:rgb(54.492188%,0%,0%);stroke-opacity:1;stroke-miterlimit:10;" d="M 1011.757812 1320.9375 L 1059.6875 1368.867188 " transform="matrix(0.1,0,0,-0.1,0,262)"/>
<path style="fill:none;stroke-width:10;stroke-linecap:round;stroke-linejoin:round;stroke:rgb(54.492188%,0%,0%);stroke-opacity:1;stroke-miterlimit:10;" d="M 1059.6875 1320.9375 L 1011.757812 1368.867188 " transform="matrix(0.1,0,0,-0.1,0,262)"/>
<path style="fill:none;stroke-width:10;stroke-linecap:round;stroke-linejoin:round;stroke:rgb(54.492188%,0%,0%);stroke-opacity:1;stroke-miterlimit:10;" d="M 544.53125 919.492188 L 592.460938 967.421875 " transform="matrix(0.1,0,0,-0.1,0,262)"/>
<path style="fill:none;stroke-width:10;stroke-linecap:round;stroke-linejoin:round;stroke:rgb(54.492188%,0%,0%);stroke-opacity:1;stroke-miterlimit:10;" d="M 592.460938 919.492188 L 544.53125 967.421875 " transform="matrix(0.1,0,0,-0.1,0,262)"/>
<path style="fill:none;stroke-width:10;stroke-linecap:round;stroke-linejoin:round;stroke:rgb(54.492188%,0%,0%);stroke-opacity:1;stroke-miterlimit:10;" d="M 551.914062 1185.039062 L 599.84375 1232.96875 " transform="matrix(0.1,0,0,-0.1,0,262)"/>
<path style="fill:none;stroke-width:10;stroke-linecap:round;stroke-linejoin:round;stroke:rgb(54.492188%,0%,0%);stroke-opacity:1;stroke-miterlimit:10;" d="M 599.84375 1185.039062 L 551.914062 1232.96875 " transform="matrix(0.1,0,0,-0.1,0,262)"/>
<path style="fill:none;stroke-width:10;stroke-linecap:round;stroke-linejoin:round;stroke:rgb(54.492188%,0%,0%);stroke-opacity:1;stroke-miterlimit:10;" d="M 527.5 1637.421875 L 575.429688 1685.351562 " transform="matrix(0.1,0,0,-0.1,0,262)"/>
<path style="fill:none;stroke-width:10;stroke-linecap:round;stroke-linejoin:round;stroke:rgb(54.492188%,0%,0%);stroke-opacity:1;stroke-miterlimit:10;" d="M 575.429688 1637.421875 L 527.5 1685.351562 " transform="matrix(0.1,0,0,-0.1,0,262)"/>
<path style="fill:none;stroke-width:20;stroke-linecap:round;stroke-linejoin:round;stroke:rgb(9.812927%,9.812927%,43.920898%);stroke-opacity:1;stroke-miterlimit:10;" d="M 1040.585938 943.320312 L 1108.359375 943.320312 " transform="matrix(0.1,0,0,-0.1,0,262)"/>
<path style="fill:none;stroke-width:20;stroke-linecap:round;stroke-linejoin:round;stroke:rgb(9.812927%,9.812927%,43.920898%);stroke-opacity:1;stroke-miterlimit:10;" d="M 1074.453125 909.414062 L 1074.453125 977.1875 " transform="matrix(0.1,0,0,-0.1,0,262)"/>
<path style="fill:none;stroke-width:20;stroke-linecap:round;stroke-linejoin:round;stroke:rgb(9.812927%,9.812927%,43.920898%);stroke-opacity:1;stroke-miterlimit:10;" d="M 677.851562 1434.179688 L 745.664062 1434.179688 " transform="matrix(0.1,0,0,-0.1,0,262)"/>
<path style="fill:none;stroke-width:20;stroke-linecap:round;stroke-linejoin:round;stroke:rgb(9.812927%,9.812927%,43.920898%);stroke-opacity:1;stroke-miterlimit:10;" d="M 711.757812 1400.273438 L 711.757812 1468.085938 " transform="matrix(0.1,0,0,-0.1,0,262)"/>
<path style="fill:none;stroke-width:20;stroke-linecap:round;stroke-linejoin:round;stroke:rgb(9.812927%,9.812927%,43.920898%);stroke-opacity:1;stroke-miterlimit:10;" d="M 813.945312 73.90625 L 881.71875 73.90625 " transform="matrix(0.1,0,0,-0.1,0,262)"/>
<path style="fill:none;stroke-width:20;stroke-linecap:round;stroke-linejoin:round;stroke:rgb(9.812927%,9.812927%,43.920898%);stroke-opacity:1;stroke-miterlimit:10;" d="M 847.851562 40 L 847.851562 107.773438 " transform="matrix(0.1,0,0,-0.1,0,262)"/>
<path style="fill:none;stroke-width:20;stroke-linecap:round;stroke-linejoin:round;stroke:rgb(9.812927%,9.812927%,43.920898%);stroke-opacity:1;stroke-miterlimit:10;" d="M 702.148438 947.5 L 769.921875 947.5 " transform="matrix(0.1,0,0,-0.1,0,262)"/>
<path style="fill:none;stroke-width:20;stroke-linecap:round;stroke-linejoin:round;stroke:rgb(9.812927%,9.812927%,43.920898%);stroke-opacity:1;stroke-miterlimit:10;" d="M 736.054688 913.59375 L 736.054688 981.367188 " transform="matrix(0.1,0,0,-0.1,0,262)"/>
<path style="fill:none;stroke-width:20;stroke-linecap:round;stroke-linejoin:round;stroke:rgb(9.812927%,9.812927%,43.920898%);stroke-opacity:1;stroke-miterlimit:10;" d="M 469.335938 1250.507812 L 537.109375 1250.507812 " transform="matrix(0.1,0,0,-0.1,0,262)"/>
<path style="fill:none;stroke-width:20;stroke-linecap:round;stroke-linejoin:round;stroke:rgb(9.812927%,9.812927%,43.920898%);stroke-opacity:1;stroke-miterlimit:10;" d="M 503.203125 1216.601562 L 503.203125 1284.375 " transform="matrix(0.1,0,0,-0.1,0,262)"/>
<path style="fill:none;stroke-width:20;stroke-linecap:round;stroke-linejoin:round;stroke:rgb(9.812927%,9.812927%,43.920898%);stroke-opacity:1;stroke-miterlimit:10;" d="M 984.570312 2304.921875 L 1052.34375 2304.921875 " transform="matrix(0.1,0,0,-0.1,0,262)"/>
<path style="fill:none;stroke-width:20;stroke-linecap:round;stroke-linejoin:round;stroke:rgb(9.812927%,9.812927%,43.920898%);stroke-opacity:1;stroke-miterlimit:10;" d="M 1018.4375 2271.015625 L 1018.4375 2338.828125 " transform="matrix(0.1,0,0,-0.1,0,262)"/>
<path style="fill:none;stroke-width:20;stroke-linecap:round;stroke-linejoin:round;stroke:rgb(9.812927%,9.812927%,43.920898%);stroke-opacity:1;stroke-miterlimit:10;" d="M 1096.914062 893.554688 L 1164.6875 893.554688 " transform="matrix(0.1,0,0,-0.1,0,262)"/>
<path style="fill:none;stroke-width:20;stroke-linecap:round;stroke-linejoin:round;stroke:rgb(9.812927%,9.812927%,43.920898%);stroke-opacity:1;stroke-miterlimit:10;" d="M 1130.78125 859.648438 L 1130.78125 927.460938 " transform="matrix(0.1,0,0,-0.1,0,262)"/>
<path style="fill:none;stroke-width:20;stroke-linecap:round;stroke-linejoin:round;stroke:rgb(9.812927%,9.812927%,43.920898%);stroke-opacity:1;stroke-miterlimit:10;" d="M 726.835938 577.578125 L 794.609375 577.578125 " transform="matrix(0.1,0,0,-0.1,0,262)"/>
<path style="fill:none;stroke-width:20;stroke-linecap:round;stroke-linejoin:round;stroke:rgb(9.812927%,9.812927%,43.920898%);stroke-opacity:1;stroke-miterlimit:10;" d="M 760.703125 543.671875 L 760.703125 611.445312 " transform="matrix(0.1,0,0,-0.1,0,262)"/>
</g>
</svg>
