<svg height="444" viewBox="0 0 660 333" width="880" xmlns="http://www.w3.org/2000/svg" xmlns:xlink="http://www.w3.org/1999/xlink"><symbol id="a" overflow="visible"><path d="m5.21875 0h-1.234375v-7.84375c-.292969.28125-.683594.570312-1.171875.859375-.480469.28125-.90625.492187-1.28125.625v-1.1875c.6875-.320313 1.285156-.710937 1.796875-1.171875.519531-.457031.882813-.90625 1.09375-1.34375h.796875zm0 0"/></symbol><symbol id="b" overflow="visible"><path d="m.109375 0 2.640625-3.78125-2.453125-3.484375h1.546875l1.109375 1.703125c.207031.324219.375.59375.5.8125.207031-.300781.394531-.566406.5625-.796875l1.21875-1.71875h1.46875l-2.5 3.421875 2.6875 3.84375h-1.5l-1.5-2.25-.390625-.609375-1.90625 2.859375zm0 0"/></symbol><symbol id="d" overflow="visible"><path d="m5.65625-2.65625 1.21875.15625c-.136719.835938-.480469 1.492188-1.03125 1.96875-.542969.46875-1.210938.703125-2 .703125-.992188 0-1.789062-.320313-2.390625-.96875-.605469-.65625-.90625-1.59375-.90625-2.8125 0-.78125.128906-1.460937.390625-2.046875.257812-.59375.65625-1.035156 1.1875-1.328125.53125-.289063 1.109375-.4375 1.734375-.4375.78125 0 1.421875.199219 1.921875.59375.507812.398437.832031.964844.96875 1.703125l-1.1875.1875c-.117188-.488281-.320312-.851562-.609375-1.09375-.292969-.25-.640625-.375-1.046875-.375-.625 0-1.132812.226562-1.515625.671875-.386719.4375-.578125 1.136719-.578125 2.09375 0 .980469.1875 1.695313.5625 2.140625.375.4375.859375.65625 1.453125.65625.488281 0 .894531-.144531 1.21875-.4375.320313-.300781.523437-.757812.609375-1.375zm0 0"/></symbol><symbol id="e" overflow="visible"><path d="m.46875-3.625c0-1.34375.375-2.34375 1.125-3 .613281-.53125 1.375-.796875 2.28125-.796875.988281 0 1.800781.328125 2.4375.984375.632812.648438.953125 1.546875.953125 2.703125 0 .9375-.140625 1.679687-.421875 2.21875-.28125.53125-.695312.949219-1.234375 1.25-.53125.2890625-1.109375.4375-1.734375.4375-1.023438 0-1.84375-.328125-2.46875-.984375s-.9375-1.59375-.9375-2.8125zm1.265625 0c0 .929688.203125 1.625.609375 2.09375.40625.460938.914062.6875 1.53125.6875.601562 0 1.109375-.234375 1.515625-.703125s.609375-1.175781.609375-2.125c0-.894531-.203125-1.570313-.609375-2.03125-.40625-.46875-.914063-.703125-1.515625-.703125-.617188 0-1.125.230469-1.53125.6875-.40625.460938-.609375 1.15625-.609375 2.09375zm0 0"/></symbol><symbol id="f" overflow="visible"><path d="m.921875 0v-7.265625h1.109375v1.03125c.53125-.789063 1.300781-1.1875 2.3125-1.1875.4375 0 .835938.078125 1.203125.234375.363281.15625.632813.367188.8125.625.1875.25.316406.554688.390625.90625.050781.230469.078125.625.078125 1.1875v4.46875h-1.234375v-4.421875c0-.5-.046875-.867187-.140625-1.109375-.09375-.25-.265625-.445312-.515625-.59375-.242188-.15625-.527344-.234375-.859375-.234375-.523437 0-.976563.167969-1.359375.5-.375.335937-.5625.964844-.5625 1.890625v3.96875zm0 0"/></symbol><symbol id="g" overflow="visible"><path d="m2.9375 0-2.765625-7.265625h1.3125l1.546875 4.359375c.164062.46875.320312.953125.46875 1.453125.113281-.382813.265625-.84375.453125-1.375l1.625-4.4375h1.265625l-2.75 7.265625zm0 0"/></symbol><symbol id="h" overflow="visible"><path d="m.890625 0v-10.015625h1.234375v10.015625zm0 0"/></symbol><symbol id="i" overflow="visible"><path d="m5.6875 0v-1.0625c-.574219.824219-1.34375 1.234375-2.3125 1.234375-.429688 0-.828125-.0859375-1.203125-.25-.367187-.164063-.640625-.375-.828125-.625-.179688-.25-.304688-.550781-.375-.90625-.054688-.238281-.078125-.625-.078125-1.15625v-4.5h1.234375v4.03125c0 .648437.023438 1.078125.078125 1.296875.070313.324219.234375.578125.484375.765625s.5625.28125.9375.28125c.363281 0 .707031-.09375 1.03125-.28125.320312-.195313.550781-.457031.6875-.78125.132812-.320313.203125-.796875.203125-1.421875v-3.890625h1.234375v7.265625zm0 0"/></symbol><symbol id="j" overflow="visible"><path d="m3.609375-1.09375.171875 1.078125c-.34375.0703125-.652344.109375-.921875.109375-.449219 0-.796875-.0703125-1.046875-.203125-.242188-.144531-.414062-.332031-.515625-.5625-.09375-.226563-.140625-.710937-.140625-1.453125v-4.171875h-.90625v-.96875h.90625v-1.796875l1.21875-.734375v2.53125h1.234375v.96875h-1.234375v4.234375c0 .355469.019531.585938.0625.6875.039062.09375.109375.171875.203125.234375.101563.0625.242187.09375.421875.09375.144531 0 .328125-.015625.546875-.046875zm0 0"/></symbol><symbol id="k" overflow="visible"><path d="m.9375-8.609375v-1.40625h1.21875v1.40625zm0 8.609375v-7.265625h1.21875v7.265625zm0 0"/></symbol><symbol id="l" overflow="visible"><path d="m.4375-2.171875 1.203125-.1875c.070313.492187.265625.867187.578125 1.125.3125.261719.75.390625 1.3125.390625s.976562-.113281 1.25-.34375c.28125-.226562.421875-.5.421875-.8125 0-.28125-.125-.5-.375-.65625-.167969-.113281-.585937-.253906-1.25-.421875-.90625-.226563-1.539063-.425781-1.890625-.59375-.34375-.164063-.605469-.394531-.78125-.6875-.179688-.289063-.265625-.613281-.265625-.96875 0-.320313.070313-.617187.21875-.890625.144531-.28125.347656-.515625.609375-.703125.1875-.132813.441406-.25.765625-.34375.332031-.101563.691406-.15625 1.078125-.15625.5625 0 1.054688.085937 1.484375.25.4375.15625.757813.375.96875.65625.207031.28125.347656.65625.421875 1.125l-1.203125.171875c-.054687-.375-.214844-.664062-.484375-.875-.261719-.207031-.632812-.3125-1.109375-.3125-.5625 0-.964844.09375-1.203125.28125-.242188.179688-.359375.398438-.359375.65625 0 .15625.046875.296875.140625.421875.101562.136719.265625.246094.484375.328125.113281.042969.472656.148438 1.078125.3125.875.242188 1.484375.433594 1.828125.578125.34375.148437.609375.359375.796875.640625.195312.28125.296875.632812.296875 1.046875 0 .417969-.121094.808594-.359375 1.171875-.230469.355469-.574219.636719-1.03125.84375-.449219.1953125-.960938.296875-1.53125.296875-.9375 0-1.65625-.1953125-2.15625-.59375-.492188-.394531-.804688-.976563-.9375-1.75zm0 0"/></symbol><symbol id="m" overflow="visible"><path d="m.59375-2.640625 1.21875-.171875c.144531.699219.382812 1.203125.71875 1.515625.34375.304687.757812.453125 1.25.453125.582031 0 1.070312-.195312 1.46875-.59375.394531-.40625.59375-.90625.59375-1.5 0-.5625-.1875-1.023438-.5625-1.390625-.367188-.363281-.828125-.546875-1.390625-.546875-.242187 0-.53125.042969-.875.125l.140625-1.078125c.082031.011719.144531.015625.1875.015625.53125 0 1.003906-.132812 1.421875-.40625.414063-.269531.625-.691406.625-1.265625 0-.445313-.152344-.816406-.453125-1.109375-.304688-.300781-.699219-.453125-1.1875-.453125-.480469 0-.882812.152344-1.203125.453125-.3125.292969-.515625.742188-.609375 1.34375l-1.21875-.21875c.144531-.820312.484375-1.457031 1.015625-1.90625.53125-.457031 1.191406-.6875 1.984375-.6875.550781 0 1.054688.121094 1.515625.359375.457031.230469.804687.546875 1.046875.953125.25.40625.375.839844.375 1.296875 0 .429687-.117188.820313-.34375 1.171875-.230469.355469-.574219.640625-1.03125.859375.59375.136719 1.050781.417969 1.375.84375.332031.429687.5.96875.5 1.625 0 .875-.324219 1.617187-.96875 2.21875-.636719.605469-1.4375.90625-2.40625.90625-.886719 0-1.621094-.2578125-2.203125-.78125-.574219-.519531-.902344-1.195313-.984375-2.03125zm0 0"/></symbol><symbol id="n" overflow="visible"><path d="m.578125-2.625 1.296875-.109375c.09375.625.3125 1.101563.65625 1.421875.351562.3125.773438.46875 1.265625.46875.59375 0 1.09375-.222656 1.5-.671875.414063-.445313.625-1.035156.625-1.765625 0-.707031-.199219-1.265625-.59375-1.671875-.398437-.40625-.914063-.609375-1.546875-.609375-.398438 0-.757812.09375-1.078125.28125-.3125.179688-.5625.40625-.75.6875l-1.15625-.140625.96875-5.15625h4.984375v1.1875h-4l-.53125 2.6875c.601562-.414063 1.234375-.625 1.890625-.625.875 0 1.609375.304687 2.203125.90625.601562.605469.90625 1.386719.90625 2.34375 0 .90625-.261719 1.6875-.78125 2.34375-.648438.8125-1.527344 1.21875-2.640625 1.21875-.90625 0-1.652344-.2539062-2.234375-.765625-.574219-.507812-.902344-1.1875-.984375-2.03125zm0 0"/></symbol><symbol id="o" overflow="visible"><path d="m1.15625 0v-10.015625h6.75v1.171875h-5.4375v3.109375h4.703125v1.1875h-4.703125v4.546875zm0 0"/></symbol><symbol id="p" overflow="visible"><path d="m5.890625-2.34375 1.28125.15625c-.210937.75-.585937 1.335938-1.125 1.75-.542969.40625-1.234375.609375-2.078125.609375-1.0625 0-1.90625-.328125-2.53125-.984375-.617188-.65625-.921875-1.570312-.921875-2.75 0-1.226562.3125-2.175781.9375-2.84375.632813-.675781 1.453125-1.015625 2.453125-1.015625.96875 0 1.757812.335937 2.375 1 .613281.65625.921875 1.585937.921875 2.78125v.328125h-5.421875c.050781.792969.273438 1.402344.671875 1.828125.40625.429687.914063.640625 1.53125.640625.445313 0 .828125-.117188 1.140625-.359375.320312-.238281.578125-.617187.765625-1.140625zm-4.03125-1.984375h4.046875c-.054688-.613281-.210938-1.070313-.46875-1.375-.386719-.46875-.890625-.703125-1.515625-.703125-.574219 0-1.054687.1875-1.4375.5625-.375.375-.585937.882812-.625 1.515625zm0 0"/></symbol><symbol id="q" overflow="visible"><path d="m.90625 0v-7.265625h1.109375v1.109375c.28125-.519531.539063-.859375.78125-1.015625.238281-.164063.503906-.25.796875-.25.414062 0 .835938.132813 1.265625.390625l-.421875 1.140625c-.304688-.175781-.605469-.265625-.90625-.265625-.273438 0-.515625.085938-.734375.25-.210937.15625-.359375.382812-.453125.671875-.136719.4375-.203125.917969-.203125 1.4375v3.796875zm0 0"/></symbol><symbol id="r" overflow="visible"><path d="m5.65625-.890625c-.449219.386719-.886719.664063-1.3125.828125-.417969.15625-.871094.234375-1.359375.234375-.792969 0-1.40625-.1914062-1.84375-.578125-.429687-.394531-.640625-.898438-.640625-1.515625 0-.351563.078125-.675781.234375-.96875.164063-.289063.378906-.523437.640625-.703125.269531-.175781.566406-.3125.890625-.40625.238281-.0625.601563-.125 1.09375-.1875 1-.113281 1.734375-.253906 2.203125-.421875 0-.164063 0-.269531 0-.3125 0-.507813-.117188-.863281-.34375-1.0625-.3125-.28125-.78125-.421875-1.40625-.421875-.574219 0-1 .105469-1.28125.3125-.273438.199219-.476562.554688-.609375 1.0625l-1.203125-.15625c.101562-.519531.28125-.9375.53125-1.25.257812-.3125.625-.550781 1.09375-.71875.476562-.175781 1.03125-.265625 1.65625-.265625.613281 0 1.113281.074219 1.5.21875.382812.148437.664062.328125.84375.546875.1875.21875.316406.5.390625.84375.039063.210938.0625.585938.0625 1.125v1.640625c0 1.148437.023437 1.871094.078125 2.171875.050781.304688.15625.59375.3125.875h-1.28125c-.125-.257812-.210938-.554688-.25-.890625zm-.09375-2.75c-.449219.179687-1.121094.335937-2.015625.46875-.5.074219-.859375.15625-1.078125.25-.210938.085937-.371094.214844-.484375.390625-.117187.179688-.171875.371094-.171875.578125 0 .335937.125.609375.375.828125s.613281.328125 1.09375.328125c.476562 0 .898438-.101563 1.265625-.3125.363281-.207031.632813-.492187.8125-.859375.132813-.269531.203125-.675781.203125-1.21875zm0 0"/></symbol><symbol id="s" overflow="visible"><path d="m1.078125 0v-10.015625h3.78125c.664063 0 1.175781.03125 1.53125.09375.488281.085937.898437.242187 1.234375.46875.332031.230469.597656.554687.796875.96875.207031.40625.3125.859375.3125 1.359375 0 .855469-.273437 1.578125-.8125 2.171875-.542969.585937-1.523437.875-2.9375.875h-2.578125v4.078125zm1.328125-5.25h2.59375c.851562 0 1.457031-.160156 1.8125-.484375.363281-.320313.546875-.769531.546875-1.34375 0-.425781-.105469-.785156-.3125-1.078125-.210937-.300781-.492187-.5-.84375-.59375-.21875-.0625-.632813-.09375-1.234375-.09375h-2.5625zm0 0"/></symbol><symbol id="t" overflow="visible"><path d="m.875 2.796875-.140625-1.15625c.269531.070313.503906.109375.703125.109375.269531 0 .488281-.046875.65625-.140625.164062-.085937.300781-.210937.40625-.375.070312-.125.195312-.433594.375-.921875.019531-.0625.054688-.164062.109375-.296875l-2.765625-7.28125h1.328125l1.515625 4.203125c.195312.542969.375 1.105469.53125 1.6875.132812-.5625.300781-1.113281.5-1.65625l1.546875-4.234375h1.234375l-2.765625 7.390625c-.292969.789062-.523437 1.335938-.6875 1.640625-.21875.40625-.46875.703125-.75.890625-.28125.195312-.621094.296875-1.015625.296875-.230469 0-.492188-.054687-.78125-.15625zm0 0"/></symbol><symbol id="u" overflow="visible"><path d="m.921875 0v-7.265625h1.109375v1.03125c.21875-.363281.515625-.648437.890625-.859375.382813-.21875.816406-.328125 1.296875-.328125.539062 0 .984375.117187 1.328125.34375.34375.21875.585937.527344.734375.921875.570312-.84375 1.316406-1.265625 2.234375-1.265625.71875 0 1.269531.199219 1.65625.59375.394531.398437.59375 1.011719.59375 1.84375v4.984375h-1.234375v-4.578125c0-.488281-.042969-.84375-.125-1.0625-.074219-.21875-.214844-.390625-.421875-.515625-.210937-.132812-.453125-.203125-.734375-.203125-.511719 0-.9375.171875-1.28125.515625-.335938.335938-.5.875-.5 1.625v4.21875h-1.234375v-4.71875c0-.539062-.101563-.945312-.296875-1.21875-.199219-.28125-.527344-.421875-.984375-.421875-.34375 0-.667969.09375-.96875.28125-.292969.179687-.507813.445313-.640625.796875-.125.34375-.1875.851562-.1875 1.515625v3.765625zm0 0"/></symbol><symbol id="v" overflow="visible"><path d="m.921875 2.78125v-10.046875h1.125v.953125c.257813-.375.554687-.648438.890625-.828125.332031-.1875.738281-.28125 1.21875-.28125.613281 0 1.15625.164063 1.625.484375.476562.3125.835938.761719 1.078125 1.34375.238281.585938.359375 1.21875.359375 1.90625 0 .742188-.136719 1.414062-.40625 2.015625-.261719.59375-.648438 1.054687-1.15625 1.375-.5.3125-1.03125.46875-1.59375.46875-.40625 0-.777344-.0898438-1.109375-.265625-.324219-.175781-.589844-.394531-.796875-.65625v3.53125zm1.109375-6.375c0 .9375.1875 1.632812.5625 2.078125.382812.449219.847656.671875 1.390625.671875.539063 0 1.003906-.226562 1.390625-.6875.394531-.46875.59375-1.1875.59375-2.15625 0-.925781-.195312-1.617188-.578125-2.078125-.375-.457031-.828125-.6875-1.359375-.6875-.523438 0-.984375.246094-1.390625.734375-.40625.492188-.609375 1.199219-.609375 2.125zm0 0"/></symbol><symbol id="w" overflow="visible"><path d="m.703125.609375 1.1875.171875c.050781.363281.191406.632812.421875.8125.300781.21875.71875.328125 1.25.328125.570312 0 1.007812-.117187 1.3125-.34375.3125-.21875.523438-.539063.640625-.953125.0625-.25.085937-.773438.078125-1.578125-.53125.636719-1.199219.953125-2 .953125-1 0-1.777344-.359375-2.328125-1.078125-.542969-.71875-.8125-1.582031-.8125-2.59375 0-.6875.125-1.320313.375-1.90625.25-.59375.609375-1.046875 1.078125-1.359375.476562-.320312 1.039062-.484375 1.6875-.484375.851562 0 1.5625.34375 2.125 1.03125v-.875h1.125v6.28125c0 1.132813-.117188 1.9375-.34375 2.40625-.230469.46875-.59375.835937-1.09375 1.109375-.5.28125-1.117188.421875-1.84375.421875-.867188 0-1.5625-.199219-2.09375-.59375-.53125-.386719-.789062-.96875-.765625-1.75zm1.015625-4.375c0 .960937.1875 1.65625.5625 2.09375s.847656.65625 1.421875.65625c.5625 0 1.035156-.21875 1.421875-.65625.382812-.4375.578125-1.117187.578125-2.046875 0-.882812-.199219-1.550781-.59375-2-.398437-.457031-.871094-.6875-1.421875-.6875-.554688 0-1.023438.226562-1.40625.671875-.375.4375-.5625 1.09375-.5625 1.96875zm0 0"/></symbol><path d="m9056.68721 70159.560255h66851.607236v32496.12396h-66851.607236zm0 0" fill="#c9daf8" stroke="#666" stroke-linejoin="round" stroke-miterlimit="14.336" stroke-width="762" transform="scale(.0019685)"/><g><use x="31.511" xlink:href="#a" y="175.285"/><use x="39.295" xlink:href="#b" y="175.285"/><use x="46.295" xlink:href="#a" y="175.285"/><use x="54.079" xlink:href="#c" y="175.285"/><use x="57.957" xlink:href="#d" y="175.285"/><use x="64.957" xlink:href="#e" y="175.285"/><use x="72.741" xlink:href="#f" y="175.285"/><use x="80.525" xlink:href="#g" y="175.285"/><use x="87.525" xlink:href="#e" y="175.285"/><use x="95.309" xlink:href="#h" y="175.285"/><use x="98.417" xlink:href="#i" y="175.285"/><use x="106.201" xlink:href="#j" y="175.285"/><use x="110.079" xlink:href="#k" y="175.285"/><use x="113.187" xlink:href="#e" y="175.285"/><use x="120.971" xlink:href="#f" y="175.285"/><use x="128.755" xlink:href="#l" y="175.285"/></g><path d="m99456.871817 49918.935903h66851.60723599998v32496.12396000001h-66851.60723599998zm0 0" fill="#c9daf8" stroke="#666" stroke-linejoin="round" stroke-miterlimit="14.336" stroke-width="762" transform="scale(.0019685)"/><g><use x="209.463" xlink:href="#m" y="135.44"/><use x="217.247" xlink:href="#b" y="135.44"/><use x="224.247" xlink:href="#m" y="135.44"/><use x="232.031" xlink:href="#c" y="135.44"/><use x="235.909" xlink:href="#d" y="135.44"/><use x="242.909" xlink:href="#e" y="135.44"/><use x="250.693" xlink:href="#f" y="135.44"/><use x="258.477" xlink:href="#g" y="135.44"/><use x="265.477" xlink:href="#e" y="135.44"/><use x="273.261" xlink:href="#h" y="135.44"/><use x="276.369" xlink:href="#i" y="135.44"/><use x="284.153" xlink:href="#j" y="135.44"/><use x="288.031" xlink:href="#k" y="135.44"/><use x="291.139" xlink:href="#e" y="135.44"/><use x="298.923" xlink:href="#f" y="135.44"/><use x="306.707" xlink:href="#l" y="135.44"/></g><path d="m177782.134936 49918.935903h66853.59161100001v32496.12396000001h-66853.59161100001zm0 0" fill="#c9daf8" stroke="#666" stroke-linejoin="round" stroke-miterlimit="14.336" stroke-width="762" transform="scale(.0019685)"/><g><use x="363.65" xlink:href="#n" y="135.44"/><use x="371.434" xlink:href="#b" y="135.44"/><use x="378.434" xlink:href="#n" y="135.44"/><use x="386.218" xlink:href="#c" y="135.44"/><use x="390.096" xlink:href="#d" y="135.44"/><use x="397.096" xlink:href="#e" y="135.44"/><use x="404.88" xlink:href="#f" y="135.44"/><use x="412.664" xlink:href="#g" y="135.44"/><use x="419.664" xlink:href="#e" y="135.44"/><use x="427.448" xlink:href="#h" y="135.44"/><use x="430.556" xlink:href="#i" y="135.44"/><use x="438.34" xlink:href="#j" y="135.44"/><use x="442.218" xlink:href="#k" y="135.44"/><use x="445.326" xlink:href="#e" y="135.44"/><use x="453.11" xlink:href="#f" y="135.44"/><use x="460.894" xlink:href="#l" y="135.44"/></g><path d="m108739.77777 3496.468638h66851.607236v32494.13958500001h-66851.607236zm0 0" fill="#d9ead3" stroke="#666" stroke-linejoin="round" stroke-miterlimit="14.336" stroke-width="762" transform="scale(.0019685)"/><g><use x="264.308" xlink:href="#o" y="35.805"/><use x="272.848" xlink:href="#k" y="35.805"/><use x="275.956" xlink:href="#h" y="35.805"/><use x="279.064" xlink:href="#j" y="35.805"/><use x="282.942" xlink:href="#p" y="35.805"/><use x="290.726" xlink:href="#q" y="35.805"/><use x="295.388" xlink:href="#c" y="35.805"/></g><g><use x="236.289" xlink:href="#d" y="52.305"/><use x="243.289" xlink:href="#e" y="52.305"/><use x="251.073" xlink:href="#f" y="52.305"/><use x="258.857" xlink:href="#d" y="52.305"/><use x="265.857" xlink:href="#r" y="52.305"/><use x="273.641" xlink:href="#j" y="52.305"/><use x="277.519" xlink:href="#p" y="52.305"/><use x="285.303" xlink:href="#f" y="52.305"/><use x="293.087" xlink:href="#r" y="52.305"/><use x="300.871" xlink:href="#j" y="52.305"/><use x="304.749" xlink:href="#k" y="52.305"/><use x="307.857" xlink:href="#e" y="52.305"/><use x="315.641" xlink:href="#f" y="52.305"/></g><path d="m108739.77777 133230.933237h66851.607236v32496.12396h-66851.607236zm0 0" fill="#d9ead3" stroke="#666" stroke-linejoin="round" stroke-miterlimit="14.336" stroke-width="762" transform="scale(.0019685)"/><g><use x="235.528" xlink:href="#s" y="299.439"/><use x="244.852" xlink:href="#q" y="299.439"/><use x="249.514" xlink:href="#p" y="299.439"/><use x="257.298" xlink:href="#g" y="299.439"/><use x="264.298" xlink:href="#k" y="299.439"/><use x="267.406" xlink:href="#e" y="299.439"/><use x="275.19" xlink:href="#i" y="299.439"/><use x="282.974" xlink:href="#l" y="299.439"/><use x="289.974" xlink:href="#c" y="299.439"/><use x="293.852" xlink:href="#h" y="299.439"/><use x="296.96" xlink:href="#r" y="299.439"/><use x="304.744" xlink:href="#t" y="299.439"/><use x="311.744" xlink:href="#p" y="299.439"/><use x="319.528" xlink:href="#q" y="299.439"/></g><path d="m42481.498641 70159.560255 95359.137573-32680.670829" fill="none" stroke="#666" stroke-linejoin="round" stroke-miterlimit="14.336" stroke-width="762" transform="scale(.0019685)"/><path d="m138249.417451 38669.51438800001 2863.45303300003-2311.796801-3679.031132-69.453123zm0 0" fill="#666" fill-rule="evenodd" stroke="#666" stroke-miterlimit="11.474" stroke-width="762" transform="scale(.0019685)"/><path d="m132881.683248 49918.935903 6752.82790900001-10128.249676" fill="none" stroke="#666" stroke-linejoin="round" stroke-miterlimit="14.336" stroke-width="762" transform="scale(.0019685)"/><path d="m140680.276748 40489.186204 871.14059699999-3575.843635-2964.656155 2178.84368zm0 0" fill="#666" fill-rule="evenodd" stroke="#666" stroke-miterlimit="11.474" stroke-width="762" transform="scale(.0019685)"/><path d="m211208.930741 49918.935903-64565.60730899998-13027.421459" fill="none" stroke="#666" stroke-linejoin="round" stroke-miterlimit="14.336" stroke-width="762" transform="scale(.0019685)"/><path d="m146891.370299 35657.233234-3639.34363300001 549.671857 3141.26552400002 1918.890564zm0 0" fill="#666" fill-rule="evenodd" stroke="#666" stroke-miterlimit="11.474" stroke-width="762" transform="scale(.0019685)"/><path d="m259455.038572 90404.153357h66851.60723600001v32496.12396h-66851.60723600001zm0 0" fill="#f4cccc" stroke="#ea9999" stroke-linejoin="round" stroke-miterlimit="14.336" stroke-width="762" transform="scale(.0019685)"/><g><use x="525.59" xlink:href="#m" y="215.134"/><use x="533.374" xlink:href="#b" y="215.134"/><use x="540.374" xlink:href="#m" y="215.134"/><use x="548.158" xlink:href="#c" y="215.134"/><use x="552.036" xlink:href="#u" y="215.134"/><use x="563.698" xlink:href="#r" y="215.134"/><use x="571.482" xlink:href="#b" y="215.134"/><use x="578.482" xlink:href="#c" y="215.134"/><use x="582.36" xlink:href="#v" y="215.134"/><use x="590.144" xlink:href="#e" y="215.134"/><use x="597.928" xlink:href="#e" y="215.134"/><use x="605.712" xlink:href="#h" y="215.134"/><use x="608.82" xlink:href="#k" y="215.134"/><use x="611.928" xlink:href="#f" y="215.134"/><use x="619.712" xlink:href="#w" y="215.134"/></g><path d="m142166.573576 133230.933237 146159.135948-10019.10905499999" fill="none" stroke="#666" stroke-linejoin="round" stroke-miterlimit="14.336" stroke-width="762" transform="scale(.0019685)"/><path d="m288411.037646 124465.949142 3363.51551699999-1492.249952-3536.15613699995-1017.984343zm0 0" fill="#666" fill-rule="evenodd" stroke="#666" stroke-miterlimit="11.474" stroke-width="762" transform="scale(.0019685)"/><path d="m99456.871817 90404.153357h66851.60723599998v32496.12396h-66851.60723599998zm0 0" fill="#fff2cc" stroke="#666" stroke-linejoin="round" stroke-miterlimit="14.336" stroke-width="762" transform="scale(.0019685)"/><g><use x="209.463" xlink:href="#a" y="215.134"/><use x="217.247" xlink:href="#b" y="215.134"/><use x="224.247" xlink:href="#a" y="215.134"/><use x="232.031" xlink:href="#c" y="215.134"/><use x="235.909" xlink:href="#d" y="215.134"/><use x="242.909" xlink:href="#e" y="215.134"/><use x="250.693" xlink:href="#f" y="215.134"/><use x="258.477" xlink:href="#g" y="215.134"/><use x="265.477" xlink:href="#e" y="215.134"/><use x="273.261" xlink:href="#h" y="215.134"/><use x="276.369" xlink:href="#i" y="215.134"/><use x="284.153" xlink:href="#j" y="215.134"/><use x="288.031" xlink:href="#k" y="215.134"/><use x="291.139" xlink:href="#e" y="215.134"/><use x="298.923" xlink:href="#f" y="215.134"/><use x="306.707" xlink:href="#l" y="215.134"/></g><path d="m177782.134936 90404.153357h66853.59161100001v32496.12396h-66853.59161100001zm0 0" fill="#fff2cc" stroke="#666" stroke-linejoin="round" stroke-miterlimit="14.336" stroke-width="762" transform="scale(.0019685)"/><g><use x="363.65" xlink:href="#a" y="215.134"/><use x="371.434" xlink:href="#b" y="215.134"/><use x="378.434" xlink:href="#a" y="215.134"/><use x="386.218" xlink:href="#c" y="215.134"/><use x="390.096" xlink:href="#d" y="215.134"/><use x="397.096" xlink:href="#e" y="215.134"/><use x="404.88" xlink:href="#f" y="215.134"/><use x="412.664" xlink:href="#g" y="215.134"/><use x="419.664" xlink:href="#e" y="215.134"/><use x="427.448" xlink:href="#h" y="215.134"/><use x="430.556" xlink:href="#i" y="215.134"/><use x="438.34" xlink:href="#j" y="215.134"/><use x="442.218" xlink:href="#k" y="215.134"/><use x="445.326" xlink:href="#e" y="215.134"/><use x="453.11" xlink:href="#f" y="215.134"/><use x="460.894" xlink:href="#l" y="215.134"/></g><path d="m259455.038572 49918.935903h66851.60723600001v32496.12396000001h-66851.60723600001zm0 0" fill="#fff2cc" stroke="#666" stroke-linejoin="round" stroke-miterlimit="14.336" stroke-width="762" transform="scale(.0019685)"/><g><use x="524.422" xlink:href="#a" y="135.441"/><use x="532.206" xlink:href="#b" y="135.441"/><use x="539.206" xlink:href="#a" y="135.441"/><use x="546.99" xlink:href="#c" y="135.441"/><use x="550.868" xlink:href="#d" y="135.441"/><use x="557.868" xlink:href="#e" y="135.441"/><use x="565.652" xlink:href="#f" y="135.441"/><use x="573.436" xlink:href="#g" y="135.441"/><use x="580.436" xlink:href="#e" y="135.441"/><use x="588.22" xlink:href="#h" y="135.441"/><use x="591.328" xlink:href="#i" y="135.441"/><use x="599.112" xlink:href="#j" y="135.441"/><use x="602.99" xlink:href="#k" y="135.441"/><use x="606.098" xlink:href="#e" y="135.441"/><use x="613.882" xlink:href="#f" y="135.441"/><use x="621.666" xlink:href="#l" y="135.441"/></g><g stroke-width="762"><path d="m132881.683248 90404.153357v-3421.06239000001" fill="none" stroke="#666" stroke-linejoin="round" stroke-miterlimit="14.336" transform="scale(.0019685)"/><path d="m134139.776958 86983.090967-1258.09371000002-3456.78113999999-1258.09370999999 3456.78113999999zm0 0" fill="#666" fill-rule="evenodd" stroke="#666" stroke-miterlimit="11.474" transform="scale(.0019685)"/><path d="m211208.930741 90404.153357v-3421.06239000001" fill="none" stroke="#666" stroke-linejoin="round" stroke-miterlimit="14.336" transform="scale(.0019685)"/><path d="m212467.024451 86983.090967-1258.09371000002-3456.78113999999-1258.09370899998 3456.78113999999zm0 0" fill="#666" fill-rule="evenodd" stroke="#666" stroke-miterlimit="11.474" transform="scale(.0019685)"/><path d="m292881.834378 90408.122107v-3421.062391" fill="none" stroke="#666" stroke-linejoin="round" stroke-miterlimit="14.336" transform="scale(.0019685)"/><path d="m294139.928088 86987.059716-1258.09370999999-3456.781139-1260.07808499999 3456.781139zm0 0" fill="#666" fill-rule="evenodd" stroke="#666" stroke-miterlimit="11.474" transform="scale(.0019685)"/><path d="m143490.151658 133482.948854-7371.95288899998-7354.09351499999" fill="none" stroke="#666" stroke-linejoin="round" stroke-miterlimit="14.336" transform="scale(.0019685)"/><path d="m137007.198741 125237.870992-3335.734268-1551.7812 1557.734325 3333.749893zm0 0" fill="#666" fill-rule="evenodd" stroke="#666" stroke-miterlimit="11.474" transform="scale(.0019685)"/><path d="m142166.573576 133230.933237 64525.91980999999-9655.96844099999" fill="none" stroke="#666" stroke-linejoin="round" stroke-miterlimit="14.336" transform="scale(.0019685)"/><path d="m206879.02463 124819.167881 3232.54677099999-1756.171819-3605.60925899999-732.234352zm0 0" fill="#666" fill-rule="evenodd" stroke="#666" stroke-miterlimit="11.474" transform="scale(.0019685)"/><path d="m142166.573576 133230.933237c0-3536.15613699998-24921.764828-3250.40614599999-49843.52965499999-7072.312274-12459.89022700001-1910.953064-24919.780453-4849.812345-34266.18640400001-8778.874719-4671.2186-1964.531187-8566.546601-4177.109241-11291.093389-6631.781038-682.624978-615.15622999999-1289.843708-1244.20308499999-1819.671816-1887.14056499999-263.921867-323.453114-509.984359-648.890604-734.218727-978.296843-111.124996-164.70311999999-218.281243-331.390615-321.468739-498.07810899999-49.609374-83.343748-99.218747-166.68749500001-148.828121-250.031242l-39.687498-73.421873" fill="none" stroke="#666" stroke-linejoin="round" stroke-miterlimit="14.336" transform="scale(.0019685)"/><path d="m44914.342313 106725.63721-2135.187432-2998.390529-291.703116 3669.10925699999zm0 0" fill="#666" fill-rule="evenodd" stroke="#666" stroke-miterlimit="11.474" transform="scale(.0019685)"/><path d="m292881.834378 49918.935903-146169.057823-13509.624568" fill="none" stroke="#666" stroke-linejoin="round" stroke-miterlimit="14.336" transform="scale(.0019685)"/><path d="m146829.854676 35155.186375-3559.96863599998 934.640595 3327.79676899998 1571.62495zm0 0" fill="#666" fill-rule="evenodd" stroke="#666" stroke-miterlimit="11.474" transform="scale(.0019685)"/></g></svg>