<svg height="400pt" viewBox="0 0 600 400" width="600pt" xmlns="http://www.w3.org/2000/svg" xmlns:xlink="http://www.w3.org/1999/xlink"><symbol id="a" overflow="visible"><path d="m3.515625-9.09375c1.175781 0 2.023437.484375 2.546875 1.453125.40625.75.609375 1.777344.609375 3.078125 0 1.242188-.183594 2.265625-.546875 3.078125-.53125 1.15625-1.402344 1.734375-2.609375 1.734375-1.09375 0-1.90625-.472656-2.4375-1.421875-.449219-.789063-.671875-1.851563-.671875-3.1875 0-1.03125.132812-1.914063.40625-2.65625.5-1.382813 1.398438-2.078125 2.703125-2.078125zm-.015625 8.296875c.59375 0 1.066406-.257813 1.421875-.78125.351563-.53125.53125-1.507813.53125-2.9375 0-1.03125-.132813-1.878906-.390625-2.546875-.25-.664062-.742188-1-1.46875-1-.679688 0-1.171875.320312-1.484375.953125-.3125.636719-.46875 1.570313-.46875 2.796875 0 .929688.097656 1.671875.296875 2.234375.3125.855469.832031 1.28125 1.5625 1.28125zm0 0"/></symbol><symbol id="b" overflow="visible"><path d="m1.25-6.4375v-.875c.820312-.082031 1.394531-.21875 1.71875-.40625.320312-.1875.566406-.628906.734375-1.328125h.90625v9.046875h-1.21875v-6.4375zm0 0"/></symbol><symbol id="c" overflow="visible"><path d="m.40625 0c.039062-.78125.203125-1.457031.484375-2.03125.28125-.582031.832031-1.113281 1.65625-1.59375l1.21875-.703125c.539063-.320313.921875-.59375 1.140625-.8125.34375-.351563.515625-.753906.515625-1.203125 0-.53125-.164063-.953125-.484375-1.265625-.3125-.3125-.730469-.46875-1.25-.46875-.792969 0-1.335938.296875-1.625.890625-.167969.324219-.257812.765625-.265625 1.328125h-1.171875c.007812-.789063.15625-1.4375.4375-1.9375.5-.882813 1.375-1.328125 2.625-1.328125 1.039062 0 1.800781.28125 2.28125.84375.476562.5625.71875 1.1875.71875 1.875 0 .730469-.257812 1.355469-.765625 1.875-.292969.304688-.824219.667969-1.59375 1.09375l-.875.484375c-.40625.230469-.730469.449219-.96875.65625-.429687.367187-.695313.773437-.796875 1.21875h4.953125v1.078125zm0 0"/></symbol><symbol id="d" overflow="visible"><path d="m3.375.25c-1.074219 0-1.855469-.296875-2.34375-.890625-.480469-.59375-.71875-1.3125-.71875-2.15625h1.1875c.050781.59375.160156 1.023437.328125 1.28125.300781.480469.835937.71875 1.609375.71875.601562 0 1.085938-.160156 1.453125-.484375.363281-.320312.546875-.734375.546875-1.234375 0-.625-.195312-1.0625-.578125-1.3125-.386719-.25-.917969-.375-1.59375-.375-.074219 0-.152344 0-.234375 0-.085938 0-.164062 0-.234375 0v-1c.113281.011719.210937.023437.296875.03125h.265625c.425781 0 .773437-.066406 1.046875-.203125.476562-.238281.71875-.660156.71875-1.265625 0-.457031-.164062-.804687-.484375-1.046875-.3125-.25-.6875-.375-1.125-.375-.761719 0-1.289063.257812-1.578125.765625-.15625.28125-.246094.679687-.265625 1.1875h-1.125c0-.675781.132813-1.25.40625-1.71875.457031-.851563 1.273437-1.28125 2.453125-1.28125.925781 0 1.640625.210937 2.140625.625.507813.417969.765625 1.015625.765625 1.796875 0 .554688-.152344 1.007812-.453125 1.359375-.179687.210937-.417969.375-.71875.5.476563.136719.851563.390625 1.125.765625.269531.375.40625.835938.40625 1.375 0 .867188-.289063 1.574219-.859375 2.125-.574219.5429688-1.386719.8125-2.4375.8125zm0 0"/></symbol><symbol id="e" overflow="visible"><path d="m4.296875-3.21875v-4.125l-2.90625 4.125zm.015625 3.21875v-2.21875h-3.984375v-1.125l4.171875-5.765625h.953125v5.890625h1.34375v1h-1.34375v2.21875zm0 0"/></symbol><symbol id="f" overflow="visible"><path d="m1.609375-2.3125c.070313.648438.375 1.09375.90625 1.34375.269531.125.582031.1875.9375.1875.675781 0 1.175781-.210938 1.5-.640625.332031-.425781.5-.90625.5-1.4375 0-.632813-.199219-1.125-.59375-1.46875-.386719-.34375-.851563-.515625-1.390625-.515625-.398438 0-.734375.078125-1.015625.234375-.28125.148437-.523437.355469-.71875.625l-.984375-.0625.6875-4.890625h4.71875v1.109375h-3.859375l-.390625 2.515625c.21875-.15625.421875-.273438.609375-.359375.332031-.132813.722656-.203125 1.171875-.203125.832031 0 1.535156.273438 2.109375.8125.582031.53125.875 1.210938.875 2.03125 0 .867188-.265625 1.625-.796875 2.28125s-1.375.984375-2.53125.984375c-.742188 0-1.398438-.2109375-1.96875-.625-.574219-.414063-.890625-1.054687-.953125-1.921875zm0 0"/></symbol><symbol id="g" overflow="visible"><path d="m3.796875-9.125c1.019531 0 1.726563.265625 2.125.796875.40625.523437.609375 1.0625.609375 1.625h-1.140625c-.0625-.363281-.167969-.644531-.3125-.84375-.28125-.382813-.699219-.578125-1.25-.578125-.648437 0-1.15625.296875-1.53125.890625-.375.585937-.585937 1.429687-.625 2.53125.257813-.382813.585937-.671875.984375-.859375.363281-.175781.769531-.265625 1.21875-.265625.757812 0 1.421875.246094 1.984375.734375.570313.492188.859375 1.21875.859375 2.1875 0 .824219-.273438 1.554688-.8125 2.1875-.53125.6367188-1.292969.953125-2.28125.953125-.855469 0-1.59375-.3203125-2.21875-.96875-.617188-.644531-.921875-1.734375-.921875-3.265625 0-1.125.140625-2.082031.421875-2.875.519531-1.5 1.484375-2.25 2.890625-2.25zm-.078125 8.34375c.601562 0 1.050781-.203125 1.34375-.609375.300781-.40625.453125-.878906.453125-1.421875 0-.46875-.136719-.910156-.40625-1.328125-.261719-.425781-.746094-.640625-1.453125-.640625-.492188 0-.921875.167969-1.296875.5-.367187.324219-.546875.8125-.546875 1.46875 0 .574219.164062 1.058594.5 1.453125.34375.386719.8125.578125 1.40625.578125zm0 0"/></symbol><symbol id="h" overflow="visible"><path d="m.546875-4.203125h3.171875v1.171875h-3.171875zm0 0"/></symbol><symbol id="i" overflow="visible"><path d="m1.109375-1.390625h1.328125v1.390625h-1.328125zm0 0"/></symbol><symbol id="j" overflow="visible"><path d="m.25-8.890625h1.9375l2.03125 3.125 2.078125-3.125 1.8125.046875-3 4.28125 3.140625 4.5625h-1.921875l-2.203125-3.34375-2.140625 3.34375h-1.890625l3.125-4.5625zm0 0"/></symbol><symbol id="k" overflow="visible"><path d="m-2.796875-1.984375c.5-.039063.886719-.164063 1.15625-.375.480469-.375.71875-1.023437.71875-1.953125 0-.550781-.117187-1.035156-.359375-1.453125-.238281-.425781-.613281-.640625-1.125-.640625-.375 0-.660156.167969-.859375.5-.125.21875-.265625.648438-.421875 1.28125l-.3125 1.1875c-.1875.761719-.394531 1.320312-.625 1.671875-.40625.648437-.960938.96875-1.671875.96875-.84375 0-1.523437-.300781-2.046875-.90625-.519531-.601563-.78125-1.421875-.78125-2.453125 0-1.332031.398438-2.296875 1.1875-2.890625.492188-.375 1.027344-.554687 1.609375-.546875v1.421875c-.34375.023437-.648437.140625-.921875.359375-.394531.34375-.59375.9375-.59375 1.78125 0 .5625.109375.992188.328125 1.28125.210937.292969.492187.4375.84375.4375.398437 0 .710937-.191406.9375-.578125.136719-.21875.257813-.546875.359375-.984375l.25-.984375c.261719-1.070313.511719-1.789063.75-2.15625.386719-.582031.984375-.875 1.796875-.875.792969 0 1.480469.304687 2.0625.90625.5703125.605469.859375 1.523437.859375 2.75 0 1.3125-.3046875 2.246094-.90625 2.796875-.601562.554688-1.347656.851562-2.234375.890625zm-6.3125-2.203125"/></symbol><symbol id="l" overflow="visible"><path d="m-8.84375-1.09375v-1.515625h8.84375v1.515625zm-3.34375 0v-1.515625h1.6875v1.515625zm0 0"/></symbol><symbol id="m" overflow="visible"><path d="m-8.890625-1.09375v-1.421875h1.265625c-.519531-.414063-.894531-.859375-1.125-1.328125-.226562-.476562-.34375-1.003906-.34375-1.578125 0-1.257813.445312-2.113281 1.328125-2.5625.480469-.238281 1.167969-.359375 2.0625-.359375h5.703125v1.515625h-5.609375c-.539063 0-.976563.085937-1.3125.25-.550781.261719-.828125.742187-.828125 1.4375 0 .355469.039062.648437.109375.875.125.40625.371094.765625.734375 1.078125.292969.25.59375.414062.90625.484375.3125.074219.761719.109375 1.34375.109375h4.65625v1.5zm-.21875-3.515625"/></symbol><symbol id="n" overflow="visible"><path d="m-12.390625-5.03125c1.6875.867188 2.929687 1.429688 3.71875 1.6875 1.21875.398438 2.621094.59375 4.203125.59375 1.605469 0 3.074219-.222656 4.40625-.671875.8125-.269531 1.988281-.816406 3.53125-1.640625v1.015625c-1.261719.804687-2.070312 1.304687-2.421875 1.5-.34375.1875-.8125.398437-1.40625.625-.820313.3125-1.695313.53125-2.625.65625-.476563.0625-.9375.09375-1.375.09375-1.644531 0-3.101563-.257813-4.375-.78125-.820313-.320313-2.039063-1.003906-3.65625-2.046875zm0 0"/></symbol><symbol id="o" overflow="visible"><path d="m-8.890625-.25v-1.9375l3.125-2.03125-3.125-2.078125.046875-1.8125 4.28125 3 4.5625-3.140625v1.921875l-3.34375 2.203125 3.34375 2.140625v1.890625l-4.5625-3.125zm0 0"/></symbol><symbol id="p" overflow="visible"><path d="m3.46875-.59375c-1.71875-.875-2.96875-1.441406-3.75-1.703125-1.1875-.382813-2.582031-.578125-4.1875-.578125-1.59375 0-3.054688.226562-4.390625.671875-.8125.28125-1.988281.828125-3.53125 1.640625v-1c1.367187-.851562 2.210937-1.367188 2.53125-1.546875.3125-.1875.746094-.382813 1.296875-.59375.699219-.257813 1.386719-.445313 2.0625-.5625.667969-.113281 1.3125-.171875 1.9375-.171875 1.648438 0 3.109375.261719 4.390625.78125.820313.324219 2.035156 1 3.640625 2.03125zm0 0"/></symbol><path d="m0 0h600v400h-600z" fill="#fff"/><path d="m60.96875 356.398438h527.222656v-344.589844h-527.222656" fill="#fff" fill-rule="evenodd"/><g fill="none" stroke="#000" stroke-miterlimit="10" transform="matrix(1 0 0 -1 0 400)"><g stroke-opacity=".098039" stroke-width=".5"><path d="m75.890625 43.601562v344.589844"/><path d="m155.050781 43.601562v344.589844"/><path d="m234.210938 43.601562v344.589844"/><path d="m313.371094 43.601562v344.589844"/><path d="m392.53125 43.601562v344.589844"/><path d="m471.691406 43.601562v344.589844"/><path d="m550.851562 43.601562v344.589844"/><path d="m60.96875 53.328125h527.222656"/><path d="m60.96875 134.609375h527.222656"/><path d="m60.96875 215.890625h527.222656"/><path d="m60.96875 297.171875h527.222656"/><path d="m60.96875 378.460938h527.222656"/></g><path d="m60.96875 43.601562h527.222656"/><path d="m60.96875 43.601562v344.589844"/><path d="m75.890625 43.601562v5.160157"/><path d="m155.050781 43.601562v5.160157"/><path d="m234.210938 43.601562v5.160157"/><path d="m313.371094 43.601562v5.160157"/><path d="m392.53125 43.601562v5.160157"/><path d="m471.691406 43.601562v5.160157"/><path d="m550.851562 43.601562v5.160157"/><path d="m60.96875 53.328125h7.902344"/><path d="m60.96875 134.609375h7.902344"/><path d="m60.96875 215.890625h7.902344"/><path d="m60.96875 297.171875h7.902344"/><path d="m60.96875 378.460938h7.902344"/></g><use x="72.89" xlink:href="#a" y="370.2"/><use x="152.05" xlink:href="#b" y="370.2"/><use x="231.21" xlink:href="#c" y="370.2"/><use x="310.37" xlink:href="#d" y="370.2"/><use x="389.53" xlink:href="#e" y="370.2"/><use x="468.69" xlink:href="#f" y="370.2"/><use x="547.85" xlink:href="#g" y="370.2"/><use x="30.97" xlink:href="#h" y="351.17"/><use x="38.562" xlink:href="#b" y="351.17"/><use x="45.79" xlink:href="#i" y="351.17"/><use x="49.404" xlink:href="#a" y="351.17"/><use x="30.97" xlink:href="#h" y="269.89"/><use x="38.562" xlink:href="#a" y="269.89"/><use x="45.79" xlink:href="#i" y="269.89"/><use x="49.404" xlink:href="#f" y="269.89"/><use x="37.97" xlink:href="#a" y="188.61"/><use x="45.198" xlink:href="#i" y="188.61"/><use x="48.812" xlink:href="#a" y="188.61"/><use x="37.97" xlink:href="#a" y="107.33"/><use x="45.198" xlink:href="#i" y="107.33"/><use x="48.812" xlink:href="#f" y="107.33"/><use x="37.97" xlink:href="#b" y="26.04"/><use x="45.198" xlink:href="#i" y="26.04"/><use x="48.812" xlink:href="#a" y="26.04"/><use x="320.58" xlink:href="#j" y="389.87"/><use x="22.32" xlink:href="#k" y="204.11"/><use x="22.32" xlink:href="#l" y="195.61"/><use x="22.32" xlink:href="#m" y="191.836"/><use x="22.32" xlink:href="#n" y="182.384"/><use x="22.32" xlink:href="#o" y="176.723"/><use x="22.32" xlink:href="#p" y="168.223"/><path d="m75.890625 215.890625 5.019531 10.308594 5.03125 10.269531 5.019532 10.191406 5.019531 10.058594 5.03125 9.902344 5.019531 9.6875 5.027344 9.453125 5.019531 9.167969 5.023437 8.851562 5.027344 8.5 5.019532 8.109375 5.03125 7.679687 5.019531 7.238282 5.019531 6.761718 5.03125 6.238282 5.019531 5.722656 5.03125 5.160156 5.019531 4.578125 5.019532 3.980469 5.03125 3.378906 5.019531 2.742188 5.03125 2.117187 5.019531 1.472657 5.019532.808593 5.027343.171875 5.023438-.492187 5.027343-1.148438 5.019532-1.789062 5.019531-2.433594 5.03125-3.058594 5.019531-3.691406 5.03125-4.277344 5.019532-4.871093 5.019531-5.441407 5.03125-5.988281 5.019531-6.5 5.03125-7 5.019531-7.460938 5.027344-7.910156 5.023437-8.300781 5.019532-8.679687 5.027344-9.019532 5.023437-9.308594 5.027344-9.582031 5.019531-9.796875 5.019531-9.980468 5.03125-10.132813 5.019531-10.238281 5.03125-10.289063 5.019532-10.320312 5.019531-10.289063 5.03125-10.230468 5.019531-10.132813 5.03125-9.988281 5.019532-9.800782 5.019531-9.570312 5.03125-9.320312 5.019531-9.007813 5.027344-8.679687 5.019531-8.3125 5.023437-7.898438 5.027344-7.46875 5.019532-7 5.03125-6.5 5.019531-5.980469 5.019531-5.441406 5.03125-4.871094 5.019531-4.289062 5.03125-3.679688 5.019531-3.058593 5.019532-2.441407 5.03125-1.789062 5.019531-1.140625 5.03125-.488282 5.019531.160157 5.019532.816406 5.027343 1.472656 5.023438 2.109375 5.027343 2.75 5.019532 3.371094 5.019531 3.988281 5.03125 4.582031 5.019531 5.160157 5.03125 5.707031 5.019532 6.25 5.03125 6.75 5.019531 7.242188 5.019531 7.6875 5.03125 8.113281 5.019531 8.488281 5.027344 8.851562 5.023437 9.167969 5.019532 9.449219 5.027344 9.703125 5.023437 9.886719 5.027344 10.070312 5.019531 10.179688 5.019531 10.269531 5.03125 10.3125" fill="none" stroke="#009afa" stroke-dasharray="24 15" stroke-miterlimit="10" stroke-width="3" transform="matrix(1 0 0 -1 0 400)"/></svg>