<svg height="400pt" viewBox="0 0 600 400" width="600pt" xmlns="http://www.w3.org/2000/svg" xmlns:xlink="http://www.w3.org/1999/xlink"><symbol id="a" overflow="visible"><path d="m3.515625-9.09375c1.175781 0 2.023437.484375 2.546875 1.453125.40625.75.609375 1.777344.609375 3.078125 0 1.242188-.183594 2.265625-.546875 3.078125-.53125 1.15625-1.402344 1.734375-2.609375 1.734375-1.09375 0-1.90625-.472656-2.4375-1.421875-.449219-.789063-.671875-1.851563-.671875-3.1875 0-1.03125.132812-1.914063.40625-2.65625.5-1.382813 1.398438-2.078125 2.703125-2.078125zm-.015625 8.296875c.59375 0 1.066406-.257813 1.421875-.78125.351563-.53125.53125-1.507813.53125-2.9375 0-1.03125-.132813-1.878906-.390625-2.546875-.25-.664062-.742188-1-1.46875-1-.679688 0-1.171875.320312-1.484375.953125-.3125.636719-.46875 1.570313-.46875 2.796875 0 .929688.097656 1.671875.296875 2.234375.3125.855469.832031 1.28125 1.5625 1.28125zm0 0"/></symbol><symbol id="b" overflow="visible"><path d="m1.109375-1.390625h1.328125v1.390625h-1.328125zm0 0"/></symbol><symbol id="c" overflow="visible"><path d="m.40625 0c.039062-.78125.203125-1.457031.484375-2.03125.28125-.582031.832031-1.113281 1.65625-1.59375l1.21875-.703125c.539063-.320313.921875-.59375 1.140625-.8125.34375-.351563.515625-.753906.515625-1.203125 0-.53125-.164063-.953125-.484375-1.265625-.3125-.3125-.730469-.46875-1.25-.46875-.792969 0-1.335938.296875-1.625.890625-.167969.324219-.257812.765625-.265625 1.328125h-1.171875c.007812-.789063.15625-1.4375.4375-1.9375.5-.882813 1.375-1.328125 2.625-1.328125 1.039062 0 1.800781.28125 2.28125.84375.476562.5625.71875 1.1875.71875 1.875 0 .730469-.257812 1.355469-.765625 1.875-.292969.304688-.824219.667969-1.59375 1.09375l-.875.484375c-.40625.230469-.730469.449219-.96875.65625-.429687.367187-.695313.773437-.796875 1.21875h4.953125v1.078125zm0 0"/></symbol><symbol id="d" overflow="visible"><path d="m4.296875-3.21875v-4.125l-2.90625 4.125zm.015625 3.21875v-2.21875h-3.984375v-1.125l4.171875-5.765625h.953125v5.890625h1.34375v1h-1.34375v2.21875zm0 0"/></symbol><symbol id="e" overflow="visible"><path d="m3.796875-9.125c1.019531 0 1.726563.265625 2.125.796875.40625.523437.609375 1.0625.609375 1.625h-1.140625c-.0625-.363281-.167969-.644531-.3125-.84375-.28125-.382813-.699219-.578125-1.25-.578125-.648437 0-1.15625.296875-1.53125.890625-.375.585937-.585937 1.429687-.625 2.53125.257813-.382813.585937-.671875.984375-.859375.363281-.175781.769531-.265625 1.21875-.265625.757812 0 1.421875.246094 1.984375.734375.570313.492188.859375 1.21875.859375 2.1875 0 .824219-.273438 1.554688-.8125 2.1875-.53125.6367188-1.292969.953125-2.28125.953125-.855469 0-1.59375-.3203125-2.21875-.96875-.617188-.644531-.921875-1.734375-.921875-3.265625 0-1.125.140625-2.082031.421875-2.875.519531-1.5 1.484375-2.25 2.890625-2.25zm-.078125 8.34375c.601562 0 1.050781-.203125 1.34375-.609375.300781-.40625.453125-.878906.453125-1.421875 0-.46875-.136719-.910156-.40625-1.328125-.261719-.425781-.746094-.640625-1.453125-.640625-.492188 0-.921875.167969-1.296875.5-.367187.324219-.546875.8125-.546875 1.46875 0 .574219.164062 1.058594.5 1.453125.34375.386719.8125.578125 1.40625.578125zm0 0"/></symbol><symbol id="f" overflow="visible"><path d="m3.53125-5.28125c.507812 0 .90625-.140625 1.1875-.421875s.421875-.613281.421875-1c0-.34375-.136719-.65625-.40625-.9375-.273437-.28125-.683594-.421875-1.234375-.421875-.554688 0-.953125.140625-1.203125.421875-.242187.28125-.359375.617187-.359375 1 0 .429687.15625.761719.46875 1 .320312.242187.695312.359375 1.125.359375zm.078125 4.5c.53125 0 .96875-.140625 1.3125-.421875.351563-.289063.53125-.71875.53125-1.28125 0-.59375-.183594-1.039063-.546875-1.34375-.355469-.300781-.820312-.453125-1.390625-.453125-.542969 0-.984375.15625-1.328125.46875-.34375.304688-.515625.730469-.515625 1.28125 0 .480469.15625.890625.46875 1.234375s.800781.515625 1.46875.515625zm-1.625-4.0625c-.324219-.132812-.574219-.289062-.75-.46875-.335937-.34375-.5-.785156-.5-1.328125 0-.675781.242187-1.253906.734375-1.734375.488281-.488281 1.1875-.734375 2.09375-.734375.875 0 1.554688.230469 2.046875.6875.5.460937.75.996094.75 1.609375 0 .5625-.148437 1.023438-.4375 1.375-.15625.199219-.40625.390625-.75.578125.375.179687.671875.375.890625.59375.40625.429687.609375.980469.609375 1.65625 0 .804687-.273437 1.484375-.8125 2.046875-.542969.5546875-1.304687.828125-2.28125.828125-.886719 0-1.636719-.2421875-2.25-.71875-.605469-.488281-.90625-1.1875-.90625-2.09375 0-.539063.128906-1.003906.390625-1.390625.257812-.394531.648438-.695312 1.171875-.90625zm0 0"/></symbol><symbol id="g" overflow="visible"><path d="m3.375.25c-1.074219 0-1.855469-.296875-2.34375-.890625-.480469-.59375-.71875-1.3125-.71875-2.15625h1.1875c.050781.59375.160156 1.023437.328125 1.28125.300781.480469.835937.71875 1.609375.71875.601562 0 1.085938-.160156 1.453125-.484375.363281-.320312.546875-.734375.546875-1.234375 0-.625-.195312-1.0625-.578125-1.3125-.386719-.25-.917969-.375-1.59375-.375-.074219 0-.152344 0-.234375 0-.085938 0-.164062 0-.234375 0v-1c.113281.011719.210937.023437.296875.03125h.265625c.425781 0 .773437-.066406 1.046875-.203125.476562-.238281.71875-.660156.71875-1.265625 0-.457031-.164062-.804687-.484375-1.046875-.3125-.25-.6875-.375-1.125-.375-.761719 0-1.289063.257812-1.578125.765625-.15625.28125-.246094.679687-.265625 1.1875h-1.125c0-.675781.132813-1.25.40625-1.71875.457031-.851563 1.273437-1.28125 2.453125-1.28125.925781 0 1.640625.210937 2.140625.625.507813.417969.765625 1.015625.765625 1.796875 0 .554688-.152344 1.007812-.453125 1.359375-.179687.210937-.417969.375-.71875.5.476563.136719.851563.390625 1.125.765625.269531.375.40625.835938.40625 1.375 0 .867188-.289063 1.574219-.859375 2.125-.574219.5429688-1.386719.8125-2.4375.8125zm0 0"/></symbol><symbol id="h" overflow="visible"><path d="m1.609375-2.3125c.070313.648438.375 1.09375.90625 1.34375.269531.125.582031.1875.9375.1875.675781 0 1.175781-.210938 1.5-.640625.332031-.425781.5-.90625.5-1.4375 0-.632813-.199219-1.125-.59375-1.46875-.386719-.34375-.851563-.515625-1.390625-.515625-.398438 0-.734375.078125-1.015625.234375-.28125.148437-.523437.355469-.71875.625l-.984375-.0625.6875-4.890625h4.71875v1.109375h-3.859375l-.390625 2.515625c.21875-.15625.421875-.273438.609375-.359375.332031-.132813.722656-.203125 1.171875-.203125.832031 0 1.535156.273438 2.109375.8125.582031.53125.875 1.210938.875 2.03125 0 .867188-.265625 1.625-.796875 2.28125s-1.375.984375-2.53125.984375c-.742188 0-1.398438-.2109375-1.96875-.625-.574219-.414063-.890625-1.054687-.953125-1.921875zm0 0"/></symbol><symbol id="i" overflow="visible"><path d="m6.796875-8.9375v1c-.292969.28125-.683594.777344-1.171875 1.484375-.480469.699219-.90625 1.453125-1.28125 2.265625-.367188.792969-.640625 1.511719-.828125 2.15625-.125.429688-.289063 1.105469-.484375 2.03125h-1.265625c.289063-1.738281.925781-3.46875 1.90625-5.1875.582031-1 1.191406-1.863281 1.828125-2.59375h-5.03125v-1.15625zm0 0"/></symbol><symbol id="j" overflow="visible"><path d="m1.25-6.4375v-.875c.820312-.082031 1.394531-.21875 1.71875-.40625.320312-.1875.566406-.628906.734375-1.328125h.90625v9.046875h-1.21875v-6.4375zm0 0"/></symbol><symbol id="k" overflow="visible"><path d="m2.9375-4.859375c.039062.855469.238281 1.546875.59375 2.078125.675781 1 1.867188 1.5 3.578125 1.5.769531 0 1.46875-.109375 2.09375-.328125 1.21875-.425781 1.828125-1.1875 1.828125-2.28125 0-.8125-.257812-1.394531-.765625-1.75-.523437-.34375-1.335937-.640625-2.4375-.890625l-2.046875-.46875c-1.335938-.289062-2.277344-.617188-2.828125-.984375-.960937-.632813-1.4375-1.578125-1.4375-2.828125 0-1.351562.46875-2.460938 1.40625-3.328125.9375-.863281 2.265625-1.296875 3.984375-1.296875 1.570312 0 2.910156.382812 4.015625 1.140625 1.101563.761719 1.65625 1.980469 1.65625 3.65625h-1.90625c-.105469-.8125-.324219-1.429687-.65625-1.859375-.625-.78125-1.683594-1.171875-3.171875-1.171875-1.210938 0-2.078125.257813-2.609375.765625-.523437.5-.78125 1.085938-.78125 1.75 0 .742188.304687 1.28125.921875 1.625.40625.21875 1.316406.492188 2.734375.8125l2.125.484375c1.007813.230469 1.796875.546875 2.359375.953125.945312.710938 1.421875 1.730469 1.421875 3.0625 0 1.667969-.609375 2.859375-1.828125 3.578125-1.210938.71875-2.617188 1.078125-4.21875 1.078125-1.875 0-3.339844-.4765625-4.390625-1.4375-1.0625-.945312-1.585937-2.234375-1.5625-3.859375zm4.125-10.609375"/></symbol><symbol id="l" overflow="visible"><path d="m5.71875-1.1875c1.21875 0 2.050781-.460938 2.5-1.390625.457031-.925781.6875-1.957031.6875-3.09375 0-1.019531-.164062-1.851563-.484375-2.5-.523437-1.007813-1.417969-1.515625-2.6875-1.515625-1.125 0-1.949219.433594-2.46875 1.296875-.511719.855469-.765625 1.890625-.765625 3.109375 0 1.167969.253906 2.140625.765625 2.921875.519531.78125 1.335937 1.171875 2.453125 1.171875zm.0625-10.109375c1.414062 0 2.613281.476563 3.59375 1.421875.976562.9375 1.46875 2.324219 1.46875 4.15625 0 1.773438-.433594 3.234375-1.296875 4.390625-.867187 1.15625-2.203125 1.734375-4.015625 1.734375-1.511719 0-2.710938-.507812-3.59375-1.53125-.886719-1.03125-1.328125-2.40625-1.328125-4.125 0-1.84375.46875-3.3125 1.40625-4.40625s2.191406-1.640625 3.765625-1.640625zm-.0625.046875"/></symbol><symbol id="m" overflow="visible"><path d="m1.359375-10.984375h1.8125v1.5625c.4375-.539063.835937-.9375 1.203125-1.1875.601562-.414063 1.289062-.625 2.0625-.625.875 0 1.578125.21875 2.109375.65625.300781.242187.578125.601563.828125 1.078125.40625-.582031.882812-1.015625 1.4375-1.296875.5625-.289063 1.1875-.4375 1.875-.4375 1.476562 0 2.484375.539063 3.015625 1.609375.28125.574219.421875 1.34375.421875 2.3125v7.3125h-1.90625v-7.625c0-.726562-.1875-1.226562-.5625-1.5-.367188-.28125-.808594-.421875-1.328125-.421875-.730469 0-1.355469.246094-1.875.734375-.523437.480469-.78125 1.289062-.78125 2.421875v6.390625h-1.875v-7.171875c0-.738281-.089844-1.28125-.265625-1.625-.28125-.507813-.808594-.765625-1.578125-.765625-.699219 0-1.335937.273438-1.90625.8125-.5625.53125-.84375 1.507812-.84375 2.921875v5.828125h-1.84375zm0 0"/></symbol><symbol id="n" overflow="visible"><path d="m5.921875-11.234375c.78125 0 1.535156.1875 2.265625.5625.738281.367187 1.296875.835937 1.671875 1.40625.375.5625.625 1.210937.75 1.9375.101563.511719.15625 1.320313.15625 2.421875h-8.046875c.03125 1.117188.289062 2.011719.78125 2.6875.5.679688 1.265625 1.015625 2.296875 1.015625.957031 0 1.722656-.316406 2.296875-.953125.332031-.375.566406-.804688.703125-1.296875h1.8125c-.042969.40625-.199219.859375-.46875 1.359375-.273437.492188-.574219.898438-.90625 1.21875-.5625.542969-1.261719.90625-2.09375 1.09375-.4375.113281-.9375.171875-1.5.171875-1.367187 0-2.527344-.492187-3.484375-1.484375-.949219-1-1.421875-2.394531-1.421875-4.1875 0-1.757812.476563-3.191406 1.4375-4.296875.957031-1.101563 2.207031-1.65625 3.75-1.65625zm2.953125 4.859375c-.085938-.789062-.261719-1.425781-.53125-1.90625-.5-.894531-1.34375-1.34375-2.53125-1.34375-.84375 0-1.558594.308594-2.140625.921875-.574219.617187-.875 1.390625-.90625 2.328125zm-3.125-4.875"/></symbol><symbol id="o" overflow="visible"/><symbol id="p" overflow="visible"><path d="m1.40625-10.984375h1.75v1.90625c.144531-.375.5-.828125 1.0625-1.359375s1.207031-.796875 1.9375-.796875c.03125 0 .085938.007813.171875.015625.082031.011719.222656.027344.421875.046875v1.9375c-.117188-.019531-.21875-.03125-.3125-.03125-.085938-.007813-.183594-.015625-.296875-.015625-.929687 0-1.640625.304688-2.140625.90625-.5.59375-.75 1.28125-.75 2.0625v6.3125h-1.84375zm0 0"/></symbol><symbol id="q" overflow="visible"><path d="m2.765625-2.921875c0 .53125.191406.953125.578125 1.265625.394531.304688.859375.453125 1.390625.453125.65625 0 1.285156-.148437 1.890625-.453125 1.019531-.5 1.53125-1.316406 1.53125-2.453125v-1.484375c-.21875.148438-.511719.265625-.875.359375-.355469.09375-.699219.164063-1.03125.203125l-1.125.15625c-.667969.085938-1.167969.226562-1.5.421875-.574219.3125-.859375.824219-.859375 1.53125zm4.46875-3.734375c.425781-.050781.710937-.226562.859375-.53125.082031-.164062.125-.398438.125-.703125 0-.632813-.226562-1.09375-.671875-1.375-.449219-.28125-1.089844-.421875-1.921875-.421875-.96875 0-1.65625.261719-2.0625.78125-.21875.28125-.367188.710938-.4375 1.28125h-1.71875c.03125-1.351562.46875-2.296875 1.3125-2.828125s1.820312-.796875 2.9375-.796875c1.289062 0 2.34375.246094 3.15625.734375.800781.5 1.203125 1.265625 1.203125 2.296875v6.328125c0 .199219.035156.355469.109375.46875.082031.117187.25.171875.5.171875.082031 0 .171875-.003906.265625-.015625.101563-.007813.21875-.023437.34375-.046875v1.359375c-.292969.082031-.515625.132813-.671875.15625-.148438.019531-.351562.03125-.609375.03125-.636719 0-1.09375-.2265625-1.375-.671875-.15625-.238281-.265625-.578125-.328125-1.015625-.375.492187-.917969.917969-1.625 1.28125-.699219.363281-1.46875.546875-2.3125.546875-1.023438 0-1.855469-.3085938-2.5-.921875-.648438-.625-.96875-1.398437-.96875-2.328125 0-1.019531.316406-1.8125.953125-2.375.632813-.5625 1.46875-.90625 2.5-1.03125zm-1.515625-4.59375"/></symbol><symbol id="r" overflow="visible"><path d="m1.359375-10.984375h1.75v1.5625c.519531-.644531 1.066406-1.109375 1.640625-1.390625.582031-.28125 1.234375-.421875 1.953125-.421875 1.550781 0 2.601563.546875 3.15625 1.640625.300781.59375.453125 1.445312.453125 2.546875v7.046875h-1.890625v-6.921875c0-.664063-.101563-1.207031-.296875-1.625-.324219-.675781-.917969-1.015625-1.78125-1.015625-.4375 0-.796875.042969-1.078125.125-.5.15625-.945313.460938-1.328125.90625-.3125.367188-.515625.742188-.609375 1.125-.085937.386719-.125.9375-.125 1.65625v5.75h-1.84375zm4.328125-.265625"/></symbol><symbol id="s" overflow="visible"><path d="m2.515625-5.359375c0 1.179687.25 2.164063.75 2.953125.5.792969 1.300781 1.1875 2.40625 1.1875.851563 0 1.554687-.363281 2.109375-1.09375.550781-.738281.828125-1.796875.828125-3.171875 0-1.382813-.289063-2.410156-.859375-3.078125-.5625-.664062-1.261719-1-2.09375-1-.9375 0-1.699219.355469-2.28125 1.0625-.574219.710938-.859375 1.757812-.859375 3.140625zm2.78125-5.8125c.84375 0 1.546875.179687 2.109375.53125.332031.199219.707031.558594 1.125 1.078125v-5.546875h1.78125v15.109375h-1.671875v-1.53125c-.429687.679688-.9375 1.167969-1.53125 1.46875-.585937.300781-1.257813.453125-2.015625.453125-1.21875 0-2.277344-.515625-3.171875-1.546875-.898437-1.03125-1.34375-2.398438-1.34375-4.109375 0-1.59375.40625-2.972656 1.21875-4.140625.820313-1.175781 1.988281-1.765625 3.5-1.765625zm0 0"/></symbol><symbol id="t" overflow="visible"><path d="m5.984375-1.234375c.863281 0 1.582031-.359375 2.15625-1.078125.570313-.726562.859375-1.8125.859375-3.25 0-.875-.132812-1.625-.390625-2.25-.480469-1.207031-1.355469-1.8125-2.625-1.8125-1.273437 0-2.148437.636719-2.625 1.90625-.25.6875-.375 1.558594-.375 2.609375 0 .855469.125 1.578125.375 2.171875.476563 1.136719 1.351563 1.703125 2.625 1.703125zm-4.78125-9.703125h1.796875v1.46875c.375-.5.78125-.890625 1.21875-1.171875.613281-.40625 1.34375-.609375 2.1875-.609375 1.25 0 2.304688.480469 3.171875 1.4375.863281.949219 1.296875 2.308594 1.296875 4.078125 0 2.398437-.625 4.105469-1.875 5.125-.792969.65625-1.714844.984375-2.765625.984375-.824219 0-1.515625-.183594-2.078125-.546875-.335938-.207031-.699219-.5625-1.09375-1.0625v5.609375h-1.859375zm0 0"/></symbol><symbol id="u" overflow="visible"><path d="m1.359375-10.9375h1.875v10.9375h-1.875zm0-4.125h1.875v2.09375h-1.875zm0 0"/></symbol><symbol id="v" overflow="visible"><path d="m1.71875-14.046875h1.875v3.0625h1.75v1.515625h-1.75v7.15625c0 .386719.128906.648438.390625.78125.132813.074219.375.109375.71875.109375h.28125c.101563-.007813.222656-.019531.359375-.03125v1.453125c-.210938.0625-.429688.101562-.65625.125-.230469.03125-.480469.046875-.75.046875-.867188 0-1.453125-.21875-1.765625-.65625-.304687-.445313-.453125-1.019531-.453125-1.71875v-7.265625h-1.484375v-1.515625h1.484375zm0 0"/></symbol><symbol id="w" overflow="visible"><path d="m2.453125-3.453125c.050781.625.203125 1.101563.453125 1.421875.46875.59375 1.273438.890625 2.421875.890625.6875 0 1.289063-.144531 1.8125-.4375.519531-.300781.78125-.765625.78125-1.390625 0-.46875-.210937-.828125-.625-1.078125-.273437-.144531-.796875-.316406-1.578125-.515625l-1.46875-.375c-.9375-.226562-1.632812-.488281-2.078125-.78125-.792969-.488281-1.1875-1.175781-1.1875-2.0625 0-1.039062.375-1.878906 1.125-2.515625.75-.644531 1.753906-.96875 3.015625-.96875 1.65625 0 2.847656.484375 3.578125 1.453125.457031.617188.679687 1.277344.671875 1.984375h-1.75c-.03125-.414063-.179688-.796875-.4375-1.140625-.429688-.476562-1.164062-.71875-2.203125-.71875-.699219 0-1.230469.136719-1.59375.40625-.355469.261719-.53125.609375-.53125 1.046875 0 .480469.234375.867187.703125 1.15625.28125.167969.6875.3125 1.21875.4375l1.21875.296875c1.320312.324219 2.210938.636719 2.671875.9375.707031.46875 1.0625 1.214844 1.0625 2.234375 0 .96875-.371094 1.8125-1.109375 2.53125-.742188.7070312-1.871094 1.0625-3.390625 1.0625-1.625 0-2.78125-.3710938-3.46875-1.109375-.679687-.75-1.042969-1.671875-1.09375-2.765625zm2.71875-7.796875"/></symbol><path d="m0 0h600v400h-600z" fill="#fff"/><path d="m38.46875 371.871094h549.722656v-341.449219h-549.722656" fill="#fff" fill-rule="evenodd"/><g fill="none" stroke="#000" stroke-miterlimit="10" transform="matrix(1 0 0 -1 0 400)"><path d="m140.351562 28.128906v341.449219" stroke-opacity=".098039" stroke-width=".5"/><path d="m257.101562 28.128906v341.449219" stroke-opacity=".098039" stroke-width=".5"/><path d="m373.851562 28.128906v341.449219" stroke-opacity=".098039" stroke-width=".5"/><path d="m490.601562 28.128906v341.449219" stroke-opacity=".098039" stroke-width=".5"/><path d="m38.46875 54.46875h549.722656" stroke-opacity=".098039" stroke-width=".5"/><path d="m38.46875 100.378906h549.722656" stroke-opacity=".098039" stroke-width=".5"/><path d="m38.46875 146.28125h549.722656" stroke-opacity=".098039" stroke-width=".5"/><path d="m38.46875 192.179688h549.722656" stroke-opacity=".098039" stroke-width=".5"/><path d="m38.46875 238.089844h549.722656" stroke-opacity=".098039" stroke-width=".5"/><path d="m38.46875 283.988281h549.722656" stroke-opacity=".098039" stroke-width=".5"/><path d="m38.46875 329.890625h549.722656" stroke-opacity=".098039" stroke-width=".5"/><path d="m38.46875 28.128906h549.722656"/><path d="m38.46875 28.128906v341.449219"/><path d="m140.351562 28.128906v5.121094"/><path d="m257.101562 28.128906v5.121094"/><path d="m373.851562 28.128906v5.121094"/><path d="m490.601562 28.128906v5.121094"/><path d="m38.46875 54.46875h8.25"/><path d="m38.46875 100.378906h8.25"/><path d="m38.46875 146.28125h8.25"/><path d="m38.46875 192.179688h8.25"/><path d="m38.46875 238.089844h8.25"/><path d="m38.46875 283.988281h8.25"/><path d="m38.46875 329.890625h8.25"/></g><g><use x="131.85" xlink:href="#a" y="385.67"/><use x="139.078" xlink:href="#b" y="385.67"/><use x="142.692" xlink:href="#c" y="385.67"/></g><g><use x="248.6" xlink:href="#a" y="385.67"/><use x="255.828" xlink:href="#b" y="385.67"/><use x="259.442" xlink:href="#d" y="385.67"/></g><g><use x="365.35" xlink:href="#a" y="385.67"/><use x="372.578" xlink:href="#b" y="385.67"/><use x="376.192" xlink:href="#e" y="385.67"/></g><g><use x="482.1" xlink:href="#a" y="385.67"/><use x="489.328" xlink:href="#b" y="385.67"/><use x="492.942" xlink:href="#f" y="385.67"/></g><g><use x="15.47" xlink:href="#a" y="350.03"/><use x="22.698" xlink:href="#b" y="350.03"/><use x="26.312" xlink:href="#c" y="350.03"/></g><g><use x="15.47" xlink:href="#a" y="304.12"/><use x="22.698" xlink:href="#b" y="304.12"/><use x="26.312" xlink:href="#g" y="304.12"/></g><g><use x="15.47" xlink:href="#a" y="258.22"/><use x="22.698" xlink:href="#b" y="258.22"/><use x="26.312" xlink:href="#d" y="258.22"/></g><g><use x="15.47" xlink:href="#a" y="212.32"/><use x="22.698" xlink:href="#b" y="212.32"/><use x="26.312" xlink:href="#h" y="212.32"/></g><g><use x="15.47" xlink:href="#a" y="166.41"/><use x="22.698" xlink:href="#b" y="166.41"/><use x="26.312" xlink:href="#e" y="166.41"/></g><g><use x="15.47" xlink:href="#a" y="120.51"/><use x="22.698" xlink:href="#b" y="120.51"/><use x="26.312" xlink:href="#i" y="120.51"/></g><g><use x="15.47" xlink:href="#a" y="74.61"/><use x="22.698" xlink:href="#b" y="74.61"/><use x="26.312" xlink:href="#f" y="74.61"/></g><g><use x="217.33" xlink:href="#k" y="18"/><use x="231.337" xlink:href="#l" y="18"/><use x="243.013" xlink:href="#m" y="18"/><use x="260.506" xlink:href="#n" y="18"/><use x="272.182" xlink:href="#o" y="18"/><use x="278.02" xlink:href="#p" y="18"/><use x="285.013" xlink:href="#q" y="18"/><use x="296.689" xlink:href="#r" y="18"/><use x="308.365" xlink:href="#s" y="18"/><use x="320.041" xlink:href="#l" y="18"/><use x="331.717" xlink:href="#m" y="18"/><use x="349.21" xlink:href="#o" y="18"/><use x="355.048" xlink:href="#t" y="18"/><use x="366.724" xlink:href="#l" y="18"/><use x="378.4" xlink:href="#u" y="18"/><use x="383.062" xlink:href="#r" y="18"/><use x="394.738" xlink:href="#v" y="18"/><use x="400.576" xlink:href="#w" y="18"/></g><path d="m572.628906 216.199219c-2.207031 0-4 1.789062-4 4 0 2.210937 1.792969 4 4 4 2.210938 0 4-1.789063 4-4 0-2.210938-1.789062-4-4-4" fill-rule="evenodd"/><path d="m572.628906 217.199219c-1.660156 0-3 1.351562-3 3 0 1.660156 1.339844 3 3 3s3-1.339844 3-3c0-1.648438-1.339844-3-3-3" fill="#009afa" fill-rule="evenodd"/><path d="m206.460938 302.191406c-2.210938 0-4 1.789063-4 4 0 2.207032 1.789062 4 4 4 2.210937 0 4-1.792968 4-4 0-2.210937-1.789063-4-4-4" fill-rule="evenodd"/><path d="m206.460938 303.191406c-1.660157 0-3 1.339844-3 3s1.339843 3 3 3c1.648437 0 3-1.339844 3-3s-1.351563-3-3-3" fill="#009afa" fill-rule="evenodd"/><path d="m410.371094 220.410156c-2.210938 0-4 1.789063-4 4 0 2.210938 1.789062 4 4 4 2.207031 0 4-1.789062 4-4 0-2.210937-1.792969-4-4-4" fill-rule="evenodd"/><path d="m410.371094 221.410156c-1.660156 0-3 1.351563-3 3 0 1.660156 1.339844 3 3 3s3-1.339844 3-3c0-1.648437-1.339844-3-3-3" fill="#009afa" fill-rule="evenodd"/><path d="m180.421875 166.03125c-2.210937 0-4 1.789062-4 4 0 2.207031 1.789063 4 4 4 2.207031 0 4-1.792969 4-4 0-2.210938-1.792969-4-4-4" fill-rule="evenodd"/><path d="m180.421875 167.03125c-1.660156 0-3 1.339844-3 3s1.339844 3 3 3c1.65625 0 3-1.339844 3-3s-1.34375-3-3-3" fill="#009afa" fill-rule="evenodd"/><path d="m87.148438 315.828125c-2.207032 0-4 1.792969-4 4 0 2.210937 1.792968 4 4 4 2.210937 0 4-1.789063 4-4 0-2.207031-1.789063-4-4-4" fill-rule="evenodd"/><path d="m87.148438 316.828125c-1.648438 0-3 1.34375-3 3 0 1.660156 1.351562 3 3 3 1.660156 0 3-1.339844 3-3 0-1.65625-1.339844-3-3-3" fill="#009afa" fill-rule="evenodd"/><path d="m472.191406 358.210938c-2.210937 0-4 1.789062-4 4 0 2.199218 1.789063 4 4 4 2.199219 0 4-1.800782 4-4 0-2.210938-1.800781-4-4-4" fill-rule="evenodd"/><path d="m472.191406 359.210938c-1.660156 0-3 1.339843-3 3 0 1.648437 1.339844 3 3 3 1.648438 0 3-1.351563 3-3 0-1.660157-1.351562-3-3-3" fill="#e36f47" fill-rule="evenodd"/><path d="m417.03125 36.078125c-2.210938 0-4 1.792969-4 4 0 2.210937 1.789062 4 4 4 2.207031 0 4-1.789063 4-4 0-2.207031-1.792969-4-4-4" fill-rule="evenodd"/><path d="m417.03125 37.078125c-1.660156 0-3 1.351563-3 3 0 1.660156 1.339844 3 3 3 1.648438 0 3-1.339844 3-3 0-1.648437-1.351562-3-3-3" fill="#e36f47" fill-rule="evenodd"/><path d="m254.449219 149.890625c-2.210938 0-4 1.789063-4 4 0 2.199219 1.789062 4 4 4 2.210937 0 4-1.800781 4-4 0-2.210937-1.789063-4-4-4" fill-rule="evenodd"/><path d="m254.449219 150.890625c-1.660157 0-3 1.339844-3 3 0 1.648437 1.339843 3 3 3 1.652343 0 3-1.351563 3-3 0-1.660156-1.347657-3-3-3" fill="#e36f47" fill-rule="evenodd"/><path d="m365.691406 306.71875c-2.210937 0-4 1.792969-4 4 0 2.210938 1.789063 4 4 4 2.207032 0 4-1.789062 4-4 0-2.207031-1.792968-4-4-4" fill-rule="evenodd"/><path d="m365.691406 307.71875c-1.652344 0-3 1.351562-3 3 0 1.660156 1.347656 3 3 3 1.660156 0 3-1.339844 3-3 0-1.648438-1.339844-3-3-3" fill="#e36f47" fill-rule="evenodd"/><path d="m54.03125 228.339844c-2.210938 0-4 1.800781-4 4 0 2.210937 1.789062 4 4 4 2.207031 0 4-1.789063 4-4 0-2.199219-1.792969-4-4-4" fill-rule="evenodd"/><path d="m54.03125 229.339844c-1.652344 0-3 1.351562-3 3 0 1.660156 1.347656 3 3 3 1.660156 0 3-1.339844 3-3 0-1.648438-1.339844-3-3-3" fill="#e36f47" fill-rule="evenodd"/><path d="m503.5 96.660156h66.691406v-45.359375h-66.691406" fill="#fff" fill-rule="evenodd"/><path d="m503.5 303.339844h66.691406v45.359375h-66.691406z" fill="none" stroke="#000" stroke-miterlimit="10" transform="matrix(1 0 0 -1 0 400)"/><path d="m530.5 60.421875c-3.320312 0-6 2.679687-6 6 0 3.308594 2.679688 6 6 6 3.308594 0 6-2.691406 6-6 0-3.320313-2.691406-6-6-6" fill-rule="evenodd"/><path d="m530.5 61.421875c-2.761719 0-5 2.238281-5 5 0 2.757813 2.238281 5 5 5s5-2.242187 5-5c0-2.761719-2.238281-5-5-5" fill="#009afa" fill-rule="evenodd"/><use x="551.5" xlink:href="#a" y="70.92"/><path d="m530.5 75.539062c-3.320312 0-6 2.679688-6 6 0 3.3125 2.679688 6 6 6 3.308594 0 6-2.6875 6-6 0-3.320312-2.691406-6-6-6" fill-rule="evenodd"/><path d="m530.5 76.539062c-2.761719 0-5 2.242188-5 5 0 2.761719 2.238281 5 5 5s5-2.238281 5-5c0-2.757812-2.238281-5-5-5" fill="#e36f47" fill-rule="evenodd"/><use x="551.5" xlink:href="#j" y="86.04"/></svg>