<svg height="226.77pt" viewBox="0 0 340.16 226.77" width="340.16pt" xmlns="http://www.w3.org/2000/svg" xmlns:xlink="http://www.w3.org/1999/xlink"><clipPath id="a"><path d="m332 208h8.160156v5h-8.160156zm0 0"/></clipPath><clipPath id="b"><path d="m332 106h8.160156v5h-8.160156zm0 0"/></clipPath><symbol id="c" overflow="visible"><path d="m4.59375-3.34375c.109375-.546875.1875-1.109375.1875-1.625 0-1.015625-.328125-1.859375-1.484375-1.859375-2.1875 0-3 3.28125-3 5.125 0 1.046875.359375 1.828125 1.5 1.828125 1.6875 0 2.40625-1.703125 2.796875-3.46875zm-.84375-.28125h-2.296875c.171875-.78125.671875-2.90625 1.78125-2.90625.578125 0 .734375.578125.734375 1.234375 0 .609375-.125 1.28125-.21875 1.671875zm-.0625.328125c-.234375 1.09375-.75 3.140625-1.84375 3.140625-.5625 0-.71875-.546875-.71875-1.21875 0-.640625.140625-1.390625.25-1.921875zm0 0"/></symbol><symbol id="d" overflow="visible"><path d="m2.28125-3.0625c.03125-.15625.09375-.34375.140625-.453125l-.03125-.046875-.046875.015625c-.203125.046875-.28125.046875-.6875.046875h-.125l.171875-.890625c.125-.6875.359375-1 .71875-1 .234375 0 .453125.125.578125.3125l.078125-.03125c.046875-.125.125-.375.1875-.53125l.03125-.125c-.125-.046875-.375-.09375-.546875-.09375-.09375 0-.21875.015625-.28125.046875-.203125.09375-.859375.578125-1.03125.765625-.1875.1875-.28125.421875-.359375.875l-.125.640625c-.328125.15625-.484375.21875-.6875.296875l-.046875.171875h.65625l-.078125.453125c-.234375 1.546875-.53125 3.046875-.703125 3.59375-.15625.46875-.390625.71875-.671875.71875-.1875 0-.28125-.0625-.421875-.234375l-.109375.03125c-.03125.1875-.140625.578125-.1875.640625.078125.046875.1875.0625.28125.0625.328125 0 .765625-.25 1.078125-.625.484375-.5625.65625-1.125 1.234375-3.9375.03125-.09375.09375-.40625.15625-.703125zm0 0"/></symbol><symbol id="e" overflow="visible"><path d="m.171875-.703125c0 .15625-.015625.265625-.0625.515625-.015625.09375-.03125.125-.03125.171875.109375.078125.234375.109375.34375.109375.265625 0 .5625-.234375.8125-.609375l.609375-.9375.09375.546875c.109375.6875.28125 1 .578125 1 .171875 0 .421875-.140625.6875-.375l.390625-.34375-.078125-.15625c-.28125.234375-.484375.359375-.609375.359375s-.21875-.078125-.3125-.234375c-.0625-.15625-.15625-.453125-.1875-.6875l-.15625-.8125.28125-.390625c.375-.515625.59375-.703125.84375-.703125.125 0 .21875.0625.265625.1875l.109375-.03125.125-.6875c-.09375-.046875-.171875-.078125-.25-.078125-.3125 0-.640625.296875-1.125 1.03125l-.296875.4375-.046875-.390625c-.09375-.78125-.3125-1.078125-.78125-1.078125-.21875 0-.390625.0625-.46875.171875l-.453125.65625.125.09375c.25-.28125.40625-.390625.5625-.390625.265625 0 .4375.328125.578125 1.109375l.078125.5-.3125.5c-.34375.53125-.625.78125-.84375.78125-.125 0-.203125-.03125-.21875-.0625l-.09375-.234375zm0 0"/></symbol><symbol id="f" overflow="visible"><path d="m1.6875-4.15625 1.65625.734375.0625-.125-1.71875-.96875-1.71875.96875.0625.125zm0 0"/></symbol><symbol id="g" overflow="visible"><path d="m2.796875-2.03125c.0625-.328125.109375-.671875.109375-.984375 0-.625-.203125-1.140625-.890625-1.140625-1.34375 0-1.84375 2-1.84375 3.125 0 .640625.234375 1.109375.921875 1.109375 1.015625 0 1.453125-1.046875 1.703125-2.109375zm-.515625-.171875h-1.390625c.09375-.46875.40625-1.765625 1.078125-1.765625.34375 0 .453125.34375.453125.75 0 .359375-.09375.78125-.140625 1.015625zm-.046875.203125c-.140625.65625-.453125 1.90625-1.109375 1.90625-.34375 0-.4375-.328125-.4375-.75 0-.375.078125-.84375.15625-1.15625zm0 0"/></symbol><symbol id="h" overflow="visible"><path d="m2.765625 2c0-.015625 0-.046875-.140625-.1875-1.046875-1.046875-1.3125-2.625-1.3125-3.890625 0-1.453125.3125-2.90625 1.34375-3.953125.109375-.09375.109375-.125.109375-.140625 0-.0625-.03125-.078125-.09375-.078125-.078125 0-.828125.5625-1.3125 1.625-.4375.90625-.53125 1.84375-.53125 2.546875 0 .640625.09375 1.65625.546875 2.59375.5 1.03125 1.21875 1.5625 1.296875 1.5625.0625 0 .09375-.015625.09375-.078125zm0 0"/></symbol><symbol id="i" overflow="visible"><path d="m2.40625-2.078125c0-.65625-.09375-1.671875-.546875-2.609375-.5-1.03125-1.21875-1.5625-1.296875-1.5625-.046875 0-.09375.03125-.09375.078125 0 .015625 0 .046875.171875.1875.8125.828125 1.28125 2.15625 1.28125 3.90625 0 1.421875-.296875 2.890625-1.34375 3.9375-.109375.09375-.109375.125-.109375.140625 0 .046875.046875.078125.09375.078125.078125 0 .828125-.5625 1.328125-1.625.421875-.90625.515625-1.84375.515625-2.53125zm0 0"/></symbol><symbol id="j" overflow="visible"><path d="m-6.609375-.234375v-.5625c0-.171875.109375-.25.40625-.25h5.1875c.625 0 .703125.03125.71875.375l.03125.46875h.296875c-.03125-1-.03125-1-.03125-1.25s0-.25.03125-1.25h-.296875l-.03125.453125c-.015625.34375-.09375.375-.71875.375h-6.171875l-.078125.078125c.171875.453125.25.78125.375 1.5625zm0 0"/></symbol><symbol id="k" overflow="visible"><path d="m-4.6875-2.796875c0 1.46875 1.03125 2.484375 2.515625 2.484375 1.40625 0 2.375-.890625 2.375-2.1875 0-1.546875-1.078125-2.640625-2.578125-2.640625-1.34375 0-2.3125.984375-2.3125 2.34375zm.328125.1875c0-.921875 1-1.59375 2.359375-1.59375 1.15625 0 1.875.5 1.875 1.3125 0 .984375-.96875 1.640625-2.390625 1.640625-1.1875 0-1.84375-.484375-1.84375-1.359375zm0 0"/></symbol><symbol id="l" overflow="visible"><path d="m-4.6875-4.125c1.90625.8125 2.25.96875 3.640625 1.578125l-2.75.84375c-.09375.03125-.171875.046875-.25.046875-.15625 0-.234375-.140625-.25-.390625l-.015625-.390625h-.28125c.03125.984375.03125.984375.03125 1.1875s0 .203125-.03125 1.1875h.28125l.015625-.28125c.03125-.28125.234375-.40625 1-.65625l3.359375-1.015625v-.46875l-2.296875-.984375c-.109375-.046875-.359375-.15625-.703125-.328125l-.40625-.1875 3.40625-1.359375v-.46875c-.203125-.0625-.4375-.140625-.65625-.234375-.59375-.1875-1.203125-.40625-1.265625-.453125l-1.5625-.6875c-.671875-.296875-.84375-.40625-.875-.625l-.015625-.265625h-.28125c.03125.8125.03125.8125.03125.984375 0 .15625 0 .15625-.03125.96875h.28125l.015625-.328125c.015625-.25.140625-.390625.3125-.390625.109375 0 .234375.015625.359375.0625l1.40625.5c.21875.078125.421875.15625 1.234375.484375l-2.890625 1.140625c-.34375.140625-.546875.21875-.8125.296875zm0 0"/></symbol><symbol id="m" overflow="visible"><path d="m-4.3125-5.390625h-.28125c.03125.59375.03125.78125.03125.9375s0 .34375-.03125.9375h.28125l.015625-.40625c.015625-.15625.109375-.234375.265625-.234375s.4375.0625.734375.1875l1.0625.421875c.28125.109375.5625.234375 1.390625.609375l-2.875 1.203125c-.140625.046875-.265625.078125-.375.078125s-.1875-.078125-.203125-.25l-.015625-.484375h-.28125c.03125.984375.03125.984375.03125 1.171875s0 .671875-.03125 1.15625h.28125l.015625-.34375c.03125-.140625.09375-.1875.34375-.296875l4.015625-1.734375v-.5c-.15625-.046875-.421875-.15625-.4375-.15625-.3125-.109375-.640625-.234375-.640625-.25l-2.609375-1.171875c-.46875-.21875-.640625-.359375-.671875-.5625zm0 0"/></symbol><symbol id="n" overflow="visible"><path d="m-.8125-3.234375.84375.046875c-.03125-.65625-.03125-.65625-.03125-.78125 0-.046875.015625-.296875.03125-.734375h-.296875l-.03125.390625c0 .234375-.078125.265625-.578125.265625h-1.828125c-1.453125 0-1.984375.421875-1.984375 1.59375 0 .421875.109375.828125.34375 1.203125l.3125.53125h.65625l.0625-.265625-.3125-.125c-.46875-.203125-.53125-.3125-.53125-.765625 0-.9375.359375-1.328125 1.28125-1.359375l.171875.984375c.25 1.359375.71875 1.9375 1.59375 1.9375.78125 0 1.234375-.484375 1.234375-1.265625 0-.1875-.03125-.359375-.078125-.421875zm-.421875 0c.40625.28125.78125.921875.78125 1.296875 0 .40625-.359375.75-.796875.75-.375 0-.71875-.1875-.90625-.5-.15625-.25-.296875-.796875-.40625-1.546875zm0 0"/></symbol><symbol id="o" overflow="visible"><path d="m-4-.234375v-.359375c0-.40625.0625-.453125.734375-.453125h2.25c.625 0 .703125.03125.71875.375l.03125.46875h.296875c-.015625-.734375-.03125-.984375-.03125-1.234375 0-.203125 0-.203125.03125-1.4375h-.296875l-.03125.53125c-.03125.4375-.0625.46875-.71875.46875h-1.71875c-.609375 0-1.109375-.40625-1.109375-.890625 0-.296875.140625-.515625.46875-.671875v-.21875l-1.203125-.078125c-.078125.109375-.109375.28125-.109375.46875 0 .296875.15625.609375.40625.828125l.65625.5625h-1.03125l-.03125.078125c.203125.515625.34375 1.03125.40625 1.5625zm0 0"/></symbol><symbol id="p" overflow="visible"><path d="m-4.65625-1.875-.03125.078125c.203125.515625.34375 1.03125.40625 1.5625h.28125v-.359375c0-.40625.0625-.453125.734375-.453125h2.25c.625 0 .703125.03125.71875.375l.03125.46875h.296875c-.03125-1-.03125-1-.03125-1.25s0-.25.03125-1.25h-.296875l-.03125.453125c-.015625.34375-.09375.375-.71875.375zm-2.21875.453125c0 .296875.265625.5625.5625.5625s.546875-.265625.546875-.546875c0-.296875-.25-.5625-.546875-.5625-.28125 0-.5625.265625-.5625.546875zm0 0"/></symbol><symbol id="q" overflow="visible"><path d="m.03125-4.09375c-.03125-.609375-.03125-.625-.03125-.796875 0-.140625 0-.140625.03125-.828125h-.296875l-.03125.40625c-.015625.34375-.078125.375-.71875.375h-1.9375c-1.171875 0-1.734375.546875-1.734375 1.671875 0 .359375.0625.578125.25.78125l.65625.765625h-.875l-.03125.09375c.203125.5.34375 1.03125.40625 1.5625h.28125v-.375c0-.40625.0625-.4375.734375-.4375h2.25c.625 0 .703125.03125.71875.359375l.03125.453125h.296875c-.015625-.671875-.03125-.953125-.03125-1.234375 0-.296875.015625-.5625.03125-1.25h-.296875l-.03125.453125c-.015625.34375-.09375.375-.71875.375h-2.125c-.453125 0-.9375-.65625-.9375-1.265625 0-.671875.5-1.109375 1.265625-1.109375zm0 0"/></symbol><symbol id="r" overflow="visible"><path d="m-3.109375-3.984375c-.453125 0-.875-.0625-1.234375-.140625-.234375.390625-.34375.75-.34375 1.15625 0 .484375.1875 1.03125.5625 1.640625.4375.703125 1.140625 1.0625 2.03125 1.0625 1.34375 0 2.296875-.9375 2.296875-2.28125 0-.515625-.1875-1.265625-.34375-1.375l-.3125-.203125-.15625.09375c.203125.375.296875.6875.296875 1.046875 0 1.109375-.875 1.84375-2.1875 1.84375-1.0625 0-1.671875-.5-1.671875-1.40625 0-.4375.203125-.90625.453125-1.09375l.609375-.0625zm0 0"/></symbol><symbol id="s" overflow="visible"><path d="m-.703125-4.375-.09375.140625c.375.640625.46875.859375.46875 1.296875 0 .640625-.296875 1.1875-.78125 1.46875-.328125.1875-.609375.265625-1.1875.28125v-1.46875c0-.6875-.03125-1.109375-.140625-1.796875-.140625-.015625-.234375-.03125-.359375-.03125-1.140625 0-1.890625.75-1.890625 1.859375 0 .375.125.8125.375 1.21875.46875.8125 1.078125 1.140625 2.125 1.140625.625 0 1.171875-.140625 1.546875-.421875.53125-.390625.84375-1.0625.84375-1.8125 0-.375-.078125-.734375-.265625-1.15625-.109375-.265625-.234375-.46875-.296875-.515625zm-1.96875.78125c.015625.53125.03125.765625.03125 1.125 0 .453125-.015625.71875-.0625 1.265625-.46875 0-.6875-.046875-.953125-.171875-.4375-.21875-.703125-.640625-.703125-1.125 0-.328125.125-.59375.40625-.765625.328125-.21875.609375-.296875 1.28125-.328125zm0 0"/></symbol><symbol id="t" overflow="visible"><path d="m-6.609375-.0625v-.5625c0-.1875.109375-.25.40625-.25h5.1875c.625 0 .703125.03125.71875.359375l.03125.453125h.296875c-.015625-.671875-.03125-.953125-.03125-1.234375 0-.296875.015625-.5625.03125-1.25h-.296875l-.03125.453125c-.015625.34375-.09375.375-.71875.375h-2.125c-.453125 0-.9375-.65625-.9375-1.265625 0-.671875.5-1.109375 1.265625-1.109375h2.84375c-.03125-.609375-.03125-.625-.03125-.796875 0-.140625 0-.140625.03125-.828125h-.296875l-.03125.40625c-.015625.34375-.078125.375-.71875.375h-1.9375c-1.171875 0-1.734375.546875-1.734375 1.671875 0 .359375.0625.578125.25.78125l.65625.765625h-3.40625l-.078125.09375c.171875.4375.25.765625.375 1.5625zm0 0"/></symbol><symbol id="u" overflow="visible"><path d="m-3.78125-5.1875-.40625-.25-.125.03125.046875 1.421875c-.296875.375-.421875.734375-.421875 1.21875 0 .453125.140625.953125.375 1.359375.328125.5625.8125.859375 1.421875.859375.734375 0 1.25-.46875 1.328125-1.203125l.609375.796875c.15625.09375.28125.140625.4375.140625.28125 0 .4375-.171875.578125-.65625l.46875.875c.078125.140625.453125.28125.765625.28125.90625 0 1.53125-.890625 1.53125-2.171875 0-1.5-.953125-2.703125-2.171875-2.703125-.71875 0-1.21875.484375-1.21875 1.1875v1.59375c0 .53125-.125.765625-.390625.765625-.125 0-.234375-.078125-.453125-.34375-.046875-.0625-.078125-.078125-.109375-.109375 0-.109375.015625-.171875.015625-.25 0-.421875-.1875-.953125-.484375-1.359375-.328125-.453125-.71875-.671875-1.25-.671875-.203125 0-.328125.03125-.546875.109375zm-.5625 2.78125c0-.671875.546875-1.140625 1.40625-1.140625.640625 0 1.09375.421875 1.09375 1.03125 0 .671875-.515625 1.125-1.28125 1.125-.78125 0-1.21875-.375-1.21875-1.015625zm4.484375-.46875c0-1.125.234375-1.515625.875-1.515625.859375 0 1.5.796875 1.5 1.84375 0 .859375-.5 1.46875-1.25 1.46875-.453125 0-.859375-.265625-1.03125-.65625-.078125-.171875-.09375-.453125-.09375-1.140625zm0 0"/></symbol><symbol id="v" overflow="visible"><path d="m.0625-6.609375h.5625c.1875 0 .25.109375.25.40625v5.1875c0 .625-.03125.703125-.359375.71875l-.453125.03125v.296875c.671875-.015625.953125-.03125 1.234375-.03125.296875 0 .5625.015625 1.25.03125v-.296875l-.453125-.03125c-.34375-.015625-.375-.09375-.375-.71875v-2.125c0-.453125.65625-.9375 1.265625-.9375.671875 0 1.109375.5 1.109375 1.265625v2.84375c.609375-.03125.625-.03125.796875-.03125.140625 0 .140625 0 .828125.03125v-.296875l-.40625-.03125c-.34375-.015625-.375-.078125-.375-.71875v-1.9375c0-1.171875-.546875-1.734375-1.671875-1.734375-.359375 0-.578125.0625-.78125.25l-.765625.65625v-3.40625l-.09375-.078125c-.4375.171875-.765625.25-1.5625.375zm0 0"/></symbol><symbol id="w" overflow="visible"><path d="m1.875-4.65625-.078125-.03125c-.515625.203125-1.03125.34375-1.5625.40625v.28125h.359375c.40625 0 .453125.0625.453125.734375v2.25c0 .625-.03125.703125-.375.71875l-.46875.03125v.296875c1-.03125 1-.03125 1.25-.03125s.25 0 1.25.03125v-.296875l-.453125-.03125c-.34375-.015625-.375-.09375-.375-.71875zm-.453125-2.21875c-.296875 0-.5625.265625-.5625.5625s.265625.546875.546875.546875c.296875 0 .5625-.25.5625-.546875 0-.28125-.265625-.5625-.546875-.5625zm0 0"/></symbol><symbol id="x" overflow="visible"><path d="m5.1875-3.78125.25-.40625-.03125-.125-1.421875.046875c-.375-.296875-.734375-.421875-1.21875-.421875-.453125 0-.953125.140625-1.359375.375-.5625.328125-.859375.8125-.859375 1.421875 0 .734375.46875 1.25 1.203125 1.328125l-.796875.609375c-.09375.15625-.140625.28125-.140625.4375 0 .28125.171875.4375.65625.578125l-.875.46875c-.140625.078125-.28125.453125-.28125.765625 0 .90625.890625 1.53125 2.171875 1.53125 1.5 0 2.703125-.953125 2.703125-2.171875 0-.71875-.484375-1.21875-1.1875-1.21875h-1.59375c-.53125 0-.765625-.125-.765625-.390625 0-.125.078125-.234375.34375-.453125.0625-.046875.078125-.078125.109375-.109375.109375 0 .171875.015625.25.015625.421875 0 .953125-.1875 1.359375-.484375.453125-.328125.671875-.71875.671875-1.25 0-.203125-.03125-.328125-.109375-.546875zm-2.78125-.5625c.671875 0 1.140625.546875 1.140625 1.40625 0 .640625-.421875 1.09375-1.03125 1.09375-.671875 0-1.125-.515625-1.125-1.28125 0-.78125.375-1.21875 1.015625-1.21875zm.46875 4.484375c1.125 0 1.515625.234375 1.515625.875 0 .859375-.796875 1.5-1.84375 1.5-.859375 0-1.46875-.5-1.46875-1.25 0-.453125.265625-.859375.65625-1.03125.171875-.078125.453125-.09375 1.140625-.09375zm0 0"/></symbol><symbol id="y" overflow="visible"><path d="m1.5-7.1875-.09375-.078125c-.4375.171875-.765625.25-1.5625.375v.28125h.5625c.1875 0 .25.109375.25.40625v4.671875c0 .625 0 .890625-.078125 1.59375l.15625.0625.40625-.359375c.40625.25.765625.359375 1.296875.359375.375 0 .640625-.078125.859375-.21875l1-.71875c.4375-.328125.78125-1.15625.78125-1.890625 0-1.15625-.75-1.984375-1.8125-1.984375-.46875 0-.953125.171875-1.21875.4375l-.546875.5625zm0 4.109375c0-.140625.09375-.328125.265625-.5.28125-.296875.671875-.46875 1.078125-.46875.84375 0 1.359375.6875 1.359375 1.75 0 1.125-.59375 1.90625-1.4375 1.90625-.53125 0-1.265625-.3125-1.265625-.546875zm0 0"/></symbol><symbol id="z" overflow="visible"><path d="m3.234375-.8125-.046875.84375c.65625-.03125.65625-.03125.78125-.03125.046875 0 .296875.015625.734375.03125v-.296875l-.390625-.03125c-.234375 0-.265625-.078125-.265625-.578125v-1.828125c0-1.453125-.421875-1.984375-1.59375-1.984375-.421875 0-.828125.109375-1.203125.34375l-.53125.3125v.65625l.265625.0625.125-.3125c.203125-.46875.3125-.53125.765625-.53125.9375 0 1.328125.359375 1.359375 1.28125l-.984375.171875c-1.359375.25-1.9375.71875-1.9375 1.59375 0 .78125.484375 1.234375 1.265625 1.234375.1875 0 .359375-.03125.421875-.078125zm0-.421875c-.28125.40625-.921875.78125-1.296875.78125-.40625 0-.75-.359375-.75-.796875 0-.375.1875-.71875.5-.90625.25-.15625.796875-.296875 1.546875-.40625zm0 0"/></symbol><symbol id="A" overflow="visible"><path d="m.40625-1.4375c0 .703125-.03125 1-.109375 1.390625.515625.171875.90625.25 1.375.25 1.3125 0 2.234375-.703125 2.234375-1.6875 0-.3125-.09375-.53125-.28125-.734375-.25-.25-.578125-.375-1.46875-.546875-.8125-.15625-1.09375-.359375-1.09375-.8125 0-.5.359375-.78125.96875-.78125.671875 0 1.171875.34375 1.171875.8125v.234375h.28125c.015625-.578125.03125-.8125.0625-1.125-.53125-.1875-.890625-.25-1.3125-.25-1.15625 0-1.859375.546875-1.859375 1.453125 0 .46875.21875.8125.671875 1.03125.265625.109375.796875.265625 1.484375.421875.453125.09375.640625.3125.640625.6875 0 .546875-.5.921875-1.21875.921875s-1.25-.34375-1.25-.84375v-.421875zm0 0"/></symbol><symbol id="B" overflow="visible"><path d="m.234375-6.609375h.5625c.171875 0 .25.109375.25.40625v5.1875c0 .625-.03125.703125-.375.71875l-.46875.03125v.296875c1-.03125 1-.03125 1.25-.03125s.25 0 1.25.03125v-.296875l-.453125-.03125c-.34375-.015625-.375-.09375-.375-.71875v-6.171875l-.078125-.078125c-.453125.171875-.78125.25-1.5625.375zm0 0"/></symbol><symbol id="C" overflow="visible"><path d="m2.796875-4.6875c-1.46875 0-2.484375 1.03125-2.484375 2.515625 0 1.40625.890625 2.375 2.1875 2.375 1.546875 0 2.640625-1.078125 2.640625-2.578125 0-1.34375-.984375-2.3125-2.34375-2.3125zm-.1875.328125c.921875 0 1.59375 1 1.59375 2.359375 0 1.15625-.5 1.875-1.3125 1.875-.984375 0-1.640625-.96875-1.640625-2.390625 0-1.1875.484375-1.84375 1.359375-1.84375zm0 0"/></symbol><symbol id="D" overflow="visible"><path d="m4.125-4.6875c-.8125 1.90625-.96875 2.25-1.578125 3.640625l-.84375-2.75c-.03125-.09375-.046875-.171875-.046875-.25 0-.15625.140625-.234375.390625-.25l.390625-.015625v-.28125c-.984375.03125-.984375.03125-1.1875.03125s-.203125 0-1.1875-.03125v.28125l.28125.015625c.28125.03125.40625.234375.65625 1l1.015625 3.359375h.46875l.984375-2.296875c.046875-.109375.15625-.359375.328125-.703125l.1875-.40625 1.359375 3.40625h.46875c.0625-.203125.140625-.4375.234375-.65625.1875-.59375.40625-1.203125.453125-1.265625l.6875-1.5625c.296875-.671875.40625-.84375.625-.875l.265625-.015625v-.28125c-.8125.03125-.8125.03125-.984375.03125-.15625 0-.15625 0-.96875-.03125v.28125l.328125.015625c.25.015625.390625.140625.390625.3125 0 .109375-.015625.234375-.0625.359375l-.5 1.40625c-.078125.21875-.15625.421875-.484375 1.234375l-1.140625-2.890625c-.140625-.34375-.21875-.546875-.296875-.8125zm0 0"/></symbol><path d="m1702.34375 164.10625h-1378.554688" style="fill:none;stroke-width:4.99916;stroke-linecap:round;stroke-linejoin:round;stroke:#000;stroke-miterlimit:10" transform="matrix(.1 0 0 -.1 0 226.77)"/><path d="m1777.34375 164.10625-75 20.117187v-40.195312zm0 0" stroke="#000" stroke-linecap="round" stroke-linejoin="round" stroke-miterlimit="10" stroke-width="4.99916" transform="matrix(.1 0 0 -.1 0 226.77)"/><path d="m248.789062 164.10625 75-20.078125v40.195312zm0 0" stroke="#000" stroke-linecap="round" stroke-linejoin="round" stroke-miterlimit="10" stroke-width="4.99916" transform="matrix(.1 0 0 -.1 0 226.77)"/><path d="m711.992188 854.028125v-689.921875" style="fill:none;stroke-width:4.99916;stroke-linecap:round;stroke-linejoin:round;stroke:#000;stroke-miterlimit:10" transform="matrix(.1 0 0 -.1 0 226.77)"/><path d="m711.992188 929.028125-20.117188-75h40.195312zm0 0" stroke="#000" stroke-linecap="round" stroke-linejoin="round" stroke-miterlimit="10" stroke-width="4.99916" transform="matrix(.1 0 0 -.1 0 226.77)"/><path d="m1175.195312 164.10625v-50.976563" style="fill:none;stroke-width:4.99916;stroke-linecap:round;stroke-linejoin:round;stroke:#000;stroke-miterlimit:10" transform="matrix(.1 0 0 -.1 0 226.77)"/><path d="m3323.515625 164.10625h-1378.554687" style="fill:none;stroke-width:4.99916;stroke-linecap:round;stroke-linejoin:round;stroke:#000;stroke-miterlimit:10" transform="matrix(.1 0 0 -.1 0 226.77)"/><path d="m339.851562 210.359375-7.5-2.011719v4.019532zm0 0"/><g clip-path="url(#a)"><path d="m3398.515625 164.10625-75 20.117187v-40.195312zm0 0" style="fill:none;stroke-width:4.99916;stroke-linecap:round;stroke-linejoin:round;stroke:#000;stroke-miterlimit:10" transform="matrix(.1 0 0 -.1 0 226.77)"/></g><g stroke="#000" stroke-linecap="round" stroke-linejoin="round" stroke-miterlimit="10" stroke-width="4.99916" transform="matrix(.1 0 0 -.1 0 226.77)"><path d="m1869.960938 164.10625 75-20.078125v40.195312zm0 0"/><path d="m2333.164062 854.028125v-689.921875" fill="none"/><path d="m2333.164062 929.028125-20.078124-75h40.15625zm0 0"/><path d="m2796.367188 164.10625v-50.976563" fill="none"/><path d="m1702.34375 1183.989062h-1378.554688" fill="none"/><path d="m1777.34375 1183.989062-75 20.078125v-40.195312zm0 0"/><path d="m248.789062 1183.989062 75-20.117187v40.195312zm0 0"/><path d="m711.992188 1873.871875v-689.882813" fill="none"/><path d="m711.992188 1948.871875-20.117188-75h40.195312zm0 0"/><path d="m1175.195312 1183.989062v-51.015625" fill="none"/><path d="m3323.515625 1183.989062h-1378.554687" fill="none"/></g><path d="m339.851562 108.371094-7.5-2.007813v4.019531zm0 0"/><g clip-path="url(#b)"><path d="m3398.515625 1183.989062-75 20.078125v-40.195312zm0 0" style="fill:none;stroke-width:4.99916;stroke-linecap:round;stroke-linejoin:round;stroke:#000;stroke-miterlimit:10" transform="matrix(.1 0 0 -.1 0 226.77)"/></g><path d="m1869.960938 1183.989062 75-20.117187v40.195312zm0 0" stroke="#000" stroke-linecap="round" stroke-linejoin="round" stroke-miterlimit="10" stroke-width="4.99916" transform="matrix(.1 0 0 -.1 0 226.77)"/><path d="m2333.164062 1873.871875v-689.882813" style="fill:none;stroke-width:4.99916;stroke-linecap:round;stroke-linejoin:round;stroke:#000;stroke-miterlimit:10" transform="matrix(.1 0 0 -.1 0 226.77)"/><path d="m2333.164062 1948.871875-20.078124-75h40.15625zm0 0" stroke="#000" stroke-linecap="round" stroke-linejoin="round" stroke-miterlimit="10" stroke-width="4.99916" transform="matrix(.1 0 0 -.1 0 226.77)"/><path d="m2796.367188 1183.989062v-51.015625" style="fill:none;stroke-width:4.99916;stroke-linecap:round;stroke-linejoin:round;stroke:#000;stroke-miterlimit:10" transform="matrix(.1 0 0 -.1 0 226.77)"/><path d="m24.878906 210.359375c.492188-.003906.988282-.003906 1.480469-.003906h1.484375 1.480469 1.484375 1.480468 1.484376 1.480468c.496094-.003907.988282-.003907 1.484375-.003907h1.480469c.496094-.003906.988281-.003906 1.484375-.003906.492187 0 .988281-.003906 1.480469-.003906.492187-.003906.988281-.003906 1.480468-.007812.496094 0 .988282-.003907 1.484376-.003907.492187-.003906.988281-.007812 1.480468-.011719.496094-.003906.988282-.007812 1.484375-.011718.492188-.003906.988281-.011719 1.480469-.015625.496094-.007813.988281-.015625 1.484375-.023438.492187-.007812.988281-.015625 1.480469-.027343.496094-.011719.988281-.023438 1.480468-.035157.496094-.015625.992188-.03125 1.484376-.046875.496093-.019531.988281-.039062 1.480468-.058594.496094-.023437.988282-.046874 1.484375-.074218.492188-.027344.988281-.058594 1.480469-.09375.496094-.03125.988281-.070313 1.484375-.113282.492187-.042968.988281-.089843 1.480469-.140624.496094-.050782.988281-.109376 1.484375-.171876.492187-.066406.988281-.136718 1.480469-.210937.496093-.078125.988281-.164063 1.484374-.257813.492188-.089843.988282-.191406 1.480469-.304687.496094-.109375.988281-.230469 1.480469-.363281.5-.132813.992188-.277344 1.484375-.433594.496094-.15625.992187-.324219 1.480469-.507812.5-.183594.992187-.378907 1.484375-.589844.5-.214844.992187-.445313 1.480469-.6875.5-.25.996093-.511719 1.484374-.789063.5-.285156.996094-.585937 1.480469-.902343.503907-.324219.996094-.664063 1.484375-1.019532.5-.371094.996094-.753906 1.480469-1.148437.503906-.414063 1-.84375 1.480469-1.285157.507812-.457031 1-.929687 1.484375-1.417968.503906-.507813 1-1.027344 1.480469-1.558594.507812-.554688 1-1.121094 1.484374-1.695312.503907-.601563.996094-1.214844 1.480469-1.835938.503907-.644531 1-1.300781 1.484375-1.960938.5-.6875.996094-1.382812 1.480469-2.085937.503906-.722656.996094-1.453125 1.484375-2.191406.5-.753907.992188-1.515625 1.480469-2.28125.5-.78125.992187-1.566407 1.484375-2.351563.496094-.800781.988281-1.601562 1.480468-2.402344.496094-.808593.988282-1.613281 1.480469-2.421874.496094-.804688.988281-1.609376 1.484375-2.414063.492188-.792969.984375-1.585937 1.480469-2.375.488281-.773437.984375-1.542969 1.484375-2.304687.484375-.738282.976562-1.472657 1.480469-2.195313.484375-.695313.976562-1.382813 1.484375-2.058594.480468-.640625.972656-1.269531 1.480468-1.886719.476563-.574218.972657-1.136718 1.480469-1.679687.480469-.503906.972657-.992187 1.484375-1.449219.476563-.425781.96875-.828125 1.480469-1.191406.476563-.339844.972656-.648438 1.484375-.914062.476562-.25.972656-.460938 1.480469-.621094.484375-.152344.980469-.257813 1.484375-.308594.492187-.054688.988281-.054688 1.480468 0 .503907.050781 1 .15625 1.484376.308594.507812.160156 1 .371094 1.480468.621094.511719.265624 1.007813.574218 1.480469.914062.515625.363281 1.007813.765625 1.484375 1.191406.511719.457032 1.003906.945313 1.484375 1.449219.507813.542969 1.003906 1.105469 1.480469 1.679687.507812.617188 1 1.246094 1.480468 1.886719.507813.675781 1 1.363281 1.484376 2.058594.503906.722656.996093 1.457031 1.480468 2.195313.503906.761718.996094 1.53125 1.484375 2.304687.496094.789063.992188 1.582031 1.480469 2.375.496094.804687.988281 1.609375 1.484375 2.414063.492187.808593.984375 1.613281 1.480469 2.421874.492187.800782.984375 1.601563 1.484375 2.402344.488281.785156.980469 1.570313 1.480469 2.351563.488281.765625.980468 1.527343 1.480468 2.28125.488282.738281.980469 1.46875 1.484375 2.191406.484375.703125.980469 1.398437 1.480469 2.085937.484375.660157.980469 1.316407 1.484375 1.960938.484375.621094.976563 1.234375 1.480469 1.835938.484375.574218.976562 1.140624 1.484375 1.695312.480469.53125.976562 1.050781 1.480469 1.558594.484374.488281.976562.960937 1.484374 1.417968.484376.441407.976563.871094 1.480469 1.285157.484375.394531.980469.777343 1.480469 1.148437.488281.355469.980469.695313 1.484375 1.019532.484375.316406.980469.617187 1.480469.902343.488281.277344.984375.539063 1.484375.789063.488281.242187.980469.472656 1.480469.6875.488281.210937.984374.40625 1.484374.589844.488282.183593.984376.351562 1.480469.507812.492188.15625.984375.300781 1.480469.433594.496094.132812.988281.253906 1.484375.363281.492187.113281.988281.214844 1.480469.304687.496094.09375.988281.179688 1.484375.257813.492187.074219.988281.144531 1.480469.210937.496093.0625.988281.121094 1.484374.171876l-9.265624.679687z" fill="#20b2aa" fill-opacity=".2"/><path d="m248.789062 164.10625c4.804688.039062 9.570313.039062 14.375.039062h14.335938 14.375 14.335938 14.375 14.375 14.335937c4.804687 0 9.570313.039063 14.375.039063h14.335937c4.804688 0 9.570313.039062 14.375.039062 4.804688 0 9.570313 0 14.335938.039063 4.804688 0 9.609375.039062 14.375.039062 4.804688 0 9.570312.039063 14.375.078125 4.765625 0 9.570312.039063 14.335938.078125 4.804687.039063 9.570312.039063 14.375.117188 4.765624.039062 9.570312.078125 14.335937.117187 4.804687.078125 9.570313.117188 14.375.195313s9.570313.15625 14.375.234375c4.765625.078125 9.570313.195312 14.335937.3125 4.804688.117187 9.570313.234375 14.375.390625 4.765626.117187 9.570313.273437 14.335938.46875 4.804688.195312 9.570312.390625 14.375.625 4.804688.195312 9.570312.46875 14.375.742187 4.765625.273438 9.570312.585938 14.335938.9375 4.804687.351563 9.570312.742188 14.375 1.171875 4.765624.429688 9.570312.898438 14.335937 1.445313 4.804687.507812 9.609375 1.09375 14.375 1.71875 4.804687.625 9.570313 1.328125 14.375 2.109375 4.765625.742187 9.570313 1.601562 14.335937 2.5 4.804688.9375 9.609376 1.914062 14.375 3.007812 4.804688 1.09375 9.570313 2.304688 14.335938 3.554688 4.804688 1.328125 9.609375 2.695312 14.375 4.21875 4.804688 1.523437 9.609375 3.164062 14.375 4.882812 4.804688 1.796875 9.609375 3.671875 14.335938 5.703125 4.84375 2.070313 9.609374 4.257813 14.375 6.601563 4.84375 2.34375 9.609374 4.882812 14.335937 7.5 4.84375 2.734375 9.648437 5.585937 14.375 8.59375 4.84375 3.085937 9.648437 6.328125 14.335937 9.6875 4.882813 3.476562 9.6875 7.109375 14.375 10.859375 4.882813 3.90625 9.648438 7.96875 14.375 12.109375 4.882813 4.335937 9.648438 8.828125 14.335938 13.398437 4.882812 4.765625 9.6875 9.6875 14.375 14.6875 4.882812 5.234375 9.648438 10.585938 14.335938 16.015625 4.882812 5.664063 9.6875 11.445313 14.375 17.304688 4.882812 6.054687 9.648437 12.265625 14.375 18.515625 4.84375 6.484375 9.648437 13.085937 14.335937 19.726562 4.882813 6.835938 9.648437 13.789063 14.375 20.742188 4.84375 7.1875 9.609375 14.453125 14.335937 21.71875 4.84375 7.460937 9.648438 14.960937 14.375 22.460937 4.804688 7.65625 9.609376 15.351563 14.335938 23.046875 4.84375 7.773438 9.609375 15.585938 14.375 23.398438 4.804688 7.8125 9.570312 15.625 14.375 23.4375 4.765625 7.8125 9.53125 15.546875 14.335938 23.320312 4.765624 7.617188 9.53125 15.234375 14.375 22.8125 4.726562 7.382813 9.492187 14.726563 14.375 22.03125 4.6875 7.070313 9.453124 14.0625 14.335937 20.9375 4.6875 6.640625 9.453125 13.164063 14.375 19.609375 4.648437 6.054688 9.414063 12.03125 14.335937 17.851563 4.648438 5.507812 9.414063 10.820312 14.375 15.9375 4.609376 4.765625 9.375 9.375 14.335938 13.710937 4.609375 4.023438 9.414062 7.8125 14.375 11.25 4.609375 3.203125 9.414062 6.132813 14.375 8.632813 4.609375 2.382812 9.414062 4.335937 14.335938 5.859375 4.726562 1.445312 9.492187 2.460937 14.375 2.96875 4.765624.507812 9.570312.546875 14.375.078125 4.84375-.507813 9.648437-1.484375 14.335937-2.890625 4.921875-1.484375 9.726563-3.4375 14.375-5.78125 4.921875-2.460938 9.726563-5.351563 14.335937-8.515625 5-3.4375 9.765626-7.1875 14.375-11.210938 4.960938-4.296875 9.726563-8.867187 14.335938-13.632812 4.960938-5.078125 9.726562-10.390625 14.375-15.859375 4.921875-5.78125 9.6875-11.757813 14.375-17.8125 4.882812-6.40625 9.648438-12.929688 14.335938-19.53125 4.882812-6.875 9.648437-13.867188 14.375-20.898438 4.84375-7.304687 9.609374-14.648437 14.335937-22.03125 4.84375-7.539062 9.609375-15.15625 14.375-22.773437 4.804687-7.734375 9.570313-15.507813 14.335937-23.28125 4.804688-7.8125 9.570313-15.664063 14.375-23.476563 4.765626-7.8125 9.570313-15.585937 14.375-23.398437 4.726563-7.695313 9.53125-15.390625 14.335938-23.046875 4.765625-7.539063 9.53125-15.039063 14.375-22.5 4.726562-7.265625 9.492188-14.53125 14.335938-21.71875 4.726562-6.992188 9.492187-13.945313 14.375-20.820313 4.6875-6.640625 9.492187-13.242187 14.375-19.726562 4.6875-6.289063 9.453124-12.460938 14.335937-18.59375 4.6875-5.859375 9.492187-11.640625 14.375-17.304688 4.6875-5.46875 9.453125-10.820312 14.335937-16.054687 4.6875-5.039063 9.492188-9.960938 14.375-14.726563 4.6875-4.609375 9.492188-9.101562 14.375-13.4375 4.6875-4.179687 9.453126-8.242187 14.335938-12.148437 4.6875-3.789063 9.492188-7.421875 14.375-10.9375 4.6875-3.359375 9.492188-6.601563 14.335938-9.726563 4.726562-3.007812 9.53125-5.859375 14.375-8.59375 4.726562-2.65625 9.492187-5.195312 14.375-7.578125 4.726562-2.304687 9.492187-4.53125 14.335937-6.601562 4.765625-2.03125 9.53125-3.945313 14.375-5.703125 4.726563-1.757813 9.53125-3.398438 14.335937-4.921875 4.765626-1.523438 9.570313-2.929688 14.375-4.21875 4.765626-1.289063 9.53125-2.5 14.335938-3.59375s9.570312-2.109375 14.375-3.007813" style="fill:none;stroke-width:19.9966;stroke-linecap:round;stroke-linejoin:round;stroke:#191970;stroke-opacity:.7;stroke-miterlimit:10" transform="matrix(.1 0 0 -.1 0 226.77)"/><path d="m196.261719 208.492188c.433593-.109376.867187-.230469 1.296875-.355469.433594-.128907.867187-.265625 1.296875-.410157.433593-.148437.867187-.304687 1.296875-.472656.433594-.167968.867187-.347656 1.296875-.535156.433593-.195312.867187-.398438 1.296875-.613281.4375-.21875.867187-.449219 1.296875-.691407.4375-.246093.867187-.503906 1.296875-.773437.4375-.277344.871094-.566406 1.296875-.867187.4375-.308594.871093-.632813 1.296875-.964844.4375-.339844.871094-.695313 1.296875-1.0625.441406-.375.871093-.765625 1.296875-1.164063.441406-.414062.871094-.839843 1.296875-1.273437.441406-.449219.871093-.910156 1.296875-1.378906.441406-.484376.871094-.980469 1.296875-1.484376.441406-.523437.871093-1.050781 1.296875-1.589843.4375-.554688.871094-1.121094 1.296875-1.691407.4375-.585937.871093-1.183593 1.296875-1.785156.4375-.617187.871094-1.242187 1.296875-1.871094.4375-.644531.871093-1.296874 1.296875-1.949218.4375-.667969.867187-1.339844 1.296875-2.015625.4375-.683594.867187-1.375 1.296875-2.0625.433594-.699219.867187-1.402344 1.296875-2.101563.433593-.707031.863281-1.414062 1.296875-2.121094.429687-.703124.863281-1.410156 1.296875-2.117187.429687-.699219.863281-1.398437 1.296875-2.09375.429687-.6875.859375-1.371094 1.296875-2.050781.425781-.664063.859375-1.328125 1.296875-1.984375.425781-.636719.859375-1.269531 1.296875-1.894531.421875-.601563.855469-1.195313 1.296875-1.78125.421875-.5625.855468-1.113282 1.296875-1.652344.421875-.511719.851562-1.011719 1.296875-1.496094.417968-.453125.851562-.898438 1.296875-1.320312.417969-.394532.851562-.773438 1.296875-1.128907.417968-.332031.851562-.644531 1.296875-.925781.417969-.261719.851562-.5 1.296875-.703125.421875-.191406.855468-.351563 1.296875-.476563.425781-.117187.859375-.195312 1.296875-.238281.433594-.039062.867187-.039062 1.296875 0 .4375.042969.871093.121094 1.296875.238281.445312.125.875.285157 1.296875.476563.449219.203125.878906.441406 1.296875.703125.449218.28125.878906.59375 1.296875.925781.449219.355469.878906.734375 1.296875 1.128907.449218.421874.878906.867187 1.296875 1.320312.445312.484375.878906.984375 1.296875 1.496094.445312.539062.875 1.089844 1.300781 1.652344.4375.585937.871094 1.179687 1.292969 1.78125.441406.625.875 1.257812 1.296875 1.894531.441406.65625.871093 1.320312 1.300781 1.984375.433594.679687.867188 1.363281 1.292969 2.050781.4375.695313.867187 1.394531 1.296875 2.09375.4375.707031.867187 1.414063 1.296875 2.117187.433593.707032.867187 1.414063 1.296875 2.121094.433594.699219.863281 1.402344 1.300781 2.101563.429687.6875.859375 1.378906 1.296875 2.0625.425781.675781.859375 1.347656 1.296875 2.015625.425781.652344.855469 1.304687 1.296875 1.949218.425781.628907.855469 1.253907 1.296875 1.871094.425781.601563.855469 1.199219 1.296875 1.785156.421875.570313.855469 1.136719 1.296875 1.691407.425781.539062.855469 1.066406 1.296875 1.589843.421875.503907.855469 1 1.296875 1.484376.421875.46875.855469.929687 1.296875 1.378906.421875.433594.855469.859375 1.296875 1.273437.421875.398438.855469.789063 1.296875 1.164063.421875.367187.855469.722656 1.296875 1.0625.425781.332031.855469.65625 1.296875.964844.425781.300781.859375.589843 1.296875.867187.425781.269531.859375.527344 1.296875.773437.425781.242188.859375.472657 1.296875.691407.425781.214843.859375.417969 1.296875.613281.429688.1875.859375.367188 1.296875.535156.429687.167969.863281.324219 1.296875.472656.429688.144532.863281.28125 1.296875.410157.429687.125.863281.242187 1.296875.355469.429688.109374.863281.210937 1.296875.304687.429687.09375.863281.179687 1.296875.261719.429688.078125.863281.152344 1.296875.222656.429687.066406.863281.132812 1.296875.1875.429688.058594.863281.113281 1.296875.160156s.863281.09375 1.296875.132813c.433594.042969.863281.078125 1.296875.113281.429687.03125.863281.0625 1.296875.089844s.863281.054687 1.296875.078125c.433594.023437.863281.042969 1.296875.0625s.863281.035156 1.296875.050781.863281.027344 1.296875.042969c.433594.011719.867188.023437 1.296875.03125.433594.011719.863281.019531 1.296875.027343.433594.007813.867188.015626 1.296875.023438.433594.003906.867187.011719 1.296875.015625.433594.003906.863281.007813 1.296875.015625.433594.003906.863281.003906 1.296875.007812.433594.003907.863281.007813 1.296875.007813.433594.003906.863281.007813 1.296875.007813.433594.003906.867188.003906 1.296875.003906.433594.003906.867187.003906 1.296875.003906.433594.003906.867188.003906 1.296875.003906.433594 0 .867187.003906 1.296875.003906h1.296875l-134.324219.007813z" fill="#20b2aa" fill-opacity=".2"/><path d="m1962.617188 182.778125c4.335937 1.09375 8.671874 2.304687 12.96875 3.554687 4.335937 1.289063 8.671874 2.65625 12.96875 4.101563 4.335937 1.484375 8.671874 3.046875 12.96875 4.726562 4.335937 1.679688 8.671874 3.476563 12.96875 5.351563 4.335937 1.953125 8.671874 3.984375 12.96875 6.132812 4.375 2.1875 8.671874 4.492188 12.96875 6.914063 4.375 2.460937 8.671874 5.039062 12.96875 7.734375 4.375 2.773437 8.710937 5.664062 12.96875 8.671875 4.375 3.085937 8.710937 6.328125 12.96875 9.648437 4.375 3.398438 8.710937 6.953125 12.96875 10.625 4.414062 3.75 8.710937 7.65625 12.96875 11.640625 4.414062 4.140625 8.710937 8.398438 12.96875 12.734375 4.414062 4.492188 8.710937 9.101563 12.96875 13.789063 4.414062 4.84375 8.710937 9.804687 12.96875 14.84375 4.414062 5.234375 8.710937 10.507812 12.96875 15.898437 4.375 5.546875 8.710937 11.210938 12.96875 16.914063 4.375 5.859375 8.710937 11.835937 12.96875 17.851562 4.375 6.171875 8.710937 12.421875 12.96875 18.710938 4.375 6.445312 8.710937 12.96875 12.96875 19.492187 4.375 6.679688 8.671874 13.398438 12.96875 20.15625 4.375 6.835938 8.671874 13.75 12.96875 20.625 4.335937 6.992188 8.671874 14.023438 12.96875 21.015625 4.335937 7.070313 8.632812 14.140625 12.96875 21.210938 4.296874 7.03125 8.632812 14.101562 12.96875 21.171875 4.296874 6.992187 8.632812 13.984375 12.96875 20.9375 4.296874 6.875 8.59375 13.710937 12.96875 20.507812 4.257812 6.640625 8.59375 13.28125 12.96875 19.84375 4.257812 6.367188 8.59375 12.695313 12.96875 18.945313 4.21875 6.015625 8.554687 11.953125 12.96875 17.8125 4.21875 5.625 8.554687 11.132812 12.96875 16.523437 4.21875 5.117188 8.515624 10.117188 12.96875 14.960938 4.179687 4.53125 8.515624 8.984375 12.96875 13.203125 4.179687 3.945312 8.515624 7.734375 12.96875 11.289062 4.179687 3.320313 8.515624 6.445313 12.96875 9.257813 4.179687 2.617187 8.515624 5 12.96875 7.03125 4.21875 1.914062 8.554687 3.515625 12.96875 4.765625 4.257812 1.171875 8.59375 1.953125 12.96875 2.382812 4.335937.390625 8.671874.390625 12.96875 0 4.375-.429687 8.710937-1.210937 12.96875-2.382812 4.453124-1.25 8.75-2.851563 12.96875-4.765625 4.492187-2.03125 8.789062-4.414063 12.96875-7.03125 4.492187-2.8125 8.789062-5.9375 12.96875-9.257813 4.492187-3.554687 8.789062-7.34375 12.96875-11.289062 4.492187-4.21875 8.789062-8.671875 12.96875-13.203125 4.453124-4.84375 8.789062-9.84375 12.96875-14.960938 4.453124-5.390625 8.75-10.898437 13.007812-16.523437 4.375-5.859375 8.710938-11.796875 12.929688-17.8125 4.414062-6.25 8.75-12.578125 12.96875-18.945313 4.414062-6.5625 8.710937-13.203125 13.007812-19.84375 4.335938-6.796875 8.671875-13.632812 12.929688-20.507812 4.375-6.953125 8.671874-13.945313 12.96875-20.9375 4.375-7.070313 8.671874-14.140625 12.96875-21.171875 4.335937-7.070313 8.671874-14.140625 12.96875-21.210938 4.335937-6.992187 8.632812-14.023437 13.007812-21.015625 4.296875-6.875 8.59375-13.789062 12.96875-20.625 4.257812-6.757812 8.59375-13.476562 12.96875-20.15625 4.257812-6.523437 8.554688-13.046875 12.96875-19.492187 4.257812-6.289063 8.554688-12.539063 12.96875-18.710938 4.257812-6.015625 8.554688-11.992187 12.96875-17.851562 4.21875-5.703125 8.554688-11.367188 12.96875-16.914063 4.257812-5.390625 8.554688-10.664062 12.96875-15.898437 4.21875-5.039063 8.554688-10 12.96875-14.84375 4.21875-4.6875 8.554688-9.296875 12.96875-13.789063 4.21875-4.335937 8.554688-8.59375 12.96875-12.734375 4.21875-3.984375 8.554688-7.890625 12.96875-11.640625 4.21875-3.671875 8.554688-7.226562 12.96875-10.625 4.257812-3.320312 8.554688-6.5625 12.96875-9.648437 4.257812-3.007813 8.59375-5.898438 12.96875-8.671875 4.257812-2.695313 8.59375-5.273438 12.96875-7.734375 4.257812-2.421875 8.59375-4.726563 12.96875-6.914063 4.257812-2.148437 8.59375-4.179687 12.96875-6.132812 4.296875-1.875 8.59375-3.671875 12.96875-5.351563 4.296875-1.679687 8.632812-3.242187 12.96875-4.726562 4.296875-1.445313 8.632812-2.8125 12.96875-4.101563 4.296875-1.25 8.632812-2.421875 12.96875-3.554687 4.296875-1.09375 8.632812-2.109375 12.96875-3.046875 4.296875-.9375 8.632812-1.796875 12.96875-2.617188 4.296875-.78125 8.632812-1.523437 12.96875-2.226562 4.296875-.664063 8.632812-1.328125 12.96875-1.875 4.296875-.585938 8.632812-1.132813 12.96875-1.601563s8.632812-.9375 12.96875-1.328125c4.335938-.429687 8.632812-.78125 12.96875-1.132812 4.296875-.3125 8.632812-.625 12.96875-.898438 4.335938-.273437 8.632812-.546875 12.96875-.78125s8.632812-.429687 12.96875-.625c4.335938-.195312 8.632812-.351562 12.96875-.507812s8.632812-.273438 12.96875-.429688c4.335938-.117187 8.671875-.234375 12.96875-.3125 4.335938-.117187 8.632812-.195312 12.96875-.273437s8.671875-.15625 12.96875-.234375c4.335938-.039063 8.671875-.117188 12.96875-.15625 4.335938-.039063 8.632812-.078125 12.96875-.15625 4.335938-.039063 8.632812-.039063 12.96875-.078125 4.335938-.039063 8.632812-.078125 12.96875-.078125 4.335938-.039063 8.632812-.078125 12.96875-.078125 4.335938-.039063 8.671875-.039063 12.96875-.039063 4.335938-.039062 8.671875-.039062 12.96875-.039062 4.335938-.039063 8.671875-.039063 12.96875-.039063 4.335938 0 8.671875-.039062 12.96875-.039062h12.96875" style="fill:none;stroke-width:19.9966;stroke-linecap:round;stroke-linejoin:round;stroke:#191970;stroke-opacity:.7;stroke-miterlimit:10" transform="matrix(.1 0 0 -.1 0 226.77)"/><path d="m24.878906 108.371094h82.332032l.695312-.007813.347656-.007812.347656-.011719.347657-.027344.347656-.039062.347656-.0625.347657-.101563.347656-.160156.347656-.238281.34375-.355469.347656-.507813.347656-.71875.347657-.984374.347656-1.308594.347656-1.703125.347657-2.152344.347656-2.640625.347656-3.148438.347656-3.644531.347656-4.082031.347657-4.417969.695312-9.210937.34375-4.378906.347657-3.921876.347656-3.238281.347656-2.351562.347656-1.3125.347656-.191407.347657.945313.347656 2.019531.347656 2.960938.347657 3.71875.347656 4.253906.347656 4.554688.347656 4.628906.347656 4.5.347657 4.207031.34375 3.796875.347656 3.320312.347656 2.808594.347657 2.3125.347656 1.84375.347656 1.4375.347656 1.082032.347656.800781.347657.574219.347656.402343.347656.273438.347657.179687.347656.121094.34375.074219.351562.046875.34375.027344.347656.015624.695313.015626.347656.003906h36.128907z" fill="#20b2aa" fill-opacity=".2"/><path d="m248.789062 1183.989062h823.320313l6.953125.078125 3.476562.078125 3.476563.117188 3.476563.273437 3.476562.390625 3.476562.625 3.476563 1.015625 3.476563 1.601563 3.476562 2.382812 3.4375 3.554688 3.476562 5.078125 3.476563 7.1875 3.476563 9.84375 3.476562 13.085937 3.476562 17.03125 3.476563 21.523438 3.476563 26.40625 3.476562 31.484375 3.476562 36.445312 3.476563 40.820313 3.476563 44.179687 6.953124 92.109375 3.4375 43.789063 3.476563 39.21875 3.476563 32.382812 3.476562 23.515625 3.476562 13.125 3.476563 1.914063 3.476563-9.453125 3.476562-20.195313 3.476562-29.609375 3.476563-37.1875 3.476563-42.539062 3.476562-45.546875 3.476562-46.289063 3.476563-45 3.476563-42.070312 3.4375-37.96875 3.476562-33.203125 3.476562-28.085938 3.476563-23.125 3.476563-18.4375 3.476562-14.375 3.476562-10.820312 3.476563-8.007813 3.476563-5.742187 3.476562-4.023438 3.476562-2.734375 3.476563-1.796875 3.476563-1.210937 3.4375-.742188 3.515624-.46875 3.4375-.273437 3.476563-.15625 6.953125-.15625 3.476562-.039063h361.289063" style="fill:none;stroke-width:14.9975;stroke-linecap:round;stroke-linejoin:round;stroke:#191970;stroke-opacity:.7;stroke-miterlimit:10" transform="matrix(.1 0 0 -.1 0 226.77)"/><path d="m186.996094 108.371094h47.59375l.695312-.007813.347656-.007812.347657-.011719.347656-.027344.347656-.039062.34375-.0625.347657-.101563.347656-.160156.347656-.238281.347656-.355469.347656-.507813.347657-.71875.347656-.984374.347656-1.308594.347657-1.703125.347656-2.152344.347656-2.640625.347656-3.148438.347656-3.644531.347657-4.082031.34375-4.417969.695312-9.210937.347657-4.378906.347656-3.921876.347656-3.238281.347656-2.351562.347656-1.3125.347657-.191407.347656.945313.347656 2.019531.347657 2.960938.347656 3.71875.34375 4.253906.351562 4.554688.34375 4.628906.347656 4.5.347657 4.207031.347656 3.796875.347656 3.320312.347657 2.808594.347656 2.3125.347656 1.84375.347656 1.4375.347656 1.082032.347657.800781.347656.574219.347656.402343.347657.273438.347656.179687.34375.121094.351562.074219.34375.046875.347656.027344.347657.015624.695312.015626.347657.003906h70.867187z" fill="#20b2aa" fill-opacity=".2"/><path d="m1869.960938 1183.989062h475.9375l6.953124.078125 3.476563.078125 3.476563.117188 3.476562.273437 3.476562.390625 3.4375.625 3.476563 1.015625 3.476563 1.601563 3.476562 2.382812 3.476562 3.554688 3.476563 5.078125 3.476563 7.1875 3.476562 9.84375 3.476562 13.085937 3.476563 17.03125 3.476563 21.523438 3.476562 26.40625 3.476562 31.484375 3.476563 36.445312 3.476563 40.820313 3.4375 44.179687 6.953124 92.109375 3.476563 43.789063 3.476563 39.21875 3.476562 32.382812 3.476562 23.515625 3.476563 13.125 3.476563 1.914063 3.476562-9.453125 3.476562-20.195313 3.476563-29.609375 3.476563-37.1875 3.4375-42.539062 3.515624-45.546875 3.4375-46.289063 3.476563-45 3.476563-42.070312 3.476562-37.96875 3.476562-33.203125 3.476563-28.085938 3.476563-23.125 3.476562-18.4375 3.476562-14.375 3.476563-10.820312 3.476563-8.007813 3.476562-5.742187 3.476562-4.023438 3.476563-2.734375 3.476563-1.796875 3.4375-1.210937 3.515624-.742188 3.4375-.46875 3.476563-.273437 3.476563-.15625 6.953124-.15625 3.476563-.039063h708.671875" style="fill:none;stroke-width:14.9975;stroke-linecap:round;stroke-linejoin:round;stroke:#191970;stroke-opacity:.7;stroke-miterlimit:10" transform="matrix(.1 0 0 -.1 0 226.77)"/><path d="m179.296875 62.153125v1988.671875h3149.726563" style="fill:none;stroke-width:4.99916;stroke-linecap:round;stroke-linejoin:round;stroke:#7f7f7f;stroke-miterlimit:10" transform="matrix(.1 0 0 -.1 0 226.77)"/><use x="114.84" xlink:href="#c" y="225.32977"/><use fill="#191970" x="79.4398" xlink:href="#d" y="150.8098"/><use fill="#191970" x="82.4398" xlink:href="#f" y="152.48988"/><use fill="#191970" x="82.080034" xlink:href="#g" y="153.8098"/><use fill="#191970" x="85.799954" xlink:href="#h" y="150.8098"/><use fill="#191970" x="89.399954" xlink:href="#e" y="150.8098"/><use fill="#191970" x="93.719874" xlink:href="#i" y="150.8098"/><use fill="#191970" x="168.480074" xlink:href="#e" y="219.3297"/><use x="276.96" xlink:href="#c" y="225.32977"/><use fill="#191970" x="241.56" xlink:href="#d" y="150.8098"/><use fill="#191970" x="244.56" xlink:href="#f" y="152.48988"/><use fill="#191970" x="244.199844" xlink:href="#g" y="153.8098"/><use fill="#191970" x="247.919764" xlink:href="#h" y="150.8098"/><use fill="#191970" x="251.519764" xlink:href="#e" y="150.8098"/><use fill="#191970" x="255.839684" xlink:href="#i" y="150.8098"/><use fill="#191970" x="330.599884" xlink:href="#e" y="219.3297"/><use x="114.84" xlink:href="#c" y="123.33"/><use fill="#191970" x="79.4398" xlink:href="#d" y="48.81"/><use fill="#191970" x="82.4398" xlink:href="#f" y="50.49008"/><use fill="#191970" x="82.080034" xlink:href="#g" y="51.81"/><use fill="#191970" x="85.799954" xlink:href="#h" y="48.81"/><use fill="#191970" x="89.399954" xlink:href="#e" y="48.81"/><use fill="#191970" x="93.719874" xlink:href="#i" y="48.81"/><use fill="#191970" x="168.480074" xlink:href="#e" y="117.3299"/><use x="276.96" xlink:href="#c" y="123.33"/><use fill="#191970" x="241.56" xlink:href="#d" y="48.81"/><use fill="#191970" x="244.56" xlink:href="#f" y="50.49008"/><use fill="#191970" x="244.199844" xlink:href="#g" y="51.81"/><use fill="#191970" x="247.919764" xlink:href="#h" y="48.81"/><use fill="#191970" x="251.519764" xlink:href="#e" y="48.81"/><use fill="#191970" x="255.839684" xlink:href="#i" y="48.81"/><use fill="#191970" x="330.599884" xlink:href="#e" y="117.3299"/><use x="9.96016" xlink:href="#j" y="98.37"/><use x="9.96016" xlink:href="#k" y="95.49"/><use x="9.96016" xlink:href="#l" y="90.09"/><use x="9.96016" xlink:href="#m" y="79.17"/><use x="9.96016" xlink:href="#n" y="73.53"/><use x="9.96016" xlink:href="#o" y="68.49"/><use x="9.96016" xlink:href="#p" y="64.53"/><use x="9.96016" xlink:href="#n" y="61.65"/><use x="9.96016" xlink:href="#q" y="56.61"/><g><use x="9.96016" xlink:href="#r" y="50.85"/><use x="9.96016" xlink:href="#s" y="46.41"/></g><use x="8.63985" xlink:href="#t" y="202.17"/><use x="8.63985" xlink:href="#p" y="196.41"/><use x="8.63985" xlink:href="#u" y="193.53"/><use x="8.63985" xlink:href="#t" y="188.01"/><use x="8.63985" xlink:href="#m" y="179.48992"/><use x="8.63985" xlink:href="#n" y="173.84992"/><use x="8.63985" xlink:href="#o" y="168.80992"/><use x="8.63985" xlink:href="#p" y="164.84992"/><use x="8.63985" xlink:href="#n" y="161.96992"/><use x="8.63985" xlink:href="#q" y="156.92992"/><g><use x="8.63985" xlink:href="#r" y="151.16992"/><use x="8.63985" xlink:href="#s" y="146.72992"/></g><use x="236.4" xlink:href="#v" y="8.61"/><use x="242.160015" xlink:href="#w" y="8.61"/><use x="245.039985" xlink:href="#x" y="8.61"/><use x="250.559971" xlink:href="#v" y="8.61"/><use x="258.960141" xlink:href="#y" y="8.61"/><use x="264.480141" xlink:href="#w" y="8.61"/><use x="267.360141" xlink:href="#z" y="8.61"/><use x="272.400141" xlink:href="#A" y="8.61"/><use x="75.96" xlink:href="#B" y="9.92992"/><use x="78.84" xlink:href="#C" y="9.92992"/><use x="84.24" xlink:href="#D" y="9.92992"/><use x="95.16" xlink:href="#y" y="9.92992"/><use x="100.68" xlink:href="#w" y="9.92992"/><use x="103.56" xlink:href="#z" y="9.92992"/><use x="108.6" xlink:href="#A" y="9.92992"/></svg>