<?xml version="1.0" encoding="UTF-8"?>
<svg  preserveAspectRatio='none' xmlns="http://www.w3.org/2000/svg" xmlns:xlink="http://www.w3.org/1999/xlink" width="130pt" height="130pt" viewBox="0 0 130 130" version="1.1">
<!-- ***Exported Comment***
Created by Mathematica
***Exported Comment*** -->
<g id="surface113">
<path style="fill:none;stroke-width:0.36;stroke-linecap:square;stroke-linejoin:miter;stroke:rgb(14.99939%,28.999329%,50%);stroke-opacity:0.7;stroke-miterlimit:3.25;" d="M 84.300781 23.195312 L 84.300781 132.195312 " transform="matrix(1,0,0,1,-74,-13)"/>
<path style="fill:none;stroke-width:0.36;stroke-linecap:square;stroke-linejoin:miter;stroke:rgb(14.99939%,28.999329%,50%);stroke-opacity:0.7;stroke-miterlimit:3.25;" d="M 84.300781 23.195312 L 138.800781 77.695312 " transform="matrix(1,0,0,1,-74,-13)"/>
<path style="fill:none;stroke-width:0.36;stroke-linecap:square;stroke-linejoin:miter;stroke:rgb(14.99939%,28.999329%,50%);stroke-opacity:0.7;stroke-miterlimit:3.25;" d="M 84.300781 132.195312 L 138.800781 77.695312 " transform="matrix(1,0,0,1,-74,-13)"/>
<path style="fill:none;stroke-width:0.36;stroke-linecap:square;stroke-linejoin:miter;stroke:rgb(14.99939%,28.999329%,50%);stroke-opacity:0.7;stroke-miterlimit:3.25;" d="M 138.800781 77.695312 L 193.300781 23.195312 " transform="matrix(1,0,0,1,-74,-13)"/>
<path style="fill:none;stroke-width:0.36;stroke-linecap:square;stroke-linejoin:miter;stroke:rgb(14.99939%,28.999329%,50%);stroke-opacity:0.7;stroke-miterlimit:3.25;" d="M 138.800781 77.695312 L 193.300781 132.195312 " transform="matrix(1,0,0,1,-74,-13)"/>
<path style="fill:none;stroke-width:0.36;stroke-linecap:square;stroke-linejoin:miter;stroke:rgb(14.99939%,28.999329%,50%);stroke-opacity:0.7;stroke-miterlimit:3.25;" d="M 193.300781 23.195312 L 193.300781 132.195312 " transform="matrix(1,0,0,1,-74,-13)"/>
<path style="fill-rule:evenodd;fill:rgb(63.996887%,70.397949%,79.997253%);fill-opacity:1;stroke-width:0.36;stroke-linecap:square;stroke-linejoin:miter;stroke:rgb(0%,0%,0%);stroke-opacity:0.7;stroke-miterlimit:3.25;" d="M 92.007812 23.195312 C 92.007812 21.152344 91.195312 19.191406 89.75 17.746094 C 88.304688 16.300781 86.34375 15.488281 84.300781 15.488281 C 82.253906 15.488281 80.296875 16.300781 78.847656 17.746094 C 77.402344 19.191406 76.59375 21.152344 76.59375 23.195312 C 76.59375 25.238281 77.402344 27.199219 78.847656 28.644531 C 80.296875 30.089844 82.253906 30.902344 84.300781 30.902344 C 86.34375 30.902344 88.304688 30.089844 89.75 28.644531 C 91.195312 27.199219 92.007812 25.238281 92.007812 23.195312 Z M 92.007812 23.195312 " transform="matrix(1,0,0,1,-74,-13)"/>
<path style=" stroke:none;fill-rule:evenodd;fill:rgb(0%,0%,0%);fill-opacity:1;" d="M 10.882812 12.441406 L 10.3125 12.441406 L 10.3125 8.8125 C 10.175781 8.945312 9.996094 9.074219 9.773438 9.207031 C 9.550781 9.335938 9.351562 9.433594 9.171875 9.5 L 9.171875 8.949219 C 9.492188 8.800781 9.769531 8.617188 10.007812 8.40625 C 10.246094 8.191406 10.414062 7.984375 10.515625 7.785156 L 10.882812 7.785156 Z M 10.882812 12.441406 "/>
<path style="fill-rule:evenodd;fill:rgb(63.996887%,70.397949%,79.997253%);fill-opacity:1;stroke-width:0.36;stroke-linecap:square;stroke-linejoin:miter;stroke:rgb(0%,0%,0%);stroke-opacity:0.7;stroke-miterlimit:3.25;" d="M 92.007812 132.195312 C 92.007812 130.152344 91.195312 128.191406 89.75 126.746094 C 88.304688 125.300781 86.34375 124.488281 84.300781 124.488281 C 82.253906 124.488281 80.296875 125.300781 78.847656 126.746094 C 77.402344 128.191406 76.59375 130.152344 76.59375 132.195312 C 76.59375 134.242188 77.402344 136.203125 78.847656 137.648438 C 80.296875 139.09375 82.253906 139.90625 84.300781 139.90625 C 86.34375 139.90625 88.304688 139.09375 89.75 137.648438 C 91.195312 136.203125 92.007812 134.242188 92.007812 132.195312 Z M 92.007812 132.195312 " transform="matrix(1,0,0,1,-74,-13)"/>
<path style=" stroke:none;fill-rule:evenodd;fill:rgb(0%,0%,0%);fill-opacity:1;" d="M 11.761719 120.894531 L 11.761719 121.441406 L 8.691406 121.441406 C 8.691406 121.304688 8.714844 121.171875 8.765625 121.046875 C 8.84375 120.835938 8.972656 120.632812 9.148438 120.429688 C 9.324219 120.226562 9.570312 119.992188 9.890625 119.726562 C 10.382812 119.3125 10.71875 118.984375 10.894531 118.742188 C 11.066406 118.5 11.15625 118.269531 11.15625 118.054688 C 11.15625 117.828125 11.074219 117.636719 10.914062 117.480469 C 10.757812 117.328125 10.550781 117.25 10.292969 117.25 C 10.027344 117.25 9.808594 117.332031 9.648438 117.496094 C 9.484375 117.660156 9.40625 117.890625 9.40625 118.183594 L 8.804688 118.121094 C 8.84375 117.683594 8.996094 117.351562 9.253906 117.121094 C 9.515625 116.890625 9.863281 116.777344 10.304688 116.777344 C 10.746094 116.777344 11.09375 116.902344 11.351562 117.148438 C 11.609375 117.394531 11.738281 117.703125 11.738281 118.066406 C 11.738281 118.253906 11.703125 118.4375 11.625 118.613281 C 11.550781 118.792969 11.425781 118.984375 11.25 119.183594 C 11.074219 119.382812 10.785156 119.652344 10.382812 120 C 10.046875 120.289062 9.832031 120.484375 9.738281 120.585938 C 9.644531 120.6875 9.5625 120.792969 9.5 120.894531 Z M 11.761719 120.894531 "/>
<path style="fill-rule:evenodd;fill:rgb(63.996887%,70.397949%,79.997253%);fill-opacity:1;stroke-width:0.36;stroke-linecap:square;stroke-linejoin:miter;stroke:rgb(0%,0%,0%);stroke-opacity:0.7;stroke-miterlimit:3.25;" d="M 146.507812 77.695312 C 146.507812 75.652344 145.695312 73.691406 144.25 72.246094 C 142.804688 70.800781 140.84375 69.988281 138.800781 69.988281 C 136.753906 69.988281 134.796875 70.800781 133.351562 72.246094 C 131.90625 73.691406 131.09375 75.652344 131.09375 77.695312 C 131.09375 79.742188 131.90625 81.699219 133.351562 83.144531 C 134.796875 84.59375 136.753906 85.402344 138.800781 85.402344 C 140.84375 85.402344 142.804688 84.59375 144.25 83.144531 C 145.695312 81.699219 146.507812 79.742188 146.507812 77.695312 Z M 146.507812 77.695312 " transform="matrix(1,0,0,1,-74,-13)"/>
<path style=" stroke:none;fill-rule:evenodd;fill:rgb(0%,0%,0%);fill-opacity:1;" d="M 63.300781 65.707031 L 63.871094 65.628906 C 63.933594 65.949219 64.046875 66.183594 64.203125 66.324219 C 64.359375 66.464844 64.546875 66.535156 64.773438 66.535156 C 65.039062 66.535156 65.261719 66.445312 65.445312 66.257812 C 65.628906 66.074219 65.71875 65.84375 65.71875 65.570312 C 65.71875 65.3125 65.636719 65.097656 65.464844 64.929688 C 65.296875 64.757812 65.085938 64.675781 64.824219 64.675781 C 64.71875 64.675781 64.585938 64.695312 64.421875 64.738281 L 64.488281 64.238281 C 64.523438 64.242188 64.554688 64.246094 64.578125 64.246094 C 64.820312 64.246094 65.039062 64.179688 65.234375 64.054688 C 65.429688 63.925781 65.523438 63.726562 65.523438 63.460938 C 65.523438 63.25 65.453125 63.078125 65.3125 62.9375 C 65.171875 62.800781 64.988281 62.730469 64.765625 62.730469 C 64.542969 62.730469 64.359375 62.800781 64.210938 62.941406 C 64.0625 63.082031 63.96875 63.292969 63.925781 63.574219 L 63.359375 63.472656 C 63.425781 63.089844 63.585938 62.792969 63.832031 62.578125 C 64.078125 62.367188 64.386719 62.261719 64.753906 62.261719 C 65.007812 62.261719 65.238281 62.316406 65.453125 62.425781 C 65.664062 62.535156 65.828125 62.683594 65.941406 62.875 C 66.054688 63.0625 66.109375 63.265625 66.109375 63.476562 C 66.109375 63.679688 66.054688 63.863281 65.941406 64.027344 C 65.832031 64.191406 65.675781 64.324219 65.472656 64.421875 C 65.738281 64.484375 65.949219 64.617188 66.097656 64.816406 C 66.25 65.015625 66.324219 65.261719 66.324219 65.558594 C 66.324219 65.964844 66.175781 66.304688 65.882812 66.585938 C 65.589844 66.867188 65.21875 67.007812 64.769531 67.007812 C 64.363281 67.007812 64.027344 66.886719 63.757812 66.644531 C 63.492188 66.402344 63.339844 66.089844 63.300781 65.707031 Z M 63.300781 65.707031 "/>
<path style="fill-rule:evenodd;fill:rgb(63.996887%,70.397949%,79.997253%);fill-opacity:1;stroke-width:0.36;stroke-linecap:square;stroke-linejoin:miter;stroke:rgb(0%,0%,0%);stroke-opacity:0.7;stroke-miterlimit:3.25;" d="M 201.007812 23.195312 C 201.007812 21.152344 200.195312 19.191406 198.75 17.746094 C 197.304688 16.300781 195.34375 15.488281 193.300781 15.488281 C 191.257812 15.488281 189.296875 16.300781 187.851562 17.746094 C 186.40625 19.191406 185.59375 21.152344 185.59375 23.195312 C 185.59375 25.238281 186.40625 27.199219 187.851562 28.644531 C 189.296875 30.089844 191.257812 30.902344 193.300781 30.902344 C 195.34375 30.902344 197.304688 30.089844 198.75 28.644531 C 200.195312 27.199219 201.007812 25.238281 201.007812 23.195312 Z M 201.007812 23.195312 " transform="matrix(1,0,0,1,-74,-13)"/>
<path style=" stroke:none;fill-rule:evenodd;fill:rgb(0%,0%,0%);fill-opacity:1;" d="M 119.570312 12.441406 L 119.570312 11.339844 L 117.5625 11.339844 L 117.5625 10.816406 L 119.675781 7.804688 L 120.140625 7.804688 L 120.140625 10.816406 L 120.773438 10.816406 L 120.773438 11.339844 L 120.140625 11.339844 L 120.140625 12.441406 Z M 119.570312 10.816406 L 119.570312 8.722656 L 118.121094 10.816406 Z M 119.570312 10.816406 "/>
<path style="fill-rule:evenodd;fill:rgb(63.996887%,70.397949%,79.997253%);fill-opacity:1;stroke-width:0.36;stroke-linecap:square;stroke-linejoin:miter;stroke:rgb(0%,0%,0%);stroke-opacity:0.7;stroke-miterlimit:3.25;" d="M 201.007812 132.195312 C 201.007812 130.152344 200.195312 128.191406 198.75 126.746094 C 197.304688 125.300781 195.34375 124.488281 193.300781 124.488281 C 191.257812 124.488281 189.296875 125.300781 187.851562 126.746094 C 186.40625 128.191406 185.59375 130.152344 185.59375 132.195312 C 185.59375 134.242188 186.40625 136.203125 187.851562 137.648438 C 189.296875 139.09375 191.257812 139.90625 193.300781 139.90625 C 195.34375 139.90625 197.304688 139.09375 198.75 137.648438 C 200.195312 136.203125 201.007812 134.242188 201.007812 132.195312 Z M 201.007812 132.195312 " transform="matrix(1,0,0,1,-74,-13)"/>
<path style=" stroke:none;fill-rule:evenodd;fill:rgb(0%,0%,0%);fill-opacity:1;" d="M 117.75 120.210938 L 118.347656 120.160156 C 118.390625 120.453125 118.496094 120.671875 118.65625 120.820312 C 118.816406 120.964844 119.011719 121.039062 119.238281 121.039062 C 119.515625 121.039062 119.746094 120.9375 119.9375 120.730469 C 120.125 120.523438 120.21875 120.246094 120.21875 119.902344 C 120.21875 119.578125 120.128906 119.320312 119.945312 119.132812 C 119.765625 118.945312 119.527344 118.851562 119.230469 118.851562 C 119.046875 118.851562 118.878906 118.894531 118.734375 118.976562 C 118.585938 119.058594 118.46875 119.167969 118.386719 119.300781 L 117.851562 119.230469 L 118.300781 116.84375 L 120.609375 116.84375 L 120.609375 117.386719 L 118.753906 117.386719 L 118.507812 118.640625 C 118.785156 118.445312 119.074219 118.347656 119.382812 118.347656 C 119.785156 118.347656 120.128906 118.488281 120.40625 118.769531 C 120.683594 119.050781 120.824219 119.410156 120.824219 119.851562 C 120.824219 120.273438 120.703125 120.636719 120.457031 120.945312 C 120.160156 121.320312 119.753906 121.507812 119.238281 121.507812 C 118.816406 121.507812 118.472656 121.390625 118.207031 121.152344 C 117.941406 120.917969 117.789062 120.601562 117.75 120.210938 Z M 117.75 120.210938 "/>
</g>
</svg>
