<?xml version="1.0" encoding="UTF-8"?>
<svg  preserveAspectRatio='none' xmlns="http://www.w3.org/2000/svg" xmlns:xlink="http://www.w3.org/1999/xlink" width="260pt" height="138pt" viewBox="0 0 260 138" version="1.1">
<!-- ***Exported Comment***
Created by Mathematica
***Exported Comment*** -->
<g id="surface185">
<path style="fill:none;stroke-width:0.36;stroke-linecap:butt;stroke-linejoin:miter;stroke:rgb(14.99939%,28.999329%,50%);stroke-opacity:0.7;stroke-miterlimit:3.25;" d="M 213.0625 130.074219 L 300.699219 89.296875 " transform="matrix(1,0,0,1,-74,-13)"/>
<path style="fill:none;stroke-width:0.36;stroke-linecap:butt;stroke-linejoin:miter;stroke:rgb(14.99939%,28.999329%,50%);stroke-opacity:0.7;stroke-miterlimit:3.25;" d="M 203.46875 123.945312 L 203.570312 47.011719 " transform="matrix(1,0,0,1,-74,-13)"/>
<path style="fill:none;stroke-width:0.36;stroke-linecap:butt;stroke-linejoin:miter;stroke:rgb(14.99939%,28.999329%,50%);stroke-opacity:0.7;stroke-miterlimit:3.25;" d="M 307.808594 77.046875 L 220.316406 36.351562 " transform="matrix(1,0,0,1,-74,-13)"/>
<path style="fill:none;stroke-width:0.36;stroke-linecap:butt;stroke-linejoin:miter;stroke:rgb(14.99939%,28.999329%,50%);stroke-opacity:0.7;stroke-miterlimit:3.25;" d="M 193.984375 33.039062 L 106.503906 73.679688 " transform="matrix(1,0,0,1,-74,-13)"/>
<path style="fill:none;stroke-width:0.36;stroke-linecap:butt;stroke-linejoin:miter;stroke:rgb(14.99939%,28.999329%,50%);stroke-opacity:0.7;stroke-miterlimit:3.25;" d="M 99.382812 85.933594 L 186.746094 126.742188 " transform="matrix(1,0,0,1,-74,-13)"/>
<path style=" stroke:none;fill-rule:evenodd;fill:rgb(14.99939%,28.999329%,50%);fill-opacity:0.7;" d="M 225.019531 74.570312 L 225.242188 74.75 L 225.753906 75.195312 L 226.046875 75.472656 L 226.320312 75.761719 L 226.546875 76.039062 L 226.699219 76.296875 L 226.785156 76.550781 L 226.851562 76.902344 L 226.898438 77.308594 L 226.933594 77.730469 L 226.96875 78.460938 L 226.976562 78.777344 L 233.8125 72.988281 Z M 225.019531 74.570312 "/>
<path style=" stroke:none;fill-rule:evenodd;fill:rgb(14.99939%,28.999329%,50%);fill-opacity:0.7;" d="M 127.296875 34.808594 L 127.554688 34.679688 L 128.175781 34.40625 L 128.550781 34.257812 L 128.925781 34.132812 L 129.277344 34.042969 L 129.570312 34.011719 L 129.839844 34.042969 L 130.183594 34.132812 L 130.574219 34.261719 L 130.96875 34.410156 L 131.648438 34.6875 L 131.933594 34.8125 L 129.582031 26.171875 Z M 127.296875 34.808594 "/>
<path style=" stroke:none;fill-rule:evenodd;fill:rgb(14.99939%,28.999329%,50%);fill-opacity:0.7;" d="M 146.078125 25.75 L 146.074219 25.460938 L 146.085938 24.78125 L 146.109375 24.378906 L 146.152344 23.984375 L 146.21875 23.628906 L 146.316406 23.351562 L 146.457031 23.121094 L 146.679688 22.84375 L 146.960938 22.546875 L 147.261719 22.25 L 147.800781 21.75 L 148.035156 21.542969 L 139.203125 20.042969 Z M 146.078125 25.75 "/>
<path style=" stroke:none;fill-rule:evenodd;fill:rgb(14.99939%,28.999329%,50%);fill-opacity:0.7;" d="M 34.183594 62.40625 L 33.960938 62.226562 L 33.449219 61.78125 L 33.15625 61.503906 L 32.882812 61.214844 L 32.65625 60.9375 L 32.503906 60.679688 L 32.417969 60.425781 L 32.355469 60.074219 L 32.304688 59.667969 L 32.273438 59.246094 L 32.238281 58.515625 L 32.230469 58.199219 L 25.390625 63.984375 Z M 34.183594 62.40625 "/>
<path style=" stroke:none;fill-rule:evenodd;fill:rgb(14.99939%,28.999329%,50%);fill-opacity:0.7;" d="M 112.988281 111.34375 L 112.992188 111.632812 L 112.980469 112.3125 L 112.957031 112.710938 L 112.914062 113.105469 L 112.84375 113.460938 L 112.746094 113.742188 L 112.605469 113.96875 L 112.378906 114.246094 L 112.101562 114.542969 L 111.800781 114.839844 L 111.261719 115.339844 L 111.023438 115.546875 L 119.851562 117.058594 Z M 112.988281 111.34375 "/>
<path style="fill-rule:evenodd;fill:rgb(63.996887%,70.397949%,79.997253%);fill-opacity:1;stroke-width:0.36;stroke-linecap:square;stroke-linejoin:miter;stroke:rgb(0%,0%,0%);stroke-opacity:0.7;stroke-miterlimit:3.25;" d="M 214.050781 134.542969 C 214.050781 131.734375 212.933594 129.039062 210.949219 127.050781 C 208.960938 125.0625 206.265625 123.945312 203.453125 123.945312 C 200.644531 123.945312 197.949219 125.0625 195.960938 127.050781 C 193.972656 129.039062 192.859375 131.734375 192.859375 134.542969 C 192.859375 137.355469 193.972656 140.050781 195.960938 142.039062 C 197.949219 144.023438 200.644531 145.140625 203.453125 145.140625 C 206.265625 145.140625 208.960938 144.023438 210.949219 142.039062 C 212.933594 140.050781 214.050781 137.355469 214.050781 134.542969 Z M 214.050781 134.542969 " transform="matrix(1,0,0,1,-74,-13)"/>
<path style=" stroke:none;fill-rule:evenodd;fill:rgb(0%,0%,0%);fill-opacity:1;" d="M 130.035156 123.789062 L 129.46875 123.789062 L 129.46875 120.160156 C 129.332031 120.292969 129.152344 120.421875 128.925781 120.554688 C 128.703125 120.683594 128.503906 120.78125 128.328125 120.847656 L 128.328125 120.296875 C 128.648438 120.148438 128.925781 119.964844 129.164062 119.753906 C 129.402344 119.539062 129.570312 119.332031 129.667969 119.132812 L 130.035156 119.132812 Z M 130.035156 123.789062 "/>
<path style="fill-rule:evenodd;fill:rgb(63.996887%,70.397949%,79.997253%);fill-opacity:1;stroke-width:0.36;stroke-linecap:square;stroke-linejoin:miter;stroke:rgb(0%,0%,0%);stroke-opacity:0.7;stroke-miterlimit:3.25;" d="M 328.015625 81.515625 C 328.015625 78.707031 326.898438 76.011719 324.914062 74.023438 C 322.925781 72.035156 320.230469 70.917969 317.417969 70.917969 C 314.609375 70.917969 311.914062 72.035156 309.925781 74.023438 C 307.9375 76.011719 306.820312 78.707031 306.820312 81.515625 C 306.820312 84.328125 307.9375 87.023438 309.925781 89.007812 C 311.914062 90.996094 314.609375 92.113281 317.417969 92.113281 C 320.230469 92.113281 322.925781 90.996094 324.914062 89.007812 C 326.898438 87.023438 328.015625 84.328125 328.015625 81.515625 Z M 328.015625 81.515625 " transform="matrix(1,0,0,1,-74,-13)"/>
<path style=" stroke:none;fill-rule:evenodd;fill:rgb(0%,0%,0%);fill-opacity:1;" d="M 244.878906 70.214844 L 244.878906 70.761719 L 241.8125 70.761719 C 241.8125 70.625 241.835938 70.492188 241.882812 70.367188 C 241.964844 70.15625 242.09375 69.953125 242.265625 69.75 C 242.441406 69.546875 242.691406 69.3125 243.007812 69.046875 C 243.503906 68.628906 243.839844 68.300781 244.011719 68.058594 C 244.1875 67.816406 244.273438 67.589844 244.273438 67.375 C 244.273438 67.148438 244.195312 66.957031 244.035156 66.800781 C 243.875 66.644531 243.667969 66.570312 243.414062 66.570312 C 243.144531 66.570312 242.929688 66.652344 242.765625 66.816406 C 242.605469 66.980469 242.523438 67.210938 242.523438 67.5 L 241.925781 67.441406 C 241.964844 67.003906 242.113281 66.671875 242.375 66.441406 C 242.632812 66.210938 242.984375 66.097656 243.421875 66.097656 C 243.863281 66.097656 244.214844 66.21875 244.472656 66.46875 C 244.730469 66.714844 244.859375 67.019531 244.859375 67.386719 C 244.859375 67.574219 244.820312 67.753906 244.746094 67.933594 C 244.671875 68.113281 244.542969 68.304688 244.367188 68.503906 C 244.195312 68.699219 243.90625 68.972656 243.503906 69.320312 C 243.167969 69.609375 242.953125 69.804688 242.855469 69.90625 C 242.761719 70.007812 242.683594 70.109375 242.621094 70.214844 Z M 244.878906 70.214844 "/>
<path style="fill-rule:evenodd;fill:rgb(63.996887%,70.397949%,79.997253%);fill-opacity:1;stroke-width:0.36;stroke-linecap:square;stroke-linejoin:miter;stroke:rgb(0%,0%,0%);stroke-opacity:0.7;stroke-miterlimit:3.25;" d="M 214.191406 28.574219 C 214.191406 25.761719 213.078125 23.066406 211.089844 21.082031 C 209.101562 19.09375 206.40625 17.976562 203.597656 17.976562 C 200.785156 17.976562 198.089844 19.09375 196.101562 21.082031 C 194.117188 23.066406 193 25.761719 193 28.574219 C 193 31.382812 194.117188 34.078125 196.101562 36.066406 C 198.089844 38.054688 200.785156 39.171875 203.597656 39.171875 C 206.40625 39.171875 209.101562 38.054688 211.089844 36.066406 C 213.078125 34.078125 214.191406 31.382812 214.191406 28.574219 Z M 214.191406 28.574219 " transform="matrix(1,0,0,1,-74,-13)"/>
<path style=" stroke:none;fill-rule:evenodd;fill:rgb(0%,0%,0%);fill-opacity:1;" d="M 128.097656 16.582031 L 128.664062 16.507812 C 128.730469 16.828125 128.84375 17.058594 128.996094 17.203125 C 129.152344 17.34375 129.34375 17.414062 129.566406 17.414062 C 129.832031 17.414062 130.058594 17.320312 130.238281 17.136719 C 130.421875 16.953125 130.515625 16.722656 130.515625 16.449219 C 130.515625 16.1875 130.429688 15.976562 130.261719 15.804688 C 130.09375 15.636719 129.878906 15.550781 129.621094 15.550781 C 129.511719 15.550781 129.378906 15.574219 129.21875 15.613281 L 129.285156 15.117188 C 129.320312 15.121094 129.351562 15.121094 129.375 15.121094 C 129.617188 15.121094 129.835938 15.058594 130.03125 14.929688 C 130.222656 14.804688 130.320312 14.605469 130.320312 14.339844 C 130.320312 14.128906 130.25 13.953125 130.109375 13.816406 C 129.96875 13.675781 129.785156 13.609375 129.5625 13.609375 C 129.339844 13.609375 129.15625 13.679688 129.007812 13.820312 C 128.859375 13.960938 128.765625 14.171875 128.722656 14.453125 L 128.152344 14.347656 C 128.222656 13.964844 128.382812 13.667969 128.628906 13.457031 C 128.875 13.246094 129.179688 13.140625 129.546875 13.140625 C 129.800781 13.140625 130.035156 13.195312 130.246094 13.304688 C 130.460938 13.414062 130.625 13.5625 130.734375 13.75 C 130.847656 13.941406 130.90625 14.140625 130.90625 14.355469 C 130.90625 14.554688 130.851562 14.738281 130.738281 14.90625 C 130.625 15.070312 130.46875 15.203125 130.265625 15.300781 C 130.535156 15.363281 130.746094 15.492188 130.894531 15.691406 C 131.042969 15.890625 131.121094 16.140625 131.121094 16.4375 C 131.121094 16.839844 130.972656 17.183594 130.679688 17.464844 C 130.386719 17.746094 130.011719 17.882812 129.5625 17.882812 C 129.160156 17.882812 128.824219 17.765625 128.554688 17.523438 C 128.289062 17.28125 128.132812 16.964844 128.097656 16.582031 Z M 128.097656 16.582031 "/>
<path style="fill-rule:evenodd;fill:rgb(63.996887%,70.397949%,79.997253%);fill-opacity:1;stroke-width:0.36;stroke-linecap:square;stroke-linejoin:miter;stroke:rgb(0%,0%,0%);stroke-opacity:0.7;stroke-miterlimit:3.25;" d="M 100.378906 81.449219 C 100.378906 78.640625 99.261719 75.945312 97.273438 73.957031 C 95.285156 71.96875 92.589844 70.851562 89.78125 70.851562 C 86.96875 70.851562 84.273438 71.96875 82.289062 73.957031 C 80.300781 75.945312 79.183594 78.640625 79.183594 81.449219 C 79.183594 84.261719 80.300781 86.957031 82.289062 88.945312 C 84.273438 90.929688 86.96875 92.046875 89.78125 92.046875 C 92.589844 92.046875 95.285156 90.929688 97.273438 88.945312 C 99.261719 86.957031 100.378906 84.261719 100.378906 81.449219 Z M 100.378906 81.449219 " transform="matrix(1,0,0,1,-74,-13)"/>
<path style=" stroke:none;fill-rule:evenodd;fill:rgb(0%,0%,0%);fill-opacity:1;" d="M 16.050781 70.695312 L 16.050781 69.59375 L 14.042969 69.59375 L 14.042969 69.074219 L 16.15625 66.058594 L 16.621094 66.058594 L 16.621094 69.074219 L 17.253906 69.074219 L 17.253906 69.59375 L 16.621094 69.59375 L 16.621094 70.695312 Z M 16.050781 69.074219 L 16.050781 66.976562 L 14.601562 69.074219 Z M 16.050781 69.074219 "/>
</g>
</svg>
