<?xml version="1.0" encoding="UTF-8"?>
<svg  preserveAspectRatio='none' xmlns="http://www.w3.org/2000/svg" xmlns:xlink="http://www.w3.org/1999/xlink" width="458pt" height="181pt" viewBox="0 0 458 181" version="1.1">
<!-- ***Exported Comment***
Created by Mathematica
***Exported Comment*** -->
<g id="surface50">
<path style="fill:none;stroke-width:0.5;stroke-linecap:square;stroke-linejoin:miter;stroke:rgb(14.99939%,28.999329%,50%);stroke-opacity:0.7;stroke-miterlimit:3.25;" d="M 126.597656 40.855469 L 126.597656 164.539062 " transform="matrix(1,0,0,1,-74,-13)"/>
<path style="fill:none;stroke-width:0.5;stroke-linecap:square;stroke-linejoin:miter;stroke:rgb(14.99939%,28.999329%,50%);stroke-opacity:0.7;stroke-miterlimit:3.25;" d="M 126.597656 40.855469 L 250.28125 40.855469 " transform="matrix(1,0,0,1,-74,-13)"/>
<path style="fill:none;stroke-width:0.5;stroke-linecap:square;stroke-linejoin:miter;stroke:rgb(14.99939%,28.999329%,50%);stroke-opacity:0.7;stroke-miterlimit:3.25;" d="M 250.28125 40.855469 L 250.28125 164.539062 " transform="matrix(1,0,0,1,-74,-13)"/>
<path style="fill:none;stroke-width:0.5;stroke-linecap:square;stroke-linejoin:miter;stroke:rgb(14.99939%,28.999329%,50%);stroke-opacity:0.7;stroke-miterlimit:3.25;" d="M 250.28125 40.855469 L 373.960938 40.855469 " transform="matrix(1,0,0,1,-74,-13)"/>
<path style="fill:none;stroke-width:0.5;stroke-linecap:square;stroke-linejoin:miter;stroke:rgb(14.99939%,28.999329%,50%);stroke-opacity:0.7;stroke-miterlimit:3.25;" d="M 373.960938 40.855469 L 373.960938 164.539062 " transform="matrix(1,0,0,1,-74,-13)"/>
<path style="fill:none;stroke-width:0.5;stroke-linecap:square;stroke-linejoin:miter;stroke:rgb(14.99939%,28.999329%,50%);stroke-opacity:0.7;stroke-miterlimit:3.25;" d="M 373.960938 40.855469 L 497.644531 40.855469 " transform="matrix(1,0,0,1,-74,-13)"/>
<path style="fill:none;stroke-width:0.5;stroke-linecap:square;stroke-linejoin:miter;stroke:rgb(14.99939%,28.999329%,50%);stroke-opacity:0.7;stroke-miterlimit:3.25;" d="M 497.644531 40.855469 L 497.644531 164.539062 " transform="matrix(1,0,0,1,-74,-13)"/>
<path style="fill-rule:evenodd;fill:rgb(63.996887%,70.397949%,79.997253%);fill-opacity:1;stroke-width:0.5;stroke-linecap:square;stroke-linejoin:miter;stroke:rgb(0%,0%,0%);stroke-opacity:0.7;stroke-miterlimit:3.25;" d="M 138.417969 40.386719 C 138.417969 37.109375 137.113281 33.960938 134.796875 31.644531 C 132.476562 29.324219 129.332031 28.019531 126.050781 28.019531 C 122.769531 28.019531 119.625 29.324219 117.304688 31.644531 C 114.984375 33.960938 113.683594 37.109375 113.683594 40.386719 C 113.683594 43.667969 114.984375 46.816406 117.304688 49.132812 C 119.625 51.453125 122.769531 52.757812 126.050781 52.757812 C 129.332031 52.757812 132.476562 51.453125 134.796875 49.132812 C 137.113281 46.816406 138.417969 43.667969 138.417969 40.386719 Z M 138.417969 40.386719 " transform="matrix(1,0,0,1,-74,-13)"/>
<path style=" stroke:none;fill-rule:evenodd;fill:rgb(0%,0%,0%);fill-opacity:1;" d="M 49.859375 24.628906 L 49.859375 23.839844 C 50.621094 23.765625 51.152344 23.644531 51.453125 23.476562 C 51.753906 23.308594 51.976562 22.90625 52.125 22.273438 L 52.957031 22.273438 L 52.957031 30.628906 L 51.832031 30.628906 L 51.832031 24.628906 Z M 49.859375 24.628906 "/>
<path style="fill-rule:evenodd;fill:rgb(63.996887%,70.397949%,79.997253%);fill-opacity:1;stroke-width:0.5;stroke-linecap:square;stroke-linejoin:miter;stroke:rgb(0%,0%,0%);stroke-opacity:0.7;stroke-miterlimit:3.25;" d="M 138.417969 164.070312 C 138.417969 160.789062 137.113281 157.644531 134.796875 155.324219 C 132.476562 153.007812 129.332031 151.703125 126.050781 151.703125 C 122.769531 151.703125 119.625 153.007812 117.304688 155.324219 C 114.984375 157.644531 113.683594 160.789062 113.683594 164.070312 C 113.683594 167.351562 114.984375 170.496094 117.304688 172.816406 C 119.625 175.136719 122.769531 176.441406 126.050781 176.441406 C 129.332031 176.441406 132.476562 175.136719 134.796875 172.816406 C 137.113281 170.496094 138.417969 167.351562 138.417969 164.070312 Z M 138.417969 164.070312 " transform="matrix(1,0,0,1,-74,-13)"/>
<path style=" stroke:none;fill-rule:evenodd;fill:rgb(0%,0%,0%);fill-opacity:1;" d="M 49.859375 148.3125 L 49.859375 147.523438 C 50.621094 147.449219 51.152344 147.328125 51.453125 147.160156 C 51.753906 146.992188 51.976562 146.589844 52.125 145.957031 L 52.957031 145.957031 L 52.957031 154.3125 L 51.832031 154.3125 L 51.832031 148.3125 Z M 49.859375 148.3125 "/>
<path style="fill-rule:evenodd;fill:rgb(63.996887%,70.397949%,79.997253%);fill-opacity:1;stroke-width:0.5;stroke-linecap:square;stroke-linejoin:miter;stroke:rgb(0%,0%,0%);stroke-opacity:0.7;stroke-miterlimit:3.25;" d="M 262.101562 40.386719 C 262.101562 37.109375 260.796875 33.960938 258.476562 31.644531 C 256.160156 29.324219 253.011719 28.019531 249.734375 28.019531 C 246.453125 28.019531 243.304688 29.324219 240.988281 31.644531 C 238.667969 33.960938 237.363281 37.109375 237.363281 40.386719 C 237.363281 43.667969 238.667969 46.816406 240.988281 49.132812 C 243.304688 51.453125 246.453125 52.757812 249.734375 52.757812 C 253.011719 52.757812 256.160156 51.453125 258.476562 49.132812 C 260.796875 46.816406 262.101562 43.667969 262.101562 40.386719 Z M 262.101562 40.386719 " transform="matrix(1,0,0,1,-74,-13)"/>
<path style=" stroke:none;fill-rule:evenodd;fill:rgb(0%,0%,0%);fill-opacity:1;" d="M 172.753906 30.628906 C 172.753906 29.90625 172.890625 29.28125 173.160156 28.746094 C 173.429688 28.210938 173.957031 27.726562 174.738281 27.292969 L 175.839844 26.644531 C 176.332031 26.347656 176.679688 26.097656 176.878906 25.894531 C 177.191406 25.570312 177.347656 25.199219 177.347656 24.78125 C 177.347656 24.292969 177.203125 23.90625 176.917969 23.621094 C 176.628906 23.332031 176.246094 23.1875 175.765625 23.1875 C 175.054688 23.1875 174.5625 23.460938 174.292969 24.007812 C 174.148438 24.300781 174.074219 24.707031 174.074219 25.230469 L 172.996094 25.230469 C 172.996094 24.5 173.125 23.902344 173.378906 23.441406 C 173.832031 22.628906 174.628906 22.222656 175.773438 22.222656 C 176.722656 22.222656 177.417969 22.480469 177.855469 23 C 178.296875 23.519531 178.515625 24.097656 178.515625 24.730469 C 178.515625 25.402344 178.28125 25.976562 177.808594 26.453125 C 177.53125 26.730469 177.050781 27.066406 176.359375 27.460938 L 175.570312 27.90625 C 175.195312 28.113281 174.902344 28.316406 174.6875 28.507812 C 174.304688 28.84375 174.0625 29.21875 173.964844 29.632812 L 178.484375 29.632812 L 178.484375 30.628906 Z M 172.753906 30.628906 "/>
<path style="fill-rule:evenodd;fill:rgb(63.996887%,70.397949%,79.997253%);fill-opacity:1;stroke-width:0.5;stroke-linecap:square;stroke-linejoin:miter;stroke:rgb(0%,0%,0%);stroke-opacity:0.7;stroke-miterlimit:3.25;" d="M 262.101562 164.070312 C 262.101562 160.789062 260.796875 157.644531 258.476562 155.324219 C 256.160156 153.007812 253.011719 151.703125 249.734375 151.703125 C 246.453125 151.703125 243.304688 153.007812 240.988281 155.324219 C 238.667969 157.644531 237.363281 160.789062 237.363281 164.070312 C 237.363281 167.351562 238.667969 170.496094 240.988281 172.816406 C 243.304688 175.136719 246.453125 176.441406 249.734375 176.441406 C 253.011719 176.441406 256.160156 175.136719 258.476562 172.816406 C 260.796875 170.496094 262.101562 167.351562 262.101562 164.070312 Z M 262.101562 164.070312 " transform="matrix(1,0,0,1,-74,-13)"/>
<path style=" stroke:none;fill-rule:evenodd;fill:rgb(0%,0%,0%);fill-opacity:1;" d="M 172.753906 154.3125 C 172.753906 153.589844 172.890625 152.960938 173.160156 152.429688 C 173.429688 151.894531 173.957031 151.410156 174.738281 150.972656 L 175.839844 150.324219 C 176.332031 150.03125 176.679688 149.78125 176.878906 149.574219 C 177.191406 149.25 177.347656 148.882812 177.347656 148.464844 C 177.347656 147.976562 177.203125 147.589844 176.917969 147.304688 C 176.628906 147.015625 176.246094 146.871094 175.765625 146.871094 C 175.054688 146.871094 174.5625 147.144531 174.292969 147.691406 C 174.148438 147.984375 174.074219 148.390625 174.074219 148.910156 L 172.996094 148.910156 C 172.996094 148.179688 173.125 147.585938 173.378906 147.121094 C 173.832031 146.308594 174.628906 145.902344 175.773438 145.902344 C 176.722656 145.902344 177.417969 146.164062 177.855469 146.683594 C 178.296875 147.203125 178.515625 147.78125 178.515625 148.414062 C 178.515625 149.085938 178.28125 149.660156 177.808594 150.136719 C 177.53125 150.414062 177.050781 150.75 176.359375 151.144531 L 175.570312 151.585938 C 175.195312 151.796875 174.902344 151.996094 174.6875 152.1875 C 174.304688 152.527344 174.0625 152.902344 173.964844 153.316406 L 178.484375 153.316406 L 178.484375 154.3125 Z M 172.753906 154.3125 "/>
<path style="fill-rule:evenodd;fill:rgb(63.996887%,70.397949%,79.997253%);fill-opacity:1;stroke-width:0.5;stroke-linecap:square;stroke-linejoin:miter;stroke:rgb(0%,0%,0%);stroke-opacity:0.7;stroke-miterlimit:3.25;" d="M 385.785156 40.386719 C 385.785156 37.109375 384.480469 33.960938 382.160156 31.644531 C 379.839844 29.324219 376.695312 28.019531 373.414062 28.019531 C 370.136719 28.019531 366.988281 29.324219 364.667969 31.644531 C 362.351562 33.960938 361.046875 37.109375 361.046875 40.386719 C 361.046875 43.667969 362.351562 46.816406 364.667969 49.132812 C 366.988281 51.453125 370.136719 52.757812 373.414062 52.757812 C 376.695312 52.757812 379.839844 51.453125 382.160156 49.132812 C 384.480469 46.816406 385.785156 43.667969 385.785156 40.386719 Z M 385.785156 40.386719 " transform="matrix(1,0,0,1,-74,-13)"/>
<path style=" stroke:none;fill-rule:evenodd;fill:rgb(0%,0%,0%);fill-opacity:1;" d="M 299.164062 30.867188 C 298.171875 30.867188 297.453125 30.601562 297.003906 30.066406 C 296.558594 29.53125 296.332031 28.878906 296.332031 28.109375 L 297.449219 28.109375 C 297.496094 28.636719 297.59375 29.023438 297.746094 29.261719 C 298.011719 29.691406 298.5 29.90625 299.21875 29.90625 C 299.773438 29.90625 300.222656 29.761719 300.558594 29.464844 C 300.894531 29.171875 301.0625 28.792969 301.0625 28.332031 C 301.0625 27.757812 300.882812 27.359375 300.527344 27.132812 C 300.167969 26.902344 299.671875 26.789062 299.035156 26.789062 C 298.964844 26.789062 298.890625 26.789062 298.816406 26.789062 C 298.746094 26.789062 298.671875 26.789062 298.597656 26.789062 L 298.597656 25.863281 C 298.707031 25.878906 298.800781 25.886719 298.875 25.886719 C 298.949219 25.886719 299.027344 25.886719 299.113281 25.886719 C 299.511719 25.886719 299.835938 25.824219 300.089844 25.699219 C 300.535156 25.476562 300.757812 25.082031 300.757812 24.511719 C 300.757812 24.089844 300.609375 23.761719 300.316406 23.535156 C 300.019531 23.304688 299.675781 23.1875 299.28125 23.1875 C 298.582031 23.1875 298.101562 23.421875 297.832031 23.890625 C 297.683594 24.148438 297.613281 24.515625 297.613281 24.988281 L 296.558594 24.988281 C 296.558594 24.363281 296.683594 23.835938 296.929688 23.398438 C 297.355469 22.617188 298.105469 22.230469 299.183594 22.230469 C 300.03125 22.230469 300.6875 22.421875 301.152344 22.804688 C 301.621094 23.191406 301.851562 23.746094 301.851562 24.476562 C 301.851562 25 301.71875 25.421875 301.449219 25.742188 C 301.28125 25.945312 301.054688 26.101562 300.769531 26.214844 C 301.21875 26.335938 301.566406 26.570312 301.820312 26.914062 C 302.070312 27.257812 302.199219 27.675781 302.199219 28.171875 C 302.199219 28.96875 301.933594 29.617188 301.40625 30.117188 C 300.878906 30.617188 300.132812 30.867188 299.164062 30.867188 Z M 299.164062 30.867188 "/>
<path style="fill-rule:evenodd;fill:rgb(63.996887%,70.397949%,79.997253%);fill-opacity:1;stroke-width:0.5;stroke-linecap:square;stroke-linejoin:miter;stroke:rgb(0%,0%,0%);stroke-opacity:0.7;stroke-miterlimit:3.25;" d="M 385.785156 164.070312 C 385.785156 160.789062 384.480469 157.644531 382.160156 155.324219 C 379.839844 153.007812 376.695312 151.703125 373.414062 151.703125 C 370.136719 151.703125 366.988281 153.007812 364.667969 155.324219 C 362.351562 157.644531 361.046875 160.789062 361.046875 164.070312 C 361.046875 167.351562 362.351562 170.496094 364.667969 172.816406 C 366.988281 175.136719 370.136719 176.441406 373.414062 176.441406 C 376.695312 176.441406 379.839844 175.136719 382.160156 172.816406 C 384.480469 170.496094 385.785156 167.351562 385.785156 164.070312 Z M 385.785156 164.070312 " transform="matrix(1,0,0,1,-74,-13)"/>
<path style=" stroke:none;fill-rule:evenodd;fill:rgb(0%,0%,0%);fill-opacity:1;" d="M 299.164062 154.550781 C 298.171875 154.550781 297.453125 154.285156 297.003906 153.75 C 296.558594 153.210938 296.332031 152.558594 296.332031 151.792969 L 297.449219 151.792969 C 297.496094 152.320312 297.59375 152.703125 297.746094 152.945312 C 298.011719 153.375 298.5 153.589844 299.21875 153.589844 C 299.773438 153.589844 300.222656 153.441406 300.558594 153.148438 C 300.894531 152.855469 301.0625 152.476562 301.0625 152.011719 C 301.0625 151.441406 300.882812 151.042969 300.527344 150.816406 C 300.167969 150.585938 299.671875 150.472656 299.035156 150.472656 C 298.964844 150.472656 298.890625 150.472656 298.816406 150.472656 C 298.746094 150.472656 298.671875 150.472656 298.597656 150.472656 L 298.597656 149.546875 C 298.707031 149.5625 298.800781 149.570312 298.875 149.570312 C 298.949219 149.570312 299.027344 149.570312 299.113281 149.570312 C 299.511719 149.570312 299.835938 149.507812 300.089844 149.378906 C 300.535156 149.160156 300.757812 148.761719 300.757812 148.195312 C 300.757812 147.769531 300.609375 147.445312 300.316406 147.214844 C 300.019531 146.988281 299.675781 146.871094 299.28125 146.871094 C 298.582031 146.871094 298.101562 147.105469 297.832031 147.574219 C 297.683594 147.832031 297.613281 148.195312 297.613281 148.671875 L 296.558594 148.671875 C 296.558594 148.046875 296.683594 147.519531 296.929688 147.082031 C 297.355469 146.300781 298.105469 145.910156 299.183594 145.910156 C 300.03125 145.910156 300.6875 146.105469 301.152344 146.488281 C 301.621094 146.871094 301.851562 147.429688 301.851562 148.160156 C 301.851562 148.679688 301.71875 149.101562 301.449219 149.425781 C 301.28125 149.625 301.054688 149.785156 300.769531 149.898438 C 301.21875 150.019531 301.566406 150.25 301.820312 150.59375 C 302.070312 150.9375 302.199219 151.359375 302.199219 151.855469 C 302.199219 152.652344 301.933594 153.300781 301.40625 153.800781 C 300.878906 154.300781 300.132812 154.550781 299.164062 154.550781 Z M 299.164062 154.550781 "/>
<path style="fill-rule:evenodd;fill:rgb(63.996887%,70.397949%,79.997253%);fill-opacity:1;stroke-width:0.5;stroke-linecap:square;stroke-linejoin:miter;stroke:rgb(0%,0%,0%);stroke-opacity:0.7;stroke-miterlimit:3.25;" d="M 509.464844 40.386719 C 509.464844 37.109375 508.164062 33.960938 505.84375 31.644531 C 503.523438 29.324219 500.378906 28.019531 497.097656 28.019531 C 493.816406 28.019531 490.671875 29.324219 488.351562 31.644531 C 486.03125 33.960938 484.730469 37.109375 484.730469 40.386719 C 484.730469 43.667969 486.03125 46.816406 488.351562 49.132812 C 490.671875 51.453125 493.816406 52.757812 497.097656 52.757812 C 500.378906 52.757812 503.523438 51.453125 505.84375 49.132812 C 508.164062 46.816406 509.464844 43.667969 509.464844 40.386719 Z M 509.464844 40.386719 " transform="matrix(1,0,0,1,-74,-13)"/>
<path style=" stroke:none;fill-rule:evenodd;fill:rgb(0%,0%,0%);fill-opacity:1;" d="M 423.722656 27.671875 L 423.722656 23.859375 L 421.03125 27.671875 Z M 423.746094 30.628906 L 423.746094 28.589844 L 420.058594 28.589844 L 420.058594 27.558594 L 423.910156 22.214844 L 424.792969 22.214844 L 424.792969 27.671875 L 426 27.671875 L 426 28.589844 L 424.800781 28.589844 L 424.800781 30.628906 Z M 423.746094 30.628906 "/>
<path style="fill-rule:evenodd;fill:rgb(63.996887%,70.397949%,79.997253%);fill-opacity:1;stroke-width:0.5;stroke-linecap:square;stroke-linejoin:miter;stroke:rgb(0%,0%,0%);stroke-opacity:0.7;stroke-miterlimit:3.25;" d="M 509.464844 164.070312 C 509.464844 160.789062 508.164062 157.644531 505.84375 155.324219 C 503.523438 153.007812 500.378906 151.703125 497.097656 151.703125 C 493.816406 151.703125 490.671875 153.007812 488.351562 155.324219 C 486.03125 157.644531 484.730469 160.789062 484.730469 164.070312 C 484.730469 167.351562 486.03125 170.496094 488.351562 172.816406 C 490.671875 175.136719 493.816406 176.441406 497.097656 176.441406 C 500.378906 176.441406 503.523438 175.136719 505.84375 172.816406 C 508.164062 170.496094 509.464844 167.351562 509.464844 164.070312 Z M 509.464844 164.070312 " transform="matrix(1,0,0,1,-74,-13)"/>
<path style=" stroke:none;fill-rule:evenodd;fill:rgb(0%,0%,0%);fill-opacity:1;" d="M 423.722656 151.351562 L 423.722656 147.539062 L 421.03125 151.351562 Z M 423.746094 154.3125 L 423.746094 152.273438 L 420.058594 152.273438 L 420.058594 151.242188 L 423.910156 145.898438 L 424.792969 145.898438 L 424.792969 151.351562 L 426 151.351562 L 426 152.273438 L 424.800781 152.273438 L 424.800781 154.3125 Z M 423.746094 154.3125 "/>
<path style=" stroke:none;fill-rule:evenodd;fill:rgb(0%,0%,0%);fill-opacity:1;" d="M 26.488281 30.566406 L 27.007812 28.058594 L 25.027344 24.085938 L 25.949219 24.085938 L 26.898438 25.976562 C 27.105469 26.390625 27.308594 26.832031 27.503906 27.304688 C 27.722656 26.902344 28.019531 26.464844 28.394531 25.992188 L 29.90625 24.085938 L 30.933594 24.085938 L 27.855469 28.125 L 27.351562 30.566406 Z M 26.488281 30.566406 "/>
<path style=" stroke:none;fill-rule:evenodd;fill:rgb(0%,0%,0%);fill-opacity:1;" d="M 25.09375 152.03125 L 28.167969 148.757812 L 26.347656 145.554688 L 27.296875 145.554688 L 28.125 147.019531 C 28.347656 147.40625 28.472656 147.632812 28.503906 147.695312 C 28.578125 147.839844 28.664062 148.011719 28.753906 148.214844 C 28.972656 147.917969 29.304688 147.53125 29.761719 147.050781 L 31.175781 145.554688 L 32.300781 145.554688 L 29.183594 148.898438 L 30.953125 152.03125 L 30.015625 152.03125 L 28.96875 150.136719 C 28.867188 149.953125 28.75 149.710938 28.613281 149.421875 C 28.457031 149.636719 28.261719 149.863281 28.035156 150.105469 L 26.234375 152.03125 Z M 25.09375 152.03125 "/>
</g>
</svg>
