<?xml version="1.0" encoding="UTF-8"?>
<svg  preserveAspectRatio='none' xmlns="http://www.w3.org/2000/svg" xmlns:xlink="http://www.w3.org/1999/xlink" width="27pt" height="156pt" viewBox="0 0 27 156" version="1.1">
<!-- ***Exported Comment***
Created by Mathematica
***Exported Comment*** -->
<g id="surface158">
<path style="fill-rule:evenodd;fill:rgb(63.996887%,70.397949%,79.997253%);fill-opacity:1;stroke-width:0.36;stroke-linecap:square;stroke-linejoin:miter;stroke:rgb(0%,0%,0%);stroke-opacity:0.7;stroke-miterlimit:3.25;" d="M 100.285156 26.390625 C 100.285156 22.976562 98.929688 19.699219 96.515625 17.285156 C 94.101562 14.871094 90.824219 13.515625 87.410156 13.515625 C 83.996094 13.515625 80.722656 14.871094 78.308594 17.285156 C 75.894531 19.699219 74.535156 22.976562 74.535156 26.390625 C 74.535156 29.804688 75.894531 33.078125 78.308594 35.492188 C 80.722656 37.90625 83.996094 39.261719 87.410156 39.261719 C 90.824219 39.261719 94.101562 37.90625 96.515625 35.492188 C 98.929688 33.078125 100.285156 29.804688 100.285156 26.390625 Z M 100.285156 26.390625 " transform="matrix(1,0,0,1,-74,-13)"/>
<path style=" stroke:none;fill-rule:evenodd;fill:rgb(0%,0%,0%);fill-opacity:1;" d="M 11.832031 11.402344 L 11.832031 10.835938 C 12.382812 10.78125 12.761719 10.695312 12.980469 10.574219 C 13.199219 10.449219 13.359375 10.164062 13.464844 9.707031 L 14.066406 9.707031 L 14.066406 15.722656 L 13.253906 15.722656 L 13.253906 11.402344 Z M 11.832031 11.402344 "/>
<path style="fill-rule:evenodd;fill:rgb(63.996887%,70.397949%,79.997253%);fill-opacity:1;stroke-width:0.36;stroke-linecap:square;stroke-linejoin:miter;stroke:rgb(0%,0%,0%);stroke-opacity:0.7;stroke-miterlimit:3.25;" d="M 100.285156 155.132812 C 100.285156 151.714844 98.929688 148.441406 96.515625 146.027344 C 94.101562 143.613281 90.824219 142.257812 87.410156 142.257812 C 83.996094 142.257812 80.722656 143.613281 78.308594 146.027344 C 75.894531 148.441406 74.535156 151.714844 74.535156 155.132812 C 74.535156 158.546875 75.894531 161.820312 78.308594 164.234375 C 80.722656 166.648438 83.996094 168.003906 87.410156 168.003906 C 90.824219 168.003906 94.101562 166.648438 96.515625 164.234375 C 98.929688 161.820312 100.285156 158.546875 100.285156 155.132812 Z M 100.285156 155.132812 " transform="matrix(1,0,0,1,-74,-13)"/>
<path style=" stroke:none;fill-rule:evenodd;fill:rgb(0%,0%,0%);fill-opacity:1;" d="M 13.230469 144.636719 C 12.515625 144.636719 11.996094 144.445312 11.675781 144.058594 C 11.351562 143.671875 11.191406 143.203125 11.191406 142.648438 L 11.996094 142.648438 C 12.027344 143.03125 12.101562 143.308594 12.210938 143.480469 C 12.398438 143.789062 12.753906 143.945312 13.269531 143.945312 C 13.667969 143.945312 13.992188 143.839844 14.234375 143.625 C 14.476562 143.414062 14.597656 143.144531 14.597656 142.808594 C 14.597656 142.398438 14.46875 142.109375 14.210938 141.945312 C 13.953125 141.78125 13.59375 141.699219 13.136719 141.699219 C 13.085938 141.699219 13.035156 141.699219 12.980469 141.699219 C 12.929688 141.699219 12.875 141.699219 12.824219 141.699219 L 12.824219 141.03125 C 12.902344 141.042969 12.96875 141.050781 13.019531 141.050781 C 13.074219 141.050781 13.132812 141.050781 13.195312 141.050781 C 13.480469 141.050781 13.714844 141.003906 13.894531 140.914062 C 14.21875 140.753906 14.378906 140.46875 14.378906 140.058594 C 14.378906 139.753906 14.273438 139.519531 14.058594 139.355469 C 13.847656 139.191406 13.597656 139.105469 13.316406 139.105469 C 12.8125 139.105469 12.464844 139.277344 12.269531 139.613281 C 12.164062 139.796875 12.113281 140.0625 12.113281 140.402344 L 11.355469 140.402344 C 11.355469 139.953125 11.445312 139.574219 11.621094 139.257812 C 11.929688 138.695312 12.46875 138.417969 13.242188 138.417969 C 13.855469 138.417969 14.328125 138.554688 14.664062 138.832031 C 15 139.109375 15.167969 139.507812 15.167969 140.035156 C 15.167969 140.410156 15.070312 140.714844 14.875 140.945312 C 14.753906 141.089844 14.59375 141.203125 14.386719 141.285156 C 14.710938 141.375 14.960938 141.539062 15.140625 141.789062 C 15.324219 142.035156 15.414062 142.339844 15.414062 142.695312 C 15.414062 143.269531 15.222656 143.734375 14.84375 144.097656 C 14.464844 144.457031 13.925781 144.636719 13.230469 144.636719 Z M 13.230469 144.636719 "/>
</g>
</svg>
