<svg height="240" viewBox="0 0 240 240" width="240" xmlns="http://www.w3.org/2000/svg"><path d="m215.52 100a105 105 0 0 0 -10.52-39.65c.22-.27.41-.57.61-.87l.58-.86a44.51 44.51 0 0 0 3.37-7c4.33-11.2 4.42-23.71-1-32.86-3.85-6.48-19.13-23.26-43.24-9.09a23.57 23.57 0 0 1 -14 3.33 105.71 105.71 0 0 0 -65.32.88 23.82 23.82 0 0 1 -13.75-3.34c-24.15-14.19-39.42 2.61-43.25 9.08a30.66 30.66 0 0 0 -3.56 9.43 41.53 41.53 0 0 0 1 18.95 59.67 59.67 0 0 0 3.74 9.16 45.76 45.76 0 0 0 3.1 5.73c.12.2.21.39.31.57a104.64 104.64 0 0 0 -9.12 36.54c-1.43 25.26 2.86 50.7 22.64 68.28 11 9.72 24.57 16.34 38.62 19.89a143.24 143.24 0 0 0 33.6 4.54 158.08 158.08 0 0 0 34.93-4.54c14-3.55 27.67-10.15 38.63-19.89 19.78-17.53 24.11-42.98 22.63-68.28z" fill="#59361a" stroke="#fff" stroke-width="4"/><path d="m120 169.88c-20.15 0-36.46-7.53-36.46-30.69s16.29-41.94 36.46-41.94 36.5 18.78 36.5 41.94-16.37 30.69-36.5 30.69z" fill="#c69c6d"/><ellipse cx="74.73" cy="88.63" fill="#291c17" rx="10.16" ry="12.58"/><ellipse cx="76.28" cy="91.03" fill="#fff" opacity=".8" rx="3.72" ry="4.97"/><path d="m165.26 101.21c-5.59 0-10.16-5.62-10.16-12.56s4.57-12.58 10.16-12.58 10.17 5.64 10.17 12.58-4.55 12.56-10.17 12.56z" fill="#291c17"/><path d="m138.72 147.75c-.23.28-5.75 6.74-18.73 6.74s-18.43-6.41-18.69-6.74a4.56 4.56 0 0 0 -5.64-.9 3.15 3.15 0 0 0 -1.08 4.8c.31.4 8 9.73 25.41 9.73s25.11-9.34 25.43-9.73a3.13 3.13 0 0 0 -1-4.77 4.59 4.59 0 0 0 -5.7.87z" fill="#291c17"/><path d="m68.33 30.43c-1.91 2.08-4.84 4-6.24 5.25-3.09 2.92-5.48 6.75-7.69 10.42-3.21 5.29-7.28 2-9.47-2.08-.26-.47-.48-1-.69-1.43a16.89 16.89 0 0 1 -1.24-6.37c0-8.83 6.84-16 15.25-16a18.26 18.26 0 0 1 8.88 2.78c.25.16.57.3.79.47 3.33 2.29 2.45 4.74.41 6.96z" fill="#c69c6d"/><path d="m194.72 42.59c-.08.19-.17.39-.27.59-2.08 4.5-6.48 8.57-9.89 2.93-2.23-3.66-4.57-7.5-7.7-10.41-1.39-1.31-4.34-3.17-6.25-5.25s-2.9-4.68.42-7c.41-.28.87-.52 1.35-.79a18.19 18.19 0 0 1 8.33-2.42c8.43 0 15.26 7.14 15.26 16a17 17 0 0 1 -1.25 6.35z" fill="#c69c6d"/><path d="m118.62 127.75h2.76v29.41h-2.76z" fill="#291c17"/><path d="m132.28 117.9a4.49 4.49 0 0 0 -2.28-4c-2.16-1.35-6.06-2.07-10-2.05s-7.84.7-10 2.05a4.49 4.49 0 0 0 -2.28 4c-.17 2.72 1.59 6.1 3.89 9 .19.27.37.54.54.8 2.54 3.71 4.62 6.38 7.85 5.72 3.23.66 5.31-2 7.85-5.72.17-.26.35-.53.54-.8 2.3-2.9 4.06-6.28 3.89-9z" fill="#291c17" fill-rule="evenodd"/><path d="m107.12 185.36s8.49-3.66 13.23-3.71c5 0 14.64 3.71 14.64 3.71s35-34.59 48.55-22.92c17 14.63 16.57 52.88.45 70.57-12.38 13.56-49.9-23.38-49.9-23.38s-9 3.84-13.85 3.94c-4.26.08-13.12-3-13.12-3s-33.91 29-50.34 21.13c-11.12-5.31-13.05-23.18-13-35.51.09-12 2.2-29.54 13.16-34.39 16.89-7.49 50.15 23.6 50.15 23.6z" fill="#a52a2a" stroke="#fff" stroke-width="4"/><g fill="#fff"><ellipse cx="120" cy="116.03" opacity=".8" rx="7" ry="1.77"/><ellipse cx="163.28" cy="91.03" opacity=".8" rx="3.72" ry="4.97"/></g></svg>