<?xml version="1.0" encoding="utf-8"?>
<svg xmlns="http://www.w3.org/2000/svg" xmlns:xlink="http://www.w3.org/1999/xlink" width="600" height="400" viewBox="0 0 2400 1600">
<defs>
  <clipPath id="clip440">
    <rect x="0" y="0" width="2400" height="1600"/>
  </clipPath>
</defs>
<path clip-path="url(#clip440)" d="
M0 1600 L2400 1600 L2400 0 L0 0  Z
  " fill="#ffffff" fill-rule="evenodd" fill-opacity="1"/>
<defs>
  <clipPath id="clip441">
    <rect x="480" y="0" width="1681" height="1600"/>
  </clipPath>
</defs>
<defs>
  <clipPath id="clip442">
    <rect x="226" y="47" width="2128" height="1377"/>
  </clipPath>
</defs>
<path clip-path="url(#clip440)" d="
M226.232 1423.18 L2352.76 1423.18 L2352.76 47.2441 L226.232 47.2441  Z
  " fill="#ffffff" fill-rule="evenodd" fill-opacity="1"/>
<polyline clip-path="url(#clip442)" style="stroke:#000000; stroke-width:2; stroke-opacity:0.1; fill:none" points="
  343.195,1423.18 343.195,47.2441 
  "/>
<polyline clip-path="url(#clip442)" style="stroke:#000000; stroke-width:2; stroke-opacity:0.1; fill:none" points="
  763.772,1423.18 763.772,47.2441 
  "/>
<polyline clip-path="url(#clip442)" style="stroke:#000000; stroke-width:2; stroke-opacity:0.1; fill:none" points="
  1184.35,1423.18 1184.35,47.2441 
  "/>
<polyline clip-path="url(#clip442)" style="stroke:#000000; stroke-width:2; stroke-opacity:0.1; fill:none" points="
  1604.93,1423.18 1604.93,47.2441 
  "/>
<polyline clip-path="url(#clip442)" style="stroke:#000000; stroke-width:2; stroke-opacity:0.1; fill:none" points="
  2025.5,1423.18 2025.5,47.2441 
  "/>
<polyline clip-path="url(#clip440)" style="stroke:#000000; stroke-width:4; stroke-opacity:1; fill:none" points="
  226.232,1423.18 2352.76,1423.18 
  "/>
<polyline clip-path="url(#clip440)" style="stroke:#000000; stroke-width:4; stroke-opacity:1; fill:none" points="
  343.195,1423.18 343.195,1406.67 
  "/>
<polyline clip-path="url(#clip440)" style="stroke:#000000; stroke-width:4; stroke-opacity:1; fill:none" points="
  763.772,1423.18 763.772,1406.67 
  "/>
<polyline clip-path="url(#clip440)" style="stroke:#000000; stroke-width:4; stroke-opacity:1; fill:none" points="
  1184.35,1423.18 1184.35,1406.67 
  "/>
<polyline clip-path="url(#clip440)" style="stroke:#000000; stroke-width:4; stroke-opacity:1; fill:none" points="
  1604.93,1423.18 1604.93,1406.67 
  "/>
<polyline clip-path="url(#clip440)" style="stroke:#000000; stroke-width:4; stroke-opacity:1; fill:none" points="
  2025.5,1423.18 2025.5,1406.67 
  "/>
<path clip-path="url(#clip440)" d="M 0 0 M324.711 1452.37 Q321.1 1452.37 319.271 1455.94 Q317.466 1459.48 317.466 1466.61 Q317.466 1473.71 319.271 1477.28 Q321.1 1480.82 324.711 1480.82 Q328.345 1480.82 330.151 1477.28 Q331.979 1473.71 331.979 1466.61 Q331.979 1459.48 330.151 1455.94 Q328.345 1452.37 324.711 1452.37 M324.711 1448.67 Q330.521 1448.67 333.577 1453.27 Q336.655 1457.86 336.655 1466.61 Q336.655 1475.33 333.577 1479.94 Q330.521 1484.52 324.711 1484.52 Q318.901 1484.52 315.822 1479.94 Q312.766 1475.33 312.766 1466.61 Q312.766 1457.86 315.822 1453.27 Q318.901 1448.67 324.711 1448.67 Z" fill="#000000" fill-rule="evenodd" fill-opacity="1" /><path clip-path="url(#clip440)" d="M 0 0 M341.725 1477.97 L346.609 1477.97 L346.609 1483.85 L341.725 1483.85 L341.725 1477.97 Z" fill="#000000" fill-rule="evenodd" fill-opacity="1" /><path clip-path="url(#clip440)" d="M 0 0 M361.678 1452.37 Q358.067 1452.37 356.238 1455.94 Q354.433 1459.48 354.433 1466.61 Q354.433 1473.71 356.238 1477.28 Q358.067 1480.82 361.678 1480.82 Q365.313 1480.82 367.118 1477.28 Q368.947 1473.71 368.947 1466.61 Q368.947 1459.48 367.118 1455.94 Q365.313 1452.37 361.678 1452.37 M361.678 1448.67 Q367.488 1448.67 370.544 1453.27 Q373.623 1457.86 373.623 1466.61 Q373.623 1475.33 370.544 1479.94 Q367.488 1484.52 361.678 1484.52 Q355.868 1484.52 352.789 1479.94 Q349.734 1475.33 349.734 1466.61 Q349.734 1457.86 352.789 1453.27 Q355.868 1448.67 361.678 1448.67 Z" fill="#000000" fill-rule="evenodd" fill-opacity="1" /><path clip-path="url(#clip440)" d="M 0 0 M746.087 1452.37 Q742.476 1452.37 740.647 1455.94 Q738.842 1459.48 738.842 1466.61 Q738.842 1473.71 740.647 1477.28 Q742.476 1480.82 746.087 1480.82 Q749.721 1480.82 751.527 1477.28 Q753.355 1473.71 753.355 1466.61 Q753.355 1459.48 751.527 1455.94 Q749.721 1452.37 746.087 1452.37 M746.087 1448.67 Q751.897 1448.67 754.953 1453.27 Q758.031 1457.86 758.031 1466.61 Q758.031 1475.33 754.953 1479.94 Q751.897 1484.52 746.087 1484.52 Q740.277 1484.52 737.198 1479.94 Q734.143 1475.33 734.143 1466.61 Q734.143 1457.86 737.198 1453.27 Q740.277 1448.67 746.087 1448.67 Z" fill="#000000" fill-rule="evenodd" fill-opacity="1" /><path clip-path="url(#clip440)" d="M 0 0 M763.101 1477.97 L767.985 1477.97 L767.985 1483.85 L763.101 1483.85 L763.101 1477.97 Z" fill="#000000" fill-rule="evenodd" fill-opacity="1" /><path clip-path="url(#clip440)" d="M 0 0 M777.082 1479.92 L793.402 1479.92 L793.402 1483.85 L771.457 1483.85 L771.457 1479.92 Q774.119 1477.16 778.703 1472.53 Q783.309 1467.88 784.49 1466.54 Q786.735 1464.01 787.615 1462.28 Q788.517 1460.52 788.517 1458.83 Q788.517 1456.07 786.573 1454.34 Q784.652 1452.6 781.55 1452.6 Q779.351 1452.6 776.897 1453.37 Q774.466 1454.13 771.689 1455.68 L771.689 1450.96 Q774.513 1449.82 776.966 1449.25 Q779.42 1448.67 781.457 1448.67 Q786.828 1448.67 790.022 1451.35 Q793.216 1454.04 793.216 1458.53 Q793.216 1460.66 792.406 1462.58 Q791.619 1464.48 789.513 1467.07 Q788.934 1467.74 785.832 1470.96 Q782.73 1474.15 777.082 1479.92 Z" fill="#000000" fill-rule="evenodd" fill-opacity="1" /><path clip-path="url(#clip440)" d="M 0 0 M1165.62 1452.37 Q1162.01 1452.37 1160.18 1455.94 Q1158.38 1459.48 1158.38 1466.61 Q1158.38 1473.71 1160.18 1477.28 Q1162.01 1480.82 1165.62 1480.82 Q1169.26 1480.82 1171.06 1477.28 Q1172.89 1473.71 1172.89 1466.61 Q1172.89 1459.48 1171.06 1455.94 Q1169.26 1452.37 1165.62 1452.37 M1165.62 1448.67 Q1171.43 1448.67 1174.49 1453.27 Q1177.57 1457.86 1177.57 1466.61 Q1177.57 1475.33 1174.49 1479.94 Q1171.43 1484.52 1165.62 1484.52 Q1159.81 1484.52 1156.73 1479.94 Q1153.68 1475.33 1153.68 1466.61 Q1153.68 1457.86 1156.73 1453.27 Q1159.81 1448.67 1165.62 1448.67 Z" fill="#000000" fill-rule="evenodd" fill-opacity="1" /><path clip-path="url(#clip440)" d="M 0 0 M1182.64 1477.97 L1187.52 1477.97 L1187.52 1483.85 L1182.64 1483.85 L1182.64 1477.97 Z" fill="#000000" fill-rule="evenodd" fill-opacity="1" /><path clip-path="url(#clip440)" d="M 0 0 M1205.44 1453.37 L1193.63 1471.81 L1205.44 1471.81 L1205.44 1453.37 M1204.21 1449.29 L1210.09 1449.29 L1210.09 1471.81 L1215.02 1471.81 L1215.02 1475.7 L1210.09 1475.7 L1210.09 1483.85 L1205.44 1483.85 L1205.44 1475.7 L1189.84 1475.7 L1189.84 1471.19 L1204.21 1449.29 Z" fill="#000000" fill-rule="evenodd" fill-opacity="1" /><path clip-path="url(#clip440)" d="M 0 0 M1586.36 1452.37 Q1582.75 1452.37 1580.92 1455.94 Q1579.12 1459.48 1579.12 1466.61 Q1579.12 1473.71 1580.92 1477.28 Q1582.75 1480.82 1586.36 1480.82 Q1590 1480.82 1591.8 1477.28 Q1593.63 1473.71 1593.63 1466.61 Q1593.63 1459.48 1591.8 1455.94 Q1590 1452.37 1586.36 1452.37 M1586.36 1448.67 Q1592.17 1448.67 1595.23 1453.27 Q1598.31 1457.86 1598.31 1466.61 Q1598.31 1475.33 1595.23 1479.94 Q1592.17 1484.52 1586.36 1484.52 Q1580.55 1484.52 1577.47 1479.94 Q1574.42 1475.33 1574.42 1466.61 Q1574.42 1457.86 1577.47 1453.27 Q1580.55 1448.67 1586.36 1448.67 Z" fill="#000000" fill-rule="evenodd" fill-opacity="1" /><path clip-path="url(#clip440)" d="M 0 0 M1603.38 1477.97 L1608.26 1477.97 L1608.26 1483.85 L1603.38 1483.85 L1603.38 1477.97 Z" fill="#000000" fill-rule="evenodd" fill-opacity="1" /><path clip-path="url(#clip440)" d="M 0 0 M1623.91 1464.71 Q1620.76 1464.71 1618.91 1466.86 Q1617.08 1469.01 1617.08 1472.76 Q1617.08 1476.49 1618.91 1478.67 Q1620.76 1480.82 1623.91 1480.82 Q1627.06 1480.82 1628.89 1478.67 Q1630.74 1476.49 1630.74 1472.76 Q1630.74 1469.01 1628.89 1466.86 Q1627.06 1464.71 1623.91 1464.71 M1633.19 1450.06 L1633.19 1454.31 Q1631.43 1453.48 1629.63 1453.04 Q1627.84 1452.6 1626.08 1452.6 Q1621.45 1452.6 1619 1455.73 Q1616.57 1458.85 1616.22 1465.17 Q1617.59 1463.16 1619.65 1462.09 Q1621.71 1461 1624.19 1461 Q1629.39 1461 1632.4 1464.18 Q1635.44 1467.32 1635.44 1472.76 Q1635.44 1478.09 1632.29 1481.31 Q1629.14 1484.52 1623.91 1484.52 Q1617.91 1484.52 1614.74 1479.94 Q1611.57 1475.33 1611.57 1466.61 Q1611.57 1458.41 1615.46 1453.55 Q1619.35 1448.67 1625.9 1448.67 Q1627.66 1448.67 1629.44 1449.01 Q1631.25 1449.36 1633.19 1450.06 Z" fill="#000000" fill-rule="evenodd" fill-opacity="1" /><path clip-path="url(#clip440)" d="M 0 0 M2007.07 1452.37 Q2003.46 1452.37 2001.63 1455.94 Q1999.82 1459.48 1999.82 1466.61 Q1999.82 1473.71 2001.63 1477.28 Q2003.46 1480.82 2007.07 1480.82 Q2010.7 1480.82 2012.51 1477.28 Q2014.34 1473.71 2014.34 1466.61 Q2014.34 1459.48 2012.51 1455.94 Q2010.7 1452.37 2007.07 1452.37 M2007.07 1448.67 Q2012.88 1448.67 2015.93 1453.27 Q2019.01 1457.86 2019.01 1466.61 Q2019.01 1475.33 2015.93 1479.94 Q2012.88 1484.52 2007.07 1484.52 Q2001.26 1484.52 1998.18 1479.94 Q1995.12 1475.33 1995.12 1466.61 Q1995.12 1457.86 1998.18 1453.27 Q2001.26 1448.67 2007.07 1448.67 Z" fill="#000000" fill-rule="evenodd" fill-opacity="1" /><path clip-path="url(#clip440)" d="M 0 0 M2024.08 1477.97 L2028.97 1477.97 L2028.97 1483.85 L2024.08 1483.85 L2024.08 1477.97 Z" fill="#000000" fill-rule="evenodd" fill-opacity="1" /><path clip-path="url(#clip440)" d="M 0 0 M2044.03 1467.44 Q2040.7 1467.44 2038.78 1469.22 Q2036.88 1471 2036.88 1474.13 Q2036.88 1477.25 2038.78 1479.04 Q2040.7 1480.82 2044.03 1480.82 Q2047.37 1480.82 2049.29 1479.04 Q2051.21 1477.23 2051.21 1474.13 Q2051.21 1471 2049.29 1469.22 Q2047.39 1467.44 2044.03 1467.44 M2039.36 1465.45 Q2036.35 1464.71 2034.66 1462.65 Q2032.99 1460.59 2032.99 1457.63 Q2032.99 1453.48 2035.93 1451.07 Q2038.9 1448.67 2044.03 1448.67 Q2049.2 1448.67 2052.14 1451.07 Q2055.08 1453.48 2055.08 1457.63 Q2055.08 1460.59 2053.39 1462.65 Q2051.72 1464.71 2048.73 1465.45 Q2052.11 1466.24 2053.99 1468.53 Q2055.89 1470.82 2055.89 1474.13 Q2055.89 1479.15 2052.81 1481.84 Q2049.75 1484.52 2044.03 1484.52 Q2038.32 1484.52 2035.24 1481.84 Q2032.18 1479.15 2032.18 1474.13 Q2032.18 1470.82 2034.08 1468.53 Q2035.98 1466.24 2039.36 1465.45 M2037.65 1458.06 Q2037.65 1460.75 2039.31 1462.25 Q2041 1463.76 2044.03 1463.76 Q2047.04 1463.76 2048.73 1462.25 Q2050.45 1460.75 2050.45 1458.06 Q2050.45 1455.38 2048.73 1453.88 Q2047.04 1452.37 2044.03 1452.37 Q2041 1452.37 2039.31 1453.88 Q2037.65 1455.38 2037.65 1458.06 Z" fill="#000000" fill-rule="evenodd" fill-opacity="1" /><path clip-path="url(#clip440)" d="M 0 0 M1124.29 1521.45 L1124.29 1526.98 Q1121.81 1525.71 1119.13 1525.07 Q1116.46 1524.44 1113.59 1524.44 Q1109.23 1524.44 1107.04 1525.77 Q1104.87 1527.11 1104.87 1529.79 Q1104.87 1531.82 1106.43 1533 Q1107.99 1534.15 1112.7 1535.2 L1114.71 1535.64 Q1120.95 1536.98 1123.56 1539.43 Q1126.2 1541.85 1126.2 1546.21 Q1126.2 1551.17 1122.25 1554.07 Q1118.34 1556.97 1111.46 1556.97 Q1108.6 1556.97 1105.48 1556.39 Q1102.39 1555.85 1098.95 1554.74 L1098.95 1548.69 Q1102.2 1550.38 1105.35 1551.24 Q1108.5 1552.07 1111.59 1552.07 Q1115.73 1552.07 1117.95 1550.66 Q1120.18 1549.23 1120.18 1546.65 Q1120.18 1544.27 1118.56 1542.99 Q1116.97 1541.72 1111.52 1540.54 L1109.49 1540.07 Q1104.04 1538.92 1101.63 1536.56 Q1099.21 1534.18 1099.21 1530.04 Q1099.21 1525.01 1102.77 1522.27 Q1106.34 1519.54 1112.89 1519.54 Q1116.14 1519.54 1119 1520.01 Q1121.87 1520.49 1124.29 1521.45 Z" fill="#000000" fill-rule="evenodd" fill-opacity="1" /><path clip-path="url(#clip440)" d="M 0 0 M1148.54 1538.12 Q1141.44 1538.12 1138.71 1539.75 Q1135.97 1541.37 1135.97 1545.29 Q1135.97 1548.4 1138.01 1550.25 Q1140.07 1552.07 1143.61 1552.07 Q1148.48 1552.07 1151.41 1548.63 Q1154.37 1545.16 1154.37 1539.43 L1154.37 1538.12 L1148.54 1538.12 M1160.22 1535.71 L1160.22 1556.04 L1154.37 1556.04 L1154.37 1550.63 Q1152.36 1553.88 1149.37 1555.44 Q1146.38 1556.97 1142.05 1556.97 Q1136.57 1556.97 1133.33 1553.91 Q1130.11 1550.82 1130.11 1545.67 Q1130.11 1539.65 1134.12 1536.6 Q1138.17 1533.54 1146.15 1533.54 L1154.37 1533.54 L1154.37 1532.97 Q1154.37 1528.93 1151.69 1526.73 Q1149.05 1524.5 1144.24 1524.5 Q1141.19 1524.5 1138.29 1525.23 Q1135.4 1525.97 1132.72 1527.43 L1132.72 1522.02 Q1135.94 1520.78 1138.96 1520.17 Q1141.98 1519.54 1144.85 1519.54 Q1152.58 1519.54 1156.4 1523.55 Q1160.22 1527.56 1160.22 1535.71 Z" fill="#000000" fill-rule="evenodd" fill-opacity="1" /><path clip-path="url(#clip440)" d="M 0 0 M1194.12 1527.24 Q1196.32 1523.29 1199.37 1521.41 Q1202.43 1519.54 1206.56 1519.54 Q1212.13 1519.54 1215.16 1523.45 Q1218.18 1527.33 1218.18 1534.53 L1218.18 1556.04 L1212.29 1556.04 L1212.29 1534.72 Q1212.29 1529.59 1210.48 1527.11 Q1208.67 1524.63 1204.94 1524.63 Q1200.39 1524.63 1197.75 1527.65 Q1195.11 1530.68 1195.11 1535.9 L1195.11 1556.04 L1189.22 1556.04 L1189.22 1534.72 Q1189.22 1529.56 1187.4 1527.11 Q1185.59 1524.63 1181.8 1524.63 Q1177.31 1524.63 1174.67 1527.68 Q1172.03 1530.71 1172.03 1535.9 L1172.03 1556.04 L1166.14 1556.04 L1166.14 1520.4 L1172.03 1520.4 L1172.03 1525.93 Q1174.04 1522.66 1176.84 1521.1 Q1179.64 1519.54 1183.49 1519.54 Q1187.37 1519.54 1190.08 1521.51 Q1192.81 1523.48 1194.12 1527.24 Z" fill="#000000" fill-rule="evenodd" fill-opacity="1" /><path clip-path="url(#clip440)" d="M 0 0 M1229.99 1550.7 L1229.99 1569.6 L1224.1 1569.6 L1224.1 1520.4 L1229.99 1520.4 L1229.99 1525.81 Q1231.84 1522.62 1234.64 1521.1 Q1237.47 1519.54 1241.39 1519.54 Q1247.88 1519.54 1251.92 1524.69 Q1255.99 1529.85 1255.99 1538.25 Q1255.99 1546.65 1251.92 1551.81 Q1247.88 1556.97 1241.39 1556.97 Q1237.47 1556.97 1234.64 1555.44 Q1231.84 1553.88 1229.99 1550.7 M1249.92 1538.25 Q1249.92 1531.79 1247.24 1528.13 Q1244.6 1524.44 1239.95 1524.44 Q1235.31 1524.44 1232.63 1528.13 Q1229.99 1531.79 1229.99 1538.25 Q1229.99 1544.71 1232.63 1548.4 Q1235.31 1552.07 1239.95 1552.07 Q1244.6 1552.07 1247.24 1548.4 Q1249.92 1544.71 1249.92 1538.25 Z" fill="#000000" fill-rule="evenodd" fill-opacity="1" /><path clip-path="url(#clip440)" d="M 0 0 M1262.14 1506.52 L1267.99 1506.52 L1267.99 1556.04 L1262.14 1556.04 L1262.14 1506.52 Z" fill="#000000" fill-rule="evenodd" fill-opacity="1" /><path clip-path="url(#clip440)" d="M 0 0 M1304.63 1536.76 L1304.63 1539.62 L1277.7 1539.62 Q1278.08 1545.67 1281.33 1548.85 Q1284.61 1552 1290.43 1552 Q1293.81 1552 1296.96 1551.17 Q1300.14 1550.35 1303.26 1548.69 L1303.26 1554.23 Q1300.11 1555.57 1296.8 1556.27 Q1293.49 1556.97 1290.08 1556.97 Q1281.55 1556.97 1276.56 1552 Q1271.59 1547.04 1271.59 1538.57 Q1271.59 1529.82 1276.3 1524.69 Q1281.04 1519.54 1289.06 1519.54 Q1296.26 1519.54 1300.43 1524.18 Q1304.63 1528.8 1304.63 1536.76 M1298.77 1535.04 Q1298.71 1530.23 1296.07 1527.37 Q1293.46 1524.5 1289.13 1524.5 Q1284.23 1524.5 1281.27 1527.27 Q1278.34 1530.04 1277.89 1535.07 L1298.77 1535.04 Z" fill="#000000" fill-rule="evenodd" fill-opacity="1" /><path clip-path="url(#clip440)" d="M 0 0 M1327.29 1520.4 L1333.5 1520.4 L1344.64 1550.31 L1355.78 1520.4 L1361.98 1520.4 L1348.62 1556.04 L1340.66 1556.04 L1327.29 1520.4 Z" fill="#000000" fill-rule="evenodd" fill-opacity="1" /><path clip-path="url(#clip440)" d="M 0 0 M1384.33 1538.12 Q1377.23 1538.12 1374.49 1539.75 Q1371.75 1541.37 1371.75 1545.29 Q1371.75 1548.4 1373.79 1550.25 Q1375.86 1552.07 1379.39 1552.07 Q1384.26 1552.07 1387.19 1548.63 Q1390.15 1545.16 1390.15 1539.43 L1390.15 1538.12 L1384.33 1538.12 M1396.01 1535.71 L1396.01 1556.04 L1390.15 1556.04 L1390.15 1550.63 Q1388.15 1553.88 1385.15 1555.44 Q1382.16 1556.97 1377.83 1556.97 Q1372.36 1556.97 1369.11 1553.91 Q1365.9 1550.82 1365.9 1545.67 Q1365.9 1539.65 1369.91 1536.6 Q1373.95 1533.54 1381.94 1533.54 L1390.15 1533.54 L1390.15 1532.97 Q1390.15 1528.93 1387.48 1526.73 Q1384.84 1524.5 1380.03 1524.5 Q1376.97 1524.5 1374.08 1525.23 Q1371.18 1525.97 1368.51 1527.43 L1368.51 1522.02 Q1371.72 1520.78 1374.75 1520.17 Q1377.77 1519.54 1380.63 1519.54 Q1388.37 1519.54 1392.19 1523.55 Q1396.01 1527.56 1396.01 1535.71 Z" fill="#000000" fill-rule="evenodd" fill-opacity="1" /><path clip-path="url(#clip440)" d="M 0 0 M1402.15 1506.52 L1408.01 1506.52 L1408.01 1556.04 L1402.15 1556.04 L1402.15 1506.52 Z" fill="#000000" fill-rule="evenodd" fill-opacity="1" /><path clip-path="url(#clip440)" d="M 0 0 M1413.55 1541.98 L1413.55 1520.4 L1419.4 1520.4 L1419.4 1541.75 Q1419.4 1546.81 1421.38 1549.36 Q1423.35 1551.87 1427.3 1551.87 Q1432.04 1551.87 1434.78 1548.85 Q1437.54 1545.83 1437.54 1540.61 L1437.54 1520.4 L1443.4 1520.4 L1443.4 1556.04 L1437.54 1556.04 L1437.54 1550.57 Q1435.41 1553.82 1432.58 1555.41 Q1429.78 1556.97 1426.05 1556.97 Q1419.91 1556.97 1416.73 1553.15 Q1413.55 1549.33 1413.55 1541.98 M1428.28 1519.54 L1428.28 1519.54 Z" fill="#000000" fill-rule="evenodd" fill-opacity="1" /><path clip-path="url(#clip440)" d="M 0 0 M1480.04 1536.76 L1480.04 1539.62 L1453.11 1539.62 Q1453.49 1545.67 1456.74 1548.85 Q1460.02 1552 1465.84 1552 Q1469.21 1552 1472.36 1551.17 Q1475.55 1550.35 1478.67 1548.69 L1478.67 1554.23 Q1475.52 1555.57 1472.21 1556.27 Q1468.9 1556.97 1465.49 1556.97 Q1456.96 1556.97 1451.96 1552 Q1447 1547.04 1447 1538.57 Q1447 1529.82 1451.71 1524.69 Q1456.45 1519.54 1464.47 1519.54 Q1471.66 1519.54 1475.83 1524.18 Q1480.04 1528.8 1480.04 1536.76 M1474.18 1535.04 Q1474.12 1530.23 1471.47 1527.37 Q1468.86 1524.5 1464.53 1524.5 Q1459.63 1524.5 1456.67 1527.27 Q1453.75 1530.04 1453.3 1535.07 L1474.18 1535.04 Z" fill="#000000" fill-rule="evenodd" fill-opacity="1" /><polyline clip-path="url(#clip442)" style="stroke:#000000; stroke-width:2; stroke-opacity:0.1; fill:none" points="
  226.232,1384.24 2352.76,1384.24 
  "/>
<polyline clip-path="url(#clip442)" style="stroke:#000000; stroke-width:2; stroke-opacity:0.1; fill:none" points="
  226.232,1105.69 2352.76,1105.69 
  "/>
<polyline clip-path="url(#clip442)" style="stroke:#000000; stroke-width:2; stroke-opacity:0.1; fill:none" points="
  226.232,827.134 2352.76,827.134 
  "/>
<polyline clip-path="url(#clip442)" style="stroke:#000000; stroke-width:2; stroke-opacity:0.1; fill:none" points="
  226.232,548.582 2352.76,548.582 
  "/>
<polyline clip-path="url(#clip442)" style="stroke:#000000; stroke-width:2; stroke-opacity:0.1; fill:none" points="
  226.232,270.03 2352.76,270.03 
  "/>
<polyline clip-path="url(#clip440)" style="stroke:#000000; stroke-width:4; stroke-opacity:1; fill:none" points="
  226.232,1423.18 226.232,47.2441 
  "/>
<polyline clip-path="url(#clip440)" style="stroke:#000000; stroke-width:4; stroke-opacity:1; fill:none" points="
  226.232,1384.24 251.75,1384.24 
  "/>
<polyline clip-path="url(#clip440)" style="stroke:#000000; stroke-width:4; stroke-opacity:1; fill:none" points="
  226.232,1105.69 251.75,1105.69 
  "/>
<polyline clip-path="url(#clip440)" style="stroke:#000000; stroke-width:4; stroke-opacity:1; fill:none" points="
  226.232,827.134 251.75,827.134 
  "/>
<polyline clip-path="url(#clip440)" style="stroke:#000000; stroke-width:4; stroke-opacity:1; fill:none" points="
  226.232,548.582 251.75,548.582 
  "/>
<polyline clip-path="url(#clip440)" style="stroke:#000000; stroke-width:4; stroke-opacity:1; fill:none" points="
  226.232,270.03 251.75,270.03 
  "/>
<path clip-path="url(#clip440)" d="M 0 0 M178.288 1370.04 Q174.677 1370.04 172.848 1373.6 Q171.042 1377.14 171.042 1384.27 Q171.042 1391.38 172.848 1394.94 Q174.677 1398.49 178.288 1398.49 Q181.922 1398.49 183.727 1394.94 Q185.556 1391.38 185.556 1384.27 Q185.556 1377.14 183.727 1373.6 Q181.922 1370.04 178.288 1370.04 M178.288 1366.33 Q184.098 1366.33 187.153 1370.94 Q190.232 1375.52 190.232 1384.27 Q190.232 1393 187.153 1397.61 Q184.098 1402.19 178.288 1402.19 Q172.477 1402.19 169.399 1397.61 Q166.343 1393 166.343 1384.27 Q166.343 1375.52 169.399 1370.94 Q172.477 1366.33 178.288 1366.33 Z" fill="#000000" fill-rule="evenodd" fill-opacity="1" /><path clip-path="url(#clip440)" d="M 0 0 M142.316 1088.41 L160.672 1088.41 L160.672 1092.34 L146.598 1092.34 L146.598 1100.81 Q147.616 1100.47 148.635 1100.3 Q149.653 1100.12 150.672 1100.12 Q156.459 1100.12 159.839 1103.29 Q163.218 1106.46 163.218 1111.88 Q163.218 1117.46 159.746 1120.56 Q156.274 1123.64 149.954 1123.64 Q147.778 1123.64 145.51 1123.27 Q143.265 1122.9 140.857 1122.16 L140.857 1117.46 Q142.941 1118.59 145.163 1119.15 Q147.385 1119.7 149.862 1119.7 Q153.866 1119.7 156.204 1117.6 Q158.542 1115.49 158.542 1111.88 Q158.542 1108.27 156.204 1106.16 Q153.866 1104.05 149.862 1104.05 Q147.987 1104.05 146.112 1104.47 Q144.26 1104.89 142.316 1105.77 L142.316 1088.41 Z" fill="#000000" fill-rule="evenodd" fill-opacity="1" /><path clip-path="url(#clip440)" d="M 0 0 M178.288 1091.48 Q174.677 1091.48 172.848 1095.05 Q171.042 1098.59 171.042 1105.72 Q171.042 1112.83 172.848 1116.39 Q174.677 1119.93 178.288 1119.93 Q181.922 1119.93 183.727 1116.39 Q185.556 1112.83 185.556 1105.72 Q185.556 1098.59 183.727 1095.05 Q181.922 1091.48 178.288 1091.48 M178.288 1087.78 Q184.098 1087.78 187.153 1092.39 Q190.232 1096.97 190.232 1105.72 Q190.232 1114.45 187.153 1119.05 Q184.098 1123.64 178.288 1123.64 Q172.477 1123.64 169.399 1119.05 Q166.343 1114.45 166.343 1105.72 Q166.343 1096.97 169.399 1092.39 Q172.477 1087.78 178.288 1087.78 Z" fill="#000000" fill-rule="evenodd" fill-opacity="1" /><path clip-path="url(#clip440)" d="M 0 0 M116.297 840.479 L123.936 840.479 L123.936 814.113 L115.626 815.78 L115.626 811.521 L123.89 809.854 L128.566 809.854 L128.566 840.479 L136.204 840.479 L136.204 844.414 L116.297 844.414 L116.297 840.479 Z" fill="#000000" fill-rule="evenodd" fill-opacity="1" /><path clip-path="url(#clip440)" d="M 0 0 M151.274 812.933 Q147.663 812.933 145.834 816.498 Q144.029 820.039 144.029 827.169 Q144.029 834.275 145.834 837.84 Q147.663 841.382 151.274 841.382 Q154.908 841.382 156.714 837.84 Q158.542 834.275 158.542 827.169 Q158.542 820.039 156.714 816.498 Q154.908 812.933 151.274 812.933 M151.274 809.229 Q157.084 809.229 160.14 813.836 Q163.218 818.419 163.218 827.169 Q163.218 835.896 160.14 840.502 Q157.084 845.085 151.274 845.085 Q145.464 845.085 142.385 840.502 Q139.329 835.896 139.329 827.169 Q139.329 818.419 142.385 813.836 Q145.464 809.229 151.274 809.229 Z" fill="#000000" fill-rule="evenodd" fill-opacity="1" /><path clip-path="url(#clip440)" d="M 0 0 M178.288 812.933 Q174.677 812.933 172.848 816.498 Q171.042 820.039 171.042 827.169 Q171.042 834.275 172.848 837.84 Q174.677 841.382 178.288 841.382 Q181.922 841.382 183.727 837.84 Q185.556 834.275 185.556 827.169 Q185.556 820.039 183.727 816.498 Q181.922 812.933 178.288 812.933 M178.288 809.229 Q184.098 809.229 187.153 813.836 Q190.232 818.419 190.232 827.169 Q190.232 835.896 187.153 840.502 Q184.098 845.085 178.288 845.085 Q172.477 845.085 169.399 840.502 Q166.343 835.896 166.343 827.169 Q166.343 818.419 169.399 813.836 Q172.477 809.229 178.288 809.229 Z" fill="#000000" fill-rule="evenodd" fill-opacity="1" /><path clip-path="url(#clip440)" d="M 0 0 M117.293 561.927 L124.931 561.927 L124.931 535.561 L116.621 537.228 L116.621 532.969 L124.885 531.302 L129.561 531.302 L129.561 561.927 L137.2 561.927 L137.2 565.862 L117.293 565.862 L117.293 561.927 Z" fill="#000000" fill-rule="evenodd" fill-opacity="1" /><path clip-path="url(#clip440)" d="M 0 0 M142.316 531.302 L160.672 531.302 L160.672 535.237 L146.598 535.237 L146.598 543.709 Q147.616 543.362 148.635 543.2 Q149.653 543.015 150.672 543.015 Q156.459 543.015 159.839 546.186 Q163.218 549.358 163.218 554.774 Q163.218 560.353 159.746 563.455 Q156.274 566.533 149.954 566.533 Q147.778 566.533 145.51 566.163 Q143.265 565.793 140.857 565.052 L140.857 560.353 Q142.941 561.487 145.163 562.043 Q147.385 562.598 149.862 562.598 Q153.866 562.598 156.204 560.492 Q158.542 558.385 158.542 554.774 Q158.542 551.163 156.204 549.057 Q153.866 546.95 149.862 546.95 Q147.987 546.95 146.112 547.367 Q144.26 547.783 142.316 548.663 L142.316 531.302 Z" fill="#000000" fill-rule="evenodd" fill-opacity="1" /><path clip-path="url(#clip440)" d="M 0 0 M178.288 534.381 Q174.677 534.381 172.848 537.946 Q171.042 541.487 171.042 548.617 Q171.042 555.723 172.848 559.288 Q174.677 562.83 178.288 562.83 Q181.922 562.83 183.727 559.288 Q185.556 555.723 185.556 548.617 Q185.556 541.487 183.727 537.946 Q181.922 534.381 178.288 534.381 M178.288 530.677 Q184.098 530.677 187.153 535.284 Q190.232 539.867 190.232 548.617 Q190.232 557.344 187.153 561.95 Q184.098 566.533 178.288 566.533 Q172.477 566.533 169.399 561.95 Q166.343 557.344 166.343 548.617 Q166.343 539.867 169.399 535.284 Q172.477 530.677 178.288 530.677 Z" fill="#000000" fill-rule="evenodd" fill-opacity="1" /><path clip-path="url(#clip440)" d="M 0 0 M119.885 283.375 L136.204 283.375 L136.204 287.31 L114.26 287.31 L114.26 283.375 Q116.922 280.62 121.505 275.991 Q126.112 271.338 127.292 269.995 Q129.538 267.472 130.417 265.736 Q131.32 263.977 131.32 262.287 Q131.32 259.532 129.376 257.796 Q127.455 256.06 124.353 256.06 Q122.154 256.06 119.7 256.824 Q117.269 257.588 114.492 259.139 L114.492 254.417 Q117.316 253.282 119.769 252.704 Q122.223 252.125 124.26 252.125 Q129.63 252.125 132.825 254.81 Q136.019 257.495 136.019 261.986 Q136.019 264.116 135.209 266.037 Q134.422 267.935 132.316 270.528 Q131.737 271.199 128.635 274.417 Q125.533 277.611 119.885 283.375 Z" fill="#000000" fill-rule="evenodd" fill-opacity="1" /><path clip-path="url(#clip440)" d="M 0 0 M151.274 255.829 Q147.663 255.829 145.834 259.394 Q144.029 262.935 144.029 270.065 Q144.029 277.171 145.834 280.736 Q147.663 284.278 151.274 284.278 Q154.908 284.278 156.714 280.736 Q158.542 277.171 158.542 270.065 Q158.542 262.935 156.714 259.394 Q154.908 255.829 151.274 255.829 M151.274 252.125 Q157.084 252.125 160.14 256.731 Q163.218 261.315 163.218 270.065 Q163.218 278.792 160.14 283.398 Q157.084 287.981 151.274 287.981 Q145.464 287.981 142.385 283.398 Q139.329 278.792 139.329 270.065 Q139.329 261.315 142.385 256.731 Q145.464 252.125 151.274 252.125 Z" fill="#000000" fill-rule="evenodd" fill-opacity="1" /><path clip-path="url(#clip440)" d="M 0 0 M178.288 255.829 Q174.677 255.829 172.848 259.394 Q171.042 262.935 171.042 270.065 Q171.042 277.171 172.848 280.736 Q174.677 284.278 178.288 284.278 Q181.922 284.278 183.727 280.736 Q185.556 277.171 185.556 270.065 Q185.556 262.935 183.727 259.394 Q181.922 255.829 178.288 255.829 M178.288 252.125 Q184.098 252.125 187.153 256.731 Q190.232 261.315 190.232 270.065 Q190.232 278.792 187.153 283.398 Q184.098 287.981 178.288 287.981 Q172.477 287.981 169.399 283.398 Q166.343 278.792 166.343 270.065 Q166.343 261.315 169.399 256.731 Q172.477 252.125 178.288 252.125 Z" fill="#000000" fill-rule="evenodd" fill-opacity="1" /><path clip-path="url(#clip440)" d="M 0 0 M38.479 860.712 L43.3487 860.712 L43.3487 866.314 Q43.3487 869.465 44.6219 870.706 Q45.895 871.916 49.2052 871.916 L52.3562 871.916 L52.3562 862.271 L56.9077 862.271 L56.9077 871.916 L88.0042 871.916 L88.0042 877.804 L56.9077 877.804 L56.9077 883.406 L52.3562 883.406 L52.3562 877.804 L49.8736 877.804 Q43.9216 877.804 41.2162 875.035 Q38.479 872.266 38.479 866.25 L38.479 860.712 Z" fill="#000000" fill-rule="evenodd" fill-opacity="1" /><path clip-path="url(#clip440)" d="M 0 0 M57.8307 833.912 Q57.2578 834.899 57.0032 836.077 Q56.7167 837.222 56.7167 838.623 Q56.7167 843.588 59.9632 846.262 Q63.1779 848.903 69.2253 848.903 L88.0042 848.903 L88.0042 854.792 L52.3562 854.792 L52.3562 848.903 L57.8944 848.903 Q54.6479 847.057 53.0883 844.097 Q51.4968 841.137 51.4968 836.904 Q51.4968 836.299 51.5923 835.567 Q51.656 834.835 51.8151 833.944 L57.8307 833.912 Z" fill="#000000" fill-rule="evenodd" fill-opacity="1" /><path clip-path="url(#clip440)" d="M 0 0 M68.7161 798.71 L71.5806 798.71 L71.5806 825.637 Q77.6281 825.255 80.8109 822.008 Q83.9619 818.73 83.9619 812.905 Q83.9619 809.532 83.1344 806.381 Q82.3069 803.198 80.6518 800.079 L86.1899 800.079 Q87.5267 803.23 88.227 806.54 Q88.9272 809.85 88.9272 813.256 Q88.9272 821.786 83.9619 826.783 Q78.9967 831.748 70.5303 831.748 Q61.7774 831.748 56.6531 827.037 Q51.4968 822.295 51.4968 814.274 Q51.4968 807.081 56.1438 802.911 Q60.7589 798.71 68.7161 798.71 M66.9973 804.566 Q62.1912 804.63 59.3266 807.272 Q56.4621 809.882 56.4621 814.21 Q56.4621 819.112 59.2312 822.072 Q62.0002 825 67.0292 825.446 L66.9973 804.566 Z" fill="#000000" fill-rule="evenodd" fill-opacity="1" /><path clip-path="url(#clip440)" d="M 0 0 M70.212 789.066 Q76.6732 789.066 80.3653 786.424 Q84.0256 783.75 84.0256 779.104 Q84.0256 774.457 80.3653 771.783 Q76.6732 769.109 70.212 769.109 Q63.7508 769.109 60.0905 771.783 Q56.3984 774.457 56.3984 779.104 Q56.3984 783.75 60.0905 786.424 Q63.7508 789.066 70.212 789.066 M82.657 769.109 Q85.8398 770.955 87.3994 773.788 Q88.9272 776.589 88.9272 780.536 Q88.9272 786.997 83.771 791.071 Q78.6147 795.113 70.212 795.113 Q61.8093 795.113 56.6531 791.071 Q51.4968 786.997 51.4968 780.536 Q51.4968 776.589 53.0564 773.788 Q54.5842 770.955 57.7671 769.109 L52.3562 769.109 L52.3562 763.253 L101.563 763.253 L101.563 769.109 L82.657 769.109 Z" fill="#000000" fill-rule="evenodd" fill-opacity="1" /><path clip-path="url(#clip440)" d="M 0 0 M73.9359 757.715 L52.3562 757.715 L52.3562 751.858 L73.7131 751.858 Q78.7739 751.858 81.3202 749.885 Q83.8346 747.912 83.8346 743.965 Q83.8346 739.222 80.8109 736.485 Q77.7872 733.716 72.5673 733.716 L52.3562 733.716 L52.3562 727.86 L88.0042 727.86 L88.0042 733.716 L82.5296 733.716 Q85.7762 735.849 87.3676 738.681 Q88.9272 741.482 88.9272 745.206 Q88.9272 751.349 85.1078 754.532 Q81.2883 757.715 73.9359 757.715 M51.4968 742.978 L51.4968 742.978 Z" fill="#000000" fill-rule="evenodd" fill-opacity="1" /><path clip-path="url(#clip440)" d="M 0 0 M68.7161 691.225 L71.5806 691.225 L71.5806 718.152 Q77.6281 717.77 80.8109 714.523 Q83.9619 711.245 83.9619 705.42 Q83.9619 702.047 83.1344 698.896 Q82.3069 695.713 80.6518 692.594 L86.1899 692.594 Q87.5267 695.745 88.227 699.055 Q88.9272 702.365 88.9272 705.771 Q88.9272 714.301 83.9619 719.298 Q78.9967 724.263 70.5303 724.263 Q61.7774 724.263 56.6531 719.552 Q51.4968 714.81 51.4968 706.789 Q51.4968 699.596 56.1438 695.426 Q60.7589 691.225 68.7161 691.225 M66.9973 697.081 Q62.1912 697.145 59.3266 699.787 Q56.4621 702.397 56.4621 706.725 Q56.4621 711.627 59.2312 714.587 Q62.0002 717.515 67.0292 717.961 L66.9973 697.081 Z" fill="#000000" fill-rule="evenodd" fill-opacity="1" /><path clip-path="url(#clip440)" d="M 0 0 M66.4881 655.45 L88.0042 655.45 L88.0042 661.306 L66.679 661.306 Q61.6183 661.306 59.1038 663.279 Q56.5894 665.253 56.5894 669.2 Q56.5894 673.942 59.6131 676.679 Q62.6368 679.417 67.8567 679.417 L88.0042 679.417 L88.0042 685.305 L52.3562 685.305 L52.3562 679.417 L57.8944 679.417 Q54.6797 677.316 53.0883 674.483 Q51.4968 671.619 51.4968 667.895 Q51.4968 661.752 55.3163 658.601 Q59.1038 655.45 66.4881 655.45 Z" fill="#000000" fill-rule="evenodd" fill-opacity="1" /><path clip-path="url(#clip440)" d="M 0 0 M53.7248 623.653 L59.1993 623.653 Q57.8307 626.136 57.1623 628.65 Q56.4621 631.133 56.4621 633.679 Q56.4621 639.376 60.0905 642.527 Q63.6872 645.678 70.212 645.678 Q76.7369 645.678 80.3653 642.527 Q83.9619 639.376 83.9619 633.679 Q83.9619 631.133 83.2935 628.65 Q82.5933 626.136 81.2247 623.653 L86.6355 623.653 Q87.7814 626.104 88.3543 628.746 Q88.9272 631.355 88.9272 634.316 Q88.9272 642.368 83.8664 647.111 Q78.8057 651.853 70.212 651.853 Q61.491 651.853 56.4939 647.079 Q51.4968 642.273 51.4968 633.934 Q51.4968 631.228 52.0697 628.65 Q52.6108 626.072 53.7248 623.653 Z" fill="#000000" fill-rule="evenodd" fill-opacity="1" /><path clip-path="url(#clip440)" d="M 0 0 M91.3143 602.678 Q97.68 605.161 99.6216 607.516 Q101.563 609.871 101.563 613.818 L101.563 618.497 L96.6615 618.497 L96.6615 615.059 Q96.6615 612.64 95.5157 611.303 Q94.3699 609.967 90.1048 608.343 L87.4312 607.293 L52.3562 621.711 L52.3562 615.505 L80.238 604.365 L52.3562 593.225 L52.3562 587.018 L91.3143 602.678 Z" fill="#000000" fill-rule="evenodd" fill-opacity="1" /><path clip-path="url(#clip442)" d="
M343.195 1367.53 L343.195 1384.24 L553.483 1384.24 L553.483 1367.53 L343.195 1367.53 L343.195 1367.53  Z
  " fill="#009af9" fill-rule="evenodd" fill-opacity="1"/>
<polyline clip-path="url(#clip442)" style="stroke:#000000; stroke-width:4; stroke-opacity:1; fill:none" points="
  343.195,1367.53 343.195,1384.24 553.483,1384.24 553.483,1367.53 343.195,1367.53 
  "/>
<path clip-path="url(#clip442)" d="
M553.483 1172.54 L553.483 1384.24 L763.772 1384.24 L763.772 1172.54 L553.483 1172.54 L553.483 1172.54  Z
  " fill="#009af9" fill-rule="evenodd" fill-opacity="1"/>
<polyline clip-path="url(#clip442)" style="stroke:#000000; stroke-width:4; stroke-opacity:1; fill:none" points="
  553.483,1172.54 553.483,1384.24 763.772,1384.24 763.772,1172.54 553.483,1172.54 
  "/>
<path clip-path="url(#clip442)" d="
M763.772 771.424 L763.772 1384.24 L974.061 1384.24 L974.061 771.424 L763.772 771.424 L763.772 771.424  Z
  " fill="#009af9" fill-rule="evenodd" fill-opacity="1"/>
<polyline clip-path="url(#clip442)" style="stroke:#000000; stroke-width:4; stroke-opacity:1; fill:none" points="
  763.772,771.424 763.772,1384.24 974.061,1384.24 974.061,771.424 763.772,771.424 
  "/>
<path clip-path="url(#clip442)" d="
M974.061 86.1857 L974.061 1384.24 L1184.35 1384.24 L1184.35 86.1857 L974.061 86.1857 L974.061 86.1857  Z
  " fill="#009af9" fill-rule="evenodd" fill-opacity="1"/>
<polyline clip-path="url(#clip442)" style="stroke:#000000; stroke-width:4; stroke-opacity:1; fill:none" points="
  974.061,86.1857 974.061,1384.24 1184.35,1384.24 1184.35,86.1857 974.061,86.1857 
  "/>
<path clip-path="url(#clip442)" d="
M1184.35 125.183 L1184.35 1384.24 L1394.64 1384.24 L1394.64 125.183 L1184.35 125.183 L1184.35 125.183  Z
  " fill="#009af9" fill-rule="evenodd" fill-opacity="1"/>
<polyline clip-path="url(#clip442)" style="stroke:#000000; stroke-width:4; stroke-opacity:1; fill:none" points="
  1184.35,125.183 1184.35,1384.24 1394.64,1384.24 1394.64,125.183 1184.35,125.183 
  "/>
<path clip-path="url(#clip442)" d="
M1394.64 136.325 L1394.64 1384.24 L1604.93 1384.24 L1604.93 136.325 L1394.64 136.325 L1394.64 136.325  Z
  " fill="#009af9" fill-rule="evenodd" fill-opacity="1"/>
<polyline clip-path="url(#clip442)" style="stroke:#000000; stroke-width:4; stroke-opacity:1; fill:none" points="
  1394.64,136.325 1394.64,1384.24 1604.93,1384.24 1604.93,136.325 1394.64,136.325 
  "/>
<path clip-path="url(#clip442)" d="
M1604.93 682.287 L1604.93 1384.24 L1815.22 1384.24 L1815.22 682.287 L1604.93 682.287 L1604.93 682.287  Z
  " fill="#009af9" fill-rule="evenodd" fill-opacity="1"/>
<polyline clip-path="url(#clip442)" style="stroke:#000000; stroke-width:4; stroke-opacity:1; fill:none" points="
  1604.93,682.287 1604.93,1384.24 1815.22,1384.24 1815.22,682.287 1604.93,682.287 
  "/>
<path clip-path="url(#clip442)" d="
M1815.22 1189.25 L1815.22 1384.24 L2025.5 1384.24 L2025.5 1189.25 L1815.22 1189.25 L1815.22 1189.25  Z
  " fill="#009af9" fill-rule="evenodd" fill-opacity="1"/>
<polyline clip-path="url(#clip442)" style="stroke:#000000; stroke-width:4; stroke-opacity:1; fill:none" points="
  1815.22,1189.25 1815.22,1384.24 2025.5,1384.24 2025.5,1189.25 1815.22,1189.25 
  "/>
<path clip-path="url(#clip442)" d="
M2025.5 1356.38 L2025.5 1384.24 L2235.79 1384.24 L2235.79 1356.38 L2025.5 1356.38 L2025.5 1356.38  Z
  " fill="#009af9" fill-rule="evenodd" fill-opacity="1"/>
<polyline clip-path="url(#clip442)" style="stroke:#000000; stroke-width:4; stroke-opacity:1; fill:none" points="
  2025.5,1356.38 2025.5,1384.24 2235.79,1384.24 2235.79,1356.38 2025.5,1356.38 
  "/>
<path clip-path="url(#clip440)" d="
M1997.26 214.069 L2281.87 214.069 L2281.87 93.1086 L1997.26 93.1086  Z
  " fill="#ffffff" fill-rule="evenodd" fill-opacity="1"/>
<polyline clip-path="url(#clip440)" style="stroke:#000000; stroke-width:4; stroke-opacity:1; fill:none" points="
  1997.26,214.069 2281.87,214.069 2281.87,93.1086 1997.26,93.1086 1997.26,214.069 
  "/>
<path clip-path="url(#clip440)" d="
M2020.89 177.781 L2162.66 177.781 L2162.66 129.397 L2020.89 129.397 L2020.89 177.781  Z
  " fill="#009af9" fill-rule="evenodd" fill-opacity="1"/>
<polyline clip-path="url(#clip440)" style="stroke:#000000; stroke-width:4; stroke-opacity:1; fill:none" points="
  2020.89,177.781 2162.66,177.781 2162.66,129.397 2020.89,129.397 2020.89,177.781 
  "/>
<path clip-path="url(#clip440)" d="M 0 0 M2211.35 139.29 Q2211.35 142.71 2209.61 146.012 Q2207.9 149.315 2205.21 151.353 Q2202.52 153.367 2199.78 153.367 Q2198.14 153.367 2197.04 152.477 Q2195.96 151.563 2195.37 150.275 Q2194.93 151.868 2193.97 155.686 Q2193.01 159.504 2193.01 159.878 Q2193.01 160.089 2193.05 160.183 Q2193.1 160.277 2193.31 160.394 Q2193.52 160.534 2194.04 160.581 Q2194.55 160.651 2195.42 160.651 Q2195.86 160.651 2196.03 160.651 Q2196.22 160.675 2196.38 160.792 Q2196.57 160.909 2196.57 161.167 Q2196.57 162.127 2195.7 162.127 Q2194.93 162.127 2193.34 162.057 Q2191.74 161.986 2190.95 161.986 Q2190.27 161.986 2188.91 162.057 Q2187.55 162.127 2186.92 162.127 Q2186.29 162.127 2186.29 161.565 Q2186.29 161.237 2186.38 161.026 Q2186.45 160.839 2186.64 160.745 Q2186.82 160.675 2186.99 160.651 Q2187.13 160.651 2187.41 160.651 Q2188.49 160.651 2188.96 160.464 Q2189.42 160.3 2189.59 159.949 Q2189.78 159.621 2189.99 158.684 L2195.37 137.323 Q2195.7 135.894 2195.7 134.887 Q2195.7 133.622 2195.3 133.153 Q2194.9 132.685 2194.2 132.685 Q2192.98 132.685 2192.19 134.137 Q2191.39 135.589 2190.71 138.4 Q2190.5 139.173 2190.36 139.337 Q2190.24 139.501 2189.89 139.501 Q2189.31 139.478 2189.31 139.009 Q2189.31 138.892 2189.49 138.142 Q2189.68 137.369 2190.03 136.245 Q2190.41 135.098 2190.81 134.371 Q2191.04 133.88 2191.25 133.552 Q2191.46 133.224 2191.88 132.708 Q2192.33 132.193 2192.96 131.912 Q2193.59 131.631 2194.37 131.631 Q2195.86 131.631 2197.11 132.521 Q2198.35 133.411 2198.68 135.215 Q2200.01 133.645 2201.65 132.638 Q2203.29 131.631 2204.95 131.631 Q2207.72 131.631 2209.52 133.786 Q2211.35 135.917 2211.35 139.29 M2207.88 137.182 Q2207.88 135.051 2207.06 133.88 Q2206.26 132.685 2204.81 132.685 Q2203.01 132.685 2200.92 134.512 Q2198.86 136.245 2198.44 137.861 L2196.08 147.254 L2195.94 148.027 Q2195.94 148.167 2196.01 148.589 Q2196.1 148.987 2196.36 149.643 Q2196.64 150.299 2197.01 150.884 Q2197.41 151.446 2198.11 151.868 Q2198.84 152.29 2199.73 152.29 Q2201.16 152.29 2202.7 151.025 Q2204.27 149.76 2205.44 147.371 Q2206.17 145.825 2207.01 142.499 Q2207.88 139.15 2207.88 137.182 Z" fill="#000000" fill-rule="evenodd" fill-opacity="1" /><path clip-path="url(#clip440)" d="M 0 0 M2216.22 175.568 Q2216.22 174.961 2216.27 174.781 Q2216.33 174.6 2216.59 174.322 L2223.04 167.14 Q2226.56 163.173 2226.56 159.713 Q2226.56 157.467 2225.38 155.86 Q2224.22 154.253 2222.07 154.253 Q2220.6 154.253 2219.35 155.155 Q2218.1 156.057 2217.53 157.664 Q2217.63 157.631 2217.97 157.631 Q2218.81 157.631 2219.27 158.155 Q2219.74 158.68 2219.74 159.385 Q2219.74 160.287 2219.15 160.73 Q2218.58 161.156 2218 161.156 Q2217.78 161.156 2217.46 161.107 Q2217.17 161.057 2216.69 160.598 Q2216.22 160.123 2216.22 159.287 Q2216.22 156.942 2217.99 155.073 Q2219.78 153.204 2222.5 153.204 Q2225.58 153.204 2227.6 155.04 Q2229.63 156.86 2229.63 159.713 Q2229.63 160.713 2229.32 161.631 Q2229.02 162.533 2228.61 163.238 Q2228.22 163.943 2227.14 165.074 Q2226.05 166.206 2225.19 167.009 Q2224.32 167.813 2222.37 169.518 L2218.81 172.977 L2224.86 172.977 Q2227.81 172.977 2228.04 172.715 Q2228.37 172.239 2228.78 169.731 L2229.63 169.731 L2228.68 175.568 L2216.22 175.568 Z" fill="#000000" fill-rule="evenodd" fill-opacity="1" /></svg>
