<?xml version="1.0" encoding="utf-8"?>
<svg xmlns="http://www.w3.org/2000/svg" xmlns:xlink="http://www.w3.org/1999/xlink" width="500" height="250" viewBox="0 0 2000 1000">
<defs>
  <clipPath id="clip0900">
    <rect x="0" y="0" width="2000" height="1000"/>
  </clipPath>
</defs>
<path clip-path="url(#clip0900)" d="
M0 1000 L2000 1000 L2000 0 L0 0  Z
  " fill="#f7ece2" fill-rule="evenodd" fill-opacity="1"/>
<defs>
  <clipPath id="clip0901">
    <rect x="400" y="0" width="1401" height="1000"/>
  </clipPath>
</defs>
<path clip-path="url(#clip0900)" d="
M329.865 791.421 L1952.76 791.421 L1952.76 144.943 L329.865 144.943  Z
  " fill="#f7ece2" fill-rule="evenodd" fill-opacity="1"/>
<defs>
  <clipPath id="clip0902">
    <rect x="329" y="144" width="1624" height="647"/>
  </clipPath>
</defs>
<polyline clip-path="url(#clip0902)" style="stroke:#000000; stroke-width:2; stroke-opacity:0.1; fill:none" points="
  499.369,791.421 499.369,144.943 
  "/>
<polyline clip-path="url(#clip0902)" style="stroke:#000000; stroke-width:2; stroke-opacity:0.1; fill:none" points="
  900.582,791.421 900.582,144.943 
  "/>
<polyline clip-path="url(#clip0902)" style="stroke:#000000; stroke-width:2; stroke-opacity:0.1; fill:none" points="
  1301.8,791.421 1301.8,144.943 
  "/>
<polyline clip-path="url(#clip0902)" style="stroke:#000000; stroke-width:2; stroke-opacity:0.1; fill:none" points="
  1703.01,791.421 1703.01,144.943 
  "/>
<polyline clip-path="url(#clip0902)" style="stroke:#000000; stroke-width:2; stroke-opacity:0.1; fill:none" points="
  329.865,773.124 1952.76,773.124 
  "/>
<polyline clip-path="url(#clip0902)" style="stroke:#000000; stroke-width:2; stroke-opacity:0.1; fill:none" points="
  329.865,595.832 1952.76,595.832 
  "/>
<polyline clip-path="url(#clip0902)" style="stroke:#000000; stroke-width:2; stroke-opacity:0.1; fill:none" points="
  329.865,418.54 1952.76,418.54 
  "/>
<polyline clip-path="url(#clip0902)" style="stroke:#000000; stroke-width:2; stroke-opacity:0.1; fill:none" points="
  329.865,241.248 1952.76,241.248 
  "/>
<polyline clip-path="url(#clip0900)" style="stroke:#000000; stroke-width:4; stroke-opacity:1; fill:none" points="
  329.865,791.421 1952.76,791.421 
  "/>
<polyline clip-path="url(#clip0900)" style="stroke:#000000; stroke-width:4; stroke-opacity:1; fill:none" points="
  329.865,791.421 329.865,144.943 
  "/>
<polyline clip-path="url(#clip0900)" style="stroke:#000000; stroke-width:4; stroke-opacity:1; fill:none" points="
  499.369,791.421 499.369,781.724 
  "/>
<polyline clip-path="url(#clip0900)" style="stroke:#000000; stroke-width:4; stroke-opacity:1; fill:none" points="
  900.582,791.421 900.582,781.724 
  "/>
<polyline clip-path="url(#clip0900)" style="stroke:#000000; stroke-width:4; stroke-opacity:1; fill:none" points="
  1301.8,791.421 1301.8,781.724 
  "/>
<polyline clip-path="url(#clip0900)" style="stroke:#000000; stroke-width:4; stroke-opacity:1; fill:none" points="
  1703.01,791.421 1703.01,781.724 
  "/>
<polyline clip-path="url(#clip0900)" style="stroke:#000000; stroke-width:4; stroke-opacity:1; fill:none" points="
  329.865,773.124 354.208,773.124 
  "/>
<polyline clip-path="url(#clip0900)" style="stroke:#000000; stroke-width:4; stroke-opacity:1; fill:none" points="
  329.865,595.832 354.208,595.832 
  "/>
<polyline clip-path="url(#clip0900)" style="stroke:#000000; stroke-width:4; stroke-opacity:1; fill:none" points="
  329.865,418.54 354.208,418.54 
  "/>
<polyline clip-path="url(#clip0900)" style="stroke:#000000; stroke-width:4; stroke-opacity:1; fill:none" points="
  329.865,241.248 354.208,241.248 
  "/>
<g clip-path="url(#clip0900)">
<text style="fill:#000000; fill-opacity:1; font-family:Arial,Helvetica Neue,Helvetica,sans-serif; font-size:48px; text-anchor:middle;" transform="rotate(0, 499.369, 843.421)" x="499.369" y="843.421">0.1</text>
</g>
<g clip-path="url(#clip0900)">
<text style="fill:#000000; fill-opacity:1; font-family:Arial,Helvetica Neue,Helvetica,sans-serif; font-size:48px; text-anchor:middle;" transform="rotate(0, 900.582, 843.421)" x="900.582" y="843.421">0.2</text>
</g>
<g clip-path="url(#clip0900)">
<text style="fill:#000000; fill-opacity:1; font-family:Arial,Helvetica Neue,Helvetica,sans-serif; font-size:48px; text-anchor:middle;" transform="rotate(0, 1301.8, 843.421)" x="1301.8" y="843.421">0.3</text>
</g>
<g clip-path="url(#clip0900)">
<text style="fill:#000000; fill-opacity:1; font-family:Arial,Helvetica Neue,Helvetica,sans-serif; font-size:48px; text-anchor:middle;" transform="rotate(0, 1703.01, 843.421)" x="1703.01" y="843.421">0.4</text>
</g>
<g clip-path="url(#clip0900)">
<text style="fill:#000000; fill-opacity:1; font-family:Arial,Helvetica Neue,Helvetica,sans-serif; font-size:48px; text-anchor:end;" transform="rotate(0, 309.865, 790.624)" x="309.865" y="790.624">0</text>
</g>
<g clip-path="url(#clip0900)">
<text style="fill:#000000; fill-opacity:1; font-family:Arial,Helvetica Neue,Helvetica,sans-serif; font-size:48px; text-anchor:end;" transform="rotate(0, 309.865, 613.332)" x="309.865" y="613.332">50</text>
</g>
<g clip-path="url(#clip0900)">
<text style="fill:#000000; fill-opacity:1; font-family:Arial,Helvetica Neue,Helvetica,sans-serif; font-size:48px; text-anchor:end;" transform="rotate(0, 309.865, 436.04)" x="309.865" y="436.04">100</text>
</g>
<g clip-path="url(#clip0900)">
<text style="fill:#000000; fill-opacity:1; font-family:Arial,Helvetica Neue,Helvetica,sans-serif; font-size:48px; text-anchor:end;" transform="rotate(0, 309.865, 258.748)" x="309.865" y="258.748">150</text>
</g>
<g clip-path="url(#clip0900)">
<text style="fill:#000000; fill-opacity:1; font-family:Arial,Helvetica Neue,Helvetica,sans-serif; font-size:84px; text-anchor:middle;" transform="rotate(0, 1141.31, 73.2)" x="1141.31" y="73.2">p</text>
</g>
<g clip-path="url(#clip0900)">
<text style="fill:#000000; fill-opacity:1; font-family:Arial,Helvetica Neue,Helvetica,sans-serif; font-size:66px; text-anchor:middle;" transform="rotate(0, 1141.31, 921.283)" x="1141.31" y="921.283">Sample value</text>
</g>
<g clip-path="url(#clip0900)">
<text style="fill:#000000; fill-opacity:1; font-family:Arial,Helvetica Neue,Helvetica,sans-serif; font-size:66px; text-anchor:middle;" transform="rotate(-90, 198.015, 468.182)" x="198.015" y="468.182">Frequency</text>
</g>
<path clip-path="url(#clip0902)" d="
M419.126 769.578 L419.126 773.124 L499.369 773.124 L499.369 769.578 L419.126 769.578 L419.126 769.578  Z
  " fill="#009af9" fill-rule="evenodd" fill-opacity="0.7"/>
<polyline clip-path="url(#clip0902)" style="stroke:#000000; stroke-width:4; stroke-opacity:1; fill:none" points="
  419.126,769.578 419.126,773.124 499.369,773.124 499.369,769.578 419.126,769.578 
  "/>
<path clip-path="url(#clip0902)" d="
M499.369 773.124 L499.369 773.124 L579.612 773.124 L579.612 773.124 L499.369 773.124 L499.369 773.124  Z
  " fill="#009af9" fill-rule="evenodd" fill-opacity="0.7"/>
<polyline clip-path="url(#clip0902)" style="stroke:#000000; stroke-width:4; stroke-opacity:1; fill:none" points="
  499.369,773.124 499.369,773.124 579.612,773.124 499.369,773.124 
  "/>
<path clip-path="url(#clip0902)" d="
M579.612 773.124 L579.612 773.124 L659.854 773.124 L659.854 773.124 L579.612 773.124 L579.612 773.124  Z
  " fill="#009af9" fill-rule="evenodd" fill-opacity="0.7"/>
<polyline clip-path="url(#clip0902)" style="stroke:#000000; stroke-width:4; stroke-opacity:1; fill:none" points="
  579.612,773.124 579.612,773.124 659.854,773.124 579.612,773.124 
  "/>
<path clip-path="url(#clip0902)" d="
M659.854 769.578 L659.854 773.124 L740.097 773.124 L740.097 769.578 L659.854 769.578 L659.854 769.578  Z
  " fill="#009af9" fill-rule="evenodd" fill-opacity="0.7"/>
<polyline clip-path="url(#clip0902)" style="stroke:#000000; stroke-width:4; stroke-opacity:1; fill:none" points="
  659.854,769.578 659.854,773.124 740.097,773.124 740.097,769.578 659.854,769.578 
  "/>
<path clip-path="url(#clip0902)" d="
M740.097 744.758 L740.097 773.124 L820.34 773.124 L820.34 744.758 L740.097 744.758 L740.097 744.758  Z
  " fill="#009af9" fill-rule="evenodd" fill-opacity="0.7"/>
<polyline clip-path="url(#clip0902)" style="stroke:#000000; stroke-width:4; stroke-opacity:1; fill:none" points="
  740.097,744.758 740.097,773.124 820.34,773.124 820.34,744.758 740.097,744.758 
  "/>
<path clip-path="url(#clip0902)" d="
M820.34 627.745 L820.34 773.124 L900.582 773.124 L900.582 627.745 L820.34 627.745 L820.34 627.745  Z
  " fill="#009af9" fill-rule="evenodd" fill-opacity="0.7"/>
<polyline clip-path="url(#clip0902)" style="stroke:#000000; stroke-width:4; stroke-opacity:1; fill:none" points="
  820.34,627.745 820.34,773.124 900.582,773.124 900.582,627.745 820.34,627.745 
  "/>
<path clip-path="url(#clip0902)" d="
M900.582 485.911 L900.582 773.124 L980.825 773.124 L980.825 485.911 L900.582 485.911 L900.582 485.911  Z
  " fill="#009af9" fill-rule="evenodd" fill-opacity="0.7"/>
<polyline clip-path="url(#clip0902)" style="stroke:#000000; stroke-width:4; stroke-opacity:1; fill:none" points="
  900.582,485.911 900.582,773.124 980.825,773.124 980.825,485.911 900.582,485.911 
  "/>
<path clip-path="url(#clip0902)" d="
M980.825 322.802 L980.825 773.124 L1061.07 773.124 L1061.07 322.802 L980.825 322.802 L980.825 322.802  Z
  " fill="#009af9" fill-rule="evenodd" fill-opacity="0.7"/>
<polyline clip-path="url(#clip0902)" style="stroke:#000000; stroke-width:4; stroke-opacity:1; fill:none" points="
  980.825,322.802 980.825,773.124 1061.07,773.124 1061.07,322.802 980.825,322.802 
  "/>
<path clip-path="url(#clip0902)" d="
M1061.07 212.881 L1061.07 773.124 L1141.31 773.124 L1141.31 212.881 L1061.07 212.881 L1061.07 212.881  Z
  " fill="#009af9" fill-rule="evenodd" fill-opacity="0.7"/>
<polyline clip-path="url(#clip0902)" style="stroke:#000000; stroke-width:4; stroke-opacity:1; fill:none" points="
  1061.07,212.881 1061.07,773.124 1141.31,773.124 1141.31,212.881 1061.07,212.881 
  "/>
<path clip-path="url(#clip0902)" d="
M1141.31 163.239 L1141.31 773.124 L1221.55 773.124 L1221.55 163.239 L1141.31 163.239 L1141.31 163.239  Z
  " fill="#009af9" fill-rule="evenodd" fill-opacity="0.7"/>
<polyline clip-path="url(#clip0902)" style="stroke:#000000; stroke-width:4; stroke-opacity:1; fill:none" points="
  1141.31,163.239 1141.31,773.124 1221.55,773.124 1221.55,163.239 1141.31,163.239 
  "/>
<path clip-path="url(#clip0902)" d="
M1221.55 216.427 L1221.55 773.124 L1301.8 773.124 L1301.8 216.427 L1221.55 216.427 L1221.55 216.427  Z
  " fill="#009af9" fill-rule="evenodd" fill-opacity="0.7"/>
<polyline clip-path="url(#clip0902)" style="stroke:#000000; stroke-width:4; stroke-opacity:1; fill:none" points="
  1221.55,216.427 1221.55,773.124 1301.8,773.124 1301.8,216.427 1221.55,216.427 
  "/>
<path clip-path="url(#clip0902)" d="
M1301.8 372.444 L1301.8 773.124 L1382.04 773.124 L1382.04 372.444 L1301.8 372.444 L1301.8 372.444  Z
  " fill="#009af9" fill-rule="evenodd" fill-opacity="0.7"/>
<polyline clip-path="url(#clip0902)" style="stroke:#000000; stroke-width:4; stroke-opacity:1; fill:none" points="
  1301.8,372.444 1301.8,773.124 1382.04,773.124 1382.04,372.444 1301.8,372.444 
  "/>
<path clip-path="url(#clip0902)" d="
M1382.04 500.094 L1382.04 773.124 L1462.28 773.124 L1462.28 500.094 L1382.04 500.094 L1382.04 500.094  Z
  " fill="#009af9" fill-rule="evenodd" fill-opacity="0.7"/>
<polyline clip-path="url(#clip0902)" style="stroke:#000000; stroke-width:4; stroke-opacity:1; fill:none" points="
  1382.04,500.094 1382.04,773.124 1462.28,773.124 1462.28,500.094 1382.04,500.094 
  "/>
<path clip-path="url(#clip0902)" d="
M1462.28 649.02 L1462.28 773.124 L1542.52 773.124 L1542.52 649.02 L1462.28 649.02 L1462.28 649.02  Z
  " fill="#009af9" fill-rule="evenodd" fill-opacity="0.7"/>
<polyline clip-path="url(#clip0902)" style="stroke:#000000; stroke-width:4; stroke-opacity:1; fill:none" points="
  1462.28,649.02 1462.28,773.124 1542.52,773.124 1542.52,649.02 1462.28,649.02 
  "/>
<path clip-path="url(#clip0902)" d="
M1542.52 702.207 L1542.52 773.124 L1622.77 773.124 L1622.77 702.207 L1542.52 702.207 L1542.52 702.207  Z
  " fill="#009af9" fill-rule="evenodd" fill-opacity="0.7"/>
<polyline clip-path="url(#clip0902)" style="stroke:#000000; stroke-width:4; stroke-opacity:1; fill:none" points="
  1542.52,702.207 1542.52,773.124 1622.77,773.124 1622.77,702.207 1542.52,702.207 
  "/>
<path clip-path="url(#clip0902)" d="
M1622.77 744.758 L1622.77 773.124 L1703.01 773.124 L1703.01 744.758 L1622.77 744.758 L1622.77 744.758  Z
  " fill="#009af9" fill-rule="evenodd" fill-opacity="0.7"/>
<polyline clip-path="url(#clip0902)" style="stroke:#000000; stroke-width:4; stroke-opacity:1; fill:none" points="
  1622.77,744.758 1622.77,773.124 1703.01,773.124 1703.01,744.758 1622.77,744.758 
  "/>
<path clip-path="url(#clip0902)" d="
M1703.01 773.124 L1703.01 773.124 L1783.25 773.124 L1783.25 773.124 L1703.01 773.124 L1703.01 773.124  Z
  " fill="#009af9" fill-rule="evenodd" fill-opacity="0.7"/>
<polyline clip-path="url(#clip0902)" style="stroke:#000000; stroke-width:4; stroke-opacity:1; fill:none" points="
  1703.01,773.124 1703.01,773.124 1783.25,773.124 1703.01,773.124 
  "/>
<path clip-path="url(#clip0902)" d="
M1783.25 769.578 L1783.25 773.124 L1863.49 773.124 L1863.49 769.578 L1783.25 769.578 L1783.25 769.578  Z
  " fill="#009af9" fill-rule="evenodd" fill-opacity="0.7"/>
<polyline clip-path="url(#clip0902)" style="stroke:#000000; stroke-width:4; stroke-opacity:1; fill:none" points="
  1783.25,769.578 1783.25,773.124 1863.49,773.124 1863.49,769.578 1783.25,769.578 
  "/>
</svg>
