<?xml version="1.0" encoding="utf-8"?>
<svg xmlns="http://www.w3.org/2000/svg" xmlns:xlink="http://www.w3.org/1999/xlink" width="600" height="400" viewBox="0 0 2400 1600">
<defs>
  <clipPath id="clip350">
    <rect x="0" y="0" width="2400" height="1600"/>
  </clipPath>
</defs>
<path clip-path="url(#clip350)" d="
M0 1600 L2400 1600 L2400 0 L0 0  Z
  " fill="#ffffff" fill-rule="evenodd" fill-opacity="1"/>
<defs>
  <clipPath id="clip351">
    <rect x="480" y="0" width="1681" height="1600"/>
  </clipPath>
</defs>
<path clip-path="url(#clip350)" d="
M224.866 1423.18 L2352.76 1423.18 L2352.76 47.2441 L224.866 47.2441  Z
  " fill="#ffffff" fill-rule="evenodd" fill-opacity="1"/>
<defs>
  <clipPath id="clip352">
    <rect x="224" y="47" width="2129" height="1377"/>
  </clipPath>
</defs>
<polyline clip-path="url(#clip352)" style="stroke:#000000; stroke-width:2; stroke-opacity:0.1; fill:none" points="
  649.009,1423.18 649.009,47.2441 
  "/>
<polyline clip-path="url(#clip352)" style="stroke:#000000; stroke-width:2; stroke-opacity:0.1; fill:none" points="
  1160.85,1423.18 1160.85,47.2441 
  "/>
<polyline clip-path="url(#clip352)" style="stroke:#000000; stroke-width:2; stroke-opacity:0.1; fill:none" points="
  1672.69,1423.18 1672.69,47.2441 
  "/>
<polyline clip-path="url(#clip352)" style="stroke:#000000; stroke-width:2; stroke-opacity:0.1; fill:none" points="
  2184.53,1423.18 2184.53,47.2441 
  "/>
<polyline clip-path="url(#clip350)" style="stroke:#000000; stroke-width:4; stroke-opacity:1; fill:none" points="
  224.866,1423.18 2352.76,1423.18 
  "/>
<polyline clip-path="url(#clip350)" style="stroke:#000000; stroke-width:4; stroke-opacity:1; fill:none" points="
  649.009,1423.18 649.009,1406.67 
  "/>
<polyline clip-path="url(#clip350)" style="stroke:#000000; stroke-width:4; stroke-opacity:1; fill:none" points="
  1160.85,1423.18 1160.85,1406.67 
  "/>
<polyline clip-path="url(#clip350)" style="stroke:#000000; stroke-width:4; stroke-opacity:1; fill:none" points="
  1672.69,1423.18 1672.69,1406.67 
  "/>
<polyline clip-path="url(#clip350)" style="stroke:#000000; stroke-width:4; stroke-opacity:1; fill:none" points="
  2184.53,1423.18 2184.53,1406.67 
  "/>
<path clip-path="url(#clip350)" d="M 0 0 M631.139 1452.37 Q627.528 1452.37 625.699 1455.94 Q623.893 1459.48 623.893 1466.61 Q623.893 1473.71 625.699 1477.28 Q627.528 1480.82 631.139 1480.82 Q634.773 1480.82 636.578 1477.28 Q638.407 1473.71 638.407 1466.61 Q638.407 1459.48 636.578 1455.94 Q634.773 1452.37 631.139 1452.37 M631.139 1448.67 Q636.949 1448.67 640.004 1453.27 Q643.083 1457.86 643.083 1466.61 Q643.083 1475.33 640.004 1479.94 Q636.949 1484.52 631.139 1484.52 Q625.329 1484.52 622.25 1479.94 Q619.194 1475.33 619.194 1466.61 Q619.194 1457.86 622.25 1453.27 Q625.329 1448.67 631.139 1448.67 Z" fill="#000000" fill-rule="evenodd" fill-opacity="1" /><path clip-path="url(#clip350)" d="M 0 0 M648.152 1477.97 L653.037 1477.97 L653.037 1483.85 L648.152 1483.85 L648.152 1477.97 Z" fill="#000000" fill-rule="evenodd" fill-opacity="1" /><path clip-path="url(#clip350)" d="M 0 0 M658.916 1479.92 L666.555 1479.92 L666.555 1453.55 L658.245 1455.22 L658.245 1450.96 L666.509 1449.29 L671.185 1449.29 L671.185 1479.92 L678.824 1479.92 L678.824 1483.85 L658.916 1483.85 L658.916 1479.92 Z" fill="#000000" fill-rule="evenodd" fill-opacity="1" /><path clip-path="url(#clip350)" d="M 0 0 M1143.17 1452.37 Q1139.55 1452.37 1137.73 1455.94 Q1135.92 1459.48 1135.92 1466.61 Q1135.92 1473.71 1137.73 1477.28 Q1139.55 1480.82 1143.17 1480.82 Q1146.8 1480.82 1148.61 1477.28 Q1150.43 1473.71 1150.43 1466.61 Q1150.43 1459.48 1148.61 1455.94 Q1146.8 1452.37 1143.17 1452.37 M1143.17 1448.67 Q1148.98 1448.67 1152.03 1453.27 Q1155.11 1457.86 1155.11 1466.61 Q1155.11 1475.33 1152.03 1479.94 Q1148.98 1484.52 1143.17 1484.52 Q1137.36 1484.52 1134.28 1479.94 Q1131.22 1475.33 1131.22 1466.61 Q1131.22 1457.86 1134.28 1453.27 Q1137.36 1448.67 1143.17 1448.67 Z" fill="#000000" fill-rule="evenodd" fill-opacity="1" /><path clip-path="url(#clip350)" d="M 0 0 M1160.18 1477.97 L1165.06 1477.97 L1165.06 1483.85 L1160.18 1483.85 L1160.18 1477.97 Z" fill="#000000" fill-rule="evenodd" fill-opacity="1" /><path clip-path="url(#clip350)" d="M 0 0 M1174.16 1479.92 L1190.48 1479.92 L1190.48 1483.85 L1168.54 1483.85 L1168.54 1479.92 Q1171.2 1477.16 1175.78 1472.53 Q1180.39 1467.88 1181.57 1466.54 Q1183.81 1464.01 1184.69 1462.28 Q1185.6 1460.52 1185.6 1458.83 Q1185.6 1456.07 1183.65 1454.34 Q1181.73 1452.6 1178.63 1452.6 Q1176.43 1452.6 1173.98 1453.37 Q1171.55 1454.13 1168.77 1455.68 L1168.77 1450.96 Q1171.59 1449.82 1174.05 1449.25 Q1176.5 1448.67 1178.54 1448.67 Q1183.91 1448.67 1187.1 1451.35 Q1190.29 1454.04 1190.29 1458.53 Q1190.29 1460.66 1189.48 1462.58 Q1188.7 1464.48 1186.59 1467.07 Q1186.01 1467.74 1182.91 1470.96 Q1179.81 1474.15 1174.16 1479.92 Z" fill="#000000" fill-rule="evenodd" fill-opacity="1" /><path clip-path="url(#clip350)" d="M 0 0 M1654.53 1452.37 Q1650.92 1452.37 1649.09 1455.94 Q1647.29 1459.48 1647.29 1466.61 Q1647.29 1473.71 1649.09 1477.28 Q1650.92 1480.82 1654.53 1480.82 Q1658.17 1480.82 1659.97 1477.28 Q1661.8 1473.71 1661.8 1466.61 Q1661.8 1459.48 1659.97 1455.94 Q1658.17 1452.37 1654.53 1452.37 M1654.53 1448.67 Q1660.34 1448.67 1663.4 1453.27 Q1666.48 1457.86 1666.48 1466.61 Q1666.48 1475.33 1663.4 1479.94 Q1660.34 1484.52 1654.53 1484.52 Q1648.72 1484.52 1645.64 1479.94 Q1642.59 1475.33 1642.59 1466.61 Q1642.59 1457.86 1645.64 1453.27 Q1648.72 1448.67 1654.53 1448.67 Z" fill="#000000" fill-rule="evenodd" fill-opacity="1" /><path clip-path="url(#clip350)" d="M 0 0 M1671.55 1477.97 L1676.43 1477.97 L1676.43 1483.85 L1671.55 1483.85 L1671.55 1477.97 Z" fill="#000000" fill-rule="evenodd" fill-opacity="1" /><path clip-path="url(#clip350)" d="M 0 0 M1695.67 1465.22 Q1699.02 1465.94 1700.9 1468.2 Q1702.8 1470.47 1702.8 1473.81 Q1702.8 1478.92 1699.28 1481.72 Q1695.76 1484.52 1689.28 1484.52 Q1687.1 1484.52 1684.79 1484.08 Q1682.5 1483.67 1680.04 1482.81 L1680.04 1478.3 Q1681.99 1479.43 1684.3 1480.01 Q1686.62 1480.59 1689.14 1480.59 Q1693.54 1480.59 1695.83 1478.85 Q1698.14 1477.12 1698.14 1473.81 Q1698.14 1470.75 1695.99 1469.04 Q1693.86 1467.3 1690.04 1467.3 L1686.01 1467.3 L1686.01 1463.46 L1690.23 1463.46 Q1693.68 1463.46 1695.5 1462.09 Q1697.33 1460.7 1697.33 1458.11 Q1697.33 1455.45 1695.44 1454.04 Q1693.56 1452.6 1690.04 1452.6 Q1688.12 1452.6 1685.92 1453.02 Q1683.72 1453.44 1681.08 1454.31 L1681.08 1450.15 Q1683.75 1449.41 1686.06 1449.04 Q1688.4 1448.67 1690.46 1448.67 Q1695.78 1448.67 1698.88 1451.1 Q1701.99 1453.5 1701.99 1457.63 Q1701.99 1460.5 1700.34 1462.49 Q1698.7 1464.45 1695.67 1465.22 Z" fill="#000000" fill-rule="evenodd" fill-opacity="1" /><path clip-path="url(#clip350)" d="M 0 0 M2165.81 1452.37 Q2162.2 1452.37 2160.37 1455.94 Q2158.56 1459.48 2158.56 1466.61 Q2158.56 1473.71 2160.37 1477.28 Q2162.2 1480.82 2165.81 1480.82 Q2169.44 1480.82 2171.25 1477.28 Q2173.08 1473.71 2173.08 1466.61 Q2173.08 1459.48 2171.25 1455.94 Q2169.44 1452.37 2165.81 1452.37 M2165.81 1448.67 Q2171.62 1448.67 2174.67 1453.27 Q2177.75 1457.86 2177.75 1466.61 Q2177.75 1475.33 2174.67 1479.94 Q2171.62 1484.52 2165.81 1484.52 Q2160 1484.52 2156.92 1479.94 Q2153.86 1475.33 2153.86 1466.61 Q2153.86 1457.86 2156.92 1453.27 Q2160 1448.67 2165.81 1448.67 Z" fill="#000000" fill-rule="evenodd" fill-opacity="1" /><path clip-path="url(#clip350)" d="M 0 0 M2182.82 1477.97 L2187.71 1477.97 L2187.71 1483.85 L2182.82 1483.85 L2182.82 1477.97 Z" fill="#000000" fill-rule="evenodd" fill-opacity="1" /><path clip-path="url(#clip350)" d="M 0 0 M2205.62 1453.37 L2193.82 1471.81 L2205.62 1471.81 L2205.62 1453.37 M2204.4 1449.29 L2210.27 1449.29 L2210.27 1471.81 L2215.21 1471.81 L2215.21 1475.7 L2210.27 1475.7 L2210.27 1483.85 L2205.62 1483.85 L2205.62 1475.7 L2190.02 1475.7 L2190.02 1471.19 L2204.4 1449.29 Z" fill="#000000" fill-rule="evenodd" fill-opacity="1" /><path clip-path="url(#clip350)" d="M 0 0 M1123.61 1521.45 L1123.61 1526.98 Q1121.12 1525.71 1118.45 1525.07 Q1115.78 1524.44 1112.91 1524.44 Q1108.55 1524.44 1106.35 1525.77 Q1104.19 1527.11 1104.19 1529.79 Q1104.19 1531.82 1105.75 1533 Q1107.31 1534.15 1112.02 1535.2 L1114.02 1535.64 Q1120.26 1536.98 1122.87 1539.43 Q1125.51 1541.85 1125.51 1546.21 Q1125.51 1551.17 1121.57 1554.07 Q1117.65 1556.97 1110.78 1556.97 Q1107.91 1556.97 1104.79 1556.39 Q1101.71 1555.85 1098.27 1554.74 L1098.27 1548.69 Q1101.52 1550.38 1104.67 1551.24 Q1107.82 1552.07 1110.91 1552.07 Q1115.04 1552.07 1117.27 1550.66 Q1119.5 1549.23 1119.5 1546.65 Q1119.5 1544.27 1117.88 1542.99 Q1116.28 1541.72 1110.84 1540.54 L1108.8 1540.07 Q1103.36 1538.92 1100.94 1536.56 Q1098.52 1534.18 1098.52 1530.04 Q1098.52 1525.01 1102.09 1522.27 Q1105.65 1519.54 1112.21 1519.54 Q1115.46 1519.54 1118.32 1520.01 Q1121.19 1520.49 1123.61 1521.45 Z" fill="#000000" fill-rule="evenodd" fill-opacity="1" /><path clip-path="url(#clip350)" d="M 0 0 M1147.86 1538.12 Q1140.76 1538.12 1138.02 1539.75 Q1135.29 1541.37 1135.29 1545.29 Q1135.29 1548.4 1137.32 1550.25 Q1139.39 1552.07 1142.92 1552.07 Q1147.79 1552.07 1150.72 1548.63 Q1153.68 1545.16 1153.68 1539.43 L1153.68 1538.12 L1147.86 1538.12 M1159.54 1535.71 L1159.54 1556.04 L1153.68 1556.04 L1153.68 1550.63 Q1151.68 1553.88 1148.69 1555.44 Q1145.69 1556.97 1141.37 1556.97 Q1135.89 1556.97 1132.64 1553.91 Q1129.43 1550.82 1129.43 1545.67 Q1129.43 1539.65 1133.44 1536.6 Q1137.48 1533.54 1145.47 1533.54 L1153.68 1533.54 L1153.68 1532.97 Q1153.68 1528.93 1151.01 1526.73 Q1148.37 1524.5 1143.56 1524.5 Q1140.51 1524.5 1137.61 1525.23 Q1134.71 1525.97 1132.04 1527.43 L1132.04 1522.02 Q1135.25 1520.78 1138.28 1520.17 Q1141.3 1519.54 1144.17 1519.54 Q1151.9 1519.54 1155.72 1523.55 Q1159.54 1527.56 1159.54 1535.71 Z" fill="#000000" fill-rule="evenodd" fill-opacity="1" /><path clip-path="url(#clip350)" d="M 0 0 M1193.44 1527.24 Q1195.63 1523.29 1198.69 1521.41 Q1201.74 1519.54 1205.88 1519.54 Q1211.45 1519.54 1214.48 1523.45 Q1217.5 1527.33 1217.5 1534.53 L1217.5 1556.04 L1211.61 1556.04 L1211.61 1534.72 Q1211.61 1529.59 1209.8 1527.11 Q1207.98 1524.63 1204.26 1524.63 Q1199.71 1524.63 1197.07 1527.65 Q1194.42 1530.68 1194.42 1535.9 L1194.42 1556.04 L1188.54 1556.04 L1188.54 1534.72 Q1188.54 1529.56 1186.72 1527.11 Q1184.91 1524.63 1181.12 1524.63 Q1176.63 1524.63 1173.99 1527.68 Q1171.35 1530.71 1171.35 1535.9 L1171.35 1556.04 L1165.46 1556.04 L1165.46 1520.4 L1171.35 1520.4 L1171.35 1525.93 Q1173.35 1522.66 1176.15 1521.1 Q1178.95 1519.54 1182.81 1519.54 Q1186.69 1519.54 1189.39 1521.51 Q1192.13 1523.48 1193.44 1527.24 Z" fill="#000000" fill-rule="evenodd" fill-opacity="1" /><path clip-path="url(#clip350)" d="M 0 0 M1229.31 1550.7 L1229.31 1569.6 L1223.42 1569.6 L1223.42 1520.4 L1229.31 1520.4 L1229.31 1525.81 Q1231.15 1522.62 1233.95 1521.1 Q1236.79 1519.54 1240.7 1519.54 Q1247.2 1519.54 1251.24 1524.69 Q1255.31 1529.85 1255.31 1538.25 Q1255.31 1546.65 1251.24 1551.81 Q1247.2 1556.97 1240.7 1556.97 Q1236.79 1556.97 1233.95 1555.44 Q1231.15 1553.88 1229.31 1550.7 M1249.23 1538.25 Q1249.23 1531.79 1246.56 1528.13 Q1243.92 1524.44 1239.27 1524.44 Q1234.62 1524.44 1231.95 1528.13 Q1229.31 1531.79 1229.31 1538.25 Q1229.31 1544.71 1231.95 1548.4 Q1234.62 1552.07 1239.27 1552.07 Q1243.92 1552.07 1246.56 1548.4 Q1249.23 1544.71 1249.23 1538.25 Z" fill="#000000" fill-rule="evenodd" fill-opacity="1" /><path clip-path="url(#clip350)" d="M 0 0 M1261.45 1506.52 L1267.31 1506.52 L1267.31 1556.04 L1261.45 1556.04 L1261.45 1506.52 Z" fill="#000000" fill-rule="evenodd" fill-opacity="1" /><path clip-path="url(#clip350)" d="M 0 0 M1303.95 1536.76 L1303.95 1539.62 L1277.02 1539.62 Q1277.4 1545.67 1280.65 1548.85 Q1283.93 1552 1289.75 1552 Q1293.12 1552 1296.27 1551.17 Q1299.46 1550.35 1302.58 1548.69 L1302.58 1554.23 Q1299.43 1555.57 1296.12 1556.27 Q1292.81 1556.97 1289.4 1556.97 Q1280.87 1556.97 1275.87 1552 Q1270.91 1547.04 1270.91 1538.57 Q1270.91 1529.82 1275.62 1524.69 Q1280.36 1519.54 1288.38 1519.54 Q1295.57 1519.54 1299.74 1524.18 Q1303.95 1528.8 1303.95 1536.76 M1298.09 1535.04 Q1298.03 1530.23 1295.38 1527.37 Q1292.77 1524.5 1288.45 1524.5 Q1283.54 1524.5 1280.58 1527.27 Q1277.66 1530.04 1277.21 1535.07 L1298.09 1535.04 Z" fill="#000000" fill-rule="evenodd" fill-opacity="1" /><path clip-path="url(#clip350)" d="M 0 0 M1326.61 1520.4 L1332.81 1520.4 L1343.95 1550.31 L1355.09 1520.4 L1361.3 1520.4 L1347.93 1556.04 L1339.98 1556.04 L1326.61 1520.4 Z" fill="#000000" fill-rule="evenodd" fill-opacity="1" /><path clip-path="url(#clip350)" d="M 0 0 M1383.64 1538.12 Q1376.55 1538.12 1373.81 1539.75 Q1371.07 1541.37 1371.07 1545.29 Q1371.07 1548.4 1373.11 1550.25 Q1375.18 1552.07 1378.71 1552.07 Q1383.58 1552.07 1386.51 1548.63 Q1389.47 1545.16 1389.47 1539.43 L1389.47 1538.12 L1383.64 1538.12 M1395.33 1535.71 L1395.33 1556.04 L1389.47 1556.04 L1389.47 1550.63 Q1387.46 1553.88 1384.47 1555.44 Q1381.48 1556.97 1377.15 1556.97 Q1371.68 1556.97 1368.43 1553.91 Q1365.22 1550.82 1365.22 1545.67 Q1365.22 1539.65 1369.23 1536.6 Q1373.27 1533.54 1381.26 1533.54 L1389.47 1533.54 L1389.47 1532.97 Q1389.47 1528.93 1386.8 1526.73 Q1384.15 1524.5 1379.35 1524.5 Q1376.29 1524.5 1373.4 1525.23 Q1370.5 1525.97 1367.83 1527.43 L1367.83 1522.02 Q1371.04 1520.78 1374.06 1520.17 Q1377.09 1519.54 1379.95 1519.54 Q1387.69 1519.54 1391.51 1523.55 Q1395.33 1527.56 1395.33 1535.71 Z" fill="#000000" fill-rule="evenodd" fill-opacity="1" /><path clip-path="url(#clip350)" d="M 0 0 M1401.47 1506.52 L1407.32 1506.52 L1407.32 1556.04 L1401.47 1556.04 L1401.47 1506.52 Z" fill="#000000" fill-rule="evenodd" fill-opacity="1" /><path clip-path="url(#clip350)" d="M 0 0 M1412.86 1541.98 L1412.86 1520.4 L1418.72 1520.4 L1418.72 1541.75 Q1418.72 1546.81 1420.69 1549.36 Q1422.67 1551.87 1426.61 1551.87 Q1431.36 1551.87 1434.09 1548.85 Q1436.86 1545.83 1436.86 1540.61 L1436.86 1520.4 L1442.72 1520.4 L1442.72 1556.04 L1436.86 1556.04 L1436.86 1550.57 Q1434.73 1553.82 1431.9 1555.41 Q1429.1 1556.97 1425.37 1556.97 Q1419.23 1556.97 1416.05 1553.15 Q1412.86 1549.33 1412.86 1541.98 M1427.6 1519.54 L1427.6 1519.54 Z" fill="#000000" fill-rule="evenodd" fill-opacity="1" /><path clip-path="url(#clip350)" d="M 0 0 M1479.35 1536.76 L1479.35 1539.62 L1452.43 1539.62 Q1452.81 1545.67 1456.05 1548.85 Q1459.33 1552 1465.16 1552 Q1468.53 1552 1471.68 1551.17 Q1474.86 1550.35 1477.98 1548.69 L1477.98 1554.23 Q1474.83 1555.57 1471.52 1556.27 Q1468.21 1556.97 1464.81 1556.97 Q1456.28 1556.97 1451.28 1552 Q1446.31 1547.04 1446.31 1538.57 Q1446.31 1529.82 1451.03 1524.69 Q1455.77 1519.54 1463.79 1519.54 Q1470.98 1519.54 1475.15 1524.18 Q1479.35 1528.8 1479.35 1536.76 M1473.5 1535.04 Q1473.43 1530.23 1470.79 1527.37 Q1468.18 1524.5 1463.85 1524.5 Q1458.95 1524.5 1455.99 1527.27 Q1453.06 1530.04 1452.62 1535.07 L1473.5 1535.04 Z" fill="#000000" fill-rule="evenodd" fill-opacity="1" /><polyline clip-path="url(#clip352)" style="stroke:#000000; stroke-width:2; stroke-opacity:0.1; fill:none" points="
  224.866,1384.24 2352.76,1384.24 
  "/>
<polyline clip-path="url(#clip352)" style="stroke:#000000; stroke-width:2; stroke-opacity:0.1; fill:none" points="
  224.866,1078.09 2352.76,1078.09 
  "/>
<polyline clip-path="url(#clip352)" style="stroke:#000000; stroke-width:2; stroke-opacity:0.1; fill:none" points="
  224.866,771.949 2352.76,771.949 
  "/>
<polyline clip-path="url(#clip352)" style="stroke:#000000; stroke-width:2; stroke-opacity:0.1; fill:none" points="
  224.866,465.805 2352.76,465.805 
  "/>
<polyline clip-path="url(#clip352)" style="stroke:#000000; stroke-width:2; stroke-opacity:0.1; fill:none" points="
  224.866,159.66 2352.76,159.66 
  "/>
<polyline clip-path="url(#clip350)" style="stroke:#000000; stroke-width:4; stroke-opacity:1; fill:none" points="
  224.866,1423.18 224.866,47.2441 
  "/>
<polyline clip-path="url(#clip350)" style="stroke:#000000; stroke-width:4; stroke-opacity:1; fill:none" points="
  224.866,1384.24 250.401,1384.24 
  "/>
<polyline clip-path="url(#clip350)" style="stroke:#000000; stroke-width:4; stroke-opacity:1; fill:none" points="
  224.866,1078.09 250.401,1078.09 
  "/>
<polyline clip-path="url(#clip350)" style="stroke:#000000; stroke-width:4; stroke-opacity:1; fill:none" points="
  224.866,771.949 250.401,771.949 
  "/>
<polyline clip-path="url(#clip350)" style="stroke:#000000; stroke-width:4; stroke-opacity:1; fill:none" points="
  224.866,465.805 250.401,465.805 
  "/>
<polyline clip-path="url(#clip350)" style="stroke:#000000; stroke-width:4; stroke-opacity:1; fill:none" points="
  224.866,159.66 250.401,159.66 
  "/>
<path clip-path="url(#clip350)" d="M 0 0 M176.922 1370.04 Q173.311 1370.04 171.482 1373.6 Q169.677 1377.14 169.677 1384.27 Q169.677 1391.38 171.482 1394.94 Q173.311 1398.49 176.922 1398.49 Q180.556 1398.49 182.362 1394.94 Q184.19 1391.38 184.19 1384.27 Q184.19 1377.14 182.362 1373.6 Q180.556 1370.04 176.922 1370.04 M176.922 1366.33 Q182.732 1366.33 185.788 1370.94 Q188.866 1375.52 188.866 1384.27 Q188.866 1393 185.788 1397.61 Q182.732 1402.19 176.922 1402.19 Q171.112 1402.19 168.033 1397.61 Q164.977 1393 164.977 1384.27 Q164.977 1375.52 168.033 1370.94 Q171.112 1366.33 176.922 1366.33 Z" fill="#000000" fill-rule="evenodd" fill-opacity="1" /><path clip-path="url(#clip350)" d="M 0 0 M146.529 1091.44 L162.848 1091.44 L162.848 1095.37 L140.904 1095.37 L140.904 1091.44 Q143.566 1088.68 148.149 1084.05 Q152.755 1079.4 153.936 1078.06 Q156.181 1075.54 157.061 1073.8 Q157.964 1072.04 157.964 1070.35 Q157.964 1067.6 156.019 1065.86 Q154.098 1064.12 150.996 1064.12 Q148.797 1064.12 146.343 1064.89 Q143.913 1065.65 141.135 1067.2 L141.135 1062.48 Q143.959 1061.35 146.413 1060.77 Q148.866 1060.19 150.903 1060.19 Q156.274 1060.19 159.468 1062.87 Q162.663 1065.56 162.663 1070.05 Q162.663 1072.18 161.852 1074.1 Q161.065 1076 158.959 1078.59 Q158.38 1079.26 155.278 1082.48 Q152.177 1085.67 146.529 1091.44 Z" fill="#000000" fill-rule="evenodd" fill-opacity="1" /><path clip-path="url(#clip350)" d="M 0 0 M167.964 1060.81 L186.32 1060.81 L186.32 1064.75 L172.246 1064.75 L172.246 1073.22 Q173.264 1072.87 174.283 1072.71 Q175.301 1072.53 176.32 1072.53 Q182.107 1072.53 185.487 1075.7 Q188.866 1078.87 188.866 1084.29 Q188.866 1089.86 185.394 1092.97 Q181.922 1096.05 175.602 1096.05 Q173.427 1096.05 171.158 1095.67 Q168.913 1095.3 166.505 1094.56 L166.505 1089.86 Q168.589 1091 170.811 1091.55 Q173.033 1092.11 175.51 1092.11 Q179.514 1092.11 181.852 1090 Q184.19 1087.9 184.19 1084.29 Q184.19 1080.67 181.852 1078.57 Q179.514 1076.46 175.51 1076.46 Q173.635 1076.46 171.76 1076.88 Q169.908 1077.3 167.964 1078.17 L167.964 1060.81 Z" fill="#000000" fill-rule="evenodd" fill-opacity="1" /><path clip-path="url(#clip350)" d="M 0 0 M140.95 754.669 L159.306 754.669 L159.306 758.604 L145.232 758.604 L145.232 767.077 Q146.251 766.729 147.269 766.567 Q148.288 766.382 149.306 766.382 Q155.093 766.382 158.473 769.553 Q161.852 772.725 161.852 778.141 Q161.852 783.72 158.38 786.822 Q154.908 789.901 148.589 789.901 Q146.413 789.901 144.144 789.53 Q141.899 789.16 139.492 788.419 L139.492 783.72 Q141.575 784.854 143.797 785.41 Q146.019 785.965 148.496 785.965 Q152.501 785.965 154.839 783.859 Q157.177 781.752 157.177 778.141 Q157.177 774.53 154.839 772.424 Q152.501 770.317 148.496 770.317 Q146.621 770.317 144.746 770.734 Q142.894 771.151 140.95 772.03 L140.95 754.669 Z" fill="#000000" fill-rule="evenodd" fill-opacity="1" /><path clip-path="url(#clip350)" d="M 0 0 M176.922 757.748 Q173.311 757.748 171.482 761.313 Q169.677 764.854 169.677 771.984 Q169.677 779.09 171.482 782.655 Q173.311 786.197 176.922 786.197 Q180.556 786.197 182.362 782.655 Q184.19 779.09 184.19 771.984 Q184.19 764.854 182.362 761.313 Q180.556 757.748 176.922 757.748 M176.922 754.044 Q182.732 754.044 185.788 758.651 Q188.866 763.234 188.866 771.984 Q188.866 780.711 185.788 785.317 Q182.732 789.901 176.922 789.901 Q171.112 789.901 168.033 785.317 Q164.977 780.711 164.977 771.984 Q164.977 763.234 168.033 758.651 Q171.112 754.044 176.922 754.044 Z" fill="#000000" fill-rule="evenodd" fill-opacity="1" /><path clip-path="url(#clip350)" d="M 0 0 M140.626 448.525 L162.848 448.525 L162.848 450.516 L150.302 483.085 L145.417 483.085 L157.223 452.46 L140.626 452.46 L140.626 448.525 Z" fill="#000000" fill-rule="evenodd" fill-opacity="1" /><path clip-path="url(#clip350)" d="M 0 0 M167.964 448.525 L186.32 448.525 L186.32 452.46 L172.246 452.46 L172.246 460.932 Q173.264 460.585 174.283 460.423 Q175.301 460.238 176.32 460.238 Q182.107 460.238 185.487 463.409 Q188.866 466.58 188.866 471.997 Q188.866 477.576 185.394 480.677 Q181.922 483.756 175.602 483.756 Q173.427 483.756 171.158 483.386 Q168.913 483.015 166.505 482.275 L166.505 477.576 Q168.589 478.71 170.811 479.265 Q173.033 479.821 175.51 479.821 Q179.514 479.821 181.852 477.714 Q184.19 475.608 184.19 471.997 Q184.19 468.386 181.852 466.279 Q179.514 464.173 175.51 464.173 Q173.635 464.173 171.76 464.59 Q169.908 465.006 167.964 465.886 L167.964 448.525 Z" fill="#000000" fill-rule="evenodd" fill-opacity="1" /><path clip-path="url(#clip350)" d="M 0 0 M114.931 173.005 L122.57 173.005 L122.57 146.64 L114.26 148.306 L114.26 144.047 L122.524 142.38 L127.2 142.38 L127.2 173.005 L134.839 173.005 L134.839 176.94 L114.931 176.94 L114.931 173.005 Z" fill="#000000" fill-rule="evenodd" fill-opacity="1" /><path clip-path="url(#clip350)" d="M 0 0 M149.908 145.459 Q146.297 145.459 144.468 149.024 Q142.663 152.565 142.663 159.695 Q142.663 166.802 144.468 170.366 Q146.297 173.908 149.908 173.908 Q153.542 173.908 155.348 170.366 Q157.177 166.802 157.177 159.695 Q157.177 152.565 155.348 149.024 Q153.542 145.459 149.908 145.459 M149.908 141.755 Q155.718 141.755 158.774 146.362 Q161.852 150.945 161.852 159.695 Q161.852 168.422 158.774 173.028 Q155.718 177.612 149.908 177.612 Q144.098 177.612 141.019 173.028 Q137.964 168.422 137.964 159.695 Q137.964 150.945 141.019 146.362 Q144.098 141.755 149.908 141.755 Z" fill="#000000" fill-rule="evenodd" fill-opacity="1" /><path clip-path="url(#clip350)" d="M 0 0 M176.922 145.459 Q173.311 145.459 171.482 149.024 Q169.677 152.565 169.677 159.695 Q169.677 166.802 171.482 170.366 Q173.311 173.908 176.922 173.908 Q180.556 173.908 182.362 170.366 Q184.19 166.802 184.19 159.695 Q184.19 152.565 182.362 149.024 Q180.556 145.459 176.922 145.459 M176.922 141.755 Q182.732 141.755 185.788 146.362 Q188.866 150.945 188.866 159.695 Q188.866 168.422 185.788 173.028 Q182.732 177.612 176.922 177.612 Q171.112 177.612 168.033 173.028 Q164.977 168.422 164.977 159.695 Q164.977 150.945 168.033 146.362 Q171.112 141.755 176.922 141.755 Z" fill="#000000" fill-rule="evenodd" fill-opacity="1" /><path clip-path="url(#clip350)" d="M 0 0 M38.479 860.712 L43.3487 860.712 L43.3487 866.314 Q43.3487 869.465 44.6219 870.706 Q45.895 871.916 49.2052 871.916 L52.3562 871.916 L52.3562 862.271 L56.9077 862.271 L56.9077 871.916 L88.0042 871.916 L88.0042 877.804 L56.9077 877.804 L56.9077 883.406 L52.3562 883.406 L52.3562 877.804 L49.8736 877.804 Q43.9216 877.804 41.2162 875.035 Q38.479 872.266 38.479 866.25 L38.479 860.712 Z" fill="#000000" fill-rule="evenodd" fill-opacity="1" /><path clip-path="url(#clip350)" d="M 0 0 M57.8307 833.912 Q57.2578 834.899 57.0032 836.077 Q56.7167 837.222 56.7167 838.623 Q56.7167 843.588 59.9632 846.262 Q63.1779 848.903 69.2253 848.903 L88.0042 848.903 L88.0042 854.792 L52.3562 854.792 L52.3562 848.903 L57.8944 848.903 Q54.6479 847.057 53.0883 844.097 Q51.4968 841.137 51.4968 836.904 Q51.4968 836.299 51.5923 835.567 Q51.656 834.835 51.8151 833.944 L57.8307 833.912 Z" fill="#000000" fill-rule="evenodd" fill-opacity="1" /><path clip-path="url(#clip350)" d="M 0 0 M68.7161 798.71 L71.5806 798.71 L71.5806 825.637 Q77.6281 825.255 80.8109 822.008 Q83.9619 818.73 83.9619 812.905 Q83.9619 809.532 83.1344 806.381 Q82.3069 803.198 80.6518 800.079 L86.1899 800.079 Q87.5267 803.23 88.227 806.54 Q88.9272 809.85 88.9272 813.256 Q88.9272 821.786 83.9619 826.783 Q78.9967 831.748 70.5303 831.748 Q61.7774 831.748 56.6531 827.037 Q51.4968 822.295 51.4968 814.274 Q51.4968 807.081 56.1438 802.911 Q60.7589 798.71 68.7161 798.71 M66.9973 804.566 Q62.1912 804.63 59.3266 807.272 Q56.4621 809.882 56.4621 814.21 Q56.4621 819.112 59.2312 822.072 Q62.0002 825 67.0292 825.446 L66.9973 804.566 Z" fill="#000000" fill-rule="evenodd" fill-opacity="1" /><path clip-path="url(#clip350)" d="M 0 0 M70.212 789.066 Q76.6732 789.066 80.3653 786.424 Q84.0256 783.75 84.0256 779.104 Q84.0256 774.457 80.3653 771.783 Q76.6732 769.109 70.212 769.109 Q63.7508 769.109 60.0905 771.783 Q56.3984 774.457 56.3984 779.104 Q56.3984 783.75 60.0905 786.424 Q63.7508 789.066 70.212 789.066 M82.657 769.109 Q85.8398 770.955 87.3994 773.788 Q88.9272 776.589 88.9272 780.536 Q88.9272 786.997 83.771 791.071 Q78.6147 795.113 70.212 795.113 Q61.8093 795.113 56.6531 791.071 Q51.4968 786.997 51.4968 780.536 Q51.4968 776.589 53.0564 773.788 Q54.5842 770.955 57.7671 769.109 L52.3562 769.109 L52.3562 763.253 L101.563 763.253 L101.563 769.109 L82.657 769.109 Z" fill="#000000" fill-rule="evenodd" fill-opacity="1" /><path clip-path="url(#clip350)" d="M 0 0 M73.9359 757.715 L52.3562 757.715 L52.3562 751.858 L73.7131 751.858 Q78.7739 751.858 81.3202 749.885 Q83.8346 747.912 83.8346 743.965 Q83.8346 739.222 80.8109 736.485 Q77.7872 733.716 72.5673 733.716 L52.3562 733.716 L52.3562 727.86 L88.0042 727.86 L88.0042 733.716 L82.5296 733.716 Q85.7762 735.849 87.3676 738.681 Q88.9272 741.482 88.9272 745.206 Q88.9272 751.349 85.1078 754.532 Q81.2883 757.715 73.9359 757.715 M51.4968 742.978 L51.4968 742.978 Z" fill="#000000" fill-rule="evenodd" fill-opacity="1" /><path clip-path="url(#clip350)" d="M 0 0 M68.7161 691.225 L71.5806 691.225 L71.5806 718.152 Q77.6281 717.77 80.8109 714.523 Q83.9619 711.245 83.9619 705.42 Q83.9619 702.047 83.1344 698.896 Q82.3069 695.713 80.6518 692.594 L86.1899 692.594 Q87.5267 695.745 88.227 699.055 Q88.9272 702.365 88.9272 705.771 Q88.9272 714.301 83.9619 719.298 Q78.9967 724.263 70.5303 724.263 Q61.7774 724.263 56.6531 719.552 Q51.4968 714.81 51.4968 706.789 Q51.4968 699.596 56.1438 695.426 Q60.7589 691.225 68.7161 691.225 M66.9973 697.081 Q62.1912 697.145 59.3266 699.787 Q56.4621 702.397 56.4621 706.725 Q56.4621 711.627 59.2312 714.587 Q62.0002 717.515 67.0292 717.961 L66.9973 697.081 Z" fill="#000000" fill-rule="evenodd" fill-opacity="1" /><path clip-path="url(#clip350)" d="M 0 0 M66.4881 655.45 L88.0042 655.45 L88.0042 661.306 L66.679 661.306 Q61.6183 661.306 59.1038 663.279 Q56.5894 665.253 56.5894 669.2 Q56.5894 673.942 59.6131 676.679 Q62.6368 679.417 67.8567 679.417 L88.0042 679.417 L88.0042 685.305 L52.3562 685.305 L52.3562 679.417 L57.8944 679.417 Q54.6797 677.316 53.0883 674.483 Q51.4968 671.619 51.4968 667.895 Q51.4968 661.752 55.3163 658.601 Q59.1038 655.45 66.4881 655.45 Z" fill="#000000" fill-rule="evenodd" fill-opacity="1" /><path clip-path="url(#clip350)" d="M 0 0 M53.7248 623.653 L59.1993 623.653 Q57.8307 626.136 57.1623 628.65 Q56.4621 631.133 56.4621 633.679 Q56.4621 639.376 60.0905 642.527 Q63.6872 645.678 70.212 645.678 Q76.7369 645.678 80.3653 642.527 Q83.9619 639.376 83.9619 633.679 Q83.9619 631.133 83.2935 628.65 Q82.5933 626.136 81.2247 623.653 L86.6355 623.653 Q87.7814 626.104 88.3543 628.746 Q88.9272 631.355 88.9272 634.316 Q88.9272 642.368 83.8664 647.111 Q78.8057 651.853 70.212 651.853 Q61.491 651.853 56.4939 647.079 Q51.4968 642.273 51.4968 633.934 Q51.4968 631.228 52.0697 628.65 Q52.6108 626.072 53.7248 623.653 Z" fill="#000000" fill-rule="evenodd" fill-opacity="1" /><path clip-path="url(#clip350)" d="M 0 0 M91.3143 602.678 Q97.68 605.161 99.6216 607.516 Q101.563 609.871 101.563 613.818 L101.563 618.497 L96.6615 618.497 L96.6615 615.059 Q96.6615 612.64 95.5157 611.303 Q94.3699 609.967 90.1048 608.343 L87.4312 607.293 L52.3562 621.711 L52.3562 615.505 L80.238 604.365 L52.3562 593.225 L52.3562 587.018 L91.3143 602.678 Z" fill="#000000" fill-rule="evenodd" fill-opacity="1" /><path clip-path="url(#clip352)" d="
M341.904 1371.99 L341.904 1384.24 L393.088 1384.24 L393.088 1371.99 L341.904 1371.99 L341.904 1371.99  Z
  " fill="#009af9" fill-rule="evenodd" fill-opacity="1"/>
<polyline clip-path="url(#clip352)" style="stroke:#000000; stroke-width:4; stroke-opacity:1; fill:none" points="
  341.904,1371.99 341.904,1384.24 393.088,1384.24 393.088,1371.99 341.904,1371.99 
  "/>
<path clip-path="url(#clip352)" d="
M393.088 1384.24 L393.088 1384.24 L444.272 1384.24 L444.272 1384.24 L393.088 1384.24 L393.088 1384.24  Z
  " fill="#009af9" fill-rule="evenodd" fill-opacity="1"/>
<polyline clip-path="url(#clip352)" style="stroke:#000000; stroke-width:4; stroke-opacity:1; fill:none" points="
  393.088,1384.24 393.088,1384.24 444.272,1384.24 393.088,1384.24 
  "/>
<path clip-path="url(#clip352)" d="
M444.272 1384.24 L444.272 1384.24 L495.456 1384.24 L495.456 1384.24 L444.272 1384.24 L444.272 1384.24  Z
  " fill="#009af9" fill-rule="evenodd" fill-opacity="1"/>
<polyline clip-path="url(#clip352)" style="stroke:#000000; stroke-width:4; stroke-opacity:1; fill:none" points="
  444.272,1384.24 444.272,1384.24 495.456,1384.24 444.272,1384.24 
  "/>
<path clip-path="url(#clip352)" d="
M495.456 1384.24 L495.456 1384.24 L546.641 1384.24 L546.641 1384.24 L495.456 1384.24 L495.456 1384.24  Z
  " fill="#009af9" fill-rule="evenodd" fill-opacity="1"/>
<polyline clip-path="url(#clip352)" style="stroke:#000000; stroke-width:4; stroke-opacity:1; fill:none" points="
  495.456,1384.24 495.456,1384.24 546.641,1384.24 495.456,1384.24 
  "/>
<path clip-path="url(#clip352)" d="
M546.641 1384.24 L546.641 1384.24 L597.825 1384.24 L597.825 1384.24 L546.641 1384.24 L546.641 1384.24  Z
  " fill="#009af9" fill-rule="evenodd" fill-opacity="1"/>
<polyline clip-path="url(#clip352)" style="stroke:#000000; stroke-width:4; stroke-opacity:1; fill:none" points="
  546.641,1384.24 546.641,1384.24 597.825,1384.24 546.641,1384.24 
  "/>
<path clip-path="url(#clip352)" d="
M597.825 1384.24 L597.825 1384.24 L649.009 1384.24 L649.009 1384.24 L597.825 1384.24 L597.825 1384.24  Z
  " fill="#009af9" fill-rule="evenodd" fill-opacity="1"/>
<polyline clip-path="url(#clip352)" style="stroke:#000000; stroke-width:4; stroke-opacity:1; fill:none" points="
  597.825,1384.24 597.825,1384.24 649.009,1384.24 597.825,1384.24 
  "/>
<path clip-path="url(#clip352)" d="
M649.009 1384.24 L649.009 1384.24 L700.193 1384.24 L700.193 1384.24 L649.009 1384.24 L649.009 1384.24  Z
  " fill="#009af9" fill-rule="evenodd" fill-opacity="1"/>
<polyline clip-path="url(#clip352)" style="stroke:#000000; stroke-width:4; stroke-opacity:1; fill:none" points="
  649.009,1384.24 649.009,1384.24 700.193,1384.24 649.009,1384.24 
  "/>
<path clip-path="url(#clip352)" d="
M700.193 1384.24 L700.193 1384.24 L751.377 1384.24 L751.377 1384.24 L700.193 1384.24 L700.193 1384.24  Z
  " fill="#009af9" fill-rule="evenodd" fill-opacity="1"/>
<polyline clip-path="url(#clip352)" style="stroke:#000000; stroke-width:4; stroke-opacity:1; fill:none" points="
  700.193,1384.24 700.193,1384.24 751.377,1384.24 700.193,1384.24 
  "/>
<path clip-path="url(#clip352)" d="
M751.377 1384.24 L751.377 1384.24 L802.561 1384.24 L802.561 1384.24 L751.377 1384.24 L751.377 1384.24  Z
  " fill="#009af9" fill-rule="evenodd" fill-opacity="1"/>
<polyline clip-path="url(#clip352)" style="stroke:#000000; stroke-width:4; stroke-opacity:1; fill:none" points="
  751.377,1384.24 751.377,1384.24 802.561,1384.24 751.377,1384.24 
  "/>
<path clip-path="url(#clip352)" d="
M802.561 1384.24 L802.561 1384.24 L853.746 1384.24 L853.746 1384.24 L802.561 1384.24 L802.561 1384.24  Z
  " fill="#009af9" fill-rule="evenodd" fill-opacity="1"/>
<polyline clip-path="url(#clip352)" style="stroke:#000000; stroke-width:4; stroke-opacity:1; fill:none" points="
  802.561,1384.24 802.561,1384.24 853.746,1384.24 802.561,1384.24 
  "/>
<path clip-path="url(#clip352)" d="
M853.746 1384.24 L853.746 1384.24 L904.93 1384.24 L904.93 1384.24 L853.746 1384.24 L853.746 1384.24  Z
  " fill="#009af9" fill-rule="evenodd" fill-opacity="1"/>
<polyline clip-path="url(#clip352)" style="stroke:#000000; stroke-width:4; stroke-opacity:1; fill:none" points="
  853.746,1384.24 853.746,1384.24 904.93,1384.24 853.746,1384.24 
  "/>
<path clip-path="url(#clip352)" d="
M904.93 1384.24 L904.93 1384.24 L956.114 1384.24 L956.114 1384.24 L904.93 1384.24 L904.93 1384.24  Z
  " fill="#009af9" fill-rule="evenodd" fill-opacity="1"/>
<polyline clip-path="url(#clip352)" style="stroke:#000000; stroke-width:4; stroke-opacity:1; fill:none" points="
  904.93,1384.24 904.93,1384.24 956.114,1384.24 904.93,1384.24 
  "/>
<path clip-path="url(#clip352)" d="
M956.114 1359.75 L956.114 1384.24 L1007.3 1384.24 L1007.3 1359.75 L956.114 1359.75 L956.114 1359.75  Z
  " fill="#009af9" fill-rule="evenodd" fill-opacity="1"/>
<polyline clip-path="url(#clip352)" style="stroke:#000000; stroke-width:4; stroke-opacity:1; fill:none" points="
  956.114,1359.75 956.114,1384.24 1007.3,1384.24 1007.3,1359.75 956.114,1359.75 
  "/>
<path clip-path="url(#clip352)" d="
M1007.3 1310.76 L1007.3 1384.24 L1058.48 1384.24 L1058.48 1310.76 L1007.3 1310.76 L1007.3 1310.76  Z
  " fill="#009af9" fill-rule="evenodd" fill-opacity="1"/>
<polyline clip-path="url(#clip352)" style="stroke:#000000; stroke-width:4; stroke-opacity:1; fill:none" points="
  1007.3,1310.76 1007.3,1384.24 1058.48,1384.24 1058.48,1310.76 1007.3,1310.76 
  "/>
<path clip-path="url(#clip352)" d="
M1058.48 1151.57 L1058.48 1384.24 L1109.67 1384.24 L1109.67 1151.57 L1058.48 1151.57 L1058.48 1151.57  Z
  " fill="#009af9" fill-rule="evenodd" fill-opacity="1"/>
<polyline clip-path="url(#clip352)" style="stroke:#000000; stroke-width:4; stroke-opacity:1; fill:none" points="
  1058.48,1151.57 1058.48,1384.24 1109.67,1384.24 1109.67,1151.57 1058.48,1151.57 
  "/>
<path clip-path="url(#clip352)" d="
M1109.67 1176.06 L1109.67 1384.24 L1160.85 1384.24 L1160.85 1176.06 L1109.67 1176.06 L1109.67 1176.06  Z
  " fill="#009af9" fill-rule="evenodd" fill-opacity="1"/>
<polyline clip-path="url(#clip352)" style="stroke:#000000; stroke-width:4; stroke-opacity:1; fill:none" points="
  1109.67,1176.06 1109.67,1384.24 1160.85,1384.24 1160.85,1176.06 1109.67,1176.06 
  "/>
<path clip-path="url(#clip352)" d="
M1160.85 1004.62 L1160.85 1384.24 L1212.03 1384.24 L1212.03 1004.62 L1160.85 1004.62 L1160.85 1004.62  Z
  " fill="#009af9" fill-rule="evenodd" fill-opacity="1"/>
<polyline clip-path="url(#clip352)" style="stroke:#000000; stroke-width:4; stroke-opacity:1; fill:none" points="
  1160.85,1004.62 1160.85,1384.24 1212.03,1384.24 1212.03,1004.62 1160.85,1004.62 
  "/>
<path clip-path="url(#clip352)" d="
M1212.03 918.899 L1212.03 1384.24 L1263.22 1384.24 L1263.22 918.899 L1212.03 918.899 L1212.03 918.899  Z
  " fill="#009af9" fill-rule="evenodd" fill-opacity="1"/>
<polyline clip-path="url(#clip352)" style="stroke:#000000; stroke-width:4; stroke-opacity:1; fill:none" points="
  1212.03,918.899 1212.03,1384.24 1263.22,1384.24 1263.22,918.899 1212.03,918.899 
  "/>
<path clip-path="url(#clip352)" d="
M1263.22 735.212 L1263.22 1384.24 L1314.4 1384.24 L1314.4 735.212 L1263.22 735.212 L1263.22 735.212  Z
  " fill="#009af9" fill-rule="evenodd" fill-opacity="1"/>
<polyline clip-path="url(#clip352)" style="stroke:#000000; stroke-width:4; stroke-opacity:1; fill:none" points="
  1263.22,735.212 1263.22,1384.24 1314.4,1384.24 1314.4,735.212 1263.22,735.212 
  "/>
<path clip-path="url(#clip352)" d="
M1314.4 649.492 L1314.4 1384.24 L1365.59 1384.24 L1365.59 649.492 L1314.4 649.492 L1314.4 649.492  Z
  " fill="#009af9" fill-rule="evenodd" fill-opacity="1"/>
<polyline clip-path="url(#clip352)" style="stroke:#000000; stroke-width:4; stroke-opacity:1; fill:none" points="
  1314.4,649.492 1314.4,1384.24 1365.59,1384.24 1365.59,649.492 1314.4,649.492 
  "/>
<path clip-path="url(#clip352)" d="
M1365.59 392.33 L1365.59 1384.24 L1416.77 1384.24 L1416.77 392.33 L1365.59 392.33 L1365.59 392.33  Z
  " fill="#009af9" fill-rule="evenodd" fill-opacity="1"/>
<polyline clip-path="url(#clip352)" style="stroke:#000000; stroke-width:4; stroke-opacity:1; fill:none" points="
  1365.59,392.33 1365.59,1384.24 1416.77,1384.24 1416.77,392.33 1365.59,392.33 
  "/>
<path clip-path="url(#clip352)" d="
M1416.77 86.1857 L1416.77 1384.24 L1467.96 1384.24 L1467.96 86.1857 L1416.77 86.1857 L1416.77 86.1857  Z
  " fill="#009af9" fill-rule="evenodd" fill-opacity="1"/>
<polyline clip-path="url(#clip352)" style="stroke:#000000; stroke-width:4; stroke-opacity:1; fill:none" points="
  1416.77,86.1857 1416.77,1384.24 1467.96,1384.24 1467.96,86.1857 1416.77,86.1857 
  "/>
<path clip-path="url(#clip352)" d="
M1467.96 404.576 L1467.96 1384.24 L1519.14 1384.24 L1519.14 404.576 L1467.96 404.576 L1467.96 404.576  Z
  " fill="#009af9" fill-rule="evenodd" fill-opacity="1"/>
<polyline clip-path="url(#clip352)" style="stroke:#000000; stroke-width:4; stroke-opacity:1; fill:none" points="
  1467.96,404.576 1467.96,1384.24 1519.14,1384.24 1519.14,404.576 1467.96,404.576 
  "/>
<path clip-path="url(#clip352)" d="
M1519.14 196.398 L1519.14 1384.24 L1570.32 1384.24 L1570.32 196.398 L1519.14 196.398 L1519.14 196.398  Z
  " fill="#009af9" fill-rule="evenodd" fill-opacity="1"/>
<polyline clip-path="url(#clip352)" style="stroke:#000000; stroke-width:4; stroke-opacity:1; fill:none" points="
  1519.14,196.398 1519.14,1384.24 1570.32,1384.24 1570.32,196.398 1519.14,196.398 
  "/>
<path clip-path="url(#clip352)" d="
M1570.32 208.643 L1570.32 1384.24 L1621.51 1384.24 L1621.51 208.643 L1570.32 208.643 L1570.32 208.643  Z
  " fill="#009af9" fill-rule="evenodd" fill-opacity="1"/>
<polyline clip-path="url(#clip352)" style="stroke:#000000; stroke-width:4; stroke-opacity:1; fill:none" points="
  1570.32,208.643 1570.32,1384.24 1621.51,1384.24 1621.51,208.643 1570.32,208.643 
  "/>
<path clip-path="url(#clip352)" d="
M1621.51 490.296 L1621.51 1384.24 L1672.69 1384.24 L1672.69 490.296 L1621.51 490.296 L1621.51 490.296  Z
  " fill="#009af9" fill-rule="evenodd" fill-opacity="1"/>
<polyline clip-path="url(#clip352)" style="stroke:#000000; stroke-width:4; stroke-opacity:1; fill:none" points="
  1621.51,490.296 1621.51,1384.24 1672.69,1384.24 1672.69,490.296 1621.51,490.296 
  "/>
<path clip-path="url(#clip352)" d="
M1672.69 588.263 L1672.69 1384.24 L1723.88 1384.24 L1723.88 588.263 L1672.69 588.263 L1672.69 588.263  Z
  " fill="#009af9" fill-rule="evenodd" fill-opacity="1"/>
<polyline clip-path="url(#clip352)" style="stroke:#000000; stroke-width:4; stroke-opacity:1; fill:none" points="
  1672.69,588.263 1672.69,1384.24 1723.88,1384.24 1723.88,588.263 1672.69,588.263 
  "/>
<path clip-path="url(#clip352)" d="
M1723.88 771.949 L1723.88 1384.24 L1775.06 1384.24 L1775.06 771.949 L1723.88 771.949 L1723.88 771.949  Z
  " fill="#009af9" fill-rule="evenodd" fill-opacity="1"/>
<polyline clip-path="url(#clip352)" style="stroke:#000000; stroke-width:4; stroke-opacity:1; fill:none" points="
  1723.88,771.949 1723.88,1384.24 1775.06,1384.24 1775.06,771.949 1723.88,771.949 
  "/>
<path clip-path="url(#clip352)" d="
M1775.06 1004.62 L1775.06 1384.24 L1826.24 1384.24 L1826.24 1004.62 L1775.06 1004.62 L1775.06 1004.62  Z
  " fill="#009af9" fill-rule="evenodd" fill-opacity="1"/>
<polyline clip-path="url(#clip352)" style="stroke:#000000; stroke-width:4; stroke-opacity:1; fill:none" points="
  1775.06,1004.62 1775.06,1384.24 1826.24,1384.24 1826.24,1004.62 1775.06,1004.62 
  "/>
<path clip-path="url(#clip352)" d="
M1826.24 955.636 L1826.24 1384.24 L1877.43 1384.24 L1877.43 955.636 L1826.24 955.636 L1826.24 955.636  Z
  " fill="#009af9" fill-rule="evenodd" fill-opacity="1"/>
<polyline clip-path="url(#clip352)" style="stroke:#000000; stroke-width:4; stroke-opacity:1; fill:none" points="
  1826.24,955.636 1826.24,1384.24 1877.43,1384.24 1877.43,955.636 1826.24,955.636 
  "/>
<path clip-path="url(#clip352)" d="
M1877.43 1151.57 L1877.43 1384.24 L1928.61 1384.24 L1928.61 1151.57 L1877.43 1151.57 L1877.43 1151.57  Z
  " fill="#009af9" fill-rule="evenodd" fill-opacity="1"/>
<polyline clip-path="url(#clip352)" style="stroke:#000000; stroke-width:4; stroke-opacity:1; fill:none" points="
  1877.43,1151.57 1877.43,1384.24 1928.61,1384.24 1928.61,1151.57 1877.43,1151.57 
  "/>
<path clip-path="url(#clip352)" d="
M1928.61 1200.55 L1928.61 1384.24 L1979.8 1384.24 L1979.8 1200.55 L1928.61 1200.55 L1928.61 1200.55  Z
  " fill="#009af9" fill-rule="evenodd" fill-opacity="1"/>
<polyline clip-path="url(#clip352)" style="stroke:#000000; stroke-width:4; stroke-opacity:1; fill:none" points="
  1928.61,1200.55 1928.61,1384.24 1979.8,1384.24 1979.8,1200.55 1928.61,1200.55 
  "/>
<path clip-path="url(#clip352)" d="
M1979.8 1200.55 L1979.8 1384.24 L2030.98 1384.24 L2030.98 1200.55 L1979.8 1200.55 L1979.8 1200.55  Z
  " fill="#009af9" fill-rule="evenodd" fill-opacity="1"/>
<polyline clip-path="url(#clip352)" style="stroke:#000000; stroke-width:4; stroke-opacity:1; fill:none" points="
  1979.8,1200.55 1979.8,1384.24 2030.98,1384.24 2030.98,1200.55 1979.8,1200.55 
  "/>
<path clip-path="url(#clip352)" d="
M2030.98 1323.01 L2030.98 1384.24 L2082.17 1384.24 L2082.17 1323.01 L2030.98 1323.01 L2030.98 1323.01  Z
  " fill="#009af9" fill-rule="evenodd" fill-opacity="1"/>
<polyline clip-path="url(#clip352)" style="stroke:#000000; stroke-width:4; stroke-opacity:1; fill:none" points="
  2030.98,1323.01 2030.98,1384.24 2082.17,1384.24 2082.17,1323.01 2030.98,1323.01 
  "/>
<path clip-path="url(#clip352)" d="
M2082.17 1335.26 L2082.17 1384.24 L2133.35 1384.24 L2133.35 1335.26 L2082.17 1335.26 L2082.17 1335.26  Z
  " fill="#009af9" fill-rule="evenodd" fill-opacity="1"/>
<polyline clip-path="url(#clip352)" style="stroke:#000000; stroke-width:4; stroke-opacity:1; fill:none" points="
  2082.17,1335.26 2082.17,1384.24 2133.35,1384.24 2133.35,1335.26 2082.17,1335.26 
  "/>
<path clip-path="url(#clip352)" d="
M2133.35 1384.24 L2133.35 1384.24 L2184.53 1384.24 L2184.53 1384.24 L2133.35 1384.24 L2133.35 1384.24  Z
  " fill="#009af9" fill-rule="evenodd" fill-opacity="1"/>
<polyline clip-path="url(#clip352)" style="stroke:#000000; stroke-width:4; stroke-opacity:1; fill:none" points="
  2133.35,1384.24 2133.35,1384.24 2184.53,1384.24 2133.35,1384.24 
  "/>
<path clip-path="url(#clip352)" d="
M2184.53 1371.99 L2184.53 1384.24 L2235.72 1384.24 L2235.72 1371.99 L2184.53 1371.99 L2184.53 1371.99  Z
  " fill="#009af9" fill-rule="evenodd" fill-opacity="1"/>
<polyline clip-path="url(#clip352)" style="stroke:#000000; stroke-width:4; stroke-opacity:1; fill:none" points="
  2184.53,1371.99 2184.53,1384.24 2235.72,1384.24 2235.72,1371.99 2184.53,1371.99 
  "/>
<path clip-path="url(#clip350)" d="
M2022.2 214.069 L2281.83 214.069 L2281.83 93.1086 L2022.2 93.1086  Z
  " fill="#ffffff" fill-rule="evenodd" fill-opacity="1"/>
<polyline clip-path="url(#clip350)" style="stroke:#000000; stroke-width:4; stroke-opacity:1; fill:none" points="
  2022.2,214.069 2281.83,214.069 2281.83,93.1086 2022.2,93.1086 2022.2,214.069 
  "/>
<path clip-path="url(#clip350)" d="
M2045.84 177.781 L2187.7 177.781 L2187.7 129.397 L2045.84 129.397 L2045.84 177.781  Z
  " fill="#009af9" fill-rule="evenodd" fill-opacity="1"/>
<polyline clip-path="url(#clip350)" style="stroke:#000000; stroke-width:4; stroke-opacity:1; fill:none" points="
  2045.84,177.781 2187.7,177.781 2187.7,129.397 2045.84,129.397 2045.84,177.781 
  "/>
<path clip-path="url(#clip350)" d="M 0 0 M2215.63 166.98 L2215.63 180.73 L2211.35 180.73 L2211.35 144.943 L2215.63 144.943 L2215.63 148.878 Q2216.97 146.563 2219.01 145.452 Q2221.07 144.318 2223.91 144.318 Q2228.64 144.318 2231.58 148.068 Q2234.54 151.818 2234.54 157.929 Q2234.54 164.04 2231.58 167.79 Q2228.64 171.54 2223.91 171.54 Q2221.07 171.54 2219.01 170.429 Q2216.97 169.295 2215.63 166.98 M2230.12 157.929 Q2230.12 153.23 2228.17 150.568 Q2226.25 147.883 2222.87 147.883 Q2219.49 147.883 2217.55 150.568 Q2215.63 153.23 2215.63 157.929 Q2215.63 162.628 2217.55 165.313 Q2219.49 167.975 2222.87 167.975 Q2226.25 167.975 2228.17 165.313 Q2230.12 162.628 2230.12 157.929 Z" fill="#000000" fill-rule="evenodd" fill-opacity="1" /></svg>
