<svg height="597.527" viewBox="0 0 171.184 448.145" width="228.245" xmlns="http://www.w3.org/2000/svg" xmlns:xlink="http://www.w3.org/1999/xlink"><symbol id="a" overflow="visible"><path d="m2.703125.03125v-.296875l-.453125-.03125c-.34375-.015625-.375-.09375-.375-.71875v-3.625l-.09375-.03125c-.5.203125-1.03125.34375-1.546875.40625v.28125h.359375c.40625 0 .4375.0625.4375.71875v2.25c0 .625-.03125.703125-.359375.71875l-.46875.03125v.296875c.421875-.015625.828125-.03125 1.25-.03125s.828125.015625 1.25.03125zm-.75-5.9375c0-.28125-.203125-.5-.484375-.5-.3125 0-.515625.203125-.515625.5s.203125.5.5.5.5-.203125.5-.5zm0 0"/></symbol><symbol id="b" overflow="visible"><path d="m5.703125.03125v-.296875l-.40625-.03125c-.34375-.015625-.375-.078125-.375-.71875v-1.921875c0-1.171875-.546875-1.734375-1.65625-1.734375-.375 0-.578125.0625-.796875.25l-.75.65625v-.875l-.09375-.03125c-.515625.203125-1.03125.34375-1.5625.40625v.28125h.375c.40625 0 .4375.0625.4375.71875v2.25c0 .625-.03125.703125-.359375.71875l-.453125.03125v.296875c.40625-.015625.828125-.03125 1.234375-.03125s.828125.015625 1.234375.03125v-.296875l-.453125-.03125c-.328125-.015625-.359375-.09375-.359375-.71875v-2.109375c0-.453125.65625-.9375 1.265625-.9375.671875 0 1.109375.5 1.109375 1.265625v2.828125c.25-.015625.515625-.03125.78125-.03125.28125 0 .546875.015625.828125.03125zm0 0"/></symbol><symbol id="c" overflow="visible"><path d="m5.515625-2.703125c0-1.109375-.90625-1.96875-2.0625-1.96875-.375 0-.734375.09375-.890625.25l-.8125.75v-.96875l-.09375-.03125c-.515625.203125-1.03125.34375-1.5625.40625v.28125h.375c.40625 0 .4375.0625.4375.71875v5.015625c0 .625-.03125.703125-.375.71875l-.453125.03125v.296875c.421875-.015625.828125-.03125 1.25-.03125s.828125.015625 1.25.03125v-.296875l-.46875-.03125c-.328125-.015625-.359375-.09375-.359375-.71875v-1.875c.296875.171875.609375.25 1.0625.25.28125 0 .546875-.0625.703125-.171875l1.140625-.734375c.390625-.25.859375-1.28125.859375-1.921875zm-.859375.375c0 1.109375-.671875 1.9375-1.5625 1.9375-.546875 0-.953125-.171875-1.34375-.59375v-2.0625c0-.140625.046875-.25.171875-.421875.296875-.375.703125-.5625 1.203125-.5625.9375 0 1.53125.65625 1.53125 1.703125zm0 0"/></symbol><symbol id="d" overflow="visible"><path d="m5.796875.03125v-.296875l-.40625-.03125c-.34375-.015625-.375-.078125-.375-.71875v-3.625l-.09375-.03125c-.5.203125-1.03125.34375-1.546875.40625v.28125h.359375c.40625 0 .4375.0625.4375.71875v1.625c0 .21875-.140625.5-.359375.734375-.28125.28125-.609375.421875-.984375.421875-.359375 0-.640625-.109375-.796875-.296875-.140625-.171875-.203125-.46875-.203125-.90625v-2.953125l-.09375-.03125c-.515625.203125-1.03125.34375-1.5625.40625v.28125h.375c.40625 0 .4375.0625.4375.71875v1.6875c0 .6875.0625 1 .234375 1.25.234375.296875.609375.453125 1.171875.453125.453125 0 .84375-.140625 1.125-.390625l.65625-.625c0 .296875 0 .453125-.03125.921875.28125-.015625.546875-.03125.828125-.03125s.546875.015625.828125.03125zm0 0"/></symbol><symbol id="e" overflow="visible"><path d="m3.1875-4.34375-1.375.0625v-.390625c0-.40625.03125-.765625.109375-1.40625l-.125-.109375c-.234375.140625-.53125.28125-.84375.375.03125.296875.046875.484375.046875.78125v.703125l-.78125.34375v.21875l.765625-.046875v2.875c0 .734375.328125 1.0625 1.09375 1.0625.21875 0 .46875-.0625.53125-.125l.46875-.53125-.125-.171875c-.25.140625-.40625.1875-.59375.1875-.390625 0-.546875-.1875-.546875-.6875v-2.609375h1.28125zm0 0"/></symbol><symbol id="f" overflow="visible"><path d="m7.53125.03125v-.296875l-.328125-.03125c-.265625-.015625-.375-.21875-.71875-1.015625l-2.421875-5.671875h-.3125s-.109375.34375-.484375 1.1875l-2.203125 5.015625c-.140625.28125-.328125.46875-.546875.484375l-.359375.03125v.296875c.359375-.015625.71875-.03125 1.078125-.03125.40625 0 .8125.015625 1.203125.03125v-.296875l-.359375-.03125c-.359375-.03125-.484375-.109375-.484375-.265625 0-.125.140625-.546875.34375-1.046875l.28125-.671875h2.875l.453125 1.140625c.171875.421875.21875.546875.21875.640625 0 .109375-.15625.1875-.40625.203125l-.46875.03125v.296875c.453125-.015625.921875-.03125 1.375-.03125.421875 0 .859375.015625 1.265625.03125zm-2.609375-2.71875h-2.53125l1.265625-2.96875zm0 0"/></symbol><symbol id="g" overflow="visible"><path d="m2.703125.03125v-.296875l-.453125-.03125c-.34375-.015625-.375-.09375-.375-.71875v-6.140625l-.09375-.078125c-.4375.171875-.765625.25-1.546875.359375v.28125h.546875c.1875 0 .25.109375.25.40625v5.171875c0 .625-.03125.703125-.359375.71875l-.46875.03125v.296875c.421875-.015625.828125-.03125 1.25-.03125s.828125.015625 1.25.03125zm0 0"/></symbol><symbol id="h" overflow="visible"><path d="m4.46875-2.78125c0-1.140625-.734375-1.890625-1.859375-1.890625-.359375 0-.796875.125-1.203125.359375-.8125.46875-1.140625 1.09375-1.140625 2.125 0 .625.140625 1.171875.40625 1.546875.390625.53125 1.078125.84375 1.828125.84375.359375 0 .734375-.078125 1.140625-.265625.265625-.109375.46875-.234375.515625-.296875l.203125-.34375-.125-.09375c-.640625.375-.875.46875-1.296875.46875-.65625 0-1.1875-.296875-1.46875-.78125-.1875-.328125-.265625-.609375-.28125-1.1875h1.453125c.6875 0 1.125-.03125 1.8125-.140625 0-.140625.015625-.21875.015625-.34375zm-.890625.125-1.109375.03125c-.46875 0-.71875-.015625-1.265625-.0625 0-.46875.046875-.6875.171875-.953125.203125-.4375.640625-.703125 1.125-.703125.328125 0 .578125.125.765625.390625.21875.328125.3125.625.3125 1.296875zm0 0"/></symbol><symbol id="i" overflow="visible"><path d="m4.9375.03125v-.296875l-.25-.03125c-.109375-.015625-.234375-.09375-.34375-.234375l-1.46875-2 1.40625-1.65625c.0625-.0625.171875-.109375.34375-.109375h.140625v-.28125h-.8125l-1.234375 1.75-.765625-1.15625c-.15625-.21875-.265625-.359375-.59375-.6875l-1.15625.203125.046875.25.203125.015625c.1875.03125.40625.15625.5.296875l1.203125 1.734375-1.484375 1.75c-.078125.09375-.203125.15625-.296875.15625h-.171875v.265625h.859375s.0625-.234375.59375-.9375l.734375-.96875 1.328125 1.9375c.203125-.015625.40625-.03125.609375-.03125s.40625.015625.609375.03125zm0 0"/></symbol><symbol id="j" overflow="visible"><path d="m8.109375-6.59375v-.296875c-.40625.015625-.796875.015625-1.203125.015625-.390625 0-.765625 0-1.15625-.015625v.296875l.4375.03125c.46875.015625.515625.109375.515625.890625v4.6875l-4.796875-5.90625s-.328125.015625-.546875.015625c-.46875 0-1.1875-.015625-1.1875-.015625v.296875l.4375.03125c.453125.015625.5.109375.5.890625v4.46875c0 .78125-.046875.875-.5.90625l-.4375.03125v.296875c.390625-.015625.765625-.03125 1.15625-.03125s.796875.015625 1.1875.03125v-.296875l-.4375-.03125c-.453125-.03125-.5-.125-.5-.90625v-4.609375l4.71875 5.859375.890625.15625c0-.109375-.03125-.265625-.03125-.375v-5.5c0-.78125.046875-.875.515625-.890625zm0 0"/></symbol><symbol id="k" overflow="visible"><path d="m5.125-2.359375c0-1.34375-.984375-2.3125-2.34375-2.3125-1.453125 0-2.46875 1.015625-2.46875 2.515625 0 1.40625.890625 2.359375 2.1875 2.359375 1.53125 0 2.625-1.078125 2.625-2.5625zm-.921875.359375c0 1.15625-.515625 1.875-1.328125 1.875-.96875 0-1.625-.96875-1.625-2.375 0-1.203125.46875-1.84375 1.359375-1.84375.90625 0 1.59375 1 1.59375 2.34375zm0 0"/></symbol><symbol id="l" overflow="visible"><path d="m5.765625.03125v-.296875l-.453125-.03125c-.34375-.015625-.375-.09375-.375-.71875v-6.140625l-.078125-.078125c-.4375.171875-.765625.25-1.5625.359375v.28125h.5625c.171875 0 .25.109375.25.40625v1.828125c-.5625-.234375-.84375-.3125-1.1875-.3125-.265625 0-.515625.0625-.765625.1875l-.875.453125c-.5625.296875-.9375 1.03125-.9375 1.875 0 .796875.28125 1.453125.765625 1.859375.34375.28125.796875.421875 1.453125.421875.203125 0 .421875-.046875.484375-.078125l1.09375-.9375-.046875.921875c.265625-.015625.515625-.03125.765625-.03125.296875 0 .609375.015625.90625.03125zm-1.65625-2.234375c0 .640625-.015625.75-.15625.984375-.28125.46875-.765625.765625-1.234375.765625-.875 0-1.5-.84375-1.5-2.03125 0-1.078125.53125-1.71875 1.4375-1.71875.375 0 .765625.125 1.125.359375.203125.140625.328125.28125.328125.359375zm0 0"/></symbol><symbol id="m" overflow="visible"><path d="m3.890625-1.46875c0-.3125-.078125-.546875-.265625-.75-.265625-.25-.59375-.359375-1.46875-.53125-.828125-.15625-1.09375-.359375-1.09375-.8125 0-.5.359375-.78125.96875-.78125.65625 0 1.171875.34375 1.171875.8125v.234375h.28125c0-.578125.015625-.8125.046875-1.125-.53125-.1875-.890625-.25-1.296875-.25-1.15625 0-1.859375.546875-1.859375 1.4375 0 .484375.21875.828125.671875 1.03125.265625.125.796875.28125 1.46875.421875.453125.109375.640625.3125.640625.6875 0 .546875-.5.921875-1.203125.921875-.734375 0-1.25-.34375-1.25-.84375v-.40625h-.296875c0 .6875-.03125.984375-.109375 1.375.515625.171875.90625.25 1.375.25 1.296875 0 2.21875-.703125 2.21875-1.671875zm0 0"/></symbol><symbol id="n" overflow="visible"><path d="m4.703125.03125v-.296875l-.46875-.03125c-.5-.03125-.609375-.15625-.609375-.765625v-.734375c.59375 0 .796875 0 1.078125.03125v-.703125s-.484375.03125-.8125.03125h-.265625v-1.390625c0-1.78125.03125-2.625.078125-3.046875l-.125-.046875-.734375.265625-2.828125 4.625.109375.234375h2.671875v.734375c0 .609375-.109375.75-.609375.765625l-.609375.03125v.296875c.53125-.015625 1.0625-.03125 1.609375-.03125.5 0 1.015625.015625 1.515625.03125zm-1.90625-2.46875h-2.15625l2.15625-3.515625zm0 0"/></symbol><symbol id="o" overflow="visible"><path d="m4.640625-3.65625c0-2.171875-.65625-3.21875-2.015625-3.21875-1.546875 0-2.328125 1.234375-2.328125 3.640625 0 1.171875.203125 2.171875.546875 2.671875.359375.484375.90625.765625 1.53125.765625 1.5 0 2.265625-1.296875 2.265625-3.859375zm-.84375.5c0 2.125-.375 3-1.296875 3-.96875 0-1.375-1-1.375-3.4375 0-2.09375.375-2.921875 1.3125-2.921875.96875 0 1.359375.96875 1.359375 3.359375zm0 0"/></symbol><symbol id="p" overflow="visible"><path d="m4.5625-4.15625c0-1.6875-.8125-2.71875-2.125-2.71875-1.28125 0-2.234375 1-2.234375 2.34375 0 1.140625.75 1.984375 1.78125 1.984375.34375 0 .734375-.109375.90625-.265625l.703125-.578125c-.078125 1.671875-1.171875 2.90625-2.96875 3.34375v.078125l.328125.171875c1.109375-.359375 1.59375-.59375 2.125-1.046875.96875-.828125 1.484375-1.984375 1.484375-3.3125zm-.875-.53125c0 .90625-.53125 1.53125-1.296875 1.53125-.796875 0-1.328125-.71875-1.328125-1.75 0-1 .515625-1.640625 1.328125-1.640625.453125 0 .78125.203125 1 .59375.171875.328125.296875.8125.296875 1.265625zm0 0"/></symbol><symbol id="q" overflow="visible"><path d="m4.671875-2.1875c0-1.140625-.6875-1.890625-1.75-1.890625-.59375 0-.953125.234375-1.609375.78125.203125-1.8125 1.046875-2.78125 2.828125-3.328125v-.078125l-.359375-.171875c-.953125.328125-1.375.53125-1.875.96875-1.03125.859375-1.59375 2.078125-1.59375 3.4375 0 1.65625.796875 2.671875 2.09375 2.671875s2.265625-1.03125 2.265625-2.390625zm-.859375.359375c0 1.03125-.515625 1.703125-1.28125 1.703125-.84375 0-1.3125-.734375-1.3125-2.0625 0-.359375.046875-.546875.15625-.71875.21875-.328125.6875-.578125 1.171875-.578125.75 0 1.265625.65625 1.265625 1.65625zm0 0"/></symbol><symbol id="r" overflow="visible"><path d="m4.171875.03125v-.296875l-.515625-.03125c-.5625-.03125-.65625-.140625-.65625-.65625v-5.921875l-.140625-.046875c-.640625.34375-1.359375.640625-2.265625.953125l.078125.4375h.09375l1.28125-.578125.03125-.015625c.0625 0 .078125.09375.078125.328125v4.84375c0 .515625-.109375.625-.640625.65625l-.5625.03125v.296875c.546875-.015625 1.09375-.03125 1.65625-.03125.515625 0 1.046875.015625 1.5625.03125zm0 0"/></symbol><symbol id="s" overflow="visible"><path d="m7.03125-6.59375v-.296875c-.359375.015625-.71875.015625-1.0625.015625-.359375 0-.71875 0-1.078125-.015625v.296875l.515625.03125c.359375.015625.390625.296875.25.640625l-1.8125 4.71875-1.96875-5.0625c-.046875-.140625.03125-.296875.296875-.296875l.5625-.03125v-.296875c-.4375.015625-.890625.015625-1.328125.015625s-.890625 0-1.328125-.015625v.296875l.359375.03125c.203125.015625.3125.109375.4375.40625l1.875 4.59375c.3125.765625.4375 1.109375.578125 1.65625h.5c.1875-.625.3125-.953125.640625-1.75l1.734375-4.203125c.234375-.546875.359375-.6875.53125-.703125zm0 0"/></symbol><symbol id="t" overflow="visible"><path d="m7.25-2.453125-.03125-.25c-.40625.015625-.8125.03125-1.234375.03125-.40625 0-.796875-.015625-1.203125-.03125v.296875l.828125.078125c.25.015625.328125.109375.328125.34375v1c0 .25-.015625.359375-.0625.4375-.109375.1875-.703125.328125-1.359375.328125-1.96875 0-3.234375-1.3125-3.234375-3.390625 0-1.921875 1.078125-3.046875 2.953125-3.046875.515625 0 .953125.0625 1.328125.1875.578125.1875.828125.421875.828125.796875v.53125h.3125c0-.515625.0625-.984375.1875-1.515625-1.09375-.328125-1.609375-.40625-2.40625-.40625-2.578125 0-4.265625 1.453125-4.265625 3.65625 0 1.015625.34375 1.90625.96875 2.515625.703125.6875 1.765625 1.09375 2.921875 1.09375.703125 0 1.390625-.140625 2.75-.515625v-1.671875c0-.3125.015625-.328125.109375-.375zm0 0"/></symbol><symbol id="u" overflow="visible"><path d="m.953125.203125c1.109375-.359375 1.59375-.59375 2.125-1.046875.96875-.828125 1.484375-1.984375 1.484375-3.3125 0-1.6875-.8125-2.71875-2.125-2.71875-1.28125 0-2.234375 1-2.234375 2.34375 0 1.140625.75 1.984375 1.78125 1.984375.34375 0 .734375-.109375.90625-.265625l.703125-.578125c-.078125 1.671875-1.171875 2.90625-2.96875 3.34375v.078125zm1.4375-6.75c.453125 0 .78125.203125 1 .59375.171875.328125.296875.8125.296875 1.265625 0 .90625-.53125 1.53125-1.296875 1.53125-.796875 0-1.328125-.71875-1.328125-1.75 0-1 .515625-1.640625 1.328125-1.640625zm0 0"/></symbol><symbol id="v" overflow="visible"><path d="m4.140625-6.703125-.359375-.171875c-.953125.328125-1.375.53125-1.875.96875-1.03125.859375-1.59375 2.078125-1.59375 3.4375 0 1.65625.796875 2.671875 2.09375 2.671875s2.265625-1.03125 2.265625-2.390625c0-1.140625-.6875-1.890625-1.75-1.890625-.5 0-.796875.125-1.390625.59375-.109375.09375-.109375.109375-.21875.1875.203125-1.8125 1.046875-2.78125 2.828125-3.328125zm-1.59375 3.21875c.75 0 1.265625.65625 1.265625 1.65625 0 1.03125-.515625 1.703125-1.28125 1.703125-.84375 0-1.3125-.734375-1.3125-2.0625 0-.359375.046875-.546875.15625-.71875.21875-.328125.6875-.578125 1.171875-.578125zm0 0"/></symbol><symbol id="w" overflow="visible"><path d="m.671875-5.53125h.09375l1.28125-.578125c.015625-.015625.03125-.015625.03125-.015625.0625 0 .078125.09375.078125.328125v4.84375c0 .515625-.109375.625-.640625.65625l-.5625.03125v.296875c1.546875-.03125 1.546875-.03125 1.65625-.03125.125 0 .34375 0 .6875.015625.109375 0 .46875 0 .875.015625v-.296875l-.515625-.03125c-.5625-.03125-.65625-.140625-.65625-.65625v-5.921875l-.140625-.046875c-.640625.34375-1.359375.640625-2.265625.953125zm0 0"/></symbol><symbol id="x" overflow="visible"><path d="m.15625-.234375v.265625c1.875-.03125 1.875-.03125 2.21875-.03125.359375 0 .359375 0 2.296875.03125-.03125-.203125-.03125-.3125-.03125-.453125 0-.125 0-.21875.03125-.453125-1.15625.0625-1.609375.0625-3.453125.109375l1.8125-1.921875c.96875-1.03125 1.265625-1.578125 1.265625-2.328125 0-1.140625-.78125-1.859375-2.046875-1.859375-.71875 0-1.203125.203125-1.6875.703125l-.171875 1.359375h.28125l.140625-.46875c.15625-.578125.515625-.8125 1.1875-.8125.84375 0 1.40625.53125 1.40625 1.375 0 .75-.421875 1.484375-1.546875 2.6875zm0 0"/></symbol><symbol id="y" overflow="visible"><path d="m1.265625-6.03125c1.28125.046875 1.84375.046875 3.046875.046875l.046875-.046875c-.015625-.171875-.015625-.265625-.015625-.390625 0-.140625 0-.21875.015625-.390625l-.046875-.0625c-.75.046875-1.203125.0625-1.734375.0625-.546875 0-1-.015625-1.734375-.0625l-.0625.0625c.015625.609375.03125 1.046875.03125 1.359375 0 .84375-.03125 1.796875-.0625 2.25l.203125.046875c.46875-.46875.734375-.609375 1.21875-.609375.953125 0 1.5625.6875 1.5625 1.765625 0 1.109375-.640625 1.75-1.734375 1.75-.53125 0-1.03125-.171875-1.171875-.4375l-.453125-.8125-.25.140625c.234375.5625.359375.875.5 1.3125.265625.15625.671875.25 1.09375.25.671875 0 1.375-.296875 1.9375-.765625.59375-.546875.921875-1.21875.921875-1.953125 0-1.140625-.8125-1.9375-1.953125-1.9375-.46875 0-.828125.140625-1.453125.5zm0 0"/></symbol><symbol id="z" overflow="visible"><path d="m.421875-4.96875h.3125l.1875-.546875c.109375-.34375.734375-.6875 1.25-.6875.65625 0 1.171875.53125 1.171875 1.15625 0 .75-.578125 1.375-1.296875 1.375-.078125 0-.1875 0-.3125-.015625l-.15625-.015625-.109375.53125.0625.0625c.375-.171875.578125-.21875.84375-.21875.828125 0 1.296875.53125 1.296875 1.4375 0 1.015625-.59375 1.6875-1.53125 1.6875-.453125 0-.859375-.15625-1.15625-.4375-.25-.21875-.375-.453125-.5625-.984375l-.265625.09375c.203125.609375.28125.96875.34375 1.46875.53125.1875.96875.265625 1.328125.265625.796875 0 1.71875-.453125 2.265625-1.125.34375-.40625.515625-.84375.515625-1.3125 0-.484375-.203125-.890625-.5625-1.140625-.25-.1875-.484375-.265625-.96875-.359375.796875-.609375 1.09375-1.078125 1.09375-1.65625 0-.890625-.75-1.484375-1.84375-1.484375-.6875 0-1.125.203125-1.609375.671875zm0 0"/></symbol><symbol id="A" overflow="visible"><path d="m1.671875-3.4375c-.40625.1875-.578125.296875-.796875.5-.375.390625-.578125.828125-.578125 1.359375 0 1.015625.828125 1.78125 1.953125 1.78125 1.296875 0 2.375-1.015625 2.375-2.25 0-.796875-.375-1.234375-1.5-1.75.90625-.625 1.21875-1.03125 1.21875-1.640625 0-.859375-.703125-1.4375-1.765625-1.4375-1.1875 0-2.046875.765625-2.046875 1.8125 0 .671875.265625 1.0625 1.140625 1.625zm1.15625.5c.625.28125 1.015625.765625 1.015625 1.296875 0 .84375-.640625 1.5-1.4375 1.5-.84375 0-1.40625-.59375-1.40625-1.53125 0-.71875.296875-1.171875 1.03125-1.625zm-.609375-1.28125c-.625-.3125-.9375-.703125-.9375-1.203125 0-.65625.46875-1.109375 1.1875-1.109375s1.203125.484375 1.203125 1.203125c0 .578125-.25.96875-.90625 1.375zm0 0"/></symbol><symbol id="B" overflow="visible"><path d="m2.796875-1.796875v.734375c0 .609375-.109375.75-.609375.765625l-.609375.03125v.296875c1.328125-.03125 1.328125-.03125 1.5625-.03125s.234375 0 1.5625.03125v-.296875l-.46875-.03125c-.5-.03125-.609375-.15625-.609375-.765625v-.734375c.59375 0 .796875 0 1.078125.03125v-.703125c-.46875.03125-.65625.03125-.8125.03125h-.265625v-1.390625c0-1.78125.03125-2.625.078125-3.046875l-.125-.046875-.734375.265625-2.828125 4.625.109375.234375zm0-.640625h-2.15625l2.15625-3.515625zm0 0"/></symbol><symbol id="C" overflow="visible"><path d="m4.03125-2.890625-2.078125-2.0625c-.109375-.125-.140625-.140625-.21875-.140625-.109375 0-.203125.09375-.203125.203125 0 .078125.015625.09375.125.21875l2.078125 2.078125-2.078125 2.078125c-.109375.125-.125.140625-.125.21875 0 .109375.09375.203125.203125.203125.078125 0 .109375-.015625.21875-.140625l2.078125-2.0625 2.140625 2.140625c.015625.015625.09375.0625.15625.0625.125 0 .203125-.09375.203125-.203125 0-.03125 0-.0625-.03125-.125 0-.015625-1.65625-1.640625-2.171875-2.171875l1.890625-1.90625c.0625-.046875.21875-.1875.265625-.25.015625-.015625.046875-.0625.046875-.140625 0-.109375-.078125-.203125-.203125-.203125-.078125 0-.125.046875-.234375.15625zm0 0"/></symbol><path d="m-34.0165-8.504625h68.03125v17.007813h-68.03125zm0 0" fill="#bfbfbf" stroke="#000" stroke-miterlimit="10" stroke-width=".399" transform="matrix(1 0 0 -1 37.204 416.511)"/><g><use x="25.333" xlink:href="#a" y="418.31"/><use x="28.232" xlink:href="#b" y="418.31"/></g><g><use x="33.831" xlink:href="#c" y="418.31"/><use x="39.819" xlink:href="#d" y="418.31"/><use x="45.826" xlink:href="#e" y="418.31"/></g><g><use x="18.897" xlink:href="#f" y="441.636"/><use x="26.648" xlink:href="#g" y="441.636"/><use x="29.547" xlink:href="#h" y="441.636"/><use x="34.319" xlink:href="#i" y="441.636"/><use x="39.46" xlink:href="#j" y="441.636"/></g><g><use x="47.49" xlink:href="#h" y="441.636"/><use x="52.262" xlink:href="#e" y="441.636"/></g><path d="m-34.0165 11.737563h68.03125v17.007812h-68.03125zm0 0" fill="#e1b68c" stroke="#674220" stroke-miterlimit="10" stroke-width=".399" transform="matrix(1 0 0 -1 37.204 416.511)"/><g><use x="10.067" xlink:href="#u" y="399.319"/><use x="15.048" xlink:href="#v" y="399.319"/></g><use x="22.091" xlink:href="#C" y="399.319"/><g><use x="32.222" xlink:href="#w" y="399.319"/><use x="37.203" xlink:href="#w" y="399.319"/></g><use x="44.247" xlink:href="#C" y="399.319"/><g><use x="54.378" xlink:href="#w" y="399.319"/><use x="59.359" xlink:href="#w" y="399.319"/></g><path d="m-34.0165 31.97975h68.03125v17.007813h-68.03125zm0 0" fill="#e1b68c" stroke="#674220" stroke-miterlimit="10" stroke-width=".399" transform="matrix(1 0 0 -1 37.204 416.511)"/><g><use x="12.558" xlink:href="#x" y="379.003"/><use x="17.539" xlink:href="#y" y="379.003"/><use x="22.521" xlink:href="#v" y="379.003"/></g><use x="29.563" xlink:href="#C" y="379.003"/><use x="39.694" xlink:href="#y" y="379.003"/><use x="46.737" xlink:href="#C" y="379.003"/><use x="56.869" xlink:href="#y" y="379.003"/><path d="m-34.0165 52.218031h68.03125v17.007813h-68.03125zm0 0" fill="#add8e5" stroke="#191970" stroke-miterlimit="10" stroke-width=".399" transform="matrix(1 0 0 -1 37.204 416.511)"/><g><use x="27.321" xlink:href="#c" y="358.005"/><use x="33.309" xlink:href="#k" y="358.005"/><use x="38.748" xlink:href="#k" y="358.005"/><use x="44.188" xlink:href="#g" y="358.005"/></g><path d="m-34.0165 72.460219h68.03125v17.007812h-68.03125zm0 0" fill="#e1b68c" stroke="#674220" stroke-miterlimit="10" stroke-width=".399" transform="matrix(1 0 0 -1 37.204 416.511)"/><g><use x="12.558" xlink:href="#z" y="338.596"/><use x="17.539" xlink:href="#A" y="338.596"/><use x="22.521" xlink:href="#B" y="338.596"/></g><use x="29.563" xlink:href="#C" y="338.596"/><use x="39.694" xlink:href="#z" y="338.596"/><use x="46.737" xlink:href="#C" y="338.596"/><use x="56.869" xlink:href="#z" y="338.596"/><path d="m-34.0165 92.702406h68.03125v17.007813h-68.03125zm0 0" fill="#add8e5" stroke="#191970" stroke-miterlimit="10" stroke-width=".399" transform="matrix(1 0 0 -1 37.204 416.511)"/><g><use x="27.321" xlink:href="#c" y="317.523"/><use x="33.309" xlink:href="#k" y="317.523"/><use x="38.748" xlink:href="#k" y="317.523"/><use x="44.188" xlink:href="#g" y="317.523"/></g><path d="m-34.0165 112.944594h68.03125v17.007812h-68.03125zm0 0" fill="#e1b68c" stroke="#674220" stroke-miterlimit="10" stroke-width=".399" transform="matrix(1 0 0 -1 37.204 416.511)"/><g><use x="12.558" xlink:href="#z" y="298.114"/><use x="17.539" xlink:href="#A" y="298.114"/><use x="22.521" xlink:href="#B" y="298.114"/></g><use x="29.563" xlink:href="#C" y="298.114"/><use x="39.694" xlink:href="#z" y="298.114"/><use x="46.737" xlink:href="#C" y="298.114"/><use x="56.869" xlink:href="#z" y="298.114"/><path d="m-34.0165 133.182875h68.03125v17.011719h-68.03125zm0 0" fill="#e1b68c" stroke="#674220" stroke-miterlimit="10" stroke-width=".399" transform="matrix(1 0 0 -1 37.204 416.511)"/><g><use x="12.558" xlink:href="#x" y="277.798"/><use x="17.539" xlink:href="#y" y="277.798"/><use x="22.521" xlink:href="#v" y="277.798"/></g><use x="29.563" xlink:href="#C" y="277.798"/><use x="39.694" xlink:href="#z" y="277.798"/><use x="46.737" xlink:href="#C" y="277.798"/><use x="56.869" xlink:href="#z" y="277.798"/><path d="m-34.0165 153.425063h68.03125v17.007812h-68.03125zm0 0" fill="#add8e5" stroke="#191970" stroke-miterlimit="10" stroke-width=".399" transform="matrix(1 0 0 -1 37.204 416.511)"/><g><use x="27.321" xlink:href="#c" y="256.8"/><use x="33.309" xlink:href="#k" y="256.8"/><use x="38.748" xlink:href="#k" y="256.8"/><use x="44.188" xlink:href="#g" y="256.8"/></g><path d="m-34.0165 173.66725h68.03125v17.007813h-68.03125zm0 0" fill="#7fb17f" stroke="#006400" stroke-miterlimit="10" stroke-width=".399" transform="matrix(1 0 0 -1 37.204 416.511)"/><g><use x="13.169" xlink:href="#l" y="237.859"/><use x="19.256" xlink:href="#h" y="237.859"/><use x="24.028" xlink:href="#b" y="237.859"/><use x="29.827" xlink:href="#m" y="237.859"/><use x="34.051" xlink:href="#h" y="237.859"/></g><g><use x="41.313" xlink:href="#n" y="237.859"/><use x="46.295" xlink:href="#o" y="237.859"/><use x="51.276" xlink:href="#p" y="237.859"/><use x="56.257" xlink:href="#q" y="237.859"/></g><path d="m-34.0165 193.909438h68.03125v17.007812h-68.03125zm0 0" fill="#7fb17f" stroke="#006400" stroke-miterlimit="10" stroke-width=".399" transform="matrix(1 0 0 -1 37.204 416.511)"/><g><use x="13.169" xlink:href="#l" y="217.618"/><use x="19.256" xlink:href="#h" y="217.618"/><use x="24.028" xlink:href="#b" y="217.618"/><use x="29.827" xlink:href="#m" y="217.618"/><use x="34.051" xlink:href="#h" y="217.618"/></g><g><use x="41.313" xlink:href="#n" y="217.618"/><use x="46.295" xlink:href="#o" y="217.618"/><use x="51.276" xlink:href="#p" y="217.618"/><use x="56.257" xlink:href="#q" y="217.618"/></g><path d="m-34.0165 214.147719h68.03125v17.011719h-68.03125zm0 0" fill="#7fb17f" stroke="#006400" stroke-miterlimit="10" stroke-width=".399" transform="matrix(1 0 0 -1 37.204 416.511)"/><g><use x="13.169" xlink:href="#l" y="197.377"/><use x="19.256" xlink:href="#h" y="197.377"/><use x="24.028" xlink:href="#b" y="197.377"/><use x="29.827" xlink:href="#m" y="197.377"/><use x="34.051" xlink:href="#h" y="197.377"/></g><g><use x="41.313" xlink:href="#r" y="197.377"/><use x="46.295" xlink:href="#o" y="197.377"/><use x="51.276" xlink:href="#o" y="197.377"/><use x="56.257" xlink:href="#o" y="197.377"/></g><path d="m62.760844-8.504625h68.03125v17.007813h-68.03125zm0 0" fill="#bfbfbf" stroke="#000" stroke-miterlimit="10" stroke-width=".399" transform="matrix(1 0 0 -1 37.204 416.511)"/><g><use x="122.11" xlink:href="#a" y="418.31"/><use x="125.009" xlink:href="#b" y="418.31"/></g><g><use x="130.608" xlink:href="#c" y="418.31"/><use x="136.596" xlink:href="#d" y="418.31"/><use x="142.603" xlink:href="#e" y="418.31"/></g><use x="118.15" xlink:href="#s" y="441.467"/><g><use x="124.646" xlink:href="#t" y="441.467"/><use x="132.247" xlink:href="#t" y="441.467"/><use x="139.849" xlink:href="#r" y="441.467"/><use x="144.83" xlink:href="#q" y="441.467"/></g><path d="m62.760844 11.737563h68.03125v17.007812h-68.03125zm0 0" fill="#e1b68c" stroke="#674220" stroke-miterlimit="10" stroke-width=".399" transform="matrix(1 0 0 -1 37.204 416.511)"/><g><use x="111.825" xlink:href="#v" y="399.319"/><use x="116.806" xlink:href="#B" y="399.319"/></g><use x="123.849" xlink:href="#C" y="399.319"/><use x="133.98" xlink:href="#z" y="399.319"/><use x="141.023" xlink:href="#C" y="399.319"/><use x="151.154" xlink:href="#z" y="399.319"/><path d="m62.760844 31.97975h68.03125v17.007813h-68.03125zm0 0" fill="#e1b68c" stroke="#674220" stroke-miterlimit="10" stroke-width=".399" transform="matrix(1 0 0 -1 37.204 416.511)"/><g><use x="111.825" xlink:href="#v" y="379.078"/><use x="116.806" xlink:href="#B" y="379.078"/></g><use x="123.849" xlink:href="#C" y="379.078"/><use x="133.98" xlink:href="#z" y="379.078"/><use x="141.023" xlink:href="#C" y="379.078"/><use x="151.154" xlink:href="#z" y="379.078"/><path d="m62.760844 52.218031h68.03125v17.007813h-68.03125zm0 0" fill="#add8e5" stroke="#191970" stroke-miterlimit="10" stroke-width=".399" transform="matrix(1 0 0 -1 37.204 416.511)"/><g><use x="124.097" xlink:href="#c" y="358.005"/><use x="130.085" xlink:href="#k" y="358.005"/><use x="135.524" xlink:href="#k" y="358.005"/><use x="140.964" xlink:href="#g" y="358.005"/></g><path d="m62.760844 72.460219h68.03125v17.007812h-68.03125zm0 0" fill="#e1b68c" stroke="#674220" stroke-miterlimit="10" stroke-width=".399" transform="matrix(1 0 0 -1 37.204 416.511)"/><g><use x="109.334" xlink:href="#w" y="338.596"/><use x="114.315" xlink:href="#x" y="338.596"/><use x="119.297" xlink:href="#A" y="338.596"/></g><use x="126.34" xlink:href="#C" y="338.596"/><use x="136.471" xlink:href="#z" y="338.596"/><use x="143.514" xlink:href="#C" y="338.596"/><use x="153.645" xlink:href="#z" y="338.596"/><path d="m62.760844 92.702406h68.03125v17.007813h-68.03125zm0 0" fill="#e1b68c" stroke="#674220" stroke-miterlimit="10" stroke-width=".399" transform="matrix(1 0 0 -1 37.204 416.511)"/><g><use x="109.334" xlink:href="#w" y="318.355"/><use x="114.315" xlink:href="#x" y="318.355"/><use x="119.297" xlink:href="#A" y="318.355"/></g><use x="126.34" xlink:href="#C" y="318.355"/><use x="136.471" xlink:href="#z" y="318.355"/><use x="143.514" xlink:href="#C" y="318.355"/><use x="153.645" xlink:href="#z" y="318.355"/><path d="m62.760844 112.944594h68.03125v17.007812h-68.03125zm0 0" fill="#add8e5" stroke="#191970" stroke-miterlimit="10" stroke-width=".399" transform="matrix(1 0 0 -1 37.204 416.511)"/><g><use x="124.097" xlink:href="#c" y="297.282"/><use x="130.085" xlink:href="#k" y="297.282"/><use x="135.524" xlink:href="#k" y="297.282"/><use x="140.964" xlink:href="#g" y="297.282"/></g><path d="m62.760844 133.182875h68.03125v17.011719h-68.03125zm0 0" fill="#e1b68c" stroke="#674220" stroke-miterlimit="10" stroke-width=".399" transform="matrix(1 0 0 -1 37.204 416.511)"/><g><use x="109.334" xlink:href="#x" y="277.798"/><use x="114.315" xlink:href="#y" y="277.798"/><use x="119.297" xlink:href="#v" y="277.798"/></g><use x="126.34" xlink:href="#C" y="277.798"/><use x="136.471" xlink:href="#z" y="277.798"/><use x="143.514" xlink:href="#C" y="277.798"/><use x="153.645" xlink:href="#z" y="277.798"/><path d="m62.760844 153.425063h68.03125v17.007812h-68.03125zm0 0" fill="#e1b68c" stroke="#674220" stroke-miterlimit="10" stroke-width=".399" transform="matrix(1 0 0 -1 37.204 416.511)"/><g><use x="109.334" xlink:href="#x" y="257.557"/><use x="114.315" xlink:href="#y" y="257.557"/><use x="119.297" xlink:href="#v" y="257.557"/></g><use x="126.34" xlink:href="#C" y="257.557"/><use x="136.471" xlink:href="#z" y="257.557"/><use x="143.514" xlink:href="#C" y="257.557"/><use x="153.645" xlink:href="#z" y="257.557"/><path d="m62.760844 173.66725h68.03125v17.007813h-68.03125zm0 0" fill="#add8e5" stroke="#191970" stroke-miterlimit="10" stroke-width=".399" transform="matrix(1 0 0 -1 37.204 416.511)"/><g><use x="124.097" xlink:href="#c" y="236.559"/><use x="130.085" xlink:href="#k" y="236.559"/><use x="135.524" xlink:href="#k" y="236.559"/><use x="140.964" xlink:href="#g" y="236.559"/></g><path d="m62.760844 193.909438h68.03125v17.007812h-68.03125zm0 0" fill="#e1b68c" stroke="#674220" stroke-miterlimit="10" stroke-width=".399" transform="matrix(1 0 0 -1 37.204 416.511)"/><g><use x="109.334" xlink:href="#y" y="217.15"/><use x="114.315" xlink:href="#w" y="217.15"/><use x="119.297" xlink:href="#x" y="217.15"/></g><use x="126.34" xlink:href="#C" y="217.15"/><use x="136.471" xlink:href="#z" y="217.15"/><use x="143.514" xlink:href="#C" y="217.15"/><use x="153.645" xlink:href="#z" y="217.15"/><path d="m62.760844 214.147719h68.03125v17.011719h-68.03125zm0 0" fill="#e1b68c" stroke="#674220" stroke-miterlimit="10" stroke-width=".399" transform="matrix(1 0 0 -1 37.204 416.511)"/><g><use x="109.334" xlink:href="#y" y="196.909"/><use x="114.315" xlink:href="#w" y="196.909"/><use x="119.297" xlink:href="#x" y="196.909"/></g><use x="126.34" xlink:href="#C" y="196.909"/><use x="136.471" xlink:href="#z" y="196.909"/><use x="143.514" xlink:href="#C" y="196.909"/><use x="153.645" xlink:href="#z" y="196.909"/><path d="m62.760844 234.389906h68.03125v17.007813h-68.03125zm0 0" fill="#e1b68c" stroke="#674220" stroke-miterlimit="10" stroke-width=".399" transform="matrix(1 0 0 -1 37.204 416.511)"/><g><use x="109.334" xlink:href="#y" y="176.668"/><use x="114.315" xlink:href="#w" y="176.668"/><use x="119.297" xlink:href="#x" y="176.668"/></g><use x="126.34" xlink:href="#C" y="176.668"/><use x="136.471" xlink:href="#z" y="176.668"/><use x="143.514" xlink:href="#C" y="176.668"/><use x="153.645" xlink:href="#z" y="176.668"/><path d="m62.760844 254.632094h68.03125v17.007812h-68.03125zm0 0" fill="#add8e5" stroke="#191970" stroke-miterlimit="10" stroke-width=".399" transform="matrix(1 0 0 -1 37.204 416.511)"/><g><use x="124.097" xlink:href="#c" y="155.595"/><use x="130.085" xlink:href="#k" y="155.595"/><use x="135.524" xlink:href="#k" y="155.595"/><use x="140.964" xlink:href="#g" y="155.595"/></g><path d="m62.760844 274.874281h68.03125v17.007813h-68.03125zm0 0" fill="#e1b68c" stroke="#674220" stroke-miterlimit="10" stroke-width=".399" transform="matrix(1 0 0 -1 37.204 416.511)"/><g><use x="109.334" xlink:href="#y" y="136.186"/><use x="114.315" xlink:href="#w" y="136.186"/><use x="119.297" xlink:href="#x" y="136.186"/></g><use x="126.34" xlink:href="#C" y="136.186"/><use x="136.471" xlink:href="#z" y="136.186"/><use x="143.514" xlink:href="#C" y="136.186"/><use x="153.645" xlink:href="#z" y="136.186"/><path d="m62.760844 295.112563h68.03125v17.011718h-68.03125zm0 0" fill="#e1b68c" stroke="#674220" stroke-miterlimit="10" stroke-width=".399" transform="matrix(1 0 0 -1 37.204 416.511)"/><g><use x="109.334" xlink:href="#y" y="115.945"/><use x="114.315" xlink:href="#w" y="115.945"/><use x="119.297" xlink:href="#x" y="115.945"/></g><use x="126.34" xlink:href="#C" y="115.945"/><use x="136.471" xlink:href="#z" y="115.945"/><use x="143.514" xlink:href="#C" y="115.945"/><use x="153.645" xlink:href="#z" y="115.945"/><path d="m62.760844 315.35475h68.03125v17.007813h-68.03125zm0 0" fill="#e1b68c" stroke="#674220" stroke-miterlimit="10" stroke-width=".399" transform="matrix(1 0 0 -1 37.204 416.511)"/><g><use x="109.334" xlink:href="#y" y="95.704"/><use x="114.315" xlink:href="#w" y="95.704"/><use x="119.297" xlink:href="#x" y="95.704"/></g><use x="126.34" xlink:href="#C" y="95.704"/><use x="136.471" xlink:href="#z" y="95.704"/><use x="143.514" xlink:href="#C" y="95.704"/><use x="153.645" xlink:href="#z" y="95.704"/><path d="m62.760844 335.596938h68.03125v17.007812h-68.03125zm0 0" fill="#add8e5" stroke="#191970" stroke-miterlimit="10" stroke-width=".399" transform="matrix(1 0 0 -1 37.204 416.511)"/><g><use x="124.097" xlink:href="#c" y="74.631"/><use x="130.085" xlink:href="#k" y="74.631"/><use x="135.524" xlink:href="#k" y="74.631"/><use x="140.964" xlink:href="#g" y="74.631"/></g><path d="m62.760844 355.839125h68.03125v17.007813h-68.03125zm0 0" fill="#7fb17f" stroke="#006400" stroke-miterlimit="10" stroke-width=".399" transform="matrix(1 0 0 -1 37.204 416.511)"/><g><use x="109.945" xlink:href="#l" y="55.691"/><use x="116.032" xlink:href="#h" y="55.691"/><use x="120.804" xlink:href="#b" y="55.691"/><use x="126.603" xlink:href="#m" y="55.691"/><use x="130.827" xlink:href="#h" y="55.691"/></g><g><use x="138.089" xlink:href="#n" y="55.691"/><use x="143.071" xlink:href="#o" y="55.691"/><use x="148.052" xlink:href="#p" y="55.691"/><use x="153.033" xlink:href="#q" y="55.691"/></g><path d="m62.760844 376.081313h68.03125v17.007812h-68.03125zm0 0" fill="#7fb17f" stroke="#006400" stroke-miterlimit="10" stroke-width=".399" transform="matrix(1 0 0 -1 37.204 416.511)"/><g><use x="109.945" xlink:href="#l" y="35.45"/><use x="116.032" xlink:href="#h" y="35.45"/><use x="120.804" xlink:href="#b" y="35.45"/><use x="126.603" xlink:href="#m" y="35.45"/><use x="130.827" xlink:href="#h" y="35.45"/></g><g><use x="138.089" xlink:href="#n" y="35.45"/><use x="143.071" xlink:href="#o" y="35.45"/><use x="148.052" xlink:href="#p" y="35.45"/><use x="153.033" xlink:href="#q" y="35.45"/></g><path d="m62.760844 396.319594h68.03125v17.007812h-68.03125zm0 0" fill="#7fb17f" stroke="#006400" stroke-miterlimit="10" stroke-width=".399" transform="matrix(1 0 0 -1 37.204 416.511)"/><g><use x="109.945" xlink:href="#l" y="15.209"/><use x="116.032" xlink:href="#h" y="15.209"/><use x="120.804" xlink:href="#b" y="15.209"/><use x="126.603" xlink:href="#m" y="15.209"/><use x="130.827" xlink:href="#h" y="15.209"/></g><g><use x="138.089" xlink:href="#r" y="15.209"/><use x="143.071" xlink:href="#o" y="15.209"/><use x="148.052" xlink:href="#o" y="15.209"/><use x="153.033" xlink:href="#o" y="15.209"/></g></svg>