<svg height="30.827pt" viewBox="0 0 257.2 30.827" width="257.2pt" xmlns="http://www.w3.org/2000/svg" xmlns:xlink="http://www.w3.org/1999/xlink"><clipPath id="a"><path d="m0 7h257.199219v3h-257.199219zm0 0"/></clipPath><clipPath id="b"><path d="m249 5h8.199219v7h-8.199219zm0 0"/></clipPath><symbol id="c" overflow="visible"><path d="m3.765625-9.890625c-2.21875 0-3.34375 1.765625-3.34375 5.25 0 1.671875.296875 3.125.796875 3.828125s1.3125 1.09375 2.1875 1.09375c2.171875 0 3.265625-1.859375 3.265625-5.53125 0-3.140625-.9375-4.640625-2.90625-4.640625zm-.25.515625c1.390625 0 1.953125 1.40625 1.953125 4.84375 0 3.046875-.546875 4.3125-1.875 4.3125-1.390625 0-1.96875-1.4375-1.96875-4.9375 0-3.03125.53125-4.21875 1.890625-4.21875zm0 0"/></symbol><symbol id="d" overflow="visible"><path d="m.96875-7.953125h.140625l1.84375-.84375c.015625-.015625.03125-.015625.046875-.015625.078125 0 .109375.140625.109375.484375v6.953125c0 .75-.15625.90625-.921875.9375l-.8125.046875v.4375c2.203125-.046875 2.203125-.046875 2.375-.046875.1875 0 .5 0 .984375.015625.171875.015625.671875.015625 1.265625.03125v-.4375l-.75-.046875c-.796875-.03125-.9375-.1875-.9375-.9375v-8.515625l-.203125-.0625c-.921875.484375-1.9375.921875-3.25 1.375zm0 0"/></symbol><symbol id="e" overflow="visible"><path d="m5.5625-1.59375-.34375.25c-.765625.546875-1.453125.78125-1.96875.78125-.640625 0-1.546875-.6875-1.75-1.609375-.015625-.140625-.015625-.296875-.015625-.453125 0-.171875 0-.359375.03125-.53125.359375-.046875 1.046875-.046875 1.15625-.046875.6875 0 1.5625 0 2 .015625l.09375-.078125.203125-.5c-1.0625.015625-1.234375.015625-1.78125.015625-.109375 0-1.03125-.015625-1.5625-.015625.125-.6875.390625-1.453125 1.015625-1.984375.40625-.34375.90625-.53125 1.40625-.53125.46875 0 .9375.09375 1.234375.4375.09375.109375.25.34375.375.5625l.265625-.03125.59375-.734375c-.453125-.53125-1.125-.859375-1.875-.859375-.9375 0-1.875.34375-2.640625 1.015625-.921875.75-1.53125 1.8125-1.71875 2.90625-.03125.265625-.0625.515625-.0625.765625 0 .609375.171875 1.203125.546875 1.65625.4375.546875 1.21875.71875 1.96875.71875.84375 0 1.59375-.421875 2.953125-1.46875zm0 0"/></symbol><g clip-path="url(#a)"><path d="m128.001563 639.998281h255.999999" fill="none" stroke="#bebebe" stroke-linejoin="round" stroke-miterlimit="10" stroke-width="1.2" transform="matrix(1 0 0 -1 -127.4 648.51)"/></g><path d="m256.601562 8.511719-7-2.332031v4.660156zm0 0" fill="#bebebe" fill-rule="evenodd"/><g clip-path="url(#b)"><path d="m384.001562 639.998281-7 2.332031v-4.660156zm0 0" fill="none" stroke="#bebebe" stroke-linejoin="round" stroke-miterlimit="10" stroke-width="1.2" transform="matrix(1 0 0 -1 -127.4 648.51)"/></g><path d="m128.001563 639.998281 7-2.328125v4.660156zm0 0" style="fill-rule:evenodd;fill:#bebebe;stroke-width:1.2;stroke-linejoin:round;stroke:#bebebe;stroke-miterlimit:10" transform="matrix(1 0 0 -1 -127.4 648.51)"/><path d="m256.001562 647.908437v-15.632812" fill="none" stroke="#bebebe" stroke-linejoin="round" stroke-miterlimit="10" stroke-width="1.2" transform="matrix(1 0 0 -1 -127.4 648.51)"/><use fill="#bebebe" x="125.233" xlink:href="#c" y="28.613"/><g fill="none" stroke="#bebebe" stroke-linejoin="round" stroke-miterlimit="10" stroke-width="1.2" transform="matrix(1 0 0 -1 -127.4 648.51)"><path d="m352.122656 647.908437v-15.632812"/><path d="m271.853125 647.908437v-15.632812"/><path d="m287.954687 647.908437v-15.632812"/><path d="m303.888281 647.908437v-15.632812"/><path d="m319.876562 647.908437v-15.632812"/><path d="m335.896094 647.908437v-15.632812"/><path d="m239.927344 647.908437v-15.632812"/><path d="m224.048438 647.908437v-15.632812"/><path d="m208.110938 647.908437v-15.632812"/><path d="m191.982031 647.908437v-15.632812"/><path d="m175.997656 647.908437v-15.632812"/><path d="m160.048438 647.908437v-15.632812"/><path d="m144.028906 647.908437v-15.632812"/></g><use fill="#bebebe" x="141.71" xlink:href="#e" y="27.184"/><use fill="#bebebe" x="221.398" xlink:href="#d" y="29.741"/></svg>