<svg height="50.83pt" viewBox="0 0 511.24 50.83" width="511.24pt" xmlns="http://www.w3.org/2000/svg" xmlns:xlink="http://www.w3.org/1999/xlink"><symbol id="a" overflow="visible"><path d="m.09375-.140625v.15625c1.125-.015625 1.125-.015625 1.34375-.015625s.21875 0 1.375.015625c-.015625-.125-.015625-.1875-.015625-.265625s0-.140625.015625-.265625c-.6875.03125-.96875.03125-2.078125.046875l1.09375-1.15625c.578125-.609375.765625-.9375.765625-1.390625 0-.6875-.46875-1.125-1.234375-1.125-.4375 0-.734375.125-1.015625.421875l-.109375.828125h.171875l.078125-.28125c.09375-.34375.3125-.5.71875-.5.515625 0 .84375.328125.84375.828125 0 .453125-.25.90625-.9375 1.625zm0 0"/></symbol><symbol id="b" overflow="visible"><path d="m3.234375-2.59375v-.15625c-.359375.015625-.46875.015625-.5625.015625s-.203125 0-.5625-.015625v.15625l.25.015625c.09375.015625.140625.0625.140625.15625s-.046875.265625-.125.4375l-.25.640625c-.0625.171875-.140625.34375-.359375.84375l-.71875-1.734375c-.03125-.078125-.0625-.15625-.0625-.21875 0-.078125.0625-.109375.15625-.125l.296875-.015625v-.15625c-.59375.015625-.59375.015625-.703125.015625s-.40625 0-.703125-.015625v.15625l.203125.015625c.09375.015625.125.046875.1875.203125l1.03125 2.421875h.3125c.03125-.109375.09375-.265625.09375-.28125.0625-.171875.140625-.375.140625-.375l.71875-1.5625c.125-.28125.203125-.390625.328125-.40625zm0 0"/></symbol><symbol id="c" overflow="visible"><path d="m1.9375-.484375-.03125.5c.390625-.015625.390625-.015625.46875-.015625.03125 0 .1875 0 .453125.015625v-.171875l-.234375-.015625c-.140625-.015625-.171875-.0625-.171875-.34375v-1.109375c0-.875-.25-1.1875-.953125-1.1875-.25 0-.484375.0625-.71875.203125l-.3125.1875v.390625l.15625.046875.078125-.1875c.125-.28125.1875-.328125.453125-.328125.5625 0 .796875.21875.8125.765625l-.59375.109375c-.8125.15625-1.15625.4375-1.15625.953125 0 .46875.28125.75.765625.75.109375 0 .203125-.03125.25-.046875zm0-.265625c-.171875.25-.546875.484375-.78125.484375s-.453125-.21875-.453125-.484375c0-.21875.125-.4375.3125-.546875.140625-.09375.46875-.171875.921875-.234375zm0 0"/></symbol><symbol id="d" overflow="visible"><path d="m.140625-3.96875h.328125c.109375 0 .15625.0625.15625.25v3.109375c0 .375-.015625.421875-.21875.421875l-.28125.03125v.171875c.59375-.015625.59375-.015625.75-.015625s.15625 0 .75.015625v-.171875l-.28125-.03125c-.203125 0-.21875-.046875-.21875-.421875v-3.703125l-.046875-.046875c-.265625.109375-.46875.15625-.9375.21875zm0 0"/></symbol><symbol id="e" overflow="visible"><path d="m3.015625-2.796875-.046875-.015625c-.3125.125-.625.203125-.9375.25v.15625h.21875c.234375 0 .265625.046875.265625.4375v.984375c0 .125-.078125.296875-.21875.4375-.171875.171875-.359375.25-.59375.25-.21875 0-.390625-.0625-.484375-.171875-.078125-.09375-.125-.28125-.125-.546875v-1.78125l-.046875-.015625c-.3125.125-.625.203125-.9375.25v.15625h.21875c.234375 0 .265625.046875.265625.4375v1.015625c0 .421875.03125.609375.140625.75.140625.1875.359375.28125.703125.28125.265625 0 .515625-.09375.671875-.234375l.40625-.375c0 .171875 0 .265625-.03125.546875.40625-.015625.40625-.015625.5-.015625s.09375 0 .5.015625v-.171875l-.25-.03125c-.203125 0-.21875-.046875-.21875-.421875zm0 0"/></symbol><symbol id="f" overflow="visible"><path d="m2.625-.421875-.078125-.0625c-.390625.234375-.53125.28125-.78125.28125-.390625 0-.71875-.171875-.890625-.46875-.109375-.1875-.15625-.359375-.15625-.703125h.875c.40625 0 .671875-.015625 1.078125-.09375.015625-.078125.015625-.140625.015625-.203125 0-.6875-.4375-1.140625-1.109375-1.140625-.234375 0-.484375.078125-.734375.21875-.484375.28125-.6875.65625-.6875 1.28125 0 .375.09375.703125.25.921875.234375.328125.640625.515625 1.09375.515625.21875 0 .4375-.046875.6875-.15625.171875-.078125.296875-.15625.3125-.1875zm-.46875-1.1875c-.3125.015625-.453125.03125-.671875.03125-.28125 0-.4375-.015625-.765625-.046875 0-.28125.03125-.40625.109375-.5625.125-.265625.390625-.421875.671875-.421875.203125 0 .359375.078125.46875.234375.125.203125.171875.375.1875.765625zm0 0"/></symbol><symbol id="g" overflow="visible"><path d="m.25-.859375c0 .421875-.015625.59375-.0625.828125.296875.109375.53125.15625.8125.15625.78125 0 1.34375-.421875 1.34375-1.015625 0-.1875-.046875-.328125-.171875-.4375-.15625-.15625-.34375-.21875-.875-.328125-.5-.09375-.65625-.21875-.65625-.484375 0-.3125.21875-.46875.578125-.46875.40625 0 .703125.203125.703125.484375v.140625h.171875c0-.34375.015625-.5.03125-.671875-.3125-.109375-.53125-.15625-.78125-.15625-.703125 0-1.125.328125-1.125.875 0 .28125.140625.484375.40625.609375.171875.078125.484375.171875.890625.265625.265625.046875.390625.1875.390625.40625 0 .328125-.296875.546875-.734375.546875s-.75-.203125-.75-.5v-.25zm0 0"/></symbol><symbol id="h" overflow="visible"><path d="m.140625-2.40625h.21875c.234375 0 .265625.046875.265625.4375v1.359375c0 .375-.015625.421875-.21875.421875l-.28125.03125v.171875c.4375-.015625.59375-.015625.734375-.015625.125 0 .125 0 .859375.015625v-.171875l-.3125-.03125c-.265625-.015625-.28125-.03125-.28125-.421875v-1.03125c0-.359375.25-.65625.53125-.65625.1875 0 .3125.078125.40625.265625h.125l.0625-.71875c-.078125-.046875-.1875-.0625-.28125-.0625-.1875 0-.375.09375-.5.25l-.34375.390625v-.625l-.046875-.015625c-.3125.125-.625.203125-.9375.25zm0 0"/></symbol><symbol id="i" overflow="visible"><path d="m.0625-2.40625h.21875c.234375 0 .265625.046875.265625.4375v3.03125c0 .375-.015625.40625-.21875.421875l-.28125.015625v.1875c.59375-.015625.59375-.015625.75-.015625s.15625 0 .75.015625v-.1875l-.28125-.015625c-.203125-.015625-.21875-.046875-.21875-.421875v-1.140625c.1875.109375.375.15625.640625.15625.171875 0 .328125-.046875.4375-.109375l.671875-.4375c.25-.15625.53125-.765625.53125-1.15625 0-.671875-.5625-1.1875-1.25-1.1875-.21875 0-.4375.0625-.53125.15625l-.5.4375v-.578125l-.046875-.015625c-.3125.125-.625.203125-.9375.25zm.984375.5625c0-.078125.03125-.140625.109375-.25.171875-.21875.421875-.328125.71875-.328125.5625 0 .921875.390625.921875 1.015625 0 .671875-.390625 1.171875-.9375 1.171875-.328125 0-.578125-.109375-.8125-.359375zm0 0"/></symbol><symbol id="j" overflow="visible"><path d="m2.453125.015625c.375-.015625.375-.015625.484375-.015625.078125 0 .078125 0 .5.015625v-.171875l-.25-.03125c-.203125 0-.21875-.046875-.21875-.421875v-1.15625c0-.703125-.328125-1.046875-1-1.046875-.234375 0-.359375.046875-.484375.15625l-.453125.390625v-.53125l-.046875-.015625c-.3125.125-.625.203125-.9375.25v.15625h.21875c.234375 0 .265625.046875.265625.4375v1.359375c0 .375-.015625.421875-.21875.421875l-.28125.03125v.171875c.40625-.015625.578125-.015625.75-.015625s.328125 0 .75.015625v-.171875l-.28125-.03125c-.203125 0-.21875-.046875-.21875-.421875v-1.28125c0-.265625.390625-.5625.765625-.5625.40625 0 .65625.3125.65625.765625zm0 0"/></symbol><symbol id="k" overflow="visible"><path d="m.59375-2.296875v1.734375c0 .4375.1875.640625.65625.640625.140625 0 .28125-.03125.3125-.078125l.296875-.3125-.078125-.109375c-.15625.078125-.25.109375-.359375.109375-.234375 0-.328125-.109375-.328125-.40625v-1.578125h.765625l.046875-.3125-.8125.03125v-.234375c0-.25.015625-.46875.0625-.84375l-.0625-.0625c-.15625.078125-.328125.15625-.515625.21875.015625.1875.015625.296875.015625.46875v.421875l-.46875.21875v.125zm0 0"/></symbol><symbol id="l" overflow="visible"><path d="m.90625-4.3125-.0625-.046875c-.265625.109375-.453125.15625-.9375.21875v.171875h.34375c.109375 0 .140625.0625.140625.25v2.796875c0 .375 0 .53125-.046875.953125l.09375.046875.25-.21875c.234375.15625.453125.21875.765625.21875.234375 0 .390625-.046875.515625-.140625l.609375-.421875c.265625-.203125.46875-.703125.46875-1.140625 0-.6875-.453125-1.1875-1.078125-1.1875-.28125 0-.578125.109375-.734375.265625l-.328125.328125zm0 2.46875c0-.09375.046875-.203125.15625-.296875.15625-.1875.390625-.28125.640625-.28125.5 0 .828125.40625.828125 1.046875 0 .671875-.359375 1.140625-.875 1.140625-.3125 0-.75-.1875-.75-.328125zm0 0"/></symbol><symbol id="m" overflow="visible"><path d="m3.109375-2.265625.15625-.25-.03125-.078125-.84375.03125c-.21875-.171875-.4375-.25-.734375-.25-.265625 0-.5625.078125-.8125.21875-.34375.203125-.515625.5-.515625.859375 0 .4375.28125.75.71875.796875l-.46875.375c-.0625.078125-.09375.15625-.09375.25 0 .171875.109375.265625.390625.34375l-.515625.28125c-.078125.046875-.171875.28125-.171875.46875 0 .53125.53125.921875 1.296875.921875.90625 0 1.625-.578125 1.625-1.3125 0-.421875-.296875-.734375-.703125-.734375h-.96875c-.3125 0-.453125-.0625-.453125-.21875 0-.078125.046875-.15625.203125-.28125.03125-.03125.046875-.046875.078125-.0625h.140625c.25 0 .578125-.109375.8125-.28125.28125-.203125.40625-.4375.40625-.75 0-.125-.015625-.203125-.0625-.328125zm-1.671875-.34375c.40625 0 .6875.328125.6875.84375 0 .390625-.25.65625-.625.65625-.390625 0-.671875-.3125-.671875-.765625 0-.46875.234375-.734375.609375-.734375zm.28125 2.6875c.6875 0 .921875.140625.921875.53125 0 .515625-.484375.90625-1.109375.90625-.515625 0-.890625-.3125-.890625-.75 0-.28125.15625-.515625.40625-.625.09375-.046875.265625-.0625.671875-.0625zm0 0"/></symbol><symbol id="n" overflow="visible"><path d="m2.046875-4.296875c-.125-.046875-.203125-.078125-.28125-.078125-.1875 0-.390625.109375-.53125.265625l-.34375.390625c-.171875.203125-.25.46875-.25.859375v.25l-.421875.1875v.140625l.421875-.03125v1.703125c0 .375-.015625.421875-.234375.421875l-.265625.03125v.171875c.59375-.015625.59375-.015625.75-.015625.140625 0 .3125 0 .78125.015625v-.171875l-.3125-.03125c-.203125 0-.21875-.046875-.21875-.421875v-1.703125h.6875l.03125-.3125-.71875.015625v-.5c0-.6875.078125-.859375.421875-.859375.15625 0 .265625.03125.40625.171875l.078125-.046875zm.984375 1.53125-.0625-.046875c-.265625.125-.578125.21875-.9375.25v.171875h.21875c.25 0 .265625.046875.265625.4375v1.34375c0 .375-.015625.421875-.21875.421875l-.28125.03125v.171875c.609375-.015625.609375-.015625.75-.015625.15625 0 .15625 0 .75.015625v-.171875l-.265625-.03125c-.203125 0-.21875-.046875-.21875-.421875zm-.234375-1.359375c-.171875 0-.328125.15625-.328125.34375 0 .171875.15625.328125.328125.328125s.328125-.15625.328125-.328125-.15625-.34375-.328125-.34375zm0 0"/></symbol><symbol id="o" overflow="visible"><path d="m1.125-2.796875-.046875-.015625c-.3125.125-.625.203125-.9375.25v.15625h.21875c.234375 0 .265625.046875.265625.4375v1.359375c0 .375-.015625.421875-.21875.421875l-.28125.03125v.171875c.59375-.015625.59375-.015625.75-.015625s.15625 0 .75.015625v-.171875l-.28125-.03125c-.203125 0-.21875-.046875-.21875-.421875zm-.265625-1.328125c-.1875 0-.34375.15625-.34375.34375 0 .171875.15625.328125.328125.328125s.34375-.15625.34375-.328125-.171875-.34375-.328125-.34375zm0 0"/></symbol><symbol id="p" overflow="visible"><path d="m.578125-2.765625c.59375.03125.84375.03125 1.390625.03125l.03125-.03125c-.015625-.078125-.015625-.109375-.015625-.171875s0-.09375.015625-.1875l-.03125-.015625c-.34375.015625-.546875.015625-.796875.015625s-.453125 0-.78125-.015625l-.03125.015625c0 .28125.015625.484375.015625.625 0 .390625-.015625.828125-.03125 1.03125l.09375.03125c.203125-.21875.328125-.28125.5625-.28125.4375 0 .703125.3125.703125.796875 0 .515625-.28125.8125-.78125.8125-.25 0-.484375-.09375-.546875-.203125l-.203125-.375-.109375.0625c.109375.265625.15625.40625.21875.609375.125.0625.3125.109375.515625.109375.296875 0 .625-.140625.875-.359375.28125-.234375.421875-.546875.421875-.890625 0-.515625-.375-.875-.890625-.875-.21875 0-.375.0625-.671875.21875zm0 0"/></symbol><symbol id="q" overflow="visible"><path d="m.078125-.109375v.125c.84375-.015625.84375-.015625 1.015625-.015625.15625 0 .15625 0 1.046875.015625-.015625-.09375-.015625-.140625-.015625-.203125s0-.109375.015625-.203125c-.53125.015625-.734375.015625-1.578125.046875l.828125-.890625c.4375-.46875.578125-.71875.578125-1.0625 0-.515625-.359375-.84375-.9375-.84375-.328125 0-.546875.09375-.78125.3125l-.078125.625h.140625l.0625-.203125c.0625-.265625.234375-.390625.53125-.390625.40625 0 .65625.25.65625.640625 0 .34375-.203125.671875-.71875 1.21875zm0 0"/></symbol><symbol id="r" overflow="visible"><path d="m.125-.1875v.21875c1.5-.03125 1.5-.03125 1.78125-.03125.296875 0 .296875 0 1.84375.03125-.015625-.171875-.015625-.25-.015625-.375 0-.09375 0-.171875.015625-.359375-.921875.046875-1.296875.0625-2.78125.09375l1.46875-1.546875c.765625-.828125 1.015625-1.265625 1.015625-1.875 0-.90625-.625-1.484375-1.640625-1.484375-.578125 0-.96875.15625-1.359375.5625l-.140625 1.09375h.234375l.09375-.375c.140625-.46875.421875-.65625.953125-.65625.6875 0 1.140625.421875 1.140625 1.109375 0 .59375-.34375 1.1875-1.25 2.15625zm0 0"/></symbol><symbol id="s" overflow="visible"><path d="m2.109375-5.515625c-1.25 0-1.875.984375-1.875 2.921875 0 .9375.171875 1.75.453125 2.140625.265625.390625.71875.609375 1.21875.609375 1.203125 0 1.8125-1.03125 1.8125-3.078125 0-1.765625-.515625-2.59375-1.609375-2.59375zm-.15625.28125c.78125 0 1.09375.78125 1.09375 2.703125 0 1.703125-.296875 2.40625-1.03125 2.40625-.78125 0-1.109375-.796875-1.109375-2.75 0-1.6875.296875-2.359375 1.046875-2.359375zm0 0"/></symbol><symbol id="t" overflow="visible"><path d="m4.171875-1.453125c.109375 0 .21875 0 .21875-.125s-.109375-.125-.21875-.125h-3.421875c-.109375 0-.21875 0-.21875.125s.109375.125.21875.125zm0 0"/></symbol><symbol id="u" overflow="visible"><path d="m.40625-3.375h.0625l.78125-.34375c.015625-.015625.015625-.015625.015625-.015625.046875 0 .046875.0625.046875.203125v2.953125c0 .3125-.0625.375-.390625.390625l-.34375.015625v.1875c.9375-.015625.9375-.015625 1.015625-.015625h.40625c.078125.015625.296875.015625.546875.015625v-.1875l-.328125-.015625c-.328125-.015625-.390625-.078125-.390625-.390625v-3.609375l-.078125-.03125c-.40625.203125-.828125.390625-1.390625.578125zm0 0"/></symbol><symbol id="v" overflow="visible"><path d="m1.59375-4.1875c-.9375 0-1.421875.75-1.421875 2.21875 0 .703125.125 1.328125.34375 1.625s.546875.46875.9375.46875c.90625 0 1.375-.796875 1.375-2.34375 0-1.34375-.390625-1.96875-1.234375-1.96875zm-.109375.21875c.59375 0 .828125.59375.828125 2.046875 0 1.296875-.234375 1.828125-.78125 1.828125-.59375 0-.84375-.609375-.84375-2.09375 0-1.28125.21875-1.78125.796875-1.78125zm0 0"/></symbol><symbol id="w" overflow="visible"><path d="m.09375-.140625v.15625c1.140625-.015625 1.140625-.015625 1.359375-.015625s.21875 0 1.390625.015625c-.015625-.125-.015625-.1875-.015625-.265625s0-.140625.015625-.28125c-.703125.03125-.984375.03125-2.109375.0625l1.109375-1.171875c.59375-.625.78125-.953125.78125-1.421875 0-.6875-.484375-1.125-1.25-1.125-.4375 0-.734375.125-1.03125.421875l-.109375.828125h.171875l.09375-.28125c.09375-.34375.3125-.5.71875-.5.515625 0 .859375.328125.859375.84375 0 .453125-.265625.90625-.953125 1.640625zm0 0"/></symbol><symbol id="x" overflow="visible"><path d="m.578125.125c.6875-.21875.96875-.359375 1.296875-.640625.59375-.5.90625-1.203125.90625-2.015625 0-1.03125-.5-1.65625-1.296875-1.65625-.78125 0-1.359375.609375-1.359375 1.421875 0 .703125.453125 1.203125 1.078125 1.203125.21875 0 .453125-.0625.5625-.15625l.421875-.34375c-.046875 1.015625-.703125 1.765625-1.8125 2.03125v.046875zm.875-4.109375c.28125 0 .484375.109375.609375.359375.109375.1875.1875.484375.1875.765625 0 .5625-.328125.9375-.796875.9375-.484375 0-.8125-.4375-.8125-1.0625s.3125-1 .8125-1zm0 0"/></symbol><symbol id="y" overflow="visible"><path d="m1.703125-1.09375v.453125c0 .359375-.0625.453125-.359375.453125l-.390625.015625v.1875c.8125-.015625.8125-.015625.96875-.015625.140625 0 .140625 0 .953125.015625v-.1875l-.296875-.015625c-.296875-.015625-.359375-.09375-.359375-.453125v-.453125c.359375 0 .484375 0 .65625.015625v-.421875c-.296875.015625-.40625.015625-.5.015625h-.15625v-.84375c0-1.09375 0-1.609375.03125-1.859375l-.0625-.03125-.453125.171875-1.71875 2.8125.0625.140625zm0-.390625h-1.3125l1.3125-2.140625zm0 0"/></symbol><g stroke-linecap="round" stroke-linejoin="round" stroke-miterlimit="10" transform="matrix(.1 0 0 -.1 0 50.83)"><path d="m4999.492188 292.20625h-4933.476563" fill="none" stroke="#000" stroke-width="4.99965"/><path d="m5074.492188 292.20625-75 20.078125v-40.15625zm0 0" stroke="#000" stroke-width="4.99965"/><g fill="none"><path d="m66.015625 292.20625v-100.15625" stroke="#191970" stroke-width="1.99986"/><path d="m85.546875 292.20625v-100.15625" stroke="#191970" stroke-width="1.99986"/><path d="m105.117188 292.20625v-100.15625" stroke="#191970" stroke-width="1.99986"/><path d="m124.6875 292.20625v-100.15625" stroke="#191970" stroke-width="1.99986"/><path d="m144.257812 292.20625v-100.15625" stroke="#191970" stroke-width="1.99986"/><path d="m163.828125 292.20625v-100.15625" stroke="#191970" stroke-width="1.99986"/><path d="m183.398438 292.20625v-100.15625" stroke="#191970" stroke-width="1.99986"/><path d="m202.929688 292.20625v-100.15625" stroke="#191970" stroke-width="1.99986"/><path d="m222.5 292.20625v-100.15625" stroke="#191970" stroke-width="1.99986"/><path d="m242.070312 292.20625v-100.15625" stroke="#191970" stroke-width="1.99986"/><path d="m261.640625 292.20625v-100.15625" stroke="#191970" stroke-width="1.99986"/><path d="m281.210938 292.20625v-100.15625" stroke="#191970" stroke-width="1.99986"/><path d="m300.78125 292.20625v-100.15625" stroke="#191970" stroke-width="1.99986"/><path d="m320.3125 292.20625v-100.15625" stroke="#191970" stroke-width="1.99986"/><path d="m339.882812 292.20625v-100.15625" stroke="#191970" stroke-width="1.99986"/><path d="m359.453125 292.20625v-100.15625" stroke="#191970" stroke-width="1.99986"/><path d="m379.023438 292.20625v-100.15625" stroke="#2e8b57" stroke-width="1.99986"/><path d="m398.59375 292.20625v-100.15625" stroke="#2e8b57" stroke-width="1.99986"/><path d="m418.164062 292.20625v-100.15625" stroke="#2e8b57" stroke-width="1.99986"/><path d="m437.734375 292.20625v-100.15625" stroke="#2e8b57" stroke-width="1.99986"/><path d="m457.265625 292.20625v-100.15625" stroke="#2e8b57" stroke-width="1.99986"/><path d="m476.835938 292.20625v-100.15625" stroke="#2e8b57" stroke-width="1.99986"/><path d="m496.40625 292.20625v-100.15625" stroke="#2e8b57" stroke-width="1.99986"/><path d="m515.976562 292.20625v-100.15625" stroke="#2e8b57" stroke-width="1.99986"/><path d="m535.546875 292.20625v-100.15625" stroke="#2e8b57" stroke-width="1.99986"/><path d="m555.117188 292.20625v-100.15625" stroke="#2e8b57" stroke-width="1.99986"/><path d="m574.6875 292.20625v-100.15625" stroke="#2e8b57" stroke-width="1.99986"/><path d="m594.21875 292.20625v-100.15625" stroke="#2e8b57" stroke-width="1.99986"/><path d="m613.789062 292.20625v-100.15625" stroke="#2e8b57" stroke-width="1.99986"/><path d="m633.359375 292.20625v-100.15625" stroke="#2e8b57" stroke-width="1.99986"/><path d="m652.929688 292.20625v-100.15625" stroke="#2e8b57" stroke-width="1.99986"/><path d="m672.5 292.20625v-100.15625" stroke="#2e8b57" stroke-width="1.99986"/><path d="m66.015625 354.8625v75" stroke="#191970" stroke-width="4.99965"/><path d="m359.453125 354.8625v75" stroke="#191970" stroke-width="4.99965"/><path d="m66.015625 392.3625h293.4375" stroke="#191970" stroke-width="4.99965"/><path d="m379.023438 292.20625v-150.273438" stroke="#000" stroke-width="4.99965"/><path d="m379.023438 292.20625v-100.15625" stroke="#2e8b57" stroke-width="1.99986"/><path d="m398.59375 292.20625v-100.15625" stroke="#2e8b57" stroke-width="1.99986"/><path d="m418.164062 292.20625v-100.15625" stroke="#2e8b57" stroke-width="1.99986"/><path d="m437.734375 292.20625v-100.15625" stroke="#2e8b57" stroke-width="1.99986"/><path d="m457.265625 292.20625v-100.15625" stroke="#2e8b57" stroke-width="1.99986"/><path d="m476.835938 292.20625v-100.15625" stroke="#2e8b57" stroke-width="1.99986"/><path d="m496.40625 292.20625v-100.15625" stroke="#2e8b57" stroke-width="1.99986"/><path d="m515.976562 292.20625v-100.15625" stroke="#2e8b57" stroke-width="1.99986"/><path d="m535.546875 292.20625v-100.15625" stroke="#2e8b57" stroke-width="1.99986"/><path d="m555.117188 292.20625v-100.15625" stroke="#2e8b57" stroke-width="1.99986"/><path d="m574.6875 292.20625v-100.15625" stroke="#2e8b57" stroke-width="1.99986"/><path d="m594.21875 292.20625v-100.15625" stroke="#2e8b57" stroke-width="1.99986"/><path d="m613.789062 292.20625v-100.15625" stroke="#2e8b57" stroke-width="1.99986"/><path d="m633.359375 292.20625v-100.15625" stroke="#2e8b57" stroke-width="1.99986"/><path d="m652.929688 292.20625v-100.15625" stroke="#2e8b57" stroke-width="1.99986"/><path d="m672.5 292.20625v-100.15625" stroke="#2e8b57" stroke-width="1.99986"/><path d="m379.023438 354.8625v75" stroke="#2e8b57" stroke-width="4.99965"/><path d="m672.5 354.8625v75" stroke="#2e8b57" stroke-width="4.99965"/><path d="m379.023438 392.3625h293.476562" stroke="#2e8b57" stroke-width="4.99965"/><path d="m692.070312 292.20625v-150.273438" stroke="#000" stroke-width="4.99965"/><path d="m692.070312 292.20625v-100.15625" stroke="#2e8b57" stroke-width="1.99986"/><path d="m731.171875 292.20625v-100.15625" stroke="#2e8b57" stroke-width="1.99986"/><path d="m770.3125 292.20625v-100.15625" stroke="#2e8b57" stroke-width="1.99986"/><path d="m809.453125 292.20625v-100.15625" stroke="#2e8b57" stroke-width="1.99986"/><path d="m848.554688 292.20625v-100.15625" stroke="#2e8b57" stroke-width="1.99986"/><path d="m887.695312 292.20625v-100.15625" stroke="#2e8b57" stroke-width="1.99986"/><path d="m926.835938 292.20625v-100.15625" stroke="#2e8b57" stroke-width="1.99986"/><path d="m965.976562 292.20625v-100.15625" stroke="#2e8b57" stroke-width="1.99986"/><path d="m1005.078125 292.20625v-100.15625" stroke="#2e8b57" stroke-width="1.99986"/><path d="m1044.21875 292.20625v-100.15625" stroke="#2e8b57" stroke-width="1.99986"/><path d="m1083.359375 292.20625v-100.15625" stroke="#2e8b57" stroke-width="1.99986"/><path d="m1122.460938 292.20625v-100.15625" stroke="#2e8b57" stroke-width="1.99986"/><path d="m1161.601562 292.20625v-100.15625" stroke="#2e8b57" stroke-width="1.99986"/><path d="m1200.742188 292.20625v-100.15625" stroke="#2e8b57" stroke-width="1.99986"/><path d="m1239.84375 292.20625v-100.15625" stroke="#2e8b57" stroke-width="1.99986"/><path d="m1278.984375 292.20625v-100.15625" stroke="#2e8b57" stroke-width="1.99986"/><path d="m692.070312 354.8625v75" stroke="#2e8b57" stroke-width="4.99965"/><path d="m1278.984375 354.8625v75" stroke="#2e8b57" stroke-width="4.99965"/><path d="m692.070312 392.3625h586.914063" stroke="#2e8b57" stroke-width="4.99965"/><path d="m1318.125 292.20625v-150.273438" stroke="#000" stroke-width="4.99965"/><path d="m1318.125 292.20625v-100.15625" stroke="#2e8b57" stroke-width="1.99986"/><path d="m1396.367188 292.20625v-100.15625" stroke="#2e8b57" stroke-width="1.99986"/><path d="m1474.648438 292.20625v-100.15625" stroke="#2e8b57" stroke-width="1.99986"/><path d="m1552.890625 292.20625v-100.15625" stroke="#2e8b57" stroke-width="1.99986"/><path d="m1631.132812 292.20625v-100.15625" stroke="#2e8b57" stroke-width="1.99986"/><path d="m1709.414062 292.20625v-100.15625" stroke="#2e8b57" stroke-width="1.99986"/><path d="m1787.65625 292.20625v-100.15625" stroke="#2e8b57" stroke-width="1.99986"/><path d="m1865.9375 292.20625v-100.15625" stroke="#2e8b57" stroke-width="1.99986"/><path d="m1944.179688 292.20625v-100.15625" stroke="#2e8b57" stroke-width="1.99986"/><path d="m2022.421875 292.20625v-100.15625" stroke="#2e8b57" stroke-width="1.99986"/><path d="m2100.703125 292.20625v-100.15625" stroke="#2e8b57" stroke-width="1.99986"/><path d="m2178.945312 292.20625v-100.15625" stroke="#2e8b57" stroke-width="1.99986"/><path d="m2257.226562 292.20625v-100.15625" stroke="#2e8b57" stroke-width="1.99986"/><path d="m2335.46875 292.20625v-100.15625" stroke="#2e8b57" stroke-width="1.99986"/><path d="m2413.710938 292.20625v-100.15625" stroke="#2e8b57" stroke-width="1.99986"/><path d="m2491.992188 292.20625v-100.15625" stroke="#2e8b57" stroke-width="1.99986"/><path d="m1318.125 354.8625v75" stroke="#2e8b57" stroke-width="4.99965"/><path d="m2491.992188 354.8625v75" stroke="#2e8b57" stroke-width="4.99965"/><path d="m1318.125 392.3625h1173.867188" stroke="#2e8b57" stroke-width="4.99965"/><path d="m2570.234375 292.20625v-150.273438" stroke="#000" stroke-width="4.99965"/><path d="m66.015625 292.20625v-150.273438" stroke="#000" stroke-width="4.99965"/><path d="m4573.632812 292.20625v-150.273438" stroke="#000" stroke-width="4.99965"/><path d="m4172.96875 292.20625v-100.15625" stroke="#2e8b57" stroke-width="4.99965"/><path d="m4172.96875 322.245312v20.039063" stroke="#2e8b57" stroke-width="4.99965"/></g><path d="m4172.96875 302.20625 5.390625 20.039062h-10.742187zm0 0" fill="#2e8b57" stroke="#2e8b57" stroke-width="4.99965"/><path d="m3772.304688 292.20625v-100.15625" fill="none" stroke="#2e8b57" stroke-width="4.99965"/></g><use fill="#191970" x="7.91992" xlink:href="#a" y="9.6698"/><g fill="#191970"><use x="10.91992" xlink:href="#p" y="7.51003"/><use x="13.199895" xlink:href="#q" y="7.51003"/></g><use fill="#191970" x="17.51992" xlink:href="#b" y="9.6698"/><g fill="#191970"><use x="20.879918" xlink:href="#c" y="9.6698"/><use x="23.879923" xlink:href="#d" y="9.6698"/></g><use fill="#191970" x="25.679926" xlink:href="#e" y="9.6698"/><use fill="#191970" x="29.279923" xlink:href="#f" y="9.6698"/><use fill="#191970" x="32.159928" xlink:href="#g" y="9.6698"/><use x="27" xlink:href="#r" y="46.14992"/><use x="31.08008" xlink:href="#t" y="43.26984"/><use x="36.11992" xlink:href="#u" y="43.26984"/><use x="39.119922" xlink:href="#v" y="43.26984"/><use x="42.119921" xlink:href="#w" y="43.26984"/><use x="45.119923" xlink:href="#w" y="43.26984"/><use fill="#2e8b57" x="39.2398" xlink:href="#a" y="9.6698"/><g fill="#2e8b57"><use x="42.2398" xlink:href="#p" y="7.51003"/><use x="44.519775" xlink:href="#q" y="7.51003"/></g><use fill="#2e8b57" x="48.8398" xlink:href="#b" y="9.6698"/><g fill="#2e8b57"><use x="52.199795" xlink:href="#c" y="9.6698"/><use x="55.1998" xlink:href="#d" y="9.6698"/></g><use fill="#2e8b57" x="56.999803" xlink:href="#e" y="9.6698"/><use fill="#2e8b57" x="60.599809" xlink:href="#f" y="9.6698"/><use fill="#2e8b57" x="63.479807" xlink:href="#g" y="9.6698"/><use x="58.3199" xlink:href="#r" y="46.14992"/><use x="62.39998" xlink:href="#t" y="43.26984"/><use x="67.43982" xlink:href="#u" y="43.26984"/><use x="70.439822" xlink:href="#v" y="43.26984"/><use x="73.439824" xlink:href="#w" y="43.26984"/><use x="76.439826" xlink:href="#u" y="43.26984"/><use fill="#2e8b57" x="85.2" xlink:href="#a" y="9.6698"/><g fill="#2e8b57"><use x="88.2" xlink:href="#p" y="7.51003"/><use x="90.479975" xlink:href="#q" y="7.51003"/></g><use fill="#2e8b57" x="94.8" xlink:href="#b" y="9.6698"/><g fill="#2e8b57"><use x="98.159995" xlink:href="#c" y="9.6698"/><use x="101.16" xlink:href="#d" y="9.6698"/></g><use fill="#2e8b57" x="102.959994" xlink:href="#e" y="9.6698"/><use fill="#2e8b57" x="106.56" xlink:href="#f" y="9.6698"/><use fill="#2e8b57" x="109.439999" xlink:href="#g" y="9.6698"/><use x="120.96" xlink:href="#r" y="46.14992"/><use x="125.03969" xlink:href="#t" y="43.26984"/><use x="130.07953" xlink:href="#u" y="43.26984"/><use x="133.079532" xlink:href="#v" y="43.26984"/><use x="136.079534" xlink:href="#w" y="43.26984"/><use x="139.079536" xlink:href="#v" y="43.26984"/><use fill="#2e8b57" x="177.12" xlink:href="#a" y="9.6698"/><g fill="#2e8b57"><use x="180.12" xlink:href="#p" y="7.51003"/><use x="182.399975" xlink:href="#q" y="7.51003"/></g><use fill="#2e8b57" x="186.72" xlink:href="#b" y="9.6698"/><g fill="#2e8b57"><use x="190.080006" xlink:href="#c" y="9.6698"/><use x="193.080011" xlink:href="#d" y="9.6698"/></g><use fill="#2e8b57" x="194.880005" xlink:href="#e" y="9.6698"/><use fill="#2e8b57" x="198.480011" xlink:href="#f" y="9.6698"/><use fill="#2e8b57" x="201.36001" xlink:href="#g" y="9.6698"/><use x="246.24" xlink:href="#r" y="46.14992"/><use x="250.32008" xlink:href="#t" y="43.26984"/><use x="255.35992" xlink:href="#u" y="43.26984"/><use x="258.359934" xlink:href="#v" y="43.26984"/><use x="261.359948" xlink:href="#u" y="43.26984"/><use x="264.359963" xlink:href="#x" y="43.26984"/><use x="4.55992" xlink:href="#s" y="44.46984"/><use x="449.03992" xlink:href="#r" y="46.14992"/><use x="453.00008" xlink:href="#u" y="43.26984"/><use x="456.00007" xlink:href="#v" y="43.26984"/><use x="459.000059" xlink:href="#w" y="43.26984"/><use x="462.000049" xlink:href="#y" y="43.26984"/><g fill="#2e8b57"><use x="391.44" xlink:href="#h" y="14.4698"/><use x="393.720082" xlink:href="#f" y="14.4698"/><use x="396.600087" xlink:href="#i" y="14.4698"/><use x="400.200093" xlink:href="#h" y="14.4698"/><use x="402.480249" xlink:href="#f" y="14.4698"/><use x="405.360254" xlink:href="#g" y="14.4698"/><use x="407.880258" xlink:href="#f" y="14.4698"/><use x="410.76022" xlink:href="#j" y="14.4698"/><use x="414.240263" xlink:href="#k" y="14.4698"/><g><use x="416.160231" xlink:href="#c" y="14.4698"/><use x="419.160236" xlink:href="#l" y="14.4698"/></g><use x="422.520233" xlink:href="#d" y="14.4698"/><use x="424.320236" xlink:href="#f" y="14.4698"/><use x="428.640376" xlink:href="#b" y="14.4698"/><g><use x="432.000401" xlink:href="#c" y="14.4698"/><use x="435.000406" xlink:href="#d" y="14.4698"/></g><use x="436.800409" xlink:href="#e" y="14.4698"/><use x="440.400397" xlink:href="#f" y="14.4698"/><use x="400.92008" xlink:href="#d" y="8.94988"/><g><use x="402.720083" xlink:href="#c" y="8.94988"/><use x="405.720088" xlink:href="#h" y="8.94988"/></g><use x="408.00017" xlink:href="#m" y="8.94988"/><use x="411.360199" xlink:href="#f" y="8.94988"/><use x="414.240161" xlink:href="#g" y="8.94988"/><use x="416.760191" xlink:href="#k" y="8.94988"/><use x="420.1201" xlink:href="#n" y="8.94988"/><use x="423.720077" xlink:href="#j" y="8.94988"/><use x="427.200071" xlink:href="#o" y="8.94988"/><use x="429.000074" xlink:href="#k" y="8.94988"/><use x="430.920091" xlink:href="#f" y="8.94988"/></g></svg>