<svg height="292.52pt" viewBox="0 0 397.85 292.52" width="397.85pt" xmlns="http://www.w3.org/2000/svg" xmlns:xlink="http://www.w3.org/1999/xlink"><clipPath id="a"><path d="m267.421875 3.539062h126.878906v83.460938h-126.878906zm0 0"/></clipPath><clipPath id="b"><path d="m267.421875 47h44.578125v83.421875h-44.578125zm0 0"/></clipPath><clipPath id="c"><path d="m267.421875 3.539062h126.878906v103.460938h-126.878906zm0 0"/></clipPath><clipPath id="d"><path d="m267.421875 27h83.578125v103.421875h-83.578125zm0 0"/></clipPath><clipPath id="e"><path d="m267.421875 7h126.878906v120h-126.878906zm0 0"/></clipPath><clipPath id="f"><path d="m267.421875 27h126.878906v103.421875h-126.878906zm0 0"/></clipPath><clipPath id="g"><path d="m310 3.539062h84.300781v103.460938h-84.300781zm0 0"/></clipPath><clipPath id="h"><path d="m267.421875 47h126.878906v83.421875h-126.878906zm0 0"/></clipPath><clipPath id="i"><path d="m350 3.539062h44.300781v83.460938h-44.300781zm0 0"/></clipPath><clipPath id="j"><path d="m267.421875 162.140625h25.578125v126.878906h-25.578125zm0 0"/></clipPath><clipPath id="k"><path d="m286 162.140625h34v126.878906h-34zm0 0"/></clipPath><clipPath id="l"><path d="m267.421875 252h126.878906v35h-126.878906zm0 0"/></clipPath><clipPath id="m"><path d="m314 162.140625h34v126.878906h-34zm0 0"/></clipPath><clipPath id="n"><path d="m267.421875 208h126.878906v35h-126.878906zm0 0"/></clipPath><clipPath id="o"><path d="m341 162.140625h34v126.878906h-34zm0 0"/></clipPath><clipPath id="p"><path d="m267.421875 164h126.878906v35h-126.878906zm0 0"/></clipPath><clipPath id="q"><path d="m369 162.140625h25.300781v126.878906h-25.300781zm0 0"/></clipPath><symbol id="r" overflow="visible"><path d="m-.3125-10.0625.421875 8.359375c.03125.78125-.046875 1.078125-.3125 1.375l-.171875.203125.203125.296875c.890625-.671875.890625-.671875 1.078125-.8125.1875-.125.203125-.140625 1.0625-.703125l-.1875-.28125-.515625.34375c-.171875.09375-.375.09375-.4375.015625-.046875-.078125-.078125-.25-.140625-.71875l-.203125-2.40625 2.421875-1.703125 1.546875 1.671875.015625.03125c.015625.015625.03125.03125.0625.09375.078125.0625.15625.15625.1875.203125.109375.140625.015625.34375-.234375.5625l-.421875.3125.1875.28125c.984375-.734375.984375-.734375 1.1875-.875.1875-.125.1875-.125 1.203125-.796875l-.1875-.28125-.265625.15625c-.515625.25-.515625.265625-.90625-.125l-5.125-5.53125zm.578125 1.09375 2.359375 2.578125-2.109375 1.46875zm0 0"/></symbol><symbol id="s" overflow="visible"><path d="m4.671875-8.25c.140625-.109375.34375-.25.203125-.453125-.125-.1875-.328125-.046875-.46875.0625l-6.109375 4.265625c-.140625.109375-.328125.234375-.203125.421875.140625.203125.328125.078125.484375-.03125zm1.390625 1.984375c.140625-.109375.34375-.25.203125-.453125s-.34375-.0625-.484375.046875l-6.09375 4.265625c-.15625.109375-.34375.234375-.203125.4375s.328125.078125.46875-.03125zm0 0"/></symbol><symbol id="t" overflow="visible"><path d="m18.609375 21.390625 2.578125-1.796875-.375-.546875-2.03125 1.421875-15.703125-22.421875 2.03125-1.421875-.375-.53125-2.578125 1.796875zm0 0"/></symbol><symbol id="u" overflow="visible"><path d="m17.96875 21.03125-2.03125 1.4375.375.546875 2.578125-1.8125-16.453125-23.5-2.578125 1.8125.375.53125 2.03125-1.4375zm0 0"/></symbol><symbol id="v" overflow="visible"><path d="m-3.15625-5.890625.09375-.078125.875-1.453125c-.015625-.015625 0-.015625.015625-.03125.046875-.03125.140625.046875.3125.28125l3.328125 4.75c.34375.5.328125.6875-.1875 1.078125l-.53125.421875.203125.296875c1.484375-1.09375 1.484375-1.09375 1.609375-1.171875s.328125-.234375.671875-.453125c.140625-.0625.46875-.296875.875-.59375l-.203125-.296875-.53125.328125c-.546875.359375-.75.3125-1.09375-.1875l-4.0625-5.8125-.171875.046875c-.40625.765625-.875 1.546875-1.546875 2.515625zm0 0"/></symbol><symbol id="w" overflow="visible"><path d="m0-.34375.171875.265625c1.8125-1.3125 1.8125-1.3125 2.171875-1.5625.34375-.234375.34375-.234375 2.25-1.53125-.15625-.1875-.21875-.28125-.3125-.421875-.09375-.125-.171875-.234375-.296875-.46875-1.09375.828125-1.546875 1.15625-3.328125 2.484375l.46875-3.171875c.25-1.640625.15625-2.390625-.359375-3.125-.78125-1.125-2.03125-1.296875-3.265625-.421875-.703125.484375-1.0625 1.03125-1.203125 1.84375l.78125 1.46875.28125-.203125-.1875-.5625c-.25-.65625-.046875-1.15625.59375-1.609375.84375-.59375 1.75-.453125 2.328125.375.53125.75.625 1.765625.328125 3.71875zm0 0"/></symbol><symbol id="x" overflow="visible"><path d="m5.078125-7.046875c.1875-.125.359375-.25.21875-.453125s-.3125-.078125-.5.046875l-5.515625 3.859375c-.171875.125-.359375.25-.21875.453125s.328125.078125.5-.046875zm0 0"/></symbol><symbol id="y" overflow="visible"><path d="m-2.140625 11.5.984375-5.21875c.03125-.21875-.015625-.25-.046875-.265625 0-.015625-.0625-.046875-.21875-.046875l-1.46875.0625c-.21875-.015625-.234375.03125-.25.046875-.046875.0625-.0625.15625 0 .203125s.34375.015625.515625 0c.09375 0 .328125 0 .5-.015625l-1.078125 5.828125c-.0625.21875-.015625.25.078125.3125.15625.109375.234375.078125.40625-.015625l11.34375-6.34375c.171875-.09375.203125-.125.21875-.15625.078125-.109375.046875-.265625-.0625-.34375-.078125-.0625-.1875-.0625-.375.0625zm0 0"/></symbol><symbol id="z" overflow="visible"><path d="m9.34375-3.75-7.703125 3.265625c-.71875.3125-1.015625.328125-1.40625.1875l-.234375-.109375-.203125.296875c.921875.609375.921875.609375 1.109375.75.1875.125.203125.140625 1.03125.765625l.1875-.28125-.484375-.375c-.140625-.125-.21875-.3125-.15625-.390625.046875-.078125.203125-.1875.609375-.375l2.203125-1.03125 2.421875 1.703125-1.046875 2.015625-.015625.03125c-.015625.015625-.03125.03125-.0625.09375-.046875.09375-.09375.1875-.125.234375-.109375.140625-.328125.125-.609375-.03125l-.453125-.28125-.1875.28125c1.015625.671875 1.015625.671875 1.21875.8125.1875.125.1875.125 1.171875.859375l.1875-.28125-.234375-.1875c-.421875-.40625-.421875-.421875-.1875-.90625l3.4375-6.71875zm-.828125.9375-1.609375 3.078125-2.109375-1.46875zm0 0"/></symbol><symbol id="A" overflow="visible"><path d="m4.484375-2.28125c.09375-.0625.1875-.109375.25-.1875.15625-.21875.0625-.546875-.15625-.703125s-.46875-.125-.65625.0625l-3.265625 2.6875c0 .015625-.09375.09375-.09375.09375-.0625.09375.09375.28125.15625.328125.046875.03125.078125 0 .1875-.046875zm0 0"/></symbol><g stroke-linecap="round" stroke-linejoin="round" stroke-miterlimit="10" transform="matrix(.1 0 0 -.1 0 292.52)"><g stroke="#000" stroke-width="4.99937"><path d="m1151.992188 1462.3875h-1039.492188" fill="none"/><path d="m1226.992188 1462.3875-75 20.078125v-40.15625zm0 0"/><path d="m37.5 1462.3875 75-20.078125v40.15625zm0 0"/><path d="m632.226562 942.621875v1039.53125" fill="none"/><path d="m632.226562 867.621875 20.117188 75h-40.195312zm0 0"/><path d="m632.226562 2057.153125-20.078124-75h40.195312zm0 0"/></g><g fill="none" stroke="#7f7f7f" stroke-width="1.99975"><path d="m235.742188 2057.153125v-1189.53125"/><path d="m1226.992188 1065.903125h-1189.492188"/><path d="m433.984375 2057.153125v-1189.53125"/><path d="m1226.992188 1264.145312h-1189.492188"/><path d="m632.226562 2057.153125v-1189.53125"/><path d="m1226.992188 1462.3875h-1189.492188"/><path d="m830.507812 2057.153125v-1189.53125"/><path d="m1226.992188 1660.629687h-1189.492188"/><path d="m1028.75 2057.153125v-1189.53125"/><path d="m1226.992188 1858.871875h-1189.492188"/></g></g><path d="m83.050781 146.28125c6.0625-2.664062 8.03125-9.335938 3.964844-11.894531-6.363281-4.003907-11.34375 10.890625-17.84375 5.949219-7.050781-5.367188 8.234375-14.402344 1.984375-19.828126-9.320312-8.085937-8.1875 11.578126-13.878906 17.84375-5.789063 6.367188-20.601563-2.386718-23.789063 7.929688-1.632812 5.273438 3.566407 10.152344 9.910157 9.910156 5.738281-.214844 10.453124-4.140625 15.859374-5.945312 7.699219-2.566406 16.335938-.691406 23.792969-3.964844" fill-opacity=".1"/><path d="m830.507812 1462.3875c60.625 26.640625 80.3125 93.359375 39.648438 118.945312-63.632812 40.039063-113.4375-108.90625-178.4375-59.492187-70.507812 53.671875 82.34375 144.023437 19.84375 198.28125-93.203125 80.859375-81.875-115.78125-138.789062-178.4375-57.890626-63.671875-206.015626 23.867187-237.890626-79.296875-16.328124-52.734375 35.664063-101.523438 99.101563-99.101563 57.382813 2.148438 104.53125 41.40625 158.59375 59.453125 76.992187 25.664063 163.359375 6.914063 237.929687 39.648438zm0 0" style="fill:none;stroke-width:4.99937;stroke-linecap:round;stroke-linejoin:round;stroke:#000;stroke-miterlimit:10" transform="matrix(.1 0 0 -.1 0 292.52)"/><path d="m3828.359375 2255.395312h-1039.492187" style="fill:none;stroke-width:4.99937;stroke-linecap:round;stroke-linejoin:round;stroke:#000;stroke-miterlimit:10" transform="matrix(.1 0 0 -.1 0 292.52)"/><path d="m3903.359375 2255.395312-75 20.078125v-40.195312zm0 0" stroke="#000" stroke-linecap="round" stroke-linejoin="round" stroke-miterlimit="10" stroke-width="4.99937" transform="matrix(.1 0 0 -.1 0 292.52)"/><path d="m2713.867188 2255.395312 75-20.117187v40.195312zm0 0" stroke="#000" stroke-linecap="round" stroke-linejoin="round" stroke-miterlimit="10" stroke-width="4.99937" transform="matrix(.1 0 0 -.1 0 292.52)"/><path d="m3308.59375 1735.629687v1039.492188" style="fill:none;stroke-width:4.99937;stroke-linecap:round;stroke-linejoin:round;stroke:#000;stroke-miterlimit:10" transform="matrix(.1 0 0 -.1 0 292.52)"/><path d="m3308.59375 1660.629687 20.117188 75h-40.195313zm0 0" stroke="#000" stroke-linecap="round" stroke-linejoin="round" stroke-miterlimit="10" stroke-width="4.99937" transform="matrix(.1 0 0 -.1 0 292.52)"/><path d="m3308.59375 2850.121875-20.078125-75h40.195313zm0 0" stroke="#000" stroke-linecap="round" stroke-linejoin="round" stroke-miterlimit="10" stroke-width="4.99937" transform="matrix(.1 0 0 -.1 0 292.52)"/><g clip-path="url(#a)"><path d="m4101.601562 3246.645312-2378.984374-1189.492187" style="fill:none;stroke-width:1.99975;stroke-linecap:round;stroke-linejoin:round;stroke:#7f7f7f;stroke-miterlimit:10" transform="matrix(.1 0 0 -.1 0 292.52)"/></g><g clip-path="url(#b)"><path d="m3110.351562 1264.145312-1189.492187 1189.492188" style="fill:none;stroke-width:1.99975;stroke-linecap:round;stroke-linejoin:round;stroke:#7f7f7f;stroke-miterlimit:10" transform="matrix(.1 0 0 -.1 0 292.52)"/></g><g clip-path="url(#c)"><path d="m4299.84375 3048.364062-2378.984375-1189.492187" style="fill:none;stroke-width:1.99975;stroke-linecap:round;stroke-linejoin:round;stroke:#7f7f7f;stroke-miterlimit:10" transform="matrix(.1 0 0 -.1 0 292.52)"/></g><g clip-path="url(#d)"><path d="m3506.875 1462.3875-1189.53125 1189.492187" style="fill:none;stroke-width:1.99975;stroke-linecap:round;stroke-linejoin:round;stroke:#7f7f7f;stroke-miterlimit:10" transform="matrix(.1 0 0 -.1 0 292.52)"/></g><g clip-path="url(#e)"><path d="m4498.085938 2850.121875-2378.984376-1189.492188" style="fill:none;stroke-width:1.99975;stroke-linecap:round;stroke-linejoin:round;stroke:#7f7f7f;stroke-miterlimit:10" transform="matrix(.1 0 0 -.1 0 292.52)"/></g><path d="m3903.359375 1660.629687-1189.492187 1189.492188" style="fill:none;stroke-width:1.99975;stroke-linecap:round;stroke-linejoin:round;stroke:#7f7f7f;stroke-miterlimit:10" transform="matrix(.1 0 0 -.1 0 292.52)"/><g clip-path="url(#f)"><path d="m4696.367188 2651.879687-2379.023438-1189.492187" style="fill:none;stroke-width:1.99975;stroke-linecap:round;stroke-linejoin:round;stroke:#7f7f7f;stroke-miterlimit:10" transform="matrix(.1 0 0 -.1 0 292.52)"/></g><g clip-path="url(#g)"><path d="m4299.84375 1858.871875-1189.492188 1189.492187" style="fill:none;stroke-width:1.99975;stroke-linecap:round;stroke-linejoin:round;stroke:#7f7f7f;stroke-miterlimit:10" transform="matrix(.1 0 0 -.1 0 292.52)"/></g><g clip-path="url(#h)"><path d="m4894.609375 2453.6375-2378.984375-1189.492188" style="fill:none;stroke-width:1.99975;stroke-linecap:round;stroke-linejoin:round;stroke:#7f7f7f;stroke-miterlimit:10" transform="matrix(.1 0 0 -.1 0 292.52)"/></g><g clip-path="url(#i)"><path d="m4696.367188 2057.153125-1189.492188 1189.492187" style="fill:none;stroke-width:1.99975;stroke-linecap:round;stroke-linejoin:round;stroke:#7f7f7f;stroke-miterlimit:10" transform="matrix(.1 0 0 -.1 0 292.52)"/></g><path d="m350.6875 86.804688c11.386719 3.402343 26.699219-1.296876 27.753906-7.929688 1.648438-10.367188-33.128906-.449219-29.738281-11.894531 3.679687-12.414063 37.03125-6.164063 41.632813-17.839844 6.855468-17.410156-31.339844 3.390625-49.5625 3.964844-18.527344.582031-15.832032-22.988281-39.652344-15.863281-12.175782 3.644531-16.734375 13.722656-9.910156 19.828124 6.171874 5.519532 18.742187 6.308594 27.753906 9.910157 12.832031 5.132812 17.722656 15.644531 31.722656 19.824219" fill="#c00" fill-opacity=".1"/><g stroke-linecap="round" stroke-linejoin="round" stroke-miterlimit="10" stroke-width="4.99937" transform="matrix(.1 0 0 -.1 0 292.52)"><path d="m3506.875 2057.153125c113.867188-34.023438 266.992188 12.96875 277.539062 79.296875 16.484376 103.671875-331.289062 4.492187-297.382812 118.945312 36.796875 124.140625 370.3125 61.640625 416.328125 178.398438 68.554687 174.101562-313.398437-33.90625-495.625-39.648438-185.273437-5.820312-158.320313 229.882813-396.523437 158.632813-121.757813-36.445313-167.34375-137.226563-99.101563-198.28125 61.71875-55.195313 187.421875-63.085938 277.539063-99.101563 128.320312-51.328125 177.226562-156.445312 317.226562-198.242187zm0 0" fill="none" stroke="#8b0000"/><path d="m2452.851562 2214.301562-1027.617187-672.617187" fill="none" stroke="#8b0000"/><path d="m2515.625 2255.395312-73.75-24.257812 21.992188-33.632813zm0 0" fill="#8b0000" stroke="#8b0000"/><g stroke="#000"><path d="m3828.359375 669.379687h-1039.492187" fill="none"/><path d="m3903.359375 669.379687-75 20.117188v-40.195313zm0 0"/><path d="m2713.867188 669.379687 75-20.078125v40.195313zm0 0"/><path d="m3308.59375 149.653125v1039.492187" fill="none"/><path d="m3308.59375 74.653125 20.117188 75h-40.195313zm0 0"/><path d="m3308.59375 1264.145312-20.078125-75h40.195313zm0 0"/></g></g><g clip-path="url(#j)"><path d="m2923.710938 1879.067187-329.882813-2639.257812" style="fill:none;stroke-width:1.99975;stroke-linecap:round;stroke-linejoin:round;stroke:#7f7f7f;stroke-miterlimit:10" transform="matrix(.1 0 0 -.1 0 292.52)"/></g><g clip-path="url(#k)"><path d="m3198.632812 1934.028125-329.921874-2639.257813" style="fill:none;stroke-width:1.99975;stroke-linecap:round;stroke-linejoin:round;stroke:#7f7f7f;stroke-miterlimit:10" transform="matrix(.1 0 0 -.1 0 292.52)"/></g><g clip-path="url(#l)"><path d="m4078.398438 394.457812-1649.53125-329.882812" style="fill:none;stroke-width:1.99975;stroke-linecap:round;stroke-linejoin:round;stroke:#7f7f7f;stroke-miterlimit:10" transform="matrix(.1 0 0 -.1 0 292.52)"/></g><g clip-path="url(#m)"><path d="m3473.554688 1989.028125-329.921876-2639.257813" style="fill:none;stroke-width:1.99975;stroke-linecap:round;stroke-linejoin:round;stroke:#7f7f7f;stroke-miterlimit:10" transform="matrix(.1 0 0 -.1 0 292.52)"/></g><g clip-path="url(#n)"><path d="m4133.359375 834.340625-1649.53125-329.882813" style="fill:none;stroke-width:1.99975;stroke-linecap:round;stroke-linejoin:round;stroke:#7f7f7f;stroke-miterlimit:10" transform="matrix(.1 0 0 -.1 0 292.52)"/></g><g clip-path="url(#o)"><path d="m3748.476562 2043.989062-329.921874-2639.257812" style="fill:none;stroke-width:1.99975;stroke-linecap:round;stroke-linejoin:round;stroke:#7f7f7f;stroke-miterlimit:10" transform="matrix(.1 0 0 -.1 0 292.52)"/></g><g clip-path="url(#p)"><path d="m4188.359375 1274.223437-1649.53125-329.921875" style="fill:none;stroke-width:1.99975;stroke-linecap:round;stroke-linejoin:round;stroke:#7f7f7f;stroke-miterlimit:10" transform="matrix(.1 0 0 -.1 0 292.52)"/></g><g clip-path="url(#q)"><path d="m4023.398438 2098.989062-329.882813-2639.257812" style="fill:none;stroke-width:1.99975;stroke-linecap:round;stroke-linejoin:round;stroke:#7f7f7f;stroke-miterlimit:10" transform="matrix(.1 0 0 -.1 0 292.52)"/></g><path d="m358.351562 220.082031c9.152344-7.589843 13.730469-22.9375 8.796876-27.492187-7.710938-7.121094-18.75 27.316406-26.390626 18.144531-8.289062-9.949219 15.414063-34.230469 8.246094-44.539063-10.679687-15.359374-14.558594 27.957032-24.191406 43.441407-9.792969 15.734375-27.90625.421875-35.191406 24.191406-3.722656 12.152344 2.136718 21.539063 10.996094 19.246094 8.019531-2.078125 15.648437-12.097657 23.644531-17.597657 11.386719-7.828124 22.847656-6.066406 34.089843-15.394531" fill="#005000" fill-opacity=".1"/><path d="m3583.515625 724.379687c91.523437 75.898438 137.304687 229.375 87.96875 274.921875-77.109375 71.210938-187.5-273.164062-263.90625-181.445312-82.890625 99.492187 154.140625 342.304687 82.460937 445.390625-106.796874 153.59375-145.585937-279.570313-241.914062-434.414063-97.929688-157.34375-279.0625-4.21875-351.914062-241.914062-37.226563-121.523438 21.367187-215.390625 109.960937-192.460938 80.195313 20.78125 156.484375 120.976563 236.445313 175.976563 113.867187 78.28125 228.476562 60.664062 340.898437 153.945312zm0 0" style="fill:none;stroke-width:4.99937;stroke-linecap:round;stroke-linejoin:round;stroke:#006400;stroke-miterlimit:10" transform="matrix(.1 0 0 -.1 0 292.52)"/><path d="m2452.851562 710.473437-1027.617187 672.617188" style="fill:none;stroke-width:4.99937;stroke-linecap:round;stroke-linejoin:round;stroke:#006400;stroke-miterlimit:10" transform="matrix(.1 0 0 -.1 0 292.52)"/><path d="m2515.625 669.379687-51.757812 57.890625-21.992188-33.632812zm0 0" style="fill:#006400;stroke-width:4.99937;stroke-linecap:round;stroke-linejoin:round;stroke:#006400;stroke-miterlimit:10" transform="matrix(.1 0 0 -.1 0 292.52)"/><g fill="#8b0000"><use x="154.265" xlink:href="#r" y="114.43"/><use x="164.291" xlink:href="#s" y="107.409"/><use x="165.498" xlink:href="#t" y="85.909"/><use x="184.471025" xlink:href="#v" y="84.343384"/><use x="197.544848" xlink:href="#w" y="75.189001"/><use x="184.67" xlink:href="#x" y="101.783"/><use x="192.73" xlink:href="#v" y="96.139"/><use x="205.803823" xlink:href="#v" y="86.984617"/><use x="197.050643" xlink:href="#u" y="63.815081"/></g><use fill="#006400" x="178.143" xlink:href="#y" y="182.145"/><path d="m187.121094 187.714844 18.382812 12.871094-.34375.492187-18.382812-12.871094zm0 0" fill="#006400"/><use fill="#006400" x="181.327" xlink:href="#z" y="197.2649"/><use fill="#006400" x="190.596" xlink:href="#A" y="199.5079"/><use fill="#006400" x="191.845" xlink:href="#z" y="204.6298"/></svg>