<svg height="210.5pt" viewBox="0 0 270.177 210.5" width="270.177pt" xmlns="http://www.w3.org/2000/svg" xmlns:xlink="http://www.w3.org/1999/xlink"><clipPath id="a"><path d="m49 17h2v193.5h-2zm0 0"/></clipPath><symbol id="b" overflow="visible"><path d="m1.5-7.15625-.09375-.078125c-.4375.171875-.765625.25-1.5625.359375v.28125h.5625c.1875 0 .25.109375.25.40625v4.65625c0 .625-.015625.890625-.078125 1.59375l.15625.0625.40625-.359375c.390625.25.75.359375 1.28125.359375.390625 0 .65625-.078125.859375-.21875l1-.71875c.4375-.328125.78125-1.15625.78125-1.875 0-1.15625-.75-1.984375-1.796875-1.984375-.46875 0-.96875.171875-1.21875.4375l-.546875.5625zm0 4.078125c0-.125.09375-.3125.25-.484375.28125-.296875.671875-.46875 1.078125-.46875.84375 0 1.375.6875 1.375 1.75 0 1.109375-.609375 1.890625-1.453125 1.890625-.515625 0-1.25-.3125-1.25-.53125zm0 0"/></symbol><symbol id="c" overflow="visible"><path d="m1.875-4.640625-.09375-.03125c-.5.203125-1.03125.34375-1.546875.40625v.28125h.359375c.40625 0 .4375.0625.4375.71875v2.25c0 .625-.03125.703125-.359375.71875l-.46875.03125v.296875c1-.03125 1-.03125 1.25-.03125s.25 0 1.25.03125v-.296875l-.453125-.03125c-.34375-.015625-.375-.09375-.375-.71875zm-.453125-2.203125c-.3125 0-.5625.25-.5625.546875s.25.5625.546875.5625c.28125 0 .5625-.265625.5625-.5625 0-.265625-.28125-.546875-.546875-.546875zm0 0"/></symbol><symbol id="d" overflow="visible"><path d="m4.09375.03125c.59375-.03125.609375-.03125.78125-.03125.140625 0 .140625 0 .828125.03125v-.296875l-.40625-.03125c-.34375-.015625-.375-.078125-.375-.71875v-1.921875c0-1.171875-.546875-1.734375-1.65625-1.734375-.375 0-.578125.0625-.796875.25l-.75.65625v-.875l-.09375-.03125c-.515625.203125-1.03125.34375-1.5625.40625v.28125h.375c.40625 0 .4375.0625.4375.71875v2.25c0 .625-.03125.703125-.359375.71875l-.453125.03125v.296875c.671875-.015625.9375-.03125 1.234375-.03125.28125 0 .5625.015625 1.234375.03125v-.296875l-.453125-.03125c-.328125-.015625-.359375-.09375-.359375-.71875v-2.109375c0-.453125.65625-.9375 1.265625-.9375.671875 0 1.109375.5 1.109375 1.265625zm0 0"/></symbol><symbol id="e" overflow="visible"><path d="m3.234375-.8125-.046875.84375c.640625-.03125.640625-.03125.765625-.03125.046875 0 .296875.015625.734375.03125v-.296875l-.375-.03125c-.25 0-.28125-.078125-.28125-.578125v-1.8125c0-1.453125-.421875-1.984375-1.578125-1.984375-.421875 0-.828125.109375-1.203125.328125l-.53125.328125v.640625l.265625.078125.125-.3125c.203125-.46875.3125-.53125.765625-.53125.9375 0 1.328125.359375 1.359375 1.265625l-.984375.1875c-1.359375.25-1.9375.71875-1.9375 1.578125 0 .78125.46875 1.234375 1.265625 1.234375.171875 0 .34375-.03125.421875-.078125zm0-.421875c-.296875.40625-.921875.78125-1.3125.78125s-.75-.359375-.75-.796875c0-.359375.203125-.71875.5-.90625.25-.140625.796875-.28125 1.5625-.390625zm0 0"/></symbol><symbol id="f" overflow="visible"><path d="m.234375-3.984375h.359375c.40625 0 .4375.0625.4375.71875v2.25c0 .625-.03125.703125-.359375.71875l-.46875.03125v.296875c.71875-.015625.984375-.03125 1.234375-.03125.203125 0 .203125 0 1.421875.03125v-.296875l-.515625-.03125c-.453125-.03125-.46875-.0625-.46875-.71875v-1.71875c0-.59375.390625-1.09375.890625-1.09375.296875 0 .5.140625.65625.453125h.21875l.09375-1.1875c-.109375-.078125-.296875-.109375-.46875-.109375-.3125 0-.625.15625-.828125.40625l-.5625.65625v-1.03125l-.09375-.03125c-.5.203125-1.03125.34375-1.546875.40625zm0 0"/></symbol><symbol id="g" overflow="visible"><path d="m2.953125-.859375c-.21875-.375-.328125-.609375-.5-1.09375l-.640625-1.671875c-.0625-.171875-.09375-.328125-.09375-.421875 0-.140625.109375-.21875.328125-.234375l.390625-.015625v-.28125c-.96875.03125-.96875.03125-1.15625.03125s-.1875 0-1.15625-.03125v.28125l.171875.015625c.25.03125.375.140625.515625.5l1.09375 2.609375c.28125.671875.375.90625.5625 1.40625l-.234375.609375c-.328125.84375-.703125 1.3125-1.09375 1.3125-.15625 0-.328125-.078125-.5-.234375h-.125l-.25.75c.1875.09375.359375.15625.546875.15625.65625 0 1.09375-.359375 1.46875-1.234375l2.03125-4.671875c.390625-.90625.578125-1.171875.828125-1.203125l.28125-.015625v-.28125c-.78125.03125-.78125.03125-.953125.03125-.15625 0-.15625 0-.9375-.03125v.28125l.25.015625c.28125.03125.421875.109375.421875.25 0 .078125-.015625.15625-.0625.265625zm0 0"/></symbol><symbol id="h" overflow="visible"><path d="m5.375-4.296875v-.28125c-.59375.015625-.78125.03125-.9375.03125s-.34375-.015625-.9375-.03125v.28125l.40625.015625c.15625.015625.234375.109375.234375.265625s-.0625.421875-.1875.71875l-.421875 1.0625c-.109375.296875-.234375.5625-.609375 1.390625l-1.1875-2.859375c-.0625-.140625-.09375-.28125-.09375-.390625s.09375-.171875.25-.1875l.484375-.015625v-.28125c-.96875.03125-.96875.03125-1.15625.03125s-.671875-.015625-1.15625-.03125v.28125l.34375.015625c.140625.03125.1875.078125.296875.328125l1.71875 4.015625h.5c.0625-.15625.15625-.421875.15625-.4375.109375-.296875.234375-.640625.25-.640625l1.171875-2.59375c.21875-.46875.359375-.640625.5625-.671875zm0 0"/></symbol><symbol id="i" overflow="visible"><path d="m.234375-6.59375h.546875c.1875 0 .25.109375.25.40625v5.171875c0 .625-.03125.703125-.359375.71875l-.46875.03125v.296875c1-.03125 1-.03125 1.25-.03125s.25 0 1.25.03125v-.296875l-.453125-.03125c-.34375-.015625-.375-.09375-.375-.71875v-6.140625l-.09375-.078125c-.4375.171875-.765625.25-1.546875.359375zm0 0"/></symbol><symbol id="j" overflow="visible"><path d="m5.015625-4.640625-.09375-.03125c-.5.203125-1.03125.34375-1.546875.40625v.28125h.359375c.40625 0 .4375.0625.4375.71875v1.625c0 .21875-.140625.5-.359375.734375-.28125.28125-.609375.421875-.984375.421875-.359375 0-.640625-.109375-.796875-.296875-.140625-.171875-.203125-.46875-.203125-.90625v-2.953125l-.09375-.03125c-.515625.203125-1.03125.34375-1.5625.40625v.28125h.375c.40625 0 .4375.0625.4375.71875v1.6875c0 .6875.0625 1 .234375 1.25.234375.296875.609375.453125 1.171875.453125.453125 0 .84375-.140625 1.125-.390625l.65625-.625c0 .296875 0 .453125-.03125.921875.671875-.03125.671875-.03125.828125-.03125.140625 0 .140625 0 .828125.03125v-.296875l-.40625-.03125c-.34375-.015625-.375-.078125-.375-.71875zm0 0"/></symbol><symbol id="k" overflow="visible"><path d="m4.359375-.703125-.125-.09375c-.640625.375-.875.46875-1.296875.46875-.65625 0-1.1875-.296875-1.46875-.78125-.1875-.328125-.265625-.609375-.28125-1.1875h1.453125c.6875 0 1.125-.03125 1.8125-.140625 0-.140625.015625-.21875.015625-.34375 0-1.140625-.734375-1.890625-1.859375-1.890625-.359375 0-.796875.125-1.203125.359375-.8125.46875-1.140625 1.09375-1.140625 2.125 0 .625.140625 1.171875.40625 1.546875.40625.53125 1.078125.84375 1.828125.84375.359375 0 .734375-.078125 1.140625-.265625.265625-.109375.46875-.234375.515625-.296875zm-.78125-1.953125c-.515625.015625-.75.03125-1.109375.03125-.46875 0-.71875-.015625-1.265625-.0625 0-.46875.046875-.6875.171875-.953125.203125-.4375.640625-.703125 1.125-.703125.328125 0 .578125.125.765625.390625.21875.328125.28125.625.3125 1.296875zm0 0"/></symbol><symbol id="l" overflow="visible"><path d="m2.15625-5.671875c0-.78125.046875-.875.5-.890625l.484375-.03125v-.296875c-.734375.015625-.953125.015625-1.46875.015625-.5 0-.734375 0-1.453125-.015625v.296875l.484375.03125c.453125.015625.5.109375.5.890625v4.46875c0 .796875-.046875.875-.5.90625l-.484375.03125v.296875c.59375-.015625.9375-.03125 1.453125-.03125s.875.015625 1.46875.03125v-.296875l-.484375-.03125c-.453125-.03125-.5-.109375-.5-.90625zm0 0"/></symbol><symbol id="m" overflow="visible"><path d="m.984375-3.8125v2.875c0 .734375.328125 1.0625 1.09375 1.0625.21875 0 .46875-.0625.53125-.125l.46875-.53125-.125-.171875c-.25.140625-.40625.1875-.59375.1875-.390625 0-.546875-.1875-.546875-.6875v-2.609375h1.28125l.09375-.53125-1.375.0625v-.390625c0-.40625.03125-.765625.109375-1.40625l-.125-.109375c-.234375.140625-.53125.28125-.84375.375.03125.296875.046875.484375.046875.78125v.703125l-.78125.34375v.21875zm0 0"/></symbol><symbol id="n" overflow="visible"><path d="m4.140625-6.703125-.359375-.171875c-.953125.328125-1.375.53125-1.875.96875-1.03125.859375-1.59375 2.078125-1.59375 3.4375 0 1.65625.796875 2.671875 2.09375 2.671875s2.265625-1.03125 2.265625-2.390625c0-1.140625-.6875-1.890625-1.75-1.890625-.5 0-.796875.125-1.390625.59375-.109375.09375-.109375.109375-.21875.1875.203125-1.8125 1.046875-2.78125 2.828125-3.328125zm-1.59375 3.21875c.75 0 1.265625.65625 1.265625 1.65625 0 1.03125-.515625 1.703125-1.28125 1.703125-.84375 0-1.3125-.734375-1.3125-2.0625 0-.359375.046875-.546875.15625-.71875.21875-.328125.6875-.578125 1.171875-.578125zm0 0"/></symbol><symbol id="o" overflow="visible"><path d="m2.796875-1.796875v.734375c0 .609375-.109375.75-.609375.765625l-.609375.03125v.296875c1.328125-.03125 1.328125-.03125 1.5625-.03125s.234375 0 1.5625.03125v-.296875l-.46875-.03125c-.5-.03125-.609375-.15625-.609375-.765625v-.734375c.59375 0 .796875 0 1.078125.03125v-.703125c-.46875.03125-.65625.03125-.8125.03125h-.265625v-1.390625c0-1.78125.03125-2.625.078125-3.046875l-.125-.046875-.734375.265625-2.828125 4.625.109375.234375zm0-.640625h-2.15625l2.15625-3.515625zm0 0"/></symbol><symbol id="p" overflow="visible"><path d="m.15625-.234375v.265625c1.875-.03125 1.875-.03125 2.21875-.03125.359375 0 .359375 0 2.296875.03125-.03125-.203125-.03125-.3125-.03125-.453125 0-.125 0-.21875.03125-.453125-1.15625.0625-1.609375.0625-3.453125.109375l1.8125-1.921875c.96875-1.03125 1.265625-1.578125 1.265625-2.328125 0-1.140625-.78125-1.859375-2.046875-1.859375-.71875 0-1.203125.203125-1.6875.703125l-.171875 1.359375h.28125l.140625-.46875c.15625-.578125.515625-.8125 1.1875-.8125.84375 0 1.40625.53125 1.40625 1.375 0 .75-.421875 1.484375-1.546875 2.6875zm0 0"/></symbol><symbol id="q" overflow="visible"><path d="m3.15625-5.09375-.28125-.125c-.734375.234375-1.046875.390625-1.421875.71875-.78125.671875-1.203125 1.59375-1.203125 2.625 0 1.25.59375 2.03125 1.578125 2.03125s1.71875-.78125 1.71875-1.8125c0-.875-.515625-1.4375-1.328125-1.4375-.375 0-.609375.09375-1.046875.453125-.09375.0625-.09375.078125-.171875.125.15625-1.359375.78125-2.109375 2.15625-2.515625zm-1.21875 2.453125c.578125 0 .953125.5.953125 1.25 0 .78125-.375 1.296875-.96875 1.296875-.640625 0-.984375-.5625-.984375-1.578125 0-.265625.03125-.40625.109375-.53125.171875-.265625.515625-.4375.890625-.4375zm0 0"/></symbol><symbol id="r" overflow="visible"><path d="m.328125-3.78125h.234375l.140625-.421875c.078125-.25.5625-.515625.953125-.515625.484375 0 .890625.40625.890625.890625 0 .5625-.453125 1.046875-.984375 1.046875-.0625 0-.140625-.015625-.25-.015625l-.109375-.015625-.09375.40625.0625.046875c.28125-.140625.421875-.171875.625-.171875.640625 0 1 .40625 1 1.09375 0 .765625-.46875 1.28125-1.171875 1.28125-.34375 0-.65625-.109375-.875-.328125-.1875-.171875-.28125-.34375-.4375-.75l-.203125.078125c.15625.453125.21875.734375.265625 1.109375.40625.140625.734375.203125 1.015625.203125.609375 0 1.3125-.34375 1.71875-.859375.265625-.3125.390625-.640625.390625-1s-.15625-.671875-.421875-.859375c-.1875-.140625-.359375-.203125-.75-.265625.609375-.46875.84375-.828125.84375-1.265625 0-.6875-.5625-1.125-1.40625-1.125-.515625 0-.859375.140625-1.21875.5zm0 0"/></symbol><symbol id="s" overflow="visible"><path d="m2.125-1.375v.578125c0 .453125-.09375.546875-.453125.5625l-.46875.03125v.21875c1-.015625 1-.015625 1.1875-.015625.171875 0 .171875 0 1.1875.015625v-.21875l-.359375-.03125c-.375-.015625-.453125-.109375-.453125-.5625v-.578125c.4375 0 .59375.015625.8125.03125v-.53125c-.359375.03125-.5.03125-.609375.015625h-.203125v-1.046875c0-1.359375.015625-2 .046875-2.3125l-.09375-.046875-.5625.21875-2.140625 3.5.078125.171875zm0-.484375h-1.625l1.625-2.671875zm0 0"/></symbol><g clip-path="url(#a)"><path d="m191.998437 448.001562v-192" fill="none" stroke="#bebebe" stroke-linejoin="round" stroke-miterlimit="10" stroke-width="1.2" transform="matrix(1 0 0 -1 -142.1 465.9)"/></g><path d="m191.998437 352.001562h176.000001" fill="none" stroke="#bebebe" stroke-linejoin="round" stroke-miterlimit="10" stroke-width="1.2" transform="matrix(1 0 0 -1 -142.1 465.9)"/><path d="m191.998437 352.001562 80.000001 80" fill="none" stroke="#000080" stroke-linejoin="round" stroke-miterlimit="10" stroke-width="1.2" transform="matrix(1 0 0 -1 -142.1 465.9)"/><path d="m271.998438 272.001562 80 80" fill="none" stroke="#00008b" stroke-linejoin="round" stroke-miterlimit="10" stroke-width="1.2" transform="matrix(1 0 0 -1 -142.1 465.9)"/><g><use x="213.736" xlink:href="#b" y="106.843"/><use x="219.245318" xlink:href="#c" y="106.843"/><use x="222.144434" xlink:href="#d" y="106.843"/><use x="227.942668" xlink:href="#e" y="106.843"/><use x="232.923968" xlink:href="#f" y="106.843"/><use x="236.859195" xlink:href="#g" y="106.843"/></g><g><use x="244.88905" xlink:href="#h" y="106.843"/><use x="250.517919" xlink:href="#e" y="106.843"/><use x="255.499219" xlink:href="#i" y="106.843"/><use x="258.398336" xlink:href="#j" y="106.843"/><use x="264.405784" xlink:href="#k" y="106.843"/></g><g><use x="51.949" xlink:href="#l" y="13.136"/><use x="55.306396" xlink:href="#d" y="13.136"/><use x="61.104629" xlink:href="#m" y="13.136"/><use x="64.352437" xlink:href="#n" y="13.136"/><use x="69.333737" xlink:href="#o" y="13.136"/></g><g><use x="76.805687" xlink:href="#h" y="13.136"/><use x="82.434556" xlink:href="#e" y="13.136"/><use x="87.415856" xlink:href="#i" y="13.136"/><use x="90.314973" xlink:href="#j" y="13.136"/><use x="96.32242" xlink:href="#k" y="13.136"/></g><g fill-rule="evenodd"><path d="m132.898438 33.898438c0-1.65625-1.339844-3-3-3-1.65625 0-3 1.34375-3 3 0 1.660156 1.34375 3 3 3 1.660156 0 3-1.339844 3-3" fill="#000080"/><path d="m131.101562 33.898438c0-.660157-.539062-1.199219-1.203124-1.199219-.660157 0-1.199219.539062-1.199219 1.199219 0 .664062.539062 1.203124 1.199219 1.203124.664062 0 1.203124-.539062 1.203124-1.203124" fill="#fff"/><path d="m3.101562 65.898438c0-.660157-.539062-1.199219-1.203124-1.199219-.660157 0-1.199219.539062-1.199219 1.199219 0 .664062.539062 1.203124 1.199219 1.203124.664062 0 1.203124-.539062 1.203124-1.203124" fill="#fff"/><path d="m51.101562 1.898438c0-.660157-.539062-1.199219-1.203124-1.199219-.660157 0-1.199219.539062-1.199219 1.199219 0 .664062.539062 1.203124 1.199219 1.203124.664062 0 1.203124-.539062 1.203124-1.203124" fill="#fff"/></g><use x="123.888" xlink:href="#p" y="131.4"/><g><use x="128.869" xlink:href="#q" y="127.784"/><use x="132.6548" xlink:href="#r" y="127.784"/></g><use x="203.823" xlink:href="#p" y="131.232"/><g><use x="208.804" xlink:href="#q" y="127.616"/><use x="212.5898" xlink:href="#s" y="127.616"/></g><path d="m352.135156 352.001562-.0625-5.863281" fill="none" stroke="#a9a9a9" stroke-linejoin="round" stroke-miterlimit="10" stroke-width="1.2" transform="matrix(1 0 0 -1 -142.1 465.9)"/><path d="m271.713281 352.001562.039063-3.914062" fill="none" stroke="#a9a9a9" stroke-linejoin="round" stroke-miterlimit="10" stroke-width="1.2" transform="matrix(1 0 0 -1 -142.1 465.9)"/><path d="m191.998437 431.970312 4.464844.015625" fill="none" stroke="#bebebe" stroke-linejoin="round" stroke-miterlimit="10" stroke-width="1.2" transform="matrix(1 0 0 -1 -142.1 465.9)"/><use fill="#bebebe" x="32.124" xlink:href="#p" y="38.524"/><g fill="#bebebe"><use x="37.105" xlink:href="#q" y="34.908"/><use x="40.8908" xlink:href="#r" y="34.908"/></g><path d="m132.898438 193.898438c0-1.65625-1.339844-3-3-3-1.65625 0-3 1.34375-3 3 0 1.660156 1.34375 3 3 3 1.660156 0 3-1.339844 3-3" fill="#000080" fill-rule="evenodd"/><path d="m52.898438 113.898438c0-1.65625-1.339844-3-3-3-1.65625 0-3 1.34375-3 3 0 1.660156 1.34375 3 3 3 1.660156 0 3-1.339844 3-3" fill="#000080" fill-rule="evenodd"/><path d="m212.898438 113.898438c0-1.65625-1.339844-3-3-3-1.65625 0-3 1.34375-3 3 0 1.660156 1.34375 3 3 3 1.660156 0 3-1.339844 3-3" fill="#000080" fill-rule="evenodd"/><path d="m211.101562 113.898438c0-.660157-.539062-1.199219-1.203124-1.199219-.660157 0-1.199219.539062-1.199219 1.199219 0 .664062.539062 1.203124 1.199219 1.203124.664062 0 1.203124-.539062 1.203124-1.203124" fill="#fff" fill-rule="evenodd"/></svg>