<svg height="76.78pt" viewBox="0 0 567.93 76.78" width="567.93pt" xmlns="http://www.w3.org/2000/svg" xmlns:xlink="http://www.w3.org/1999/xlink"><symbol id="a" overflow="visible"><path d="m2.109375-5.515625c-1.25 0-1.875.984375-1.875 2.921875 0 .9375.171875 1.75.453125 2.140625.265625.390625.71875.609375 1.21875.609375 1.203125 0 1.8125-1.03125 1.8125-3.078125 0-1.765625-.515625-2.59375-1.609375-2.59375zm-.15625.28125c.78125 0 1.09375.78125 1.09375 2.703125 0 1.703125-.296875 2.40625-1.03125 2.40625-.78125 0-1.109375-.796875-1.109375-2.75 0-1.6875.296875-2.359375 1.046875-2.359375zm0 0"/></symbol><symbol id="b" overflow="visible"><path d="m.53125-4.4375h.078125l1.03125-.46875h.03125c.046875 0 .0625.0625.0625.265625v3.875c0 .40625-.09375.5-.515625.53125l-.453125.015625v.25c1.234375-.03125 1.234375-.03125 1.328125-.03125s.28125 0 .546875.015625c.09375 0 .375 0 .703125.015625v-.25l-.421875-.015625c-.4375-.03125-.515625-.125-.515625-.53125v-4.75l-.109375-.03125c-.515625.265625-1.09375.5-1.8125.765625zm0 0"/></symbol><symbol id="c" overflow="visible"><path d="m.125-.1875v.21875c1.5-.03125 1.5-.03125 1.78125-.03125.296875 0 .296875 0 1.84375.03125-.015625-.171875-.015625-.25-.015625-.375 0-.09375 0-.171875.015625-.359375-.921875.046875-1.296875.0625-2.78125.09375l1.46875-1.546875c.765625-.828125 1.015625-1.265625 1.015625-1.875 0-.90625-.625-1.484375-1.640625-1.484375-.578125 0-.96875.15625-1.359375.5625l-.140625 1.09375h.234375l.09375-.375c.140625-.46875.421875-.65625.953125-.65625.6875 0 1.140625.421875 1.140625 1.109375 0 .59375-.34375 1.1875-1.25 2.15625zm0 0"/></symbol><symbol id="d" overflow="visible"><path d="m.34375-3.984375h.25l.140625-.453125c.09375-.265625.59375-.53125 1.015625-.53125.515625 0 .9375.421875.9375.921875 0 .59375-.46875 1.109375-1.046875 1.109375-.0625 0-.140625-.015625-.25-.015625l-.125-.015625-.09375.421875.0625.046875c.296875-.125.453125-.171875.671875-.171875.65625 0 1.046875.421875 1.046875 1.15625 0 .8125-.484375 1.34375-1.234375 1.34375-.359375 0-.6875-.109375-.9375-.34375-.1875-.171875-.296875-.359375-.4375-.78125l-.21875.078125c.15625.484375.234375.765625.28125 1.171875.421875.140625.765625.203125 1.0625.203125.640625 0 1.375-.359375 1.8125-.890625.28125-.328125.421875-.6875.421875-1.0625s-.171875-.71875-.453125-.921875c-.203125-.140625-.390625-.203125-.78125-.265625.640625-.5.875-.875.875-1.34375 0-.71875-.59375-1.1875-1.484375-1.1875-.546875 0-.90625.15625-1.28125.546875zm0 0"/></symbol><symbol id="e" overflow="visible"><path d="m2.234375-1.453125v.609375c0 .46875-.078125.59375-.46875.609375l-.5.015625v.25c1.0625-.03125 1.0625-.03125 1.25-.03125.203125 0 .203125 0 1.265625.03125v-.25l-.390625-.015625c-.390625-.03125-.484375-.140625-.484375-.609375v-.609375c.484375 0 .640625.015625.875.03125v-.5625c-.375.03125-.53125.03125-.65625.03125h-.21875v-1.125c0-1.421875.015625-2.109375.0625-2.4375l-.09375-.03125-.59375.21875-2.265625 3.703125.09375.171875zm0-.5h-1.71875l1.71875-2.828125zm0 0"/></symbol><symbol id="f" overflow="visible"><path d="m1.015625-4.84375c1.03125.03125 1.484375.046875 2.4375.046875l.046875-.046875c-.015625-.140625-.015625-.203125-.015625-.3125s0-.171875.015625-.3125l-.046875-.046875c-.59375.03125-.953125.046875-1.390625.046875s-.796875-.015625-1.390625-.046875l-.046875.046875c.015625.484375.015625.84375.015625 1.09375 0 .671875-.015625 1.453125-.046875 1.796875l.171875.046875c.375-.375.59375-.484375.984375-.484375.765625 0 1.234375.546875 1.234375 1.40625 0 .890625-.5 1.40625-1.375 1.40625-.4375 0-.828125-.140625-.953125-.34375l-.359375-.65625-.1875.109375c.171875.453125.28125.703125.390625 1.0625.21875.125.546875.1875.890625.1875.53125 0 1.09375-.234375 1.53125-.609375.5-.4375.75-.984375.75-1.578125 0-.890625-.640625-1.53125-1.5625-1.53125-.375 0-.671875.09375-1.171875.390625zm0 0"/></symbol><symbol id="g" overflow="visible"><path d="m3.328125-5.375-.296875-.140625c-.765625.265625-1.09375.421875-1.5.765625-.828125.703125-1.28125 1.671875-1.28125 2.78125 0 1.3125.640625 2.125 1.671875 2.125 1.046875 0 1.828125-.8125 1.828125-1.90625 0-.921875-.5625-1.515625-1.40625-1.515625-.40625 0-.640625.09375-1.109375.46875-.09375.078125-.09375.078125-.1875.15625.171875-1.453125.84375-2.234375 2.28125-2.671875zm-1.28125 2.578125c.59375 0 1.015625.53125 1.015625 1.328125 0 .828125-.421875 1.359375-1.03125 1.359375-.671875 0-1.046875-.578125-1.046875-1.65625 0-.28125.03125-.421875.125-.5625.171875-.265625.546875-.46875.9375-.46875zm0 0"/></symbol><symbol id="h" overflow="visible"><path d="m.453125-.078125.0625.109375c.3125-.03125.3125-.03125.375-.03125.046875 0 .046875 0 .359375.03125.34375-.875.734375-1.71875 1.265625-2.671875l1.453125-2.625v-.25c-.859375.03125-1.140625.046875-1.78125.046875-.59375 0-.984375-.015625-1.75-.046875l-.078125.046875c.015625.75.015625.75.015625.84375 0 .078125 0 .078125-.015625.8125h.234375l.046875-.453125c.078125-.5.125-.5625.5-.5625h2.125c-.3125.65625-.5625 1.125-.859375 1.609375zm0 0"/></symbol><symbol id="i" overflow="visible"><path d="m1.34375-2.765625c-.328125.15625-.46875.25-.640625.40625-.296875.3125-.46875.671875-.46875 1.09375 0 .8125.671875 1.421875 1.578125 1.421875 1.03125 0 1.90625-.8125 1.90625-1.796875 0-.640625-.296875-.984375-1.21875-1.40625.734375-.5.984375-.828125.984375-1.3125 0-.6875-.5625-1.15625-1.40625-1.15625-.953125 0-1.65625.609375-1.65625 1.453125 0 .546875.21875.84375.921875 1.296875zm.921875.40625c.515625.21875.8125.609375.8125 1.046875 0 .671875-.5 1.203125-1.15625 1.203125-.671875 0-1.109375-.484375-1.109375-1.234375 0-.578125.234375-.9375.8125-1.296875zm-.484375-1.03125c-.5-.234375-.75-.5625-.75-.96875 0-.515625.375-.875.9375-.875.59375 0 .96875.375.96875.96875 0 .453125-.1875.765625-.71875 1.09375zm0 0"/></symbol><symbol id="j" overflow="visible"><path d="m.765625.15625c.890625-.28125 1.28125-.46875 1.703125-.84375.78125-.65625 1.1875-1.578125 1.1875-2.65625 0-1.34375-.640625-2.171875-1.703125-2.171875-1.03125 0-1.796875.796875-1.796875 1.875 0 .921875.609375 1.59375 1.4375 1.59375.265625 0 .578125-.09375.71875-.203125l.5625-.46875c-.0625 1.34375-.9375 2.328125-2.375 2.671875v.078125zm1.15625-5.40625c.359375 0 .625.15625.796875.46875.140625.265625.234375.65625.234375 1.015625 0 .734375-.421875 1.234375-1.03125 1.234375-.640625 0-1.078125-.578125-1.078125-1.40625 0-.8125.421875-1.3125 1.078125-1.3125zm0 0"/></symbol><g stroke-linecap="round" stroke-linejoin="round" stroke-miterlimit="10" transform="matrix(.1 0 0 -.1 0 76.78)"><path d="m66.015625 692.8v-13.945313" fill="none" stroke="#7f7f7f" stroke-width="4.99974"/><path d="m240.234375 692.8v-13.945313" fill="none" stroke="#7f7f7f" stroke-width="4.99974"/><path d="m414.453125 692.8v-13.945313" fill="none" stroke="#7f7f7f" stroke-width="4.99974"/><path d="m588.710938 692.8v-13.945313" fill="none" stroke="#7f7f7f" stroke-width="4.99974"/><path d="m762.929688 692.8v-13.945313" fill="none" stroke="#7f7f7f" stroke-width="4.99974"/><path d="m937.1875 692.8v-13.945313" fill="none" stroke="#7f7f7f" stroke-width="4.99974"/><path d="m1111.40625 692.8v-13.945313" fill="none" stroke="#7f7f7f" stroke-width="4.99974"/><path d="m1285.625 692.8v-13.945313" fill="none" stroke="#7f7f7f" stroke-width="4.99974"/><path d="m1459.882812 692.8v-13.945313" fill="none" stroke="#7f7f7f" stroke-width="4.99974"/><path d="m1634.101562 692.8v-13.945313" fill="none" stroke="#7f7f7f" stroke-width="4.99974"/><path d="m1808.359375 692.8v-13.945313" fill="none" stroke="#7f7f7f" stroke-width="4.99974"/><path d="m1982.578125 692.8v-13.945313" fill="none" stroke="#7f7f7f" stroke-width="4.99974"/><path d="m2156.796875 692.8v-13.945313" fill="none" stroke="#7f7f7f" stroke-width="4.99974"/><path d="m2331.054688 692.8v-13.945313" fill="none" stroke="#7f7f7f" stroke-width="4.99974"/><path d="m2505.273438 692.8v-13.945313" fill="none" stroke="#7f7f7f" stroke-width="4.99974"/><path d="m2679.53125 692.8v-13.945313" fill="none" stroke="#7f7f7f" stroke-width="4.99974"/><path d="m2853.75 692.8v-13.945313" fill="none" stroke="#7f7f7f" stroke-width="4.99974"/><path d="m3027.96875 692.8v-13.945313" fill="none" stroke="#7f7f7f" stroke-width="4.99974"/><path d="m3202.226562 692.8v-13.945313" fill="none" stroke="#7f7f7f" stroke-width="4.99974"/><path d="m3376.445312 692.8v-13.945313" fill="none" stroke="#7f7f7f" stroke-width="4.99974"/><path d="m3550.703125 692.8v-13.945313" fill="none" stroke="#7f7f7f" stroke-width="4.99974"/><path d="m3724.921875 692.8v-13.945313" fill="none" stroke="#7f7f7f" stroke-width="4.99974"/><path d="m3899.140625 692.8v-13.945313" fill="none" stroke="#7f7f7f" stroke-width="4.99974"/><path d="m4073.398438 692.8v-13.945313" fill="none" stroke="#7f7f7f" stroke-width="4.99974"/><path d="m4247.617188 692.8v-13.945313" fill="none" stroke="#7f7f7f" stroke-width="4.99974"/><path d="m4421.875 692.8v-13.945313" fill="none" stroke="#7f7f7f" stroke-width="4.99974"/><path d="m4596.09375 692.8v-13.945313" fill="none" stroke="#7f7f7f" stroke-width="4.99974"/><path d="m4770.3125 692.8v-13.945313" fill="none" stroke="#7f7f7f" stroke-width="4.99974"/><path d="m4944.570312 692.8v-13.945313" fill="none" stroke="#7f7f7f" stroke-width="4.99974"/><path d="m5118.789062 692.8v-13.945313" fill="none" stroke="#7f7f7f" stroke-width="4.99974"/><path d="m5293.046875 692.8v-13.945313" fill="none" stroke="#7f7f7f" stroke-width="4.99974"/><path d="m5467.265625 692.8v-13.945313" fill="none" stroke="#7f7f7f" stroke-width="4.99974"/><path d="m5641.484375 655.3v75" fill="none" stroke="#7f7f7f" stroke-width="4.99974"/><path d="m66.015625 692.8h5575.46875" fill="none" stroke="#7f7f7f" stroke-width="4.99974"/><path d="m87.773438 692.8v-41.835938" fill="none" stroke="#8b0000" stroke-width="14.9992"/><path d="m87.773438 692.8v-41.835938" fill="none" stroke="#191970" stroke-width="4.99974"/><path d="m90.507812 692.8v-41.835938" fill="none" stroke="#191970" stroke-width="4.99974"/><path d="m93.242188 692.8v-41.835938" fill="none" stroke="#191970" stroke-width="4.99974"/><path d="m95.9375 692.8v-41.835938" fill="none" stroke="#191970" stroke-width="4.99974"/><path d="m98.671875 692.8v-41.835938" fill="none" stroke="#191970" stroke-width="4.99974"/><path d="m101.40625 692.8v-41.835938" fill="none" stroke="#191970" stroke-width="4.99974"/><path d="m104.101562 692.8v-41.835938" fill="none" stroke="#191970" stroke-width="4.99974"/><path d="m106.835938 692.8v-41.835938" fill="none" stroke="#191970" stroke-width="4.99974"/><path d="m109.570312 692.8v-41.835938" fill="none" stroke="#8b0000" stroke-width="14.9992"/><path d="m109.570312 692.8v-41.835938" fill="none" stroke="#191970" stroke-width="4.99974"/><path d="m115 692.8v-41.835938" fill="none" stroke="#191970" stroke-width="4.99974"/><path d="m120.429688 692.8v-41.835938" fill="none" stroke="#191970" stroke-width="4.99974"/><path d="m125.898438 692.8v-41.835938" fill="none" stroke="#191970" stroke-width="4.99974"/><path d="m131.328125 692.8v-41.835938" fill="none" stroke="#191970" stroke-width="4.99974"/><path d="m136.796875 692.8v-41.835938" fill="none" stroke="#191970" stroke-width="4.99974"/><path d="m142.226562 692.8v-41.835938" fill="none" stroke="#191970" stroke-width="4.99974"/><path d="m147.65625 692.8v-41.835938" fill="none" stroke="#191970" stroke-width="4.99974"/><path d="m153.125 692.8v-41.835938" fill="none" stroke="#8b0000" stroke-width="14.9992"/><path d="m153.125 692.8v-41.835938" fill="none" stroke="#191970" stroke-width="4.99974"/><path d="m164.023438 692.8v-41.835938" fill="none" stroke="#191970" stroke-width="4.99974"/><path d="m174.882812 692.8v-41.835938" fill="none" stroke="#191970" stroke-width="4.99974"/><path d="m185.78125 692.8v-41.835938" fill="none" stroke="#191970" stroke-width="4.99974"/><path d="m196.679688 692.8v-41.835938" fill="none" stroke="#191970" stroke-width="4.99974"/><path d="m207.578125 692.8v-41.835938" fill="none" stroke="#191970" stroke-width="4.99974"/><path d="m218.4375 692.8v-41.835938" fill="none" stroke="#191970" stroke-width="4.99974"/><path d="m229.335938 692.8v-41.835938" fill="none" stroke="#191970" stroke-width="4.99974"/><path d="m240.234375 692.8v-41.835938" fill="none" stroke="#8b0000" stroke-width="14.9992"/><path d="m240.234375 692.8v-41.835938" fill="none" stroke="#191970" stroke-width="4.99974"/><path d="m262.03125 692.8v-41.835938" fill="none" stroke="#191970" stroke-width="4.99974"/><path d="m283.789062 692.8v-41.835938" fill="none" stroke="#191970" stroke-width="4.99974"/><path d="m305.585938 692.8v-41.835938" fill="none" stroke="#191970" stroke-width="4.99974"/><path d="m327.34375 692.8v-41.835938" fill="none" stroke="#191970" stroke-width="4.99974"/><path d="m349.140625 692.8v-41.835938" fill="none" stroke="#191970" stroke-width="4.99974"/><path d="m370.898438 692.8v-41.835938" fill="none" stroke="#191970" stroke-width="4.99974"/><path d="m392.695312 692.8v-41.835938" fill="none" stroke="#191970" stroke-width="4.99974"/><path d="m414.453125 692.8v-41.835938" fill="none" stroke="#8b0000" stroke-width="14.9992"/><path d="m414.453125 692.8v-41.835938" fill="none" stroke="#191970" stroke-width="4.99974"/><path d="m458.007812 692.8v-41.835938" fill="none" stroke="#191970" stroke-width="4.99974"/><path d="m501.5625 692.8v-41.835938" fill="none" stroke="#191970" stroke-width="4.99974"/><path d="m545.15625 692.8v-41.835938" fill="none" stroke="#191970" stroke-width="4.99974"/><path d="m588.710938 692.8v-41.835938" fill="none" stroke="#191970" stroke-width="4.99974"/><path d="m632.265625 692.8v-41.835938" fill="none" stroke="#191970" stroke-width="4.99974"/><path d="m675.820312 692.8v-41.835938" fill="none" stroke="#191970" stroke-width="4.99974"/><path d="m719.375 692.8v-41.835938" fill="none" stroke="#191970" stroke-width="4.99974"/><path d="m762.929688 692.8v-41.835938" fill="none" stroke="#8b0000" stroke-width="14.9992"/><path d="m762.929688 692.8v-41.835938" fill="none" stroke="#191970" stroke-width="4.99974"/><path d="m850.039062 692.8v-41.835938" fill="none" stroke="#191970" stroke-width="4.99974"/><path d="m937.1875 692.8v-41.835938" fill="none" stroke="#191970" stroke-width="4.99974"/><path d="m1024.296875 692.8v-41.835938" fill="none" stroke="#191970" stroke-width="4.99974"/><path d="m1111.40625 692.8v-41.835938" fill="none" stroke="#191970" stroke-width="4.99974"/><path d="m1198.515625 692.8v-41.835938" fill="none" stroke="#191970" stroke-width="4.99974"/><path d="m1285.625 692.8v-41.835938" fill="none" stroke="#191970" stroke-width="4.99974"/><path d="m1372.734375 692.8v-41.835938" fill="none" stroke="#191970" stroke-width="4.99974"/><path d="m1459.882812 692.8v-41.835938" fill="none" stroke="#8b0000" stroke-width="14.9992"/><path d="m1459.882812 692.8v-41.835938" fill="none" stroke="#191970" stroke-width="4.99974"/><path d="m1634.101562 692.8v-41.835938" fill="none" stroke="#191970" stroke-width="4.99974"/><path d="m1808.359375 692.8v-41.835938" fill="none" stroke="#191970" stroke-width="4.99974"/><path d="m1982.578125 692.8v-41.835938" fill="none" stroke="#191970" stroke-width="4.99974"/><path d="m2156.796875 692.8v-41.835938" fill="none" stroke="#191970" stroke-width="4.99974"/><path d="m2331.054688 692.8v-41.835938" fill="none" stroke="#191970" stroke-width="4.99974"/><path d="m2505.273438 692.8v-41.835938" fill="none" stroke="#191970" stroke-width="4.99974"/><path d="m2679.53125 692.8v-41.835938" fill="none" stroke="#191970" stroke-width="4.99974"/><path d="m2853.75 692.8v-41.835938" fill="none" stroke="#8b0000" stroke-width="14.9992"/><path d="m2853.75 692.8v-41.835938" fill="none" stroke="#191970" stroke-width="4.99974"/><path d="m3202.226562 692.8v-41.835938" fill="none" stroke="#191970" stroke-width="4.99974"/><path d="m3550.703125 692.8v-41.835938" fill="none" stroke="#191970" stroke-width="4.99974"/><path d="m3899.140625 692.8v-41.835938" fill="none" stroke="#191970" stroke-width="4.99974"/><path d="m4247.617188 692.8v-41.835938" fill="none" stroke="#191970" stroke-width="4.99974"/><path d="m4596.09375 692.8v-41.835938" fill="none" stroke="#191970" stroke-width="4.99974"/><path d="m4944.570312 692.8v-41.835938" fill="none" stroke="#191970" stroke-width="4.99974"/><path d="m5293.046875 692.8v-41.835938" fill="none" stroke="#191970" stroke-width="4.99974"/><path d="m66.015625 692.8v-41.835938" fill="none" stroke="#000" stroke-width="4.99974"/><path d="m66.015625 170.065625v-13.90625" fill="none" stroke="#7f7f7f" stroke-width="4.99974"/><path d="m240.234375 170.065625v-13.90625" fill="none" stroke="#7f7f7f" stroke-width="4.99974"/><path d="m414.453125 170.065625v-13.90625" fill="none" stroke="#7f7f7f" stroke-width="4.99974"/><path d="m588.710938 170.065625v-13.90625" fill="none" stroke="#7f7f7f" stroke-width="4.99974"/><path d="m762.929688 170.065625v-13.90625" fill="none" stroke="#7f7f7f" stroke-width="4.99974"/><path d="m937.1875 170.065625v-13.90625" fill="none" stroke="#7f7f7f" stroke-width="4.99974"/><path d="m1111.40625 170.065625v-13.90625" fill="none" stroke="#7f7f7f" stroke-width="4.99974"/><path d="m1285.625 170.065625v-13.90625" fill="none" stroke="#7f7f7f" stroke-width="4.99974"/><path d="m1459.882812 170.065625v-13.90625" fill="none" stroke="#7f7f7f" stroke-width="4.99974"/><path d="m1634.101562 170.065625v-13.90625" fill="none" stroke="#7f7f7f" stroke-width="4.99974"/><path d="m1808.359375 170.065625v-13.90625" fill="none" stroke="#7f7f7f" stroke-width="4.99974"/><path d="m1982.578125 170.065625v-13.90625" fill="none" stroke="#7f7f7f" stroke-width="4.99974"/><path d="m2156.796875 170.065625v-13.90625" fill="none" stroke="#7f7f7f" stroke-width="4.99974"/><path d="m2331.054688 170.065625v-13.90625" fill="none" stroke="#7f7f7f" stroke-width="4.99974"/><path d="m2505.273438 170.065625v-13.90625" fill="none" stroke="#7f7f7f" stroke-width="4.99974"/><path d="m2679.53125 170.065625v-13.90625" fill="none" stroke="#7f7f7f" stroke-width="4.99974"/><path d="m2853.75 170.065625v-13.90625" fill="none" stroke="#7f7f7f" stroke-width="4.99974"/><path d="m3027.96875 170.065625v-13.90625" fill="none" stroke="#7f7f7f" stroke-width="4.99974"/><path d="m3202.226562 170.065625v-13.90625" fill="none" stroke="#7f7f7f" stroke-width="4.99974"/><path d="m3376.445312 170.065625v-13.90625" fill="none" stroke="#7f7f7f" stroke-width="4.99974"/><path d="m3550.703125 170.065625v-13.90625" fill="none" stroke="#7f7f7f" stroke-width="4.99974"/><path d="m3724.921875 170.065625v-13.90625" fill="none" stroke="#7f7f7f" stroke-width="4.99974"/><path d="m3899.140625 170.065625v-13.90625" fill="none" stroke="#7f7f7f" stroke-width="4.99974"/><path d="m4073.398438 170.065625v-13.90625" fill="none" stroke="#7f7f7f" stroke-width="4.99974"/><path d="m4247.617188 170.065625v-13.90625" fill="none" stroke="#7f7f7f" stroke-width="4.99974"/><path d="m4421.875 170.065625v-13.90625" fill="none" stroke="#7f7f7f" stroke-width="4.99974"/><path d="m4596.09375 170.065625v-13.90625" fill="none" stroke="#7f7f7f" stroke-width="4.99974"/><path d="m4770.3125 170.065625v-13.90625" fill="none" stroke="#7f7f7f" stroke-width="4.99974"/><path d="m4944.570312 170.065625v-13.90625" fill="none" stroke="#7f7f7f" stroke-width="4.99974"/><path d="m5118.789062 170.065625v-13.90625" fill="none" stroke="#7f7f7f" stroke-width="4.99974"/><path d="m5293.046875 170.065625v-13.90625" fill="none" stroke="#7f7f7f" stroke-width="4.99974"/><path d="m5467.265625 170.065625v-13.90625" fill="none" stroke="#7f7f7f" stroke-width="4.99974"/><path d="m5641.484375 132.565625v75" fill="none" stroke="#7f7f7f" stroke-width="4.99974"/><path d="m66.015625 170.065625h5575.46875" fill="none" stroke="#7f7f7f" stroke-width="4.99974"/><path d="m109.570312 170.065625v-41.796875" fill="none" stroke="#8b0000" stroke-width="14.9992"/><path d="m109.570312 170.065625v-41.796875" fill="none" stroke="#191970" stroke-width="4.99974"/><path d="m115 170.065625v-41.796875" fill="none" stroke="#191970" stroke-width="4.99974"/><path d="m120.429688 170.065625v-41.796875" fill="none" stroke="#191970" stroke-width="4.99974"/><path d="m125.898438 170.065625v-41.796875" fill="none" stroke="#191970" stroke-width="4.99974"/><path d="m131.328125 170.065625v-41.796875" fill="none" stroke="#191970" stroke-width="4.99974"/><path d="m136.796875 170.065625v-41.796875" fill="none" stroke="#191970" stroke-width="4.99974"/><path d="m142.226562 170.065625v-41.796875" fill="none" stroke="#191970" stroke-width="4.99974"/><path d="m147.65625 170.065625v-41.796875" fill="none" stroke="#191970" stroke-width="4.99974"/><path d="m153.125 170.065625v-41.796875" fill="none" stroke="#8b0000" stroke-width="14.9992"/><path d="m153.125 170.065625v-41.796875" fill="none" stroke="#191970" stroke-width="4.99974"/><path d="m164.023438 170.065625v-41.796875" fill="none" stroke="#191970" stroke-width="4.99974"/><path d="m174.882812 170.065625v-41.796875" fill="none" stroke="#191970" stroke-width="4.99974"/><path d="m185.78125 170.065625v-41.796875" fill="none" stroke="#191970" stroke-width="4.99974"/><path d="m196.679688 170.065625v-41.796875" fill="none" stroke="#191970" stroke-width="4.99974"/><path d="m207.578125 170.065625v-41.796875" fill="none" stroke="#191970" stroke-width="4.99974"/><path d="m218.4375 170.065625v-41.796875" fill="none" stroke="#191970" stroke-width="4.99974"/><path d="m229.335938 170.065625v-41.796875" fill="none" stroke="#191970" stroke-width="4.99974"/><path d="m240.234375 170.065625v-41.796875" fill="none" stroke="#8b0000" stroke-width="14.9992"/><path d="m240.234375 170.065625v-41.796875" fill="none" stroke="#191970" stroke-width="4.99974"/><path d="m262.03125 170.065625v-41.796875" fill="none" stroke="#191970" stroke-width="4.99974"/><path d="m283.789062 170.065625v-41.796875" fill="none" stroke="#191970" stroke-width="4.99974"/><path d="m305.585938 170.065625v-41.796875" fill="none" stroke="#191970" stroke-width="4.99974"/><path d="m327.34375 170.065625v-41.796875" fill="none" stroke="#191970" stroke-width="4.99974"/><path d="m349.140625 170.065625v-41.796875" fill="none" stroke="#191970" stroke-width="4.99974"/><path d="m370.898438 170.065625v-41.796875" fill="none" stroke="#191970" stroke-width="4.99974"/><path d="m392.695312 170.065625v-41.796875" fill="none" stroke="#191970" stroke-width="4.99974"/><path d="m414.453125 170.065625v-41.796875" fill="none" stroke="#8b0000" stroke-width="14.9992"/><path d="m414.453125 170.065625v-41.796875" fill="none" stroke="#191970" stroke-width="4.99974"/><path d="m458.007812 170.065625v-41.796875" fill="none" stroke="#191970" stroke-width="4.99974"/><path d="m501.5625 170.065625v-41.796875" fill="none" stroke="#191970" stroke-width="4.99974"/><path d="m545.15625 170.065625v-41.796875" fill="none" stroke="#191970" stroke-width="4.99974"/><path d="m588.710938 170.065625v-41.796875" fill="none" stroke="#191970" stroke-width="4.99974"/><path d="m632.265625 170.065625v-41.796875" fill="none" stroke="#191970" stroke-width="4.99974"/><path d="m675.820312 170.065625v-41.796875" fill="none" stroke="#191970" stroke-width="4.99974"/><path d="m719.375 170.065625v-41.796875" fill="none" stroke="#191970" stroke-width="4.99974"/><path d="m762.929688 170.065625v-41.796875" fill="none" stroke="#8b0000" stroke-width="14.9992"/><path d="m762.929688 170.065625v-41.796875" fill="none" stroke="#191970" stroke-width="4.99974"/><path d="m850.039062 170.065625v-41.796875" fill="none" stroke="#191970" stroke-width="4.99974"/><path d="m937.1875 170.065625v-41.796875" fill="none" stroke="#191970" stroke-width="4.99974"/><path d="m1024.296875 170.065625v-41.796875" fill="none" stroke="#191970" stroke-width="4.99974"/><path d="m1111.40625 170.065625v-41.796875" fill="none" stroke="#191970" stroke-width="4.99974"/><path d="m1198.515625 170.065625v-41.796875" fill="none" stroke="#191970" stroke-width="4.99974"/><path d="m1285.625 170.065625v-41.796875" fill="none" stroke="#191970" stroke-width="4.99974"/><path d="m1372.734375 170.065625v-41.796875" fill="none" stroke="#191970" stroke-width="4.99974"/><path d="m1459.882812 170.065625v-41.796875" fill="none" stroke="#8b0000" stroke-width="14.9992"/><path d="m1459.882812 170.065625v-41.796875" fill="none" stroke="#191970" stroke-width="4.99974"/><path d="m1634.101562 170.065625v-41.796875" fill="none" stroke="#191970" stroke-width="4.99974"/><path d="m1808.359375 170.065625v-41.796875" fill="none" stroke="#191970" stroke-width="4.99974"/><path d="m1982.578125 170.065625v-41.796875" fill="none" stroke="#191970" stroke-width="4.99974"/><path d="m2156.796875 170.065625v-41.796875" fill="none" stroke="#191970" stroke-width="4.99974"/><path d="m2331.054688 170.065625v-41.796875" fill="none" stroke="#191970" stroke-width="4.99974"/><path d="m2505.273438 170.065625v-41.796875" fill="none" stroke="#191970" stroke-width="4.99974"/><path d="m2679.53125 170.065625v-41.796875" fill="none" stroke="#191970" stroke-width="4.99974"/><path d="m2853.75 170.065625v-41.796875" fill="none" stroke="#8b0000" stroke-width="14.9992"/><path d="m2853.75 170.065625v-41.796875" fill="none" stroke="#191970" stroke-width="4.99974"/><path d="m3202.226562 170.065625v-41.796875" fill="none" stroke="#191970" stroke-width="4.99974"/><path d="m3550.703125 170.065625v-41.796875" fill="none" stroke="#191970" stroke-width="4.99974"/><path d="m3899.140625 170.065625v-41.796875" fill="none" stroke="#191970" stroke-width="4.99974"/><path d="m4247.617188 170.065625v-41.796875" fill="none" stroke="#191970" stroke-width="4.99974"/><path d="m4596.09375 170.065625v-41.796875" fill="none" stroke="#191970" stroke-width="4.99974"/><path d="m4944.570312 170.065625v-41.796875" fill="none" stroke="#191970" stroke-width="4.99974"/><path d="m5293.046875 170.065625v-41.796875" fill="none" stroke="#191970" stroke-width="4.99974"/><path d="m66.015625 170.065625v-41.796875" fill="none" stroke="#191970" stroke-width="4.99974"/><path d="m71.445312 170.065625v-41.796875" fill="none" stroke="#191970" stroke-width="4.99974"/><path d="m76.875 170.065625v-41.796875" fill="none" stroke="#191970" stroke-width="4.99974"/><path d="m82.34375 170.065625v-41.796875" fill="none" stroke="#191970" stroke-width="4.99974"/><path d="m87.773438 170.065625v-41.796875" fill="none" stroke="#191970" stroke-width="4.99974"/><path d="m93.242188 170.065625v-41.796875" fill="none" stroke="#191970" stroke-width="4.99974"/><path d="m98.671875 170.065625v-41.796875" fill="none" stroke="#191970" stroke-width="4.99974"/><path d="m104.101562 170.065625v-41.796875" fill="none" stroke="#191970" stroke-width="4.99974"/><path d="m66.015625 170.065625v-41.796875" fill="none" stroke="#000" stroke-width="4.99974"/><path d="m67.421875 203.542187 20.351563 433.476563" fill="none" stroke="#7f7f7f" stroke-width="4.99974"/><path d="m66.015625 173.58125 9.414063 29.570312-16.054688.742188zm0 0" fill="#7f7f7f" stroke="#7f7f7f" stroke-width="4.99974"/><path d="m109.570312 214.010937v423.007813" fill="none" stroke="#7f7f7f" stroke-width="4.99974"/><path d="m109.570312 184.010937 8.007813 30h-16.054687zm0 0" fill="#7f7f7f" stroke="#7f7f7f" stroke-width="4.99974"/></g><use fill="#7f7f7f" x="4.56016" xlink:href="#a" y="19.6601"/><use fill="#7f7f7f" x="22.08006" xlink:href="#b" y="19.780022"/><use fill="#7f7f7f" x="39.48006" xlink:href="#c" y="19.6601"/><use fill="#7f7f7f" x="56.88006" xlink:href="#d" y="19.6601"/><use fill="#7f7f7f" x="74.28006" xlink:href="#e" y="19.780022"/><use fill="#7f7f7f" x="91.68006" xlink:href="#f" y="19.6601"/><use fill="#7f7f7f" x="109.19998" xlink:href="#g" y="19.6601"/><use fill="#7f7f7f" x="126.59998" xlink:href="#h" y="19.6601"/><use fill="#7f7f7f" x="143.99998" xlink:href="#i" y="19.6601"/><use fill="#7f7f7f" x="161.39998" xlink:href="#j" y="19.6601"/><use fill="#7f7f7f" x="176.88006" xlink:href="#b" y="19.780022"/><use fill="#7f7f7f" x="180.84006" xlink:href="#a" y="19.780022"/><use fill="#7f7f7f" x="194.28006" xlink:href="#b" y="19.780022"/><use fill="#7f7f7f" x="198.24006" xlink:href="#b" y="19.780022"/><use fill="#7f7f7f" x="211.68006" xlink:href="#b" y="19.780022"/><use fill="#7f7f7f" x="215.64007" xlink:href="#c" y="19.780022"/><use fill="#7f7f7f" x="229.08007" xlink:href="#b" y="19.780022"/><use fill="#7f7f7f" x="233.04008" xlink:href="#d" y="19.780022"/><use fill="#7f7f7f" x="246.6" xlink:href="#b" y="19.780022"/><use fill="#7f7f7f" x="250.560009" xlink:href="#e" y="19.780022"/><use fill="#7f7f7f" x="264.000009" xlink:href="#b" y="19.780022"/><use fill="#7f7f7f" x="267.960019" xlink:href="#f" y="19.780022"/><use fill="#7f7f7f" x="281.400019" xlink:href="#b" y="19.780022"/><use fill="#7f7f7f" x="285.360029" xlink:href="#g" y="19.780022"/><use fill="#7f7f7f" x="298.800029" xlink:href="#b" y="19.780022"/><use fill="#7f7f7f" x="302.760039" xlink:href="#h" y="19.780022"/><use fill="#7f7f7f" x="316.200039" xlink:href="#b" y="19.780022"/><use fill="#7f7f7f" x="320.160048" xlink:href="#i" y="19.780022"/><use fill="#7f7f7f" x="333.719968" xlink:href="#b" y="19.780022"/><use fill="#7f7f7f" x="337.679978" xlink:href="#j" y="19.780022"/><use fill="#7f7f7f" x="351.12006" xlink:href="#c" y="19.6601"/><use fill="#7f7f7f" x="355.08007" xlink:href="#a" y="19.6601"/><use fill="#7f7f7f" x="368.52006" xlink:href="#c" y="19.780022"/><use fill="#7f7f7f" x="372.48007" xlink:href="#b" y="19.780022"/><use fill="#7f7f7f" x="385.92006" xlink:href="#c" y="19.6601"/><use fill="#7f7f7f" x="389.88007" xlink:href="#c" y="19.6601"/><use fill="#7f7f7f" x="403.32007" xlink:href="#c" y="19.6601"/><use fill="#7f7f7f" x="407.28008" xlink:href="#d" y="19.6601"/><use fill="#7f7f7f" x="420.83996" xlink:href="#c" y="19.780022"/><use fill="#7f7f7f" x="424.79997" xlink:href="#e" y="19.780022"/><use fill="#7f7f7f" x="438.23996" xlink:href="#c" y="19.6601"/><use fill="#7f7f7f" x="442.19997" xlink:href="#f" y="19.6601"/><use fill="#7f7f7f" x="455.63997" xlink:href="#c" y="19.6601"/><use fill="#7f7f7f" x="459.59998" xlink:href="#g" y="19.6601"/><use fill="#7f7f7f" x="473.03998" xlink:href="#c" y="19.6601"/><use fill="#7f7f7f" x="476.999989" xlink:href="#h" y="19.6601"/><use fill="#7f7f7f" x="490.439989" xlink:href="#c" y="19.6601"/><use fill="#7f7f7f" x="494.399999" xlink:href="#i" y="19.6601"/><use fill="#7f7f7f" x="507.959919" xlink:href="#c" y="19.6601"/><use fill="#7f7f7f" x="511.919929" xlink:href="#j" y="19.6601"/><use fill="#7f7f7f" x="525.359929" xlink:href="#d" y="19.6601"/><use fill="#7f7f7f" x="529.319939" xlink:href="#a" y="19.6601"/><use fill="#7f7f7f" x="542.75996" xlink:href="#d" y="19.780022"/><use fill="#7f7f7f" x="546.71997" xlink:href="#b" y="19.780022"/><use fill="#7f7f7f" x="4.55996" xlink:href="#a" y="71.980022"/><use fill="#7f7f7f" x="22.07986" xlink:href="#b" y="72.099944"/><use fill="#7f7f7f" x="39.47986" xlink:href="#c" y="71.980022"/><use fill="#7f7f7f" x="56.87986" xlink:href="#d" y="71.980022"/><use fill="#7f7f7f" x="74.27986" xlink:href="#e" y="72.099944"/><use fill="#7f7f7f" x="91.67986" xlink:href="#f" y="71.980022"/><use fill="#7f7f7f" x="109.19978" xlink:href="#g" y="71.980022"/><use fill="#7f7f7f" x="126.59978" xlink:href="#h" y="71.980022"/><use fill="#7f7f7f" x="143.99978" xlink:href="#i" y="71.980022"/><use fill="#7f7f7f" x="161.39978" xlink:href="#j" y="71.980022"/><use fill="#7f7f7f" x="176.87986" xlink:href="#b" y="72.099944"/><use fill="#7f7f7f" x="180.83986" xlink:href="#a" y="72.099944"/><use fill="#7f7f7f" x="194.27986" xlink:href="#b" y="72.099944"/><use fill="#7f7f7f" x="198.23986" xlink:href="#b" y="72.099944"/><use fill="#7f7f7f" x="211.67986" xlink:href="#b" y="72.099944"/><use fill="#7f7f7f" x="215.63987" xlink:href="#c" y="72.099944"/><use fill="#7f7f7f" x="229.07987" xlink:href="#b" y="72.099944"/><use fill="#7f7f7f" x="233.03988" xlink:href="#d" y="72.099944"/><use fill="#7f7f7f" x="246.5998" xlink:href="#b" y="72.099944"/><use fill="#7f7f7f" x="250.559809" xlink:href="#e" y="72.099944"/><use fill="#7f7f7f" x="263.999809" xlink:href="#b" y="72.099944"/><use fill="#7f7f7f" x="267.959819" xlink:href="#f" y="72.099944"/><use fill="#7f7f7f" x="281.399819" xlink:href="#b" y="72.099944"/><use fill="#7f7f7f" x="285.359829" xlink:href="#g" y="72.099944"/><use fill="#7f7f7f" x="298.799829" xlink:href="#b" y="72.099944"/><use fill="#7f7f7f" x="302.759839" xlink:href="#h" y="72.099944"/><use fill="#7f7f7f" x="316.199839" xlink:href="#b" y="72.099944"/><use fill="#7f7f7f" x="320.159848" xlink:href="#i" y="72.099944"/><use fill="#7f7f7f" x="333.719768" xlink:href="#b" y="72.099944"/><use fill="#7f7f7f" x="337.679778" xlink:href="#j" y="72.099944"/><use fill="#7f7f7f" x="351.11986" xlink:href="#c" y="71.980022"/><use fill="#7f7f7f" x="355.07987" xlink:href="#a" y="71.980022"/><use fill="#7f7f7f" x="368.51986" xlink:href="#c" y="72.099944"/><use fill="#7f7f7f" x="372.47987" xlink:href="#b" y="72.099944"/><use fill="#7f7f7f" x="385.91986" xlink:href="#c" y="71.980022"/><use fill="#7f7f7f" x="389.87987" xlink:href="#c" y="71.980022"/><use fill="#7f7f7f" x="403.31987" xlink:href="#c" y="71.980022"/><use fill="#7f7f7f" x="407.27988" xlink:href="#d" y="71.980022"/><use fill="#7f7f7f" x="420.83976" xlink:href="#c" y="72.099944"/><use fill="#7f7f7f" x="424.79977" xlink:href="#e" y="72.099944"/><use fill="#7f7f7f" x="438.23976" xlink:href="#c" y="71.980022"/><use fill="#7f7f7f" x="442.19977" xlink:href="#f" y="71.980022"/><use fill="#7f7f7f" x="455.63977" xlink:href="#c" y="71.980022"/><use fill="#7f7f7f" x="459.59978" xlink:href="#g" y="71.980022"/><use fill="#7f7f7f" x="473.03978" xlink:href="#c" y="71.980022"/><use fill="#7f7f7f" x="476.999789" xlink:href="#h" y="71.980022"/><use fill="#7f7f7f" x="490.439789" xlink:href="#c" y="71.980022"/><use fill="#7f7f7f" x="494.399799" xlink:href="#i" y="71.980022"/><use fill="#7f7f7f" x="507.959719" xlink:href="#c" y="71.980022"/><use fill="#7f7f7f" x="511.919729" xlink:href="#j" y="71.980022"/><use fill="#7f7f7f" x="525.359729" xlink:href="#d" y="71.980022"/><use fill="#7f7f7f" x="529.319739" xlink:href="#a" y="71.980022"/><use fill="#7f7f7f" x="542.75976" xlink:href="#d" y="72.099944"/><use fill="#7f7f7f" x="546.71977" xlink:href="#b" y="72.099944"/></svg>