<svg height="141.73pt" viewBox="0 0 198.43 141.73" width="198.43pt" xmlns="http://www.w3.org/2000/svg" xmlns:xlink="http://www.w3.org/1999/xlink"><clipPath id="a"><path d="m71 137h3v4.730469h-3zm0 0"/></clipPath><symbol id="b" overflow="visible"><path d="m.125-.53125c0 .125-.015625.203125-.046875.390625-.015625.078125-.015625.09375-.03125.140625.09375.046875.1875.0625.265625.0625.203125 0 .4375-.171875.625-.453125l.453125-.703125.0625.421875c.078125.5.21875.734375.4375.734375.125 0 .3125-.09375.515625-.265625l.28125-.265625-.046875-.125c-.21875.1875-.359375.28125-.46875.28125-.078125 0-.15625-.0625-.21875-.1875-.0625-.109375-.125-.328125-.15625-.515625l-.109375-.59375.21875-.296875c.28125-.390625.4375-.53125.625-.53125.09375 0 .171875.046875.203125.140625l.078125-.03125.09375-.5c-.078125-.046875-.125-.0625-.1875-.0625-.234375 0-.46875.21875-.84375.765625l-.21875.328125-.046875-.28125c-.0625-.59375-.234375-.8125-.578125-.8125-.15625 0-.296875.046875-.34375.125l-.34375.5.09375.0625c.1875-.203125.296875-.296875.421875-.296875.1875 0 .328125.25.421875.84375l.0625.359375-.234375.375c-.25.40625-.46875.59375-.625.59375-.09375 0-.15625-.015625-.171875-.046875l-.0625-.171875zm0 0"/></symbol><symbol id="c" overflow="visible"><path d="m1.71875-2.296875c.015625-.109375.0625-.25.09375-.34375l-.015625-.03125-.046875.015625c-.140625.03125-.203125.03125-.5.03125h-.09375l.125-.671875c.09375-.515625.265625-.734375.53125-.734375.1875 0 .34375.078125.4375.234375l.0625-.03125c.03125-.09375.09375-.28125.140625-.40625l.03125-.078125c-.109375-.046875-.28125-.078125-.421875-.078125-.078125 0-.171875.015625-.21875.03125-.140625.0625-.625.4375-.765625.578125s-.203125.3125-.28125.65625l-.078125.46875c-.25.125-.375.171875-.515625.21875l-.03125.140625h.484375l-.0625.328125c-.171875 1.171875-.390625 2.296875-.53125 2.703125-.109375.359375-.28125.546875-.5.546875-.140625 0-.203125-.046875-.3125-.171875l-.078125.015625c-.03125.140625-.109375.421875-.140625.484375.046875.03125.140625.046875.203125.046875.25 0 .578125-.1875.8125-.46875.359375-.4375.5-.84375.9375-2.953125.015625-.078125.0625-.296875.109375-.53125zm0 0"/></symbol><symbol id="d" overflow="visible"><path d="m2.0625 1.5c0-.015625 0-.03125-.09375-.140625-.78125-.78125-.984375-1.96875-.984375-2.921875 0-1.09375.234375-2.171875 1-2.953125.078125-.078125.078125-.09375.078125-.109375 0-.046875-.015625-.0625-.0625-.0625-.0625 0-.625.421875-.984375 1.21875-.328125.6875-.390625 1.375-.390625 1.90625 0 .484375.0625 1.25.40625 1.953125.375.765625.90625 1.171875.96875 1.171875.046875 0 .0625-.015625.0625-.0625zm0 0"/></symbol><symbol id="e" overflow="visible"><path d="m1.8125-1.5625c0-.484375-.078125-1.25-.421875-1.953125-.375-.765625-.90625-1.171875-.96875-1.171875-.046875 0-.0625.03125-.0625.0625 0 .015625 0 .03125.109375.140625.625.625.96875 1.609375.96875 2.921875 0 1.0625-.21875 2.171875-1 2.953125-.078125.078125-.078125.09375-.078125.109375 0 .03125.015625.0625.0625.0625.0625 0 .625-.421875.984375-1.21875.328125-.6875.40625-1.375.40625-1.90625zm0 0"/></symbol><symbol id="f" overflow="visible"><path d="m2.5625-1.4375h1.734375c.09375 0 .203125 0 .203125-.125s-.109375-.125-.203125-.125h-1.734375v-1.75c0-.09375 0-.203125-.125-.203125s-.125.109375-.125.203125v1.75h-1.75c-.09375 0-.21875 0-.21875.125s.125.125.21875.125h1.75v1.75c0 .09375 0 .203125.125.203125s.125-.109375.125-.203125zm0 0"/></symbol><symbol id="g" overflow="visible"><path d="m1.28125-.828125v.34375c0 .28125-.046875.34375-.28125.34375l-.28125.015625v.140625c.609375-.015625.609375-.015625.71875-.015625s.109375 0 .71875.015625v-.140625l-.21875-.015625c-.21875-.015625-.28125-.0625-.28125-.34375v-.34375c.28125 0 .375 0 .5.015625v-.3125c-.21875.015625-.296875.015625-.375 0h-.125v-.625c0-.8125.015625-1.203125.03125-1.390625l-.046875-.03125-.34375.125-1.28125 2.109375.046875.109375zm0-.296875h-.984375l.984375-1.59375zm0 0"/></symbol><symbol id="h" overflow="visible"><path d="m.203125-2.265625h.140625l.078125-.265625c.046875-.15625.328125-.3125.578125-.3125.296875 0 .53125.25.53125.53125 0 .34375-.265625.640625-.59375.640625-.03125 0-.078125-.015625-.140625-.015625h-.078125l-.046875.234375.03125.03125c.171875-.078125.265625-.109375.375-.109375.390625 0 .609375.25.609375.671875 0 .453125-.28125.765625-.703125.765625-.21875 0-.40625-.078125-.53125-.203125-.109375-.09375-.171875-.203125-.265625-.453125l-.125.046875c.109375.28125.140625.453125.171875.671875.234375.09375.4375.125.609375.125.359375 0 .78125-.203125 1.03125-.515625.15625-.1875.234375-.390625.234375-.59375 0-.21875-.09375-.421875-.25-.53125-.125-.078125-.21875-.125-.453125-.15625.359375-.28125.5-.5.5-.765625 0-.40625-.34375-.671875-.84375-.671875-.3125 0-.515625.078125-.734375.296875zm0 0"/></symbol><symbol id="i" overflow="visible"><path d="m.078125-.109375v.125c.84375-.015625.84375-.015625 1.015625-.015625.15625 0 .15625 0 1.046875.015625-.015625-.09375-.015625-.140625-.015625-.203125s0-.109375.015625-.203125c-.53125.015625-.734375.015625-1.578125.046875l.828125-.890625c.4375-.46875.578125-.71875.578125-1.0625 0-.515625-.359375-.84375-.9375-.84375-.328125 0-.546875.09375-.78125.3125l-.078125.625h.140625l.0625-.203125c.0625-.265625.234375-.390625.53125-.390625.40625 0 .65625.25.65625.640625 0 .34375-.203125.671875-.71875 1.21875zm0 0"/></symbol><symbol id="j" overflow="visible"><path d="m2.375-3.3125h-.28125l-1.703125 3.859375h.28125zm0 0"/></symbol><symbol id="k" overflow="visible"><path d="m4.125-1.4375c.09375 0 .21875 0 .21875-.125s-.125-.125-.21875-.125h-3.390625c-.109375 0-.21875 0-.21875.125s.109375.125.21875.125zm0 0"/></symbol><symbol id="l" overflow="visible"><path d="m.09375-.140625v.15625c1.125-.015625 1.125-.015625 1.34375-.015625s.21875 0 1.375.015625c-.015625-.125-.015625-.1875-.015625-.265625s0-.140625.015625-.265625c-.6875.03125-.96875.03125-2.078125.046875l1.09375-1.15625c.578125-.609375.765625-.9375.765625-1.390625 0-.6875-.46875-1.125-1.234375-1.125-.4375 0-.734375.125-1.015625.421875l-.109375.828125h.171875l.078125-.28125c.09375-.34375.3125-.5.71875-.5.515625 0 .84375.328125.84375.828125 0 .453125-.25.90625-.9375 1.625zm0 0"/></symbol><symbol id="m" overflow="visible"><path d="m.265625-2.984375h.171875l.109375-.34375c.078125-.203125.453125-.40625.765625-.40625.390625 0 .703125.328125.703125.703125 0 .4375-.359375.828125-.78125.828125-.046875 0-.109375-.015625-.1875-.015625h-.09375l-.078125.3125.046875.03125c.234375-.09375.34375-.125.5-.125.5 0 .796875.3125.796875.859375 0 .609375-.375 1.015625-.921875 1.015625-.28125 0-.53125-.09375-.703125-.265625-.15625-.125-.234375-.265625-.34375-.59375l-.15625.0625c.125.375.171875.578125.203125.890625.328125.109375.578125.15625.8125.15625.46875 0 1.03125-.28125 1.359375-.671875.203125-.25.296875-.515625.296875-.796875s-.109375-.546875-.328125-.6875c-.15625-.109375-.296875-.15625-.59375-.21875.484375-.359375.671875-.640625.671875-1 0-.53125-.453125-.890625-1.125-.890625-.40625 0-.671875.125-.953125.40625zm0 0"/></symbol><symbol id="n" overflow="visible"><path d="m.40625-3.328125h.0625l.765625-.34375c0-.015625.015625-.015625.015625-.015625.046875 0 .046875.0625.046875.203125v2.90625c0 .3125-.0625.375-.390625.390625l-.328125.03125v.171875c.921875-.015625.921875-.015625.984375-.015625h.421875c.0625.015625.28125.015625.53125.015625v-.171875l-.3125-.03125c-.34375-.015625-.390625-.078125-.390625-.390625v-3.5625l-.09375-.015625c-.390625.203125-.8125.375-1.359375.5625zm0 0"/></symbol><symbol id="o" overflow="visible"><path d="m2.625-.421875-.078125-.0625c-.390625.234375-.53125.28125-.78125.28125-.390625 0-.71875-.171875-.890625-.46875-.109375-.1875-.15625-.359375-.15625-.703125h.875c.40625 0 .671875-.015625 1.078125-.09375.015625-.078125.015625-.140625.015625-.203125 0-.6875-.4375-1.140625-1.109375-1.140625-.234375 0-.484375.078125-.734375.21875-.484375.28125-.6875.65625-.6875 1.28125 0 .375.09375.703125.25.921875.234375.328125.640625.515625 1.09375.515625.21875 0 .4375-.046875.6875-.15625.171875-.078125.296875-.15625.3125-.1875zm-.46875-1.1875c-.3125.015625-.453125.03125-.671875.03125-.28125 0-.4375-.015625-.765625-.046875 0-.28125.03125-.40625.109375-.5625.125-.265625.390625-.421875.671875-.421875.203125 0 .359375.078125.46875.234375.125.203125.171875.375.1875.765625zm0 0"/></symbol><symbol id="p" overflow="visible"><path d="m3.125-1.09375c.09375 0 .171875 0 .171875-.09375s-.078125-.09375-.171875-.09375h-2.5625c-.078125 0-.171875 0-.171875.09375s.09375.09375.171875.09375zm0 0"/></symbol><symbol id="q" overflow="visible"><path d="m.09375-.40625c0 .09375 0 .15625-.03125.296875-.015625.0625-.015625.078125-.015625.109375.0625.03125.140625.046875.1875.046875.15625 0 .328125-.125.46875-.34375l.34375-.53125.0625.3125c.046875.390625.15625.5625.328125.5625.09375 0 .234375-.078125.390625-.203125l.21875-.203125-.046875-.09375c-.15625.140625-.265625.21875-.34375.21875-.0625 0-.125-.046875-.171875-.140625s-.09375-.265625-.109375-.390625l-.09375-.46875.171875-.21875c.203125-.296875.328125-.40625.46875-.40625.078125 0 .125.046875.15625.109375l.0625-.015625.0625-.390625c-.046875-.03125-.09375-.046875-.125-.046875-.1875 0-.375.171875-.65625.59375l-.171875.25-.015625-.21875c-.0625-.453125-.1875-.625-.453125-.625-.125 0-.21875.046875-.265625.09375l-.265625.390625.078125.046875c.140625-.15625.234375-.21875.3125-.21875.15625 0 .265625.171875.328125.625l.0625.28125-.1875.28125c-.203125.3125-.34375.453125-.484375.453125-.0625 0-.109375-.015625-.125-.03125l-.046875-.140625zm0 0"/></symbol><symbol id="r" overflow="visible"><path d="m.0625-.078125v.09375c.671875-.015625.671875-.015625.796875-.015625s.125 0 .828125.015625c-.015625-.078125-.015625-.109375-.015625-.171875 0-.046875 0-.078125.015625-.15625-.421875.015625-.578125.015625-1.25.03125l.65625-.6875c.34375-.375.453125-.5625.453125-.84375 0-.40625-.28125-.65625-.734375-.65625-.265625 0-.4375.0625-.609375.25l-.0625.484375h.109375l.046875-.171875c.046875-.203125.1875-.296875.421875-.296875.3125 0 .5.203125.5.5 0 .265625-.140625.53125-.546875.96875zm0 0"/></symbol><path d="m1889.140625 667.221875h-1846.640625" style="fill:none;stroke-width:4.99936;stroke-linecap:round;stroke-linejoin:round;stroke:#000;stroke-miterlimit:10" transform="matrix(.1 0 0 -.1 0 141.73)"/><path d="m1929.140625 667.221875-40 10.703125v-21.445313zm0 0" stroke="#000" stroke-linecap="round" stroke-linejoin="round" stroke-miterlimit="10" stroke-width="4.99936" transform="matrix(.1 0 0 -.1 0 141.73)"/><path d="m2.5 667.221875 40-10.742188v21.445313zm0 0" stroke="#000" stroke-linecap="round" stroke-linejoin="round" stroke-miterlimit="10" stroke-width="4.99936" transform="matrix(.1 0 0 -.1 0 141.73)"/><path d="m725 1291.909375v-1249.414063" style="fill:none;stroke-width:4.99936;stroke-linecap:round;stroke-linejoin:round;stroke:#000;stroke-miterlimit:10" transform="matrix(.1 0 0 -.1 0 141.73)"/><path d="m725 1331.909375-10.703125-40h21.40625zm0 0" stroke="#000" stroke-linecap="round" stroke-linejoin="round" stroke-miterlimit="10" stroke-width="4.99936" transform="matrix(.1 0 0 -.1 0 141.73)"/><g clip-path="url(#a)"><path d="m725 2.495312 10.703125 40h-21.40625zm0 0" stroke="#000" stroke-linecap="round" stroke-linejoin="round" stroke-miterlimit="10" stroke-width="4.99936" transform="matrix(.1 0 0 -.1 0 141.73)"/></g><path d="m1621.054688 1258.120312-5.9375 6.757813-12.539063 12.929687-12.5 11.40625-12.539063 9.726563-12.5 7.890625-12.539062 5.976562-12.539062 3.90625-12.5 1.757813-12.539063-.507813-12.5-2.851562-12.539063-5.195313-12.539062-7.578125-12.5-10.078125-12.539062-12.421875-12.5-14.84375-12.539063-17.1875-12.539063-19.414062-12.5-21.5625-12.539062-23.554688-12.5-25.429687-12.539062-27.070313-12.5-28.554687-12.539063-29.765625-12.539063-30.78125-12.539062-31.5625-12.5-31.992188-12.539062-32.1875-12.5-32.109375-12.539063-31.71875-12.5-31.054687-12.539063-30.117188-12.539062-28.828125-12.5-27.382812-12.539062-25.625-12.5-23.710938-12.539063-21.523437-12.5-19.21875-12.539063-16.796875-12.539062-14.257813-12.5-11.640625-12.539062-9.023437-12.539063-6.445313-12.5-3.945312-12.539063-1.523438-12.5.742188-12.539062 2.773437-12.539062 4.648438-12.5 6.171875-12.539063 7.5-12.5 8.398437-12.539063 8.984375-12.5 9.257813-12.539062 9.101562-12.539062 8.554688-12.5 7.695312-12.539063 6.367188-12.5 4.765625-12.539063 2.8125-12.539062.507812-12.5-1.992187-12.539062-4.765625-12.5-7.734375-12.539063-10.78125-12.539063-13.90625-12.5-17.070313-12.539062-20.117187-12.5-23.125-12.539062-25.9375-12.539063-28.4375-12.5-30.664063-12.539063-32.539062-12.5-33.90625-12.539062-34.882813-12.539062-35.273437-12.5-35.117188-12.539063-34.335937-12.5-32.890625-12.539063-30.859375-12.539062-28.085938-12.5-24.726562-12.539062-20.664063-12.5-16.015625-12.539063-10.703125-12.539063-4.882812-12.5 1.523437-12.539062 8.359375-12.5 15.585938-12.539062 23.203125-12.539063 31.054687-12.5 39.0625-12.539063 47.265625-12.5 55.390625-12.539062 63.515625-12.539062 71.445313-12.5 79.179687-12.539063 86.5625-12.5 93.554688-12.539063 100.078125-8.984374 76.25" style="fill:none;stroke-width:4.99936;stroke-linecap:round;stroke-linejoin:round;stroke:#191970;stroke-miterlimit:10" transform="matrix(.1 0 0 -.1 0 141.73)"/><path d="m164.015625 18.230469-.800781-1.828125-.5-1.015625-1.21875 1.0625.90625.605469z" fill="#191970"/><path d="m1640.15625 1234.995312-8.007812 18.28125-5 10.15625-12.1875-10.625 9.0625-6.054687zm0 0" style="fill:none;stroke-width:4.99936;stroke-linecap:round;stroke-linejoin:round;stroke:#191970;stroke-miterlimit:10" transform="matrix(.1 0 0 -.1 0 141.73)"/><path d="m387.8125 961.714062-4.453125-30.742187 15.976563 1.875zm0 0" style="fill:#191970;stroke-width:4.99936;stroke-linecap:round;stroke-linejoin:round;stroke:#191970;stroke-miterlimit:10" transform="matrix(.1 0 0 -.1 0 141.73)"/><path d="m243.320312 667.221875v-22.1875" style="fill:none;stroke-width:4.99936;stroke-linecap:round;stroke-linejoin:round;stroke:#000;stroke-miterlimit:10" transform="matrix(.1 0 0 -.1 0 141.73)"/><path d="m484.179688 667.221875v-22.1875" style="fill:none;stroke-width:4.99936;stroke-linecap:round;stroke-linejoin:round;stroke:#000;stroke-miterlimit:10" transform="matrix(.1 0 0 -.1 0 141.73)"/><path d="m965.820312 667.221875v-22.1875" style="fill:none;stroke-width:4.99936;stroke-linecap:round;stroke-linejoin:round;stroke:#000;stroke-miterlimit:10" transform="matrix(.1 0 0 -.1 0 141.73)"/><path d="m1206.640625 667.221875v-22.1875" style="fill:none;stroke-width:4.99936;stroke-linecap:round;stroke-linejoin:round;stroke:#000;stroke-miterlimit:10" transform="matrix(.1 0 0 -.1 0 141.73)"/><path d="m1447.5 667.221875v-22.1875" style="fill:none;stroke-width:4.99936;stroke-linecap:round;stroke-linejoin:round;stroke:#000;stroke-miterlimit:10" transform="matrix(.1 0 0 -.1 0 141.73)"/><path d="m1688.320312 667.221875v-22.1875" style="fill:none;stroke-width:4.99936;stroke-linecap:round;stroke-linejoin:round;stroke:#000;stroke-miterlimit:10" transform="matrix(.1 0 0 -.1 0 141.73)"/><path d="m725 224.057812h-24.101562" style="fill:none;stroke-width:4.99936;stroke-linecap:round;stroke-linejoin:round;stroke:#000;stroke-miterlimit:10" transform="matrix(.1 0 0 -.1 0 141.73)"/><path d="m725 445.659375h-24.101562" style="fill:none;stroke-width:4.99936;stroke-linecap:round;stroke-linejoin:round;stroke:#000;stroke-miterlimit:10" transform="matrix(.1 0 0 -.1 0 141.73)"/><path d="m725 888.784375h-24.101562" style="fill:none;stroke-width:4.99936;stroke-linecap:round;stroke-linejoin:round;stroke:#000;stroke-miterlimit:10" transform="matrix(.1 0 0 -.1 0 141.73)"/><path d="m725 1110.346875h-24.101562" style="fill:none;stroke-width:4.99936;stroke-linecap:round;stroke-linejoin:round;stroke:#000;stroke-miterlimit:10" transform="matrix(.1 0 0 -.1 0 141.73)"/><use x="194.52" xlink:href="#b" y="79.2101"/><use x="74.64" xlink:href="#c" y="5.6499"/><use x="77.27984" xlink:href="#d" y="5.6499"/><use x="80.04" xlink:href="#b" y="5.6499"/><use x="83.40016" xlink:href="#e" y="5.6499"/><g fill="#191970"><use x="90.3602" xlink:href="#d" y="90.13"/><use x="93.12036" xlink:href="#b" y="90.13"/><use x="96.3602" xlink:href="#g" y="87.96984"/><use x="100.20004" xlink:href="#k" y="90.13"/><use x="106.31996" xlink:href="#l" y="90.13"/><use x="109.5598" xlink:href="#b" y="90.13"/><use x="112.80003" xlink:href="#h" y="87.96984"/><use x="116.63987" xlink:href="#k" y="90.13"/><use x="123.00003" xlink:href="#b" y="90.13"/><use x="126.23987" xlink:href="#i" y="87.96984"/><use x="130.0801" xlink:href="#f" y="90.13"/><use x="136.0801" xlink:href="#m" y="90.13"/><use x="139.31994" xlink:href="#b" y="90.13"/><use x="143.75978" xlink:href="#k" y="90.13"/><use x="149.75978" xlink:href="#n" y="90.13"/><use x="152.8797" xlink:href="#e" y="90.13"/><use x="155.39962" xlink:href="#o" y="90.13"/><use x="158.28009" xlink:href="#p" y="87.96984"/><use x="162.11993" xlink:href="#q" y="87.96984"/><use x="164.40001" xlink:href="#r" y="86.28976"/><use x="166.91993" xlink:href="#j" y="87.96984"/><use x="169.679927" xlink:href="#g" y="87.96984"/></g></svg>