<svg height="170.27pt" viewBox="0 0 227.77 170.27" width="227.77pt" xmlns="http://www.w3.org/2000/svg" xmlns:xlink="http://www.w3.org/1999/xlink"><clipPath id="a"><path d="m147.851562 7.441406h66.21875v66.214844h-66.21875zm0 0"/></clipPath><clipPath id="b"><path d="m147.851562 62h2.148438v11.65625h-2.148438zm0 0"/></clipPath><clipPath id="c"><path d="m147.851562 7.441406h66.21875v66.214844h-66.21875zm0 0"/></clipPath><clipPath id="d"><path d="m147.851562 47h18.148438v26.65625h-18.148438zm0 0"/></clipPath><clipPath id="e"><path d="m147.851562 7.441406h66.21875v66.214844h-66.21875zm0 0"/></clipPath><clipPath id="f"><path d="m147.851562 33h34.148438v40.65625h-34.148438zm0 0"/></clipPath><clipPath id="g"><path d="m147.851562 7.441406h66.21875v66.214844h-66.21875zm0 0"/></clipPath><clipPath id="h"><path d="m147.851562 18h50.148438v55.65625h-50.148438zm0 0"/></clipPath><clipPath id="i"><path d="m147.851562 7.441406h66.21875v66.214844h-66.21875zm0 0"/></clipPath><clipPath id="j"><path d="m147.851562 7.441406h66.148438v66.214844h-66.148438zm0 0"/></clipPath><clipPath id="k"><path d="m147.851562 7.441406h66.21875v66.214844h-66.21875zm0 0"/></clipPath><clipPath id="l"><path d="m164 7.441406h50.070312v55.558594h-50.070312zm0 0"/></clipPath><clipPath id="m"><path d="m147.851562 7.441406h66.21875v66.214844h-66.21875zm0 0"/></clipPath><clipPath id="n"><path d="m180 7.441406h34.070312v40.558594h-34.070312zm0 0"/></clipPath><clipPath id="o"><path d="m147.851562 7.441406h66.21875v66.214844h-66.21875zm0 0"/></clipPath><clipPath id="p"><path d="m196 7.441406h18.070312v26.558594h-18.070312zm0 0"/></clipPath><clipPath id="q"><path d="m147.851562 7.441406h66.21875v66.214844h-66.21875zm0 0"/></clipPath><clipPath id="r"><path d="m212 7.441406h2.070312v11.558594h-2.070312zm0 0"/></clipPath><clipPath id="s"><path d="m147.851562 7.441406h66.21875v66.214844h-66.21875zm0 0"/></clipPath><clipPath id="t"><path d="m147.851562 100.554688h66.21875v.445312h-66.21875zm0 0"/></clipPath><clipPath id="u"><path d="m147.851562 101h66.21875v1h-66.21875zm0 0"/></clipPath><clipPath id="v"><path d="m147.851562 102h66.21875v1h-66.21875zm0 0"/></clipPath><clipPath id="w"><path d="m147.851562 103h66.21875v1h-66.21875zm0 0"/></clipPath><clipPath id="x"><path d="m147.851562 104h66.21875v1h-66.21875zm0 0"/></clipPath><clipPath id="y"><path d="m147.851562 105h66.21875v1h-66.21875zm0 0"/></clipPath><clipPath id="z"><path d="m147.851562 106h66.21875v1h-66.21875zm0 0"/></clipPath><clipPath id="A"><path d="m147.851562 107h66.21875v1h-66.21875zm0 0"/></clipPath><clipPath id="B"><path d="m147.851562 108h66.21875v1h-66.21875zm0 0"/></clipPath><clipPath id="C"><path d="m147.851562 108h66.21875v2h-66.21875zm0 0"/></clipPath><clipPath id="D"><path d="m147.851562 109h66.21875v2h-66.21875zm0 0"/></clipPath><clipPath id="E"><path d="m147.851562 110h66.21875v2h-66.21875zm0 0"/></clipPath><clipPath id="F"><path d="m147.851562 111h66.21875v2h-66.21875zm0 0"/></clipPath><clipPath id="G"><path d="m147.851562 112h66.21875v2h-66.21875zm0 0"/></clipPath><clipPath id="H"><path d="m147.851562 113h66.21875v2h-66.21875zm0 0"/></clipPath><clipPath id="I"><path d="m147.851562 114h66.21875v2h-66.21875zm0 0"/></clipPath><clipPath id="J"><path d="m147.851562 115h66.21875v2h-66.21875zm0 0"/></clipPath><clipPath id="K"><path d="m147.851562 116h66.21875v2h-66.21875zm0 0"/></clipPath><clipPath id="L"><path d="m147.851562 117h66.21875v2h-66.21875zm0 0"/></clipPath><clipPath id="M"><path d="m147.851562 118h66.21875v2h-66.21875zm0 0"/></clipPath><clipPath id="N"><path d="m147.851562 119h66.21875v2h-66.21875zm0 0"/></clipPath><clipPath id="O"><path d="m147.851562 120h66.21875v1h-66.21875zm0 0"/></clipPath><clipPath id="P"><path d="m147.851562 121h66.21875v1h-66.21875zm0 0"/></clipPath><clipPath id="Q"><path d="m147.851562 122h66.21875v1h-66.21875zm0 0"/></clipPath><clipPath id="R"><path d="m147.851562 123h66.21875v1h-66.21875zm0 0"/></clipPath><clipPath id="S"><path d="m147.851562 124h66.21875v1h-66.21875zm0 0"/></clipPath><clipPath id="T"><path d="m147.851562 125h66.21875v1h-66.21875zm0 0"/></clipPath><clipPath id="U"><path d="m147.851562 126h66.21875v1h-66.21875zm0 0"/></clipPath><clipPath id="V"><path d="m147.851562 127h66.21875v1h-66.21875zm0 0"/></clipPath><clipPath id="W"><path d="m147.851562 128h66.21875v1h-66.21875zm0 0"/></clipPath><clipPath id="X"><path d="m147.851562 129h66.21875v1h-66.21875zm0 0"/></clipPath><clipPath id="Y"><path d="m147.851562 130h66.21875v1h-66.21875zm0 0"/></clipPath><clipPath id="Z"><path d="m147.851562 131h66.21875v1h-66.21875zm0 0"/></clipPath><clipPath id="aa"><path d="m147.851562 132h66.21875v1h-66.21875zm0 0"/></clipPath><clipPath id="ab"><path d="m158 100.554688h2v66.214843h-2zm0 0"/></clipPath><clipPath id="ac"><path d="m147.851562 133h66.21875v1h-66.21875zm0 0"/></clipPath><clipPath id="ad"><path d="m180 100.554688h2v66.214843h-2zm0 0"/></clipPath><clipPath id="ae"><path d="m147.851562 134h66.21875v1h-66.21875zm0 0"/></clipPath><clipPath id="af"><path d="m202 100.554688h1v66.214843h-1zm0 0"/></clipPath><clipPath id="ag"><path d="m147.851562 135h66.21875v1h-66.21875zm0 0"/></clipPath><clipPath id="ah"><path d="m147.851562 136h66.21875v1h-66.21875zm0 0"/></clipPath><clipPath id="ai"><path d="m147.851562 137h66.21875v1h-66.21875zm0 0"/></clipPath><clipPath id="aj"><path d="m147.851562 138h66.21875v1h-66.21875zm0 0"/></clipPath><clipPath id="ak"><path d="m147.851562 139h66.21875v1h-66.21875zm0 0"/></clipPath><clipPath id="al"><path d="m147.851562 140h66.21875v1h-66.21875zm0 0"/></clipPath><clipPath id="am"><path d="m147.851562 141h66.21875v1h-66.21875zm0 0"/></clipPath><clipPath id="an"><path d="m147.851562 142h66.21875v1h-66.21875zm0 0"/></clipPath><clipPath id="ao"><path d="m147.851562 143h66.21875v1h-66.21875zm0 0"/></clipPath><clipPath id="ap"><path d="m147.851562 144h66.21875v1h-66.21875zm0 0"/></clipPath><clipPath id="aq"><path d="m147.851562 145h66.21875v1h-66.21875zm0 0"/></clipPath><clipPath id="ar"><path d="m147.851562 146h66.21875v1h-66.21875zm0 0"/></clipPath><clipPath id="as"><path d="m147.851562 147h66.21875v1h-66.21875zm0 0"/></clipPath><clipPath id="at"><path d="m147.851562 148h66.21875v1h-66.21875zm0 0"/></clipPath><clipPath id="au"><path d="m147.851562 149h66.21875v1h-66.21875zm0 0"/></clipPath><clipPath id="av"><path d="m147.851562 150h66.21875v1h-66.21875zm0 0"/></clipPath><clipPath id="aw"><path d="m147.851562 151h66.21875v1h-66.21875zm0 0"/></clipPath><clipPath id="ax"><path d="m147.851562 152h66.21875v1h-66.21875zm0 0"/></clipPath><clipPath id="ay"><path d="m147.851562 153h66.21875v1h-66.21875zm0 0"/></clipPath><clipPath id="az"><path d="m147.851562 154h66.21875v1h-66.21875zm0 0"/></clipPath><clipPath id="aA"><path d="m147.851562 155h66.21875v1h-66.21875zm0 0"/></clipPath><clipPath id="aB"><path d="m147.851562 156h66.21875v1h-66.21875zm0 0"/></clipPath><clipPath id="aC"><path d="m147.851562 157h66.21875v1h-66.21875zm0 0"/></clipPath><clipPath id="aD"><path d="m147.851562 158h66.21875v1h-66.21875zm0 0"/></clipPath><clipPath id="aE"><path d="m147.851562 159h66.21875v1h-66.21875zm0 0"/></clipPath><clipPath id="aF"><path d="m147.851562 160h66.21875v1h-66.21875zm0 0"/></clipPath><clipPath id="aG"><path d="m147.851562 161h66.21875v1h-66.21875zm0 0"/></clipPath><clipPath id="aH"><path d="m147.851562 162h66.21875v1h-66.21875zm0 0"/></clipPath><clipPath id="aI"><path d="m147.851562 163h66.21875v1h-66.21875zm0 0"/></clipPath><clipPath id="aJ"><path d="m147.851562 164h66.21875v1h-66.21875zm0 0"/></clipPath><clipPath id="aK"><path d="m147.851562 165h66.21875v1h-66.21875zm0 0"/></clipPath><clipPath id="aL"><path d="m147.851562 165h66.21875v1.769531h-66.21875zm0 0"/></clipPath><clipPath id="aM"><path d="m147.851562 166h66.21875v.769531h-66.21875zm0 0"/></clipPath><symbol id="aN" overflow="visible"><path d="m2.484375-.765625-.578125-4.21875v-.0625c-.015625-.15625.109375-.234375.34375-.25l.328125-.015625v-.21875h-.328125c-.296875.015625-.515625.015625-.65625.015625s-.375 0-.671875-.015625h-.328125v.21875l.203125.015625c.359375.03125.421875.09375.46875.390625l.703125 4.96875h.40625l3.015625-4.953125c.203125-.3125.265625-.375.5-.40625l.140625-.015625v-.21875h-.234375c-.21875.015625-.40625.015625-.53125.015625-.078125 0-.296875 0-.625-.015625h-.375v.21875l.21875.015625c.296875.03125.453125.109375.453125.25 0 .09375-.03125.1875-.125.34375zm0 0"/></symbol><symbol id="aO" overflow="visible"><path d="m6.359375-5.3125.03125-.21875h-.140625l-.71875.015625c-.125 0-.296875 0-.640625 0l-.5-.015625-.03125.21875.390625.015625c.1875.015625.28125.078125.28125.21875 0 .046875 0 .0625-.015625.109375l-.5625 3.546875c-.390625.46875-.625.671875-1.03125.875-.3125.15625-.609375.234375-.90625.234375-.6875 0-1.109375-.359375-1.109375-.921875 0-.140625.015625-.265625.046875-.484375l.703125-3.8125h-.25c-.203125.015625-.375.015625-.453125.015625s-.25 0-.46875-.015625h-.25l-.03125.21875.421875.015625c.203125.015625.265625.046875.265625.1875 0 .0625-.015625.296875-.046875.46875l-.515625 3c-.03125.15625-.046875.359375-.046875.484375 0 .8125.53125 1.3125 1.421875 1.3125.359375 0 .6875-.078125 1.0625-.28125.484375-.234375.734375-.421875 1.15625-.90625-.0625.375-.125.578125-.21875 1.015625l.03125.046875h.1875l.484375-.03125c.03125 0 .21875.015625.46875.015625l.25.015625.046875-.234375-.484375-.03125c-.171875-.015625-.25-.0625-.25-.171875s0-.15625.046875-.4375l.671875-4.0625c.0625-.296875.109375-.34375.421875-.375zm0 0"/></symbol><symbol id="aP" overflow="visible"><path d="m3.703125-5.640625-2.984375 4.75c-.296875.4375-.4375.578125-.703125.640625l-.171875.03125v.25c.734375-.03125.734375-.03125.90625-.03125.140625 0 .15625 0 .84375.03125v-.234375l-.40625-.015625c-.125-.015625-.25-.078125-.25-.15625 0-.0625.046875-.171875.203125-.4375l.8125-1.40625h1.96875l.203125 1.5v.03125s.015625.03125.015625.078125c.015625.0625.015625.140625.015625.171875 0 .125-.109375.203125-.34375.21875l-.34375.015625v.234375c.8125-.03125.8125-.03125.96875-.03125s.15625 0 .984375.03125v-.234375l-.21875-.015625c-.375-.0625-.375-.0625-.4375-.421875l-.703125-5zm-.109375.828125.296875 2.3125h-1.734375zm0 0"/></symbol><symbol id="aQ" overflow="visible"><path d="m1.59375-3c.03125-.078125.0625-.140625.0625-.203125 0-.1875-.15625-.328125-.359375-.328125-.171875 0-.296875.109375-.328125.28125l-.765625 2.765625c0 .015625-.015625.078125-.015625.078125 0 .078125.15625.125.21875.125.03125 0 .03125-.015625.078125-.109375zm0 0"/></symbol><symbol id="aR" overflow="visible"><path d="m4.28125-2.03125c.09375 0 .21875 0 .21875-.125s-.125-.125-.203125-.125h-3.734375c-.09375 0-.21875 0-.21875.125s.125.125.21875.125zm.015625 1.203125c.078125 0 .203125 0 .203125-.125s-.125-.125-.21875-.125h-3.71875c-.09375 0-.21875 0-.21875.125s.125.125.21875.125zm0 0"/></symbol><symbol id="aS" overflow="visible"><path d="m4.109375-1.4375c.109375 0 .21875 0 .21875-.125s-.109375-.125-.21875-.125h-3.375c-.109375 0-.21875 0-.21875.125s.109375.125.21875.125zm0 0"/></symbol><symbol id="aT" overflow="visible"><path d="m1.671875-1.078125v.4375c0 .359375-.0625.453125-.359375.46875l-.359375.015625v.171875c.78125-.015625.78125-.015625.9375-.015625.140625 0 .140625 0 .9375.015625v-.171875l-.296875-.015625c-.28125-.03125-.359375-.109375-.359375-.46875v-.4375c.359375 0 .484375 0 .65625.015625v-.421875c-.28125.03125-.40625.03125-.484375.015625h-.171875v-.828125c0-1.0625.015625-1.578125.046875-1.828125l-.078125-.03125-.4375.171875-1.6875 2.765625.0625.140625zm0-.390625h-1.28125l1.28125-2.109375zm0 0"/></symbol><symbol id="aU" overflow="visible"><path d="m.09375-.140625v.15625c1.125-.015625 1.125-.015625 1.34375-.015625.203125 0 .203125 0 1.359375.015625-.015625-.125-.015625-.1875-.015625-.265625s0-.140625.015625-.265625c-.6875.03125-.953125.03125-2.0625.0625l1.078125-1.15625c.59375-.625.765625-.953125.765625-1.40625 0-.6875-.46875-1.109375-1.21875-1.109375-.4375 0-.734375.125-1.03125.421875l-.09375.8125h.171875l.078125-.28125c.09375-.34375.3125-.484375.71875-.484375.515625 0 .84375.3125.84375.828125 0 .453125-.25.890625-.9375 1.609375zm0 0"/></symbol><symbol id="aV" overflow="visible"><path d="m.734375-.671875c-.171875 0-.328125.171875-.328125.359375 0 .171875.15625.34375.328125.34375.1875 0 .359375-.15625.359375-.34375s-.171875-.359375-.359375-.359375zm0 0"/></symbol><symbol id="aW" overflow="visible"><path d="m.40625-3.328125h.046875l.78125-.34375h.015625c.03125 0 .046875.046875.046875.1875v2.90625c0 .3125-.0625.375-.390625.40625l-.328125.015625v.171875c.921875-.015625.921875-.015625.984375-.015625h.40625c.078125.015625.28125.015625.53125.015625v-.171875l-.3125-.015625c-.328125-.03125-.390625-.09375-.390625-.40625v-3.546875l-.078125-.03125c-.390625.203125-.8125.390625-1.359375.578125zm0 0"/></symbol><symbol id="aX" overflow="visible"><path d="m.59375-2.28125v1.71875c0 .4375.1875.640625.65625.640625.125 0 .28125-.03125.3125-.078125l.28125-.3125-.078125-.109375c-.140625.09375-.234375.109375-.34375.109375-.234375 0-.328125-.109375-.328125-.40625v-1.5625h.765625l.046875-.328125-.8125.03125v-.21875c0-.25.015625-.46875.0625-.859375l-.078125-.0625c-.140625.09375-.3125.171875-.5.234375.015625.171875.015625.28125.015625.46875v.421875l-.46875.203125v.125zm0 0"/></symbol><symbol id="aY" overflow="visible"><path d="m3.015625-2.78125-.0625-.03125c-.296875.125-.609375.21875-.9375.25v.171875h.234375c.234375 0 .25.03125.25.4375v.96875c0 .140625-.078125.296875-.21875.4375-.15625.171875-.359375.25-.59375.25-.203125 0-.375-.0625-.46875-.171875-.078125-.09375-.125-.28125-.125-.546875v-1.765625l-.046875-.03125c-.3125.125-.625.21875-.9375.25v.171875h.21875c.234375 0 .265625.03125.265625.4375v1c0 .421875.03125.609375.140625.75.140625.1875.359375.28125.703125.28125.265625 0 .5-.09375.671875-.234375l.390625-.375c0 .171875 0 .265625-.015625.546875.40625-.015625.40625-.015625.5-.015625.078125 0 .078125 0 .5.015625v-.171875l-.25-.015625c-.203125-.015625-.21875-.0625-.21875-.4375zm0 0"/></symbol><symbol id="aZ" overflow="visible"><path d="m.140625-2.390625h.21875c.234375 0 .265625.03125.265625.4375v1.34375c0 .375-.015625.421875-.21875.4375l-.28125.015625v.171875c.4375-.015625.59375-.015625.734375-.015625.125 0 .125 0 .859375.015625v-.171875l-.3125-.015625c-.265625-.03125-.28125-.046875-.28125-.4375v-1.03125c0-.359375.234375-.65625.53125-.65625.1875 0 .3125.078125.40625.28125h.125l.046875-.71875c-.0625-.046875-.171875-.078125-.28125-.078125-.171875 0-.375.109375-.5.25l-.328125.390625v-.609375l-.046875-.03125c-.3125.125-.625.21875-.9375.25zm0 0"/></symbol><symbol id="a0" overflow="visible"><path d="m2.453125.015625c.359375-.015625.375-.015625.46875-.015625s.09375 0 .5.015625v-.171875l-.25-.015625c-.203125-.015625-.21875-.0625-.21875-.4375v-1.15625c0-.703125-.328125-1.046875-1-1.046875-.21875 0-.34375.046875-.46875.15625l-.453125.390625v-.515625l-.0625-.03125c-.296875.125-.609375.21875-.921875.25v.171875h.21875c.234375 0 .265625.03125.265625.4375v1.34375c0 .375-.015625.421875-.21875.4375l-.28125.015625v.171875c.40625-.015625.578125-.015625.75-.015625s.328125 0 .734375.015625v-.171875l-.265625-.015625c-.203125-.015625-.21875-.0625-.21875-.4375v-1.265625c0-.265625.390625-.5625.765625-.5625.390625 0 .65625.296875.65625.75zm0 0"/></symbol><symbol id="a1" overflow="visible"><path d="m.328125-.0625.0625.078125c.234375-.015625.234375-.015625.28125-.015625.03125 0 .03125 0 .265625.015625.25-.65625.546875-1.265625.9375-1.984375l1.09375-1.96875v-.1875c-.640625.03125-.84375.03125-1.328125.03125-.4375 0-.734375 0-1.3125-.03125l-.0625.03125c.015625.5625.015625.5625.015625.625s0 .0625-.015625.609375h.171875l.046875-.328125c.046875-.375.09375-.421875.359375-.421875h1.609375c-.25.484375-.4375.84375-.65625 1.203125zm0 0"/></symbol><symbol id="a2" overflow="visible"><path d="m.578125.125c.65625-.21875.953125-.359375 1.265625-.640625.578125-.484375.890625-1.171875.890625-1.984375 0-1-.484375-1.625-1.28125-1.625-.765625 0-1.328125.59375-1.328125 1.40625 0 .6875.4375 1.1875 1.0625 1.1875.203125 0 .4375-.0625.546875-.15625l.421875-.34375c-.046875 1-.703125 1.734375-1.78125 2v.046875zm.859375-4.046875c.265625 0 .46875.109375.59375.34375.109375.203125.1875.484375.1875.765625 0 .546875-.328125.921875-.78125.921875-.484375 0-.796875-.4375-.796875-1.046875s.3125-.984375.796875-.984375zm0 0"/></symbol><symbol id="a3" overflow="visible"><path d="m1.9375-.484375-.03125.5c.390625-.015625.390625-.015625.46875-.015625.03125 0 .1875 0 .4375.015625v-.171875l-.234375-.015625c-.140625 0-.15625-.0625-.15625-.34375v-1.09375c0-.875-.25-1.203125-.953125-1.203125-.25 0-.5.078125-.71875.203125l-.3125.203125v.390625l.15625.03125.078125-.1875c.125-.28125.171875-.3125.453125-.3125.5625 0 .796875.21875.8125.765625l-.59375.109375c-.8125.140625-1.15625.421875-1.15625.9375 0 .46875.28125.75.765625.75.09375 0 .203125-.03125.25-.046875zm0-.25c-.171875.234375-.546875.46875-.78125.46875s-.453125-.21875-.453125-.484375c0-.21875.125-.421875.296875-.546875.15625-.078125.484375-.171875.9375-.234375zm0 0"/></symbol><symbol id="a4" overflow="visible"><path d="m2.46875-2.609375c-.34375-.15625-.5-.203125-.71875-.203125-.15625 0-.296875.046875-.453125.125l-.53125.265625c-.328125.1875-.5625.625-.5625 1.125 0 .484375.171875.875.46875 1.125.203125.171875.484375.25.859375.25.125 0 .265625-.03125.296875-.046875l.65625-.5625-.03125.546875c.296875-.015625.390625-.015625.46875-.015625h.25c.046875.015625.171875.015625.296875.015625v-.171875l-.28125-.015625c-.203125-.015625-.21875-.0625-.21875-.4375v-3.6875l-.046875-.046875c-.265625.09375-.46875.15625-.9375.21875v.171875h.328125c.109375 0 .15625.0625.15625.25zm0 1.28125c0 .390625-.015625.453125-.09375.59375-.171875.28125-.453125.46875-.734375.46875-.53125 0-.90625-.515625-.90625-1.21875 0-.65625.3125-1.046875.859375-1.046875.21875 0 .46875.078125.671875.234375.125.078125.203125.15625.203125.203125zm0 0"/></symbol><symbol id="a5" overflow="visible"><path d="m2.609375-.421875-.078125-.0625c-.375.234375-.515625.28125-.765625.28125-.390625 0-.71875-.171875-.890625-.46875-.109375-.1875-.15625-.359375-.15625-.703125h.859375c.421875 0 .671875-.015625 1.09375-.078125 0-.09375.015625-.140625.015625-.21875 0-.6875-.453125-1.140625-1.125-1.140625-.21875 0-.46875.078125-.71875.234375-.484375.28125-.6875.640625-.6875 1.265625 0 .375.09375.703125.25.921875.234375.328125.640625.515625 1.09375.515625.21875 0 .4375-.046875.6875-.15625.15625-.078125.28125-.140625.3125-.1875zm-.46875-1.171875c-.296875.015625-.453125.015625-.65625.015625-.28125 0-.4375 0-.765625-.03125 0-.28125.03125-.421875.109375-.578125.125-.265625.375-.421875.671875-.421875.1875 0 .34375.078125.453125.234375.140625.203125.171875.375.1875.78125zm0 0"/></symbol><symbol id="a6" overflow="visible"><path d="m2.125-3.953125h.25c.109375 0 .15625.109375.15625.328125v3.015625c0 .375-.015625.421875-.21875.4375l-.28125.015625v.171875c.609375-.015625.609375-.015625.75-.015625.15625 0 .15625 0 .75.015625v-.171875l-.28125-.015625c-.203125-.015625-.21875-.0625-.21875-.4375v-3.671875l-.046875-.0625c-.25.09375-.453125.140625-.859375.21875v-.171875c-.0625 0-.0625-.015625-.125-.03125-.125-.015625-.1875-.03125-.234375-.03125-.1875 0-.40625.109375-.53125.25l-.34375.40625c-.171875.1875-.25.453125-.25.859375v.25l-.421875.1875v.125l.421875-.015625v1.6875c0 .375-.03125.421875-.234375.4375l-.265625.015625v.171875c.59375-.015625.59375-.015625.75-.015625.140625 0 .3125 0 .78125.015625v-.171875l-.3125-.015625c-.203125-.015625-.21875-.0625-.21875-.4375v-1.6875h.734375l.046875-.328125-.78125.03125v-.515625c0-.6875.078125-.859375.40625-.859375.15625 0 .265625.046875.453125.171875l.125-.03125zm0 0"/></symbol><symbol id="a7" overflow="visible"><path d="m2.390625-1.859375c0-.28125.03125-.515625.078125-.734375-.234375-.140625-.453125-.21875-.6875-.21875-.296875 0-.625.125-.984375.34375-.421875.265625-.640625.6875-.640625 1.21875 0 .796875.5625 1.375 1.375 1.375.3125 0 .75-.125.8125-.203125l.125-.203125-.0625-.078125c-.21875.109375-.40625.171875-.625.171875-.65625 0-1.09375-.515625-1.09375-1.3125 0-.640625.296875-1 .828125-1 .265625 0 .5625.125.65625.28125l.046875.359375zm0 0"/></symbol><symbol id="a8" overflow="visible"><path d="m2.296875-1.296875c0-.5625-.453125-1-1-1-.5625 0-1.015625.453125-1.015625 1s.453125 1 1.015625 1c.546875 0 1-.4375 1-1zm-1 .796875c-.453125 0-.796875-.359375-.796875-.796875s.34375-.796875.796875-.796875c.4375 0 .796875.34375.796875.796875s-.359375.796875-.796875.796875zm0 0"/></symbol><symbol id="a9" overflow="visible"><path d="m4.328125 0 .28125-1.203125h-.21875c-.234375.4375-.375.5-.734375.5h-2.390625l1.890625-2.21875-1.625-1.84375h1.734375c.46875 0 .671875.109375.90625.671875h.203125l-.203125-1h-3.671875v.21875l1.96875 2.28125-2.125 2.375v.21875zm0 0"/></symbol><symbol id="ba" overflow="visible"><path d="m5.734375-2.734375c.125 0 .28125 0 .28125-.15625 0-.171875-.15625-.171875-.28125-.171875h-4.984375c-.125 0-.28125 0-.28125.171875 0 .15625.15625.15625.28125.15625zm0 1.625c.125 0 .28125 0 .28125-.171875 0-.15625-.15625-.15625-.28125-.15625h-4.984375c-.125 0-.28125 0-.28125.15625 0 .171875.15625.171875.28125.171875zm0 0"/></symbol><symbol id="bb" overflow="visible"><path d="m1.609375 9.265625h1.546875v-.3125h-1.21875v-8.953125h1.21875v-.3125h-1.546875zm0 0"/></symbol><symbol id="bc" overflow="visible"><path d="m1.71875 9.265625v-9.578125h-1.546875v.3125h1.21875v8.953125h-1.21875v.3125zm0 0"/></symbol><symbol id="bd" overflow="visible"><path d="m.09375-.140625v.15625c1.140625-.015625 1.140625-.015625 1.359375-.015625s.21875 0 1.390625.015625c-.015625-.125-.015625-.1875-.015625-.265625s0-.140625.015625-.28125c-.703125.03125-.984375.03125-2.109375.0625l1.109375-1.171875c.59375-.625.78125-.953125.78125-1.421875 0-.6875-.484375-1.125-1.25-1.125-.4375 0-.734375.125-1.03125.421875l-.109375.828125h.171875l.09375-.28125c.09375-.34375.3125-.5.71875-.5.515625 0 .859375.328125.859375.84375 0 .453125-.265625.90625-.953125 1.640625zm0 0"/></symbol><symbol id="be" overflow="visible"><path d="m.75-.671875c-.171875 0-.34375.171875-.34375.34375 0 .1875.171875.359375.34375.359375.1875 0 .359375-.171875.359375-.359375 0-.171875-.171875-.34375-.359375-.34375zm0 0"/></symbol><symbol id="bf" overflow="visible"><path d="m.40625-3.375h.0625l.78125-.34375c.015625-.015625.015625-.015625.015625-.015625.046875 0 .046875.0625.046875.203125v2.953125c0 .3125-.0625.375-.390625.390625l-.34375.015625v.1875c.9375-.015625.9375-.015625 1.015625-.015625h.40625c.078125.015625.296875.015625.546875.015625v-.1875l-.328125-.015625c-.328125-.015625-.390625-.078125-.390625-.390625v-3.609375l-.078125-.03125c-.40625.203125-.828125.390625-1.390625.578125zm0 0"/></symbol><symbol id="bg" overflow="visible"><path d="m1.59375-4.1875c-.9375 0-1.421875.75-1.421875 2.21875 0 .703125.125 1.328125.34375 1.625s.546875.46875.9375.46875c.90625 0 1.375-.796875 1.375-2.34375 0-1.34375-.390625-1.96875-1.234375-1.96875zm-.109375.21875c.59375 0 .828125.59375.828125 2.046875 0 1.296875-.234375 1.828125-.78125 1.828125-.59375 0-.84375-.609375-.84375-2.09375 0-1.28125.21875-1.78125.796875-1.78125zm0 0"/></symbol><symbol id="bh" overflow="visible"><path d="m.765625-3.671875c.796875.015625 1.125.03125 1.859375.03125l.03125-.03125c-.015625-.109375-.015625-.15625-.015625-.25 0-.078125 0-.125.015625-.234375l-.03125-.03125c-.453125.03125-.734375.03125-1.0625.03125s-.59375 0-1.046875-.03125l-.03125.03125c0 .375.015625.640625.015625.828125 0 .515625-.03125 1.109375-.046875 1.375l.125.03125c.28125-.28125.453125-.375.75-.375.578125 0 .9375.421875.9375 1.078125 0 .671875-.375 1.0625-1.046875 1.0625-.328125 0-.625-.109375-.71875-.265625l-.28125-.5-.140625.09375c.140625.34375.21875.53125.296875.796875.171875.09375.421875.15625.671875.15625.40625 0 .84375-.1875 1.171875-.46875.375-.328125.578125-.75.578125-1.1875 0-.6875-.5-1.171875-1.1875-1.171875-.296875 0-.515625.078125-.890625.296875zm0 0"/></symbol><symbol id="bi" overflow="visible"><path d="m.578125.125c.6875-.21875.96875-.359375 1.296875-.640625.59375-.5.90625-1.203125.90625-2.015625 0-1.03125-.5-1.65625-1.296875-1.65625-.78125 0-1.359375.609375-1.359375 1.421875 0 .703125.453125 1.203125 1.078125 1.203125.21875 0 .453125-.0625.5625-.15625l.421875-.34375c-.046875 1.015625-.703125 1.765625-1.8125 2.03125v.046875zm.875-4.109375c.28125 0 .484375.109375.609375.359375.109375.1875.1875.484375.1875.765625 0 .5625-.328125.9375-.796875.9375-.484375 0-.8125-.4375-.8125-1.0625s.3125-1 .8125-1zm0 0"/></symbol><path d="m277.695312 1297.23125h580.78125" style="fill:none;stroke-width:4.99843;stroke-linecap:round;stroke-linejoin:round;stroke:#bfbfbf;stroke-miterlimit:10" transform="matrix(.1 0 0 -.1 0 170.27)"/><path d="m257.695312 1297.23125 20-5.390625v10.742187zm0 0" style="fill:#bfbfbf;stroke-width:4.99843;stroke-linecap:round;stroke-linejoin:round;stroke:#bfbfbf;stroke-miterlimit:10" transform="matrix(.1 0 0 -.1 0 170.27)"/><path d="m878.4375 1297.23125-19.960938 5.351562v-10.742187zm0 0" style="fill:#bfbfbf;stroke-width:4.99843;stroke-linecap:round;stroke-linejoin:round;stroke:#bfbfbf;stroke-miterlimit:10" transform="matrix(.1 0 0 -.1 0 170.27)"/><path d="m568.085938 1006.840625v580.78125" style="fill:none;stroke-width:4.99843;stroke-linecap:round;stroke-linejoin:round;stroke:#bfbfbf;stroke-miterlimit:10" transform="matrix(.1 0 0 -.1 0 170.27)"/><path d="m568.085938 986.840625 5.351562 20h-10.742188zm0 0" style="fill:#bfbfbf;stroke-width:4.99843;stroke-linecap:round;stroke-linejoin:round;stroke:#bfbfbf;stroke-miterlimit:10" transform="matrix(.1 0 0 -.1 0 170.27)"/><path d="m568.085938 1607.621875-5.390626-20h10.742188zm0 0" style="fill:#bfbfbf;stroke-width:4.99843;stroke-linecap:round;stroke-linejoin:round;stroke:#bfbfbf;stroke-miterlimit:10" transform="matrix(.1 0 0 -.1 0 170.27)"/><path d="m361.132812 1302.3875v-10.351563" style="fill:none;stroke-width:4.99843;stroke-linecap:round;stroke-linejoin:round;stroke:#bfbfbf;stroke-miterlimit:10" transform="matrix(.1 0 0 -.1 0 170.27)"/><path d="m562.890625 1090.317187h10.351563" style="fill:none;stroke-width:4.99843;stroke-linecap:round;stroke-linejoin:round;stroke:#bfbfbf;stroke-miterlimit:10" transform="matrix(.1 0 0 -.1 0 170.27)"/><path d="m464.609375 1302.3875v-10.351563" style="fill:none;stroke-width:4.99843;stroke-linecap:round;stroke-linejoin:round;stroke:#bfbfbf;stroke-miterlimit:10" transform="matrix(.1 0 0 -.1 0 170.27)"/><path d="m562.890625 1193.754687h10.351563" style="fill:none;stroke-width:4.99843;stroke-linecap:round;stroke-linejoin:round;stroke:#bfbfbf;stroke-miterlimit:10" transform="matrix(.1 0 0 -.1 0 170.27)"/><path d="m671.523438 1302.3875v-10.351563" style="fill:none;stroke-width:4.99843;stroke-linecap:round;stroke-linejoin:round;stroke:#bfbfbf;stroke-miterlimit:10" transform="matrix(.1 0 0 -.1 0 170.27)"/><path d="m562.890625 1400.66875h10.351563" style="fill:none;stroke-width:4.99843;stroke-linecap:round;stroke-linejoin:round;stroke:#bfbfbf;stroke-miterlimit:10" transform="matrix(.1 0 0 -.1 0 170.27)"/><path d="m775 1302.3875v-10.351563" style="fill:none;stroke-width:4.99843;stroke-linecap:round;stroke-linejoin:round;stroke:#bfbfbf;stroke-miterlimit:10" transform="matrix(.1 0 0 -.1 0 170.27)"/><path d="m562.890625 1504.145312h10.351563" style="fill:none;stroke-width:4.99843;stroke-linecap:round;stroke-linejoin:round;stroke:#bfbfbf;stroke-miterlimit:10" transform="matrix(.1 0 0 -.1 0 170.27)"/><path d="m67.152344 40.546875c0-5.710937-4.632813-10.34375-10.34375-10.34375-5.714844 0-10.347656 4.632813-10.347656 10.34375 0 5.714844 4.632812 10.347656 10.347656 10.347656 5.710937 0 10.34375-4.632812 10.34375-10.347656" fill="#c00" fill-opacity=".1"/><path d="m671.523438 1297.23125c0 57.109375-46.328126 103.4375-103.4375 103.4375-57.148438 0-103.476563-46.328125-103.476563-103.4375 0-57.148438 46.328125-103.476563 103.476563-103.476563 57.109374 0 103.4375 46.328125 103.4375 103.476563zm0 0" style="fill:none;stroke-width:4.99843;stroke-linecap:round;stroke-linejoin:round;stroke:#8b0000;stroke-miterlimit:10" transform="matrix(.1 0 0 -.1 0 170.27)"/><path d="m651.523438 1297.23125h-83.4375" style="fill:none;stroke-width:4.99843;stroke-linecap:round;stroke-linejoin:round;stroke:#191970;stroke-miterlimit:10" transform="matrix(.1 0 0 -.1 0 170.27)"/><path d="m671.523438 1297.23125-20 5.351562v-10.742187zm0 0" style="fill:#191970;stroke-width:4.99843;stroke-linecap:round;stroke-linejoin:round;stroke:#191970;stroke-miterlimit:10" transform="matrix(.1 0 0 -.1 0 170.27)"/><path d="m568.085938 1380.707812v-83.476562" style="fill:none;stroke-width:4.99843;stroke-linecap:round;stroke-linejoin:round;stroke:#2e8b57;stroke-miterlimit:10" transform="matrix(.1 0 0 -.1 0 170.27)"/><path d="m568.085938 1400.66875-5.390626-19.960938h10.742188zm0 0" style="fill:#2e8b57;stroke-width:4.99843;stroke-linecap:round;stroke-linejoin:round;stroke:#2e8b57;stroke-miterlimit:10" transform="matrix(.1 0 0 -.1 0 170.27)"/><path d="m622.890625 1666.215625-416.523437-460.3125" style="fill:none;stroke-width:1.99937;stroke-linecap:round;stroke-linejoin:round;stroke:#7f7f7f;stroke-miterlimit:10" transform="matrix(.1 0 0 -.1 0 170.27)"/><path d="m659.375 935.551562-460.3125 416.484375" style="fill:none;stroke-width:1.99937;stroke-linecap:round;stroke-linejoin:round;stroke:#7f7f7f;stroke-miterlimit:10" transform="matrix(.1 0 0 -.1 0 170.27)"/><path d="m699.609375 1596.801562-416.523437-460.3125" style="fill:none;stroke-width:1.99937;stroke-linecap:round;stroke-linejoin:round;stroke:#7f7f7f;stroke-miterlimit:10" transform="matrix(.1 0 0 -.1 0 170.27)"/><path d="m728.789062 1012.23125-460.273437 416.523437" style="fill:none;stroke-width:1.99937;stroke-linecap:round;stroke-linejoin:round;stroke:#7f7f7f;stroke-miterlimit:10" transform="matrix(.1 0 0 -.1 0 170.27)"/><path d="m776.328125 1527.3875-416.523437-460.3125" style="fill:none;stroke-width:1.99937;stroke-linecap:round;stroke-linejoin:round;stroke:#7f7f7f;stroke-miterlimit:10" transform="matrix(.1 0 0 -.1 0 170.27)"/><path d="m798.242188 1088.989062-460.3125 416.484375" style="fill:none;stroke-width:1.99937;stroke-linecap:round;stroke-linejoin:round;stroke:#7f7f7f;stroke-miterlimit:10" transform="matrix(.1 0 0 -.1 0 170.27)"/><path d="m853.046875 1457.973437-416.523437-460.3125" style="fill:none;stroke-width:1.99937;stroke-linecap:round;stroke-linejoin:round;stroke:#7f7f7f;stroke-miterlimit:10" transform="matrix(.1 0 0 -.1 0 170.27)"/><path d="m867.65625 1165.707812-460.3125 416.484375" style="fill:none;stroke-width:1.99937;stroke-linecap:round;stroke-linejoin:round;stroke:#7f7f7f;stroke-miterlimit:10" transform="matrix(.1 0 0 -.1 0 170.27)"/><path d="m929.765625 1388.559375-416.523437-460.3125" style="fill:none;stroke-width:1.99937;stroke-linecap:round;stroke-linejoin:round;stroke:#7f7f7f;stroke-miterlimit:10" transform="matrix(.1 0 0 -.1 0 170.27)"/><path d="m937.070312 1242.426562-460.3125 416.484375" style="fill:none;stroke-width:1.99937;stroke-linecap:round;stroke-linejoin:round;stroke:#7f7f7f;stroke-miterlimit:10" transform="matrix(.1 0 0 -.1 0 170.27)"/><path d="m277.695312 366.059375h580.78125" style="fill:none;stroke-width:4.99843;stroke-linecap:round;stroke-linejoin:round;stroke:#bfbfbf;stroke-miterlimit:10" transform="matrix(.1 0 0 -.1 0 170.27)"/><path d="m257.695312 366.059375 20-5.351563v10.703125zm0 0" style="fill:#bfbfbf;stroke-width:4.99843;stroke-linecap:round;stroke-linejoin:round;stroke:#bfbfbf;stroke-miterlimit:10" transform="matrix(.1 0 0 -.1 0 170.27)"/><path d="m878.4375 366.059375-19.960938 5.351562v-10.703125zm0 0" style="fill:#bfbfbf;stroke-width:4.99843;stroke-linecap:round;stroke-linejoin:round;stroke:#bfbfbf;stroke-miterlimit:10" transform="matrix(.1 0 0 -.1 0 170.27)"/><path d="m568.085938 75.66875v580.78125" style="fill:none;stroke-width:4.99843;stroke-linecap:round;stroke-linejoin:round;stroke:#bfbfbf;stroke-miterlimit:10" transform="matrix(.1 0 0 -.1 0 170.27)"/><path d="m568.085938 55.66875 5.351562 20h-10.742188zm0 0" style="fill:#bfbfbf;stroke-width:4.99843;stroke-linecap:round;stroke-linejoin:round;stroke:#bfbfbf;stroke-miterlimit:10" transform="matrix(.1 0 0 -.1 0 170.27)"/><path d="m568.085938 676.45-5.390626-20h10.742188zm0 0" style="fill:#bfbfbf;stroke-width:4.99843;stroke-linecap:round;stroke-linejoin:round;stroke:#bfbfbf;stroke-miterlimit:10" transform="matrix(.1 0 0 -.1 0 170.27)"/><path d="m361.132812 371.254687v-10.351562" style="fill:none;stroke-width:4.99843;stroke-linecap:round;stroke-linejoin:round;stroke:#bfbfbf;stroke-miterlimit:10" transform="matrix(.1 0 0 -.1 0 170.27)"/><path d="m562.890625 159.145312h10.351563" style="fill:none;stroke-width:4.99843;stroke-linecap:round;stroke-linejoin:round;stroke:#bfbfbf;stroke-miterlimit:10" transform="matrix(.1 0 0 -.1 0 170.27)"/><path d="m464.609375 371.254687v-10.351562" style="fill:none;stroke-width:4.99843;stroke-linecap:round;stroke-linejoin:round;stroke:#bfbfbf;stroke-miterlimit:10" transform="matrix(.1 0 0 -.1 0 170.27)"/><path d="m562.890625 262.621875h10.351563" style="fill:none;stroke-width:4.99843;stroke-linecap:round;stroke-linejoin:round;stroke:#bfbfbf;stroke-miterlimit:10" transform="matrix(.1 0 0 -.1 0 170.27)"/><path d="m671.523438 371.254687v-10.351562" style="fill:none;stroke-width:4.99843;stroke-linecap:round;stroke-linejoin:round;stroke:#bfbfbf;stroke-miterlimit:10" transform="matrix(.1 0 0 -.1 0 170.27)"/><path d="m562.890625 469.535937h10.351563" style="fill:none;stroke-width:4.99843;stroke-linecap:round;stroke-linejoin:round;stroke:#bfbfbf;stroke-miterlimit:10" transform="matrix(.1 0 0 -.1 0 170.27)"/><path d="m775 371.254687v-10.351562" style="fill:none;stroke-width:4.99843;stroke-linecap:round;stroke-linejoin:round;stroke:#bfbfbf;stroke-miterlimit:10" transform="matrix(.1 0 0 -.1 0 170.27)"/><path d="m562.890625 572.973437h10.351563" style="fill:none;stroke-width:4.99843;stroke-linecap:round;stroke-linejoin:round;stroke:#bfbfbf;stroke-miterlimit:10" transform="matrix(.1 0 0 -.1 0 170.27)"/><path d="m63.75 141.335938c4.234375-3.835938 4.5625-10.378907.726562-14.613282-3.832031-4.238281-10.375-4.566406-14.613281-.730468-4.234375 3.835937-4.5625 10.375-.726562 14.613281 3.832031 4.238281 10.375 4.5625 14.613281.730469" fill="#c00" fill-opacity=".1"/><g stroke-linecap="round" stroke-linejoin="round" stroke-miterlimit="10"><path d="m637.5 289.340625c42.34375 38.359375 45.625 103.789062 7.265625 146.132812-38.320313 42.382813-103.75 45.664063-146.132813 7.304688-42.34375-38.359375-45.625-103.75-7.265624-146.132813 38.320312-42.382812 103.75-45.625 146.132812-7.304687zm0 0" fill="none" stroke="#8b0000" stroke-width="4.99843" transform="matrix(.1 0 0 -.1 0 170.27)"/><path d="m624.0625 304.184375-55.976562 61.875" fill="none" stroke="#191970" stroke-width="4.99843" transform="matrix(.1 0 0 -.1 0 170.27)"/><path d="m637.5 289.340625-9.453125 18.4375-7.929687-7.1875zm0 0" fill="#191970" stroke="#191970" stroke-width="4.99843" transform="matrix(.1 0 0 -.1 0 170.27)"/><path d="m629.960938 422.075-61.875-56.015625" fill="none" stroke="#2e8b57" stroke-width="4.99843" transform="matrix(.1 0 0 -.1 0 170.27)"/><path d="m644.765625 435.473437-18.398437-9.414062 7.1875-7.96875zm0 0" fill="#2e8b57" stroke="#2e8b57" stroke-width="4.99843" transform="matrix(.1 0 0 -.1 0 170.27)"/><path d="m878.4375 573.0125-620.78125-.039063" fill="none" stroke="#7f7f7f" stroke-width="1.99937" transform="matrix(.1 0 0 -.1 0 170.27)"/><path d="m361.171875 55.66875-.039063 620.78125" fill="none" stroke="#7f7f7f" stroke-width="1.99937" transform="matrix(.1 0 0 -.1 0 170.27)"/><path d="m878.4375 469.535937-620.742188-.039062" fill="none" stroke="#7f7f7f" stroke-width="1.99937" transform="matrix(.1 0 0 -.1 0 170.27)"/><path d="m464.648438 55.66875-.078126 620.78125" fill="none" stroke="#7f7f7f" stroke-width="1.99937" transform="matrix(.1 0 0 -.1 0 170.27)"/><path d="m878.4375 366.098437-620.742188-.078125" fill="none" stroke="#7f7f7f" stroke-width="1.99937" transform="matrix(.1 0 0 -.1 0 170.27)"/><path d="m568.085938 55.66875-.039063 620.78125" fill="none" stroke="#7f7f7f" stroke-width="1.99937" transform="matrix(.1 0 0 -.1 0 170.27)"/><path d="m878.476562 262.621875-620.78125-.039063" fill="none" stroke="#7f7f7f" stroke-width="1.99937" transform="matrix(.1 0 0 -.1 0 170.27)"/><path d="m671.5625 55.707812-.039062 620.742188" fill="none" stroke="#7f7f7f" stroke-width="1.99937" transform="matrix(.1 0 0 -.1 0 170.27)"/><path d="m878.476562 159.184375-620.78125-.078125" fill="none" stroke="#7f7f7f" stroke-width="1.99937" transform="matrix(.1 0 0 -.1 0 170.27)"/><path d="m775.039062 55.707812-.078124 620.742188" fill="none" stroke="#7f7f7f" stroke-width="1.99937" transform="matrix(.1 0 0 -.1 0 170.27)"/><path d="m1519.21875 1297.23125h580.78125" fill="none" stroke="#bfbfbf" stroke-width="4.99843" transform="matrix(.1 0 0 -.1 0 170.27)"/><path d="m1499.21875 1297.23125 20-5.390625v10.742187zm0 0" fill="#bfbfbf" stroke="#bfbfbf" stroke-width="4.99843" transform="matrix(.1 0 0 -.1 0 170.27)"/><path d="m2120 1297.23125-20 5.351562v-10.742187zm0 0" fill="#bfbfbf" stroke="#bfbfbf" stroke-width="4.99843" transform="matrix(.1 0 0 -.1 0 170.27)"/><path d="m1809.609375 1006.840625v580.78125" fill="none" stroke="#bfbfbf" stroke-width="4.99843" transform="matrix(.1 0 0 -.1 0 170.27)"/><path d="m1809.609375 986.840625 5.351563 20h-10.703126zm0 0" fill="#bfbfbf" stroke="#bfbfbf" stroke-width="4.99843" transform="matrix(.1 0 0 -.1 0 170.27)"/><path d="m1809.609375 1607.621875-5.351563-20h10.703126zm0 0" fill="#bfbfbf" stroke="#bfbfbf" stroke-width="4.99843" transform="matrix(.1 0 0 -.1 0 170.27)"/><path d="m1602.695312 1302.3875v-10.351563" fill="none" stroke="#bfbfbf" stroke-width="4.99843" transform="matrix(.1 0 0 -.1 0 170.27)"/><path d="m1804.453125 1090.317187h10.3125" fill="none" stroke="#bfbfbf" stroke-width="4.99843" transform="matrix(.1 0 0 -.1 0 170.27)"/><path d="m1706.132812 1302.3875v-10.351563" fill="none" stroke="#bfbfbf" stroke-width="4.99843" transform="matrix(.1 0 0 -.1 0 170.27)"/><path d="m1804.453125 1193.754687h10.3125" fill="none" stroke="#bfbfbf" stroke-width="4.99843" transform="matrix(.1 0 0 -.1 0 170.27)"/><path d="m1913.085938 1302.3875v-10.351563" fill="none" stroke="#bfbfbf" stroke-width="4.99843" transform="matrix(.1 0 0 -.1 0 170.27)"/><path d="m1804.453125 1400.66875h10.3125" fill="none" stroke="#bfbfbf" stroke-width="4.99843" transform="matrix(.1 0 0 -.1 0 170.27)"/><path d="m2016.523438 1302.3875v-10.351563" fill="none" stroke="#bfbfbf" stroke-width="4.99843" transform="matrix(.1 0 0 -.1 0 170.27)"/><path d="m1804.453125 1504.145312h10.3125" fill="none" stroke="#bfbfbf" stroke-width="4.99843" transform="matrix(.1 0 0 -.1 0 170.27)"/><g clip-path="url(#a)" fill="none" stroke="#7f7f7f" stroke-width="1.99937"><path d="m10212.695312 8238.910938-16147.851562-14613.437501" transform="matrix(.1 0 0 -.1 0 170.27)"/><path d="m10206.09375 8246.215625-16147.851562-14613.4375" transform="matrix(.1 0 0 -.1 0 170.27)"/><path d="m10199.492188 8253.520313-16147.8125-14613.476563" transform="matrix(.1 0 0 -.1 0 170.27)"/><path d="m10192.890625 8260.825-16147.8125-14613.476563" transform="matrix(.1 0 0 -.1 0 170.27)"/><path d="m10186.289062 8268.129688-16147.773437-14613.476563" transform="matrix(.1 0 0 -.1 0 170.27)"/><path d="m10179.6875 8275.434375-16147.773438-14613.476563" transform="matrix(.1 0 0 -.1 0 170.27)"/><path d="m10173.203125 8282.739063-16147.851563-14613.476563" transform="matrix(.1 0 0 -.1 0 170.27)"/><path d="m10166.601562 8290.04375-16147.851562-14613.476563" transform="matrix(.1 0 0 -.1 0 170.27)"/><path d="m10160 8297.348438-16147.8125-14613.476563" transform="matrix(.1 0 0 -.1 0 170.27)"/><path d="m10153.398438 8304.614063-16147.8125-14613.437501" transform="matrix(.1 0 0 -.1 0 170.27)"/><path d="m10146.796875 8311.91875-16147.773437-14613.476563" transform="matrix(.1 0 0 -.1 0 170.27)"/><path d="m10140.3125 8319.223438-16147.890625-14613.437501" transform="matrix(.1 0 0 -.1 0 170.27)"/><path d="m10133.710938 8326.528125-16147.851563-14613.476563" transform="matrix(.1 0 0 -.1 0 170.27)"/><path d="m10127.109375 8333.832813-16147.851563-14613.476563" transform="matrix(.1 0 0 -.1 0 170.27)"/><path d="m10120.507812 8341.1375-16147.8125-14613.476563" transform="matrix(.1 0 0 -.1 0 170.27)"/><path d="m10113.90625 8348.442188-16147.8125-14613.476563" transform="matrix(.1 0 0 -.1 0 170.27)"/><path d="m10107.304688 8355.746875-16147.773438-14613.476563" transform="matrix(.1 0 0 -.1 0 170.27)"/><path d="m10100.78125 8363.051563-16147.851562-14613.476563" transform="matrix(.1 0 0 -.1 0 170.27)"/><path d="m10094.21875 8370.35625-16147.851562-14613.476563" transform="matrix(.1 0 0 -.1 0 170.27)"/><path d="m10087.617188 8377.621875-16147.851563-14613.4375" transform="matrix(.1 0 0 -.1 0 170.27)"/><path d="m10081.015625 8384.926563-16147.851563-14613.437501" transform="matrix(.1 0 0 -.1 0 170.27)"/><path d="m10074.414062 8392.23125-16147.8125-14613.476563" transform="matrix(.1 0 0 -.1 0 170.27)"/><path d="m10067.8125 8399.535938-16147.773438-14613.476563" transform="matrix(.1 0 0 -.1 0 170.27)"/><path d="m10061.289062 8406.840625-16147.851562-14613.476563" transform="matrix(.1 0 0 -.1 0 170.27)"/><path d="m10054.6875 8414.145313-16147.851562-14613.476563" transform="matrix(.1 0 0 -.1 0 170.27)"/><path d="m10048.085938 8421.45-16147.8125-14613.476563" transform="matrix(.1 0 0 -.1 0 170.27)"/><path d="m10041.484375 8428.754688-16147.8125-14613.476563" transform="matrix(.1 0 0 -.1 0 170.27)"/><path d="m10034.882812 8436.059375-16147.773437-14613.476563" transform="matrix(.1 0 0 -.1 0 170.27)"/><path d="m10028.28125 8443.325-16147.773438-14613.4375" transform="matrix(.1 0 0 -.1 0 170.27)"/><path d="m10021.796875 8450.629688-16147.851563-14613.437501" transform="matrix(.1 0 0 -.1 0 170.27)"/><path d="m10015.195312 8457.934375-16147.851562-14613.4375" transform="matrix(.1 0 0 -.1 0 170.27)"/><path d="m10008.59375 8465.239063-16147.8125-14613.476563" transform="matrix(.1 0 0 -.1 0 170.27)"/><path d="m10001.992188 8472.54375-16147.8125-14613.476563" transform="matrix(.1 0 0 -.1 0 170.27)"/><path d="m9995.429688 8479.848438-16147.8125-14613.476563" transform="matrix(.1 0 0 -.1 0 170.27)"/><path d="m9988.828125 8487.153125-16147.8125-14613.476563" transform="matrix(.1 0 0 -.1 0 170.27)"/><path d="m9982.265625 8494.457813-16147.8125-14613.476563" transform="matrix(.1 0 0 -.1 0 170.27)"/><path d="m9975.664062 8501.7625-16147.8125-14613.476563" transform="matrix(.1 0 0 -.1 0 170.27)"/><path d="m9969.101562 8509.067188-16147.8125-14613.476563" transform="matrix(.1 0 0 -.1 0 170.27)"/><path d="m9962.539062 8516.332813-16147.851562-14613.437501" transform="matrix(.1 0 0 -.1 0 170.27)"/><path d="m9955.9375 8523.6375-16147.8125-14613.476563" transform="matrix(.1 0 0 -.1 0 170.27)"/><path d="m9949.335938 8530.942188-16147.8125-14613.476563" transform="matrix(.1 0 0 -.1 0 170.27)"/><path d="m9942.773438 8538.246875-16147.8125-14613.4375" transform="matrix(.1 0 0 -.1 0 170.27)"/><path d="m9936.171875 8545.551563-16147.8125-14613.476563" transform="matrix(.1 0 0 -.1 0 170.27)"/><path d="m9929.609375 8552.85625-16147.8125-14613.476563" transform="matrix(.1 0 0 -.1 0 170.27)"/><path d="m9923.007812 8560.160938-16147.8125-14613.476563" transform="matrix(.1 0 0 -.1 0 170.27)"/><path d="m9916.445312 8567.465625-16147.851562-14613.476563" transform="matrix(.1 0 0 -.1 0 170.27)"/><path d="m9909.84375 8574.73125-16147.8125-14613.4375" transform="matrix(.1 0 0 -.1 0 170.27)"/></g></g><g clip-path="url(#b)"><path d="m834.570312 1077.7 658.28125-730.039063" style="fill:none;stroke-width:1.99937;stroke-linecap:round;stroke-linejoin:round;stroke:#7f7f7f;stroke-miterlimit:10" transform="matrix(.1 0 0 -.1 0 170.27)"/></g><g clip-path="url(#c)"><path d="m9903.28125 8582.035938-16147.8125-14613.437501" style="fill:none;stroke-width:1.99937;stroke-linecap:round;stroke-linejoin:round;stroke:#7f7f7f;stroke-miterlimit:10" transform="matrix(.1 0 0 -.1 0 170.27)"/></g><g clip-path="url(#d)"><path d="m996.015625 1223.832812 658.320313-730.039062" style="fill:none;stroke-width:1.99937;stroke-linecap:round;stroke-linejoin:round;stroke:#7f7f7f;stroke-miterlimit:10" transform="matrix(.1 0 0 -.1 0 170.27)"/></g><g clip-path="url(#e)"><path d="m9896.679688 8589.340625-16147.8125-14613.4375" style="fill:none;stroke-width:1.99937;stroke-linecap:round;stroke-linejoin:round;stroke:#7f7f7f;stroke-miterlimit:10" transform="matrix(.1 0 0 -.1 0 170.27)"/></g><g clip-path="url(#f)"><path d="m1157.5 1369.965625 658.28125-730.039063" style="fill:none;stroke-width:1.99937;stroke-linecap:round;stroke-linejoin:round;stroke:#7f7f7f;stroke-miterlimit:10" transform="matrix(.1 0 0 -.1 0 170.27)"/></g><g clip-path="url(#g)"><path d="m9890.117188 8596.645313-16147.851563-14613.437501" style="fill:none;stroke-width:1.99937;stroke-linecap:round;stroke-linejoin:round;stroke:#7f7f7f;stroke-miterlimit:10" transform="matrix(.1 0 0 -.1 0 170.27)"/></g><g clip-path="url(#h)"><path d="m1318.984375 1516.1375 658.28125-730.078125" style="fill:none;stroke-width:1.99937;stroke-linecap:round;stroke-linejoin:round;stroke:#7f7f7f;stroke-miterlimit:10" transform="matrix(.1 0 0 -.1 0 170.27)"/></g><g clip-path="url(#i)"><path d="m9883.515625 8603.95-16147.8125-14613.476563" style="fill:none;stroke-width:1.99937;stroke-linecap:round;stroke-linejoin:round;stroke:#7f7f7f;stroke-miterlimit:10" transform="matrix(.1 0 0 -.1 0 170.27)"/></g><g clip-path="url(#j)"><path d="m1480.46875 1662.23125 658.28125-730.039063" style="fill:none;stroke-width:1.99937;stroke-linecap:round;stroke-linejoin:round;stroke:#7f7f7f;stroke-miterlimit:10" transform="matrix(.1 0 0 -.1 0 170.27)"/></g><g clip-path="url(#k)"><path d="m9876.953125 8611.254688-16147.851563-14613.476563" style="fill:none;stroke-width:1.99937;stroke-linecap:round;stroke-linejoin:round;stroke:#7f7f7f;stroke-miterlimit:10" transform="matrix(.1 0 0 -.1 0 170.27)"/></g><g clip-path="url(#l)"><path d="m1641.953125 1808.403125 658.28125-730.078125" style="fill:none;stroke-width:1.99937;stroke-linecap:round;stroke-linejoin:round;stroke:#7f7f7f;stroke-miterlimit:10" transform="matrix(.1 0 0 -.1 0 170.27)"/></g><g clip-path="url(#m)"><path d="m9870.351562 8618.559375-16147.8125-14613.476563" style="fill:none;stroke-width:1.99937;stroke-linecap:round;stroke-linejoin:round;stroke:#7f7f7f;stroke-miterlimit:10" transform="matrix(.1 0 0 -.1 0 170.27)"/></g><g clip-path="url(#n)"><path d="m1803.4375 1954.535937 658.28125-730.078125" style="fill:none;stroke-width:1.99937;stroke-linecap:round;stroke-linejoin:round;stroke:#7f7f7f;stroke-miterlimit:10" transform="matrix(.1 0 0 -.1 0 170.27)"/></g><g clip-path="url(#o)"><path d="m9863.789062 8625.864063-16147.851562-14613.476563" style="fill:none;stroke-width:1.99937;stroke-linecap:round;stroke-linejoin:round;stroke:#7f7f7f;stroke-miterlimit:10" transform="matrix(.1 0 0 -.1 0 170.27)"/></g><g clip-path="url(#p)"><path d="m1964.882812 2100.66875 658.320313-730.078125" style="fill:none;stroke-width:1.99937;stroke-linecap:round;stroke-linejoin:round;stroke:#7f7f7f;stroke-miterlimit:10" transform="matrix(.1 0 0 -.1 0 170.27)"/></g><g clip-path="url(#q)"><path d="m9857.1875 8633.16875-16147.8125-14613.476563" style="fill:none;stroke-width:1.99937;stroke-linecap:round;stroke-linejoin:round;stroke:#7f7f7f;stroke-miterlimit:10" transform="matrix(.1 0 0 -.1 0 170.27)"/></g><g clip-path="url(#r)"><path d="m2126.367188 2246.801562 658.28125-730.078125" style="fill:none;stroke-width:1.99937;stroke-linecap:round;stroke-linejoin:round;stroke:#7f7f7f;stroke-miterlimit:10" transform="matrix(.1 0 0 -.1 0 170.27)"/></g><g style="clip-path:url(#s);fill:none;stroke-width:1.99937;stroke-linecap:round;stroke-linejoin:round;stroke:#7f7f7f;stroke-miterlimit:10"><path d="m9850.625 8640.473438-16147.851562-14613.476563" transform="matrix(.1 0 0 -.1 0 170.27)"/><path d="m9844.023438 8647.778125-16147.8125-14613.476563" transform="matrix(.1 0 0 -.1 0 170.27)"/><path d="m9837.421875 8655.04375-16147.8125-14613.4375" transform="matrix(.1 0 0 -.1 0 170.27)"/><path d="m9830.859375 8662.348438-16147.8125-14613.476563" transform="matrix(.1 0 0 -.1 0 170.27)"/><path d="m9824.257812 8669.653125-16147.8125-14613.4375" transform="matrix(.1 0 0 -.1 0 170.27)"/><path d="m9817.695312 8676.957813-16147.8125-14613.476563" transform="matrix(.1 0 0 -.1 0 170.27)"/><path d="m9811.09375 8684.2625-16147.8125-14613.476563" transform="matrix(.1 0 0 -.1 0 170.27)"/><path d="m9804.53125 8691.567188-16147.8125-14613.476563" transform="matrix(.1 0 0 -.1 0 170.27)"/><path d="m9797.96875 8698.871875-16147.851562-14613.476563" transform="matrix(.1 0 0 -.1 0 170.27)"/><path d="m9791.367188 8706.176563-16147.8125-14613.476563" transform="matrix(.1 0 0 -.1 0 170.27)"/><path d="m9784.765625 8713.442188-16147.8125-14613.437501" transform="matrix(.1 0 0 -.1 0 170.27)"/><path d="m9778.203125 8720.785938-16147.851563-14613.476563" transform="matrix(.1 0 0 -.1 0 170.27)"/><path d="m9771.601562 8728.051563-16147.8125-14613.437501" transform="matrix(.1 0 0 -.1 0 170.27)"/><path d="m9765.039062 8735.35625-16147.8125-14613.4375" transform="matrix(.1 0 0 -.1 0 170.27)"/><path d="m9758.4375 8742.660938-16147.8125-14613.476563" transform="matrix(.1 0 0 -.1 0 170.27)"/><path d="m9751.875 8749.965625-16147.851562-14613.476563" transform="matrix(.1 0 0 -.1 0 170.27)"/><path d="m9745.273438 8757.270313-16147.8125-14613.476563" transform="matrix(.1 0 0 -.1 0 170.27)"/><path d="m9738.710938 8764.575-16147.8125-14613.476563" transform="matrix(.1 0 0 -.1 0 170.27)"/><path d="m9732.109375 8771.879688-16147.8125-14613.476563" transform="matrix(.1 0 0 -.1 0 170.27)"/><path d="m9725.546875 8779.184375-16147.851563-14613.476563" transform="matrix(.1 0 0 -.1 0 170.27)"/><path d="m9718.945312 8786.489063-16147.8125-14613.476563" transform="matrix(.1 0 0 -.1 0 170.27)"/><path d="m9712.382812 8793.754688-16147.851562-14613.437501" transform="matrix(.1 0 0 -.1 0 170.27)"/><path d="m9705.78125 8801.059375-16147.8125-14613.4375" transform="matrix(.1 0 0 -.1 0 170.27)"/><path d="m9699.21875 8808.364063-16147.851562-14613.437501" transform="matrix(.1 0 0 -.1 0 170.27)"/><path d="m9692.617188 8815.66875-16147.8125-14613.476563" transform="matrix(.1 0 0 -.1 0 170.27)"/><path d="m9686.054688 8822.973438-16147.851563-14613.476563" transform="matrix(.1 0 0 -.1 0 170.27)"/><path d="m9679.453125 8830.278125-16147.8125-14613.476563" transform="matrix(.1 0 0 -.1 0 170.27)"/><path d="m9672.851562 8837.582813-16147.8125-14613.476563" transform="matrix(.1 0 0 -.1 0 170.27)"/><path d="m9666.289062 8844.8875-16147.8125-14613.476563" transform="matrix(.1 0 0 -.1 0 170.27)"/><path d="m9659.6875 8852.192188-16147.8125-14613.476563" transform="matrix(.1 0 0 -.1 0 170.27)"/><path d="m9653.125 8859.496875-16147.8125-14613.476563" transform="matrix(.1 0 0 -.1 0 170.27)"/><path d="m9646.523438 8866.7625-16147.8125-14613.4375" transform="matrix(.1 0 0 -.1 0 170.27)"/><path d="m9639.960938 8874.067188-16147.8125-14613.476563" transform="matrix(.1 0 0 -.1 0 170.27)"/><path d="m9633.359375 8881.371875-16147.8125-14613.476563" transform="matrix(.1 0 0 -.1 0 170.27)"/><path d="m9626.796875 8888.676563-16147.8125-14613.476563" transform="matrix(.1 0 0 -.1 0 170.27)"/><path d="m9620.195312 8895.98125-16147.8125-14613.476563" transform="matrix(.1 0 0 -.1 0 170.27)"/><path d="m9613.632812 8903.285938-16147.851562-14613.476563" transform="matrix(.1 0 0 -.1 0 170.27)"/><path d="m9607.03125 8910.590625-16147.8125-14613.476563" transform="matrix(.1 0 0 -.1 0 170.27)"/><path d="m9600.46875 8917.895313-16147.8125-14613.476563" transform="matrix(.1 0 0 -.1 0 170.27)"/><path d="m9593.867188 8925.160938-16147.8125-14613.437501" transform="matrix(.1 0 0 -.1 0 170.27)"/><path d="m9587.304688 8932.465625-16147.851563-14613.4375" transform="matrix(.1 0 0 -.1 0 170.27)"/><path d="m9580.703125 8939.809375-16147.8125-14613.476563" transform="matrix(.1 0 0 -.1 0 170.27)"/><path d="m9574.140625 8947.075-16147.8125-14613.4375" transform="matrix(.1 0 0 -.1 0 170.27)"/><path d="m9567.539062 8954.379688-16147.8125-14613.476563" transform="matrix(.1 0 0 -.1 0 170.27)"/><path d="m9560.976562 8961.684375-16147.851562-14613.476563" transform="matrix(.1 0 0 -.1 0 170.27)"/></g><path d="m191.308594 30.203125c6.855468-5.714844 7.78125-5.714844 2.066406 0-5.710938 5.710937-15.902344 14.976563-22.761719 20.691406-6.855469 5.714844-7.78125 5.714844-2.066406 0 5.714844-5.714843 15.902344-14.980469 22.761719-20.691406" fill="#c00" fill-opacity=".1"/><path d="m1913.085938 1400.66875c68.554687 57.148437 77.8125 57.148437 20.664062 0-57.109375-57.109375-159.023438-149.765625-227.617188-206.914063-68.554687-57.148437-77.8125-57.148437-20.664062 0 57.148438 57.148438 159.023438 149.804688 227.617188 206.914063zm0 0" style="fill:none;stroke-width:4.99843;stroke-linecap:round;stroke-linejoin:round;stroke:#8b0000;stroke-miterlimit:10" transform="matrix(.1 0 0 -.1 0 170.27)"/><path d="m1898.945312 1386.567187-89.335937-89.335937" style="fill:none;stroke-width:4.99843;stroke-linecap:round;stroke-linejoin:round;stroke:#191970;stroke-miterlimit:10" transform="matrix(.1 0 0 -.1 0 170.27)"/><path d="m1913.085938 1400.66875-17.929688-10.3125 7.578125-7.578125zm0 0" style="fill:#191970;stroke-width:4.99843;stroke-linecap:round;stroke-linejoin:round;stroke:#191970;stroke-miterlimit:10" transform="matrix(.1 0 0 -.1 0 170.27)"/><path d="m1918.398438 1387.895312-108.789063-90.664062" style="fill:none;stroke-width:4.99843;stroke-linecap:round;stroke-linejoin:round;stroke:#2e8b57;stroke-miterlimit:10" transform="matrix(.1 0 0 -.1 0 170.27)"/><path d="m1933.75 1400.66875-18.789062-8.671875 6.875-8.242188zm0 0" style="fill:#2e8b57;stroke-width:4.99843;stroke-linecap:round;stroke-linejoin:round;stroke:#2e8b57;stroke-miterlimit:10" transform="matrix(.1 0 0 -.1 0 170.27)"/><path d="m1519.21875 366.059375h580.78125" style="fill:none;stroke-width:4.99843;stroke-linecap:round;stroke-linejoin:round;stroke:#bfbfbf;stroke-miterlimit:10" transform="matrix(.1 0 0 -.1 0 170.27)"/><path d="m1499.21875 366.059375 20-5.351563v10.703125zm0 0" style="fill:#bfbfbf;stroke-width:4.99843;stroke-linecap:round;stroke-linejoin:round;stroke:#bfbfbf;stroke-miterlimit:10" transform="matrix(.1 0 0 -.1 0 170.27)"/><path d="m2120 366.059375-20 5.351562v-10.703125zm0 0" style="fill:#bfbfbf;stroke-width:4.99843;stroke-linecap:round;stroke-linejoin:round;stroke:#bfbfbf;stroke-miterlimit:10" transform="matrix(.1 0 0 -.1 0 170.27)"/><path d="m1809.609375 75.66875v580.78125" style="fill:none;stroke-width:4.99843;stroke-linecap:round;stroke-linejoin:round;stroke:#bfbfbf;stroke-miterlimit:10" transform="matrix(.1 0 0 -.1 0 170.27)"/><path d="m1809.609375 55.66875 5.351563 20h-10.703126zm0 0" style="fill:#bfbfbf;stroke-width:4.99843;stroke-linecap:round;stroke-linejoin:round;stroke:#bfbfbf;stroke-miterlimit:10" transform="matrix(.1 0 0 -.1 0 170.27)"/><path d="m1809.609375 676.45-5.351563-20h10.703126zm0 0" style="fill:#bfbfbf;stroke-width:4.99843;stroke-linecap:round;stroke-linejoin:round;stroke:#bfbfbf;stroke-miterlimit:10" transform="matrix(.1 0 0 -.1 0 170.27)"/><path d="m1602.695312 371.254687v-10.351562" style="fill:none;stroke-width:4.99843;stroke-linecap:round;stroke-linejoin:round;stroke:#bfbfbf;stroke-miterlimit:10" transform="matrix(.1 0 0 -.1 0 170.27)"/><path d="m1804.453125 159.145312h10.3125" style="fill:none;stroke-width:4.99843;stroke-linecap:round;stroke-linejoin:round;stroke:#bfbfbf;stroke-miterlimit:10" transform="matrix(.1 0 0 -.1 0 170.27)"/><path d="m1706.132812 371.254687v-10.351562" style="fill:none;stroke-width:4.99843;stroke-linecap:round;stroke-linejoin:round;stroke:#bfbfbf;stroke-miterlimit:10" transform="matrix(.1 0 0 -.1 0 170.27)"/><path d="m1804.453125 262.621875h10.3125" style="fill:none;stroke-width:4.99843;stroke-linecap:round;stroke-linejoin:round;stroke:#bfbfbf;stroke-miterlimit:10" transform="matrix(.1 0 0 -.1 0 170.27)"/><path d="m1913.085938 371.254687v-10.351562" style="fill:none;stroke-width:4.99843;stroke-linecap:round;stroke-linejoin:round;stroke:#bfbfbf;stroke-miterlimit:10" transform="matrix(.1 0 0 -.1 0 170.27)"/><path d="m1804.453125 469.535937h10.3125" style="fill:none;stroke-width:4.99843;stroke-linecap:round;stroke-linejoin:round;stroke:#bfbfbf;stroke-miterlimit:10" transform="matrix(.1 0 0 -.1 0 170.27)"/><path d="m2016.523438 371.254687v-10.351562" style="fill:none;stroke-width:4.99843;stroke-linecap:round;stroke-linejoin:round;stroke:#bfbfbf;stroke-miterlimit:10" transform="matrix(.1 0 0 -.1 0 170.27)"/><path d="m1804.453125 572.973437h10.3125" style="fill:none;stroke-width:4.99843;stroke-linecap:round;stroke-linejoin:round;stroke:#bfbfbf;stroke-miterlimit:10" transform="matrix(.1 0 0 -.1 0 170.27)"/><path d="m195.574219 134.390625c8.917969-.363281 9.605469-.984375 1.535156-1.386719s-21.84375-.433594-30.761719-.070312c-8.917968.367187-9.605468.988281-1.535156 1.390625 8.070312.402343 21.84375.433593 30.761719.066406" fill="#c00" fill-opacity=".1"/><path d="m1955.742188 358.79375c89.179687 3.632812 96.054687 9.84375 15.351562 13.867187-80.703125 4.023438-218.4375 4.335938-307.617188.703125-89.179687-3.671875-96.054687-9.882812-15.351562-13.90625 80.703125-4.023437 218.4375-4.335937 307.617188-.664062zm0 0" style="fill:none;stroke-width:4.99843;stroke-linecap:round;stroke-linejoin:round;stroke:#8b0000;stroke-miterlimit:10" transform="matrix(.1 0 0 -.1 0 170.27)"/><path d="m1935.78125 359.770312-126.171875 6.289063" style="fill:none;stroke-width:4.99843;stroke-linecap:round;stroke-linejoin:round;stroke:#191970;stroke-miterlimit:10" transform="matrix(.1 0 0 -.1 0 170.27)"/><path d="m1955.742188 358.79375-19.6875 6.328125-.546876-10.703125zm0 0" style="fill:#191970;stroke-width:4.99843;stroke-linecap:round;stroke-linejoin:round;stroke:#191970;stroke-miterlimit:10" transform="matrix(.1 0 0 -.1 0 170.27)"/><path d="m1951.09375 371.840625-141.484375-5.78125" style="fill:none;stroke-width:4.99843;stroke-linecap:round;stroke-linejoin:round;stroke:#2e8b57;stroke-miterlimit:10" transform="matrix(.1 0 0 -.1 0 170.27)"/><path d="m1971.09375 372.660937-20.195312 4.53125.429687-10.703125zm0 0" style="fill:#2e8b57;stroke-width:4.99843;stroke-linecap:round;stroke-linejoin:round;stroke:#2e8b57;stroke-miterlimit:10" transform="matrix(.1 0 0 -.1 0 170.27)"/><g clip-path="url(#t)"><path d="m12698.28125 700.317187-21778.632812-.078125" style="fill:none;stroke-width:1.99937;stroke-linecap:round;stroke-linejoin:round;stroke:#7f7f7f;stroke-miterlimit:10" transform="matrix(.1 0 0 -.1 0 170.27)"/></g><g clip-path="url(#u)"><path d="m12698.28125 690.5125-21778.632812-.117188" style="fill:none;stroke-width:1.99937;stroke-linecap:round;stroke-linejoin:round;stroke:#7f7f7f;stroke-miterlimit:10" transform="matrix(.1 0 0 -.1 0 170.27)"/></g><g clip-path="url(#v)"><path d="m12698.398438 680.66875-21778.710938-.078125" style="fill:none;stroke-width:1.99937;stroke-linecap:round;stroke-linejoin:round;stroke:#7f7f7f;stroke-miterlimit:10" transform="matrix(.1 0 0 -.1 0 170.27)"/></g><g clip-path="url(#w)"><path d="m12698.398438 670.825-21778.710938-.078125" style="fill:none;stroke-width:1.99937;stroke-linecap:round;stroke-linejoin:round;stroke:#7f7f7f;stroke-miterlimit:10" transform="matrix(.1 0 0 -.1 0 170.27)"/></g><g clip-path="url(#x)"><path d="m12698.398438 661.020312-21778.671876-.117187" style="fill:none;stroke-width:1.99937;stroke-linecap:round;stroke-linejoin:round;stroke:#7f7f7f;stroke-miterlimit:10" transform="matrix(.1 0 0 -.1 0 170.27)"/></g><g clip-path="url(#y)"><path d="m12698.398438 651.176562-21778.671876-.078125" style="fill:none;stroke-width:1.99937;stroke-linecap:round;stroke-linejoin:round;stroke:#7f7f7f;stroke-miterlimit:10" transform="matrix(.1 0 0 -.1 0 170.27)"/></g><g clip-path="url(#z)"><path d="m12698.398438 641.332812-21778.671876-.078125" style="fill:none;stroke-width:1.99937;stroke-linecap:round;stroke-linejoin:round;stroke:#7f7f7f;stroke-miterlimit:10" transform="matrix(.1 0 0 -.1 0 170.27)"/></g><g clip-path="url(#A)"><path d="m12698.398438 631.528125-21778.632813-.078125" style="fill:none;stroke-width:1.99937;stroke-linecap:round;stroke-linejoin:round;stroke:#7f7f7f;stroke-miterlimit:10" transform="matrix(.1 0 0 -.1 0 170.27)"/></g><g clip-path="url(#B)"><path d="m12698.515625 621.684375-21778.75-.078125" style="fill:none;stroke-width:1.99937;stroke-linecap:round;stroke-linejoin:round;stroke:#7f7f7f;stroke-miterlimit:10" transform="matrix(.1 0 0 -.1 0 170.27)"/></g><g clip-path="url(#C)"><path d="m12698.515625 611.840625-21778.710937-.078125" style="fill:none;stroke-width:1.99937;stroke-linecap:round;stroke-linejoin:round;stroke:#7f7f7f;stroke-miterlimit:10" transform="matrix(.1 0 0 -.1 0 170.27)"/></g><g clip-path="url(#D)"><path d="m12698.515625 602.035937-21778.710937-.078125" style="fill:none;stroke-width:1.99937;stroke-linecap:round;stroke-linejoin:round;stroke:#7f7f7f;stroke-miterlimit:10" transform="matrix(.1 0 0 -.1 0 170.27)"/></g><g clip-path="url(#E)"><path d="m12698.515625 592.192187-21778.671875-.078125" style="fill:none;stroke-width:1.99937;stroke-linecap:round;stroke-linejoin:round;stroke:#7f7f7f;stroke-miterlimit:10" transform="matrix(.1 0 0 -.1 0 170.27)"/></g><g clip-path="url(#F)"><path d="m12698.515625 582.348437-21778.671875-.078125" style="fill:none;stroke-width:1.99937;stroke-linecap:round;stroke-linejoin:round;stroke:#7f7f7f;stroke-miterlimit:10" transform="matrix(.1 0 0 -.1 0 170.27)"/></g><g clip-path="url(#G)"><path d="m12698.59375 572.54375-21778.710938-.078125" style="fill:none;stroke-width:1.99937;stroke-linecap:round;stroke-linejoin:round;stroke:#7f7f7f;stroke-miterlimit:10" transform="matrix(.1 0 0 -.1 0 170.27)"/></g><g clip-path="url(#H)"><path d="m12698.59375 562.7-21778.710938-.078125" style="fill:none;stroke-width:1.99937;stroke-linecap:round;stroke-linejoin:round;stroke:#7f7f7f;stroke-miterlimit:10" transform="matrix(.1 0 0 -.1 0 170.27)"/></g><g clip-path="url(#I)"><path d="m12698.59375 552.895312-21778.671875-.117187" style="fill:none;stroke-width:1.99937;stroke-linecap:round;stroke-linejoin:round;stroke:#7f7f7f;stroke-miterlimit:10" transform="matrix(.1 0 0 -.1 0 170.27)"/></g><g clip-path="url(#J)"><path d="m12698.59375 543.051562-21778.671875-.078125" style="fill:none;stroke-width:1.99937;stroke-linecap:round;stroke-linejoin:round;stroke:#7f7f7f;stroke-miterlimit:10" transform="matrix(.1 0 0 -.1 0 170.27)"/></g><g clip-path="url(#K)"><path d="m12698.59375 533.207812-21778.632812-.078125" style="fill:none;stroke-width:1.99937;stroke-linecap:round;stroke-linejoin:round;stroke:#7f7f7f;stroke-miterlimit:10" transform="matrix(.1 0 0 -.1 0 170.27)"/></g><g clip-path="url(#L)"><path d="m12698.710938 523.403125-21778.75-.117188" style="fill:none;stroke-width:1.99937;stroke-linecap:round;stroke-linejoin:round;stroke:#7f7f7f;stroke-miterlimit:10" transform="matrix(.1 0 0 -.1 0 170.27)"/></g><g clip-path="url(#M)"><path d="m12698.710938 513.559375-21778.710938-.078125" style="fill:none;stroke-width:1.99937;stroke-linecap:round;stroke-linejoin:round;stroke:#7f7f7f;stroke-miterlimit:10" transform="matrix(.1 0 0 -.1 0 170.27)"/></g><g clip-path="url(#N)"><path d="m12698.710938 503.715625-21778.710938-.078125" style="fill:none;stroke-width:1.99937;stroke-linecap:round;stroke-linejoin:round;stroke:#7f7f7f;stroke-miterlimit:10" transform="matrix(.1 0 0 -.1 0 170.27)"/></g><g clip-path="url(#O)"><path d="m12698.710938 493.910937-21778.671876-.117187" style="fill:none;stroke-width:1.99937;stroke-linecap:round;stroke-linejoin:round;stroke:#7f7f7f;stroke-miterlimit:10" transform="matrix(.1 0 0 -.1 0 170.27)"/></g><g clip-path="url(#P)"><path d="m12698.710938 484.067187-21778.671876-.078125" style="fill:none;stroke-width:1.99937;stroke-linecap:round;stroke-linejoin:round;stroke:#7f7f7f;stroke-miterlimit:10" transform="matrix(.1 0 0 -.1 0 170.27)"/></g><g clip-path="url(#Q)"><path d="m12698.710938 474.223437-21778.632813-.078125" style="fill:none;stroke-width:1.99937;stroke-linecap:round;stroke-linejoin:round;stroke:#7f7f7f;stroke-miterlimit:10" transform="matrix(.1 0 0 -.1 0 170.27)"/></g><g clip-path="url(#R)"><path d="m12698.789062 464.41875-21778.710937-.078125" style="fill:none;stroke-width:1.99937;stroke-linecap:round;stroke-linejoin:round;stroke:#7f7f7f;stroke-miterlimit:10" transform="matrix(.1 0 0 -.1 0 170.27)"/></g><g clip-path="url(#S)"><path d="m12698.789062 454.575-21778.671874-.078125" style="fill:none;stroke-width:1.99937;stroke-linecap:round;stroke-linejoin:round;stroke:#7f7f7f;stroke-miterlimit:10" transform="matrix(.1 0 0 -.1 0 170.27)"/></g><g clip-path="url(#T)"><path d="m12698.789062 444.73125-21778.671874-.078125" style="fill:none;stroke-width:1.99937;stroke-linecap:round;stroke-linejoin:round;stroke:#7f7f7f;stroke-miterlimit:10" transform="matrix(.1 0 0 -.1 0 170.27)"/></g><g clip-path="url(#U)"><path d="m12698.789062 434.926562-21778.632812-.078125" style="fill:none;stroke-width:1.99937;stroke-linecap:round;stroke-linejoin:round;stroke:#7f7f7f;stroke-miterlimit:10" transform="matrix(.1 0 0 -.1 0 170.27)"/></g><g clip-path="url(#V)"><path d="m12698.789062 425.082812-21778.632812-.078125" style="fill:none;stroke-width:1.99937;stroke-linecap:round;stroke-linejoin:round;stroke:#7f7f7f;stroke-miterlimit:10" transform="matrix(.1 0 0 -.1 0 170.27)"/></g><g clip-path="url(#W)"><path d="m12698.90625 415.239062-21778.710938-.078125" style="fill:none;stroke-width:1.99937;stroke-linecap:round;stroke-linejoin:round;stroke:#7f7f7f;stroke-miterlimit:10" transform="matrix(.1 0 0 -.1 0 170.27)"/></g><g clip-path="url(#X)"><path d="m12698.90625 405.434375-21778.710938-.078125" style="fill:none;stroke-width:1.99937;stroke-linecap:round;stroke-linejoin:round;stroke:#7f7f7f;stroke-miterlimit:10" transform="matrix(.1 0 0 -.1 0 170.27)"/></g><g clip-path="url(#Y)"><path d="m12698.90625 395.590625-21778.710938-.078125" style="fill:none;stroke-width:1.99937;stroke-linecap:round;stroke-linejoin:round;stroke:#7f7f7f;stroke-miterlimit:10" transform="matrix(.1 0 0 -.1 0 170.27)"/></g><g clip-path="url(#Z)"><path d="m12698.90625 385.785937-21778.671875-.117187" style="fill:none;stroke-width:1.99937;stroke-linecap:round;stroke-linejoin:round;stroke:#7f7f7f;stroke-miterlimit:10" transform="matrix(.1 0 0 -.1 0 170.27)"/></g><g clip-path="url(#aa)"><path d="m12698.90625 375.942187-21778.671875-.078125" style="fill:none;stroke-width:1.99937;stroke-linecap:round;stroke-linejoin:round;stroke:#7f7f7f;stroke-miterlimit:10" transform="matrix(.1 0 0 -.1 0 170.27)"/></g><g clip-path="url(#ab)"><path d="m1592.773438-125.425-1.875 982.96875" style="fill:none;stroke-width:1.99937;stroke-linecap:round;stroke-linejoin:round;stroke:#7f7f7f;stroke-miterlimit:10" transform="matrix(.1 0 0 -.1 0 170.27)"/></g><g clip-path="url(#ac)"><path d="m12698.984375 366.098437-21778.710937-.078125" style="fill:none;stroke-width:1.99937;stroke-linecap:round;stroke-linejoin:round;stroke:#7f7f7f;stroke-miterlimit:10" transform="matrix(.1 0 0 -.1 0 170.27)"/></g><g clip-path="url(#ad)"><path d="m1810.546875-125.425-1.875 982.96875" style="fill:none;stroke-width:1.99937;stroke-linecap:round;stroke-linejoin:round;stroke:#7f7f7f;stroke-miterlimit:10" transform="matrix(.1 0 0 -.1 0 170.27)"/></g><g clip-path="url(#ae)"><path d="m12698.984375 356.29375-21778.710937-.117188" style="fill:none;stroke-width:1.99937;stroke-linecap:round;stroke-linejoin:round;stroke:#7f7f7f;stroke-miterlimit:10" transform="matrix(.1 0 0 -.1 0 170.27)"/></g><g clip-path="url(#af)"><path d="m2028.320312-125.425-1.875 982.96875" style="fill:none;stroke-width:1.99937;stroke-linecap:round;stroke-linejoin:round;stroke:#7f7f7f;stroke-miterlimit:10" transform="matrix(.1 0 0 -.1 0 170.27)"/></g><g clip-path="url(#ag)"><path d="m12698.984375 346.45-21778.671875-.078125" style="fill:none;stroke-width:1.99937;stroke-linecap:round;stroke-linejoin:round;stroke:#7f7f7f;stroke-miterlimit:10" transform="matrix(.1 0 0 -.1 0 170.27)"/></g><g clip-path="url(#ah)"><path d="m12698.984375 336.60625-21778.671875-.078125" style="fill:none;stroke-width:1.99937;stroke-linecap:round;stroke-linejoin:round;stroke:#7f7f7f;stroke-miterlimit:10" transform="matrix(.1 0 0 -.1 0 170.27)"/></g><g clip-path="url(#ai)"><path d="m12698.984375 326.801562-21778.632813-.078125" style="fill:none;stroke-width:1.99937;stroke-linecap:round;stroke-linejoin:round;stroke:#7f7f7f;stroke-miterlimit:10" transform="matrix(.1 0 0 -.1 0 170.27)"/></g><g clip-path="url(#aj)"><path d="m12698.984375 316.957812-21778.632813-.078125" style="fill:none;stroke-width:1.99937;stroke-linecap:round;stroke-linejoin:round;stroke:#7f7f7f;stroke-miterlimit:10" transform="matrix(.1 0 0 -.1 0 170.27)"/></g><g clip-path="url(#ak)"><path d="m12699.101562 307.114062-21778.710937-.078125" style="fill:none;stroke-width:1.99937;stroke-linecap:round;stroke-linejoin:round;stroke:#7f7f7f;stroke-miterlimit:10" transform="matrix(.1 0 0 -.1 0 170.27)"/></g><g clip-path="url(#al)"><path d="m12699.101562 297.309375-21778.710937-.078125" style="fill:none;stroke-width:1.99937;stroke-linecap:round;stroke-linejoin:round;stroke:#7f7f7f;stroke-miterlimit:10" transform="matrix(.1 0 0 -.1 0 170.27)"/></g><g clip-path="url(#am)"><path d="m12699.101562 287.465625-21778.671874-.078125" style="fill:none;stroke-width:1.99937;stroke-linecap:round;stroke-linejoin:round;stroke:#7f7f7f;stroke-miterlimit:10" transform="matrix(.1 0 0 -.1 0 170.27)"/></g><g clip-path="url(#an)"><path d="m12699.101562 277.621875-21778.671874-.078125" style="fill:none;stroke-width:1.99937;stroke-linecap:round;stroke-linejoin:round;stroke:#7f7f7f;stroke-miterlimit:10" transform="matrix(.1 0 0 -.1 0 170.27)"/></g><g clip-path="url(#ao)"><path d="m12699.101562 267.817187-21778.632812-.078125" style="fill:none;stroke-width:1.99937;stroke-linecap:round;stroke-linejoin:round;stroke:#7f7f7f;stroke-miterlimit:10" transform="matrix(.1 0 0 -.1 0 170.27)"/></g><g clip-path="url(#ap)"><path d="m12699.21875 257.973437-21778.75-.078125" style="fill:none;stroke-width:1.99937;stroke-linecap:round;stroke-linejoin:round;stroke:#7f7f7f;stroke-miterlimit:10" transform="matrix(.1 0 0 -.1 0 170.27)"/></g><g clip-path="url(#aq)"><path d="m12699.21875 248.16875-21778.710938-.117188" style="fill:none;stroke-width:1.99937;stroke-linecap:round;stroke-linejoin:round;stroke:#7f7f7f;stroke-miterlimit:10" transform="matrix(.1 0 0 -.1 0 170.27)"/></g><g clip-path="url(#ar)"><path d="m12699.21875 238.325-21778.710938-.078125" style="fill:none;stroke-width:1.99937;stroke-linecap:round;stroke-linejoin:round;stroke:#7f7f7f;stroke-miterlimit:10" transform="matrix(.1 0 0 -.1 0 170.27)"/></g><g clip-path="url(#as)"><path d="m12699.21875 228.48125-21778.671875-.078125" style="fill:none;stroke-width:1.99937;stroke-linecap:round;stroke-linejoin:round;stroke:#7f7f7f;stroke-miterlimit:10" transform="matrix(.1 0 0 -.1 0 170.27)"/></g><g clip-path="url(#at)"><path d="m12699.21875 218.676562-21778.671875-.117187" style="fill:none;stroke-width:1.99937;stroke-linecap:round;stroke-linejoin:round;stroke:#7f7f7f;stroke-miterlimit:10" transform="matrix(.1 0 0 -.1 0 170.27)"/></g><g clip-path="url(#au)"><path d="m12699.296875 208.832812-21778.710937-.078125" style="fill:none;stroke-width:1.99937;stroke-linecap:round;stroke-linejoin:round;stroke:#7f7f7f;stroke-miterlimit:10" transform="matrix(.1 0 0 -.1 0 170.27)"/></g><g clip-path="url(#av)"><path d="m12699.296875 198.989062-21778.710937-.078125" style="fill:none;stroke-width:1.99937;stroke-linecap:round;stroke-linejoin:round;stroke:#7f7f7f;stroke-miterlimit:10" transform="matrix(.1 0 0 -.1 0 170.27)"/></g><g clip-path="url(#aw)"><path d="m12699.296875 189.184375-21778.671875-.117188" style="fill:none;stroke-width:1.99937;stroke-linecap:round;stroke-linejoin:round;stroke:#7f7f7f;stroke-miterlimit:10" transform="matrix(.1 0 0 -.1 0 170.27)"/></g><g clip-path="url(#ax)"><path d="m12699.296875 179.340625-21778.671875-.078125" style="fill:none;stroke-width:1.99937;stroke-linecap:round;stroke-linejoin:round;stroke:#7f7f7f;stroke-miterlimit:10" transform="matrix(.1 0 0 -.1 0 170.27)"/></g><g clip-path="url(#ay)"><path d="m12699.296875 169.496875-21778.671875-.078125" style="fill:none;stroke-width:1.99937;stroke-linecap:round;stroke-linejoin:round;stroke:#7f7f7f;stroke-miterlimit:10" transform="matrix(.1 0 0 -.1 0 170.27)"/></g><g clip-path="url(#az)"><path d="m12699.296875 159.692187-21778.632813-.078125" style="fill:none;stroke-width:1.99937;stroke-linecap:round;stroke-linejoin:round;stroke:#7f7f7f;stroke-miterlimit:10" transform="matrix(.1 0 0 -.1 0 170.27)"/></g><g clip-path="url(#aA)"><path d="m12699.414062 149.848437-21778.75-.078125" style="fill:none;stroke-width:1.99937;stroke-linecap:round;stroke-linejoin:round;stroke:#7f7f7f;stroke-miterlimit:10" transform="matrix(.1 0 0 -.1 0 170.27)"/></g><g clip-path="url(#aB)"><path d="m12699.414062 140.004687-21778.710937-.078125" style="fill:none;stroke-width:1.99937;stroke-linecap:round;stroke-linejoin:round;stroke:#7f7f7f;stroke-miterlimit:10" transform="matrix(.1 0 0 -.1 0 170.27)"/></g><g clip-path="url(#aC)"><path d="m12699.414062 130.2-21778.710937-.078125" style="fill:none;stroke-width:1.99937;stroke-linecap:round;stroke-linejoin:round;stroke:#7f7f7f;stroke-miterlimit:10" transform="matrix(.1 0 0 -.1 0 170.27)"/></g><g clip-path="url(#aD)"><path d="m12699.414062 120.35625-21778.671874-.078125" style="fill:none;stroke-width:1.99937;stroke-linecap:round;stroke-linejoin:round;stroke:#7f7f7f;stroke-miterlimit:10" transform="matrix(.1 0 0 -.1 0 170.27)"/></g><g clip-path="url(#aE)"><path d="m12699.414062 110.5125-21778.671874-.078125" style="fill:none;stroke-width:1.99937;stroke-linecap:round;stroke-linejoin:round;stroke:#7f7f7f;stroke-miterlimit:10" transform="matrix(.1 0 0 -.1 0 170.27)"/></g><g clip-path="url(#aF)"><path d="m12699.492188 100.707812-21778.710938-.078125" style="fill:none;stroke-width:1.99937;stroke-linecap:round;stroke-linejoin:round;stroke:#7f7f7f;stroke-miterlimit:10" transform="matrix(.1 0 0 -.1 0 170.27)"/></g><g clip-path="url(#aG)"><path d="m12699.492188 90.864062-21778.710938-.078125" style="fill:none;stroke-width:1.99937;stroke-linecap:round;stroke-linejoin:round;stroke:#7f7f7f;stroke-miterlimit:10" transform="matrix(.1 0 0 -.1 0 170.27)"/></g><g clip-path="url(#aH)"><path d="m12699.492188 81.059375-21778.671876-.117188" style="fill:none;stroke-width:1.99937;stroke-linecap:round;stroke-linejoin:round;stroke:#7f7f7f;stroke-miterlimit:10" transform="matrix(.1 0 0 -.1 0 170.27)"/></g><g clip-path="url(#aI)"><path d="m12699.492188 71.215625-21778.671876-.078125" style="fill:none;stroke-width:1.99937;stroke-linecap:round;stroke-linejoin:round;stroke:#7f7f7f;stroke-miterlimit:10" transform="matrix(.1 0 0 -.1 0 170.27)"/></g><g clip-path="url(#aJ)"><path d="m12699.492188 61.371875-21778.632813-.078125" style="fill:none;stroke-width:1.99937;stroke-linecap:round;stroke-linejoin:round;stroke:#7f7f7f;stroke-miterlimit:10" transform="matrix(.1 0 0 -.1 0 170.27)"/></g><g clip-path="url(#aK)"><path d="m12699.609375 51.567187-21778.75-.117187" style="fill:none;stroke-width:1.99937;stroke-linecap:round;stroke-linejoin:round;stroke:#7f7f7f;stroke-miterlimit:10" transform="matrix(.1 0 0 -.1 0 170.27)"/></g><g clip-path="url(#aL)"><path d="m12699.609375 41.723437-21778.710937-.078125" style="fill:none;stroke-width:1.99937;stroke-linecap:round;stroke-linejoin:round;stroke:#7f7f7f;stroke-miterlimit:10" transform="matrix(.1 0 0 -.1 0 170.27)"/></g><g clip-path="url(#aM)"><path d="m12699.609375 31.879687-21778.710937-.078125" style="fill:none;stroke-width:1.99937;stroke-linecap:round;stroke-linejoin:round;stroke:#7f7f7f;stroke-miterlimit:10" transform="matrix(.1 0 0 -.1 0 170.27)"/></g><path d="m568.085938 789.575v104.140625" style="fill:none;stroke-width:4.99843;stroke-linecap:round;stroke-linejoin:round;stroke:#000;stroke-miterlimit:10" transform="matrix(.1 0 0 -.1 0 170.27)"/><path d="m568.085938 769.575 5.351562 20h-10.742188zm0 0" stroke="#000" stroke-linecap="round" stroke-linejoin="round" stroke-miterlimit="10" stroke-width="4.99843" transform="matrix(.1 0 0 -.1 0 170.27)"/><path d="m1293.007812 366.059375h-228.320312" style="fill:none;stroke-width:4.99843;stroke-linecap:round;stroke-linejoin:round;stroke:#000;stroke-miterlimit:10" transform="matrix(.1 0 0 -.1 0 170.27)"/><path d="m1313.007812 366.059375-20 5.351562v-10.703125zm0 0" stroke="#000" stroke-linecap="round" stroke-linejoin="round" stroke-miterlimit="10" stroke-width="4.99843" transform="matrix(.1 0 0 -.1 0 170.27)"/><path d="m1809.609375 873.715625v-104.140625" style="fill:none;stroke-width:4.99843;stroke-linecap:round;stroke-linejoin:round;stroke:#000;stroke-miterlimit:10" transform="matrix(.1 0 0 -.1 0 170.27)"/><path d="m1809.609375 893.715625-5.351563-20h10.703126zm0 0" stroke="#000" stroke-linecap="round" stroke-linejoin="round" stroke-miterlimit="10" stroke-width="4.99843" transform="matrix(.1 0 0 -.1 0 170.27)"/><path d="m1293.007812 1297.23125h-228.320312" style="fill:none;stroke-width:4.99843;stroke-linecap:round;stroke-linejoin:round;stroke:#000;stroke-miterlimit:10" transform="matrix(.1 0 0 -.1 0 170.27)"/><path d="m1313.007812 1297.23125-20 5.351562v-10.742187zm0 0" stroke="#000" stroke-linecap="round" stroke-linejoin="round" stroke-miterlimit="10" stroke-width="4.99843" transform="matrix(.1 0 0 -.1 0 170.27)"/><use x="4.56016" xlink:href="#aN" y="87.7098"/><use x="10.8" xlink:href="#aQ" y="84.82972"/><use x="13.31992" xlink:href="#aR" y="87.7098"/><use x="20.03984" xlink:href="#aS" y="87.7098"/><use x="24.95976" xlink:href="#aT" y="87.7098"/><use x="27.959759" xlink:href="#aU" y="87.7098"/><use x="30.959758" xlink:href="#aV" y="87.7098"/><use x="32.399756" xlink:href="#aW" y="87.7098"/><use x="35.399755" xlink:href="#aT" y="87.7098"/><use x="38.51996" xlink:href="#a8" y="85.55003"/><use x="43.08012" xlink:href="#aX" y="87.7098"/><use x="45.000118" xlink:href="#aY" y="87.7098"/><use x="48.600113" xlink:href="#aZ" y="87.7098"/><use x="51.000112" xlink:href="#a0" y="87.7098"/><use x="91.31992" xlink:href="#a9" y="147.8297"/><use x="98.51992" xlink:href="#ba" y="147.8297"/><use x="107.4" xlink:href="#bb" y="141.35001"/><use x="112.2" xlink:href="#bd" y="145.06993"/><use x="115.200002" xlink:href="#be" y="145.06993"/><use x="116.760007" xlink:href="#bf" y="145.06993"/><use x="119.760009" xlink:href="#bg" y="145.06993"/><use x="122.760011" xlink:href="#bh" y="145.06993"/><use x="133.439886" xlink:href="#bg" y="145.06993"/><use x="117.48008" xlink:href="#bg" y="150.70977"/><use x="128.040241" xlink:href="#bg" y="150.70977"/><use x="131.040243" xlink:href="#be" y="150.70977"/><use x="132.600248" xlink:href="#bg" y="150.70977"/><use x="135.60025" xlink:href="#bi" y="150.70977"/><use x="138.600251" xlink:href="#bh" y="150.70977"/><use x="143.16018" xlink:href="#bc" y="141.35"/><use x="183.48008" xlink:href="#aO" y="89.75"/><use x="190.2" xlink:href="#aR" y="89.75"/><use x="196.56016" xlink:href="#aT" y="89.75"/><use x="199.560156" xlink:href="#a1" y="89.75"/><use x="202.560152" xlink:href="#aV" y="89.75"/><use x="204.000153" xlink:href="#a2" y="89.75"/><use x="207.11996" xlink:href="#a8" y="87.58984"/><use x="211.80004" xlink:href="#aX" y="89.75"/><use x="213.720045" xlink:href="#aY" y="89.75"/><use x="217.320033" xlink:href="#aZ" y="89.75"/><use x="219.72002" xlink:href="#a0" y="89.75"/><use x="192.83984" xlink:href="#a3" y="97.66992"/><use x="195.839836" xlink:href="#a0" y="97.66992"/><use x="199.319837" xlink:href="#a4" y="97.66992"/><use x="204.479673" xlink:href="#aZ" y="97.66992"/><use x="206.759737" xlink:href="#a5" y="97.66992"/><use x="209.639746" xlink:href="#a6" y="97.66992"/><use x="213.23974" xlink:href="#a5" y="97.66992"/><use x="216.119749" xlink:href="#a7" y="97.66992"/><use x="218.759732" xlink:href="#aX" y="97.66992"/><use x="99.36014" xlink:href="#aP" y="32.75002"/><use x="107.64022" xlink:href="#ba" y="32.75002"/><use x="116.51991" xlink:href="#bb" y="26.26994"/><use x="121.19999" xlink:href="#bf" y="30.10978"/><use x="126.48007" xlink:href="#bf" y="30.10978"/><use x="129.480072" xlink:href="#be" y="30.10978"/><use x="131.040077" xlink:href="#bd" y="30.10978"/><use x="121.19999" xlink:href="#bf" y="35.6297"/><use x="128.760153" xlink:href="#bf" y="35.6297"/><use x="135.59999" xlink:href="#bc" y="26.26993"/></svg>