<?xml version="1.0" encoding="UTF-8" standalone="no"?>
<svg
   xmlns:dc="http://purl.org/dc/elements/1.1/"
   xmlns:cc="http://creativecommons.org/ns#"
   xmlns:rdf="http://www.w3.org/1999/02/22-rdf-syntax-ns#"
   xmlns:svg="http://www.w3.org/2000/svg"
   xmlns="http://www.w3.org/2000/svg"
   id="svg8"
   version="1.1"
   viewBox="0 0 79.581703 10.242269"
   height="10.242269mm"
   width="79.581703mm">
  <defs
     id="defs2" />
  <metadata
     id="metadata5">
    <rdf:RDF>
      <cc:Work
         rdf:about="">
        <dc:format>image/svg+xml</dc:format>
        <dc:type
           rdf:resource="http://purl.org/dc/dcmitype/StillImage" />
        <dc:title></dc:title>
      </cc:Work>
    </rdf:RDF>
  </metadata>
  <g
     transform="translate(-41.10395,-79.852489)"
     id="layer1">
    <g
       id="flowRoot10"
       style="font-style:normal;font-weight:normal;font-size:40px;line-height:1.25;font-family:sans-serif;letter-spacing:0px;word-spacing:0px;fill:#000000;fill-opacity:1;stroke:none"
       transform="scale(0.26458333)"
       aria-label="Data Gymnasia">
      <path
         id="path37"
         style=""
         d="m 159.29883,306.27734 v 22.67578 h 4.76562 q 6.03516,0 8.82813,-2.73437 2.8125,-2.73438 2.8125,-8.63281 0,-5.85938 -2.8125,-8.57422 -2.79297,-2.73438 -8.82813,-2.73438 z m -3.94531,-3.24218 h 8.10546 q 8.47657,0 12.44141,3.53515 3.96484,3.51563 3.96484,11.01563 0,7.53906 -3.98437,11.07422 -3.98438,3.53515 -12.42188,3.53515 h -8.10546 z" />
      <path
         id="path39"
         style=""
         d="m 195.91992,321.19922 q -4.35547,0 -6.03515,0.99609 -1.67969,0.9961 -1.67969,3.39844 0,1.91406 1.25,3.04687 1.26953,1.11329 3.4375,1.11329 2.98828,0 4.78515,-2.10938 1.81641,-2.12891 1.81641,-5.64453 v -0.80078 z m 7.16797,-1.48438 v 12.48047 h -3.59375 V 328.875 q -1.23047,1.99219 -3.06641,2.94922 -1.83593,0.9375 -4.49218,0.9375 -3.35938,0 -5.35157,-1.875 -1.97265,-1.89453 -1.97265,-5.0586 0,-3.6914 2.46094,-5.5664 2.48046,-1.875 7.38281,-1.875 h 5.03906 v -0.35156 q 0,-2.48047 -1.64062,-3.82813 -1.6211,-1.36719 -4.57032,-1.36719 -1.875,0 -3.65234,0.44922 -1.77734,0.44922 -3.41797,1.34766 v -3.32031 q 1.97266,-0.76172 3.82813,-1.13282 1.85546,-0.39062 3.61328,-0.39062 4.74609,0 7.08984,2.46094 2.34375,2.46093 2.34375,7.46093 z" />
      <path
         id="path41"
         style=""
         d="m 214.06445,304.10937 v 6.21094 h 7.40235 v 2.79297 h -7.40235 v 11.875 q 0,2.67578 0.72266,3.4375 0.74219,0.76172 2.98828,0.76172 h 3.69141 v 3.00781 h -3.69141 q -4.16016,0 -5.74219,-1.54297 -1.58203,-1.5625 -1.58203,-5.66406 v -11.875 h -2.63672 v -2.79297 h 2.63672 v -6.21094 z" />
      <path
         id="path43"
         style=""
         d="m 236.1543,321.19922 q -4.35547,0 -6.03516,0.99609 -1.67969,0.9961 -1.67969,3.39844 0,1.91406 1.25,3.04687 1.26953,1.11329 3.4375,1.11329 2.98828,0 4.78516,-2.10938 1.81641,-2.12891 1.81641,-5.64453 v -0.80078 z m 7.16797,-1.48438 v 12.48047 h -3.59375 V 328.875 q -1.23047,1.99219 -3.06641,2.94922 -1.83594,0.9375 -4.49219,0.9375 -3.35937,0 -5.35156,-1.875 -1.97266,-1.89453 -1.97266,-5.0586 0,-3.6914 2.46094,-5.5664 2.48047,-1.875 7.38281,-1.875 h 5.03907 v -0.35156 q 0,-2.48047 -1.64063,-3.82813 -1.62109,-1.36719 -4.57031,-1.36719 -1.875,0 -3.65235,0.44922 -1.77734,0.44922 -3.41796,1.34766 v -3.32031 q 1.97265,-0.76172 3.82812,-1.13282 1.85547,-0.39062 3.61328,-0.39062 4.7461,0 7.08985,2.46094 2.34375,2.46093 2.34375,7.46093 z" />
      <path
         id="path45"
         style=""
         d="m 283.51758,328.03516 v -7.83204 h -6.44531 v -3.24218 h 10.35156 v 12.51953 q -2.28516,1.62109 -5.03906,2.46094 -2.75391,0.82031 -5.87891,0.82031 -6.83594,0 -10.70313,-3.98438 -3.84765,-4.0039 -3.84765,-11.13281 0,-7.14844 3.84765,-11.13281 3.86719,-4.00391 10.70313,-4.00391 2.85156,0 5.41016,0.70313 2.57812,0.70312 4.74609,2.07031 v 4.19922 q -2.1875,-1.85547 -4.64844,-2.79297 -2.46094,-0.9375 -5.17578,-0.9375 -5.35156,0 -8.04687,2.98828 -2.67579,2.98828 -2.67579,8.90625 0,5.89844 2.67579,8.88672 2.69531,2.98828 8.04687,2.98828 2.08984,0 3.73047,-0.35156 1.64062,-0.3711 2.94922,-1.13281 z" />
      <path
         id="path47"
         style=""
         d="m 303.5957,334.22656 q -1.52343,3.90625 -2.96875,5.09766 -1.44531,1.1914 -3.86718,1.1914 h -2.8711 v -3.00781 h 2.10938 q 1.48437,0 2.30468,-0.70312 0.82032,-0.70313 1.81641,-3.32032 l 0.64453,-1.64062 -8.84765,-21.52344 h 3.80859 l 6.83594,17.10938 6.83593,-17.10938 h 3.8086 z" />
      <path
         id="path49"
         style=""
         d="m 335.19727,314.51953 q 1.34765,-2.42187 3.22265,-3.57422 1.875,-1.15234 4.41406,-1.15234 3.41797,0 5.27344,2.40234 1.85547,2.38281 1.85547,6.79688 v 13.20312 h -3.61328 v -13.08594 q 0,-3.14453 -1.11328,-4.66796 -1.11328,-1.52344 -3.39844,-1.52344 -2.79297,0 -4.41406,1.85547 -1.6211,1.85547 -1.6211,5.05859 v 12.36328 h -3.61328 v -13.08594 q 0,-3.16406 -1.11328,-4.66796 -1.11328,-1.52344 -3.4375,-1.52344 -2.7539,0 -4.375,1.875 -1.62109,1.85547 -1.62109,5.03906 v 12.36328 h -3.61328 v -21.875 h 3.61328 v 3.39844 q 1.23047,-2.01172 2.94922,-2.96875 1.71875,-0.95703 4.08203,-0.95703 2.38281,0 4.04297,1.21094 1.67968,1.21093 2.48047,3.51562 z" />
      <path
         id="path51"
         style=""
         d="m 375.33398,318.99219 v 13.20312 h -3.59375 v -13.08594 q 0,-3.10546 -1.21093,-4.64843 -1.21094,-1.54297 -3.63282,-1.54297 -2.91015,0 -4.58984,1.85547 -1.67969,1.85547 -1.67969,5.05859 v 12.36328 h -3.61328 v -21.875 h 3.61328 v 3.39844 q 1.28907,-1.97266 3.02735,-2.94922 1.75781,-0.97656 4.04297,-0.97656 3.76953,0 5.70312,2.34375 1.93359,2.32422 1.93359,6.85547 z" />
      <path
         id="path53"
         style=""
         d="m 392.48242,321.19922 q -4.35547,0 -6.03515,0.99609 -1.67969,0.9961 -1.67969,3.39844 0,1.91406 1.25,3.04687 1.26953,1.11329 3.4375,1.11329 2.98828,0 4.78515,-2.10938 1.81641,-2.12891 1.81641,-5.64453 v -0.80078 z m 7.16797,-1.48438 v 12.48047 h -3.59375 V 328.875 q -1.23047,1.99219 -3.06641,2.94922 -1.83593,0.9375 -4.49218,0.9375 -3.35938,0 -5.35157,-1.875 -1.97265,-1.89453 -1.97265,-5.0586 0,-3.6914 2.46094,-5.5664 2.48046,-1.875 7.38281,-1.875 h 5.03906 v -0.35156 q 0,-2.48047 -1.64062,-3.82813 -1.6211,-1.36719 -4.57032,-1.36719 -1.875,0 -3.65234,0.44922 -1.77734,0.44922 -3.41797,1.34766 v -3.32031 q 1.97266,-0.76172 3.82813,-1.13282 1.85546,-0.39062 3.61328,-0.39062 4.74609,0 7.08984,2.46094 2.34375,2.46093 2.34375,7.46093 z" />
      <path
         id="path55"
         style=""
         d="m 421.01758,310.96484 v 3.39844 q -1.52344,-0.78125 -3.16406,-1.17187 -1.64063,-0.39063 -3.39844,-0.39063 -2.67578,0 -4.02344,0.82031 -1.32812,0.82032 -1.32812,2.46094 0,1.25 0.95703,1.97266 0.95703,0.70312 3.84765,1.34765 l 1.23047,0.27344 q 3.82813,0.82031 5.42969,2.32422 1.62109,1.48437 1.62109,4.16016 0,3.04687 -2.42187,4.82421 -2.40235,1.77735 -6.6211,1.77735 -1.75781,0 -3.67187,-0.35156 -1.89453,-0.33204 -4.00391,-1.01563 v -3.71094 q 1.99219,1.03516 3.92578,1.5625 1.9336,0.50782 3.82813,0.50782 2.53906,0 3.90625,-0.85938 1.36719,-0.87891 1.36719,-2.46094 0,-1.46484 -0.9961,-2.24609 -0.97656,-0.78125 -4.3164,-1.50391 l -1.25,-0.29297 q -3.33985,-0.70312 -4.82422,-2.14843 -1.48438,-1.46485 -1.48438,-4.00391 0,-3.08594 2.1875,-4.76562 2.1875,-1.67969 6.21094,-1.67969 1.99219,0 3.75,0.29297 1.75781,0.29297 3.24219,0.8789 z" />
      <path
         id="path57"
         style=""
         d="m 427.93164,310.32031 h 3.59375 v 21.875 h -3.59375 z m 0,-8.51562 h 3.59375 v 4.55078 h -3.59375 z" />
      <path
         id="path59"
         style=""
         d="m 448.9668,321.19922 q -4.35547,0 -6.03516,0.99609 -1.67969,0.9961 -1.67969,3.39844 0,1.91406 1.25,3.04687 1.26953,1.11329 3.4375,1.11329 2.98828,0 4.78516,-2.10938 1.81641,-2.12891 1.81641,-5.64453 v -0.80078 z m 7.16797,-1.48438 v 12.48047 h -3.59375 V 328.875 q -1.23047,1.99219 -3.06641,2.94922 -1.83594,0.9375 -4.49219,0.9375 -3.35937,0 -5.35156,-1.875 -1.97266,-1.89453 -1.97266,-5.0586 0,-3.6914 2.46094,-5.5664 2.48047,-1.875 7.38281,-1.875 h 5.03907 v -0.35156 q 0,-2.48047 -1.64063,-3.82813 -1.62109,-1.36719 -4.57031,-1.36719 -1.875,0 -3.65235,0.44922 -1.77734,0.44922 -3.41796,1.34766 v -3.32031 q 1.97265,-0.76172 3.82812,-1.13282 1.85547,-0.39062 3.61328,-0.39062 4.7461,0 7.08985,2.46094 2.34375,2.46093 2.34375,7.46093 z" />
    </g>
  </g>
</svg>
