<svg height="432pt" viewBox="0 0 576 432" width="576pt" xmlns="http://www.w3.org/2000/svg" xmlns:xlink="http://www.w3.org/1999/xlink"><clipPath id="a"><path d="m25.605469 414h544.726562v1h-544.726562zm0 0"/></clipPath><clipPath id="b"><path d="m25.605469 343h544.726562v2h-544.726562zm0 0"/></clipPath><clipPath id="c"><path d="m25.605469 273h544.726562v2h-544.726562zm0 0"/></clipPath><clipPath id="d"><path d="m25.605469 202h544.726562v2h-544.726562zm0 0"/></clipPath><clipPath id="e"><path d="m25.605469 132h544.726562v2h-544.726562zm0 0"/></clipPath><clipPath id="f"><path d="m25.605469 62h544.726562v1h-544.726562zm0 0"/></clipPath><symbol id="g" overflow="visible"><path d="m1.015625-4.828125c1.03125.03125 1.46875.046875 2.421875.046875l.046875-.046875c-.015625-.140625-.015625-.203125-.015625-.296875 0-.125 0-.1875.015625-.328125l-.046875-.03125c-.59375.03125-.953125.03125-1.375.03125-.4375 0-.796875 0-1.390625-.03125l-.046875.03125c.015625.484375.015625.84375.015625 1.09375 0 .671875-.015625 1.4375-.046875 1.796875l.15625.046875c.375-.375.59375-.484375.984375-.484375.765625 0 1.25.53125 1.25 1.390625 0 .890625-.515625 1.40625-1.375 1.40625-.4375 0-.84375-.140625-.953125-.34375l-.359375-.65625-.1875.109375c.171875.453125.265625.71875.390625 1.0625.21875.125.53125.1875.875.1875.53125 0 1.109375-.234375 1.546875-.609375.484375-.4375.734375-.96875.734375-1.5625 0-.90625-.640625-1.53125-1.546875-1.53125-.390625 0-.671875.09375-1.171875.390625zm0 0"/></symbol><symbol id="h" overflow="visible"><path d="m.53125-4.421875h.078125l1.03125-.46875h.03125c.046875 0 .0625.0625.0625.265625v3.859375c0 .421875-.09375.5-.515625.53125l-.453125.015625v.25c1.21875-.03125 1.21875-.03125 1.3125-.03125.109375 0 .28125 0 .546875.015625.09375 0 .375 0 .703125.015625v-.25l-.40625-.015625c-.4375-.03125-.515625-.109375-.515625-.53125v-4.71875l-.125-.046875c-.515625.265625-1.078125.515625-1.796875.765625zm0 0"/></symbol><symbol id="i" overflow="visible"><path d="m2.09375-5.484375c-1.234375 0-1.859375.96875-1.859375 2.90625 0 .921875.15625 1.734375.4375 2.125s.734375.609375 1.21875.609375c1.203125 0 1.8125-1.03125 1.8125-3.078125 0-1.734375-.515625-2.5625-1.609375-2.5625zm-.140625.265625c.765625 0 1.078125.78125 1.078125 2.703125 0 1.6875-.296875 2.390625-1.03125 2.390625-.765625 0-1.09375-.796875-1.09375-2.75 0-1.671875.28125-2.34375 1.046875-2.34375zm0 0"/></symbol><symbol id="j" overflow="visible"><path d="m.125-.1875v.21875c1.5-.03125 1.5-.03125 1.78125-.03125s.28125 0 1.828125.03125c-.015625-.171875-.015625-.25-.015625-.359375s0-.1875.015625-.359375c-.921875.03125-1.28125.046875-2.765625.078125l1.453125-1.546875c.78125-.8125 1.015625-1.25 1.015625-1.859375 0-.90625-.625-1.46875-1.640625-1.46875-.5625 0-.953125.15625-1.34375.546875l-.140625 1.09375h.234375l.09375-.375c.125-.453125.421875-.65625.953125-.65625.6875 0 1.125.421875 1.125 1.109375 0 .59375-.34375 1.1875-1.234375 2.140625zm0 0"/></symbol><symbol id="k" overflow="visible"><path d="m-4.5625-1.171875h3.4375c.890625 0 1.265625-.390625 1.265625-1.3125 0-.28125-.0625-.5625-.140625-.640625l-.640625-.5625-.203125.15625c.171875.296875.234375.46875.234375.703125 0 .46875-.234375.65625-.828125.65625h-3.125v-1.53125l-.65625-.109375.078125 1.640625h-.453125c-.5 0-.9375-.046875-1.703125-.140625l-.125.15625c.171875.28125.328125.640625.453125 1.015625.359375-.046875.578125-.046875.9375-.046875h.84375l.421875.921875h.25zm0 0"/></symbol><symbol id="l" overflow="visible"><path d="m-5.609375-3.328125c0 1.734375 1.234375 2.953125 3.015625 2.953125 1.6875 0 2.828125-1.078125 2.828125-2.609375 0-1.84375-1.28125-3.15625-3.0625-3.15625-1.625 0-2.78125 1.171875-2.78125 2.8125zm.390625.203125c0-1.09375 1.203125-1.90625 2.828125-1.90625 1.375 0 2.234375.609375 2.234375 1.578125 0 1.171875-1.140625 1.953125-2.84375 1.953125-1.4375 0-2.21875-.5625-2.21875-1.625zm0 0"/></symbol><symbol id="m" overflow="visible"><path d="m-4.78125-.125v-.4375c0-.484375.078125-.53125.875-.53125h6.015625c.75 0 .828125.046875.859375.453125l.03125.546875h.359375c-.03125-1.203125-.03125-1.203125-.03125-1.5s0-.296875.03125-1.484375h-.359375l-.03125.546875c-.03125.40625-.109375.4375-.859375.4375h-2.265625c.21875-.359375.296875-.734375.296875-1.28125 0-.34375-.0625-.65625-.1875-.84375l-.890625-1.359375c-.3125-.484375-1.53125-1.046875-2.296875-1.046875-1.328125 0-2.375 1.109375-2.375 2.484375 0 .453125.125.875.296875 1.0625l.90625.984375h-1.15625l-.046875.109375c.25.609375.421875 1.234375.5 1.859375zm1.125-1.96875c-.171875 0-.296875-.0625-.5-.21875-.453125-.34375-.671875-.828125-.671875-1.421875 0-1.125.78125-1.84375 2.03125-1.84375 1.34375 0 2.328125.796875 2.328125 1.875 0 .65625-.21875 1.140625-.703125 1.609375zm0 0"/></symbol><symbol id="n" overflow="visible"><path d="m-2.5625-3.375-.8125-.359375-.0625.0625v3.140625l.8125.328125.0625-.0625zm0 0"/></symbol><symbol id="o" overflow="visible"><path d="m-7.234375-1.515625c.046875-1.546875.0625-2.21875.0625-3.640625l-.0625-.0625c-.21875.015625-.3125.015625-.46875.015625s-.25 0-.46875-.015625l-.0625.0625c.046875.890625.0625 1.421875.0625 2.078125s-.015625 1.171875-.0625 2.078125l.0625.0625c.71875-.015625 1.25-.03125 1.640625-.03125 1.015625 0 2.15625.03125 2.6875.078125l.0625-.25c-.5625-.5625-.71875-.875-.71875-1.46875 0-1.140625.8125-1.859375 2.09375-1.859375 1.328125 0 2.109375.765625 2.109375 2.0625 0 .65625-.21875 1.25-.53125 1.421875l-.984375.546875.171875.28125c.6875-.28125 1.0625-.421875 1.59375-.578125.171875-.34375.28125-.8125.28125-1.328125 0-.8125-.34375-1.65625-.921875-2.3125-.640625-.734375-1.453125-1.109375-2.34375-1.109375-1.34375 0-2.296875.96875-2.296875 2.328125 0 .578125.15625 1 .59375 1.75zm0 0"/></symbol><symbol id="p" overflow="visible"><path d="m-.84375-5.21875-.109375.15625c.453125.765625.5625 1.03125.5625 1.546875 0 .78125-.34375 1.421875-.9375 1.765625-.390625.21875-.734375.296875-1.421875.328125v-1.75c0-.828125-.03125-1.328125-.171875-2.15625-.15625-.015625-.265625-.03125-.40625-.03125-1.375 0-2.28125.890625-2.28125 2.234375 0 .4375.15625.953125.453125 1.4375.546875.984375 1.296875 1.375 2.53125 1.375.765625 0 1.40625-.171875 1.859375-.5.640625-.484375 1-1.28125 1-2.171875 0-.453125-.09375-.890625-.3125-1.375-.125-.328125-.28125-.578125-.359375-.625zm-2.34375.921875c.015625.625.03125.921875.03125 1.34375 0 .546875-.015625.859375-.078125 1.5-.5625 0-.8125-.046875-1.125-.203125-.53125-.25-.859375-.765625-.859375-1.328125 0-.390625.15625-.703125.484375-.921875.390625-.265625.734375-.34375 1.546875-.390625zm0 0"/></symbol><symbol id="q" overflow="visible"><path d="m-4.78125-.28125v-.4375c0-.46875.078125-.53125.875-.53125h2.6875c.75 0 .84375.046875.859375.453125l.03125.546875h.359375c-.015625-.859375-.03125-1.171875-.03125-1.46875 0-.234375 0-.234375.03125-1.71875h-.359375l-.03125.625c-.03125.546875-.078125.5625-.859375.5625h-2.0625c-.71875 0-1.3125-.46875-1.3125-1.0625 0-.359375.171875-.609375.546875-.796875v-.25l-1.421875-.109375c-.09375.125-.140625.34375-.140625.5625 0 .359375.1875.734375.5.984375l.78125.671875h-1.234375l-.046875.109375c.25.609375.421875 1.234375.5 1.859375zm0 0"/></symbol><symbol id="r" overflow="visible"><path d="m-.984375-3.875 1.015625.0625c-.03125-.78125-.03125-.78125-.03125-.9375 0-.0625.015625-.359375.03125-.875h-.359375l-.015625.46875c-.015625.28125-.109375.328125-.703125.328125h-2.1875c-1.734375 0-2.375.5-2.375 1.890625 0 .515625.140625.984375.40625 1.4375l.390625.640625h.765625l.09375-.3125-.375-.15625c-.5625-.25-.640625-.375-.640625-.921875 0-1.125.4375-1.59375 1.53125-1.625l.203125 1.1875c.3125 1.625.875 2.3125 1.90625 2.3125.9375 0 1.46875-.5625 1.46875-1.515625 0-.21875-.03125-.421875-.09375-.5zm-.5 0c.5.34375.953125 1.109375.953125 1.5625 0 .484375-.453125.90625-.96875.90625-.4375 0-.859375-.25-1.078125-.609375-.1875-.296875-.34375-.953125-.484375-1.859375zm0 0"/></symbol><symbol id="s" overflow="visible"><path d="m.15625-.234375v.265625c1.875-.03125 1.875-.03125 2.21875-.03125.359375 0 .359375 0 2.296875.03125-.03125-.203125-.03125-.3125-.03125-.453125 0-.125 0-.21875.03125-.453125-1.15625.0625-1.609375.0625-3.453125.109375l1.8125-1.921875c.96875-1.03125 1.265625-1.578125 1.265625-2.328125 0-1.140625-.78125-1.859375-2.046875-1.859375-.71875 0-1.203125.203125-1.6875.703125l-.171875 1.359375h.28125l.140625-.46875c.15625-.578125.515625-.8125 1.1875-.8125.84375 0 1.40625.53125 1.40625 1.375 0 .75-.421875 1.484375-1.546875 2.6875zm0 0"/></symbol><symbol id="t" overflow="visible"><path d="m2.625-6.875c-1.546875 0-2.328125 1.234375-2.328125 3.640625 0 1.171875.203125 2.171875.546875 2.671875.359375.484375.90625.765625 1.53125.765625 1.5 0 2.265625-1.296875 2.265625-3.859375 0-2.171875-.65625-3.21875-2.015625-3.21875zm-.1875.359375c.96875 0 1.359375.96875 1.359375 3.359375 0 2.125-.375 3-1.296875 3-.96875 0-1.375-1-1.375-3.4375 0-2.09375.375-2.921875 1.3125-2.921875zm0 0"/></symbol><symbol id="u" overflow="visible"><path d="m.671875-5.53125h.09375l1.28125-.578125c.015625-.015625.03125-.015625.03125-.015625.0625 0 .078125.09375.078125.328125v4.84375c0 .515625-.109375.625-.640625.65625l-.5625.03125v.296875c1.546875-.03125 1.546875-.03125 1.65625-.03125.125 0 .34375 0 .6875.015625.109375 0 .46875 0 .875.015625v-.296875l-.515625-.03125c-.5625-.03125-.65625-.140625-.65625-.65625v-5.921875l-.140625-.046875c-.640625.34375-1.359375.640625-2.265625.953125zm0 0"/></symbol><symbol id="v" overflow="visible"><path d="m.421875-4.96875h.3125l.1875-.546875c.109375-.34375.734375-.6875 1.25-.6875.65625 0 1.171875.53125 1.171875 1.15625 0 .75-.578125 1.375-1.296875 1.375-.078125 0-.1875 0-.3125-.015625l-.15625-.015625-.109375.53125.0625.0625c.375-.171875.578125-.21875.84375-.21875.828125 0 1.296875.53125 1.296875 1.4375 0 1.015625-.59375 1.6875-1.53125 1.6875-.453125 0-.859375-.15625-1.15625-.4375-.25-.21875-.375-.453125-.5625-.984375l-.265625.09375c.203125.609375.28125.96875.34375 1.46875.53125.1875.96875.265625 1.328125.265625.796875 0 1.71875-.453125 2.265625-1.125.34375-.40625.515625-.84375.515625-1.3125 0-.484375-.203125-.890625-.5625-1.140625-.25-.1875-.484375-.265625-.96875-.359375.796875-.609375 1.09375-1.078125 1.09375-1.65625 0-.890625-.75-1.484375-1.84375-1.484375-.6875 0-1.125.203125-1.609375.671875zm0 0"/></symbol><symbol id="w" overflow="visible"><path d="m2.796875-1.796875v.734375c0 .609375-.109375.75-.609375.765625l-.609375.03125v.296875c1.328125-.03125 1.328125-.03125 1.5625-.03125s.234375 0 1.5625.03125v-.296875l-.46875-.03125c-.5-.03125-.609375-.15625-.609375-.765625v-.734375c.59375 0 .796875 0 1.078125.03125v-.703125c-.46875.03125-.65625.03125-.8125.03125h-.265625v-1.390625c0-1.78125.03125-2.625.078125-3.046875l-.125-.046875-.734375.265625-2.828125 4.625.109375.234375zm0-.640625h-2.15625l2.15625-3.515625zm0 0"/></symbol><symbol id="x" overflow="visible"><path d="m1.265625-6.03125c1.28125.046875 1.84375.046875 3.046875.046875l.046875-.046875c-.015625-.171875-.015625-.265625-.015625-.390625 0-.140625 0-.21875.015625-.390625l-.046875-.0625c-.75.046875-1.203125.0625-1.734375.0625-.546875 0-1-.015625-1.734375-.0625l-.0625.0625c.015625.609375.03125 1.046875.03125 1.359375 0 .84375-.03125 1.796875-.0625 2.25l.203125.046875c.46875-.46875.734375-.609375 1.21875-.609375.953125 0 1.5625.6875 1.5625 1.765625 0 1.109375-.640625 1.75-1.734375 1.75-.53125 0-1.03125-.171875-1.171875-.4375l-.453125-.8125-.25.140625c.234375.5625.359375.875.5 1.3125.265625.15625.671875.25 1.09375.25.671875 0 1.375-.296875 1.9375-.765625.59375-.546875.921875-1.21875.921875-1.953125 0-1.140625-.8125-1.9375-1.953125-1.9375-.46875 0-.828125.140625-1.453125.5zm0 0"/></symbol><symbol id="y" overflow="visible"><path d="m4.140625-6.703125-.359375-.171875c-.953125.328125-1.375.53125-1.875.96875-1.03125.859375-1.59375 2.078125-1.59375 3.4375 0 1.65625.796875 2.671875 2.09375 2.671875s2.265625-1.03125 2.265625-2.390625c0-1.140625-.6875-1.890625-1.75-1.890625-.5 0-.796875.125-1.390625.59375-.109375.09375-.109375.109375-.21875.1875.203125-1.8125 1.046875-2.78125 2.828125-3.328125zm-1.59375 3.21875c.75 0 1.265625.65625 1.265625 1.65625 0 1.03125-.515625 1.703125-1.28125 1.703125-.84375 0-1.3125-.734375-1.3125-2.0625 0-.359375.046875-.546875.15625-.71875.21875-.328125.6875-.578125 1.171875-.578125zm0 0"/></symbol><symbol id="z" overflow="visible"><path d="m4.0625-6.984375h-.3125c-.1875.4375-.328125.796875-.390625.953125l-.53125 1.203125-1.765625 4.046875c-.125.28125-.328125.46875-.546875.484375l-.359375.03125v.296875c.921875-.03125.921875-.03125 1.078125-.03125.125 0 .125 0 1.203125.03125v-.296875l-.359375-.03125c-.359375-.03125-.484375-.109375-.484375-.265625 0-.125.140625-.546875.34375-1.046875l.28125-.671875h2.875l.453125 1.140625c.171875.421875.21875.546875.21875.640625 0 .109375-.15625.1875-.40625.203125l-.46875.03125v.296875c1.21875-.03125 1.21875-.03125 1.375-.03125.1875 0 .1875 0 1.265625.03125v-.296875l-.328125-.03125c-.265625-.046875-.375-.21875-.71875-1.015625zm-1.671875 4.296875 1.265625-2.96875 1.265625 2.96875zm0 0"/></symbol><symbol id="A" overflow="visible"><path d="m.234375-6.59375h.546875c.1875 0 .25.109375.25.40625v5.171875c0 .625-.03125.703125-.359375.71875l-.46875.03125v.296875c1-.03125 1-.03125 1.25-.03125s.25 0 1.25.03125v-.296875l-.453125-.03125c-.34375-.015625-.375-.09375-.375-.71875v-6.140625l-.09375-.078125c-.4375.171875-.765625.25-1.546875.359375zm0 0"/></symbol><symbol id="B" overflow="visible"><path d="m4.359375-.703125-.125-.09375c-.640625.375-.875.46875-1.296875.46875-.65625 0-1.1875-.296875-1.46875-.78125-.1875-.328125-.265625-.609375-.28125-1.1875h1.453125c.6875 0 1.125-.03125 1.8125-.140625 0-.140625.015625-.21875.015625-.34375 0-1.140625-.734375-1.890625-1.859375-1.890625-.359375 0-.796875.125-1.203125.359375-.8125.46875-1.140625 1.09375-1.140625 2.125 0 .625.140625 1.171875.40625 1.546875.40625.53125 1.078125.84375 1.828125.84375.359375 0 .734375-.078125 1.140625-.265625.265625-.109375.46875-.234375.515625-.296875zm-.78125-1.953125c-.515625.015625-.75.03125-1.109375.03125-.46875 0-.71875-.015625-1.265625-.0625 0-.46875.046875-.6875.171875-.953125.203125-.4375.640625-.703125 1.125-.703125.328125 0 .578125.125.765625.390625.21875.328125.28125.625.3125 1.296875zm0 0"/></symbol><symbol id="C" overflow="visible"><path d="m2.875-2.53125 1.40625-1.65625c.0625-.0625.171875-.109375.34375-.109375h.140625v-.28125h-.8125l-1.234375 1.75-.765625-1.15625c-.15625-.21875-.265625-.359375-.59375-.6875l-1.15625.203125.046875.25.203125.015625c.1875.015625.40625.15625.5.296875l1.203125 1.734375-1.484375 1.75c-.078125.09375-.203125.15625-.296875.15625h-.171875v.265625h.859375c.0625-.109375.078125-.15625.203125-.328125.15625-.28125.3125-.53125.390625-.609375l.734375-.96875 1.0625 1.609375.015625.015625c.09375.140625.171875.234375.25.3125.515625-.03125.515625-.03125.609375-.03125s.09375 0 .609375.03125v-.296875l-.25-.03125c-.109375-.015625-.234375-.09375-.34375-.234375zm0 0"/></symbol><symbol id="D" overflow="visible"><path d="m1.359375-6.875c-.546875 0-.640625 0-1.1875-.015625v.296875l.4375.03125c.453125.015625.5.109375.5.890625v4.46875c0 .78125-.046875.875-.5.90625l-.4375.03125v.296875c.984375-.03125.984375-.03125 1.15625-.03125.140625 0 .140625 0 1.1875.03125v-.296875l-.4375-.03125c-.453125-.03125-.5-.125-.5-.90625v-4.609375l4.71875 5.859375.890625.15625c0-.046875 0-.046875-.015625-.125 0-.109375-.015625-.1875-.015625-.25v-5.5c0-.78125.046875-.875.515625-.890625l.4375-.03125v-.296875c-1.046875.015625-1.046875.015625-1.203125.015625-.171875 0-.171875 0-1.15625-.015625v.296875l.4375.03125c.46875.015625.515625.109375.515625.890625v4.6875l-4.796875-5.90625zm0 0"/></symbol><symbol id="E" overflow="visible"><path d="m.984375-3.8125v2.875c0 .734375.328125 1.0625 1.09375 1.0625.21875 0 .46875-.0625.53125-.125l.46875-.53125-.125-.171875c-.25.140625-.40625.1875-.59375.1875-.390625 0-.546875-.1875-.546875-.6875v-2.609375h1.28125l.09375-.53125-1.375.0625v-.390625c0-.40625.03125-.765625.109375-1.40625l-.125-.109375c-.234375.140625-.53125.28125-.84375.375.03125.296875.046875.484375.046875.78125v.703125l-.78125.34375v.21875zm0 0"/></symbol><symbol id="F" overflow="visible"><path d="m2.734375-6.59375v-.296875c-1.09375.015625-1.09375.015625-1.328125.015625s-.234375 0-1.328125-.015625v.296875l.359375.03125c.203125.015625.3125.109375.4375.40625l1.875 4.59375c.3125.765625.4375 1.109375.578125 1.65625h.5c.1875-.625.3125-.953125.640625-1.75l1.734375-4.203125c.234375-.53125.34375-.6875.53125-.703125l.296875-.03125v-.296875l-1.0625.015625c-.1875 0-.421875 0-.703125-.015625-.046875 0-.21875 0-.375 0v.296875l.515625.03125c.21875 0 .34375.109375.34375.25 0 .109375-.03125.234375-.09375.390625l-1.8125 4.71875-1.96875-5.0625c-.015625-.03125-.015625-.0625-.015625-.109375 0-.109375.109375-.1875.3125-.1875zm0 0"/></symbol><symbol id="G" overflow="visible"><path d="m6.390625-5.140625h.3125c0-.515625.0625-.984375.1875-1.515625-1.09375-.328125-1.609375-.40625-2.40625-.40625-2.578125 0-4.265625 1.453125-4.265625 3.65625 0 1.015625.34375 1.90625.96875 2.515625.6875.6875 1.765625 1.09375 2.921875 1.09375.703125 0 1.390625-.140625 2.75-.515625v-1.671875c0-.3125.015625-.328125.109375-.375l.28125-.09375-.03125-.25c-.890625.015625-.921875.015625-1.234375.015625-.28125 0-.34375 0-1.203125-.015625v.296875l.828125.078125c.25.015625.328125.109375.328125.34375v1c0 .25-.015625.359375-.0625.4375-.109375.1875-.703125.328125-1.359375.328125-1.96875 0-3.234375-1.3125-3.234375-3.390625 0-1.921875 1.078125-3.046875 2.953125-3.046875.515625 0 .953125.0625 1.328125.1875.578125.1875.828125.421875.828125.796875zm0 0"/></symbol><symbol id="H" overflow="visible"><path d="m2.78125-4.671875c-1.453125 0-2.46875 1.015625-2.46875 2.515625 0 1.40625.890625 2.359375 2.1875 2.359375 1.53125 0 2.625-1.078125 2.625-2.5625 0-1.34375-.984375-2.3125-2.34375-2.3125zm-.171875.328125c.90625 0 1.59375 1 1.59375 2.34375 0 1.15625-.515625 1.875-1.328125 1.875-.96875 0-1.625-.96875-1.625-2.375 0-1.203125.46875-1.84375 1.359375-1.84375zm0 0"/></symbol><symbol id="I" overflow="visible"><path d="m5.171875-3.765625.25-.40625-.03125-.125-1.421875.046875c-.375-.3125-.734375-.421875-1.21875-.421875-.4375 0-.953125.140625-1.359375.375-.546875.3125-.84375.8125-.84375 1.421875 0 .734375.453125 1.234375 1.203125 1.3125l-.796875.609375c-.09375.15625-.140625.28125-.140625.4375 0 .28125.171875.4375.65625.578125l-.875.46875c-.140625.078125-.28125.453125-.28125.75 0 .90625.890625 1.546875 2.15625 1.546875 1.515625 0 2.6875-.953125 2.6875-2.171875 0-.71875-.46875-1.21875-1.171875-1.21875h-1.59375c-.515625 0-.75-.109375-.75-.390625 0-.125.078125-.234375.328125-.453125.0625-.046875.078125-.0625.125-.109375.09375.015625.15625.015625.234375.015625.4375 0 .96875-.1875 1.375-.46875.4375-.328125.65625-.734375.65625-1.265625 0-.1875-.015625-.328125-.109375-.53125zm-2.78125-.578125c.6875 0 1.140625.5625 1.140625 1.40625 0 .65625-.421875 1.109375-1.03125 1.109375-.671875 0-1.109375-.53125-1.109375-1.296875s.359375-1.21875 1-1.21875zm.46875 4.484375c1.125 0 1.515625.234375 1.515625.875 0 .859375-.78125 1.5-1.828125 1.5-.875 0-1.46875-.515625-1.46875-1.25 0-.453125.25-.859375.65625-1.03125.15625-.078125.4375-.09375 1.125-.09375zm0 0"/></symbol><symbol id="J" overflow="visible"><path d="m2.15625-5.671875c0-.78125.046875-.875.5-.890625l.484375-.03125v-.296875c-.734375.015625-.953125.015625-1.46875.015625-.5 0-.734375 0-1.453125-.015625v.296875l.484375.03125c.453125.015625.5.109375.5.890625v4.71875c0 .296875-.09375.515625-.25.59375l-.3125.15625v.234375c.671875-.03125.734375-.03125 1-.03125.078125 0 .25 0 .46875.015625.484375 0 1.5625.015625 1.84375.015625.328125 0 .328125 0 1.671875-.03125.078125-.421875.109375-.75.21875-1.71875h-.328125l-.109375.5c-.015625.03125-.015625.109375-.03125.109375-.0625.296875-.125.484375-.1875.546875-.140625.109375-1 .171875-2.1875.171875-.359375 0-.59375-.015625-.84375-.078125zm0 0"/></symbol><symbol id="K" overflow="visible"><path d="m2.15625-6.40625c.34375-.078125.640625-.109375.96875-.109375 1.046875 0 1.625.46875 1.625 1.328125 0 .90625-.734375 1.484375-1.890625 1.484375-.0625 0-.15625 0-.28125 0l-.0625.109375c.109375.140625.140625.171875.25.296875.140625.171875.171875.203125.265625.328125l1.828125 2.453125c.0625.09375.125.171875.1875.234375.0625.09375.125.1875.234375.3125.453125-.03125.5625-.03125.671875-.03125.09375 0 .09375 0 .71875.03125v-.296875c-.328125-.03125-.484375-.09375-.609375-.265625l-2.265625-2.953125c.5625-.140625.8125-.25 1.140625-.46875.53125-.375.796875-.875.796875-1.453125 0-.953125-.6875-1.484375-1.921875-1.484375h-.15625c-1.296875.015625-1.296875.015625-1.640625.015625-.328125 0-.328125 0-1.71875-.015625v.296875l.40625.03125c.453125.015625.5.109375.5.890625v4.46875c0 .796875-.046875.875-.5.90625l-.484375.03125v.296875c.59375-.015625.9375-.03125 1.453125-.03125s.875.015625 1.46875.03125v-.296875l-.484375-.03125c-.453125-.03125-.5-.109375-.5-.90625zm0 0"/></symbol><symbol id="L" overflow="visible"><path d="m.40625-1.421875c0 .6875-.03125.984375-.109375 1.375.515625.171875.90625.25 1.375.25 1.296875 0 2.21875-.703125 2.21875-1.671875 0-.3125-.078125-.546875-.265625-.75-.265625-.25-.59375-.359375-1.46875-.53125-.828125-.15625-1.09375-.359375-1.09375-.8125 0-.5.359375-.78125.96875-.78125.65625 0 1.171875.34375 1.171875.8125v.234375h.28125c0-.578125.015625-.8125.046875-1.125-.53125-.1875-.890625-.25-1.296875-.25-1.15625 0-1.859375.546875-1.859375 1.4375 0 .484375.21875.828125.671875 1.03125.265625.125.796875.28125 1.46875.421875.453125.109375.640625.3125.640625.6875 0 .546875-.5.921875-1.203125.921875-.734375 0-1.25-.34375-1.25-.84375v-.40625zm0 0"/></symbol><path d="m0 0h576v432h-576z" fill="#fff"/><path d="m25.605469 426.332031h544.726562v-420.664062h-544.726562zm0 0" fill="#fff"/><g clip-path="url(#a)"><path d="m25.605469 17.574219h544.726562" style="fill:none;stroke-width:.5;stroke-linecap:square;stroke-linejoin:round;stroke:#000;stroke-opacity:.1;stroke-miterlimit:10" transform="matrix(1 0 0 -1 0 432)"/></g><path d="m41.023438 17.574219h3.5" fill="none" stroke="#000" stroke-linejoin="round" stroke-miterlimit="10" stroke-width=".8" transform="matrix(1 0 0 -1 0 432)"/><g clip-path="url(#b)"><path d="m25.605469 87.9375h544.726562" style="fill:none;stroke-width:.5;stroke-linecap:square;stroke-linejoin:round;stroke:#000;stroke-opacity:.1;stroke-miterlimit:10" transform="matrix(1 0 0 -1 0 432)"/></g><path d="m41.023438 87.9375h3.5" fill="none" stroke="#000" stroke-linejoin="round" stroke-miterlimit="10" stroke-width=".8" transform="matrix(1 0 0 -1 0 432)"/><use x="33.53743" xlink:href="#g" y="346.912944"/><g clip-path="url(#c)"><path d="m25.605469 158.300781h544.726562" style="fill:none;stroke-width:.5;stroke-linecap:square;stroke-linejoin:round;stroke:#000;stroke-opacity:.1;stroke-miterlimit:10" transform="matrix(1 0 0 -1 0 432)"/></g><path d="m41.023438 158.300781h3.5" fill="none" stroke="#000" stroke-linejoin="round" stroke-miterlimit="10" stroke-width=".8" transform="matrix(1 0 0 -1 0 432)"/><use x="29.552374" xlink:href="#h" y="276.549399"/><use x="33.53743" xlink:href="#i" y="276.549399"/><g clip-path="url(#d)"><path d="m25.605469 228.664062h544.726562" style="fill:none;stroke-width:.5;stroke-linecap:square;stroke-linejoin:round;stroke:#000;stroke-opacity:.1;stroke-miterlimit:10" transform="matrix(1 0 0 -1 0 432)"/></g><path d="m41.023438 228.664062h3.5" fill="none" stroke="#000" stroke-linejoin="round" stroke-miterlimit="10" stroke-width=".8" transform="matrix(1 0 0 -1 0 432)"/><use x="29.552374" xlink:href="#h" y="206.185854"/><use x="33.53743" xlink:href="#g" y="206.185854"/><g clip-path="url(#e)"><path d="m25.605469 299.027344h544.726562" style="fill:none;stroke-width:.5;stroke-linecap:square;stroke-linejoin:round;stroke:#000;stroke-opacity:.1;stroke-miterlimit:10" transform="matrix(1 0 0 -1 0 432)"/></g><path d="m41.023438 299.027344h3.5" fill="none" stroke="#000" stroke-linejoin="round" stroke-miterlimit="10" stroke-width=".8" transform="matrix(1 0 0 -1 0 432)"/><use x="29.552374" xlink:href="#j" y="135.822309"/><use x="33.53743" xlink:href="#i" y="135.822309"/><g clip-path="url(#f)"><path d="m25.605469 369.390625h544.726562" style="fill:none;stroke-width:.5;stroke-linecap:square;stroke-linejoin:round;stroke:#000;stroke-opacity:.1;stroke-miterlimit:10" transform="matrix(1 0 0 -1 0 432)"/></g><path d="m41.023438 369.390625h3.5" fill="none" stroke="#000" stroke-linejoin="round" stroke-miterlimit="10" stroke-width=".8" transform="matrix(1 0 0 -1 0 432)"/><use x="29.552374" xlink:href="#j" y="65.458764"/><use x="33.53743" xlink:href="#g" y="65.458764"/><use x="22.18109" xlink:href="#k" y="256.037383"/><use x="22.18109" xlink:href="#l" y="252.151953"/><use x="22.18109" xlink:href="#m" y="245.636386"/><use x="22.18109" xlink:href="#n" y="238.463286"/><use x="22.18109" xlink:href="#o" y="234.49417"/><use x="22.18109" xlink:href="#p" y="225.527794"/><use x="22.18109" xlink:href="#q" y="219.813223"/><use x="22.18109" xlink:href="#q" y="215.102887"/><use x="22.18109" xlink:href="#l" y="210.607671"/><use x="22.18109" xlink:href="#q" y="204.092105"/><use x="22.18109" xlink:href="#q" y="196.392976"/><use x="22.18109" xlink:href="#r" y="191.68264"/><use x="22.18109" xlink:href="#k" y="185.705056"/><use x="22.18109" xlink:href="#p" y="181.819626"/><g stroke="#000" stroke-miterlimit="10" transform="matrix(1 0 0 -1 0 432)"><g fill="#191970" fill-opacity=".5"><path d="m76.734375 414.425781v-396.851562h47.617187v396.851562z"/><path d="m136.253906 380.652344v-363.078125h47.617188v363.078125z"/><path d="m195.773438 248.367188v-230.792969h47.617187v230.792969z"/><path d="m255.292969 182.226562v-164.652343h47.617187v164.652343z"/><path d="m314.8125 120.304688v-102.730469h47.617188v102.730469z"/><path d="m374.332031 111.863281v-94.289062h47.617188v94.289062z"/><path d="m433.851562 67.8125v-50.238281h47.617188v50.238281z"/><path d="m493.371094 59.652344v-42.078125h47.617187v42.078125z"/></g><path d="m41.023438 5.667969v420.664062" fill="none" stroke-linecap="square"/><path d="m25.605469 17.574219h544.726562" fill="none" stroke-linecap="square"/></g><use x="90.579359" xlink:href="#s" y="427.139142"/><use x="95.56068" xlink:href="#t" y="427.139142"/><use x="100.542" xlink:href="#u" y="427.139142"/><use x="105.52332" xlink:href="#t" y="427.139142"/><use x="150.098873" xlink:href="#s" y="427.139142"/><use x="155.080193" xlink:href="#t" y="427.139142"/><use x="160.061513" xlink:href="#u" y="427.139142"/><use x="165.042833" xlink:href="#u" y="427.139142"/><use x="209.618386" xlink:href="#s" y="427.139142"/><use x="214.599706" xlink:href="#t" y="427.139142"/><use x="219.581026" xlink:href="#u" y="427.139142"/><use x="224.562346" xlink:href="#s" y="427.139142"/><use x="269.137899" xlink:href="#s" y="427.139142"/><use x="274.11922" xlink:href="#t" y="427.139142"/><use x="279.10054" xlink:href="#u" y="427.139142"/><use x="284.08186" xlink:href="#v" y="427.139142"/><use x="328.657413" xlink:href="#s" y="427.139142"/><use x="333.638733" xlink:href="#t" y="427.139142"/><use x="338.620053" xlink:href="#u" y="427.139142"/><use x="343.601373" xlink:href="#w" y="427.139142"/><use x="388.176926" xlink:href="#s" y="427.139142"/><use x="393.158246" xlink:href="#t" y="427.139142"/><use x="398.139566" xlink:href="#u" y="427.139142"/><use x="403.120886" xlink:href="#w" y="427.139142"/><use x="447.696439" xlink:href="#s" y="427.139142"/><use x="452.677759" xlink:href="#t" y="427.139142"/><use x="457.65908" xlink:href="#u" y="427.139142"/><use x="462.6404" xlink:href="#x" y="427.139142"/><use x="507.215953" xlink:href="#s" y="427.139142"/><use x="512.197273" xlink:href="#t" y="427.139142"/><use x="517.178593" xlink:href="#u" y="427.139142"/><use x="522.159913" xlink:href="#y" y="427.139142"/><use x="201.150461" xlink:href="#z" y="175.237651"/><use x="208.891433" xlink:href="#A" y="175.237651"/><use x="211.780598" xlink:href="#B" y="175.237651"/><use x="216.54274" xlink:href="#C" y="175.237651"/><use x="221.6735" xlink:href="#D" y="175.237651"/><use x="229.942491" xlink:href="#B" y="175.237651"/><use x="234.704633" xlink:href="#E" y="175.237651"/><use x="327.422192" xlink:href="#F" y="303.299303"/><use x="334.605255" xlink:href="#G" y="303.299303"/><use x="342.196787" xlink:href="#G" y="303.299303"/><use x="372.550854" xlink:href="#G" y="311.742928"/><use x="380.142386" xlink:href="#H" y="311.742928"/><use x="385.572025" xlink:href="#H" y="311.742928"/><use x="391.001664" xlink:href="#I" y="311.742928"/><use x="396.530929" xlink:href="#J" y="311.742928"/><use x="402.60814" xlink:href="#B" y="311.742928"/><use x="407.370282" xlink:href="#D" y="311.742928"/><use x="415.639273" xlink:href="#B" y="311.742928"/><use x="420.401415" xlink:href="#E" y="311.742928"/><use x="441.684211" xlink:href="#K" y="355.790507"/><use x="448.329291" xlink:href="#B" y="355.790507"/><use x="453.091433" xlink:href="#L" y="355.790507"/><use x="457.30563" xlink:href="#D" y="355.790507"/><use x="465.574621" xlink:href="#B" y="355.790507"/><use x="470.336763" xlink:href="#E" y="355.790507"/></svg>