<svg height="122.1" viewBox="0 0 229.125 91.575" width="305.5" xmlns="http://www.w3.org/2000/svg" xmlns:xlink="http://www.w3.org/1999/xlink"><symbol id="a" overflow="visible"><path d="m1.359375-.109375c0 .03125 0 .046875-.015625.0625-.015625.03125-.03125.03125-.046875.046875-.03125.015625-.0625.015625-.109375.015625-.046875.015625-.109375.015625-.1875.015625-.0625 0-.125 0-.15625-.015625-.046875 0-.09375 0-.125-.015625-.015625-.015625-.03125-.015625-.046875-.046875-.015625-.015625-.015625-.03125-.015625-.0625v-3.859375c0-.015625 0-.03125.015625-.0625.015625 0 .03125-.015625.046875-.03125.03125 0 .078125-.015625.125-.03125.03125 0 .09375 0 .15625-.015625.078125.015625.140625.015625.1875.015625.046875.015625.078125.03125.109375.03125.015625.015625.03125.03125.046875.03125.015625.03125.015625.046875.015625.0625zm.078125-5.171875c0 .171875-.015625.296875-.09375.34375-.046875.078125-.171875.09375-.34375.09375-.15625 0-.28125-.015625-.328125-.078125-.0625-.0625-.09375-.171875-.09375-.34375s.03125-.28125.09375-.328125c.046875-.0625.171875-.09375.34375-.109375.171875.015625.28125.046875.34375.109375.0625.046875.078125.15625.078125.3125zm0 0"/></symbol><symbol id="b" overflow="visible"><path d="m3.96875-.109375c0 .03125 0 .046875-.015625.0625 0 .03125-.015625.03125-.046875.046875s-.0625.015625-.09375.015625c-.046875.015625-.09375.015625-.15625.015625s-.09375 0-.140625-.015625c-.046875 0-.078125 0-.109375-.015625-.015625-.015625-.03125-.015625-.046875-.046875-.015625-.015625-.015625-.03125-.015625-.0625v-.5c-.21875.21875-.421875.40625-.640625.515625-.21875.125-.453125.1875-.71875.1875-.28125 0-.53125-.0625-.734375-.171875-.1875-.109375-.359375-.25-.484375-.4375s-.203125-.40625-.265625-.671875c-.0625-.25-.09375-.515625-.09375-.8125 0-.3125.046875-.609375.109375-.875.078125-.265625.1875-.5.328125-.6875s.3125-.34375.515625-.4375c.203125-.109375.453125-.15625.71875-.15625.234375 0 .4375.046875.625.140625.1875.109375.375.25.546875.4375v-2.25c0-.015625.015625-.03125.015625-.046875.015625-.015625.03125-.03125.0625-.046875s.0625-.015625.109375-.015625.109375-.015625.171875-.015625c.078125 0 .125.015625.171875.015625s.078125 0 .109375.015625.046875.03125.0625.046875.015625.03125.015625.046875zm-.71875-2.71875c-.1875-.234375-.375-.40625-.546875-.53125-.1875-.125-.375-.1875-.5625-.203125-.1875.015625-.328125.0625-.46875.140625-.109375.078125-.21875.203125-.296875.34375s-.140625.296875-.171875.46875c-.03125.1875-.0625.375-.0625.546875 0 .203125.015625.390625.046875.578125s.09375.34375.15625.484375c.078125.15625.1875.265625.296875.359375.125.078125.28125.125.46875.125.09375 0 .1875-.015625.28125-.046875.078125-.015625.171875-.0625.25-.125.109375-.046875.203125-.125.296875-.234375.109375-.09375.21875-.203125.3125-.359375zm0 0"/></symbol><symbol id="c" overflow="visible"><path d="m3.953125-2.203125c0 .109375-.015625.1875-.078125.234375-.0625.0625-.125.078125-.1875.0625h-2.546875c0 .234375.03125.421875.078125.59375.03125.171875.109375.328125.21875.453125.09375.125.21875.21875.375.265625.171875.078125.359375.109375.59375.109375.1875 0 .34375-.015625.484375-.046875.15625-.03125.28125-.0625.375-.09375.109375-.046875.203125-.078125.265625-.109375s.109375-.046875.140625-.046875.046875.015625.0625.015625c.015625.015625.03125.03125.03125.046875.015625.015625.015625.046875.015625.078125.015625.046875.015625.09375.015625.140625v.09375c0 .03125-.015625.046875-.015625.078125 0 .015625-.015625.03125-.03125.046875 0 .03125-.015625.046875-.03125.046875-.015625.03125-.0625.0625-.140625.09375s-.171875.0625-.296875.09375-.265625.0625-.421875.09375c-.171875.03125-.34375.046875-.53125.046875-.3125 0-.59375-.046875-.828125-.140625s-.4375-.21875-.609375-.390625c-.15625-.171875-.28125-.390625-.375-.65625-.078125-.265625-.125-.5625-.125-.921875 0-.328125.046875-.625.140625-.890625.078125-.265625.203125-.484375.359375-.6875.171875-.171875.359375-.3125.59375-.421875.234375-.09375.484375-.140625.765625-.140625.3125 0 .5625.046875.78125.140625.21875.109375.390625.234375.53125.390625.140625.171875.234375.359375.296875.578125.0625.234375.09375.46875.09375.71875zm-.703125-.21875c0-.359375-.078125-.65625-.25-.859375s-.4375-.3125-.78125-.328125c-.171875.015625-.328125.046875-.453125.109375-.140625.0625-.25.15625-.328125.265625-.09375.109375-.15625.234375-.21875.375-.03125.140625-.0625.296875-.078125.4375zm0 0"/></symbol><symbol id="d" overflow="visible"><path d="m3.984375-.109375c0 .03125 0 .046875-.015625.0625-.015625.03125-.015625.03125-.046875.046875s-.078125.015625-.109375.015625c-.046875.015625-.109375.015625-.1875.015625-.0625 0-.125 0-.15625-.015625-.046875 0-.09375 0-.125-.015625-.015625-.015625-.03125-.015625-.046875-.046875-.015625-.015625-.015625-.03125-.015625-.0625v-2.25c0-.21875-.015625-.390625-.0625-.53125-.015625-.140625-.0625-.25-.140625-.34375-.0625-.109375-.15625-.171875-.25-.234375-.109375-.046875-.234375-.078125-.375-.078125-.171875 0-.359375.078125-.53125.1875-.171875.140625-.359375.3125-.5625.546875v2.703125c0 .03125 0 .046875-.015625.0625-.015625.03125-.03125.03125-.046875.046875-.03125.015625-.0625.015625-.109375.015625-.046875.015625-.109375.015625-.1875.015625-.0625 0-.125 0-.15625-.015625-.046875 0-.09375 0-.125-.015625-.015625-.015625-.03125-.015625-.046875-.046875-.015625-.015625-.015625-.03125-.015625-.0625v-3.859375c0-.015625 0-.03125.015625-.0625.015625 0 .03125-.03125.046875-.03125.03125-.015625.0625-.015625.109375-.03125.046875 0 .09375 0 .140625-.015625.078125.015625.125.015625.171875.015625.046875.015625.078125.015625.09375.03125.015625 0 .03125.03125.046875.03125.015625.03125.015625.046875.015625.0625v.5c.21875-.21875.4375-.40625.65625-.515625s.4375-.171875.65625-.171875c.25 0 .46875.046875.640625.125.1875.09375.328125.21875.4375.359375s.1875.328125.234375.515625c.03125.203125.0625.421875.0625.6875zm0 0"/></symbol><symbol id="e" overflow="visible"><path d="m2.65625-.390625c0 .09375 0 .15625-.015625.203125 0 .046875-.015625.09375-.046875.109375-.015625.03125-.0625.046875-.09375.0625-.046875.03125-.109375.03125-.15625.046875-.0625.015625-.125.03125-.1875.03125-.0625.015625-.140625.015625-.203125.015625-.203125 0-.375-.03125-.515625-.078125s-.25-.125-.34375-.234375c-.09375-.09375-.15625-.25-.203125-.40625-.046875-.171875-.0625-.359375-.0625-.59375v-2.265625h-.546875c-.046875.015625-.0625-.015625-.09375-.0625-.03125-.03125-.046875-.109375-.046875-.21875 0-.046875 0-.09375.015625-.140625 0-.03125.015625-.0625.03125-.09375l.046875-.046875s.03125-.015625.046875-.015625h.546875v-.921875c0-.015625 0-.03125.015625-.046875 0-.015625.03125-.03125.046875-.046875.03125-.015625.078125-.015625.109375-.03125.046875 0 .109375-.015625.171875-.015625.078125 0 .140625.015625.1875.015625.046875.015625.078125.015625.09375.03125.03125.015625.046875.03125.0625.046875s.015625.03125.015625.046875v.921875h.984375c.03125 0 .0625.015625.078125.015625l.046875.046875c0 .03125.015625.0625.015625.09375v.140625c0 .109375 0 .1875-.03125.21875-.015625.046875-.0625.078125-.109375.0625h-.984375v2.171875c0 .265625.046875.46875.125.609375.078125.125.21875.203125.421875.1875.0625.015625.125 0 .171875-.015625l.140625-.046875c.046875 0 .078125-.015625.109375-.03125.015625-.015625.046875-.015625.0625-.03125.015625.015625.03125.015625.046875.015625.015625.015625.03125.03125.03125.046875s.015625.046875.015625.078125zm0 0"/></symbol><symbol id="f" overflow="visible"><path d="m2.421875 0-.515625 1.421875c-.015625.046875-.0625.09375-.125.109375-.078125.03125-.1875.03125-.328125.03125-.078125 0-.140625 0-.1875 0s-.078125-.03125-.09375-.03125c-.03125-.015625-.046875-.046875-.046875-.078125s0-.0625.015625-.109375l.53125-1.34375c-.015625 0-.046875-.015625-.0625-.046875-.03125-.03125-.046875-.0625-.046875-.09375l-1.390625-3.6875c-.015625-.0625-.03125-.109375-.03125-.140625s.015625-.0625.046875-.078125c.015625-.015625.046875-.03125.109375-.046875.046875 0 .109375 0 .203125-.015625.09375.015625.15625.015625.203125.015625.046875.015625.078125.015625.109375.03125.03125 0 .0625.03125.0625.046875.015625.015625.03125.046875.046875.078125l1.09375 3.09375h.015625l1.0625-3.109375c.03125-.046875.046875-.078125.0625-.109375.03125 0 .0625-.015625.109375-.03125.0625 0 .125 0 .21875-.015625.078125.015625.140625.015625.203125.015625.046875.015625.078125.03125.109375.046875s.03125.046875.03125.078125 0 .078125-.015625.125zm0 0"/></symbol><symbol id="g" overflow="visible"><path d="m2.90625-3.71875v.15625c0 .046875 0 .09375-.015625.109375 0 .03125-.015625.046875-.015625.0625-.015625.015625-.03125.015625-.0625.015625s-.0625 0-.078125-.015625c-.03125-.015625-.078125-.03125-.109375-.046875-.046875 0-.09375-.03125-.140625-.03125-.0625-.015625-.109375-.015625-.1875-.03125-.0625.015625-.125.03125-.203125.0625-.0625.015625-.140625.078125-.21875.125-.078125.078125-.15625.171875-.234375.265625-.078125.125-.171875.25-.28125.40625v2.53125c0 .03125 0 .046875-.015625.0625-.015625.03125-.03125.03125-.046875.046875-.03125.015625-.0625.015625-.109375.015625-.046875.015625-.109375.015625-.1875.015625-.0625 0-.125 0-.15625-.015625-.046875 0-.09375 0-.125-.015625-.015625-.015625-.03125-.015625-.046875-.046875-.015625-.015625-.015625-.03125-.015625-.0625v-3.859375c0-.015625 0-.03125.015625-.0625.015625 0 .03125-.03125.046875-.03125.03125-.015625.0625-.015625.109375-.03125.046875 0 .09375 0 .140625-.015625.078125.015625.125.015625.171875.015625.046875.015625.078125.015625.09375.03125.015625 0 .03125.03125.046875.03125.015625.03125.015625.046875.015625.0625v.5625c.109375-.15625.203125-.28125.296875-.375s.1875-.171875.265625-.234375c.09375-.046875.15625-.078125.25-.109375.078125-.015625.15625-.03125.25-.03125h.125c.046875.015625.09375.015625.15625.03125.046875.015625.09375.015625.125.03125.046875.015625.078125.03125.09375.046875s.03125.03125.03125.03125c0 .015625.015625.046875.015625.0625v.078125zm0 0"/></symbol><symbol id="h" overflow="visible"><path d="m1.359375-.109375c0 .03125 0 .046875-.015625.0625-.015625.03125-.03125.03125-.046875.046875-.03125.015625-.0625.015625-.109375.015625-.046875.015625-.109375.015625-.1875.015625-.0625 0-.125 0-.15625-.015625-.046875 0-.09375 0-.125-.015625-.015625-.015625-.03125-.015625-.046875-.046875-.015625-.015625-.015625-.03125-.015625-.0625v-5.734375c0-.015625 0-.03125.015625-.0625.015625-.015625.03125-.015625.046875-.03125.03125 0 .078125-.015625.125-.03125.03125 0 .09375 0 .15625-.015625.078125.015625.140625.015625.1875.015625.046875.015625.078125.03125.109375.03125.015625.015625.03125.015625.046875.03125.015625.03125.015625.046875.015625.0625zm0 0"/></symbol><symbol id="i" overflow="visible"><path d="m3.96875-.109375c0 .03125 0 .046875-.015625.0625 0 .03125-.015625.03125-.046875.046875s-.0625.015625-.109375.015625c-.046875.015625-.09375.015625-.15625.015625-.046875 0-.109375 0-.15625-.015625-.03125 0-.0625 0-.09375-.015625-.015625-.015625-.046875-.015625-.046875-.046875-.015625-.015625-.015625-.03125-.015625-.0625v-.5c-.234375.25-.4375.421875-.65625.53125s-.4375.171875-.65625.171875c-.25 0-.46875-.046875-.65625-.125-.171875-.09375-.3125-.203125-.421875-.359375-.09375-.140625-.1875-.3125-.234375-.515625-.046875-.1875-.078125-.421875-.078125-.71875v-2.34375c0-.015625.015625-.03125.015625-.0625.015625 0 .03125-.03125.0625-.03125.03125-.015625.078125-.015625.125-.03125.046875 0 .09375 0 .171875-.015625.0625.015625.125.015625.171875.015625.046875.015625.078125.015625.109375.03125.03125 0 .03125.03125.046875.03125.015625.03125.015625.046875.015625.0625v2.25c0 .234375.03125.40625.0625.546875s.078125.25.140625.34375c.078125.109375.15625.1875.25.234375.109375.046875.234375.078125.375.0625.171875.015625.34375-.046875.515625-.1875.1875-.109375.375-.296875.5625-.546875v-2.703125c0-.015625.015625-.03125.015625-.0625.015625 0 .03125-.03125.0625-.03125.03125-.015625.0625-.015625.109375-.03125.046875 0 .109375 0 .171875-.015625.078125.015625.125.015625.171875.015625.046875.015625.078125.015625.109375.03125.03125 0 .046875.03125.0625.03125.015625.03125.015625.046875.015625.0625zm0 0"/></symbol><symbol id="j" overflow="visible"><path d="m5.421875-3.5625v.078125c0 .03125-.015625.0625-.03125.09375l-1.03125 3.28125c0 .03125-.015625.0625-.015625.078125-.015625.015625-.046875.03125-.078125.03125-.03125.015625-.078125.015625-.125.015625-.046875.015625-.109375.015625-.203125.015625-.0625 0-.125 0-.1875-.015625-.046875 0-.09375-.015625-.125-.015625s-.0625-.015625-.078125-.046875c-.015625-.015625-.015625-.03125-.03125-.0625l-.734375-2.515625v-.03125.03125l-.6875 2.515625c0 .03125-.015625.0625-.03125.078125s-.03125.03125-.078125.03125c-.03125.015625-.0625.015625-.125.015625-.046875.015625-.109375.015625-.1875.015625s-.140625 0-.203125-.015625c-.03125 0-.078125-.015625-.109375-.015625s-.0625-.015625-.078125-.046875c-.015625-.015625-.03125-.03125-.03125-.0625l-1.015625-3.28125c-.015625-.03125-.015625-.0625-.03125-.09375 0-.015625 0-.046875 0-.078125 0 0 0-.03125.015625-.046875.015625 0 .03125-.015625.046875-.03125.03125 0 .0625-.015625.109375-.015625.03125 0 .078125 0 .140625-.015625.078125.015625.125.015625.171875.015625.046875.015625.078125.015625.109375.015625l.046875.046875c.015625.015625.015625.03125.03125.046875l.828125 2.859375v.03125l.015625-.03125.765625-2.859375c0-.015625.015625-.03125.03125-.046875s.015625-.03125.046875-.046875c.015625 0 .046875 0 .078125-.015625.046875 0 .109375 0 .15625-.015625.0625.015625.125.015625.15625.015625.046875.015625.078125.015625.09375.015625.03125.015625.046875.03125.0625.046875 0 .015625.015625.03125.015625.046875l.8125 2.859375.015625.03125v-.03125l.828125-2.859375c.015625-.015625.015625-.03125.03125-.046875l.046875-.046875c.03125 0 .0625 0 .109375-.015625.046875 0 .09375 0 .15625-.015625.0625.015625.109375.015625.140625.015625.046875 0 .078125.015625.09375.015625.03125.015625.046875.03125.046875.03125.015625.015625.015625.046875.015625.046875zm0 0"/></symbol><symbol id="k" overflow="visible"><path d="m3.53125-1.96875c0 .109375-.015625.1875-.0625.21875-.0625.046875-.109375.0625-.1875.0625h-2.265625c0 .1875.03125.375.0625.515625.046875.15625.109375.296875.203125.390625.078125.125.203125.203125.34375.265625s.328125.078125.53125.078125c.15625 0 .296875-.015625.4375-.03125.125-.03125.234375-.0625.328125-.09375s.171875-.0625.21875-.09375c.0625-.015625.125-.03125.140625-.03125h.046875c.015625.015625.03125.03125.03125.046875.015625.03125.015625.046875.015625.078125.015625.03125.015625.078125.015625.109375v.09375c0 .03125-.015625.046875-.015625.0625 0 .03125-.015625.046875-.015625.0625s-.015625.015625-.03125.03125-.0625.046875-.125.078125c-.078125.03125-.15625.0625-.265625.09375s-.25.046875-.390625.0625c-.140625.03125-.296875.046875-.46875.046875-.28125 0-.53125-.046875-.75-.109375-.203125-.078125-.375-.1875-.53125-.359375-.140625-.15625-.25-.34375-.328125-.578125s-.109375-.515625-.109375-.828125c0-.296875.03125-.5625.109375-.8125.078125-.234375.1875-.421875.34375-.59375.140625-.15625.3125-.28125.515625-.375s.4375-.140625.6875-.140625c.265625 0 .5.046875.6875.140625.1875.078125.359375.203125.46875.34375.125.15625.21875.328125.28125.515625.046875.21875.078125.421875.078125.640625zm-.640625-.1875c.015625-.328125-.0625-.578125-.21875-.78125-.140625-.1875-.375-.28125-.6875-.296875-.15625.015625-.28125.046875-.40625.109375s-.21875.140625-.296875.234375-.140625.203125-.1875.328125c-.046875.140625-.0625.28125-.078125.40625zm0 0"/></symbol><symbol id="l" overflow="visible"><path d="m1.21875-.09375c0 .03125 0 .046875-.015625.0625 0 .015625-.015625.03125-.046875.03125s-.0625.015625-.09375.015625c-.046875.015625-.09375.015625-.15625.015625s-.109375 0-.15625-.015625c-.046875 0-.078125-.015625-.109375-.015625-.015625 0-.03125-.015625-.03125-.03125-.015625-.015625-.015625-.03125-.015625-.0625v-3.453125c0-.015625 0-.015625.015625-.046875 0-.015625.015625-.015625.03125-.03125.03125-.015625.0625-.015625.109375-.03125.046875 0 .09375 0 .15625-.015625.0625.015625.109375.015625.15625.015625.03125.015625.0625.015625.09375.03125s.046875.015625.046875.03125c.015625.03125.015625.03125.015625.046875zm.078125-4.625c0 .15625-.03125.265625-.09375.3125-.046875.0625-.15625.078125-.3125.078125-.140625 0-.234375-.015625-.296875-.078125-.0625-.046875-.09375-.140625-.09375-.296875 0-.140625.03125-.234375.09375-.296875.0625-.046875.15625-.078125.3125-.09375.15625.015625.25.046875.296875.078125.0625.0625.09375.15625.09375.296875zm0 0"/></symbol><symbol id="m" overflow="visible"><path d="m3.46875-3.390625c0 .09375 0 .15625-.03125.203125s-.0625.0625-.09375.046875h-.5c.09375.109375.15625.203125.1875.3125.046875.125.0625.234375.0625.34375 0 .203125-.03125.390625-.09375.53125-.0625.171875-.15625.28125-.28125.390625-.109375.109375-.265625.1875-.421875.25-.15625.046875-.34375.078125-.546875.078125-.140625 0-.265625-.015625-.40625-.0625-.125-.015625-.21875-.078125-.28125-.140625-.046875.0625-.09375.109375-.125.171875s-.046875.125-.046875.1875c0 .109375.046875.171875.125.234375.09375.0625.203125.09375.328125.09375l.90625.03125c.171875.015625.328125.046875.484375.078125.140625.046875.265625.109375.375.1875.09375.078125.171875.171875.234375.28125.0625.125.09375.25.09375.390625 0 .15625-.03125.3125-.09375.453125-.078125.15625-.171875.265625-.3125.390625-.140625.109375-.3125.1875-.515625.25-.21875.0625-.46875.09375-.765625.09375-.28125 0-.515625-.03125-.703125-.078125-.1875-.03125-.359375-.109375-.484375-.1875s-.21875-.171875-.28125-.28125c-.0625-.125-.078125-.25-.078125-.390625 0-.078125.015625-.15625.03125-.25.015625-.0625.046875-.140625.09375-.21875.046875-.0625.09375-.125.15625-.203125.0625-.046875.140625-.125.21875-.1875-.125-.0625-.21875-.140625-.28125-.234375-.046875-.09375-.09375-.21875-.09375-.328125 0-.140625.046875-.28125.09375-.40625.0625-.125.15625-.234375.25-.34375-.078125-.078125-.15625-.1875-.203125-.3125-.03125-.125-.0625-.265625-.0625-.4375 0-.1875.046875-.359375.109375-.53125.0625-.140625.15625-.28125.265625-.390625.125-.109375.265625-.1875.421875-.25.171875-.046875.34375-.078125.546875-.09375.109375.015625.203125.015625.296875.03125s.171875.03125.25.046875h1.046875c.046875 0 .078125.03125.09375.0625.03125.046875.03125.109375.03125.1875zm-.984375.90625c0-.21875-.0625-.40625-.203125-.53125-.125-.140625-.3125-.203125-.546875-.21875-.109375.015625-.21875.03125-.3125.078125s-.171875.09375-.234375.171875c-.0625.0625-.09375.15625-.125.25s-.046875.1875-.046875.28125c0 .234375.0625.40625.1875.53125.140625.140625.3125.203125.546875.203125.125 0 .234375-.015625.328125-.046875.09375-.046875.171875-.109375.21875-.171875.0625-.0625.109375-.15625.140625-.25.03125-.078125.046875-.1875.046875-.296875zm.3125 2.734375c0-.140625-.046875-.25-.171875-.328125s-.296875-.125-.5-.140625l-.890625-.03125c-.078125.078125-.140625.125-.203125.1875s-.09375.109375-.125.171875c-.03125.046875-.046875.09375-.0625.140625-.015625.0625-.015625.109375-.015625.15625 0 .171875.078125.296875.25.390625.171875.078125.40625.125.703125.125.1875 0 .359375-.015625.484375-.0625.140625-.03125.234375-.078125.3125-.140625s.140625-.125.171875-.21875c.03125-.0625.046875-.15625.046875-.25zm0 0"/></symbol><symbol id="n" overflow="visible"><path d="m3.5625-.09375c0 .03125 0 .046875-.015625.0625s-.03125.03125-.046875.03125-.046875.015625-.09375.015625c-.046875.015625-.09375.015625-.15625.015625s-.125 0-.15625-.015625c-.046875 0-.0625-.015625-.09375-.015625s-.046875-.015625-.0625-.03125c0-.015625-.015625-.03125-.015625-.0625v-2.03125c0-.1875-.015625-.34375-.046875-.46875-.015625-.109375-.078125-.21875-.125-.296875-.0625-.09375-.140625-.15625-.234375-.203125s-.203125-.078125-.328125-.078125c-.15625 0-.296875.0625-.46875.171875-.15625.125-.328125.28125-.5.5v2.40625c0 .03125 0 .046875-.015625.0625 0 .015625-.015625.03125-.046875.03125s-.0625.015625-.09375.015625c-.046875.015625-.09375.015625-.15625.015625s-.109375 0-.15625-.015625c-.046875 0-.078125-.015625-.109375-.015625-.015625 0-.03125-.015625-.03125-.03125-.015625-.015625-.015625-.03125-.015625-.0625v-5.125c0-.015625 0-.03125.015625-.046875 0-.015625.015625-.03125.03125-.046875.03125 0 .0625-.015625.109375-.015625s.09375-.015625.15625-.015625.109375.015625.15625.015625c.03125 0 .0625.015625.09375.015625.03125.015625.046875.03125.046875.046875.015625.015625.015625.03125.015625.046875v2.0625c.1875-.171875.359375-.328125.546875-.40625.1875-.09375.375-.15625.5625-.15625.234375 0 .421875.046875.578125.125s.28125.1875.375.3125c.109375.125.171875.28125.21875.453125.046875.1875.0625.390625.0625.625zm0 0"/></symbol><symbol id="o" overflow="visible"><path d="m2.390625-.34375c0 .078125 0 .140625-.015625.1875-.015625.03125-.03125.078125-.0625.09375-.015625.015625-.03125.03125-.078125.046875s-.09375.03125-.140625.046875c-.0625.015625-.109375.015625-.171875.03125-.0625 0-.125 0-.171875 0-.1875 0-.328125-.015625-.46875-.0625-.125-.046875-.21875-.109375-.3125-.21875-.078125-.078125-.140625-.203125-.171875-.359375-.046875-.140625-.0625-.3125-.0625-.515625v-2.03125h-.484375c-.03125.015625-.0625 0-.09375-.046875-.015625-.046875-.03125-.109375-.03125-.203125 0-.046875 0-.09375.015625-.125 0-.03125.015625-.0625.015625-.078125l.046875-.046875c.015625 0 .03125-.015625.046875-.015625h.484375v-.828125c0-.015625 0-.03125.015625-.046875s.03125-.03125.046875-.03125c.03125-.015625.0625-.015625.09375-.03125.046875 0 .09375 0 .15625-.015625.0625.015625.125.015625.15625.015625.046875.015625.078125.015625.109375.03125.015625 0 .03125.015625.03125.03125.015625.015625.015625.03125.015625.046875v.828125h.890625c.03125 0 .046875.015625.0625.015625l.046875.046875c.015625.015625.015625.046875.015625.078125.015625.03125.015625.078125.015625.125 0 .09375-.015625.15625-.046875.203125-.015625.046875-.046875.0625-.09375.046875h-.890625v1.9375c0 .25.046875.421875.109375.53125.078125.125.203125.1875.375.1875.0625 0 .125 0 .171875-.015625.03125 0 .078125-.015625.125-.03125.03125-.015625.0625-.03125.078125-.046875.03125 0 .0625-.015625.078125-.015625s.015625.015625.03125.015625.03125.015625.03125.03125c.015625.03125.015625.046875.015625.078125.015625.03125.015625.0625.015625.109375zm0 0"/></symbol><symbol id="q" overflow="visible"><path d="m1.21875-.09375c0 .03125 0 .046875-.015625.0625 0 .015625-.015625.03125-.046875.03125s-.0625.015625-.09375.015625c-.046875.015625-.09375.015625-.15625.015625s-.109375 0-.15625-.015625c-.046875 0-.078125-.015625-.109375-.015625-.015625 0-.03125-.015625-.03125-.03125-.015625-.015625-.015625-.03125-.015625-.0625v-5.125c0-.015625 0-.03125.015625-.046875 0-.015625.015625-.03125.03125-.046875.03125 0 .0625-.015625.109375-.015625s.09375-.015625.15625-.015625.109375.015625.15625.015625c.03125 0 .0625.015625.09375.015625.03125.015625.046875.03125.046875.046875.015625.015625.015625.03125.015625.046875zm0 0"/></symbol><symbol id="r" overflow="visible"><path d="m3.1875-.09375c0 .046875 0 .0625-.03125.078125-.015625.015625-.046875.015625-.078125.03125s-.09375.015625-.171875.015625c-.046875 0-.109375 0-.140625-.015625-.046875-.015625-.078125-.015625-.09375-.03125s-.03125-.03125-.03125-.078125v-.34375c-.140625.171875-.3125.296875-.5.390625-.1875.078125-.390625.125-.59375.125-.171875 0-.34375-.03125-.484375-.078125-.15625-.03125-.28125-.109375-.375-.203125-.109375-.078125-.1875-.1875-.25-.328125-.0625-.125-.078125-.265625-.078125-.4375 0-.203125.03125-.359375.109375-.515625.078125-.140625.203125-.25.34375-.34375s.328125-.171875.546875-.21875.453125-.078125.71875-.078125h.484375v-.265625c0-.125-.015625-.234375-.046875-.34375s-.078125-.1875-.125-.25c-.0625-.078125-.140625-.125-.25-.15625s-.21875-.0625-.375-.0625-.296875.03125-.421875.0625c-.125.046875-.234375.078125-.328125.125-.078125.03125-.15625.078125-.234375.109375-.0625.046875-.109375.0625-.140625.0625-.015625 0-.03125 0-.046875-.015625-.015625 0-.015625-.015625-.03125-.046875-.015625-.015625-.03125-.046875-.03125-.078125s-.015625-.0625-.015625-.109375c0-.0625.015625-.109375.015625-.140625.015625-.03125.03125-.078125.078125-.109375.03125-.03125.09375-.078125.171875-.125.09375-.03125.171875-.078125.296875-.109375.109375-.03125.21875-.0625.359375-.09375.125-.03125.265625-.046875.390625-.046875.25 0 .453125.03125.640625.09375.171875.0625.3125.140625.40625.25.125.109375.203125.234375.234375.390625.0625.171875.078125.359375.078125.5625zm-.625-1.578125h-.546875c-.171875.015625-.3125.03125-.453125.0625-.125.03125-.234375.078125-.3125.125-.09375.046875-.15625.125-.1875.203125-.046875.09375-.0625.171875-.0625.28125 0 .171875.0625.328125.171875.421875.125.125.28125.171875.484375.15625.15625.015625.3125-.03125.453125-.125.15625-.078125.296875-.203125.453125-.390625zm0 0"/></symbol><symbol id="s" overflow="visible"><path d="m2.15625 0-.453125 1.28125c-.015625.03125-.0625.0625-.125.09375-.046875.015625-.140625.03125-.28125.03125-.0625 0-.109375 0-.15625-.015625-.046875 0-.078125-.015625-.09375-.03125-.03125-.015625-.046875-.03125-.046875-.0625 0-.015625 0-.046875.015625-.09375l.484375-1.203125c-.015625 0-.046875-.015625-.0625-.046875-.015625-.015625-.03125-.046875-.046875-.078125l-1.234375-3.296875c-.015625-.046875-.03125-.09375-.03125-.125 0-.015625.015625-.046875.03125-.0625.03125-.015625.0625-.03125.109375-.046875.046875 0 .109375 0 .171875-.015625.078125.015625.140625.015625.1875.015625.046875.015625.078125.015625.09375.03125.03125.015625.046875.03125.0625.046875s.03125.03125.046875.0625l.96875 2.765625h.015625l.96875-2.78125c0-.046875.03125-.078125.046875-.09375.03125 0 .046875-.015625.09375-.03125.046875 0 .109375 0 .1875-.015625.078125.015625.140625.015625.1875.015625.046875.015625.078125.03125.09375.046875.03125.015625.03125.046875.03125.0625 0 .03125 0 .0625-.03125.109375zm0 0"/></symbol><symbol id="t" overflow="visible"><path d="m2.609375-3.3125v.140625c0 .046875-.015625.078125-.015625.09375-.015625.015625-.015625.03125-.03125.046875s-.03125.015625-.046875.015625-.046875 0-.078125-.015625-.0625-.03125-.09375-.03125c-.046875-.015625-.078125-.015625-.125-.03125s-.09375-.015625-.15625-.03125c-.0625.015625-.125.03125-.1875.046875-.0625.03125-.125.078125-.1875.125-.078125.0625-.15625.140625-.21875.234375-.078125.109375-.15625.21875-.25.34375v2.28125c0 .03125 0 .046875-.015625.0625 0 .015625-.015625.03125-.046875.03125s-.0625.015625-.09375.015625c-.046875.015625-.09375.015625-.15625.015625s-.109375 0-.15625-.015625c-.046875 0-.078125-.015625-.109375-.015625-.015625 0-.03125-.015625-.03125-.03125-.015625-.015625-.015625-.03125-.015625-.0625v-3.453125c0-.015625 0-.03125.015625-.046875 0-.015625.015625-.015625.03125-.03125.03125-.015625.0625-.015625.09375-.03125.03125 0 .078125 0 .140625-.015625.0625.015625.09375.015625.140625.015625.046875.015625.078125.015625.078125.03125.03125.015625.046875.015625.046875.03125.015625.015625.015625.03125.015625.046875v.5c.09375-.125.1875-.25.265625-.328125.09375-.09375.15625-.15625.234375-.203125s.140625-.09375.21875-.109375.15625-.03125.21875-.03125h.125c.046875.015625.078125.015625.125.03125s.09375.015625.125.03125c.046875.015625.0625.03125.078125.046875s.03125.03125.03125.03125c.015625.015625.015625.03125.015625.046875.015625.015625.015625.046875.015625.078125zm0 0"/></symbol><symbol id="u" overflow="visible"><path d="m8.28125-6.4375c0-.453125-.78125-.375-1.078125-.375h-3.765625c-.5 0-1.390625.28125-1.546875.828125.015625.046875.046875.0625.109375.0625.21875 0 .515625-.171875.65625-.328125.296875 0 .609375-.015625.90625-.015625h.625s-.046875.171875-.046875.1875c-.375 1.828125-.96875 3.359375-1.40625 4.34375-.0625.125-.59375 1.375-.734375 1.5-.4375 0-.78125-.25-.953125-.640625-.03125-.046875-.03125-.09375-.09375-.09375-.234375 0-.78125.328125-.78125.484375 0 .03125 0 .046875.015625.0625.1875.46875.625.734375 1.125.734375s1.09375-.359375 1.40625-.734375c.328125-.375.984375-2.015625 1.25-2.609375h1.921875c-.015625.015625-.015625.015625-.015625.03125 0 .046875.0625.0625.09375.0625.21875 0 .796875-.265625.796875-.578125 0-.078125-.078125-.0625-.203125-.0625h-2.390625c.265625-.890625.609375-1.78125.78125-2.6875h1.3125c.25 0 .953125-.046875 1.125.171875.03125.046875 0 .15625.03125.203125.015625.015625.046875.03125.078125.03125.234375 0 .78125-.296875.78125-.578125zm0 0"/></symbol><symbol id="v" overflow="visible"><path d="m3.296875 2.390625c0-.03125 0-.046875-.171875-.21875-1.234375-1.25-1.5625-3.140625-1.5625-4.671875 0-1.734375.375-3.46875 1.609375-4.703125.125-.125.125-.140625.125-.171875 0-.078125-.03125-.109375-.09375-.109375-.109375 0-1 .6875-1.59375 1.953125-.5 1.09375-.625 2.203125-.625 3.03125 0 .78125.109375 1.984375.65625 3.125.609375 1.21875 1.453125 1.875 1.5625 1.875.0625 0 .09375-.03125.09375-.109375zm0 0"/></symbol><symbol id="w" overflow="visible"><path d="m2.875-2.5c0-.765625-.109375-1.96875-.65625-3.109375-.59375-1.21875-1.453125-1.875-1.546875-1.875-.0625 0-.109375.046875-.109375.109375 0 .03125 0 .046875.1875.234375.984375.984375 1.546875 2.5625 1.546875 4.640625 0 1.71875-.359375 3.46875-1.59375 4.71875-.140625.125-.140625.140625-.140625.171875 0 .0625.046875.109375.109375.109375.09375 0 1-.6875 1.578125-1.953125.515625-1.09375.625-2.203125.625-3.046875zm0 0"/></symbol><symbol id="x" overflow="visible"><path d="m4.078125-2.296875h2.78125c.140625 0 .328125 0 .328125-.203125 0-.1875-.1875-.1875-.328125-.1875h-2.78125v-2.796875c0-.140625 0-.328125-.203125-.328125s-.203125.1875-.203125.328125v2.796875h-2.78125c-.140625 0-.328125 0-.328125.1875 0 .203125.1875.203125.328125.203125h2.78125v2.796875c0 .140625 0 .328125.203125.328125s.203125-.1875.203125-.328125zm0 0"/></symbol><symbol id="y" overflow="visible"><path d="m3.453125-2.453125 1.15625-1.296875c.140625-.140625.203125-.203125 1.015625-.203125v-.46875c-.34375.015625-.859375.03125-.90625.03125-.25 0-.75-.03125-1.03125-.03125v.46875c.140625 0 .265625.015625.375.078125-.03125.0625-.03125.09375-.078125.125l-.828125.9375-.984375-1.140625h.40625v-.46875c-.265625 0-.890625.03125-1.21875.03125-.3125 0-.765625-.03125-1.09375-.03125v.46875h.71875l1.546875 1.828125-1.3125 1.46875c-.15625.1875-.515625.1875-1 .1875v.46875c.34375-.015625.875-.03125.921875-.03125.25 0 .828125.015625 1.015625.03125v-.46875c-.171875 0-.359375-.046875-.359375-.109375 0-.015625 0-.015625.0625-.09375l.96875-1.09375 1.09375 1.296875h-.390625v.46875c.265625-.015625.875-.03125 1.203125-.03125.3125 0 .765625.015625 1.09375.03125v-.46875h-.703125zm0 0"/></symbol><use fill="#100f0d" x="156.56" xlink:href="#a" y="61.619"/><use fill="#100f0d" x="158.68" xlink:href="#b" y="61.619"/><g fill="#100f0d"><use x="163.255" xlink:href="#c" y="61.619"/><use x="167.601" xlink:href="#d" y="61.619"/></g><g fill="#100f0d"><use x="172.296" xlink:href="#e" y="61.619"/><use x="175.226" xlink:href="#a" y="61.619"/><use x="177.222" xlink:href="#e" y="61.619"/><use x="180.152" xlink:href="#f" y="61.619"/></g><path d="m73.574219 56.719531h57.28125v13.261719h-57.28125zm0 0" transform="matrix(1 0 0 -1 0 91.575)" fill="#fff" stroke-width=".734" stroke-linecap="round" stroke-linejoin="round" stroke="#100f0d" stroke-miterlimit="10"/><use fill="#100f0d" x="82.612" xlink:href="#j" y="30.513"/><use fill="#100f0d" x="88.132" xlink:href="#k" y="30.513"/><g fill="#100f0d"><use x="92.011" xlink:href="#l" y="30.513"/><use x="93.887" xlink:href="#m" y="30.513"/></g><use fill="#100f0d" x="97.526" xlink:href="#n" y="30.513"/><use fill="#100f0d" x="101.627" xlink:href="#o" y="30.513"/><g fill="#100f0d"><use x="104.215" xlink:href="#p" y="30.513"/><use x="106.091" xlink:href="#q" y="30.513"/></g><use fill="#100f0d" x="107.851" xlink:href="#r" y="30.513"/><use fill="#100f0d" x="111.606" xlink:href="#s" y="30.513"/><use fill="#100f0d" x="115.131" xlink:href="#k" y="30.513"/><use fill="#100f0d" x="119.01" xlink:href="#t" y="30.513"/><path d="m73.574219 30.309375h57.28125v13.261719h-57.28125zm0 0" transform="matrix(1 0 0 -1 0 91.575)" fill="#fff" stroke-width=".734" stroke-linecap="round" stroke-linejoin="round" stroke="#100f0d" stroke-miterlimit="10"/><use fill="#100f0d" x="82.612" xlink:href="#j" y="56.923"/><use fill="#100f0d" x="88.132" xlink:href="#k" y="56.923"/><g fill="#100f0d"><use x="92.011" xlink:href="#l" y="56.923"/><use x="93.887" xlink:href="#m" y="56.923"/></g><use fill="#100f0d" x="97.526" xlink:href="#n" y="56.923"/><use fill="#100f0d" x="101.627" xlink:href="#o" y="56.923"/><g fill="#100f0d"><use x="104.215" xlink:href="#p" y="56.923"/><use x="106.091" xlink:href="#q" y="56.923"/></g><use fill="#100f0d" x="107.851" xlink:href="#r" y="56.923"/><use fill="#100f0d" x="111.606" xlink:href="#s" y="56.923"/><use fill="#100f0d" x="115.131" xlink:href="#k" y="56.923"/><use fill="#100f0d" x="119.01" xlink:href="#t" y="56.923"/><path d="m.00084375.00053125v-9.97656225" transform="matrix(1 0 0 -1 102.214 34.856)" fill="none" stroke-width=".734" stroke-linecap="round" stroke-linejoin="round" stroke="#100f0d" stroke-miterlimit="10"/><path d="m102.214844 48.003906-2.113282-4.226562c1.292969.703125 2.933594.703125 4.226563 0z" fill="#100f0d" fill-rule="evenodd"/><path d="m.00084375.0006875v-9.9765625" transform="matrix(1 0 0 -1 102.214 8.446)" fill="none" stroke-width=".734" stroke-linecap="round" stroke-linejoin="round" stroke="#100f0d" stroke-miterlimit="10"/><path d="m102.214844 21.59375-2.113282-4.226562c1.292969.703124 2.933594.703124 4.226563 0z" fill="#100f0d" fill-rule="evenodd"/><path d="m.00084375.001375v-5.519531" transform="matrix(1 0 0 -1 102.214 61.267)" fill="none" stroke-width=".734" stroke-linecap="round" stroke-linejoin="round" stroke="#100f0d" stroke-miterlimit="10"/><path d="m102.214844 70.070312-2.113282-4.34375c1.292969.703126 2.933594.703126 4.226563 0z" fill="#100f0d" fill-rule="evenodd"/><path d="m106.558594 74.414062c0-2.347656-1.878906-4.34375-4.34375-4.34375s-4.460938 1.996094-4.460938 4.34375c0 2.464844 1.996094 4.457032 4.460938 4.457032s4.34375-1.992188 4.34375-4.457032" fill="#fff" fill-rule="evenodd"/><path d="m.00159375-.0010625c0 2.3476565-1.87890675 4.3437495-4.34374975 4.3437495-2.464844 0-4.460938-1.996093-4.460938-4.3437495 0-2.4648435 1.996094-4.4570315 4.460938-4.4570315 2.464843 0 4.34374975 1.992188 4.34374975 4.4570315zm0 0" transform="matrix(1 0 0 -1 106.557 74.413)" fill="none" stroke-width=".734" stroke-linecap="round" stroke-linejoin="round" stroke="#100f0d" stroke-miterlimit="10"/><path d="m.000375-.0010625h4.460937" transform="matrix(1 0 0 -1 99.984 74.413)" fill="none" stroke-width=".734" stroke-linecap="round" stroke-linejoin="round" stroke="#100f0d" stroke-miterlimit="10"/><path d="m.00084375-.00153125v4.34375025" transform="matrix(1 0 0 -1 102.214 76.643)" fill="none" stroke-width=".734" stroke-linecap="round" stroke-linejoin="round" stroke="#100f0d" stroke-miterlimit="10"/><path d="m.00084375.00190625v-5.51953125" transform="matrix(1 0 0 -1 102.214 78.873)" fill="none" stroke-width=".734" stroke-linecap="round" stroke-linejoin="round" stroke="#100f0d" stroke-miterlimit="10"/><path d="m102.214844 87.675781-2.113282-4.34375c1.292969.707031 2.933594.707031 4.226563 0z" fill="#100f0d" fill-rule="evenodd"/><g fill="#100f0d"><use x="106.088" xlink:href="#g" y="42.956"/><use x="109.147" xlink:href="#c" y="42.956"/></g><g fill="#100f0d"><use x="113.614" xlink:href="#h" y="42.956"/><use x="115.617" xlink:href="#i" y="42.956"/></g><g fill="#100f0d"><use x="106.088" xlink:href="#g" y="85.916"/><use x="109.147" xlink:href="#c" y="85.916"/></g><g fill="#100f0d"><use x="113.614" xlink:href="#h" y="85.916"/><use x="115.617" xlink:href="#i" y="85.916"/></g><path d="m.00159375-.0000625c41.55078125 0 48.24218725-16.3164065 45.89453125-38.8515625-1.175781-10.449219-4.226563-22.183594-42.609375-22.769531" transform="matrix(1 0 0 -1 106.557 12.789)" fill="none" stroke-width=".734" stroke-linecap="round" stroke-linejoin="round" stroke="#100f0d" stroke-miterlimit="10"/><path d="m106.558594 74.414062 4.339844 2.113282c-.703126-1.292969-.703126-2.9375 0-4.226563z" fill="#100f0d" fill-rule="evenodd"/><path d="m.00084375-.0000625h4.34375025" transform="matrix(1 0 0 -1 102.214 12.789)" fill="none" stroke-width=".734" stroke-linecap="round" stroke-linejoin="round" stroke="#100f0d" stroke-miterlimit="10"/><g fill="#231f20"><use x="49.827" xlink:href="#u" y="79.701"/><use x="56.99" xlink:href="#v" y="79.701"/><use x="60.856" xlink:href="#y" y="79.701"/><use x="66.892" xlink:href="#w" y="79.701"/><use x="70.758" xlink:href="#z" y="79.701"/><use x="73.019" xlink:href="#x" y="79.701"/><use x="80.759" xlink:href="#z" y="79.701"/><use x="83.02" xlink:href="#y" y="79.701"/><use x="88.618" xlink:href="#y" y="13.298"/><use x="40.514" xlink:href="#u" y="44.126"/><use x="47.677" xlink:href="#v" y="44.126"/><use x="51.543" xlink:href="#y" y="44.126"/><use x="57.58" xlink:href="#w" y="44.126"/><use x="166.618" xlink:href="#y" y="49.293"/></g></svg>