<?xml version="1.0" encoding="UTF-8"?>
<svg xmlns="http://www.w3.org/2000/svg" xmlns:xlink="http://www.w3.org/1999/xlink" width="389pt" height="329pt" viewBox="0 0 389 329" version="1.1">
<g id="surface3065">
<path style=" stroke:none;fill-rule:evenodd;fill:rgb(54.5%,0%,0%);fill-opacity:1;" d="M 25.171875 74.011719 C 25.171875 67.785156 20.125 62.738281 13.902344 62.738281 C 7.675781 62.738281 2.628906 67.785156 2.628906 74.011719 C 2.628906 80.234375 7.675781 85.28125 13.902344 85.28125 C 20.125 85.28125 25.171875 80.234375 25.171875 74.011719 Z M 25.171875 74.011719 "/>
<path style=" stroke:none;fill-rule:evenodd;fill:rgb(54.5%,0%,0%);fill-opacity:1;" d="M 385.832031 13.902344 C 385.832031 7.675781 380.785156 2.628906 374.558594 2.628906 C 368.335938 2.628906 363.289062 7.675781 363.289062 13.902344 C 363.289062 20.125 368.335938 25.171875 374.558594 25.171875 C 380.785156 25.171875 385.832031 20.125 385.832031 13.902344 Z M 385.832031 13.902344 "/>
<path style=" stroke:none;fill-rule:evenodd;fill:rgb(54.5%,0%,0%);fill-opacity:1;" d="M 325.722656 254.339844 C 325.722656 248.117188 320.675781 243.070312 314.449219 243.070312 C 308.226562 243.070312 303.179688 248.117188 303.179688 254.339844 C 303.179688 260.566406 308.226562 265.609375 314.449219 265.609375 C 320.675781 265.609375 325.722656 260.566406 325.722656 254.339844 Z M 325.722656 254.339844 "/>
<path style=" stroke:none;fill-rule:evenodd;fill:rgb(54.5%,0%,0%);fill-opacity:1;" d="M 25.171875 314.449219 C 25.171875 308.226562 20.125 303.179688 13.902344 303.179688 C 7.675781 303.179688 2.628906 308.226562 2.628906 314.449219 C 2.628906 320.675781 7.675781 325.722656 13.902344 325.722656 C 20.125 325.722656 25.171875 320.675781 25.171875 314.449219 Z M 25.171875 314.449219 "/>
<path style=" stroke:none;fill-rule:evenodd;fill:rgb(54.5%,0%,0%);fill-opacity:1;" d="M 145.390625 13.902344 C 145.390625 7.675781 140.34375 2.628906 134.121094 2.628906 C 127.894531 2.628906 122.851562 7.675781 122.851562 13.902344 C 122.851562 20.125 127.894531 25.171875 134.121094 25.171875 C 140.34375 25.171875 145.390625 20.125 145.390625 13.902344 Z M 145.390625 13.902344 "/>
<path style="fill:none;stroke-width:1.2;stroke-linecap:butt;stroke-linejoin:round;stroke:rgb(0%,0%,54.5%);stroke-opacity:1;stroke-miterlimit:10;" d="M 289.288021 693.15315 L 302.24033 744.961344 " transform="matrix(3.756871,0,0,-3.756871,-767.528817,2839.06768)"/>
<path style="fill-rule:evenodd;fill:rgb(0%,0%,54.5%);fill-opacity:1;stroke-width:1.2;stroke-linecap:butt;stroke-linejoin:round;stroke:rgb(0%,0%,54.5%);stroke-opacity:1;stroke-miterlimit:10;" d="M 302.24033 744.961344 L 298.280918 738.735252 L 302.80388 737.605032 Z M 302.24033 744.961344 " transform="matrix(3.756871,0,0,-3.756871,-767.528817,2839.06768)"/>
<path style="fill:none;stroke-width:1.2;stroke-linecap:butt;stroke-linejoin:round;stroke:rgb(0%,0%,54.5%);stroke-opacity:1;stroke-miterlimit:10;" d="M 283.488232 690.707631 L 213.206597 732.876196 " transform="matrix(3.756871,0,0,-3.756871,-767.528817,2839.06768)"/>
<path style="fill-rule:evenodd;fill:rgb(0%,0%,54.5%);fill-opacity:1;stroke-width:1.2;stroke-linecap:butt;stroke-linejoin:round;stroke:rgb(0%,0%,54.5%);stroke-opacity:1;stroke-miterlimit:10;" d="M 213.206597 732.876196 L 218.009255 727.276041 L 220.407984 731.273924 Z M 213.206597 732.876196 " transform="matrix(3.756871,0,0,-3.756871,-767.528817,2839.06768)"/>
<path style="fill:none;stroke-width:1.2;stroke-linecap:butt;stroke-linejoin:round;stroke:rgb(0%,0%,54.5%);stroke-opacity:1;stroke-miterlimit:10;" d="M 210.35973 677.89881 L 237.136706 744.842811 " transform="matrix(3.756871,0,0,-3.756871,-767.528817,2839.06768)"/>
<path style="fill-rule:evenodd;fill:rgb(0%,0%,54.5%);fill-opacity:1;stroke-width:1.2;stroke-linecap:butt;stroke-linejoin:round;stroke:rgb(0%,0%,54.5%);stroke-opacity:1;stroke-miterlimit:10;" d="M 237.136706 744.842811 L 232.373559 739.209383 L 236.702086 737.478181 Z M 237.136706 744.842811 " transform="matrix(3.756871,0,0,-3.756871,-767.528817,2839.06768)"/>
<path style="fill:none;stroke-width:1.2;stroke-linecap:butt;stroke-linejoin:round;stroke:rgb(0%,0%,54.5%);stroke-opacity:1;stroke-miterlimit:10;" d="M 245.352901 751.999489 L 296.883479 751.999489 " transform="matrix(3.756871,0,0,-3.756871,-767.528817,2839.06768)"/>
<path style="fill-rule:evenodd;fill:rgb(0%,0%,54.5%);fill-opacity:1;stroke-width:1.2;stroke-linecap:butt;stroke-linejoin:round;stroke:rgb(0%,0%,54.5%);stroke-opacity:1;stroke-miterlimit:10;" d="M 296.883479 751.999489 L 289.883805 754.330634 L 289.883805 749.669384 Z M 296.883479 751.999489 " transform="matrix(3.756871,0,0,-3.756871,-767.528817,2839.06768)"/>
</g>
</svg>
