<svg height="179.637pt" viewBox="0 0 260.81 179.637" width="260.81pt" xmlns="http://www.w3.org/2000/svg" xmlns:xlink="http://www.w3.org/1999/xlink"><clipPath id="a"><path d="m160 1h99v178.636719h-99zm0 0"/></clipPath><symbol id="b" overflow="visible"><path d="m2.921875-1.90625c-.59375 1.015625-1.1875 1.359375-2.015625 1.40625-.1875.015625-.328125.015625-.328125.328125 0 .109375.09375.171875.21875.171875.3125 0 1.078125-.03125 1.390625-.03125.5 0 1.046875.03125 1.53125.03125.109375 0 .3125 0 .3125-.328125 0-.15625-.140625-.171875-.25-.171875-.390625-.03125-.71875-.171875-.71875-.578125 0-.25.109375-.4375.328125-.8125l1.3125-2.171875h4.390625c.015625.15625.015625.296875.03125.453125.046875.4375.265625 2.234375.265625 2.5625 0 .515625-.890625.546875-1.15625.546875-.1875 0-.375 0-.375.3125 0 .1875.140625.1875.25.1875.296875 0 .640625-.03125.9375-.03125h.96875c1.0625 0 1.8125.03125 1.828125.03125.125 0 .3125 0 .3125-.328125 0-.171875-.15625-.171875-.40625-.171875-.953125 0-.96875-.15625-1.015625-.671875l-1.0625-10.75c-.03125-.34375-.09375-.375-.28125-.375-.171875 0-.28125.03125-.4375.296875zm2.078125-2.65625 3.453125-5.78125.59375 5.78125zm0 0"/></symbol><symbol id="c" overflow="visible"><path d="m6.296875-10.59375c.15625-.640625.234375-.671875.90625-.671875h2.234375c1.9375 0 1.9375 1.65625 1.9375 1.8125 0 1.390625-1.390625 3.171875-3.65625 3.171875h-2.484375zm2.921875 4.453125c1.875-.34375 3.578125-1.65625 3.578125-3.25 0-1.34375-1.1875-2.375-3.140625-2.375h-5.53125c-.3125 0-.46875 0-.46875.328125 0 .171875.15625.171875.40625.171875 1.046875 0 1.046875.140625 1.046875.328125 0 .03125 0 .140625-.0625.40625l-2.328125 9.25c-.15625.609375-.1875.78125-1.390625.78125-.328125 0-.5 0-.5.3125 0 .1875.109375.1875.453125.1875h5.90625c2.625 0 4.65625-2 4.65625-3.734375 0-1.40625-1.234375-2.28125-2.625-2.40625zm-2.453125 5.640625h-2.328125c-.234375 0-.265625 0-.375-.015625-.1875-.015625-.203125-.046875-.203125-.1875 0-.125.03125-.234375.0625-.375l1.203125-4.859375h3.25c2.03125 0 2.03125 1.890625 2.03125 2.03125 0 1.65625-1.5 3.40625-3.640625 3.40625zm0 0"/></symbol><symbol id="d" overflow="visible"><path d="m7.671875-6.921875c.359375 0 .484375 0 .484375-.328125 0-.171875-.125-.171875-.4375-.171875h-1.40625c.328125-1.765625.578125-3 .71875-3.546875.09375-.40625.453125-.8125.90625-.8125.359375 0 .71875.15625.890625.3125-.671875.0625-.875.5625-.875.859375 0 .34375.265625.546875.59375.546875.34375 0 .859375-.28125.859375-.9375 0-.71875-.734375-1.125-1.484375-1.125-.734375 0-1.46875.546875-1.8125 1.21875-.3125.609375-.484375 1.234375-.875 3.484375h-1.15625c-.328125 0-.5 0-.5.3125 0 .1875.109375.1875.453125.1875h1.09375c-.296875 1.59375-1.015625 5.5-1.40625 7.328125-.296875 1.5-.546875 2.765625-1.40625 2.765625-.0625 0-.5625 0-.859375-.328125.875-.078125.875-.828125.875-.84375 0-.34375-.265625-.546875-.59375-.546875-.34375 0-.859375.28125-.859375.9375 0 .75.765625 1.125 1.4375 1.125 1.75 0 2.46875-3.15625 2.65625-4.015625.3125-1.328125 1.15625-5.90625 1.25-6.421875zm0 0"/></symbol><symbol id="e" overflow="visible"><path d="m1.671875-3.3125v-1.09375l-1.390625.109375v.3125c.703125 0 .78125.0625.78125.5625v2.671875c0 .4375-.109375.4375-.78125.4375v.3125c.390625-.015625.859375-.03125 1.140625-.03125.390625 0 .859375 0 1.265625.03125v-.3125h-.21875c-.734375 0-.75-.109375-.75-.46875v-1.53125c0-.984375.421875-1.875 1.171875-1.875.0625 0 .09375 0 .109375.015625-.03125 0-.234375.125-.234375.390625s.21875.421875.4375.421875c.171875 0 .421875-.125.421875-.4375s-.3125-.609375-.734375-.609375c-.734375 0-1.09375.671875-1.21875 1.09375zm0 0"/></symbol><symbol id="f" overflow="visible"><path d="m3.3125-.75c.046875.390625.3125.8125.78125.8125.21875 0 .828125-.140625.828125-.953125v-.5625h-.25v.5625c0 .578125-.25.640625-.359375.640625-.328125 0-.375-.453125-.375-.5v-1.984375c0-.421875 0-.8125-.359375-1.1875-.390625-.390625-.890625-.546875-1.359375-.546875-.828125 0-1.515625.46875-1.515625 1.125 0 .296875.203125.46875.46875.46875.28125 0 .453125-.203125.453125-.453125 0-.125-.046875-.453125-.515625-.453125.28125-.359375.765625-.46875 1.078125-.46875.5 0 1.0625.390625 1.0625 1.28125v.359375c-.515625.03125-1.203125.0625-1.828125.359375-.75.34375-1 .859375-1 1.296875 0 .8125.96875 1.0625 1.59375 1.0625.65625 0 1.109375-.40625 1.296875-.859375zm-.0625-1.640625v1c0 .9375-.71875 1.28125-1.171875 1.28125-.484375 0-.890625-.34375-.890625-.84375 0-.546875.421875-1.375 2.0625-1.4375zm0 0"/></symbol><symbol id="g" overflow="visible"><path d="m1.09375-3.421875v2.671875c0 .4375-.109375.4375-.78125.4375v.3125c.359375-.015625.859375-.03125 1.140625-.03125.25 0 .765625.015625 1.109375.03125v-.3125c-.671875 0-.78125 0-.78125-.4375v-1.84375c0-1.03125.71875-1.59375 1.34375-1.59375.640625 0 .75.53125.75 1.109375v2.328125c0 .4375-.109375.4375-.78125.4375v.3125c.34375-.015625.859375-.03125 1.125-.03125.25 0 .78125.015625 1.109375.03125v-.3125c-.515625 0-.765625 0-.765625-.296875v-1.90625c0-.859375 0-1.15625-.3125-1.515625-.140625-.171875-.46875-.375-1.046875-.375-.734375 0-1.203125.421875-1.484375 1.046875v-1.046875l-1.40625.109375v.3125c.703125 0 .78125.0625.78125.5625zm0 0"/></symbol><symbol id="h" overflow="visible"><path d="m2.21875-1.71875c-.875 0-.875-1-.875-1.21875 0-.265625.015625-.59375.15625-.84375.078125-.109375.3125-.390625.71875-.390625.859375 0 .859375.984375.859375 1.21875 0 .265625 0 .59375-.15625.84375-.078125.109375-.3125.390625-.703125.390625zm-1.15625.390625c0-.03125 0-.265625.15625-.46875.390625.28125.8125.3125 1 .3125.921875 0 1.609375-.6875 1.609375-1.453125 0-.375-.15625-.734375-.40625-.96875.359375-.34375.71875-.390625.890625-.390625.03125 0 .078125 0 .109375.015625-.109375.03125-.171875.140625-.171875.265625 0 .171875.140625.28125.296875.28125.09375 0 .28125-.0625.28125-.296875 0-.171875-.109375-.484375-.5-.484375-.203125 0-.640625.0625-1.0625.46875-.421875-.328125-.828125-.359375-1.046875-.359375-.9375 0-1.625.6875-1.625 1.453125 0 .4375.21875.8125.46875 1.03125-.125.140625-.3125.46875-.3125.828125 0 .3125.140625.6875.453125.890625-.609375.15625-.921875.59375-.921875.984375 0 .71875.984375 1.265625 2.203125 1.265625 1.171875 0 2.203125-.5 2.203125-1.28125 0-.34375-.125-.859375-.640625-1.140625-.53125-.265625-1.109375-.265625-1.71875-.265625-.25 0-.671875 0-.75-.015625-.3125-.046875-.515625-.34375-.515625-.671875zm1.4375 3.15625c-1.015625 0-1.703125-.515625-1.703125-1.046875 0-.453125.375-.828125.8125-.84375h.59375c.859375 0 1.96875 0 1.96875.84375 0 .546875-.703125 1.046875-1.671875 1.046875zm0 0"/></symbol><symbol id="i" overflow="visible"><path d="m1.109375-2.515625c.0625-1.484375.90625-1.734375 1.25-1.734375 1.015625 0 1.125 1.34375 1.125 1.734375zm0 .21875h2.78125c.21875 0 .25 0 .25-.21875 0-.984375-.546875-1.953125-1.78125-1.953125-1.15625 0-2.078125 1.03125-2.078125 2.28125 0 1.328125 1.046875 2.296875 2.1875 2.296875 1.21875 0 1.671875-1.109375 1.671875-1.296875 0-.09375-.078125-.125-.140625-.125-.078125 0-.109375.0625-.125.140625-.34375 1.03125-1.25 1.03125-1.34375 1.03125-.5 0-.890625-.296875-1.125-.671875-.296875-.46875-.296875-1.125-.296875-1.484375zm0 0"/></symbol><path d="m219.368 674.7c0 48.601563-21.488281 88-48 88s-48-39.398437-48-88c0-48.601562 21.488281-88 48-88s48 39.398438 48 88" style="fill-rule:evenodd;fill:#add8e6;fill-opacity:.3;stroke-width:2;stroke-linejoin:round;stroke:#00008b;stroke-opacity:.3;stroke-miterlimit:10" transform="matrix(1 0 0 -1 -121.868 764.2)"/><path d="m257.5 90.136719c0-48.601563-21.488281-88-48-88s-48 39.398437-48 88c0 48.601562 21.488281 88 48 88s48-39.398438 48-88" fill="#ffc0cb" fill-opacity=".5" fill-rule="evenodd"/><g clip-path="url(#a)"><path d="m379.368 674.063281c0 48.601563-21.488281 88-48 88s-48-39.398437-48-88c0-48.601562 21.488281-88 48-88s48 39.398438 48 88" style="fill:none;stroke-width:2;stroke-linejoin:round;stroke:#8b0000;stroke-opacity:.5;stroke-miterlimit:10" transform="matrix(1 0 0 -1 -121.868 764.2)"/></g><g fill-rule="evenodd"><path d="m51.300781 49.496094c0-.992188-.808593-1.800782-1.800781-1.800782s-1.800781.808594-1.800781 1.800782c0 .996094.808593 1.800781 1.800781 1.800781s1.800781-.804687 1.800781-1.800781" fill="#00008b"/><path d="m19.300781 81.496094c0-.992188-.808593-1.800782-1.800781-1.800782s-1.800781.808594-1.800781 1.800782c0 .996094.808593 1.800781 1.800781 1.800781s1.800781-.804687 1.800781-1.800781" fill="#00008b"/><path d="m67.300781 113.496094c0-.992188-.808593-1.800782-1.800781-1.800782s-1.800781.808594-1.800781 1.800782c0 .996094.808593 1.800781 1.800781 1.800781s1.800781-.804687 1.800781-1.800781" fill="#00008b"/><g fill="#8b0000"><path d="m195.300781 49.496094c0-.992188-.808593-1.800782-1.800781-1.800782s-1.800781.808594-1.800781 1.800782c0 .996094.808593 1.800781 1.800781 1.800781s1.800781-.804687 1.800781-1.800781"/><path d="m243.300781 81.496094c0-.992188-.808593-1.800782-1.800781-1.800782s-1.800781.808594-1.800781 1.800782c0 .996094.808593 1.800781 1.800781 1.800781s1.800781-.804687 1.800781-1.800781"/><path d="m211.300781 113.496094c0-.992188-.808593-1.800782-1.800781-1.800782s-1.800781.808594-1.800781 1.800782c0 .996094.808593 1.800781 1.800781 1.800781s1.800781-.804687 1.800781-1.800781"/><path d="m225.039062 146.035156c0-.992187-.808593-1.796875-1.800781-1.796875-.996093 0-1.800781.804688-1.800781 1.796875 0 .996094.804688 1.800782 1.800781 1.800782.992188 0 1.800781-.804688 1.800781-1.800782"/></g></g><g stroke="#2e8b57" stroke-linejoin="round" stroke-miterlimit="10" stroke-width="2" transform="matrix(1 0 0 -1 -121.868 764.2)"><path d="m175.043781 716.078906c65.257813 11.683594 110.328125 11.996094 135.214844.9375" fill="none"/><path d="m310.258625 717.016406-5.453125 4.972657-1.890625-4.261719zm0 0" fill="#2e8b57" fill-rule="evenodd"/><path d="m141.977375 682.434375c72.972656-2.085937 129.441406 7.683594 169.410156 29.300781" fill="none"/><path d="m311.387531 711.735156-7.265625-1.277343 2.21875-4.101563zm0 0" fill="#2e8b57" fill-rule="evenodd"/><path d="m190.414875 649.657031c55.964844-10.722656 101.757812-10.695312 137.375.089844" fill="none"/><path d="m327.789875 649.746875-7.375.203125 1.351562-4.460937zm0 0" fill="#2e8b57" fill-rule="evenodd"/></g><use fill="#00008b" x="83.365" xlink:href="#b" y="178.53"/><use fill="#8b0000" x="247.135" xlink:href="#c" y="177.892"/><use fill="#2e8b57" x="122.237" xlink:href="#d" y="22.411"/><path d="m309.203937 678.055469c5.714844-21.191406 17.394532-45.191406 25.257813-46.253906 7.855469-1.0625 11.894531 20.816406 11.253906 39.402343-.636719 18.585938-5.945312 33.878907-10.9375 43.757813-4.992187 9.875-9.664062 14.335937-14.742187 16.941406-5.074219 2.601563-10.554688 3.351563-13.421875-5.464844-2.867188-8.816406-3.125-27.191406 2.589843-48.382812zm0 0" style="fill:none;stroke-width:2;stroke-linejoin:round;stroke:#8b0000;stroke-opacity:.5;stroke-miterlimit:10" transform="matrix(1 0 0 -1 -121.868 764.2)"/><g fill="#8b0000"><use x="191.563" xlink:href="#e" y="75.678"/><use x="195.46535" xlink:href="#f" y="75.678"/><use x="200.44665" xlink:href="#g" y="75.678"/><use x="205.981871" xlink:href="#h" y="75.678"/><use x="210.963171" xlink:href="#i" y="75.678"/></g></svg>