<svg height="217.838pt" viewBox="0 0 213.53 217.838" width="213.53pt" xmlns="http://www.w3.org/2000/svg" xmlns:xlink="http://www.w3.org/1999/xlink"><clipPath id="a"><path d="m19 23h194.53125v194.839844h-194.53125zm0 0"/></clipPath><clipPath id="b"><path d="m19 87h194.53125v3h-194.53125zm0 0"/></clipPath><clipPath id="c"><path d="m83 23h3v194.839844h-3zm0 0"/></clipPath><symbol id="d" overflow="visible"><path d="m5.1875-2.046875c-.09375.296875-.09375.328125-.328125.65625-.375.484375-1.140625 1.21875-1.953125 1.21875-.703125 0-1.09375-.640625-1.09375-1.65625 0-.9375.53125-2.875.859375-3.59375.578125-1.203125 1.390625-1.828125 2.0625-1.828125 1.140625 0 1.359375 1.40625 1.359375 1.546875 0 .015625-.046875.25-.0625.28125zm1.09375-4.40625c-.1875-.453125-.65625-1.140625-1.546875-1.140625-1.9375 0-4.046875 2.515625-4.046875 5.0625 0 1.703125 1 2.703125 2.171875 2.703125.953125 0 1.75-.734375 2.234375-1.3125.171875 1.015625.984375 1.3125 1.5 1.3125s.9375-.3125 1.234375-.921875c.28125-.59375.515625-1.640625.515625-1.71875s-.0625-.15625-.171875-.15625c-.140625 0-.171875.09375-.234375.359375-.265625 1.015625-.578125 2.09375-1.296875 2.09375-.5 0-.53125-.453125-.53125-.796875 0-.390625.0625-.578125.203125-1.25.125-.4375.21875-.8125.34375-1.3125.640625-2.578125.796875-3.203125.796875-3.296875 0-.25-.1875-.4375-.4375-.4375-.5625 0-.703125.609375-.734375.8125zm0 0"/></symbol><symbol id="e" overflow="visible"><path d="m3.984375-11.515625c.015625-.078125.046875-.171875.046875-.265625 0-.171875-.171875-.171875-.203125-.171875-.015625 0-.640625.0625-.953125.09375-.296875.015625-.546875.046875-.859375.0625-.421875.03125-.53125.046875-.53125.359375 0 .171875.171875.171875.34375.171875.875 0 .875.15625.875.328125 0 .125-.140625.625-.203125.9375l-.421875 1.65625c-.171875.6875-1.140625 4.59375-1.21875 4.90625-.078125.421875-.078125.71875-.078125.9375 0 1.765625.96875 2.671875 2.09375 2.671875 2 0 4.0625-2.5625 4.0625-5.0625 0-1.578125-.890625-2.703125-2.1875-2.703125-.890625 0-1.703125.734375-2.03125 1.078125zm-1.09375 11.34375c-.546875 0-1.15625-.40625-1.15625-1.75 0-.578125.0625-.90625.359375-2.109375.0625-.21875.328125-1.328125.40625-1.546875.03125-.140625 1.046875-1.671875 2.21875-1.671875.75 0 1.09375.765625 1.09375 1.65625 0 .828125-.46875 2.765625-.90625 3.671875-.421875.921875-1.21875 1.75-2.015625 1.75zm0 0"/></symbol><symbol id="f" overflow="visible"><path d="m5.265625-2.015625h-.265625c-.046875.203125-.140625.875-.25 1.0625-.09375.109375-.765625.109375-1.125.109375h-2.21875c.328125-.28125 1.0625-1.046875 1.359375-1.328125 1.828125-1.671875 2.5-2.296875 2.5-3.484375 0-1.375-1.09375-2.296875-2.484375-2.296875-1.375 0-2.203125 1.1875-2.203125 2.21875 0 .609375.53125.609375.5625.609375.265625 0 .5625-.1875.5625-.5625 0-.34375-.21875-.5625-.5625-.5625-.09375 0-.125 0-.15625.015625.21875-.8125.875-1.375 1.640625-1.375 1.015625 0 1.640625.859375 1.640625 1.953125 0 1.015625-.578125 1.90625-1.265625 2.671875l-2.421875 2.703125v.28125h4.375zm0 0"/></symbol><g clip-path="url(#a)"><path d="m192.00125 767.998156v-192h192v192zm0 0" fill="none" stroke="#000" stroke-linejoin="round" stroke-miterlimit="10" stroke-width="2" transform="matrix(1 0 0 -1 -171.47 792.838)"/></g><g clip-path="url(#b)"><path d="m192.00125 703.998156h192" fill="none" stroke="#000" stroke-linejoin="round" stroke-miterlimit="10" stroke-width="2" transform="matrix(1 0 0 -1 -171.47 792.838)"/></g><g clip-path="url(#c)"><path d="m256.00125 767.998156v-192" fill="none" stroke="#000" stroke-linejoin="round" stroke-miterlimit="10" stroke-width="2" transform="matrix(1 0 0 -1 -171.47 792.838)"/></g><use x="48.707" xlink:href="#d" y="12.592"/><use x="145.275" xlink:href="#e" y="11.955"/><use xlink:href="#d" y="61.299"/><use x="1.275" xlink:href="#e" y="157.936"/><use x="45.52" xlink:href="#d" y="63.21"/><use x="54.369" xlink:href="#f" y="56.963"/><use x="138.902" xlink:href="#d" y="62.573"/><use x="147.750716" xlink:href="#e" y="62.573"/><use x="44.814" xlink:href="#d" y="159.848"/><use x="53.662716" xlink:href="#e" y="159.848"/><use x="143.432" xlink:href="#e" y="159.848"/><use x="150.599" xlink:href="#f" y="153.601"/></svg>